<?xml version="1.0" encoding="UTF-8" standalone="no"?>
<!DOCTYPE svg PUBLIC "-//W3C//DTD SVG 1.1//EN"
 "http://www.w3.org/Graphics/SVG/1.1/DTD/svg11.dtd">
<!-- Generated by graphviz version 2.26.3 (20100126.1600)
 -->
<!-- Title: G Pages: 1 -->
<!--zoomable 512 -->
<svg id="main" version="1.1" xmlns="http://www.w3.org/2000/svg" xmlns:xlink="http://www.w3.org/1999/xlink" xml:space="preserve" onload="init(evt)">
        <defs>
                <circle id="rim" cx="0" cy="0" r="7"/>
                <circle id="rim2" cx="0" cy="0" r="3.5"/>
                <g id="zoomPlus">
                        <use xlink:href="#rim" fill="#404040">
                                <set attributeName="fill" to="#808080" begin="zoomplus.mouseover" end="zoomplus.mouseout"/>
                        </use>
                        <path d="M-4,0h8M0,-4v8" fill="none" stroke="white" stroke-width="1.5" pointer-events="none"/>
                </g>
                <g id="zoomMin">
                        <use xlink:href="#rim" fill="#404040">
                                <set attributeName="fill" to="#808080" begin="zoomminus.mouseover" end="zoomminus.mouseout"/>
                        </use>
                        <path d="M-4,0h8" fill="none" stroke="white" stroke-width="1.5" pointer-events="none"/>
                </g>
                <g id="dirArrow">
                        <path fill="none" stroke="white" stroke-width="1.5" d="M0,-3.0v7 M-2.5,-0.5L0,-3.0L2.5,-0.5"/>
                </g>
               <g id="resetDef">
                       <use xlink:href="#rim2" fill="#404040">
                               <set attributeName="fill" to="#808080" begin="reset.mouseover" end="reset.mouseout"/>
                       </use>
               </g>
        </defs>

<script type="text/javascript">
var viewWidth = 819;
var viewHeight = 512;
var sectionId = 'dynsection-0';
</script>
<script xlink:href="svgpan.js"/>
<svg id="graph" class="graph">
<g id="viewport">
<title>G</title>
<polygon fill="white" stroke="white" points="-4,5 -4,-508 816.17,-508 816.17,5 -4,5"/>
<!-- Node1 -->
<g id="node1" class="node"><title>Node1</title>
<polygon fill="#bfbfbf" stroke="black" points="370,-481 370,-503 540,-503 540,-481 370,-481"/>
<text text-anchor="middle" x="455" y="-490" font-family="FreeSans" font-size="10.00">asynchronousfileloadingworkunit.h</text>
</g>
<!-- Node2 -->
<g id="node3" class="node"><title>Node2</title>
<a xlink:href="asynchronousworkunit_8h.html" target="_top" xlink:title="Contains an interface for a kind of WorkUnit that loads or does other work even when the frame schedu...">
<polygon fill="white" stroke="black" points="393.5,-421 393.5,-443 516.5,-443 516.5,-421 393.5,-421"/>
<text text-anchor="middle" x="455" y="-430" font-family="FreeSans" font-size="10.00">asynchronousworkunit.h</text>
</a>
</g>
<!-- Node1&#45;&gt;Node2 -->
<g id="edge2" class="edge"><title>Node1&#45;&gt;Node2</title>
<path fill="none" stroke="midnightblue" d="M455,-480.995C455,-473.311 455,-462.803 455,-453.488"/>
<polygon fill="midnightblue" stroke="midnightblue" points="458.5,-453.343 455,-443.343 451.5,-453.343 458.5,-453.343"/>
</g>
<!-- Node3 -->
<g id="node5" class="node"><title>Node3</title>
<a xlink:href="datatypes_8h.html" target="_top" xlink:title="This file declares a few typedefs to allow flexibility, in case a change is required/desired.">
<polygon fill="white" stroke="black" points="296,-121 296,-143 364,-143 364,-121 296,-121"/>
<text text-anchor="middle" x="330" y="-130" font-family="FreeSans" font-size="10.00">datatypes.h</text>
</a>
</g>
<!-- Node2&#45;&gt;Node3 -->
<g id="edge4" class="edge"><title>Node2&#45;&gt;Node3</title>
<path fill="none" stroke="midnightblue" d="M393.163,-428.606C268.758,-420.082 0,-392.367 0,-312 0,-312 0,-312 0,-252 0,-211.186 21.9433,-200.9 57,-180 94.8624,-157.427 218.342,-142.58 285.509,-135.961"/>
<polygon fill="midnightblue" stroke="midnightblue" points="286.167,-139.414 295.784,-134.97 285.494,-132.447 286.167,-139.414"/>
</g>
<!-- Node11 -->
<g id="node21" class="node"><title>Node11</title>
<a xlink:href="doublebufferedresource_8h.html" target="_top" xlink:title="This file defines the template double buffered resources that can be attached to a thread...">
<polygon fill="white" stroke="black" points="627.5,-241 627.5,-263 758.5,-263 758.5,-241 627.5,-241"/>
<text text-anchor="middle" x="693" y="-250" font-family="FreeSans" font-size="10.00">doublebufferedresource.h</text>
</a>
</g>
<!-- Node2&#45;&gt;Node11 -->
<g id="edge20" class="edge"><title>Node2&#45;&gt;Node11</title>
<path fill="none" stroke="midnightblue" d="M506.735,-420.978C558.178,-407.242 635.396,-378.602 678,-324 689.187,-309.662 692.569,-288.991 693.368,-273.473"/>
<polygon fill="midnightblue" stroke="midnightblue" points="696.872,-273.314 693.568,-263.248 689.873,-273.177 696.872,-273.314"/>
</g>
<!-- Node15 -->
<g id="node30" class="node"><title>Node15</title>
<a xlink:href="workunit_8h.html" target="_top" xlink:title="This file has the defintion of the workunit.">
<polygon fill="white" stroke="black" points="424.5,-361 424.5,-383 485.5,-383 485.5,-361 424.5,-361"/>
<text text-anchor="middle" x="455" y="-370" font-family="FreeSans" font-size="10.00">workunit.h</text>
</a>
</g>
<!-- Node2&#45;&gt;Node15 -->
<g id="edge30" class="edge"><title>Node2&#45;&gt;Node15</title>
<path fill="none" stroke="midnightblue" d="M455,-420.995C455,-413.311 455,-402.803 455,-393.488"/>
<polygon fill="midnightblue" stroke="midnightblue" points="458.5,-393.343 455,-383.343 451.5,-393.343 458.5,-393.343"/>
</g>
<!-- Node4 -->
<g id="node7" class="node"><title>Node4</title>
<a xlink:href="compilerthreadcompat_8h.html" target="_top" xlink:title="This file determines what features are offered by the compiler that this library can take advantage o...">
<polygon fill="white" stroke="black" points="442,-61 442,-83 566,-83 566,-61 442,-61"/>
<text text-anchor="middle" x="504" y="-70" font-family="FreeSans" font-size="10.00">compilerthreadcompat.h</text>
</a>
</g>
<!-- Node3&#45;&gt;Node4 -->
<g id="edge6" class="edge"><title>Node3&#45;&gt;Node4</title>
<path fill="none" stroke="midnightblue" d="M361.914,-120.995C390.155,-111.257 431.551,-96.9824 462.384,-86.3502"/>
<polygon fill="midnightblue" stroke="midnightblue" points="463.681,-89.6054 471.994,-83.0366 461.399,-82.9878 463.681,-89.6054"/>
</g>
<!-- Node9 -->
<g id="node17" class="node"><title>Node9</title>
<polygon fill="white" stroke="#bfbfbf" points="377.5,-61 377.5,-83 418.5,-83 418.5,-61 377.5,-61"/>
<text text-anchor="middle" x="398" y="-70" font-family="FreeSans" font-size="10.00">string</text>
</g>
<!-- Node3&#45;&gt;Node9 -->
<g id="edge16" class="edge"><title>Node3&#45;&gt;Node9</title>
<path fill="none" stroke="midnightblue" d="M342.472,-120.995C352.222,-112.392 365.983,-100.25 377.367,-90.2054"/>
<polygon fill="midnightblue" stroke="midnightblue" points="379.962,-92.5835 385.145,-83.3428 375.331,-87.3346 379.962,-92.5835"/>
</g>
<!-- Node10 -->
<g id="node19" class="node"><title>Node10</title>
<polygon fill="white" stroke="#bfbfbf" points="306.5,-61 306.5,-83 353.5,-83 353.5,-61 306.5,-61"/>
<text text-anchor="middle" x="330" y="-70" font-family="FreeSans" font-size="10.00">stdint.h</text>
</g>
<!-- Node3&#45;&gt;Node10 -->
<g id="edge18" class="edge"><title>Node3&#45;&gt;Node10</title>
<path fill="none" stroke="midnightblue" d="M330,-120.995C330,-113.311 330,-102.803 330,-93.4884"/>
<polygon fill="midnightblue" stroke="midnightblue" points="333.5,-93.3428 330,-83.3428 326.5,-93.3429 333.5,-93.3428"/>
</g>
<!-- Node5 -->
<g id="node9" class="node"><title>Node5</title>
<polygon fill="white" stroke="#bfbfbf" points="368,-1 368,-23 426,-23 426,-1 368,-1"/>
<text text-anchor="middle" x="397" y="-10" font-family="FreeSans" font-size="10.00">pthread.h</text>
</g>
<!-- Node4&#45;&gt;Node5 -->
<g id="edge8" class="edge"><title>Node4&#45;&gt;Node5</title>
<path fill="none" stroke="midnightblue" d="M484.375,-60.9951C467.962,-51.7917 444.324,-38.5366 425.772,-28.1336"/>
<polygon fill="midnightblue" stroke="midnightblue" points="427.298,-24.9766 416.863,-23.1383 423.874,-31.0822 427.298,-24.9766"/>
</g>
<!-- Node6 -->
<g id="node11" class="node"><title>Node6</title>
<polygon fill="white" stroke="#bfbfbf" points="443.5,-1 443.5,-23 494.5,-23 494.5,-1 443.5,-1"/>
<text text-anchor="middle" x="469" y="-10" font-family="FreeSans" font-size="10.00">signal.h</text>
</g>
<!-- Node4&#45;&gt;Node6 -->
<g id="edge10" class="edge"><title>Node4&#45;&gt;Node6</title>
<path fill="none" stroke="midnightblue" d="M497.58,-60.9951C492.855,-52.8936 486.297,-41.6525 480.656,-31.981"/>
<polygon fill="midnightblue" stroke="midnightblue" points="483.679,-30.2171 475.617,-23.3428 477.632,-33.7442 483.679,-30.2171"/>
</g>
<!-- Node7 -->
<g id="node13" class="node"><title>Node7</title>
<polygon fill="white" stroke="#bfbfbf" points="512,-1 512,-23 564,-23 564,-1 512,-1"/>
<text text-anchor="middle" x="538" y="-10" font-family="FreeSans" font-size="10.00">sched.h</text>
</g>
<!-- Node4&#45;&gt;Node7 -->
<g id="edge12" class="edge"><title>Node4&#45;&gt;Node7</title>
<path fill="none" stroke="midnightblue" d="M510.236,-60.9951C514.78,-52.9771 521.066,-41.884 526.508,-32.2806"/>
<polygon fill="midnightblue" stroke="midnightblue" points="529.687,-33.7686 531.572,-23.3428 523.597,-30.3175 529.687,-33.7686"/>
</g>
<!-- Node8 -->
<g id="node15" class="node"><title>Node8</title>
<polygon fill="white" stroke="#bfbfbf" points="582,-1 582,-23 632,-23 632,-1 582,-1"/>
<text text-anchor="middle" x="607" y="-10" font-family="FreeSans" font-size="10.00">unistd.h</text>
</g>
<!-- Node4&#45;&gt;Node8 -->
<g id="edge14" class="edge"><title>Node4&#45;&gt;Node8</title>
<path fill="none" stroke="midnightblue" d="M522.892,-60.9951C538.619,-51.8337 561.238,-38.6576 579.059,-28.2763"/>
<polygon fill="midnightblue" stroke="midnightblue" points="581,-31.1962 587.879,-23.1383 577.477,-25.1476 581,-31.1962"/>
</g>
<!-- Node11&#45;&gt;Node3 -->
<g id="edge22" class="edge"><title>Node11&#45;&gt;Node3</title>
<path fill="none" stroke="midnightblue" d="M685.7,-240.84C674.385,-224.546 650.976,-194.598 623,-180 580.478,-157.812 444.943,-142.517 374.096,-135.819"/>
<polygon fill="midnightblue" stroke="midnightblue" points="374.412,-132.334 364.132,-134.893 373.765,-139.304 374.412,-132.334"/>
</g>
<!-- Node12 -->
<g id="node24" class="node"><title>Node12</title>
<polygon fill="white" stroke="#bfbfbf" points="740,-181 740,-203 798,-203 798,-181 740,-181"/>
<text text-anchor="middle" x="769" y="-190" font-family="FreeSans" font-size="10.00">algorithm</text>
</g>
<!-- Node11&#45;&gt;Node12 -->
<g id="edge24" class="edge"><title>Node11&#45;&gt;Node12</title>
<path fill="none" stroke="midnightblue" d="M706.94,-240.995C718.118,-232.17 734.016,-219.619 746.922,-209.43"/>
<polygon fill="midnightblue" stroke="midnightblue" points="749.211,-212.082 754.891,-203.138 744.874,-206.588 749.211,-212.082"/>
</g>
<!-- Node13 -->
<g id="node26" class="node"><title>Node13</title>
<polygon fill="white" stroke="#bfbfbf" points="669.5,-181 669.5,-203 722.5,-203 722.5,-181 669.5,-181"/>
<text text-anchor="middle" x="696" y="-190" font-family="FreeSans" font-size="10.00">sstream</text>
</g>
<!-- Node11&#45;&gt;Node13 -->
<g id="edge26" class="edge"><title>Node11&#45;&gt;Node13</title>
<path fill="none" stroke="midnightblue" d="M693.55,-240.995C693.934,-233.311 694.46,-222.803 694.926,-213.488"/>
<polygon fill="midnightblue" stroke="midnightblue" points="698.429,-213.505 695.433,-203.343 691.438,-213.156 698.429,-213.505"/>
</g>
<!-- Node14 -->
<g id="node28" class="node"><title>Node14</title>
<polygon fill="white" stroke="#bfbfbf" points="570,-181 570,-203 614,-203 614,-181 570,-181"/>
<text text-anchor="middle" x="592" y="-190" font-family="FreeSans" font-size="10.00">vector</text>
</g>
<!-- Node11&#45;&gt;Node14 -->
<g id="edge28" class="edge"><title>Node11&#45;&gt;Node14</title>
<path fill="none" stroke="midnightblue" d="M674.475,-240.995C659.053,-231.834 636.874,-218.658 619.398,-208.276"/>
<polygon fill="midnightblue" stroke="midnightblue" points="621.135,-205.237 610.75,-203.138 617.559,-211.255 621.135,-205.237"/>
</g>
<!-- Node15&#45;&gt;Node3 -->
<g id="edge32" class="edge"><title>Node15&#45;&gt;Node3</title>
<path fill="none" stroke="midnightblue" d="M424.285,-368.679C338.446,-358.676 99.5388,-325.657 57,-264 -2.30152,-178.047 194.191,-146.044 285.687,-135.99"/>
<polygon fill="midnightblue" stroke="midnightblue" points="286.201,-139.455 295.778,-134.924 285.465,-132.494 286.201,-139.455"/>
</g>
<!-- Node15&#45;&gt;Node14 -->
<g id="edge84" class="edge"><title>Node15&#45;&gt;Node14</title>
<path fill="none" stroke="midnightblue" d="M467.129,-360.94C497.149,-333.558 572.54,-264.761 573,-264 582.328,-248.572 587.131,-228.587 589.572,-213.588"/>
<polygon fill="midnightblue" stroke="midnightblue" points="593.099,-213.636 591.013,-203.248 586.166,-212.669 593.099,-213.636"/>
</g>
<!-- Node16 -->
<g id="node33" class="node"><title>Node16</title>
<a xlink:href="framescheduler_8h.html" target="_top" xlink:title="This file has the Declarations for the main FrameScheduler class.">
<polygon fill="white" stroke="black" points="293,-301 293,-323 387,-323 387,-301 293,-301"/>
<text text-anchor="middle" x="340" y="-310" font-family="FreeSans" font-size="10.00">framescheduler.h</text>
</a>
</g>
<!-- Node15&#45;&gt;Node16 -->
<g id="edge34" class="edge"><title>Node15&#45;&gt;Node16</title>
<path fill="none" stroke="midnightblue" d="M433.907,-360.995C416.106,-351.708 390.397,-338.294 370.378,-327.849"/>
<polygon fill="midnightblue" stroke="midnightblue" points="371.833,-324.661 361.349,-323.138 368.595,-330.867 371.833,-324.661"/>
</g>
<!-- Node17 -->
<g id="node37" class="node"><title>Node17</title>
<a xlink:href="thread_8h.html" target="_top" xlink:title="This file defines a minimalistic cross&#45;platform thread that the scheduler uses to schedule tasks...">
<polygon fill="white" stroke="black" points="405.5,-241 405.5,-263 458.5,-263 458.5,-241 405.5,-241"/>
<text text-anchor="middle" x="432" y="-250" font-family="FreeSans" font-size="10.00">thread.h</text>
</a>
</g>
<!-- Node15&#45;&gt;Node17 -->
<g id="edge80" class="edge"><title>Node15&#45;&gt;Node17</title>
<path fill="none" stroke="midnightblue" d="M452.877,-360.926C449.044,-340.923 440.907,-298.472 436.001,-272.872"/>
<polygon fill="midnightblue" stroke="midnightblue" points="439.437,-272.21 434.117,-263.047 432.562,-273.528 439.437,-272.21"/>
</g>
<!-- Node19 -->
<g id="node43" class="node"><title>Node19</title>
<a xlink:href="mutex_8h.html" target="_top" xlink:title="This file declares and defines a mutex that is a partial implementation.">
<polygon fill="white" stroke="black" points="531.5,-121 531.5,-143 582.5,-143 582.5,-121 531.5,-121"/>
<text text-anchor="middle" x="557" y="-130" font-family="FreeSans" font-size="10.00">mutex.h</text>
</a>
</g>
<!-- Node15&#45;&gt;Node19 -->
<g id="edge70" class="edge"><title>Node15&#45;&gt;Node19</title>
<path fill="none" stroke="midnightblue" d="M485.696,-370.535C563.775,-364.868 766.626,-337.345 807,-204 810.091,-193.791 813.794,-188.223 807,-180 780.256,-147.632 655.49,-136.87 592.942,-133.472"/>
<polygon fill="midnightblue" stroke="midnightblue" points="592.907,-129.966 582.742,-132.953 592.552,-136.957 592.907,-129.966"/>
</g>
<!-- Node21 -->
<g id="node50" class="node"><title>Node21</title>
<a xlink:href="workunitkey_8h.html" target="_top" xlink:title="This file defines the metadata used to sort workunits.">
<polygon fill="white" stroke="black" points="65.5,-241 65.5,-263 142.5,-263 142.5,-241 65.5,-241"/>
<text text-anchor="middle" x="104" y="-250" font-family="FreeSans" font-size="10.00">workunitkey.h</text>
</a>
</g>
<!-- Node15&#45;&gt;Node21 -->
<g id="edge82" class="edge"><title>Node15&#45;&gt;Node21</title>
<path fill="none" stroke="midnightblue" d="M424.429,-364.471C389.983,-355.746 332.472,-340.445 284,-324 232.724,-306.604 174.81,-282.638 138.85,-267.23"/>
<polygon fill="midnightblue" stroke="midnightblue" points="139.883,-263.864 129.314,-263.124 137.114,-270.293 139.883,-263.864"/>
</g>
<!-- Node25 -->
<g id="node61" class="node"><title>Node25</title>
<a xlink:href="rollingaverage_8h.html" target="_top" xlink:title="This Store the implementation and the declaration of the RollingAverage, BufferedRollingAverage, WeightedRollingAverage and the DefaultRollingAverage.">
<polygon fill="white" stroke="black" points="475.5,-241 475.5,-263 564.5,-263 564.5,-241 475.5,-241"/>
<text text-anchor="middle" x="520" y="-250" font-family="FreeSans" font-size="10.00">rollingaverage.h</text>
</a>
</g>
<!-- Node15&#45;&gt;Node25 -->
<g id="edge72" class="edge"><title>Node15&#45;&gt;Node25</title>
<path fill="none" stroke="midnightblue" d="M460.999,-360.926C471.979,-340.655 495.446,-297.331 509.246,-271.853"/>
<polygon fill="midnightblue" stroke="midnightblue" points="512.331,-273.507 514.016,-263.047 506.176,-270.173 512.331,-273.507"/>
</g>
<!-- Node26 -->
<g id="node65" class="node"><title>Node26</title>
<a xlink:href="threadingenumerations_8h.html" target="_top" xlink:title="Any enumerations the threading library requires are all declared here.">
<polygon fill="white" stroke="black" points="542.5,-301 542.5,-323 669.5,-323 669.5,-301 542.5,-301"/>
<text text-anchor="middle" x="606" y="-310" font-family="FreeSans" font-size="10.00">threadingenumerations.h</text>
</a>
</g>
<!-- Node15&#45;&gt;Node26 -->
<g id="edge78" class="edge"><title>Node15&#45;&gt;Node26</title>
<path fill="none" stroke="midnightblue" d="M482.696,-360.995C506.885,-351.383 542.196,-337.352 568.838,-326.766"/>
<polygon fill="midnightblue" stroke="midnightblue" points="570.224,-329.982 578.225,-323.037 567.639,-323.477 570.224,-329.982"/>
</g>
<!-- Node16&#45;&gt;Node3 -->
<g id="edge36" class="edge"><title>Node16&#45;&gt;Node3</title>
<path fill="none" stroke="midnightblue" d="M338.963,-300.782C337.181,-285.96 332.539,-259.46 321,-240 309.135,-219.989 292.192,-225.371 283,-204 278.785,-194.201 278.97,-189.876 283,-180 287.771,-168.307 296.915,-157.918 305.879,-149.822"/>
<polygon fill="midnightblue" stroke="midnightblue" points="308.201,-152.442 313.595,-143.323 303.692,-147.088 308.201,-152.442"/>
</g>
<!-- Node16&#45;&gt;Node11 -->
<g id="edge38" class="edge"><title>Node16&#45;&gt;Node11</title>
<path fill="none" stroke="midnightblue" d="M387.241,-303.97C446.332,-293.927 548.211,-276.61 618.007,-264.747"/>
<polygon fill="midnightblue" stroke="midnightblue" points="618.791,-268.164 628.063,-263.037 617.618,-261.263 618.791,-268.164"/>
</g>
<!-- Node16&#45;&gt;Node17 -->
<g id="edge40" class="edge"><title>Node16&#45;&gt;Node17</title>
<path fill="none" stroke="midnightblue" d="M356.874,-300.995C370.664,-292.002 390.386,-279.14 406.163,-268.851"/>
<polygon fill="midnightblue" stroke="midnightblue" points="408.457,-271.533 414.921,-263.138 404.633,-265.669 408.457,-271.533"/>
</g>
<!-- Node18 -->
<g id="node40" class="node"><title>Node18</title>
<a xlink:href="systemcalls_8h.html" target="_top" xlink:title="This file defines a minimalistic cross&#45;platform thread that the scheduler uses to schedule tasks...">
<polygon fill="white" stroke="black" points="291.5,-181 291.5,-203 368.5,-203 368.5,-181 291.5,-181"/>
<text text-anchor="middle" x="330" y="-190" font-family="FreeSans" font-size="10.00">systemcalls.h</text>
</a>
</g>
<!-- Node16&#45;&gt;Node18 -->
<g id="edge62" class="edge"><title>Node16&#45;&gt;Node18</title>
<path fill="none" stroke="midnightblue" d="M345.158,-300.717C350.983,-286.491 359.032,-261.317 354,-240 351.723,-230.354 347.194,-220.437 342.678,-212.139"/>
<polygon fill="midnightblue" stroke="midnightblue" points="345.568,-210.145 337.519,-203.255 339.515,-213.66 345.568,-210.145"/>
</g>
<!-- Node16&#45;&gt;Node21 -->
<g id="edge58" class="edge"><title>Node16&#45;&gt;Node21</title>
<path fill="none" stroke="midnightblue" d="M296.457,-300.958C260.317,-291.79 207.295,-278.33 152.595,-264.405"/>
<polygon fill="midnightblue" stroke="midnightblue" points="153.282,-260.968 142.728,-261.892 151.555,-267.751 153.282,-260.968"/>
</g>
<!-- Node22 -->
<g id="node54" class="node"><title>Node22</title>
<polygon fill="white" stroke="#bfbfbf" points="160,-241 160,-263 196,-263 196,-241 160,-241"/>
<text text-anchor="middle" x="178" y="-250" font-family="FreeSans" font-size="10.00">map</text>
</g>
<!-- Node16&#45;&gt;Node22 -->
<g id="edge64" class="edge"><title>Node16&#45;&gt;Node22</title>
<path fill="none" stroke="midnightblue" d="M306.725,-300.963C281.277,-292.347 245.164,-279.745 205.757,-264.136"/>
<polygon fill="midnightblue" stroke="midnightblue" points="206.804,-260.785 196.219,-260.324 204.206,-267.285 206.804,-260.785"/>
</g>
<!-- Node23 -->
<g id="node56" class="node"><title>Node23</title>
<polygon fill="white" stroke="#bfbfbf" points="214,-241 214,-263 244,-263 244,-241 214,-241"/>
<text text-anchor="middle" x="229" y="-250" font-family="FreeSans" font-size="10.00">set</text>
</g>
<!-- Node16&#45;&gt;Node23 -->
<g id="edge66" class="edge"><title>Node16&#45;&gt;Node23</title>
<path fill="none" stroke="midnightblue" d="M319.641,-300.995C300.923,-290.877 273.147,-275.863 253.28,-265.125"/>
<polygon fill="midnightblue" stroke="midnightblue" points="254.699,-261.913 244.238,-260.237 251.37,-268.071 254.699,-261.913"/>
</g>
<!-- Node24 -->
<g id="node58" class="node"><title>Node24</title>
<polygon fill="white" stroke="#bfbfbf" points="262,-241 262,-263 312,-263 312,-241 262,-241"/>
<text text-anchor="middle" x="287" y="-250" font-family="FreeSans" font-size="10.00">fstream</text>
</g>
<!-- Node16&#45;&gt;Node24 -->
<g id="edge68" class="edge"><title>Node16&#45;&gt;Node24</title>
<path fill="none" stroke="midnightblue" d="M330.279,-300.995C322.901,-292.643 312.576,-280.954 303.861,-271.088"/>
<polygon fill="midnightblue" stroke="midnightblue" points="306.263,-268.52 297.02,-263.343 301.017,-273.155 306.263,-268.52"/>
</g>
<!-- Node17&#45;&gt;Node4 -->
<g id="edge42" class="edge"><title>Node17&#45;&gt;Node4</title>
<path fill="none" stroke="midnightblue" d="M436.504,-240.74C448.323,-211.193 480.366,-131.086 495.659,-92.8521"/>
<polygon fill="midnightblue" stroke="midnightblue" points="499.033,-93.8402 499.498,-83.2556 492.534,-91.2404 499.033,-93.8402"/>
</g>
<!-- Node17&#45;&gt;Node14 -->
<g id="edge56" class="edge"><title>Node17&#45;&gt;Node14</title>
<path fill="none" stroke="midnightblue" d="M458.78,-241.957C486.755,-231.467 530.618,-215.018 560.301,-203.887"/>
<polygon fill="midnightblue" stroke="midnightblue" points="561.646,-207.121 569.78,-200.332 559.188,-200.567 561.646,-207.121"/>
</g>
<!-- Node17&#45;&gt;Node18 -->
<g id="edge44" class="edge"><title>Node17&#45;&gt;Node18</title>
<path fill="none" stroke="midnightblue" d="M413.292,-240.995C397.717,-231.834 375.318,-218.658 357.67,-208.276"/>
<polygon fill="midnightblue" stroke="midnightblue" points="359.329,-205.192 348.935,-203.138 355.78,-211.225 359.329,-205.192"/>
</g>
<!-- Node17&#45;&gt;Node19 -->
<g id="edge48" class="edge"><title>Node17&#45;&gt;Node19</title>
<path fill="none" stroke="midnightblue" d="M458.611,-241.857C477.037,-233.792 501.181,-221.034 518,-204 532.365,-189.453 542.898,-168.528 549.371,-152.982"/>
<polygon fill="midnightblue" stroke="midnightblue" points="552.806,-153.81 553.201,-143.223 546.29,-151.253 552.806,-153.81"/>
</g>
<!-- Node20 -->
<g id="node47" class="node"><title>Node20</title>
<polygon fill="white" stroke="#bfbfbf" points="385.5,-181 385.5,-203 438.5,-203 438.5,-181 385.5,-181"/>
<text text-anchor="middle" x="412" y="-190" font-family="FreeSans" font-size="10.00">ostream</text>
</g>
<!-- Node17&#45;&gt;Node20 -->
<g id="edge54" class="edge"><title>Node17&#45;&gt;Node20</title>
<path fill="none" stroke="midnightblue" d="M428.332,-240.995C425.715,-233.144 422.115,-222.345 418.961,-212.883"/>
<polygon fill="midnightblue" stroke="midnightblue" points="422.264,-211.723 415.781,-203.343 415.623,-213.937 422.264,-211.723"/>
</g>
<!-- Node18&#45;&gt;Node3 -->
<g id="edge46" class="edge"><title>Node18&#45;&gt;Node3</title>
<path fill="none" stroke="midnightblue" d="M330,-180.995C330,-173.311 330,-162.803 330,-153.488"/>
<polygon fill="midnightblue" stroke="midnightblue" points="333.5,-153.343 330,-143.343 326.5,-153.343 333.5,-153.343"/>
</g>
<!-- Node19&#45;&gt;Node4 -->
<g id="edge50" class="edge"><title>Node19&#45;&gt;Node4</title>
<path fill="none" stroke="midnightblue" d="M547.279,-120.995C539.901,-112.643 529.576,-100.954 520.861,-91.0882"/>
<polygon fill="midnightblue" stroke="midnightblue" points="523.263,-88.5205 514.02,-83.3428 518.017,-93.1547 523.263,-88.5205"/>
</g>
<!-- Node19&#45;&gt;Node9 -->
<g id="edge52" class="edge"><title>Node19&#45;&gt;Node9</title>
<path fill="none" stroke="midnightblue" d="M531.454,-122.36C503.377,-111.765 458.299,-94.7544 428.419,-83.4787"/>
<polygon fill="midnightblue" stroke="midnightblue" points="429.506,-80.1482 418.914,-79.8921 427.034,-86.6974 429.506,-80.1482"/>
</g>
<!-- Node21&#45;&gt;Node3 -->
<g id="edge60" class="edge"><title>Node21&#45;&gt;Node3</title>
<path fill="none" stroke="midnightblue" d="M124.856,-240.926C165.135,-219.539 253.745,-172.49 300.218,-147.813"/>
<polygon fill="midnightblue" stroke="midnightblue" points="302.003,-150.828 309.194,-143.047 298.72,-144.646 302.003,-150.828"/>
</g>
<!-- Node25&#45;&gt;Node3 -->
<g id="edge76" class="edge"><title>Node25&#45;&gt;Node3</title>
<path fill="none" stroke="midnightblue" d="M511.161,-240.886C498.402,-225.454 473.436,-197.468 447,-180 424.481,-165.12 396.608,-153.462 373.717,-145.363"/>
<polygon fill="midnightblue" stroke="midnightblue" points="374.836,-142.047 364.241,-142.111 372.564,-148.667 374.836,-142.047"/>
</g>
<!-- Node25&#45;&gt;Node14 -->
<g id="edge74" class="edge"><title>Node25&#45;&gt;Node14</title>
<path fill="none" stroke="midnightblue" d="M533.206,-240.995C543.629,-232.309 558.383,-220.014 570.504,-209.913"/>
<polygon fill="midnightblue" stroke="midnightblue" points="572.947,-212.434 578.389,-203.343 568.466,-207.056 572.947,-212.434"/>
</g>
</g>
</svg>
        <g id="navigator" transform="translate(0 0)" fill="#404254">
                <rect fill="#f2f5e9" fill-opacity="0.5" stroke="#606060" stroke-width=".5" x="0" y="0" width="60" height="60"/>
                <use id="zoomplus" xlink:href="#zoomPlus" x="17" y="9" onmousedown="handleZoom(evt,'in')"/>
                <use id="zoomminus" xlink:href="#zoomMin" x="42" y="9" onmousedown="handleZoom(evt,'out')"/>
                <use id="reset" xlink:href="#resetDef" x="30" y="36" onmousedown="handleReset()"/>
                <g id="arrowUp" xlink:href="#dirArrow" transform="translate(30 24)" onmousedown="handlePan(0,-1)">
                  <use xlink:href="#rim" fill="#404040">
                        <set attributeName="fill" to="#808080" begin="arrowUp.mouseover" end="arrowUp.mouseout"/>
                  </use>
                  <path fill="none" stroke="white" stroke-width="1.5" d="M0,-3.0v7 M-2.5,-0.5L0,-3.0L2.5,-0.5"/>
                </g>
                <g id="arrowRight" xlink:href="#dirArrow" transform="rotate(90) translate(36 -43)" onmousedown="handlePan(1,0)">
                  <use xlink:href="#rim" fill="#404040">
                        <set attributeName="fill" to="#808080" begin="arrowRight.mouseover" end="arrowRight.mouseout"/>
                  </use>
                  <path fill="none" stroke="white" stroke-width="1.5" d="M0,-3.0v7 M-2.5,-0.5L0,-3.0L2.5,-0.5"/>
                </g>
                <g id="arrowDown" xlink:href="#dirArrow" transform="rotate(180) translate(-30 -48)" onmousedown="handlePan(0,1)">
                  <use xlink:href="#rim" fill="#404040">
                        <set attributeName="fill" to="#808080" begin="arrowDown.mouseover" end="arrowDown.mouseout"/>
                  </use>
                  <path fill="none" stroke="white" stroke-width="1.5" d="M0,-3.0v7 M-2.5,-0.5L0,-3.0L2.5,-0.5"/>
                </g>
                <g id="arrowLeft" xlink:href="#dirArrow" transform="rotate(270) translate(-36 17)" onmousedown="handlePan(-1,0)">
                  <use xlink:href="#rim" fill="#404040">
                        <set attributeName="fill" to="#808080" begin="arrowLeft.mouseover" end="arrowLeft.mouseout"/>
                  </use>
                  <path fill="none" stroke="white" stroke-width="1.5" d="M0,-3.0v7 M-2.5,-0.5L0,-3.0L2.5,-0.5"/>
                </g>
        </g>
</svg>
