<?xml version="1.0" encoding="UTF-8" standalone="no"?>
<!DOCTYPE svg PUBLIC "-//W3C//DTD SVG 1.1//EN"
 "http://www.w3.org/Graphics/SVG/1.1/DTD/svg11.dtd">
<!-- Generated by graphviz version 2.26.3 (20100126.1600)
 -->
<!-- Title: asynchronousfileloadingworkunit.cpp Pages: 1 -->
<!--zoomable 552 -->
<svg id="main" version="1.1" xmlns="http://www.w3.org/2000/svg" xmlns:xlink="http://www.w3.org/1999/xlink" xml:space="preserve" onload="init(evt)">
        <defs>
                <circle id="rim" cx="0" cy="0" r="7"/>
                <circle id="rim2" cx="0" cy="0" r="3.5"/>
                <g id="zoomPlus">
                        <use xlink:href="#rim" fill="#404040">
                                <set attributeName="fill" to="#808080" begin="zoomplus.mouseover" end="zoomplus.mouseout"/>
                        </use>
                        <path d="M-4,0h8M0,-4v8" fill="none" stroke="white" stroke-width="1.5" pointer-events="none"/>
                </g>
                <g id="zoomMin">
                        <use xlink:href="#rim" fill="#404040">
                                <set attributeName="fill" to="#808080" begin="zoomminus.mouseover" end="zoomminus.mouseout"/>
                        </use>
                        <path d="M-4,0h8" fill="none" stroke="white" stroke-width="1.5" pointer-events="none"/>
                </g>
                <g id="dirArrow">
                        <path fill="none" stroke="white" stroke-width="1.5" d="M0,-3.0v7 M-2.5,-0.5L0,-3.0L2.5,-0.5"/>
                </g>
               <g id="resetDef">
                       <use xlink:href="#rim2" fill="#404040">
                               <set attributeName="fill" to="#808080" begin="reset.mouseover" end="reset.mouseout"/>
                       </use>
               </g>
        </defs>

<script type="text/javascript">
var viewWidth = 936;
var viewHeight = 552;
var sectionId = 'dynsection-0';
</script>
<script xlink:href="svgpan.js"/>
<svg id="graph" class="graph">
<g id="viewport">
<title>asynchronousfileloadingworkunit.cpp</title>
<polygon fill="white" stroke="white" points="-4,5 -4,-548 933,-548 933,5 -4,5"/>
<!-- Node1 -->
<g id="node1" class="node"><title>Node1</title>
<polygon fill="#bfbfbf" stroke="black" points="756,-523 756,-543 928,-543 928,-523 756,-523"/>
<text text-anchor="middle" x="842" y="-530" font-family="FreeSans" font-size="10.00">asynchronousfileloadingworkunit.cpp</text>
</g>
<!-- Node2 -->
<g id="node3" class="node"><title>Node2</title>
<a xlink:href="asynchronousfileloadingworkunit_8h.html" target="_top" xlink:title="The declaration of the AsynchronousFileLoadWorkUnit a workunit that loads a listing of files asynchro...">
<polygon fill="white" stroke="black" points="635.5,-465 635.5,-485 796.5,-485 796.5,-465 635.5,-465"/>
<text text-anchor="middle" x="716" y="-472" font-family="FreeSans" font-size="10.00">asynchronousfileloadingworkunit.h</text>
</a>
</g>
<!-- Node1&#45;&gt;Node2 -->
<g id="edge2" class="edge"><title>Node1&#45;&gt;Node2</title>
<path fill="none" stroke="midnightblue" d="M820.052,-522.897C799.94,-513.639 769.941,-499.83 747.314,-489.415"/>
<polygon fill="midnightblue" stroke="midnightblue" points="748.666,-486.184 738.119,-485.182 745.739,-492.542 748.666,-486.184"/>
</g>
<!-- Node17 -->
<g id="node38" class="node"><title>Node17</title>
<a xlink:href="atomicoperations_8h.html" target="_top" xlink:title="Simple thread safe ways to check and change a specified variable atomically.">
<polygon fill="white" stroke="black" points="582,-117 582,-137 680,-137 680,-117 582,-117"/>
<text text-anchor="middle" x="631" y="-124" font-family="FreeSans" font-size="10.00">atomicoperations.h</text>
</a>
</g>
<!-- Node1&#45;&gt;Node17 -->
<g id="edge90" class="edge"><title>Node1&#45;&gt;Node17</title>
<path fill="none" stroke="midnightblue" d="M842,-522.759C842,-502.541 842,-456.069 842,-417 842,-417 842,-417 842,-359 842,-252.501 718.807,-173.3 660.685,-141.86"/>
<polygon fill="midnightblue" stroke="midnightblue" points="662.091,-138.644 651.616,-137.057 658.815,-144.831 662.091,-138.644"/>
</g>
<!-- Node26 -->
<g id="node72" class="node"><title>Node26</title>
<polygon fill="white" stroke="#bfbfbf" points="869.5,-465 869.5,-485 916.5,-485 916.5,-465 869.5,-465"/>
<text text-anchor="middle" x="893" y="-472" font-family="FreeSans" font-size="10.00">iterator</text>
</g>
<!-- Node1&#45;&gt;Node26 -->
<g id="edge92" class="edge"><title>Node1&#45;&gt;Node26</title>
<path fill="none" stroke="midnightblue" d="M850.884,-522.897C858.107,-514.682 868.482,-502.883 877.127,-493.051"/>
<polygon fill="midnightblue" stroke="midnightblue" points="879.9,-495.199 883.875,-485.378 874.643,-490.576 879.9,-495.199"/>
</g>
<!-- Node3 -->
<g id="node5" class="node"><title>Node3</title>
<a xlink:href="asynchronousworkunit_8h.html" target="_top" xlink:title="Contains an interface for a kind of WorkUnit that loads or does other work even when the frame schedu...">
<polygon fill="white" stroke="black" points="646.5,-407 646.5,-427 765.5,-427 765.5,-407 646.5,-407"/>
<text text-anchor="middle" x="706" y="-414" font-family="FreeSans" font-size="10.00">asynchronousworkunit.h</text>
</a>
</g>
<!-- Node2&#45;&gt;Node3 -->
<g id="edge4" class="edge"><title>Node2&#45;&gt;Node3</title>
<path fill="none" stroke="midnightblue" d="M714.258,-464.897C712.955,-457.339 711.129,-446.748 709.525,-437.446"/>
<polygon fill="midnightblue" stroke="midnightblue" points="712.938,-436.638 707.789,-427.378 706.039,-437.827 712.938,-436.638"/>
</g>
<!-- Node4 -->
<g id="node7" class="node"><title>Node4</title>
<a xlink:href="datatypes_8h.html" target="_top" xlink:title="This file declares a few typedefs to allow flexibility, in case a change is required/desired.">
<polygon fill="white" stroke="black" points="521.5,-59 521.5,-79 586.5,-79 586.5,-59 521.5,-59"/>
<text text-anchor="middle" x="554" y="-66" font-family="FreeSans" font-size="10.00">datatypes.h</text>
</a>
</g>
<!-- Node3&#45;&gt;Node4 -->
<g id="edge6" class="edge"><title>Node3&#45;&gt;Node4</title>
<path fill="none" stroke="midnightblue" d="M765.569,-410.835C830.115,-400.474 924,-373.025 924,-301 924,-301 924,-301 924,-185 924,-150.614 916.979,-135.99 889,-116 842.925,-83.0801 676.172,-73.0867 596.697,-70.1595"/>
<polygon fill="midnightblue" stroke="midnightblue" points="596.654,-66.656 586.538,-69.8065 596.411,-73.6517 596.654,-66.656"/>
</g>
<!-- Node8 -->
<g id="node15" class="node"><title>Node8</title>
<a xlink:href="doublebufferedresource_8h.html" target="_top" xlink:title="This file defines the template double buffered resources that can be attached to a thread...">
<polygon fill="white" stroke="black" points="39.5,-233 39.5,-253 162.5,-253 162.5,-233 39.5,-233"/>
<text text-anchor="middle" x="101" y="-240" font-family="FreeSans" font-size="10.00">doublebufferedresource.h</text>
</a>
</g>
<!-- Node3&#45;&gt;Node8 -->
<g id="edge14" class="edge"><title>Node3&#45;&gt;Node8</title>
<path fill="none" stroke="midnightblue" d="M646.458,-407.902C557.292,-393.294 384.529,-361.161 244,-312 201.688,-297.198 155.43,-273.359 127.312,-257.937"/>
<polygon fill="midnightblue" stroke="midnightblue" points="128.946,-254.841 118.503,-253.055 125.553,-260.964 128.946,-254.841"/>
</g>
<!-- Node12 -->
<g id="node24" class="node"><title>Node12</title>
<a xlink:href="workunit_8h.html" target="_top" xlink:title="This file has the definition of the workunit.">
<polygon fill="white" stroke="black" points="667,-349 667,-369 727,-369 727,-349 667,-349"/>
<text text-anchor="middle" x="697" y="-356" font-family="FreeSans" font-size="10.00">workunit.h</text>
</a>
</g>
<!-- Node3&#45;&gt;Node12 -->
<g id="edge24" class="edge"><title>Node3&#45;&gt;Node12</title>
<path fill="none" stroke="midnightblue" d="M704.432,-406.897C703.26,-399.339 701.616,-388.748 700.173,-379.446"/>
<polygon fill="midnightblue" stroke="midnightblue" points="703.602,-378.723 698.61,-369.378 696.685,-379.796 703.602,-378.723"/>
</g>
<!-- Node5 -->
<g id="node9" class="node"><title>Node5</title>
<a xlink:href="crossplatformexport_8h.html" target="_top" xlink:title="This file determines what features are offered by the compiler that this library can take advantage o...">
<polygon fill="white" stroke="black" points="547,-1 547,-21 655,-21 655,-1 547,-1"/>
<text text-anchor="middle" x="601" y="-8" font-family="FreeSans" font-size="10.00">crossplatformexport.h</text>
</a>
</g>
<!-- Node4&#45;&gt;Node5 -->
<g id="edge8" class="edge"><title>Node4&#45;&gt;Node5</title>
<path fill="none" stroke="midnightblue" d="M562.187,-58.8972C568.777,-50.7639 578.214,-39.1183 586.133,-29.3468"/>
<polygon fill="midnightblue" stroke="midnightblue" points="589.014,-31.3505 592.591,-21.3776 583.575,-26.9434 589.014,-31.3505"/>
</g>
<!-- Node6 -->
<g id="node11" class="node"><title>Node6</title>
<polygon fill="white" stroke="#bfbfbf" points="260,-1 260,-21 300,-21 300,-1 260,-1"/>
<text text-anchor="middle" x="280" y="-8" font-family="FreeSans" font-size="10.00">string</text>
</g>
<!-- Node4&#45;&gt;Node6 -->
<g id="edge10" class="edge"><title>Node4&#45;&gt;Node6</title>
<path fill="none" stroke="midnightblue" d="M521.493,-62.1189C467.914,-50.7774 361.839,-28.3235 309.971,-17.3442"/>
<polygon fill="midnightblue" stroke="midnightblue" points="310.566,-13.8926 300.058,-15.2458 309.116,-20.7409 310.566,-13.8926"/>
</g>
<!-- Node7 -->
<g id="node13" class="node"><title>Node7</title>
<polygon fill="white" stroke="#bfbfbf" points="482.5,-1 482.5,-21 529.5,-21 529.5,-1 482.5,-1"/>
<text text-anchor="middle" x="506" y="-8" font-family="FreeSans" font-size="10.00">stdint.h</text>
</g>
<!-- Node4&#45;&gt;Node7 -->
<g id="edge12" class="edge"><title>Node4&#45;&gt;Node7</title>
<path fill="none" stroke="midnightblue" d="M545.639,-58.8972C538.908,-50.7639 529.27,-39.1183 521.184,-29.3468"/>
<polygon fill="midnightblue" stroke="midnightblue" points="523.66,-26.8501 514.588,-21.3776 518.268,-31.3131 523.66,-26.8501"/>
</g>
<!-- Node8&#45;&gt;Node4 -->
<g id="edge16" class="edge"><title>Node8&#45;&gt;Node4</title>
<path fill="none" stroke="midnightblue" d="M108.447,-232.97C120.124,-217.945 144.197,-189.689 171,-174 282.867,-108.52 436.989,-82.5864 510.97,-73.4292"/>
<polygon fill="midnightblue" stroke="midnightblue" points="511.774,-76.8581 521.289,-72.1972 510.944,-69.9075 511.774,-76.8581"/>
</g>
<!-- Node9 -->
<g id="node18" class="node"><title>Node9</title>
<polygon fill="white" stroke="#bfbfbf" points="68,-175 68,-195 124,-195 124,-175 68,-175"/>
<text text-anchor="middle" x="96" y="-182" font-family="FreeSans" font-size="10.00">algorithm</text>
</g>
<!-- Node8&#45;&gt;Node9 -->
<g id="edge18" class="edge"><title>Node8&#45;&gt;Node9</title>
<path fill="none" stroke="midnightblue" d="M100.129,-232.897C99.4775,-225.339 98.5644,-214.748 97.7626,-205.446"/>
<polygon fill="midnightblue" stroke="midnightblue" points="101.241,-205.04 96.8946,-195.378 94.2665,-205.641 101.241,-205.04"/>
</g>
<!-- Node10 -->
<g id="node20" class="node"><title>Node10</title>
<polygon fill="white" stroke="#bfbfbf" points="0,-175 0,-195 50,-195 50,-175 0,-175"/>
<text text-anchor="middle" x="25" y="-182" font-family="FreeSans" font-size="10.00">sstream</text>
</g>
<!-- Node8&#45;&gt;Node10 -->
<g id="edge20" class="edge"><title>Node8&#45;&gt;Node10</title>
<path fill="none" stroke="midnightblue" d="M87.7618,-232.897C76.3888,-224.218 59.7744,-211.538 46.4965,-201.405"/>
<polygon fill="midnightblue" stroke="midnightblue" points="48.4144,-198.466 38.3415,-195.182 44.1676,-204.031 48.4144,-198.466"/>
</g>
<!-- Node11 -->
<g id="node22" class="node"><title>Node11</title>
<polygon fill="white" stroke="#bfbfbf" points="179.5,-175 179.5,-195 222.5,-195 222.5,-175 179.5,-175"/>
<text text-anchor="middle" x="201" y="-182" font-family="FreeSans" font-size="10.00">vector</text>
</g>
<!-- Node8&#45;&gt;Node11 -->
<g id="edge22" class="edge"><title>Node8&#45;&gt;Node11</title>
<path fill="none" stroke="midnightblue" d="M118.419,-232.897C133.953,-223.887 156.92,-210.567 174.692,-200.259"/>
<polygon fill="midnightblue" stroke="midnightblue" points="176.551,-203.227 183.445,-195.182 173.039,-197.171 176.551,-203.227"/>
</g>
<!-- Node12&#45;&gt;Node4 -->
<g id="edge26" class="edge"><title>Node12&#45;&gt;Node4</title>
<path fill="none" stroke="midnightblue" d="M727.366,-354.585C780.792,-344.914 886,-316.535 886,-243 886,-243 886,-243 886,-185 886,-153.192 890.796,-137.107 867,-116 827.787,-81.2191 673.192,-72.1755 596.963,-69.8249"/>
<polygon fill="midnightblue" stroke="midnightblue" points="596.842,-66.3202 586.747,-69.5357 596.644,-73.3174 596.842,-66.3202"/>
</g>
<!-- Node12&#45;&gt;Node11 -->
<g id="edge88" class="edge"><title>Node12&#45;&gt;Node11</title>
<path fill="none" stroke="midnightblue" d="M666.979,-356.621C589.746,-350.283 385.711,-332.095 321,-312 267.465,-295.376 240.846,-300.132 209,-254 199.282,-239.923 197.877,-220.262 198.557,-205.527"/>
<polygon fill="midnightblue" stroke="midnightblue" points="202.059,-205.644 199.379,-195.393 195.082,-205.077 202.059,-205.644"/>
</g>
<!-- Node13 -->
<g id="node27" class="node"><title>Node13</title>
<a xlink:href="framescheduler_8h.html" target="_top" xlink:title="This file has the Declarations for the main FrameScheduler class.">
<polygon fill="white" stroke="black" points="426,-291 426,-311 516,-311 516,-291 426,-291"/>
<text text-anchor="middle" x="471" y="-298" font-family="FreeSans" font-size="10.00">framescheduler.h</text>
</a>
</g>
<!-- Node12&#45;&gt;Node13 -->
<g id="edge28" class="edge"><title>Node12&#45;&gt;Node13</title>
<path fill="none" stroke="midnightblue" d="M666.989,-351.298C629.482,-341.672 564.788,-325.07 520.043,-313.586"/>
<polygon fill="midnightblue" stroke="midnightblue" points="520.809,-310.17 510.253,-311.074 519.069,-316.95 520.809,-310.17"/>
</g>
<!-- Node14 -->
<g id="node31" class="node"><title>Node14</title>
<a xlink:href="thread_8h.html" target="_top" xlink:title="This file defines a minimalistic cross&#45;platform thread that the scheduler uses to schedule tasks...">
<polygon fill="white" stroke="black" points="217.5,-233 217.5,-253 268.5,-253 268.5,-233 217.5,-233"/>
<text text-anchor="middle" x="243" y="-240" font-family="FreeSans" font-size="10.00">thread.h</text>
</a>
</g>
<!-- Node12&#45;&gt;Node14 -->
<g id="edge84" class="edge"><title>Node12&#45;&gt;Node14</title>
<path fill="none" stroke="midnightblue" d="M666.838,-358.011C608.772,-355.373 477.998,-345.847 374,-312 334.162,-299.034 291.951,-274.61 266.537,-258.573"/>
<polygon fill="midnightblue" stroke="midnightblue" points="268.277,-255.531 257.97,-253.081 264.5,-261.424 268.277,-255.531"/>
</g>
<!-- Node16 -->
<g id="node36" class="node"><title>Node16</title>
<a xlink:href="mutex_8h.html" target="_top" xlink:title="This file declares and defines a mutex that is a partial implementation.">
<polygon fill="white" stroke="black" points="438,-175 438,-195 488,-195 488,-175 438,-175"/>
<text text-anchor="middle" x="463" y="-182" font-family="FreeSans" font-size="10.00">mutex.h</text>
</a>
</g>
<!-- Node12&#45;&gt;Node16 -->
<g id="edge76" class="edge"><title>Node12&#45;&gt;Node16</title>
<path fill="none" stroke="midnightblue" d="M707.198,-348.963C729.414,-325.9 777.807,-268.324 747,-232 731.056,-213.2 571.002,-195.462 498.437,-188.315"/>
<polygon fill="midnightblue" stroke="midnightblue" points="498.684,-184.823 488.393,-187.339 498.007,-191.79 498.684,-184.823"/>
</g>
<!-- Node19 -->
<g id="node45" class="node"><title>Node19</title>
<a xlink:href="workunitkey_8h.html" target="_top" xlink:title="This file defines the metadata used to sort workunits.">
<polygon fill="white" stroke="black" points="285.5,-233 285.5,-253 360.5,-253 360.5,-233 285.5,-233"/>
<text text-anchor="middle" x="323" y="-240" font-family="FreeSans" font-size="10.00">workunitkey.h</text>
</a>
</g>
<!-- Node12&#45;&gt;Node19 -->
<g id="edge86" class="edge"><title>Node12&#45;&gt;Node19</title>
<path fill="none" stroke="midnightblue" d="M666.842,-355.727C604.145,-348.632 461.837,-330.944 417,-312 387.407,-299.497 358.381,-275.98 340.591,-259.909"/>
<polygon fill="midnightblue" stroke="midnightblue" points="342.964,-257.336 333.247,-253.115 338.211,-262.475 342.964,-257.336"/>
</g>
<!-- Node20 -->
<g id="node49" class="node"><title>Node20</title>
<a xlink:href="rollingaverage_8h.html" target="_top" xlink:title="This stores the implementation and the declaration of the RollingAverage, BufferedRollingAverage, WeightedRollingAverage and the DefaultRollingAverage.">
<polygon fill="white" stroke="black" points="655.5,-233 655.5,-253 738.5,-253 738.5,-233 655.5,-233"/>
<text text-anchor="middle" x="697" y="-240" font-family="FreeSans" font-size="10.00">rollingaverage.h</text>
</a>
</g>
<!-- Node12&#45;&gt;Node20 -->
<g id="edge78" class="edge"><title>Node12&#45;&gt;Node20</title>
<path fill="none" stroke="midnightblue" d="M697,-348.706C697,-329.568 697,-288.198 697,-263.265"/>
<polygon fill="midnightblue" stroke="midnightblue" points="700.5,-263.105 697,-253.106 693.5,-263.106 700.5,-263.105"/>
</g>
<!-- Node25 -->
<g id="node65" class="node"><title>Node25</title>
<a xlink:href="threadingenumerations_8h.html" target="_top" xlink:title="Any enumerations the threading library requires are all declared here.">
<polygon fill="white" stroke="black" points="736,-117 736,-137 858,-137 858,-117 736,-117"/>
<text text-anchor="middle" x="797" y="-124" font-family="FreeSans" font-size="10.00">threadingenumerations.h</text>
</a>
</g>
<!-- Node12&#45;&gt;Node25 -->
<g id="edge80" class="edge"><title>Node12&#45;&gt;Node25</title>
<path fill="none" stroke="midnightblue" d="M715.879,-348.985C729.411,-340.822 746.955,-328.035 757,-312 790.056,-259.231 796.092,-183.22 796.997,-147.287"/>
<polygon fill="midnightblue" stroke="midnightblue" points="800.499,-147.156 797.138,-137.108 793.499,-147.059 800.499,-147.156"/>
</g>
<!-- Node13&#45;&gt;Node4 -->
<g id="edge30" class="edge"><title>Node13&#45;&gt;Node4</title>
<path fill="none" stroke="midnightblue" d="M461.906,-290.843C450.754,-277.086 434.543,-251.957 445,-232 458.046,-207.102 479.03,-217.615 497,-196 524.158,-163.332 540.895,-115.649 548.717,-88.9726"/>
<polygon fill="midnightblue" stroke="midnightblue" points="552.117,-89.8106 551.446,-79.237 545.377,-87.9208 552.117,-89.8106"/>
</g>
<!-- Node13&#45;&gt;Node8 -->
<g id="edge32" class="edge"><title>Node13&#45;&gt;Node8</title>
<path fill="none" stroke="midnightblue" d="M425.631,-293.888C362.6,-284.008 247.868,-266.023 173.055,-254.295"/>
<polygon fill="midnightblue" stroke="midnightblue" points="173.195,-250.774 162.773,-252.683 172.111,-257.69 173.195,-250.774"/>
</g>
<!-- Node13&#45;&gt;Node14 -->
<g id="edge34" class="edge"><title>Node13&#45;&gt;Node14</title>
<path fill="none" stroke="midnightblue" d="M425.67,-291.033C388.351,-282.6 333.885,-269.771 278.226,-254.222"/>
<polygon fill="midnightblue" stroke="midnightblue" points="279.131,-250.841 268.557,-251.496 277.232,-257.578 279.131,-250.841"/>
</g>
<!-- Node15 -->
<g id="node33" class="node"><title>Node15</title>
<a xlink:href="systemcalls_8h.html" target="_top" xlink:title="This file defines a minimalistic cross&#45;platform thread that the scheduler uses to schedule tasks...">
<polygon fill="white" stroke="black" points="346,-175 346,-195 420,-195 420,-175 346,-175"/>
<text text-anchor="middle" x="383" y="-182" font-family="FreeSans" font-size="10.00">systemcalls.h</text>
</a>
</g>
<!-- Node13&#45;&gt;Node15 -->
<g id="edge56" class="edge"><title>Node13&#45;&gt;Node15</title>
<path fill="none" stroke="midnightblue" d="M454.074,-290.868C441.108,-282.388 423.541,-269.244 412,-254 400.875,-239.305 393.175,-219.711 388.52,-205.159"/>
<polygon fill="midnightblue" stroke="midnightblue" points="391.756,-203.763 385.548,-195.177 385.048,-205.76 391.756,-203.763"/>
</g>
<!-- Node13&#45;&gt;Node19 -->
<g id="edge52" class="edge"><title>Node13&#45;&gt;Node19</title>
<path fill="none" stroke="midnightblue" d="M445.22,-290.897C421.175,-281.474 385.097,-267.335 358.366,-256.86"/>
<polygon fill="midnightblue" stroke="midnightblue" points="359.568,-253.572 348.981,-253.182 357.014,-260.089 359.568,-253.572"/>
</g>
<!-- Node13&#45;&gt;Node20 -->
<g id="edge58" class="edge"><title>Node13&#45;&gt;Node20</title>
<path fill="none" stroke="midnightblue" d="M510.108,-290.963C548.39,-281.139 606.82,-266.144 648.141,-255.539"/>
<polygon fill="midnightblue" stroke="midnightblue" points="649.176,-258.887 657.992,-253.011 647.436,-252.107 649.176,-258.887"/>
</g>
<!-- Node21 -->
<g id="node53" class="node"><title>Node21</title>
<a xlink:href="barrier_8h.html" target="_top" xlink:title="The declaration of the Mezzanine::Threading::Barrier Barrier synchronization primitive.">
<polygon fill="white" stroke="black" points="591.5,-175 591.5,-195 642.5,-195 642.5,-175 591.5,-175"/>
<text text-anchor="middle" x="617" y="-182" font-family="FreeSans" font-size="10.00">barrier.h</text>
</a>
</g>
<!-- Node13&#45;&gt;Node21 -->
<g id="edge64" class="edge"><title>Node13&#45;&gt;Node21</title>
<path fill="none" stroke="midnightblue" d="M516.255,-291.097C551.749,-282.369 597.079,-268.772 609,-254 619.863,-240.539 621.064,-220.5 620.021,-205.481"/>
<polygon fill="midnightblue" stroke="midnightblue" points="623.46,-204.733 618.908,-195.167 616.501,-205.484 623.46,-204.733"/>
</g>
<!-- Node22 -->
<g id="node57" class="node"><title>Node22</title>
<polygon fill="white" stroke="#bfbfbf" points="453.5,-233 453.5,-253 488.5,-253 488.5,-233 453.5,-233"/>
<text text-anchor="middle" x="471" y="-240" font-family="FreeSans" font-size="10.00">map</text>
</g>
<!-- Node13&#45;&gt;Node22 -->
<g id="edge70" class="edge"><title>Node13&#45;&gt;Node22</title>
<path fill="none" stroke="midnightblue" d="M471,-290.897C471,-283.339 471,-272.748 471,-263.446"/>
<polygon fill="midnightblue" stroke="midnightblue" points="474.5,-263.378 471,-253.378 467.5,-263.378 474.5,-263.378"/>
</g>
<!-- Node23 -->
<g id="node59" class="node"><title>Node23</title>
<polygon fill="white" stroke="#bfbfbf" points="505.5,-233 505.5,-253 534.5,-253 534.5,-233 505.5,-233"/>
<text text-anchor="middle" x="520" y="-240" font-family="FreeSans" font-size="10.00">set</text>
</g>
<!-- Node13&#45;&gt;Node23 -->
<g id="edge72" class="edge"><title>Node13&#45;&gt;Node23</title>
<path fill="none" stroke="midnightblue" d="M479.535,-290.897C486.476,-282.682 496.444,-270.883 504.75,-261.051"/>
<polygon fill="midnightblue" stroke="midnightblue" points="507.453,-263.275 511.233,-253.378 502.106,-258.758 507.453,-263.275"/>
</g>
<!-- Node24 -->
<g id="node61" class="node"><title>Node24</title>
<polygon fill="white" stroke="#bfbfbf" points="551.5,-233 551.5,-253 600.5,-253 600.5,-233 551.5,-233"/>
<text text-anchor="middle" x="576" y="-240" font-family="FreeSans" font-size="10.00">fstream</text>
</g>
<!-- Node13&#45;&gt;Node24 -->
<g id="edge74" class="edge"><title>Node13&#45;&gt;Node24</title>
<path fill="none" stroke="midnightblue" d="M489.29,-290.897C505.676,-281.846 529.937,-268.444 548.633,-258.117"/>
<polygon fill="midnightblue" stroke="midnightblue" points="550.507,-261.081 557.568,-253.182 547.122,-254.953 550.507,-261.081"/>
</g>
<!-- Node14&#45;&gt;Node11 -->
<g id="edge50" class="edge"><title>Node14&#45;&gt;Node11</title>
<path fill="none" stroke="midnightblue" d="M235.684,-232.897C229.854,-224.846 221.532,-213.353 214.5,-203.643"/>
<polygon fill="midnightblue" stroke="midnightblue" points="217.215,-201.424 208.515,-195.378 211.545,-205.53 217.215,-201.424"/>
</g>
<!-- Node14&#45;&gt;Node15 -->
<g id="edge36" class="edge"><title>Node14&#45;&gt;Node15</title>
<path fill="none" stroke="midnightblue" d="M267.386,-232.897C289.933,-223.556 323.662,-209.583 348.878,-199.136"/>
<polygon fill="midnightblue" stroke="midnightblue" points="350.525,-202.243 358.424,-195.182 347.845,-195.776 350.525,-202.243"/>
</g>
<!-- Node14&#45;&gt;Node16 -->
<g id="edge40" class="edge"><title>Node14&#45;&gt;Node16</title>
<path fill="none" stroke="midnightblue" d="M268.553,-234.49C271.393,-233.616 274.252,-232.769 277,-232 340.855,-214.14 360.401,-214.615 427.957,-196.134"/>
<polygon fill="midnightblue" stroke="midnightblue" points="429.118,-199.444 437.817,-193.396 427.246,-192.699 429.118,-199.444"/>
</g>
<!-- Node18 -->
<g id="node42" class="node"><title>Node18</title>
<polygon fill="white" stroke="#bfbfbf" points="239.5,-175 239.5,-195 290.5,-195 290.5,-175 239.5,-175"/>
<text text-anchor="middle" x="265" y="-182" font-family="FreeSans" font-size="10.00">ostream</text>
</g>
<!-- Node14&#45;&gt;Node18 -->
<g id="edge48" class="edge"><title>Node14&#45;&gt;Node18</title>
<path fill="none" stroke="midnightblue" d="M246.832,-232.897C249.761,-225.175 253.892,-214.286 257.474,-204.841"/>
<polygon fill="midnightblue" stroke="midnightblue" points="260.79,-205.969 261.064,-195.378 254.245,-203.486 260.79,-205.969"/>
</g>
<!-- Node15&#45;&gt;Node4 -->
<g id="edge38" class="edge"><title>Node15&#45;&gt;Node4</title>
<path fill="none" stroke="midnightblue" d="M397.876,-174.909C427.689,-154.684 494.949,-109.058 530.675,-84.8228"/>
<polygon fill="midnightblue" stroke="midnightblue" points="532.726,-87.6609 539.037,-79.1506 528.796,-81.868 532.726,-87.6609"/>
</g>
<!-- Node16&#45;&gt;Node6 -->
<g id="edge46" class="edge"><title>Node16&#45;&gt;Node6</title>
<path fill="none" stroke="midnightblue" d="M452.37,-174.893C422.174,-146.182 335.638,-63.9015 297.927,-28.0456"/>
<polygon fill="midnightblue" stroke="midnightblue" points="300.318,-25.4891 290.659,-21.135 295.495,-30.5621 300.318,-25.4891"/>
</g>
<!-- Node16&#45;&gt;Node17 -->
<g id="edge42" class="edge"><title>Node16&#45;&gt;Node17</title>
<path fill="none" stroke="midnightblue" d="M488.151,-176.317C515.775,-166.78 560.462,-151.352 592.501,-140.291"/>
<polygon fill="midnightblue" stroke="midnightblue" points="593.695,-143.582 602.005,-137.01 591.411,-136.965 593.695,-143.582"/>
</g>
<!-- Node17&#45;&gt;Node4 -->
<g id="edge44" class="edge"><title>Node17&#45;&gt;Node4</title>
<path fill="none" stroke="midnightblue" d="M617.588,-116.897C606.065,-108.218 589.232,-95.5384 575.779,-85.4053"/>
<polygon fill="midnightblue" stroke="midnightblue" points="577.61,-82.4026 567.517,-79.1817 573.399,-87.9939 577.61,-82.4026"/>
</g>
<!-- Node19&#45;&gt;Node4 -->
<g id="edge54" class="edge"><title>Node19&#45;&gt;Node4</title>
<path fill="none" stroke="midnightblue" d="M322.456,-232.523C322.244,-217.941 323.892,-191.366 337,-174 379.814,-117.279 461.301,-89.6077 511.323,-77.4041"/>
<polygon fill="midnightblue" stroke="midnightblue" points="512.249,-80.7819 521.19,-75.0977 510.656,-73.9657 512.249,-80.7819"/>
</g>
<!-- Node20&#45;&gt;Node4 -->
<g id="edge62" class="edge"><title>Node20&#45;&gt;Node4</title>
<path fill="none" stroke="midnightblue" d="M699.769,-232.83C705.469,-209.489 715.85,-151.368 689,-116 677.562,-100.933 631.871,-87.1432 596.78,-78.4529"/>
<polygon fill="midnightblue" stroke="midnightblue" points="597.283,-74.9739 586.741,-76.0321 595.642,-81.7788 597.283,-74.9739"/>
</g>
<!-- Node20&#45;&gt;Node11 -->
<g id="edge60" class="edge"><title>Node20&#45;&gt;Node11</title>
<path fill="none" stroke="midnightblue" d="M655.398,-237.545C640.744,-235.691 624.151,-233.668 609,-232 444.53,-213.893 397.405,-232.595 232.742,-195.968"/>
<polygon fill="midnightblue" stroke="midnightblue" points="233.285,-192.502 222.759,-193.712 231.742,-199.33 233.285,-192.502"/>
</g>
<!-- Node21&#45;&gt;Node4 -->
<g id="edge66" class="edge"><title>Node21&#45;&gt;Node4</title>
<path fill="none" stroke="midnightblue" d="M604.431,-174.669C594.527,-165.886 581.084,-152.433 573,-138 564.568,-122.945 559.693,-103.919 556.997,-89.66"/>
<polygon fill="midnightblue" stroke="midnightblue" points="560.384,-88.6959 555.276,-79.4138 553.481,-89.8555 560.384,-88.6959"/>
</g>
<!-- Node21&#45;&gt;Node17 -->
<g id="edge68" class="edge"><title>Node21&#45;&gt;Node17</title>
<path fill="none" stroke="midnightblue" d="M619.439,-174.897C621.283,-167.257 623.875,-156.517 626.138,-147.143"/>
<polygon fill="midnightblue" stroke="midnightblue" points="629.551,-147.92 628.495,-137.378 622.746,-146.277 629.551,-147.92"/>
</g>
<!-- Node25&#45;&gt;Node4 -->
<g id="edge82" class="edge"><title>Node25&#45;&gt;Node4</title>
<path fill="none" stroke="midnightblue" d="M754.95,-116.963C710.59,-106.375 641.068,-89.7818 596.528,-79.1508"/>
<polygon fill="midnightblue" stroke="midnightblue" points="597.138,-75.6981 586.599,-76.7807 595.513,-82.5068 597.138,-75.6981"/>
</g>
</g>
</svg>
        <g id="navigator" transform="translate(0 0)" fill="#404254">
                <rect fill="#f2f5e9" fill-opacity="0.5" stroke="#606060" stroke-width=".5" x="0" y="0" width="60" height="60"/>
                <use id="zoomplus" xlink:href="#zoomPlus" x="17" y="9" onmousedown="handleZoom(evt,'in')"/>
                <use id="zoomminus" xlink:href="#zoomMin" x="42" y="9" onmousedown="handleZoom(evt,'out')"/>
                <use id="reset" xlink:href="#resetDef" x="30" y="36" onmousedown="handleReset()"/>
                <g id="arrowUp" xlink:href="#dirArrow" transform="translate(30 24)" onmousedown="handlePan(0,-1)">
                  <use xlink:href="#rim" fill="#404040">
                        <set attributeName="fill" to="#808080" begin="arrowUp.mouseover" end="arrowUp.mouseout"/>
                  </use>
                  <path fill="none" stroke="white" stroke-width="1.5" d="M0,-3.0v7 M-2.5,-0.5L0,-3.0L2.5,-0.5"/>
                </g>
                <g id="arrowRight" xlink:href="#dirArrow" transform="rotate(90) translate(36 -43)" onmousedown="handlePan(1,0)">
                  <use xlink:href="#rim" fill="#404040">
                        <set attributeName="fill" to="#808080" begin="arrowRight.mouseover" end="arrowRight.mouseout"/>
                  </use>
                  <path fill="none" stroke="white" stroke-width="1.5" d="M0,-3.0v7 M-2.5,-0.5L0,-3.0L2.5,-0.5"/>
                </g>
                <g id="arrowDown" xlink:href="#dirArrow" transform="rotate(180) translate(-30 -48)" onmousedown="handlePan(0,1)">
                  <use xlink:href="#rim" fill="#404040">
                        <set attributeName="fill" to="#808080" begin="arrowDown.mouseover" end="arrowDown.mouseout"/>
                  </use>
                  <path fill="none" stroke="white" stroke-width="1.5" d="M0,-3.0v7 M-2.5,-0.5L0,-3.0L2.5,-0.5"/>
                </g>
                <g id="arrowLeft" xlink:href="#dirArrow" transform="rotate(270) translate(-36 17)" onmousedown="handlePan(-1,0)">
                  <use xlink:href="#rim" fill="#404040">
                        <set attributeName="fill" to="#808080" begin="arrowLeft.mouseover" end="arrowLeft.mouseout"/>
                  </use>
                  <path fill="none" stroke="white" stroke-width="1.5" d="M0,-3.0v7 M-2.5,-0.5L0,-3.0L2.5,-0.5"/>
                </g>
        </g>
        <svg viewBox="0 0 15 15" width="100%" height="30px" preserveAspectRatio="xMaxYMin meet">
         <g id="arrow_out" transform="scale(0.3 0.3)">
          <a xlink:href="asynchronousfileloadingworkunit_8cpp__incl_org.svg" target="_base">
           <rect id="button" ry="5" rx="5" y="6" x="6" height="38" width="38"
                fill="#f2f5e9" fill-opacity="0.5" stroke="#606060" stroke-width="1.0"/>
           <path id="arrow"
             d="M 11.500037,31.436501 C 11.940474,20.09759 22.043105,11.32322 32.158766,21.979434 L 37.068811,17.246167 C 37.068811,17.246167 37.088388,32 37.088388,32 L 22.160133,31.978069 C 22.160133,31.978069 26.997745,27.140456 26.997745,27.140456 C 18.528582,18.264221 13.291696,25.230495 11.500037,31.436501 z"
             style="fill:#404040;"/>
          </a>
         </g>
        </svg>
</svg>
