<?xml version="1.0" encoding="UTF-8" standalone="no"?>
<!DOCTYPE svg PUBLIC "-//W3C//DTD SVG 1.1//EN"
 "http://www.w3.org/Graphics/SVG/1.1/DTD/svg11.dtd">
<!-- Generated by graphviz version 2.26.3 (20100126.1600)
 -->
<!-- Title: G Pages: 1 -->
<!--zoomable 572 -->
<svg id="main" version="1.1" xmlns="http://www.w3.org/2000/svg" xmlns:xlink="http://www.w3.org/1999/xlink" xml:space="preserve" onload="init(evt)">
        <defs>
                <circle id="rim" cx="0" cy="0" r="7"/>
                <circle id="rim2" cx="0" cy="0" r="3.5"/>
                <g id="zoomPlus">
                        <use xlink:href="#rim" fill="#404040">
                                <set attributeName="fill" to="#808080" begin="zoomplus.mouseover" end="zoomplus.mouseout"/>
                        </use>
                        <path d="M-4,0h8M0,-4v8" fill="none" stroke="white" stroke-width="1.5" pointer-events="none"/>
                </g>
                <g id="zoomMin">
                        <use xlink:href="#rim" fill="#404040">
                                <set attributeName="fill" to="#808080" begin="zoomminus.mouseover" end="zoomminus.mouseout"/>
                        </use>
                        <path d="M-4,0h8" fill="none" stroke="white" stroke-width="1.5" pointer-events="none"/>
                </g>
                <g id="dirArrow">
                        <path fill="none" stroke="white" stroke-width="1.5" d="M0,-3.0v7 M-2.5,-0.5L0,-3.0L2.5,-0.5"/>
                </g>
               <g id="resetDef">
                       <use xlink:href="#rim2" fill="#404040">
                               <set attributeName="fill" to="#808080" begin="reset.mouseover" end="reset.mouseout"/>
                       </use>
               </g>
        </defs>

<script type="text/javascript">
var viewWidth = 898;
var viewHeight = 572;
var sectionId = 'dynsection-0';
</script>
<script xlink:href="svgpan.js"/>
<svg id="graph" class="graph">
<g id="viewport">
<title>G</title>
<polygon fill="white" stroke="white" points="-4,5 -4,-568 895,-568 895,5 -4,5"/>
<!-- Node1 -->
<g id="node1" class="node"><title>Node1</title>
<polygon fill="#bfbfbf" stroke="black" points="109,-541 109,-563 289,-563 289,-541 109,-541"/>
<text text-anchor="middle" x="199" y="-550" font-family="FreeSans" font-size="10.00">asynchronousfileloadingworkunit.cpp</text>
</g>
<!-- Node2 -->
<g id="node3" class="node"><title>Node2</title>
<a xlink:href="asynchronousfileloadingworkunit_8h.html" target="_top" xlink:title="The declaration of the AsynchronousFileLoadWorkUnit a workunit that loads a listing of files asynchro...">
<polygon fill="white" stroke="black" points="114,-481 114,-503 284,-503 284,-481 114,-481"/>
<text text-anchor="middle" x="199" y="-490" font-family="FreeSans" font-size="10.00">asynchronousfileloadingworkunit.h</text>
</a>
</g>
<!-- Node1&#45;&gt;Node2 -->
<g id="edge2" class="edge"><title>Node1&#45;&gt;Node2</title>
<path fill="none" stroke="midnightblue" d="M199,-540.995C199,-533.311 199,-522.803 199,-513.488"/>
<polygon fill="midnightblue" stroke="midnightblue" points="202.5,-513.343 199,-503.343 195.5,-513.343 202.5,-513.343"/>
</g>
<!-- Node3 -->
<g id="node5" class="node"><title>Node3</title>
<a xlink:href="asynchronousworkunit_8h.html" target="_top" xlink:title="Contains an interface for a kind of WorkUnit that loads or does other work even when the frame schedu...">
<polygon fill="white" stroke="black" points="137.5,-421 137.5,-443 260.5,-443 260.5,-421 137.5,-421"/>
<text text-anchor="middle" x="199" y="-430" font-family="FreeSans" font-size="10.00">asynchronousworkunit.h</text>
</a>
</g>
<!-- Node2&#45;&gt;Node3 -->
<g id="edge4" class="edge"><title>Node2&#45;&gt;Node3</title>
<path fill="none" stroke="midnightblue" d="M199,-480.995C199,-473.311 199,-462.803 199,-453.488"/>
<polygon fill="midnightblue" stroke="midnightblue" points="202.5,-453.343 199,-443.343 195.5,-453.343 202.5,-453.343"/>
</g>
<!-- Node4 -->
<g id="node7" class="node"><title>Node4</title>
<a xlink:href="datatypes_8h.html" target="_top" xlink:title="This file declares a few typedefs to allow flexibility, in case a change is required/desired.">
<polygon fill="white" stroke="black" points="480,-121 480,-143 548,-143 548,-121 480,-121"/>
<text text-anchor="middle" x="514" y="-130" font-family="FreeSans" font-size="10.00">datatypes.h</text>
</a>
</g>
<!-- Node3&#45;&gt;Node4 -->
<g id="edge6" class="edge"><title>Node3&#45;&gt;Node4</title>
<path fill="none" stroke="midnightblue" d="M137.398,-421.588C78.9537,-407.766 0,-377.055 0,-312 0,-312 0,-312 0,-252 0,-209.479 25.2648,-199.597 63,-180 133.106,-143.591 370.374,-134.768 469.698,-132.655"/>
<polygon fill="midnightblue" stroke="midnightblue" points="469.784,-136.154 479.712,-132.455 469.644,-129.156 469.784,-136.154"/>
</g>
<!-- Node12 -->
<g id="node23" class="node"><title>Node12</title>
<a xlink:href="doublebufferedresource_8h.html" target="_top" xlink:title="This file defines the template double buffered resources that can be attached to a thread...">
<polygon fill="white" stroke="black" points="133.5,-241 133.5,-263 264.5,-263 264.5,-241 133.5,-241"/>
<text text-anchor="middle" x="199" y="-250" font-family="FreeSans" font-size="10.00">doublebufferedresource.h</text>
</a>
</g>
<!-- Node3&#45;&gt;Node12 -->
<g id="edge22" class="edge"><title>Node3&#45;&gt;Node12</title>
<path fill="none" stroke="midnightblue" d="M199,-420.74C199,-391.319 199,-311.769 199,-273.345"/>
<polygon fill="midnightblue" stroke="midnightblue" points="202.5,-273.256 199,-263.256 195.5,-273.256 202.5,-273.256"/>
</g>
<!-- Node16 -->
<g id="node32" class="node"><title>Node16</title>
<a xlink:href="workunit_8h.html" target="_top" xlink:title="This file has the definition of the workunit.">
<polygon fill="white" stroke="black" points="474.5,-361 474.5,-383 535.5,-383 535.5,-361 474.5,-361"/>
<text text-anchor="middle" x="505" y="-370" font-family="FreeSans" font-size="10.00">workunit.h</text>
</a>
</g>
<!-- Node3&#45;&gt;Node16 -->
<g id="edge32" class="edge"><title>Node3&#45;&gt;Node16</title>
<path fill="none" stroke="midnightblue" d="M255.125,-420.995C315.747,-409.108 410.839,-390.463 464.544,-379.933"/>
<polygon fill="midnightblue" stroke="midnightblue" points="465.251,-383.361 474.391,-378.002 463.904,-376.491 465.251,-383.361"/>
</g>
<!-- Node5 -->
<g id="node9" class="node"><title>Node5</title>
<a xlink:href="compilerthreadcompat_8h.html" target="_top" xlink:title="This file determines what features are offered by the compiler that this library can take advantage o...">
<polygon fill="white" stroke="black" points="700,-61 700,-83 824,-83 824,-61 700,-61"/>
<text text-anchor="middle" x="762" y="-70" font-family="FreeSans" font-size="10.00">compilerthreadcompat.h</text>
</a>
</g>
<!-- Node4&#45;&gt;Node5 -->
<g id="edge8" class="edge"><title>Node4&#45;&gt;Node5</title>
<path fill="none" stroke="midnightblue" d="M548.223,-123.72C589.122,-113.825 658.105,-97.1359 706.626,-85.397"/>
<polygon fill="midnightblue" stroke="midnightblue" points="707.45,-88.7986 716.347,-83.0452 705.804,-81.9949 707.45,-88.7986"/>
</g>
<!-- Node10 -->
<g id="node19" class="node"><title>Node10</title>
<polygon fill="white" stroke="#bfbfbf" points="598.5,-61 598.5,-83 639.5,-83 639.5,-61 598.5,-61"/>
<text text-anchor="middle" x="619" y="-70" font-family="FreeSans" font-size="10.00">string</text>
</g>
<!-- Node4&#45;&gt;Node10 -->
<g id="edge18" class="edge"><title>Node4&#45;&gt;Node10</title>
<path fill="none" stroke="midnightblue" d="M533.259,-120.995C549.291,-111.834 572.349,-98.6576 590.516,-88.2763"/>
<polygon fill="midnightblue" stroke="midnightblue" points="592.562,-91.1386 599.508,-83.1383 589.089,-85.0609 592.562,-91.1386"/>
</g>
<!-- Node11 -->
<g id="node21" class="node"><title>Node11</title>
<polygon fill="white" stroke="#bfbfbf" points="490.5,-61 490.5,-83 537.5,-83 537.5,-61 490.5,-61"/>
<text text-anchor="middle" x="514" y="-70" font-family="FreeSans" font-size="10.00">stdint.h</text>
</g>
<!-- Node4&#45;&gt;Node11 -->
<g id="edge20" class="edge"><title>Node4&#45;&gt;Node11</title>
<path fill="none" stroke="midnightblue" d="M514,-120.995C514,-113.311 514,-102.803 514,-93.4884"/>
<polygon fill="midnightblue" stroke="midnightblue" points="517.5,-93.3428 514,-83.3428 510.5,-93.3429 517.5,-93.3428"/>
</g>
<!-- Node6 -->
<g id="node11" class="node"><title>Node6</title>
<polygon fill="white" stroke="#bfbfbf" points="626,-1 626,-23 684,-23 684,-1 626,-1"/>
<text text-anchor="middle" x="655" y="-10" font-family="FreeSans" font-size="10.00">pthread.h</text>
</g>
<!-- Node5&#45;&gt;Node6 -->
<g id="edge10" class="edge"><title>Node5&#45;&gt;Node6</title>
<path fill="none" stroke="midnightblue" d="M742.375,-60.9951C725.962,-51.7917 702.324,-38.5366 683.772,-28.1336"/>
<polygon fill="midnightblue" stroke="midnightblue" points="685.298,-24.9766 674.863,-23.1383 681.874,-31.0822 685.298,-24.9766"/>
</g>
<!-- Node7 -->
<g id="node13" class="node"><title>Node7</title>
<polygon fill="white" stroke="#bfbfbf" points="701.5,-1 701.5,-23 752.5,-23 752.5,-1 701.5,-1"/>
<text text-anchor="middle" x="727" y="-10" font-family="FreeSans" font-size="10.00">signal.h</text>
</g>
<!-- Node5&#45;&gt;Node7 -->
<g id="edge12" class="edge"><title>Node5&#45;&gt;Node7</title>
<path fill="none" stroke="midnightblue" d="M755.58,-60.9951C750.855,-52.8936 744.297,-41.6525 738.656,-31.981"/>
<polygon fill="midnightblue" stroke="midnightblue" points="741.679,-30.2171 733.617,-23.3428 735.632,-33.7442 741.679,-30.2171"/>
</g>
<!-- Node8 -->
<g id="node15" class="node"><title>Node8</title>
<polygon fill="white" stroke="#bfbfbf" points="770,-1 770,-23 822,-23 822,-1 770,-1"/>
<text text-anchor="middle" x="796" y="-10" font-family="FreeSans" font-size="10.00">sched.h</text>
</g>
<!-- Node5&#45;&gt;Node8 -->
<g id="edge14" class="edge"><title>Node5&#45;&gt;Node8</title>
<path fill="none" stroke="midnightblue" d="M768.236,-60.9951C772.78,-52.9771 779.066,-41.884 784.508,-32.2806"/>
<polygon fill="midnightblue" stroke="midnightblue" points="787.687,-33.7686 789.572,-23.3428 781.597,-30.3175 787.687,-33.7686"/>
</g>
<!-- Node9 -->
<g id="node17" class="node"><title>Node9</title>
<polygon fill="white" stroke="#bfbfbf" points="840,-1 840,-23 890,-23 890,-1 840,-1"/>
<text text-anchor="middle" x="865" y="-10" font-family="FreeSans" font-size="10.00">unistd.h</text>
</g>
<!-- Node5&#45;&gt;Node9 -->
<g id="edge16" class="edge"><title>Node5&#45;&gt;Node9</title>
<path fill="none" stroke="midnightblue" d="M780.892,-60.9951C796.619,-51.8337 819.238,-38.6576 837.059,-28.2763"/>
<polygon fill="midnightblue" stroke="midnightblue" points="839,-31.1962 845.879,-23.1383 835.477,-25.1476 839,-31.1962"/>
</g>
<!-- Node12&#45;&gt;Node4 -->
<g id="edge24" class="edge"><title>Node12&#45;&gt;Node4</title>
<path fill="none" stroke="midnightblue" d="M205.189,-240.926C214.857,-224.741 235.144,-194.931 261,-180 295.84,-159.881 406.744,-144.326 469.538,-136.862"/>
<polygon fill="midnightblue" stroke="midnightblue" points="470.03,-140.328 479.556,-135.691 469.217,-133.375 470.03,-140.328"/>
</g>
<!-- Node13 -->
<g id="node26" class="node"><title>Node13</title>
<polygon fill="white" stroke="#bfbfbf" points="86,-181 86,-203 144,-203 144,-181 86,-181"/>
<text text-anchor="middle" x="115" y="-190" font-family="FreeSans" font-size="10.00">algorithm</text>
</g>
<!-- Node12&#45;&gt;Node13 -->
<g id="edge26" class="edge"><title>Node12&#45;&gt;Node13</title>
<path fill="none" stroke="midnightblue" d="M183.593,-240.995C171.12,-232.086 153.332,-219.38 138.996,-209.14"/>
<polygon fill="midnightblue" stroke="midnightblue" points="140.765,-206.103 130.594,-203.138 136.697,-211.799 140.765,-206.103"/>
</g>
<!-- Node14 -->
<g id="node28" class="node"><title>Node14</title>
<polygon fill="white" stroke="#bfbfbf" points="161.5,-181 161.5,-203 214.5,-203 214.5,-181 161.5,-181"/>
<text text-anchor="middle" x="188" y="-190" font-family="FreeSans" font-size="10.00">sstream</text>
</g>
<!-- Node12&#45;&gt;Node14 -->
<g id="edge28" class="edge"><title>Node12&#45;&gt;Node14</title>
<path fill="none" stroke="midnightblue" d="M196.982,-240.995C195.558,-233.228 193.605,-222.574 191.884,-213.185"/>
<polygon fill="midnightblue" stroke="midnightblue" points="195.326,-212.548 190.08,-203.343 188.44,-213.81 195.326,-212.548"/>
</g>
<!-- Node15 -->
<g id="node30" class="node"><title>Node15</title>
<polygon fill="white" stroke="#bfbfbf" points="270,-181 270,-203 314,-203 314,-181 270,-181"/>
<text text-anchor="middle" x="292" y="-190" font-family="FreeSans" font-size="10.00">vector</text>
</g>
<!-- Node12&#45;&gt;Node15 -->
<g id="edge30" class="edge"><title>Node12&#45;&gt;Node15</title>
<path fill="none" stroke="midnightblue" d="M216.058,-240.995C230.127,-231.918 250.306,-218.899 266.328,-208.563"/>
<polygon fill="midnightblue" stroke="midnightblue" points="268.23,-211.501 274.736,-203.138 264.435,-205.619 268.23,-211.501"/>
</g>
<!-- Node16&#45;&gt;Node4 -->
<g id="edge34" class="edge"><title>Node16&#45;&gt;Node4</title>
<path fill="none" stroke="midnightblue" d="M474.128,-362.466C420.012,-343.98 316.689,-299.765 349,-240 374.571,-192.701 430.866,-162.789 470.565,-146.733"/>
<polygon fill="midnightblue" stroke="midnightblue" points="471.977,-149.939 480.019,-143.042 469.431,-143.418 471.977,-149.939"/>
</g>
<!-- Node16&#45;&gt;Node15 -->
<g id="edge94" class="edge"><title>Node16&#45;&gt;Node15</title>
<path fill="none" stroke="midnightblue" d="M474.381,-368.254C426.554,-361.765 337.368,-346.892 316,-324 287.938,-293.936 287.168,-242.552 289.392,-213.558"/>
<polygon fill="midnightblue" stroke="midnightblue" points="292.906,-213.586 290.38,-203.297 285.938,-212.916 292.906,-213.586"/>
</g>
<!-- Node17 -->
<g id="node35" class="node"><title>Node17</title>
<a xlink:href="framescheduler_8h.html" target="_top" xlink:title="This file has the Declarations for the main FrameScheduler class.">
<polygon fill="white" stroke="black" points="458,-301 458,-323 552,-323 552,-301 458,-301"/>
<text text-anchor="middle" x="505" y="-310" font-family="FreeSans" font-size="10.00">framescheduler.h</text>
</a>
</g>
<!-- Node16&#45;&gt;Node17 -->
<g id="edge36" class="edge"><title>Node16&#45;&gt;Node17</title>
<path fill="none" stroke="midnightblue" d="M505,-360.995C505,-353.311 505,-342.803 505,-333.488"/>
<polygon fill="midnightblue" stroke="midnightblue" points="508.5,-333.343 505,-323.343 501.5,-333.343 508.5,-333.343"/>
</g>
<!-- Node18 -->
<g id="node39" class="node"><title>Node18</title>
<a xlink:href="thread_8h.html" target="_top" xlink:title="This file defines a minimalistic cross&#45;platform thread that the scheduler uses to schedule tasks...">
<polygon fill="white" stroke="black" points="767.5,-241 767.5,-263 820.5,-263 820.5,-241 767.5,-241"/>
<text text-anchor="middle" x="794" y="-250" font-family="FreeSans" font-size="10.00">thread.h</text>
</a>
</g>
<!-- Node16&#45;&gt;Node18 -->
<g id="edge90" class="edge"><title>Node16&#45;&gt;Node18</title>
<path fill="none" stroke="midnightblue" d="M535.828,-368.637C592.165,-362.033 709.08,-346.066 743,-324 762.246,-311.479 776.439,-288.938 784.897,-272.402"/>
<polygon fill="midnightblue" stroke="midnightblue" points="788.228,-273.553 789.417,-263.025 781.922,-270.514 788.228,-273.553"/>
</g>
<!-- Node20 -->
<g id="node45" class="node"><title>Node20</title>
<a xlink:href="mutex_8h.html" target="_top" xlink:title="This file declares and defines a mutex that is a partial implementation.">
<polygon fill="white" stroke="black" points="736.5,-121 736.5,-143 787.5,-143 787.5,-121 736.5,-121"/>
<text text-anchor="middle" x="762" y="-130" font-family="FreeSans" font-size="10.00">mutex.h</text>
</a>
</g>
<!-- Node16&#45;&gt;Node20 -->
<g id="edge80" class="edge"><title>Node16&#45;&gt;Node20</title>
<path fill="none" stroke="midnightblue" d="M535.507,-368.766C595.972,-361.982 728.665,-345.134 769,-324 834.237,-289.819 888.745,-243.242 851,-180 839.378,-160.527 816.824,-148.485 797.33,-141.332"/>
<polygon fill="midnightblue" stroke="midnightblue" points="798.373,-137.99 787.778,-138.113 796.137,-144.623 798.373,-137.99"/>
</g>
<!-- Node22 -->
<g id="node52" class="node"><title>Node22</title>
<a xlink:href="workunitkey_8h.html" target="_top" xlink:title="This file defines the metadata used to sort workunits.">
<polygon fill="white" stroke="black" points="673.5,-241 673.5,-263 750.5,-263 750.5,-241 673.5,-241"/>
<text text-anchor="middle" x="712" y="-250" font-family="FreeSans" font-size="10.00">workunitkey.h</text>
</a>
</g>
<!-- Node16&#45;&gt;Node22 -->
<g id="edge92" class="edge"><title>Node16&#45;&gt;Node22</title>
<path fill="none" stroke="midnightblue" d="M517.349,-360.896C534.662,-345.726 567.564,-318.32 599,-300 621.779,-286.725 648.927,-275.072 670.904,-266.573"/>
<polygon fill="midnightblue" stroke="midnightblue" points="672.181,-269.832 680.29,-263.012 669.698,-263.287 672.181,-269.832"/>
</g>
<!-- Node28 -->
<g id="node69" class="node"><title>Node28</title>
<a xlink:href="rollingaverage_8h.html" target="_top" xlink:title="This stores the implementation and the declaration of the RollingAverage, BufferedRollingAverage, WeightedRollingAverage and the DefaultRollingAverage.">
<polygon fill="white" stroke="black" points="27.5,-241 27.5,-263 116.5,-263 116.5,-241 27.5,-241"/>
<text text-anchor="middle" x="72" y="-250" font-family="FreeSans" font-size="10.00">rollingaverage.h</text>
</a>
</g>
<!-- Node16&#45;&gt;Node28 -->
<g id="edge82" class="edge"><title>Node16&#45;&gt;Node28</title>
<path fill="none" stroke="midnightblue" d="M474.224,-366.783C430.293,-359.046 347.252,-343.339 278,-324 218.165,-307.291 150.463,-282.446 109.522,-266.744"/>
<polygon fill="midnightblue" stroke="midnightblue" points="110.55,-263.389 99.9601,-263.056 108.031,-269.92 110.55,-263.389"/>
</g>
<!-- Node29 -->
<g id="node73" class="node"><title>Node29</title>
<a xlink:href="threadingenumerations_8h.html" target="_top" xlink:title="Any enumerations the threading library requires are all declared here.">
<polygon fill="white" stroke="black" points="607.5,-301 607.5,-323 734.5,-323 734.5,-301 607.5,-301"/>
<text text-anchor="middle" x="671" y="-310" font-family="FreeSans" font-size="10.00">threadingenumerations.h</text>
</a>
</g>
<!-- Node16&#45;&gt;Node29 -->
<g id="edge88" class="edge"><title>Node16&#45;&gt;Node29</title>
<path fill="none" stroke="midnightblue" d="M535.447,-360.995C562.273,-351.299 601.54,-337.106 630.915,-326.489"/>
<polygon fill="midnightblue" stroke="midnightblue" points="632.251,-329.727 640.465,-323.037 629.871,-323.144 632.251,-329.727"/>
</g>
<!-- Node17&#45;&gt;Node4 -->
<g id="edge38" class="edge"><title>Node17&#45;&gt;Node4</title>
<path fill="none" stroke="midnightblue" d="M511.562,-300.969C519.454,-286.123 530.315,-259.346 519,-240 502.524,-211.829 471.476,-232.171 455,-204 449.615,-194.792 450.419,-189.633 455,-180 461.146,-167.076 472.662,-156.493 483.9,-148.584"/>
<polygon fill="midnightblue" stroke="midnightblue" points="485.891,-151.464 492.346,-143.062 482.061,-145.605 485.891,-151.464"/>
</g>
<!-- Node17&#45;&gt;Node12 -->
<g id="edge40" class="edge"><title>Node17&#45;&gt;Node12</title>
<path fill="none" stroke="midnightblue" d="M457.858,-302.756C406.273,-292.642 323.199,-276.353 265.115,-264.964"/>
<polygon fill="midnightblue" stroke="midnightblue" points="265.782,-261.528 255.296,-263.038 264.435,-268.397 265.782,-261.528"/>
</g>
<!-- Node17&#45;&gt;Node18 -->
<g id="edge42" class="edge"><title>Node17&#45;&gt;Node18</title>
<path fill="none" stroke="midnightblue" d="M552.266,-305.149C601.511,-297.549 680.992,-283.988 757.562,-264.151"/>
<polygon fill="midnightblue" stroke="midnightblue" points="758.588,-267.501 767.368,-261.572 756.807,-260.731 758.588,-267.501"/>
</g>
<!-- Node19 -->
<g id="node42" class="node"><title>Node19</title>
<a xlink:href="systemcalls_8h.html" target="_top" xlink:title="This file defines a minimalistic cross&#45;platform thread that the scheduler uses to schedule tasks...">
<polygon fill="white" stroke="black" points="657.5,-181 657.5,-203 734.5,-203 734.5,-181 657.5,-181"/>
<text text-anchor="middle" x="696" y="-190" font-family="FreeSans" font-size="10.00">systemcalls.h</text>
</a>
</g>
<!-- Node17&#45;&gt;Node19 -->
<g id="edge64" class="edge"><title>Node17&#45;&gt;Node19</title>
<path fill="none" stroke="midnightblue" d="M545.297,-300.993C570.151,-293.066 601.953,-280.798 627,-264 648.596,-249.517 668.601,-227.246 681.449,-211.31"/>
<polygon fill="midnightblue" stroke="midnightblue" points="684.394,-213.226 687.815,-203.199 678.888,-208.905 684.394,-213.226"/>
</g>
<!-- Node17&#45;&gt;Node22 -->
<g id="edge60" class="edge"><title>Node17&#45;&gt;Node22</title>
<path fill="none" stroke="midnightblue" d="M542.967,-300.995C577,-291.13 627.092,-276.611 663.914,-265.938"/>
<polygon fill="midnightblue" stroke="midnightblue" points="665.294,-269.182 673.924,-263.037 663.345,-262.459 665.294,-269.182"/>
</g>
<!-- Node23 -->
<g id="node56" class="node"><title>Node23</title>
<a xlink:href="barrier_8h.html" target="_top" xlink:title="The declaration of the Mezzanine::Threading::Barrier Barrier synchronization primitive.">
<polygon fill="white" stroke="black" points="565.5,-241 565.5,-263 618.5,-263 618.5,-241 565.5,-241"/>
<text text-anchor="middle" x="592" y="-250" font-family="FreeSans" font-size="10.00">barrier.h</text>
</a>
</g>
<!-- Node17&#45;&gt;Node23 -->
<g id="edge66" class="edge"><title>Node17&#45;&gt;Node23</title>
<path fill="none" stroke="midnightblue" d="M520.957,-300.995C533.997,-292.002 552.647,-279.14 567.567,-268.851"/>
<polygon fill="midnightblue" stroke="midnightblue" points="569.604,-271.697 575.849,-263.138 565.63,-265.934 569.604,-271.697"/>
</g>
<!-- Node25 -->
<g id="node62" class="node"><title>Node25</title>
<polygon fill="white" stroke="#bfbfbf" points="426,-241 426,-263 462,-263 462,-241 426,-241"/>
<text text-anchor="middle" x="444" y="-250" font-family="FreeSans" font-size="10.00">map</text>
</g>
<!-- Node17&#45;&gt;Node25 -->
<g id="edge74" class="edge"><title>Node17&#45;&gt;Node25</title>
<path fill="none" stroke="midnightblue" d="M493.812,-300.995C485.151,-292.476 472.96,-280.485 462.807,-270.499"/>
<polygon fill="midnightblue" stroke="midnightblue" points="465.116,-267.86 455.532,-263.343 460.207,-272.851 465.116,-267.86"/>
</g>
<!-- Node26 -->
<g id="node64" class="node"><title>Node26</title>
<polygon fill="white" stroke="#bfbfbf" points="480,-241 480,-263 510,-263 510,-241 480,-241"/>
<text text-anchor="middle" x="495" y="-250" font-family="FreeSans" font-size="10.00">set</text>
</g>
<!-- Node17&#45;&gt;Node26 -->
<g id="edge76" class="edge"><title>Node17&#45;&gt;Node26</title>
<path fill="none" stroke="midnightblue" d="M503.166,-300.995C501.885,-293.311 500.134,-282.803 498.581,-273.488"/>
<polygon fill="midnightblue" stroke="midnightblue" points="501.987,-272.631 496.89,-263.343 495.082,-273.782 501.987,-272.631"/>
</g>
<!-- Node27 -->
<g id="node66" class="node"><title>Node27</title>
<polygon fill="white" stroke="#bfbfbf" points="358,-241 358,-263 408,-263 408,-241 358,-241"/>
<text text-anchor="middle" x="383" y="-250" font-family="FreeSans" font-size="10.00">fstream</text>
</g>
<!-- Node17&#45;&gt;Node27 -->
<g id="edge78" class="edge"><title>Node17&#45;&gt;Node27</title>
<path fill="none" stroke="midnightblue" d="M482.623,-300.995C463.568,-291.624 435.971,-278.051 414.652,-267.566"/>
<polygon fill="midnightblue" stroke="midnightblue" points="416.166,-264.411 405.648,-263.138 413.077,-270.692 416.166,-264.411"/>
</g>
<!-- Node18&#45;&gt;Node5 -->
<g id="edge44" class="edge"><title>Node18&#45;&gt;Node5</title>
<path fill="none" stroke="midnightblue" d="M814.653,-240.944C827.725,-232.687 843.524,-220.07 851,-204 855.499,-194.329 854.604,-190.039 851,-180 837.68,-142.893 805.488,-109.435 783.699,-89.9088"/>
<polygon fill="midnightblue" stroke="midnightblue" points="785.758,-87.0601 775.919,-83.1289 781.159,-92.3374 785.758,-87.0601"/>
</g>
<!-- Node18&#45;&gt;Node15 -->
<g id="edge58" class="edge"><title>Node18&#45;&gt;Node15</title>
<path fill="none" stroke="midnightblue" d="M767.426,-242.19C764.606,-241.359 761.76,-240.607 759,-240 675.537,-221.655 415.463,-201.157 324.115,-194.342"/>
<polygon fill="midnightblue" stroke="midnightblue" points="324.31,-190.847 314.079,-193.598 323.793,-197.828 324.31,-190.847"/>
</g>
<!-- Node18&#45;&gt;Node19 -->
<g id="edge46" class="edge"><title>Node18&#45;&gt;Node19</title>
<path fill="none" stroke="midnightblue" d="M776.025,-240.995C761.199,-231.918 739.935,-218.899 723.052,-208.563"/>
<polygon fill="midnightblue" stroke="midnightblue" points="724.549,-205.375 714.193,-203.138 720.894,-211.345 724.549,-205.375"/>
</g>
<!-- Node18&#45;&gt;Node20 -->
<g id="edge50" class="edge"><title>Node18&#45;&gt;Node20</title>
<path fill="none" stroke="midnightblue" d="M790.985,-240.948C788.337,-231.223 784.389,-216.678 781,-204 776.423,-186.882 771.301,-167.455 767.529,-153.098"/>
<polygon fill="midnightblue" stroke="midnightblue" points="770.863,-152.014 764.939,-143.23 764.093,-153.791 770.863,-152.014"/>
</g>
<!-- Node21 -->
<g id="node49" class="node"><title>Node21</title>
<polygon fill="white" stroke="#bfbfbf" points="789.5,-181 789.5,-203 842.5,-203 842.5,-181 789.5,-181"/>
<text text-anchor="middle" x="816" y="-190" font-family="FreeSans" font-size="10.00">ostream</text>
</g>
<!-- Node18&#45;&gt;Node21 -->
<g id="edge56" class="edge"><title>Node18&#45;&gt;Node21</title>
<path fill="none" stroke="midnightblue" d="M798.035,-240.995C800.914,-233.144 804.874,-222.345 808.343,-212.883"/>
<polygon fill="midnightblue" stroke="midnightblue" points="811.684,-213.937 811.841,-203.343 805.112,-211.527 811.684,-213.937"/>
</g>
<!-- Node19&#45;&gt;Node4 -->
<g id="edge48" class="edge"><title>Node19&#45;&gt;Node4</title>
<path fill="none" stroke="midnightblue" d="M662.618,-180.995C632.951,-171.215 589.405,-156.859 557.111,-146.212"/>
<polygon fill="midnightblue" stroke="midnightblue" points="558.071,-142.844 547.478,-143.037 555.879,-149.492 558.071,-142.844"/>
</g>
<!-- Node20&#45;&gt;Node5 -->
<g id="edge52" class="edge"><title>Node20&#45;&gt;Node5</title>
<path fill="none" stroke="midnightblue" d="M762,-120.995C762,-113.311 762,-102.803 762,-93.4884"/>
<polygon fill="midnightblue" stroke="midnightblue" points="765.5,-93.3428 762,-83.3428 758.5,-93.3429 765.5,-93.3428"/>
</g>
<!-- Node20&#45;&gt;Node10 -->
<g id="edge54" class="edge"><title>Node20&#45;&gt;Node10</title>
<path fill="none" stroke="midnightblue" d="M736.434,-121.273C711.93,-110.991 674.941,-95.4719 649.042,-84.6049"/>
<polygon fill="midnightblue" stroke="midnightblue" points="650.283,-81.3301 639.707,-80.6884 647.574,-87.785 650.283,-81.3301"/>
</g>
<!-- Node22&#45;&gt;Node4 -->
<g id="edge62" class="edge"><title>Node22&#45;&gt;Node4</title>
<path fill="none" stroke="midnightblue" d="M693.728,-240.926C658.66,-219.673 581.779,-173.078 540.861,-148.28"/>
<polygon fill="midnightblue" stroke="midnightblue" points="542.594,-145.237 532.228,-143.047 538.966,-151.224 542.594,-145.237"/>
</g>
<!-- Node23&#45;&gt;Node4 -->
<g id="edge68" class="edge"><title>Node23&#45;&gt;Node4</title>
<path fill="none" stroke="midnightblue" d="M591.207,-240.902C589.689,-225.981 585.334,-199.12 573,-180 565.014,-167.621 552.784,-156.915 541.525,-148.776"/>
<polygon fill="midnightblue" stroke="midnightblue" points="543.419,-145.83 533.191,-143.066 539.462,-151.605 543.419,-145.83"/>
</g>
<!-- Node24 -->
<g id="node59" class="node"><title>Node24</title>
<a xlink:href="atomicoperations_8h.html" target="_top" xlink:title="Simple thread safe ways to check and change a specified variable atomically.">
<polygon fill="white" stroke="black" points="463.5,-181 463.5,-203 564.5,-203 564.5,-181 463.5,-181"/>
<text text-anchor="middle" x="514" y="-190" font-family="FreeSans" font-size="10.00">atomicoperations.h</text>
</a>
</g>
<!-- Node23&#45;&gt;Node24 -->
<g id="edge70" class="edge"><title>Node23&#45;&gt;Node24</title>
<path fill="none" stroke="midnightblue" d="M577.694,-240.995C566.221,-232.17 549.905,-219.619 536.659,-209.43"/>
<polygon fill="midnightblue" stroke="midnightblue" points="538.54,-206.461 528.48,-203.138 534.272,-212.01 538.54,-206.461"/>
</g>
<!-- Node24&#45;&gt;Node4 -->
<g id="edge72" class="edge"><title>Node24&#45;&gt;Node4</title>
<path fill="none" stroke="midnightblue" d="M514,-180.995C514,-173.311 514,-162.803 514,-153.488"/>
<polygon fill="midnightblue" stroke="midnightblue" points="517.5,-153.343 514,-143.343 510.5,-153.343 517.5,-153.343"/>
</g>
<!-- Node28&#45;&gt;Node4 -->
<g id="edge86" class="edge"><title>Node28&#45;&gt;Node4</title>
<path fill="none" stroke="midnightblue" d="M68.8676,-240.767C65.208,-224.931 61.4613,-196.174 77,-180 103.898,-152.002 364.109,-138.187 469.756,-133.697"/>
<polygon fill="midnightblue" stroke="midnightblue" points="469.936,-137.193 479.781,-133.279 469.644,-130.199 469.936,-137.193"/>
</g>
<!-- Node28&#45;&gt;Node15 -->
<g id="edge84" class="edge"><title>Node28&#45;&gt;Node15</title>
<path fill="none" stroke="midnightblue" d="M112.351,-240.995C154.939,-229.38 221.189,-211.312 260.219,-200.668"/>
<polygon fill="midnightblue" stroke="midnightblue" points="261.267,-204.01 269.994,-198.002 259.425,-197.256 261.267,-204.01"/>
</g>
</g>
</svg>
        <g id="navigator" transform="translate(0 0)" fill="#404254">
                <rect fill="#f2f5e9" fill-opacity="0.5" stroke="#606060" stroke-width=".5" x="0" y="0" width="60" height="60"/>
                <use id="zoomplus" xlink:href="#zoomPlus" x="17" y="9" onmousedown="handleZoom(evt,'in')"/>
                <use id="zoomminus" xlink:href="#zoomMin" x="42" y="9" onmousedown="handleZoom(evt,'out')"/>
                <use id="reset" xlink:href="#resetDef" x="30" y="36" onmousedown="handleReset()"/>
                <g id="arrowUp" xlink:href="#dirArrow" transform="translate(30 24)" onmousedown="handlePan(0,-1)">
                  <use xlink:href="#rim" fill="#404040">
                        <set attributeName="fill" to="#808080" begin="arrowUp.mouseover" end="arrowUp.mouseout"/>
                  </use>
                  <path fill="none" stroke="white" stroke-width="1.5" d="M0,-3.0v7 M-2.5,-0.5L0,-3.0L2.5,-0.5"/>
                </g>
                <g id="arrowRight" xlink:href="#dirArrow" transform="rotate(90) translate(36 -43)" onmousedown="handlePan(1,0)">
                  <use xlink:href="#rim" fill="#404040">
                        <set attributeName="fill" to="#808080" begin="arrowRight.mouseover" end="arrowRight.mouseout"/>
                  </use>
                  <path fill="none" stroke="white" stroke-width="1.5" d="M0,-3.0v7 M-2.5,-0.5L0,-3.0L2.5,-0.5"/>
                </g>
                <g id="arrowDown" xlink:href="#dirArrow" transform="rotate(180) translate(-30 -48)" onmousedown="handlePan(0,1)">
                  <use xlink:href="#rim" fill="#404040">
                        <set attributeName="fill" to="#808080" begin="arrowDown.mouseover" end="arrowDown.mouseout"/>
                  </use>
                  <path fill="none" stroke="white" stroke-width="1.5" d="M0,-3.0v7 M-2.5,-0.5L0,-3.0L2.5,-0.5"/>
                </g>
                <g id="arrowLeft" xlink:href="#dirArrow" transform="rotate(270) translate(-36 17)" onmousedown="handlePan(-1,0)">
                  <use xlink:href="#rim" fill="#404040">
                        <set attributeName="fill" to="#808080" begin="arrowLeft.mouseover" end="arrowLeft.mouseout"/>
                  </use>
                  <path fill="none" stroke="white" stroke-width="1.5" d="M0,-3.0v7 M-2.5,-0.5L0,-3.0L2.5,-0.5"/>
                </g>
        </g>
</svg>
