<?xml version="1.0" encoding="UTF-8" standalone="no"?>
<!DOCTYPE svg PUBLIC "-//W3C//DTD SVG 1.1//EN"
 "http://www.w3.org/Graphics/SVG/1.1/DTD/svg11.dtd">
<!-- Generated by graphviz version 2.26.3 (20100126.1600)
 -->
<!-- Title: asynchronousworkunit.h Pages: 1 -->
<svg width="758pt" height="436pt"
 viewBox="0.00 0.00 758.00 436.00" xmlns="http://www.w3.org/2000/svg" xmlns:xlink="http://www.w3.org/1999/xlink">
<g id="graph1" class="graph" transform="scale(1 1) rotate(0) translate(4 432)">
<title>asynchronousworkunit.h</title>
<polygon fill="white" stroke="white" points="-4,5 -4,-432 755,-432 755,5 -4,5"/>
<!-- Node1 -->
<g id="node1" class="node"><title>Node1</title>
<polygon fill="#bfbfbf" stroke="black" points="8.5,-407 8.5,-427 127.5,-427 127.5,-407 8.5,-407"/>
<text text-anchor="middle" x="68" y="-414" font-family="FreeSans" font-size="10.00">asynchronousworkunit.h</text>
</g>
<!-- Node2 -->
<g id="node3" class="node"><title>Node2</title>
<a xlink:href="datatypes_8h.html" target="_top" xlink:title="This file declares a few typedefs to allow flexibility, in case a change is required/desired.">
<polygon fill="white" stroke="black" points="320.5,-59 320.5,-79 385.5,-79 385.5,-59 320.5,-59"/>
<text text-anchor="middle" x="353" y="-66" font-family="FreeSans" font-size="10.00">datatypes.h</text>
</a>
</g>
<!-- Node1&#45;&gt;Node2 -->
<g id="edge2" class="edge"><title>Node1&#45;&gt;Node2</title>
<path fill="none" stroke="midnightblue" d="M62.2286,-406.813C51.5982,-387.062 30,-341.9 30,-301 30,-301 30,-301 30,-185 30,-126.11 222.583,-89.0022 310.339,-75.1499"/>
<polygon fill="midnightblue" stroke="midnightblue" points="310.905,-78.604 320.252,-73.614 309.833,-71.6866 310.905,-78.604"/>
</g>
<!-- Node13 -->
<g id="node25" class="node"><title>Node13</title>
<a xlink:href="doublebufferedresource_8h.html" target="_top" xlink:title="This file defines the template double buffered resources that can be attached to a thread...">
<polygon fill="white" stroke="black" points="114.5,-233 114.5,-253 237.5,-253 237.5,-233 114.5,-233"/>
<text text-anchor="middle" x="176" y="-240" font-family="FreeSans" font-size="10.00">doublebufferedresource.h</text>
</a>
</g>
<!-- Node1&#45;&gt;Node13 -->
<g id="edge24" class="edge"><title>Node1&#45;&gt;Node13</title>
<path fill="none" stroke="midnightblue" d="M74.2734,-406.893C91.7957,-378.663 141.464,-298.641 164.279,-261.884"/>
<polygon fill="midnightblue" stroke="midnightblue" points="167.409,-263.477 169.709,-253.135 161.462,-259.786 167.409,-263.477"/>
</g>
<!-- Node14 -->
<g id="node28" class="node"><title>Node14</title>
<a xlink:href="workunit_8h.html" target="_top" xlink:title="This file has the definition of the workunit.">
<polygon fill="white" stroke="black" points="416,-349 416,-369 476,-369 476,-349 416,-349"/>
<text text-anchor="middle" x="446" y="-356" font-family="FreeSans" font-size="10.00">workunit.h</text>
</a>
</g>
<!-- Node1&#45;&gt;Node14 -->
<g id="edge28" class="edge"><title>Node1&#45;&gt;Node14</title>
<path fill="none" stroke="midnightblue" d="M127.895,-407.81C205.554,-395.894 338.916,-375.431 405.586,-365.201"/>
<polygon fill="midnightblue" stroke="midnightblue" points="406.341,-368.626 415.694,-363.65 405.279,-361.707 406.341,-368.626"/>
</g>
<!-- Node3 -->
<g id="node5" class="node"><title>Node3</title>
<a xlink:href="crossplatformexport_8h.html" target="_top" xlink:title="This file determines what features are offered by the compiler that this library can take advantage o...">
<polygon fill="white" stroke="black" points="0,-1 0,-21 108,-21 108,-1 0,-1"/>
<text text-anchor="middle" x="54" y="-8" font-family="FreeSans" font-size="10.00">crossplatformexport.h</text>
</a>
</g>
<!-- Node2&#45;&gt;Node3 -->
<g id="edge4" class="edge"><title>Node2&#45;&gt;Node3</title>
<path fill="none" stroke="midnightblue" d="M320.433,-62.6826C271.47,-53.1849 178.02,-35.0574 115.844,-22.9965"/>
<polygon fill="midnightblue" stroke="midnightblue" points="116.247,-19.5096 105.764,-21.0411 114.914,-26.3815 116.247,-19.5096"/>
</g>
<!-- Node4 -->
<g id="node7" class="node"><title>Node4</title>
<polygon fill="white" stroke="#bfbfbf" points="125.5,-1 125.5,-21 168.5,-21 168.5,-1 125.5,-1"/>
<text text-anchor="middle" x="147" y="-8" font-family="FreeSans" font-size="10.00">vector</text>
</g>
<!-- Node2&#45;&gt;Node4 -->
<g id="edge6" class="edge"><title>Node2&#45;&gt;Node4</title>
<path fill="none" stroke="midnightblue" d="M320.307,-61.2103C286.788,-53.0181 232.988,-39.3017 178.389,-22.2696"/>
<polygon fill="midnightblue" stroke="midnightblue" points="179.139,-18.8364 168.55,-19.1663 177.034,-25.5122 179.139,-18.8364"/>
</g>
<!-- Node5 -->
<g id="node9" class="node"><title>Node5</title>
<polygon fill="white" stroke="#bfbfbf" points="186,-1 186,-21 226,-21 226,-1 186,-1"/>
<text text-anchor="middle" x="206" y="-8" font-family="FreeSans" font-size="10.00">string</text>
</g>
<!-- Node2&#45;&gt;Node5 -->
<g id="edge8" class="edge"><title>Node2&#45;&gt;Node5</title>
<path fill="none" stroke="midnightblue" d="M327.395,-58.8972C301.865,-48.8245 262.682,-33.3644 235.778,-22.7491"/>
<polygon fill="midnightblue" stroke="midnightblue" points="236.709,-19.3538 226.122,-18.9393 234.139,-25.8653 236.709,-19.3538"/>
</g>
<!-- Node6 -->
<g id="node11" class="node"><title>Node6</title>
<polygon fill="white" stroke="#bfbfbf" points="243.5,-1 243.5,-21 294.5,-21 294.5,-1 243.5,-1"/>
<text text-anchor="middle" x="269" y="-8" font-family="FreeSans" font-size="10.00">ostream</text>
</g>
<!-- Node2&#45;&gt;Node6 -->
<g id="edge10" class="edge"><title>Node2&#45;&gt;Node6</title>
<path fill="none" stroke="midnightblue" d="M338.368,-58.8972C325.678,-50.1351 307.085,-37.2965 292.341,-27.1164"/>
<polygon fill="midnightblue" stroke="midnightblue" points="293.964,-23.9835 283.746,-21.1817 289.986,-29.7438 293.964,-23.9835"/>
</g>
<!-- Node7 -->
<g id="node13" class="node"><title>Node7</title>
<polygon fill="white" stroke="#bfbfbf" points="311.5,-1 311.5,-21 346.5,-21 346.5,-1 311.5,-1"/>
<text text-anchor="middle" x="329" y="-8" font-family="FreeSans" font-size="10.00">map</text>
</g>
<!-- Node2&#45;&gt;Node7 -->
<g id="edge12" class="edge"><title>Node2&#45;&gt;Node7</title>
<path fill="none" stroke="midnightblue" d="M348.82,-58.8972C345.624,-51.1747 341.118,-40.2857 337.21,-30.841"/>
<polygon fill="midnightblue" stroke="midnightblue" points="340.352,-29.2795 333.294,-21.3776 333.884,-31.956 340.352,-29.2795"/>
</g>
<!-- Node8 -->
<g id="node15" class="node"><title>Node8</title>
<polygon fill="white" stroke="#bfbfbf" points="363.5,-1 363.5,-21 392.5,-21 392.5,-1 363.5,-1"/>
<text text-anchor="middle" x="378" y="-8" font-family="FreeSans" font-size="10.00">set</text>
</g>
<!-- Node2&#45;&gt;Node8 -->
<g id="edge14" class="edge"><title>Node2&#45;&gt;Node8</title>
<path fill="none" stroke="midnightblue" d="M357.355,-58.8972C360.683,-51.1747 365.377,-40.2857 369.448,-30.841"/>
<polygon fill="midnightblue" stroke="midnightblue" points="372.783,-31.9463 373.527,-21.3776 366.354,-29.1754 372.783,-31.9463"/>
</g>
<!-- Node9 -->
<g id="node17" class="node"><title>Node9</title>
<polygon fill="white" stroke="#bfbfbf" points="410,-1 410,-21 460,-21 460,-1 410,-1"/>
<text text-anchor="middle" x="435" y="-8" font-family="FreeSans" font-size="10.00">sstream</text>
</g>
<!-- Node2&#45;&gt;Node9 -->
<g id="edge16" class="edge"><title>Node2&#45;&gt;Node9</title>
<path fill="none" stroke="midnightblue" d="M367.283,-58.8972C379.671,-50.1351 397.822,-37.2965 412.215,-27.1164"/>
<polygon fill="midnightblue" stroke="midnightblue" points="414.462,-29.8138 420.605,-21.1817 410.42,-24.0989 414.462,-29.8138"/>
</g>
<!-- Node10 -->
<g id="node19" class="node"><title>Node10</title>
<polygon fill="white" stroke="#bfbfbf" points="477.5,-1 477.5,-21 526.5,-21 526.5,-1 477.5,-1"/>
<text text-anchor="middle" x="502" y="-8" font-family="FreeSans" font-size="10.00">fstream</text>
</g>
<!-- Node2&#45;&gt;Node10 -->
<g id="edge18" class="edge"><title>Node2&#45;&gt;Node10</title>
<path fill="none" stroke="midnightblue" d="M378.954,-58.8972C403.608,-49.3004 440.824,-34.8134 467.871,-24.2852"/>
<polygon fill="midnightblue" stroke="midnightblue" points="469.284,-27.4911 477.333,-20.6019 466.744,-20.9679 469.284,-27.4911"/>
</g>
<!-- Node11 -->
<g id="node21" class="node"><title>Node11</title>
<polygon fill="white" stroke="#bfbfbf" points="544,-1 544,-21 600,-21 600,-1 544,-1"/>
<text text-anchor="middle" x="572" y="-8" font-family="FreeSans" font-size="10.00">algorithm</text>
</g>
<!-- Node2&#45;&gt;Node11 -->
<g id="edge20" class="edge"><title>Node2&#45;&gt;Node11</title>
<path fill="none" stroke="midnightblue" d="M385.643,-60.9493C420.145,-52.357 476.381,-38.1166 533.779,-22.2779"/>
<polygon fill="midnightblue" stroke="midnightblue" points="535.047,-25.5584 543.749,-19.5138 533.177,-18.8129 535.047,-25.5584"/>
</g>
<!-- Node12 -->
<g id="node23" class="node"><title>Node12</title>
<polygon fill="white" stroke="#bfbfbf" points="617.5,-1 617.5,-21 664.5,-21 664.5,-1 617.5,-1"/>
<text text-anchor="middle" x="641" y="-8" font-family="FreeSans" font-size="10.00">stdint.h</text>
</g>
<!-- Node2&#45;&gt;Node12 -->
<g id="edge22" class="edge"><title>Node2&#45;&gt;Node12</title>
<path fill="none" stroke="midnightblue" d="M385.671,-64.601C432.852,-57.9034 522.88,-43.832 607.588,-22.1141"/>
<polygon fill="midnightblue" stroke="midnightblue" points="608.561,-25.4775 617.355,-19.569 606.796,-18.7037 608.561,-25.4775"/>
</g>
<!-- Node13&#45;&gt;Node2 -->
<g id="edge26" class="edge"><title>Node13&#45;&gt;Node2</title>
<path fill="none" stroke="midnightblue" d="M186.281,-232.893C215.365,-204.302 298.487,-122.589 335.2,-86.4981"/>
<polygon fill="midnightblue" stroke="midnightblue" points="338.013,-88.6413 342.69,-79.135 333.105,-83.6494 338.013,-88.6413"/>
</g>
<!-- Node14&#45;&gt;Node2 -->
<g id="edge30" class="edge"><title>Node14&#45;&gt;Node2</title>
<path fill="none" stroke="midnightblue" d="M415.927,-354.317C339.958,-341.813 143.686,-305.08 106,-254 43.1249,-168.778 224.619,-104.863 310.585,-80.1624"/>
<polygon fill="midnightblue" stroke="midnightblue" points="311.653,-83.4981 320.326,-77.414 309.752,-76.7611 311.653,-83.4981"/>
</g>
<!-- Node15 -->
<g id="node31" class="node"><title>Node15</title>
<a xlink:href="framescheduler_8h.html" target="_top" xlink:title="This file has the Declarations for the main FrameScheduler class.">
<polygon fill="white" stroke="black" points="362,-291 362,-311 452,-311 452,-291 362,-291"/>
<text text-anchor="middle" x="407" y="-298" font-family="FreeSans" font-size="10.00">framescheduler.h</text>
</a>
</g>
<!-- Node14&#45;&gt;Node15 -->
<g id="edge32" class="edge"><title>Node14&#45;&gt;Node15</title>
<path fill="none" stroke="midnightblue" d="M439.207,-348.897C433.848,-340.928 426.223,-329.587 419.736,-319.941"/>
<polygon fill="midnightblue" stroke="midnightblue" points="422.463,-317.723 413.978,-311.378 416.654,-321.629 422.463,-317.723"/>
</g>
<!-- Node16 -->
<g id="node35" class="node"><title>Node16</title>
<a xlink:href="thread_8h.html" target="_top" xlink:title="This file defines a minimalistic cross&#45;platform thread that the scheduler uses to schedule tasks...">
<polygon fill="white" stroke="black" points="468.5,-233 468.5,-253 519.5,-253 519.5,-233 468.5,-233"/>
<text text-anchor="middle" x="494" y="-240" font-family="FreeSans" font-size="10.00">thread.h</text>
</a>
</g>
<!-- Node14&#45;&gt;Node16 -->
<g id="edge74" class="edge"><title>Node14&#45;&gt;Node16</title>
<path fill="none" stroke="midnightblue" d="M450.26,-348.706C458.25,-329.396 475.607,-287.451 485.891,-262.596"/>
<polygon fill="midnightblue" stroke="midnightblue" points="489.229,-263.684 489.818,-253.106 482.761,-261.007 489.229,-263.684"/>
</g>
<!-- Node18 -->
<g id="node40" class="node"><title>Node18</title>
<a xlink:href="mutex_8h.html" target="_top" xlink:title="This file declares and defines a mutex that is a partial implementation.">
<polygon fill="white" stroke="black" points="522,-175 522,-195 572,-195 572,-175 522,-175"/>
<text text-anchor="middle" x="547" y="-182" font-family="FreeSans" font-size="10.00">mutex.h</text>
</a>
</g>
<!-- Node14&#45;&gt;Node18 -->
<g id="edge66" class="edge"><title>Node14&#45;&gt;Node18</title>
<path fill="none" stroke="midnightblue" d="M456.207,-348.962C473.545,-331.338 508.741,-292.985 528,-254 535.643,-238.53 540.585,-219.538 543.507,-205.399"/>
<polygon fill="midnightblue" stroke="midnightblue" points="547.005,-205.737 545.431,-195.259 540.128,-204.432 547.005,-205.737"/>
</g>
<!-- Node20 -->
<g id="node45" class="node"><title>Node20</title>
<a xlink:href="workunitkey_8h.html" target="_top" xlink:title="This file defines the metadata used to sort workunits.">
<polygon fill="white" stroke="black" points="574.5,-233 574.5,-253 649.5,-253 649.5,-233 574.5,-233"/>
<text text-anchor="middle" x="612" y="-240" font-family="FreeSans" font-size="10.00">workunitkey.h</text>
</a>
</g>
<!-- Node14&#45;&gt;Node20 -->
<g id="edge76" class="edge"><title>Node14&#45;&gt;Node20</title>
<path fill="none" stroke="midnightblue" d="M476.183,-351.573C500.839,-344.417 535.635,-331.732 561,-312 578.361,-298.495 592.661,-277.614 601.656,-262.359"/>
<polygon fill="midnightblue" stroke="midnightblue" points="604.913,-263.709 606.78,-253.28 598.817,-260.269 604.913,-263.709"/>
</g>
<!-- Node21 -->
<g id="node49" class="node"><title>Node21</title>
<a xlink:href="rollingaverage_8h.html" target="_top" xlink:title="This stores the implementation and the declaration of the RollingAverage, BufferedRollingAverage, WeightedRollingAverage and the DefaultRollingAverage.">
<polygon fill="white" stroke="black" points="254.5,-233 254.5,-253 337.5,-253 337.5,-233 254.5,-233"/>
<text text-anchor="middle" x="296" y="-240" font-family="FreeSans" font-size="10.00">rollingaverage.h</text>
</a>
</g>
<!-- Node14&#45;&gt;Node21 -->
<g id="edge68" class="edge"><title>Node14&#45;&gt;Node21</title>
<path fill="none" stroke="midnightblue" d="M419.038,-348.88C399.488,-340.743 373.069,-328.036 353,-312 334.905,-297.542 318.557,-276.527 308.057,-261.493"/>
<polygon fill="midnightblue" stroke="midnightblue" points="310.819,-259.33 302.311,-253.017 305.025,-263.258 310.819,-259.33"/>
</g>
<!-- Node23 -->
<g id="node58" class="node"><title>Node23</title>
<a xlink:href="threadingenumerations_8h.html" target="_top" xlink:title="Any enumerations the threading library requires are all declared here.">
<polygon fill="white" stroke="black" points="628,-117 628,-137 750,-137 750,-117 628,-117"/>
<text text-anchor="middle" x="689" y="-124" font-family="FreeSans" font-size="10.00">threadingenumerations.h</text>
</a>
</g>
<!-- Node14&#45;&gt;Node23 -->
<g id="edge70" class="edge"><title>Node14&#45;&gt;Node23</title>
<path fill="none" stroke="midnightblue" d="M476.033,-354.096C524.063,-344.474 616.924,-318.168 658,-254 679.318,-220.698 685.977,-173.904 688.057,-147.406"/>
<polygon fill="midnightblue" stroke="midnightblue" points="691.572,-147.286 688.712,-137.085 684.586,-146.843 691.572,-147.286"/>
</g>
<!-- Node15&#45;&gt;Node2 -->
<g id="edge34" class="edge"><title>Node15&#45;&gt;Node2</title>
<path fill="none" stroke="midnightblue" d="M399.713,-290.926C387.204,-272.941 362.115,-233.655 353,-196 344.093,-159.205 347.134,-114.636 350.103,-89.2735"/>
<polygon fill="midnightblue" stroke="midnightblue" points="353.611,-89.4345 351.418,-79.0691 346.668,-88.5394 353.611,-89.4345"/>
</g>
<!-- Node15&#45;&gt;Node13 -->
<g id="edge36" class="edge"><title>Node15&#45;&gt;Node13</title>
<path fill="none" stroke="midnightblue" d="M367.027,-290.963C327.815,-281.118 267.922,-266.08 225.672,-255.472"/>
<polygon fill="midnightblue" stroke="midnightblue" points="226.422,-252.051 215.871,-253.011 224.717,-258.841 226.422,-252.051"/>
</g>
<!-- Node15&#45;&gt;Node16 -->
<g id="edge38" class="edge"><title>Node15&#45;&gt;Node16</title>
<path fill="none" stroke="midnightblue" d="M422.154,-290.897C435.421,-282.052 454.919,-269.054 470.256,-258.829"/>
<polygon fill="midnightblue" stroke="midnightblue" points="472.348,-261.641 478.728,-253.182 468.466,-255.817 472.348,-261.641"/>
</g>
<!-- Node17 -->
<g id="node37" class="node"><title>Node17</title>
<a xlink:href="systemcalls_8h.html" target="_top" xlink:title="This file defines a minimalistic cross&#45;platform thread that the scheduler uses to schedule tasks...">
<polygon fill="white" stroke="black" points="430,-175 430,-195 504,-195 504,-175 430,-175"/>
<text text-anchor="middle" x="467" y="-182" font-family="FreeSans" font-size="10.00">systemcalls.h</text>
</a>
</g>
<!-- Node15&#45;&gt;Node17 -->
<g id="edge54" class="edge"><title>Node15&#45;&gt;Node17</title>
<path fill="none" stroke="midnightblue" d="M412.325,-290.706C422.357,-271.31 444.202,-229.076 457.036,-204.264"/>
<polygon fill="midnightblue" stroke="midnightblue" points="460.287,-205.596 461.773,-195.106 454.07,-202.38 460.287,-205.596"/>
</g>
<!-- Node15&#45;&gt;Node20 -->
<g id="edge50" class="edge"><title>Node15&#45;&gt;Node20</title>
<path fill="none" stroke="midnightblue" d="M442.708,-290.897C477.143,-281.155 529.391,-266.372 566.728,-255.809"/>
<polygon fill="midnightblue" stroke="midnightblue" points="567.688,-259.174 576.358,-253.084 565.782,-252.439 567.688,-259.174"/>
</g>
<!-- Node15&#45;&gt;Node21 -->
<g id="edge56" class="edge"><title>Node15&#45;&gt;Node21</title>
<path fill="none" stroke="midnightblue" d="M387.665,-290.897C370.185,-281.763 344.226,-268.199 324.391,-257.835"/>
<polygon fill="midnightblue" stroke="midnightblue" points="325.97,-254.711 315.486,-253.182 322.728,-260.915 325.97,-254.711"/>
</g>
<!-- Node22 -->
<g id="node52" class="node"><title>Node22</title>
<a xlink:href="barrier_8h.html" target="_top" xlink:title="The declaration of the Mezzanine::Threading::Barrier Barrier synchronization primitive.">
<polygon fill="white" stroke="black" points="361.5,-175 361.5,-195 412.5,-195 412.5,-175 361.5,-175"/>
<text text-anchor="middle" x="387" y="-182" font-family="FreeSans" font-size="10.00">barrier.h</text>
</a>
</g>
<!-- Node15&#45;&gt;Node22 -->
<g id="edge60" class="edge"><title>Node15&#45;&gt;Node22</title>
<path fill="none" stroke="midnightblue" d="M405.225,-290.706C401.926,-271.568 394.793,-230.198 390.494,-205.265"/>
<polygon fill="midnightblue" stroke="midnightblue" points="393.891,-204.365 388.742,-195.106 386.992,-205.555 393.891,-204.365"/>
</g>
<!-- Node16&#45;&gt;Node17 -->
<g id="edge40" class="edge"><title>Node16&#45;&gt;Node17</title>
<path fill="none" stroke="midnightblue" d="M489.297,-232.897C485.664,-225.093 480.525,-214.054 476.096,-204.54"/>
<polygon fill="midnightblue" stroke="midnightblue" points="479.224,-202.966 471.831,-195.378 472.878,-205.921 479.224,-202.966"/>
</g>
<!-- Node16&#45;&gt;Node18 -->
<g id="edge44" class="edge"><title>Node16&#45;&gt;Node18</title>
<path fill="none" stroke="midnightblue" d="M503.232,-232.897C510.739,-224.682 521.521,-212.883 530.505,-203.051"/>
<polygon fill="midnightblue" stroke="midnightblue" points="533.355,-205.121 537.517,-195.378 528.188,-200.399 533.355,-205.121"/>
</g>
<!-- Node17&#45;&gt;Node2 -->
<g id="edge42" class="edge"><title>Node17&#45;&gt;Node2</title>
<path fill="none" stroke="midnightblue" d="M480.243,-174.97C496.879,-161.142 521.583,-135.698 507,-116 493.66,-97.9811 436.575,-84.0903 395.803,-76.2288"/>
<polygon fill="midnightblue" stroke="midnightblue" points="396.298,-72.7608 385.825,-74.3611 395.01,-79.6413 396.298,-72.7608"/>
</g>
<!-- Node19 -->
<g id="node42" class="node"><title>Node19</title>
<a xlink:href="atomicoperations_8h.html" target="_top" xlink:title="Simple thread safe ways to check and change a specified variable atomically.">
<polygon fill="white" stroke="black" points="400,-117 400,-137 498,-137 498,-117 400,-117"/>
<text text-anchor="middle" x="449" y="-124" font-family="FreeSans" font-size="10.00">atomicoperations.h</text>
</a>
</g>
<!-- Node18&#45;&gt;Node19 -->
<g id="edge46" class="edge"><title>Node18&#45;&gt;Node19</title>
<path fill="none" stroke="midnightblue" d="M529.93,-174.897C514.846,-165.97 492.611,-152.811 475.262,-142.543"/>
<polygon fill="midnightblue" stroke="midnightblue" points="476.592,-139.263 466.203,-137.182 473.027,-145.287 476.592,-139.263"/>
</g>
<!-- Node19&#45;&gt;Node2 -->
<g id="edge48" class="edge"><title>Node19&#45;&gt;Node2</title>
<path fill="none" stroke="midnightblue" d="M432.278,-116.897C417.502,-107.97 395.721,-94.8106 378.726,-84.5431"/>
<polygon fill="midnightblue" stroke="midnightblue" points="380.221,-81.3572 369.852,-79.1817 376.602,-87.3486 380.221,-81.3572"/>
</g>
<!-- Node20&#45;&gt;Node2 -->
<g id="edge52" class="edge"><title>Node20&#45;&gt;Node2</title>
<path fill="none" stroke="midnightblue" d="M608.655,-232.571C603.855,-218.505 594.124,-193.026 581,-174 560.301,-143.991 554.499,-134.353 523,-116 483.267,-92.8495 431.649,-80.6863 395.763,-74.5862"/>
<polygon fill="midnightblue" stroke="midnightblue" points="396.052,-71.0877 385.622,-72.9523 394.938,-77.9986 396.052,-71.0877"/>
</g>
<!-- Node21&#45;&gt;Node2 -->
<g id="edge58" class="edge"><title>Node21&#45;&gt;Node2</title>
<path fill="none" stroke="midnightblue" d="M296.477,-232.7C297.813,-210.519 302.721,-156.931 320,-116 324.374,-105.638 331.302,-95.2813 337.683,-86.9377"/>
<polygon fill="midnightblue" stroke="midnightblue" points="340.478,-89.0463 344.004,-79.0555 335.017,-84.6666 340.478,-89.0463"/>
</g>
<!-- Node22&#45;&gt;Node2 -->
<g id="edge62" class="edge"><title>Node22&#45;&gt;Node2</title>
<path fill="none" stroke="midnightblue" d="M383.983,-174.706C378.348,-155.482 366.138,-113.825 358.841,-88.9294"/>
<polygon fill="midnightblue" stroke="midnightblue" points="362.133,-87.7173 355.962,-79.1055 355.416,-89.6863 362.133,-87.7173"/>
</g>
<!-- Node22&#45;&gt;Node19 -->
<g id="edge64" class="edge"><title>Node22&#45;&gt;Node19</title>
<path fill="none" stroke="midnightblue" d="M397.8,-174.897C406.757,-166.517 419.7,-154.409 430.332,-144.464"/>
<polygon fill="midnightblue" stroke="midnightblue" points="432.995,-146.765 437.907,-137.378 428.213,-141.653 432.995,-146.765"/>
</g>
<!-- Node23&#45;&gt;Node2 -->
<g id="edge72" class="edge"><title>Node23&#45;&gt;Node2</title>
<path fill="none" stroke="midnightblue" d="M630.857,-116.963C563.88,-105.402 455.419,-86.6794 395.746,-76.3788"/>
<polygon fill="midnightblue" stroke="midnightblue" points="395.995,-72.87 385.545,-74.6179 394.804,-79.768 395.995,-72.87"/>
</g>
</g>
</svg>
