<?xml version="1.0" encoding="UTF-8" standalone="no"?>
<!DOCTYPE svg PUBLIC "-//W3C//DTD SVG 1.1//EN"
 "http://www.w3.org/Graphics/SVG/1.1/DTD/svg11.dtd">
<!-- Generated by graphviz version 2.26.3 (20100126.1600)
 -->
<!-- Title: asynchronousworkunit.h Pages: 1 -->
<svg width="407pt" height="146pt"
 viewBox="0.00 0.00 407.00 146.00" xmlns="http://www.w3.org/2000/svg" xmlns:xlink="http://www.w3.org/1999/xlink">
<g id="graph1" class="graph" transform="scale(1 1) rotate(0) translate(4 142)">
<title>asynchronousworkunit.h</title>
<polygon fill="white" stroke="white" points="-4,5 -4,-142 404,-142 404,5 -4,5"/>
<!-- Node1 -->
<g id="node1" class="node"><title>Node1</title>
<polygon fill="#bfbfbf" stroke="black" points="183.5,-117 183.5,-137 302.5,-137 302.5,-117 183.5,-117"/>
<text text-anchor="middle" x="243" y="-124" font-family="FreeSans" font-size="10.00">asynchronousworkunit.h</text>
</g>
<!-- Node2 -->
<g id="node3" class="node"><title>Node2</title>
<a xlink:href="asynchronousfileloadingworkunit_8h.html" target="_top" xlink:title="The declaration of the AsynchronousFileLoadWorkUnit a workunit that loads a listing of files asynchro...">
<polygon fill="white" stroke="black" points="54.5,-59 54.5,-79 215.5,-79 215.5,-59 54.5,-59"/>
<text text-anchor="middle" x="135" y="-66" font-family="FreeSans" font-size="10.00">asynchronousfileloadingworkunit.h</text>
</a>
</g>
<!-- Node1&#45;&gt;Node2 -->
<g id="edge2" class="edge"><title>Node1&#45;&gt;Node2</title>
<path fill="none" stroke="midnightblue" d="M215.281,-112.114C196.05,-101.786 170.937,-88.2996 153.959,-79.1817"/>
<polygon fill="midnightblue" stroke="midnightblue" points="213.722,-115.249 224.188,-116.897 217.034,-109.082 213.722,-115.249"/>
</g>
<!-- Node4 -->
<g id="node7" class="node"><title>Node4</title>
<a xlink:href="dagframescheduler_8h.html" target="_top" xlink:title="This is the file that code using this library should include. It includes all the required components...">
<polygon fill="white" stroke="black" points="190,-1 190,-21 296,-21 296,-1 190,-1"/>
<text text-anchor="middle" x="243" y="-8" font-family="FreeSans" font-size="10.00">dagframescheduler.h</text>
</a>
</g>
<!-- Node1&#45;&gt;Node4 -->
<g id="edge10" class="edge"><title>Node1&#45;&gt;Node4</title>
<path fill="none" stroke="midnightblue" d="M243,-106.487C243,-81.4468 243,-40.0959 243,-21.1055"/>
<polygon fill="midnightblue" stroke="midnightblue" points="239.5,-106.706 243,-116.706 246.5,-106.706 239.5,-106.706"/>
</g>
<!-- Node5 -->
<g id="node9" class="node"><title>Node5</title>
<a xlink:href="asynchronousworkunit_8cpp.html" target="_top" xlink:title="Contains very little actually. ">
<polygon fill="white" stroke="black" points="270.5,-59 270.5,-79 399.5,-79 399.5,-59 270.5,-59"/>
<text text-anchor="middle" x="335" y="-66" font-family="FreeSans" font-size="10.00">asynchronousworkunit.cpp</text>
</a>
</g>
<!-- Node1&#45;&gt;Node5 -->
<g id="edge8" class="edge"><title>Node1&#45;&gt;Node5</title>
<path fill="none" stroke="midnightblue" d="M267.511,-111.547C283.77,-101.297 304.65,-88.1339 318.85,-79.1817"/>
<polygon fill="midnightblue" stroke="midnightblue" points="265.618,-108.603 259.025,-116.897 269.351,-114.525 265.618,-108.603"/>
</g>
<!-- Node3 -->
<g id="node5" class="node"><title>Node3</title>
<a xlink:href="asynchronousfileloadingworkunit_8cpp.html" target="_top" xlink:title="The implementation of the AsynchronousFileLoadWorkUnit a workunit that loads a listing of files async...">
<polygon fill="white" stroke="black" points="0,-1 0,-21 172,-21 172,-1 0,-1"/>
<text text-anchor="middle" x="86" y="-8" font-family="FreeSans" font-size="10.00">asynchronousfileloadingworkunit.cpp</text>
</a>
</g>
<!-- Node2&#45;&gt;Node3 -->
<g id="edge4" class="edge"><title>Node2&#45;&gt;Node3</title>
<path fill="none" stroke="midnightblue" d="M119.777,-50.981C111.558,-41.2522 101.704,-29.5889 94.7673,-21.3776"/>
<polygon fill="midnightblue" stroke="midnightblue" points="117.338,-53.517 126.465,-58.8972 122.685,-48.9995 117.338,-53.517"/>
</g>
<!-- Node2&#45;&gt;Node4 -->
<g id="edge6" class="edge"><title>Node2&#45;&gt;Node4</title>
<path fill="none" stroke="midnightblue" d="M162.719,-54.1138C181.95,-43.7859 207.063,-30.2996 224.041,-21.1817"/>
<polygon fill="midnightblue" stroke="midnightblue" points="160.966,-51.0824 153.812,-58.8972 164.278,-57.2493 160.966,-51.0824"/>
</g>
</g>
</svg>
