<?xml version="1.0" encoding="UTF-8" standalone="no"?>
<!DOCTYPE svg PUBLIC "-//W3C//DTD SVG 1.1//EN"
 "http://www.w3.org/Graphics/SVG/1.1/DTD/svg11.dtd">
<!-- Generated by graphviz version 2.26.3 (20100126.1600)
 -->
<!-- Title: G Pages: 1 -->
<svg width="424pt" height="152pt"
 viewBox="0.00 0.00 424.00 152.00" xmlns="http://www.w3.org/2000/svg" xmlns:xlink="http://www.w3.org/1999/xlink">
<g id="graph1" class="graph" transform="scale(1 1) rotate(0) translate(4 148)">
<title>G</title>
<polygon fill="white" stroke="white" points="-4,5 -4,-148 421,-148 421,5 -4,5"/>
<!-- Node1 -->
<g id="node1" class="node"><title>Node1</title>
<polygon fill="#bfbfbf" stroke="black" points="192.5,-121 192.5,-143 315.5,-143 315.5,-121 192.5,-121"/>
<text text-anchor="middle" x="254" y="-130" font-family="FreeSans" font-size="10.00">asynchronousworkunit.h</text>
</g>
<!-- Node2 -->
<g id="node3" class="node"><title>Node2</title>
<a xlink:href="asynchronousfileloadingworkunit_8h.html" target="_top" xlink:title="The declaration of the AsynchronousFileLoadWorkUnit a workunit that loads a listing of files asynchro...">
<polygon fill="white" stroke="black" points="56,-61 56,-83 226,-83 226,-61 56,-61"/>
<text text-anchor="middle" x="141" y="-70" font-family="FreeSans" font-size="10.00">asynchronousfileloadingworkunit.h</text>
</a>
</g>
<!-- Node1&#45;&gt;Node2 -->
<g id="edge2" class="edge"><title>Node1&#45;&gt;Node2</title>
<path fill="none" stroke="midnightblue" d="M224.432,-116.3C204.815,-105.884 179.542,-92.465 161.977,-83.1383"/>
<polygon fill="midnightblue" stroke="midnightblue" points="222.8,-119.397 233.274,-120.995 226.083,-113.214 222.8,-119.397"/>
</g>
<!-- Node4 -->
<g id="node7" class="node"><title>Node4</title>
<a xlink:href="dagframescheduler_8h.html" target="_top" xlink:title="This is the file that code using this library should include. It includes all the required components...">
<polygon fill="white" stroke="black" points="198,-1 198,-23 310,-23 310,-1 198,-1"/>
<text text-anchor="middle" x="254" y="-10" font-family="FreeSans" font-size="10.00">dagframescheduler.h</text>
</a>
</g>
<!-- Node1&#45;&gt;Node4 -->
<g id="edge10" class="edge"><title>Node1&#45;&gt;Node4</title>
<path fill="none" stroke="midnightblue" d="M254,-110.749C254,-85.1002 254,-42.9411 254,-23.0475"/>
<polygon fill="midnightblue" stroke="midnightblue" points="250.5,-110.926 254,-120.926 257.5,-110.926 250.5,-110.926"/>
</g>
<!-- Node5 -->
<g id="node9" class="node"><title>Node5</title>
<a xlink:href="asynchronousworkunit_8cpp.html" target="_top" xlink:title="Contains very little actually.">
<polygon fill="white" stroke="black" points="282,-61 282,-83 416,-83 416,-61 282,-61"/>
<text text-anchor="middle" x="349" y="-70" font-family="FreeSans" font-size="10.00">asynchronousworkunit.cpp</text>
</a>
</g>
<!-- Node1&#45;&gt;Node5 -->
<g id="edge8" class="edge"><title>Node1&#45;&gt;Node5</title>
<path fill="none" stroke="midnightblue" d="M279.985,-115.589C296.309,-105.279 316.931,-92.254 331.364,-83.1383"/>
<polygon fill="midnightblue" stroke="midnightblue" points="278.01,-112.696 271.424,-120.995 281.748,-118.614 278.01,-112.696"/>
</g>
<!-- Node3 -->
<g id="node5" class="node"><title>Node3</title>
<a xlink:href="asynchronousfileloadingworkunit_8cpp.html" target="_top" xlink:title="The implemtation of the AsynchronousFileLoadWorkUnit a workunit that loads a listing of files asynchr...">
<polygon fill="white" stroke="black" points="0,-1 0,-23 180,-23 180,-1 0,-1"/>
<text text-anchor="middle" x="90" y="-10" font-family="FreeSans" font-size="10.00">asynchronousfileloadingworkunit.cpp</text>
</a>
</g>
<!-- Node2&#45;&gt;Node3 -->
<g id="edge4" class="edge"><title>Node2&#45;&gt;Node3</title>
<path fill="none" stroke="midnightblue" d="M125.112,-53.3078C116.768,-43.4917 106.816,-31.7835 99.6414,-23.3428"/>
<polygon fill="midnightblue" stroke="midnightblue" points="122.502,-55.6424 131.646,-60.9951 127.836,-51.1089 122.502,-55.6424"/>
</g>
<!-- Node2&#45;&gt;Node4 -->
<g id="edge6" class="edge"><title>Node2&#45;&gt;Node4</title>
<path fill="none" stroke="midnightblue" d="M170.568,-56.3002C190.185,-45.8839 215.458,-32.465 233.023,-23.1383"/>
<polygon fill="midnightblue" stroke="midnightblue" points="168.917,-53.2141 161.726,-60.9951 172.2,-59.3966 168.917,-53.2141"/>
</g>
</g>
</svg>
