<?xml version="1.0" encoding="UTF-8" standalone="no"?>
<!DOCTYPE svg PUBLIC "-//W3C//DTD SVG 1.1//EN"
 "http://www.w3.org/Graphics/SVG/1.1/DTD/svg11.dtd">
<!-- Generated by graphviz version 2.26.3 (20100126.1600)
 -->
<!-- Title: asynchronousfileloadingworkunit.h Pages: 1 -->
<svg width="304pt" height="88pt"
 viewBox="0.00 0.00 304.00 88.00" xmlns="http://www.w3.org/2000/svg" xmlns:xlink="http://www.w3.org/1999/xlink">
<g id="graph1" class="graph" transform="scale(1 1) rotate(0) translate(4 84)">
<title>asynchronousfileloadingworkunit.h</title>
<polygon fill="white" stroke="white" points="-4,5 -4,-84 301,-84 301,5 -4,5"/>
<!-- Node1 -->
<g id="node1" class="node"><title>Node1</title>
<polygon fill="#bfbfbf" stroke="black" points="83.5,-59 83.5,-79 244.5,-79 244.5,-59 83.5,-59"/>
<text text-anchor="middle" x="164" y="-66" font-family="FreeSans" font-size="10.00">asynchronousfileloadingworkunit.h</text>
</g>
<!-- Node2 -->
<g id="node3" class="node"><title>Node2</title>
<a xlink:href="asynchronousfileloadingworkunit_8cpp.html" target="_top" xlink:title="The implementation of the AsynchronousFileLoadWorkUnit a workunit that loads a listing of files async...">
<polygon fill="white" stroke="black" points="0,-1 0,-21 172,-21 172,-1 0,-1"/>
<text text-anchor="middle" x="86" y="-8" font-family="FreeSans" font-size="10.00">asynchronousfileloadingworkunit.cpp</text>
</a>
</g>
<!-- Node1&#45;&gt;Node2 -->
<g id="edge2" class="edge"><title>Node1&#45;&gt;Node2</title>
<path fill="none" stroke="midnightblue" d="M142.061,-52.6866C128.455,-42.5689 111.397,-29.8852 99.6926,-21.1817"/>
<polygon fill="midnightblue" stroke="midnightblue" points="140.3,-55.7387 150.413,-58.8972 144.477,-50.1215 140.3,-55.7387"/>
</g>
<!-- Node3 -->
<g id="node5" class="node"><title>Node3</title>
<a xlink:href="dagframescheduler_8h.html" target="_top" xlink:title="This is the file that code using this library should include. It includes all the required components...">
<polygon fill="white" stroke="black" points="190,-1 190,-21 296,-21 296,-1 190,-1"/>
<text text-anchor="middle" x="243" y="-8" font-family="FreeSans" font-size="10.00">dagframescheduler.h</text>
</a>
</g>
<!-- Node1&#45;&gt;Node3 -->
<g id="edge4" class="edge"><title>Node1&#45;&gt;Node3</title>
<path fill="none" stroke="midnightblue" d="M185.827,-52.975C199.671,-42.8109 217.164,-29.9681 229.132,-21.1817"/>
<polygon fill="midnightblue" stroke="midnightblue" points="183.75,-50.1578 177.761,-58.8972 187.893,-55.8004 183.75,-50.1578"/>
</g>
</g>
</svg>
