<?xml version="1.0" encoding="UTF-8" standalone="no"?>
<!DOCTYPE svg PUBLIC "-//W3C//DTD SVG 1.1//EN"
 "http://www.w3.org/Graphics/SVG/1.1/DTD/svg11.dtd">
<!-- Generated by graphviz version 2.26.3 (20100126.1600)
 -->
<!-- Title: asynchronousfileloadingworkunit.h Pages: 1 -->
<!--zoomable 494 -->
<svg id="main" version="1.1" xmlns="http://www.w3.org/2000/svg" xmlns:xlink="http://www.w3.org/1999/xlink" xml:space="preserve" onload="init(evt)">
        <defs>
                <circle id="rim" cx="0" cy="0" r="7"/>
                <circle id="rim2" cx="0" cy="0" r="3.5"/>
                <g id="zoomPlus">
                        <use xlink:href="#rim" fill="#404040">
                                <set attributeName="fill" to="#808080" begin="zoomplus.mouseover" end="zoomplus.mouseout"/>
                        </use>
                        <path d="M-4,0h8M0,-4v8" fill="none" stroke="white" stroke-width="1.5" pointer-events="none"/>
                </g>
                <g id="zoomMin">
                        <use xlink:href="#rim" fill="#404040">
                                <set attributeName="fill" to="#808080" begin="zoomminus.mouseover" end="zoomminus.mouseout"/>
                        </use>
                        <path d="M-4,0h8" fill="none" stroke="white" stroke-width="1.5" pointer-events="none"/>
                </g>
                <g id="dirArrow">
                        <path fill="none" stroke="white" stroke-width="1.5" d="M0,-3.0v7 M-2.5,-0.5L0,-3.0L2.5,-0.5"/>
                </g>
               <g id="resetDef">
                       <use xlink:href="#rim2" fill="#404040">
                               <set attributeName="fill" to="#808080" begin="reset.mouseover" end="reset.mouseout"/>
                       </use>
               </g>
        </defs>

<script type="text/javascript">
var viewWidth = 770;
var viewHeight = 494;
var sectionId = 'dynsection-0';
</script>
<script xlink:href="svgpan.js"/>
<svg id="graph" class="graph">
<g id="viewport">
<title>asynchronousfileloadingworkunit.h</title>
<polygon fill="white" stroke="white" points="-4,5 -4,-490 767,-490 767,5 -4,5"/>
<!-- Node1 -->
<g id="node1" class="node"><title>Node1</title>
<polygon fill="#bfbfbf" stroke="black" points="-0.5,-465 -0.5,-485 160.5,-485 160.5,-465 -0.5,-465"/>
<text text-anchor="middle" x="80" y="-472" font-family="FreeSans" font-size="10.00">asynchronousfileloadingworkunit.h</text>
</g>
<!-- Node2 -->
<g id="node3" class="node"><title>Node2</title>
<a xlink:href="asynchronousworkunit_8h.html" target="_top" xlink:title="Contains an interface for a kind of WorkUnit that loads or does other work even when the frame schedu...">
<polygon fill="white" stroke="black" points="20.5,-407 20.5,-427 139.5,-427 139.5,-407 20.5,-407"/>
<text text-anchor="middle" x="80" y="-414" font-family="FreeSans" font-size="10.00">asynchronousworkunit.h</text>
</a>
</g>
<!-- Node1&#45;&gt;Node2 -->
<g id="edge2" class="edge"><title>Node1&#45;&gt;Node2</title>
<path fill="none" stroke="midnightblue" d="M80,-464.897C80,-457.339 80,-446.748 80,-437.446"/>
<polygon fill="midnightblue" stroke="midnightblue" points="83.5001,-437.378 80,-427.378 76.5001,-437.378 83.5001,-437.378"/>
</g>
<!-- Node3 -->
<g id="node5" class="node"><title>Node3</title>
<a xlink:href="datatypes_8h.html" target="_top" xlink:title="This file declares a few typedefs to allow flexibility, in case a change is required/desired.">
<polygon fill="white" stroke="black" points="332.5,-59 332.5,-79 397.5,-79 397.5,-59 332.5,-59"/>
<text text-anchor="middle" x="365" y="-66" font-family="FreeSans" font-size="10.00">datatypes.h</text>
</a>
</g>
<!-- Node2&#45;&gt;Node3 -->
<g id="edge4" class="edge"><title>Node2&#45;&gt;Node3</title>
<path fill="none" stroke="midnightblue" d="M74.2286,-406.813C63.5982,-387.062 42,-341.9 42,-301 42,-301 42,-301 42,-185 42,-126.11 234.583,-89.0022 322.339,-75.1499"/>
<polygon fill="midnightblue" stroke="midnightblue" points="322.905,-78.604 332.252,-73.614 321.833,-71.6866 322.905,-78.604"/>
</g>
<!-- Node14 -->
<g id="node27" class="node"><title>Node14</title>
<a xlink:href="doublebufferedresource_8h.html" target="_top" xlink:title="This file defines the template double buffered resources that can be attached to a thread...">
<polygon fill="white" stroke="black" points="126.5,-233 126.5,-253 249.5,-253 249.5,-233 126.5,-233"/>
<text text-anchor="middle" x="188" y="-240" font-family="FreeSans" font-size="10.00">doublebufferedresource.h</text>
</a>
</g>
<!-- Node2&#45;&gt;Node14 -->
<g id="edge26" class="edge"><title>Node2&#45;&gt;Node14</title>
<path fill="none" stroke="midnightblue" d="M86.2734,-406.893C103.796,-378.663 153.464,-298.641 176.279,-261.884"/>
<polygon fill="midnightblue" stroke="midnightblue" points="179.409,-263.477 181.709,-253.135 173.462,-259.786 179.409,-263.477"/>
</g>
<!-- Node15 -->
<g id="node30" class="node"><title>Node15</title>
<a xlink:href="workunit_8h.html" target="_top" xlink:title="This file has the definition of the workunit.">
<polygon fill="white" stroke="black" points="428,-349 428,-369 488,-369 488,-349 428,-349"/>
<text text-anchor="middle" x="458" y="-356" font-family="FreeSans" font-size="10.00">workunit.h</text>
</a>
</g>
<!-- Node2&#45;&gt;Node15 -->
<g id="edge30" class="edge"><title>Node2&#45;&gt;Node15</title>
<path fill="none" stroke="midnightblue" d="M139.895,-407.81C217.554,-395.894 350.916,-375.431 417.586,-365.201"/>
<polygon fill="midnightblue" stroke="midnightblue" points="418.341,-368.626 427.694,-363.65 417.279,-361.707 418.341,-368.626"/>
</g>
<!-- Node4 -->
<g id="node7" class="node"><title>Node4</title>
<a xlink:href="crossplatformexport_8h.html" target="_top" xlink:title="This file determines what features are offered by the compiler that this library can take advantage o...">
<polygon fill="white" stroke="black" points="12,-1 12,-21 120,-21 120,-1 12,-1"/>
<text text-anchor="middle" x="66" y="-8" font-family="FreeSans" font-size="10.00">crossplatformexport.h</text>
</a>
</g>
<!-- Node3&#45;&gt;Node4 -->
<g id="edge6" class="edge"><title>Node3&#45;&gt;Node4</title>
<path fill="none" stroke="midnightblue" d="M332.433,-62.6826C283.47,-53.1849 190.02,-35.0574 127.844,-22.9965"/>
<polygon fill="midnightblue" stroke="midnightblue" points="128.247,-19.5096 117.764,-21.0411 126.914,-26.3815 128.247,-19.5096"/>
</g>
<!-- Node5 -->
<g id="node9" class="node"><title>Node5</title>
<polygon fill="white" stroke="#bfbfbf" points="137.5,-1 137.5,-21 180.5,-21 180.5,-1 137.5,-1"/>
<text text-anchor="middle" x="159" y="-8" font-family="FreeSans" font-size="10.00">vector</text>
</g>
<!-- Node3&#45;&gt;Node5 -->
<g id="edge8" class="edge"><title>Node3&#45;&gt;Node5</title>
<path fill="none" stroke="midnightblue" d="M332.307,-61.2103C298.788,-53.0181 244.988,-39.3017 190.389,-22.2696"/>
<polygon fill="midnightblue" stroke="midnightblue" points="191.139,-18.8364 180.55,-19.1663 189.034,-25.5122 191.139,-18.8364"/>
</g>
<!-- Node6 -->
<g id="node11" class="node"><title>Node6</title>
<polygon fill="white" stroke="#bfbfbf" points="198,-1 198,-21 238,-21 238,-1 198,-1"/>
<text text-anchor="middle" x="218" y="-8" font-family="FreeSans" font-size="10.00">string</text>
</g>
<!-- Node3&#45;&gt;Node6 -->
<g id="edge10" class="edge"><title>Node3&#45;&gt;Node6</title>
<path fill="none" stroke="midnightblue" d="M339.395,-58.8972C313.865,-48.8245 274.682,-33.3644 247.778,-22.7491"/>
<polygon fill="midnightblue" stroke="midnightblue" points="248.709,-19.3538 238.122,-18.9393 246.139,-25.8653 248.709,-19.3538"/>
</g>
<!-- Node7 -->
<g id="node13" class="node"><title>Node7</title>
<polygon fill="white" stroke="#bfbfbf" points="255.5,-1 255.5,-21 306.5,-21 306.5,-1 255.5,-1"/>
<text text-anchor="middle" x="281" y="-8" font-family="FreeSans" font-size="10.00">ostream</text>
</g>
<!-- Node3&#45;&gt;Node7 -->
<g id="edge12" class="edge"><title>Node3&#45;&gt;Node7</title>
<path fill="none" stroke="midnightblue" d="M350.368,-58.8972C337.678,-50.1351 319.085,-37.2965 304.341,-27.1164"/>
<polygon fill="midnightblue" stroke="midnightblue" points="305.964,-23.9835 295.746,-21.1817 301.986,-29.7438 305.964,-23.9835"/>
</g>
<!-- Node8 -->
<g id="node15" class="node"><title>Node8</title>
<polygon fill="white" stroke="#bfbfbf" points="323.5,-1 323.5,-21 358.5,-21 358.5,-1 323.5,-1"/>
<text text-anchor="middle" x="341" y="-8" font-family="FreeSans" font-size="10.00">map</text>
</g>
<!-- Node3&#45;&gt;Node8 -->
<g id="edge14" class="edge"><title>Node3&#45;&gt;Node8</title>
<path fill="none" stroke="midnightblue" d="M360.82,-58.8972C357.624,-51.1747 353.118,-40.2857 349.21,-30.841"/>
<polygon fill="midnightblue" stroke="midnightblue" points="352.352,-29.2795 345.294,-21.3776 345.884,-31.956 352.352,-29.2795"/>
</g>
<!-- Node9 -->
<g id="node17" class="node"><title>Node9</title>
<polygon fill="white" stroke="#bfbfbf" points="375.5,-1 375.5,-21 404.5,-21 404.5,-1 375.5,-1"/>
<text text-anchor="middle" x="390" y="-8" font-family="FreeSans" font-size="10.00">set</text>
</g>
<!-- Node3&#45;&gt;Node9 -->
<g id="edge16" class="edge"><title>Node3&#45;&gt;Node9</title>
<path fill="none" stroke="midnightblue" d="M369.355,-58.8972C372.683,-51.1747 377.377,-40.2857 381.448,-30.841"/>
<polygon fill="midnightblue" stroke="midnightblue" points="384.783,-31.9463 385.527,-21.3776 378.354,-29.1754 384.783,-31.9463"/>
</g>
<!-- Node10 -->
<g id="node19" class="node"><title>Node10</title>
<polygon fill="white" stroke="#bfbfbf" points="422,-1 422,-21 472,-21 472,-1 422,-1"/>
<text text-anchor="middle" x="447" y="-8" font-family="FreeSans" font-size="10.00">sstream</text>
</g>
<!-- Node3&#45;&gt;Node10 -->
<g id="edge18" class="edge"><title>Node3&#45;&gt;Node10</title>
<path fill="none" stroke="midnightblue" d="M379.283,-58.8972C391.671,-50.1351 409.822,-37.2965 424.215,-27.1164"/>
<polygon fill="midnightblue" stroke="midnightblue" points="426.462,-29.8138 432.605,-21.1817 422.42,-24.0989 426.462,-29.8138"/>
</g>
<!-- Node11 -->
<g id="node21" class="node"><title>Node11</title>
<polygon fill="white" stroke="#bfbfbf" points="489.5,-1 489.5,-21 538.5,-21 538.5,-1 489.5,-1"/>
<text text-anchor="middle" x="514" y="-8" font-family="FreeSans" font-size="10.00">fstream</text>
</g>
<!-- Node3&#45;&gt;Node11 -->
<g id="edge20" class="edge"><title>Node3&#45;&gt;Node11</title>
<path fill="none" stroke="midnightblue" d="M390.954,-58.8972C415.608,-49.3004 452.824,-34.8134 479.871,-24.2852"/>
<polygon fill="midnightblue" stroke="midnightblue" points="481.284,-27.4911 489.333,-20.6019 478.744,-20.9679 481.284,-27.4911"/>
</g>
<!-- Node12 -->
<g id="node23" class="node"><title>Node12</title>
<polygon fill="white" stroke="#bfbfbf" points="556,-1 556,-21 612,-21 612,-1 556,-1"/>
<text text-anchor="middle" x="584" y="-8" font-family="FreeSans" font-size="10.00">algorithm</text>
</g>
<!-- Node3&#45;&gt;Node12 -->
<g id="edge22" class="edge"><title>Node3&#45;&gt;Node12</title>
<path fill="none" stroke="midnightblue" d="M397.643,-60.9493C432.145,-52.357 488.381,-38.1166 545.779,-22.2779"/>
<polygon fill="midnightblue" stroke="midnightblue" points="547.047,-25.5584 555.749,-19.5138 545.177,-18.8129 547.047,-25.5584"/>
</g>
<!-- Node13 -->
<g id="node25" class="node"><title>Node13</title>
<polygon fill="white" stroke="#bfbfbf" points="629.5,-1 629.5,-21 676.5,-21 676.5,-1 629.5,-1"/>
<text text-anchor="middle" x="653" y="-8" font-family="FreeSans" font-size="10.00">stdint.h</text>
</g>
<!-- Node3&#45;&gt;Node13 -->
<g id="edge24" class="edge"><title>Node3&#45;&gt;Node13</title>
<path fill="none" stroke="midnightblue" d="M397.671,-64.601C444.852,-57.9034 534.88,-43.832 619.588,-22.1141"/>
<polygon fill="midnightblue" stroke="midnightblue" points="620.561,-25.4775 629.355,-19.569 618.796,-18.7037 620.561,-25.4775"/>
</g>
<!-- Node14&#45;&gt;Node3 -->
<g id="edge28" class="edge"><title>Node14&#45;&gt;Node3</title>
<path fill="none" stroke="midnightblue" d="M198.281,-232.893C227.365,-204.302 310.487,-122.589 347.2,-86.4981"/>
<polygon fill="midnightblue" stroke="midnightblue" points="350.013,-88.6413 354.69,-79.135 345.105,-83.6494 350.013,-88.6413"/>
</g>
<!-- Node15&#45;&gt;Node3 -->
<g id="edge32" class="edge"><title>Node15&#45;&gt;Node3</title>
<path fill="none" stroke="midnightblue" d="M427.927,-354.317C351.958,-341.813 155.686,-305.08 118,-254 55.1249,-168.778 236.619,-104.863 322.585,-80.1624"/>
<polygon fill="midnightblue" stroke="midnightblue" points="323.653,-83.4981 332.326,-77.414 321.752,-76.7611 323.653,-83.4981"/>
</g>
<!-- Node16 -->
<g id="node33" class="node"><title>Node16</title>
<a xlink:href="framescheduler_8h.html" target="_top" xlink:title="This file has the Declarations for the main FrameScheduler class.">
<polygon fill="white" stroke="black" points="374,-291 374,-311 464,-311 464,-291 374,-291"/>
<text text-anchor="middle" x="419" y="-298" font-family="FreeSans" font-size="10.00">framescheduler.h</text>
</a>
</g>
<!-- Node15&#45;&gt;Node16 -->
<g id="edge34" class="edge"><title>Node15&#45;&gt;Node16</title>
<path fill="none" stroke="midnightblue" d="M451.207,-348.897C445.848,-340.928 438.223,-329.587 431.736,-319.941"/>
<polygon fill="midnightblue" stroke="midnightblue" points="434.463,-317.723 425.978,-311.378 428.654,-321.629 434.463,-317.723"/>
</g>
<!-- Node17 -->
<g id="node37" class="node"><title>Node17</title>
<a xlink:href="thread_8h.html" target="_top" xlink:title="This file defines a minimalistic cross&#45;platform thread that the scheduler uses to schedule tasks...">
<polygon fill="white" stroke="black" points="480.5,-233 480.5,-253 531.5,-253 531.5,-233 480.5,-233"/>
<text text-anchor="middle" x="506" y="-240" font-family="FreeSans" font-size="10.00">thread.h</text>
</a>
</g>
<!-- Node15&#45;&gt;Node17 -->
<g id="edge76" class="edge"><title>Node15&#45;&gt;Node17</title>
<path fill="none" stroke="midnightblue" d="M462.26,-348.706C470.25,-329.396 487.607,-287.451 497.891,-262.596"/>
<polygon fill="midnightblue" stroke="midnightblue" points="501.229,-263.684 501.818,-253.106 494.761,-261.007 501.229,-263.684"/>
</g>
<!-- Node19 -->
<g id="node42" class="node"><title>Node19</title>
<a xlink:href="mutex_8h.html" target="_top" xlink:title="This file declares and defines a mutex that is a partial implementation.">
<polygon fill="white" stroke="black" points="534,-175 534,-195 584,-195 584,-175 534,-175"/>
<text text-anchor="middle" x="559" y="-182" font-family="FreeSans" font-size="10.00">mutex.h</text>
</a>
</g>
<!-- Node15&#45;&gt;Node19 -->
<g id="edge68" class="edge"><title>Node15&#45;&gt;Node19</title>
<path fill="none" stroke="midnightblue" d="M468.207,-348.962C485.545,-331.338 520.741,-292.985 540,-254 547.643,-238.53 552.585,-219.538 555.507,-205.399"/>
<polygon fill="midnightblue" stroke="midnightblue" points="559.005,-205.737 557.431,-195.259 552.128,-204.432 559.005,-205.737"/>
</g>
<!-- Node21 -->
<g id="node47" class="node"><title>Node21</title>
<a xlink:href="workunitkey_8h.html" target="_top" xlink:title="This file defines the metadata used to sort workunits.">
<polygon fill="white" stroke="black" points="586.5,-233 586.5,-253 661.5,-253 661.5,-233 586.5,-233"/>
<text text-anchor="middle" x="624" y="-240" font-family="FreeSans" font-size="10.00">workunitkey.h</text>
</a>
</g>
<!-- Node15&#45;&gt;Node21 -->
<g id="edge78" class="edge"><title>Node15&#45;&gt;Node21</title>
<path fill="none" stroke="midnightblue" d="M488.183,-351.573C512.839,-344.417 547.635,-331.732 573,-312 590.361,-298.495 604.661,-277.614 613.656,-262.359"/>
<polygon fill="midnightblue" stroke="midnightblue" points="616.913,-263.709 618.78,-253.28 610.817,-260.269 616.913,-263.709"/>
</g>
<!-- Node22 -->
<g id="node51" class="node"><title>Node22</title>
<a xlink:href="rollingaverage_8h.html" target="_top" xlink:title="This stores the implementation and the declaration of the RollingAverage, BufferedRollingAverage, WeightedRollingAverage and the DefaultRollingAverage.">
<polygon fill="white" stroke="black" points="266.5,-233 266.5,-253 349.5,-253 349.5,-233 266.5,-233"/>
<text text-anchor="middle" x="308" y="-240" font-family="FreeSans" font-size="10.00">rollingaverage.h</text>
</a>
</g>
<!-- Node15&#45;&gt;Node22 -->
<g id="edge70" class="edge"><title>Node15&#45;&gt;Node22</title>
<path fill="none" stroke="midnightblue" d="M431.038,-348.88C411.488,-340.743 385.069,-328.036 365,-312 346.905,-297.542 330.557,-276.527 320.057,-261.493"/>
<polygon fill="midnightblue" stroke="midnightblue" points="322.819,-259.33 314.311,-253.017 317.025,-263.258 322.819,-259.33"/>
</g>
<!-- Node24 -->
<g id="node60" class="node"><title>Node24</title>
<a xlink:href="threadingenumerations_8h.html" target="_top" xlink:title="Any enumerations the threading library requires are all declared here.">
<polygon fill="white" stroke="black" points="640,-117 640,-137 762,-137 762,-117 640,-117"/>
<text text-anchor="middle" x="701" y="-124" font-family="FreeSans" font-size="10.00">threadingenumerations.h</text>
</a>
</g>
<!-- Node15&#45;&gt;Node24 -->
<g id="edge72" class="edge"><title>Node15&#45;&gt;Node24</title>
<path fill="none" stroke="midnightblue" d="M488.033,-354.096C536.063,-344.474 628.924,-318.168 670,-254 691.318,-220.698 697.977,-173.904 700.057,-147.406"/>
<polygon fill="midnightblue" stroke="midnightblue" points="703.572,-147.286 700.712,-137.085 696.586,-146.843 703.572,-147.286"/>
</g>
<!-- Node16&#45;&gt;Node3 -->
<g id="edge36" class="edge"><title>Node16&#45;&gt;Node3</title>
<path fill="none" stroke="midnightblue" d="M411.713,-290.926C399.204,-272.941 374.115,-233.655 365,-196 356.093,-159.205 359.134,-114.636 362.103,-89.2735"/>
<polygon fill="midnightblue" stroke="midnightblue" points="365.611,-89.4345 363.418,-79.0691 358.668,-88.5394 365.611,-89.4345"/>
</g>
<!-- Node16&#45;&gt;Node14 -->
<g id="edge38" class="edge"><title>Node16&#45;&gt;Node14</title>
<path fill="none" stroke="midnightblue" d="M379.027,-290.963C339.815,-281.118 279.922,-266.08 237.672,-255.472"/>
<polygon fill="midnightblue" stroke="midnightblue" points="238.422,-252.051 227.871,-253.011 236.717,-258.841 238.422,-252.051"/>
</g>
<!-- Node16&#45;&gt;Node17 -->
<g id="edge40" class="edge"><title>Node16&#45;&gt;Node17</title>
<path fill="none" stroke="midnightblue" d="M434.154,-290.897C447.421,-282.052 466.919,-269.054 482.256,-258.829"/>
<polygon fill="midnightblue" stroke="midnightblue" points="484.348,-261.641 490.728,-253.182 480.466,-255.817 484.348,-261.641"/>
</g>
<!-- Node18 -->
<g id="node39" class="node"><title>Node18</title>
<a xlink:href="systemcalls_8h.html" target="_top" xlink:title="This file defines a minimalistic cross&#45;platform thread that the scheduler uses to schedule tasks...">
<polygon fill="white" stroke="black" points="442,-175 442,-195 516,-195 516,-175 442,-175"/>
<text text-anchor="middle" x="479" y="-182" font-family="FreeSans" font-size="10.00">systemcalls.h</text>
</a>
</g>
<!-- Node16&#45;&gt;Node18 -->
<g id="edge56" class="edge"><title>Node16&#45;&gt;Node18</title>
<path fill="none" stroke="midnightblue" d="M424.325,-290.706C434.357,-271.31 456.202,-229.076 469.036,-204.264"/>
<polygon fill="midnightblue" stroke="midnightblue" points="472.287,-205.596 473.773,-195.106 466.07,-202.38 472.287,-205.596"/>
</g>
<!-- Node16&#45;&gt;Node21 -->
<g id="edge52" class="edge"><title>Node16&#45;&gt;Node21</title>
<path fill="none" stroke="midnightblue" d="M454.708,-290.897C489.143,-281.155 541.391,-266.372 578.728,-255.809"/>
<polygon fill="midnightblue" stroke="midnightblue" points="579.688,-259.174 588.358,-253.084 577.782,-252.439 579.688,-259.174"/>
</g>
<!-- Node16&#45;&gt;Node22 -->
<g id="edge58" class="edge"><title>Node16&#45;&gt;Node22</title>
<path fill="none" stroke="midnightblue" d="M399.665,-290.897C382.185,-281.763 356.226,-268.199 336.391,-257.835"/>
<polygon fill="midnightblue" stroke="midnightblue" points="337.97,-254.711 327.486,-253.182 334.728,-260.915 337.97,-254.711"/>
</g>
<!-- Node23 -->
<g id="node54" class="node"><title>Node23</title>
<a xlink:href="barrier_8h.html" target="_top" xlink:title="The declaration of the Mezzanine::Threading::Barrier Barrier synchronization primitive.">
<polygon fill="white" stroke="black" points="373.5,-175 373.5,-195 424.5,-195 424.5,-175 373.5,-175"/>
<text text-anchor="middle" x="399" y="-182" font-family="FreeSans" font-size="10.00">barrier.h</text>
</a>
</g>
<!-- Node16&#45;&gt;Node23 -->
<g id="edge62" class="edge"><title>Node16&#45;&gt;Node23</title>
<path fill="none" stroke="midnightblue" d="M417.225,-290.706C413.926,-271.568 406.793,-230.198 402.494,-205.265"/>
<polygon fill="midnightblue" stroke="midnightblue" points="405.891,-204.365 400.742,-195.106 398.992,-205.555 405.891,-204.365"/>
</g>
<!-- Node17&#45;&gt;Node18 -->
<g id="edge42" class="edge"><title>Node17&#45;&gt;Node18</title>
<path fill="none" stroke="midnightblue" d="M501.297,-232.897C497.664,-225.093 492.525,-214.054 488.096,-204.54"/>
<polygon fill="midnightblue" stroke="midnightblue" points="491.224,-202.966 483.831,-195.378 484.878,-205.921 491.224,-202.966"/>
</g>
<!-- Node17&#45;&gt;Node19 -->
<g id="edge46" class="edge"><title>Node17&#45;&gt;Node19</title>
<path fill="none" stroke="midnightblue" d="M515.232,-232.897C522.739,-224.682 533.521,-212.883 542.505,-203.051"/>
<polygon fill="midnightblue" stroke="midnightblue" points="545.355,-205.121 549.517,-195.378 540.188,-200.399 545.355,-205.121"/>
</g>
<!-- Node18&#45;&gt;Node3 -->
<g id="edge44" class="edge"><title>Node18&#45;&gt;Node3</title>
<path fill="none" stroke="midnightblue" d="M492.243,-174.97C508.879,-161.142 533.583,-135.698 519,-116 505.66,-97.9811 448.575,-84.0903 407.803,-76.2288"/>
<polygon fill="midnightblue" stroke="midnightblue" points="408.298,-72.7608 397.825,-74.3611 407.01,-79.6413 408.298,-72.7608"/>
</g>
<!-- Node20 -->
<g id="node44" class="node"><title>Node20</title>
<a xlink:href="atomicoperations_8h.html" target="_top" xlink:title="Simple thread safe ways to check and change a specified variable atomically.">
<polygon fill="white" stroke="black" points="412,-117 412,-137 510,-137 510,-117 412,-117"/>
<text text-anchor="middle" x="461" y="-124" font-family="FreeSans" font-size="10.00">atomicoperations.h</text>
</a>
</g>
<!-- Node19&#45;&gt;Node20 -->
<g id="edge48" class="edge"><title>Node19&#45;&gt;Node20</title>
<path fill="none" stroke="midnightblue" d="M541.93,-174.897C526.846,-165.97 504.611,-152.811 487.262,-142.543"/>
<polygon fill="midnightblue" stroke="midnightblue" points="488.592,-139.263 478.203,-137.182 485.027,-145.287 488.592,-139.263"/>
</g>
<!-- Node20&#45;&gt;Node3 -->
<g id="edge50" class="edge"><title>Node20&#45;&gt;Node3</title>
<path fill="none" stroke="midnightblue" d="M444.278,-116.897C429.502,-107.97 407.721,-94.8106 390.726,-84.5431"/>
<polygon fill="midnightblue" stroke="midnightblue" points="392.221,-81.3572 381.852,-79.1817 388.602,-87.3486 392.221,-81.3572"/>
</g>
<!-- Node21&#45;&gt;Node3 -->
<g id="edge54" class="edge"><title>Node21&#45;&gt;Node3</title>
<path fill="none" stroke="midnightblue" d="M620.655,-232.571C615.855,-218.505 606.124,-193.026 593,-174 572.301,-143.991 566.499,-134.353 535,-116 495.267,-92.8495 443.649,-80.6863 407.763,-74.5862"/>
<polygon fill="midnightblue" stroke="midnightblue" points="408.052,-71.0877 397.622,-72.9523 406.938,-77.9986 408.052,-71.0877"/>
</g>
<!-- Node22&#45;&gt;Node3 -->
<g id="edge60" class="edge"><title>Node22&#45;&gt;Node3</title>
<path fill="none" stroke="midnightblue" d="M308.477,-232.7C309.813,-210.519 314.721,-156.931 332,-116 336.374,-105.638 343.302,-95.2813 349.683,-86.9377"/>
<polygon fill="midnightblue" stroke="midnightblue" points="352.478,-89.0463 356.004,-79.0555 347.017,-84.6666 352.478,-89.0463"/>
</g>
<!-- Node23&#45;&gt;Node3 -->
<g id="edge64" class="edge"><title>Node23&#45;&gt;Node3</title>
<path fill="none" stroke="midnightblue" d="M395.983,-174.706C390.348,-155.482 378.138,-113.825 370.841,-88.9294"/>
<polygon fill="midnightblue" stroke="midnightblue" points="374.133,-87.7173 367.962,-79.1055 367.416,-89.6863 374.133,-87.7173"/>
</g>
<!-- Node23&#45;&gt;Node20 -->
<g id="edge66" class="edge"><title>Node23&#45;&gt;Node20</title>
<path fill="none" stroke="midnightblue" d="M409.8,-174.897C418.757,-166.517 431.7,-154.409 442.332,-144.464"/>
<polygon fill="midnightblue" stroke="midnightblue" points="444.995,-146.765 449.907,-137.378 440.213,-141.653 444.995,-146.765"/>
</g>
<!-- Node24&#45;&gt;Node3 -->
<g id="edge74" class="edge"><title>Node24&#45;&gt;Node3</title>
<path fill="none" stroke="midnightblue" d="M642.857,-116.963C575.88,-105.402 467.419,-86.6794 407.746,-76.3788"/>
<polygon fill="midnightblue" stroke="midnightblue" points="407.995,-72.87 397.545,-74.6179 406.804,-79.768 407.995,-72.87"/>
</g>
</g>
</svg>
        <g id="navigator" transform="translate(0 0)" fill="#404254">
                <rect fill="#f2f5e9" fill-opacity="0.5" stroke="#606060" stroke-width=".5" x="0" y="0" width="60" height="60"/>
                <use id="zoomplus" xlink:href="#zoomPlus" x="17" y="9" onmousedown="handleZoom(evt,'in')"/>
                <use id="zoomminus" xlink:href="#zoomMin" x="42" y="9" onmousedown="handleZoom(evt,'out')"/>
                <use id="reset" xlink:href="#resetDef" x="30" y="36" onmousedown="handleReset()"/>
                <g id="arrowUp" xlink:href="#dirArrow" transform="translate(30 24)" onmousedown="handlePan(0,-1)">
                  <use xlink:href="#rim" fill="#404040">
                        <set attributeName="fill" to="#808080" begin="arrowUp.mouseover" end="arrowUp.mouseout"/>
                  </use>
                  <path fill="none" stroke="white" stroke-width="1.5" d="M0,-3.0v7 M-2.5,-0.5L0,-3.0L2.5,-0.5"/>
                </g>
                <g id="arrowRight" xlink:href="#dirArrow" transform="rotate(90) translate(36 -43)" onmousedown="handlePan(1,0)">
                  <use xlink:href="#rim" fill="#404040">
                        <set attributeName="fill" to="#808080" begin="arrowRight.mouseover" end="arrowRight.mouseout"/>
                  </use>
                  <path fill="none" stroke="white" stroke-width="1.5" d="M0,-3.0v7 M-2.5,-0.5L0,-3.0L2.5,-0.5"/>
                </g>
                <g id="arrowDown" xlink:href="#dirArrow" transform="rotate(180) translate(-30 -48)" onmousedown="handlePan(0,1)">
                  <use xlink:href="#rim" fill="#404040">
                        <set attributeName="fill" to="#808080" begin="arrowDown.mouseover" end="arrowDown.mouseout"/>
                  </use>
                  <path fill="none" stroke="white" stroke-width="1.5" d="M0,-3.0v7 M-2.5,-0.5L0,-3.0L2.5,-0.5"/>
                </g>
                <g id="arrowLeft" xlink:href="#dirArrow" transform="rotate(270) translate(-36 17)" onmousedown="handlePan(-1,0)">
                  <use xlink:href="#rim" fill="#404040">
                        <set attributeName="fill" to="#808080" begin="arrowLeft.mouseover" end="arrowLeft.mouseout"/>
                  </use>
                  <path fill="none" stroke="white" stroke-width="1.5" d="M0,-3.0v7 M-2.5,-0.5L0,-3.0L2.5,-0.5"/>
                </g>
        </g>
        <svg viewBox="0 0 15 15" width="100%" height="30px" preserveAspectRatio="xMaxYMin meet">
         <g id="arrow_out" transform="scale(0.3 0.3)">
          <a xlink:href="asynchronousfileloadingworkunit_8h__incl_org.svg" target="_base">
           <rect id="button" ry="5" rx="5" y="6" x="6" height="38" width="38"
                fill="#f2f5e9" fill-opacity="0.5" stroke="#606060" stroke-width="1.0"/>
           <path id="arrow"
             d="M 11.500037,31.436501 C 11.940474,20.09759 22.043105,11.32322 32.158766,21.979434 L 37.068811,17.246167 C 37.068811,17.246167 37.088388,32 37.088388,32 L 22.160133,31.978069 C 22.160133,31.978069 26.997745,27.140456 26.997745,27.140456 C 18.528582,18.264221 13.291696,25.230495 11.500037,31.436501 z"
             style="fill:#404040;"/>
          </a>
         </g>
        </svg>
</svg>
