<?xml version="1.0" encoding="UTF-8" standalone="no"?>
<!DOCTYPE svg PUBLIC "-//W3C//DTD SVG 1.1//EN"
 "http://www.w3.org/Graphics/SVG/1.1/DTD/svg11.dtd">
<!-- Generated by graphviz version 2.26.3 (20100126.1600)
 -->
<!-- Title: G Pages: 1 -->
<svg width="242pt" height="152pt"
 viewBox="0.00 0.00 242.00 152.00" xmlns="http://www.w3.org/2000/svg" xmlns:xlink="http://www.w3.org/1999/xlink">
<g id="graph1" class="graph" transform="scale(1 1) rotate(0) translate(4 148)">
<title>G</title>
<polygon fill="white" stroke="white" points="-4,5 -4,-148 239,-148 239,5 -4,5"/>
<!-- Node1 -->
<g id="node1" class="node"><title>Node1</title>
<polygon fill="#bfbfbf" stroke="black" points="85.5,-121 85.5,-143 186.5,-143 186.5,-121 85.5,-121"/>
<text text-anchor="middle" x="136" y="-130" font-family="FreeSans" font-size="10.00">atomicoperations.h</text>
</g>
<!-- Node2 -->
<g id="node3" class="node"><title>Node2</title>
<a xlink:href="barrier_8h.html" target="_top" xlink:title="The declaration of the Mezzanine::Threading::Barrier Barrier synchronization primitive.">
<polygon fill="white" stroke="black" points="55.5,-61 55.5,-83 108.5,-83 108.5,-61 55.5,-61"/>
<text text-anchor="middle" x="82" y="-70" font-family="FreeSans" font-size="10.00">barrier.h</text>
</a>
</g>
<!-- Node1&#45;&gt;Node2 -->
<g id="edge2" class="edge"><title>Node1&#45;&gt;Node2</title>
<path fill="none" stroke="midnightblue" d="M119.177,-113.308C110.343,-103.492 99.8051,-91.7835 92.2086,-83.3428"/>
<polygon fill="midnightblue" stroke="midnightblue" points="116.804,-115.903 126.096,-120.995 122.007,-111.221 116.804,-115.903"/>
</g>
<!-- Node4 -->
<g id="node7" class="node"><title>Node4</title>
<a xlink:href="dagframescheduler_8h.html" target="_top" xlink:title="This is the file that code using this library should include. It includes all the required components...">
<polygon fill="white" stroke="black" points="80,-1 80,-23 192,-23 192,-1 80,-1"/>
<text text-anchor="middle" x="136" y="-10" font-family="FreeSans" font-size="10.00">dagframescheduler.h</text>
</a>
</g>
<!-- Node1&#45;&gt;Node4 -->
<g id="edge8" class="edge"><title>Node1&#45;&gt;Node4</title>
<path fill="none" stroke="midnightblue" d="M136,-110.749C136,-85.1002 136,-42.9411 136,-23.0475"/>
<polygon fill="midnightblue" stroke="midnightblue" points="132.5,-110.926 136,-120.926 139.5,-110.926 132.5,-110.926"/>
</g>
<!-- Node5 -->
<g id="node10" class="node"><title>Node5</title>
<a xlink:href="workunit_8cpp.html" target="_top" xlink:title="This file has the implementation of the workunit.">
<polygon fill="white" stroke="black" points="163.5,-61 163.5,-83 234.5,-83 234.5,-61 163.5,-61"/>
<text text-anchor="middle" x="199" y="-70" font-family="FreeSans" font-size="10.00">workunit.cpp</text>
</a>
</g>
<!-- Node1&#45;&gt;Node5 -->
<g id="edge10" class="edge"><title>Node1&#45;&gt;Node5</title>
<path fill="none" stroke="midnightblue" d="M155.011,-113.894C165.441,-103.961 178.05,-91.9523 187.09,-83.3428"/>
<polygon fill="midnightblue" stroke="midnightblue" points="152.383,-111.564 147.555,-120.995 157.21,-116.633 152.383,-111.564"/>
</g>
<!-- Node3 -->
<g id="node5" class="node"><title>Node3</title>
<a xlink:href="barrier_8cpp.html" target="_top" xlink:title="Contains the implementation for the Mezzanine::Threading::Barrier Barrier synchronization object...">
<polygon fill="white" stroke="black" points="-0.5,-1 -0.5,-23 62.5,-23 62.5,-1 -0.5,-1"/>
<text text-anchor="middle" x="31" y="-10" font-family="FreeSans" font-size="10.00">barrier.cpp</text>
</a>
</g>
<!-- Node2&#45;&gt;Node3 -->
<g id="edge4" class="edge"><title>Node2&#45;&gt;Node3</title>
<path fill="none" stroke="midnightblue" d="M66.1116,-53.3078C57.7679,-43.4917 47.816,-31.7835 40.6414,-23.3428"/>
<polygon fill="midnightblue" stroke="midnightblue" points="63.5025,-55.6424 72.6458,-60.9951 68.8361,-51.1089 63.5025,-55.6424"/>
</g>
<!-- Node2&#45;&gt;Node4 -->
<g id="edge6" class="edge"><title>Node2&#45;&gt;Node4</title>
<path fill="none" stroke="midnightblue" d="M98.823,-53.3078C107.657,-43.4917 118.195,-31.7835 125.791,-23.3428"/>
<polygon fill="midnightblue" stroke="midnightblue" points="95.9926,-51.2207 91.9044,-60.9951 101.196,-55.9035 95.9926,-51.2207"/>
</g>
</g>
</svg>
