<?xml version="1.0" encoding="UTF-8" standalone="no"?>
<!DOCTYPE svg PUBLIC "-//W3C//DTD SVG 1.1//EN"
 "http://www.w3.org/Graphics/SVG/1.1/DTD/svg11.dtd">
<!-- Generated by graphviz version 2.26.3 (20100126.1600)
 -->
<!-- Title: atomicoperations.h Pages: 1 -->
<svg width="980pt" height="378pt"
 viewBox="0.00 0.00 980.00 378.00" xmlns="http://www.w3.org/2000/svg" xmlns:xlink="http://www.w3.org/1999/xlink">
<g id="graph1" class="graph" transform="scale(1 1) rotate(0) translate(4 374)">
<title>atomicoperations.h</title>
<polygon fill="white" stroke="white" points="-4,5 -4,-374 977,-374 977,5 -4,5"/>
<!-- Node1 -->
<g id="node1" class="node"><title>Node1</title>
<polygon fill="#bfbfbf" stroke="black" points="463,-349 463,-369 561,-369 561,-349 463,-349"/>
<text text-anchor="middle" x="512" y="-356" font-family="FreeSans" font-size="10.00">atomicoperations.h</text>
</g>
<!-- Node2 -->
<g id="node3" class="node"><title>Node2</title>
<a xlink:href="barrier_8h.html" target="_top" xlink:title="The declaration of the Mezzanine::Threading::Barrier Barrier synchronization primitive.">
<polygon fill="white" stroke="black" points="202.5,-291 202.5,-311 253.5,-311 253.5,-291 202.5,-291"/>
<text text-anchor="middle" x="228" y="-298" font-family="FreeSans" font-size="10.00">barrier.h</text>
</a>
</g>
<!-- Node1&#45;&gt;Node2 -->
<g id="edge2" class="edge"><title>Node1&#45;&gt;Node2</title>
<path fill="none" stroke="midnightblue" d="M452.912,-346.933C391.522,-334.395 298.309,-315.359 253.634,-306.235"/>
<polygon fill="midnightblue" stroke="midnightblue" points="452.357,-350.392 462.855,-348.963 453.758,-343.533 452.357,-350.392"/>
</g>
<!-- Node4 -->
<g id="node7" class="node"><title>Node4</title>
<a xlink:href="dagframescheduler_8h.html" target="_top" xlink:title="This is the file that code using this library should include. It includes all the required components...">
<polygon fill="white" stroke="black" points="120,-1 120,-21 226,-21 226,-1 120,-1"/>
<text text-anchor="middle" x="173" y="-8" font-family="FreeSans" font-size="10.00">dagframescheduler.h</text>
</a>
</g>
<!-- Node1&#45;&gt;Node4 -->
<g id="edge48" class="edge"><title>Node1&#45;&gt;Node4</title>
<path fill="none" stroke="midnightblue" d="M452.783,-353.351C388.479,-346.499 283.032,-333.164 194,-312 104.968,-290.835 0,-334.513 0,-243 0,-243 0,-243 0,-127 0,-66.0677 74.949,-35.0923 126.184,-21.036"/>
<polygon fill="midnightblue" stroke="midnightblue" points="452.431,-356.833 462.742,-354.395 453.161,-349.871 452.431,-356.833"/>
</g>
<!-- Node12 -->
<g id="node26" class="node"><title>Node12</title>
<a xlink:href="framescheduler_8cpp.html" target="_top" xlink:title="This is the core object implementation for this algorithm.">
<polygon fill="white" stroke="black" points="871.5,-59 871.5,-79 972.5,-79 972.5,-59 871.5,-59"/>
<text text-anchor="middle" x="922" y="-66" font-family="FreeSans" font-size="10.00">framescheduler.cpp</text>
</a>
</g>
<!-- Node1&#45;&gt;Node12 -->
<g id="edge50" class="edge"><title>Node1&#45;&gt;Node12</title>
<path fill="none" stroke="midnightblue" d="M571.116,-354.216C682.418,-343.572 912,-313.117 912,-243 912,-243 912,-243 912,-185 912,-145.786 917.743,-99.3891 920.524,-79.2159"/>
<polygon fill="midnightblue" stroke="midnightblue" points="570.679,-350.742 561.048,-355.156 571.33,-357.711 570.679,-350.742"/>
</g>
<!-- Node16 -->
<g id="node37" class="node"><title>Node16</title>
<a xlink:href="workunit_8cpp.html" target="_top" xlink:title="This file has the implementation of the Mezzanine::Threading::DefaultWorkUnit.">
<polygon fill="white" stroke="black" points="659.5,-117 659.5,-137 730.5,-137 730.5,-117 659.5,-117"/>
<text text-anchor="middle" x="695" y="-124" font-family="FreeSans" font-size="10.00">workunit.cpp</text>
</a>
</g>
<!-- Node1&#45;&gt;Node16 -->
<g id="edge52" class="edge"><title>Node1&#45;&gt;Node16</title>
<path fill="none" stroke="midnightblue" d="M526.406,-340.736C563.008,-294.334 658.679,-173.046 686.994,-137.15"/>
<polygon fill="midnightblue" stroke="midnightblue" points="523.545,-338.713 520.099,-348.732 529.041,-343.048 523.545,-338.713"/>
</g>
<!-- Node3 -->
<g id="node5" class="node"><title>Node3</title>
<a xlink:href="barrier_8cpp.html" target="_top" xlink:title="Contains the implementation for the Mezzanine::Threading::Barrier Barrier synchronization object...">
<polygon fill="white" stroke="black" points="28,-233 28,-253 90,-253 90,-233 28,-233"/>
<text text-anchor="middle" x="59" y="-240" font-family="FreeSans" font-size="10.00">barrier.cpp</text>
</a>
</g>
<!-- Node2&#45;&gt;Node3 -->
<g id="edge4" class="edge"><title>Node2&#45;&gt;Node3</title>
<path fill="none" stroke="midnightblue" d="M192.801,-288.92C161.864,-278.302 117.367,-263.031 88.3229,-253.063"/>
<polygon fill="midnightblue" stroke="midnightblue" points="191.738,-292.255 202.333,-292.191 194.01,-285.634 191.738,-292.255"/>
</g>
<!-- Node2&#45;&gt;Node4 -->
<g id="edge6" class="edge"><title>Node2&#45;&gt;Node4</title>
<path fill="none" stroke="midnightblue" d="M220.957,-281.153C207.806,-242.867 180.029,-155.886 171,-80 168.536,-59.2935 170.346,-34.8586 171.758,-21.3295"/>
<polygon fill="midnightblue" stroke="midnightblue" points="217.657,-282.318 224.251,-290.61 224.267,-280.016 217.657,-282.318"/>
</g>
<!-- Node5 -->
<g id="node9" class="node"><title>Node5</title>
<a xlink:href="framescheduler_8h.html" target="_top" xlink:title="This file has the Declarations for the main FrameScheduler class.">
<polygon fill="white" stroke="black" points="294,-233 294,-253 384,-253 384,-233 294,-233"/>
<text text-anchor="middle" x="339" y="-240" font-family="FreeSans" font-size="10.00">framescheduler.h</text>
</a>
</g>
<!-- Node2&#45;&gt;Node5 -->
<g id="edge8" class="edge"><title>Node2&#45;&gt;Node5</title>
<path fill="none" stroke="midnightblue" d="M256.22,-286.254C276.02,-275.909 301.985,-262.341 319.514,-253.182"/>
<polygon fill="midnightblue" stroke="midnightblue" points="254.577,-283.164 247.335,-290.897 257.819,-289.368 254.577,-283.164"/>
</g>
<!-- Node5&#45;&gt;Node4 -->
<g id="edge44" class="edge"><title>Node5&#45;&gt;Node4</title>
<path fill="none" stroke="midnightblue" d="M311.566,-227.644C281.444,-209.59 233.337,-177.076 203,-138 185.786,-115.827 184.663,-107.268 178,-80 173.039,-59.6989 172.512,-35.1183 172.683,-21.4543"/>
<polygon fill="midnightblue" stroke="midnightblue" points="309.902,-230.726 320.297,-232.774 313.448,-224.69 309.902,-230.726"/>
</g>
<!-- Node6 -->
<g id="node11" class="node"><title>Node6</title>
<a xlink:href="workunit_8h.html" target="_top" xlink:title="This file has the definition of the workunit.">
<polygon fill="white" stroke="black" points="335,-175 335,-195 395,-195 395,-175 335,-175"/>
<text text-anchor="middle" x="365" y="-182" font-family="FreeSans" font-size="10.00">workunit.h</text>
</a>
</g>
<!-- Node5&#45;&gt;Node6 -->
<g id="edge10" class="edge"><title>Node5&#45;&gt;Node6</title>
<path fill="none" stroke="midnightblue" d="M347.745,-223.493C351.963,-214.083 356.853,-203.174 360.348,-195.378"/>
<polygon fill="midnightblue" stroke="midnightblue" points="344.426,-222.34 343.529,-232.897 350.813,-225.204 344.426,-222.34"/>
</g>
<!-- Node5&#45;&gt;Node12 -->
<g id="edge46" class="edge"><title>Node5&#45;&gt;Node12</title>
<path fill="none" stroke="midnightblue" d="M393.228,-230.657C470.622,-212.614 616.907,-176.926 739,-138 796.744,-119.59 862.933,-93.3067 897.716,-79.0805"/>
<polygon fill="midnightblue" stroke="midnightblue" points="392.178,-227.307 383.229,-232.979 393.761,-234.126 392.178,-227.307"/>
</g>
<!-- Node6&#45;&gt;Node4 -->
<g id="edge40" class="edge"><title>Node6&#45;&gt;Node4</title>
<path fill="none" stroke="midnightblue" d="M324.81,-179.185C294.882,-173.14 254.451,-161.164 226,-138 188.389,-107.379 177.1,-45.4633 174.038,-21.139"/>
<polygon fill="midnightblue" stroke="midnightblue" points="324.447,-182.678 334.921,-181.084 325.739,-175.798 324.447,-182.678"/>
</g>
<!-- Node7 -->
<g id="node13" class="node"><title>Node7</title>
<a xlink:href="asynchronousworkunit_8h.html" target="_top" xlink:title="Contains an interface for a kind of WorkUnit that loads or does other work even when the frame schedu...">
<polygon fill="white" stroke="black" points="234.5,-117 234.5,-137 353.5,-137 353.5,-117 234.5,-117"/>
<text text-anchor="middle" x="294" y="-124" font-family="FreeSans" font-size="10.00">asynchronousworkunit.h</text>
</a>
</g>
<!-- Node6&#45;&gt;Node7 -->
<g id="edge12" class="edge"><title>Node6&#45;&gt;Node7</title>
<path fill="none" stroke="midnightblue" d="M344.728,-168.44C332.486,-158.439 317.263,-146.004 306.704,-137.378"/>
<polygon fill="midnightblue" stroke="midnightblue" points="342.674,-171.281 352.633,-174.897 347.103,-165.86 342.674,-171.281"/>
</g>
<!-- Node11 -->
<g id="node23" class="node"><title>Node11</title>
<a xlink:href="frameschedulerworkunits_8h.html" target="_top" xlink:title="This defines a number of workunits that are required for doing some tasks that the Framescheduler req...">
<polygon fill="white" stroke="black" points="409.5,-117 409.5,-137 540.5,-137 540.5,-117 409.5,-117"/>
<text text-anchor="middle" x="475" y="-124" font-family="FreeSans" font-size="10.00">frameschedulerworkunits.h</text>
</a>
</g>
<!-- Node6&#45;&gt;Node11 -->
<g id="edge24" class="edge"><title>Node6&#45;&gt;Node11</title>
<path fill="none" stroke="midnightblue" d="M393.232,-170.114C412.82,-159.786 438.397,-146.3 455.69,-137.182"/>
<polygon fill="midnightblue" stroke="midnightblue" points="391.374,-167.137 384.161,-174.897 394.639,-173.329 391.374,-167.137"/>
</g>
<!-- Node14 -->
<g id="node30" class="node"><title>Node14</title>
<a xlink:href="monopoly_8h.html" target="_top" xlink:title="Contains an interface for a kind of WorkUnit that consumes time on multiple thread.">
<polygon fill="white" stroke="black" points="577.5,-117 577.5,-137 642.5,-137 642.5,-117 577.5,-117"/>
<text text-anchor="middle" x="610" y="-124" font-family="FreeSans" font-size="10.00">monopoly.h</text>
</a>
</g>
<!-- Node6&#45;&gt;Node14 -->
<g id="edge32" class="edge"><title>Node6&#45;&gt;Node14</title>
<path fill="none" stroke="midnightblue" d="M404.789,-175.581C452.846,-164.204 532.773,-145.282 577.371,-134.724"/>
<polygon fill="midnightblue" stroke="midnightblue" points="403.967,-172.178 395.042,-177.888 405.579,-178.99 403.967,-172.178"/>
</g>
<!-- Node6&#45;&gt;Node16 -->
<g id="edge42" class="edge"><title>Node6&#45;&gt;Node16</title>
<path fill="none" stroke="midnightblue" d="M405.341,-179.437C460.896,-171.533 563.97,-155.998 651,-138 653.622,-137.458 656.323,-136.866 659.037,-136.246"/>
<polygon fill="midnightblue" stroke="midnightblue" points="404.62,-176.004 395.208,-180.868 405.6,-182.935 404.62,-176.004"/>
</g>
<!-- Node7&#45;&gt;Node4 -->
<g id="edge22" class="edge"><title>Node7&#45;&gt;Node4</title>
<path fill="none" stroke="midnightblue" d="M259.221,-112.673C243.136,-104.788 224.622,-93.7846 211,-80 193.697,-62.4909 181.94,-35.4914 176.484,-21.0037"/>
<polygon fill="midnightblue" stroke="midnightblue" points="257.816,-115.88 268.357,-116.952 260.786,-109.541 257.816,-115.88"/>
</g>
<!-- Node8 -->
<g id="node15" class="node"><title>Node8</title>
<a xlink:href="asynchronousfileloadingworkunit_8h.html" target="_top" xlink:title="The declaration of the AsynchronousFileLoadWorkUnit a workunit that loads a listing of files asynchro...">
<polygon fill="white" stroke="black" points="403.5,-59 403.5,-79 564.5,-79 564.5,-59 403.5,-59"/>
<text text-anchor="middle" x="484" y="-66" font-family="FreeSans" font-size="10.00">asynchronousfileloadingworkunit.h</text>
</a>
</g>
<!-- Node7&#45;&gt;Node8 -->
<g id="edge14" class="edge"><title>Node7&#45;&gt;Node8</title>
<path fill="none" stroke="midnightblue" d="M336.912,-113.9C371.472,-103.351 419.343,-88.7374 450.966,-79.0842"/>
<polygon fill="midnightblue" stroke="midnightblue" points="335.638,-110.63 327.095,-116.897 337.682,-117.325 335.638,-110.63"/>
</g>
<!-- Node10 -->
<g id="node20" class="node"><title>Node10</title>
<a xlink:href="asynchronousworkunit_8cpp.html" target="_top" xlink:title="Contains very little actually.">
<polygon fill="white" stroke="black" points="219.5,-59 219.5,-79 348.5,-79 348.5,-59 219.5,-59"/>
<text text-anchor="middle" x="284" y="-66" font-family="FreeSans" font-size="10.00">asynchronousworkunit.cpp</text>
</a>
</g>
<!-- Node7&#45;&gt;Node10 -->
<g id="edge20" class="edge"><title>Node7&#45;&gt;Node10</title>
<path fill="none" stroke="midnightblue" d="M290.533,-106.89C288.935,-97.6201 287.105,-87.0083 285.789,-79.3776"/>
<polygon fill="midnightblue" stroke="midnightblue" points="287.11,-107.637 292.258,-116.897 294.008,-106.448 287.11,-107.637"/>
</g>
<!-- Node8&#45;&gt;Node4 -->
<g id="edge18" class="edge"><title>Node8&#45;&gt;Node4</title>
<path fill="none" stroke="midnightblue" d="M420.161,-57.0944C362.909,-46.4172 279.878,-30.9322 226.158,-20.9138"/>
<polygon fill="midnightblue" stroke="midnightblue" points="419.711,-60.5706 430.183,-58.9634 420.994,-53.6893 419.711,-60.5706"/>
</g>
<!-- Node9 -->
<g id="node17" class="node"><title>Node9</title>
<a xlink:href="asynchronousfileloadingworkunit_8cpp.html" target="_top" xlink:title="The implementation of the AsynchronousFileLoadWorkUnit a workunit that loads a listing of files async...">
<polygon fill="white" stroke="black" points="398,-1 398,-21 570,-21 570,-1 398,-1"/>
<text text-anchor="middle" x="484" y="-8" font-family="FreeSans" font-size="10.00">asynchronousfileloadingworkunit.cpp</text>
</a>
</g>
<!-- Node8&#45;&gt;Node9 -->
<g id="edge16" class="edge"><title>Node8&#45;&gt;Node9</title>
<path fill="none" stroke="midnightblue" d="M484,-48.8902C484,-39.6201 484,-29.0083 484,-21.3776"/>
<polygon fill="midnightblue" stroke="midnightblue" points="480.5,-48.8971 484,-58.8972 487.5,-48.8972 480.5,-48.8971"/>
</g>
<!-- Node11&#45;&gt;Node4 -->
<g id="edge26" class="edge"><title>Node11&#45;&gt;Node4</title>
<path fill="none" stroke="midnightblue" d="M448.762,-111.597C414.366,-91.4144 358.217,-58.4995 357,-58 314.454,-40.5306 263.639,-28.1439 226.201,-20.488"/>
<polygon fill="midnightblue" stroke="midnightblue" points="447.427,-114.872 457.823,-116.915 450.97,-108.835 447.427,-114.872"/>
</g>
<!-- Node11&#45;&gt;Node12 -->
<g id="edge28" class="edge"><title>Node11&#45;&gt;Node12</title>
<path fill="none" stroke="midnightblue" d="M550.978,-118.061C655.174,-105.761 832.981,-84.6117 863,-80 865.678,-79.5886 868.42,-79.1474 871.186,-78.6865"/>
<polygon fill="midnightblue" stroke="midnightblue" points="550.343,-114.612 540.822,-119.259 551.163,-121.563 550.343,-114.612"/>
</g>
<!-- Node13 -->
<g id="node28" class="node"><title>Node13</title>
<a xlink:href="frameschedulerworkunits_8cpp.html" target="_top" xlink:title="The implementation of any workunits the framescheduler needs to work correctly.">
<polygon fill="white" stroke="black" points="581.5,-59 581.5,-79 722.5,-79 722.5,-59 581.5,-59"/>
<text text-anchor="middle" x="652" y="-66" font-family="FreeSans" font-size="10.00">frameschedulerworkunits.cpp</text>
</a>
</g>
<!-- Node11&#45;&gt;Node13 -->
<g id="edge30" class="edge"><title>Node11&#45;&gt;Node13</title>
<path fill="none" stroke="midnightblue" d="M515.391,-113.764C547.554,-103.225 591.893,-88.6959 621.226,-79.0842"/>
<polygon fill="midnightblue" stroke="midnightblue" points="514.244,-110.457 505.831,-116.897 516.424,-117.109 514.244,-110.457"/>
</g>
<!-- Node14&#45;&gt;Node4 -->
<g id="edge34" class="edge"><title>Node14&#45;&gt;Node4</title>
<path fill="none" stroke="midnightblue" d="M650.698,-113.731C683.914,-102.493 726.135,-87.1093 731,-80 736.522,-71.9309 737.617,-65.1982 731,-58 714.037,-39.5483 362.212,-20.3209 226.108,-13.5446"/>
<polygon fill="midnightblue" stroke="midnightblue" points="649.537,-110.429 641.169,-116.926 651.763,-117.066 649.537,-110.429"/>
</g>
<!-- Node14&#45;&gt;Node12 -->
<g id="edge36" class="edge"><title>Node14&#45;&gt;Node12</title>
<path fill="none" stroke="midnightblue" d="M652.492,-115.805C746.074,-95.6524 772.034,-96.2023 863,-80 865.77,-79.5067 868.611,-78.9951 871.479,-78.4745"/>
<polygon fill="midnightblue" stroke="midnightblue" points="651.633,-112.41 642.606,-117.956 653.122,-119.25 651.633,-112.41"/>
</g>
<!-- Node15 -->
<g id="node34" class="node"><title>Node15</title>
<a xlink:href="monopoly_8cpp.html" target="_top" xlink:title="Contains the minimal implementation for the monopoly base class.">
<polygon fill="white" stroke="black" points="778,-59 778,-79 854,-79 854,-59 778,-59"/>
<text text-anchor="middle" x="816" y="-66" font-family="FreeSans" font-size="10.00">monopoly.cpp</text>
</a>
</g>
<!-- Node14&#45;&gt;Node15 -->
<g id="edge38" class="edge"><title>Node14&#45;&gt;Node15</title>
<path fill="none" stroke="midnightblue" d="M652.339,-115.079C690.123,-104.441 744.825,-89.0396 780.401,-79.0229"/>
<polygon fill="midnightblue" stroke="midnightblue" points="651.318,-111.73 642.641,-117.81 653.216,-118.469 651.318,-111.73"/>
</g>
</g>
</svg>
