<?xml version="1.0" encoding="UTF-8" standalone="no"?>
<!DOCTYPE svg PUBLIC "-//W3C//DTD SVG 1.1//EN"
 "http://www.w3.org/Graphics/SVG/1.1/DTD/svg11.dtd">
<!-- Generated by graphviz version 2.26.3 (20100126.1600)
 -->
<!-- Title: G Pages: 1 -->
<!--zoomable 392 -->
<svg id="main" version="1.1" xmlns="http://www.w3.org/2000/svg" xmlns:xlink="http://www.w3.org/1999/xlink" xml:space="preserve" onload="init(evt)">
        <defs>
                <circle id="rim" cx="0" cy="0" r="7"/>
                <circle id="rim2" cx="0" cy="0" r="3.5"/>
                <g id="zoomPlus">
                        <use xlink:href="#rim" fill="#404040">
                                <set attributeName="fill" to="#808080" begin="zoomplus.mouseover" end="zoomplus.mouseout"/>
                        </use>
                        <path d="M-4,0h8M0,-4v8" fill="none" stroke="white" stroke-width="1.5" pointer-events="none"/>
                </g>
                <g id="zoomMin">
                        <use xlink:href="#rim" fill="#404040">
                                <set attributeName="fill" to="#808080" begin="zoomminus.mouseover" end="zoomminus.mouseout"/>
                        </use>
                        <path d="M-4,0h8" fill="none" stroke="white" stroke-width="1.5" pointer-events="none"/>
                </g>
                <g id="dirArrow">
                        <path fill="none" stroke="white" stroke-width="1.5" d="M0,-3.0v7 M-2.5,-0.5L0,-3.0L2.5,-0.5"/>
                </g>
               <g id="resetDef">
                       <use xlink:href="#rim2" fill="#404040">
                               <set attributeName="fill" to="#808080" begin="reset.mouseover" end="reset.mouseout"/>
                       </use>
               </g>
        </defs>

<script type="text/javascript">
var viewWidth = 1050;
var viewHeight = 392;
var sectionId = 'dynsection-1';
</script>
<script xlink:href="svgpan.js"/>
<svg id="graph" class="graph">
<g id="viewport">
<title>G</title>
<polygon fill="white" stroke="white" points="-4,5 -4,-388 1046.55,-388 1046.55,5 -4,5"/>
<!-- Node1 -->
<g id="node1" class="node"><title>Node1</title>
<polygon fill="#bfbfbf" stroke="black" points="782.5,-361 782.5,-383 883.5,-383 883.5,-361 782.5,-361"/>
<text text-anchor="middle" x="833" y="-370" font-family="FreeSans" font-size="10.00">atomicoperations.h</text>
</g>
<!-- Node2 -->
<g id="node3" class="node"><title>Node2</title>
<a xlink:href="barrier_8h.html" target="_top" xlink:title="The declaration of the Mezzanine::Threading::Barrier Barrier synchronization primitive.">
<polygon fill="white" stroke="black" points="106.5,-301 106.5,-323 159.5,-323 159.5,-301 106.5,-301"/>
<text text-anchor="middle" x="133" y="-310" font-family="FreeSans" font-size="10.00">barrier.h</text>
</a>
</g>
<!-- Node1&#45;&gt;Node2 -->
<g id="edge2" class="edge"><title>Node1&#45;&gt;Node2</title>
<path fill="none" stroke="midnightblue" d="M772.268,-366.794C626.521,-354.302 261.489,-323.013 159.715,-314.29"/>
<polygon fill="midnightblue" stroke="midnightblue" points="772.114,-370.294 782.376,-367.661 772.712,-363.319 772.114,-370.294"/>
</g>
<!-- Node4 -->
<g id="node7" class="node"><title>Node4</title>
<a xlink:href="dagframescheduler_8h.html" target="_top" xlink:title="This is the file that code using this library should include. It includes all the required components...">
<polygon fill="white" stroke="black" points="467,-1 467,-23 579,-23 579,-1 467,-1"/>
<text text-anchor="middle" x="523" y="-10" font-family="FreeSans" font-size="10.00">dagframescheduler.h</text>
</a>
</g>
<!-- Node1&#45;&gt;Node4 -->
<g id="edge46" class="edge"><title>Node1&#45;&gt;Node4</title>
<path fill="none" stroke="midnightblue" d="M893.596,-363.122C954.684,-350.341 1040,-320.27 1040,-252 1040,-252 1040,-252 1040,-132 1040,-98.9046 1046.22,-81.4328 1021,-60 987.908,-31.8748 702.567,-18.3983 579.314,-13.8482"/>
<polygon fill="midnightblue" stroke="midnightblue" points="892.765,-359.719 883.638,-365.1 894.128,-366.585 892.765,-359.719"/>
</g>
<!-- Node16 -->
<g id="node36" class="node"><title>Node16</title>
<a xlink:href="workunit_8cpp.html" target="_top" xlink:title="This file has the implementation of the Mezzanine::Threading::DefaultWorkUnit.">
<polygon fill="white" stroke="black" points="797.5,-121 797.5,-143 868.5,-143 868.5,-121 797.5,-121"/>
<text text-anchor="middle" x="833" y="-130" font-family="FreeSans" font-size="10.00">workunit.cpp</text>
</a>
</g>
<!-- Node1&#45;&gt;Node16 -->
<g id="edge48" class="edge"><title>Node1&#45;&gt;Node16</title>
<path fill="none" stroke="midnightblue" d="M833,-350.566C833,-301.147 833,-180.593 833,-143.229"/>
<polygon fill="midnightblue" stroke="midnightblue" points="829.5,-350.746 833,-360.746 836.5,-350.746 829.5,-350.746"/>
</g>
<!-- Node3 -->
<g id="node5" class="node"><title>Node3</title>
<a xlink:href="barrier_8cpp.html" target="_top" xlink:title="Contains the implementation for the Mezzanine::Threading::Barrier Barrier synchronization object...">
<polygon fill="white" stroke="black" points="-0.5,-241 -0.5,-263 62.5,-263 62.5,-241 -0.5,-241"/>
<text text-anchor="middle" x="31" y="-250" font-family="FreeSans" font-size="10.00">barrier.cpp</text>
</a>
</g>
<!-- Node2&#45;&gt;Node3 -->
<g id="edge4" class="edge"><title>Node2&#45;&gt;Node3</title>
<path fill="none" stroke="midnightblue" d="M105.586,-295.874C87.9845,-285.52 65.5753,-272.338 49.9352,-263.138"/>
<polygon fill="midnightblue" stroke="midnightblue" points="103.898,-298.942 114.292,-300.995 107.447,-292.908 103.898,-298.942"/>
</g>
<!-- Node2&#45;&gt;Node4 -->
<g id="edge6" class="edge"><title>Node2&#45;&gt;Node4</title>
<path fill="none" stroke="midnightblue" d="M121.051,-292.026C108.326,-268.823 90,-228.986 90,-192 90,-192 90,-192 90,-132 90,-95.6071 98.9185,-80.4829 129,-60 156.375,-41.3596 364.837,-23.6459 466.963,-15.9795"/>
<polygon fill="midnightblue" stroke="midnightblue" points="118.107,-293.931 126.091,-300.895 124.193,-290.472 118.107,-293.931"/>
</g>
<!-- Node5 -->
<g id="node9" class="node"><title>Node5</title>
<a xlink:href="framescheduler_8h.html" target="_top" xlink:title="This file has the Declarations for the main FrameScheduler class.">
<polygon fill="white" stroke="black" points="129,-241 129,-263 223,-263 223,-241 129,-241"/>
<text text-anchor="middle" x="176" y="-250" font-family="FreeSans" font-size="10.00">framescheduler.h</text>
</a>
</g>
<!-- Node2&#45;&gt;Node5 -->
<g id="edge8" class="edge"><title>Node2&#45;&gt;Node5</title>
<path fill="none" stroke="midnightblue" d="M146.82,-292.717C153.766,-283.025 161.943,-271.615 167.871,-263.343"/>
<polygon fill="midnightblue" stroke="midnightblue" points="143.867,-290.828 140.887,-300.995 149.557,-294.906 143.867,-290.828"/>
</g>
<!-- Node5&#45;&gt;Node4 -->
<g id="edge42" class="edge"><title>Node5&#45;&gt;Node4</title>
<path fill="none" stroke="midnightblue" d="M163.982,-232.066C142.558,-193.682 103.873,-108.983 147,-60 167.792,-36.3847 367.369,-21.2645 466.996,-15.1266"/>
<polygon fill="midnightblue" stroke="midnightblue" points="160.974,-233.856 168.996,-240.777 167.04,-230.364 160.974,-233.856"/>
</g>
<!-- Node6 -->
<g id="node11" class="node"><title>Node6</title>
<a xlink:href="workunit_8h.html" target="_top" xlink:title="This file has the definition of the workunit.">
<polygon fill="white" stroke="black" points="542.5,-181 542.5,-203 603.5,-203 603.5,-181 542.5,-181"/>
<text text-anchor="middle" x="573" y="-190" font-family="FreeSans" font-size="10.00">workunit.h</text>
</a>
</g>
<!-- Node5&#45;&gt;Node6 -->
<g id="edge10" class="edge"><title>Node5&#45;&gt;Node6</title>
<path fill="none" stroke="midnightblue" d="M233.133,-243.365C318.435,-230.473 476.137,-206.639 542.407,-196.624"/>
<polygon fill="midnightblue" stroke="midnightblue" points="232.465,-239.926 223.1,-244.882 233.511,-246.848 232.465,-239.926"/>
</g>
<!-- Node14 -->
<g id="node31" class="node"><title>Node14</title>
<a xlink:href="framescheduler_8cpp.html" target="_top" xlink:title="This is the core object implementation for this algorithm.">
<polygon fill="white" stroke="black" points="156,-61 156,-83 260,-83 260,-61 156,-61"/>
<text text-anchor="middle" x="208" y="-70" font-family="FreeSans" font-size="10.00">framescheduler.cpp</text>
</a>
</g>
<!-- Node5&#45;&gt;Node14 -->
<g id="edge44" class="edge"><title>Node5&#45;&gt;Node14</title>
<path fill="none" stroke="midnightblue" d="M179.796,-230.65C186.627,-192.221 200.769,-112.672 205.999,-83.2556"/>
<polygon fill="midnightblue" stroke="midnightblue" points="176.306,-230.282 178.002,-240.74 183.198,-231.507 176.306,-230.282"/>
</g>
<!-- Node6&#45;&gt;Node4 -->
<g id="edge38" class="edge"><title>Node6&#45;&gt;Node4</title>
<path fill="none" stroke="midnightblue" d="M586.16,-172.445C602.485,-145.514 625.774,-96.232 605,-60 594.908,-42.3982 575.584,-30.6298 558.229,-23.1527"/>
<polygon fill="midnightblue" stroke="midnightblue" points="583.148,-170.659 580.76,-180.981 589.064,-174.401 583.148,-170.659"/>
</g>
<!-- Node7 -->
<g id="node13" class="node"><title>Node7</title>
<a xlink:href="asynchronousworkunit_8h.html" target="_top" xlink:title="Contains an interface for a kind of WorkUnit that loads or does other work even when the frame schedu...">
<polygon fill="white" stroke="black" points="657.5,-121 657.5,-143 780.5,-143 780.5,-121 657.5,-121"/>
<text text-anchor="middle" x="719" y="-130" font-family="FreeSans" font-size="10.00">asynchronousworkunit.h</text>
</a>
</g>
<!-- Node6&#45;&gt;Node7 -->
<g id="edge12" class="edge"><title>Node6&#45;&gt;Node7</title>
<path fill="none" stroke="midnightblue" d="M609.155,-177.142C634.769,-166.616 668.586,-152.718 691.897,-143.138"/>
<polygon fill="midnightblue" stroke="midnightblue" points="607.698,-173.957 599.779,-180.995 610.358,-180.431 607.698,-173.957"/>
</g>
<!-- Node11 -->
<g id="node23" class="node"><title>Node11</title>
<a xlink:href="frameschedulerworkunits_8h.html" target="_top" xlink:title="This defines a number of workunits that are required for doing some tasks that the Framescheduler req...">
<polygon fill="white" stroke="black" points="455,-121 455,-143 591,-143 591,-121 455,-121"/>
<text text-anchor="middle" x="523" y="-130" font-family="FreeSans" font-size="10.00">frameschedulerworkunits.h</text>
</a>
</g>
<!-- Node6&#45;&gt;Node11 -->
<g id="edge24" class="edge"><title>Node6&#45;&gt;Node11</title>
<path fill="none" stroke="midnightblue" d="M557.423,-173.308C549.243,-163.492 539.486,-151.783 532.452,-143.343"/>
<polygon fill="midnightblue" stroke="midnightblue" points="554.739,-175.553 563.829,-180.995 560.116,-171.072 554.739,-175.553"/>
</g>
<!-- Node13 -->
<g id="node28" class="node"><title>Node13</title>
<a xlink:href="monopoly_8h.html" target="_top" xlink:title="Contains an interface for a kind of WorkUnit that consumes time on multiple thread.">
<polygon fill="white" stroke="black" points="317,-121 317,-143 385,-143 385,-121 317,-121"/>
<text text-anchor="middle" x="351" y="-130" font-family="FreeSans" font-size="10.00">monopoly.h</text>
</a>
</g>
<!-- Node6&#45;&gt;Node13 -->
<g id="edge30" class="edge"><title>Node6&#45;&gt;Node13</title>
<path fill="none" stroke="midnightblue" d="M532.457,-181.042C490.269,-169.64 424.934,-151.982 385.246,-141.256"/>
<polygon fill="midnightblue" stroke="midnightblue" points="531.565,-184.427 542.132,-183.657 533.391,-177.669 531.565,-184.427"/>
</g>
<!-- Node6&#45;&gt;Node16 -->
<g id="edge40" class="edge"><title>Node6&#45;&gt;Node16</title>
<path fill="none" stroke="midnightblue" d="M613.421,-183.618C656.919,-174.458 728.066,-159.071 789,-144 791.767,-143.316 794.626,-142.586 797.496,-141.839"/>
<polygon fill="midnightblue" stroke="midnightblue" points="612.58,-180.218 603.512,-185.698 614.018,-187.069 612.58,-180.218"/>
</g>
<!-- Node7&#45;&gt;Node4 -->
<g id="edge22" class="edge"><title>Node7&#45;&gt;Node4</title>
<path fill="none" stroke="midnightblue" d="M755.075,-116.563C782.521,-102.659 812.79,-81.2041 795,-60 767.994,-27.8106 650.494,-17.1985 579.055,-13.7064"/>
<polygon fill="midnightblue" stroke="midnightblue" points="753.427,-113.473 745.949,-120.978 756.475,-119.774 753.427,-113.473"/>
</g>
<!-- Node8 -->
<g id="node15" class="node"><title>Node8</title>
<a xlink:href="asynchronousfileloadingworkunit_8h.html" target="_top" xlink:title="The declaration of the AsynchronousFileLoadWorkUnit a workunit that loads a listing of files asynchro...">
<polygon fill="white" stroke="black" points="842,-61 842,-83 1012,-83 1012,-61 842,-61"/>
<text text-anchor="middle" x="927" y="-70" font-family="FreeSans" font-size="10.00">asynchronousfileloadingworkunit.h</text>
</a>
</g>
<!-- Node7&#45;&gt;Node8 -->
<g id="edge14" class="edge"><title>Node7&#45;&gt;Node8</title>
<path fill="none" stroke="midnightblue" d="M767.199,-118.096C804.171,-107.432 854.508,-92.9112 888.74,-83.0366"/>
<polygon fill="midnightblue" stroke="midnightblue" points="765.789,-114.861 757.15,-120.995 767.729,-121.586 765.789,-114.861"/>
</g>
<!-- Node10 -->
<g id="node20" class="node"><title>Node10</title>
<a xlink:href="asynchronousworkunit_8cpp.html" target="_top" xlink:title="Contains very little actually.">
<polygon fill="white" stroke="black" points="652,-61 652,-83 786,-83 786,-61 652,-61"/>
<text text-anchor="middle" x="719" y="-70" font-family="FreeSans" font-size="10.00">asynchronousworkunit.cpp</text>
</a>
</g>
<!-- Node7&#45;&gt;Node10 -->
<g id="edge20" class="edge"><title>Node7&#45;&gt;Node10</title>
<path fill="none" stroke="midnightblue" d="M719,-110.918C719,-101.639 719,-91.1082 719,-83.3428"/>
<polygon fill="midnightblue" stroke="midnightblue" points="715.5,-110.995 719,-120.995 722.5,-110.995 715.5,-110.995"/>
</g>
<!-- Node8&#45;&gt;Node4 -->
<g id="edge18" class="edge"><title>Node8&#45;&gt;Node4</title>
<path fill="none" stroke="midnightblue" d="M842.957,-59.5183C763.817,-47.765 647.496,-30.4895 579.075,-20.328"/>
<polygon fill="midnightblue" stroke="midnightblue" points="842.494,-62.988 852.9,-60.9951 843.523,-56.0639 842.494,-62.988"/>
</g>
<!-- Node9 -->
<g id="node17" class="node"><title>Node9</title>
<a xlink:href="asynchronousfileloadingworkunit_8cpp.html" target="_top" xlink:title="The implemtation of the AsynchronousFileLoadWorkUnit a workunit that loads a listing of files asynchr...">
<polygon fill="white" stroke="black" points="837,-1 837,-23 1017,-23 1017,-1 837,-1"/>
<text text-anchor="middle" x="927" y="-10" font-family="FreeSans" font-size="10.00">asynchronousfileloadingworkunit.cpp</text>
</a>
</g>
<!-- Node8&#45;&gt;Node9 -->
<g id="edge16" class="edge"><title>Node8&#45;&gt;Node9</title>
<path fill="none" stroke="midnightblue" d="M927,-50.9183C927,-41.6393 927,-31.1082 927,-23.3428"/>
<polygon fill="midnightblue" stroke="midnightblue" points="923.5,-50.995 927,-60.9951 930.5,-50.9951 923.5,-50.995"/>
</g>
<!-- Node11&#45;&gt;Node4 -->
<g id="edge26" class="edge"><title>Node11&#45;&gt;Node4</title>
<path fill="none" stroke="midnightblue" d="M482.615,-116.666C455.598,-103.864 427.302,-83.8905 441,-60 451.092,-42.3982 470.416,-30.6298 487.771,-23.1527"/>
<polygon fill="midnightblue" stroke="midnightblue" points="481.49,-119.997 492.047,-120.89 484.351,-113.609 481.49,-119.997"/>
</g>
<!-- Node12 -->
<g id="node26" class="node"><title>Node12</title>
<a xlink:href="frameschedulerworkunits_8cpp.html" target="_top" xlink:title="The implementation of any workunits the framescheduler needs to work correctly.">
<polygon fill="white" stroke="black" points="450,-61 450,-83 596,-83 596,-61 450,-61"/>
<text text-anchor="middle" x="523" y="-70" font-family="FreeSans" font-size="10.00">frameschedulerworkunits.cpp</text>
</a>
</g>
<!-- Node11&#45;&gt;Node12 -->
<g id="edge28" class="edge"><title>Node11&#45;&gt;Node12</title>
<path fill="none" stroke="midnightblue" d="M523,-110.918C523,-101.639 523,-91.1082 523,-83.3428"/>
<polygon fill="midnightblue" stroke="midnightblue" points="519.5,-110.995 523,-120.995 526.5,-110.995 519.5,-110.995"/>
</g>
<!-- Node13&#45;&gt;Node4 -->
<g id="edge32" class="edge"><title>Node13&#45;&gt;Node4</title>
<path fill="none" stroke="midnightblue" d="M369.394,-113.938C385.601,-98.5541 410.262,-76.4001 434,-60 454.943,-45.5308 480.714,-32.0533 499.125,-23.0861"/>
<polygon fill="midnightblue" stroke="midnightblue" points="366.943,-111.439 362.158,-120.892 371.794,-116.486 366.943,-111.439"/>
</g>
<!-- Node13&#45;&gt;Node14 -->
<g id="edge34" class="edge"><title>Node13&#45;&gt;Node14</title>
<path fill="none" stroke="midnightblue" d="M315.256,-117.003C290.209,-106.493 257.278,-92.676 234.546,-83.1383"/>
<polygon fill="midnightblue" stroke="midnightblue" points="314.196,-120.353 324.772,-120.995 316.905,-113.899 314.196,-120.353"/>
</g>
<!-- Node15 -->
<g id="node33" class="node"><title>Node15</title>
<a xlink:href="monopoly_8cpp.html" target="_top" xlink:title="Contains the minimal implementation for the monopoly base class.">
<polygon fill="white" stroke="black" points="277.5,-61 277.5,-83 356.5,-83 356.5,-61 277.5,-61"/>
<text text-anchor="middle" x="317" y="-70" font-family="FreeSans" font-size="10.00">monopoly.cpp</text>
</a>
</g>
<!-- Node13&#45;&gt;Node15 -->
<g id="edge36" class="edge"><title>Node13&#45;&gt;Node15</title>
<path fill="none" stroke="midnightblue" d="M339.735,-112.121C334.317,-102.56 328.019,-91.4459 323.428,-83.3428"/>
<polygon fill="midnightblue" stroke="midnightblue" points="336.789,-114.02 344.764,-120.995 342.879,-110.569 336.789,-114.02"/>
</g>
</g>
</svg>
        <g id="navigator" transform="translate(0 0)" fill="#404254">
                <rect fill="#f2f5e9" fill-opacity="0.5" stroke="#606060" stroke-width=".5" x="0" y="0" width="60" height="60"/>
                <use id="zoomplus" xlink:href="#zoomPlus" x="17" y="9" onmousedown="handleZoom(evt,'in')"/>
                <use id="zoomminus" xlink:href="#zoomMin" x="42" y="9" onmousedown="handleZoom(evt,'out')"/>
                <use id="reset" xlink:href="#resetDef" x="30" y="36" onmousedown="handleReset()"/>
                <g id="arrowUp" xlink:href="#dirArrow" transform="translate(30 24)" onmousedown="handlePan(0,-1)">
                  <use xlink:href="#rim" fill="#404040">
                        <set attributeName="fill" to="#808080" begin="arrowUp.mouseover" end="arrowUp.mouseout"/>
                  </use>
                  <path fill="none" stroke="white" stroke-width="1.5" d="M0,-3.0v7 M-2.5,-0.5L0,-3.0L2.5,-0.5"/>
                </g>
                <g id="arrowRight" xlink:href="#dirArrow" transform="rotate(90) translate(36 -43)" onmousedown="handlePan(1,0)">
                  <use xlink:href="#rim" fill="#404040">
                        <set attributeName="fill" to="#808080" begin="arrowRight.mouseover" end="arrowRight.mouseout"/>
                  </use>
                  <path fill="none" stroke="white" stroke-width="1.5" d="M0,-3.0v7 M-2.5,-0.5L0,-3.0L2.5,-0.5"/>
                </g>
                <g id="arrowDown" xlink:href="#dirArrow" transform="rotate(180) translate(-30 -48)" onmousedown="handlePan(0,1)">
                  <use xlink:href="#rim" fill="#404040">
                        <set attributeName="fill" to="#808080" begin="arrowDown.mouseover" end="arrowDown.mouseout"/>
                  </use>
                  <path fill="none" stroke="white" stroke-width="1.5" d="M0,-3.0v7 M-2.5,-0.5L0,-3.0L2.5,-0.5"/>
                </g>
                <g id="arrowLeft" xlink:href="#dirArrow" transform="rotate(270) translate(-36 17)" onmousedown="handlePan(-1,0)">
                  <use xlink:href="#rim" fill="#404040">
                        <set attributeName="fill" to="#808080" begin="arrowLeft.mouseover" end="arrowLeft.mouseout"/>
                  </use>
                  <path fill="none" stroke="white" stroke-width="1.5" d="M0,-3.0v7 M-2.5,-0.5L0,-3.0L2.5,-0.5"/>
                </g>
        </g>
</svg>
