<?xml version="1.0" encoding="UTF-8" standalone="no"?>
<!DOCTYPE svg PUBLIC "-//W3C//DTD SVG 1.1//EN"
 "http://www.w3.org/Graphics/SVG/1.1/DTD/svg11.dtd">
<!-- Generated by graphviz version 2.26.3 (20100126.1600)
 -->
<!-- Title: atomicoperations.h Pages: 1 -->
<!--zoomable 436 -->
<svg id="main" version="1.1" xmlns="http://www.w3.org/2000/svg" xmlns:xlink="http://www.w3.org/1999/xlink" xml:space="preserve" onload="init(evt)">
        <defs>
                <circle id="rim" cx="0" cy="0" r="7"/>
                <circle id="rim2" cx="0" cy="0" r="3.5"/>
                <g id="zoomPlus">
                        <use xlink:href="#rim" fill="#404040">
                                <set attributeName="fill" to="#808080" begin="zoomplus.mouseover" end="zoomplus.mouseout"/>
                        </use>
                        <path d="M-4,0h8M0,-4v8" fill="none" stroke="white" stroke-width="1.5" pointer-events="none"/>
                </g>
                <g id="zoomMin">
                        <use xlink:href="#rim" fill="#404040">
                                <set attributeName="fill" to="#808080" begin="zoomminus.mouseover" end="zoomminus.mouseout"/>
                        </use>
                        <path d="M-4,0h8" fill="none" stroke="white" stroke-width="1.5" pointer-events="none"/>
                </g>
                <g id="dirArrow">
                        <path fill="none" stroke="white" stroke-width="1.5" d="M0,-3.0v7 M-2.5,-0.5L0,-3.0L2.5,-0.5"/>
                </g>
               <g id="resetDef">
                       <use xlink:href="#rim2" fill="#404040">
                               <set attributeName="fill" to="#808080" begin="reset.mouseover" end="reset.mouseout"/>
                       </use>
               </g>
        </defs>

<script type="text/javascript">
var viewWidth = 1074;
var viewHeight = 436;
var sectionId = 'dynsection-1';
</script>
<script xlink:href="svgpan.js"/>
<svg id="graph" class="graph">
<g id="viewport">
<title>atomicoperations.h</title>
<polygon fill="white" stroke="white" points="-4,5 -4,-432 1071,-432 1071,5 -4,5"/>
<!-- Node1 -->
<g id="node1" class="node"><title>Node1</title>
<polygon fill="#bfbfbf" stroke="black" points="424,-407 424,-427 522,-427 522,-407 424,-407"/>
<text text-anchor="middle" x="473" y="-414" font-family="FreeSans" font-size="10.00">atomicoperations.h</text>
</g>
<!-- Node2 -->
<g id="node3" class="node"><title>Node2</title>
<a xlink:href="mutex_8h.html" target="_top" xlink:title="This file declares and defines a mutex that is a partial implementation.">
<polygon fill="white" stroke="black" points="766,-349 766,-369 816,-369 816,-349 766,-349"/>
<text text-anchor="middle" x="791" y="-356" font-family="FreeSans" font-size="10.00">mutex.h</text>
</a>
</g>
<!-- Node1&#45;&gt;Node2 -->
<g id="edge2" class="edge"><title>Node1&#45;&gt;Node2</title>
<path fill="none" stroke="midnightblue" d="M532.343,-406.176C602.362,-393.406 715.582,-372.755 765.72,-363.611"/>
<polygon fill="midnightblue" stroke="midnightblue" points="531.548,-402.764 522.339,-408.001 532.804,-409.65 531.548,-402.764"/>
</g>
<!-- Node8 -->
<g id="node15" class="node"><title>Node8</title>
<a xlink:href="asynchronousfileloadingworkunit_8cpp.html" target="_top" xlink:title="The implementation of the AsynchronousFileLoadWorkUnit a workunit that loads a listing of files async...">
<polygon fill="white" stroke="black" points="205,-1 205,-21 377,-21 377,-1 205,-1"/>
<text text-anchor="middle" x="291" y="-8" font-family="FreeSans" font-size="10.00">asynchronousfileloadingworkunit.cpp</text>
</a>
</g>
<!-- Node1&#45;&gt;Node8 -->
<g id="edge66" class="edge"><title>Node1&#45;&gt;Node8</title>
<path fill="none" stroke="midnightblue" d="M413.384,-414.835C286.252,-408.594 0,-385.193 0,-301 0,-301 0,-301 0,-127 0,-89.3873 17.3859,-78.378 49,-58 74.541,-41.5366 146.206,-28.8764 204.967,-20.8657"/>
<polygon fill="midnightblue" stroke="midnightblue" points="413.566,-418.347 423.719,-415.322 413.895,-411.355 413.566,-418.347"/>
</g>
<!-- Node9 -->
<g id="node17" class="node"><title>Node9</title>
<a xlink:href="dagframescheduler_8h.html" target="_top" xlink:title="This is the file that code using this library should include. It includes all the required components...">
<polygon fill="white" stroke="black" points="631,-1 631,-21 737,-21 737,-1 631,-1"/>
<text text-anchor="middle" x="684" y="-8" font-family="FreeSans" font-size="10.00">dagframescheduler.h</text>
</a>
</g>
<!-- Node1&#45;&gt;Node9 -->
<g id="edge68" class="edge"><title>Node1&#45;&gt;Node9</title>
<path fill="none" stroke="midnightblue" d="M532.422,-415.151C614.246,-411.517 765.714,-400.871 891,-370 972.177,-349.998 1066,-384.605 1066,-301 1066,-301 1066,-301 1066,-127 1066,-59.0764 842.079,-27.1638 737.115,-15.9358"/>
<polygon fill="midnightblue" stroke="midnightblue" points="532.155,-411.659 522.312,-415.58 532.452,-418.653 532.155,-411.659"/>
</g>
<!-- Node12 -->
<g id="node25" class="node"><title>Node12</title>
<a xlink:href="framescheduler_8cpp.html" target="_top" xlink:title="This is the core object implementation for this algorithm.">
<polygon fill="white" stroke="black" points="103.5,-59 103.5,-79 204.5,-79 204.5,-59 103.5,-59"/>
<text text-anchor="middle" x="154" y="-66" font-family="FreeSans" font-size="10.00">framescheduler.cpp</text>
</a>
</g>
<!-- Node1&#45;&gt;Node12 -->
<g id="edge70" class="edge"><title>Node1&#45;&gt;Node12</title>
<path fill="none" stroke="midnightblue" d="M420.627,-404.204C352.048,-384.477 233.777,-339.621 176,-254 138.007,-197.697 147.542,-109.277 152.196,-79.3193"/>
<polygon fill="midnightblue" stroke="midnightblue" points="419.799,-407.607 430.372,-406.935 421.687,-400.866 419.799,-407.607"/>
</g>
<!-- Node16 -->
<g id="node36" class="node"><title>Node16</title>
<a xlink:href="workunit_8cpp.html" target="_top" xlink:title="This file has the implementation of the Mezzanine::Threading::DefaultWorkUnit.">
<polygon fill="white" stroke="black" points="899.5,-117 899.5,-137 970.5,-137 970.5,-117 899.5,-117"/>
<text text-anchor="middle" x="935" y="-124" font-family="FreeSans" font-size="10.00">workunit.cpp</text>
</a>
</g>
<!-- Node1&#45;&gt;Node16 -->
<g id="edge72" class="edge"><title>Node1&#45;&gt;Node16</title>
<path fill="none" stroke="midnightblue" d="M532.611,-410.776C675.924,-395.012 1028,-351.177 1028,-301 1028,-301 1028,-301 1028,-243 1028,-194.731 978.377,-155.084 951.627,-137.219"/>
<polygon fill="midnightblue" stroke="midnightblue" points="531.814,-407.342 522.253,-411.907 532.573,-414.301 531.814,-407.342"/>
</g>
<!-- Node19 -->
<g id="node48" class="node"><title>Node19</title>
<a xlink:href="barrier_8h.html" target="_top" xlink:title="The declaration of the Mezzanine::Threading::Barrier Barrier synchronization primitive.">
<polygon fill="white" stroke="black" points="74.5,-291 74.5,-311 125.5,-311 125.5,-291 74.5,-291"/>
<text text-anchor="middle" x="100" y="-298" font-family="FreeSans" font-size="10.00">barrier.h</text>
</a>
</g>
<!-- Node1&#45;&gt;Node19 -->
<g id="edge58" class="edge"><title>Node1&#45;&gt;Node19</title>
<path fill="none" stroke="midnightblue" d="M413.663,-414.596C330.753,-410.236 185.504,-398.66 142,-370 120.569,-355.881 108.316,-326.689 103.07,-311.188"/>
<polygon fill="midnightblue" stroke="midnightblue" points="413.536,-418.094 423.701,-415.104 413.891,-411.102 413.536,-418.094"/>
</g>
<!-- Node3 -->
<g id="node5" class="node"><title>Node3</title>
<a xlink:href="thread_8h.html" target="_top" xlink:title="This file defines a minimalistic cross&#45;platform thread that the scheduler uses to schedule tasks...">
<polygon fill="white" stroke="black" points="765.5,-291 765.5,-311 816.5,-311 816.5,-291 765.5,-291"/>
<text text-anchor="middle" x="791" y="-298" font-family="FreeSans" font-size="10.00">thread.h</text>
</a>
</g>
<!-- Node2&#45;&gt;Node3 -->
<g id="edge4" class="edge"><title>Node2&#45;&gt;Node3</title>
<path fill="none" stroke="midnightblue" d="M791,-338.89C791,-329.62 791,-319.008 791,-311.378"/>
<polygon fill="midnightblue" stroke="midnightblue" points="787.5,-338.897 791,-348.897 794.5,-338.897 787.5,-338.897"/>
</g>
<!-- Node5 -->
<g id="node9" class="node"><title>Node5</title>
<a xlink:href="workunit_8h.html" target="_top" xlink:title="This file has the definition of the workunit.">
<polygon fill="white" stroke="black" points="708,-175 708,-195 768,-195 768,-175 708,-175"/>
<text text-anchor="middle" x="738" y="-182" font-family="FreeSans" font-size="10.00">workunit.h</text>
</a>
</g>
<!-- Node2&#45;&gt;Node5 -->
<g id="edge52" class="edge"><title>Node2&#45;&gt;Node5</title>
<path fill="none" stroke="midnightblue" d="M774.755,-340.881C768.217,-332.622 761.235,-322.381 757,-312 740.325,-271.129 738.078,-217.508 737.916,-195.309"/>
<polygon fill="midnightblue" stroke="midnightblue" points="772.18,-343.258 781.275,-348.693 777.555,-338.773 772.18,-343.258"/>
</g>
<!-- Node2&#45;&gt;Node9 -->
<g id="edge54" class="edge"><title>Node2&#45;&gt;Node9</title>
<path fill="none" stroke="midnightblue" d="M825.713,-347.59C848.543,-339.338 878.597,-327.021 903,-312 936.828,-291.178 953.126,-289.474 971,-254 998.644,-199.135 998.588,-174.23 979,-116 968.684,-85.3326 962.526,-75.0073 935,-58 902.612,-37.9885 800.706,-23.6734 737.139,-16.4186"/>
<polygon fill="midnightblue" stroke="midnightblue" points="824.361,-344.355 816.094,-350.981 826.689,-350.957 824.361,-344.355"/>
</g>
<!-- Node18 -->
<g id="node46" class="node"><title>Node18</title>
<a xlink:href="mutex_8cpp.html" target="_top" xlink:title="Contains the implementation for the Mezzanine::Threading::Mutex Mutex synchronization object...">
<polygon fill="white" stroke="black" points="833.5,-291 833.5,-311 894.5,-311 894.5,-291 833.5,-291"/>
<text text-anchor="middle" x="864" y="-298" font-family="FreeSans" font-size="10.00">mutex.cpp</text>
</a>
</g>
<!-- Node2&#45;&gt;Node18 -->
<g id="edge56" class="edge"><title>Node2&#45;&gt;Node18</title>
<path fill="none" stroke="midnightblue" d="M811.843,-342.44C824.43,-332.439 840.082,-320.004 850.939,-311.378"/>
<polygon fill="midnightblue" stroke="midnightblue" points="809.368,-339.936 803.716,-348.897 813.722,-345.417 809.368,-339.936"/>
</g>
<!-- Node4 -->
<g id="node7" class="node"><title>Node4</title>
<a xlink:href="framescheduler_8h.html" target="_top" xlink:title="This file has the Declarations for the main FrameScheduler class.">
<polygon fill="white" stroke="black" points="185,-233 185,-253 275,-253 275,-233 185,-233"/>
<text text-anchor="middle" x="230" y="-240" font-family="FreeSans" font-size="10.00">framescheduler.h</text>
</a>
</g>
<!-- Node3&#45;&gt;Node4 -->
<g id="edge6" class="edge"><title>Node3&#45;&gt;Node4</title>
<path fill="none" stroke="midnightblue" d="M755.447,-297.324C657.497,-287.198 383.823,-258.903 275.232,-247.676"/>
<polygon fill="midnightblue" stroke="midnightblue" points="755.13,-300.81 765.437,-298.357 755.85,-293.847 755.13,-300.81"/>
</g>
<!-- Node3&#45;&gt;Node5 -->
<g id="edge46" class="edge"><title>Node3&#45;&gt;Node5</title>
<path fill="none" stroke="midnightblue" d="M782.088,-281.493C770.699,-256.568 751.411,-214.352 742.617,-195.106"/>
<polygon fill="midnightblue" stroke="midnightblue" points="778.957,-283.065 786.297,-290.706 785.324,-280.156 778.957,-283.065"/>
</g>
<!-- Node3&#45;&gt;Node9 -->
<g id="edge48" class="edge"><title>Node3&#45;&gt;Node9</title>
<path fill="none" stroke="midnightblue" d="M800.345,-281.217C816.945,-246.694 853.382,-173.631 891,-116 906.646,-92.0301 937.148,-80.1365 919,-58 896.447,-30.4894 799.17,-18.7607 737.059,-14.005"/>
<polygon fill="midnightblue" stroke="midnightblue" points="796.999,-280.102 795.851,-290.634 803.316,-283.117 796.999,-280.102"/>
</g>
<!-- Node17 -->
<g id="node42" class="node"><title>Node17</title>
<a xlink:href="thread_8cpp.html" target="_top" xlink:title="This file implements a minimalistic cross&#45;platform thread that the scheduler uses to schedule tasks...">
<polygon fill="white" stroke="black" points="900,-233 900,-253 962,-253 962,-233 900,-233"/>
<text text-anchor="middle" x="931" y="-240" font-family="FreeSans" font-size="10.00">thread.cpp</text>
</a>
</g>
<!-- Node3&#45;&gt;Node17 -->
<g id="edge50" class="edge"><title>Node3&#45;&gt;Node17</title>
<path fill="none" stroke="midnightblue" d="M824.91,-286.952C850.078,-276.525 883.814,-262.548 906.424,-253.182"/>
<polygon fill="midnightblue" stroke="midnightblue" points="823.285,-283.836 815.386,-290.897 825.964,-290.303 823.285,-283.836"/>
</g>
<!-- Node4&#45;&gt;Node5 -->
<g id="edge8" class="edge"><title>Node4&#45;&gt;Node5</title>
<path fill="none" stroke="midnightblue" d="M285.031,-236.717C391.997,-224.504 624.744,-197.931 707.799,-188.448"/>
<polygon fill="midnightblue" stroke="midnightblue" points="284.62,-233.241 275.082,-237.853 285.414,-240.196 284.62,-233.241"/>
</g>
<!-- Node4&#45;&gt;Node9 -->
<g id="edge42" class="edge"><title>Node4&#45;&gt;Node9</title>
<path fill="none" stroke="midnightblue" d="M203.835,-227.538C151.151,-194.584 41.6913,-115.732 95,-58 113.061,-38.4401 489.257,-19.6922 630.788,-13.3052"/>
<polygon fill="midnightblue" stroke="midnightblue" points="202.31,-230.71 212.662,-232.963 205.975,-224.746 202.31,-230.71"/>
</g>
<!-- Node4&#45;&gt;Node12 -->
<g id="edge44" class="edge"><title>Node4&#45;&gt;Node12</title>
<path fill="none" stroke="midnightblue" d="M230.062,-222.441C229.295,-196.136 225.033,-149.922 206,-116 197.425,-100.718 182.044,-87.7572 170.227,-79.3415"/>
<polygon fill="midnightblue" stroke="midnightblue" points="226.566,-222.759 230.21,-232.707 233.566,-222.658 226.566,-222.759"/>
</g>
<!-- Node6 -->
<g id="node11" class="node"><title>Node6</title>
<a xlink:href="asynchronousworkunit_8h.html" target="_top" xlink:title="Contains an interface for a kind of WorkUnit that loads or does other work even when the frame schedu...">
<polygon fill="white" stroke="black" points="678.5,-117 678.5,-137 797.5,-137 797.5,-117 678.5,-117"/>
<text text-anchor="middle" x="738" y="-124" font-family="FreeSans" font-size="10.00">asynchronousworkunit.h</text>
</a>
</g>
<!-- Node5&#45;&gt;Node6 -->
<g id="edge10" class="edge"><title>Node5&#45;&gt;Node6</title>
<path fill="none" stroke="midnightblue" d="M738,-164.89C738,-155.62 738,-145.008 738,-137.378"/>
<polygon fill="midnightblue" stroke="midnightblue" points="734.5,-164.897 738,-174.897 741.5,-164.897 734.5,-164.897"/>
</g>
<!-- Node5&#45;&gt;Node9 -->
<g id="edge38" class="edge"><title>Node5&#45;&gt;Node9</title>
<path fill="none" stroke="midnightblue" d="M764.697,-169.91C809.402,-144.371 895.297,-94.0329 903,-80 907.705,-71.4287 909.146,-65.6048 903,-58 882.529,-32.6702 795.092,-20.3659 737.083,-14.8858"/>
<polygon fill="midnightblue" stroke="midnightblue" points="762.784,-166.972 755.826,-174.962 766.248,-173.055 762.784,-166.972"/>
</g>
<!-- Node11 -->
<g id="node22" class="node"><title>Node11</title>
<a xlink:href="frameschedulerworkunits_8h.html" target="_top" xlink:title="This defines a number of workunits that are required for doing some tasks that the Framescheduler req...">
<polygon fill="white" stroke="black" points="291.5,-117 291.5,-137 422.5,-137 422.5,-117 291.5,-117"/>
<text text-anchor="middle" x="357" y="-124" font-family="FreeSans" font-size="10.00">frameschedulerworkunits.h</text>
</a>
</g>
<!-- Node5&#45;&gt;Node11 -->
<g id="edge22" class="edge"><title>Node5&#45;&gt;Node11</title>
<path fill="none" stroke="midnightblue" d="M697.847,-178.887C632.339,-168.915 501.856,-149.052 422.703,-137.002"/>
<polygon fill="midnightblue" stroke="midnightblue" points="697.372,-182.355 707.785,-180.4 698.426,-175.435 697.372,-182.355"/>
</g>
<!-- Node14 -->
<g id="node29" class="node"><title>Node14</title>
<a xlink:href="monopoly_8h.html" target="_top" xlink:title="Contains an interface for a kind of WorkUnit that consumes time on multiple thread.">
<polygon fill="white" stroke="black" points="481.5,-117 481.5,-137 546.5,-137 546.5,-117 481.5,-117"/>
<text text-anchor="middle" x="514" y="-124" font-family="FreeSans" font-size="10.00">monopoly.h</text>
</a>
</g>
<!-- Node5&#45;&gt;Node14 -->
<g id="edge30" class="edge"><title>Node5&#45;&gt;Node14</title>
<path fill="none" stroke="midnightblue" d="M697.9,-174.617C654.678,-163.425 586.709,-145.826 546.631,-135.449"/>
<polygon fill="midnightblue" stroke="midnightblue" points="697.232,-178.059 707.79,-177.178 698.987,-171.283 697.232,-178.059"/>
</g>
<!-- Node5&#45;&gt;Node16 -->
<g id="edge40" class="edge"><title>Node5&#45;&gt;Node16</title>
<path fill="none" stroke="midnightblue" d="M778.082,-173.199C814.234,-162.555 866.827,-147.071 900.977,-137.017"/>
<polygon fill="midnightblue" stroke="midnightblue" points="776.954,-169.883 768.35,-176.065 778.931,-176.598 776.954,-169.883"/>
</g>
<!-- Node7 -->
<g id="node13" class="node"><title>Node7</title>
<a xlink:href="asynchronousfileloadingworkunit_8h.html" target="_top" xlink:title="The declaration of the AsynchronousFileLoadWorkUnit a workunit that loads a listing of files asynchro...">
<polygon fill="white" stroke="black" points="549.5,-59 549.5,-79 710.5,-79 710.5,-59 549.5,-59"/>
<text text-anchor="middle" x="630" y="-66" font-family="FreeSans" font-size="10.00">asynchronousfileloadingworkunit.h</text>
</a>
</g>
<!-- Node6&#45;&gt;Node7 -->
<g id="edge12" class="edge"><title>Node6&#45;&gt;Node7</title>
<path fill="none" stroke="midnightblue" d="M710.281,-112.114C691.05,-101.786 665.937,-88.2996 648.959,-79.1817"/>
<polygon fill="midnightblue" stroke="midnightblue" points="708.722,-115.249 719.188,-116.897 712.034,-109.082 708.722,-115.249"/>
</g>
<!-- Node6&#45;&gt;Node9 -->
<g id="edge20" class="edge"><title>Node6&#45;&gt;Node9</title>
<path fill="none" stroke="midnightblue" d="M734.464,-106.622C731.522,-92.4927 726.574,-73.5043 719,-58 712.213,-44.1052 701.146,-30.1411 693.275,-21.0885"/>
<polygon fill="midnightblue" stroke="midnightblue" points="731.086,-107.591 736.405,-116.753 737.961,-106.273 731.086,-107.591"/>
</g>
<!-- Node10 -->
<g id="node19" class="node"><title>Node10</title>
<a xlink:href="asynchronousworkunit_8cpp.html" target="_top" xlink:title="Contains very little actually.">
<polygon fill="white" stroke="black" points="765.5,-59 765.5,-79 894.5,-79 894.5,-59 765.5,-59"/>
<text text-anchor="middle" x="830" y="-66" font-family="FreeSans" font-size="10.00">asynchronousworkunit.cpp</text>
</a>
</g>
<!-- Node6&#45;&gt;Node10 -->
<g id="edge18" class="edge"><title>Node6&#45;&gt;Node10</title>
<path fill="none" stroke="midnightblue" d="M762.511,-111.547C778.77,-101.297 799.65,-88.1339 813.85,-79.1817"/>
<polygon fill="midnightblue" stroke="midnightblue" points="760.618,-108.603 754.025,-116.897 764.351,-114.525 760.618,-108.603"/>
</g>
<!-- Node7&#45;&gt;Node8 -->
<g id="edge14" class="edge"><title>Node7&#45;&gt;Node8</title>
<path fill="none" stroke="midnightblue" d="M561.219,-57.2322C498.988,-46.585 408.337,-31.0753 349.511,-21.0108"/>
<polygon fill="midnightblue" stroke="midnightblue" points="560.891,-60.7268 571.338,-58.9634 562.071,-53.827 560.891,-60.7268"/>
</g>
<!-- Node7&#45;&gt;Node9 -->
<g id="edge16" class="edge"><title>Node7&#45;&gt;Node9</title>
<path fill="none" stroke="midnightblue" d="M646.23,-51.5682C655.394,-41.7249 666.539,-29.7548 674.338,-21.3776"/>
<polygon fill="midnightblue" stroke="midnightblue" points="643.659,-49.1932 639.406,-58.8972 648.782,-53.9632 643.659,-49.1932"/>
</g>
<!-- Node11&#45;&gt;Node9 -->
<g id="edge24" class="edge"><title>Node11&#45;&gt;Node9</title>
<path fill="none" stroke="midnightblue" d="M366.21,-107.819C374.935,-91.8309 389.586,-69.826 409,-58 445.401,-35.8259 561.731,-21.9264 630.883,-15.4046"/>
<polygon fill="midnightblue" stroke="midnightblue" points="363.025,-106.359 361.555,-116.851 369.247,-109.566 363.025,-106.359"/>
</g>
<!-- Node11&#45;&gt;Node12 -->
<g id="edge26" class="edge"><title>Node11&#45;&gt;Node12</title>
<path fill="none" stroke="midnightblue" d="M311.626,-114.036C274.667,-103.476 223.226,-88.7788 189.295,-79.0842"/>
<polygon fill="midnightblue" stroke="midnightblue" points="311.063,-117.515 321.64,-116.897 312.986,-110.785 311.063,-117.515"/>
</g>
<!-- Node13 -->
<g id="node27" class="node"><title>Node13</title>
<a xlink:href="frameschedulerworkunits_8cpp.html" target="_top" xlink:title="The implementation of any workunits the framescheduler needs to work correctly.">
<polygon fill="white" stroke="black" points="221.5,-59 221.5,-79 362.5,-79 362.5,-59 221.5,-59"/>
<text text-anchor="middle" x="292" y="-66" font-family="FreeSans" font-size="10.00">frameschedulerworkunits.cpp</text>
</a>
</g>
<!-- Node11&#45;&gt;Node13 -->
<g id="edge28" class="edge"><title>Node11&#45;&gt;Node13</title>
<path fill="none" stroke="midnightblue" d="M338.117,-110.15C326.966,-100.2 313.204,-87.9207 303.63,-79.3776"/>
<polygon fill="midnightblue" stroke="midnightblue" points="335.886,-112.851 345.678,-116.897 340.547,-107.628 335.886,-112.851"/>
</g>
<!-- Node14&#45;&gt;Node9 -->
<g id="edge32" class="edge"><title>Node14&#45;&gt;Node9</title>
<path fill="none" stroke="midnightblue" d="M517.195,-106.513C520.603,-91.2083 527.465,-70.8047 541,-58 565.299,-35.0118 601.049,-23.2618 630.724,-17.2589"/>
<polygon fill="midnightblue" stroke="midnightblue" points="513.712,-106.096 515.279,-116.574 520.588,-107.406 513.712,-106.096"/>
</g>
<!-- Node14&#45;&gt;Node12 -->
<g id="edge34" class="edge"><title>Node14&#45;&gt;Node12</title>
<path fill="none" stroke="midnightblue" d="M471.474,-120.763C413.114,-112.111 304.964,-95.7493 213,-80 210.227,-79.5251 207.383,-79.0281 204.513,-78.5188"/>
<polygon fill="midnightblue" stroke="midnightblue" points="471.029,-124.235 481.433,-122.236 472.053,-117.31 471.029,-124.235"/>
</g>
<!-- Node15 -->
<g id="node33" class="node"><title>Node15</title>
<a xlink:href="monopoly_8cpp.html" target="_top" xlink:title="Contains the minimal implementation for the monopoly base class.">
<polygon fill="white" stroke="black" points="418,-59 418,-79 494,-79 494,-59 418,-59"/>
<text text-anchor="middle" x="456" y="-66" font-family="FreeSans" font-size="10.00">monopoly.cpp</text>
</a>
</g>
<!-- Node14&#45;&gt;Node15 -->
<g id="edge36" class="edge"><title>Node14&#45;&gt;Node15</title>
<path fill="none" stroke="midnightblue" d="M496.568,-109.568C486.725,-99.7249 474.755,-87.7548 466.378,-79.3776"/>
<polygon fill="midnightblue" stroke="midnightblue" points="494.351,-112.301 503.897,-116.897 499.301,-107.351 494.351,-112.301"/>
</g>
<!-- Node19&#45;&gt;Node4 -->
<g id="edge60" class="edge"><title>Node19&#45;&gt;Node4</title>
<path fill="none" stroke="midnightblue" d="M131.798,-286.813C155.135,-276.401 186.278,-262.507 207.179,-253.182"/>
<polygon fill="midnightblue" stroke="midnightblue" points="130.351,-283.626 122.644,-290.897 133.203,-290.019 130.351,-283.626"/>
</g>
<!-- Node19&#45;&gt;Node9 -->
<g id="edge64" class="edge"><title>Node19&#45;&gt;Node9</title>
<path fill="none" stroke="midnightblue" d="M80.8001,-284.029C72.4283,-275.718 63.1431,-265.117 57,-254 41.6154,-226.16 38,-216.808 38,-185 38,-185 38,-185 38,-127 38,-91.328 48.7028,-76.8302 79,-58 125.277,-29.2383 491.846,-16.269 630.828,-12.3506"/>
<polygon fill="midnightblue" stroke="midnightblue" points="78.451,-286.625 88.1153,-290.967 83.2681,-281.546 78.451,-286.625"/>
</g>
<!-- Node20 -->
<g id="node51" class="node"><title>Node20</title>
<a xlink:href="barrier_8cpp.html" target="_top" xlink:title="Contains the implementation for the Mezzanine::Threading::Barrier Barrier synchronization object...">
<polygon fill="white" stroke="black" points="66,-233 66,-253 128,-253 128,-233 66,-233"/>
<text text-anchor="middle" x="97" y="-240" font-family="FreeSans" font-size="10.00">barrier.cpp</text>
</a>
</g>
<!-- Node19&#45;&gt;Node20 -->
<g id="edge62" class="edge"><title>Node19&#45;&gt;Node20</title>
<path fill="none" stroke="midnightblue" d="M98.9598,-280.89C98.4804,-271.62 97.9315,-261.008 97.5368,-253.378"/>
<polygon fill="midnightblue" stroke="midnightblue" points="95.4655,-281.091 99.4774,-290.897 102.456,-280.73 95.4655,-281.091"/>
</g>
</g>
</svg>
        <g id="navigator" transform="translate(0 0)" fill="#404254">
                <rect fill="#f2f5e9" fill-opacity="0.5" stroke="#606060" stroke-width=".5" x="0" y="0" width="60" height="60"/>
                <use id="zoomplus" xlink:href="#zoomPlus" x="17" y="9" onmousedown="handleZoom(evt,'in')"/>
                <use id="zoomminus" xlink:href="#zoomMin" x="42" y="9" onmousedown="handleZoom(evt,'out')"/>
                <use id="reset" xlink:href="#resetDef" x="30" y="36" onmousedown="handleReset()"/>
                <g id="arrowUp" xlink:href="#dirArrow" transform="translate(30 24)" onmousedown="handlePan(0,-1)">
                  <use xlink:href="#rim" fill="#404040">
                        <set attributeName="fill" to="#808080" begin="arrowUp.mouseover" end="arrowUp.mouseout"/>
                  </use>
                  <path fill="none" stroke="white" stroke-width="1.5" d="M0,-3.0v7 M-2.5,-0.5L0,-3.0L2.5,-0.5"/>
                </g>
                <g id="arrowRight" xlink:href="#dirArrow" transform="rotate(90) translate(36 -43)" onmousedown="handlePan(1,0)">
                  <use xlink:href="#rim" fill="#404040">
                        <set attributeName="fill" to="#808080" begin="arrowRight.mouseover" end="arrowRight.mouseout"/>
                  </use>
                  <path fill="none" stroke="white" stroke-width="1.5" d="M0,-3.0v7 M-2.5,-0.5L0,-3.0L2.5,-0.5"/>
                </g>
                <g id="arrowDown" xlink:href="#dirArrow" transform="rotate(180) translate(-30 -48)" onmousedown="handlePan(0,1)">
                  <use xlink:href="#rim" fill="#404040">
                        <set attributeName="fill" to="#808080" begin="arrowDown.mouseover" end="arrowDown.mouseout"/>
                  </use>
                  <path fill="none" stroke="white" stroke-width="1.5" d="M0,-3.0v7 M-2.5,-0.5L0,-3.0L2.5,-0.5"/>
                </g>
                <g id="arrowLeft" xlink:href="#dirArrow" transform="rotate(270) translate(-36 17)" onmousedown="handlePan(-1,0)">
                  <use xlink:href="#rim" fill="#404040">
                        <set attributeName="fill" to="#808080" begin="arrowLeft.mouseover" end="arrowLeft.mouseout"/>
                  </use>
                  <path fill="none" stroke="white" stroke-width="1.5" d="M0,-3.0v7 M-2.5,-0.5L0,-3.0L2.5,-0.5"/>
                </g>
        </g>
        <svg viewBox="0 0 15 15" width="100%" height="30px" preserveAspectRatio="xMaxYMin meet">
         <g id="arrow_out" transform="scale(0.3 0.3)">
          <a xlink:href="atomicoperations_8h__dep__incl_org.svg" target="_base">
           <rect id="button" ry="5" rx="5" y="6" x="6" height="38" width="38"
                fill="#f2f5e9" fill-opacity="0.5" stroke="#606060" stroke-width="1.0"/>
           <path id="arrow"
             d="M 11.500037,31.436501 C 11.940474,20.09759 22.043105,11.32322 32.158766,21.979434 L 37.068811,17.246167 C 37.068811,17.246167 37.088388,32 37.088388,32 L 22.160133,31.978069 C 22.160133,31.978069 26.997745,27.140456 26.997745,27.140456 C 18.528582,18.264221 13.291696,25.230495 11.500037,31.436501 z"
             style="fill:#404040;"/>
          </a>
         </g>
        </svg>
</svg>
