<?xml version="1.0" encoding="UTF-8" standalone="no"?>
<!DOCTYPE svg PUBLIC "-//W3C//DTD SVG 1.1//EN"
 "http://www.w3.org/Graphics/SVG/1.1/DTD/svg11.dtd">
<!-- Generated by graphviz version 2.26.3 (20100126.1600)
 -->
<!-- Title: atomicoperations.cpp Pages: 1 -->
<!--zoomable 146 -->
<svg id="main" version="1.1" xmlns="http://www.w3.org/2000/svg" xmlns:xlink="http://www.w3.org/1999/xlink" xml:space="preserve" onload="init(evt)">
        <defs>
                <circle id="rim" cx="0" cy="0" r="7"/>
                <circle id="rim2" cx="0" cy="0" r="3.5"/>
                <g id="zoomPlus">
                        <use xlink:href="#rim" fill="#404040">
                                <set attributeName="fill" to="#808080" begin="zoomplus.mouseover" end="zoomplus.mouseout"/>
                        </use>
                        <path d="M-4,0h8M0,-4v8" fill="none" stroke="white" stroke-width="1.5" pointer-events="none"/>
                </g>
                <g id="zoomMin">
                        <use xlink:href="#rim" fill="#404040">
                                <set attributeName="fill" to="#808080" begin="zoomminus.mouseover" end="zoomminus.mouseout"/>
                        </use>
                        <path d="M-4,0h8" fill="none" stroke="white" stroke-width="1.5" pointer-events="none"/>
                </g>
                <g id="dirArrow">
                        <path fill="none" stroke="white" stroke-width="1.5" d="M0,-3.0v7 M-2.5,-0.5L0,-3.0L2.5,-0.5"/>
                </g>
               <g id="resetDef">
                       <use xlink:href="#rim2" fill="#404040">
                               <set attributeName="fill" to="#808080" begin="reset.mouseover" end="reset.mouseout"/>
                       </use>
               </g>
        </defs>

<script type="text/javascript">
var viewWidth = 514;
var viewHeight = 146;
var sectionId = 'dynsection-0';
</script>
<script xlink:href="svgpan.js"/>
<svg id="graph" class="graph">
<g id="viewport">
<title>atomicoperations.cpp</title>
<polygon fill="white" stroke="white" points="-4,5 -4,-142 511,-142 511,5 -4,5"/>
<!-- Node1 -->
<g id="node1" class="node"><title>Node1</title>
<polygon fill="#bfbfbf" stroke="black" points="167,-117 167,-137 275,-137 275,-117 167,-117"/>
<text text-anchor="middle" x="221" y="-124" font-family="FreeSans" font-size="10.00">atomicoperations.cpp</text>
</g>
<!-- Node2 -->
<g id="node3" class="node"><title>Node2</title>
<a xlink:href="datatypes_8h.html" target="_top" xlink:title="This file declares a few typedefs to allow flexibility, in case a change is required/desired.">
<polygon fill="white" stroke="black" points="91.5,-59 91.5,-79 156.5,-79 156.5,-59 91.5,-59"/>
<text text-anchor="middle" x="124" y="-66" font-family="FreeSans" font-size="10.00">datatypes.h</text>
</a>
</g>
<!-- Node1&#45;&gt;Node2 -->
<g id="edge2" class="edge"><title>Node1&#45;&gt;Node2</title>
<path fill="none" stroke="midnightblue" d="M204.104,-116.897C189.174,-107.97 167.166,-94.8106 149.994,-84.5431"/>
<polygon fill="midnightblue" stroke="midnightblue" points="151.407,-81.3097 141.028,-79.1817 147.814,-87.3176 151.407,-81.3097"/>
</g>
<!-- Node6 -->
<g id="node11" class="node"><title>Node6</title>
<a xlink:href="crossplatformincludes_8h.html" target="_top" xlink:title="This file determines what features are offered by the compiler that this library can take advantage o...">
<polygon fill="white" stroke="black" points="252.5,-59 252.5,-79 369.5,-79 369.5,-59 252.5,-59"/>
<text text-anchor="middle" x="311" y="-66" font-family="FreeSans" font-size="10.00">crossplatformincludes.h</text>
</a>
</g>
<!-- Node1&#45;&gt;Node6 -->
<g id="edge10" class="edge"><title>Node1&#45;&gt;Node6</title>
<path fill="none" stroke="midnightblue" d="M236.677,-116.897C250.401,-108.052 270.572,-95.0539 286.438,-84.829"/>
<polygon fill="midnightblue" stroke="midnightblue" points="288.691,-87.5407 295.201,-79.1817 284.899,-81.6567 288.691,-87.5407"/>
</g>
<!-- Node3 -->
<g id="node5" class="node"><title>Node3</title>
<a xlink:href="crossplatformexport_8h.html" target="_top" xlink:title="This file determines what features are offered by the compiler that this library can take advantage o...">
<polygon fill="white" stroke="black" points="122,-1 122,-21 230,-21 230,-1 122,-1"/>
<text text-anchor="middle" x="176" y="-8" font-family="FreeSans" font-size="10.00">crossplatformexport.h</text>
</a>
</g>
<!-- Node2&#45;&gt;Node3 -->
<g id="edge4" class="edge"><title>Node2&#45;&gt;Node3</title>
<path fill="none" stroke="midnightblue" d="M133.058,-58.8972C140.423,-50.6818 151.002,-38.8827 159.816,-29.0513"/>
<polygon fill="midnightblue" stroke="midnightblue" points="162.626,-31.1597 166.696,-21.3776 157.414,-26.4869 162.626,-31.1597"/>
</g>
<!-- Node4 -->
<g id="node7" class="node"><title>Node4</title>
<polygon fill="white" stroke="#bfbfbf" points="0,-1 0,-21 40,-21 40,-1 0,-1"/>
<text text-anchor="middle" x="20" y="-8" font-family="FreeSans" font-size="10.00">string</text>
</g>
<!-- Node2&#45;&gt;Node4 -->
<g id="edge6" class="edge"><title>Node2&#45;&gt;Node4</title>
<path fill="none" stroke="midnightblue" d="M105.885,-58.8972C89.6545,-49.8458 65.6241,-36.4442 47.1063,-26.117"/>
<polygon fill="midnightblue" stroke="midnightblue" points="48.6952,-22.9956 38.2568,-21.1817 45.2857,-29.1092 48.6952,-22.9956"/>
</g>
<!-- Node5 -->
<g id="node9" class="node"><title>Node5</title>
<polygon fill="white" stroke="#bfbfbf" points="57.5,-1 57.5,-21 104.5,-21 104.5,-1 57.5,-1"/>
<text text-anchor="middle" x="81" y="-8" font-family="FreeSans" font-size="10.00">stdint.h</text>
</g>
<!-- Node2&#45;&gt;Node5 -->
<g id="edge8" class="edge"><title>Node2&#45;&gt;Node5</title>
<path fill="none" stroke="midnightblue" d="M116.51,-58.8972C110.541,-50.8461 102.02,-39.3532 94.8219,-29.6435"/>
<polygon fill="midnightblue" stroke="midnightblue" points="97.461,-27.3263 88.6937,-21.3776 91.8378,-31.4952 97.461,-27.3263"/>
</g>
<!-- Node6&#45;&gt;Node3 -->
<g id="edge12" class="edge"><title>Node6&#45;&gt;Node3</title>
<path fill="none" stroke="midnightblue" d="M287.485,-58.8972C265.744,-49.5565 233.219,-35.5831 208.904,-25.1363"/>
<polygon fill="midnightblue" stroke="midnightblue" points="210.268,-21.9133 199.699,-21.1817 207.505,-28.3449 210.268,-21.9133"/>
</g>
<!-- Node7 -->
<g id="node14" class="node"><title>Node7</title>
<polygon fill="white" stroke="#bfbfbf" points="248,-1 248,-21 304,-21 304,-1 248,-1"/>
<text text-anchor="middle" x="276" y="-8" font-family="FreeSans" font-size="10.00">pthread.h</text>
</g>
<!-- Node6&#45;&gt;Node7 -->
<g id="edge14" class="edge"><title>Node6&#45;&gt;Node7</title>
<path fill="none" stroke="midnightblue" d="M304.903,-58.8972C300.095,-50.9283 293.251,-39.5874 287.43,-29.9413"/>
<polygon fill="midnightblue" stroke="midnightblue" points="290.426,-28.1311 282.262,-21.3776 284.432,-31.7478 290.426,-28.1311"/>
</g>
<!-- Node8 -->
<g id="node16" class="node"><title>Node8</title>
<polygon fill="white" stroke="#bfbfbf" points="321.5,-1 321.5,-21 370.5,-21 370.5,-1 321.5,-1"/>
<text text-anchor="middle" x="346" y="-8" font-family="FreeSans" font-size="10.00">signal.h</text>
</g>
<!-- Node6&#45;&gt;Node8 -->
<g id="edge16" class="edge"><title>Node6&#45;&gt;Node8</title>
<path fill="none" stroke="midnightblue" d="M317.097,-58.8972C321.905,-50.9283 328.749,-39.5874 334.57,-29.9413"/>
<polygon fill="midnightblue" stroke="midnightblue" points="337.568,-31.7478 339.738,-21.3776 331.574,-28.1311 337.568,-31.7478"/>
</g>
<!-- Node9 -->
<g id="node18" class="node"><title>Node9</title>
<polygon fill="white" stroke="#bfbfbf" points="388,-1 388,-21 438,-21 438,-1 388,-1"/>
<text text-anchor="middle" x="413" y="-8" font-family="FreeSans" font-size="10.00">sched.h</text>
</g>
<!-- Node6&#45;&gt;Node9 -->
<g id="edge18" class="edge"><title>Node6&#45;&gt;Node9</title>
<path fill="none" stroke="midnightblue" d="M328.767,-58.8972C344.612,-49.8871 368.038,-36.5665 386.166,-26.2586"/>
<polygon fill="midnightblue" stroke="midnightblue" points="388.131,-29.1673 395.094,-21.1817 384.671,-23.0822 388.131,-29.1673"/>
</g>
<!-- Node10 -->
<g id="node20" class="node"><title>Node10</title>
<polygon fill="white" stroke="#bfbfbf" points="456,-1 456,-21 506,-21 506,-1 456,-1"/>
<text text-anchor="middle" x="481" y="-8" font-family="FreeSans" font-size="10.00">unistd.h</text>
</g>
<!-- Node6&#45;&gt;Node10 -->
<g id="edge20" class="edge"><title>Node6&#45;&gt;Node10</title>
<path fill="none" stroke="midnightblue" d="M340.612,-58.8972C370.055,-48.852 415.202,-33.4488 446.308,-22.8362"/>
<polygon fill="midnightblue" stroke="midnightblue" points="447.542,-26.1133 455.876,-19.5717 445.281,-19.4883 447.542,-26.1133"/>
</g>
</g>
</svg>
        <g id="navigator" transform="translate(0 0)" fill="#404254">
                <rect fill="#f2f5e9" fill-opacity="0.5" stroke="#606060" stroke-width=".5" x="0" y="0" width="60" height="60"/>
                <use id="zoomplus" xlink:href="#zoomPlus" x="17" y="9" onmousedown="handleZoom(evt,'in')"/>
                <use id="zoomminus" xlink:href="#zoomMin" x="42" y="9" onmousedown="handleZoom(evt,'out')"/>
                <use id="reset" xlink:href="#resetDef" x="30" y="36" onmousedown="handleReset()"/>
                <g id="arrowUp" xlink:href="#dirArrow" transform="translate(30 24)" onmousedown="handlePan(0,-1)">
                  <use xlink:href="#rim" fill="#404040">
                        <set attributeName="fill" to="#808080" begin="arrowUp.mouseover" end="arrowUp.mouseout"/>
                  </use>
                  <path fill="none" stroke="white" stroke-width="1.5" d="M0,-3.0v7 M-2.5,-0.5L0,-3.0L2.5,-0.5"/>
                </g>
                <g id="arrowRight" xlink:href="#dirArrow" transform="rotate(90) translate(36 -43)" onmousedown="handlePan(1,0)">
                  <use xlink:href="#rim" fill="#404040">
                        <set attributeName="fill" to="#808080" begin="arrowRight.mouseover" end="arrowRight.mouseout"/>
                  </use>
                  <path fill="none" stroke="white" stroke-width="1.5" d="M0,-3.0v7 M-2.5,-0.5L0,-3.0L2.5,-0.5"/>
                </g>
                <g id="arrowDown" xlink:href="#dirArrow" transform="rotate(180) translate(-30 -48)" onmousedown="handlePan(0,1)">
                  <use xlink:href="#rim" fill="#404040">
                        <set attributeName="fill" to="#808080" begin="arrowDown.mouseover" end="arrowDown.mouseout"/>
                  </use>
                  <path fill="none" stroke="white" stroke-width="1.5" d="M0,-3.0v7 M-2.5,-0.5L0,-3.0L2.5,-0.5"/>
                </g>
                <g id="arrowLeft" xlink:href="#dirArrow" transform="rotate(270) translate(-36 17)" onmousedown="handlePan(-1,0)">
                  <use xlink:href="#rim" fill="#404040">
                        <set attributeName="fill" to="#808080" begin="arrowLeft.mouseover" end="arrowLeft.mouseout"/>
                  </use>
                  <path fill="none" stroke="white" stroke-width="1.5" d="M0,-3.0v7 M-2.5,-0.5L0,-3.0L2.5,-0.5"/>
                </g>
        </g>
        <svg viewBox="0 0 15 15" width="100%" height="30px" preserveAspectRatio="xMaxYMin meet">
         <g id="arrow_out" transform="scale(0.3 0.3)">
          <a xlink:href="atomicoperations_8cpp__incl_org.svg" target="_base">
           <rect id="button" ry="5" rx="5" y="6" x="6" height="38" width="38"
                fill="#f2f5e9" fill-opacity="0.5" stroke="#606060" stroke-width="1.0"/>
           <path id="arrow"
             d="M 11.500037,31.436501 C 11.940474,20.09759 22.043105,11.32322 32.158766,21.979434 L 37.068811,17.246167 C 37.068811,17.246167 37.088388,32 37.088388,32 L 22.160133,31.978069 C 22.160133,31.978069 26.997745,27.140456 26.997745,27.140456 C 18.528582,18.264221 13.291696,25.230495 11.500037,31.436501 z"
             style="fill:#404040;"/>
          </a>
         </g>
        </svg>
</svg>
