<?xml version="1.0" encoding="UTF-8" standalone="no"?>
<!DOCTYPE svg PUBLIC "-//W3C//DTD SVG 1.1//EN"
 "http://www.w3.org/Graphics/SVG/1.1/DTD/svg11.dtd">
<!-- Generated by graphviz version 2.26.3 (20100126.1600)
 -->
<!-- Title: atomicoperations.cpp Pages: 1 -->
<svg width="403pt" height="204pt"
 viewBox="0.00 0.00 403.00 204.00" xmlns="http://www.w3.org/2000/svg" xmlns:xlink="http://www.w3.org/1999/xlink">
<g id="graph1" class="graph" transform="scale(1 1) rotate(0) translate(4 200)">
<title>atomicoperations.cpp</title>
<polygon fill="white" stroke="white" points="-4,5 -4,-200 400,-200 400,5 -4,5"/>
<!-- Node1 -->
<g id="node1" class="node"><title>Node1</title>
<polygon fill="#bfbfbf" stroke="black" points="152,-175 152,-195 260,-195 260,-175 152,-175"/>
<text text-anchor="middle" x="206" y="-182" font-family="FreeSans" font-size="10.00">atomicoperations.cpp</text>
</g>
<!-- Node2 -->
<g id="node3" class="node"><title>Node2</title>
<a xlink:href="datatypes_8h.html" target="_top" xlink:title="This file declares a few typedefs to allow flexibility, in case a change is required/desired.">
<polygon fill="white" stroke="black" points="254.5,-117 254.5,-137 319.5,-137 319.5,-117 254.5,-117"/>
<text text-anchor="middle" x="287" y="-124" font-family="FreeSans" font-size="10.00">datatypes.h</text>
</a>
</g>
<!-- Node1&#45;&gt;Node2 -->
<g id="edge2" class="edge"><title>Node1&#45;&gt;Node2</title>
<path fill="none" stroke="midnightblue" d="M220.109,-174.897C232.346,-166.135 250.276,-153.297 264.493,-143.116"/>
<polygon fill="midnightblue" stroke="midnightblue" points="266.688,-145.849 272.781,-137.182 262.613,-140.158 266.688,-145.849"/>
</g>
<!-- Node10 -->
<g id="node19" class="node"><title>Node10</title>
<a xlink:href="crossplatformincludes_8h.html" target="_top" xlink:title="This file determines what features are offered by the compiler that this library can take advantage o...">
<polygon fill="white" stroke="black" points="67.5,-117 67.5,-137 184.5,-137 184.5,-117 67.5,-117"/>
<text text-anchor="middle" x="126" y="-124" font-family="FreeSans" font-size="10.00">crossplatformincludes.h</text>
</a>
</g>
<!-- Node1&#45;&gt;Node10 -->
<g id="edge18" class="edge"><title>Node1&#45;&gt;Node10</title>
<path fill="none" stroke="midnightblue" d="M192.065,-174.897C179.979,-166.135 162.271,-153.297 148.23,-143.116"/>
<polygon fill="midnightblue" stroke="midnightblue" points="150.194,-140.218 140.044,-137.182 146.085,-145.885 150.194,-140.218"/>
</g>
<!-- Node3 -->
<g id="node5" class="node"><title>Node3</title>
<a xlink:href="crossplatformexport_8h.html" target="_top" xlink:title="This file determines what features are offered by the compiler that this library can take advantage o...">
<polygon fill="white" stroke="black" points="127,-59 127,-79 235,-79 235,-59 127,-59"/>
<text text-anchor="middle" x="181" y="-66" font-family="FreeSans" font-size="10.00">crossplatformexport.h</text>
</a>
</g>
<!-- Node2&#45;&gt;Node3 -->
<g id="edge4" class="edge"><title>Node2&#45;&gt;Node3</title>
<path fill="none" stroke="midnightblue" d="M268.536,-116.897C251.994,-107.846 227.502,-94.4442 208.628,-84.117"/>
<polygon fill="midnightblue" stroke="midnightblue" points="210.061,-80.9114 199.608,-79.1817 206.7,-87.0522 210.061,-80.9114"/>
</g>
<!-- Node8 -->
<g id="node15" class="node"><title>Node8</title>
<polygon fill="white" stroke="#bfbfbf" points="355,-59 355,-79 395,-79 395,-59 355,-59"/>
<text text-anchor="middle" x="375" y="-66" font-family="FreeSans" font-size="10.00">string</text>
</g>
<!-- Node2&#45;&gt;Node8 -->
<g id="edge14" class="edge"><title>Node2&#45;&gt;Node8</title>
<path fill="none" stroke="midnightblue" d="M302.328,-116.897C315.748,-108.052 335.47,-95.0539 350.984,-84.829"/>
<polygon fill="midnightblue" stroke="midnightblue" points="353.128,-87.6072 359.552,-79.1817 349.276,-81.7625 353.128,-87.6072"/>
</g>
<!-- Node9 -->
<g id="node17" class="node"><title>Node9</title>
<polygon fill="white" stroke="#bfbfbf" points="290.5,-59 290.5,-79 337.5,-79 337.5,-59 290.5,-59"/>
<text text-anchor="middle" x="314" y="-66" font-family="FreeSans" font-size="10.00">stdint.h</text>
</g>
<!-- Node2&#45;&gt;Node9 -->
<g id="edge16" class="edge"><title>Node2&#45;&gt;Node9</title>
<path fill="none" stroke="midnightblue" d="M291.703,-116.897C295.336,-109.093 300.475,-98.0536 304.904,-88.5401"/>
<polygon fill="midnightblue" stroke="midnightblue" points="308.122,-89.9206 309.169,-79.3776 301.776,-86.9663 308.122,-89.9206"/>
</g>
<!-- Node4 -->
<g id="node7" class="node"><title>Node4</title>
<polygon fill="white" stroke="#bfbfbf" points="146,-1 146,-21 202,-21 202,-1 146,-1"/>
<text text-anchor="middle" x="174" y="-8" font-family="FreeSans" font-size="10.00">pthread.h</text>
</g>
<!-- Node3&#45;&gt;Node4 -->
<g id="edge6" class="edge"><title>Node3&#45;&gt;Node4</title>
<path fill="none" stroke="midnightblue" d="M179.781,-58.8972C178.869,-51.339 177.59,-40.7476 176.468,-31.4458"/>
<polygon fill="midnightblue" stroke="midnightblue" points="179.926,-30.8862 175.252,-21.3776 172.976,-31.725 179.926,-30.8862"/>
</g>
<!-- Node5 -->
<g id="node9" class="node"><title>Node5</title>
<polygon fill="white" stroke="#bfbfbf" points="71.5,-1 71.5,-21 120.5,-21 120.5,-1 71.5,-1"/>
<text text-anchor="middle" x="96" y="-8" font-family="FreeSans" font-size="10.00">signal.h</text>
</g>
<!-- Node3&#45;&gt;Node5 -->
<g id="edge8" class="edge"><title>Node3&#45;&gt;Node5</title>
<path fill="none" stroke="midnightblue" d="M166.194,-58.8972C153.232,-50.0524 134.182,-37.0539 119.198,-26.829"/>
<polygon fill="midnightblue" stroke="midnightblue" points="121.154,-23.927 110.921,-21.1817 117.209,-29.7092 121.154,-23.927"/>
</g>
<!-- Node6 -->
<g id="node11" class="node"><title>Node6</title>
<polygon fill="white" stroke="#bfbfbf" points="0,-1 0,-21 50,-21 50,-1 0,-1"/>
<text text-anchor="middle" x="25" y="-8" font-family="FreeSans" font-size="10.00">sched.h</text>
</g>
<!-- Node3&#45;&gt;Node6 -->
<g id="edge10" class="edge"><title>Node3&#45;&gt;Node6</title>
<path fill="none" stroke="midnightblue" d="M153.827,-58.8972C127.667,-49.1712 87.9982,-34.4224 59.5949,-23.8622"/>
<polygon fill="midnightblue" stroke="midnightblue" points="60.6516,-20.521 50.0587,-20.3167 58.2121,-27.0822 60.6516,-20.521"/>
</g>
<!-- Node7 -->
<g id="node13" class="node"><title>Node7</title>
<polygon fill="white" stroke="#bfbfbf" points="236,-1 236,-21 286,-21 286,-1 236,-1"/>
<text text-anchor="middle" x="261" y="-8" font-family="FreeSans" font-size="10.00">unistd.h</text>
</g>
<!-- Node3&#45;&gt;Node7 -->
<g id="edge12" class="edge"><title>Node3&#45;&gt;Node7</title>
<path fill="none" stroke="midnightblue" d="M194.935,-58.8972C207.021,-50.1351 224.729,-37.2965 238.77,-27.1164"/>
<polygon fill="midnightblue" stroke="midnightblue" points="240.915,-29.885 246.956,-21.1817 236.806,-24.2177 240.915,-29.885"/>
</g>
<!-- Node10&#45;&gt;Node3 -->
<g id="edge20" class="edge"><title>Node10&#45;&gt;Node3</title>
<path fill="none" stroke="midnightblue" d="M135.58,-116.897C143.449,-108.6 154.784,-96.6463 164.162,-86.7569"/>
<polygon fill="midnightblue" stroke="midnightblue" points="166.818,-89.0422 171.159,-79.3776 161.739,-84.2255 166.818,-89.0422"/>
</g>
<!-- Node10&#45;&gt;Node4 -->
<g id="edge22" class="edge"><title>Node10&#45;&gt;Node4</title>
<path fill="none" stroke="midnightblue" d="M121.517,-116.632C116.176,-102.636 109.031,-77.2365 118,-58 123.967,-45.2012 135.325,-34.6499 146.261,-26.8099"/>
<polygon fill="midnightblue" stroke="midnightblue" points="148.44,-29.5641 154.829,-21.1126 144.564,-23.735 148.44,-29.5641"/>
</g>
<!-- Node10&#45;&gt;Node5 -->
<g id="edge24" class="edge"><title>Node10&#45;&gt;Node5</title>
<path fill="none" stroke="midnightblue" d="M113.269,-116.975C103.45,-108.37 90.6253,-95.0058 85,-80 79.0281,-64.0696 82.9012,-44.8845 87.6245,-30.7922"/>
<polygon fill="midnightblue" stroke="midnightblue" points="91.0078,-31.7387 91.2532,-21.1467 84.4561,-29.2738 91.0078,-31.7387"/>
</g>
<!-- Node10&#45;&gt;Node6 -->
<g id="edge26" class="edge"><title>Node10&#45;&gt;Node6</title>
<path fill="none" stroke="midnightblue" d="M114.199,-116.666C103.939,-107.456 88.8953,-93.3989 77,-80 62.6224,-63.805 47.9228,-43.9309 37.8372,-29.6784"/>
<polygon fill="midnightblue" stroke="midnightblue" points="40.5229,-27.4113 31.9257,-21.2195 34.7852,-31.4211 40.5229,-27.4113"/>
</g>
<!-- Node10&#45;&gt;Node7 -->
<g id="edge28" class="edge"><title>Node10&#45;&gt;Node7</title>
<path fill="none" stroke="midnightblue" d="M180.002,-116.975C202.723,-110.148 227.632,-98.7883 244,-80 255.624,-66.6568 259.559,-46.6043 260.772,-31.5499"/>
<polygon fill="midnightblue" stroke="midnightblue" points="264.285,-31.3572 261.252,-21.2058 257.292,-31.0331 264.285,-31.3572"/>
</g>
</g>
</svg>
