<?xml version="1.0" encoding="UTF-8" standalone="no"?>
<!DOCTYPE svg PUBLIC "-//W3C//DTD SVG 1.1//EN"
 "http://www.w3.org/Graphics/SVG/1.1/DTD/svg11.dtd">
<!-- Generated by graphviz version 2.26.3 (20100126.1600)
 -->
<!-- Title: G Pages: 1 -->
<svg width="332pt" height="272pt"
 viewBox="0.00 0.00 332.00 272.00" xmlns="http://www.w3.org/2000/svg" xmlns:xlink="http://www.w3.org/1999/xlink">
<g id="graph1" class="graph" transform="scale(1 1) rotate(0) translate(4 268)">
<title>G</title>
<polygon fill="white" stroke="white" points="-4,5 -4,-268 329,-268 329,5 -4,5"/>
<!-- Node1 -->
<g id="node1" class="node"><title>Node1</title>
<polygon fill="#bfbfbf" stroke="black" points="208.5,-241 208.5,-263 261.5,-263 261.5,-241 208.5,-241"/>
<text text-anchor="middle" x="235" y="-250" font-family="FreeSans" font-size="10.00">barrier.h</text>
</g>
<!-- Node2 -->
<g id="node3" class="node"><title>Node2</title>
<a xlink:href="datatypes_8h.html" target="_top" xlink:title="This file declares a few typedefs to allow flexibility, in case a change is required/desired.">
<polygon fill="white" stroke="black" points="201,-121 201,-143 269,-143 269,-121 201,-121"/>
<text text-anchor="middle" x="235" y="-130" font-family="FreeSans" font-size="10.00">datatypes.h</text>
</a>
</g>
<!-- Node1&#45;&gt;Node2 -->
<g id="edge2" class="edge"><title>Node1&#45;&gt;Node2</title>
<path fill="none" stroke="midnightblue" d="M228.919,-240.956C224.066,-231.476 217.656,-217.279 215,-204 212.908,-193.54 212.908,-190.46 215,-180 216.888,-170.56 220.674,-160.655 224.448,-152.311"/>
<polygon fill="midnightblue" stroke="midnightblue" points="227.726,-153.571 228.919,-143.044 221.422,-150.53 227.726,-153.571"/>
</g>
<!-- Node10 -->
<g id="node19" class="node"><title>Node10</title>
<a xlink:href="atomicoperations_8h.html" target="_top" xlink:title="Simple thread safe ways to check and change a specified variable atomically.">
<polygon fill="white" stroke="black" points="223.5,-181 223.5,-203 324.5,-203 324.5,-181 223.5,-181"/>
<text text-anchor="middle" x="274" y="-190" font-family="FreeSans" font-size="10.00">atomicoperations.h</text>
</a>
</g>
<!-- Node1&#45;&gt;Node10 -->
<g id="edge18" class="edge"><title>Node1&#45;&gt;Node10</title>
<path fill="none" stroke="midnightblue" d="M242.153,-240.995C247.419,-232.894 254.726,-221.653 261.012,-211.981"/>
<polygon fill="midnightblue" stroke="midnightblue" points="264.112,-213.635 266.627,-203.343 258.243,-209.82 264.112,-213.635"/>
</g>
<!-- Node3 -->
<g id="node5" class="node"><title>Node3</title>
<a xlink:href="compilerthreadcompat_8h.html" target="_top" xlink:title="This file determines what features are offered by the compiler that this library can take advantage o...">
<polygon fill="white" stroke="black" points="73,-61 73,-83 197,-83 197,-61 73,-61"/>
<text text-anchor="middle" x="135" y="-70" font-family="FreeSans" font-size="10.00">compilerthreadcompat.h</text>
</a>
</g>
<!-- Node2&#45;&gt;Node3 -->
<g id="edge4" class="edge"><title>Node2&#45;&gt;Node3</title>
<path fill="none" stroke="midnightblue" d="M216.658,-120.995C201.53,-111.918 179.832,-98.899 162.605,-88.5627"/>
<polygon fill="midnightblue" stroke="midnightblue" points="163.94,-85.2821 153.564,-83.1383 160.338,-91.2846 163.94,-85.2821"/>
</g>
<!-- Node8 -->
<g id="node15" class="node"><title>Node8</title>
<polygon fill="white" stroke="#bfbfbf" points="214.5,-61 214.5,-83 255.5,-83 255.5,-61 214.5,-61"/>
<text text-anchor="middle" x="235" y="-70" font-family="FreeSans" font-size="10.00">string</text>
</g>
<!-- Node2&#45;&gt;Node8 -->
<g id="edge14" class="edge"><title>Node2&#45;&gt;Node8</title>
<path fill="none" stroke="midnightblue" d="M235,-120.995C235,-113.311 235,-102.803 235,-93.4884"/>
<polygon fill="midnightblue" stroke="midnightblue" points="238.5,-93.3428 235,-83.3428 231.5,-93.3429 238.5,-93.3428"/>
</g>
<!-- Node9 -->
<g id="node17" class="node"><title>Node9</title>
<polygon fill="white" stroke="#bfbfbf" points="272.5,-61 272.5,-83 319.5,-83 319.5,-61 272.5,-61"/>
<text text-anchor="middle" x="296" y="-70" font-family="FreeSans" font-size="10.00">stdint.h</text>
</g>
<!-- Node2&#45;&gt;Node9 -->
<g id="edge16" class="edge"><title>Node2&#45;&gt;Node9</title>
<path fill="none" stroke="midnightblue" d="M246.188,-120.995C254.849,-112.476 267.04,-100.485 277.193,-90.4985"/>
<polygon fill="midnightblue" stroke="midnightblue" points="279.793,-92.8505 284.468,-83.3428 274.884,-87.86 279.793,-92.8505"/>
</g>
<!-- Node4 -->
<g id="node7" class="node"><title>Node4</title>
<polygon fill="white" stroke="#bfbfbf" points="0,-1 0,-23 58,-23 58,-1 0,-1"/>
<text text-anchor="middle" x="29" y="-10" font-family="FreeSans" font-size="10.00">pthread.h</text>
</g>
<!-- Node3&#45;&gt;Node4 -->
<g id="edge6" class="edge"><title>Node3&#45;&gt;Node4</title>
<path fill="none" stroke="midnightblue" d="M115.558,-60.9951C99.2987,-51.7917 75.8814,-38.5366 57.5027,-28.1336"/>
<polygon fill="midnightblue" stroke="midnightblue" points="59.1044,-25.0185 48.6777,-23.1383 55.6562,-31.1103 59.1044,-25.0185"/>
</g>
<!-- Node5 -->
<g id="node9" class="node"><title>Node5</title>
<polygon fill="white" stroke="#bfbfbf" points="75.5,-1 75.5,-23 126.5,-23 126.5,-1 75.5,-1"/>
<text text-anchor="middle" x="101" y="-10" font-family="FreeSans" font-size="10.00">signal.h</text>
</g>
<!-- Node3&#45;&gt;Node5 -->
<g id="edge8" class="edge"><title>Node3&#45;&gt;Node5</title>
<path fill="none" stroke="midnightblue" d="M128.764,-60.9951C124.22,-52.9771 117.934,-41.884 112.492,-32.2806"/>
<polygon fill="midnightblue" stroke="midnightblue" points="115.403,-30.3175 107.428,-23.3428 109.313,-33.7686 115.403,-30.3175"/>
</g>
<!-- Node6 -->
<g id="node11" class="node"><title>Node6</title>
<polygon fill="white" stroke="#bfbfbf" points="144,-1 144,-23 196,-23 196,-1 144,-1"/>
<text text-anchor="middle" x="170" y="-10" font-family="FreeSans" font-size="10.00">sched.h</text>
</g>
<!-- Node3&#45;&gt;Node6 -->
<g id="edge10" class="edge"><title>Node3&#45;&gt;Node6</title>
<path fill="none" stroke="midnightblue" d="M141.42,-60.9951C146.145,-52.8936 152.703,-41.6525 158.344,-31.981"/>
<polygon fill="midnightblue" stroke="midnightblue" points="161.368,-33.7442 163.383,-23.3428 155.321,-30.2171 161.368,-33.7442"/>
</g>
<!-- Node7 -->
<g id="node13" class="node"><title>Node7</title>
<polygon fill="white" stroke="#bfbfbf" points="214,-1 214,-23 264,-23 264,-1 214,-1"/>
<text text-anchor="middle" x="239" y="-10" font-family="FreeSans" font-size="10.00">unistd.h</text>
</g>
<!-- Node3&#45;&gt;Node7 -->
<g id="edge12" class="edge"><title>Node3&#45;&gt;Node7</title>
<path fill="none" stroke="midnightblue" d="M154.075,-60.9951C169.955,-51.8337 192.793,-38.6576 210.788,-28.2763"/>
<polygon fill="midnightblue" stroke="midnightblue" points="212.781,-31.1673 219.694,-23.1383 209.283,-25.104 212.781,-31.1673"/>
</g>
<!-- Node10&#45;&gt;Node2 -->
<g id="edge20" class="edge"><title>Node10&#45;&gt;Node2</title>
<path fill="none" stroke="midnightblue" d="M266.847,-180.995C261.581,-172.894 254.274,-161.653 247.988,-151.981"/>
<polygon fill="midnightblue" stroke="midnightblue" points="250.757,-149.82 242.373,-143.343 244.888,-153.635 250.757,-149.82"/>
</g>
</g>
</svg>
