<?xml version="1.0" encoding="UTF-8" standalone="no"?>
<!DOCTYPE svg PUBLIC "-//W3C//DTD SVG 1.1//EN"
 "http://www.w3.org/Graphics/SVG/1.1/DTD/svg11.dtd">
<!-- Generated by graphviz version 2.26.3 (20100126.1600)
 -->
<!-- Title: G Pages: 1 -->
<svg width="200pt" height="92pt"
 viewBox="0.00 0.00 200.00 92.00" xmlns="http://www.w3.org/2000/svg" xmlns:xlink="http://www.w3.org/1999/xlink">
<g id="graph1" class="graph" transform="scale(1 1) rotate(0) translate(4 88)">
<title>G</title>
<polygon fill="white" stroke="white" points="-4,5 -4,-88 197,-88 197,5 -4,5"/>
<!-- Node1 -->
<g id="node1" class="node"><title>Node1</title>
<polygon fill="#bfbfbf" stroke="black" points="56.5,-61 56.5,-83 109.5,-83 109.5,-61 56.5,-61"/>
<text text-anchor="middle" x="83" y="-70" font-family="FreeSans" font-size="10.00">barrier.h</text>
</g>
<!-- Node2 -->
<g id="node3" class="node"><title>Node2</title>
<a xlink:href="barrier_8cpp.html" target="_top" xlink:title="Contains the implementation for the Mezzanine::Threading::Barrier Barrier synchronization object...">
<polygon fill="white" stroke="black" points="-0.5,-1 -0.5,-23 62.5,-23 62.5,-1 -0.5,-1"/>
<text text-anchor="middle" x="31" y="-10" font-family="FreeSans" font-size="10.00">barrier.cpp</text>
</a>
</g>
<!-- Node1&#45;&gt;Node2 -->
<g id="edge2" class="edge"><title>Node1&#45;&gt;Node2</title>
<path fill="none" stroke="midnightblue" d="M66.8001,-53.3078C58.2928,-43.4917 48.1457,-31.7835 40.8305,-23.3428"/>
<polygon fill="midnightblue" stroke="midnightblue" points="64.2681,-55.7304 73.4624,-60.9951 69.558,-51.1459 64.2681,-55.7304"/>
</g>
<!-- Node3 -->
<g id="node5" class="node"><title>Node3</title>
<a xlink:href="dagframescheduler_8h.html" target="_top" xlink:title="This is the file that code using this library should include. It includes all the required components...">
<polygon fill="white" stroke="black" points="80,-1 80,-23 192,-23 192,-1 80,-1"/>
<text text-anchor="middle" x="136" y="-10" font-family="FreeSans" font-size="10.00">dagframescheduler.h</text>
</a>
</g>
<!-- Node1&#45;&gt;Node3 -->
<g id="edge4" class="edge"><title>Node1&#45;&gt;Node3</title>
<path fill="none" stroke="midnightblue" d="M99.5114,-53.3078C108.182,-43.4917 118.525,-31.7835 125.98,-23.3428"/>
<polygon fill="midnightblue" stroke="midnightblue" points="96.7182,-51.1832 92.721,-60.9951 101.965,-55.8175 96.7182,-51.1832"/>
</g>
</g>
</svg>
