<?xml version="1.0" encoding="UTF-8" standalone="no"?>
<!DOCTYPE svg PUBLIC "-//W3C//DTD SVG 1.1//EN"
 "http://www.w3.org/Graphics/SVG/1.1/DTD/svg11.dtd">
<!-- Generated by graphviz version 2.26.3 (20100126.1600)
 -->
<!-- Title: barrier.h Pages: 1 -->
<svg width="880pt" height="320pt"
 viewBox="0.00 0.00 880.23 320.00" xmlns="http://www.w3.org/2000/svg" xmlns:xlink="http://www.w3.org/1999/xlink">
<g id="graph1" class="graph" transform="scale(1 1) rotate(0) translate(4 316)">
<title>barrier.h</title>
<polygon fill="white" stroke="white" points="-4,5 -4,-316 877.227,-316 877.227,5 -4,5"/>
<!-- Node1 -->
<g id="node1" class="node"><title>Node1</title>
<polygon fill="#bfbfbf" stroke="black" points="311.459,-291 311.459,-311 362.459,-311 362.459,-291 311.459,-291"/>
<text text-anchor="middle" x="336.959" y="-298" font-family="FreeSans" font-size="10.00">barrier.h</text>
</g>
<!-- Node2 -->
<g id="node3" class="node"><title>Node2</title>
<a xlink:href="barrier_8cpp.html" target="_top" xlink:title="Contains the implementation for the Mezzanine::Threading::Barrier Barrier synchronization object...">
<polygon fill="white" stroke="black" points="211.959,-233 211.959,-253 273.959,-253 273.959,-233 211.959,-233"/>
<text text-anchor="middle" x="242.959" y="-240" font-family="FreeSans" font-size="10.00">barrier.cpp</text>
</a>
</g>
<!-- Node1&#45;&gt;Node2 -->
<g id="edge2" class="edge"><title>Node1&#45;&gt;Node2</title>
<path fill="none" stroke="midnightblue" d="M311.915,-285.547C295.302,-275.297 273.969,-262.134 259.46,-253.182"/>
<polygon fill="midnightblue" stroke="midnightblue" points="310.237,-288.625 320.586,-290.897 313.913,-282.667 310.237,-288.625"/>
</g>
<!-- Node3 -->
<g id="node5" class="node"><title>Node3</title>
<a xlink:href="dagframescheduler_8h.html" target="_top" xlink:title="This is the file that code using this library should include. It includes all the required components...">
<polygon fill="white" stroke="black" points="417.959,-1 417.959,-21 523.959,-21 523.959,-1 417.959,-1"/>
<text text-anchor="middle" x="470.959" y="-8" font-family="FreeSans" font-size="10.00">dagframescheduler.h</text>
</a>
</g>
<!-- Node1&#45;&gt;Node3 -->
<g id="edge4" class="edge"><title>Node1&#45;&gt;Node3</title>
<path fill="none" stroke="midnightblue" d="M372.832,-297.046C492.569,-283.37 870.959,-236.111 870.959,-185 870.959,-185 870.959,-185 870.959,-127 870.959,-95.1919 876.031,-78.7918 851.959,-58 827.591,-36.9527 622.901,-20.899 524.019,-14.2935"/>
<polygon fill="midnightblue" stroke="midnightblue" points="372.258,-293.588 362.715,-298.191 373.045,-300.544 372.258,-293.588"/>
</g>
<!-- Node4 -->
<g id="node7" class="node"><title>Node4</title>
<a xlink:href="framescheduler_8h.html" target="_top" xlink:title="This file has the Declarations for the main FrameScheduler class.">
<polygon fill="white" stroke="black" points="291.959,-233 291.959,-253 381.959,-253 381.959,-233 291.959,-233"/>
<text text-anchor="middle" x="336.959" y="-240" font-family="FreeSans" font-size="10.00">framescheduler.h</text>
</a>
</g>
<!-- Node1&#45;&gt;Node4 -->
<g id="edge6" class="edge"><title>Node1&#45;&gt;Node4</title>
<path fill="none" stroke="midnightblue" d="M336.959,-280.89C336.959,-271.62 336.959,-261.008 336.959,-253.378"/>
<polygon fill="midnightblue" stroke="midnightblue" points="333.459,-280.897 336.959,-290.897 340.459,-280.897 333.459,-280.897"/>
</g>
<!-- Node4&#45;&gt;Node3 -->
<g id="edge42" class="edge"><title>Node4&#45;&gt;Node3</title>
<path fill="none" stroke="midnightblue" d="M296.995,-229.721C199.528,-196.333 -39.2301,-107.987 5.9591,-58 33.1659,-27.9046 301.676,-16.1467 417.847,-12.4428"/>
<polygon fill="midnightblue" stroke="midnightblue" points="295.925,-233.054 306.52,-232.963 298.181,-226.428 295.925,-233.054"/>
</g>
<!-- Node5 -->
<g id="node9" class="node"><title>Node5</title>
<a xlink:href="workunit_8h.html" target="_top" xlink:title="This file has the definition of the workunit.">
<polygon fill="white" stroke="black" points="337.959,-175 337.959,-195 397.959,-195 397.959,-175 337.959,-175"/>
<text text-anchor="middle" x="367.959" y="-182" font-family="FreeSans" font-size="10.00">workunit.h</text>
</a>
</g>
<!-- Node4&#45;&gt;Node5 -->
<g id="edge8" class="edge"><title>Node4&#45;&gt;Node5</title>
<path fill="none" stroke="midnightblue" d="M347.225,-223.793C352.291,-214.315 358.201,-203.257 362.412,-195.378"/>
<polygon fill="midnightblue" stroke="midnightblue" points="343.986,-222.428 342.359,-232.897 350.159,-225.728 343.986,-222.428"/>
</g>
<!-- Node11 -->
<g id="node24" class="node"><title>Node11</title>
<a xlink:href="framescheduler_8cpp.html" target="_top" xlink:title="This is the core object implementation for this algorithm.">
<polygon fill="white" stroke="black" points="210.459,-59 210.459,-79 311.459,-79 311.459,-59 210.459,-59"/>
<text text-anchor="middle" x="260.959" y="-66" font-family="FreeSans" font-size="10.00">framescheduler.cpp</text>
</a>
</g>
<!-- Node4&#45;&gt;Node11 -->
<g id="edge44" class="edge"><title>Node4&#45;&gt;Node11</title>
<path fill="none" stroke="midnightblue" d="M325.719,-224.173C313.736,-203.547 294.76,-169.232 281.959,-138 273.601,-117.608 266.81,-92.6418 263.381,-79.0292"/>
<polygon fill="midnightblue" stroke="midnightblue" points="322.749,-226.028 330.834,-232.875 328.784,-222.481 322.749,-226.028"/>
</g>
<!-- Node5&#45;&gt;Node3 -->
<g id="edge38" class="edge"><title>Node5&#45;&gt;Node3</title>
<path fill="none" stroke="midnightblue" d="M407.688,-171.736C423.908,-164.322 441.319,-153.401 451.959,-138 477.304,-101.316 474.644,-44.436 472.268,-21.3065"/>
<polygon fill="midnightblue" stroke="midnightblue" points="406.175,-168.576 398.336,-175.704 408.909,-175.02 406.175,-168.576"/>
</g>
<!-- Node6 -->
<g id="node11" class="node"><title>Node6</title>
<a xlink:href="asynchronousworkunit_8h.html" target="_top" xlink:title="Contains an interface for a kind of WorkUnit that loads or does other work even when the frame schedu...">
<polygon fill="white" stroke="black" points="520.459,-117 520.459,-137 639.459,-137 639.459,-117 520.459,-117"/>
<text text-anchor="middle" x="579.959" y="-124" font-family="FreeSans" font-size="10.00">asynchronousworkunit.h</text>
</a>
</g>
<!-- Node5&#45;&gt;Node6 -->
<g id="edge10" class="edge"><title>Node5&#45;&gt;Node6</title>
<path fill="none" stroke="midnightblue" d="M408.269,-173.972C447.177,-163.327 505.578,-147.349 543.232,-137.048"/>
<polygon fill="midnightblue" stroke="midnightblue" points="407.055,-170.675 398.334,-176.69 408.903,-177.427 407.055,-170.675"/>
</g>
<!-- Node10 -->
<g id="node21" class="node"><title>Node10</title>
<a xlink:href="frameschedulerworkunits_8h.html" target="_top" xlink:title="This defines a number of workunits that are required for doing some tasks that the Framescheduler req...">
<polygon fill="white" stroke="black" points="104.459,-117 104.459,-137 235.459,-137 235.459,-117 104.459,-117"/>
<text text-anchor="middle" x="169.959" y="-124" font-family="FreeSans" font-size="10.00">frameschedulerworkunits.h</text>
</a>
</g>
<!-- Node5&#45;&gt;Node10 -->
<g id="edge22" class="edge"><title>Node5&#45;&gt;Node10</title>
<path fill="none" stroke="midnightblue" d="M328.124,-173.331C291.831,-162.7 238.783,-147.161 204.314,-137.063"/>
<polygon fill="midnightblue" stroke="midnightblue" points="327.306,-176.739 337.887,-176.191 329.274,-170.021 327.306,-176.739"/>
</g>
<!-- Node13 -->
<g id="node28" class="node"><title>Node13</title>
<a xlink:href="monopoly_8h.html" target="_top" xlink:title="Contains an interface for a kind of WorkUnit that consumes time on multiple thread.">
<polygon fill="white" stroke="black" points="378.459,-117 378.459,-137 443.459,-137 443.459,-117 378.459,-117"/>
<text text-anchor="middle" x="410.959" y="-124" font-family="FreeSans" font-size="10.00">monopoly.h</text>
</a>
</g>
<!-- Node5&#45;&gt;Node13 -->
<g id="edge30" class="edge"><title>Node5&#45;&gt;Node13</title>
<path fill="none" stroke="midnightblue" d="M381.537,-166.686C388.705,-157.017 397.239,-145.506 403.265,-137.378"/>
<polygon fill="midnightblue" stroke="midnightblue" points="378.593,-164.78 375.449,-174.897 384.216,-168.949 378.593,-164.78"/>
</g>
<!-- Node15 -->
<g id="node35" class="node"><title>Node15</title>
<a xlink:href="workunit_8cpp.html" target="_top" xlink:title="This file has the implementation of the Mezzanine::Threading::DefaultWorkUnit.">
<polygon fill="white" stroke="black" points="290.459,-117 290.459,-137 361.459,-137 361.459,-117 290.459,-117"/>
<text text-anchor="middle" x="325.959" y="-124" font-family="FreeSans" font-size="10.00">workunit.cpp</text>
</a>
</g>
<!-- Node5&#45;&gt;Node15 -->
<g id="edge40" class="edge"><title>Node5&#45;&gt;Node15</title>
<path fill="none" stroke="midnightblue" d="M354.697,-166.686C347.696,-157.017 339.36,-145.506 333.474,-137.378"/>
<polygon fill="midnightblue" stroke="midnightblue" points="351.943,-168.851 360.643,-174.897 357.613,-164.745 351.943,-168.851"/>
</g>
<!-- Node6&#45;&gt;Node3 -->
<g id="edge20" class="edge"><title>Node6&#45;&gt;Node3</title>
<path fill="none" stroke="midnightblue" d="M559.759,-109.962C549.858,-101.311 537.947,-90.4428 527.959,-80 509.057,-60.2376 489.204,-35.0352 478.642,-21.2136"/>
<polygon fill="midnightblue" stroke="midnightblue" points="557.657,-112.771 567.516,-116.65 562.228,-107.469 557.657,-112.771"/>
</g>
<!-- Node7 -->
<g id="node13" class="node"><title>Node7</title>
<a xlink:href="asynchronousfileloadingworkunit_8h.html" target="_top" xlink:title="The declaration of the AsynchronousFileLoadWorkUnit a workunit that loads a listing of files asynchro...">
<polygon fill="white" stroke="black" points="682.459,-59 682.459,-79 843.459,-79 843.459,-59 682.459,-59"/>
<text text-anchor="middle" x="762.959" y="-66" font-family="FreeSans" font-size="10.00">asynchronousfileloadingworkunit.h</text>
</a>
</g>
<!-- Node6&#45;&gt;Node7 -->
<g id="edge12" class="edge"><title>Node6&#45;&gt;Node7</title>
<path fill="none" stroke="midnightblue" d="M621.72,-113.764C654.972,-103.225 700.815,-88.6959 731.142,-79.0842"/>
<polygon fill="midnightblue" stroke="midnightblue" points="620.31,-110.539 611.835,-116.897 622.425,-117.212 620.31,-110.539"/>
</g>
<!-- Node9 -->
<g id="node18" class="node"><title>Node9</title>
<a xlink:href="asynchronousworkunit_8cpp.html" target="_top" xlink:title="Contains very little actually.">
<polygon fill="white" stroke="black" points="536.459,-59 536.459,-79 665.459,-79 665.459,-59 536.459,-59"/>
<text text-anchor="middle" x="600.959" y="-66" font-family="FreeSans" font-size="10.00">asynchronousworkunit.cpp</text>
</a>
</g>
<!-- Node6&#45;&gt;Node9 -->
<g id="edge18" class="edge"><title>Node6&#45;&gt;Node9</title>
<path fill="none" stroke="midnightblue" d="M587.022,-107.493C590.429,-98.0829 594.379,-87.1742 597.202,-79.3776"/>
<polygon fill="midnightblue" stroke="midnightblue" points="583.731,-106.303 583.617,-116.897 590.312,-108.686 583.731,-106.303"/>
</g>
<!-- Node7&#45;&gt;Node3 -->
<g id="edge16" class="edge"><title>Node7&#45;&gt;Node3</title>
<path fill="none" stroke="midnightblue" d="M702.383,-56.9678C648.825,-46.3296 571.61,-30.9923 521.358,-21.0108"/>
<polygon fill="midnightblue" stroke="midnightblue" points="701.94,-60.448 712.43,-58.9634 703.303,-53.5821 701.94,-60.448"/>
</g>
<!-- Node8 -->
<g id="node15" class="node"><title>Node8</title>
<a xlink:href="asynchronousfileloadingworkunit_8cpp.html" target="_top" xlink:title="The implemtation of the AsynchronousFileLoadWorkUnit a workunit that loads a listing of files asynchr...">
<polygon fill="white" stroke="black" points="676.959,-1 676.959,-21 848.959,-21 848.959,-1 676.959,-1"/>
<text text-anchor="middle" x="762.959" y="-8" font-family="FreeSans" font-size="10.00">asynchronousfileloadingworkunit.cpp</text>
</a>
</g>
<!-- Node7&#45;&gt;Node8 -->
<g id="edge14" class="edge"><title>Node7&#45;&gt;Node8</title>
<path fill="none" stroke="midnightblue" d="M762.959,-48.8902C762.959,-39.6201 762.959,-29.0083 762.959,-21.3776"/>
<polygon fill="midnightblue" stroke="midnightblue" points="759.459,-48.8971 762.959,-58.8972 766.459,-48.8972 759.459,-48.8971"/>
</g>
<!-- Node10&#45;&gt;Node3 -->
<g id="edge24" class="edge"><title>Node10&#45;&gt;Node3</title>
<path fill="none" stroke="midnightblue" d="M173.904,-107.094C178.108,-91.3005 186.386,-69.9564 201.959,-58 234.957,-32.666 349.135,-19.9785 417.679,-14.5043"/>
<polygon fill="midnightblue" stroke="midnightblue" points="170.467,-106.424 171.606,-116.958 177.284,-108.013 170.467,-106.424"/>
</g>
<!-- Node10&#45;&gt;Node11 -->
<g id="edge26" class="edge"><title>Node10&#45;&gt;Node11</title>
<path fill="none" stroke="midnightblue" d="M194.652,-111.262C210.668,-101.054 231.069,-88.051 244.984,-79.1817"/>
<polygon fill="midnightblue" stroke="midnightblue" points="192.362,-108.571 185.81,-116.897 196.124,-114.474 192.362,-108.571"/>
</g>
<!-- Node12 -->
<g id="node26" class="node"><title>Node12</title>
<a xlink:href="frameschedulerworkunits_8cpp.html" target="_top" xlink:title="The implementation of any workunits the framescheduler needs to work correctly.">
<polygon fill="white" stroke="black" points="14.4591,-59 14.4591,-79 155.459,-79 155.459,-59 14.4591,-59"/>
<text text-anchor="middle" x="84.9591" y="-66" font-family="FreeSans" font-size="10.00">frameschedulerworkunits.cpp</text>
</a>
</g>
<!-- Node10&#45;&gt;Node12 -->
<g id="edge28" class="edge"><title>Node10&#45;&gt;Node12</title>
<path fill="none" stroke="midnightblue" d="M146.474,-110.975C131.578,-100.811 112.757,-87.9681 99.8805,-79.1817"/>
<polygon fill="midnightblue" stroke="midnightblue" points="144.92,-114.152 155.153,-116.897 148.866,-108.37 144.92,-114.152"/>
</g>
<!-- Node13&#45;&gt;Node3 -->
<g id="edge32" class="edge"><title>Node13&#45;&gt;Node3</title>
<path fill="none" stroke="midnightblue" d="M421.049,-107.493C433.941,-82.5685 455.777,-40.3525 465.732,-21.1055"/>
<polygon fill="midnightblue" stroke="midnightblue" points="417.769,-106.216 416.284,-116.706 423.987,-109.432 417.769,-106.216"/>
</g>
<!-- Node13&#45;&gt;Node11 -->
<g id="edge34" class="edge"><title>Node13&#45;&gt;Node11</title>
<path fill="none" stroke="midnightblue" d="M375.31,-113.216C348.181,-102.726 311.468,-88.5302 287.039,-79.0842"/>
<polygon fill="midnightblue" stroke="midnightblue" points="374.242,-116.555 384.831,-116.897 376.766,-110.026 374.242,-116.555"/>
</g>
<!-- Node14 -->
<g id="node32" class="node"><title>Node14</title>
<a xlink:href="monopoly_8cpp.html" target="_top" xlink:title="Contains the minimal implementation for the monopoly base class.">
<polygon fill="white" stroke="black" points="328.959,-59 328.959,-79 404.959,-79 404.959,-59 328.959,-59"/>
<text text-anchor="middle" x="366.959" y="-66" font-family="FreeSans" font-size="10.00">monopoly.cpp</text>
</a>
</g>
<!-- Node13&#45;&gt;Node14 -->
<g id="edge36" class="edge"><title>Node13&#45;&gt;Node14</title>
<path fill="none" stroke="midnightblue" d="M397.065,-108.686C389.731,-99.0169 380.998,-87.5059 374.832,-79.3776"/>
<polygon fill="midnightblue" stroke="midnightblue" points="394.463,-111.046 403.295,-116.897 400.039,-106.815 394.463,-111.046"/>
</g>
</g>
</svg>
