<?xml version="1.0" encoding="UTF-8" standalone="no"?>
<!DOCTYPE svg PUBLIC "-//W3C//DTD SVG 1.1//EN"
 "http://www.w3.org/Graphics/SVG/1.1/DTD/svg11.dtd">
<!-- Generated by graphviz version 2.26.3 (20100126.1600)
 -->
<!-- Title: G Pages: 1 -->
<!--zoomable 332 -->
<svg id="main" version="1.1" xmlns="http://www.w3.org/2000/svg" xmlns:xlink="http://www.w3.org/1999/xlink" xml:space="preserve" onload="init(evt)">
        <defs>
                <circle id="rim" cx="0" cy="0" r="7"/>
                <circle id="rim2" cx="0" cy="0" r="3.5"/>
                <g id="zoomPlus">
                        <use xlink:href="#rim" fill="#404040">
                                <set attributeName="fill" to="#808080" begin="zoomplus.mouseover" end="zoomplus.mouseout"/>
                        </use>
                        <path d="M-4,0h8M0,-4v8" fill="none" stroke="white" stroke-width="1.5" pointer-events="none"/>
                </g>
                <g id="zoomMin">
                        <use xlink:href="#rim" fill="#404040">
                                <set attributeName="fill" to="#808080" begin="zoomminus.mouseover" end="zoomminus.mouseout"/>
                        </use>
                        <path d="M-4,0h8" fill="none" stroke="white" stroke-width="1.5" pointer-events="none"/>
                </g>
                <g id="dirArrow">
                        <path fill="none" stroke="white" stroke-width="1.5" d="M0,-3.0v7 M-2.5,-0.5L0,-3.0L2.5,-0.5"/>
                </g>
               <g id="resetDef">
                       <use xlink:href="#rim2" fill="#404040">
                               <set attributeName="fill" to="#808080" begin="reset.mouseover" end="reset.mouseout"/>
                       </use>
               </g>
        </defs>

<script type="text/javascript">
var viewWidth = 1025;
var viewHeight = 332;
var sectionId = 'dynsection-1';
</script>
<script xlink:href="svgpan.js"/>
<svg id="graph" class="graph">
<g id="viewport">
<title>G</title>
<polygon fill="white" stroke="white" points="-4,5 -4,-328 1022,-328 1022,5 -4,5"/>
<!-- Node1 -->
<g id="node1" class="node"><title>Node1</title>
<polygon fill="#bfbfbf" stroke="black" points="63.5,-301 63.5,-323 116.5,-323 116.5,-301 63.5,-301"/>
<text text-anchor="middle" x="90" y="-310" font-family="FreeSans" font-size="10.00">barrier.h</text>
</g>
<!-- Node2 -->
<g id="node3" class="node"><title>Node2</title>
<a xlink:href="barrier_8cpp.html" target="_top" xlink:title="Contains the implementation for the Mezzanine::Threading::Barrier Barrier synchronization object...">
<polygon fill="white" stroke="black" points="-0.5,-241 -0.5,-263 62.5,-263 62.5,-241 -0.5,-241"/>
<text text-anchor="middle" x="31" y="-250" font-family="FreeSans" font-size="10.00">barrier.cpp</text>
</a>
</g>
<!-- Node1&#45;&gt;Node2 -->
<g id="edge2" class="edge"><title>Node1&#45;&gt;Node2</title>
<path fill="none" stroke="midnightblue" d="M71.9084,-293.602C62.1974,-283.726 50.5368,-271.868 42.1538,-263.343"/>
<polygon fill="midnightblue" stroke="midnightblue" points="69.6715,-296.319 79.1785,-300.995 74.6627,-291.411 69.6715,-296.319"/>
</g>
<!-- Node3 -->
<g id="node5" class="node"><title>Node3</title>
<a xlink:href="dagframescheduler_8h.html" target="_top" xlink:title="This is the file that code using this library should include. It includes all the required components...">
<polygon fill="white" stroke="black" points="366,-1 366,-23 478,-23 478,-1 366,-1"/>
<text text-anchor="middle" x="422" y="-10" font-family="FreeSans" font-size="10.00">dagframescheduler.h</text>
</a>
</g>
<!-- Node1&#45;&gt;Node3 -->
<g id="edge4" class="edge"><title>Node1&#45;&gt;Node3</title>
<path fill="none" stroke="midnightblue" d="M90,-290.648C90,-266.652 90,-226.531 90,-192 90,-192 90,-192 90,-132 90,-95.6071 99.3463,-81.0975 129,-60 166.118,-33.5918 291.653,-20.7683 365.819,-15.3596"/>
<polygon fill="midnightblue" stroke="midnightblue" points="86.5001,-290.75 90,-300.75 93.5001,-290.75 86.5001,-290.75"/>
</g>
<!-- Node4 -->
<g id="node7" class="node"><title>Node4</title>
<a xlink:href="framescheduler_8h.html" target="_top" xlink:title="This file has the Declarations for the main FrameScheduler class.">
<polygon fill="white" stroke="black" points="129,-241 129,-263 223,-263 223,-241 129,-241"/>
<text text-anchor="middle" x="176" y="-250" font-family="FreeSans" font-size="10.00">framescheduler.h</text>
</a>
</g>
<!-- Node1&#45;&gt;Node4 -->
<g id="edge6" class="edge"><title>Node1&#45;&gt;Node4</title>
<path fill="none" stroke="midnightblue" d="M114.348,-295.013C128.99,-284.798 147.211,-272.085 160.035,-263.138"/>
<polygon fill="midnightblue" stroke="midnightblue" points="111.972,-292.403 105.774,-300.995 115.978,-298.144 111.972,-292.403"/>
</g>
<!-- Node4&#45;&gt;Node3 -->
<g id="edge40" class="edge"><title>Node4&#45;&gt;Node3</title>
<path fill="none" stroke="midnightblue" d="M163.915,-231.753C142.789,-193.445 105.184,-109.747 147,-60 174.404,-27.399 293.792,-16.9376 365.95,-13.5824"/>
<polygon fill="midnightblue" stroke="midnightblue" points="161.123,-233.924 169.115,-240.879 167.205,-230.458 161.123,-233.924"/>
</g>
<!-- Node5 -->
<g id="node9" class="node"><title>Node5</title>
<a xlink:href="workunit_8h.html" target="_top" xlink:title="This file has the definition of the workunit.">
<polygon fill="white" stroke="black" points="422.5,-181 422.5,-203 483.5,-203 483.5,-181 422.5,-181"/>
<text text-anchor="middle" x="453" y="-190" font-family="FreeSans" font-size="10.00">workunit.h</text>
</a>
</g>
<!-- Node4&#45;&gt;Node5 -->
<g id="edge8" class="edge"><title>Node4&#45;&gt;Node5</title>
<path fill="none" stroke="midnightblue" d="M233.306,-239.587C290.645,-227.167 376.684,-208.531 422.206,-198.67"/>
<polygon fill="midnightblue" stroke="midnightblue" points="232.336,-236.216 223.303,-241.754 233.818,-243.057 232.336,-236.216"/>
</g>
<!-- Node13 -->
<g id="node29" class="node"><title>Node13</title>
<a xlink:href="framescheduler_8cpp.html" target="_top" xlink:title="This is the core object implementation for this algorithm.">
<polygon fill="white" stroke="black" points="156,-61 156,-83 260,-83 260,-61 156,-61"/>
<text text-anchor="middle" x="208" y="-70" font-family="FreeSans" font-size="10.00">framescheduler.cpp</text>
</a>
</g>
<!-- Node4&#45;&gt;Node13 -->
<g id="edge42" class="edge"><title>Node4&#45;&gt;Node13</title>
<path fill="none" stroke="midnightblue" d="M179.796,-230.65C186.627,-192.221 200.769,-112.672 205.999,-83.2556"/>
<polygon fill="midnightblue" stroke="midnightblue" points="176.306,-230.282 178.002,-240.74 183.198,-231.507 176.306,-230.282"/>
</g>
<!-- Node5&#45;&gt;Node3 -->
<g id="edge36" class="edge"><title>Node5&#45;&gt;Node3</title>
<path fill="none" stroke="midnightblue" d="M447.243,-170.95C445.09,-162.602 442.746,-152.89 441,-144 432.253,-99.4714 425.762,-45.7512 423.2,-23.0159"/>
<polygon fill="midnightblue" stroke="midnightblue" points="443.864,-171.86 449.809,-180.629 450.63,-170.066 443.864,-171.86"/>
</g>
<!-- Node6 -->
<g id="node11" class="node"><title>Node6</title>
<a xlink:href="asynchronousworkunit_8h.html" target="_top" xlink:title="Contains an interface for a kind of WorkUnit that loads or does other work even when the frame schedu...">
<polygon fill="white" stroke="black" points="693.5,-121 693.5,-143 816.5,-143 816.5,-121 693.5,-121"/>
<text text-anchor="middle" x="755" y="-130" font-family="FreeSans" font-size="10.00">asynchronousworkunit.h</text>
</a>
</g>
<!-- Node5&#45;&gt;Node6 -->
<g id="edge10" class="edge"><title>Node5&#45;&gt;Node6</title>
<path fill="none" stroke="midnightblue" d="M493.687,-183.917C546.806,-173.363 640.007,-154.846 699.554,-143.016"/>
<polygon fill="midnightblue" stroke="midnightblue" points="492.746,-180.535 483.619,-185.917 494.11,-187.401 492.746,-180.535"/>
</g>
<!-- Node10 -->
<g id="node21" class="node"><title>Node10</title>
<a xlink:href="frameschedulerworkunits_8h.html" target="_top" xlink:title="This defines a number of workunits that are required for doing some tasks that the Framescheduler req...">
<polygon fill="white" stroke="black" points="538,-121 538,-143 674,-143 674,-121 538,-121"/>
<text text-anchor="middle" x="606" y="-130" font-family="FreeSans" font-size="10.00">frameschedulerworkunits.h</text>
</a>
</g>
<!-- Node5&#45;&gt;Node10 -->
<g id="edge22" class="edge"><title>Node5&#45;&gt;Node10</title>
<path fill="none" stroke="midnightblue" d="M490.565,-177.269C517.541,-166.69 553.322,-152.658 577.857,-143.037"/>
<polygon fill="midnightblue" stroke="midnightblue" points="489.094,-174.086 481.063,-180.995 491.65,-180.603 489.094,-174.086"/>
</g>
<!-- Node12 -->
<g id="node26" class="node"><title>Node12</title>
<a xlink:href="monopoly_8h.html" target="_top" xlink:title="Contains an interface for a kind of WorkUnit that consumes time on multiple thread.">
<polygon fill="white" stroke="black" points="304,-121 304,-143 372,-143 372,-121 304,-121"/>
<text text-anchor="middle" x="338" y="-130" font-family="FreeSans" font-size="10.00">monopoly.h</text>
</a>
</g>
<!-- Node5&#45;&gt;Node12 -->
<g id="edge28" class="edge"><title>Node5&#45;&gt;Node12</title>
<path fill="none" stroke="midnightblue" d="M422.909,-176.3C402.944,-165.884 377.225,-152.465 359.349,-143.138"/>
<polygon fill="midnightblue" stroke="midnightblue" points="421.422,-179.472 431.907,-180.995 424.66,-173.266 421.422,-179.472"/>
</g>
<!-- Node15 -->
<g id="node34" class="node"><title>Node15</title>
<a xlink:href="workunit_8cpp.html" target="_top" xlink:title="This file has the implementation of the Mezzanine::Threading::DefaultWorkUnit.">
<polygon fill="white" stroke="black" points="449.5,-121 449.5,-143 520.5,-143 520.5,-121 449.5,-121"/>
<text text-anchor="middle" x="485" y="-130" font-family="FreeSans" font-size="10.00">workunit.cpp</text>
</a>
</g>
<!-- Node5&#45;&gt;Node15 -->
<g id="edge38" class="edge"><title>Node5&#45;&gt;Node15</title>
<path fill="none" stroke="midnightblue" d="M463.602,-172.121C468.701,-162.56 474.629,-151.446 478.95,-143.343"/>
<polygon fill="midnightblue" stroke="midnightblue" points="460.487,-170.524 458.869,-180.995 466.663,-173.819 460.487,-170.524"/>
</g>
<!-- Node6&#45;&gt;Node3 -->
<g id="edge20" class="edge"><title>Node6&#45;&gt;Node3</title>
<path fill="none" stroke="midnightblue" d="M729.436,-115.407C697.11,-94.4483 645.343,-60.9701 643,-60 589.313,-37.7678 523.837,-25.1986 478.147,-18.5502"/>
<polygon fill="midnightblue" stroke="midnightblue" points="727.686,-118.444 737.981,-120.949 731.495,-112.571 727.686,-118.444"/>
</g>
<!-- Node7 -->
<g id="node13" class="node"><title>Node7</title>
<a xlink:href="asynchronousfileloadingworkunit_8h.html" target="_top" xlink:title="The declaration of the AsynchronousFileLoadWorkUnit a workunit that loads a listing of files asynchro...">
<polygon fill="white" stroke="black" points="842,-61 842,-83 1012,-83 1012,-61 842,-61"/>
<text text-anchor="middle" x="927" y="-70" font-family="FreeSans" font-size="10.00">asynchronousfileloadingworkunit.h</text>
</a>
</g>
<!-- Node6&#45;&gt;Node7 -->
<g id="edge12" class="edge"><title>Node6&#45;&gt;Node7</title>
<path fill="none" stroke="midnightblue" d="M796.038,-117.684C826.495,-107.06 867.418,-92.7846 895.362,-83.0366"/>
<polygon fill="midnightblue" stroke="midnightblue" points="794.837,-114.397 786.547,-120.995 797.142,-121.006 794.837,-114.397"/>
</g>
<!-- Node9 -->
<g id="node18" class="node"><title>Node9</title>
<a xlink:href="asynchronousworkunit_8cpp.html" target="_top" xlink:title="Contains very little actually.">
<polygon fill="white" stroke="black" points="690,-61 690,-83 824,-83 824,-61 690,-61"/>
<text text-anchor="middle" x="757" y="-70" font-family="FreeSans" font-size="10.00">asynchronousworkunit.cpp</text>
</a>
</g>
<!-- Node6&#45;&gt;Node9 -->
<g id="edge18" class="edge"><title>Node6&#45;&gt;Node9</title>
<path fill="none" stroke="midnightblue" d="M755.703,-110.918C756.012,-101.639 756.363,-91.1082 756.622,-83.3428"/>
<polygon fill="midnightblue" stroke="midnightblue" points="752.202,-110.884 755.367,-120.995 759.198,-111.117 752.202,-110.884"/>
</g>
<!-- Node7&#45;&gt;Node3 -->
<g id="edge16" class="edge"><title>Node7&#45;&gt;Node3</title>
<path fill="none" stroke="midnightblue" d="M831.989,-59.8851C699.021,-43.6774 555.437,-27.1685 478.198,-18.3702"/>
<polygon fill="midnightblue" stroke="midnightblue" points="831.6,-63.3635 841.951,-61.1012 832.449,-56.4151 831.6,-63.3635"/>
</g>
<!-- Node8 -->
<g id="node15" class="node"><title>Node8</title>
<a xlink:href="asynchronousfileloadingworkunit_8cpp.html" target="_top" xlink:title="The implemtation of the AsynchronousFileLoadWorkUnit a workunit that loads a listing of files asynchr...">
<polygon fill="white" stroke="black" points="837,-1 837,-23 1017,-23 1017,-1 837,-1"/>
<text text-anchor="middle" x="927" y="-10" font-family="FreeSans" font-size="10.00">asynchronousfileloadingworkunit.cpp</text>
</a>
</g>
<!-- Node7&#45;&gt;Node8 -->
<g id="edge14" class="edge"><title>Node7&#45;&gt;Node8</title>
<path fill="none" stroke="midnightblue" d="M927,-50.9183C927,-41.6393 927,-31.1082 927,-23.3428"/>
<polygon fill="midnightblue" stroke="midnightblue" points="923.5,-50.995 927,-60.9951 930.5,-50.9951 923.5,-50.995"/>
</g>
<!-- Node10&#45;&gt;Node3 -->
<g id="edge24" class="edge"><title>Node10&#45;&gt;Node3</title>
<path fill="none" stroke="midnightblue" d="M549.777,-117.953C526.443,-110.366 499.979,-99.3364 479,-84 455.962,-67.1581 437.273,-38.6672 428.115,-23.0519"/>
<polygon fill="midnightblue" stroke="midnightblue" points="548.972,-121.368 559.56,-120.997 551.051,-114.684 548.972,-121.368"/>
</g>
<!-- Node11 -->
<g id="node24" class="node"><title>Node11</title>
<a xlink:href="frameschedulerworkunits_8cpp.html" target="_top" xlink:title="The implementation of any workunits the framescheduler needs to work correctly.">
<polygon fill="white" stroke="black" points="488,-61 488,-83 634,-83 634,-61 488,-61"/>
<text text-anchor="middle" x="561" y="-70" font-family="FreeSans" font-size="10.00">frameschedulerworkunits.cpp</text>
</a>
</g>
<!-- Node10&#45;&gt;Node11 -->
<g id="edge26" class="edge"><title>Node10&#45;&gt;Node11</title>
<path fill="none" stroke="midnightblue" d="M591.537,-112.717C584.269,-103.025 575.711,-91.6147 569.507,-83.3428"/>
<polygon fill="midnightblue" stroke="midnightblue" points="588.946,-115.095 597.746,-120.995 594.546,-110.895 588.946,-115.095"/>
</g>
<!-- Node12&#45;&gt;Node3 -->
<g id="edge30" class="edge"><title>Node12&#45;&gt;Node3</title>
<path fill="none" stroke="midnightblue" d="M351.686,-112.449C369.499,-87.0019 400.029,-43.3872 414.267,-23.0475"/>
<polygon fill="midnightblue" stroke="midnightblue" points="348.619,-110.726 345.752,-120.926 354.354,-114.741 348.619,-110.726"/>
</g>
<!-- Node12&#45;&gt;Node13 -->
<g id="edge32" class="edge"><title>Node12&#45;&gt;Node13</title>
<path fill="none" stroke="midnightblue" d="M304.899,-116.723C282.206,-106.249 252.615,-92.5916 232.133,-83.1383"/>
<polygon fill="midnightblue" stroke="midnightblue" points="303.61,-119.982 314.156,-120.995 306.543,-113.627 303.61,-119.982"/>
</g>
<!-- Node14 -->
<g id="node31" class="node"><title>Node14</title>
<a xlink:href="monopoly_8cpp.html" target="_top" xlink:title="Contains the minimal implementation for the monopoly base class.">
<polygon fill="white" stroke="black" points="277.5,-61 277.5,-83 356.5,-83 356.5,-61 277.5,-61"/>
<text text-anchor="middle" x="317" y="-70" font-family="FreeSans" font-size="10.00">monopoly.cpp</text>
</a>
</g>
<!-- Node12&#45;&gt;Node14 -->
<g id="edge34" class="edge"><title>Node12&#45;&gt;Node14</title>
<path fill="none" stroke="midnightblue" d="M330.833,-111.522C327.534,-102.098 323.747,-91.277 320.97,-83.3428"/>
<polygon fill="midnightblue" stroke="midnightblue" points="327.541,-112.713 334.148,-120.995 334.148,-110.4 327.541,-112.713"/>
</g>
</g>
</svg>
        <g id="navigator" transform="translate(0 0)" fill="#404254">
                <rect fill="#f2f5e9" fill-opacity="0.5" stroke="#606060" stroke-width=".5" x="0" y="0" width="60" height="60"/>
                <use id="zoomplus" xlink:href="#zoomPlus" x="17" y="9" onmousedown="handleZoom(evt,'in')"/>
                <use id="zoomminus" xlink:href="#zoomMin" x="42" y="9" onmousedown="handleZoom(evt,'out')"/>
                <use id="reset" xlink:href="#resetDef" x="30" y="36" onmousedown="handleReset()"/>
                <g id="arrowUp" xlink:href="#dirArrow" transform="translate(30 24)" onmousedown="handlePan(0,-1)">
                  <use xlink:href="#rim" fill="#404040">
                        <set attributeName="fill" to="#808080" begin="arrowUp.mouseover" end="arrowUp.mouseout"/>
                  </use>
                  <path fill="none" stroke="white" stroke-width="1.5" d="M0,-3.0v7 M-2.5,-0.5L0,-3.0L2.5,-0.5"/>
                </g>
                <g id="arrowRight" xlink:href="#dirArrow" transform="rotate(90) translate(36 -43)" onmousedown="handlePan(1,0)">
                  <use xlink:href="#rim" fill="#404040">
                        <set attributeName="fill" to="#808080" begin="arrowRight.mouseover" end="arrowRight.mouseout"/>
                  </use>
                  <path fill="none" stroke="white" stroke-width="1.5" d="M0,-3.0v7 M-2.5,-0.5L0,-3.0L2.5,-0.5"/>
                </g>
                <g id="arrowDown" xlink:href="#dirArrow" transform="rotate(180) translate(-30 -48)" onmousedown="handlePan(0,1)">
                  <use xlink:href="#rim" fill="#404040">
                        <set attributeName="fill" to="#808080" begin="arrowDown.mouseover" end="arrowDown.mouseout"/>
                  </use>
                  <path fill="none" stroke="white" stroke-width="1.5" d="M0,-3.0v7 M-2.5,-0.5L0,-3.0L2.5,-0.5"/>
                </g>
                <g id="arrowLeft" xlink:href="#dirArrow" transform="rotate(270) translate(-36 17)" onmousedown="handlePan(-1,0)">
                  <use xlink:href="#rim" fill="#404040">
                        <set attributeName="fill" to="#808080" begin="arrowLeft.mouseover" end="arrowLeft.mouseout"/>
                  </use>
                  <path fill="none" stroke="white" stroke-width="1.5" d="M0,-3.0v7 M-2.5,-0.5L0,-3.0L2.5,-0.5"/>
                </g>
        </g>
</svg>
