<?xml version="1.0" encoding="UTF-8" standalone="no"?>
<!DOCTYPE svg PUBLIC "-//W3C//DTD SVG 1.1//EN"
 "http://www.w3.org/Graphics/SVG/1.1/DTD/svg11.dtd">
<!-- Generated by graphviz version 2.26.3 (20100126.1600)
 -->
<!-- Title: G Pages: 1 -->
<!--zoomable 332 -->
<svg id="main" version="1.1" xmlns="http://www.w3.org/2000/svg" xmlns:xlink="http://www.w3.org/1999/xlink" xml:space="preserve" onload="init(evt)">
        <defs>
                <circle id="rim" cx="0" cy="0" r="7"/>
                <circle id="rim2" cx="0" cy="0" r="3.5"/>
                <g id="zoomPlus">
                        <use xlink:href="#rim" fill="#404040">
                                <set attributeName="fill" to="#808080" begin="zoomplus.mouseover" end="zoomplus.mouseout"/>
                        </use>
                        <path d="M-4,0h8M0,-4v8" fill="none" stroke="white" stroke-width="1.5" pointer-events="none"/>
                </g>
                <g id="zoomMin">
                        <use xlink:href="#rim" fill="#404040">
                                <set attributeName="fill" to="#808080" begin="zoomminus.mouseover" end="zoomminus.mouseout"/>
                        </use>
                        <path d="M-4,0h8" fill="none" stroke="white" stroke-width="1.5" pointer-events="none"/>
                </g>
                <g id="dirArrow">
                        <path fill="none" stroke="white" stroke-width="1.5" d="M0,-3.0v7 M-2.5,-0.5L0,-3.0L2.5,-0.5"/>
                </g>
               <g id="resetDef">
                       <use xlink:href="#rim2" fill="#404040">
                               <set attributeName="fill" to="#808080" begin="reset.mouseover" end="reset.mouseout"/>
                       </use>
               </g>
        </defs>

<script type="text/javascript">
var viewWidth = 513;
var viewHeight = 332;
var sectionId = 'dynsection-1';
</script>
<script xlink:href="svgpan.js"/>
<svg id="graph" class="graph">
<g id="viewport">
<title>G</title>
<polygon fill="white" stroke="white" points="-4,5 -4,-328 510,-328 510,5 -4,5"/>
<!-- Node1 -->
<g id="node1" class="node"><title>Node1</title>
<polygon fill="#bfbfbf" stroke="black" points="139.5,-301 139.5,-323 194.5,-323 194.5,-301 139.5,-301"/>
<text text-anchor="middle" x="167" y="-310" font-family="FreeSans" font-size="10.00">chrono.h</text>
</g>
<!-- Node2 -->
<g id="node3" class="node"><title>Node2</title>
<a xlink:href="chrono_8cpp.html" target="_top" xlink:title="This file defines some time&#45;tracking functions.">
<polygon fill="white" stroke="black" points="-0.5,-241 -0.5,-263 64.5,-263 64.5,-241 -0.5,-241"/>
<text text-anchor="middle" x="32" y="-250" font-family="FreeSans" font-size="10.00">chrono.cpp</text>
</a>
</g>
<!-- Node1&#45;&gt;Node2 -->
<g id="edge2" class="edge"><title>Node1&#45;&gt;Node2</title>
<path fill="none" stroke="midnightblue" d="M132.941,-296.863C109.335,-286.371 78.4261,-272.634 57.0613,-263.138"/>
<polygon fill="midnightblue" stroke="midnightblue" points="131.679,-300.132 142.239,-300.995 134.522,-293.735 131.679,-300.132"/>
</g>
<!-- Node3 -->
<g id="node5" class="node"><title>Node3</title>
<a xlink:href="dagframescheduler_8h.html" target="_top" xlink:title="This is the file that code using this library should include. It includes all the required components...">
<polygon fill="white" stroke="black" points="27,-121 27,-143 139,-143 139,-121 27,-121"/>
<text text-anchor="middle" x="83" y="-130" font-family="FreeSans" font-size="10.00">dagframescheduler.h</text>
</a>
</g>
<!-- Node1&#45;&gt;Node3 -->
<g id="edge4" class="edge"><title>Node1&#45;&gt;Node3</title>
<path fill="none" stroke="midnightblue" d="M155.82,-292.029C144.015,-270.59 125.186,-235.375 111,-204 101.496,-182.98 92.1236,-157.704 86.9959,-143.379"/>
<polygon fill="midnightblue" stroke="midnightblue" points="152.799,-293.797 160.708,-300.846 158.921,-290.403 152.799,-293.797"/>
</g>
<!-- Node4 -->
<g id="node7" class="node"><title>Node4</title>
<a xlink:href="thread_8h.html" target="_top" xlink:title="This file defines a minimalistic cross&#45;platform thread that the scheduler uses to schedule tasks...">
<polygon fill="white" stroke="black" points="204.5,-241 204.5,-263 257.5,-263 257.5,-241 204.5,-241"/>
<text text-anchor="middle" x="231" y="-250" font-family="FreeSans" font-size="10.00">thread.h</text>
</a>
</g>
<!-- Node1&#45;&gt;Node4 -->
<g id="edge6" class="edge"><title>Node1&#45;&gt;Node4</title>
<path fill="none" stroke="midnightblue" d="M186.313,-293.894C196.908,-283.961 209.718,-271.952 218.901,-263.343"/>
<polygon fill="midnightblue" stroke="midnightblue" points="183.64,-291.602 178.739,-300.995 188.428,-296.709 183.64,-291.602"/>
</g>
<!-- Node5 -->
<g id="node9" class="node"><title>Node5</title>
<a xlink:href="framescheduler_8h.html" target="_top" xlink:title="This file has the Declarations for the main FrameScheduler class.">
<polygon fill="white" stroke="black" points="120,-181 120,-203 214,-203 214,-181 120,-181"/>
<text text-anchor="middle" x="167" y="-190" font-family="FreeSans" font-size="10.00">framescheduler.h</text>
</a>
</g>
<!-- Node1&#45;&gt;Node5 -->
<g id="edge32" class="edge"><title>Node1&#45;&gt;Node5</title>
<path fill="none" stroke="midnightblue" d="M167,-290.749C167,-265.1 167,-222.941 167,-203.047"/>
<polygon fill="midnightblue" stroke="midnightblue" points="163.5,-290.926 167,-300.926 170.5,-290.926 163.5,-290.926"/>
</g>
<!-- Node12 -->
<g id="node25" class="node"><title>Node12</title>
<a xlink:href="workunit_8cpp.html" target="_top" xlink:title="This file has the implementation of the workunit.">
<polygon fill="white" stroke="black" points="434.5,-61 434.5,-83 505.5,-83 505.5,-61 434.5,-61"/>
<text text-anchor="middle" x="470" y="-70" font-family="FreeSans" font-size="10.00">workunit.cpp</text>
</a>
</g>
<!-- Node1&#45;&gt;Node12 -->
<g id="edge34" class="edge"><title>Node1&#45;&gt;Node12</title>
<path fill="none" stroke="midnightblue" d="M203.224,-296.789C222.431,-288.147 246.103,-276.561 266,-264 352.366,-209.479 434.312,-115.207 460.973,-83.0888"/>
<polygon fill="midnightblue" stroke="midnightblue" points="201.641,-293.662 193.911,-300.908 204.473,-300.064 201.641,-293.662"/>
</g>
<!-- Node4&#45;&gt;Node5 -->
<g id="edge8" class="edge"><title>Node4&#45;&gt;Node5</title>
<path fill="none" stroke="midnightblue" d="M211.687,-233.894C201.092,-223.961 188.282,-211.952 179.099,-203.343"/>
<polygon fill="midnightblue" stroke="midnightblue" points="209.572,-236.709 219.261,-240.995 214.36,-231.602 209.572,-236.709"/>
</g>
<!-- Node7 -->
<g id="node14" class="node"><title>Node7</title>
<a xlink:href="workunit_8h.html" target="_top" xlink:title="This file has the defintion of the workunit.">
<polygon fill="white" stroke="black" points="211.5,-121 211.5,-143 272.5,-143 272.5,-121 211.5,-121"/>
<text text-anchor="middle" x="242" y="-130" font-family="FreeSans" font-size="10.00">workunit.h</text>
</a>
</g>
<!-- Node4&#45;&gt;Node7 -->
<g id="edge28" class="edge"><title>Node4&#45;&gt;Node7</title>
<path fill="none" stroke="midnightblue" d="M232.948,-230.749C235.299,-205.1 239.164,-162.941 240.987,-143.047"/>
<polygon fill="midnightblue" stroke="midnightblue" points="229.443,-230.648 232.015,-240.926 236.413,-231.287 229.443,-230.648"/>
</g>
<!-- Node13 -->
<g id="node28" class="node"><title>Node13</title>
<a xlink:href="thread_8cpp.html" target="_top" xlink:title="This file implements a minimalistic cross&#45;platform thread that the scheduler uses to schedule tasks...">
<polygon fill="white" stroke="black" points="269.5,-181 269.5,-203 332.5,-203 332.5,-181 269.5,-181"/>
<text text-anchor="middle" x="301" y="-190" font-family="FreeSans" font-size="10.00">thread.cpp</text>
</a>
</g>
<!-- Node4&#45;&gt;Node13 -->
<g id="edge30" class="edge"><title>Node4&#45;&gt;Node13</title>
<path fill="none" stroke="midnightblue" d="M251.444,-234.476C263.161,-224.434 277.525,-212.121 287.767,-203.343"/>
<polygon fill="midnightblue" stroke="midnightblue" points="249.154,-231.83 243.839,-240.995 253.709,-237.145 249.154,-231.83"/>
</g>
<!-- Node5&#45;&gt;Node3 -->
<g id="edge10" class="edge"><title>Node5&#45;&gt;Node3</title>
<path fill="none" stroke="midnightblue" d="M143.218,-175.013C128.917,-164.798 111.119,-152.085 98.5937,-143.138"/>
<polygon fill="midnightblue" stroke="midnightblue" points="141.421,-178.031 151.593,-180.995 145.49,-172.335 141.421,-178.031"/>
</g>
<!-- Node6 -->
<g id="node12" class="node"><title>Node6</title>
<a xlink:href="framescheduler_8cpp.html" target="_top" xlink:title="This is the core object implementation for this algorithm.">
<polygon fill="white" stroke="black" points="92,-1 92,-23 196,-23 196,-1 92,-1"/>
<text text-anchor="middle" x="144" y="-10" font-family="FreeSans" font-size="10.00">framescheduler.cpp</text>
</a>
</g>
<!-- Node5&#45;&gt;Node6 -->
<g id="edge12" class="edge"><title>Node5&#45;&gt;Node6</title>
<path fill="none" stroke="midnightblue" d="M164.272,-170.65C159.362,-132.221 149.197,-52.672 145.438,-23.2556"/>
<polygon fill="midnightblue" stroke="midnightblue" points="160.822,-171.264 165.561,-180.74 167.765,-170.377 160.822,-171.264"/>
</g>
<!-- Node5&#45;&gt;Node7 -->
<g id="edge14" class="edge"><title>Node5&#45;&gt;Node7</title>
<path fill="none" stroke="midnightblue" d="M188.596,-174.723C201.302,-164.558 216.999,-152.001 228.077,-143.138"/>
<polygon fill="midnightblue" stroke="midnightblue" points="186.378,-172.015 180.756,-180.995 190.751,-177.481 186.378,-172.015"/>
</g>
<!-- Node8 -->
<g id="node16" class="node"><title>Node8</title>
<a xlink:href="monopoly_8h.html" target="_top" xlink:title="Contains an interface for a kind of WorkUnit that consumes time on multiple thread.">
<polygon fill="white" stroke="black" points="195,-61 195,-83 263,-83 263,-61 195,-61"/>
<text text-anchor="middle" x="229" y="-70" font-family="FreeSans" font-size="10.00">monopoly.h</text>
</a>
</g>
<!-- Node7&#45;&gt;Node8 -->
<g id="edge16" class="edge"><title>Node7&#45;&gt;Node8</title>
<path fill="none" stroke="midnightblue" d="M237.498,-111.22C235.472,-101.869 233.158,-91.1926 231.458,-83.3428"/>
<polygon fill="midnightblue" stroke="midnightblue" points="234.077,-111.963 239.616,-120.995 240.919,-110.481 234.077,-111.963"/>
</g>
<!-- Node10 -->
<g id="node21" class="node"><title>Node10</title>
<a xlink:href="frameschedulerworkunits_8h.html" target="_top" xlink:title="This defines a number of workunits that are required for doing some tasks that the Framescheduler req...">
<polygon fill="white" stroke="black" points="281,-61 281,-83 417,-83 417,-61 281,-61"/>
<text text-anchor="middle" x="349" y="-70" font-family="FreeSans" font-size="10.00">frameschedulerworkunits.h</text>
</a>
</g>
<!-- Node7&#45;&gt;Node10 -->
<g id="edge22" class="edge"><title>Node7&#45;&gt;Node10</title>
<path fill="none" stroke="midnightblue" d="M270.504,-116.017C289.006,-105.641 312.655,-92.3806 329.137,-83.1383"/>
<polygon fill="midnightblue" stroke="midnightblue" points="268.636,-113.051 261.625,-120.995 272.06,-119.157 268.636,-113.051"/>
</g>
<!-- Node7&#45;&gt;Node12 -->
<g id="edge26" class="edge"><title>Node7&#45;&gt;Node12</title>
<path fill="none" stroke="midnightblue" d="M282.613,-121.543C319.92,-111.905 376.725,-97.146 426,-84 428.754,-83.2652 431.604,-82.4998 434.468,-81.7269"/>
<polygon fill="midnightblue" stroke="midnightblue" points="281.438,-118.231 272.631,-124.12 283.188,-125.009 281.438,-118.231"/>
</g>
<!-- Node8&#45;&gt;Node6 -->
<g id="edge18" class="edge"><title>Node8&#45;&gt;Node6</title>
<path fill="none" stroke="midnightblue" d="M204.935,-55.0132C190.463,-44.7977 172.454,-32.0852 159.779,-23.1383"/>
<polygon fill="midnightblue" stroke="midnightblue" points="203.222,-58.0876 213.41,-60.9951 207.258,-52.3688 203.222,-58.0876"/>
</g>
<!-- Node9 -->
<g id="node19" class="node"><title>Node9</title>
<a xlink:href="monopoly_8cpp.html" target="_top" xlink:title="Contains the minimal implementation for the monopoly base class.">
<polygon fill="white" stroke="black" points="213.5,-1 213.5,-23 292.5,-23 292.5,-1 213.5,-1"/>
<text text-anchor="middle" x="253" y="-10" font-family="FreeSans" font-size="10.00">monopoly.cpp</text>
</a>
</g>
<!-- Node8&#45;&gt;Node9 -->
<g id="edge20" class="edge"><title>Node8&#45;&gt;Node9</title>
<path fill="none" stroke="midnightblue" d="M237.191,-51.5216C240.961,-42.0985 245.289,-31.277 248.463,-23.3428"/>
<polygon fill="midnightblue" stroke="midnightblue" points="233.866,-50.4104 233.402,-60.9951 240.366,-53.0102 233.866,-50.4104"/>
</g>
<!-- Node11 -->
<g id="node23" class="node"><title>Node11</title>
<a xlink:href="frameschedulerworkunits_8cpp.html" target="_top" xlink:title="The implementation of any workunits the framescheduler needs to work correctly.">
<polygon fill="white" stroke="black" points="310,-1 310,-23 456,-23 456,-1 310,-1"/>
<text text-anchor="middle" x="383" y="-10" font-family="FreeSans" font-size="10.00">frameschedulerworkunits.cpp</text>
</a>
</g>
<!-- Node10&#45;&gt;Node11 -->
<g id="edge24" class="edge"><title>Node10&#45;&gt;Node11</title>
<path fill="none" stroke="midnightblue" d="M360.265,-52.1211C365.683,-42.5603 371.981,-31.4459 376.572,-23.3428"/>
<polygon fill="midnightblue" stroke="midnightblue" points="357.121,-50.5693 355.236,-60.9951 363.211,-54.0204 357.121,-50.5693"/>
</g>
</g>
</svg>
        <g id="navigator" transform="translate(0 0)" fill="#404254">
                <rect fill="#f2f5e9" fill-opacity="0.5" stroke="#606060" stroke-width=".5" x="0" y="0" width="60" height="60"/>
                <use id="zoomplus" xlink:href="#zoomPlus" x="17" y="9" onmousedown="handleZoom(evt,'in')"/>
                <use id="zoomminus" xlink:href="#zoomMin" x="42" y="9" onmousedown="handleZoom(evt,'out')"/>
                <use id="reset" xlink:href="#resetDef" x="30" y="36" onmousedown="handleReset()"/>
                <g id="arrowUp" xlink:href="#dirArrow" transform="translate(30 24)" onmousedown="handlePan(0,-1)">
                  <use xlink:href="#rim" fill="#404040">
                        <set attributeName="fill" to="#808080" begin="arrowUp.mouseover" end="arrowUp.mouseout"/>
                  </use>
                  <path fill="none" stroke="white" stroke-width="1.5" d="M0,-3.0v7 M-2.5,-0.5L0,-3.0L2.5,-0.5"/>
                </g>
                <g id="arrowRight" xlink:href="#dirArrow" transform="rotate(90) translate(36 -43)" onmousedown="handlePan(1,0)">
                  <use xlink:href="#rim" fill="#404040">
                        <set attributeName="fill" to="#808080" begin="arrowRight.mouseover" end="arrowRight.mouseout"/>
                  </use>
                  <path fill="none" stroke="white" stroke-width="1.5" d="M0,-3.0v7 M-2.5,-0.5L0,-3.0L2.5,-0.5"/>
                </g>
                <g id="arrowDown" xlink:href="#dirArrow" transform="rotate(180) translate(-30 -48)" onmousedown="handlePan(0,1)">
                  <use xlink:href="#rim" fill="#404040">
                        <set attributeName="fill" to="#808080" begin="arrowDown.mouseover" end="arrowDown.mouseout"/>
                  </use>
                  <path fill="none" stroke="white" stroke-width="1.5" d="M0,-3.0v7 M-2.5,-0.5L0,-3.0L2.5,-0.5"/>
                </g>
                <g id="arrowLeft" xlink:href="#dirArrow" transform="rotate(270) translate(-36 17)" onmousedown="handlePan(-1,0)">
                  <use xlink:href="#rim" fill="#404040">
                        <set attributeName="fill" to="#808080" begin="arrowLeft.mouseover" end="arrowLeft.mouseout"/>
                  </use>
                  <path fill="none" stroke="white" stroke-width="1.5" d="M0,-3.0v7 M-2.5,-0.5L0,-3.0L2.5,-0.5"/>
                </g>
        </g>
</svg>
