<?xml version="1.0" encoding="UTF-8" standalone="no"?>
<!DOCTYPE svg PUBLIC "-//W3C//DTD SVG 1.1//EN"
 "http://www.w3.org/Graphics/SVG/1.1/DTD/svg11.dtd">
<!-- Generated by graphviz version 2.26.3 (20100126.1600)
 -->
<!-- Title: G Pages: 1 -->
<!--zoomable 300 -->
<svg id="main" version="1.1" xmlns="http://www.w3.org/2000/svg" xmlns:xlink="http://www.w3.org/1999/xlink" xml:space="preserve" onload="init(evt)">
        <defs>
                <circle id="rim" cx="0" cy="0" r="7"/>
                <circle id="rim2" cx="0" cy="0" r="3.5"/>
                <g id="zoomPlus">
                        <use xlink:href="#rim" fill="#404040">
                                <set attributeName="fill" to="#808080" begin="zoomplus.mouseover" end="zoomplus.mouseout"/>
                        </use>
                        <path d="M-4,0h8M0,-4v8" fill="none" stroke="white" stroke-width="1.5" pointer-events="none"/>
                </g>
                <g id="zoomMin">
                        <use xlink:href="#rim" fill="#404040">
                                <set attributeName="fill" to="#808080" begin="zoomminus.mouseover" end="zoomminus.mouseout"/>
                        </use>
                        <path d="M-4,0h8" fill="none" stroke="white" stroke-width="1.5" pointer-events="none"/>
                </g>
                <g id="dirArrow">
                        <path fill="none" stroke="white" stroke-width="1.5" d="M0,-3.0v7 M-2.5,-0.5L0,-3.0L2.5,-0.5"/>
                </g>
               <g id="resetDef">
                       <use xlink:href="#rim2" fill="#404040">
                               <set attributeName="fill" to="#808080" begin="reset.mouseover" end="reset.mouseout"/>
                       </use>
               </g>
        </defs>

<script type="text/javascript">
var viewWidth = 1470;
var viewHeight = 300;
var sectionId = 'dynsection-0';
</script>
<script xlink:href="svgpan.js"/>
<svg id="graph" class="graph">
<g id="viewport">
<title>G</title>
<polygon fill="white" stroke="white" points="-4,5 -4,-296 1467,-296 1467,5 -4,5"/>
<!-- Node1 -->
<g id="node1" class="node"><title>Node1</title>
<polygon fill="#bfbfbf" stroke="black" points="1262,-97 1262,-119 1462,-119 1462,-97 1262,-97"/>
<text text-anchor="middle" x="1362" y="-106" font-family="FreeSans" font-size="10.00">Mezzanine::Threading::FrameScheduler</text>
</g>
<!-- Node2 -->
<g id="node2" class="node"><title>Node2</title>
<polygon fill="white" stroke="#bfbfbf" points="920,-240 920,-262 1144,-262 1144,-240 920,-240"/>
<text text-anchor="middle" x="1032" y="-249" font-family="FreeSans" font-size="10.00">std::map&lt; WorkUnit *, std::set&lt; WorkUnit * &gt; &gt;</text>
</g>
<!-- Node2&#45;&gt;Node1 -->
<g id="edge2" class="edge"><title>Node2&#45;&gt;Node1</title>
<path fill="none" stroke="#9a32cd" stroke-dasharray="5,2" d="M1090.42,-237.468C1133.93,-226.289 1194.17,-208.457 1244,-185 1284.06,-166.142 1326.46,-135.458 1347.87,-119.099"/>
<polygon fill="#9a32cd" stroke="#9a32cd" points="1089.4,-234.114 1080.57,-239.958 1091.12,-240.9 1089.4,-234.114"/>
<text text-anchor="middle" x="1203" y="-220" font-family="FreeSans" font-size="10.00"> DependentGraph</text>
</g>
<!-- Node3 -->
<g id="node4" class="node"><title>Node3</title>
<polygon fill="white" stroke="#bfbfbf" points="666,-240 666,-262 780,-262 780,-240 666,-240"/>
<text text-anchor="middle" x="723" y="-249" font-family="FreeSans" font-size="10.00">std::set&lt; WorkUnit * &gt;</text>
</g>
<!-- Node3&#45;&gt;Node2 -->
<g id="edge4" class="edge"><title>Node3&#45;&gt;Node2</title>
<path fill="none" stroke="#9a32cd" stroke-dasharray="5,2" d="M790.429,-251C828.296,-251 876.524,-251 919.914,-251"/>
<polygon fill="#9a32cd" stroke="#9a32cd" points="790.035,-247.5 780.035,-251 790.035,-254.5 790.035,-247.5"/>
<text text-anchor="middle" x="879" y="-256" font-family="FreeSans" font-size="10.00"> elements</text>
</g>
<!-- Node4 -->
<g id="node6" class="node"><title>Node4</title>
<a xlink:href="classMezzanine_1_1Threading_1_1WorkUnit.html" target="_top" xlink:title="Default implementation of WorkUnit. This represents on piece of work through time.">
<polygon fill="white" stroke="black" points="336.5,-201 336.5,-223 501.5,-223 501.5,-201 336.5,-201"/>
<text text-anchor="middle" x="419" y="-210" font-family="FreeSans" font-size="10.00">Mezzanine::Threading::WorkUnit</text>
</a>
</g>
<!-- Node4&#45;&gt;Node2 -->
<g id="edge14" class="edge"><title>Node4&#45;&gt;Node2</title>
<path fill="none" stroke="#9a32cd" stroke-dasharray="5,2" d="M450.019,-227.338C469.667,-236.513 495.84,-247.759 520,-255 558.079,-266.412 568.408,-267.43 608,-271 738.142,-282.735 771.796,-280.017 902,-269 921.639,-267.338 942.848,-264.744 962.324,-262.038"/>
<polygon fill="#9a32cd" stroke="#9a32cd" points="451.47,-224.152 440.936,-223.027 448.469,-230.476 451.47,-224.152"/>
<text text-anchor="middle" x="723" y="-283" font-family="FreeSans" font-size="10.00"> keys</text>
</g>
<!-- Node4&#45;&gt;Node3 -->
<g id="edge6" class="edge"><title>Node4&#45;&gt;Node3</title>
<path fill="none" stroke="#9a32cd" stroke-dasharray="5,2" d="M490.956,-224.643C500.704,-226.2 510.588,-227.699 520,-229 568.986,-235.771 624.864,-241.695 665.576,-245.685"/>
<polygon fill="#9a32cd" stroke="#9a32cd" points="491.303,-221.154 480.872,-223.005 490.181,-228.064 491.303,-221.154"/>
<text text-anchor="middle" x="555" y="-242" font-family="FreeSans" font-size="10.00"> keys</text>
</g>
<!-- Node5 -->
<g id="node8" class="node"><title>Node5</title>
<polygon fill="white" stroke="#bfbfbf" points="659,-200 659,-222 787,-222 787,-200 659,-200"/>
<text text-anchor="middle" x="723" y="-209" font-family="FreeSans" font-size="10.00">std::vector&lt; WorkUnit * &gt;</text>
</g>
<!-- Node4&#45;&gt;Node5 -->
<g id="edge10" class="edge"><title>Node4&#45;&gt;Node5</title>
<path fill="none" stroke="#9a32cd" stroke-dasharray="5,2" d="M511.965,-211.694C559.453,-211.538 616.044,-211.352 658.664,-211.212"/>
<polygon fill="#9a32cd" stroke="#9a32cd" points="511.656,-208.195 501.668,-211.728 511.679,-215.195 511.656,-208.195"/>
<text text-anchor="middle" x="555" y="-216" font-family="FreeSans" font-size="10.00"> elements</text>
</g>
<!-- Node10 -->
<g id="node20" class="node"><title>Node10</title>
<a xlink:href="classMezzanine_1_1Threading_1_1MonopolyWorkUnit.html" target="_top" xlink:title="A kind of workunit given exclusive runtime so it can consume time on multiple threads.">
<polygon fill="white" stroke="black" points="618.5,-160 618.5,-182 827.5,-182 827.5,-160 618.5,-160"/>
<text text-anchor="middle" x="723" y="-169" font-family="FreeSans" font-size="10.00">Mezzanine::Threading::MonopolyWorkUnit</text>
</a>
</g>
<!-- Node4&#45;&gt;Node10 -->
<g id="edge24" class="edge"><title>Node4&#45;&gt;Node10</title>
<path fill="none" stroke="midnightblue" d="M471.465,-198.635C487.006,-195.061 504.116,-191.501 520,-189 551.805,-183.992 586.65,-180.27 618.354,-177.553"/>
<polygon fill="midnightblue" stroke="midnightblue" points="470.442,-195.28 461.507,-200.974 472.043,-202.094 470.442,-195.28"/>
</g>
<!-- Node14 -->
<g id="node29" class="node"><title>Node14</title>
<a xlink:href="classMezzanine_1_1Threading_1_1WorkUnitKey.html" target="_top" xlink:title="Stores data about a single work unit so that it can easily be sorted.">
<polygon fill="white" stroke="black" points="632,-120 632,-142 814,-142 814,-120 632,-120"/>
<text text-anchor="middle" x="723" y="-129" font-family="FreeSans" font-size="10.00">Mezzanine::Threading::WorkUnitKey</text>
</a>
</g>
<!-- Node4&#45;&gt;Node14 -->
<g id="edge34" class="edge"><title>Node4&#45;&gt;Node14</title>
<path fill="none" stroke="#9a32cd" stroke-dasharray="5,2" d="M446.026,-195.753C465.836,-184.567 493.744,-170.284 520,-162 555.785,-150.71 596.458,-143.464 631.951,-138.844"/>
<polygon fill="#9a32cd" stroke="#9a32cd" points="444.182,-192.775 437.262,-200.797 447.674,-198.842 444.182,-192.775"/>
<text text-anchor="middle" x="555" y="-167" font-family="FreeSans" font-size="10.00"> Unit</text>
</g>
<!-- Node5&#45;&gt;Node4 -->
<g id="edge8" class="edge"><title>Node5&#45;&gt;Node4</title>
<path fill="none" stroke="#9a32cd" stroke-dasharray="5,2" d="M648.909,-199.392C610.445,-194.827 562.688,-191.433 520,-195 505.116,-196.244 489.125,-198.502 474.356,-200.974"/>
<polygon fill="#9a32cd" stroke="#9a32cd" points="648.633,-202.884 658.988,-200.639 649.494,-195.937 648.633,-202.884"/>
<text text-anchor="middle" x="555" y="-200" font-family="FreeSans" font-size="10.00"> Dependencies</text>
</g>
<!-- Node6 -->
<g id="node11" class="node"><title>Node6</title>
<a xlink:href="structMezzanine_1_1DefaultRollingAverage.html" target="_top" xlink:title="Mezzanine::DefaultRollingAverage\&lt; Whole \&gt;">
<polygon fill="white" stroke="black" points="0.5,-201 0.5,-223 221.5,-223 221.5,-201 0.5,-201"/>
<text text-anchor="middle" x="111" y="-210" font-family="FreeSans" font-size="10.00">Mezzanine::DefaultRollingAverage&lt; Whole &gt;</text>
</a>
</g>
<!-- Node6&#45;&gt;Node4 -->
<g id="edge12" class="edge"><title>Node6&#45;&gt;Node4</title>
<path fill="none" stroke="#9a32cd" stroke-dasharray="5,2" d="M232.024,-212C266.943,-212 304.235,-212 336.255,-212"/>
<polygon fill="#9a32cd" stroke="#9a32cd" points="231.76,-208.5 221.76,-212 231.76,-215.5 231.76,-208.5"/>
<text text-anchor="middle" x="279" y="-217" font-family="FreeSans" font-size="10.00"> PerformanceLog</text>
</g>
<!-- Node7 -->
<g id="node14" class="node"><title>Node7</title>
<polygon fill="white" stroke="#bfbfbf" points="973.5,-80 973.5,-102 1090.5,-102 1090.5,-80 973.5,-80"/>
<text text-anchor="middle" x="1032" y="-89" font-family="FreeSans" font-size="10.00">std::vector&lt; thread * &gt;</text>
</g>
<!-- Node7&#45;&gt;Node1 -->
<g id="edge16" class="edge"><title>Node7&#45;&gt;Node1</title>
<path fill="none" stroke="#9a32cd" stroke-dasharray="5,2" d="M1100.58,-88.5197C1142.14,-87.6335 1196.18,-87.573 1244,-91 1261.34,-92.2428 1280.01,-94.5003 1297.26,-96.9728"/>
<polygon fill="#9a32cd" stroke="#9a32cd" points="1100.49,-85.0209 1090.57,-88.7543 1100.65,-92.019 1100.49,-85.0209"/>
<text text-anchor="middle" x="1203" y="-96" font-family="FreeSans" font-size="10.00"> Threads</text>
</g>
<!-- Node8 -->
<g id="node16" class="node"><title>Node8</title>
<a xlink:href="classMezzanine_1_1Threading_1_1thread.html" target="_top" xlink:title="A small wrapper around the system thread.">
<polygon fill="white" stroke="black" points="646,-80 646,-102 800,-102 800,-80 646,-80"/>
<text text-anchor="middle" x="723" y="-89" font-family="FreeSans" font-size="10.00">Mezzanine::Threading::thread</text>
</a>
</g>
<!-- Node8&#45;&gt;Node7 -->
<g id="edge18" class="edge"><title>Node8&#45;&gt;Node7</title>
<path fill="none" stroke="#9a32cd" stroke-dasharray="5,2" d="M810.419,-91C862.517,-91 927.245,-91 973.26,-91"/>
<polygon fill="#9a32cd" stroke="#9a32cd" points="810.177,-87.5001 800.177,-91 810.177,-94.5001 810.177,-87.5001"/>
<text text-anchor="middle" x="879" y="-96" font-family="FreeSans" font-size="10.00"> elements</text>
</g>
<!-- Node9 -->
<g id="node18" class="node"><title>Node9</title>
<polygon fill="white" stroke="#bfbfbf" points="945.5,-166 945.5,-188 1118.5,-188 1118.5,-166 945.5,-166"/>
<text text-anchor="middle" x="1032" y="-175" font-family="FreeSans" font-size="10.00">std::vector&lt; MonopolyWorkUnit * &gt;</text>
</g>
<!-- Node9&#45;&gt;Node1 -->
<g id="edge20" class="edge"><title>Node9&#45;&gt;Node1</title>
<path fill="none" stroke="#9a32cd" stroke-dasharray="5,2" d="M1128.87,-171.195C1165.32,-167.667 1206.91,-162.02 1244,-153 1277.66,-144.815 1314.72,-129.592 1338.16,-119.136"/>
<polygon fill="#9a32cd" stroke="#9a32cd" points="1128.37,-167.726 1118.73,-172.135 1129.01,-174.696 1128.37,-167.726"/>
<text text-anchor="middle" x="1203" y="-172" font-family="FreeSans" font-size="10.00"> Monopolies</text>
</g>
<!-- Node10&#45;&gt;Node9 -->
<g id="edge22" class="edge"><title>Node10&#45;&gt;Node9</title>
<path fill="none" stroke="#9a32cd" stroke-dasharray="5,2" d="M838.051,-173.234C873.621,-173.925 912.179,-174.673 945.477,-175.32"/>
<polygon fill="#9a32cd" stroke="#9a32cd" points="837.679,-169.726 827.613,-173.031 837.543,-176.725 837.679,-169.726"/>
<text text-anchor="middle" x="879" y="-179" font-family="FreeSans" font-size="10.00"> elements</text>
</g>
<!-- Node11 -->
<g id="node23" class="node"><title>Node11</title>
<polygon fill="white" stroke="#bfbfbf" points="935,-40 935,-62 1129,-62 1129,-40 935,-40"/>
<text text-anchor="middle" x="1032" y="-49" font-family="FreeSans" font-size="10.00">std::vector&lt; ThreadSpecificStorage * &gt;</text>
</g>
<!-- Node11&#45;&gt;Node1 -->
<g id="edge26" class="edge"><title>Node11&#45;&gt;Node1</title>
<path fill="none" stroke="#9a32cd" stroke-dasharray="5,2" d="M1139.55,-55.9863C1173.22,-58.7884 1210.36,-63.1648 1244,-70 1275.43,-76.3856 1310.24,-88.2108 1333.86,-96.9805"/>
<polygon fill="#9a32cd" stroke="#9a32cd" points="1139.47,-52.4687 1129.22,-55.1663 1138.91,-59.4467 1139.47,-52.4687"/>
<text text-anchor="middle" x="1203" y="-75" font-family="FreeSans" font-size="10.00"> Resources</text>
</g>
<!-- Node12 -->
<g id="node25" class="node"><title>Node12</title>
<a xlink:href="classMezzanine_1_1Threading_1_1ThreadSpecificStorage.html" target="_top" xlink:title="A threadspecific collection of double&#45;buffered and algorithm specific resources.">
<polygon fill="white" stroke="black" points="608,-40 608,-62 838,-62 838,-40 608,-40"/>
<text text-anchor="middle" x="723" y="-49" font-family="FreeSans" font-size="10.00">Mezzanine::Threading::ThreadSpecificStorage</text>
</a>
</g>
<!-- Node12&#45;&gt;Node11 -->
<g id="edge28" class="edge"><title>Node12&#45;&gt;Node11</title>
<path fill="none" stroke="#9a32cd" stroke-dasharray="5,2" d="M848.177,-51C876.963,-51 907.16,-51 934.568,-51"/>
<polygon fill="#9a32cd" stroke="#9a32cd" points="848.06,-47.5001 838.06,-51 848.06,-54.5001 848.06,-47.5001"/>
<text text-anchor="middle" x="879" y="-56" font-family="FreeSans" font-size="10.00"> elements</text>
</g>
<!-- Node13 -->
<g id="node27" class="node"><title>Node13</title>
<polygon fill="white" stroke="#bfbfbf" points="962.5,-120 962.5,-142 1101.5,-142 1101.5,-120 962.5,-120"/>
<text text-anchor="middle" x="1032" y="-129" font-family="FreeSans" font-size="10.00">std::vector&lt; WorkUnitKey &gt;</text>
</g>
<!-- Node13&#45;&gt;Node1 -->
<g id="edge30" class="edge"><title>Node13&#45;&gt;Node1</title>
<path fill="none" stroke="#9a32cd" stroke-dasharray="5,2" d="M1111.61,-125.451C1156.76,-122.305 1213.68,-118.338 1261.83,-114.981"/>
<polygon fill="#9a32cd" stroke="#9a32cd" points="1111.31,-121.963 1101.58,-126.15 1111.8,-128.947 1111.31,-121.963"/>
<text text-anchor="middle" x="1203" y="-140" font-family="FreeSans" font-size="10.00"> WorkUnitsMain</text>
<text text-anchor="middle" x="1203" y="-126" font-family="FreeSans" font-size="10.00">WorkUnitAffinity</text>
</g>
<!-- Node14&#45;&gt;Node13 -->
<g id="edge32" class="edge"><title>Node14&#45;&gt;Node13</title>
<path fill="none" stroke="#9a32cd" stroke-dasharray="5,2" d="M824.162,-131C869.341,-131 921.455,-131 962.197,-131"/>
<polygon fill="#9a32cd" stroke="#9a32cd" points="824.039,-127.5 814.039,-131 824.039,-134.5 824.039,-127.5"/>
<text text-anchor="middle" x="879" y="-136" font-family="FreeSans" font-size="10.00"> elements</text>
</g>
<!-- Node15 -->
<g id="node32" class="node"><title>Node15</title>
<a xlink:title="STL class.">
<polygon fill="white" stroke="#bfbfbf" points="995.5,-0 995.5,-22 1068.5,-22 1068.5,-0 995.5,-0"/>
<text text-anchor="middle" x="1032" y="-9" font-family="FreeSans" font-size="10.00">std::ostream</text>
</a>
</g>
<!-- Node15&#45;&gt;Node1 -->
<g id="edge36" class="edge"><title>Node15&#45;&gt;Node1</title>
<path fill="none" stroke="#9a32cd" stroke-dasharray="5,2" d="M1078.68,-12.238C1122.44,-14.5878 1189.17,-21.2566 1244,-40 1284.05,-53.6893 1325.78,-81.4806 1347.27,-96.9604"/>
<polygon fill="#9a32cd" stroke="#9a32cd" points="1078.77,-8.73843 1068.61,-11.7521 1078.43,-15.7303 1078.77,-8.73843"/>
<text text-anchor="middle" x="1203" y="-45" font-family="FreeSans" font-size="10.00"> LogDestination</text>
</g>
<!-- Node16 -->
<g id="node34" class="node"><title>Node16</title>
<a xlink:title="STL class.">
<polygon fill="white" stroke="#bfbfbf" points="653,-0 653,-22 793,-22 793,-0 653,-0"/>
<text text-anchor="middle" x="723" y="-9" font-family="FreeSans" font-size="10.00">std::basic_ostream&lt; char &gt;</text>
</a>
</g>
<!-- Node16&#45;&gt;Node15 -->
<g id="edge38" class="edge"><title>Node16&#45;&gt;Node15</title>
<path fill="none" stroke="midnightblue" d="M803.275,-11C865.326,-11 948.328,-11 995.381,-11"/>
<polygon fill="midnightblue" stroke="midnightblue" points="803.117,-7.5001 793.117,-11 803.117,-14.5001 803.117,-7.5001"/>
</g>
<!-- Node17 -->
<g id="node36" class="node"><title>Node17</title>
<a xlink:title="STL class.">
<polygon fill="white" stroke="#bfbfbf" points="359.5,-0 359.5,-22 478.5,-22 478.5,-0 359.5,-0"/>
<text text-anchor="middle" x="419" y="-9" font-family="FreeSans" font-size="10.00">std::basic_ios&lt; Char &gt;</text>
</a>
</g>
<!-- Node17&#45;&gt;Node16 -->
<g id="edge40" class="edge"><title>Node17&#45;&gt;Node16</title>
<path fill="none" stroke="midnightblue" d="M488.925,-11C538.07,-11 603.566,-11 652.777,-11"/>
<polygon fill="midnightblue" stroke="midnightblue" points="488.698,-7.5001 478.698,-11 488.698,-14.5001 488.698,-7.5001"/>
</g>
<!-- Node18 -->
<g id="node38" class="node"><title>Node18</title>
<a xlink:title="STL class.">
<polygon fill="white" stroke="#bfbfbf" points="72.5,-0 72.5,-22 149.5,-22 149.5,-0 72.5,-0"/>
<text text-anchor="middle" x="111" y="-9" font-family="FreeSans" font-size="10.00">std::ios_base</text>
</a>
</g>
<!-- Node18&#45;&gt;Node17 -->
<g id="edge42" class="edge"><title>Node18&#45;&gt;Node17</title>
<path fill="none" stroke="midnightblue" d="M159.726,-11C213.829,-11 301.183,-11 359.338,-11"/>
<polygon fill="midnightblue" stroke="midnightblue" points="159.697,-7.5001 149.697,-11 159.697,-14.5001 159.697,-7.5001"/>
</g>
</g>
</svg>
        <g id="navigator" transform="translate(0 0)" fill="#404254">
                <rect fill="#f2f5e9" fill-opacity="0.5" stroke="#606060" stroke-width=".5" x="0" y="0" width="60" height="60"/>
                <use id="zoomplus" xlink:href="#zoomPlus" x="17" y="9" onmousedown="handleZoom(evt,'in')"/>
                <use id="zoomminus" xlink:href="#zoomMin" x="42" y="9" onmousedown="handleZoom(evt,'out')"/>
                <use id="reset" xlink:href="#resetDef" x="30" y="36" onmousedown="handleReset()"/>
                <g id="arrowUp" xlink:href="#dirArrow" transform="translate(30 24)" onmousedown="handlePan(0,-1)">
                  <use xlink:href="#rim" fill="#404040">
                        <set attributeName="fill" to="#808080" begin="arrowUp.mouseover" end="arrowUp.mouseout"/>
                  </use>
                  <path fill="none" stroke="white" stroke-width="1.5" d="M0,-3.0v7 M-2.5,-0.5L0,-3.0L2.5,-0.5"/>
                </g>
                <g id="arrowRight" xlink:href="#dirArrow" transform="rotate(90) translate(36 -43)" onmousedown="handlePan(1,0)">
                  <use xlink:href="#rim" fill="#404040">
                        <set attributeName="fill" to="#808080" begin="arrowRight.mouseover" end="arrowRight.mouseout"/>
                  </use>
                  <path fill="none" stroke="white" stroke-width="1.5" d="M0,-3.0v7 M-2.5,-0.5L0,-3.0L2.5,-0.5"/>
                </g>
                <g id="arrowDown" xlink:href="#dirArrow" transform="rotate(180) translate(-30 -48)" onmousedown="handlePan(0,1)">
                  <use xlink:href="#rim" fill="#404040">
                        <set attributeName="fill" to="#808080" begin="arrowDown.mouseover" end="arrowDown.mouseout"/>
                  </use>
                  <path fill="none" stroke="white" stroke-width="1.5" d="M0,-3.0v7 M-2.5,-0.5L0,-3.0L2.5,-0.5"/>
                </g>
                <g id="arrowLeft" xlink:href="#dirArrow" transform="rotate(270) translate(-36 17)" onmousedown="handlePan(-1,0)">
                  <use xlink:href="#rim" fill="#404040">
                        <set attributeName="fill" to="#808080" begin="arrowLeft.mouseover" end="arrowLeft.mouseout"/>
                  </use>
                  <path fill="none" stroke="white" stroke-width="1.5" d="M0,-3.0v7 M-2.5,-0.5L0,-3.0L2.5,-0.5"/>
                </g>
        </g>
</svg>
