<?xml version="1.0" encoding="UTF-8" standalone="no"?>
<!DOCTYPE svg PUBLIC "-//W3C//DTD SVG 1.1//EN"
 "http://www.w3.org/Graphics/SVG/1.1/DTD/svg11.dtd">
<!-- Generated by graphviz version 2.26.3 (20100126.1600)
 -->
<!-- Title: G Pages: 1 -->
<svg width="276pt" height="212pt"
 viewBox="0.00 0.00 276.00 212.00" xmlns="http://www.w3.org/2000/svg" xmlns:xlink="http://www.w3.org/1999/xlink">
<g id="graph1" class="graph" transform="scale(1 1) rotate(0) translate(4 208)">
<title>G</title>
<polygon fill="white" stroke="white" points="-4,5 -4,-208 273,-208 273,5 -4,5"/>
<!-- Node1 -->
<g id="node1" class="node"><title>Node1</title>
<polygon fill="#bfbfbf" stroke="black" points="19,-61 19,-83 249,-83 249,-61 19,-61"/>
<text text-anchor="middle" x="134" y="-70" font-family="FreeSans" font-size="10.00">Mezzanine::Threading::iAsynchronousWorkUnit</text>
</g>
<!-- Node4 -->
<g id="node7" class="node"><title>Node4</title>
<a xlink:href="classMezzanine_1_1Threading_1_1AsynchronousFileLoadWorkUnit.html" target="_top" xlink:title="This is intended to load files asynchronously and continue doing so whether or not other the FrameSch...">
<polygon fill="white" stroke="black" points="0,-1 0,-23 268,-23 268,-1 0,-1"/>
<text text-anchor="middle" x="134" y="-10" font-family="FreeSans" font-size="10.00">Mezzanine::Threading::AsynchronousFileLoadWorkUnit</text>
</a>
</g>
<!-- Node1&#45;&gt;Node4 -->
<g id="edge6" class="edge"><title>Node1&#45;&gt;Node4</title>
<path fill="none" stroke="midnightblue" d="M134,-50.9183C134,-41.6393 134,-31.1082 134,-23.3428"/>
<polygon fill="midnightblue" stroke="midnightblue" points="130.5,-50.995 134,-60.9951 137.5,-50.9951 130.5,-50.995"/>
</g>
<!-- Node2 -->
<g id="node2" class="node"><title>Node2</title>
<a xlink:href="classMezzanine_1_1Threading_1_1DefaultWorkUnit.html" target="_top" xlink:title="Default implementation of WorkUnit. This represents on piece of work through time.">
<polygon fill="white" stroke="black" points="35.5,-121 35.5,-143 232.5,-143 232.5,-121 35.5,-121"/>
<text text-anchor="middle" x="134" y="-130" font-family="FreeSans" font-size="10.00">Mezzanine::Threading::DefaultWorkUnit</text>
</a>
</g>
<!-- Node2&#45;&gt;Node1 -->
<g id="edge2" class="edge"><title>Node2&#45;&gt;Node1</title>
<path fill="none" stroke="midnightblue" d="M134,-110.918C134,-101.639 134,-91.1082 134,-83.3428"/>
<polygon fill="midnightblue" stroke="midnightblue" points="130.5,-110.995 134,-120.995 137.5,-110.995 130.5,-110.995"/>
</g>
<!-- Node3 -->
<g id="node4" class="node"><title>Node3</title>
<a xlink:href="classMezzanine_1_1Threading_1_1iWorkUnit.html" target="_top" xlink:title="Interface of a WorkUnit. This represents on piece of work through time.">
<polygon fill="white" stroke="black" points="50.5,-181 50.5,-203 217.5,-203 217.5,-181 50.5,-181"/>
<text text-anchor="middle" x="134" y="-190" font-family="FreeSans" font-size="10.00">Mezzanine::Threading::iWorkUnit</text>
</a>
</g>
<!-- Node3&#45;&gt;Node2 -->
<g id="edge4" class="edge"><title>Node3&#45;&gt;Node2</title>
<path fill="none" stroke="midnightblue" d="M134,-170.918C134,-161.639 134,-151.108 134,-143.343"/>
<polygon fill="midnightblue" stroke="midnightblue" points="130.5,-170.995 134,-180.995 137.5,-170.995 130.5,-170.995"/>
</g>
</g>
</svg>
