<?xml version="1.0" encoding="UTF-8" standalone="no"?>
<!DOCTYPE svg PUBLIC "-//W3C//DTD SVG 1.1//EN"
 "http://www.w3.org/Graphics/SVG/1.1/DTD/svg11.dtd">
<!-- Generated by graphviz version 2.26.3 (20100126.1600)
 -->
<!-- Title: G Pages: 1 -->
<svg width="348pt" height="180pt"
 viewBox="0.00 0.00 348.00 180.00" xmlns="http://www.w3.org/2000/svg" xmlns:xlink="http://www.w3.org/1999/xlink">
<g id="graph1" class="graph" transform="scale(1 1) rotate(0) translate(4 176)">
<title>G</title>
<polygon fill="white" stroke="white" points="-4,5 -4,-176 345,-176 345,5 -4,5"/>
<!-- Node1 -->
<g id="node1" class="node"><title>Node1</title>
<polygon fill="#bfbfbf" stroke="black" points="0,-1 0,-23 194,-23 194,-1 0,-1"/>
<text text-anchor="middle" x="97" y="-10" font-family="FreeSans" font-size="10.00">Mezzanine::Threading::LogAggregator</text>
</g>
<!-- Node2 -->
<g id="node2" class="node"><title>Node2</title>
<a xlink:href="classMezzanine_1_1Threading_1_1WorkUnit.html" target="_top" xlink:title="Default implementation of WorkUnit. This represents on piece of work through time.">
<polygon fill="white" stroke="black" points="125.5,-75 125.5,-97 290.5,-97 290.5,-75 125.5,-75"/>
<text text-anchor="middle" x="208" y="-84" font-family="FreeSans" font-size="10.00">Mezzanine::Threading::WorkUnit</text>
</a>
</g>
<!-- Node2&#45;&gt;Node1 -->
<g id="edge2" class="edge"><title>Node2&#45;&gt;Node1</title>
<path fill="none" stroke="midnightblue" d="M182.644,-69.0959C161.483,-54.989 131.931,-35.2872 113.653,-23.1023"/>
<polygon fill="midnightblue" stroke="midnightblue" points="180.88,-72.1261 191.141,-74.761 184.762,-66.3018 180.88,-72.1261"/>
</g>
<!-- Node3 -->
<g id="node4" class="node"><title>Node3</title>
<polygon fill="white" stroke="#bfbfbf" points="212,-1 212,-23 340,-23 340,-1 212,-1"/>
<text text-anchor="middle" x="276" y="-10" font-family="FreeSans" font-size="10.00">std::vector&lt; WorkUnit * &gt;</text>
</g>
<!-- Node2&#45;&gt;Node3 -->
<g id="edge6" class="edge"><title>Node2&#45;&gt;Node3</title>
<path fill="none" stroke="#9a32cd" stroke-dasharray="5,2" d="M201.446,-65.0158C200.266,-57.2244 200.578,-48.6684 205,-42 210.62,-33.524 219.161,-27.4366 228.393,-23.0666"/>
<polygon fill="#9a32cd" stroke="#9a32cd" points="198.072,-65.9615 203.733,-74.9174 204.893,-64.3863 198.072,-65.9615"/>
<text text-anchor="middle" x="227.5" y="-47" font-family="FreeSans" font-size="10.00"> elements</text>
</g>
<!-- Node3&#45;&gt;Node2 -->
<g id="edge4" class="edge"><title>Node3&#45;&gt;Node2</title>
<path fill="none" stroke="#9a32cd" stroke-dasharray="5,2" d="M268.486,-32.4621C264.912,-40.3947 260.075,-49.1878 254,-56 247.273,-63.5427 238.231,-69.9826 229.943,-74.9397"/>
<polygon fill="#9a32cd" stroke="#9a32cd" points="271.774,-33.668 272.335,-23.0881 265.299,-31.0089 271.774,-33.668"/>
<text text-anchor="middle" x="298" y="-47" font-family="FreeSans" font-size="10.00"> Dependencies</text>
</g>
<!-- Node4 -->
<g id="node7" class="node"><title>Node4</title>
<a xlink:href="structMezzanine_1_1DefaultRollingAverage.html" target="_top" xlink:title="Mezzanine::DefaultRollingAverage\&lt; Whole \&gt;">
<polygon fill="white" stroke="black" points="97.5,-149 97.5,-171 318.5,-171 318.5,-149 97.5,-149"/>
<text text-anchor="middle" x="208" y="-158" font-family="FreeSans" font-size="10.00">Mezzanine::DefaultRollingAverage&lt; Whole &gt;</text>
</a>
</g>
<!-- Node4&#45;&gt;Node2 -->
<g id="edge8" class="edge"><title>Node4&#45;&gt;Node2</title>
<path fill="none" stroke="#9a32cd" stroke-dasharray="5,2" d="M208,-138.451C208,-125.008 208,-108.249 208,-97.3448"/>
<polygon fill="#9a32cd" stroke="#9a32cd" points="204.5,-138.761 208,-148.761 211.5,-138.761 204.5,-138.761"/>
<text text-anchor="middle" x="247" y="-121" font-family="FreeSans" font-size="10.00"> PerformanceLog</text>
</g>
</g>
</svg>
