<?xml version="1.0" encoding="UTF-8" standalone="no"?>
<!DOCTYPE svg PUBLIC "-//W3C//DTD SVG 1.1//EN"
 "http://www.w3.org/Graphics/SVG/1.1/DTD/svg11.dtd">
<!-- Generated by graphviz version 2.26.3 (20100126.1600)
 -->
<!-- Title: G Pages: 1 -->
<svg width="380pt" height="120pt"
 viewBox="0.00 0.00 380.00 120.00" xmlns="http://www.w3.org/2000/svg" xmlns:xlink="http://www.w3.org/1999/xlink">
<g id="graph1" class="graph" transform="scale(1 1) rotate(0) translate(4 116)">
<title>G</title>
<polygon fill="white" stroke="white" points="-4,5 -4,-116 377,-116 377,5 -4,5"/>
<!-- Node1 -->
<g id="node1" class="node"><title>Node1</title>
<polygon fill="#bfbfbf" stroke="black" points="78,-1 78,-23 332,-23 332,-1 78,-1"/>
<text text-anchor="middle" x="205" y="-10" font-family="FreeSans" font-size="10.00">Mezzanine::BufferedRollingAverage&lt; RecordType &gt;</text>
</g>
<!-- Node2 -->
<g id="node2" class="node"><title>Node2</title>
<a xlink:href="classMezzanine_1_1RollingAverage.html" target="_top" xlink:title="The interface for rolling averages used in the Mezzanine, and threading library.">
<polygon fill="white" stroke="black" points="-0.5,-89 -0.5,-111 216.5,-111 216.5,-89 -0.5,-89"/>
<text text-anchor="middle" x="108" y="-98" font-family="FreeSans" font-size="10.00">Mezzanine::RollingAverage&lt; RecordType &gt;</text>
</a>
</g>
<!-- Node2&#45;&gt;Node1 -->
<g id="edge2" class="edge"><title>Node2&#45;&gt;Node1</title>
<path fill="none" stroke="midnightblue" d="M127.735,-82.096C147.241,-64.3995 176.468,-37.8848 192.815,-23.0548"/>
<polygon fill="midnightblue" stroke="midnightblue" points="125.34,-79.5434 120.285,-88.8547 130.043,-84.7278 125.34,-79.5434"/>
</g>
<!-- Node3 -->
<g id="node4" class="node"><title>Node3</title>
<polygon fill="white" stroke="#bfbfbf" points="233.5,-89 233.5,-111 372.5,-111 372.5,-89 233.5,-89"/>
<text text-anchor="middle" x="303" y="-98" font-family="FreeSans" font-size="10.00">std::vector&lt; RecordType &gt;</text>
</g>
<!-- Node3&#45;&gt;Node1 -->
<g id="edge4" class="edge"><title>Node3&#45;&gt;Node1</title>
<path fill="none" stroke="#9a32cd" stroke-dasharray="5,2" d="M283.061,-82.096C263.354,-64.3995 233.826,-37.8848 217.311,-23.0548"/>
<polygon fill="#9a32cd" stroke="#9a32cd" points="280.809,-84.7776 290.588,-88.8547 285.486,-79.5693 280.809,-84.7776"/>
<text text-anchor="middle" x="288.5" y="-61" font-family="FreeSans" font-size="10.00"> Current</text>
<text text-anchor="middle" x="288.5" y="-47" font-family="FreeSans" font-size="10.00">Records</text>
</g>
</g>
</svg>
