<?xml version="1.0" encoding="UTF-8" standalone="no"?>
<!DOCTYPE svg PUBLIC "-//W3C//DTD SVG 1.1//EN"
 "http://www.w3.org/Graphics/SVG/1.1/DTD/svg11.dtd">
<!-- Generated by graphviz version 2.26.3 (20100126.1600)
 -->
<!-- Title: Mezzanine::Threading::iWorkUnit Pages: 1 -->
<svg width="618pt" height="240pt"
 viewBox="0.00 0.00 618.00 240.00" xmlns="http://www.w3.org/2000/svg" xmlns:xlink="http://www.w3.org/1999/xlink">
<g id="graph1" class="graph" transform="scale(1 1) rotate(0) translate(4 236)">
<title>Mezzanine::Threading::iWorkUnit</title>
<polygon fill="white" stroke="white" points="-4,5 -4,-236 615,-236 615,5 -4,5"/>
<!-- Node1 -->
<g id="node1" class="node"><title>Node1</title>
<polygon fill="#bfbfbf" stroke="black" points="0,-100 0,-132 110,-132 110,-100 0,-100"/>
<text text-anchor="start" x="8" y="-119" font-family="FreeSans" font-size="10.00">Mezzanine::Threading</text>
<text text-anchor="middle" x="55" y="-107" font-family="FreeSans" font-size="10.00">::iWorkUnit</text>
</g>
<!-- Node2 -->
<g id="node3" class="node"><title>Node2</title>
<a xlink:href="classMezzanine_1_1Threading_1_1DefaultWorkUnit.html" target="_top" xlink:title="Default implementation of WorkUnit. This represents on piece of work through time.">
<polygon fill="white" stroke="black" points="146,-100 146,-132 256,-132 256,-100 146,-100"/>
<text text-anchor="start" x="154" y="-119" font-family="FreeSans" font-size="10.00">Mezzanine::Threading</text>
<text text-anchor="middle" x="201" y="-107" font-family="FreeSans" font-size="10.00">::DefaultWorkUnit</text>
</a>
</g>
<!-- Node1&#45;&gt;Node2 -->
<g id="edge2" class="edge"><title>Node1&#45;&gt;Node2</title>
<path fill="none" stroke="midnightblue" d="M120.41,-116C128.865,-116 137.457,-116 145.726,-116"/>
<polygon fill="midnightblue" stroke="midnightblue" points="120.196,-112.5 110.196,-116 120.196,-119.5 120.196,-112.5"/>
</g>
<!-- Node3 -->
<g id="node5" class="node"><title>Node3</title>
<a xlink:href="classMezzanine_1_1Threading_1_1iAsynchronousWorkUnit.html" target="_top" xlink:title="The interface for a WorkUnit that will keep running when the rest of the scheduler is paused...">
<polygon fill="white" stroke="black" points="292.5,-200 292.5,-232 415.5,-232 415.5,-200 292.5,-200"/>
<text text-anchor="start" x="300.5" y="-219" font-family="FreeSans" font-size="10.00">Mezzanine::Threading</text>
<text text-anchor="middle" x="354" y="-207" font-family="FreeSans" font-size="10.00">::iAsynchronousWorkUnit</text>
</a>
</g>
<!-- Node2&#45;&gt;Node3 -->
<g id="edge4" class="edge"><title>Node2&#45;&gt;Node3</title>
<path fill="none" stroke="midnightblue" d="M224.763,-139.054C242.284,-155.152 267.277,-176.304 292,-191 297.487,-194.262 303.478,-197.276 309.504,-199.998"/>
<polygon fill="midnightblue" stroke="midnightblue" points="226.964,-136.321 217.266,-132.056 222.187,-141.438 226.964,-136.321"/>
</g>
<!-- Node5 -->
<g id="node9" class="node"><title>Node5</title>
<a xlink:href="classMezzanine_1_1Threading_1_1LogAggregator.html" target="_top" xlink:title="Gather all the thread specific logs and commit them to the main log.">
<polygon fill="white" stroke="black" points="299,-150 299,-182 409,-182 409,-150 299,-150"/>
<text text-anchor="start" x="307" y="-169" font-family="FreeSans" font-size="10.00">Mezzanine::Threading</text>
<text text-anchor="middle" x="354" y="-157" font-family="FreeSans" font-size="10.00">::LogAggregator</text>
</a>
</g>
<!-- Node2&#45;&gt;Node5 -->
<g id="edge8" class="edge"><title>Node2&#45;&gt;Node5</title>
<path fill="none" stroke="midnightblue" d="M259.856,-135.234C274.716,-140.09 290.514,-145.253 304.84,-149.935"/>
<polygon fill="midnightblue" stroke="midnightblue" points="260.845,-131.875 250.252,-132.096 258.67,-138.529 260.845,-131.875"/>
</g>
<!-- Node6 -->
<g id="node11" class="node"><title>Node6</title>
<a xlink:href="classMezzanine_1_1Threading_1_1LogBufferSwapper.html" target="_top" xlink:title="Swaps all of the Logs so the usable logs can be commited, and the usable commitable.">
<polygon fill="white" stroke="black" points="299,-100 299,-132 409,-132 409,-100 299,-100"/>
<text text-anchor="start" x="307" y="-119" font-family="FreeSans" font-size="10.00">Mezzanine::Threading</text>
<text text-anchor="middle" x="354" y="-107" font-family="FreeSans" font-size="10.00">::LogBufferSwapper</text>
</a>
</g>
<!-- Node2&#45;&gt;Node6 -->
<g id="edge10" class="edge"><title>Node2&#45;&gt;Node6</title>
<path fill="none" stroke="midnightblue" d="M266.461,-116C277.25,-116 288.339,-116 298.845,-116"/>
<polygon fill="midnightblue" stroke="midnightblue" points="266.237,-112.5 256.237,-116 266.236,-119.5 266.237,-112.5"/>
</g>
<!-- Node7 -->
<g id="node13" class="node"><title>Node7</title>
<a xlink:href="classMezzanine_1_1Threading_1_1MonopolyWorkUnit.html" target="_top" xlink:title="A kind of workunit given exclusive runtime so it can consume time on multiple threads.">
<polygon fill="white" stroke="black" points="299,-50 299,-82 409,-82 409,-50 299,-50"/>
<text text-anchor="start" x="307" y="-69" font-family="FreeSans" font-size="10.00">Mezzanine::Threading</text>
<text text-anchor="middle" x="354" y="-57" font-family="FreeSans" font-size="10.00">::MonopolyWorkUnit</text>
</a>
</g>
<!-- Node2&#45;&gt;Node7 -->
<g id="edge12" class="edge"><title>Node2&#45;&gt;Node7</title>
<path fill="none" stroke="midnightblue" d="M259.856,-96.7659C274.716,-91.9099 290.514,-86.747 304.84,-82.0654"/>
<polygon fill="midnightblue" stroke="midnightblue" points="258.67,-93.4712 250.252,-99.9045 260.845,-100.125 258.67,-93.4712"/>
</g>
<!-- Node8 -->
<g id="node15" class="node"><title>Node8</title>
<a xlink:href="classMezzanine_1_1Threading_1_1WorkSorter.html" target="_top" xlink:title="Sorts all of the WorkUnits in the FrameScheduler.">
<polygon fill="white" stroke="black" points="299,-0 299,-32 409,-32 409,-0 299,-0"/>
<text text-anchor="start" x="307" y="-19" font-family="FreeSans" font-size="10.00">Mezzanine::Threading</text>
<text text-anchor="middle" x="354" y="-7" font-family="FreeSans" font-size="10.00">::WorkSorter</text>
</a>
</g>
<!-- Node2&#45;&gt;Node8 -->
<g id="edge14" class="edge"><title>Node2&#45;&gt;Node8</title>
<path fill="none" stroke="midnightblue" d="M224.763,-92.9455C242.284,-76.8483 267.277,-55.6957 292,-41 297.487,-37.7384 303.478,-34.7243 309.504,-32.002"/>
<polygon fill="midnightblue" stroke="midnightblue" points="222.187,-90.5619 217.266,-99.9445 226.964,-95.6786 222.187,-90.5619"/>
</g>
<!-- Node4 -->
<g id="node7" class="node"><title>Node4</title>
<a xlink:href="classMezzanine_1_1Threading_1_1AsynchronousFileLoadWorkUnit.html" target="_top" xlink:title="This is intended to load files asynchronously and continue doing so whether or not other the FrameSch...">
<polygon fill="white" stroke="black" points="452,-200 452,-232 610,-232 610,-200 452,-200"/>
<text text-anchor="start" x="460" y="-219" font-family="FreeSans" font-size="10.00">Mezzanine::Threading</text>
<text text-anchor="middle" x="531" y="-207" font-family="FreeSans" font-size="10.00">::AsynchronousFileLoadWorkUnit</text>
</a>
</g>
<!-- Node3&#45;&gt;Node4 -->
<g id="edge6" class="edge"><title>Node3&#45;&gt;Node4</title>
<path fill="none" stroke="midnightblue" d="M426.08,-216C434.523,-216 443.172,-216 451.706,-216"/>
<polygon fill="midnightblue" stroke="midnightblue" points="425.906,-212.5 415.906,-216 425.906,-219.5 425.906,-212.5"/>
</g>
</g>
</svg>
