<?xml version="1.0" encoding="UTF-8" standalone="no"?>
<!DOCTYPE svg PUBLIC "-//W3C//DTD SVG 1.1//EN"
 "http://www.w3.org/Graphics/SVG/1.1/DTD/svg11.dtd">
<!-- Generated by graphviz version 2.26.3 (20100126.1600)
 -->
<!-- Title: Mezzanine::Threading::FrameScheduler Pages: 1 -->
<svg width="1318pt" height="378pt"
 viewBox="0.00 0.00 1318.00 378.00" xmlns="http://www.w3.org/2000/svg" xmlns:xlink="http://www.w3.org/1999/xlink">
<g id="graph1" class="graph" transform="scale(1 1) rotate(0) translate(4 374)">
<title>Mezzanine::Threading::FrameScheduler</title>
<polygon fill="white" stroke="white" points="-4,5 -4,-374 1315,-374 1315,5 -4,5"/>
<!-- Node1 -->
<g id="node1" class="node"><title>Node1</title>
<polygon fill="#bfbfbf" stroke="black" points="1200,-161 1200,-193 1310,-193 1310,-161 1200,-161"/>
<text text-anchor="start" x="1208" y="-180" font-family="FreeSans" font-size="10.00">Mezzanine::Threading</text>
<text text-anchor="middle" x="1255" y="-168" font-family="FreeSans" font-size="10.00">::FrameScheduler</text>
</g>
<!-- Node2 -->
<g id="node2" class="node"><title>Node2</title>
<polygon fill="white" stroke="#bfbfbf" points="904,-326 904,-370 1068,-370 1068,-326 904,-326"/>
<text text-anchor="start" x="912" y="-357" font-family="FreeSans" font-size="10.00">std::vector&lt; Mezzanine</text>
<text text-anchor="start" x="912" y="-345" font-family="FreeSans" font-size="10.00">::Threading::DefaultThreadSpecific</text>
<text text-anchor="middle" x="986" y="-333" font-family="FreeSans" font-size="10.00">Storage::Type * &gt;</text>
</g>
<!-- Node2&#45;&gt;Node1 -->
<g id="edge2" class="edge"><title>Node2&#45;&gt;Node1</title>
<path fill="none" stroke="#9a32cd" stroke-dasharray="5,2" d="M1078.45,-350.508C1113.63,-347.308 1152.34,-338.329 1182,-317 1224.73,-286.27 1244.43,-222.885 1251.6,-193.113"/>
<polygon fill="#9a32cd" stroke="#9a32cd" points="1077.85,-347.043 1068.15,-351.293 1078.38,-354.023 1077.85,-347.043"/>
<text text-anchor="middle" x="1134" y="-352" font-family="FreeSans" font-size="10.00"> Resources</text>
</g>
<!-- Node3 -->
<g id="node4" class="node"><title>Node3</title>
<a xlink:href="classMezzanine_1_1Threading_1_1ThreadSpecificStorage.html" target="_top" xlink:title="A thread specific collection of double&#45;buffered and algorithm specific resources.">
<polygon fill="white" stroke="black" points="672.5,-332 672.5,-364 791.5,-364 791.5,-332 672.5,-332"/>
<text text-anchor="start" x="680.5" y="-351" font-family="FreeSans" font-size="10.00">Mezzanine::Threading</text>
<text text-anchor="middle" x="732" y="-339" font-family="FreeSans" font-size="10.00">::ThreadSpecificStorage</text>
</a>
</g>
<!-- Node3&#45;&gt;Node2 -->
<g id="edge4" class="edge"><title>Node3&#45;&gt;Node2</title>
<path fill="none" stroke="#9a32cd" stroke-dasharray="5,2" d="M801.584,-348C833.175,-348 870.769,-348 903.747,-348"/>
<polygon fill="#9a32cd" stroke="#9a32cd" points="801.552,-344.5 791.552,-348 801.552,-351.5 801.552,-344.5"/>
<text text-anchor="middle" x="848" y="-351" font-family="FreeSans" font-size="10.00"> elements</text>
</g>
<!-- Node4 -->
<g id="node6" class="node"><title>Node4</title>
<a xlink:href="classMezzanine_1_1Threading_1_1Barrier.html" target="_top" xlink:title="A synchronization primitive that causes a predefined number of threads to all wait before continuing...">
<polygon fill="white" stroke="black" points="931,-276 931,-308 1041,-308 1041,-276 931,-276"/>
<text text-anchor="start" x="939" y="-295" font-family="FreeSans" font-size="10.00">Mezzanine::Threading</text>
<text text-anchor="middle" x="986" y="-283" font-family="FreeSans" font-size="10.00">::Barrier</text>
</a>
</g>
<!-- Node4&#45;&gt;Node1 -->
<g id="edge6" class="edge"><title>Node4&#45;&gt;Node1</title>
<path fill="none" stroke="#9a32cd" stroke-dasharray="5,2" d="M1051.43,-293.22C1091.39,-291.334 1142.26,-284.047 1182,-262 1211.26,-245.768 1234.15,-212.977 1246.03,-193.206"/>
<polygon fill="#9a32cd" stroke="#9a32cd" points="1051.12,-289.729 1041.26,-293.596 1051.38,-296.724 1051.12,-289.729"/>
<text text-anchor="middle" x="1134" y="-304" font-family="FreeSans" font-size="10.00"> StartFrameSync</text>
<text text-anchor="middle" x="1134" y="-292" font-family="FreeSans" font-size="10.00">EndFrameSync</text>
</g>
<!-- Node5 -->
<g id="node8" class="node"><title>Node5</title>
<polygon fill="white" stroke="#bfbfbf" points="427.5,-267 427.5,-299 558.5,-299 558.5,-267 427.5,-267"/>
<text text-anchor="start" x="435.5" y="-286" font-family="FreeSans" font-size="10.00">std::map&lt; iWorkUnit</text>
<text text-anchor="middle" x="493" y="-274" font-family="FreeSans" font-size="10.00"> *, std::set&lt; iWorkUnit * &gt; &gt;</text>
</g>
<!-- Node5&#45;&gt;Node1 -->
<g id="edge8" class="edge"><title>Node5&#45;&gt;Node1</title>
<path fill="none" stroke="#9a32cd" stroke-dasharray="5,2" d="M568.752,-277.827C678.937,-269.863 889.728,-252.97 1068,-229 1118.98,-222.145 1132.76,-223.877 1182,-209 1195.78,-204.838 1210.41,-198.776 1222.92,-193.045"/>
<polygon fill="#9a32cd" stroke="#9a32cd" points="568.455,-274.34 558.731,-278.547 568.956,-281.322 568.455,-274.34"/>
<text text-anchor="middle" x="848" y="-260" font-family="FreeSans" font-size="10.00"> DependentGraph</text>
</g>
<!-- Node6 -->
<g id="node10" class="node"><title>Node6</title>
<polygon fill="white" stroke="#bfbfbf" points="196.5,-313 196.5,-333 307.5,-333 307.5,-313 196.5,-313"/>
<text text-anchor="middle" x="252" y="-320" font-family="FreeSans" font-size="10.00">std::set&lt; iWorkUnit * &gt;</text>
</g>
<!-- Node6&#45;&gt;Node5 -->
<g id="edge10" class="edge"><title>Node6&#45;&gt;Node5</title>
<path fill="none" stroke="#9a32cd" stroke-dasharray="5,2" d="M317.47,-312.134C351.614,-306.466 393.265,-299.553 427.425,-293.884"/>
<polygon fill="#9a32cd" stroke="#9a32cd" points="316.885,-308.683 307.593,-313.773 318.031,-315.588 316.885,-308.683"/>
<text text-anchor="middle" x="371" y="-311" font-family="FreeSans" font-size="10.00"> elements</text>
</g>
<!-- Node7 -->
<g id="node12" class="node"><title>Node7</title>
<a xlink:href="classMezzanine_1_1Threading_1_1iWorkUnit.html" target="_top" xlink:title="Interface of a WorkUnit. This represents on piece of work through time.">
<polygon fill="white" stroke="black" points="0,-171 0,-203 110,-203 110,-171 0,-171"/>
<text text-anchor="start" x="8" y="-190" font-family="FreeSans" font-size="10.00">Mezzanine::Threading</text>
<text text-anchor="middle" x="55" y="-178" font-family="FreeSans" font-size="10.00">::iWorkUnit</text>
</a>
</g>
<!-- Node7&#45;&gt;Node5 -->
<g id="edge14" class="edge"><title>Node7&#45;&gt;Node5</title>
<path fill="none" stroke="#9a32cd" stroke-dasharray="5,2" d="M87.4708,-208.451C113.505,-224.485 151.585,-245.393 188,-256 268.129,-279.34 364.689,-284.207 427.39,-284.481"/>
<polygon fill="#9a32cd" stroke="#9a32cd" points="89.1188,-205.353 78.7869,-203.008 85.401,-211.284 89.1188,-205.353"/>
<text text-anchor="middle" x="252" y="-281" font-family="FreeSans" font-size="10.00"> keys</text>
</g>
<!-- Node7&#45;&gt;Node6 -->
<g id="edge12" class="edge"><title>Node7&#45;&gt;Node6</title>
<path fill="none" stroke="#9a32cd" stroke-dasharray="5,2" d="M65.1488,-212.803C76.5436,-238.279 97.519,-276.335 128,-297 147.936,-310.516 173.504,-317.226 196.238,-320.48"/>
<polygon fill="#9a32cd" stroke="#9a32cd" points="68.2726,-211.206 61.1177,-203.392 61.8381,-213.963 68.2726,-211.206"/>
<text text-anchor="middle" x="149" y="-317" font-family="FreeSans" font-size="10.00"> keys</text>
</g>
<!-- Node11 -->
<g id="node21" class="node"><title>Node11</title>
<a xlink:href="classMezzanine_1_1Threading_1_1DefaultWorkUnit.html" target="_top" xlink:title="Default implementation of WorkUnit. This represents on piece of work through time.">
<polygon fill="white" stroke="black" points="438,-171 438,-203 548,-203 548,-171 438,-171"/>
<text text-anchor="start" x="446" y="-190" font-family="FreeSans" font-size="10.00">Mezzanine::Threading</text>
<text text-anchor="middle" x="493" y="-178" font-family="FreeSans" font-size="10.00">::DefaultWorkUnit</text>
</a>
</g>
<!-- Node7&#45;&gt;Node11 -->
<g id="edge24" class="edge"><title>Node7&#45;&gt;Node11</title>
<path fill="none" stroke="midnightblue" d="M120.221,-187C206.473,-187 356.975,-187 437.851,-187"/>
<polygon fill="midnightblue" stroke="midnightblue" points="120.03,-183.5 110.03,-187 120.029,-190.5 120.03,-183.5"/>
</g>
<!-- Node12 -->
<g id="node24" class="node"><title>Node12</title>
<polygon fill="white" stroke="#bfbfbf" points="189.5,-127 189.5,-159 314.5,-159 314.5,-127 189.5,-127"/>
<text text-anchor="start" x="197.5" y="-146" font-family="FreeSans" font-size="10.00">std::vector&lt; Mezzanine</text>
<text text-anchor="middle" x="252" y="-134" font-family="FreeSans" font-size="10.00">::Threading::iWorkUnit * &gt;</text>
</g>
<!-- Node7&#45;&gt;Node12 -->
<g id="edge28" class="edge"><title>Node7&#45;&gt;Node12</title>
<path fill="none" stroke="#9a32cd" stroke-dasharray="5,2" d="M105.001,-167.726C112.631,-165.213 120.471,-162.868 128,-161 147.741,-156.103 169.603,-152.382 189.403,-149.631"/>
<polygon fill="#9a32cd" stroke="#9a32cd" points="103.821,-164.43 95.4892,-170.975 106.084,-171.054 103.821,-164.43"/>
<text text-anchor="middle" x="149" y="-164" font-family="FreeSans" font-size="10.00"> elements</text>
</g>
<!-- Node15 -->
<g id="node31" class="node"><title>Node15</title>
<a xlink:href="classMezzanine_1_1Threading_1_1WorkUnitKey.html" target="_top" xlink:title="Stores data about a single work unit so that it can easily be sorted.">
<polygon fill="white" stroke="black" points="197,-77 197,-109 307,-109 307,-77 197,-77"/>
<text text-anchor="start" x="205" y="-96" font-family="FreeSans" font-size="10.00">Mezzanine::Threading</text>
<text text-anchor="middle" x="252" y="-84" font-family="FreeSans" font-size="10.00">::WorkUnitKey</text>
</a>
</g>
<!-- Node7&#45;&gt;Node15 -->
<g id="edge36" class="edge"><title>Node7&#45;&gt;Node15</title>
<path fill="none" stroke="#9a32cd" stroke-dasharray="5,2" d="M82.9655,-164.733C96.101,-155.004 112.298,-144.012 128,-136 149.717,-124.919 174.942,-115.589 196.95,-108.482"/>
<polygon fill="#9a32cd" stroke="#9a32cd" points="80.6764,-162.076 74.8116,-170.899 84.8987,-167.659 80.6764,-162.076"/>
<text text-anchor="middle" x="149" y="-139" font-family="FreeSans" font-size="10.00"> Unit</text>
</g>
<!-- Node8 -->
<g id="node15" class="node"><title>Node8</title>
<polygon fill="white" stroke="#bfbfbf" points="929,-50 929,-82 1043,-82 1043,-50 929,-50"/>
<text text-anchor="start" x="937" y="-69" font-family="FreeSans" font-size="10.00">std::vector&lt; Mezzanine</text>
<text text-anchor="middle" x="986" y="-57" font-family="FreeSans" font-size="10.00">::Threading::Thread * &gt;</text>
</g>
<!-- Node8&#45;&gt;Node1 -->
<g id="edge16" class="edge"><title>Node8&#45;&gt;Node1</title>
<path fill="none" stroke="#9a32cd" stroke-dasharray="5,2" d="M1053.19,-59.3592C1092.92,-58.4426 1142.93,-62.736 1182,-84 1213.91,-101.368 1236.59,-139.177 1247.55,-160.859"/>
<polygon fill="#9a32cd" stroke="#9a32cd" points="1052.94,-55.8658 1043.07,-59.7092 1053.18,-62.8616 1052.94,-55.8658"/>
<text text-anchor="middle" x="1134" y="-87" font-family="FreeSans" font-size="10.00"> Threads</text>
</g>
<!-- Node9 -->
<g id="node17" class="node"><title>Node9</title>
<a xlink:href="classMezzanine_1_1Threading_1_1Thread.html" target="_top" xlink:title="A small wrapper around the system thread.">
<polygon fill="white" stroke="black" points="677,-50 677,-82 787,-82 787,-50 677,-50"/>
<text text-anchor="start" x="685" y="-69" font-family="FreeSans" font-size="10.00">Mezzanine::Threading</text>
<text text-anchor="middle" x="732" y="-57" font-family="FreeSans" font-size="10.00">::Thread</text>
</a>
</g>
<!-- Node9&#45;&gt;Node8 -->
<g id="edge18" class="edge"><title>Node9&#45;&gt;Node8</title>
<path fill="none" stroke="#9a32cd" stroke-dasharray="5,2" d="M797.199,-66C837.869,-66 889.722,-66 928.792,-66"/>
<polygon fill="#9a32cd" stroke="#9a32cd" points="797.114,-62.5001 787.114,-66 797.114,-69.5001 797.114,-62.5001"/>
<text text-anchor="middle" x="848" y="-69" font-family="FreeSans" font-size="10.00"> elements</text>
</g>
<!-- Node10 -->
<g id="node19" class="node"><title>Node10</title>
<a xlink:href="classMezzanine_1_1Threading_1_1WorkSorter.html" target="_top" xlink:title="Sorts all of the WorkUnits in the FrameScheduler.">
<polygon fill="white" stroke="black" points="677,-138 677,-170 787,-170 787,-138 677,-138"/>
<text text-anchor="start" x="685" y="-157" font-family="FreeSans" font-size="10.00">Mezzanine::Threading</text>
<text text-anchor="middle" x="732" y="-145" font-family="FreeSans" font-size="10.00">::WorkSorter</text>
</a>
</g>
<!-- Node10&#45;&gt;Node1 -->
<g id="edge20" class="edge"><title>Node10&#45;&gt;Node1</title>
<path fill="none" stroke="#9a32cd" stroke-dasharray="5,2" d="M797.101,-156.234C864.799,-158.624 973.844,-162.661 1068,-167 1112.33,-169.043 1162.55,-171.75 1199.78,-173.833"/>
<polygon fill="#9a32cd" stroke="#9a32cd" points="797.127,-152.733 787.01,-155.879 796.881,-159.729 797.127,-152.733"/>
<text text-anchor="middle" x="986" y="-170" font-family="FreeSans" font-size="10.00"> Sorter</text>
</g>
<!-- Node11&#45;&gt;Node10 -->
<g id="edge22" class="edge"><title>Node11&#45;&gt;Node10</title>
<path fill="none" stroke="midnightblue" d="M558.363,-180.189C587.665,-176.903 622.622,-172.663 654,-168 661.349,-166.908 669.068,-165.654 676.674,-164.354"/>
<polygon fill="midnightblue" stroke="midnightblue" points="557.803,-176.729 548.25,-181.31 558.574,-183.687 557.803,-176.729"/>
</g>
<!-- Node17 -->
<g id="node36" class="node"><title>Node17</title>
<a xlink:href="classMezzanine_1_1Threading_1_1MonopolyWorkUnit.html" target="_top" xlink:title="A kind of workunit given exclusive runtime so it can consume time on multiple threads.">
<polygon fill="white" stroke="black" points="677,-188 677,-220 787,-220 787,-188 677,-188"/>
<text text-anchor="start" x="685" y="-207" font-family="FreeSans" font-size="10.00">Mezzanine::Threading</text>
<text text-anchor="middle" x="732" y="-195" font-family="FreeSans" font-size="10.00">::MonopolyWorkUnit</text>
</a>
</g>
<!-- Node11&#45;&gt;Node17 -->
<g id="edge42" class="edge"><title>Node11&#45;&gt;Node17</title>
<path fill="none" stroke="midnightblue" d="M558.35,-191.648C595.467,-194.288 641.422,-197.557 676.732,-200.069"/>
<polygon fill="midnightblue" stroke="midnightblue" points="558.355,-188.14 548.132,-190.921 557.858,-195.122 558.355,-188.14"/>
</g>
<!-- Node12&#45;&gt;Node11 -->
<g id="edge26" class="edge"><title>Node12&#45;&gt;Node11</title>
<path fill="none" stroke="#9a32cd" stroke-dasharray="5,2" d="M324.952,-148.645C351.291,-151.411 381.142,-155.391 408,-161 420.387,-163.587 433.56,-167.184 445.744,-170.879"/>
<polygon fill="#9a32cd" stroke="#9a32cd" points="324.965,-145.128 314.664,-147.607 324.262,-152.093 324.965,-145.128"/>
<text text-anchor="middle" x="371" y="-164" font-family="FreeSans" font-size="10.00"> Dependencies</text>
</g>
<!-- Node13 -->
<g id="node27" class="node"><title>Node13</title>
<a xlink:href="structMezzanine_1_1DefaultRollingAverage.html" target="_top" xlink:title="Mezzanine::DefaultRolling\lAverage\&lt; Whole \&gt;">
<polygon fill="white" stroke="black" points="188.5,-215 188.5,-247 315.5,-247 315.5,-215 188.5,-215"/>
<text text-anchor="start" x="196.5" y="-234" font-family="FreeSans" font-size="10.00">Mezzanine::DefaultRolling</text>
<text text-anchor="middle" x="252" y="-222" font-family="FreeSans" font-size="10.00">Average&lt; Whole &gt;</text>
</a>
</g>
<!-- Node13&#45;&gt;Node11 -->
<g id="edge30" class="edge"><title>Node13&#45;&gt;Node11</title>
<path fill="none" stroke="#9a32cd" stroke-dasharray="5,2" d="M325.617,-217.56C361.68,-210.976 404.379,-203.18 437.625,-197.11"/>
<polygon fill="#9a32cd" stroke="#9a32cd" points="324.844,-214.143 315.635,-219.382 326.101,-221.029 324.844,-214.143"/>
<text text-anchor="middle" x="371" y="-218" font-family="FreeSans" font-size="10.00"> PerformanceLog</text>
</g>
<!-- Node14 -->
<g id="node29" class="node"><title>Node14</title>
<polygon fill="white" stroke="#bfbfbf" points="426.5,-94 426.5,-126 559.5,-126 559.5,-94 426.5,-94"/>
<text text-anchor="start" x="434.5" y="-113" font-family="FreeSans" font-size="10.00">std::vector&lt; Mezzanine</text>
<text text-anchor="middle" x="493" y="-101" font-family="FreeSans" font-size="10.00">::Threading::WorkUnitKey &gt;</text>
</g>
<!-- Node14&#45;&gt;Node1 -->
<g id="edge44" class="edge"><title>Node14&#45;&gt;Node1</title>
<path fill="none" stroke="#9a32cd" stroke-dasharray="5,2" d="M570.239,-111.897C649.563,-114.231 776.552,-119.034 886,-128 1018.03,-138.815 1051.09,-142.734 1182,-163 1187.74,-163.888 1193.72,-164.897 1199.67,-165.956"/>
<polygon fill="#9a32cd" stroke="#9a32cd" points="569.945,-108.387 559.849,-111.598 569.743,-115.384 569.945,-108.387"/>
<text text-anchor="middle" x="848" y="-143" font-family="FreeSans" font-size="10.00"> WorkUnitsAffinity</text>
<text text-anchor="middle" x="848" y="-131" font-family="FreeSans" font-size="10.00">WorkUnitsMain</text>
</g>
<!-- Node14&#45;&gt;Node10 -->
<g id="edge32" class="edge"><title>Node14&#45;&gt;Node10</title>
<path fill="none" stroke="#9a32cd" stroke-dasharray="5,2" d="M569.705,-124.121C604.51,-130.529 644.896,-137.964 676.674,-143.814"/>
<polygon fill="#9a32cd" stroke="#9a32cd" points="570.043,-120.625 559.575,-122.256 568.776,-127.509 570.043,-120.625"/>
<text text-anchor="middle" x="616" y="-153" font-family="FreeSans" font-size="10.00"> WorkUnitsAffinity</text>
<text text-anchor="middle" x="616" y="-141" font-family="FreeSans" font-size="10.00">WorkUnitsMain</text>
</g>
<!-- Node15&#45;&gt;Node14 -->
<g id="edge34" class="edge"><title>Node15&#45;&gt;Node14</title>
<path fill="none" stroke="#9a32cd" stroke-dasharray="5,2" d="M317.525,-97.6221C351.313,-100.006 392.442,-102.907 426.387,-105.301"/>
<polygon fill="#9a32cd" stroke="#9a32cd" points="317.512,-94.1126 307.29,-96.9001 317.019,-101.095 317.512,-94.1126"/>
<text text-anchor="middle" x="371" y="-106" font-family="FreeSans" font-size="10.00"> elements</text>
</g>
<!-- Node16 -->
<g id="node34" class="node"><title>Node16</title>
<polygon fill="white" stroke="#bfbfbf" points="904,-188 904,-220 1068,-220 1068,-188 904,-188"/>
<text text-anchor="start" x="912" y="-207" font-family="FreeSans" font-size="10.00">std::vector&lt; Mezzanine</text>
<text text-anchor="middle" x="986" y="-195" font-family="FreeSans" font-size="10.00">::Threading::MonopolyWorkUnit * &gt;</text>
</g>
<!-- Node16&#45;&gt;Node1 -->
<g id="edge38" class="edge"><title>Node16&#45;&gt;Node1</title>
<path fill="none" stroke="#9a32cd" stroke-dasharray="5,2" d="M1078.31,-194.735C1118.7,-190.681 1164.74,-186.06 1199.69,-182.551"/>
<polygon fill="#9a32cd" stroke="#9a32cd" points="1077.77,-191.271 1068.17,-195.752 1078.47,-198.236 1077.77,-191.271"/>
<text text-anchor="middle" x="1134" y="-196" font-family="FreeSans" font-size="10.00"> WorkUnitsMonopolies</text>
</g>
<!-- Node17&#45;&gt;Node16 -->
<g id="edge40" class="edge"><title>Node17&#45;&gt;Node16</title>
<path fill="none" stroke="#9a32cd" stroke-dasharray="5,2" d="M797.397,-204C829.883,-204 869.467,-204 903.966,-204"/>
<polygon fill="#9a32cd" stroke="#9a32cd" points="797.114,-200.5 787.114,-204 797.114,-207.5 797.114,-200.5"/>
<text text-anchor="middle" x="848" y="-207" font-family="FreeSans" font-size="10.00"> elements</text>
</g>
<!-- Node18 -->
<g id="node40" class="node"><title>Node18</title>
<a xlink:title="STL class.">
<polygon fill="white" stroke="#bfbfbf" points="952,-11 952,-31 1020,-31 1020,-11 952,-11"/>
<text text-anchor="middle" x="986" y="-18" font-family="FreeSans" font-size="10.00">std::ostream</text>
</a>
</g>
<!-- Node18&#45;&gt;Node1 -->
<g id="edge46" class="edge"><title>Node18&#45;&gt;Node1</title>
<path fill="none" stroke="#9a32cd" stroke-dasharray="5,2" d="M1030.09,-15.261C1072.61,-12.0743 1136.98,-13.6725 1182,-44 1223.51,-71.9604 1243.61,-131.679 1251.22,-160.613"/>
<polygon fill="#9a32cd" stroke="#9a32cd" points="1029.7,-11.7816 1020.04,-16.1334 1030.3,-18.7553 1029.7,-11.7816"/>
<text text-anchor="middle" x="1134" y="-47" font-family="FreeSans" font-size="10.00"> LogDestination</text>
</g>
<!-- Node19 -->
<g id="node42" class="node"><title>Node19</title>
<a xlink:title="STL class.">
<polygon fill="white" stroke="#bfbfbf" points="684,-0 684,-32 780,-32 780,-0 684,-0"/>
<text text-anchor="start" x="692" y="-19" font-family="FreeSans" font-size="10.00">std::basic_ostream</text>
<text text-anchor="middle" x="732" y="-7" font-family="FreeSans" font-size="10.00">&lt; char &gt;</text>
</a>
</g>
<!-- Node19&#45;&gt;Node18 -->
<g id="edge48" class="edge"><title>Node19&#45;&gt;Node18</title>
<path fill="none" stroke="midnightblue" d="M790.103,-17.1438C840.113,-18.1282 910.564,-19.515 951.938,-20.3295"/>
<polygon fill="midnightblue" stroke="midnightblue" points="790.141,-13.6439 780.074,-16.9463 790.003,-20.6426 790.141,-13.6439"/>
</g>
<!-- Node20 -->
<g id="node44" class="node"><title>Node20</title>
<a xlink:title="STL class.">
<polygon fill="white" stroke="#bfbfbf" points="438,-6 438,-26 548,-26 548,-6 438,-6"/>
<text text-anchor="middle" x="493" y="-13" font-family="FreeSans" font-size="10.00">std::basic_ios&lt; Char &gt;</text>
</a>
</g>
<!-- Node20&#45;&gt;Node19 -->
<g id="edge50" class="edge"><title>Node20&#45;&gt;Node19</title>
<path fill="none" stroke="midnightblue" d="M558.228,-16C597.83,-16 647.529,-16 683.622,-16"/>
<polygon fill="midnightblue" stroke="midnightblue" points="558.132,-12.5001 548.132,-16 558.131,-19.5001 558.132,-12.5001"/>
</g>
<!-- Node21 -->
<g id="node46" class="node"><title>Node21</title>
<a xlink:title="STL class.">
<polygon fill="white" stroke="#bfbfbf" points="216.5,-6 216.5,-26 287.5,-26 287.5,-6 216.5,-6"/>
<text text-anchor="middle" x="252" y="-13" font-family="FreeSans" font-size="10.00">std::ios_base</text>
</a>
</g>
<!-- Node21&#45;&gt;Node20 -->
<g id="edge52" class="edge"><title>Node21&#45;&gt;Node20</title>
<path fill="none" stroke="midnightblue" d="M297.769,-16C337.541,-16 395.259,-16 437.625,-16"/>
<polygon fill="midnightblue" stroke="midnightblue" points="297.56,-12.5001 287.56,-16 297.56,-19.5001 297.56,-12.5001"/>
</g>
</g>
</svg>
