<?xml version="1.0" encoding="UTF-8" standalone="no"?>
<!DOCTYPE svg PUBLIC "-//W3C//DTD SVG 1.1//EN"
 "http://www.w3.org/Graphics/SVG/1.1/DTD/svg11.dtd">
<!-- Generated by graphviz version 2.26.3 (20100126.1600)
 -->
<!-- Title: G Pages: 1 -->
<svg width="420pt" height="110pt"
 viewBox="0.00 0.00 420.00 110.00" xmlns="http://www.w3.org/2000/svg" xmlns:xlink="http://www.w3.org/1999/xlink">
<g id="graph1" class="graph" transform="scale(1 1) rotate(0) translate(4 106)">
<title>G</title>
<polygon fill="white" stroke="white" points="-4,5 -4,-106 417,-106 417,5 -4,5"/>
<!-- Node1 -->
<g id="node1" class="node"><title>Node1</title>
<polygon fill="#bfbfbf" stroke="black" points="0.5,-40 0.5,-62 165.5,-62 165.5,-40 0.5,-40"/>
<text text-anchor="middle" x="83" y="-49" font-family="FreeSans" font-size="10.00">Mezzanine::Threading::WorkUnit</text>
</g>
<!-- Node2 -->
<g id="node3" class="node"><title>Node2</title>
<a xlink:href="classMezzanine_1_1Threading_1_1LogAggregator.html" target="_top" xlink:title="Gather all the thread specific logs and commit them to the main log.">
<polygon fill="white" stroke="black" points="210,-80 210,-102 404,-102 404,-80 210,-80"/>
<text text-anchor="middle" x="307" y="-89" font-family="FreeSans" font-size="10.00">Mezzanine::Threading::LogAggregator</text>
</a>
</g>
<!-- Node1&#45;&gt;Node2 -->
<g id="edge2" class="edge"><title>Node1&#45;&gt;Node2</title>
<path fill="none" stroke="midnightblue" d="M154.923,-63.8433C184.071,-69.0485 217.392,-74.9986 245.4,-80"/>
<polygon fill="midnightblue" stroke="midnightblue" points="155.262,-60.3486 144.802,-62.0361 154.031,-67.2395 155.262,-60.3486"/>
</g>
<!-- Node3 -->
<g id="node5" class="node"><title>Node3</title>
<a xlink:href="classMezzanine_1_1Threading_1_1LogBufferSwapper.html" target="_top" xlink:title="Swaps all of the Logs so the Usable logs can be commited, and the usable commitable.">
<polygon fill="white" stroke="black" points="203,-40 203,-62 411,-62 411,-40 203,-40"/>
<text text-anchor="middle" x="307" y="-49" font-family="FreeSans" font-size="10.00">Mezzanine::Threading::LogBufferSwapper</text>
</a>
</g>
<!-- Node1&#45;&gt;Node3 -->
<g id="edge4" class="edge"><title>Node1&#45;&gt;Node3</title>
<path fill="none" stroke="midnightblue" d="M175.786,-51C184.73,-51 193.842,-51 202.886,-51"/>
<polygon fill="midnightblue" stroke="midnightblue" points="175.773,-47.5001 165.773,-51 175.773,-54.5001 175.773,-47.5001"/>
</g>
<!-- Node4 -->
<g id="node7" class="node"><title>Node4</title>
<a xlink:href="classMezzanine_1_1Threading_1_1MonopolyWorkUnit.html" target="_top" xlink:title="A kind of workunit given exclusive runtime so it can consume time on multiple threads.">
<polygon fill="white" stroke="black" points="202.5,-0 202.5,-22 411.5,-22 411.5,-0 202.5,-0"/>
<text text-anchor="middle" x="307" y="-9" font-family="FreeSans" font-size="10.00">Mezzanine::Threading::MonopolyWorkUnit</text>
</a>
</g>
<!-- Node1&#45;&gt;Node4 -->
<g id="edge6" class="edge"><title>Node1&#45;&gt;Node4</title>
<path fill="none" stroke="midnightblue" d="M154.923,-38.1567C184.071,-32.9515 217.392,-27.0014 245.4,-22"/>
<polygon fill="midnightblue" stroke="midnightblue" points="154.031,-34.7605 144.802,-39.9639 155.262,-41.6514 154.031,-34.7605"/>
</g>
</g>
</svg>
