<?xml version="1.0" encoding="UTF-8" standalone="no"?>
<!DOCTYPE svg PUBLIC "-//W3C//DTD SVG 1.1//EN"
 "http://www.w3.org/Graphics/SVG/1.1/DTD/svg11.dtd">
<!-- Generated by graphviz version 2.26.3 (20100126.1600)
 -->
<!-- Title: G Pages: 1 -->
<!--zoomable 148 -->
<svg id="main" version="1.1" xmlns="http://www.w3.org/2000/svg" xmlns:xlink="http://www.w3.org/1999/xlink" xml:space="preserve" onload="init(evt)">
        <defs>
                <circle id="rim" cx="0" cy="0" r="7"/>
                <circle id="rim2" cx="0" cy="0" r="3.5"/>
                <g id="zoomPlus">
                        <use xlink:href="#rim" fill="#404040">
                                <set attributeName="fill" to="#808080" begin="zoomplus.mouseover" end="zoomplus.mouseout"/>
                        </use>
                        <path d="M-4,0h8M0,-4v8" fill="none" stroke="white" stroke-width="1.5" pointer-events="none"/>
                </g>
                <g id="zoomMin">
                        <use xlink:href="#rim" fill="#404040">
                                <set attributeName="fill" to="#808080" begin="zoomminus.mouseover" end="zoomminus.mouseout"/>
                        </use>
                        <path d="M-4,0h8" fill="none" stroke="white" stroke-width="1.5" pointer-events="none"/>
                </g>
                <g id="dirArrow">
                        <path fill="none" stroke="white" stroke-width="1.5" d="M0,-3.0v7 M-2.5,-0.5L0,-3.0L2.5,-0.5"/>
                </g>
               <g id="resetDef">
                       <use xlink:href="#rim2" fill="#404040">
                               <set attributeName="fill" to="#808080" begin="reset.mouseover" end="reset.mouseout"/>
                       </use>
               </g>
        </defs>

<script type="text/javascript">
var viewWidth = 1082;
var viewHeight = 148;
var sectionId = 'dynsection-1';
</script>
<script xlink:href="svgpan.js"/>
<svg id="graph" class="graph">
<g id="viewport">
<title>G</title>
<polygon fill="white" stroke="white" points="-4,5 -4,-144 1079,-144 1079,5 -4,5"/>
<!-- Node1 -->
<g id="node1" class="node"><title>Node1</title>
<polygon fill="#bfbfbf" stroke="black" points="898,-44 898,-66 1074,-66 1074,-44 898,-44"/>
<text text-anchor="middle" x="986" y="-53" font-family="FreeSans" font-size="10.00">Mezzanine::Threading::WorkSorter</text>
</g>
<!-- Node2 -->
<g id="node2" class="node"><title>Node2</title>
<a xlink:href="classMezzanine_1_1Threading_1_1DefaultWorkUnit.html" target="_top" xlink:title="Default implementation of WorkUnit. This represents on piece of work through time.">
<polygon fill="white" stroke="black" points="586.5,-76 586.5,-98 783.5,-98 783.5,-76 586.5,-76"/>
<text text-anchor="middle" x="685" y="-85" font-family="FreeSans" font-size="10.00">Mezzanine::Threading::DefaultWorkUnit</text>
</a>
</g>
<!-- Node2&#45;&gt;Node1 -->
<g id="edge2" class="edge"><title>Node2&#45;&gt;Node1</title>
<path fill="none" stroke="midnightblue" d="M793.601,-75.4543C827.85,-71.8133 865.244,-67.8378 897.882,-64.368"/>
<polygon fill="midnightblue" stroke="midnightblue" points="793.133,-71.9844 783.559,-76.522 793.873,-78.9451 793.133,-71.9844"/>
</g>
<!-- Node3 -->
<g id="node4" class="node"><title>Node3</title>
<a xlink:href="classMezzanine_1_1Threading_1_1iWorkUnit.html" target="_top" xlink:title="Interface of a WorkUnit. This represents on piece of work through time.">
<polygon fill="white" stroke="black" points="0.5,-40 0.5,-62 167.5,-62 167.5,-40 0.5,-40"/>
<text text-anchor="middle" x="84" y="-49" font-family="FreeSans" font-size="10.00">Mezzanine::Threading::iWorkUnit</text>
</a>
</g>
<!-- Node3&#45;&gt;Node2 -->
<g id="edge4" class="edge"><title>Node3&#45;&gt;Node2</title>
<path fill="none" stroke="midnightblue" d="M148.205,-63.7251C160.697,-65.8054 173.724,-67.7018 186,-69 324.363,-83.6327 485.374,-86.9927 586.248,-87.4631"/>
<polygon fill="midnightblue" stroke="midnightblue" points="148.774,-60.2717 138.326,-62.0252 147.587,-67.1703 148.774,-60.2717"/>
</g>
<!-- Node5 -->
<g id="node8" class="node"><title>Node5</title>
<polygon fill="white" stroke="#bfbfbf" points="295.5,-40 295.5,-62 426.5,-62 426.5,-40 295.5,-40"/>
<text text-anchor="middle" x="361" y="-49" font-family="FreeSans" font-size="10.00">std::vector&lt; iWorkUnit * &gt;</text>
</g>
<!-- Node3&#45;&gt;Node5 -->
<g id="edge10" class="edge"><title>Node3&#45;&gt;Node5</title>
<path fill="none" stroke="#9a32cd" stroke-dasharray="5,2" d="M178.075,-51C216.672,-51 260.418,-51 295.449,-51"/>
<polygon fill="#9a32cd" stroke="#9a32cd" points="177.861,-47.5001 167.861,-51 177.861,-54.5001 177.861,-47.5001"/>
<text text-anchor="middle" x="209" y="-56" font-family="FreeSans" font-size="10.00"> elements</text>
</g>
<!-- Node7 -->
<g id="node13" class="node"><title>Node7</title>
<a xlink:href="classMezzanine_1_1Threading_1_1WorkUnitKey.html" target="_top" xlink:title="Stores data about a single work unit so that it can easily be sorted.">
<polygon fill="white" stroke="black" points="270,-0 270,-22 452,-22 452,-0 270,-0"/>
<text text-anchor="middle" x="361" y="-9" font-family="FreeSans" font-size="10.00">Mezzanine::Threading::WorkUnitKey</text>
</a>
</g>
<!-- Node3&#45;&gt;Node7 -->
<g id="edge16" class="edge"><title>Node3&#45;&gt;Node7</title>
<path fill="none" stroke="#9a32cd" stroke-dasharray="5,2" d="M153.422,-38.2732C164.311,-36.4146 175.45,-34.593 186,-33 213.099,-28.9082 242.639,-24.9884 269.602,-21.6206"/>
<polygon fill="#9a32cd" stroke="#9a32cd" points="152.775,-34.8331 143.517,-39.985 153.967,-41.7308 152.775,-34.8331"/>
<text text-anchor="middle" x="209" y="-38" font-family="FreeSans" font-size="10.00"> Unit</text>
</g>
<!-- Node4 -->
<g id="node6" class="node"><title>Node4</title>
<a xlink:href="structMezzanine_1_1DefaultRollingAverage.html" target="_top" xlink:title="Mezzanine::DefaultRollingAverage\&lt; Whole \&gt;">
<polygon fill="white" stroke="black" points="250.5,-118 250.5,-140 471.5,-140 471.5,-118 250.5,-118"/>
<text text-anchor="middle" x="361" y="-127" font-family="FreeSans" font-size="10.00">Mezzanine::DefaultRollingAverage&lt; Whole &gt;</text>
</a>
</g>
<!-- Node4&#45;&gt;Node2 -->
<g id="edge6" class="edge"><title>Node4&#45;&gt;Node2</title>
<path fill="none" stroke="#9a32cd" stroke-dasharray="5,2" d="M466.144,-116.799C498.804,-112.875 534.912,-108.401 568,-104 581.937,-102.146 596.793,-100.067 611.078,-98.0163"/>
<polygon fill="#9a32cd" stroke="#9a32cd" points="465.639,-113.334 456.126,-117.998 466.471,-120.285 465.639,-113.334"/>
<text text-anchor="middle" x="529" y="-118" font-family="FreeSans" font-size="10.00"> PerformanceLog</text>
</g>
<!-- Node5&#45;&gt;Node2 -->
<g id="edge8" class="edge"><title>Node5&#45;&gt;Node2</title>
<path fill="none" stroke="#9a32cd" stroke-dasharray="5,2" d="M436.55,-52.1623C475.881,-53.4872 524.679,-56.257 568,-62 592.503,-65.2483 619.507,-70.8787 641.393,-75.9747"/>
<polygon fill="#9a32cd" stroke="#9a32cd" points="436.608,-48.6625 426.504,-51.8481 436.389,-55.6591 436.608,-48.6625"/>
<text text-anchor="middle" x="529" y="-67" font-family="FreeSans" font-size="10.00"> Dependencies</text>
</g>
<!-- Node6 -->
<g id="node11" class="node"><title>Node6</title>
<polygon fill="white" stroke="#bfbfbf" points="615.5,-18 615.5,-40 754.5,-40 754.5,-18 615.5,-18"/>
<text text-anchor="middle" x="685" y="-27" font-family="FreeSans" font-size="10.00">std::vector&lt; WorkUnitKey &gt;</text>
</g>
<!-- Node6&#45;&gt;Node1 -->
<g id="edge12" class="edge"><title>Node6&#45;&gt;Node1</title>
<path fill="none" stroke="#9a32cd" stroke-dasharray="5,2" d="M764.924,-29.3213C800.273,-30.1194 842.291,-31.9641 880,-36 897.289,-37.8504 916.005,-40.8638 932.83,-43.9511"/>
<polygon fill="#9a32cd" stroke="#9a32cd" points="764.73,-25.8167 754.662,-29.1144 764.589,-32.8153 764.73,-25.8167"/>
<text text-anchor="middle" x="841" y="-55" font-family="FreeSans" font-size="10.00"> WorkUnitsAffinity</text>
<text text-anchor="middle" x="841" y="-41" font-family="FreeSans" font-size="10.00">WorkUnitsMain</text>
</g>
<!-- Node7&#45;&gt;Node6 -->
<g id="edge14" class="edge"><title>Node7&#45;&gt;Node6</title>
<path fill="none" stroke="#9a32cd" stroke-dasharray="5,2" d="M462.521,-14.7386C496.11,-16.1557 533.67,-17.9339 568,-20 583.353,-20.924 599.827,-22.0858 615.425,-23.2648"/>
<polygon fill="#9a32cd" stroke="#9a32cd" points="462.369,-11.2293 452.232,-14.3105 462.078,-18.2233 462.369,-11.2293"/>
<text text-anchor="middle" x="529" y="-25" font-family="FreeSans" font-size="10.00"> elements</text>
</g>
</g>
</svg>
        <g id="navigator" transform="translate(0 0)" fill="#404254">
                <rect fill="#f2f5e9" fill-opacity="0.5" stroke="#606060" stroke-width=".5" x="0" y="0" width="60" height="60"/>
                <use id="zoomplus" xlink:href="#zoomPlus" x="17" y="9" onmousedown="handleZoom(evt,'in')"/>
                <use id="zoomminus" xlink:href="#zoomMin" x="42" y="9" onmousedown="handleZoom(evt,'out')"/>
                <use id="reset" xlink:href="#resetDef" x="30" y="36" onmousedown="handleReset()"/>
                <g id="arrowUp" xlink:href="#dirArrow" transform="translate(30 24)" onmousedown="handlePan(0,-1)">
                  <use xlink:href="#rim" fill="#404040">
                        <set attributeName="fill" to="#808080" begin="arrowUp.mouseover" end="arrowUp.mouseout"/>
                  </use>
                  <path fill="none" stroke="white" stroke-width="1.5" d="M0,-3.0v7 M-2.5,-0.5L0,-3.0L2.5,-0.5"/>
                </g>
                <g id="arrowRight" xlink:href="#dirArrow" transform="rotate(90) translate(36 -43)" onmousedown="handlePan(1,0)">
                  <use xlink:href="#rim" fill="#404040">
                        <set attributeName="fill" to="#808080" begin="arrowRight.mouseover" end="arrowRight.mouseout"/>
                  </use>
                  <path fill="none" stroke="white" stroke-width="1.5" d="M0,-3.0v7 M-2.5,-0.5L0,-3.0L2.5,-0.5"/>
                </g>
                <g id="arrowDown" xlink:href="#dirArrow" transform="rotate(180) translate(-30 -48)" onmousedown="handlePan(0,1)">
                  <use xlink:href="#rim" fill="#404040">
                        <set attributeName="fill" to="#808080" begin="arrowDown.mouseover" end="arrowDown.mouseout"/>
                  </use>
                  <path fill="none" stroke="white" stroke-width="1.5" d="M0,-3.0v7 M-2.5,-0.5L0,-3.0L2.5,-0.5"/>
                </g>
                <g id="arrowLeft" xlink:href="#dirArrow" transform="rotate(270) translate(-36 17)" onmousedown="handlePan(-1,0)">
                  <use xlink:href="#rim" fill="#404040">
                        <set attributeName="fill" to="#808080" begin="arrowLeft.mouseover" end="arrowLeft.mouseout"/>
                  </use>
                  <path fill="none" stroke="white" stroke-width="1.5" d="M0,-3.0v7 M-2.5,-0.5L0,-3.0L2.5,-0.5"/>
                </g>
        </g>
</svg>
