<?xml version="1.0" encoding="UTF-8" standalone="no"?>
<!DOCTYPE svg PUBLIC "-//W3C//DTD SVG 1.1//EN"
 "http://www.w3.org/Graphics/SVG/1.1/DTD/svg11.dtd">
<!-- Generated by graphviz version 2.26.3 (20100126.1600)
 -->
<!-- Title: G Pages: 1 -->
<svg width="336pt" height="180pt"
 viewBox="0.00 0.00 336.00 180.00" xmlns="http://www.w3.org/2000/svg" xmlns:xlink="http://www.w3.org/1999/xlink">
<g id="graph1" class="graph" transform="scale(1 1) rotate(0) translate(4 176)">
<title>G</title>
<polygon fill="white" stroke="white" points="-4,5 -4,-176 333,-176 333,5 -4,5"/>
<!-- Node1 -->
<g id="node1" class="node"><title>Node1</title>
<polygon fill="#bfbfbf" stroke="black" points="0,-1 0,-23 182,-23 182,-1 0,-1"/>
<text text-anchor="middle" x="91" y="-10" font-family="FreeSans" font-size="10.00">Mezzanine::Threading::WorkUnitKey</text>
</g>
<!-- Node2 -->
<g id="node2" class="node"><title>Node2</title>
<a xlink:href="classMezzanine_1_1Threading_1_1WorkUnit.html" target="_top" xlink:title="Default implementation of WorkUnit. This represents on piece of work through time.">
<polygon fill="white" stroke="black" points="113.5,-75 113.5,-97 278.5,-97 278.5,-75 113.5,-75"/>
<text text-anchor="middle" x="196" y="-84" font-family="FreeSans" font-size="10.00">Mezzanine::Threading::WorkUnit</text>
</a>
</g>
<!-- Node2&#45;&gt;Node1 -->
<g id="edge2" class="edge"><title>Node2&#45;&gt;Node1</title>
<path fill="none" stroke="#9a32cd" stroke-dasharray="5,2" d="M171.746,-68.9067C151.749,-54.8132 123.966,-35.2328 106.753,-23.1023"/>
<polygon fill="#9a32cd" stroke="#9a32cd" points="169.862,-71.8611 180.053,-74.761 173.895,-66.1393 169.862,-71.8611"/>
<text text-anchor="middle" x="163" y="-47" font-family="FreeSans" font-size="10.00"> Unit</text>
</g>
<!-- Node3 -->
<g id="node4" class="node"><title>Node3</title>
<polygon fill="white" stroke="#bfbfbf" points="200,-1 200,-23 328,-23 328,-1 200,-1"/>
<text text-anchor="middle" x="264" y="-10" font-family="FreeSans" font-size="10.00">std::vector&lt; WorkUnit * &gt;</text>
</g>
<!-- Node2&#45;&gt;Node3 -->
<g id="edge6" class="edge"><title>Node2&#45;&gt;Node3</title>
<path fill="none" stroke="#9a32cd" stroke-dasharray="5,2" d="M189.446,-65.0158C188.266,-57.2244 188.578,-48.6684 193,-42 198.62,-33.524 207.161,-27.4366 216.393,-23.0666"/>
<polygon fill="#9a32cd" stroke="#9a32cd" points="186.072,-65.9615 191.733,-74.9174 192.893,-64.3863 186.072,-65.9615"/>
<text text-anchor="middle" x="215.5" y="-47" font-family="FreeSans" font-size="10.00"> elements</text>
</g>
<!-- Node3&#45;&gt;Node2 -->
<g id="edge4" class="edge"><title>Node3&#45;&gt;Node2</title>
<path fill="none" stroke="#9a32cd" stroke-dasharray="5,2" d="M256.486,-32.4621C252.912,-40.3947 248.075,-49.1878 242,-56 235.273,-63.5427 226.231,-69.9826 217.943,-74.9397"/>
<polygon fill="#9a32cd" stroke="#9a32cd" points="259.774,-33.668 260.335,-23.0881 253.299,-31.0089 259.774,-33.668"/>
<text text-anchor="middle" x="286" y="-47" font-family="FreeSans" font-size="10.00"> Dependencies</text>
</g>
<!-- Node4 -->
<g id="node7" class="node"><title>Node4</title>
<a xlink:href="structMezzanine_1_1DefaultRollingAverage.html" target="_top" xlink:title="Mezzanine::DefaultRollingAverage\&lt; Whole \&gt;">
<polygon fill="white" stroke="black" points="85.5,-149 85.5,-171 306.5,-171 306.5,-149 85.5,-149"/>
<text text-anchor="middle" x="196" y="-158" font-family="FreeSans" font-size="10.00">Mezzanine::DefaultRollingAverage&lt; Whole &gt;</text>
</a>
</g>
<!-- Node4&#45;&gt;Node2 -->
<g id="edge8" class="edge"><title>Node4&#45;&gt;Node2</title>
<path fill="none" stroke="#9a32cd" stroke-dasharray="5,2" d="M196,-138.451C196,-125.008 196,-108.249 196,-97.3448"/>
<polygon fill="#9a32cd" stroke="#9a32cd" points="192.5,-138.761 196,-148.761 199.5,-138.761 192.5,-138.761"/>
<text text-anchor="middle" x="235" y="-121" font-family="FreeSans" font-size="10.00"> PerformanceLog</text>
</g>
</g>
</svg>
