<?xml version="1.0" encoding="UTF-8" standalone="no"?>
<!DOCTYPE svg PUBLIC "-//W3C//DTD SVG 1.1//EN"
 "http://www.w3.org/Graphics/SVG/1.1/DTD/svg11.dtd">
<!-- Generated by graphviz version 2.26.3 (20100126.1600)
 -->
<!-- Title: G Pages: 1 -->
<!--zoomable 190 -->
<svg id="main" version="1.1" xmlns="http://www.w3.org/2000/svg" xmlns:xlink="http://www.w3.org/1999/xlink" xml:space="preserve" onload="init(evt)">
        <defs>
                <circle id="rim" cx="0" cy="0" r="7"/>
                <circle id="rim2" cx="0" cy="0" r="3.5"/>
                <g id="zoomPlus">
                        <use xlink:href="#rim" fill="#404040">
                                <set attributeName="fill" to="#808080" begin="zoomplus.mouseover" end="zoomplus.mouseout"/>
                        </use>
                        <path d="M-4,0h8M0,-4v8" fill="none" stroke="white" stroke-width="1.5" pointer-events="none"/>
                </g>
                <g id="zoomMin">
                        <use xlink:href="#rim" fill="#404040">
                                <set attributeName="fill" to="#808080" begin="zoomminus.mouseover" end="zoomminus.mouseout"/>
                        </use>
                        <path d="M-4,0h8" fill="none" stroke="white" stroke-width="1.5" pointer-events="none"/>
                </g>
                <g id="dirArrow">
                        <path fill="none" stroke="white" stroke-width="1.5" d="M0,-3.0v7 M-2.5,-0.5L0,-3.0L2.5,-0.5"/>
                </g>
               <g id="resetDef">
                       <use xlink:href="#rim2" fill="#404040">
                               <set attributeName="fill" to="#808080" begin="reset.mouseover" end="reset.mouseout"/>
                       </use>
               </g>
        </defs>

<script type="text/javascript">
var viewWidth = 980;
var viewHeight = 190;
var sectionId = 'dynsection-0';
</script>
<script xlink:href="svgpan.js"/>
<svg id="graph" class="graph">
<g id="viewport">
<title>G</title>
<polygon fill="white" stroke="white" points="-4,5 -4,-186 977,-186 977,5 -4,5"/>
<!-- Node1 -->
<g id="node1" class="node"><title>Node1</title>
<polygon fill="#bfbfbf" stroke="black" points="0.5,-80 0.5,-102 167.5,-102 167.5,-80 0.5,-80"/>
<text text-anchor="middle" x="84" y="-89" font-family="FreeSans" font-size="10.00">Mezzanine::Threading::iWorkUnit</text>
</g>
<!-- Node2 -->
<g id="node3" class="node"><title>Node2</title>
<a xlink:href="classMezzanine_1_1Threading_1_1DefaultWorkUnit.html" target="_top" xlink:title="Default implementation of WorkUnit. This represents on piece of work through time.">
<polygon fill="white" stroke="black" points="204.5,-80 204.5,-102 401.5,-102 401.5,-80 204.5,-80"/>
<text text-anchor="middle" x="303" y="-89" font-family="FreeSans" font-size="10.00">Mezzanine::Threading::DefaultWorkUnit</text>
</a>
</g>
<!-- Node1&#45;&gt;Node2 -->
<g id="edge2" class="edge"><title>Node1&#45;&gt;Node2</title>
<path fill="none" stroke="midnightblue" d="M177.908,-91C186.641,-91 195.509,-91 204.283,-91"/>
<polygon fill="midnightblue" stroke="midnightblue" points="177.732,-87.5001 167.732,-91 177.732,-94.5001 177.732,-87.5001"/>
</g>
<!-- Node3 -->
<g id="node5" class="node"><title>Node3</title>
<a xlink:href="classMezzanine_1_1Threading_1_1iAsynchronousWorkUnit.html" target="_top" xlink:title="The interface for a WorkUnit that will keep running when the rest of the scheduler is paused...">
<polygon fill="white" stroke="black" points="438,-160 438,-182 668,-182 668,-160 438,-160"/>
<text text-anchor="middle" x="553" y="-169" font-family="FreeSans" font-size="10.00">Mezzanine::Threading::iAsynchronousWorkUnit</text>
</a>
</g>
<!-- Node2&#45;&gt;Node3 -->
<g id="edge4" class="edge"><title>Node2&#45;&gt;Node3</title>
<path fill="none" stroke="midnightblue" d="M333.114,-106.966C359.943,-120.558 400.629,-139.636 438,-151 449.536,-154.508 461.922,-157.466 474.139,-159.94"/>
<polygon fill="midnightblue" stroke="midnightblue" points="334.383,-103.683 323.888,-102.231 331.187,-109.911 334.383,-103.683"/>
</g>
<!-- Node5 -->
<g id="node9" class="node"><title>Node5</title>
<a xlink:href="classMezzanine_1_1Threading_1_1LogAggregator.html" target="_top" xlink:title="Gather all the thread specific logs and commit them to the main log.">
<polygon fill="white" stroke="black" points="456,-120 456,-142 650,-142 650,-120 456,-120"/>
<text text-anchor="middle" x="553" y="-129" font-family="FreeSans" font-size="10.00">Mezzanine::Threading::LogAggregator</text>
</a>
</g>
<!-- Node2&#45;&gt;Node5 -->
<g id="edge8" class="edge"><title>Node2&#45;&gt;Node5</title>
<path fill="none" stroke="midnightblue" d="M381.995,-103.639C414.828,-108.892 452.582,-114.933 484.25,-120"/>
<polygon fill="midnightblue" stroke="midnightblue" points="382.403,-100.16 371.975,-102.036 381.297,-107.072 382.403,-100.16"/>
</g>
<!-- Node6 -->
<g id="node11" class="node"><title>Node6</title>
<a xlink:href="classMezzanine_1_1Threading_1_1LogBufferSwapper.html" target="_top" xlink:title="Swaps all of the Logs so the usable logs can be commited, and the usable commitable.">
<polygon fill="white" stroke="black" points="449,-80 449,-102 657,-102 657,-80 449,-80"/>
<text text-anchor="middle" x="553" y="-89" font-family="FreeSans" font-size="10.00">Mezzanine::Threading::LogBufferSwapper</text>
</a>
</g>
<!-- Node2&#45;&gt;Node6 -->
<g id="edge10" class="edge"><title>Node2&#45;&gt;Node6</title>
<path fill="none" stroke="midnightblue" d="M411.997,-91C424.199,-91 436.608,-91 448.748,-91"/>
<polygon fill="midnightblue" stroke="midnightblue" points="411.807,-87.5001 401.807,-91 411.807,-94.5001 411.807,-87.5001"/>
</g>
<!-- Node7 -->
<g id="node13" class="node"><title>Node7</title>
<a xlink:href="classMezzanine_1_1Threading_1_1MonopolyWorkUnit.html" target="_top" xlink:title="A kind of workunit given exclusive runtime so it can consume time on multiple threads.">
<polygon fill="white" stroke="black" points="448.5,-40 448.5,-62 657.5,-62 657.5,-40 448.5,-40"/>
<text text-anchor="middle" x="553" y="-49" font-family="FreeSans" font-size="10.00">Mezzanine::Threading::MonopolyWorkUnit</text>
</a>
</g>
<!-- Node2&#45;&gt;Node7 -->
<g id="edge12" class="edge"><title>Node2&#45;&gt;Node7</title>
<path fill="none" stroke="midnightblue" d="M381.995,-78.3608C414.828,-73.1076 452.582,-67.0669 484.25,-62"/>
<polygon fill="midnightblue" stroke="midnightblue" points="381.297,-74.9279 371.975,-79.9639 382.403,-81.84 381.297,-74.9279"/>
</g>
<!-- Node8 -->
<g id="node15" class="node"><title>Node8</title>
<a xlink:href="classMezzanine_1_1Threading_1_1WorkSorter.html" target="_top" xlink:title="Sorts all of the WorkUnits in the FrameScheduler.">
<polygon fill="white" stroke="black" points="465,-0 465,-22 641,-22 641,-0 465,-0"/>
<text text-anchor="middle" x="553" y="-9" font-family="FreeSans" font-size="10.00">Mezzanine::Threading::WorkSorter</text>
</a>
</g>
<!-- Node2&#45;&gt;Node8 -->
<g id="edge14" class="edge"><title>Node2&#45;&gt;Node8</title>
<path fill="none" stroke="midnightblue" d="M333.114,-75.0339C359.943,-61.4423 400.629,-42.3644 438,-31 449.536,-27.492 461.922,-24.5342 474.139,-22.0605"/>
<polygon fill="midnightblue" stroke="midnightblue" points="331.187,-72.0889 323.888,-79.7687 334.383,-78.3167 331.187,-72.0889"/>
</g>
<!-- Node4 -->
<g id="node7" class="node"><title>Node4</title>
<a xlink:href="classMezzanine_1_1Threading_1_1AsynchronousFileLoadWorkUnit.html" target="_top" xlink:title="This is intended to load files asynchronously and continue doing so whether or not other the FrameSch...">
<polygon fill="white" stroke="black" points="704,-160 704,-182 972,-182 972,-160 704,-160"/>
<text text-anchor="middle" x="838" y="-169" font-family="FreeSans" font-size="10.00">Mezzanine::Threading::AsynchronousFileLoadWorkUnit</text>
</a>
</g>
<!-- Node3&#45;&gt;Node4 -->
<g id="edge6" class="edge"><title>Node3&#45;&gt;Node4</title>
<path fill="none" stroke="midnightblue" d="M678.337,-171C686.77,-171 695.285,-171 703.761,-171"/>
<polygon fill="midnightblue" stroke="midnightblue" points="678.099,-167.5 668.099,-171 678.099,-174.5 678.099,-167.5"/>
</g>
</g>
</svg>
        <g id="navigator" transform="translate(0 0)" fill="#404254">
                <rect fill="#f2f5e9" fill-opacity="0.5" stroke="#606060" stroke-width=".5" x="0" y="0" width="60" height="60"/>
                <use id="zoomplus" xlink:href="#zoomPlus" x="17" y="9" onmousedown="handleZoom(evt,'in')"/>
                <use id="zoomminus" xlink:href="#zoomMin" x="42" y="9" onmousedown="handleZoom(evt,'out')"/>
                <use id="reset" xlink:href="#resetDef" x="30" y="36" onmousedown="handleReset()"/>
                <g id="arrowUp" xlink:href="#dirArrow" transform="translate(30 24)" onmousedown="handlePan(0,-1)">
                  <use xlink:href="#rim" fill="#404040">
                        <set attributeName="fill" to="#808080" begin="arrowUp.mouseover" end="arrowUp.mouseout"/>
                  </use>
                  <path fill="none" stroke="white" stroke-width="1.5" d="M0,-3.0v7 M-2.5,-0.5L0,-3.0L2.5,-0.5"/>
                </g>
                <g id="arrowRight" xlink:href="#dirArrow" transform="rotate(90) translate(36 -43)" onmousedown="handlePan(1,0)">
                  <use xlink:href="#rim" fill="#404040">
                        <set attributeName="fill" to="#808080" begin="arrowRight.mouseover" end="arrowRight.mouseout"/>
                  </use>
                  <path fill="none" stroke="white" stroke-width="1.5" d="M0,-3.0v7 M-2.5,-0.5L0,-3.0L2.5,-0.5"/>
                </g>
                <g id="arrowDown" xlink:href="#dirArrow" transform="rotate(180) translate(-30 -48)" onmousedown="handlePan(0,1)">
                  <use xlink:href="#rim" fill="#404040">
                        <set attributeName="fill" to="#808080" begin="arrowDown.mouseover" end="arrowDown.mouseout"/>
                  </use>
                  <path fill="none" stroke="white" stroke-width="1.5" d="M0,-3.0v7 M-2.5,-0.5L0,-3.0L2.5,-0.5"/>
                </g>
                <g id="arrowLeft" xlink:href="#dirArrow" transform="rotate(270) translate(-36 17)" onmousedown="handlePan(-1,0)">
                  <use xlink:href="#rim" fill="#404040">
                        <set attributeName="fill" to="#808080" begin="arrowLeft.mouseover" end="arrowLeft.mouseout"/>
                  </use>
                  <path fill="none" stroke="white" stroke-width="1.5" d="M0,-3.0v7 M-2.5,-0.5L0,-3.0L2.5,-0.5"/>
                </g>
        </g>
</svg>
