<?xml version="1.0" encoding="UTF-8" standalone="no"?>
<!DOCTYPE svg PUBLIC "-//W3C//DTD SVG 1.1//EN"
 "http://www.w3.org/Graphics/SVG/1.1/DTD/svg11.dtd">
<!-- Generated by graphviz version 2.26.3 (20100126.1600)
 -->
<!-- Title: G Pages: 1 -->
<!--zoomable 172 -->
<svg id="main" version="1.1" xmlns="http://www.w3.org/2000/svg" xmlns:xlink="http://www.w3.org/1999/xlink" xml:space="preserve" onload="init(evt)">
        <defs>
                <circle id="rim" cx="0" cy="0" r="7"/>
                <circle id="rim2" cx="0" cy="0" r="3.5"/>
                <g id="zoomPlus">
                        <use xlink:href="#rim" fill="#404040">
                                <set attributeName="fill" to="#808080" begin="zoomplus.mouseover" end="zoomplus.mouseout"/>
                        </use>
                        <path d="M-4,0h8M0,-4v8" fill="none" stroke="white" stroke-width="1.5" pointer-events="none"/>
                </g>
                <g id="zoomMin">
                        <use xlink:href="#rim" fill="#404040">
                                <set attributeName="fill" to="#808080" begin="zoomminus.mouseover" end="zoomminus.mouseout"/>
                        </use>
                        <path d="M-4,0h8" fill="none" stroke="white" stroke-width="1.5" pointer-events="none"/>
                </g>
                <g id="dirArrow">
                        <path fill="none" stroke="white" stroke-width="1.5" d="M0,-3.0v7 M-2.5,-0.5L0,-3.0L2.5,-0.5"/>
                </g>
               <g id="resetDef">
                       <use xlink:href="#rim2" fill="#404040">
                               <set attributeName="fill" to="#808080" begin="reset.mouseover" end="reset.mouseout"/>
                       </use>
               </g>
        </defs>

<script type="text/javascript">
var viewWidth = 1482;
var viewHeight = 172;
var sectionId = 'dynsection-1';
</script>
<script xlink:href="svgpan.js"/>
<svg id="graph" class="graph">
<g id="viewport">
<title>G</title>
<polygon fill="white" stroke="white" points="-4,5 -4,-168 1479,-168 1479,5 -4,5"/>
<!-- Node1 -->
<g id="node1" class="node"><title>Node1</title>
<polygon fill="#bfbfbf" stroke="black" points="1206,-59 1206,-81 1474,-81 1474,-59 1206,-59"/>
<text text-anchor="middle" x="1340" y="-68" font-family="FreeSans" font-size="10.00">Mezzanine::Threading::AsynchronousFileLoadWorkUnit</text>
</g>
<!-- Node2 -->
<g id="node2" class="node"><title>Node2</title>
<a xlink:href="classMezzanine_1_1Threading_1_1iAsynchronousWorkUnit.html" target="_top" xlink:title="The interface for a WorkUnit that will keep running when the rest of the scheduler is paused...">
<polygon fill="white" stroke="black" points="866,-120 866,-142 1096,-142 1096,-120 866,-120"/>
<text text-anchor="middle" x="981" y="-129" font-family="FreeSans" font-size="10.00">Mezzanine::Threading::iAsynchronousWorkUnit</text>
</a>
</g>
<!-- Node2&#45;&gt;Node1 -->
<g id="edge2" class="edge"><title>Node2&#45;&gt;Node1</title>
<path fill="none" stroke="midnightblue" d="M1075.11,-118.521C1110.57,-113.515 1151.21,-107.413 1188,-101 1221.96,-95.0809 1259.96,-87.3309 1289.47,-81.0607"/>
<polygon fill="midnightblue" stroke="midnightblue" points="1074.19,-115.116 1064.77,-119.971 1075.16,-122.048 1074.19,-115.116"/>
</g>
<!-- Node3 -->
<g id="node4" class="node"><title>Node3</title>
<a xlink:href="classMezzanine_1_1Threading_1_1DefaultWorkUnit.html" target="_top" xlink:title="Default implementation of WorkUnit. This represents on piece of work through time.">
<polygon fill="white" stroke="black" points="586.5,-120 586.5,-142 783.5,-142 783.5,-120 586.5,-120"/>
<text text-anchor="middle" x="685" y="-129" font-family="FreeSans" font-size="10.00">Mezzanine::Threading::DefaultWorkUnit</text>
</a>
</g>
<!-- Node3&#45;&gt;Node2 -->
<g id="edge4" class="edge"><title>Node3&#45;&gt;Node2</title>
<path fill="none" stroke="midnightblue" d="M793.569,-131C817.137,-131 842.144,-131 865.953,-131"/>
<polygon fill="midnightblue" stroke="midnightblue" points="793.564,-127.5 783.564,-131 793.564,-134.5 793.564,-127.5"/>
</g>
<!-- Node4 -->
<g id="node6" class="node"><title>Node4</title>
<a xlink:href="classMezzanine_1_1Threading_1_1iWorkUnit.html" target="_top" xlink:title="Interface of a WorkUnit. This represents on piece of work through time.">
<polygon fill="white" stroke="black" points="0.5,-142 0.5,-164 167.5,-164 167.5,-142 0.5,-142"/>
<text text-anchor="middle" x="84" y="-151" font-family="FreeSans" font-size="10.00">Mezzanine::Threading::iWorkUnit</text>
</a>
</g>
<!-- Node4&#45;&gt;Node3 -->
<g id="edge6" class="edge"><title>Node4&#45;&gt;Node3</title>
<path fill="none" stroke="midnightblue" d="M177.836,-156.572C275.496,-159.271 432.773,-160.759 568,-149 586.12,-147.424 605.694,-144.787 623.552,-142.01"/>
<polygon fill="midnightblue" stroke="midnightblue" points="177.791,-153.069 167.695,-156.281 177.591,-160.066 177.791,-153.069"/>
</g>
<!-- Node6 -->
<g id="node10" class="node"><title>Node6</title>
<polygon fill="white" stroke="#bfbfbf" points="295.5,-120 295.5,-142 426.5,-142 426.5,-120 295.5,-120"/>
<text text-anchor="middle" x="361" y="-129" font-family="FreeSans" font-size="10.00">std::vector&lt; iWorkUnit * &gt;</text>
</g>
<!-- Node4&#45;&gt;Node6 -->
<g id="edge12" class="edge"><title>Node4&#45;&gt;Node6</title>
<path fill="none" stroke="#9a32cd" stroke-dasharray="5,2" d="M177.815,-142.722C180.573,-142.471 183.306,-142.23 186,-142 222.095,-138.921 262.447,-136.327 295.298,-134.434"/>
<polygon fill="#9a32cd" stroke="#9a32cd" points="177.374,-139.247 167.744,-143.665 178.027,-146.217 177.374,-139.247"/>
<text text-anchor="middle" x="209" y="-147" font-family="FreeSans" font-size="10.00"> elements</text>
</g>
<!-- Node5 -->
<g id="node8" class="node"><title>Node5</title>
<a xlink:href="structMezzanine_1_1DefaultRollingAverage.html" target="_top" xlink:title="Mezzanine::DefaultRollingAverage\&lt; Whole \&gt;">
<polygon fill="white" stroke="black" points="250.5,-80 250.5,-102 471.5,-102 471.5,-80 250.5,-80"/>
<text text-anchor="middle" x="361" y="-89" font-family="FreeSans" font-size="10.00">Mezzanine::DefaultRollingAverage&lt; Whole &gt;</text>
</a>
</g>
<!-- Node5&#45;&gt;Node3 -->
<g id="edge8" class="edge"><title>Node5&#45;&gt;Node3</title>
<path fill="none" stroke="#9a32cd" stroke-dasharray="5,2" d="M481.708,-102.868C510.046,-105.92 540.109,-109.374 568,-113 583.896,-115.066 600.968,-117.545 617.022,-119.992"/>
<polygon fill="#9a32cd" stroke="#9a32cd" points="482.079,-99.3876 471.763,-101.805 481.335,-106.348 482.079,-99.3876"/>
<text text-anchor="middle" x="529" y="-118" font-family="FreeSans" font-size="10.00"> PerformanceLog</text>
</g>
<!-- Node6&#45;&gt;Node3 -->
<g id="edge10" class="edge"><title>Node6&#45;&gt;Node3</title>
<path fill="none" stroke="#9a32cd" stroke-dasharray="5,2" d="M436.752,-131C481.341,-131 538.235,-131 586.304,-131"/>
<polygon fill="#9a32cd" stroke="#9a32cd" points="436.566,-127.5 426.566,-131 436.566,-134.5 436.566,-127.5"/>
<text text-anchor="middle" x="529" y="-136" font-family="FreeSans" font-size="10.00"> Dependencies</text>
</g>
<!-- Node7 -->
<g id="node13" class="node"><title>Node7</title>
<polygon fill="white" stroke="#bfbfbf" points="918.5,-80 918.5,-102 1043.5,-102 1043.5,-80 918.5,-80"/>
<text text-anchor="middle" x="981" y="-89" font-family="FreeSans" font-size="10.00">std::vector&lt; RawFile * &gt;</text>
</g>
<!-- Node7&#45;&gt;Node1 -->
<g id="edge14" class="edge"><title>Node7&#45;&gt;Node1</title>
<path fill="none" stroke="#9a32cd" stroke-dasharray="5,2" d="M1053.76,-86.7439C1097.38,-84.1925 1154.2,-80.8686 1205.71,-77.8556"/>
<polygon fill="#9a32cd" stroke="#9a32cd" points="1053.31,-83.264 1043.53,-87.3421 1053.72,-90.2521 1053.31,-83.264"/>
<text text-anchor="middle" x="1151" y="-88" font-family="FreeSans" font-size="10.00"> FilesRaw</text>
</g>
<!-- Node8 -->
<g id="node15" class="node"><title>Node8</title>
<a xlink:href="classMezzanine_1_1Threading_1_1RawFile.html" target="_top" xlink:title="A simple in memory representation of a file.">
<polygon fill="white" stroke="black" points="604,-80 604,-102 766,-102 766,-80 604,-80"/>
<text text-anchor="middle" x="685" y="-89" font-family="FreeSans" font-size="10.00">Mezzanine::Threading::RawFile</text>
</a>
</g>
<!-- Node8&#45;&gt;Node7 -->
<g id="edge16" class="edge"><title>Node8&#45;&gt;Node7</title>
<path fill="none" stroke="#9a32cd" stroke-dasharray="5,2" d="M776.549,-91C822.519,-91 877.036,-91 918.209,-91"/>
<polygon fill="#9a32cd" stroke="#9a32cd" points="776.275,-87.5001 766.275,-91 776.275,-94.5001 776.275,-87.5001"/>
<text text-anchor="middle" x="825" y="-96" font-family="FreeSans" font-size="10.00"> elements</text>
</g>
<!-- Node9 -->
<g id="node17" class="node"><title>Node9</title>
<a xlink:href="classMezzanine_1_1Threading_1_1thread.html" target="_top" xlink:title="A small wrapper around the system thread.">
<polygon fill="white" stroke="black" points="904,-40 904,-62 1058,-62 1058,-40 904,-40"/>
<text text-anchor="middle" x="981" y="-49" font-family="FreeSans" font-size="10.00">Mezzanine::Threading::thread</text>
</a>
</g>
<!-- Node9&#45;&gt;Node1 -->
<g id="edge18" class="edge"><title>Node9&#45;&gt;Node1</title>
<path fill="none" stroke="#9a32cd" stroke-dasharray="5,2" d="M1068.46,-49.8771C1105.38,-49.9133 1148.82,-50.6256 1188,-53 1209.87,-54.325 1233.43,-56.5615 1255.31,-58.9845"/>
<polygon fill="#9a32cd" stroke="#9a32cd" points="1068.23,-46.3771 1058.23,-49.8839 1068.23,-53.3771 1068.23,-46.3771"/>
<text text-anchor="middle" x="1151" y="-58" font-family="FreeSans" font-size="10.00"> LoadingThread</text>
</g>
<!-- Node10 -->
<g id="node19" class="node"><title>Node10</title>
<polygon fill="white" stroke="#bfbfbf" points="927.5,-0 927.5,-22 1034.5,-22 1034.5,-0 927.5,-0"/>
<text text-anchor="middle" x="981" y="-9" font-family="FreeSans" font-size="10.00">std::vector&lt; String &gt;</text>
</g>
<!-- Node10&#45;&gt;Node1 -->
<g id="edge20" class="edge"><title>Node10&#45;&gt;Node1</title>
<path fill="none" stroke="#9a32cd" stroke-dasharray="5,2" d="M1045.02,-15.5948C1086.08,-19.0849 1140.41,-24.7161 1188,-33 1226.8,-39.753 1270.41,-50.7263 1300.93,-58.9727"/>
<polygon fill="#9a32cd" stroke="#9a32cd" points="1045.14,-12.0925 1034.88,-14.7533 1044.56,-19.0685 1045.14,-12.0925"/>
<text text-anchor="middle" x="1151" y="-38" font-family="FreeSans" font-size="10.00"> Filenames</text>
</g>
<!-- Node11 -->
<g id="node21" class="node"><title>Node11</title>
<a xlink:title="STL class.">
<polygon fill="white" stroke="#bfbfbf" points="655,-0 655,-22 715,-22 715,-0 655,-0"/>
<text text-anchor="middle" x="685" y="-9" font-family="FreeSans" font-size="10.00">std::string</text>
</a>
</g>
<!-- Node11&#45;&gt;Node10 -->
<g id="edge22" class="edge"><title>Node11&#45;&gt;Node10</title>
<path fill="none" stroke="#9a32cd" stroke-dasharray="5,2" d="M725.252,-11C777.626,-11 869.297,-11 927.484,-11"/>
<polygon fill="#9a32cd" stroke="#9a32cd" points="725.011,-7.5001 715.011,-11 725.011,-14.5001 725.011,-7.5001"/>
<text text-anchor="middle" x="825" y="-16" font-family="FreeSans" font-size="10.00"> elements</text>
</g>
<!-- Node12 -->
<g id="node23" class="node"><title>Node12</title>
<a xlink:title="STL class.">
<polygon fill="white" stroke="#bfbfbf" points="297.5,-0 297.5,-22 424.5,-22 424.5,-0 297.5,-0"/>
<text text-anchor="middle" x="361" y="-9" font-family="FreeSans" font-size="10.00">std::basic_string&lt; char &gt;</text>
</a>
</g>
<!-- Node12&#45;&gt;Node11 -->
<g id="edge24" class="edge"><title>Node12&#45;&gt;Node11</title>
<path fill="none" stroke="midnightblue" d="M434.642,-11C504.136,-11 604.885,-11 654.731,-11"/>
<polygon fill="midnightblue" stroke="midnightblue" points="434.625,-7.5001 424.625,-11 434.625,-14.5001 434.625,-7.5001"/>
</g>
</g>
</svg>
        <g id="navigator" transform="translate(0 0)" fill="#404254">
                <rect fill="#f2f5e9" fill-opacity="0.5" stroke="#606060" stroke-width=".5" x="0" y="0" width="60" height="60"/>
                <use id="zoomplus" xlink:href="#zoomPlus" x="17" y="9" onmousedown="handleZoom(evt,'in')"/>
                <use id="zoomminus" xlink:href="#zoomMin" x="42" y="9" onmousedown="handleZoom(evt,'out')"/>
                <use id="reset" xlink:href="#resetDef" x="30" y="36" onmousedown="handleReset()"/>
                <g id="arrowUp" xlink:href="#dirArrow" transform="translate(30 24)" onmousedown="handlePan(0,-1)">
                  <use xlink:href="#rim" fill="#404040">
                        <set attributeName="fill" to="#808080" begin="arrowUp.mouseover" end="arrowUp.mouseout"/>
                  </use>
                  <path fill="none" stroke="white" stroke-width="1.5" d="M0,-3.0v7 M-2.5,-0.5L0,-3.0L2.5,-0.5"/>
                </g>
                <g id="arrowRight" xlink:href="#dirArrow" transform="rotate(90) translate(36 -43)" onmousedown="handlePan(1,0)">
                  <use xlink:href="#rim" fill="#404040">
                        <set attributeName="fill" to="#808080" begin="arrowRight.mouseover" end="arrowRight.mouseout"/>
                  </use>
                  <path fill="none" stroke="white" stroke-width="1.5" d="M0,-3.0v7 M-2.5,-0.5L0,-3.0L2.5,-0.5"/>
                </g>
                <g id="arrowDown" xlink:href="#dirArrow" transform="rotate(180) translate(-30 -48)" onmousedown="handlePan(0,1)">
                  <use xlink:href="#rim" fill="#404040">
                        <set attributeName="fill" to="#808080" begin="arrowDown.mouseover" end="arrowDown.mouseout"/>
                  </use>
                  <path fill="none" stroke="white" stroke-width="1.5" d="M0,-3.0v7 M-2.5,-0.5L0,-3.0L2.5,-0.5"/>
                </g>
                <g id="arrowLeft" xlink:href="#dirArrow" transform="rotate(270) translate(-36 17)" onmousedown="handlePan(-1,0)">
                  <use xlink:href="#rim" fill="#404040">
                        <set attributeName="fill" to="#808080" begin="arrowLeft.mouseover" end="arrowLeft.mouseout"/>
                  </use>
                  <path fill="none" stroke="white" stroke-width="1.5" d="M0,-3.0v7 M-2.5,-0.5L0,-3.0L2.5,-0.5"/>
                </g>
        </g>
</svg>
