<?xml version="1.0" encoding="UTF-8" standalone="no"?>
<!DOCTYPE svg PUBLIC "-//W3C//DTD SVG 1.1//EN"
 "http://www.w3.org/Graphics/SVG/1.1/DTD/svg11.dtd">
<!-- Generated by graphviz version 2.26.3 (20100126.1600)
 -->
<!-- Title: G Pages: 1 -->
<svg width="362pt" height="180pt"
 viewBox="0.00 0.00 362.00 180.00" xmlns="http://www.w3.org/2000/svg" xmlns:xlink="http://www.w3.org/1999/xlink">
<g id="graph1" class="graph" transform="scale(1 1) rotate(0) translate(4 176)">
<title>G</title>
<polygon fill="white" stroke="white" points="-4,5 -4,-176 359,-176 359,5 -4,5"/>
<!-- Node1 -->
<g id="node1" class="node"><title>Node1</title>
<polygon fill="#bfbfbf" stroke="black" points="0,-1 0,-23 208,-23 208,-1 0,-1"/>
<text text-anchor="middle" x="104" y="-10" font-family="FreeSans" font-size="10.00">Mezzanine::Threading::LogBufferSwapper</text>
</g>
<!-- Node2 -->
<g id="node2" class="node"><title>Node2</title>
<a xlink:href="classMezzanine_1_1Threading_1_1WorkUnit.html" target="_top" xlink:title="Default implementation of WorkUnit. This represents on piece of work through time.">
<polygon fill="white" stroke="black" points="139.5,-75 139.5,-97 304.5,-97 304.5,-75 139.5,-75"/>
<text text-anchor="middle" x="222" y="-84" font-family="FreeSans" font-size="10.00">Mezzanine::Threading::WorkUnit</text>
</a>
</g>
<!-- Node2&#45;&gt;Node1 -->
<g id="edge2" class="edge"><title>Node2&#45;&gt;Node1</title>
<path fill="none" stroke="midnightblue" d="M195.616,-69.4539C173.116,-55.3439 141.388,-35.4468 121.787,-23.1543"/>
<polygon fill="midnightblue" stroke="midnightblue" points="194.003,-72.5737 204.334,-74.9215 197.722,-66.6433 194.003,-72.5737"/>
</g>
<!-- Node3 -->
<g id="node4" class="node"><title>Node3</title>
<polygon fill="white" stroke="#bfbfbf" points="226,-1 226,-23 354,-23 354,-1 226,-1"/>
<text text-anchor="middle" x="290" y="-10" font-family="FreeSans" font-size="10.00">std::vector&lt; WorkUnit * &gt;</text>
</g>
<!-- Node2&#45;&gt;Node3 -->
<g id="edge6" class="edge"><title>Node2&#45;&gt;Node3</title>
<path fill="none" stroke="#9a32cd" stroke-dasharray="5,2" d="M215.446,-65.0158C214.266,-57.2244 214.578,-48.6684 219,-42 224.62,-33.524 233.161,-27.4366 242.393,-23.0666"/>
<polygon fill="#9a32cd" stroke="#9a32cd" points="212.072,-65.9615 217.733,-74.9174 218.893,-64.3863 212.072,-65.9615"/>
<text text-anchor="middle" x="241.5" y="-47" font-family="FreeSans" font-size="10.00"> elements</text>
</g>
<!-- Node3&#45;&gt;Node2 -->
<g id="edge4" class="edge"><title>Node3&#45;&gt;Node2</title>
<path fill="none" stroke="#9a32cd" stroke-dasharray="5,2" d="M282.486,-32.4621C278.912,-40.3947 274.075,-49.1878 268,-56 261.273,-63.5427 252.231,-69.9826 243.943,-74.9397"/>
<polygon fill="#9a32cd" stroke="#9a32cd" points="285.774,-33.668 286.335,-23.0881 279.299,-31.0089 285.774,-33.668"/>
<text text-anchor="middle" x="312" y="-47" font-family="FreeSans" font-size="10.00"> Dependencies</text>
</g>
<!-- Node4 -->
<g id="node7" class="node"><title>Node4</title>
<a xlink:href="structMezzanine_1_1DefaultRollingAverage.html" target="_top" xlink:title="Mezzanine::DefaultRollingAverage\&lt; Whole \&gt;">
<polygon fill="white" stroke="black" points="111.5,-149 111.5,-171 332.5,-171 332.5,-149 111.5,-149"/>
<text text-anchor="middle" x="222" y="-158" font-family="FreeSans" font-size="10.00">Mezzanine::DefaultRollingAverage&lt; Whole &gt;</text>
</a>
</g>
<!-- Node4&#45;&gt;Node2 -->
<g id="edge8" class="edge"><title>Node4&#45;&gt;Node2</title>
<path fill="none" stroke="#9a32cd" stroke-dasharray="5,2" d="M222,-138.451C222,-125.008 222,-108.249 222,-97.3448"/>
<polygon fill="#9a32cd" stroke="#9a32cd" points="218.5,-138.761 222,-148.761 225.5,-138.761 218.5,-138.761"/>
<text text-anchor="middle" x="261" y="-121" font-family="FreeSans" font-size="10.00"> PerformanceLog</text>
</g>
</g>
</svg>
