<?xml version="1.0" encoding="UTF-8" standalone="no"?>
<!DOCTYPE svg PUBLIC "-//W3C//DTD SVG 1.1//EN"
 "http://www.w3.org/Graphics/SVG/1.1/DTD/svg11.dtd">
<!-- Generated by graphviz version 2.26.3 (20100126.1600)
 -->
<!-- Title: G Pages: 1 -->
<!--zoomable 334 -->
<svg id="main" version="1.1" xmlns="http://www.w3.org/2000/svg" xmlns:xlink="http://www.w3.org/1999/xlink" xml:space="preserve" onload="init(evt)">
        <defs>
                <circle id="rim" cx="0" cy="0" r="7"/>
                <circle id="rim2" cx="0" cy="0" r="3.5"/>
                <g id="zoomPlus">
                        <use xlink:href="#rim" fill="#404040">
                                <set attributeName="fill" to="#808080" begin="zoomplus.mouseover" end="zoomplus.mouseout"/>
                        </use>
                        <path d="M-4,0h8M0,-4v8" fill="none" stroke="white" stroke-width="1.5" pointer-events="none"/>
                </g>
                <g id="zoomMin">
                        <use xlink:href="#rim" fill="#404040">
                                <set attributeName="fill" to="#808080" begin="zoomminus.mouseover" end="zoomminus.mouseout"/>
                        </use>
                        <path d="M-4,0h8" fill="none" stroke="white" stroke-width="1.5" pointer-events="none"/>
                </g>
                <g id="dirArrow">
                        <path fill="none" stroke="white" stroke-width="1.5" d="M0,-3.0v7 M-2.5,-0.5L0,-3.0L2.5,-0.5"/>
                </g>
               <g id="resetDef">
                       <use xlink:href="#rim2" fill="#404040">
                               <set attributeName="fill" to="#808080" begin="reset.mouseover" end="reset.mouseout"/>
                       </use>
               </g>
        </defs>

<script type="text/javascript">
var viewWidth = 1872;
var viewHeight = 334;
var sectionId = 'dynsection-0';
</script>
<script xlink:href="svgpan.js"/>
<svg id="graph" class="graph">
<g id="viewport">
<title>G</title>
<polygon fill="white" stroke="white" points="-4,5 -4,-330.143 1869,-330.143 1869,5 -4,5"/>
<!-- Node1 -->
<g id="node1" class="node"><title>Node1</title>
<polygon fill="#bfbfbf" stroke="black" points="1664,-159.143 1664,-181.143 1864,-181.143 1864,-159.143 1664,-159.143"/>
<text text-anchor="middle" x="1764" y="-168.143" font-family="FreeSans" font-size="10.00">Mezzanine::Threading::FrameScheduler</text>
</g>
<!-- Node2 -->
<g id="node2" class="node"><title>Node2</title>
<a xlink:href="classMezzanine_1_1Threading_1_1Barrier.html" target="_top" xlink:title="A synchronization primitive that causes a predefined number of threads to all wait before continuing...">
<polygon fill="white" stroke="black" points="1326.5,-295.143 1326.5,-317.143 1481.5,-317.143 1481.5,-295.143 1326.5,-295.143"/>
<text text-anchor="middle" x="1404" y="-304.143" font-family="FreeSans" font-size="10.00">Mezzanine::Threading::Barrier</text>
</a>
</g>
<!-- Node2&#45;&gt;Node1 -->
<g id="edge2" class="edge"><title>Node2&#45;&gt;Node1</title>
<path fill="none" stroke="#9a32cd" stroke-dasharray="5,2" d="M1492,-305.195C1539.43,-301.83 1597.92,-292.951 1646,-271.143 1693.64,-249.536 1736.84,-202.675 1754.97,-181.244"/>
<polygon fill="#9a32cd" stroke="#9a32cd" points="1491.51,-301.72 1481.75,-305.85 1491.95,-308.705 1491.51,-301.72"/>
<text text-anchor="middle" x="1598" y="-317.143" font-family="FreeSans" font-size="10.00"> StartFrameSync</text>
<text text-anchor="middle" x="1598" y="-303.143" font-family="FreeSans" font-size="10.00">EndFrameSync</text>
</g>
<!-- Node3 -->
<g id="node4" class="node"><title>Node3</title>
<polygon fill="white" stroke="#bfbfbf" points="1343,-255.143 1343,-277.143 1465,-277.143 1465,-255.143 1343,-255.143"/>
<text text-anchor="middle" x="1404" y="-264.143" font-family="FreeSans" font-size="10.00">std::vector&lt; Thread * &gt;</text>
</g>
<!-- Node3&#45;&gt;Node1 -->
<g id="edge4" class="edge"><title>Node3&#45;&gt;Node1</title>
<path fill="none" stroke="#9a32cd" stroke-dasharray="5,2" d="M1475.39,-262.57C1524.36,-258.568 1590.3,-250.09 1646,-232.143 1684.33,-219.795 1725.07,-195.59 1747.23,-181.351"/>
<polygon fill="#9a32cd" stroke="#9a32cd" points="1474.91,-259.097 1465.21,-263.358 1475.45,-266.076 1474.91,-259.097"/>
<text text-anchor="middle" x="1598" y="-258.143" font-family="FreeSans" font-size="10.00"> Threads</text>
</g>
<!-- Node4 -->
<g id="node6" class="node"><title>Node4</title>
<a xlink:href="classMezzanine_1_1Threading_1_1Thread.html" target="_top" xlink:title="A small wrapper around the system thread.">
<polygon fill="white" stroke="black" points="963.5,-255.143 963.5,-277.143 1122.5,-277.143 1122.5,-255.143 963.5,-255.143"/>
<text text-anchor="middle" x="1043" y="-264.143" font-family="FreeSans" font-size="10.00">Mezzanine::Threading::Thread</text>
</a>
</g>
<!-- Node4&#45;&gt;Node3 -->
<g id="edge6" class="edge"><title>Node4&#45;&gt;Node3</title>
<path fill="none" stroke="#9a32cd" stroke-dasharray="5,2" d="M1132.98,-266.143C1198.38,-266.143 1285.18,-266.143 1342.73,-266.143"/>
<polygon fill="#9a32cd" stroke="#9a32cd" points="1132.67,-262.644 1122.67,-266.143 1132.67,-269.644 1132.67,-262.644"/>
<text text-anchor="middle" x="1217" y="-271.143" font-family="FreeSans" font-size="10.00"> elements</text>
</g>
<!-- Node5 -->
<g id="node8" class="node"><title>Node5</title>
<polygon fill="white" stroke="#bfbfbf" points="1276.5,-215.143 1276.5,-237.143 1531.5,-237.143 1531.5,-215.143 1276.5,-215.143"/>
<text text-anchor="middle" x="1404" y="-224.143" font-family="FreeSans" font-size="10.00">std::vector&lt; DefaultThreadSpecificStorage::Type * &gt;</text>
</g>
<!-- Node5&#45;&gt;Node1 -->
<g id="edge8" class="edge"><title>Node5&#45;&gt;Node1</title>
<path fill="none" stroke="#9a32cd" stroke-dasharray="5,2" d="M1541.75,-215.621C1575.96,-211.991 1612.43,-207.249 1646,-201.143 1673.82,-196.083 1704.71,-187.87 1727.91,-181.169"/>
<polygon fill="#9a32cd" stroke="#9a32cd" points="1541.27,-212.151 1531.69,-216.664 1541.99,-219.114 1541.27,-212.151"/>
<text text-anchor="middle" x="1598" y="-219.143" font-family="FreeSans" font-size="10.00"> Resources</text>
</g>
<!-- Node6 -->
<g id="node10" class="node"><title>Node6</title>
<a xlink:href="classMezzanine_1_1Threading_1_1ThreadSpecificStorage.html" target="_top" xlink:title="A thread specific collection of double&#45;buffered and algorithm specific resources.">
<polygon fill="white" stroke="black" points="928,-215.143 928,-237.143 1158,-237.143 1158,-215.143 928,-215.143"/>
<text text-anchor="middle" x="1043" y="-224.143" font-family="FreeSans" font-size="10.00">Mezzanine::Threading::ThreadSpecificStorage</text>
</a>
</g>
<!-- Node6&#45;&gt;Node5 -->
<g id="edge10" class="edge"><title>Node6&#45;&gt;Node5</title>
<path fill="none" stroke="#9a32cd" stroke-dasharray="5,2" d="M1168.47,-226.143C1203.4,-226.143 1241.37,-226.143 1276.43,-226.143"/>
<polygon fill="#9a32cd" stroke="#9a32cd" points="1168.22,-222.644 1158.22,-226.143 1168.22,-229.644 1168.22,-222.644"/>
<text text-anchor="middle" x="1217" y="-231.143" font-family="FreeSans" font-size="10.00"> elements</text>
</g>
<!-- Node7 -->
<g id="node12" class="node"><title>Node7</title>
<polygon fill="white" stroke="#bfbfbf" points="586,-208.143 586,-230.143 814,-230.143 814,-208.143 586,-208.143"/>
<text text-anchor="middle" x="700" y="-217.143" font-family="FreeSans" font-size="10.00">std::map&lt; iWorkUnit *, std::set&lt; iWorkUnit * &gt; &gt;</text>
</g>
<!-- Node7&#45;&gt;Node1 -->
<g id="edge12" class="edge"><title>Node7&#45;&gt;Node1</title>
<path fill="none" stroke="#9a32cd" stroke-dasharray="5,2" d="M824.547,-211.728C858.126,-209.814 894.447,-207.822 928,-206.143 1193.7,-192.849 1507.05,-180.153 1663.93,-174.002"/>
<polygon fill="#9a32cd" stroke="#9a32cd" points="824.003,-208.253 814.22,-212.319 824.403,-215.241 824.003,-208.253"/>
<text text-anchor="middle" x="1217" y="-198.143" font-family="FreeSans" font-size="10.00"> DependentGraph</text>
</g>
<!-- Node8 -->
<g id="node14" class="node"><title>Node8</title>
<polygon fill="white" stroke="#bfbfbf" points="303,-251.143 303,-273.143 419,-273.143 419,-251.143 303,-251.143"/>
<text text-anchor="middle" x="361" y="-260.143" font-family="FreeSans" font-size="10.00">std::set&lt; iWorkUnit * &gt;</text>
</g>
<!-- Node8&#45;&gt;Node7 -->
<g id="edge14" class="edge"><title>Node8&#45;&gt;Node7</title>
<path fill="none" stroke="#9a32cd" stroke-dasharray="5,2" d="M429.253,-253.486C482.247,-246.764 556.085,-237.398 613.266,-230.145"/>
<polygon fill="#9a32cd" stroke="#9a32cd" points="428.756,-250.021 419.276,-254.751 429.637,-256.965 428.756,-250.021"/>
<text text-anchor="middle" x="529" y="-250.143" font-family="FreeSans" font-size="10.00"> elements</text>
</g>
<!-- Node9 -->
<g id="node16" class="node"><title>Node9</title>
<a xlink:href="classMezzanine_1_1Threading_1_1iWorkUnit.html" target="_top" xlink:title="Interface of a WorkUnit. This represents on piece of work through time.">
<polygon fill="white" stroke="black" points="0.5,-122.143 0.5,-144.143 167.5,-144.143 167.5,-122.143 0.5,-122.143"/>
<text text-anchor="middle" x="84" y="-131.143" font-family="FreeSans" font-size="10.00">Mezzanine::Threading::iWorkUnit</text>
</a>
</g>
<!-- Node9&#45;&gt;Node7 -->
<g id="edge18" class="edge"><title>Node9&#45;&gt;Node7</title>
<path fill="none" stroke="#9a32cd" stroke-dasharray="5,2" d="M117.731,-148.31C150.717,-162.373 202.739,-182.528 250,-192.143 362.549,-215.042 493.935,-220.56 585.578,-221.099"/>
<polygon fill="#9a32cd" stroke="#9a32cd" points="118.7,-144.916 108.132,-144.16 115.922,-151.341 118.7,-144.916"/>
<text text-anchor="middle" x="361" y="-222.143" font-family="FreeSans" font-size="10.00"> keys</text>
</g>
<!-- Node9&#45;&gt;Node8 -->
<g id="edge16" class="edge"><title>Node9&#45;&gt;Node8</title>
<path fill="none" stroke="#9a32cd" stroke-dasharray="5,2" d="M97.7199,-152.49C115.328,-175.714 148.159,-213.928 186,-233.143 222.109,-251.479 267.296,-258.63 302.709,-261.248"/>
<polygon fill="#9a32cd" stroke="#9a32cd" points="100.496,-150.357 91.7381,-144.394 94.8657,-154.517 100.496,-150.357"/>
<text text-anchor="middle" x="209" y="-254.143" font-family="FreeSans" font-size="10.00"> keys</text>
</g>
<!-- Node12 -->
<g id="node23" class="node"><title>Node12</title>
<a xlink:href="classMezzanine_1_1Threading_1_1DefaultWorkUnit.html" target="_top" xlink:title="Default implementation of WorkUnit. This represents on piece of work through time.">
<polygon fill="white" stroke="black" points="601.5,-122.143 601.5,-144.143 798.5,-144.143 798.5,-122.143 601.5,-122.143"/>
<text text-anchor="middle" x="700" y="-131.143" font-family="FreeSans" font-size="10.00">Mezzanine::Threading::DefaultWorkUnit</text>
</a>
</g>
<!-- Node9&#45;&gt;Node12 -->
<g id="edge26" class="edge"><title>Node9&#45;&gt;Node12</title>
<path fill="none" stroke="midnightblue" d="M177.864,-133.143C292.325,-133.143 484.9,-133.143 601.448,-133.143"/>
<polygon fill="midnightblue" stroke="midnightblue" points="177.718,-129.644 167.718,-133.143 177.718,-136.644 177.718,-129.644"/>
</g>
<!-- Node14 -->
<g id="node28" class="node"><title>Node14</title>
<polygon fill="white" stroke="#bfbfbf" points="295.5,-83.1435 295.5,-105.143 426.5,-105.143 426.5,-83.1435 295.5,-83.1435"/>
<text text-anchor="middle" x="361" y="-92.1435" font-family="FreeSans" font-size="10.00">std::vector&lt; iWorkUnit * &gt;</text>
</g>
<!-- Node9&#45;&gt;Node14 -->
<g id="edge32" class="edge"><title>Node9&#45;&gt;Node14</title>
<path fill="none" stroke="#9a32cd" stroke-dasharray="5,2" d="M127.241,-119.162C145.228,-113.901 166.438,-108.408 186,-105.143 221.882,-99.156 262.397,-96.3615 295.401,-95.0837"/>
<polygon fill="#9a32cd" stroke="#9a32cd" points="126.188,-115.824 117.612,-122.045 128.195,-122.53 126.188,-115.824"/>
<text text-anchor="middle" x="209" y="-110.143" font-family="FreeSans" font-size="10.00"> elements</text>
</g>
<!-- Node17 -->
<g id="node36" class="node"><title>Node17</title>
<a xlink:href="classMezzanine_1_1Threading_1_1WorkUnitKey.html" target="_top" xlink:title="Stores data about a single work unit so that it can easily be sorted.">
<polygon fill="white" stroke="black" points="270,-43.1435 270,-65.1435 452,-65.1435 452,-43.1435 270,-43.1435"/>
<text text-anchor="middle" x="361" y="-52.1435" font-family="FreeSans" font-size="10.00">Mezzanine::Threading::WorkUnitKey</text>
</a>
</g>
<!-- Node9&#45;&gt;Node17 -->
<g id="edge42" class="edge"><title>Node9&#45;&gt;Node17</title>
<path fill="none" stroke="#9a32cd" stroke-dasharray="5,2" d="M110.138,-116.872C130.172,-105.143 158.893,-89.8944 186,-81.1435 212.622,-72.5491 242.43,-66.6531 269.795,-62.6231"/>
<polygon fill="#9a32cd" stroke="#9a32cd" points="108.106,-114.009 101.314,-122.14 111.694,-120.019 108.106,-114.009"/>
<text text-anchor="middle" x="209" y="-86.1435" font-family="FreeSans" font-size="10.00"> Unit</text>
</g>
<!-- Node10 -->
<g id="node19" class="node"><title>Node10</title>
<polygon fill="white" stroke="#bfbfbf" points="1317.5,-137.143 1317.5,-159.143 1490.5,-159.143 1490.5,-137.143 1317.5,-137.143"/>
<text text-anchor="middle" x="1404" y="-146.143" font-family="FreeSans" font-size="10.00">std::vector&lt; MonopolyWorkUnit * &gt;</text>
</g>
<!-- Node10&#45;&gt;Node1 -->
<g id="edge20" class="edge"><title>Node10&#45;&gt;Node1</title>
<path fill="none" stroke="#9a32cd" stroke-dasharray="5,2" d="M1500.76,-151.488C1545.06,-153.29 1598.22,-155.832 1646,-159.143 1651.85,-159.549 1657.86,-160 1663.92,-160.483"/>
<polygon fill="#9a32cd" stroke="#9a32cd" points="1500.71,-147.984 1490.58,-151.081 1500.43,-154.978 1500.71,-147.984"/>
<text text-anchor="middle" x="1598" y="-164.143" font-family="FreeSans" font-size="10.00"> WorkUnitMonopolies</text>
</g>
<!-- Node11 -->
<g id="node21" class="node"><title>Node11</title>
<a xlink:href="classMezzanine_1_1Threading_1_1MonopolyWorkUnit.html" target="_top" xlink:title="A kind of workunit given exclusive runtime so it can consume time on multiple threads.">
<polygon fill="white" stroke="black" points="938.5,-137.143 938.5,-159.143 1147.5,-159.143 1147.5,-137.143 938.5,-137.143"/>
<text text-anchor="middle" x="1043" y="-146.143" font-family="FreeSans" font-size="10.00">Mezzanine::Threading::MonopolyWorkUnit</text>
</a>
</g>
<!-- Node11&#45;&gt;Node10 -->
<g id="edge22" class="edge"><title>Node11&#45;&gt;Node10</title>
<path fill="none" stroke="#9a32cd" stroke-dasharray="5,2" d="M1158.11,-148.143C1209.76,-148.143 1269.65,-148.143 1317.4,-148.143"/>
<polygon fill="#9a32cd" stroke="#9a32cd" points="1157.9,-144.644 1147.9,-148.143 1157.9,-151.644 1157.9,-144.644"/>
<text text-anchor="middle" x="1217" y="-153.143" font-family="FreeSans" font-size="10.00"> elements</text>
</g>
<!-- Node12&#45;&gt;Node11 -->
<g id="edge24" class="edge"><title>Node12&#45;&gt;Node11</title>
<path fill="none" stroke="midnightblue" d="M808.73,-139.04C816.604,-139.427 824.424,-139.799 832,-140.143 866.606,-141.717 904.415,-143.219 938.347,-144.488"/>
<polygon fill="midnightblue" stroke="midnightblue" points="808.903,-135.544 798.741,-138.543 808.555,-142.535 808.903,-135.544"/>
</g>
<!-- Node15 -->
<g id="node31" class="node"><title>Node15</title>
<a xlink:href="classMezzanine_1_1Threading_1_1WorkSorter.html" target="_top" xlink:title="Sorts all of the WorkUnits in the FrameScheduler.">
<polygon fill="white" stroke="black" points="955,-94.1435 955,-116.143 1131,-116.143 1131,-94.1435 955,-94.1435"/>
<text text-anchor="middle" x="1043" y="-103.143" font-family="FreeSans" font-size="10.00">Mezzanine::Threading::WorkSorter</text>
</a>
</g>
<!-- Node12&#45;&gt;Node15 -->
<g id="edge36" class="edge"><title>Node12&#45;&gt;Node15</title>
<path fill="none" stroke="midnightblue" d="M808.987,-124.247C856.058,-120.404 910.408,-115.967 954.875,-112.337"/>
<polygon fill="midnightblue" stroke="midnightblue" points="808.432,-120.78 798.75,-125.082 809.001,-127.757 808.432,-120.78"/>
</g>
<!-- Node13 -->
<g id="node26" class="node"><title>Node13</title>
<a xlink:href="structMezzanine_1_1DefaultRollingAverage.html" target="_top" xlink:title="Mezzanine::DefaultRollingAverage\&lt; Whole \&gt;">
<polygon fill="white" stroke="black" points="250.5,-161.143 250.5,-183.143 471.5,-183.143 471.5,-161.143 250.5,-161.143"/>
<text text-anchor="middle" x="361" y="-170.143" font-family="FreeSans" font-size="10.00">Mezzanine::DefaultRollingAverage&lt; Whole &gt;</text>
</a>
</g>
<!-- Node13&#45;&gt;Node12 -->
<g id="edge28" class="edge"><title>Node13&#45;&gt;Node12</title>
<path fill="none" stroke="#9a32cd" stroke-dasharray="5,2" d="M466.916,-159.958C510.817,-154.908 561.374,-149.092 604.159,-144.169"/>
<polygon fill="#9a32cd" stroke="#9a32cd" points="466.319,-156.504 456.784,-161.124 467.119,-163.458 466.319,-156.504"/>
<text text-anchor="middle" x="529" y="-162.143" font-family="FreeSans" font-size="10.00"> PerformanceLog</text>
</g>
<!-- Node14&#45;&gt;Node12 -->
<g id="edge30" class="edge"><title>Node14&#45;&gt;Node12</title>
<path fill="none" stroke="#9a32cd" stroke-dasharray="5,2" d="M436.546,-95.3324C475.877,-96.6646 524.674,-99.4326 568,-105.143 597.729,-109.062 630.729,-116.062 656.297,-122.082"/>
<polygon fill="#9a32cd" stroke="#9a32cd" points="436.606,-91.8327 426.5,-95.0162 436.385,-98.8292 436.606,-91.8327"/>
<text text-anchor="middle" x="529" y="-110.143" font-family="FreeSans" font-size="10.00"> Dependencies</text>
</g>
<!-- Node15&#45;&gt;Node1 -->
<g id="edge34" class="edge"><title>Node15&#45;&gt;Node1</title>
<path fill="none" stroke="#9a32cd" stroke-dasharray="5,2" d="M1141.31,-100.683C1240.39,-97.6567 1397.45,-96.8773 1532,-114.143 1602.89,-123.241 1683.59,-145.504 1728.68,-159.06"/>
<polygon fill="#9a32cd" stroke="#9a32cd" points="1141.2,-97.1845 1131.32,-101.002 1141.42,-104.181 1141.2,-97.1845"/>
<text text-anchor="middle" x="1404" y="-119.143" font-family="FreeSans" font-size="10.00"> Sorter</text>
</g>
<!-- Node16 -->
<g id="node34" class="node"><title>Node16</title>
<polygon fill="white" stroke="#bfbfbf" points="630.5,-43.1435 630.5,-65.1435 769.5,-65.1435 769.5,-43.1435 630.5,-43.1435"/>
<text text-anchor="middle" x="700" y="-52.1435" font-family="FreeSans" font-size="10.00">std::vector&lt; WorkUnitKey &gt;</text>
</g>
<!-- Node16&#45;&gt;Node1 -->
<g id="edge44" class="edge"><title>Node16&#45;&gt;Node1</title>
<path fill="none" stroke="#9a32cd" stroke-dasharray="5,2" d="M779.869,-53.8476C888.264,-53.906 1087.95,-55.6434 1258,-66.1435 1380.18,-73.6877 1410.68,-77.8509 1532,-94.1435 1582.91,-100.98 1597.04,-97.5927 1646,-113.143 1682.86,-124.853 1722.8,-146.146 1745.48,-159.132"/>
<polygon fill="#9a32cd" stroke="#9a32cd" points="779.668,-50.3477 769.668,-53.847 779.668,-57.3477 779.668,-50.3477"/>
<text text-anchor="middle" x="1217" y="-85.1435" font-family="FreeSans" font-size="10.00"> WorkUnitsAffinity</text>
<text text-anchor="middle" x="1217" y="-71.1435" font-family="FreeSans" font-size="10.00">WorkUnitsMain</text>
</g>
<!-- Node16&#45;&gt;Node15 -->
<g id="edge38" class="edge"><title>Node16&#45;&gt;Node15</title>
<path fill="none" stroke="#9a32cd" stroke-dasharray="5,2" d="M779.607,-65.2348C818.88,-70.7783 866.949,-77.67 910,-84.1435 930.92,-87.2892 953.671,-90.8353 974.343,-94.1054"/>
<polygon fill="#9a32cd" stroke="#9a32cd" points="779.95,-61.7487 769.56,-63.819 778.973,-68.6802 779.95,-61.7487"/>
<text text-anchor="middle" x="871" y="-103.143" font-family="FreeSans" font-size="10.00"> WorkUnitsAffinity</text>
<text text-anchor="middle" x="871" y="-89.1435" font-family="FreeSans" font-size="10.00">WorkUnitsMain</text>
</g>
<!-- Node17&#45;&gt;Node16 -->
<g id="edge40" class="edge"><title>Node17&#45;&gt;Node16</title>
<path fill="none" stroke="#9a32cd" stroke-dasharray="5,2" d="M462.614,-54.1435C516.756,-54.1435 581.967,-54.1435 630.331,-54.1435"/>
<polygon fill="#9a32cd" stroke="#9a32cd" points="462.292,-50.6436 452.292,-54.1435 462.292,-57.6436 462.292,-50.6436"/>
<text text-anchor="middle" x="529" y="-59.1435" font-family="FreeSans" font-size="10.00"> elements</text>
</g>
<!-- Node18 -->
<g id="node40" class="node"><title>Node18</title>
<a xlink:title="STL class.">
<polygon fill="white" stroke="#bfbfbf" points="1367.5,-3.14346 1367.5,-25.1435 1440.5,-25.1435 1440.5,-3.14346 1367.5,-3.14346"/>
<text text-anchor="middle" x="1404" y="-12.1435" font-family="FreeSans" font-size="10.00">std::ostream</text>
</a>
</g>
<!-- Node18&#45;&gt;Node1 -->
<g id="edge46" class="edge"><title>Node18&#45;&gt;Node1</title>
<path fill="none" stroke="#9a32cd" stroke-dasharray="5,2" d="M1450.82,-5.44794C1501.75,1.63644 1584.15,6.00645 1646,-25.1435 1705.42,-55.0721 1745.34,-130.049 1758.89,-158.735"/>
<polygon fill="#9a32cd" stroke="#9a32cd" points="1450.14,-2.01081 1440.76,-6.94006 1451.17,-8.93507 1450.14,-2.01081"/>
<text text-anchor="middle" x="1598" y="-30.1435" font-family="FreeSans" font-size="10.00"> LogDestination</text>
</g>
<!-- Node19 -->
<g id="node42" class="node"><title>Node19</title>
<a xlink:title="STL class.">
<polygon fill="white" stroke="#bfbfbf" points="973,-3.14346 973,-25.1435 1113,-25.1435 1113,-3.14346 973,-3.14346"/>
<text text-anchor="middle" x="1043" y="-12.1435" font-family="FreeSans" font-size="10.00">std::basic_ostream&lt; char &gt;</text>
</a>
</g>
<!-- Node19&#45;&gt;Node18 -->
<g id="edge48" class="edge"><title>Node19&#45;&gt;Node18</title>
<path fill="none" stroke="midnightblue" d="M1123.07,-14.1435C1199.19,-14.1435 1310.26,-14.1435 1367.26,-14.1435"/>
<polygon fill="midnightblue" stroke="midnightblue" points="1123.03,-10.6436 1113.03,-14.1435 1123.03,-17.6436 1123.03,-10.6436"/>
</g>
<!-- Node20 -->
<g id="node44" class="node"><title>Node20</title>
<a xlink:title="STL class.">
<polygon fill="white" stroke="#bfbfbf" points="640.5,-3.14346 640.5,-25.1435 759.5,-25.1435 759.5,-3.14346 640.5,-3.14346"/>
<text text-anchor="middle" x="700" y="-12.1435" font-family="FreeSans" font-size="10.00">std::basic_ios&lt; Char &gt;</text>
</a>
</g>
<!-- Node20&#45;&gt;Node19 -->
<g id="edge50" class="edge"><title>Node20&#45;&gt;Node19</title>
<path fill="none" stroke="midnightblue" d="M769.75,-14.1435C828.912,-14.1435 913.377,-14.1435 972.696,-14.1435"/>
<polygon fill="midnightblue" stroke="midnightblue" points="769.746,-10.6436 759.746,-14.1435 769.746,-17.6436 769.746,-10.6436"/>
</g>
<!-- Node21 -->
<g id="node46" class="node"><title>Node21</title>
<a xlink:title="STL class.">
<polygon fill="white" stroke="#bfbfbf" points="322.5,-3.14346 322.5,-25.1435 399.5,-25.1435 399.5,-3.14346 322.5,-3.14346"/>
<text text-anchor="middle" x="361" y="-12.1435" font-family="FreeSans" font-size="10.00">std::ios_base</text>
</a>
</g>
<!-- Node21&#45;&gt;Node20 -->
<g id="edge52" class="edge"><title>Node21&#45;&gt;Node20</title>
<path fill="none" stroke="midnightblue" d="M409.676,-14.1435C470.577,-14.1435 574.819,-14.1435 640.425,-14.1435"/>
<polygon fill="midnightblue" stroke="midnightblue" points="409.558,-10.6436 399.558,-14.1435 409.558,-17.6436 409.558,-10.6436"/>
</g>
</g>
</svg>
        <g id="navigator" transform="translate(0 0)" fill="#404254">
                <rect fill="#f2f5e9" fill-opacity="0.5" stroke="#606060" stroke-width=".5" x="0" y="0" width="60" height="60"/>
                <use id="zoomplus" xlink:href="#zoomPlus" x="17" y="9" onmousedown="handleZoom(evt,'in')"/>
                <use id="zoomminus" xlink:href="#zoomMin" x="42" y="9" onmousedown="handleZoom(evt,'out')"/>
                <use id="reset" xlink:href="#resetDef" x="30" y="36" onmousedown="handleReset()"/>
                <g id="arrowUp" xlink:href="#dirArrow" transform="translate(30 24)" onmousedown="handlePan(0,-1)">
                  <use xlink:href="#rim" fill="#404040">
                        <set attributeName="fill" to="#808080" begin="arrowUp.mouseover" end="arrowUp.mouseout"/>
                  </use>
                  <path fill="none" stroke="white" stroke-width="1.5" d="M0,-3.0v7 M-2.5,-0.5L0,-3.0L2.5,-0.5"/>
                </g>
                <g id="arrowRight" xlink:href="#dirArrow" transform="rotate(90) translate(36 -43)" onmousedown="handlePan(1,0)">
                  <use xlink:href="#rim" fill="#404040">
                        <set attributeName="fill" to="#808080" begin="arrowRight.mouseover" end="arrowRight.mouseout"/>
                  </use>
                  <path fill="none" stroke="white" stroke-width="1.5" d="M0,-3.0v7 M-2.5,-0.5L0,-3.0L2.5,-0.5"/>
                </g>
                <g id="arrowDown" xlink:href="#dirArrow" transform="rotate(180) translate(-30 -48)" onmousedown="handlePan(0,1)">
                  <use xlink:href="#rim" fill="#404040">
                        <set attributeName="fill" to="#808080" begin="arrowDown.mouseover" end="arrowDown.mouseout"/>
                  </use>
                  <path fill="none" stroke="white" stroke-width="1.5" d="M0,-3.0v7 M-2.5,-0.5L0,-3.0L2.5,-0.5"/>
                </g>
                <g id="arrowLeft" xlink:href="#dirArrow" transform="rotate(270) translate(-36 17)" onmousedown="handlePan(-1,0)">
                  <use xlink:href="#rim" fill="#404040">
                        <set attributeName="fill" to="#808080" begin="arrowLeft.mouseover" end="arrowLeft.mouseout"/>
                  </use>
                  <path fill="none" stroke="white" stroke-width="1.5" d="M0,-3.0v7 M-2.5,-0.5L0,-3.0L2.5,-0.5"/>
                </g>
        </g>
</svg>
