<?xml version="1.0" encoding="UTF-8" standalone="no"?>
<!DOCTYPE svg PUBLIC "-//W3C//DTD SVG 1.1//EN"
 "http://www.w3.org/Graphics/SVG/1.1/DTD/svg11.dtd">
<!-- Generated by graphviz version 2.26.3 (20100126.1600)
 -->
<!-- Title: G Pages: 1 -->
<!--zoomable 296 -->
<svg id="main" version="1.1" xmlns="http://www.w3.org/2000/svg" xmlns:xlink="http://www.w3.org/1999/xlink" xml:space="preserve" onload="init(evt)">
        <defs>
                <circle id="rim" cx="0" cy="0" r="7"/>
                <circle id="rim2" cx="0" cy="0" r="3.5"/>
                <g id="zoomPlus">
                        <use xlink:href="#rim" fill="#404040">
                                <set attributeName="fill" to="#808080" begin="zoomplus.mouseover" end="zoomplus.mouseout"/>
                        </use>
                        <path d="M-4,0h8M0,-4v8" fill="none" stroke="white" stroke-width="1.5" pointer-events="none"/>
                </g>
                <g id="zoomMin">
                        <use xlink:href="#rim" fill="#404040">
                                <set attributeName="fill" to="#808080" begin="zoomminus.mouseover" end="zoomminus.mouseout"/>
                        </use>
                        <path d="M-4,0h8" fill="none" stroke="white" stroke-width="1.5" pointer-events="none"/>
                </g>
                <g id="dirArrow">
                        <path fill="none" stroke="white" stroke-width="1.5" d="M0,-3.0v7 M-2.5,-0.5L0,-3.0L2.5,-0.5"/>
                </g>
               <g id="resetDef">
                       <use xlink:href="#rim2" fill="#404040">
                               <set attributeName="fill" to="#808080" begin="reset.mouseover" end="reset.mouseout"/>
                       </use>
               </g>
        </defs>

<script type="text/javascript">
var viewWidth = 1934;
var viewHeight = 296;
var sectionId = 'dynsection-0';
</script>
<script xlink:href="svgpan.js"/>
<svg id="graph" class="graph">
<g id="viewport">
<title>G</title>
<polygon fill="white" stroke="white" points="-4,5 -4,-292 1931,-292 1931,5 -4,5"/>
<!-- Node1 -->
<g id="node1" class="node"><title>Node1</title>
<polygon fill="#bfbfbf" stroke="black" points="1726,-147 1726,-169 1926,-169 1926,-147 1726,-147"/>
<text text-anchor="middle" x="1826" y="-156" font-family="FreeSans" font-size="10.00">Mezzanine::Threading::FrameScheduler</text>
</g>
<!-- Node2 -->
<g id="node2" class="node"><title>Node2</title>
<a xlink:href="classMezzanine_1_1Threading_1_1Barrier.html" target="_top" xlink:title="A synchronization primitive that causes a predefined number of threads to all wait before continuing...">
<polygon fill="white" stroke="black" points="1388.5,-266 1388.5,-288 1543.5,-288 1543.5,-266 1388.5,-266"/>
<text text-anchor="middle" x="1466" y="-275" font-family="FreeSans" font-size="10.00">Mezzanine::Threading::Barrier</text>
</a>
</g>
<!-- Node2&#45;&gt;Node1 -->
<g id="edge2" class="edge"><title>Node2&#45;&gt;Node1</title>
<path fill="none" stroke="#9a32cd" stroke-dasharray="5,2" d="M1553.68,-270.819C1600.76,-265.287 1659.02,-254.814 1708,-235 1749.5,-218.213 1791.97,-186.079 1812.81,-169.118"/>
<polygon fill="#9a32cd" stroke="#9a32cd" points="1553.05,-267.367 1543.5,-271.959 1553.83,-274.324 1553.05,-267.367"/>
<text text-anchor="middle" x="1660" y="-279" font-family="FreeSans" font-size="10.00"> StartFrameSync</text>
<text text-anchor="middle" x="1660" y="-265" font-family="FreeSans" font-size="10.00">EndFrameSync</text>
</g>
<!-- Node3 -->
<g id="node4" class="node"><title>Node3</title>
<polygon fill="white" stroke="#bfbfbf" points="1405,-226 1405,-248 1527,-248 1527,-226 1405,-226"/>
<text text-anchor="middle" x="1466" y="-235" font-family="FreeSans" font-size="10.00">std::vector&lt; Thread * &gt;</text>
</g>
<!-- Node3&#45;&gt;Node1 -->
<g id="edge4" class="edge"><title>Node3&#45;&gt;Node1</title>
<path fill="none" stroke="#9a32cd" stroke-dasharray="5,2" d="M1537.12,-229.243C1585.7,-223.116 1651.29,-213.21 1708,-199 1739.77,-191.041 1775.11,-178.206 1798.76,-169.017"/>
<polygon fill="#9a32cd" stroke="#9a32cd" points="1536.52,-225.791 1527.02,-230.494 1537.38,-232.738 1536.52,-225.791"/>
<text text-anchor="middle" x="1660" y="-222" font-family="FreeSans" font-size="10.00"> Threads</text>
</g>
<!-- Node4 -->
<g id="node6" class="node"><title>Node4</title>
<a xlink:href="classMezzanine_1_1Threading_1_1Thread.html" target="_top" xlink:title="A small wrapper around the system thread.">
<polygon fill="white" stroke="black" points="1025.5,-226 1025.5,-248 1184.5,-248 1184.5,-226 1025.5,-226"/>
<text text-anchor="middle" x="1105" y="-235" font-family="FreeSans" font-size="10.00">Mezzanine::Threading::Thread</text>
</a>
</g>
<!-- Node4&#45;&gt;Node3 -->
<g id="edge6" class="edge"><title>Node4&#45;&gt;Node3</title>
<path fill="none" stroke="#9a32cd" stroke-dasharray="5,2" d="M1194.98,-237C1260.38,-237 1347.18,-237 1404.73,-237"/>
<polygon fill="#9a32cd" stroke="#9a32cd" points="1194.67,-233.5 1184.67,-237 1194.67,-240.5 1194.67,-233.5"/>
<text text-anchor="middle" x="1279" y="-242" font-family="FreeSans" font-size="10.00"> elements</text>
</g>
<!-- Node5 -->
<g id="node8" class="node"><title>Node5</title>
<polygon fill="white" stroke="#bfbfbf" points="1338.5,-186 1338.5,-208 1593.5,-208 1593.5,-186 1338.5,-186"/>
<text text-anchor="middle" x="1466" y="-195" font-family="FreeSans" font-size="10.00">std::vector&lt; DefaultThreadSpecificStorage::Type * &gt;</text>
</g>
<!-- Node5&#45;&gt;Node1 -->
<g id="edge8" class="edge"><title>Node5&#45;&gt;Node1</title>
<path fill="none" stroke="#9a32cd" stroke-dasharray="5,2" d="M1586.27,-184.938C1625.13,-180.944 1668.4,-176.394 1708,-172 1716.51,-171.056 1725.36,-170.05 1734.22,-169.027"/>
<polygon fill="#9a32cd" stroke="#9a32cd" points="1585.56,-181.493 1575.97,-185.995 1586.27,-188.457 1585.56,-181.493"/>
<text text-anchor="middle" x="1660" y="-186" font-family="FreeSans" font-size="10.00"> Resources</text>
</g>
<!-- Node6 -->
<g id="node10" class="node"><title>Node6</title>
<a xlink:href="classMezzanine_1_1Threading_1_1ThreadSpecificStorage.html" target="_top" xlink:title="A thread specific collection of double&#45;buffered and algorithm specific resources.">
<polygon fill="white" stroke="black" points="990,-186 990,-208 1220,-208 1220,-186 990,-186"/>
<text text-anchor="middle" x="1105" y="-195" font-family="FreeSans" font-size="10.00">Mezzanine::Threading::ThreadSpecificStorage</text>
</a>
</g>
<!-- Node6&#45;&gt;Node5 -->
<g id="edge10" class="edge"><title>Node6&#45;&gt;Node5</title>
<path fill="none" stroke="#9a32cd" stroke-dasharray="5,2" d="M1230.47,-197C1265.4,-197 1303.37,-197 1338.43,-197"/>
<polygon fill="#9a32cd" stroke="#9a32cd" points="1230.22,-193.5 1220.22,-197 1230.22,-200.5 1230.22,-193.5"/>
<text text-anchor="middle" x="1279" y="-202" font-family="FreeSans" font-size="10.00"> elements</text>
</g>
<!-- Node7 -->
<g id="node12" class="node"><title>Node7</title>
<polygon fill="white" stroke="#bfbfbf" points="586,-205 586,-227 814,-227 814,-205 586,-205"/>
<text text-anchor="middle" x="700" y="-214" font-family="FreeSans" font-size="10.00">std::map&lt; iWorkUnit *, std::set&lt; iWorkUnit * &gt; &gt;</text>
</g>
<!-- Node7&#45;&gt;Node1 -->
<g id="edge12" class="edge"><title>Node7&#45;&gt;Node1</title>
<path fill="none" stroke="#9a32cd" stroke-dasharray="5,2" d="M776.244,-203.393C834.587,-194.318 917.141,-182.709 990,-177 1255.04,-156.231 1568.68,-155.453 1725.77,-156.693"/>
<polygon fill="#9a32cd" stroke="#9a32cd" points="775.342,-199.991 766.004,-204.998 776.426,-206.907 775.342,-199.991"/>
<text text-anchor="middle" x="1279" y="-167" font-family="FreeSans" font-size="10.00"> DependentGraph</text>
</g>
<!-- Node8 -->
<g id="node14" class="node"><title>Node8</title>
<polygon fill="white" stroke="#bfbfbf" points="303,-248 303,-270 419,-270 419,-248 303,-248"/>
<text text-anchor="middle" x="361" y="-257" font-family="FreeSans" font-size="10.00">std::set&lt; iWorkUnit * &gt;</text>
</g>
<!-- Node8&#45;&gt;Node7 -->
<g id="edge14" class="edge"><title>Node8&#45;&gt;Node7</title>
<path fill="none" stroke="#9a32cd" stroke-dasharray="5,2" d="M429.253,-250.343C482.247,-243.621 556.085,-234.255 613.266,-227.002"/>
<polygon fill="#9a32cd" stroke="#9a32cd" points="428.756,-246.877 419.276,-251.608 429.637,-253.822 428.756,-246.877"/>
<text text-anchor="middle" x="529" y="-247" font-family="FreeSans" font-size="10.00"> elements</text>
</g>
<!-- Node9 -->
<g id="node16" class="node"><title>Node9</title>
<a xlink:href="classMezzanine_1_1Threading_1_1iWorkUnit.html" target="_top" xlink:title="Interface of a WorkUnit. This represents on piece of work through time.">
<polygon fill="white" stroke="black" points="0.5,-119 0.5,-141 167.5,-141 167.5,-119 0.5,-119"/>
<text text-anchor="middle" x="84" y="-128" font-family="FreeSans" font-size="10.00">Mezzanine::Threading::iWorkUnit</text>
</a>
</g>
<!-- Node9&#45;&gt;Node7 -->
<g id="edge18" class="edge"><title>Node9&#45;&gt;Node7</title>
<path fill="none" stroke="#9a32cd" stroke-dasharray="5,2" d="M117.731,-145.167C150.717,-159.229 202.739,-179.385 250,-189 362.549,-211.898 493.935,-217.416 585.578,-217.956"/>
<polygon fill="#9a32cd" stroke="#9a32cd" points="118.7,-141.772 108.132,-141.016 115.922,-148.198 118.7,-141.772"/>
<text text-anchor="middle" x="361" y="-219" font-family="FreeSans" font-size="10.00"> keys</text>
</g>
<!-- Node9&#45;&gt;Node8 -->
<g id="edge16" class="edge"><title>Node9&#45;&gt;Node8</title>
<path fill="none" stroke="#9a32cd" stroke-dasharray="5,2" d="M97.7199,-149.347C115.328,-172.571 148.159,-210.785 186,-230 222.109,-248.336 267.296,-255.486 302.709,-258.104"/>
<polygon fill="#9a32cd" stroke="#9a32cd" points="100.496,-147.214 91.7381,-141.251 94.8657,-151.373 100.496,-147.214"/>
<text text-anchor="middle" x="209" y="-251" font-family="FreeSans" font-size="10.00"> keys</text>
</g>
<!-- Node12 -->
<g id="node23" class="node"><title>Node12</title>
<a xlink:href="classMezzanine_1_1Threading_1_1DefaultWorkUnit.html" target="_top" xlink:title="Default implementation of WorkUnit. This represents on piece of work through time.">
<polygon fill="white" stroke="black" points="601.5,-117 601.5,-139 798.5,-139 798.5,-117 601.5,-117"/>
<text text-anchor="middle" x="700" y="-126" font-family="FreeSans" font-size="10.00">Mezzanine::Threading::DefaultWorkUnit</text>
</a>
</g>
<!-- Node9&#45;&gt;Node12 -->
<g id="edge26" class="edge"><title>Node9&#45;&gt;Node12</title>
<path fill="none" stroke="midnightblue" d="M177.864,-129.695C292.325,-129.324 484.9,-128.698 601.448,-128.32"/>
<polygon fill="midnightblue" stroke="midnightblue" points="177.706,-126.196 167.718,-129.728 177.729,-133.196 177.706,-126.196"/>
</g>
<!-- Node14 -->
<g id="node28" class="node"><title>Node14</title>
<polygon fill="white" stroke="#bfbfbf" points="295.5,-80 295.5,-102 426.5,-102 426.5,-80 295.5,-80"/>
<text text-anchor="middle" x="361" y="-89" font-family="FreeSans" font-size="10.00">std::vector&lt; iWorkUnit * &gt;</text>
</g>
<!-- Node9&#45;&gt;Node14 -->
<g id="edge32" class="edge"><title>Node9&#45;&gt;Node14</title>
<path fill="none" stroke="#9a32cd" stroke-dasharray="5,2" d="M127.241,-116.018C145.228,-110.758 166.438,-105.264 186,-102 221.882,-96.0125 262.397,-93.218 295.401,-91.9402"/>
<polygon fill="#9a32cd" stroke="#9a32cd" points="126.188,-112.68 117.612,-118.902 128.195,-119.386 126.188,-112.68"/>
<text text-anchor="middle" x="209" y="-107" font-family="FreeSans" font-size="10.00"> elements</text>
</g>
<!-- Node16 -->
<g id="node33" class="node"><title>Node16</title>
<a xlink:href="classMezzanine_1_1Threading_1_1WorkUnitKey.html" target="_top" xlink:title="Stores data about a single work unit so that it can easily be sorted.">
<polygon fill="white" stroke="black" points="270,-40 270,-62 452,-62 452,-40 270,-40"/>
<text text-anchor="middle" x="361" y="-49" font-family="FreeSans" font-size="10.00">Mezzanine::Threading::WorkUnitKey</text>
</a>
</g>
<!-- Node9&#45;&gt;Node16 -->
<g id="edge38" class="edge"><title>Node9&#45;&gt;Node16</title>
<path fill="none" stroke="#9a32cd" stroke-dasharray="5,2" d="M110.138,-113.728C130.172,-101.999 158.893,-86.7509 186,-78 212.622,-69.4056 242.43,-63.5097 269.795,-59.4797"/>
<polygon fill="#9a32cd" stroke="#9a32cd" points="108.106,-110.865 101.314,-118.997 111.694,-116.876 108.106,-110.865"/>
<text text-anchor="middle" x="209" y="-83" font-family="FreeSans" font-size="10.00"> Unit</text>
</g>
<!-- Node10 -->
<g id="node19" class="node"><title>Node10</title>
<polygon fill="white" stroke="#bfbfbf" points="1379.5,-108 1379.5,-130 1552.5,-130 1552.5,-108 1379.5,-108"/>
<text text-anchor="middle" x="1466" y="-117" font-family="FreeSans" font-size="10.00">std::vector&lt; MonopolyWorkUnit * &gt;</text>
</g>
<!-- Node10&#45;&gt;Node1 -->
<g id="edge20" class="edge"><title>Node10&#45;&gt;Node1</title>
<path fill="none" stroke="#9a32cd" stroke-dasharray="5,2" d="M1562.82,-119.255C1607.23,-120.433 1660.47,-123.341 1708,-130 1734.9,-133.769 1764.65,-140.849 1787.55,-146.947"/>
<polygon fill="#9a32cd" stroke="#9a32cd" points="1562.68,-115.751 1552.6,-119.01 1562.52,-122.749 1562.68,-115.751"/>
<text text-anchor="middle" x="1660" y="-135" font-family="FreeSans" font-size="10.00"> WorkUnitMonopolies</text>
</g>
<!-- Node11 -->
<g id="node21" class="node"><title>Node11</title>
<a xlink:href="classMezzanine_1_1Threading_1_1MonopolyWorkUnit.html" target="_top" xlink:title="A kind of workunit given exclusive runtime so it can consume time on multiple threads.">
<polygon fill="white" stroke="black" points="1000.5,-108 1000.5,-130 1209.5,-130 1209.5,-108 1000.5,-108"/>
<text text-anchor="middle" x="1105" y="-117" font-family="FreeSans" font-size="10.00">Mezzanine::Threading::MonopolyWorkUnit</text>
</a>
</g>
<!-- Node11&#45;&gt;Node10 -->
<g id="edge22" class="edge"><title>Node11&#45;&gt;Node10</title>
<path fill="none" stroke="#9a32cd" stroke-dasharray="5,2" d="M1220.11,-119C1271.76,-119 1331.65,-119 1379.4,-119"/>
<polygon fill="#9a32cd" stroke="#9a32cd" points="1219.9,-115.5 1209.9,-119 1219.9,-122.5 1219.9,-115.5"/>
<text text-anchor="middle" x="1279" y="-124" font-family="FreeSans" font-size="10.00"> elements</text>
</g>
<!-- Node12&#45;&gt;Node11 -->
<g id="edge24" class="edge"><title>Node12&#45;&gt;Node11</title>
<path fill="none" stroke="midnightblue" d="M808.732,-125.584C868.198,-124.262 941.509,-122.633 1000.33,-121.326"/>
<polygon fill="midnightblue" stroke="midnightblue" points="808.476,-122.088 798.556,-125.81 808.632,-129.087 808.476,-122.088"/>
</g>
<!-- Node13 -->
<g id="node26" class="node"><title>Node13</title>
<a xlink:href="structMezzanine_1_1DefaultRollingAverage.html" target="_top" xlink:title="Mezzanine::DefaultRollingAverage\&lt; Whole \&gt;">
<polygon fill="white" stroke="black" points="250.5,-158 250.5,-180 471.5,-180 471.5,-158 250.5,-158"/>
<text text-anchor="middle" x="361" y="-167" font-family="FreeSans" font-size="10.00">Mezzanine::DefaultRollingAverage&lt; Whole &gt;</text>
</a>
</g>
<!-- Node13&#45;&gt;Node12 -->
<g id="edge28" class="edge"><title>Node13&#45;&gt;Node12</title>
<path fill="none" stroke="#9a32cd" stroke-dasharray="5,2" d="M462.487,-156.752C496.074,-152.696 533.641,-148.157 568,-144 581.292,-142.392 595.337,-140.691 609.111,-139.022"/>
<polygon fill="#9a32cd" stroke="#9a32cd" points="461.707,-153.321 452.199,-157.994 462.546,-160.27 461.707,-153.321"/>
<text text-anchor="middle" x="529" y="-157" font-family="FreeSans" font-size="10.00"> PerformanceLog</text>
</g>
<!-- Node14&#45;&gt;Node12 -->
<g id="edge30" class="edge"><title>Node14&#45;&gt;Node12</title>
<path fill="none" stroke="#9a32cd" stroke-dasharray="5,2" d="M436.96,-92.4663C476.204,-93.8733 524.798,-96.6248 568,-102 596.277,-105.518 627.582,-111.588 652.606,-116.979"/>
<polygon fill="#9a32cd" stroke="#9a32cd" points="437.046,-88.9673 426.934,-92.1285 436.81,-95.9633 437.046,-88.9673"/>
<text text-anchor="middle" x="529" y="-107" font-family="FreeSans" font-size="10.00"> Dependencies</text>
</g>
<!-- Node15 -->
<g id="node31" class="node"><title>Node15</title>
<polygon fill="white" stroke="#bfbfbf" points="832.5,-46 832.5,-68 971.5,-68 971.5,-46 832.5,-46"/>
<text text-anchor="middle" x="902" y="-55" font-family="FreeSans" font-size="10.00">std::vector&lt; WorkUnitKey &gt;</text>
</g>
<!-- Node15&#45;&gt;Node1 -->
<g id="edge34" class="edge"><title>Node15&#45;&gt;Node1</title>
<path fill="none" stroke="#9a32cd" stroke-dasharray="5,2" d="M982.12,-59.3654C1111.24,-63.7383 1373.24,-74.9284 1594,-99 1644.99,-104.56 1658.24,-104.533 1708,-117 1739.77,-124.959 1775.11,-137.794 1798.76,-146.983"/>
<polygon fill="#9a32cd" stroke="#9a32cd" points="982.037,-55.8607 971.926,-59.025 981.803,-62.8568 982.037,-55.8607"/>
<text text-anchor="middle" x="1279" y="-94" font-family="FreeSans" font-size="10.00"> WorkUnitsAffinity</text>
<text text-anchor="middle" x="1279" y="-80" font-family="FreeSans" font-size="10.00">WorkUnitsMain</text>
</g>
<!-- Node16&#45;&gt;Node15 -->
<g id="edge36" class="edge"><title>Node16&#45;&gt;Node15</title>
<path fill="none" stroke="#9a32cd" stroke-dasharray="5,2" d="M462.422,-52.1248C570.435,-53.3228 738.491,-55.1866 832.431,-56.2284"/>
<polygon fill="#9a32cd" stroke="#9a32cd" points="462.2,-48.6222 452.162,-52.011 462.122,-55.6218 462.2,-48.6222"/>
<text text-anchor="middle" x="529" y="-58" font-family="FreeSans" font-size="10.00"> elements</text>
</g>
<!-- Node17 -->
<g id="node36" class="node"><title>Node17</title>
<a xlink:title="STL class.">
<polygon fill="white" stroke="#bfbfbf" points="1429.5,-16 1429.5,-38 1502.5,-38 1502.5,-16 1429.5,-16"/>
<text text-anchor="middle" x="1466" y="-25" font-family="FreeSans" font-size="10.00">std::ostream</text>
</a>
</g>
<!-- Node17&#45;&gt;Node1 -->
<g id="edge40" class="edge"><title>Node17&#45;&gt;Node1</title>
<path fill="none" stroke="#9a32cd" stroke-dasharray="5,2" d="M1512.71,-19.6665C1563.21,-13.8823 1644.92,-10.8637 1708,-39 1761.14,-62.7052 1803.27,-122.003 1819.16,-146.811"/>
<polygon fill="#9a32cd" stroke="#9a32cd" points="1512.24,-16.1987 1502.74,-20.892 1513.09,-23.1465 1512.24,-16.1987"/>
<text text-anchor="middle" x="1660" y="-44" font-family="FreeSans" font-size="10.00"> LogDestination</text>
</g>
<!-- Node18 -->
<g id="node38" class="node"><title>Node18</title>
<a xlink:title="STL class.">
<polygon fill="white" stroke="#bfbfbf" points="1035,-15 1035,-37 1175,-37 1175,-15 1035,-15"/>
<text text-anchor="middle" x="1105" y="-24" font-family="FreeSans" font-size="10.00">std::basic_ostream&lt; char &gt;</text>
</a>
</g>
<!-- Node18&#45;&gt;Node17 -->
<g id="edge42" class="edge"><title>Node18&#45;&gt;Node17</title>
<path fill="none" stroke="midnightblue" d="M1185.07,-26.2218C1261.19,-26.4326 1372.26,-26.7403 1429.26,-26.8982"/>
<polygon fill="midnightblue" stroke="midnightblue" points="1185.04,-22.7218 1175.03,-26.194 1185.02,-29.7218 1185.04,-22.7218"/>
</g>
<!-- Node19 -->
<g id="node40" class="node"><title>Node19</title>
<a xlink:title="STL class.">
<polygon fill="white" stroke="#bfbfbf" points="640.5,-5 640.5,-27 759.5,-27 759.5,-5 640.5,-5"/>
<text text-anchor="middle" x="700" y="-14" font-family="FreeSans" font-size="10.00">std::basic_ios&lt; Char &gt;</text>
</a>
</g>
<!-- Node19&#45;&gt;Node18 -->
<g id="edge44" class="edge"><title>Node19&#45;&gt;Node18</title>
<path fill="none" stroke="midnightblue" d="M769.932,-17.7267C844.078,-19.5575 960.524,-22.4327 1034.78,-24.2662"/>
<polygon fill="midnightblue" stroke="midnightblue" points="769.843,-14.2235 759.759,-17.4755 769.67,-21.2214 769.843,-14.2235"/>
</g>
<!-- Node20 -->
<g id="node42" class="node"><title>Node20</title>
<a xlink:title="STL class.">
<polygon fill="white" stroke="#bfbfbf" points="322.5,-0 322.5,-22 399.5,-22 399.5,-0 322.5,-0"/>
<text text-anchor="middle" x="361" y="-9" font-family="FreeSans" font-size="10.00">std::ios_base</text>
</a>
</g>
<!-- Node20&#45;&gt;Node19 -->
<g id="edge46" class="edge"><title>Node20&#45;&gt;Node19</title>
<path fill="none" stroke="midnightblue" d="M409.676,-11.7179C470.577,-12.6162 574.819,-14.1537 640.425,-15.1213"/>
<polygon fill="midnightblue" stroke="midnightblue" points="409.608,-8.21665 399.558,-11.5687 409.505,-15.2159 409.608,-8.21665"/>
</g>
</g>
</svg>
        <g id="navigator" transform="translate(0 0)" fill="#404254">
                <rect fill="#f2f5e9" fill-opacity="0.5" stroke="#606060" stroke-width=".5" x="0" y="0" width="60" height="60"/>
                <use id="zoomplus" xlink:href="#zoomPlus" x="17" y="9" onmousedown="handleZoom(evt,'in')"/>
                <use id="zoomminus" xlink:href="#zoomMin" x="42" y="9" onmousedown="handleZoom(evt,'out')"/>
                <use id="reset" xlink:href="#resetDef" x="30" y="36" onmousedown="handleReset()"/>
                <g id="arrowUp" xlink:href="#dirArrow" transform="translate(30 24)" onmousedown="handlePan(0,-1)">
                  <use xlink:href="#rim" fill="#404040">
                        <set attributeName="fill" to="#808080" begin="arrowUp.mouseover" end="arrowUp.mouseout"/>
                  </use>
                  <path fill="none" stroke="white" stroke-width="1.5" d="M0,-3.0v7 M-2.5,-0.5L0,-3.0L2.5,-0.5"/>
                </g>
                <g id="arrowRight" xlink:href="#dirArrow" transform="rotate(90) translate(36 -43)" onmousedown="handlePan(1,0)">
                  <use xlink:href="#rim" fill="#404040">
                        <set attributeName="fill" to="#808080" begin="arrowRight.mouseover" end="arrowRight.mouseout"/>
                  </use>
                  <path fill="none" stroke="white" stroke-width="1.5" d="M0,-3.0v7 M-2.5,-0.5L0,-3.0L2.5,-0.5"/>
                </g>
                <g id="arrowDown" xlink:href="#dirArrow" transform="rotate(180) translate(-30 -48)" onmousedown="handlePan(0,1)">
                  <use xlink:href="#rim" fill="#404040">
                        <set attributeName="fill" to="#808080" begin="arrowDown.mouseover" end="arrowDown.mouseout"/>
                  </use>
                  <path fill="none" stroke="white" stroke-width="1.5" d="M0,-3.0v7 M-2.5,-0.5L0,-3.0L2.5,-0.5"/>
                </g>
                <g id="arrowLeft" xlink:href="#dirArrow" transform="rotate(270) translate(-36 17)" onmousedown="handlePan(-1,0)">
                  <use xlink:href="#rim" fill="#404040">
                        <set attributeName="fill" to="#808080" begin="arrowLeft.mouseover" end="arrowLeft.mouseout"/>
                  </use>
                  <path fill="none" stroke="white" stroke-width="1.5" d="M0,-3.0v7 M-2.5,-0.5L0,-3.0L2.5,-0.5"/>
                </g>
        </g>
</svg>
