<?xml version="1.0" encoding="UTF-8" standalone="no"?>
<!DOCTYPE svg PUBLIC "-//W3C//DTD SVG 1.1//EN"
 "http://www.w3.org/Graphics/SVG/1.1/DTD/svg11.dtd">
<!-- Generated by graphviz version 2.26.3 (20100126.1600)
 -->
<!-- Title: G Pages: 1 -->
<svg width="228pt" height="180pt"
 viewBox="0.00 0.00 228.00 180.00" xmlns="http://www.w3.org/2000/svg" xmlns:xlink="http://www.w3.org/1999/xlink">
<g id="graph1" class="graph" transform="scale(1 1) rotate(0) translate(4 176)">
<title>G</title>
<polygon fill="white" stroke="white" points="-4,5 -4,-176 225,-176 225,5 -4,5"/>
<!-- Node1 -->
<g id="node1" class="node"><title>Node1</title>
<polygon fill="#bfbfbf" stroke="black" points="27.5,-75 27.5,-97 192.5,-97 192.5,-75 27.5,-75"/>
<text text-anchor="middle" x="110" y="-84" font-family="FreeSans" font-size="10.00">Mezzanine::Threading::WorkUnit</text>
</g>
<!-- Node2 -->
<g id="node2" class="node"><title>Node2</title>
<polygon fill="white" stroke="#bfbfbf" points="46,-1 46,-23 174,-23 174,-1 46,-1"/>
<text text-anchor="middle" x="110" y="-10" font-family="FreeSans" font-size="10.00">std::vector&lt; WorkUnit * &gt;</text>
</g>
<!-- Node1&#45;&gt;Node2 -->
<g id="edge4" class="edge"><title>Node1&#45;&gt;Node2</title>
<path fill="none" stroke="#9a32cd" stroke-dasharray="5,2" d="M82,-68.1477C78.3608,-64.5822 75.1548,-60.5212 73,-56 66.9884,-43.3863 78.6176,-31.4096 90.391,-23.1457"/>
<polygon fill="#9a32cd" stroke="#9a32cd" points="79.9701,-71.0133 89.8807,-74.7592 84.4692,-65.6506 79.9701,-71.0133"/>
<text text-anchor="middle" x="95.5" y="-47" font-family="FreeSans" font-size="10.00"> elements</text>
</g>
<!-- Node2&#45;&gt;Node1 -->
<g id="edge2" class="edge"><title>Node2&#45;&gt;Node1</title>
<path fill="none" stroke="#9a32cd" stroke-dasharray="5,2" d="M119.375,-32.4831C120.46,-35.6137 121.394,-38.8516 122,-42 123.177,-48.11 123.177,-49.89 122,-56 120.748,-62.4998 118.101,-69.3815 115.61,-74.9121"/>
<polygon fill="#9a32cd" stroke="#9a32cd" points="122.579,-31.0686 115.61,-23.0879 116.081,-33.6723 122.579,-31.0686"/>
<text text-anchor="middle" x="157" y="-47" font-family="FreeSans" font-size="10.00"> Dependencies</text>
</g>
<!-- Node3 -->
<g id="node5" class="node"><title>Node3</title>
<a xlink:href="structMezzanine_1_1DefaultRollingAverage.html" target="_top" xlink:title="Mezzanine::DefaultRollingAverage\&lt; Whole \&gt;">
<polygon fill="white" stroke="black" points="-0.5,-149 -0.5,-171 220.5,-171 220.5,-149 -0.5,-149"/>
<text text-anchor="middle" x="110" y="-158" font-family="FreeSans" font-size="10.00">Mezzanine::DefaultRollingAverage&lt; Whole &gt;</text>
</a>
</g>
<!-- Node3&#45;&gt;Node1 -->
<g id="edge6" class="edge"><title>Node3&#45;&gt;Node1</title>
<path fill="none" stroke="#9a32cd" stroke-dasharray="5,2" d="M110,-138.451C110,-125.008 110,-108.249 110,-97.3448"/>
<polygon fill="#9a32cd" stroke="#9a32cd" points="106.5,-138.761 110,-148.761 113.5,-138.761 106.5,-138.761"/>
<text text-anchor="middle" x="149" y="-121" font-family="FreeSans" font-size="10.00"> PerformanceLog</text>
</g>
</g>
</svg>
