<?xml version="1.0" encoding="UTF-8" standalone="no"?>
<!DOCTYPE svg PUBLIC "-//W3C//DTD SVG 1.1//EN"
 "http://www.w3.org/Graphics/SVG/1.1/DTD/svg11.dtd">
<!-- Generated by graphviz version 2.26.3 (20100126.1600)
 -->
<!-- Title: G Pages: 1 -->
<!--zoomable 92 -->
<svg id="main" version="1.1" xmlns="http://www.w3.org/2000/svg" xmlns:xlink="http://www.w3.org/1999/xlink" xml:space="preserve" onload="init(evt)">
        <defs>
                <circle id="rim" cx="0" cy="0" r="7"/>
                <circle id="rim2" cx="0" cy="0" r="3.5"/>
                <g id="zoomPlus">
                        <use xlink:href="#rim" fill="#404040">
                                <set attributeName="fill" to="#808080" begin="zoomplus.mouseover" end="zoomplus.mouseout"/>
                        </use>
                        <path d="M-4,0h8M0,-4v8" fill="none" stroke="white" stroke-width="1.5" pointer-events="none"/>
                </g>
                <g id="zoomMin">
                        <use xlink:href="#rim" fill="#404040">
                                <set attributeName="fill" to="#808080" begin="zoomminus.mouseover" end="zoomminus.mouseout"/>
                        </use>
                        <path d="M-4,0h8" fill="none" stroke="white" stroke-width="1.5" pointer-events="none"/>
                </g>
                <g id="dirArrow">
                        <path fill="none" stroke="white" stroke-width="1.5" d="M0,-3.0v7 M-2.5,-0.5L0,-3.0L2.5,-0.5"/>
                </g>
               <g id="resetDef">
                       <use xlink:href="#rim2" fill="#404040">
                               <set attributeName="fill" to="#808080" begin="reset.mouseover" end="reset.mouseout"/>
                       </use>
               </g>
        </defs>

<script type="text/javascript">
var viewWidth = 792;
var viewHeight = 92;
var sectionId = 'dynsection-1';
</script>
<script xlink:href="svgpan.js"/>
<svg id="graph" class="graph">
<g id="viewport">
<title>G</title>
<polygon fill="white" stroke="white" points="-4,5 -4,-88 789,-88 789,5 -4,5"/>
<!-- Node1 -->
<g id="node1" class="node"><title>Node1</title>
<polygon fill="#bfbfbf" stroke="black" points="586.5,-40 586.5,-62 783.5,-62 783.5,-40 586.5,-40"/>
<text text-anchor="middle" x="685" y="-49" font-family="FreeSans" font-size="10.00">Mezzanine::Threading::DefaultWorkUnit</text>
</g>
<!-- Node2 -->
<g id="node2" class="node"><title>Node2</title>
<a xlink:href="classMezzanine_1_1Threading_1_1iWorkUnit.html" target="_top" xlink:title="Interface of a WorkUnit. This represents on piece of work through time.">
<polygon fill="white" stroke="black" points="0.5,-62 0.5,-84 167.5,-84 167.5,-62 0.5,-62"/>
<text text-anchor="middle" x="84" y="-71" font-family="FreeSans" font-size="10.00">Mezzanine::Threading::iWorkUnit</text>
</a>
</g>
<!-- Node2&#45;&gt;Node1 -->
<g id="edge2" class="edge"><title>Node2&#45;&gt;Node1</title>
<path fill="none" stroke="midnightblue" d="M177.836,-76.5716C275.496,-79.271 432.773,-80.7591 568,-69 586.12,-67.4243 605.694,-64.7869 623.552,-62.0101"/>
<polygon fill="midnightblue" stroke="midnightblue" points="177.791,-73.069 167.695,-76.281 177.591,-80.0661 177.791,-73.069"/>
</g>
<!-- Node4 -->
<g id="node6" class="node"><title>Node4</title>
<polygon fill="white" stroke="#bfbfbf" points="295.5,-40 295.5,-62 426.5,-62 426.5,-40 295.5,-40"/>
<text text-anchor="middle" x="361" y="-49" font-family="FreeSans" font-size="10.00">std::vector&lt; iWorkUnit * &gt;</text>
</g>
<!-- Node2&#45;&gt;Node4 -->
<g id="edge8" class="edge"><title>Node2&#45;&gt;Node4</title>
<path fill="none" stroke="#9a32cd" stroke-dasharray="5,2" d="M177.815,-62.7215C180.573,-62.471 183.306,-62.2298 186,-62 222.095,-58.9209 262.447,-56.3275 295.298,-54.4336"/>
<polygon fill="#9a32cd" stroke="#9a32cd" points="177.374,-59.2474 167.744,-63.6651 178.027,-66.2169 177.374,-59.2474"/>
<text text-anchor="middle" x="209" y="-67" font-family="FreeSans" font-size="10.00"> elements</text>
</g>
<!-- Node3 -->
<g id="node4" class="node"><title>Node3</title>
<a xlink:href="structMezzanine_1_1DefaultRollingAverage.html" target="_top" xlink:title="Mezzanine::DefaultRollingAverage\&lt; Whole \&gt;">
<polygon fill="white" stroke="black" points="250.5,-0 250.5,-22 471.5,-22 471.5,-0 250.5,-0"/>
<text text-anchor="middle" x="361" y="-9" font-family="FreeSans" font-size="10.00">Mezzanine::DefaultRollingAverage&lt; Whole &gt;</text>
</a>
</g>
<!-- Node3&#45;&gt;Node1 -->
<g id="edge4" class="edge"><title>Node3&#45;&gt;Node1</title>
<path fill="none" stroke="#9a32cd" stroke-dasharray="5,2" d="M481.708,-22.8678C510.046,-25.9201 540.109,-29.3744 568,-33 583.896,-35.0664 600.968,-37.5446 617.022,-39.9918"/>
<polygon fill="#9a32cd" stroke="#9a32cd" points="482.079,-19.3876 471.763,-21.8054 481.335,-26.348 482.079,-19.3876"/>
<text text-anchor="middle" x="529" y="-38" font-family="FreeSans" font-size="10.00"> PerformanceLog</text>
</g>
<!-- Node4&#45;&gt;Node1 -->
<g id="edge6" class="edge"><title>Node4&#45;&gt;Node1</title>
<path fill="none" stroke="#9a32cd" stroke-dasharray="5,2" d="M436.752,-51C481.341,-51 538.235,-51 586.304,-51"/>
<polygon fill="#9a32cd" stroke="#9a32cd" points="436.566,-47.5001 426.566,-51 436.566,-54.5001 436.566,-47.5001"/>
<text text-anchor="middle" x="529" y="-56" font-family="FreeSans" font-size="10.00"> Dependencies</text>
</g>
</g>
</svg>
        <g id="navigator" transform="translate(0 0)" fill="#404254">
                <rect fill="#f2f5e9" fill-opacity="0.5" stroke="#606060" stroke-width=".5" x="0" y="0" width="60" height="60"/>
                <use id="zoomplus" xlink:href="#zoomPlus" x="17" y="9" onmousedown="handleZoom(evt,'in')"/>
                <use id="zoomminus" xlink:href="#zoomMin" x="42" y="9" onmousedown="handleZoom(evt,'out')"/>
                <use id="reset" xlink:href="#resetDef" x="30" y="36" onmousedown="handleReset()"/>
                <g id="arrowUp" xlink:href="#dirArrow" transform="translate(30 24)" onmousedown="handlePan(0,-1)">
                  <use xlink:href="#rim" fill="#404040">
                        <set attributeName="fill" to="#808080" begin="arrowUp.mouseover" end="arrowUp.mouseout"/>
                  </use>
                  <path fill="none" stroke="white" stroke-width="1.5" d="M0,-3.0v7 M-2.5,-0.5L0,-3.0L2.5,-0.5"/>
                </g>
                <g id="arrowRight" xlink:href="#dirArrow" transform="rotate(90) translate(36 -43)" onmousedown="handlePan(1,0)">
                  <use xlink:href="#rim" fill="#404040">
                        <set attributeName="fill" to="#808080" begin="arrowRight.mouseover" end="arrowRight.mouseout"/>
                  </use>
                  <path fill="none" stroke="white" stroke-width="1.5" d="M0,-3.0v7 M-2.5,-0.5L0,-3.0L2.5,-0.5"/>
                </g>
                <g id="arrowDown" xlink:href="#dirArrow" transform="rotate(180) translate(-30 -48)" onmousedown="handlePan(0,1)">
                  <use xlink:href="#rim" fill="#404040">
                        <set attributeName="fill" to="#808080" begin="arrowDown.mouseover" end="arrowDown.mouseout"/>
                  </use>
                  <path fill="none" stroke="white" stroke-width="1.5" d="M0,-3.0v7 M-2.5,-0.5L0,-3.0L2.5,-0.5"/>
                </g>
                <g id="arrowLeft" xlink:href="#dirArrow" transform="rotate(270) translate(-36 17)" onmousedown="handlePan(-1,0)">
                  <use xlink:href="#rim" fill="#404040">
                        <set attributeName="fill" to="#808080" begin="arrowLeft.mouseover" end="arrowLeft.mouseout"/>
                  </use>
                  <path fill="none" stroke="white" stroke-width="1.5" d="M0,-3.0v7 M-2.5,-0.5L0,-3.0L2.5,-0.5"/>
                </g>
        </g>
</svg>
