<?xml version="1.0" encoding="UTF-8" standalone="no"?>
<!DOCTYPE svg PUBLIC "-//W3C//DTD SVG 1.1//EN"
 "http://www.w3.org/Graphics/SVG/1.1/DTD/svg11.dtd">
<!-- Generated by graphviz version 2.26.3 (20100126.1600)
 -->
<!-- Title: G Pages: 1 -->
<!--zoomable 231 -->
<svg id="main" version="1.1" xmlns="http://www.w3.org/2000/svg" xmlns:xlink="http://www.w3.org/1999/xlink" xml:space="preserve" onload="init(evt)">
        <defs>
                <circle id="rim" cx="0" cy="0" r="7"/>
                <circle id="rim2" cx="0" cy="0" r="3.5"/>
                <g id="zoomPlus">
                        <use xlink:href="#rim" fill="#404040">
                                <set attributeName="fill" to="#808080" begin="zoomplus.mouseover" end="zoomplus.mouseout"/>
                        </use>
                        <path d="M-4,0h8M0,-4v8" fill="none" stroke="white" stroke-width="1.5" pointer-events="none"/>
                </g>
                <g id="zoomMin">
                        <use xlink:href="#rim" fill="#404040">
                                <set attributeName="fill" to="#808080" begin="zoomminus.mouseover" end="zoomminus.mouseout"/>
                        </use>
                        <path d="M-4,0h8" fill="none" stroke="white" stroke-width="1.5" pointer-events="none"/>
                </g>
                <g id="dirArrow">
                        <path fill="none" stroke="white" stroke-width="1.5" d="M0,-3.0v7 M-2.5,-0.5L0,-3.0L2.5,-0.5"/>
                </g>
               <g id="resetDef">
                       <use xlink:href="#rim2" fill="#404040">
                               <set attributeName="fill" to="#808080" begin="reset.mouseover" end="reset.mouseout"/>
                       </use>
               </g>
        </defs>

<script type="text/javascript">
var viewWidth = 1428;
var viewHeight = 231;
var sectionId = 'dynsection-0';
</script>
<script xlink:href="svgpan.js"/>
<svg id="graph" class="graph">
<g id="viewport">
<title>G</title>
<polygon fill="white" stroke="white" points="-4,5 -4,-227 1425,-227 1425,5 -4,5"/>
<!-- Node1 -->
<g id="node1" class="node"><title>Node1</title>
<polygon fill="#bfbfbf" stroke="black" points="1220,-80 1220,-102 1420,-102 1420,-80 1220,-80"/>
<text text-anchor="middle" x="1320" y="-89" font-family="FreeSans" font-size="10.00">Mezzanine::Threading::FrameScheduler</text>
</g>
<!-- Node2 -->
<g id="node2" class="node"><title>Node2</title>
<polygon fill="white" stroke="#bfbfbf" points="956.5,-196 956.5,-218 1073.5,-218 1073.5,-196 956.5,-196"/>
<text text-anchor="middle" x="1015" y="-205" font-family="FreeSans" font-size="10.00">std::vector&lt; thread * &gt;</text>
</g>
<!-- Node2&#45;&gt;Node1 -->
<g id="edge2" class="edge"><title>Node2&#45;&gt;Node1</title>
<path fill="none" stroke="#9a32cd" stroke-dasharray="5,2" d="M1074.97,-193.484C1112.2,-184.245 1160.66,-170.668 1202,-154 1239.05,-139.062 1279.58,-115.758 1302.19,-102.073"/>
<polygon fill="#9a32cd" stroke="#9a32cd" points="1073.67,-190.199 1064.78,-195.973 1075.33,-196.999 1073.67,-190.199"/>
<text text-anchor="middle" x="1166" y="-183" font-family="FreeSans" font-size="10.00"> Threads</text>
</g>
<!-- Node3 -->
<g id="node4" class="node"><title>Node3</title>
<a xlink:href="classMezzanine_1_1Threading_1_1thread.html" target="_top" xlink:title="A small wrapper around the system thread.">
<polygon fill="white" stroke="black" points="644,-200 644,-222 798,-222 798,-200 644,-200"/>
<text text-anchor="middle" x="721" y="-209" font-family="FreeSans" font-size="10.00">Mezzanine::Threading::thread</text>
</a>
</g>
<!-- Node3&#45;&gt;Node2 -->
<g id="edge4" class="edge"><title>Node3&#45;&gt;Node2</title>
<path fill="none" stroke="#9a32cd" stroke-dasharray="5,2" d="M808.281,-209.813C856.075,-209.162 914.017,-208.374 956.382,-207.798"/>
<polygon fill="#9a32cd" stroke="#9a32cd" points="808.196,-206.313 798.245,-209.949 808.292,-213.313 808.196,-206.313"/>
<text text-anchor="middle" x="877" y="-214" font-family="FreeSans" font-size="10.00"> elements</text>
</g>
<!-- Node4 -->
<g id="node6" class="node"><title>Node4</title>
<polygon fill="white" stroke="#bfbfbf" points="928.5,-142 928.5,-164 1101.5,-164 1101.5,-142 928.5,-142"/>
<text text-anchor="middle" x="1015" y="-151" font-family="FreeSans" font-size="10.00">std::vector&lt; MonopolyWorkUnit * &gt;</text>
</g>
<!-- Node4&#45;&gt;Node1 -->
<g id="edge6" class="edge"><title>Node4&#45;&gt;Node1</title>
<path fill="none" stroke="#9a32cd" stroke-dasharray="5,2" d="M1106.12,-140.36C1136.72,-135.59 1170.95,-129.68 1202,-123 1229.5,-117.084 1260.14,-108.719 1283.31,-102.026"/>
<polygon fill="#9a32cd" stroke="#9a32cd" points="1105.24,-136.954 1095.89,-141.933 1106.3,-143.872 1105.24,-136.954"/>
<text text-anchor="middle" x="1166" y="-141" font-family="FreeSans" font-size="10.00"> Monopolies</text>
</g>
<!-- Node5 -->
<g id="node8" class="node"><title>Node5</title>
<a xlink:href="classMezzanine_1_1Threading_1_1MonopolyWorkUnit.html" target="_top" xlink:title="A kind of workunit given exclusive runtime so it can consume time on multiple threads.">
<polygon fill="white" stroke="black" points="616.5,-160 616.5,-182 825.5,-182 825.5,-160 616.5,-160"/>
<text text-anchor="middle" x="721" y="-169" font-family="FreeSans" font-size="10.00">Mezzanine::Threading::MonopolyWorkUnit</text>
</a>
</g>
<!-- Node5&#45;&gt;Node4 -->
<g id="edge8" class="edge"><title>Node5&#45;&gt;Node4</title>
<path fill="none" stroke="#9a32cd" stroke-dasharray="5,2" d="M836.186,-163.948C866.77,-162.075 899.285,-160.085 928.084,-158.321"/>
<polygon fill="#9a32cd" stroke="#9a32cd" points="835.663,-160.473 825.896,-164.578 836.091,-167.46 835.663,-160.473"/>
<text text-anchor="middle" x="877" y="-167" font-family="FreeSans" font-size="10.00"> elements</text>
</g>
<!-- Node6 -->
<g id="node10" class="node"><title>Node6</title>
<a xlink:href="classMezzanine_1_1Threading_1_1WorkUnit.html" target="_top" xlink:title="Default implementation of WorkUnit. This represents on piece of work through time.">
<polygon fill="white" stroke="black" points="336.5,-123 336.5,-145 501.5,-145 501.5,-123 336.5,-123"/>
<text text-anchor="middle" x="419" y="-132" font-family="FreeSans" font-size="10.00">Mezzanine::Threading::WorkUnit</text>
</a>
</g>
<!-- Node6&#45;&gt;Node5 -->
<g id="edge10" class="edge"><title>Node6&#45;&gt;Node5</title>
<path fill="none" stroke="midnightblue" d="M473.62,-147.359C488.58,-150.617 504.849,-153.796 520,-156 551.165,-160.534 585.261,-163.734 616.373,-165.978"/>
<polygon fill="midnightblue" stroke="midnightblue" points="474.024,-143.863 463.502,-145.101 472.5,-150.695 474.024,-143.863"/>
</g>
<!-- Node7 -->
<g id="node12" class="node"><title>Node7</title>
<polygon fill="white" stroke="#bfbfbf" points="657,-120 657,-142 785,-142 785,-120 657,-120"/>
<text text-anchor="middle" x="721" y="-129" font-family="FreeSans" font-size="10.00">std::vector&lt; WorkUnit * &gt;</text>
</g>
<!-- Node6&#45;&gt;Node7 -->
<g id="edge14" class="edge"><title>Node6&#45;&gt;Node7</title>
<path fill="none" stroke="#9a32cd" stroke-dasharray="5,2" d="M511.784,-137.817C514.553,-137.885 517.297,-137.946 520,-138 550.216,-138.598 557.788,-138.794 588,-138 610.421,-137.41 634.946,-136.263 656.761,-135.064"/>
<polygon fill="#9a32cd" stroke="#9a32cd" points="511.762,-134.315 501.671,-137.541 511.571,-141.312 511.762,-134.315"/>
<text text-anchor="middle" x="554" y="-143" font-family="FreeSans" font-size="10.00"> elements</text>
</g>
<!-- Node12 -->
<g id="node23" class="node"><title>Node12</title>
<a xlink:href="classMezzanine_1_1Threading_1_1WorkUnitKey.html" target="_top" xlink:title="Stores data about a single work unit so that it can easily be sorted.">
<polygon fill="white" stroke="black" points="630,-80 630,-102 812,-102 812,-80 630,-80"/>
<text text-anchor="middle" x="721" y="-89" font-family="FreeSans" font-size="10.00">Mezzanine::Threading::WorkUnitKey</text>
</a>
</g>
<!-- Node6&#45;&gt;Node12 -->
<g id="edge26" class="edge"><title>Node6&#45;&gt;Node12</title>
<path fill="none" stroke="#9a32cd" stroke-dasharray="5,2" d="M446.559,-117.921C466.281,-107.381 493.86,-94.5599 520,-89 555.414,-81.4676 595.137,-80.3691 629.859,-81.7266"/>
<polygon fill="#9a32cd" stroke="#9a32cd" points="444.628,-114.989 437.549,-122.871 447.999,-121.124 444.628,-114.989"/>
<text text-anchor="middle" x="554" y="-94" font-family="FreeSans" font-size="10.00"> Unit</text>
</g>
<!-- Node7&#45;&gt;Node6 -->
<g id="edge12" class="edge"><title>Node7&#45;&gt;Node6</title>
<path fill="none" stroke="#9a32cd" stroke-dasharray="5,2" d="M653.844,-118.301C632.841,-114.894 609.53,-111.689 588,-110 557.87,-107.636 550.017,-106.483 520,-110 498.698,-112.496 475.377,-117.858 456.516,-122.881"/>
<polygon fill="#9a32cd" stroke="#9a32cd" points="653.512,-121.793 663.951,-119.983 654.661,-114.889 653.512,-121.793"/>
<text text-anchor="middle" x="554" y="-129" font-family="FreeSans" font-size="10.00"> Dependents</text>
<text text-anchor="middle" x="554" y="-115" font-family="FreeSans" font-size="10.00">Dependencies</text>
</g>
<!-- Node8 -->
<g id="node15" class="node"><title>Node8</title>
<a xlink:href="structMezzanine_1_1DefaultRollingAverage.html" target="_top" xlink:title="Mezzanine::DefaultRollingAverage\&lt; Whole \&gt;">
<polygon fill="white" stroke="black" points="0.5,-123 0.5,-145 221.5,-145 221.5,-123 0.5,-123"/>
<text text-anchor="middle" x="111" y="-132" font-family="FreeSans" font-size="10.00">Mezzanine::DefaultRollingAverage&lt; Whole &gt;</text>
</a>
</g>
<!-- Node8&#45;&gt;Node6 -->
<g id="edge16" class="edge"><title>Node8&#45;&gt;Node6</title>
<path fill="none" stroke="#9a32cd" stroke-dasharray="5,2" d="M232.024,-134C266.943,-134 304.235,-134 336.255,-134"/>
<polygon fill="#9a32cd" stroke="#9a32cd" points="231.76,-130.5 221.76,-134 231.76,-137.5 231.76,-130.5"/>
<text text-anchor="middle" x="279" y="-139" font-family="FreeSans" font-size="10.00"> PerformanceLog</text>
</g>
<!-- Node9 -->
<g id="node17" class="node"><title>Node9</title>
<polygon fill="white" stroke="#bfbfbf" points="918,-40 918,-62 1112,-62 1112,-40 918,-40"/>
<text text-anchor="middle" x="1015" y="-49" font-family="FreeSans" font-size="10.00">std::vector&lt; ThreadSpecificStorage * &gt;</text>
</g>
<!-- Node9&#45;&gt;Node1 -->
<g id="edge18" class="edge"><title>Node9&#45;&gt;Node1</title>
<path fill="none" stroke="#9a32cd" stroke-dasharray="5,2" d="M1122.07,-62.9572C1148.24,-66.0559 1176.15,-69.5085 1202,-73 1217.71,-75.1218 1234.57,-77.5828 1250.49,-79.9909"/>
<polygon fill="#9a32cd" stroke="#9a32cd" points="1122.48,-59.4807 1112.14,-61.7876 1121.66,-66.4327 1122.48,-59.4807"/>
<text text-anchor="middle" x="1166" y="-78" font-family="FreeSans" font-size="10.00"> Resources</text>
</g>
<!-- Node10 -->
<g id="node19" class="node"><title>Node10</title>
<a xlink:href="classMezzanine_1_1Threading_1_1ThreadSpecificStorage.html" target="_top" xlink:title="A threadspecific collection of double&#45;buffered and algorithm specific resources.">
<polygon fill="white" stroke="black" points="606,-40 606,-62 836,-62 836,-40 606,-40"/>
<text text-anchor="middle" x="721" y="-49" font-family="FreeSans" font-size="10.00">Mezzanine::Threading::ThreadSpecificStorage</text>
</a>
</g>
<!-- Node10&#45;&gt;Node9 -->
<g id="edge20" class="edge"><title>Node10&#45;&gt;Node9</title>
<path fill="none" stroke="#9a32cd" stroke-dasharray="5,2" d="M846.489,-51C870.268,-51 894.814,-51 917.566,-51"/>
<polygon fill="#9a32cd" stroke="#9a32cd" points="846.353,-47.5001 836.353,-51 846.353,-54.5001 846.353,-47.5001"/>
<text text-anchor="middle" x="877" y="-56" font-family="FreeSans" font-size="10.00"> elements</text>
</g>
<!-- Node11 -->
<g id="node21" class="node"><title>Node11</title>
<polygon fill="white" stroke="#bfbfbf" points="945.5,-80 945.5,-102 1084.5,-102 1084.5,-80 945.5,-80"/>
<text text-anchor="middle" x="1015" y="-89" font-family="FreeSans" font-size="10.00">std::vector&lt; WorkUnitKey &gt;</text>
</g>
<!-- Node11&#45;&gt;Node1 -->
<g id="edge22" class="edge"><title>Node11&#45;&gt;Node1</title>
<path fill="none" stroke="#9a32cd" stroke-dasharray="5,2" d="M1094.65,-91C1132.9,-91 1179.15,-91 1219.77,-91"/>
<polygon fill="#9a32cd" stroke="#9a32cd" points="1094.59,-87.5001 1084.59,-91 1094.59,-94.5001 1094.59,-87.5001"/>
<text text-anchor="middle" x="1166" y="-110" font-family="FreeSans" font-size="10.00"> WorkUnitsMain</text>
<text text-anchor="middle" x="1166" y="-96" font-family="FreeSans" font-size="10.00">WorkUnitAffinity</text>
</g>
<!-- Node12&#45;&gt;Node11 -->
<g id="edge24" class="edge"><title>Node12&#45;&gt;Node11</title>
<path fill="none" stroke="#9a32cd" stroke-dasharray="5,2" d="M822.218,-91C862.843,-91 908.649,-91 945.416,-91"/>
<polygon fill="#9a32cd" stroke="#9a32cd" points="822.01,-87.5001 812.01,-91 822.01,-94.5001 822.01,-87.5001"/>
<text text-anchor="middle" x="877" y="-96" font-family="FreeSans" font-size="10.00"> elements</text>
</g>
<!-- Node13 -->
<g id="node26" class="node"><title>Node13</title>
<a xlink:title="STL class.">
<polygon fill="white" stroke="#bfbfbf" points="978.5,-0 978.5,-22 1051.5,-22 1051.5,-0 978.5,-0"/>
<text text-anchor="middle" x="1015" y="-9" font-family="FreeSans" font-size="10.00">std::ostream</text>
</a>
</g>
<!-- Node13&#45;&gt;Node1 -->
<g id="edge28" class="edge"><title>Node13&#45;&gt;Node1</title>
<path fill="none" stroke="#9a32cd" stroke-dasharray="5,2" d="M1061.97,-16.9898C1100.13,-22.4636 1155.13,-31.736 1202,-45 1235.22,-54.3999 1272.07,-69.5715 1295.61,-79.9"/>
<polygon fill="#9a32cd" stroke="#9a32cd" points="1062.06,-13.4685 1051.67,-15.5465 1061.09,-20.4007 1062.06,-13.4685"/>
<text text-anchor="middle" x="1166" y="-50" font-family="FreeSans" font-size="10.00"> LogDestination</text>
</g>
<!-- Node14 -->
<g id="node28" class="node"><title>Node14</title>
<a xlink:title="STL class.">
<polygon fill="white" stroke="#bfbfbf" points="651,-0 651,-22 791,-22 791,-0 651,-0"/>
<text text-anchor="middle" x="721" y="-9" font-family="FreeSans" font-size="10.00">std::basic_ostream&lt; char &gt;</text>
</a>
</g>
<!-- Node14&#45;&gt;Node13 -->
<g id="edge30" class="edge"><title>Node14&#45;&gt;Node13</title>
<path fill="none" stroke="midnightblue" d="M801.242,-11C858.946,-11 934.075,-11 978.173,-11"/>
<polygon fill="midnightblue" stroke="midnightblue" points="801.047,-7.5001 791.047,-11 801.047,-14.5001 801.047,-7.5001"/>
</g>
<!-- Node15 -->
<g id="node30" class="node"><title>Node15</title>
<a xlink:title="STL class.">
<polygon fill="white" stroke="#bfbfbf" points="359.5,-0 359.5,-22 478.5,-22 478.5,-0 359.5,-0"/>
<text text-anchor="middle" x="419" y="-9" font-family="FreeSans" font-size="10.00">std::basic_ios&lt; Char &gt;</text>
</a>
</g>
<!-- Node15&#45;&gt;Node14 -->
<g id="edge32" class="edge"><title>Node15&#45;&gt;Node14</title>
<path fill="none" stroke="midnightblue" d="M488.794,-11C537.453,-11 602.127,-11 650.861,-11"/>
<polygon fill="midnightblue" stroke="midnightblue" points="488.666,-7.5001 478.665,-11 488.665,-14.5001 488.666,-7.5001"/>
</g>
<!-- Node16 -->
<g id="node32" class="node"><title>Node16</title>
<a xlink:title="STL class.">
<polygon fill="white" stroke="#bfbfbf" points="72.5,-0 72.5,-22 149.5,-22 149.5,-0 72.5,-0"/>
<text text-anchor="middle" x="111" y="-9" font-family="FreeSans" font-size="10.00">std::ios_base</text>
</a>
</g>
<!-- Node16&#45;&gt;Node15 -->
<g id="edge34" class="edge"><title>Node16&#45;&gt;Node15</title>
<path fill="none" stroke="midnightblue" d="M159.726,-11C213.829,-11 301.183,-11 359.338,-11"/>
<polygon fill="midnightblue" stroke="midnightblue" points="159.697,-7.5001 149.697,-11 159.697,-14.5001 159.697,-7.5001"/>
</g>
</g>
</svg>
        <g id="navigator" transform="translate(0 0)" fill="#404254">
                <rect fill="#f2f5e9" fill-opacity="0.5" stroke="#606060" stroke-width=".5" x="0" y="0" width="60" height="60"/>
                <use id="zoomplus" xlink:href="#zoomPlus" x="17" y="9" onmousedown="handleZoom(evt,'in')"/>
                <use id="zoomminus" xlink:href="#zoomMin" x="42" y="9" onmousedown="handleZoom(evt,'out')"/>
                <use id="reset" xlink:href="#resetDef" x="30" y="36" onmousedown="handleReset()"/>
                <g id="arrowUp" xlink:href="#dirArrow" transform="translate(30 24)" onmousedown="handlePan(0,-1)">
                  <use xlink:href="#rim" fill="#404040">
                        <set attributeName="fill" to="#808080" begin="arrowUp.mouseover" end="arrowUp.mouseout"/>
                  </use>
                  <path fill="none" stroke="white" stroke-width="1.5" d="M0,-3.0v7 M-2.5,-0.5L0,-3.0L2.5,-0.5"/>
                </g>
                <g id="arrowRight" xlink:href="#dirArrow" transform="rotate(90) translate(36 -43)" onmousedown="handlePan(1,0)">
                  <use xlink:href="#rim" fill="#404040">
                        <set attributeName="fill" to="#808080" begin="arrowRight.mouseover" end="arrowRight.mouseout"/>
                  </use>
                  <path fill="none" stroke="white" stroke-width="1.5" d="M0,-3.0v7 M-2.5,-0.5L0,-3.0L2.5,-0.5"/>
                </g>
                <g id="arrowDown" xlink:href="#dirArrow" transform="rotate(180) translate(-30 -48)" onmousedown="handlePan(0,1)">
                  <use xlink:href="#rim" fill="#404040">
                        <set attributeName="fill" to="#808080" begin="arrowDown.mouseover" end="arrowDown.mouseout"/>
                  </use>
                  <path fill="none" stroke="white" stroke-width="1.5" d="M0,-3.0v7 M-2.5,-0.5L0,-3.0L2.5,-0.5"/>
                </g>
                <g id="arrowLeft" xlink:href="#dirArrow" transform="rotate(270) translate(-36 17)" onmousedown="handlePan(-1,0)">
                  <use xlink:href="#rim" fill="#404040">
                        <set attributeName="fill" to="#808080" begin="arrowLeft.mouseover" end="arrowLeft.mouseout"/>
                  </use>
                  <path fill="none" stroke="white" stroke-width="1.5" d="M0,-3.0v7 M-2.5,-0.5L0,-3.0L2.5,-0.5"/>
                </g>
        </g>
</svg>
