<?xml version="1.0" encoding="UTF-8" standalone="no"?>
<!DOCTYPE svg PUBLIC "-//W3C//DTD SVG 1.1//EN"
 "http://www.w3.org/Graphics/SVG/1.1/DTD/svg11.dtd">
<!-- Generated by graphviz version 2.26.3 (20100126.1600)
 -->
<!-- Title: G Pages: 1 -->
<svg width="362pt" height="194pt"
 viewBox="0.00 0.00 362.00 194.00" xmlns="http://www.w3.org/2000/svg" xmlns:xlink="http://www.w3.org/1999/xlink">
<g id="graph1" class="graph" transform="scale(1 1) rotate(0) translate(4 190)">
<title>G</title>
<polygon fill="white" stroke="white" points="-4,5 -4,-190 359,-190 359,5 -4,5"/>
<!-- Node1 -->
<g id="node1" class="node"><title>Node1</title>
<polygon fill="#bfbfbf" stroke="black" points="-0.5,-1 -0.5,-23 208.5,-23 208.5,-1 -0.5,-1"/>
<text text-anchor="middle" x="104" y="-10" font-family="FreeSans" font-size="10.00">Mezzanine::Threading::MonopolyWorkUnit</text>
</g>
<!-- Node2 -->
<g id="node2" class="node"><title>Node2</title>
<a xlink:href="classMezzanine_1_1Threading_1_1WorkUnit.html" target="_top" xlink:title="Default implementation of WorkUnit. This represents on piece of work through time.">
<polygon fill="white" stroke="black" points="139.5,-89 139.5,-111 304.5,-111 304.5,-89 139.5,-89"/>
<text text-anchor="middle" x="222" y="-98" font-family="FreeSans" font-size="10.00">Mezzanine::Threading::WorkUnit</text>
</a>
</g>
<!-- Node2&#45;&gt;Node1 -->
<g id="edge2" class="edge"><title>Node2&#45;&gt;Node1</title>
<path fill="none" stroke="midnightblue" d="M198.935,-82.7991C175.214,-65.1086 138.974,-38.0825 118.823,-23.0548"/>
<polygon fill="midnightblue" stroke="midnightblue" points="196.947,-85.6822 207.055,-88.8547 201.131,-80.0708 196.947,-85.6822"/>
</g>
<!-- Node3 -->
<g id="node4" class="node"><title>Node3</title>
<polygon fill="white" stroke="#bfbfbf" points="226,-1 226,-23 354,-23 354,-1 226,-1"/>
<text text-anchor="middle" x="290" y="-10" font-family="FreeSans" font-size="10.00">std::vector&lt; WorkUnit * &gt;</text>
</g>
<!-- Node2&#45;&gt;Node3 -->
<g id="edge6" class="edge"><title>Node2&#45;&gt;Node3</title>
<path fill="none" stroke="#9a32cd" stroke-dasharray="5,2" d="M215.097,-78.816C212.608,-67.0512 211.918,-52.6802 219,-42 224.62,-33.524 233.161,-27.4366 242.393,-23.0666"/>
<polygon fill="#9a32cd" stroke="#9a32cd" points="211.774,-79.9374 217.719,-88.707 218.54,-78.1441 211.774,-79.9374"/>
<text text-anchor="middle" x="241.5" y="-54" font-family="FreeSans" font-size="10.00"> elements</text>
</g>
<!-- Node3&#45;&gt;Node2 -->
<g id="edge4" class="edge"><title>Node3&#45;&gt;Node2</title>
<path fill="none" stroke="#9a32cd" stroke-dasharray="5,2" d="M285.411,-33.1975C282.065,-44.9666 276.582,-59.3375 268,-70 261.902,-77.5759 253.361,-83.8773 245.291,-88.7172"/>
<polygon fill="#9a32cd" stroke="#9a32cd" points="288.855,-33.8542 287.911,-23.3015 282.068,-32.1399 288.855,-33.8542"/>
<text text-anchor="middle" x="315.5" y="-61" font-family="FreeSans" font-size="10.00"> Dependents</text>
<text text-anchor="middle" x="315.5" y="-47" font-family="FreeSans" font-size="10.00">Dependencies</text>
</g>
<!-- Node4 -->
<g id="node7" class="node"><title>Node4</title>
<a xlink:href="structMezzanine_1_1DefaultRollingAverage.html" target="_top" xlink:title="Mezzanine::DefaultRollingAverage\&lt; Whole \&gt;">
<polygon fill="white" stroke="black" points="111.5,-163 111.5,-185 332.5,-185 332.5,-163 111.5,-163"/>
<text text-anchor="middle" x="222" y="-172" font-family="FreeSans" font-size="10.00">Mezzanine::DefaultRollingAverage&lt; Whole &gt;</text>
</a>
</g>
<!-- Node4&#45;&gt;Node2 -->
<g id="edge8" class="edge"><title>Node4&#45;&gt;Node2</title>
<path fill="none" stroke="#9a32cd" stroke-dasharray="5,2" d="M222,-152.451C222,-139.008 222,-122.249 222,-111.345"/>
<polygon fill="#9a32cd" stroke="#9a32cd" points="218.5,-152.761 222,-162.761 225.5,-152.761 218.5,-152.761"/>
<text text-anchor="middle" x="261" y="-135" font-family="FreeSans" font-size="10.00"> PerformanceLog</text>
</g>
</g>
</svg>
