<?xml version="1.0" encoding="UTF-8" standalone="no"?>
<!DOCTYPE svg PUBLIC "-//W3C//DTD SVG 1.1//EN"
 "http://www.w3.org/Graphics/SVG/1.1/DTD/svg11.dtd">
<!-- Generated by graphviz version 2.26.3 (20100126.1600)
 -->
<!-- Title: G Pages: 1 -->
<!--zoomable 452 -->
<svg id="main" version="1.1" xmlns="http://www.w3.org/2000/svg" xmlns:xlink="http://www.w3.org/1999/xlink" xml:space="preserve" onload="init(evt)">
        <defs>
                <circle id="rim" cx="0" cy="0" r="7"/>
                <circle id="rim2" cx="0" cy="0" r="3.5"/>
                <g id="zoomPlus">
                        <use xlink:href="#rim" fill="#404040">
                                <set attributeName="fill" to="#808080" begin="zoomplus.mouseover" end="zoomplus.mouseout"/>
                        </use>
                        <path d="M-4,0h8M0,-4v8" fill="none" stroke="white" stroke-width="1.5" pointer-events="none"/>
                </g>
                <g id="zoomMin">
                        <use xlink:href="#rim" fill="#404040">
                                <set attributeName="fill" to="#808080" begin="zoomminus.mouseover" end="zoomminus.mouseout"/>
                        </use>
                        <path d="M-4,0h8" fill="none" stroke="white" stroke-width="1.5" pointer-events="none"/>
                </g>
                <g id="dirArrow">
                        <path fill="none" stroke="white" stroke-width="1.5" d="M0,-3.0v7 M-2.5,-0.5L0,-3.0L2.5,-0.5"/>
                </g>
               <g id="resetDef">
                       <use xlink:href="#rim2" fill="#404040">
                               <set attributeName="fill" to="#808080" begin="reset.mouseover" end="reset.mouseout"/>
                       </use>
               </g>
        </defs>

<script type="text/javascript">
var viewWidth = 1331;
var viewHeight = 452;
var sectionId = 'dynsection-1';
</script>
<script xlink:href="svgpan.js"/>
<svg id="graph" class="graph">
<g id="viewport">
<title>G</title>
<polygon fill="white" stroke="white" points="-4,5 -4,-448 1328,-448 1328,5 -4,5"/>
<!-- Node1 -->
<g id="node1" class="node"><title>Node1</title>
<polygon fill="#bfbfbf" stroke="black" points="767,-421 767,-443 891,-443 891,-421 767,-421"/>
<text text-anchor="middle" x="829" y="-430" font-family="FreeSans" font-size="10.00">compilerthreadcompat.h</text>
</g>
<!-- Node2 -->
<g id="node3" class="node"><title>Node2</title>
<a xlink:href="datatypes_8h.html" target="_top" xlink:title="This file declares a few typedefs to allow flexibility, in case a change is required/desired.">
<polygon fill="white" stroke="black" points="614,-361 614,-383 682,-383 682,-361 614,-361"/>
<text text-anchor="middle" x="648" y="-370" font-family="FreeSans" font-size="10.00">datatypes.h</text>
</a>
</g>
<!-- Node1&#45;&gt;Node2 -->
<g id="edge2" class="edge"><title>Node1&#45;&gt;Node2</title>
<path fill="none" stroke="midnightblue" d="M786.23,-417.822C754.138,-407.184 710.827,-392.827 681.294,-383.037"/>
<polygon fill="midnightblue" stroke="midnightblue" points="785.208,-421.171 795.802,-420.995 787.411,-414.526 785.208,-421.171"/>
</g>
<!-- Node5 -->
<g id="node9" class="node"><title>Node5</title>
<a xlink:href="dagframescheduler_8h.html" target="_top" xlink:title="This is the file that code using this library should include. It includes all the required components...">
<polygon fill="white" stroke="black" points="549,-1 549,-23 661,-23 661,-1 549,-1"/>
<text text-anchor="middle" x="605" y="-10" font-family="FreeSans" font-size="10.00">dagframescheduler.h</text>
</a>
</g>
<!-- Node1&#45;&gt;Node5 -->
<g id="edge126" class="edge"><title>Node1&#45;&gt;Node5</title>
<path fill="none" stroke="midnightblue" d="M756.93,-427.985C569.096,-416.562 79,-380.221 79,-312 79,-312 79,-312 79,-252 79,-190.23 223.438,-84.8258 280,-60 380.778,-15.7671 416.135,-40.1631 525,-24 532.641,-22.8656 540.691,-21.6648 548.622,-20.4784"/>
<polygon fill="midnightblue" stroke="midnightblue" points="756.794,-431.483 766.986,-428.59 757.215,-424.495 756.794,-431.483"/>
</g>
<!-- Node16 -->
<g id="node45" class="node"><title>Node16</title>
<a xlink:href="thread_8h.html" target="_top" xlink:title="This file defines a minimalistic cross&#45;platform thread that the scheduler uses to schedule tasks...">
<polygon fill="white" stroke="black" points="1000.5,-241 1000.5,-263 1053.5,-263 1053.5,-241 1000.5,-241"/>
<text text-anchor="middle" x="1027" y="-250" font-family="FreeSans" font-size="10.00">thread.h</text>
</a>
</g>
<!-- Node1&#45;&gt;Node16 -->
<g id="edge116" class="edge"><title>Node1&#45;&gt;Node16</title>
<path fill="none" stroke="midnightblue" d="M856.754,-415.438C887.939,-396.004 939.028,-361.619 976,-324 994.898,-304.772 1011.92,-277.951 1020.71,-263.066"/>
<polygon fill="midnightblue" stroke="midnightblue" points="854.814,-412.522 848.133,-420.745 858.484,-418.483 854.814,-412.522"/>
</g>
<!-- Node26 -->
<g id="node85" class="node"><title>Node26</title>
<a xlink:href="mutex_8h.html" target="_top" xlink:title="This file declares and defines a mutex that is a partial implementation.">
<polygon fill="white" stroke="black" points="1051.5,-301 1051.5,-323 1102.5,-323 1102.5,-301 1051.5,-301"/>
<text text-anchor="middle" x="1077" y="-310" font-family="FreeSans" font-size="10.00">mutex.h</text>
</a>
</g>
<!-- Node1&#45;&gt;Node26 -->
<g id="edge118" class="edge"><title>Node1&#45;&gt;Node26</title>
<path fill="none" stroke="midnightblue" d="M901.163,-419.721C948.295,-410.691 1004.72,-397.658 1025,-384 1048.02,-368.495 1064.38,-339.198 1072.06,-323.17"/>
<polygon fill="midnightblue" stroke="midnightblue" points="900.443,-416.295 891.264,-421.586 901.739,-423.174 900.443,-416.295"/>
</g>
<!-- Node3 -->
<g id="node5" class="node"><title>Node3</title>
<a xlink:href="monopoly_8h.html" target="_top" xlink:title="Contains an interface for a kind of WorkUnit that consumes time on multiple thread.">
<polygon fill="white" stroke="black" points="127,-61 127,-83 195,-83 195,-61 127,-61"/>
<text text-anchor="middle" x="161" y="-70" font-family="FreeSans" font-size="10.00">monopoly.h</text>
</a>
</g>
<!-- Node2&#45;&gt;Node3 -->
<g id="edge4" class="edge"><title>Node2&#45;&gt;Node3</title>
<path fill="none" stroke="midnightblue" d="M603.568,-370.614C489.253,-366.636 191.62,-353.524 159,-324 88.4477,-260.143 139.223,-122.89 156.091,-83.0516"/>
<polygon fill="midnightblue" stroke="midnightblue" points="603.611,-374.117 613.725,-370.96 603.85,-367.121 603.611,-374.117"/>
</g>
<!-- Node2&#45;&gt;Node5 -->
<g id="edge94" class="edge"><title>Node2&#45;&gt;Node5</title>
<path fill="none" stroke="midnightblue" d="M603.706,-369.67C555.633,-365.61 477.747,-354.483 418,-324 347.959,-288.265 319.258,-276.15 288,-204 254.61,-126.928 363.466,-129.606 434,-84 449.229,-74.1531 450.929,-68.4029 467,-60 497.796,-43.8979 535.153,-31.2833 563.229,-23.0349"/>
<polygon fill="midnightblue" stroke="midnightblue" points="603.546,-373.168 613.788,-370.454 604.089,-366.189 603.546,-373.168"/>
</g>
<!-- Node8 -->
<g id="node15" class="node"><title>Node8</title>
<a xlink:href="doublebufferedresource_8h.html" target="_top" xlink:title="This file defines the template double buffered resources that can be attached to a thread...">
<polygon fill="white" stroke="black" points="381.5,-241 381.5,-263 512.5,-263 512.5,-241 381.5,-241"/>
<text text-anchor="middle" x="447" y="-250" font-family="FreeSans" font-size="10.00">doublebufferedresource.h</text>
</a>
</g>
<!-- Node2&#45;&gt;Node8 -->
<g id="edge14" class="edge"><title>Node2&#45;&gt;Node8</title>
<path fill="none" stroke="midnightblue" d="M612.867,-356.666C593.61,-347.843 569.547,-336.123 549,-324 516.144,-304.614 480.254,-277.852 461.031,-263.02"/>
<polygon fill="midnightblue" stroke="midnightblue" points="611.623,-359.945 622.176,-360.879 614.509,-353.567 611.623,-359.945"/>
</g>
<!-- Node9 -->
<g id="node18" class="node"><title>Node9</title>
<a xlink:href="framescheduler_8h.html" target="_top" xlink:title="This file has the Declarations for the main FrameScheduler class.">
<polygon fill="white" stroke="black" points="517,-181 517,-203 611,-203 611,-181 517,-181"/>
<text text-anchor="middle" x="564" y="-190" font-family="FreeSans" font-size="10.00">framescheduler.h</text>
</a>
</g>
<!-- Node2&#45;&gt;Node9 -->
<g id="edge54" class="edge"><title>Node2&#45;&gt;Node9</title>
<path fill="none" stroke="midnightblue" d="M623.488,-354.547C613.595,-346.329 602.909,-335.749 596,-324 572.332,-283.754 566.133,-226.8 564.539,-203.059"/>
<polygon fill="midnightblue" stroke="midnightblue" points="621.489,-357.428 631.51,-360.868 625.821,-351.93 621.489,-357.428"/>
</g>
<!-- Node10 -->
<g id="node20" class="node"><title>Node10</title>
<a xlink:href="workunit_8h.html" target="_top" xlink:title="This file has the defintion of the workunit.">
<polygon fill="white" stroke="black" points="608.5,-121 608.5,-143 669.5,-143 669.5,-121 608.5,-121"/>
<text text-anchor="middle" x="639" y="-130" font-family="FreeSans" font-size="10.00">workunit.h</text>
</a>
</g>
<!-- Node2&#45;&gt;Node10 -->
<g id="edge52" class="edge"><title>Node2&#45;&gt;Node10</title>
<path fill="none" stroke="midnightblue" d="M647.196,-350.566C645.343,-301.147 640.822,-180.593 639.421,-143.229"/>
<polygon fill="midnightblue" stroke="midnightblue" points="643.706,-350.884 647.578,-360.746 650.701,-350.622 643.706,-350.884"/>
</g>
<!-- Node11 -->
<g id="node23" class="node"><title>Node11</title>
<a xlink:href="asynchronousworkunit_8h.html" target="_top" xlink:title="Contains an interface for a kind of WorkUnit that loads or writes a.">
<polygon fill="white" stroke="black" points="632.5,-61 632.5,-83 755.5,-83 755.5,-61 632.5,-61"/>
<text text-anchor="middle" x="694" y="-70" font-family="FreeSans" font-size="10.00">asynchronousworkunit.h</text>
</a>
</g>
<!-- Node2&#45;&gt;Node11 -->
<g id="edge76" class="edge"><title>Node2&#45;&gt;Node11</title>
<path fill="none" stroke="midnightblue" d="M691.934,-363.609C731.072,-355.158 784.095,-340.962 797,-324 806.694,-311.259 808.127,-194.791 802,-180 783.735,-135.903 737.761,-100.424 712.075,-83.2447"/>
<polygon fill="midnightblue" stroke="midnightblue" points="691.131,-360.202 682.065,-365.684 692.571,-367.052 691.131,-360.202"/>
</g>
<!-- Node12 -->
<g id="node26" class="node"><title>Node12</title>
<a xlink:href="frameschedulerworkunits_8h.html" target="_top" xlink:title="This defines a number of workunits that are required for doing some tasks that the Framescheduler req...">
<polygon fill="white" stroke="black" points="289,-61 289,-83 425,-83 425,-61 289,-61"/>
<text text-anchor="middle" x="357" y="-70" font-family="FreeSans" font-size="10.00">frameschedulerworkunits.h</text>
</a>
</g>
<!-- Node2&#45;&gt;Node12 -->
<g id="edge96" class="edge"><title>Node2&#45;&gt;Node12</title>
<path fill="none" stroke="midnightblue" d="M603.535,-370.77C491.986,-367.229 207.162,-355.192 179,-324 136.111,-276.497 147.605,-235.771 179,-180 208.611,-127.398 275.338,-97.4654 318.154,-83.0108"/>
<polygon fill="midnightblue" stroke="midnightblue" points="603.671,-374.276 613.775,-371.087 603.888,-367.28 603.671,-374.276"/>
</g>
<!-- Node15 -->
<g id="node43" class="node"><title>Node15</title>
<a xlink:href="systemcalls_8h.html" target="_top" xlink:title="This file defines a minimalistic cross&#45;platform thread that the scheduler uses to schedule tasks...">
<polygon fill="white" stroke="black" points="890.5,-301 890.5,-323 967.5,-323 967.5,-301 890.5,-301"/>
<text text-anchor="middle" x="929" y="-310" font-family="FreeSans" font-size="10.00">systemcalls.h</text>
</a>
</g>
<!-- Node2&#45;&gt;Node15 -->
<g id="edge56" class="edge"><title>Node2&#45;&gt;Node15</title>
<path fill="none" stroke="midnightblue" d="M692.217,-362.559C746.655,-350.935 838.25,-331.377 890.117,-320.302"/>
<polygon fill="midnightblue" stroke="midnightblue" points="691.224,-359.192 682.175,-364.703 692.686,-366.037 691.224,-359.192"/>
</g>
<!-- Node18 -->
<g id="node54" class="node"><title>Node18</title>
<a xlink:href="systemcalls_8cpp.html" target="_top" xlink:title="This file defines some time&#45;tracking functions.">
<polygon fill="white" stroke="black" points="819,-241 819,-263 907,-263 907,-241 819,-241"/>
<text text-anchor="middle" x="863" y="-250" font-family="FreeSans" font-size="10.00">systemcalls.cpp</text>
</a>
</g>
<!-- Node2&#45;&gt;Node18 -->
<g id="edge114" class="edge"><title>Node2&#45;&gt;Node18</title>
<path fill="none" stroke="midnightblue" d="M692.114,-364.823C739.024,-356.43 809.267,-341.444 830,-324 848.939,-308.066 857.56,-278.943 861.009,-263.056"/>
<polygon fill="midnightblue" stroke="midnightblue" points="691.439,-361.387 682.194,-366.562 692.648,-368.282 691.439,-361.387"/>
</g>
<!-- Node19 -->
<g id="node58" class="node"><title>Node19</title>
<a xlink:href="atomicoperations_8cpp.html" target="_top" xlink:title="The implemenation of Simple thread safe ways to check and change a specified variable atomically...">
<polygon fill="white" stroke="black" points="676,-301 676,-323 788,-323 788,-301 676,-301"/>
<text text-anchor="middle" x="732" y="-310" font-family="FreeSans" font-size="10.00">atomicoperations.cpp</text>
</a>
</g>
<!-- Node2&#45;&gt;Node19 -->
<g id="edge78" class="edge"><title>Node2&#45;&gt;Node19</title>
<path fill="none" stroke="midnightblue" d="M671.782,-355.013C686.083,-344.798 703.881,-332.085 716.406,-323.138"/>
<polygon fill="midnightblue" stroke="midnightblue" points="669.51,-352.335 663.407,-360.995 673.579,-358.031 669.51,-352.335"/>
</g>
<!-- Node20 -->
<g id="node60" class="node"><title>Node20</title>
<a xlink:href="atomicoperations_8h.html" target="_top" xlink:title="Simple thread safe ways to check and change a specified variable atomically.">
<polygon fill="white" stroke="black" points="1194.5,-121 1194.5,-143 1295.5,-143 1295.5,-121 1194.5,-121"/>
<text text-anchor="middle" x="1245" y="-130" font-family="FreeSans" font-size="10.00">atomicoperations.h</text>
</a>
</g>
<!-- Node2&#45;&gt;Node20 -->
<g id="edge80" class="edge"><title>Node2&#45;&gt;Node20</title>
<path fill="none" stroke="midnightblue" d="M692.399,-370.753C793.194,-367.387 1036.34,-356.094 1111,-324 1190.92,-289.648 1230.86,-178.56 1241.82,-143.034"/>
<polygon fill="midnightblue" stroke="midnightblue" points="692.128,-367.26 682.247,-371.081 692.355,-374.256 692.128,-367.26"/>
</g>
<!-- Node21 -->
<g id="node62" class="node"><title>Node21</title>
<a xlink:href="barrier_8h.html" target="_top" xlink:title="The declaration of the Mezzanine::Threading::Barrier Barrier synchronization primitive.">
<polygon fill="white" stroke="black" points="1232.5,-61 1232.5,-83 1285.5,-83 1285.5,-61 1232.5,-61"/>
<text text-anchor="middle" x="1259" y="-70" font-family="FreeSans" font-size="10.00">barrier.h</text>
</a>
</g>
<!-- Node2&#45;&gt;Node21 -->
<g id="edge92" class="edge"><title>Node2&#45;&gt;Node21</title>
<path fill="none" stroke="midnightblue" d="M692.247,-369.322C797.037,-362.72 1057.94,-344.689 1143,-324 1226.72,-303.637 1323,-338.163 1323,-252 1323,-252 1323,-252 1323,-192 1323,-158.905 1320.03,-148.955 1304,-120 1296.03,-105.609 1282.79,-92.2204 1272.73,-83.2599"/>
<polygon fill="midnightblue" stroke="midnightblue" points="691.779,-365.844 682.017,-369.961 692.215,-372.831 691.779,-365.844"/>
</g>
<!-- Node23 -->
<g id="node72" class="node"><title>Node23</title>
<a xlink:href="rollingaverage_8h.html" target="_top" xlink:title="This Store the implementation and the declaration of the RollingAverage, BufferedRollingAverage, WeightedRollingAverage and the DefaultRollingAverage.">
<polygon fill="white" stroke="black" points="296.5,-181 296.5,-203 385.5,-203 385.5,-181 296.5,-181"/>
<text text-anchor="middle" x="341" y="-190" font-family="FreeSans" font-size="10.00">rollingaverage.h</text>
</a>
</g>
<!-- Node2&#45;&gt;Node23 -->
<g id="edge98" class="edge"><title>Node2&#45;&gt;Node23</title>
<path fill="none" stroke="midnightblue" d="M603.759,-365.743C543.917,-355.073 437.289,-327.941 373,-264 355.736,-246.83 347.009,-218.728 343.294,-203.197"/>
<polygon fill="midnightblue" stroke="midnightblue" points="603.211,-369.2 613.657,-367.433 604.389,-362.3 603.211,-369.2"/>
</g>
<!-- Node24 -->
<g id="node76" class="node"><title>Node24</title>
<a xlink:href="workunitkey_8h.html" target="_top" xlink:title="This file defines the metadata used to sort workunits.">
<polygon fill="white" stroke="black" points="666.5,-241 666.5,-263 743.5,-263 743.5,-241 666.5,-241"/>
<text text-anchor="middle" x="705" y="-250" font-family="FreeSans" font-size="10.00">workunitkey.h</text>
</a>
</g>
<!-- Node2&#45;&gt;Node24 -->
<g id="edge104" class="edge"><title>Node2&#45;&gt;Node24</title>
<path fill="none" stroke="midnightblue" d="M651.262,-350.59C654.075,-335.819 658.981,-316.032 667,-300 673.942,-286.122 685.326,-272.461 693.827,-263.284"/>
<polygon fill="midnightblue" stroke="midnightblue" points="647.758,-350.313 649.502,-360.763 654.655,-351.506 647.758,-350.313"/>
</g>
<!-- Node4 -->
<g id="node7" class="node"><title>Node4</title>
<a xlink:href="asynchronousworkunit_8cpp.html" target="_top" xlink:title="Contains the minimal implementation for the monopoly base class.">
<polygon fill="white" stroke="black" points="218,-1 218,-23 352,-23 352,-1 218,-1"/>
<text text-anchor="middle" x="285" y="-10" font-family="FreeSans" font-size="10.00">asynchronousworkunit.cpp</text>
</a>
</g>
<!-- Node3&#45;&gt;Node4 -->
<g id="edge6" class="edge"><title>Node3&#45;&gt;Node4</title>
<path fill="none" stroke="midnightblue" d="M192.863,-56.5823C214.471,-46.1271 242.531,-32.5494 261.981,-23.1383"/>
<polygon fill="midnightblue" stroke="midnightblue" points="191.221,-53.4888 183.744,-60.9951 194.27,-59.79 191.221,-53.4888"/>
</g>
<!-- Node3&#45;&gt;Node5 -->
<g id="edge8" class="edge"><title>Node3&#45;&gt;Node5</title>
<path fill="none" stroke="midnightblue" d="M205.178,-60.7246C206.464,-60.4706 207.74,-60.2282 209,-60 348.089,-34.804 384.861,-42.4871 525,-24 532.658,-22.9898 540.718,-21.8597 548.654,-20.708"/>
<polygon fill="midnightblue" stroke="midnightblue" points="204.272,-57.3394 195.229,-62.8609 205.741,-64.1834 204.272,-57.3394"/>
</g>
<!-- Node6 -->
<g id="node11" class="node"><title>Node6</title>
<a xlink:href="framescheduler_8cpp.html" target="_top" xlink:title="This is the core object implementation for this algorithm.">
<polygon fill="white" stroke="black" points="0,-1 0,-23 104,-23 104,-1 0,-1"/>
<text text-anchor="middle" x="52" y="-10" font-family="FreeSans" font-size="10.00">framescheduler.cpp</text>
</a>
</g>
<!-- Node3&#45;&gt;Node6 -->
<g id="edge10" class="edge"><title>Node3&#45;&gt;Node6</title>
<path fill="none" stroke="midnightblue" d="M132.222,-56.1586C113.335,-45.7625 89.1015,-32.4228 72.2347,-23.1383"/>
<polygon fill="midnightblue" stroke="midnightblue" points="130.559,-59.2389 141.008,-60.9951 133.935,-53.1066 130.559,-59.2389"/>
</g>
<!-- Node7 -->
<g id="node13" class="node"><title>Node7</title>
<a xlink:href="monopoly_8cpp.html" target="_top" xlink:title="Contains the minimal implementation for the monopoly base class.">
<polygon fill="white" stroke="black" points="121.5,-1 121.5,-23 200.5,-23 200.5,-1 121.5,-1"/>
<text text-anchor="middle" x="161" y="-10" font-family="FreeSans" font-size="10.00">monopoly.cpp</text>
</a>
</g>
<!-- Node3&#45;&gt;Node7 -->
<g id="edge12" class="edge"><title>Node3&#45;&gt;Node7</title>
<path fill="none" stroke="midnightblue" d="M161,-50.9183C161,-41.6393 161,-31.1082 161,-23.3428"/>
<polygon fill="midnightblue" stroke="midnightblue" points="157.5,-50.995 161,-60.9951 164.5,-50.9951 157.5,-50.995"/>
</g>
<!-- Node8&#45;&gt;Node3 -->
<g id="edge16" class="edge"><title>Node8&#45;&gt;Node3</title>
<path fill="none" stroke="midnightblue" d="M373.199,-239.021C327.663,-229.978 274.372,-217.21 255,-204 208.28,-172.141 176.977,-108.937 165.683,-83.2489"/>
<polygon fill="midnightblue" stroke="midnightblue" points="372.595,-242.469 383.081,-240.95 373.936,-235.598 372.595,-242.469"/>
</g>
<!-- Node8&#45;&gt;Node5 -->
<g id="edge44" class="edge"><title>Node8&#45;&gt;Node5</title>
<path fill="none" stroke="midnightblue" d="M442.094,-231.12C436.804,-203.302 431.85,-153.687 454,-120 454.567,-119.137 551.055,-50.4012 589.477,-23.0484"/>
<polygon fill="midnightblue" stroke="midnightblue" points="438.678,-231.888 444.155,-240.957 445.53,-230.452 438.678,-231.888"/>
</g>
<!-- Node8&#45;&gt;Node6 -->
<g id="edge46" class="edge"><title>Node8&#45;&gt;Node6</title>
<path fill="none" stroke="midnightblue" d="M370.894,-244.974C326.538,-238.621 270.547,-226.61 225,-204 151.596,-167.56 134.332,-149.44 85,-84 70.4319,-64.6753 60.2973,-37.8908 55.3858,-23.0377"/>
<polygon fill="midnightblue" stroke="midnightblue" points="370.656,-248.474 381.038,-246.358 371.602,-241.538 370.656,-248.474"/>
</g>
<!-- Node8&#45;&gt;Node9 -->
<g id="edge18" class="edge"><title>Node8&#45;&gt;Node9</title>
<path fill="none" stroke="midnightblue" d="M477.615,-236.3C497.926,-225.884 524.093,-212.465 542.28,-203.138"/>
<polygon fill="midnightblue" stroke="midnightblue" points="475.761,-233.317 468.46,-240.995 478.955,-239.546 475.761,-233.317"/>
</g>
<!-- Node8&#45;&gt;Node11 -->
<g id="edge42" class="edge"><title>Node8&#45;&gt;Node11</title>
<path fill="none" stroke="midnightblue" d="M445.016,-230.672C443.569,-201.52 445.705,-149.493 475,-120 496.738,-98.1146 575.509,-84.9294 632.357,-78.0606"/>
<polygon fill="midnightblue" stroke="midnightblue" points="441.546,-231.23 445.727,-240.966 448.53,-230.748 441.546,-231.23"/>
</g>
<!-- Node13 -->
<g id="node29" class="node"><title>Node13</title>
<a xlink:href="frameschedulerworkunits_8cpp.html" target="_top" xlink:title="The implementation of any workunits the framescheduler needs to work correctly.">
<polygon fill="white" stroke="black" points="370,-1 370,-23 516,-23 516,-1 370,-1"/>
<text text-anchor="middle" x="443" y="-10" font-family="FreeSans" font-size="10.00">frameschedulerworkunits.cpp</text>
</a>
</g>
<!-- Node8&#45;&gt;Node13 -->
<g id="edge48" class="edge"><title>Node8&#45;&gt;Node13</title>
<path fill="none" stroke="midnightblue" d="M375.77,-238.751C338.99,-230.365 299.454,-218.395 288,-204 248.091,-153.841 241.607,-111.329 280,-60 292.059,-43.8773 337.6,-31.3013 377.489,-23.0735"/>
<polygon fill="midnightblue" stroke="midnightblue" points="375.022,-242.17 385.542,-240.913 376.533,-235.336 375.022,-242.17"/>
</g>
<!-- Node14 -->
<g id="node32" class="node"><title>Node14</title>
<a xlink:href="workunit_8cpp.html" target="_top" xlink:title="This file has the implementation of the workunit.">
<polygon fill="white" stroke="black" points="785.5,-61 785.5,-83 856.5,-83 856.5,-61 785.5,-61"/>
<text text-anchor="middle" x="821" y="-70" font-family="FreeSans" font-size="10.00">workunit.cpp</text>
</a>
</g>
<!-- Node8&#45;&gt;Node14 -->
<g id="edge50" class="edge"><title>Node8&#45;&gt;Node14</title>
<path fill="none" stroke="midnightblue" d="M460.907,-232.661C472.478,-217.344 489.925,-195.946 508,-180 544.606,-147.705 554.96,-138.825 600,-120 604.302,-118.202 723.954,-92.6325 785.364,-79.5677"/>
<polygon fill="midnightblue" stroke="midnightblue" points="457.952,-230.77 454.813,-240.889 463.578,-234.936 457.952,-230.77"/>
</g>
<!-- Node9&#45;&gt;Node5 -->
<g id="edge38" class="edge"><title>Node9&#45;&gt;Node5</title>
<path fill="none" stroke="midnightblue" d="M568.863,-170.65C577.616,-132.221 595.736,-52.672 602.436,-23.2556"/>
<polygon fill="midnightblue" stroke="midnightblue" points="565.373,-170.213 566.565,-180.74 572.198,-171.767 565.373,-170.213"/>
</g>
<!-- Node9&#45;&gt;Node6 -->
<g id="edge40" class="edge"><title>Node9&#45;&gt;Node6</title>
<path fill="none" stroke="midnightblue" d="M506.519,-188.741C417.52,-181.454 243.557,-158.109 118,-84 91.7145,-68.4851 69.7636,-39.1924 59.0469,-23.1672"/>
<polygon fill="midnightblue" stroke="midnightblue" points="506.441,-192.245 516.682,-189.533 506.985,-185.267 506.441,-192.245"/>
</g>
<!-- Node9&#45;&gt;Node10 -->
<g id="edge20" class="edge"><title>Node9&#45;&gt;Node10</title>
<path fill="none" stroke="midnightblue" d="M585.596,-174.723C598.302,-164.558 613.999,-152.001 625.077,-143.138"/>
<polygon fill="midnightblue" stroke="midnightblue" points="583.378,-172.015 577.756,-180.995 587.751,-177.481 583.378,-172.015"/>
</g>
<!-- Node10&#45;&gt;Node3 -->
<g id="edge22" class="edge"><title>Node10&#45;&gt;Node3</title>
<path fill="none" stroke="midnightblue" d="M598.278,-126.888C505.747,-115.274 281.061,-87.0704 195.165,-76.2885"/>
<polygon fill="midnightblue" stroke="midnightblue" points="598.014,-130.383 608.372,-128.155 598.886,-123.437 598.014,-130.383"/>
</g>
<!-- Node10&#45;&gt;Node5 -->
<g id="edge34" class="edge"><title>Node10&#45;&gt;Node5</title>
<path fill="none" stroke="midnightblue" d="M632.289,-111.24C629.623,-102.812 626.583,-92.9665 624,-84 617.845,-62.6327 611.384,-37.4758 607.807,-23.267"/>
<polygon fill="midnightblue" stroke="midnightblue" points="629.025,-112.525 635.403,-120.985 635.693,-110.394 629.025,-112.525"/>
</g>
<!-- Node10&#45;&gt;Node11 -->
<g id="edge24" class="edge"><title>Node10&#45;&gt;Node11</title>
<path fill="none" stroke="midnightblue" d="M655.865,-113.602C664.918,-103.726 675.788,-91.8679 683.602,-83.3428"/>
<polygon fill="midnightblue" stroke="midnightblue" points="653.265,-111.258 649.088,-120.995 658.425,-115.989 653.265,-111.258"/>
</g>
<!-- Node10&#45;&gt;Node12 -->
<g id="edge28" class="edge"><title>Node10&#45;&gt;Node12</title>
<path fill="none" stroke="midnightblue" d="M598.483,-123.379C548.544,-112.754 463.6,-94.6809 408.923,-83.0474"/>
<polygon fill="midnightblue" stroke="midnightblue" points="597.775,-126.807 608.284,-125.465 599.232,-119.96 597.775,-126.807"/>
</g>
<!-- Node10&#45;&gt;Node14 -->
<g id="edge36" class="edge"><title>Node10&#45;&gt;Node14</title>
<path fill="none" stroke="midnightblue" d="M679.521,-118.641C712.003,-107.933 757.036,-93.0869 787.502,-83.0431"/>
<polygon fill="midnightblue" stroke="midnightblue" points="678.275,-115.367 669.874,-121.822 680.467,-122.015 678.275,-115.367"/>
</g>
<!-- Node11&#45;&gt;Node5 -->
<g id="edge26" class="edge"><title>Node11&#45;&gt;Node5</title>
<path fill="none" stroke="midnightblue" d="M669.231,-55.3016C654.006,-45.0379 634.918,-32.1696 621.522,-23.1383"/>
<polygon fill="midnightblue" stroke="midnightblue" points="667.428,-58.3072 677.676,-60.9951 671.341,-52.503 667.428,-58.3072"/>
</g>
<!-- Node12&#45;&gt;Node5 -->
<g id="edge30" class="edge"><title>Node12&#45;&gt;Node5</title>
<path fill="none" stroke="midnightblue" d="M412.222,-58.6399C456.492,-47.9294 517.869,-33.08 559.382,-23.0366"/>
<polygon fill="midnightblue" stroke="midnightblue" points="411.384,-55.2416 402.487,-60.9951 413.03,-62.0453 411.384,-55.2416"/>
</g>
<!-- Node12&#45;&gt;Node13 -->
<g id="edge32" class="edge"><title>Node12&#45;&gt;Node13</title>
<path fill="none" stroke="midnightblue" d="M381.348,-55.0132C395.99,-44.7977 414.211,-32.0852 427.035,-23.1383"/>
<polygon fill="midnightblue" stroke="midnightblue" points="378.972,-52.4028 372.774,-60.9951 382.978,-58.1437 378.972,-52.4028"/>
</g>
<!-- Node15&#45;&gt;Node5 -->
<g id="edge68" class="edge"><title>Node15&#45;&gt;Node5</title>
<path fill="none" stroke="midnightblue" d="M941.227,-292.062C954.248,-268.892 973,-229.084 973,-192 973,-192 973,-192 973,-132 973,-81.4661 930.981,-80.9629 885,-60 846.014,-42.2259 730.967,-26.4676 661.064,-18.1765"/>
<polygon fill="midnightblue" stroke="midnightblue" points="938.078,-290.514 936.069,-300.917 944.127,-294.038 938.078,-290.514"/>
</g>
<!-- Node15&#45;&gt;Node9 -->
<g id="edge70" class="edge"><title>Node15&#45;&gt;Node9</title>
<path fill="none" stroke="midnightblue" d="M880.207,-306.181C813.327,-297.726 697.024,-281.169 658,-264 623.943,-249.016 591.055,-219.228 574.707,-203.06"/>
<polygon fill="midnightblue" stroke="midnightblue" points="880.14,-309.7 890.497,-307.468 881.009,-302.754 880.14,-309.7"/>
</g>
<!-- Node15&#45;&gt;Node14 -->
<g id="edge74" class="edge"><title>Node15&#45;&gt;Node14</title>
<path fill="none" stroke="midnightblue" d="M927.081,-290.926C925.299,-276.307 921.984,-256.565 916,-240 893.119,-176.657 847.604,-109.215 829.102,-83.1602"/>
<polygon fill="midnightblue" stroke="midnightblue" points="923.612,-291.402 928.164,-300.969 930.572,-290.651 923.612,-291.402"/>
</g>
<!-- Node15&#45;&gt;Node16 -->
<g id="edge58" class="edge"><title>Node15&#45;&gt;Node16</title>
<path fill="none" stroke="midnightblue" d="M955.805,-295.589C972.645,-285.279 993.918,-272.254 1008.81,-263.138"/>
<polygon fill="midnightblue" stroke="midnightblue" points="953.676,-292.789 946.975,-300.995 957.331,-298.758 953.676,-292.789"/>
</g>
<!-- Node15&#45;&gt;Node18 -->
<g id="edge72" class="edge"><title>Node15&#45;&gt;Node18</title>
<path fill="none" stroke="midnightblue" d="M909.405,-294.186C898.417,-284.197 885.04,-272.037 875.477,-263.343"/>
<polygon fill="midnightblue" stroke="midnightblue" points="907.141,-296.858 916.895,-300.995 911.85,-291.679 907.141,-296.858"/>
</g>
<!-- Node16&#45;&gt;Node5 -->
<g id="edge62" class="edge"><title>Node16&#45;&gt;Node5</title>
<path fill="none" stroke="midnightblue" d="M1050.01,-234.085C1058.63,-225.945 1067.43,-215.549 1072,-204 1075.92,-194.081 1075.24,-190.164 1072,-180 1052.18,-117.721 1043.07,-93.5886 987,-60 933.317,-27.8389 753.791,-17.0454 661.239,-13.5676"/>
<polygon fill="midnightblue" stroke="midnightblue" points="1047.47,-231.661 1042.27,-240.895 1052.09,-236.915 1047.47,-231.661"/>
</g>
<!-- Node16&#45;&gt;Node9 -->
<g id="edge60" class="edge"><title>Node16&#45;&gt;Node9</title>
<path fill="none" stroke="midnightblue" d="M990.444,-247.263C907.22,-236.478 703.69,-210.102 611.164,-198.112"/>
<polygon fill="midnightblue" stroke="midnightblue" points="990.077,-250.744 1000.44,-248.559 990.977,-243.802 990.077,-250.744"/>
</g>
<!-- Node16&#45;&gt;Node10 -->
<g id="edge66" class="edge"><title>Node16&#45;&gt;Node10</title>
<path fill="none" stroke="midnightblue" d="M990.636,-240.076C946.218,-225.577 868.743,-200.503 802,-180 756.035,-165.88 702.521,-150.281 669.707,-140.811"/>
<polygon fill="midnightblue" stroke="midnightblue" points="989.801,-243.485 1000.39,-243.264 991.976,-236.831 989.801,-243.485"/>
</g>
<!-- Node17 -->
<g id="node49" class="node"><title>Node17</title>
<a xlink:href="thread_8cpp.html" target="_top" xlink:title="This file implements a minimalistic cross&#45;platform thread that the scheduler uses to schedule tasks...">
<polygon fill="white" stroke="black" points="1000.5,-181 1000.5,-203 1063.5,-203 1063.5,-181 1000.5,-181"/>
<text text-anchor="middle" x="1032" y="-190" font-family="FreeSans" font-size="10.00">thread.cpp</text>
</a>
</g>
<!-- Node16&#45;&gt;Node17 -->
<g id="edge64" class="edge"><title>Node16&#45;&gt;Node17</title>
<path fill="none" stroke="midnightblue" d="M1028.76,-230.918C1029.53,-221.639 1030.41,-211.108 1031.05,-203.343"/>
<polygon fill="midnightblue" stroke="midnightblue" points="1025.26,-230.739 1027.92,-240.995 1032.24,-231.32 1025.26,-230.739"/>
</g>
<!-- Node20&#45;&gt;Node5 -->
<g id="edge88" class="edge"><title>Node20&#45;&gt;Node5</title>
<path fill="none" stroke="midnightblue" d="M1233.49,-112.158C1222.41,-95.0991 1203.97,-71.4855 1181,-60 1135.25,-37.1271 797.054,-20.2424 661.226,-14.3148"/>
<polygon fill="midnightblue" stroke="midnightblue" points="1230.63,-114.185 1238.87,-120.842 1236.58,-110.498 1230.63,-114.185"/>
</g>
<!-- Node20&#45;&gt;Node14 -->
<g id="edge90" class="edge"><title>Node20&#45;&gt;Node14</title>
<path fill="none" stroke="midnightblue" d="M1184.24,-123.402C1094.46,-110.698 929.187,-87.3095 856.68,-77.0491"/>
<polygon fill="midnightblue" stroke="midnightblue" points="1183.89,-126.886 1194.28,-124.822 1184.87,-119.956 1183.89,-126.886"/>
</g>
<!-- Node20&#45;&gt;Node21 -->
<g id="edge82" class="edge"><title>Node20&#45;&gt;Node21</title>
<path fill="none" stroke="midnightblue" d="M1249.85,-111.22C1252.03,-101.869 1254.52,-91.1926 1256.35,-83.3428"/>
<polygon fill="midnightblue" stroke="midnightblue" points="1246.43,-110.461 1247.57,-120.995 1253.25,-112.052 1246.43,-110.461"/>
</g>
<!-- Node21&#45;&gt;Node5 -->
<g id="edge86" class="edge"><title>Node21&#45;&gt;Node5</title>
<path fill="none" stroke="midnightblue" d="M1222.24,-60.6499C1221.15,-60.4173 1220.07,-60.1998 1219,-60 1112.85,-40.1632 791.928,-21.7456 661.264,-14.8583"/>
<polygon fill="midnightblue" stroke="midnightblue" points="1221.53,-64.0812 1232.08,-63.0737 1223.21,-57.2842 1221.53,-64.0812"/>
</g>
<!-- Node22 -->
<g id="node64" class="node"><title>Node22</title>
<a xlink:href="barrier_8cpp.html" target="_top" xlink:title="Contains the implementation for the Mezzanine::Threading::Barrier Barrier synchronization object...">
<polygon fill="white" stroke="black" points="1227.5,-1 1227.5,-23 1290.5,-23 1290.5,-1 1227.5,-1"/>
<text text-anchor="middle" x="1259" y="-10" font-family="FreeSans" font-size="10.00">barrier.cpp</text>
</a>
</g>
<!-- Node21&#45;&gt;Node22 -->
<g id="edge84" class="edge"><title>Node21&#45;&gt;Node22</title>
<path fill="none" stroke="midnightblue" d="M1259,-50.9183C1259,-41.6393 1259,-31.1082 1259,-23.3428"/>
<polygon fill="midnightblue" stroke="midnightblue" points="1255.5,-50.995 1259,-60.9951 1262.5,-50.9951 1255.5,-50.995"/>
</g>
<!-- Node23&#45;&gt;Node5 -->
<g id="edge100" class="edge"><title>Node23&#45;&gt;Node5</title>
<path fill="none" stroke="midnightblue" d="M353.466,-172.409C364.136,-156.777 380.65,-135.077 399,-120 400.994,-118.362 531.256,-50.4232 583.586,-23.1549"/>
<polygon fill="midnightblue" stroke="midnightblue" points="350.501,-170.547 347.89,-180.815 356.334,-174.417 350.501,-170.547"/>
</g>
<!-- Node23&#45;&gt;Node10 -->
<g id="edge102" class="edge"><title>Node23&#45;&gt;Node10</title>
<path fill="none" stroke="midnightblue" d="M395.677,-180.991C458.11,-168.421 558.066,-148.295 608.208,-138.2"/>
<polygon fill="midnightblue" stroke="midnightblue" points="394.726,-177.612 385.614,-183.017 396.108,-184.475 394.726,-177.612"/>
</g>
<!-- Node24&#45;&gt;Node5 -->
<g id="edge106" class="edge"><title>Node24&#45;&gt;Node5</title>
<path fill="none" stroke="midnightblue" d="M749.386,-236.994C767.336,-229.27 787.254,-218.398 802,-204 851.984,-155.198 909.688,-113.693 865,-60 839.6,-29.4821 729.793,-18.2904 661.26,-14.2412"/>
<polygon fill="midnightblue" stroke="midnightblue" points="747.597,-233.944 739.662,-240.964 750.243,-240.424 747.597,-233.944"/>
</g>
<!-- Node24&#45;&gt;Node9 -->
<g id="edge108" class="edge"><title>Node24&#45;&gt;Node9</title>
<path fill="none" stroke="midnightblue" d="M669.756,-237.003C645.059,-226.493 612.589,-212.676 590.175,-203.138"/>
<polygon fill="midnightblue" stroke="midnightblue" points="668.566,-240.3 679.138,-240.995 671.307,-233.859 668.566,-240.3"/>
</g>
<!-- Node24&#45;&gt;Node10 -->
<g id="edge110" class="edge"><title>Node24&#45;&gt;Node10</title>
<path fill="none" stroke="midnightblue" d="M694.062,-232.113C680.041,-206.62 656.214,-163.298 645.076,-143.047"/>
<polygon fill="midnightblue" stroke="midnightblue" points="691.023,-233.85 698.909,-240.926 697.157,-230.477 691.023,-233.85"/>
</g>
<!-- Node25 -->
<g id="node81" class="node"><title>Node25</title>
<a xlink:href="workunitkey_8cpp.html" target="_top" xlink:title="This file declares the functionality of the metadata used to sort workunits.">
<polygon fill="white" stroke="black" points="705,-181 705,-203 793,-203 793,-181 705,-181"/>
<text text-anchor="middle" x="749" y="-190" font-family="FreeSans" font-size="10.00">workunitkey.cpp</text>
</a>
</g>
<!-- Node24&#45;&gt;Node25 -->
<g id="edge112" class="edge"><title>Node24&#45;&gt;Node25</title>
<path fill="none" stroke="midnightblue" d="M719.141,-232.717C726.249,-223.025 734.616,-211.615 740.682,-203.343"/>
<polygon fill="midnightblue" stroke="midnightblue" points="716.162,-230.861 713.07,-240.995 721.806,-235.001 716.162,-230.861"/>
</g>
<!-- Node26&#45;&gt;Node5 -->
<g id="edge122" class="edge"><title>Node26&#45;&gt;Node5</title>
<path fill="none" stroke="midnightblue" d="M1101.67,-294.657C1128.32,-273.684 1167,-235.707 1167,-192 1167,-192 1167,-192 1167,-132 1167,-58.0511 1088.03,-80.5606 1017,-60 951.546,-41.0542 757.708,-23.888 661.074,-16.2241"/>
<polygon fill="midnightblue" stroke="midnightblue" points="1099.36,-292.02 1093.51,-300.855 1103.59,-297.596 1099.36,-292.02"/>
</g>
<!-- Node26&#45;&gt;Node10 -->
<g id="edge124" class="edge"><title>Node26&#45;&gt;Node10</title>
<path fill="none" stroke="midnightblue" d="M1083.72,-290.708C1091.42,-261.648 1099.7,-209.782 1072,-180 1044.6,-150.542 763.691,-136.895 669.555,-133.125"/>
<polygon fill="midnightblue" stroke="midnightblue" points="1080.26,-290.058 1080.87,-300.636 1086.99,-291.988 1080.26,-290.058"/>
</g>
<!-- Node26&#45;&gt;Node16 -->
<g id="edge120" class="edge"><title>Node26&#45;&gt;Node16</title>
<path fill="none" stroke="midnightblue" d="M1061.42,-293.308C1053.24,-283.492 1043.49,-271.783 1036.45,-263.343"/>
<polygon fill="midnightblue" stroke="midnightblue" points="1058.74,-295.553 1067.83,-300.995 1064.12,-291.072 1058.74,-295.553"/>
</g>
</g>
</svg>
        <g id="navigator" transform="translate(0 0)" fill="#404254">
                <rect fill="#f2f5e9" fill-opacity="0.5" stroke="#606060" stroke-width=".5" x="0" y="0" width="60" height="60"/>
                <use id="zoomplus" xlink:href="#zoomPlus" x="17" y="9" onmousedown="handleZoom(evt,'in')"/>
                <use id="zoomminus" xlink:href="#zoomMin" x="42" y="9" onmousedown="handleZoom(evt,'out')"/>
                <use id="reset" xlink:href="#resetDef" x="30" y="36" onmousedown="handleReset()"/>
                <g id="arrowUp" xlink:href="#dirArrow" transform="translate(30 24)" onmousedown="handlePan(0,-1)">
                  <use xlink:href="#rim" fill="#404040">
                        <set attributeName="fill" to="#808080" begin="arrowUp.mouseover" end="arrowUp.mouseout"/>
                  </use>
                  <path fill="none" stroke="white" stroke-width="1.5" d="M0,-3.0v7 M-2.5,-0.5L0,-3.0L2.5,-0.5"/>
                </g>
                <g id="arrowRight" xlink:href="#dirArrow" transform="rotate(90) translate(36 -43)" onmousedown="handlePan(1,0)">
                  <use xlink:href="#rim" fill="#404040">
                        <set attributeName="fill" to="#808080" begin="arrowRight.mouseover" end="arrowRight.mouseout"/>
                  </use>
                  <path fill="none" stroke="white" stroke-width="1.5" d="M0,-3.0v7 M-2.5,-0.5L0,-3.0L2.5,-0.5"/>
                </g>
                <g id="arrowDown" xlink:href="#dirArrow" transform="rotate(180) translate(-30 -48)" onmousedown="handlePan(0,1)">
                  <use xlink:href="#rim" fill="#404040">
                        <set attributeName="fill" to="#808080" begin="arrowDown.mouseover" end="arrowDown.mouseout"/>
                  </use>
                  <path fill="none" stroke="white" stroke-width="1.5" d="M0,-3.0v7 M-2.5,-0.5L0,-3.0L2.5,-0.5"/>
                </g>
                <g id="arrowLeft" xlink:href="#dirArrow" transform="rotate(270) translate(-36 17)" onmousedown="handlePan(-1,0)">
                  <use xlink:href="#rim" fill="#404040">
                        <set attributeName="fill" to="#808080" begin="arrowLeft.mouseover" end="arrowLeft.mouseout"/>
                  </use>
                  <path fill="none" stroke="white" stroke-width="1.5" d="M0,-3.0v7 M-2.5,-0.5L0,-3.0L2.5,-0.5"/>
                </g>
        </g>
</svg>
