<?xml version="1.0" encoding="UTF-8" standalone="no"?>
<!DOCTYPE svg PUBLIC "-//W3C//DTD SVG 1.1//EN"
 "http://www.w3.org/Graphics/SVG/1.1/DTD/svg11.dtd">
<!-- Generated by graphviz version 2.26.3 (20100126.1600)
 -->
<!-- Title: G Pages: 1 -->
<!--zoomable 452 -->
<svg id="main" version="1.1" xmlns="http://www.w3.org/2000/svg" xmlns:xlink="http://www.w3.org/1999/xlink" xml:space="preserve" onload="init(evt)">
        <defs>
                <circle id="rim" cx="0" cy="0" r="7"/>
                <circle id="rim2" cx="0" cy="0" r="3.5"/>
                <g id="zoomPlus">
                        <use xlink:href="#rim" fill="#404040">
                                <set attributeName="fill" to="#808080" begin="zoomplus.mouseover" end="zoomplus.mouseout"/>
                        </use>
                        <path d="M-4,0h8M0,-4v8" fill="none" stroke="white" stroke-width="1.5" pointer-events="none"/>
                </g>
                <g id="zoomMin">
                        <use xlink:href="#rim" fill="#404040">
                                <set attributeName="fill" to="#808080" begin="zoomminus.mouseover" end="zoomminus.mouseout"/>
                        </use>
                        <path d="M-4,0h8" fill="none" stroke="white" stroke-width="1.5" pointer-events="none"/>
                </g>
                <g id="dirArrow">
                        <path fill="none" stroke="white" stroke-width="1.5" d="M0,-3.0v7 M-2.5,-0.5L0,-3.0L2.5,-0.5"/>
                </g>
               <g id="resetDef">
                       <use xlink:href="#rim2" fill="#404040">
                               <set attributeName="fill" to="#808080" begin="reset.mouseover" end="reset.mouseout"/>
                       </use>
               </g>
        </defs>

<script type="text/javascript">
var viewWidth = 1278;
var viewHeight = 452;
var sectionId = 'dynsection-1';
</script>
<script xlink:href="svgpan.js"/>
<svg id="graph" class="graph">
<g id="viewport">
<title>G</title>
<polygon fill="white" stroke="white" points="-4,5 -4,-448 1275,-448 1275,5 -4,5"/>
<!-- Node1 -->
<g id="node1" class="node"><title>Node1</title>
<polygon fill="#bfbfbf" stroke="black" points="1065,-421 1065,-443 1189,-443 1189,-421 1065,-421"/>
<text text-anchor="middle" x="1127" y="-430" font-family="FreeSans" font-size="10.00">compilerthreadcompat.h</text>
</g>
<!-- Node2 -->
<g id="node3" class="node"><title>Node2</title>
<a xlink:href="datatypes_8h.html" target="_top" xlink:title="This file declares a few typedefs to allow flexibility, in case a change is required/desired.">
<polygon fill="white" stroke="black" points="695,-361 695,-383 763,-383 763,-361 695,-361"/>
<text text-anchor="middle" x="729" y="-370" font-family="FreeSans" font-size="10.00">datatypes.h</text>
</a>
</g>
<!-- Node1&#45;&gt;Node2 -->
<g id="edge2" class="edge"><title>Node1&#45;&gt;Node2</title>
<path fill="none" stroke="midnightblue" d="M1054.82,-421.119C968.486,-408.103 827.553,-386.857 763.105,-377.142"/>
<polygon fill="midnightblue" stroke="midnightblue" points="1054.4,-424.595 1064.81,-422.625 1055.45,-417.673 1054.4,-424.595"/>
</g>
<!-- Node5 -->
<g id="node9" class="node"><title>Node5</title>
<a xlink:href="dagframescheduler_8h.html" target="_top" xlink:title="This is the file that code using this library should include. It includes all the required components...">
<polygon fill="white" stroke="black" points="648,-1 648,-23 760,-23 760,-1 648,-1"/>
<text text-anchor="middle" x="704" y="-10" font-family="FreeSans" font-size="10.00">dagframescheduler.h</text>
</a>
</g>
<!-- Node1&#45;&gt;Node5 -->
<g id="edge114" class="edge"><title>Node1&#45;&gt;Node5</title>
<path fill="none" stroke="midnightblue" d="M1169.69,-417.004C1211.83,-399.15 1270,-364.919 1270,-312 1270,-312 1270,-312 1270,-132 1270,-65.1735 1201.75,-80.0515 1138,-60 1068.94,-38.2775 861.342,-22.2496 760.373,-15.5108"/>
<polygon fill="midnightblue" stroke="midnightblue" points="1168.11,-413.867 1160.17,-420.879 1170.75,-420.351 1168.11,-413.867"/>
</g>
<!-- Node16 -->
<g id="node45" class="node"><title>Node16</title>
<a xlink:href="thread_8h.html" target="_top" xlink:title="This file defines a minimalistic cross&#45;platform thread that the scheduler uses to schedule tasks...">
<polygon fill="white" stroke="black" points="1090.5,-241 1090.5,-263 1143.5,-263 1143.5,-241 1090.5,-241"/>
<text text-anchor="middle" x="1117" y="-250" font-family="FreeSans" font-size="10.00">thread.h</text>
</a>
</g>
<!-- Node1&#45;&gt;Node16 -->
<g id="edge104" class="edge"><title>Node1&#45;&gt;Node16</title>
<path fill="none" stroke="midnightblue" d="M1129.88,-410.721C1132.91,-384.527 1136.54,-338.751 1131,-300 1129.16,-287.11 1124.67,-272.846 1121.27,-263.244"/>
<polygon fill="midnightblue" stroke="midnightblue" points="1126.36,-410.622 1128.6,-420.977 1133.31,-411.485 1126.36,-410.622"/>
</g>
<!-- Node23 -->
<g id="node76" class="node"><title>Node23</title>
<a xlink:href="mutex_8h.html" target="_top" xlink:title="This file declares and defines a mutex that is a partial implementation.">
<polygon fill="white" stroke="black" points="1071.5,-301 1071.5,-323 1122.5,-323 1122.5,-301 1071.5,-301"/>
<text text-anchor="middle" x="1097" y="-310" font-family="FreeSans" font-size="10.00">mutex.h</text>
</a>
</g>
<!-- Node1&#45;&gt;Node23 -->
<g id="edge106" class="edge"><title>Node1&#45;&gt;Node23</title>
<path fill="none" stroke="midnightblue" d="M1121.77,-411.093C1115.37,-385.479 1104.76,-343.03 1099.76,-323.047"/>
<polygon fill="midnightblue" stroke="midnightblue" points="1118.41,-412.073 1124.23,-420.926 1125.2,-410.375 1118.41,-412.073"/>
</g>
<!-- Node3 -->
<g id="node5" class="node"><title>Node3</title>
<a xlink:href="monopoly_8h.html" target="_top" xlink:title="Contains an interface for a kind of WorkUnit that consumes time on multiple thread.">
<polygon fill="white" stroke="black" points="155,-61 155,-83 223,-83 223,-61 155,-61"/>
<text text-anchor="middle" x="189" y="-70" font-family="FreeSans" font-size="10.00">monopoly.h</text>
</a>
</g>
<!-- Node2&#45;&gt;Node3 -->
<g id="edge4" class="edge"><title>Node2&#45;&gt;Node3</title>
<path fill="none" stroke="midnightblue" d="M684.762,-370.859C587.207,-367.758 356.735,-357.056 287,-324 206.534,-285.857 214.913,-231.615 199,-144 195.121,-122.643 191.94,-97.4825 190.271,-83.2704"/>
<polygon fill="midnightblue" stroke="midnightblue" points="684.78,-374.361 694.882,-371.168 684.994,-367.364 684.78,-374.361"/>
</g>
<!-- Node2&#45;&gt;Node5 -->
<g id="edge82" class="edge"><title>Node2&#45;&gt;Node5</title>
<path fill="none" stroke="midnightblue" d="M727.507,-350.499C722.783,-282.475 708.269,-73.4763 704.767,-23.0386"/>
<polygon fill="midnightblue" stroke="midnightblue" points="724.04,-351.098 728.224,-360.831 731.023,-350.613 724.04,-351.098"/>
</g>
<!-- Node8 -->
<g id="node15" class="node"><title>Node8</title>
<a xlink:href="doublebufferedresource_8h.html" target="_top" xlink:title="This file defines the template double buffered resources that can be attached to a thread...">
<polygon fill="white" stroke="black" points="247.5,-241 247.5,-263 378.5,-263 378.5,-241 247.5,-241"/>
<text text-anchor="middle" x="313" y="-250" font-family="FreeSans" font-size="10.00">doublebufferedresource.h</text>
</a>
</g>
<!-- Node2&#45;&gt;Node8 -->
<g id="edge14" class="edge"><title>Node2&#45;&gt;Node8</title>
<path fill="none" stroke="midnightblue" d="M684.375,-368.654C628.389,-363.483 530.016,-351.151 450,-324 404.2,-308.459 355.075,-279.177 329.944,-263.16"/>
<polygon fill="midnightblue" stroke="midnightblue" points="684.386,-372.169 694.656,-369.567 685.005,-365.196 684.386,-372.169"/>
</g>
<!-- Node9 -->
<g id="node18" class="node"><title>Node9</title>
<a xlink:href="framescheduler_8h.html" target="_top" xlink:title="This file has the Declarations for the main FrameScheduler class.">
<polygon fill="white" stroke="black" points="400,-181 400,-203 494,-203 494,-181 400,-181"/>
<text text-anchor="middle" x="447" y="-190" font-family="FreeSans" font-size="10.00">framescheduler.h</text>
</a>
</g>
<!-- Node2&#45;&gt;Node9 -->
<g id="edge54" class="edge"><title>Node2&#45;&gt;Node9</title>
<path fill="none" stroke="midnightblue" d="M692.377,-356.918C649.317,-338.319 576.666,-304.188 521,-264 495.276,-245.429 469.748,-218.119 456.443,-203.032"/>
<polygon fill="midnightblue" stroke="midnightblue" points="691.048,-360.156 701.619,-360.867 693.799,-353.719 691.048,-360.156"/>
</g>
<!-- Node10 -->
<g id="node20" class="node"><title>Node10</title>
<a xlink:href="workunit_8h.html" target="_top" xlink:title="This file has the defintion of the workunit.">
<polygon fill="white" stroke="black" points="769.5,-121 769.5,-143 830.5,-143 830.5,-121 769.5,-121"/>
<text text-anchor="middle" x="800" y="-130" font-family="FreeSans" font-size="10.00">workunit.h</text>
</a>
</g>
<!-- Node2&#45;&gt;Node10 -->
<g id="edge52" class="edge"><title>Node2&#45;&gt;Node10</title>
<path fill="none" stroke="midnightblue" d="M735.249,-350.877C749.81,-301.655 785.601,-180.672 796.678,-143.229"/>
<polygon fill="midnightblue" stroke="midnightblue" points="731.81,-350.164 732.329,-360.746 738.522,-352.15 731.81,-350.164"/>
</g>
<!-- Node11 -->
<g id="node23" class="node"><title>Node11</title>
<a xlink:href="asynchronousworkunit_8h.html" target="_top" xlink:title="Contains an interface for a kind of WorkUnit that loads or writes a.">
<polygon fill="white" stroke="black" points="731.5,-61 731.5,-83 854.5,-83 854.5,-61 731.5,-61"/>
<text text-anchor="middle" x="793" y="-70" font-family="FreeSans" font-size="10.00">asynchronousworkunit.h</text>
</a>
</g>
<!-- Node2&#45;&gt;Node11 -->
<g id="edge76" class="edge"><title>Node2&#45;&gt;Node11</title>
<path fill="none" stroke="midnightblue" d="M773.47,-368.065C837.435,-361.678 951.421,-347.362 985,-324 1036.06,-288.479 1040.4,-263.94 1057,-204 1075.29,-137.972 978.35,-170.094 915,-144 874.295,-127.233 830.866,-98.7126 808.424,-83.0723"/>
<polygon fill="midnightblue" stroke="midnightblue" points="772.888,-364.605 763.275,-369.058 773.567,-371.572 772.888,-364.605"/>
</g>
<!-- Node12 -->
<g id="node26" class="node"><title>Node12</title>
<a xlink:href="frameschedulerworkunits_8h.html" target="_top" xlink:title="This defines a number of workunits that are required for doing some tasks that the Framescheduler req...">
<polygon fill="white" stroke="black" points="286,-61 286,-83 422,-83 422,-61 286,-61"/>
<text text-anchor="middle" x="354" y="-70" font-family="FreeSans" font-size="10.00">frameschedulerworkunits.h</text>
</a>
</g>
<!-- Node2&#45;&gt;Node12 -->
<g id="edge84" class="edge"><title>Node2&#45;&gt;Node12</title>
<path fill="none" stroke="midnightblue" d="M684.603,-369.652C573.593,-362.701 289.258,-337.871 239,-264 193.757,-197.501 296.87,-113.009 338.001,-83.1009"/>
<polygon fill="midnightblue" stroke="midnightblue" points="684.598,-373.158 694.791,-370.27 685.021,-366.171 684.598,-373.158"/>
</g>
<!-- Node15 -->
<g id="node43" class="node"><title>Node15</title>
<a xlink:href="systemcalls_8h.html" target="_top" xlink:title="This file defines a minimalistic cross&#45;platform thread that the scheduler uses to schedule tasks...">
<polygon fill="white" stroke="black" points="761.5,-301 761.5,-323 838.5,-323 838.5,-301 761.5,-301"/>
<text text-anchor="middle" x="800" y="-310" font-family="FreeSans" font-size="10.00">systemcalls.h</text>
</a>
</g>
<!-- Node2&#45;&gt;Node15 -->
<g id="edge56" class="edge"><title>Node2&#45;&gt;Node15</title>
<path fill="none" stroke="midnightblue" d="M749.736,-354.476C761.62,-344.434 776.19,-332.121 786.578,-323.343"/>
<polygon fill="midnightblue" stroke="midnightblue" points="747.401,-351.867 742.022,-360.995 751.92,-357.214 747.401,-351.867"/>
</g>
<!-- Node18 -->
<g id="node54" class="node"><title>Node18</title>
<a xlink:href="systemcalls_8cpp.html" target="_top" xlink:title="This file defines some time&#45;tracking functions.">
<polygon fill="white" stroke="black" points="833,-241 833,-263 921,-263 921,-241 833,-241"/>
<text text-anchor="middle" x="877" y="-250" font-family="FreeSans" font-size="10.00">systemcalls.cpp</text>
</a>
</g>
<!-- Node2&#45;&gt;Node18 -->
<g id="edge102" class="edge"><title>Node2&#45;&gt;Node18</title>
<path fill="none" stroke="midnightblue" d="M772.992,-362.93C797.453,-355.91 826.917,-343.914 847,-324 864.116,-307.028 871.934,-278.849 875.109,-263.252"/>
<polygon fill="midnightblue" stroke="midnightblue" points="771.956,-359.584 763.204,-365.555 773.769,-366.345 771.956,-359.584"/>
</g>
<!-- Node19 -->
<g id="node58" class="node"><title>Node19</title>
<a xlink:href="atomiccas_8h.html" target="_top" xlink:title="Simple thread safe ways to check and change a specified variable atomically.">
<polygon fill="white" stroke="black" points="923.5,-121 923.5,-143 994.5,-143 994.5,-121 923.5,-121"/>
<text text-anchor="middle" x="959" y="-130" font-family="FreeSans" font-size="10.00">atomiccas.h</text>
</a>
</g>
<!-- Node2&#45;&gt;Node19 -->
<g id="edge78" class="edge"><title>Node2&#45;&gt;Node19</title>
<path fill="none" stroke="midnightblue" d="M773.201,-362.888C821.945,-350.165 897.739,-321.808 930,-264 935.946,-253.346 951.374,-172.864 956.951,-143.058"/>
<polygon fill="midnightblue" stroke="midnightblue" points="772.093,-359.557 763.235,-365.371 773.785,-366.35 772.093,-359.557"/>
</g>
<!-- Node20 -->
<g id="node63" class="node"><title>Node20</title>
<a xlink:href="rollingaverage_8h.html" target="_top" xlink:title="This Store the implementation and the declaration of the RollingAverage, BufferedRollingAverage, WeightedRollingAverage and the DefaultRollingAverage.">
<polygon fill="white" stroke="black" points="959.5,-181 959.5,-203 1048.5,-203 1048.5,-181 959.5,-181"/>
<text text-anchor="middle" x="1004" y="-190" font-family="FreeSans" font-size="10.00">rollingaverage.h</text>
</a>
</g>
<!-- Node2&#45;&gt;Node20 -->
<g id="edge86" class="edge"><title>Node2&#45;&gt;Node20</title>
<path fill="none" stroke="midnightblue" d="M773.492,-368.23C833.404,-362.278 935.671,-348.753 963,-324 998.749,-291.62 1003.64,-228.713 1004.09,-203.177"/>
<polygon fill="midnightblue" stroke="midnightblue" points="772.803,-364.78 763.184,-369.221 773.473,-371.748 772.803,-364.78"/>
</g>
<!-- Node21 -->
<g id="node67" class="node"><title>Node21</title>
<a xlink:href="workunitkey_8h.html" target="_top" xlink:title="This file defines the metadata used to sort workunits.">
<polygon fill="white" stroke="black" points="586.5,-241 586.5,-263 663.5,-263 663.5,-241 586.5,-241"/>
<text text-anchor="middle" x="625" y="-250" font-family="FreeSans" font-size="10.00">workunitkey.h</text>
</a>
</g>
<!-- Node2&#45;&gt;Node21 -->
<g id="edge92" class="edge"><title>Node2&#45;&gt;Node21</title>
<path fill="none" stroke="midnightblue" d="M707.743,-354.118C697.944,-345.448 686.425,-334.629 677,-324 659.2,-303.926 641.574,-277.878 632.109,-263.25"/>
<polygon fill="midnightblue" stroke="midnightblue" points="705.641,-356.928 715.485,-360.843 710.231,-351.643 705.641,-356.928"/>
</g>
<!-- Node4 -->
<g id="node7" class="node"><title>Node4</title>
<a xlink:href="asynchronousworkunit_8cpp.html" target="_top" xlink:title="Contains the minimal implementation for the monopoly base class.">
<polygon fill="white" stroke="black" points="122,-1 122,-23 256,-23 256,-1 122,-1"/>
<text text-anchor="middle" x="189" y="-10" font-family="FreeSans" font-size="10.00">asynchronousworkunit.cpp</text>
</a>
</g>
<!-- Node3&#45;&gt;Node4 -->
<g id="edge6" class="edge"><title>Node3&#45;&gt;Node4</title>
<path fill="none" stroke="midnightblue" d="M189,-50.9183C189,-41.6393 189,-31.1082 189,-23.3428"/>
<polygon fill="midnightblue" stroke="midnightblue" points="185.5,-50.995 189,-60.9951 192.5,-50.9951 185.5,-50.995"/>
</g>
<!-- Node3&#45;&gt;Node5 -->
<g id="edge8" class="edge"><title>Node3&#45;&gt;Node5</title>
<path fill="none" stroke="midnightblue" d="M233.544,-65.7181C247.453,-63.8124 262.856,-61.7591 277,-60 409.881,-43.4735 566.348,-26.524 647.996,-17.8698"/>
<polygon fill="midnightblue" stroke="midnightblue" points="232.672,-62.3052 223.244,-67.1393 233.629,-69.2395 232.672,-62.3052"/>
</g>
<!-- Node6 -->
<g id="node11" class="node"><title>Node6</title>
<a xlink:href="framescheduler_8cpp.html" target="_top" xlink:title="This is the core object implementation for this algorithm.">
<polygon fill="white" stroke="black" points="0,-1 0,-23 104,-23 104,-1 0,-1"/>
<text text-anchor="middle" x="52" y="-10" font-family="FreeSans" font-size="10.00">framescheduler.cpp</text>
</a>
</g>
<!-- Node3&#45;&gt;Node6 -->
<g id="edge10" class="edge"><title>Node3&#45;&gt;Node6</title>
<path fill="none" stroke="midnightblue" d="M154.437,-56.8628C130.48,-46.371 99.1139,-32.6338 77.4326,-23.1383"/>
<polygon fill="midnightblue" stroke="midnightblue" points="153.308,-60.1893 163.872,-60.9951 156.116,-53.7773 153.308,-60.1893"/>
</g>
<!-- Node7 -->
<g id="node13" class="node"><title>Node7</title>
<a xlink:href="monopoly_8cpp.html" target="_top" xlink:title="Contains the minimal implementation for the monopoly base class.">
<polygon fill="white" stroke="black" points="273.5,-1 273.5,-23 352.5,-23 352.5,-1 273.5,-1"/>
<text text-anchor="middle" x="313" y="-10" font-family="FreeSans" font-size="10.00">monopoly.cpp</text>
</a>
</g>
<!-- Node3&#45;&gt;Node7 -->
<g id="edge12" class="edge"><title>Node3&#45;&gt;Node7</title>
<path fill="none" stroke="midnightblue" d="M220.863,-56.5823C242.471,-46.1271 270.531,-32.5494 289.981,-23.1383"/>
<polygon fill="midnightblue" stroke="midnightblue" points="219.221,-53.4888 211.744,-60.9951 222.27,-59.79 219.221,-53.4888"/>
</g>
<!-- Node8&#45;&gt;Node3 -->
<g id="edge16" class="edge"><title>Node8&#45;&gt;Node3</title>
<path fill="none" stroke="midnightblue" d="M282.134,-235.8C268.996,-227.678 254.349,-216.826 244,-204 213.133,-165.743 197.112,-107.702 191.437,-83.3655"/>
<polygon fill="midnightblue" stroke="midnightblue" points="280.526,-238.915 290.918,-240.978 284.081,-232.885 280.526,-238.915"/>
</g>
<!-- Node8&#45;&gt;Node5 -->
<g id="edge44" class="edge"><title>Node8&#45;&gt;Node5</title>
<path fill="none" stroke="midnightblue" d="M313.808,-230.596C315.396,-215.112 319.693,-194.454 331,-180 410.423,-78.4691 564.719,-36.4592 647.797,-20.6067"/>
<polygon fill="midnightblue" stroke="midnightblue" points="310.301,-230.567 313.07,-240.794 317.283,-231.073 310.301,-230.567"/>
</g>
<!-- Node8&#45;&gt;Node6 -->
<g id="edge46" class="edge"><title>Node8&#45;&gt;Node6</title>
<path fill="none" stroke="midnightblue" d="M279.293,-236.515C262.297,-228.001 241.786,-216.615 225,-204 150.034,-147.662 82.1656,-55.3419 59.772,-23.3419"/>
<polygon fill="midnightblue" stroke="midnightblue" points="277.807,-239.684 288.328,-240.938 280.886,-233.397 277.807,-239.684"/>
</g>
<!-- Node8&#45;&gt;Node9 -->
<g id="edge18" class="edge"><title>Node8&#45;&gt;Node9</title>
<path fill="none" stroke="midnightblue" d="M346.806,-236.863C370.238,-226.371 400.918,-212.634 422.124,-203.138"/>
<polygon fill="midnightblue" stroke="midnightblue" points="345.274,-233.714 337.578,-240.995 348.135,-240.103 345.274,-233.714"/>
</g>
<!-- Node8&#45;&gt;Node11 -->
<g id="edge42" class="edge"><title>Node8&#45;&gt;Node11</title>
<path fill="none" stroke="midnightblue" d="M320.687,-231.561C327.886,-215.193 340.217,-192.906 358,-180 417.514,-136.81 626.252,-98.5264 731.438,-81.4456"/>
<polygon fill="midnightblue" stroke="midnightblue" points="317.433,-230.272 316.865,-240.851 323.907,-232.935 317.433,-230.272"/>
</g>
<!-- Node13 -->
<g id="node29" class="node"><title>Node13</title>
<a xlink:href="frameschedulerworkunits_8cpp.html" target="_top" xlink:title="The implementation of any workunits the framescheduler needs to work correctly.">
<polygon fill="white" stroke="black" points="370,-1 370,-23 516,-23 516,-1 370,-1"/>
<text text-anchor="middle" x="443" y="-10" font-family="FreeSans" font-size="10.00">frameschedulerworkunits.cpp</text>
</a>
</g>
<!-- Node8&#45;&gt;Node13 -->
<g id="edge48" class="edge"><title>Node8&#45;&gt;Node13</title>
<path fill="none" stroke="midnightblue" d="M297.021,-232.479C291.18,-224.203 285.22,-214.137 282,-204 262.614,-142.966 238.518,-111.186 277,-60 289.259,-43.6941 335.342,-31.1664 375.852,-23.0044"/>
<polygon fill="midnightblue" stroke="midnightblue" points="294.373,-234.781 303.176,-240.675 299.97,-230.577 294.373,-234.781"/>
</g>
<!-- Node14 -->
<g id="node32" class="node"><title>Node14</title>
<a xlink:href="workunit_8cpp.html" target="_top" xlink:title="This file has the implementation of the workunit.">
<polygon fill="white" stroke="black" points="909.5,-61 909.5,-83 980.5,-83 980.5,-61 909.5,-61"/>
<text text-anchor="middle" x="945" y="-70" font-family="FreeSans" font-size="10.00">workunit.cpp</text>
</a>
</g>
<!-- Node8&#45;&gt;Node14 -->
<g id="edge50" class="edge"><title>Node8&#45;&gt;Node14</title>
<path fill="none" stroke="midnightblue" d="M330.637,-233.557C349.177,-214.578 377.491,-186.845 391,-180 437.82,-156.278 794.307,-96.6165 909.338,-77.7877"/>
<polygon fill="midnightblue" stroke="midnightblue" points="328.04,-231.208 323.595,-240.825 333.067,-236.079 328.04,-231.208"/>
</g>
<!-- Node9&#45;&gt;Node5 -->
<g id="edge38" class="edge"><title>Node9&#45;&gt;Node5</title>
<path fill="none" stroke="midnightblue" d="M467.198,-174.073C497.731,-147.437 558.032,-96.6219 614,-60 635.634,-45.844 661.865,-32.2224 680.413,-23.1299"/>
<polygon fill="midnightblue" stroke="midnightblue" points="464.611,-171.686 459.403,-180.913 469.228,-176.948 464.611,-171.686"/>
</g>
<!-- Node9&#45;&gt;Node6 -->
<g id="edge40" class="edge"><title>Node9&#45;&gt;Node6</title>
<path fill="none" stroke="midnightblue" d="M393.674,-178.283C331.813,-161.164 227.848,-128.615 146,-84 113.872,-66.4874 80.9769,-38.5192 63.9139,-23.1018"/>
<polygon fill="midnightblue" stroke="midnightblue" points="393.034,-181.737 403.603,-180.999 394.881,-174.985 393.034,-181.737"/>
</g>
<!-- Node9&#45;&gt;Node10 -->
<g id="edge20" class="edge"><title>Node9&#45;&gt;Node10</title>
<path fill="none" stroke="midnightblue" d="M504.056,-179.911C616.58,-160.456 647.923,-166.336 756,-144 760.342,-143.103 764.89,-142.024 769.346,-140.885"/>
<polygon fill="midnightblue" stroke="midnightblue" points="503.25,-176.499 494.007,-181.678 504.462,-183.394 503.25,-176.499"/>
</g>
<!-- Node10&#45;&gt;Node3 -->
<g id="edge22" class="edge"><title>Node10&#45;&gt;Node3</title>
<path fill="none" stroke="midnightblue" d="M759.187,-128.869C671.039,-121.973 456.332,-104.447 277,-84 259.229,-81.9738 239.494,-79.32 223.225,-77.0234"/>
<polygon fill="midnightblue" stroke="midnightblue" points="759.056,-132.37 769.298,-129.657 759.6,-125.391 759.056,-132.37"/>
</g>
<!-- Node10&#45;&gt;Node5 -->
<g id="edge34" class="edge"><title>Node10&#45;&gt;Node5</title>
<path fill="none" stroke="midnightblue" d="M830.666,-115.749C853.361,-101.556 877.95,-80.1296 863,-60 850.493,-43.1593 800.84,-29.9562 760.307,-21.6959"/>
<polygon fill="midnightblue" stroke="midnightblue" points="828.636,-112.884 821.825,-121 832.21,-118.903 828.636,-112.884"/>
</g>
<!-- Node10&#45;&gt;Node11 -->
<g id="edge24" class="edge"><title>Node10&#45;&gt;Node11</title>
<path fill="none" stroke="midnightblue" d="M797.54,-110.918C796.458,-101.639 795.229,-91.1082 794.323,-83.3428"/>
<polygon fill="midnightblue" stroke="midnightblue" points="794.081,-111.468 798.716,-120.995 801.034,-110.657 794.081,-111.468"/>
</g>
<!-- Node10&#45;&gt;Node12 -->
<g id="edge28" class="edge"><title>Node10&#45;&gt;Node12</title>
<path fill="none" stroke="midnightblue" d="M759.128,-126.502C682.391,-116.178 516.047,-93.8 422.123,-81.1645"/>
<polygon fill="midnightblue" stroke="midnightblue" points="758.967,-130.011 769.345,-127.876 759.901,-123.074 758.967,-130.011"/>
</g>
<!-- Node10&#45;&gt;Node14 -->
<g id="edge36" class="edge"><title>Node10&#45;&gt;Node14</title>
<path fill="none" stroke="midnightblue" d="M835.907,-117.142C861.346,-106.616 894.931,-92.7182 918.082,-83.1383"/>
<polygon fill="midnightblue" stroke="midnightblue" points="834.497,-113.937 826.595,-120.995 837.174,-120.406 834.497,-113.937"/>
</g>
<!-- Node11&#45;&gt;Node5 -->
<g id="edge26" class="edge"><title>Node11&#45;&gt;Node5</title>
<path fill="none" stroke="midnightblue" d="M768.231,-55.3016C753.006,-45.0379 733.918,-32.1696 720.522,-23.1383"/>
<polygon fill="midnightblue" stroke="midnightblue" points="766.428,-58.3072 776.676,-60.9951 770.341,-52.503 766.428,-58.3072"/>
</g>
<!-- Node12&#45;&gt;Node5 -->
<g id="edge30" class="edge"><title>Node12&#45;&gt;Node5</title>
<path fill="none" stroke="midnightblue" d="M428.067,-59.3029C493.697,-48.052 588.104,-31.8679 647.724,-21.6473"/>
<polygon fill="midnightblue" stroke="midnightblue" points="427.46,-55.8557 418.195,-60.9951 428.643,-62.755 427.46,-55.8557"/>
</g>
<!-- Node12&#45;&gt;Node13 -->
<g id="edge32" class="edge"><title>Node12&#45;&gt;Node13</title>
<path fill="none" stroke="midnightblue" d="M378.769,-55.3016C393.994,-45.0379 413.082,-32.1696 426.478,-23.1383"/>
<polygon fill="midnightblue" stroke="midnightblue" points="376.659,-52.503 370.324,-60.9951 380.572,-58.3072 376.659,-52.503"/>
</g>
<!-- Node15&#45;&gt;Node5 -->
<g id="edge68" class="edge"><title>Node15&#45;&gt;Node5</title>
<path fill="none" stroke="midnightblue" d="M792.47,-291.262C778.109,-251.386 746.173,-161.134 723,-84 716.602,-62.7043 710.225,-37.5227 706.728,-23.2902"/>
<polygon fill="midnightblue" stroke="midnightblue" points="789.19,-292.485 795.88,-300.7 795.774,-290.106 789.19,-292.485"/>
</g>
<!-- Node15&#45;&gt;Node9 -->
<g id="edge70" class="edge"><title>Node15&#45;&gt;Node9</title>
<path fill="none" stroke="midnightblue" d="M751.382,-305.635C705.62,-298.684 635.689,-285.566 578,-264 534.487,-247.734 487.778,-219.013 463.615,-203.208"/>
<polygon fill="midnightblue" stroke="midnightblue" points="750.93,-309.106 761.335,-307.107 751.954,-302.181 750.93,-309.106"/>
</g>
<!-- Node15&#45;&gt;Node14 -->
<g id="edge74" class="edge"><title>Node15&#45;&gt;Node14</title>
<path fill="none" stroke="midnightblue" d="M803.681,-290.726C809.048,-263.571 820.775,-215.823 842,-180 866.301,-138.984 908.879,-101.136 930.907,-83.0903"/>
<polygon fill="midnightblue" stroke="midnightblue" points="800.215,-290.22 801.816,-300.693 807.096,-291.507 800.215,-290.22"/>
</g>
<!-- Node15&#45;&gt;Node16 -->
<g id="edge58" class="edge"><title>Node15&#45;&gt;Node16</title>
<path fill="none" stroke="midnightblue" d="M848.551,-302.811C916.281,-289.991 1036.81,-267.178 1090.23,-257.066"/>
<polygon fill="midnightblue" stroke="midnightblue" points="847.728,-299.404 838.554,-304.703 849.03,-306.282 847.728,-299.404"/>
</g>
<!-- Node15&#45;&gt;Node18 -->
<g id="edge72" class="edge"><title>Node15&#45;&gt;Node18</title>
<path fill="none" stroke="midnightblue" d="M822.172,-294.723C835.217,-284.558 851.332,-272.001 862.706,-263.138"/>
<polygon fill="midnightblue" stroke="midnightblue" points="819.86,-292.088 814.123,-300.995 824.162,-297.609 819.86,-292.088"/>
</g>
<!-- Node16&#45;&gt;Node5 -->
<g id="edge62" class="edge"><title>Node16&#45;&gt;Node5</title>
<path fill="none" stroke="midnightblue" d="M1112.28,-231.076C1101.84,-190.152 1072.55,-100.024 1010,-60 969.573,-34.1335 836.752,-21.0021 760.038,-15.422"/>
<polygon fill="midnightblue" stroke="midnightblue" points="1108.88,-231.906 1114.64,-240.798 1115.69,-230.255 1108.88,-231.906"/>
</g>
<!-- Node16&#45;&gt;Node9 -->
<g id="edge60" class="edge"><title>Node16&#45;&gt;Node9</title>
<path fill="none" stroke="midnightblue" d="M1080.41,-249.425C956.913,-240.695 560.06,-212.306 503,-204 500.147,-203.585 497.221,-203.109 494.276,-202.593"/>
<polygon fill="midnightblue" stroke="midnightblue" points="1080.27,-252.924 1090.49,-250.137 1080.76,-245.941 1080.27,-252.924"/>
</g>
<!-- Node16&#45;&gt;Node10 -->
<g id="edge66" class="edge"><title>Node16&#45;&gt;Node10</title>
<path fill="none" stroke="midnightblue" d="M1080.69,-241.085C1079.45,-240.718 1078.21,-240.355 1077,-240 1021.11,-223.632 1004.79,-226.341 951,-204 930.788,-195.605 927.576,-189.788 908,-180 880.839,-166.419 848.986,-152.498 826.944,-143.17"/>
<polygon fill="midnightblue" stroke="midnightblue" points="1079.75,-244.457 1090.33,-243.947 1081.74,-237.746 1079.75,-244.457"/>
</g>
<!-- Node17 -->
<g id="node49" class="node"><title>Node17</title>
<a xlink:href="thread_8cpp.html" target="_top" xlink:title="This file implements a minimalistic cross&#45;platform thread that the scheduler uses to schedule tasks...">
<polygon fill="white" stroke="black" points="1141.5,-181 1141.5,-203 1204.5,-203 1204.5,-181 1141.5,-181"/>
<text text-anchor="middle" x="1173" y="-190" font-family="FreeSans" font-size="10.00">thread.cpp</text>
</a>
</g>
<!-- Node16&#45;&gt;Node17 -->
<g id="edge64" class="edge"><title>Node16&#45;&gt;Node17</title>
<path fill="none" stroke="midnightblue" d="M1134.17,-233.602C1143.39,-223.726 1154.46,-211.868 1162.41,-203.343"/>
<polygon fill="midnightblue" stroke="midnightblue" points="1131.54,-231.296 1127.27,-240.995 1136.65,-236.073 1131.54,-231.296"/>
</g>
<!-- Node19&#45;&gt;Node14 -->
<g id="edge80" class="edge"><title>Node19&#45;&gt;Node14</title>
<path fill="none" stroke="midnightblue" d="M954.151,-111.22C951.969,-101.869 949.478,-91.1926 947.647,-83.3428"/>
<polygon fill="midnightblue" stroke="midnightblue" points="950.751,-112.052 956.432,-120.995 957.568,-110.461 950.751,-112.052"/>
</g>
<!-- Node20&#45;&gt;Node5 -->
<g id="edge88" class="edge"><title>Node20&#45;&gt;Node5</title>
<path fill="none" stroke="midnightblue" d="M1008.98,-170.649C1014.47,-141.083 1018.96,-88.1467 989,-60 956.728,-29.6807 833.483,-18.3523 760.048,-14.2402"/>
<polygon fill="midnightblue" stroke="midnightblue" points="1005.49,-170.234 1006.9,-180.735 1012.35,-171.65 1005.49,-170.234"/>
</g>
<!-- Node20&#45;&gt;Node10 -->
<g id="edge90" class="edge"><title>Node20&#45;&gt;Node10</title>
<path fill="none" stroke="midnightblue" d="M956.55,-178.044C917.691,-166.615 863.868,-150.785 830.527,-140.979"/>
<polygon fill="midnightblue" stroke="midnightblue" points="956.002,-181.531 966.583,-180.995 957.977,-174.816 956.002,-181.531"/>
</g>
<!-- Node21&#45;&gt;Node5 -->
<g id="edge94" class="edge"><title>Node21&#45;&gt;Node5</title>
<path fill="none" stroke="midnightblue" d="M623.5,-230.717C621.834,-193.739 622.556,-116.207 652,-60 660.039,-44.6548 674.997,-31.652 686.814,-23.0664"/>
<polygon fill="midnightblue" stroke="midnightblue" points="620.013,-231.033 624.065,-240.823 627.002,-230.643 620.013,-231.033"/>
</g>
<!-- Node21&#45;&gt;Node9 -->
<g id="edge96" class="edge"><title>Node21&#45;&gt;Node9</title>
<path fill="none" stroke="midnightblue" d="M582.53,-237.684C551.011,-227.06 508.661,-212.785 479.742,-203.037"/>
<polygon fill="midnightblue" stroke="midnightblue" points="581.758,-241.117 592.352,-240.995 583.994,-234.484 581.758,-241.117"/>
</g>
<!-- Node21&#45;&gt;Node10 -->
<g id="edge98" class="edge"><title>Node21&#45;&gt;Node10</title>
<path fill="none" stroke="midnightblue" d="M649.706,-235.059C686.117,-210.091 753.186,-164.101 783.889,-143.047"/>
<polygon fill="midnightblue" stroke="midnightblue" points="647.418,-232.384 641.15,-240.926 651.377,-238.157 647.418,-232.384"/>
</g>
<!-- Node22 -->
<g id="node72" class="node"><title>Node22</title>
<a xlink:href="workunitkey_8cpp.html" target="_top" xlink:title="This file declares the functionality of the metadata used to sort workunits.">
<polygon fill="white" stroke="black" points="512,-181 512,-203 600,-203 600,-181 512,-181"/>
<text text-anchor="middle" x="556" y="-190" font-family="FreeSans" font-size="10.00">workunitkey.cpp</text>
</a>
</g>
<!-- Node21&#45;&gt;Node22 -->
<g id="edge100" class="edge"><title>Node21&#45;&gt;Node22</title>
<path fill="none" stroke="midnightblue" d="M604.514,-234.186C593.027,-224.197 579.042,-212.037 569.044,-203.343"/>
<polygon fill="midnightblue" stroke="midnightblue" points="602.502,-237.074 612.344,-240.995 607.095,-231.792 602.502,-237.074"/>
</g>
<!-- Node23&#45;&gt;Node5 -->
<g id="edge110" class="edge"><title>Node23&#45;&gt;Node5</title>
<path fill="none" stroke="midnightblue" d="M1132.16,-298.66C1172.15,-280.92 1232,-245.449 1232,-192 1232,-192 1232,-192 1232,-132 1232,-39.6143 1126.55,-82.7161 1037,-60 941.318,-35.7282 826.842,-22.584 760.086,-16.4534"/>
<polygon fill="midnightblue" stroke="midnightblue" points="1130.54,-295.545 1122.71,-302.686 1133.28,-301.984 1130.54,-295.545"/>
</g>
<!-- Node23&#45;&gt;Node10 -->
<g id="edge112" class="edge"><title>Node23&#45;&gt;Node10</title>
<path fill="none" stroke="midnightblue" d="M1067.72,-296.09C1030.26,-275.546 963.568,-238.343 908,-204 874.646,-183.386 836.739,-157.532 815.877,-143.084"/>
<polygon fill="midnightblue" stroke="midnightblue" points="1066.14,-299.213 1076.59,-300.942 1069.5,-293.072 1066.14,-299.213"/>
</g>
<!-- Node23&#45;&gt;Node16 -->
<g id="edge108" class="edge"><title>Node23&#45;&gt;Node16</title>
<path fill="none" stroke="midnightblue" d="M1103.93,-291.22C1107.04,-281.869 1110.6,-271.193 1113.22,-263.343"/>
<polygon fill="midnightblue" stroke="midnightblue" points="1100.51,-290.401 1100.67,-300.995 1107.15,-292.615 1100.51,-290.401"/>
</g>
</g>
</svg>
        <g id="navigator" transform="translate(0 0)" fill="#404254">
                <rect fill="#f2f5e9" fill-opacity="0.5" stroke="#606060" stroke-width=".5" x="0" y="0" width="60" height="60"/>
                <use id="zoomplus" xlink:href="#zoomPlus" x="17" y="9" onmousedown="handleZoom(evt,'in')"/>
                <use id="zoomminus" xlink:href="#zoomMin" x="42" y="9" onmousedown="handleZoom(evt,'out')"/>
                <use id="reset" xlink:href="#resetDef" x="30" y="36" onmousedown="handleReset()"/>
                <g id="arrowUp" xlink:href="#dirArrow" transform="translate(30 24)" onmousedown="handlePan(0,-1)">
                  <use xlink:href="#rim" fill="#404040">
                        <set attributeName="fill" to="#808080" begin="arrowUp.mouseover" end="arrowUp.mouseout"/>
                  </use>
                  <path fill="none" stroke="white" stroke-width="1.5" d="M0,-3.0v7 M-2.5,-0.5L0,-3.0L2.5,-0.5"/>
                </g>
                <g id="arrowRight" xlink:href="#dirArrow" transform="rotate(90) translate(36 -43)" onmousedown="handlePan(1,0)">
                  <use xlink:href="#rim" fill="#404040">
                        <set attributeName="fill" to="#808080" begin="arrowRight.mouseover" end="arrowRight.mouseout"/>
                  </use>
                  <path fill="none" stroke="white" stroke-width="1.5" d="M0,-3.0v7 M-2.5,-0.5L0,-3.0L2.5,-0.5"/>
                </g>
                <g id="arrowDown" xlink:href="#dirArrow" transform="rotate(180) translate(-30 -48)" onmousedown="handlePan(0,1)">
                  <use xlink:href="#rim" fill="#404040">
                        <set attributeName="fill" to="#808080" begin="arrowDown.mouseover" end="arrowDown.mouseout"/>
                  </use>
                  <path fill="none" stroke="white" stroke-width="1.5" d="M0,-3.0v7 M-2.5,-0.5L0,-3.0L2.5,-0.5"/>
                </g>
                <g id="arrowLeft" xlink:href="#dirArrow" transform="rotate(270) translate(-36 17)" onmousedown="handlePan(-1,0)">
                  <use xlink:href="#rim" fill="#404040">
                        <set attributeName="fill" to="#808080" begin="arrowLeft.mouseover" end="arrowLeft.mouseout"/>
                  </use>
                  <path fill="none" stroke="white" stroke-width="1.5" d="M0,-3.0v7 M-2.5,-0.5L0,-3.0L2.5,-0.5"/>
                </g>
        </g>
</svg>
