<?xml version="1.0" encoding="UTF-8" standalone="no"?>
<!DOCTYPE svg PUBLIC "-//W3C//DTD SVG 1.1//EN"
 "http://www.w3.org/Graphics/SVG/1.1/DTD/svg11.dtd">
<!-- Generated by graphviz version 2.26.3 (20100126.1600)
 -->
<!-- Title: crossplatformincludes.h Pages: 1 -->
<svg width="376pt" height="88pt"
 viewBox="0.00 0.00 376.00 88.00" xmlns="http://www.w3.org/2000/svg" xmlns:xlink="http://www.w3.org/1999/xlink">
<g id="graph1" class="graph" transform="scale(1 1) rotate(0) translate(4 84)">
<title>crossplatformincludes.h</title>
<polygon fill="white" stroke="white" points="-4,5 -4,-84 373,-84 373,5 -4,5"/>
<!-- Node1 -->
<g id="node1" class="node"><title>Node1</title>
<polygon fill="#bfbfbf" stroke="black" points="142.5,-59 142.5,-79 259.5,-79 259.5,-59 142.5,-59"/>
<text text-anchor="middle" x="201" y="-66" font-family="FreeSans" font-size="10.00">crossplatformincludes.h</text>
</g>
<!-- Node2 -->
<g id="node3" class="node"><title>Node2</title>
<a xlink:href="atomicoperations_8cpp.html" target="_top" xlink:title="The implementation of simple thread safe ways to check and change a specified variable atomically...">
<polygon fill="white" stroke="black" points="0,-1 0,-21 108,-21 108,-1 0,-1"/>
<text text-anchor="middle" x="54" y="-8" font-family="FreeSans" font-size="10.00">atomicoperations.cpp</text>
</a>
</g>
<!-- Node1&#45;&gt;Node2 -->
<g id="edge2" class="edge"><title>Node1&#45;&gt;Node2</title>
<path fill="none" stroke="midnightblue" d="M165.745,-55.0898C139.282,-44.6486 103.65,-30.5898 79.8052,-21.1817"/>
<polygon fill="midnightblue" stroke="midnightblue" points="164.808,-58.4826 175.395,-58.8972 167.377,-51.9711 164.808,-58.4826"/>
</g>
<!-- Node3 -->
<g id="node5" class="node"><title>Node3</title>
<a xlink:href="mutex_8cpp.html" target="_top" xlink:title="Contains the implementation for the Mezzanine::Threading::Mutex Mutex synchronization object...">
<polygon fill="white" stroke="black" points="125.5,-1 125.5,-21 186.5,-21 186.5,-1 125.5,-1"/>
<text text-anchor="middle" x="156" y="-8" font-family="FreeSans" font-size="10.00">mutex.cpp</text>
</a>
</g>
<!-- Node1&#45;&gt;Node3 -->
<g id="edge4" class="edge"><title>Node1&#45;&gt;Node3</title>
<path fill="none" stroke="midnightblue" d="M187.02,-50.981C179.472,-41.2522 170.422,-29.5889 164.052,-21.3776"/>
<polygon fill="midnightblue" stroke="midnightblue" points="184.266,-53.1418 193.162,-58.8972 189.797,-48.8508 184.266,-53.1418"/>
</g>
<!-- Node4 -->
<g id="node7" class="node"><title>Node4</title>
<a xlink:href="systemcalls_8cpp.html" target="_top" xlink:title="This file defines some platform specifc functions.">
<polygon fill="white" stroke="black" points="204,-1 204,-21 288,-21 288,-1 204,-1"/>
<text text-anchor="middle" x="246" y="-8" font-family="FreeSans" font-size="10.00">systemcalls.cpp</text>
</a>
</g>
<!-- Node1&#45;&gt;Node4 -->
<g id="edge6" class="edge"><title>Node1&#45;&gt;Node4</title>
<path fill="none" stroke="midnightblue" d="M214.98,-50.981C222.528,-41.2522 231.578,-29.5889 237.948,-21.3776"/>
<polygon fill="midnightblue" stroke="midnightblue" points="212.203,-48.8508 208.838,-58.8972 217.734,-53.1418 212.203,-48.8508"/>
</g>
<!-- Node5 -->
<g id="node9" class="node"><title>Node5</title>
<a xlink:href="thread_8cpp.html" target="_top" xlink:title="This file implements a minimalistic cross&#45;platform thread that the scheduler uses to schedule tasks...">
<polygon fill="white" stroke="black" points="306,-1 306,-21 368,-21 368,-1 306,-1"/>
<text text-anchor="middle" x="337" y="-8" font-family="FreeSans" font-size="10.00">thread.cpp</text>
</a>
</g>
<!-- Node1&#45;&gt;Node5 -->
<g id="edge8" class="edge"><title>Node1&#45;&gt;Node5</title>
<path fill="none" stroke="midnightblue" d="M233.941,-54.9516C258.39,-44.5248 291.163,-30.5483 313.126,-21.1817"/>
<polygon fill="midnightblue" stroke="midnightblue" points="232.515,-51.7548 224.689,-58.8972 235.261,-58.1937 232.515,-51.7548"/>
</g>
</g>
</svg>
