<?xml version="1.0" encoding="UTF-8" standalone="no"?>
<!DOCTYPE svg PUBLIC "-//W3C//DTD SVG 1.1//EN"
 "http://www.w3.org/Graphics/SVG/1.1/DTD/svg11.dtd">
<!-- Generated by graphviz version 2.26.3 (20100126.1600)
 -->
<!-- Title: crossplatformincludes.h Pages: 1 -->
<svg width="392pt" height="88pt"
 viewBox="0.00 0.00 392.00 88.00" xmlns="http://www.w3.org/2000/svg" xmlns:xlink="http://www.w3.org/1999/xlink">
<g id="graph1" class="graph" transform="scale(1 1) rotate(0) translate(4 84)">
<title>crossplatformincludes.h</title>
<polygon fill="white" stroke="white" points="-4,5 -4,-84 389,-84 389,5 -4,5"/>
<!-- Node1 -->
<g id="node1" class="node"><title>Node1</title>
<polygon fill="#bfbfbf" stroke="black" points="165.5,-59 165.5,-79 282.5,-79 282.5,-59 165.5,-59"/>
<text text-anchor="middle" x="224" y="-66" font-family="FreeSans" font-size="10.00">crossplatformincludes.h</text>
</g>
<!-- Node2 -->
<g id="node3" class="node"><title>Node2</title>
<a xlink:href="crossplatformexport_8h.html" target="_top" xlink:title="This file determines what features are offered by the compiler that this library can take advantage o...">
<polygon fill="white" stroke="black" points="0,-1 0,-21 108,-21 108,-1 0,-1"/>
<text text-anchor="middle" x="54" y="-8" font-family="FreeSans" font-size="10.00">crossplatformexport.h</text>
</a>
</g>
<!-- Node1&#45;&gt;Node2 -->
<g id="edge2" class="edge"><title>Node1&#45;&gt;Node2</title>
<path fill="none" stroke="midnightblue" d="M194.388,-58.8972C166.319,-49.3205 123.976,-34.8742 93.134,-24.3516"/>
<polygon fill="midnightblue" stroke="midnightblue" points="94.1516,-21.0007 83.5571,-21.0842 91.8913,-27.6258 94.1516,-21.0007"/>
</g>
<!-- Node3 -->
<g id="node5" class="node"><title>Node3</title>
<polygon fill="white" stroke="#bfbfbf" points="126,-1 126,-21 182,-21 182,-1 126,-1"/>
<text text-anchor="middle" x="154" y="-8" font-family="FreeSans" font-size="10.00">pthread.h</text>
</g>
<!-- Node1&#45;&gt;Node3 -->
<g id="edge4" class="edge"><title>Node1&#45;&gt;Node3</title>
<path fill="none" stroke="midnightblue" d="M211.807,-58.8972C201.495,-50.3532 186.505,-37.933 174.374,-27.8813"/>
<polygon fill="midnightblue" stroke="midnightblue" points="176.458,-25.0627 166.525,-21.3776 171.992,-30.4529 176.458,-25.0627"/>
</g>
<!-- Node4 -->
<g id="node7" class="node"><title>Node4</title>
<polygon fill="white" stroke="#bfbfbf" points="199.5,-1 199.5,-21 248.5,-21 248.5,-1 199.5,-1"/>
<text text-anchor="middle" x="224" y="-8" font-family="FreeSans" font-size="10.00">signal.h</text>
</g>
<!-- Node1&#45;&gt;Node4 -->
<g id="edge6" class="edge"><title>Node1&#45;&gt;Node4</title>
<path fill="none" stroke="midnightblue" d="M224,-58.8972C224,-51.339 224,-40.7476 224,-31.4458"/>
<polygon fill="midnightblue" stroke="midnightblue" points="227.5,-31.3776 224,-21.3776 220.5,-31.3776 227.5,-31.3776"/>
</g>
<!-- Node5 -->
<g id="node9" class="node"><title>Node5</title>
<polygon fill="white" stroke="#bfbfbf" points="266,-1 266,-21 316,-21 316,-1 266,-1"/>
<text text-anchor="middle" x="291" y="-8" font-family="FreeSans" font-size="10.00">sched.h</text>
</g>
<!-- Node1&#45;&gt;Node5 -->
<g id="edge8" class="edge"><title>Node1&#45;&gt;Node5</title>
<path fill="none" stroke="midnightblue" d="M235.671,-58.8972C245.445,-50.4353 259.612,-38.1715 271.163,-28.1719"/>
<polygon fill="midnightblue" stroke="midnightblue" points="273.742,-30.5689 279.012,-21.3776 269.161,-25.2764 273.742,-30.5689"/>
</g>
<!-- Node6 -->
<g id="node11" class="node"><title>Node6</title>
<polygon fill="white" stroke="#bfbfbf" points="334,-1 334,-21 384,-21 384,-1 334,-1"/>
<text text-anchor="middle" x="359" y="-8" font-family="FreeSans" font-size="10.00">unistd.h</text>
</g>
<!-- Node1&#45;&gt;Node6 -->
<g id="edge10" class="edge"><title>Node1&#45;&gt;Node6</title>
<path fill="none" stroke="midnightblue" d="M247.515,-58.8972C269.256,-49.5565 301.781,-35.5831 326.096,-25.1363"/>
<polygon fill="midnightblue" stroke="midnightblue" points="327.495,-28.3449 335.301,-21.1817 324.732,-21.9133 327.495,-28.3449"/>
</g>
</g>
</svg>
