<?xml version="1.0" encoding="UTF-8" standalone="no"?>
<!DOCTYPE svg PUBLIC "-//W3C//DTD SVG 1.1//EN"
 "http://www.w3.org/Graphics/SVG/1.1/DTD/svg11.dtd">
<!-- Generated by graphviz version 2.26.3 (20100126.1600)
 -->
<!-- Title: crossplatformincludes.h Pages: 1 -->
<svg width="590pt" height="88pt"
 viewBox="0.00 0.00 590.00 88.00" xmlns="http://www.w3.org/2000/svg" xmlns:xlink="http://www.w3.org/1999/xlink">
<g id="graph1" class="graph" transform="scale(1 1) rotate(0) translate(4 84)">
<title>crossplatformincludes.h</title>
<polygon fill="white" stroke="white" points="-4,5 -4,-84 587,-84 587,5 -4,5"/>
<!-- Node1 -->
<g id="node1" class="node"><title>Node1</title>
<polygon fill="#bfbfbf" stroke="black" points="252.5,-59 252.5,-79 369.5,-79 369.5,-59 252.5,-59"/>
<text text-anchor="middle" x="311" y="-66" font-family="FreeSans" font-size="10.00">crossplatformincludes.h</text>
</g>
<!-- Node2 -->
<g id="node3" class="node"><title>Node2</title>
<a xlink:href="atomicoperations_8cpp.html" target="_top" xlink:title="The implementation of simple thread safe ways to check and change a specified variable atomically...">
<polygon fill="white" stroke="black" points="0,-1 0,-21 108,-21 108,-1 0,-1"/>
<text text-anchor="middle" x="54" y="-8" font-family="FreeSans" font-size="10.00">atomicoperations.cpp</text>
</a>
</g>
<!-- Node1&#45;&gt;Node2 -->
<g id="edge2" class="edge"><title>Node1&#45;&gt;Node2</title>
<path fill="none" stroke="midnightblue" d="M256.504,-56.7014C209.418,-46.0749 142.219,-30.9093 98.3582,-21.0108"/>
<polygon fill="midnightblue" stroke="midnightblue" points="256.002,-60.176 266.527,-58.9634 257.543,-53.3477 256.002,-60.176"/>
</g>
<!-- Node3 -->
<g id="node5" class="node"><title>Node3</title>
<a xlink:href="mutex_8cpp.html" target="_top" xlink:title="Contains the implementation for the Mezzanine::Threading::Mutex Mutex synchronization object...">
<polygon fill="white" stroke="black" points="125.5,-1 125.5,-21 186.5,-21 186.5,-1 125.5,-1"/>
<text text-anchor="middle" x="156" y="-8" font-family="FreeSans" font-size="10.00">mutex.cpp</text>
</a>
</g>
<!-- Node1&#45;&gt;Node3 -->
<g id="edge4" class="edge"><title>Node1&#45;&gt;Node3</title>
<path fill="none" stroke="midnightblue" d="M274.531,-55.3536C246.462,-44.8504 208.303,-30.5716 182.949,-21.0842"/>
<polygon fill="midnightblue" stroke="midnightblue" points="273.409,-58.6705 284.001,-58.8972 275.862,-52.1145 273.409,-58.6705"/>
</g>
<!-- Node4 -->
<g id="node7" class="node"><title>Node4</title>
<a xlink:href="readwritespinlock_8cpp.html" target="_top" xlink:title="Contains the implementation for the Mezzanine::Threading::Mutex Mutex synchronization object...">
<polygon fill="white" stroke="black" points="203.5,-1 203.5,-21 312.5,-21 312.5,-1 203.5,-1"/>
<text text-anchor="middle" x="258" y="-8" font-family="FreeSans" font-size="10.00">readwritespinlock.cpp</text>
</a>
</g>
<!-- Node1&#45;&gt;Node4 -->
<g id="edge6" class="edge"><title>Node1&#45;&gt;Node4</title>
<path fill="none" stroke="midnightblue" d="M294.803,-51.2752C285.86,-41.4882 275.062,-29.6718 267.483,-21.3776"/>
<polygon fill="midnightblue" stroke="midnightblue" points="292.439,-53.8761 301.768,-58.8972 297.606,-49.154 292.439,-53.8761"/>
</g>
<!-- Node5 -->
<g id="node9" class="node"><title>Node5</title>
<a xlink:href="spinlock_8cpp.html" target="_top" xlink:title="Contains the implementation for the Mezzanine::Threading::SpinLock synchronization object...">
<polygon fill="white" stroke="black" points="330,-1 330,-21 400,-21 400,-1 330,-1"/>
<text text-anchor="middle" x="365" y="-8" font-family="FreeSans" font-size="10.00">spinlock.cpp</text>
</a>
</g>
<!-- Node1&#45;&gt;Node5 -->
<g id="edge8" class="edge"><title>Node1&#45;&gt;Node5</title>
<path fill="none" stroke="midnightblue" d="M327.23,-51.5682C336.394,-41.7249 347.539,-29.7548 355.338,-21.3776"/>
<polygon fill="midnightblue" stroke="midnightblue" points="324.659,-49.1932 320.406,-58.8972 329.782,-53.9632 324.659,-49.1932"/>
</g>
<!-- Node6 -->
<g id="node11" class="node"><title>Node6</title>
<a xlink:href="systemcalls_8cpp.html" target="_top" xlink:title="This file defines some platform specifc functions. ">
<polygon fill="white" stroke="black" points="418,-1 418,-21 502,-21 502,-1 418,-1"/>
<text text-anchor="middle" x="460" y="-8" font-family="FreeSans" font-size="10.00">systemcalls.cpp</text>
</a>
</g>
<!-- Node1&#45;&gt;Node6 -->
<g id="edge10" class="edge"><title>Node1&#45;&gt;Node6</title>
<path fill="none" stroke="midnightblue" d="M346.411,-55.2158C373.359,-44.7258 409.828,-30.5302 434.094,-21.0842"/>
<polygon fill="midnightblue" stroke="midnightblue" points="345.003,-52.008 336.954,-58.8972 347.542,-58.5312 345.003,-52.008"/>
</g>
<!-- Node7 -->
<g id="node13" class="node"><title>Node7</title>
<a xlink:href="thread_8cpp.html" target="_top" xlink:title="This file implements a minimalistic cross&#45;platform thread that the scheduler uses to schedule tasks...">
<polygon fill="white" stroke="black" points="520,-1 520,-21 582,-21 582,-1 520,-1"/>
<text text-anchor="middle" x="551" y="-8" font-family="FreeSans" font-size="10.00">thread.cpp</text>
</a>
</g>
<!-- Node1&#45;&gt;Node7 -->
<g id="edge12" class="edge"><title>Node1&#45;&gt;Node7</title>
<path fill="none" stroke="midnightblue" d="M365.881,-56.6871C406.142,-47.5123 462.091,-34.4672 511,-22 513.792,-21.2884 516.687,-20.5306 519.587,-19.7585"/>
<polygon fill="midnightblue" stroke="midnightblue" points="364.972,-53.3043 355.997,-58.9336 366.524,-60.1302 364.972,-53.3043"/>
</g>
</g>
</svg>
