<?xml version="1.0" encoding="UTF-8" standalone="no"?>
<!DOCTYPE svg PUBLIC "-//W3C//DTD SVG 1.1//EN"
 "http://www.w3.org/Graphics/SVG/1.1/DTD/svg11.dtd">
<!-- Generated by graphviz version 2.26.3 (20100126.1600)
 -->
<!-- Title: crossplatformexport.h Pages: 1 -->
<svg width="1849pt" height="552pt"
 viewBox="0.00 0.00 1849.00 552.00" xmlns="http://www.w3.org/2000/svg" xmlns:xlink="http://www.w3.org/1999/xlink">
<g id="graph1" class="graph" transform="scale(1 1) rotate(0) translate(4 548)">
<title>crossplatformexport.h</title>
<polygon fill="white" stroke="white" points="-4,5 -4,-548 1846,-548 1846,5 -4,5"/>
<!-- Node1 -->
<g id="node1" class="node"><title>Node1</title>
<polygon fill="#bfbfbf" stroke="black" points="1616,-523 1616,-543 1724,-543 1724,-523 1616,-523"/>
<text text-anchor="middle" x="1670" y="-530" font-family="FreeSans" font-size="10.00">crossplatformexport.h</text>
</g>
<!-- Node2 -->
<g id="node3" class="node"><title>Node2</title>
<a xlink:href="datatypes_8h.html" target="_top" xlink:title="This file declares a few typedefs to allow flexibility, in case a change is required/desired.">
<polygon fill="white" stroke="black" points="1022.5,-465 1022.5,-485 1087.5,-485 1087.5,-465 1022.5,-465"/>
<text text-anchor="middle" x="1055" y="-472" font-family="FreeSans" font-size="10.00">datatypes.h</text>
</a>
</g>
<!-- Node1&#45;&gt;Node2 -->
<g id="edge2" class="edge"><title>Node1&#45;&gt;Node2</title>
<path fill="none" stroke="midnightblue" d="M1605.75,-526.941C1475.66,-514.672 1185.18,-487.277 1087.65,-478.079"/>
<polygon fill="midnightblue" stroke="midnightblue" points="1605.68,-530.449 1615.96,-527.904 1606.33,-523.48 1605.68,-530.449"/>
</g>
<!-- Node6 -->
<g id="node11" class="node"><title>Node6</title>
<a xlink:href="dagframescheduler_8h.html" target="_top" xlink:title="This is the file that code using this library should include. It includes all the required components...">
<polygon fill="white" stroke="black" points="964,-1 964,-21 1070,-21 1070,-1 964,-1"/>
<text text-anchor="middle" x="1017" y="-8" font-family="FreeSans" font-size="10.00">dagframescheduler.h</text>
</a>
</g>
<!-- Node1&#45;&gt;Node6 -->
<g id="edge168" class="edge"><title>Node1&#45;&gt;Node6</title>
<path fill="none" stroke="midnightblue" d="M1725.58,-520.063C1775.5,-504.754 1841,-473.837 1841,-417 1841,-417 1841,-417 1841,-127 1841,-48.8528 1252.34,-19.9389 1070.11,-12.8603"/>
<polygon fill="midnightblue" stroke="midnightblue" points="1724.44,-516.75 1715.82,-522.92 1726.41,-523.468 1724.44,-516.75"/>
</g>
<!-- Node33 -->
<g id="node112" class="node"><title>Node33</title>
<a xlink:href="crossplatformincludes_8h.html" target="_top" xlink:title="This file determines what features are offered by the compiler that this library can take advantage o...">
<polygon fill="white" stroke="black" points="1611.5,-349 1611.5,-369 1728.5,-369 1728.5,-349 1611.5,-349"/>
<text text-anchor="middle" x="1670" y="-356" font-family="FreeSans" font-size="10.00">crossplatformincludes.h</text>
</a>
</g>
<!-- Node1&#45;&gt;Node33 -->
<g id="edge158" class="edge"><title>Node1&#45;&gt;Node33</title>
<path fill="none" stroke="midnightblue" d="M1670,-512.724C1670,-475.389 1670,-397.039 1670,-369.135"/>
<polygon fill="midnightblue" stroke="midnightblue" points="1666.5,-512.893 1670,-522.893 1673.5,-512.893 1666.5,-512.893"/>
</g>
<!-- Node3 -->
<g id="node5" class="node"><title>Node3</title>
<a xlink:href="asynchronousworkunit_8h.html" target="_top" xlink:title="Contains an interface for a kind of WorkUnit that loads or does other work even when the frame schedu...">
<polygon fill="white" stroke="black" points="566.5,-117 566.5,-137 685.5,-137 685.5,-117 566.5,-117"/>
<text text-anchor="middle" x="626" y="-124" font-family="FreeSans" font-size="10.00">asynchronousworkunit.h</text>
</a>
</g>
<!-- Node2&#45;&gt;Node3 -->
<g id="edge4" class="edge"><title>Node2&#45;&gt;Node3</title>
<path fill="none" stroke="midnightblue" d="M1012.05,-474.399C897.005,-472.323 584.152,-463.483 488,-428 405.26,-397.466 367.195,-390.502 327,-312 274.071,-208.629 464.948,-156.727 566.487,-136.885"/>
<polygon fill="midnightblue" stroke="midnightblue" points="1012.17,-477.902 1022.23,-474.575 1012.29,-470.903 1012.17,-477.902"/>
</g>
<!-- Node2&#45;&gt;Node6 -->
<g id="edge148" class="edge"><title>Node2&#45;&gt;Node6</title>
<path fill="none" stroke="midnightblue" d="M1097.87,-473.797C1215.91,-469.331 1537,-448.919 1537,-359 1537,-359 1537,-359 1537,-127 1537,-67.3947 1478.43,-77.2005 1422,-58 1358.09,-36.253 1164.56,-20.8197 1070.06,-14.3652"/>
<polygon fill="midnightblue" stroke="midnightblue" points="1097.62,-470.304 1087.75,-474.159 1097.87,-477.299 1097.62,-470.304"/>
</g>
<!-- Node8 -->
<g id="node16" class="node"><title>Node8</title>
<a xlink:href="doublebufferedresource_8h.html" target="_top" xlink:title="This file defines the template double buffered resources that can be attached to a thread...">
<polygon fill="white" stroke="black" points="778.5,-291 778.5,-311 901.5,-311 901.5,-291 778.5,-291"/>
<text text-anchor="middle" x="840" y="-298" font-family="FreeSans" font-size="10.00">doublebufferedresource.h</text>
</a>
</g>
<!-- Node2&#45;&gt;Node8 -->
<g id="edge16" class="edge"><title>Node2&#45;&gt;Node8</title>
<path fill="none" stroke="midnightblue" d="M1053.66,-454.789C1051.74,-439.909 1047.12,-419.927 1036,-406 994.93,-354.568 921.625,-325.069 877.241,-311.102"/>
<polygon fill="midnightblue" stroke="midnightblue" points="1050.2,-455.377 1054.66,-464.988 1057.17,-454.694 1050.2,-455.377"/>
</g>
<!-- Node9 -->
<g id="node19" class="node"><title>Node9</title>
<a xlink:href="framescheduler_8h.html" target="_top" xlink:title="This file has the Declarations for the main FrameScheduler class.">
<polygon fill="white" stroke="black" points="481,-233 481,-253 571,-253 571,-233 481,-233"/>
<text text-anchor="middle" x="526" y="-240" font-family="FreeSans" font-size="10.00">framescheduler.h</text>
</a>
</g>
<!-- Node2&#45;&gt;Node9 -->
<g id="edge62" class="edge"><title>Node2&#45;&gt;Node9</title>
<path fill="none" stroke="midnightblue" d="M1012.1,-473.311C902.911,-468.648 620.775,-454.173 588,-428 531.62,-382.977 526.139,-284.804 525.888,-253.094"/>
<polygon fill="midnightblue" stroke="midnightblue" points="1012.28,-476.822 1022.42,-473.745 1012.57,-469.828 1012.28,-476.822"/>
</g>
<!-- Node10 -->
<g id="node21" class="node"><title>Node10</title>
<a xlink:href="workunit_8h.html" target="_top" xlink:title="This file has the definition of the workunit.">
<polygon fill="white" stroke="black" points="587,-175 587,-195 647,-195 647,-175 587,-175"/>
<text text-anchor="middle" x="617" y="-182" font-family="FreeSans" font-size="10.00">workunit.h</text>
</a>
</g>
<!-- Node2&#45;&gt;Node10 -->
<g id="edge60" class="edge"><title>Node2&#45;&gt;Node10</title>
<path fill="none" stroke="midnightblue" d="M1011.99,-468.488C947.605,-457.129 824.394,-429.038 737,-370 681.074,-332.22 671.657,-313.064 639,-254 628.292,-234.634 621.909,-209.283 618.966,-195.33"/>
<polygon fill="midnightblue" stroke="midnightblue" points="1011.73,-471.994 1022.18,-470.232 1012.92,-465.095 1011.73,-471.994"/>
</g>
<!-- Node11 -->
<g id="node24" class="node"><title>Node11</title>
<a xlink:href="frameschedulerworkunits_8h.html" target="_top" xlink:title="This defines a number of workunits that are required for doing some tasks that the Framescheduler req...">
<polygon fill="white" stroke="black" points="206.5,-117 206.5,-137 337.5,-137 337.5,-117 206.5,-117"/>
<text text-anchor="middle" x="272" y="-124" font-family="FreeSans" font-size="10.00">frameschedulerworkunits.h</text>
</a>
</g>
<!-- Node2&#45;&gt;Node11 -->
<g id="edge150" class="edge"><title>Node2&#45;&gt;Node11</title>
<path fill="none" stroke="midnightblue" d="M1012.1,-473.562C869.203,-468.6 410.135,-451.208 264,-428 144.226,-408.978 0,-480.275 0,-359 0,-359 0,-359 0,-301 0,-199.816 135.221,-154.815 214.98,-137.073"/>
<polygon fill="midnightblue" stroke="midnightblue" points="1012.11,-477.065 1022.23,-473.912 1012.35,-470.069 1012.11,-477.065"/>
</g>
<!-- Node14 -->
<g id="node31" class="node"><title>Node14</title>
<a xlink:href="monopoly_8h.html" target="_top" xlink:title="Contains an interface for a kind of WorkUnit that consumes time on multiple thread.">
<polygon fill="white" stroke="black" points="819.5,-117 819.5,-137 884.5,-137 884.5,-117 819.5,-117"/>
<text text-anchor="middle" x="852" y="-124" font-family="FreeSans" font-size="10.00">monopoly.h</text>
</a>
</g>
<!-- Node2&#45;&gt;Node14 -->
<g id="edge154" class="edge"><title>Node2&#45;&gt;Node14</title>
<path fill="none" stroke="midnightblue" d="M1058.23,-454.821C1059.71,-440.782 1060.15,-421.82 1055,-406 1015.34,-284.097 900.133,-171.038 863.397,-137.221"/>
<polygon fill="midnightblue" stroke="midnightblue" points="1054.74,-454.499 1056.91,-464.87 1061.68,-455.412 1054.74,-454.499"/>
</g>
<!-- Node17 -->
<g id="node49" class="node"><title>Node17</title>
<a xlink:href="systemcalls_8h.html" target="_top" xlink:title="This file defines a minimalistic cross&#45;platform thread that the scheduler uses to schedule tasks...">
<polygon fill="white" stroke="black" points="1272,-349 1272,-369 1346,-369 1346,-349 1272,-349"/>
<text text-anchor="middle" x="1309" y="-356" font-family="FreeSans" font-size="10.00">systemcalls.h</text>
</a>
</g>
<!-- Node2&#45;&gt;Node17 -->
<g id="edge64" class="edge"><title>Node2&#45;&gt;Node17</title>
<path fill="none" stroke="midnightblue" d="M1086.51,-460.608C1138.64,-436.804 1241.53,-389.811 1286.77,-369.151"/>
<polygon fill="midnightblue" stroke="midnightblue" points="1084.74,-457.571 1077.1,-464.909 1087.65,-463.938 1084.74,-457.571"/>
</g>
<!-- Node20 -->
<g id="node59" class="node"><title>Node20</title>
<a xlink:href="logtools_8h.html" target="_top" xlink:title="The definitions of the logging tools.">
<polygon fill="white" stroke="black" points="1374.5,-291 1374.5,-311 1431.5,-311 1431.5,-291 1374.5,-291"/>
<text text-anchor="middle" x="1403" y="-298" font-family="FreeSans" font-size="10.00">logtools.h</text>
</a>
</g>
<!-- Node2&#45;&gt;Node20 -->
<g id="edge152" class="edge"><title>Node2&#45;&gt;Node20</title>
<path fill="none" stroke="midnightblue" d="M1097.73,-468.774C1159.86,-457.925 1276.28,-430.642 1355,-370 1375.81,-353.97 1391.09,-326.37 1398.32,-311.395"/>
<polygon fill="midnightblue" stroke="midnightblue" points="1096.79,-465.383 1087.51,-470.495 1097.96,-472.285 1096.79,-465.383"/>
</g>
<!-- Node22 -->
<g id="node65" class="node"><title>Node22</title>
<a xlink:href="systemcalls_8cpp.html" target="_top" xlink:title="This file defines some platform specifc functions.">
<polygon fill="white" stroke="black" points="1565,-291 1565,-311 1649,-311 1649,-291 1565,-291"/>
<text text-anchor="middle" x="1607" y="-298" font-family="FreeSans" font-size="10.00">systemcalls.cpp</text>
</a>
</g>
<!-- Node2&#45;&gt;Node22 -->
<g id="edge156" class="edge"><title>Node2&#45;&gt;Node22</title>
<path fill="none" stroke="midnightblue" d="M1097.71,-473.407C1211.28,-468.829 1514.61,-454.256 1551,-428 1590.87,-399.238 1602.76,-335.669 1605.94,-311.031"/>
<polygon fill="midnightblue" stroke="midnightblue" points="1097.49,-469.912 1087.64,-473.806 1097.77,-476.907 1097.49,-469.912"/>
</g>
<!-- Node23 -->
<g id="node68" class="node"><title>Node23</title>
<a xlink:href="atomicoperations_8h.html" target="_top" xlink:title="Simple thread safe ways to check and change a specified variable atomically.">
<polygon fill="white" stroke="black" points="929,-407 929,-427 1027,-427 1027,-407 929,-407"/>
<text text-anchor="middle" x="978" y="-414" font-family="FreeSans" font-size="10.00">atomicoperations.h</text>
</a>
</g>
<!-- Node2&#45;&gt;Node23 -->
<g id="edge90" class="edge"><title>Node2&#45;&gt;Node23</title>
<path fill="none" stroke="midnightblue" d="M1033.34,-458.687C1019.91,-448.569 1003.07,-435.885 991.517,-427.182"/>
<polygon fill="midnightblue" stroke="midnightblue" points="1031.49,-461.676 1041.59,-464.897 1035.71,-456.085 1031.49,-461.676"/>
</g>
<!-- Node26 -->
<g id="node77" class="node"><title>Node26</title>
<a xlink:href="barrier_8h.html" target="_top" xlink:title="The declaration of the Mezzanine::Threading::Barrier Barrier synchronization primitive.">
<polygon fill="white" stroke="black" points="447.5,-349 447.5,-369 498.5,-369 498.5,-349 447.5,-349"/>
<text text-anchor="middle" x="473" y="-356" font-family="FreeSans" font-size="10.00">barrier.h</text>
</a>
</g>
<!-- Node2&#45;&gt;Node26 -->
<g id="edge138" class="edge"><title>Node2&#45;&gt;Node26</title>
<path fill="none" stroke="midnightblue" d="M1012.13,-473.573C891.248,-469.232 553.716,-454.818 512,-428 490.702,-414.309 479.873,-384.653 475.466,-369.055"/>
<polygon fill="midnightblue" stroke="midnightblue" points="1012.02,-477.071 1022.14,-473.927 1012.27,-470.075 1012.02,-477.071"/>
</g>
<!-- Node28 -->
<g id="node87" class="node"><title>Node28</title>
<a xlink:href="workunitkey_8h.html" target="_top" xlink:title="This file defines the metadata used to sort workunits.">
<polygon fill="white" stroke="black" points="176.5,-291 176.5,-311 251.5,-311 251.5,-291 176.5,-291"/>
<text text-anchor="middle" x="214" y="-298" font-family="FreeSans" font-size="10.00">workunitkey.h</text>
</a>
</g>
<!-- Node2&#45;&gt;Node28 -->
<g id="edge118" class="edge"><title>Node2&#45;&gt;Node28</title>
<path fill="none" stroke="midnightblue" d="M1011.78,-474.611C859.806,-472.932 355.782,-464.63 294,-428 248.274,-400.889 224.623,-336.34 216.901,-311.235"/>
<polygon fill="midnightblue" stroke="midnightblue" points="1012.07,-478.114 1022.11,-474.721 1012.14,-471.114 1012.07,-478.114"/>
</g>
<!-- Node30 -->
<g id="node95" class="node"><title>Node30</title>
<a xlink:href="rollingaverage_8h.html" target="_top" xlink:title="This stores the implementation and the declaration of the RollingAverage, BufferedRollingAverage, WeightedRollingAverage and the DefaultRollingAverage.">
<polygon fill="white" stroke="black" points="415.5,-291 415.5,-311 498.5,-311 498.5,-291 415.5,-291"/>
<text text-anchor="middle" x="457" y="-298" font-family="FreeSans" font-size="10.00">rollingaverage.h</text>
</a>
</g>
<!-- Node2&#45;&gt;Node30 -->
<g id="edge130" class="edge"><title>Node2&#45;&gt;Node30</title>
<path fill="none" stroke="midnightblue" d="M1012.03,-473.314C896.99,-468.477 588.125,-453.263 550,-428 516.351,-405.703 531.582,-380.018 507,-348 496.118,-333.825 480.822,-320.125 470.021,-311.21"/>
<polygon fill="midnightblue" stroke="midnightblue" points="1012.09,-476.819 1022.22,-473.736 1012.38,-469.825 1012.09,-476.819"/>
</g>
<!-- Node31 -->
<g id="node101" class="node"><title>Node31</title>
<a xlink:href="threadingenumerations_8h.html" target="_top" xlink:title="Any enumerations the threading library requires are all declared here.">
<polygon fill="white" stroke="black" points="1083,-233 1083,-253 1205,-253 1205,-233 1083,-233"/>
<text text-anchor="middle" x="1144" y="-240" font-family="FreeSans" font-size="10.00">threadingenumerations.h</text>
</a>
</g>
<!-- Node2&#45;&gt;Node31 -->
<g id="edge140" class="edge"><title>Node2&#45;&gt;Node31</title>
<path fill="none" stroke="midnightblue" d="M1078.91,-458.807C1089.07,-450.713 1100.14,-440.069 1107,-428 1140.81,-368.478 1144.08,-282.838 1144.14,-253.399"/>
<polygon fill="midnightblue" stroke="midnightblue" points="1076.58,-456.175 1070.69,-464.981 1080.79,-461.771 1076.58,-456.175"/>
</g>
<!-- Node32 -->
<g id="node105" class="node"><title>Node32</title>
<a xlink:href="atomicoperations_8cpp.html" target="_top" xlink:title="The implementation of simple thread safe ways to check and change a specified variable atomically...">
<polygon fill="white" stroke="black" points="1705,-291 1705,-311 1813,-311 1813,-291 1705,-291"/>
<text text-anchor="middle" x="1759" y="-298" font-family="FreeSans" font-size="10.00">atomicoperations.cpp</text>
</a>
</g>
<!-- Node2&#45;&gt;Node32 -->
<g id="edge146" class="edge"><title>Node2&#45;&gt;Node32</title>
<path fill="none" stroke="midnightblue" d="M1098,-472.522C1205.6,-466.095 1484.3,-447.994 1575,-428 1649.68,-411.537 1683.88,-425.018 1737,-370 1752.72,-353.718 1757.21,-326.22 1758.49,-311.328"/>
<polygon fill="midnightblue" stroke="midnightblue" points="1097.61,-469.039 1087.84,-473.125 1098.03,-476.026 1097.61,-469.039"/>
</g>
<!-- Node4 -->
<g id="node7" class="node"><title>Node4</title>
<a xlink:href="asynchronousfileloadingworkunit_8h.html" target="_top" xlink:title="The declaration of the AsynchronousFileLoadWorkUnit a workunit that loads a listing of files asynchro...">
<polygon fill="white" stroke="black" points="375.5,-59 375.5,-79 536.5,-79 536.5,-59 375.5,-59"/>
<text text-anchor="middle" x="456" y="-66" font-family="FreeSans" font-size="10.00">asynchronousfileloadingworkunit.h</text>
</a>
</g>
<!-- Node3&#45;&gt;Node4 -->
<g id="edge6" class="edge"><title>Node3&#45;&gt;Node4</title>
<path fill="none" stroke="midnightblue" d="M586.806,-113.628C555.949,-103.1 513.608,-88.6545 485.557,-79.0842"/>
<polygon fill="midnightblue" stroke="midnightblue" points="585.794,-116.981 596.388,-116.897 588.054,-110.356 585.794,-116.981"/>
</g>
<!-- Node3&#45;&gt;Node6 -->
<g id="edge14" class="edge"><title>Node3&#45;&gt;Node6</title>
<path fill="none" stroke="midnightblue" d="M658.821,-112.993C679.247,-104.038 705.93,-91.9065 729,-80 746.342,-71.05 748.704,-64.789 767,-58 832.419,-33.7254 912.317,-21.5115 963.901,-15.7176"/>
<polygon fill="midnightblue" stroke="midnightblue" points="657.398,-109.795 649.626,-116.995 660.192,-116.214 657.398,-109.795"/>
</g>
<!-- Node7 -->
<g id="node13" class="node"><title>Node7</title>
<a xlink:href="asynchronousworkunit_8cpp.html" target="_top" xlink:title="Contains very little actually.">
<polygon fill="white" stroke="black" points="591.5,-59 591.5,-79 720.5,-79 720.5,-59 591.5,-59"/>
<text text-anchor="middle" x="656" y="-66" font-family="FreeSans" font-size="10.00">asynchronousworkunit.cpp</text>
</a>
</g>
<!-- Node3&#45;&gt;Node7 -->
<g id="edge12" class="edge"><title>Node3&#45;&gt;Node7</title>
<path fill="none" stroke="midnightblue" d="M635.935,-107.793C640.837,-98.3154 646.557,-87.2571 650.632,-79.3776"/>
<polygon fill="midnightblue" stroke="midnightblue" points="632.711,-106.407 631.226,-116.897 638.929,-109.623 632.711,-106.407"/>
</g>
<!-- Node5 -->
<g id="node9" class="node"><title>Node5</title>
<a xlink:href="asynchronousfileloadingworkunit_8cpp.html" target="_top" xlink:title="The implementation of the AsynchronousFileLoadWorkUnit a workunit that loads a listing of files async...">
<polygon fill="white" stroke="black" points="142,-1 142,-21 314,-21 314,-1 142,-1"/>
<text text-anchor="middle" x="228" y="-8" font-family="FreeSans" font-size="10.00">asynchronousfileloadingworkunit.cpp</text>
</a>
</g>
<!-- Node4&#45;&gt;Node5 -->
<g id="edge8" class="edge"><title>Node4&#45;&gt;Node5</title>
<path fill="none" stroke="midnightblue" d="M406.599,-56.4331C364.882,-45.8209 305.938,-30.8263 267.353,-21.0108"/>
<polygon fill="midnightblue" stroke="midnightblue" points="405.991,-59.8899 416.546,-58.9634 407.717,-53.106 405.991,-59.8899"/>
</g>
<!-- Node4&#45;&gt;Node6 -->
<g id="edge10" class="edge"><title>Node4&#45;&gt;Node6</title>
<path fill="none" stroke="midnightblue" d="M546.734,-58.357C547.829,-58.2368 548.918,-58.1178 550,-58 699.864,-41.6911 877.01,-24.4087 963.743,-16.0769"/>
<polygon fill="midnightblue" stroke="midnightblue" points="546.303,-54.8832 536.75,-59.465 547.075,-61.8405 546.303,-54.8832"/>
</g>
<!-- Node8&#45;&gt;Node3 -->
<g id="edge18" class="edge"><title>Node8&#45;&gt;Node3</title>
<path fill="none" stroke="midnightblue" d="M816.35,-284.952C803.788,-276.168 788.249,-264.882 775,-254 734.661,-220.865 729.091,-207.434 689,-174 672.861,-160.541 653.341,-146.266 640.348,-137.028"/>
<polygon fill="midnightblue" stroke="midnightblue" points="814.681,-288.054 824.896,-290.865 818.664,-282.297 814.681,-288.054"/>
</g>
<!-- Node8&#45;&gt;Node6 -->
<g id="edge50" class="edge"><title>Node8&#45;&gt;Node6</title>
<path fill="none" stroke="midnightblue" d="M850.714,-281.55C858.433,-267.659 869.178,-248.575 879,-232 909.935,-179.799 909.588,-160.351 951,-116 969.688,-95.9854 985.826,-102.794 1001,-80 1013.13,-61.7792 1016.13,-35.538 1016.83,-21.2388"/>
<polygon fill="midnightblue" stroke="midnightblue" points="847.465,-280.193 845.684,-290.637 853.589,-283.583 847.465,-280.193"/>
</g>
<!-- Node8&#45;&gt;Node9 -->
<g id="edge20" class="edge"><title>Node8&#45;&gt;Node9</title>
<path fill="none" stroke="midnightblue" d="M775.762,-289.134C714.789,-277.872 624.711,-261.233 571.034,-251.318"/>
<polygon fill="midnightblue" stroke="midnightblue" points="775.194,-292.589 785.664,-290.963 776.466,-285.705 775.194,-292.589"/>
</g>
<!-- Node12 -->
<g id="node27" class="node"><title>Node12</title>
<a xlink:href="framescheduler_8cpp.html" target="_top" xlink:title="This is the core object implementation for this algorithm.">
<polygon fill="white" stroke="black" points="775.5,-59 775.5,-79 876.5,-79 876.5,-59 775.5,-59"/>
<text text-anchor="middle" x="826" y="-66" font-family="FreeSans" font-size="10.00">framescheduler.cpp</text>
</a>
</g>
<!-- Node8&#45;&gt;Node12 -->
<g id="edge54" class="edge"><title>Node8&#45;&gt;Node12</title>
<path fill="none" stroke="midnightblue" d="M832.902,-281.39C821.578,-247.617 801.612,-176.291 811,-116 813.029,-102.967 818.045,-88.6058 821.72,-79.2311"/>
<polygon fill="midnightblue" stroke="midnightblue" points="829.642,-282.674 836.226,-290.974 836.256,-280.379 829.642,-282.674"/>
</g>
<!-- Node13 -->
<g id="node29" class="node"><title>Node13</title>
<a xlink:href="frameschedulerworkunits_8cpp.html" target="_top" xlink:title="The implementation of any workunits the framescheduler needs to work correctly.">
<polygon fill="white" stroke="black" points="217.5,-59 217.5,-79 358.5,-79 358.5,-59 217.5,-59"/>
<text text-anchor="middle" x="288" y="-66" font-family="FreeSans" font-size="10.00">frameschedulerworkunits.cpp</text>
</a>
</g>
<!-- Node8&#45;&gt;Node13 -->
<g id="edge56" class="edge"><title>Node8&#45;&gt;Node13</title>
<path fill="none" stroke="midnightblue" d="M806.264,-286.755C787.806,-278.325 764.913,-266.805 746,-254 701.683,-223.996 702.908,-199.766 656,-174 626.666,-157.887 415.519,-102.088 326.946,-79.0595"/>
<polygon fill="midnightblue" stroke="midnightblue" points="804.91,-289.983 815.467,-290.872 807.768,-283.594 804.91,-289.983"/>
</g>
<!-- Node8&#45;&gt;Node14 -->
<g id="edge52" class="edge"><title>Node8&#45;&gt;Node14</title>
<path fill="none" stroke="midnightblue" d="M841.398,-280.724C843.973,-243.389 849.377,-165.039 851.301,-137.135"/>
<polygon fill="midnightblue" stroke="midnightblue" points="837.893,-280.676 840.697,-290.893 844.877,-281.157 837.893,-280.676"/>
</g>
<!-- Node16 -->
<g id="node38" class="node"><title>Node16</title>
<a xlink:href="workunit_8cpp.html" target="_top" xlink:title="This file has the implementation of the Mezzanine::Threading::DefaultWorkUnit.">
<polygon fill="white" stroke="black" points="959.5,-117 959.5,-137 1030.5,-137 1030.5,-117 959.5,-117"/>
<text text-anchor="middle" x="995" y="-124" font-family="FreeSans" font-size="10.00">workunit.cpp</text>
</a>
</g>
<!-- Node8&#45;&gt;Node16 -->
<g id="edge58" class="edge"><title>Node8&#45;&gt;Node16</title>
<path fill="none" stroke="midnightblue" d="M855.963,-283.08C888.29,-246.79 960.579,-165.64 985.972,-137.135"/>
<polygon fill="midnightblue" stroke="midnightblue" points="853.042,-281.098 849.003,-290.893 858.269,-285.754 853.042,-281.098"/>
</g>
<!-- Node9&#45;&gt;Node6 -->
<g id="edge46" class="edge"><title>Node9&#45;&gt;Node6</title>
<path fill="none" stroke="midnightblue" d="M470.813,-233.367C386.125,-217.334 230.475,-182.495 198,-138 188.277,-124.678 177.355,-81.1723 200,-58 226.734,-30.6446 786.757,-16.0512 963.826,-12.1085"/>
<polygon fill="midnightblue" stroke="midnightblue" points="470.303,-236.832 480.775,-235.228 471.588,-229.951 470.303,-236.832"/>
</g>
<!-- Node9&#45;&gt;Node10 -->
<g id="edge22" class="edge"><title>Node9&#45;&gt;Node10</title>
<path fill="none" stroke="midnightblue" d="M550.693,-227.262C566.709,-217.054 587.11,-204.051 601.025,-195.182"/>
<polygon fill="midnightblue" stroke="midnightblue" points="548.403,-224.571 541.851,-232.897 552.165,-230.474 548.403,-224.571"/>
</g>
<!-- Node9&#45;&gt;Node12 -->
<g id="edge48" class="edge"><title>Node9&#45;&gt;Node12</title>
<path fill="none" stroke="midnightblue" d="M535.768,-224.188C544.766,-208.614 559.508,-187.006 578,-174 622.154,-142.945 644.099,-158.588 694,-138 699.767,-135.621 771.864,-97.6111 807,-79.0473"/>
<polygon fill="midnightblue" stroke="midnightblue" points="532.687,-222.526 530.925,-232.974 538.818,-225.905 532.687,-222.526"/>
</g>
<!-- Node10&#45;&gt;Node3 -->
<g id="edge24" class="edge"><title>Node10&#45;&gt;Node3</title>
<path fill="none" stroke="midnightblue" d="M620.12,-164.89C621.559,-155.62 623.206,-145.008 624.39,-137.378"/>
<polygon fill="midnightblue" stroke="midnightblue" points="616.643,-164.479 618.568,-174.897 623.56,-165.552 616.643,-164.479"/>
</g>
<!-- Node10&#45;&gt;Node6 -->
<g id="edge42" class="edge"><title>Node10&#45;&gt;Node6</title>
<path fill="none" stroke="midnightblue" d="M587.906,-169.567C576.362,-161.778 564.343,-151.162 558,-138 544.882,-110.779 582.544,-58.3365 583,-58 613.069,-35.8057 854.459,-19.9101 963.67,-13.7832"/>
<polygon fill="midnightblue" stroke="midnightblue" points="586.205,-172.632 596.539,-174.969 589.918,-166.697 586.205,-172.632"/>
</g>
<!-- Node10&#45;&gt;Node11 -->
<g id="edge26" class="edge"><title>Node10&#45;&gt;Node11</title>
<path fill="none" stroke="midnightblue" d="M577.082,-178.289C516.749,-168.146 401.933,-148.844 331.652,-137.028"/>
<polygon fill="midnightblue" stroke="midnightblue" points="576.545,-181.748 586.987,-179.954 577.706,-174.845 576.545,-181.748"/>
</g>
<!-- Node10&#45;&gt;Node14 -->
<g id="edge34" class="edge"><title>Node10&#45;&gt;Node14</title>
<path fill="none" stroke="midnightblue" d="M657.111,-175.1C702.86,-163.809 776.795,-145.561 819.233,-135.087"/>
<polygon fill="midnightblue" stroke="midnightblue" points="656.111,-171.742 647.241,-177.536 657.788,-178.538 656.111,-171.742"/>
</g>
<!-- Node10&#45;&gt;Node16 -->
<g id="edge44" class="edge"><title>Node10&#45;&gt;Node16</title>
<path fill="none" stroke="midnightblue" d="M657.196,-178.832C731.402,-167.446 888.765,-143.301 959.388,-132.464"/>
<polygon fill="midnightblue" stroke="midnightblue" points="656.648,-175.375 647.294,-180.352 657.71,-182.294 656.648,-175.375"/>
</g>
<!-- Node11&#45;&gt;Node6 -->
<g id="edge28" class="edge"><title>Node11&#45;&gt;Node6</title>
<path fill="none" stroke="midnightblue" d="M242.342,-111.842C218.541,-97.7736 191.726,-76.3084 209,-58 234.931,-30.5169 787.856,-16.0342 963.764,-12.1101"/>
<polygon fill="midnightblue" stroke="midnightblue" points="240.79,-114.984 251.219,-116.849 244.229,-108.887 240.79,-114.984"/>
</g>
<!-- Node11&#45;&gt;Node12 -->
<g id="edge30" class="edge"><title>Node11&#45;&gt;Node12</title>
<path fill="none" stroke="midnightblue" d="M348.056,-119.423C438.774,-110.329 594.999,-94.4883 729,-80 744.081,-78.3695 760.473,-76.5345 775.416,-74.8374"/>
<polygon fill="midnightblue" stroke="midnightblue" points="347.465,-115.965 337.864,-120.444 348.163,-122.93 347.465,-115.965"/>
</g>
<!-- Node11&#45;&gt;Node13 -->
<g id="edge32" class="edge"><title>Node11&#45;&gt;Node13</title>
<path fill="none" stroke="midnightblue" d="M277.464,-107.192C280.041,-97.8512 283.009,-87.0912 285.137,-79.3776"/>
<polygon fill="midnightblue" stroke="midnightblue" points="274.072,-106.326 274.787,-116.897 280.82,-108.188 274.072,-106.326"/>
</g>
<!-- Node14&#45;&gt;Node6 -->
<g id="edge36" class="edge"><title>Node14&#45;&gt;Node6</title>
<path fill="none" stroke="midnightblue" d="M894.572,-119.208C921.281,-112.531 955.068,-100.609 979,-80 997.653,-63.9371 1008.86,-36.3501 1013.87,-21.386"/>
<polygon fill="midnightblue" stroke="midnightblue" points="893.655,-115.828 884.717,-121.517 895.252,-122.643 893.655,-115.828"/>
</g>
<!-- Node14&#45;&gt;Node12 -->
<g id="edge38" class="edge"><title>Node14&#45;&gt;Node12</title>
<path fill="none" stroke="midnightblue" d="M843.255,-107.493C839.037,-98.0829 834.147,-87.1742 830.652,-79.3776"/>
<polygon fill="midnightblue" stroke="midnightblue" points="840.187,-109.204 847.471,-116.897 846.574,-106.34 840.187,-109.204"/>
</g>
<!-- Node15 -->
<g id="node35" class="node"><title>Node15</title>
<a xlink:href="monopoly_8cpp.html" target="_top" xlink:title="Contains the minimal implementation for the monopoly base class.">
<polygon fill="white" stroke="black" points="894,-59 894,-79 970,-79 970,-59 894,-59"/>
<text text-anchor="middle" x="932" y="-66" font-family="FreeSans" font-size="10.00">monopoly.cpp</text>
</a>
</g>
<!-- Node14&#45;&gt;Node15 -->
<g id="edge40" class="edge"><title>Node14&#45;&gt;Node15</title>
<path fill="none" stroke="midnightblue" d="M874.104,-110.975C888.123,-100.811 905.837,-87.9681 917.956,-79.1817"/>
<polygon fill="midnightblue" stroke="midnightblue" points="871.977,-108.194 865.935,-116.897 876.085,-113.861 871.977,-108.194"/>
</g>
<!-- Node17&#45;&gt;Node6 -->
<g id="edge84" class="edge"><title>Node17&#45;&gt;Node6</title>
<path fill="none" stroke="midnightblue" d="M1319.51,-339.668C1330.76,-317.141 1347,-278.468 1347,-243 1347,-243 1347,-243 1347,-127 1347,-80.382 1309.95,-78.341 1268,-58 1233.84,-41.4364 1133.07,-26.0012 1070.08,-17.5967"/>
<polygon fill="midnightblue" stroke="midnightblue" points="1316.27,-338.324 1314.77,-348.813 1322.48,-341.545 1316.27,-338.324"/>
</g>
<!-- Node17&#45;&gt;Node9 -->
<g id="edge76" class="edge"><title>Node17&#45;&gt;Node9</title>
<path fill="none" stroke="midnightblue" d="M1261.81,-351.275C1253.56,-350.071 1245.04,-348.923 1237,-348 1030.19,-324.264 974.946,-348.503 770,-312 690.471,-297.835 599.587,-268.525 554.489,-253.059"/>
<polygon fill="midnightblue" stroke="midnightblue" points="1261.29,-354.736 1271.7,-352.76 1262.33,-347.814 1261.29,-354.736"/>
</g>
<!-- Node17&#45;&gt;Node16 -->
<g id="edge88" class="edge"><title>Node17&#45;&gt;Node16</title>
<path fill="none" stroke="midnightblue" d="M1306.92,-338.789C1304.63,-324.21 1299.86,-304.607 1290,-290 1227.55,-197.493 1094.38,-152.345 1030.55,-135.341"/>
<polygon fill="midnightblue" stroke="midnightblue" points="1303.46,-339.332 1308.23,-348.792 1310.4,-338.421 1303.46,-339.332"/>
</g>
<!-- Node18 -->
<g id="node51" class="node"><title>Node18</title>
<a xlink:href="thread_8h.html" target="_top" xlink:title="This file defines a minimalistic cross&#45;platform thread that the scheduler uses to schedule tasks...">
<polygon fill="white" stroke="black" points="1230.5,-291 1230.5,-311 1281.5,-311 1281.5,-291 1230.5,-291"/>
<text text-anchor="middle" x="1256" y="-298" font-family="FreeSans" font-size="10.00">thread.h</text>
</a>
</g>
<!-- Node17&#45;&gt;Node18 -->
<g id="edge66" class="edge"><title>Node17&#45;&gt;Node18</title>
<path fill="none" stroke="midnightblue" d="M1292.8,-341.275C1283.86,-331.488 1273.06,-319.672 1265.48,-311.378"/>
<polygon fill="midnightblue" stroke="midnightblue" points="1290.44,-343.876 1299.77,-348.897 1295.61,-339.154 1290.44,-343.876"/>
</g>
<!-- Node17&#45;&gt;Node20 -->
<g id="edge78" class="edge"><title>Node17&#45;&gt;Node20</title>
<path fill="none" stroke="midnightblue" d="M1334.04,-343.547C1350.66,-333.297 1371.99,-320.134 1386.5,-311.182"/>
<polygon fill="midnightblue" stroke="midnightblue" points="1332.05,-340.667 1325.37,-348.897 1335.72,-346.625 1332.05,-340.667"/>
</g>
<!-- Node17&#45;&gt;Node22 -->
<g id="edge86" class="edge"><title>Node17&#45;&gt;Node22</title>
<path fill="none" stroke="midnightblue" d="M1356.03,-349.846C1413.37,-338.687 1509.41,-319.993 1564.58,-309.257"/>
<polygon fill="midnightblue" stroke="midnightblue" points="1355.29,-346.425 1346.14,-351.772 1356.62,-353.297 1355.29,-346.425"/>
</g>
<!-- Node18&#45;&gt;Node6 -->
<g id="edge72" class="edge"><title>Node18&#45;&gt;Node6</title>
<path fill="none" stroke="midnightblue" d="M1262.54,-281.088C1276.14,-235.54 1301.85,-122.708 1247,-58 1224.63,-31.6127 1130.8,-19.5544 1070.11,-14.4244"/>
<polygon fill="midnightblue" stroke="midnightblue" points="1259.11,-280.329 1259.48,-290.918 1265.8,-282.413 1259.11,-280.329"/>
</g>
<!-- Node18&#45;&gt;Node9 -->
<g id="edge68" class="edge"><title>Node18&#45;&gt;Node9</title>
<path fill="none" stroke="midnightblue" d="M1220.26,-298.16C1099.32,-288.551 705.538,-257.265 571.305,-246.6"/>
<polygon fill="midnightblue" stroke="midnightblue" points="1220.2,-301.667 1230.45,-298.97 1220.76,-294.689 1220.2,-301.667"/>
</g>
<!-- Node18&#45;&gt;Node10 -->
<g id="edge70" class="edge"><title>Node18&#45;&gt;Node10</title>
<path fill="none" stroke="midnightblue" d="M1220.19,-294.5C1106.17,-273.801 752.855,-209.662 647.165,-190.476"/>
<polygon fill="midnightblue" stroke="midnightblue" points="1219.69,-297.966 1230.16,-296.309 1220.95,-291.079 1219.69,-297.966"/>
</g>
<!-- Node19 -->
<g id="node56" class="node"><title>Node19</title>
<a xlink:href="thread_8cpp.html" target="_top" xlink:title="This file implements a minimalistic cross&#45;platform thread that the scheduler uses to schedule tasks...">
<polygon fill="white" stroke="black" points="1605,-233 1605,-253 1667,-253 1667,-233 1605,-233"/>
<text text-anchor="middle" x="1636" y="-240" font-family="FreeSans" font-size="10.00">thread.cpp</text>
</a>
</g>
<!-- Node18&#45;&gt;Node19 -->
<g id="edge74" class="edge"><title>Node18&#45;&gt;Node19</title>
<path fill="none" stroke="midnightblue" d="M1291.74,-295.545C1365.79,-284.242 1534.93,-258.427 1604.86,-247.754"/>
<polygon fill="midnightblue" stroke="midnightblue" points="1290.88,-292.136 1281.52,-297.104 1291.94,-299.055 1290.88,-292.136"/>
</g>
<!-- Node20&#45;&gt;Node6 -->
<g id="edge80" class="edge"><title>Node20&#45;&gt;Node6</title>
<path fill="none" stroke="midnightblue" d="M1425.04,-284.416C1434.56,-276.213 1445.09,-265.591 1452,-254 1468.28,-226.677 1471,-216.808 1471,-185 1471,-185 1471,-185 1471,-127 1471,-45.14 1190.43,-20.2971 1070.41,-13.4152"/>
<polygon fill="midnightblue" stroke="midnightblue" points="1422.56,-281.922 1417.04,-290.965 1426.99,-287.339 1422.56,-281.922"/>
</g>
<!-- Node21 -->
<g id="node62" class="node"><title>Node21</title>
<a xlink:href="logtools_8cpp.html" target="_top" xlink:title="Tools that make logging specific data a little bit easier.">
<polygon fill="white" stroke="black" points="1375,-233 1375,-253 1443,-253 1443,-233 1375,-233"/>
<text text-anchor="middle" x="1409" y="-240" font-family="FreeSans" font-size="10.00">logtools.cpp</text>
</a>
</g>
<!-- Node20&#45;&gt;Node21 -->
<g id="edge82" class="edge"><title>Node20&#45;&gt;Node21</title>
<path fill="none" stroke="midnightblue" d="M1405.08,-280.89C1406.04,-271.62 1407.14,-261.008 1407.93,-253.378"/>
<polygon fill="midnightblue" stroke="midnightblue" points="1401.59,-280.59 1404.05,-290.897 1408.56,-281.31 1401.59,-280.59"/>
</g>
<!-- Node23&#45;&gt;Node5 -->
<g id="edge110" class="edge"><title>Node23&#45;&gt;Node5</title>
<path fill="none" stroke="midnightblue" d="M918.72,-413.205C732.734,-400.844 169.156,-359.775 103,-312 8.87808,-244.03 -35.4381,-144.5 42,-58 57.2177,-41.0015 109.417,-28.7363 154.657,-21.0065"/>
<polygon fill="midnightblue" stroke="midnightblue" points="918.648,-416.708 928.857,-413.875 919.11,-409.723 918.648,-416.708"/>
</g>
<!-- Node23&#45;&gt;Node6 -->
<g id="edge112" class="edge"><title>Node23&#45;&gt;Node6</title>
<path fill="none" stroke="midnightblue" d="M982.37,-396.859C985.358,-383.097 989.412,-364.444 993,-348 1015.41,-245.298 1049.84,-220.558 1039,-116 1035.33,-80.6158 1024.89,-39.5826 1019.83,-21.0266"/>
<polygon fill="midnightblue" stroke="midnightblue" points="978.932,-396.197 980.231,-406.712 985.773,-397.682 978.932,-396.197"/>
</g>
<!-- Node23&#45;&gt;Node12 -->
<g id="edge114" class="edge"><title>Node23&#45;&gt;Node12</title>
<path fill="none" stroke="midnightblue" d="M918.667,-412.037C851.408,-402.784 751,-376.352 751,-301 751,-301 751,-301 751,-185 751,-139.435 792.313,-97.6078 813.615,-79.0693"/>
<polygon fill="midnightblue" stroke="midnightblue" points="918.38,-415.529 928.744,-413.331 919.271,-408.586 918.38,-415.529"/>
</g>
<!-- Node23&#45;&gt;Node16 -->
<g id="edge116" class="edge"><title>Node23&#45;&gt;Node16</title>
<path fill="none" stroke="midnightblue" d="M985.756,-397.26C988.626,-388.978 991.535,-379.158 993,-370 1007.26,-280.849 999.076,-170.941 996.007,-137.277"/>
<polygon fill="midnightblue" stroke="midnightblue" points="982.428,-396.171 982.254,-406.765 988.996,-398.592 982.428,-396.171"/>
</g>
<!-- Node24 -->
<g id="node70" class="node"><title>Node24</title>
<a xlink:href="mutex_8h.html" target="_top" xlink:title="This file declares and defines a mutex that is a partial implementation.">
<polygon fill="white" stroke="black" points="1178,-349 1178,-369 1228,-369 1228,-349 1178,-349"/>
<text text-anchor="middle" x="1203" y="-356" font-family="FreeSans" font-size="10.00">mutex.h</text>
</a>
</g>
<!-- Node23&#45;&gt;Node24 -->
<g id="edge92" class="edge"><title>Node23&#45;&gt;Node24</title>
<path fill="none" stroke="midnightblue" d="M1026.79,-404.422C1073.26,-392.444 1141.35,-374.891 1177.79,-365.499"/>
<polygon fill="midnightblue" stroke="midnightblue" points="1025.74,-401.078 1016.94,-406.963 1027.49,-407.856 1025.74,-401.078"/>
</g>
<!-- Node23&#45;&gt;Node26 -->
<g id="edge102" class="edge"><title>Node23&#45;&gt;Node26</title>
<path fill="none" stroke="midnightblue" d="M918.694,-410.189C808.387,-397.52 575.862,-370.814 498.58,-361.938"/>
<polygon fill="midnightblue" stroke="midnightblue" points="918.325,-413.669 928.659,-411.333 919.124,-406.715 918.325,-413.669"/>
</g>
<!-- Node24&#45;&gt;Node6 -->
<g id="edge98" class="edge"><title>Node24&#45;&gt;Node6</title>
<path fill="none" stroke="midnightblue" d="M1208.75,-338.979C1217.46,-306.809 1233,-241.487 1233,-185 1233,-185 1233,-185 1233,-127 1233,-53.2552 1134.07,-26.197 1070.12,-16.4096"/>
<polygon fill="midnightblue" stroke="midnightblue" points="1205.29,-338.335 1205.99,-348.907 1212.04,-340.209 1205.29,-338.335"/>
</g>
<!-- Node24&#45;&gt;Node10 -->
<g id="edge96" class="edge"><title>Node24&#45;&gt;Node10</title>
<path fill="none" stroke="midnightblue" d="M1167.64,-356.895C1078.09,-351.287 844.221,-334.843 770,-312 717.552,-295.858 701.299,-291.247 661,-254 642.22,-236.642 628.096,-209.581 621.366,-195.044"/>
<polygon fill="midnightblue" stroke="midnightblue" points="1167.63,-360.4 1177.82,-357.524 1168.06,-353.414 1167.63,-360.4"/>
</g>
<!-- Node24&#45;&gt;Node18 -->
<g id="edge94" class="edge"><title>Node24&#45;&gt;Node18</title>
<path fill="none" stroke="midnightblue" d="M1219.2,-341.275C1228.14,-331.488 1238.94,-319.672 1246.52,-311.378"/>
<polygon fill="midnightblue" stroke="midnightblue" points="1216.39,-339.154 1212.23,-348.897 1221.56,-343.876 1216.39,-339.154"/>
</g>
<!-- Node25 -->
<g id="node75" class="node"><title>Node25</title>
<a xlink:href="mutex_8cpp.html" target="_top" xlink:title="Contains the implementation for the Mezzanine::Threading::Mutex Mutex synchronization object...">
<polygon fill="white" stroke="black" points="1448.5,-291 1448.5,-311 1509.5,-311 1509.5,-291 1448.5,-291"/>
<text text-anchor="middle" x="1479" y="-298" font-family="FreeSans" font-size="10.00">mutex.cpp</text>
</a>
</g>
<!-- Node24&#45;&gt;Node25 -->
<g id="edge100" class="edge"><title>Node24&#45;&gt;Node25</title>
<path fill="none" stroke="midnightblue" d="M1238.03,-352.407C1294.23,-341.769 1402.08,-321.093 1440,-312 1442.74,-311.344 1445.57,-310.624 1448.4,-309.877"/>
<polygon fill="midnightblue" stroke="midnightblue" points="1237.34,-348.975 1228.16,-354.272 1238.64,-355.854 1237.34,-348.975"/>
</g>
<!-- Node26&#45;&gt;Node6 -->
<g id="edge108" class="edge"><title>Node26&#45;&gt;Node6</title>
<path fill="none" stroke="midnightblue" d="M436.981,-355.665C367.157,-348.84 216.03,-332.205 168,-312 120.888,-292.181 76,-294.111 76,-243 76,-243 76,-243 76,-127 76,-75.8889 119.977,-75.4972 168,-58 242.466,-30.8684 789.437,-16.1826 963.774,-12.1543"/>
<polygon fill="midnightblue" stroke="midnightblue" points="436.777,-359.162 447.067,-356.638 437.449,-352.194 436.777,-359.162"/>
</g>
<!-- Node26&#45;&gt;Node9 -->
<g id="edge104" class="edge"><title>Node26&#45;&gt;Node9</title>
<path fill="none" stroke="midnightblue" d="M488.398,-340.95C494.898,-332.585 502.084,-322.243 507,-312 516.462,-292.285 521.894,-267.065 524.365,-253.228"/>
<polygon fill="midnightblue" stroke="midnightblue" points="485.563,-338.889 481.995,-348.865 491.006,-343.291 485.563,-338.889"/>
</g>
<!-- Node27 -->
<g id="node80" class="node"><title>Node27</title>
<a xlink:href="barrier_8cpp.html" target="_top" xlink:title="Contains the implementation for the Mezzanine::Threading::Barrier Barrier synchronization object...">
<polygon fill="white" stroke="black" points="336,-291 336,-311 398,-311 398,-291 336,-291"/>
<text text-anchor="middle" x="367" y="-298" font-family="FreeSans" font-size="10.00">barrier.cpp</text>
</a>
</g>
<!-- Node26&#45;&gt;Node27 -->
<g id="edge106" class="edge"><title>Node26&#45;&gt;Node27</title>
<path fill="none" stroke="midnightblue" d="M445.536,-343.973C426.695,-333.663 402.196,-320.258 385.608,-311.182"/>
<polygon fill="midnightblue" stroke="midnightblue" points="444.084,-347.167 454.536,-348.897 447.444,-341.027 444.084,-347.167"/>
</g>
<!-- Node28&#45;&gt;Node6 -->
<g id="edge126" class="edge"><title>Node28&#45;&gt;Node6</title>
<path fill="none" stroke="midnightblue" d="M177.89,-286.453C162.395,-278.726 145.11,-267.913 133,-254 72.1711,-184.115 -1.88328,-125.105 62,-58 93.2792,-25.1435 767.636,-14.128 963.877,-11.6119"/>
<polygon fill="midnightblue" stroke="midnightblue" points="176.707,-289.764 187.244,-290.866 179.693,-283.433 176.707,-289.764"/>
</g>
<!-- Node28&#45;&gt;Node9 -->
<g id="edge120" class="edge"><title>Node28&#45;&gt;Node9</title>
<path fill="none" stroke="midnightblue" d="M261.54,-292.162C321.126,-281.085 422.509,-262.239 480.918,-251.381"/>
<polygon fill="midnightblue" stroke="midnightblue" points="260.826,-288.735 251.634,-294.004 262.106,-295.617 260.826,-288.735"/>
</g>
<!-- Node28&#45;&gt;Node10 -->
<g id="edge122" class="edge"><title>Node28&#45;&gt;Node10</title>
<path fill="none" stroke="midnightblue" d="M258.676,-288.14C341.398,-264.329 516.389,-213.96 586.757,-193.705"/>
<polygon fill="midnightblue" stroke="midnightblue" points="257.7,-284.779 249.059,-290.909 259.637,-291.506 257.7,-284.779"/>
</g>
<!-- Node28&#45;&gt;Node11 -->
<g id="edge124" class="edge"><title>Node28&#45;&gt;Node11</title>
<path fill="none" stroke="midnightblue" d="M224.377,-281.851C228.657,-273.462 233.439,-263.404 237,-254 253.037,-211.651 265.204,-158.839 269.894,-137.082"/>
<polygon fill="midnightblue" stroke="midnightblue" points="221.232,-280.311 219.685,-290.793 227.43,-283.564 221.232,-280.311"/>
</g>
<!-- Node29 -->
<g id="node93" class="node"><title>Node29</title>
<a xlink:href="workunitkey_8cpp.html" target="_top" xlink:title="This file declares the functionality of the metadata used to sort the iWorkUnits.">
<polygon fill="white" stroke="black" points="142,-233 142,-253 228,-253 228,-233 142,-233"/>
<text text-anchor="middle" x="185" y="-240" font-family="FreeSans" font-size="10.00">workunitkey.cpp</text>
</a>
</g>
<!-- Node28&#45;&gt;Node29 -->
<g id="edge128" class="edge"><title>Node28&#45;&gt;Node29</title>
<path fill="none" stroke="midnightblue" d="M204.396,-281.793C199.658,-272.315 194.129,-261.257 190.189,-253.378"/>
<polygon fill="midnightblue" stroke="midnightblue" points="201.346,-283.518 208.949,-290.897 207.607,-280.388 201.346,-283.518"/>
</g>
<!-- Node30&#45;&gt;Node6 -->
<g id="edge136" class="edge"><title>Node30&#45;&gt;Node6</title>
<path fill="none" stroke="midnightblue" d="M418.958,-287.392C324.96,-251.876 95.6279,-152.563 185,-58 211.8,-29.6435 784.369,-15.7007 963.753,-12.0173"/>
<polygon fill="midnightblue" stroke="midnightblue" points="417.816,-290.702 428.409,-290.92 420.264,-284.144 417.816,-290.702"/>
</g>
<!-- Node30&#45;&gt;Node9 -->
<g id="edge132" class="edge"><title>Node30&#45;&gt;Node9</title>
<path fill="none" stroke="midnightblue" d="M476.701,-284.44C488.598,-274.439 503.392,-262.004 513.654,-253.378"/>
<polygon fill="midnightblue" stroke="midnightblue" points="474.422,-281.783 469.019,-290.897 478.926,-287.142 474.422,-281.783"/>
</g>
<!-- Node30&#45;&gt;Node10 -->
<g id="edge134" class="edge"><title>Node30&#45;&gt;Node10</title>
<path fill="none" stroke="midnightblue" d="M456.305,-280.272C456.913,-265.126 460.199,-245.036 472,-232 487.495,-214.883 549.238,-199.263 586.98,-191.053"/>
<polygon fill="midnightblue" stroke="midnightblue" points="452.804,-280.679 456.266,-290.692 459.804,-280.706 452.804,-280.679"/>
</g>
<!-- Node31&#45;&gt;Node6 -->
<g id="edge144" class="edge"><title>Node31&#45;&gt;Node6</title>
<path fill="none" stroke="midnightblue" d="M1142.31,-222.356C1138.41,-185.863 1125.97,-109.004 1088,-58 1075.73,-41.5188 1055.85,-29.0788 1040.25,-21.1505"/>
<polygon fill="midnightblue" stroke="midnightblue" points="1138.87,-223.08 1143.3,-232.702 1145.84,-222.415 1138.87,-223.08"/>
</g>
<!-- Node31&#45;&gt;Node10 -->
<g id="edge142" class="edge"><title>Node31&#45;&gt;Node10</title>
<path fill="none" stroke="midnightblue" d="M1072.51,-235.132C955.706,-222.277 728.804,-197.305 647.171,-188.321"/>
<polygon fill="midnightblue" stroke="midnightblue" points="1072.45,-238.647 1082.77,-236.262 1073.22,-231.689 1072.45,-238.647"/>
</g>
<!-- Node33&#45;&gt;Node19 -->
<g id="edge166" class="edge"><title>Node33&#45;&gt;Node19</title>
<path fill="none" stroke="midnightblue" d="M1667.95,-339.001C1666.17,-325.044 1663.07,-306.106 1658,-290 1653.83,-276.766 1646.72,-262.446 1641.71,-253.135"/>
<polygon fill="midnightblue" stroke="midnightblue" points="1664.47,-339.444 1669.1,-348.977 1671.43,-338.641 1664.47,-339.444"/>
</g>
<!-- Node33&#45;&gt;Node22 -->
<g id="edge164" class="edge"><title>Node33&#45;&gt;Node22</title>
<path fill="none" stroke="midnightblue" d="M1651.38,-341.86C1640.63,-331.962 1627.46,-319.838 1618.27,-311.378"/>
<polygon fill="midnightblue" stroke="midnightblue" points="1649.3,-344.699 1659.03,-348.897 1654.04,-339.549 1649.3,-344.699"/>
</g>
<!-- Node33&#45;&gt;Node25 -->
<g id="edge162" class="edge"><title>Node33&#45;&gt;Node25</title>
<path fill="none" stroke="midnightblue" d="M1627.07,-345.963C1591.38,-335.126 1541.46,-319.967 1509.68,-310.317"/>
<polygon fill="midnightblue" stroke="midnightblue" points="1626.14,-349.34 1636.73,-348.897 1628.18,-342.642 1626.14,-349.34"/>
</g>
<!-- Node33&#45;&gt;Node32 -->
<g id="edge160" class="edge"><title>Node33&#45;&gt;Node32</title>
<path fill="none" stroke="midnightblue" d="M1694.15,-343.262C1709.81,-333.054 1729.77,-320.051 1743.38,-311.182"/>
<polygon fill="midnightblue" stroke="midnightblue" points="1691.97,-340.505 1685.5,-348.897 1695.79,-346.37 1691.97,-340.505"/>
</g>
</g>
</svg>
