<?xml version="1.0" encoding="UTF-8" standalone="no"?>
<!DOCTYPE svg PUBLIC "-//W3C//DTD SVG 1.1//EN"
 "http://www.w3.org/Graphics/SVG/1.1/DTD/svg11.dtd">
<!-- Generated by graphviz version 2.26.3 (20100126.1600)
 -->
<!-- Title: crossplatformincludes.h Pages: 1 -->
<svg width="1108pt" height="436pt"
 viewBox="0.00 0.00 1108.00 436.00" xmlns="http://www.w3.org/2000/svg" xmlns:xlink="http://www.w3.org/1999/xlink">
<g id="graph1" class="graph" transform="scale(1 1) rotate(0) translate(4 432)">
<title>crossplatformincludes.h</title>
<polygon fill="white" stroke="white" points="-4,5 -4,-432 1105,-432 1105,5 -4,5"/>
<!-- Node1 -->
<g id="node1" class="node"><title>Node1</title>
<polygon fill="#bfbfbf" stroke="black" points="495.5,-407 495.5,-427 612.5,-427 612.5,-407 495.5,-407"/>
<text text-anchor="middle" x="554" y="-414" font-family="FreeSans" font-size="10.00">crossplatformincludes.h</text>
</g>
<!-- Node2 -->
<g id="node3" class="node"><title>Node2</title>
<a xlink:href="thread_8h.html" target="_top" xlink:title="This file defines a minimalistic cross&#45;platform thread that the scheduler uses to schedule tasks...">
<polygon fill="white" stroke="black" points="406.5,-291 406.5,-311 457.5,-311 457.5,-291 406.5,-291"/>
<text text-anchor="middle" x="432" y="-298" font-family="FreeSans" font-size="10.00">thread.h</text>
</a>
</g>
<!-- Node1&#45;&gt;Node2 -->
<g id="edge2" class="edge"><title>Node1&#45;&gt;Node2</title>
<path fill="none" stroke="midnightblue" d="M531.336,-400.722C519.77,-392.054 505.709,-380.944 494,-370 473.292,-350.645 451.753,-325.29 440.313,-311.333"/>
<polygon fill="midnightblue" stroke="midnightblue" points="529.489,-403.709 539.614,-406.832 533.646,-398.077 529.489,-403.709"/>
</g>
<!-- Node16 -->
<g id="node39" class="node"><title>Node16</title>
<a xlink:href="thread_8cpp.html" target="_top" xlink:title="This file implements a minimalistic cross&#45;platform thread that the scheduler uses to schedule tasks...">
<polygon fill="white" stroke="black" points="0,-233 0,-253 62,-253 62,-233 0,-233"/>
<text text-anchor="middle" x="31" y="-240" font-family="FreeSans" font-size="10.00">thread.cpp</text>
</a>
</g>
<!-- Node1&#45;&gt;Node16 -->
<g id="edge66" class="edge"><title>Node1&#45;&gt;Node16</title>
<path fill="none" stroke="midnightblue" d="M514.109,-403.728C413.368,-370.212 150.385,-282.719 61.1365,-253.026"/>
<polygon fill="midnightblue" stroke="midnightblue" points="513.027,-407.057 523.621,-406.893 515.237,-400.415 513.027,-407.057"/>
</g>
<!-- Node17 -->
<g id="node42" class="node"><title>Node17</title>
<a xlink:href="mutex_8h.html" target="_top" xlink:title="This file declares and defines a mutex that is a partial implementation.">
<polygon fill="white" stroke="black" points="503,-349 503,-369 553,-369 553,-349 503,-349"/>
<text text-anchor="middle" x="528" y="-356" font-family="FreeSans" font-size="10.00">mutex.h</text>
</a>
</g>
<!-- Node1&#45;&gt;Node17 -->
<g id="edge50" class="edge"><title>Node1&#45;&gt;Node17</title>
<path fill="none" stroke="midnightblue" d="M545.255,-397.493C541.037,-388.083 536.147,-377.174 532.652,-369.378"/>
<polygon fill="midnightblue" stroke="midnightblue" points="542.187,-399.204 549.471,-406.897 548.574,-396.34 542.187,-399.204"/>
</g>
<!-- Node18 -->
<g id="node46" class="node"><title>Node18</title>
<a xlink:href="mutex_8cpp.html" target="_top" xlink:title="Contains the implementation for the Mezzanine::Threading::Mutex Mutex synchronization object...">
<polygon fill="white" stroke="black" points="1039.5,-291 1039.5,-311 1100.5,-311 1100.5,-291 1039.5,-291"/>
<text text-anchor="middle" x="1070" y="-298" font-family="FreeSans" font-size="10.00">mutex.cpp</text>
</a>
</g>
<!-- Node1&#45;&gt;Node18 -->
<g id="edge62" class="edge"><title>Node1&#45;&gt;Node18</title>
<path fill="none" stroke="midnightblue" d="M561.43,-397.259C568.652,-381.058 581.29,-359.052 600,-348 681.799,-299.682 932.281,-327.571 1026,-312 1030.35,-311.277 1034.9,-310.344 1039.36,-309.328"/>
<polygon fill="midnightblue" stroke="midnightblue" points="558.033,-396.314 557.457,-406.893 564.505,-398.983 558.033,-396.314"/>
</g>
<!-- Node19 -->
<g id="node49" class="node"><title>Node19</title>
<a xlink:href="atomicoperations_8cpp.html" target="_top" xlink:title="The implementation of simple thread safe ways to check and change a specified variable atomically...">
<polygon fill="white" stroke="black" points="609,-349 609,-369 717,-369 717,-349 609,-349"/>
<text text-anchor="middle" x="663" y="-356" font-family="FreeSans" font-size="10.00">atomicoperations.cpp</text>
</a>
</g>
<!-- Node1&#45;&gt;Node19 -->
<g id="edge60" class="edge"><title>Node1&#45;&gt;Node19</title>
<path fill="none" stroke="midnightblue" d="M581.976,-402.114C601.385,-391.786 626.73,-378.3 643.865,-369.182"/>
<polygon fill="midnightblue" stroke="midnightblue" points="580.17,-399.11 572.986,-406.897 583.459,-405.289 580.17,-399.11"/>
</g>
<!-- Node20 -->
<g id="node52" class="node"><title>Node20</title>
<a xlink:href="systemcalls_8cpp.html" target="_top" xlink:title="This file defines some platform specifc functions.">
<polygon fill="white" stroke="black" points="735,-349 735,-369 819,-369 819,-349 735,-349"/>
<text text-anchor="middle" x="777" y="-356" font-family="FreeSans" font-size="10.00">systemcalls.cpp</text>
</a>
</g>
<!-- Node1&#45;&gt;Node20 -->
<g id="edge64" class="edge"><title>Node1&#45;&gt;Node20</title>
<path fill="none" stroke="midnightblue" d="M602.318,-404.433C643.12,-393.821 700.771,-378.826 738.51,-369.011"/>
<polygon fill="midnightblue" stroke="midnightblue" points="601.386,-401.059 592.589,-406.963 603.148,-407.833 601.386,-401.059"/>
</g>
<!-- Node3 -->
<g id="node5" class="node"><title>Node3</title>
<a xlink:href="framescheduler_8h.html" target="_top" xlink:title="This file has the Declarations for the main FrameScheduler class.">
<polygon fill="white" stroke="black" points="372,-233 372,-253 462,-253 462,-233 372,-233"/>
<text text-anchor="middle" x="417" y="-240" font-family="FreeSans" font-size="10.00">framescheduler.h</text>
</a>
</g>
<!-- Node2&#45;&gt;Node3 -->
<g id="edge4" class="edge"><title>Node2&#45;&gt;Node3</title>
<path fill="none" stroke="midnightblue" d="M426.877,-281.192C424.462,-271.851 421.679,-261.091 419.684,-253.378"/>
<polygon fill="midnightblue" stroke="midnightblue" points="423.495,-282.092 429.387,-290.897 430.272,-280.339 423.495,-282.092"/>
</g>
<!-- Node4 -->
<g id="node7" class="node"><title>Node4</title>
<a xlink:href="workunit_8h.html" target="_top" xlink:title="This file has the definition of the workunit.">
<polygon fill="white" stroke="black" points="493,-175 493,-195 553,-195 553,-175 493,-175"/>
<text text-anchor="middle" x="523" y="-182" font-family="FreeSans" font-size="10.00">workunit.h</text>
</a>
</g>
<!-- Node2&#45;&gt;Node4 -->
<g id="edge48" class="edge"><title>Node2&#45;&gt;Node4</title>
<path fill="none" stroke="midnightblue" d="M447.482,-282.748C454.722,-274.11 463.402,-263.605 471,-254 487.192,-233.53 505.396,-209.01 515.396,-195.402"/>
<polygon fill="midnightblue" stroke="midnightblue" points="444.582,-280.758 440.816,-290.661 449.935,-285.268 444.582,-280.758"/>
</g>
<!-- Node8 -->
<g id="node15" class="node"><title>Node8</title>
<a xlink:href="dagframescheduler_8h.html" target="_top" xlink:title="This is the file that code using this library should include. It includes all the required components...">
<polygon fill="white" stroke="black" points="540,-1 540,-21 646,-21 646,-1 540,-1"/>
<text text-anchor="middle" x="593" y="-8" font-family="FreeSans" font-size="10.00">dagframescheduler.h</text>
</a>
</g>
<!-- Node2&#45;&gt;Node8 -->
<g id="edge44" class="edge"><title>Node2&#45;&gt;Node8</title>
<path fill="none" stroke="midnightblue" d="M396.278,-296.62C308.623,-284.879 90,-249.164 90,-185 90,-185 90,-185 90,-127 90,-91.5529 100.22,-77.2267 130,-58 163.811,-36.1703 425.468,-19.8498 539.814,-13.6867"/>
<polygon fill="midnightblue" stroke="midnightblue" points="395.924,-300.103 406.294,-297.933 396.834,-293.163 395.924,-300.103"/>
</g>
<!-- Node2&#45;&gt;Node16 -->
<g id="edge46" class="edge"><title>Node2&#45;&gt;Node16</title>
<path fill="none" stroke="midnightblue" d="M396.353,-297.588C332.02,-291.143 192.372,-275.839 76,-254 71.5735,-253.169 66.9302,-252.176 62.3769,-251.13"/>
<polygon fill="midnightblue" stroke="midnightblue" points="396.084,-301.078 406.38,-298.581 396.774,-294.112 396.084,-301.078"/>
</g>
<!-- Node3&#45;&gt;Node4 -->
<g id="edge6" class="edge"><title>Node3&#45;&gt;Node4</title>
<path fill="none" stroke="midnightblue" d="M444.464,-227.973C463.305,-217.663 487.804,-204.258 504.392,-195.182"/>
<polygon fill="midnightblue" stroke="midnightblue" points="442.556,-225.027 435.464,-232.897 445.916,-231.167 442.556,-225.027"/>
</g>
<!-- Node3&#45;&gt;Node8 -->
<g id="edge40" class="edge"><title>Node3&#45;&gt;Node8</title>
<path fill="none" stroke="midnightblue" d="M365.403,-230.446C267.948,-204.461 72.941,-140.274 147,-58 172.882,-29.2469 427.401,-16.8107 539.944,-12.6864"/>
<polygon fill="midnightblue" stroke="midnightblue" points="364.523,-233.833 375.084,-232.987 366.3,-227.062 364.523,-233.833"/>
</g>
<!-- Node11 -->
<g id="node23" class="node"><title>Node11</title>
<a xlink:href="framescheduler_8cpp.html" target="_top" xlink:title="This is the core object implementation for this algorithm.">
<polygon fill="white" stroke="black" points="351.5,-59 351.5,-79 452.5,-79 452.5,-59 351.5,-59"/>
<text text-anchor="middle" x="402" y="-66" font-family="FreeSans" font-size="10.00">framescheduler.cpp</text>
</a>
</g>
<!-- Node3&#45;&gt;Node11 -->
<g id="edge42" class="edge"><title>Node3&#45;&gt;Node11</title>
<path fill="none" stroke="midnightblue" d="M415.252,-222.724C412.034,-185.389 405.279,-107.039 402.874,-79.135"/>
<polygon fill="midnightblue" stroke="midnightblue" points="411.783,-223.231 416.129,-232.893 418.757,-222.629 411.783,-223.231"/>
</g>
<!-- Node5 -->
<g id="node9" class="node"><title>Node5</title>
<a xlink:href="asynchronousworkunit_8h.html" target="_top" xlink:title="Contains an interface for a kind of WorkUnit that loads or does other work even when the frame schedu...">
<polygon fill="white" stroke="black" points="705.5,-117 705.5,-137 824.5,-137 824.5,-117 705.5,-117"/>
<text text-anchor="middle" x="765" y="-124" font-family="FreeSans" font-size="10.00">asynchronousworkunit.h</text>
</a>
</g>
<!-- Node4&#45;&gt;Node5 -->
<g id="edge8" class="edge"><title>Node4&#45;&gt;Node5</title>
<path fill="none" stroke="midnightblue" d="M562.98,-175.418C607.189,-164.822 678.093,-147.829 723.069,-137.05"/>
<polygon fill="midnightblue" stroke="midnightblue" points="562.069,-172.037 553.16,-177.772 563.701,-178.844 562.069,-172.037"/>
</g>
<!-- Node4&#45;&gt;Node8 -->
<g id="edge36" class="edge"><title>Node4&#45;&gt;Node8</title>
<path fill="none" stroke="midnightblue" d="M539.126,-167.344C546.074,-158.96 553.783,-148.492 559,-138 579.222,-97.3279 588.55,-43.1468 591.701,-21.0356"/>
<polygon fill="midnightblue" stroke="midnightblue" points="536.439,-165.102 532.553,-174.958 541.737,-169.676 536.439,-165.102"/>
</g>
<!-- Node10 -->
<g id="node20" class="node"><title>Node10</title>
<a xlink:href="frameschedulerworkunits_8h.html" target="_top" xlink:title="This defines a number of workunits that are required for doing some tasks that the Framescheduler req...">
<polygon fill="white" stroke="black" points="258.5,-117 258.5,-137 389.5,-137 389.5,-117 258.5,-117"/>
<text text-anchor="middle" x="324" y="-124" font-family="FreeSans" font-size="10.00">frameschedulerworkunits.h</text>
</a>
</g>
<!-- Node4&#45;&gt;Node10 -->
<g id="edge20" class="edge"><title>Node4&#45;&gt;Node10</title>
<path fill="none" stroke="midnightblue" d="M482.964,-173.331C446.488,-162.7 393.172,-147.161 358.528,-137.063"/>
<polygon fill="midnightblue" stroke="midnightblue" points="482.196,-176.753 492.776,-176.191 484.155,-170.033 482.196,-176.753"/>
</g>
<!-- Node13 -->
<g id="node27" class="node"><title>Node13</title>
<a xlink:href="monopoly_8h.html" target="_top" xlink:title="Contains an interface for a kind of WorkUnit that consumes time on multiple thread.">
<polygon fill="white" stroke="black" points="485.5,-117 485.5,-137 550.5,-137 550.5,-117 485.5,-117"/>
<text text-anchor="middle" x="518" y="-124" font-family="FreeSans" font-size="10.00">monopoly.h</text>
</a>
</g>
<!-- Node4&#45;&gt;Node13 -->
<g id="edge28" class="edge"><title>Node4&#45;&gt;Node13</title>
<path fill="none" stroke="midnightblue" d="M521.266,-164.89C520.467,-155.62 519.552,-145.008 518.895,-137.378"/>
<polygon fill="midnightblue" stroke="midnightblue" points="517.783,-165.235 522.129,-174.897 524.757,-164.633 517.783,-165.235"/>
</g>
<!-- Node15 -->
<g id="node34" class="node"><title>Node15</title>
<a xlink:href="workunit_8cpp.html" target="_top" xlink:title="This file has the implementation of the Mezzanine::Threading::DefaultWorkUnit.">
<polygon fill="white" stroke="black" points="617.5,-117 617.5,-137 688.5,-137 688.5,-117 617.5,-117"/>
<text text-anchor="middle" x="653" y="-124" font-family="FreeSans" font-size="10.00">workunit.cpp</text>
</a>
</g>
<!-- Node4&#45;&gt;Node15 -->
<g id="edge38" class="edge"><title>Node4&#45;&gt;Node15</title>
<path fill="none" stroke="midnightblue" d="M554.798,-170.813C578.135,-160.401 609.278,-146.507 630.179,-137.182"/>
<polygon fill="midnightblue" stroke="midnightblue" points="553.351,-167.626 545.644,-174.897 556.203,-174.019 553.351,-167.626"/>
</g>
<!-- Node6 -->
<g id="node11" class="node"><title>Node6</title>
<a xlink:href="asynchronousfileloadingworkunit_8h.html" target="_top" xlink:title="The declaration of the AsynchronousFileLoadWorkUnit a workunit that loads a listing of files asynchro...">
<polygon fill="white" stroke="black" points="823.5,-59 823.5,-79 984.5,-79 984.5,-59 823.5,-59"/>
<text text-anchor="middle" x="904" y="-66" font-family="FreeSans" font-size="10.00">asynchronousfileloadingworkunit.h</text>
</a>
</g>
<!-- Node5&#45;&gt;Node6 -->
<g id="edge10" class="edge"><title>Node5&#45;&gt;Node6</title>
<path fill="none" stroke="midnightblue" d="M798.668,-112.952C823.656,-102.525 857.151,-88.5483 879.599,-79.1817"/>
<polygon fill="midnightblue" stroke="midnightblue" points="797.093,-109.816 789.212,-116.897 799.789,-116.276 797.093,-109.816"/>
</g>
<!-- Node5&#45;&gt;Node8 -->
<g id="edge18" class="edge"><title>Node5&#45;&gt;Node8</title>
<path fill="none" stroke="midnightblue" d="M730.086,-112.771C711.281,-104.412 688.091,-92.955 669,-80 642.751,-62.1877 616.262,-35.7869 602.557,-21.3525"/>
<polygon fill="midnightblue" stroke="midnightblue" points="728.909,-116.075 739.476,-116.851 731.699,-109.655 728.909,-116.075"/>
</g>
<!-- Node9 -->
<g id="node17" class="node"><title>Node9</title>
<a xlink:href="asynchronousworkunit_8cpp.html" target="_top" xlink:title="Contains very little actually.">
<polygon fill="white" stroke="black" points="677.5,-59 677.5,-79 806.5,-79 806.5,-59 677.5,-59"/>
<text text-anchor="middle" x="742" y="-66" font-family="FreeSans" font-size="10.00">asynchronousworkunit.cpp</text>
</a>
</g>
<!-- Node5&#45;&gt;Node9 -->
<g id="edge16" class="edge"><title>Node5&#45;&gt;Node9</title>
<path fill="none" stroke="midnightblue" d="M757.264,-107.493C753.533,-98.0829 749.207,-87.1742 746.115,-79.3776"/>
<polygon fill="midnightblue" stroke="midnightblue" points="754.054,-108.892 760.994,-116.897 760.561,-106.311 754.054,-108.892"/>
</g>
<!-- Node7 -->
<g id="node13" class="node"><title>Node7</title>
<a xlink:href="asynchronousfileloadingworkunit_8cpp.html" target="_top" xlink:title="The implemtation of the AsynchronousFileLoadWorkUnit a workunit that loads a listing of files asynchr...">
<polygon fill="white" stroke="black" points="818,-1 818,-21 990,-21 990,-1 818,-1"/>
<text text-anchor="middle" x="904" y="-8" font-family="FreeSans" font-size="10.00">asynchronousfileloadingworkunit.cpp</text>
</a>
</g>
<!-- Node6&#45;&gt;Node7 -->
<g id="edge12" class="edge"><title>Node6&#45;&gt;Node7</title>
<path fill="none" stroke="midnightblue" d="M904,-48.8902C904,-39.6201 904,-29.0083 904,-21.3776"/>
<polygon fill="midnightblue" stroke="midnightblue" points="900.5,-48.8971 904,-58.8972 907.5,-48.8972 900.5,-48.8971"/>
</g>
<!-- Node6&#45;&gt;Node8 -->
<g id="edge14" class="edge"><title>Node6&#45;&gt;Node8</title>
<path fill="none" stroke="midnightblue" d="M840.161,-57.0944C782.909,-46.4172 699.878,-30.9322 646.158,-20.9138"/>
<polygon fill="midnightblue" stroke="midnightblue" points="839.711,-60.5706 850.183,-58.9634 840.994,-53.6893 839.711,-60.5706"/>
</g>
<!-- Node10&#45;&gt;Node8 -->
<g id="edge22" class="edge"><title>Node10&#45;&gt;Node8</title>
<path fill="none" stroke="midnightblue" d="M324.105,-106.678C325.323,-91.1287 329.611,-70.3231 343,-58 371.067,-32.1673 475.095,-19.7966 539.786,-14.4828"/>
<polygon fill="midnightblue" stroke="midnightblue" points="320.599,-106.737 323.674,-116.876 327.593,-107.032 320.599,-106.737"/>
</g>
<!-- Node10&#45;&gt;Node11 -->
<g id="edge24" class="edge"><title>Node10&#45;&gt;Node11</title>
<path fill="none" stroke="midnightblue" d="M345.939,-110.687C359.545,-100.569 376.603,-87.8852 388.307,-79.1817"/>
<polygon fill="midnightblue" stroke="midnightblue" points="343.523,-108.121 337.587,-116.897 347.7,-113.739 343.523,-108.121"/>
</g>
<!-- Node12 -->
<g id="node25" class="node"><title>Node12</title>
<a xlink:href="frameschedulerworkunits_8cpp.html" target="_top" xlink:title="The implementation of any workunits the framescheduler needs to work correctly.">
<polygon fill="white" stroke="black" points="155.5,-59 155.5,-79 296.5,-79 296.5,-59 155.5,-59"/>
<text text-anchor="middle" x="226" y="-66" font-family="FreeSans" font-size="10.00">frameschedulerworkunits.cpp</text>
</a>
</g>
<!-- Node10&#45;&gt;Node12 -->
<g id="edge26" class="edge"><title>Node10&#45;&gt;Node12</title>
<path fill="none" stroke="midnightblue" d="M297.89,-111.547C280.571,-101.297 258.33,-88.1339 243.203,-79.1817"/>
<polygon fill="midnightblue" stroke="midnightblue" points="296.541,-114.816 306.93,-116.897 300.107,-108.792 296.541,-114.816"/>
</g>
<!-- Node13&#45;&gt;Node8 -->
<g id="edge30" class="edge"><title>Node13&#45;&gt;Node8</title>
<path fill="none" stroke="midnightblue" d="M533.215,-109.104C540.197,-100.542 548.375,-89.9989 555,-80 568.294,-59.9353 581.27,-34.8463 588.081,-21.1251"/>
<polygon fill="midnightblue" stroke="midnightblue" points="530.428,-106.981 526.734,-116.911 535.814,-111.452 530.428,-106.981"/>
</g>
<!-- Node13&#45;&gt;Node11 -->
<g id="edge32" class="edge"><title>Node13&#45;&gt;Node11</title>
<path fill="none" stroke="midnightblue" d="M488.789,-112.395C468.063,-102.031 440.765,-88.3825 422.363,-79.1817"/>
<polygon fill="midnightblue" stroke="midnightblue" points="487.285,-115.555 497.794,-116.897 490.415,-109.294 487.285,-115.555"/>
</g>
<!-- Node14 -->
<g id="node31" class="node"><title>Node14</title>
<a xlink:href="monopoly_8cpp.html" target="_top" xlink:title="Contains the minimal implementation for the monopoly base class.">
<polygon fill="white" stroke="black" points="470,-59 470,-79 546,-79 546,-59 470,-59"/>
<text text-anchor="middle" x="508" y="-66" font-family="FreeSans" font-size="10.00">monopoly.cpp</text>
</a>
</g>
<!-- Node13&#45;&gt;Node14 -->
<g id="edge34" class="edge"><title>Node13&#45;&gt;Node14</title>
<path fill="none" stroke="midnightblue" d="M514.533,-106.89C512.935,-97.6201 511.105,-87.0083 509.789,-79.3776"/>
<polygon fill="midnightblue" stroke="midnightblue" points="511.11,-107.637 516.258,-116.897 518.008,-106.448 511.11,-107.637"/>
</g>
<!-- Node17&#45;&gt;Node2 -->
<g id="edge52" class="edge"><title>Node17&#45;&gt;Node2</title>
<path fill="none" stroke="midnightblue" d="M502.423,-343.547C485.457,-333.297 463.67,-320.134 448.852,-311.182"/>
<polygon fill="midnightblue" stroke="midnightblue" points="500.909,-346.722 511.278,-348.897 504.529,-340.73 500.909,-346.722"/>
</g>
<!-- Node17&#45;&gt;Node4 -->
<g id="edge58" class="edge"><title>Node17&#45;&gt;Node4</title>
<path fill="none" stroke="midnightblue" d="M527.417,-338.724C526.345,-301.389 524.093,-223.039 523.291,-195.135"/>
<polygon fill="midnightblue" stroke="midnightblue" points="523.924,-338.998 527.71,-348.893 530.921,-338.796 523.924,-338.998"/>
</g>
<!-- Node17&#45;&gt;Node8 -->
<g id="edge54" class="edge"><title>Node17&#45;&gt;Node8</title>
<path fill="none" stroke="midnightblue" d="M563.125,-350.396C566.462,-349.584 569.795,-348.775 573,-348 670.497,-324.424 1012,-343.307 1012,-243 1012,-243 1012,-243 1012,-127 1012,-95.1919 1017.13,-78.7222 993,-58 967.172,-35.8216 749.15,-20.187 646.301,-13.9752"/>
<polygon fill="midnightblue" stroke="midnightblue" points="562.109,-347.041 553.223,-352.811 563.767,-353.842 562.109,-347.041"/>
</g>
<!-- Node17&#45;&gt;Node18 -->
<g id="edge56" class="edge"><title>Node17&#45;&gt;Node18</title>
<path fill="none" stroke="midnightblue" d="M563.097,-348.757C564.41,-348.483 565.714,-348.229 567,-348 768.444,-312.052 824.04,-344.929 1026,-312 1030.35,-311.29 1034.91,-310.365 1039.36,-309.352"/>
<polygon fill="midnightblue" stroke="midnightblue" points="561.921,-345.439 553.006,-351.164 563.546,-352.248 561.921,-345.439"/>
</g>
</g>
</svg>
