<?xml version="1.0" encoding="UTF-8" standalone="no"?>
<!DOCTYPE svg PUBLIC "-//W3C//DTD SVG 1.1//EN"
 "http://www.w3.org/Graphics/SVG/1.1/DTD/svg11.dtd">
<!-- Generated by graphviz version 2.26.3 (20100126.1600)
 -->
<!-- Title: crossplatformexport.h Pages: 1 -->
<svg width="266pt" height="88pt"
 viewBox="0.00 0.00 266.00 88.00" xmlns="http://www.w3.org/2000/svg" xmlns:xlink="http://www.w3.org/1999/xlink">
<g id="graph1" class="graph" transform="scale(1 1) rotate(0) translate(4 84)">
<title>crossplatformexport.h</title>
<polygon fill="white" stroke="white" points="-4,5 -4,-84 263,-84 263,5 -4,5"/>
<!-- Node1 -->
<g id="node1" class="node"><title>Node1</title>
<polygon fill="#bfbfbf" stroke="black" points="77,-59 77,-79 185,-79 185,-59 77,-59"/>
<text text-anchor="middle" x="131" y="-66" font-family="FreeSans" font-size="10.00">crossplatformexport.h</text>
</g>
<!-- Node2 -->
<g id="node3" class="node"><title>Node2</title>
<polygon fill="white" stroke="#bfbfbf" points="0,-1 0,-21 56,-21 56,-1 0,-1"/>
<text text-anchor="middle" x="28" y="-8" font-family="FreeSans" font-size="10.00">pthread.h</text>
</g>
<!-- Node1&#45;&gt;Node2 -->
<g id="edge2" class="edge"><title>Node1&#45;&gt;Node2</title>
<path fill="none" stroke="midnightblue" d="M113.059,-58.8972C96.9848,-49.8458 73.1854,-36.4442 54.8456,-26.117"/>
<polygon fill="midnightblue" stroke="midnightblue" points="56.5121,-23.0386 46.0812,-21.1817 53.0774,-29.1381 56.5121,-23.0386"/>
</g>
<!-- Node3 -->
<g id="node5" class="node"><title>Node3</title>
<polygon fill="white" stroke="#bfbfbf" points="73.5,-1 73.5,-21 122.5,-21 122.5,-1 73.5,-1"/>
<text text-anchor="middle" x="98" y="-8" font-family="FreeSans" font-size="10.00">signal.h</text>
</g>
<!-- Node1&#45;&gt;Node3 -->
<g id="edge4" class="edge"><title>Node1&#45;&gt;Node3</title>
<path fill="none" stroke="midnightblue" d="M125.252,-58.8972C120.765,-51.0104 114.398,-39.8209 108.947,-30.2401"/>
<polygon fill="midnightblue" stroke="midnightblue" points="111.892,-28.3384 103.904,-21.3776 105.808,-31.8001 111.892,-28.3384"/>
</g>
<!-- Node4 -->
<g id="node7" class="node"><title>Node4</title>
<polygon fill="white" stroke="#bfbfbf" points="140,-1 140,-21 190,-21 190,-1 140,-1"/>
<text text-anchor="middle" x="165" y="-8" font-family="FreeSans" font-size="10.00">sched.h</text>
</g>
<!-- Node1&#45;&gt;Node4 -->
<g id="edge6" class="edge"><title>Node1&#45;&gt;Node4</title>
<path fill="none" stroke="midnightblue" d="M136.922,-58.8972C141.546,-51.0104 148.105,-39.8209 153.721,-30.2401"/>
<polygon fill="midnightblue" stroke="midnightblue" points="156.879,-31.7746 158.917,-21.3776 150.84,-28.2346 156.879,-31.7746"/>
</g>
<!-- Node5 -->
<g id="node9" class="node"><title>Node5</title>
<polygon fill="white" stroke="#bfbfbf" points="208,-1 208,-21 258,-21 258,-1 208,-1"/>
<text text-anchor="middle" x="233" y="-8" font-family="FreeSans" font-size="10.00">unistd.h</text>
</g>
<!-- Node1&#45;&gt;Node5 -->
<g id="edge8" class="edge"><title>Node1&#45;&gt;Node5</title>
<path fill="none" stroke="midnightblue" d="M148.767,-58.8972C164.612,-49.8871 188.038,-36.5665 206.166,-26.2586"/>
<polygon fill="midnightblue" stroke="midnightblue" points="208.131,-29.1673 215.094,-21.1817 204.671,-23.0822 208.131,-29.1673"/>
</g>
</g>
</svg>
