<?xml version="1.0" encoding="UTF-8" standalone="no"?>
<!DOCTYPE svg PUBLIC "-//W3C//DTD SVG 1.1//EN"
 "http://www.w3.org/Graphics/SVG/1.1/DTD/svg11.dtd">
<!-- Generated by graphviz version 2.26.3 (20100126.1600)
 -->
<!-- Title: crossplatformexport.h Pages: 1 -->
<svg width="1580pt" height="494pt"
 viewBox="0.00 0.00 1580.08 494.00" xmlns="http://www.w3.org/2000/svg" xmlns:xlink="http://www.w3.org/1999/xlink">
<g id="graph1" class="graph" transform="scale(1 1) rotate(0) translate(4 490)">
<title>crossplatformexport.h</title>
<polygon fill="white" stroke="white" points="-4,5 -4,-490 1577.08,-490 1577.08,5 -4,5"/>
<!-- Node1 -->
<g id="node1" class="node"><title>Node1</title>
<polygon fill="#bfbfbf" stroke="black" points="1342.08,-465 1342.08,-485 1450.08,-485 1450.08,-465 1342.08,-465"/>
<text text-anchor="middle" x="1396.08" y="-472" font-family="FreeSans" font-size="10.00">crossplatformexport.h</text>
</g>
<!-- Node2 -->
<g id="node3" class="node"><title>Node2</title>
<a xlink:href="datatypes_8h.html" target="_top" xlink:title="This file declares a few typedefs to allow flexibility, in case a change is required/desired.">
<polygon fill="white" stroke="black" points="865.581,-407 865.581,-427 930.581,-427 930.581,-407 865.581,-407"/>
<text text-anchor="middle" x="898.081" y="-414" font-family="FreeSans" font-size="10.00">datatypes.h</text>
</a>
</g>
<!-- Node1&#45;&gt;Node2 -->
<g id="edge2" class="edge"><title>Node1&#45;&gt;Node2</title>
<path fill="none" stroke="midnightblue" d="M1331.77,-467.51C1224.26,-454.989 1011.85,-430.25 930.671,-420.796"/>
<polygon fill="midnightblue" stroke="midnightblue" points="1331.5,-471.002 1341.84,-468.683 1332.31,-464.049 1331.5,-471.002"/>
</g>
<!-- Node6 -->
<g id="node11" class="node"><title>Node6</title>
<a xlink:href="dagframescheduler_8h.html" target="_top" xlink:title="This is the file that code using this library should include. It includes all the required components...">
<polygon fill="white" stroke="black" points="899.081,-1 899.081,-21 1005.08,-21 1005.08,-1 899.081,-1"/>
<text text-anchor="middle" x="952.081" y="-8" font-family="FreeSans" font-size="10.00">dagframescheduler.h</text>
</a>
</g>
<!-- Node1&#45;&gt;Node6 -->
<g id="edge158" class="edge"><title>Node1&#45;&gt;Node6</title>
<path fill="none" stroke="midnightblue" d="M1454.34,-462.254C1505.58,-447.206 1572.08,-416.586 1572.08,-359 1572.08,-359 1572.08,-359 1572.08,-127 1572.08,-39.245 1472.48,-78.2035 1387.08,-58 1251.99,-26.0405 1088.1,-15.7592 1005.36,-12.4921"/>
<polygon fill="midnightblue" stroke="midnightblue" points="1453.32,-458.903 1444.64,-464.972 1455.21,-465.643 1453.32,-458.903"/>
</g>
<!-- Node29 -->
<g id="node97" class="node"><title>Node29</title>
<a xlink:href="crossplatformincludes_8h.html" target="_top" xlink:title="This file determines what features are offered by the compiler that this library can take advantage o...">
<polygon fill="white" stroke="black" points="1337.58,-407 1337.58,-427 1454.58,-427 1454.58,-407 1337.58,-407"/>
<text text-anchor="middle" x="1396.08" y="-414" font-family="FreeSans" font-size="10.00">crossplatformincludes.h</text>
</a>
</g>
<!-- Node1&#45;&gt;Node29 -->
<g id="edge136" class="edge"><title>Node1&#45;&gt;Node29</title>
<path fill="none" stroke="midnightblue" d="M1396.08,-454.89C1396.08,-445.62 1396.08,-435.008 1396.08,-427.378"/>
<polygon fill="midnightblue" stroke="midnightblue" points="1392.58,-454.897 1396.08,-464.897 1399.58,-454.897 1392.58,-454.897"/>
</g>
<!-- Node3 -->
<g id="node5" class="node"><title>Node3</title>
<a xlink:href="asynchronousworkunit_8h.html" target="_top" xlink:title="Contains an interface for a kind of WorkUnit that loads or does other work even when the frame schedu...">
<polygon fill="white" stroke="black" points="173.581,-117 173.581,-137 292.581,-137 292.581,-117 173.581,-117"/>
<text text-anchor="middle" x="233.081" y="-124" font-family="FreeSans" font-size="10.00">asynchronousworkunit.h</text>
</a>
</g>
<!-- Node2&#45;&gt;Node3 -->
<g id="edge4" class="edge"><title>Node2&#45;&gt;Node3</title>
<path fill="none" stroke="midnightblue" d="M854.909,-416.379C701.88,-413.904 191.023,-403.209 126.081,-370 59.785,-336.098 -7.56669,-295.646 31.081,-232 64.2116,-177.439 135.933,-149.931 184.37,-137.056"/>
<polygon fill="midnightblue" stroke="midnightblue" points="855.244,-419.885 865.298,-416.543 855.354,-412.885 855.244,-419.885"/>
</g>
<!-- Node2&#45;&gt;Node6 -->
<g id="edge104" class="edge"><title>Node2&#45;&gt;Node6</title>
<path fill="none" stroke="midnightblue" d="M940.905,-412.946C986.57,-407.483 1060.26,-395.35 1119.08,-370 1160.74,-352.044 1260.81,-290.987 1287.08,-254 1305.5,-228.068 1306.08,-216.808 1306.08,-185 1306.08,-185 1306.08,-185 1306.08,-127 1306.08,-64.5089 1104.35,-30.2624 1005.46,-17.2281"/>
<polygon fill="midnightblue" stroke="midnightblue" points="940.302,-409.492 930.764,-414.104 941.097,-416.447 940.302,-409.492"/>
</g>
<!-- Node8 -->
<g id="node16" class="node"><title>Node8</title>
<a xlink:href="doublebufferedresource_8h.html" target="_top" xlink:title="This file defines the template double buffered resources that can be attached to a thread...">
<polygon fill="white" stroke="black" points="355.581,-291 355.581,-311 478.581,-311 478.581,-291 355.581,-291"/>
<text text-anchor="middle" x="417.081" y="-298" font-family="FreeSans" font-size="10.00">doublebufferedresource.h</text>
</a>
</g>
<!-- Node2&#45;&gt;Node8 -->
<g id="edge16" class="edge"><title>Node2&#45;&gt;Node8</title>
<path fill="none" stroke="midnightblue" d="M854.869,-415.528C789.031,-412.297 660.259,-402.074 556.081,-370 508.961,-355.493 458.178,-326.467 433.048,-311.093"/>
<polygon fill="midnightblue" stroke="midnightblue" points="855.114,-419.043 865.264,-416.005 855.435,-412.05 855.114,-419.043"/>
</g>
<!-- Node9 -->
<g id="node19" class="node"><title>Node9</title>
<a xlink:href="framescheduler_8h.html" target="_top" xlink:title="This file has the Declarations for the main FrameScheduler class.">
<polygon fill="white" stroke="black" points="502.081,-233 502.081,-253 592.081,-253 592.081,-233 502.081,-233"/>
<text text-anchor="middle" x="547.081" y="-240" font-family="FreeSans" font-size="10.00">framescheduler.h</text>
</a>
</g>
<!-- Node2&#45;&gt;Node9 -->
<g id="edge62" class="edge"><title>Node2&#45;&gt;Node9</title>
<path fill="none" stroke="midnightblue" d="M855.476,-409.905C794.616,-398.091 681.495,-369.747 603.081,-312 580.72,-295.532 562.119,-268.11 553.045,-253.279"/>
<polygon fill="midnightblue" stroke="midnightblue" points="855.022,-413.381 865.497,-411.792 856.317,-406.502 855.022,-413.381"/>
</g>
<!-- Node10 -->
<g id="node21" class="node"><title>Node10</title>
<a xlink:href="workunit_8h.html" target="_top" xlink:title="This file has the definition of the workunit.">
<polygon fill="white" stroke="black" points="865.081,-175 865.081,-195 925.081,-195 925.081,-175 865.081,-175"/>
<text text-anchor="middle" x="895.081" y="-182" font-family="FreeSans" font-size="10.00">workunit.h</text>
</a>
</g>
<!-- Node2&#45;&gt;Node10 -->
<g id="edge60" class="edge"><title>Node2&#45;&gt;Node10</title>
<path fill="none" stroke="midnightblue" d="M904.839,-397.186C907.332,-388.892 909.848,-379.084 911.081,-370 920.101,-303.554 903.901,-222.954 897.509,-195.065"/>
<polygon fill="midnightblue" stroke="midnightblue" points="901.505,-396.124 901.793,-406.715 908.172,-398.256 901.505,-396.124"/>
</g>
<!-- Node11 -->
<g id="node24" class="node"><title>Node11</title>
<a xlink:href="frameschedulerworkunits_8h.html" target="_top" xlink:title="This defines a number of workunits that are required for doing some tasks that the Framescheduler req...">
<polygon fill="white" stroke="black" points="830.581,-117 830.581,-137 961.581,-137 961.581,-117 830.581,-117"/>
<text text-anchor="middle" x="896.081" y="-124" font-family="FreeSans" font-size="10.00">frameschedulerworkunits.h</text>
</a>
</g>
<!-- Node2&#45;&gt;Node11 -->
<g id="edge106" class="edge"><title>Node2&#45;&gt;Node11</title>
<path fill="none" stroke="midnightblue" d="M935.732,-403.196C982.758,-383.449 1054.8,-343.525 1035.08,-290 1009.49,-220.555 939.693,-160.58 909.88,-137.316"/>
<polygon fill="midnightblue" stroke="midnightblue" points="934.352,-399.979 926.407,-406.988 936.989,-406.464 934.352,-399.979"/>
</g>
<!-- Node14 -->
<g id="node31" class="node"><title>Node14</title>
<a xlink:href="monopoly_8h.html" target="_top" xlink:title="Contains an interface for a kind of WorkUnit that consumes time on multiple thread.">
<polygon fill="white" stroke="black" points="748.581,-117 748.581,-137 813.581,-137 813.581,-117 748.581,-117"/>
<text text-anchor="middle" x="781.081" y="-124" font-family="FreeSans" font-size="10.00">monopoly.h</text>
</a>
</g>
<!-- Node2&#45;&gt;Node14 -->
<g id="edge120" class="edge"><title>Node2&#45;&gt;Node14</title>
<path fill="none" stroke="midnightblue" d="M857.455,-402.819C842.659,-395.456 827.509,-384.82 819.081,-370 788.763,-316.684 829.676,-292.411 819.081,-232 812.718,-195.72 794.868,-155.455 786.087,-137.104"/>
<polygon fill="midnightblue" stroke="midnightblue" points="856.008,-406.006 866.558,-406.988 858.924,-399.642 856.008,-406.006"/>
</g>
<!-- Node17 -->
<g id="node49" class="node"><title>Node17</title>
<a xlink:href="systemcalls_8h.html" target="_top" xlink:title="This file defines a minimalistic cross&#45;platform thread that the scheduler uses to schedule tasks...">
<polygon fill="white" stroke="black" points="828.081,-349 828.081,-369 902.081,-369 902.081,-349 828.081,-349"/>
<text text-anchor="middle" x="865.081" y="-356" font-family="FreeSans" font-size="10.00">systemcalls.h</text>
</a>
</g>
<!-- Node2&#45;&gt;Node17 -->
<g id="edge64" class="edge"><title>Node2&#45;&gt;Node17</title>
<path fill="none" stroke="midnightblue" d="M887.323,-398.091C881.893,-388.549 875.516,-377.34 870.986,-369.378"/>
<polygon fill="midnightblue" stroke="midnightblue" points="884.346,-399.936 892.333,-406.897 890.43,-396.475 884.346,-399.936"/>
</g>
<!-- Node20 -->
<g id="node60" class="node"><title>Node20</title>
<a xlink:href="systemcalls_8cpp.html" target="_top" xlink:title="This file defines some platform specifc functions.">
<polygon fill="white" stroke="black" points="942.081,-291 942.081,-311 1026.08,-311 1026.08,-291 942.081,-291"/>
<text text-anchor="middle" x="984.081" y="-298" font-family="FreeSans" font-size="10.00">systemcalls.cpp</text>
</a>
</g>
<!-- Node2&#45;&gt;Node20 -->
<g id="edge134" class="edge"><title>Node2&#45;&gt;Node20</title>
<path fill="none" stroke="midnightblue" d="M916.761,-400.006C925.594,-391.469 935.958,-380.686 944.081,-370 958.829,-350.6 972.205,-325.262 979.125,-311.32"/>
<polygon fill="midnightblue" stroke="midnightblue" points="914.357,-397.463 909.488,-406.872 919.162,-402.553 914.357,-397.463"/>
</g>
<!-- Node21 -->
<g id="node63" class="node"><title>Node21</title>
<a xlink:href="atomicoperations_8cpp.html" target="_top" xlink:title="The implementation of simple thread safe ways to check and change a specified variable atomically...">
<polygon fill="white" stroke="black" points="1196.08,-349 1196.08,-369 1304.08,-369 1304.08,-349 1196.08,-349"/>
<text text-anchor="middle" x="1250.08" y="-356" font-family="FreeSans" font-size="10.00">atomicoperations.cpp</text>
</a>
</g>
<!-- Node2&#45;&gt;Node21 -->
<g id="edge84" class="edge"><title>Node2&#45;&gt;Node21</title>
<path fill="none" stroke="midnightblue" d="M941.041,-409.921C1005.14,-399.359 1125.76,-379.485 1195.85,-367.936"/>
<polygon fill="midnightblue" stroke="midnightblue" points="940.178,-406.516 930.88,-411.596 941.316,-413.423 940.178,-406.516"/>
</g>
<!-- Node22 -->
<g id="node65" class="node"><title>Node22</title>
<a xlink:href="atomicoperations_8h.html" target="_top" xlink:title="Simple thread safe ways to check and change a specified variable atomically.">
<polygon fill="white" stroke="black" points="157.081,-349 157.081,-369 255.081,-369 255.081,-349 157.081,-349"/>
<text text-anchor="middle" x="206.081" y="-356" font-family="FreeSans" font-size="10.00">atomicoperations.h</text>
</a>
</g>
<!-- Node2&#45;&gt;Node22 -->
<g id="edge86" class="edge"><title>Node2&#45;&gt;Node22</title>
<path fill="none" stroke="midnightblue" d="M855.078,-413.396C732.93,-403.158 384.399,-373.946 255.12,-363.11"/>
<polygon fill="midnightblue" stroke="midnightblue" points="854.913,-416.894 865.17,-414.242 855.497,-409.918 854.913,-416.894"/>
</g>
<!-- Node23 -->
<g id="node67" class="node"><title>Node23</title>
<a xlink:href="barrier_8h.html" target="_top" xlink:title="The declaration of the Mezzanine::Threading::Barrier Barrier synchronization primitive.">
<polygon fill="white" stroke="black" points="89.581,-291 89.581,-311 140.581,-311 140.581,-291 89.581,-291"/>
<text text-anchor="middle" x="115.081" y="-298" font-family="FreeSans" font-size="10.00">barrier.h</text>
</a>
</g>
<!-- Node2&#45;&gt;Node23 -->
<g id="edge102" class="edge"><title>Node2&#45;&gt;Node23</title>
<path fill="none" stroke="midnightblue" d="M855.335,-416.817C705.035,-415.836 206.76,-409.598 148.081,-370 127.828,-356.333 119.641,-326.667 116.638,-311.061"/>
<polygon fill="midnightblue" stroke="midnightblue" points="855.524,-420.318 865.545,-416.879 855.566,-413.318 855.524,-420.318"/>
</g>
<!-- Node25 -->
<g id="node79" class="node"><title>Node25</title>
<a xlink:href="workunitkey_8h.html" target="_top" xlink:title="This file defines the metadata used to sort workunits.">
<polygon fill="white" stroke="black" points="652.581,-291 652.581,-311 727.581,-311 727.581,-291 652.581,-291"/>
<text text-anchor="middle" x="690.081" y="-298" font-family="FreeSans" font-size="10.00">workunitkey.h</text>
</a>
</g>
<!-- Node2&#45;&gt;Node25 -->
<g id="edge108" class="edge"><title>Node2&#45;&gt;Node25</title>
<path fill="none" stroke="midnightblue" d="M859.772,-403.397C837.657,-394.942 809.644,-383.188 786.081,-370 754.021,-352.056 719.86,-325.471 702.21,-311.102"/>
<polygon fill="midnightblue" stroke="midnightblue" points="858.577,-406.687 869.17,-406.928 861.04,-400.134 858.577,-406.687"/>
</g>
<!-- Node27 -->
<g id="node88" class="node"><title>Node27</title>
<a xlink:href="rollingaverage_8h.html" target="_top" xlink:title="This stores the implementation and the declaration of the RollingAverage, BufferedRollingAverage, WeightedRollingAverage and the DefaultRollingAverage.">
<polygon fill="white" stroke="black" points="1195.58,-233 1195.58,-253 1278.58,-253 1278.58,-233 1195.58,-233"/>
<text text-anchor="middle" x="1237.08" y="-240" font-family="FreeSans" font-size="10.00">rollingaverage.h</text>
</a>
</g>
<!-- Node2&#45;&gt;Node27 -->
<g id="edge122" class="edge"><title>Node2&#45;&gt;Node27</title>
<path fill="none" stroke="midnightblue" d="M940.65,-412.416C980.954,-406.76 1042.25,-394.679 1090.08,-370 1121.25,-353.918 1198.81,-280.129 1226.8,-253.024"/>
<polygon fill="midnightblue" stroke="midnightblue" points="940.075,-408.962 930.625,-413.751 940.999,-415.901 940.075,-408.962"/>
</g>
<!-- Node28 -->
<g id="node92" class="node"><title>Node28</title>
<a xlink:href="threadingenumerations_8h.html" target="_top" xlink:title="Any enumerations the threading library requires are all declared here.">
<polygon fill="white" stroke="black" points="1056.08,-233 1056.08,-253 1178.08,-253 1178.08,-233 1056.08,-233"/>
<text text-anchor="middle" x="1117.08" y="-240" font-family="FreeSans" font-size="10.00">threadingenumerations.h</text>
</a>
</g>
<!-- Node2&#45;&gt;Node28 -->
<g id="edge128" class="edge"><title>Node2&#45;&gt;Node28</title>
<path fill="none" stroke="midnightblue" d="M940.79,-409.716C984.774,-401.444 1049.45,-386.881 1068.08,-370 1103.46,-337.947 1113.51,-277.405 1116.18,-253.29"/>
<polygon fill="midnightblue" stroke="midnightblue" points="940.12,-406.281 930.919,-411.533 941.388,-413.165 940.12,-406.281"/>
</g>
<!-- Node4 -->
<g id="node7" class="node"><title>Node4</title>
<a xlink:href="asynchronousfileloadingworkunit_8h.html" target="_top" xlink:title="The declaration of the AsynchronousFileLoadWorkUnit a workunit that loads a listing of files asynchro...">
<polygon fill="white" stroke="black" points="57.581,-59 57.581,-79 218.581,-79 218.581,-59 57.581,-59"/>
<text text-anchor="middle" x="138.081" y="-66" font-family="FreeSans" font-size="10.00">asynchronousfileloadingworkunit.h</text>
</a>
</g>
<!-- Node3&#45;&gt;Node4 -->
<g id="edge6" class="edge"><title>Node3&#45;&gt;Node4</title>
<path fill="none" stroke="midnightblue" d="M207.771,-111.547C190.981,-101.297 169.421,-88.1339 154.758,-79.1817"/>
<polygon fill="midnightblue" stroke="midnightblue" points="206.174,-114.674 216.533,-116.897 209.822,-108.699 206.174,-114.674"/>
</g>
<!-- Node3&#45;&gt;Node6 -->
<g id="edge14" class="edge"><title>Node3&#45;&gt;Node6</title>
<path fill="none" stroke="midnightblue" d="M236.642,-106.919C240.634,-90.8389 248.815,-69.1862 265.081,-58 316.857,-22.3929 746.979,-13.571 899.061,-11.5551"/>
<polygon fill="midnightblue" stroke="midnightblue" points="233.163,-106.453 234.5,-116.963 240.009,-107.913 233.163,-106.453"/>
</g>
<!-- Node7 -->
<g id="node13" class="node"><title>Node7</title>
<a xlink:href="asynchronousworkunit_8cpp.html" target="_top" xlink:title="Contains very little actually.">
<polygon fill="white" stroke="black" points="273.581,-59 273.581,-79 402.581,-79 402.581,-59 273.581,-59"/>
<text text-anchor="middle" x="338.081" y="-66" font-family="FreeSans" font-size="10.00">asynchronousworkunit.cpp</text>
</a>
</g>
<!-- Node3&#45;&gt;Node7 -->
<g id="edge12" class="edge"><title>Node3&#45;&gt;Node7</title>
<path fill="none" stroke="midnightblue" d="M260.285,-111.973C278.949,-101.663 303.217,-88.2582 319.649,-79.1817"/>
<polygon fill="midnightblue" stroke="midnightblue" points="258.432,-108.998 251.371,-116.897 261.816,-115.126 258.432,-108.998"/>
</g>
<!-- Node5 -->
<g id="node9" class="node"><title>Node5</title>
<a xlink:href="asynchronousfileloadingworkunit_8cpp.html" target="_top" xlink:title="The implemtation of the AsynchronousFileLoadWorkUnit a workunit that loads a listing of files asynchr...">
<polygon fill="white" stroke="black" points="52.081,-1 52.081,-21 224.081,-21 224.081,-1 52.081,-1"/>
<text text-anchor="middle" x="138.081" y="-8" font-family="FreeSans" font-size="10.00">asynchronousfileloadingworkunit.cpp</text>
</a>
</g>
<!-- Node4&#45;&gt;Node5 -->
<g id="edge8" class="edge"><title>Node4&#45;&gt;Node5</title>
<path fill="none" stroke="midnightblue" d="M138.081,-48.8902C138.081,-39.6201 138.081,-29.0083 138.081,-21.3776"/>
<polygon fill="midnightblue" stroke="midnightblue" points="134.581,-48.8971 138.081,-58.8972 141.581,-48.8972 134.581,-48.8971"/>
</g>
<!-- Node4&#45;&gt;Node6 -->
<g id="edge10" class="edge"><title>Node4&#45;&gt;Node6</title>
<path fill="none" stroke="midnightblue" d="M228.809,-58.3028C229.906,-58.1997 230.997,-58.0987 232.081,-58 480.956,-35.3302 779.195,-19.4501 898.716,-13.5448"/>
<polygon fill="midnightblue" stroke="midnightblue" points="228.424,-54.8237 218.813,-59.2815 229.106,-61.7904 228.424,-54.8237"/>
</g>
<!-- Node8&#45;&gt;Node3 -->
<g id="edge18" class="edge"><title>Node8&#45;&gt;Node3</title>
<path fill="none" stroke="midnightblue" d="M367.529,-287.741C346.801,-280.354 323.528,-269.451 306.081,-254 267.623,-219.94 244.405,-160.558 236.322,-137.022"/>
<polygon fill="midnightblue" stroke="midnightblue" points="366.559,-291.107 377.153,-290.99 368.798,-284.475 366.559,-291.107"/>
</g>
<!-- Node8&#45;&gt;Node6 -->
<g id="edge50" class="edge"><title>Node8&#45;&gt;Node6</title>
<path fill="none" stroke="midnightblue" d="M414.314,-280.867C409.067,-233.469 403.546,-114.587 470.081,-58 502.225,-30.6626 780.355,-17.298 898.911,-12.8026"/>
<polygon fill="midnightblue" stroke="midnightblue" points="410.843,-281.32 415.533,-290.82 417.791,-280.468 410.843,-281.32"/>
</g>
<!-- Node8&#45;&gt;Node9 -->
<g id="edge20" class="edge"><title>Node8&#45;&gt;Node9</title>
<path fill="none" stroke="midnightblue" d="M448.879,-286.813C472.216,-276.401 503.359,-262.507 524.26,-253.182"/>
<polygon fill="midnightblue" stroke="midnightblue" points="447.432,-283.626 439.725,-290.897 450.284,-290.019 447.432,-283.626"/>
</g>
<!-- Node12 -->
<g id="node27" class="node"><title>Node12</title>
<a xlink:href="framescheduler_8cpp.html" target="_top" xlink:title="This is the core object implementation for this algorithm.">
<polygon fill="white" stroke="black" points="495.581,-59 495.581,-79 596.581,-79 596.581,-59 495.581,-59"/>
<text text-anchor="middle" x="546.081" y="-66" font-family="FreeSans" font-size="10.00">framescheduler.cpp</text>
</a>
</g>
<!-- Node8&#45;&gt;Node12 -->
<g id="edge54" class="edge"><title>Node8&#45;&gt;Node12</title>
<path fill="none" stroke="midnightblue" d="M421.218,-280.747C424.505,-266.674 429.77,-247.702 437.081,-232 466.252,-169.351 517.699,-103.565 537.751,-79.0109"/>
<polygon fill="midnightblue" stroke="midnightblue" points="417.731,-280.309 419.005,-290.827 424.568,-281.81 417.731,-280.309"/>
</g>
<!-- Node13 -->
<g id="node29" class="node"><title>Node13</title>
<a xlink:href="frameschedulerworkunits_8cpp.html" target="_top" xlink:title="The implementation of any workunits the framescheduler needs to work correctly.">
<polygon fill="white" stroke="black" points="613.581,-59 613.581,-79 754.581,-79 754.581,-59 613.581,-59"/>
<text text-anchor="middle" x="684.081" y="-66" font-family="FreeSans" font-size="10.00">frameschedulerworkunits.cpp</text>
</a>
</g>
<!-- Node8&#45;&gt;Node13 -->
<g id="edge56" class="edge"><title>Node8&#45;&gt;Node13</title>
<path fill="none" stroke="midnightblue" d="M426.363,-281.793C433.955,-267.215 445.61,-247.162 459.081,-232 522.676,-160.422 622.926,-101.845 664.752,-79.1425"/>
<polygon fill="midnightblue" stroke="midnightblue" points="423.157,-280.378 421.785,-290.884 429.409,-283.527 423.157,-280.378"/>
</g>
<!-- Node8&#45;&gt;Node14 -->
<g id="edge52" class="edge"><title>Node8&#45;&gt;Node14</title>
<path fill="none" stroke="midnightblue" d="M433.074,-282.986C447.486,-267.669 469.914,-245.994 493.081,-232 578.267,-180.545 692.674,-148.236 748.158,-134.558"/>
<polygon fill="midnightblue" stroke="midnightblue" points="430.127,-281.02 425.939,-290.752 435.282,-285.756 430.127,-281.02"/>
</g>
<!-- Node16 -->
<g id="node38" class="node"><title>Node16</title>
<a xlink:href="workunit_8cpp.html" target="_top" xlink:title="This file has the implementation of the Mezzanine::Threading::DefaultWorkUnit.">
<polygon fill="white" stroke="black" points="648.581,-117 648.581,-137 719.581,-137 719.581,-117 648.581,-117"/>
<text text-anchor="middle" x="684.081" y="-124" font-family="FreeSans" font-size="10.00">workunit.cpp</text>
</a>
</g>
<!-- Node8&#45;&gt;Node16 -->
<g id="edge58" class="edge"><title>Node8&#45;&gt;Node16</title>
<path fill="none" stroke="midnightblue" d="M425.501,-281.384C432.81,-266.269 444.642,-245.703 460.081,-232 516.454,-181.964 600.809,-151.184 648.286,-136.775"/>
<polygon fill="midnightblue" stroke="midnightblue" points="422.159,-280.277 421.176,-290.826 428.523,-283.192 422.159,-280.277"/>
</g>
<!-- Node9&#45;&gt;Node6 -->
<g id="edge46" class="edge"><title>Node9&#45;&gt;Node6</title>
<path fill="none" stroke="midnightblue" d="M531.121,-225.002C501.054,-188.901 442.85,-106.927 487.081,-58 514.288,-27.9046 782.798,-16.1467 898.969,-12.4428"/>
<polygon fill="midnightblue" stroke="midnightblue" points="528.588,-227.426 537.742,-232.76 533.912,-222.881 528.588,-227.426"/>
</g>
<!-- Node9&#45;&gt;Node10 -->
<g id="edge22" class="edge"><title>Node9&#45;&gt;Node10</title>
<path fill="none" stroke="midnightblue" d="M602.328,-233.792C676.663,-221.403 806.298,-199.797 864.85,-190.039"/>
<polygon fill="midnightblue" stroke="midnightblue" points="601.508,-230.381 592.219,-235.477 602.659,-237.285 601.508,-230.381"/>
</g>
<!-- Node9&#45;&gt;Node12 -->
<g id="edge48" class="edge"><title>Node9&#45;&gt;Node12</title>
<path fill="none" stroke="midnightblue" d="M546.965,-222.724C546.75,-185.389 546.3,-107.039 546.139,-79.135"/>
<polygon fill="midnightblue" stroke="midnightblue" points="543.465,-222.913 547.023,-232.893 550.465,-222.873 543.465,-222.913"/>
</g>
<!-- Node10&#45;&gt;Node3 -->
<g id="edge24" class="edge"><title>Node10&#45;&gt;Node3</title>
<path fill="none" stroke="midnightblue" d="M854.689,-181.461C742.28,-171.613 425.372,-143.847 292.682,-132.222"/>
<polygon fill="midnightblue" stroke="midnightblue" points="854.649,-184.971 864.916,-182.357 855.26,-177.998 854.649,-184.971"/>
</g>
<!-- Node10&#45;&gt;Node6 -->
<g id="edge42" class="edge"><title>Node10&#45;&gt;Node6</title>
<path fill="none" stroke="midnightblue" d="M933.453,-170.484C947.586,-163.048 962.085,-152.448 970.081,-138 991.54,-99.2271 968.76,-43.9925 957.552,-21.3181"/>
<polygon fill="midnightblue" stroke="midnightblue" points="931.764,-167.413 924.291,-174.923 934.816,-173.713 931.764,-167.413"/>
</g>
<!-- Node10&#45;&gt;Node11 -->
<g id="edge26" class="edge"><title>Node10&#45;&gt;Node11</title>
<path fill="none" stroke="midnightblue" d="M895.428,-164.89C895.588,-155.62 895.771,-145.008 895.902,-137.378"/>
<polygon fill="midnightblue" stroke="midnightblue" points="891.928,-164.838 895.255,-174.897 898.927,-164.959 891.928,-164.838"/>
</g>
<!-- Node10&#45;&gt;Node14 -->
<g id="edge34" class="edge"><title>Node10&#45;&gt;Node14</title>
<path fill="none" stroke="midnightblue" d="M866.098,-170.254C845.763,-159.909 819.096,-146.341 801.093,-137.182"/>
<polygon fill="midnightblue" stroke="midnightblue" points="864.724,-173.482 875.224,-174.897 867.898,-167.243 864.724,-173.482"/>
</g>
<!-- Node10&#45;&gt;Node16 -->
<g id="edge44" class="edge"><title>Node10&#45;&gt;Node16</title>
<path fill="none" stroke="midnightblue" d="M854.899,-173.955C815.922,-163.241 757.332,-147.135 719.904,-136.847"/>
<polygon fill="midnightblue" stroke="midnightblue" points="854.28,-177.414 864.85,-176.69 856.135,-170.665 854.28,-177.414"/>
</g>
<!-- Node11&#45;&gt;Node6 -->
<g id="edge28" class="edge"><title>Node11&#45;&gt;Node6</title>
<path fill="none" stroke="midnightblue" d="M912.959,-109.082C920.03,-100.767 927.813,-90.4277 933.081,-80 942.942,-60.4815 948.225,-35.1876 950.563,-21.2851"/>
<polygon fill="midnightblue" stroke="midnightblue" points="910.263,-106.847 906.246,-116.65 915.5,-111.492 910.263,-106.847"/>
</g>
<!-- Node11&#45;&gt;Node12 -->
<g id="edge30" class="edge"><title>Node11&#45;&gt;Node12</title>
<path fill="none" stroke="midnightblue" d="M821.332,-115.437C762.503,-106.213 678.479,-92.7676 605.081,-80 602.309,-79.5179 599.466,-79.0151 596.597,-78.5013"/>
<polygon fill="midnightblue" stroke="midnightblue" points="820.861,-118.906 831.282,-116.994 821.944,-111.99 820.861,-118.906"/>
</g>
<!-- Node11&#45;&gt;Node13 -->
<g id="edge32" class="edge"><title>Node11&#45;&gt;Node13</title>
<path fill="none" stroke="midnightblue" d="M849.19,-114.171C810.557,-103.602 756.527,-88.8202 720.94,-79.0842"/>
<polygon fill="midnightblue" stroke="midnightblue" points="848.584,-117.634 859.153,-116.897 850.432,-110.882 848.584,-117.634"/>
</g>
<!-- Node14&#45;&gt;Node6 -->
<g id="edge36" class="edge"><title>Node14&#45;&gt;Node6</title>
<path fill="none" stroke="midnightblue" d="M793.142,-108.162C803.704,-92.9225 820.273,-71.799 839.081,-58 862.379,-40.9064 892.815,-28.7101 916.229,-21.032"/>
<polygon fill="midnightblue" stroke="midnightblue" points="790.032,-106.516 787.376,-116.773 795.849,-110.411 790.032,-106.516"/>
</g>
<!-- Node14&#45;&gt;Node12 -->
<g id="edge38" class="edge"><title>Node14&#45;&gt;Node12</title>
<path fill="none" stroke="midnightblue" d="M738.505,-116.492C695.387,-105.85 629.177,-89.5089 586.755,-79.0387"/>
<polygon fill="midnightblue" stroke="midnightblue" points="737.858,-119.937 748.405,-118.935 739.535,-113.141 737.858,-119.937"/>
</g>
<!-- Node15 -->
<g id="node35" class="node"><title>Node15</title>
<a xlink:href="monopoly_8cpp.html" target="_top" xlink:title="Contains the minimal implementation for the monopoly base class.">
<polygon fill="white" stroke="black" points="848.081,-59 848.081,-79 924.081,-79 924.081,-59 848.081,-59"/>
<text text-anchor="middle" x="886.081" y="-66" font-family="FreeSans" font-size="10.00">monopoly.cpp</text>
</a>
</g>
<!-- Node14&#45;&gt;Node15 -->
<g id="edge40" class="edge"><title>Node14&#45;&gt;Node15</title>
<path fill="none" stroke="midnightblue" d="M808.285,-111.973C826.949,-101.663 851.217,-88.2582 867.649,-79.1817"/>
<polygon fill="midnightblue" stroke="midnightblue" points="806.432,-108.998 799.371,-116.897 809.816,-115.126 806.432,-108.998"/>
</g>
<!-- Node17&#45;&gt;Node6 -->
<g id="edge76" class="edge"><title>Node17&#45;&gt;Node6</title>
<path fill="none" stroke="midnightblue" d="M882.06,-341.512C923.806,-298.433 1028.08,-190.297 1028.08,-185 1028.08,-185 1028.08,-185 1028.08,-127 1028.08,-81.255 986.217,-39.515 964.631,-21.0334"/>
<polygon fill="midnightblue" stroke="midnightblue" points="879.481,-339.144 875.032,-348.759 884.506,-344.017 879.481,-339.144"/>
</g>
<!-- Node17&#45;&gt;Node9 -->
<g id="edge78" class="edge"><title>Node17&#45;&gt;Node9</title>
<path fill="none" stroke="midnightblue" d="M817.705,-354.574C771.751,-348.996 700.841,-336.935 644.081,-312 609.645,-296.872 575.146,-268.379 558.078,-253.171"/>
<polygon fill="midnightblue" stroke="midnightblue" points="817.349,-358.057 827.686,-355.732 818.156,-351.103 817.349,-358.057"/>
</g>
<!-- Node17&#45;&gt;Node16 -->
<g id="edge82" class="edge"><title>Node17&#45;&gt;Node16</title>
<path fill="none" stroke="midnightblue" d="M861.427,-338.872C855.848,-312.352 843.213,-265.193 819.081,-232 787.129,-188.051 731.873,-153.28 702.958,-137.024"/>
<polygon fill="midnightblue" stroke="midnightblue" points="858.031,-339.739 863.4,-348.873 864.899,-338.385 858.031,-339.739"/>
</g>
<!-- Node18 -->
<g id="node51" class="node"><title>Node18</title>
<a xlink:href="thread_8h.html" target="_top" xlink:title="This file defines a minimalistic cross&#45;platform thread that the scheduler uses to schedule tasks...">
<polygon fill="white" stroke="black" points="1265.58,-291 1265.58,-311 1316.58,-311 1316.58,-291 1265.58,-291"/>
<text text-anchor="middle" x="1291.08" y="-298" font-family="FreeSans" font-size="10.00">thread.h</text>
</a>
</g>
<!-- Node17&#45;&gt;Node18 -->
<g id="edge66" class="edge"><title>Node17&#45;&gt;Node18</title>
<path fill="none" stroke="midnightblue" d="M912.06,-352.604C1001.97,-340.363 1195.63,-313.996 1265.38,-304.499"/>
<polygon fill="midnightblue" stroke="midnightblue" points="911.577,-349.137 902.141,-353.954 912.521,-356.073 911.577,-349.137"/>
</g>
<!-- Node17&#45;&gt;Node20 -->
<g id="edge80" class="edge"><title>Node17&#45;&gt;Node20</title>
<path fill="none" stroke="midnightblue" d="M895.047,-344.395C916.31,-334.031 944.313,-320.383 963.191,-311.182"/>
<polygon fill="midnightblue" stroke="midnightblue" points="893.265,-341.37 885.809,-348.897 896.332,-347.662 893.265,-341.37"/>
</g>
<!-- Node18&#45;&gt;Node6 -->
<g id="edge70" class="edge"><title>Node18&#45;&gt;Node6</title>
<path fill="none" stroke="midnightblue" d="M1315.16,-285.128C1342.12,-265.233 1382.08,-228.422 1382.08,-185 1382.08,-185 1382.08,-185 1382.08,-127 1382.08,-85.7719 1356.59,-77.1445 1320.08,-58 1266.53,-29.9238 1093.59,-17.7496 1005.18,-13.2539"/>
<polygon fill="midnightblue" stroke="midnightblue" points="1313.05,-282.333 1306.93,-290.98 1317.11,-288.037 1313.05,-282.333"/>
</g>
<!-- Node18&#45;&gt;Node9 -->
<g id="edge68" class="edge"><title>Node18&#45;&gt;Node9</title>
<path fill="none" stroke="midnightblue" d="M1255.49,-298.225C1132.95,-288.673 728.606,-257.151 592.357,-246.53"/>
<polygon fill="midnightblue" stroke="midnightblue" points="1255.23,-301.716 1265.47,-299.004 1255.77,-294.737 1255.23,-301.716"/>
</g>
<!-- Node18&#45;&gt;Node10 -->
<g id="edge74" class="edge"><title>Node18&#45;&gt;Node10</title>
<path fill="none" stroke="midnightblue" d="M1255.37,-296.806C1207.24,-290.551 1119.27,-276.982 1047.08,-254 997.098,-238.088 941.81,-210.184 913.705,-195.2"/>
<polygon fill="midnightblue" stroke="midnightblue" points="1254.94,-300.279 1265.3,-298.065 1255.82,-293.335 1254.94,-300.279"/>
</g>
<!-- Node19 -->
<g id="node55" class="node"><title>Node19</title>
<a xlink:href="thread_8cpp.html" target="_top" xlink:title="This file implements a minimalistic cross&#45;platform thread that the scheduler uses to schedule tasks...">
<polygon fill="white" stroke="black" points="1465.08,-233 1465.08,-253 1527.08,-253 1527.08,-233 1465.08,-233"/>
<text text-anchor="middle" x="1496.08" y="-240" font-family="FreeSans" font-size="10.00">thread.cpp</text>
</a>
</g>
<!-- Node18&#45;&gt;Node19 -->
<g id="edge72" class="edge"><title>Node18&#45;&gt;Node19</title>
<path fill="none" stroke="midnightblue" d="M1326.5,-290.98C1365.49,-279.947 1427.59,-262.378 1464.84,-251.84"/>
<polygon fill="midnightblue" stroke="midnightblue" points="1325.3,-287.681 1316.63,-293.772 1327.21,-294.417 1325.3,-287.681"/>
</g>
<!-- Node22&#45;&gt;Node6 -->
<g id="edge96" class="edge"><title>Node22&#45;&gt;Node6</title>
<path fill="none" stroke="midnightblue" d="M194.534,-339.817C159.533,-281.494 56.5558,-108.525 49.081,-80 46.6025,-70.5416 42.3492,-65.0913 49.081,-58 78.4654,-27.0465 709.737,-14.7635 898.947,-11.769"/>
<polygon fill="midnightblue" stroke="midnightblue" points="191.743,-341.969 199.894,-348.738 197.744,-338.363 191.743,-341.969"/>
</g>
<!-- Node22&#45;&gt;Node12 -->
<g id="edge98" class="edge"><title>Node22&#45;&gt;Node12</title>
<path fill="none" stroke="midnightblue" d="M220.564,-340.514C232.209,-326.119 249.336,-305.967 266.081,-290 360.201,-200.254 488.321,-109.034 531.325,-79.1493"/>
<polygon fill="midnightblue" stroke="midnightblue" points="217.576,-338.646 214.073,-348.645 223.047,-343.013 217.576,-338.646"/>
</g>
<!-- Node22&#45;&gt;Node16 -->
<g id="edge100" class="edge"><title>Node22&#45;&gt;Node16</title>
<path fill="none" stroke="midnightblue" d="M227.357,-342.769C274.843,-307.265 394.121,-222.046 506.081,-174 553.369,-153.707 611.581,-140.349 648.273,-133.23"/>
<polygon fill="midnightblue" stroke="midnightblue" points="225.229,-339.99 219.343,-348.8 229.438,-345.583 225.229,-339.99"/>
</g>
<!-- Node22&#45;&gt;Node23 -->
<g id="edge88" class="edge"><title>Node22&#45;&gt;Node23</title>
<path fill="none" stroke="midnightblue" d="M181.389,-343.262C165.372,-333.054 144.971,-320.051 131.056,-311.182"/>
<polygon fill="midnightblue" stroke="midnightblue" points="179.916,-346.474 190.23,-348.897 183.678,-340.571 179.916,-346.474"/>
</g>
<!-- Node23&#45;&gt;Node6 -->
<g id="edge92" class="edge"><title>Node23&#45;&gt;Node6</title>
<path fill="none" stroke="midnightblue" d="M116.51,-280.857C116.884,-266.835 116.137,-247.879 111.081,-232 84.3493,-148.044 -44.639,-121.845 16.081,-58 46.6709,-25.8356 705.409,-14.3533 899.02,-11.6664"/>
<polygon fill="midnightblue" stroke="midnightblue" points="113.012,-280.736 116.03,-290.892 120.004,-281.071 113.012,-280.736"/>
</g>
<!-- Node23&#45;&gt;Node9 -->
<g id="edge94" class="edge"><title>Node23&#45;&gt;Node9</title>
<path fill="none" stroke="midnightblue" d="M151.153,-296.157C229.663,-285.616 415.875,-260.616 501.98,-249.055"/>
<polygon fill="midnightblue" stroke="midnightblue" points="150.256,-292.746 140.811,-297.546 151.188,-299.684 150.256,-292.746"/>
</g>
<!-- Node24 -->
<g id="node69" class="node"><title>Node24</title>
<a xlink:href="barrier_8cpp.html" target="_top" xlink:title="Contains the implementation for the Mezzanine::Threading::Barrier Barrier synchronization object...">
<polygon fill="white" stroke="black" points="40.081,-233 40.081,-253 102.081,-253 102.081,-233 40.081,-233"/>
<text text-anchor="middle" x="71.081" y="-240" font-family="FreeSans" font-size="10.00">barrier.cpp</text>
</a>
</g>
<!-- Node23&#45;&gt;Node24 -->
<g id="edge90" class="edge"><title>Node23&#45;&gt;Node24</title>
<path fill="none" stroke="midnightblue" d="M101.187,-282.686C93.8525,-273.017 85.12,-261.506 78.9537,-253.378"/>
<polygon fill="midnightblue" stroke="midnightblue" points="98.5845,-285.046 107.417,-290.897 104.161,-280.815 98.5845,-285.046"/>
</g>
<!-- Node25&#45;&gt;Node6 -->
<g id="edge112" class="edge"><title>Node25&#45;&gt;Node6</title>
<path fill="none" stroke="midnightblue" d="M675.73,-282.568C649.845,-246.928 601.459,-167.546 640.081,-116 674.236,-70.416 709.717,-99.9187 763.081,-80 785.067,-71.7936 789.251,-66.612 811.081,-58 847.326,-43.7015 889.869,-29.9187 918.671,-21.018"/>
<polygon fill="midnightblue" stroke="midnightblue" points="672.972,-284.724 681.76,-290.643 678.581,-280.536 672.972,-284.724"/>
</g>
<!-- Node25&#45;&gt;Node9 -->
<g id="edge114" class="edge"><title>Node25&#45;&gt;Node9</title>
<path fill="none" stroke="midnightblue" d="M655.785,-287.09C630.042,-276.649 595.38,-262.59 572.184,-253.182"/>
<polygon fill="midnightblue" stroke="midnightblue" points="654.59,-290.382 665.172,-290.897 657.221,-283.895 654.59,-290.382"/>
</g>
<!-- Node25&#45;&gt;Node10 -->
<g id="edge116" class="edge"><title>Node25&#45;&gt;Node10</title>
<path fill="none" stroke="midnightblue" d="M692.322,-280.815C695.098,-265.342 701.292,-244.572 715.081,-232 736.919,-212.088 819.516,-196.627 864.846,-189.428"/>
<polygon fill="midnightblue" stroke="midnightblue" points="688.823,-280.553 690.845,-290.953 695.75,-281.563 688.823,-280.553"/>
</g>
<!-- Node25&#45;&gt;Node11 -->
<g id="edge110" class="edge"><title>Node25&#45;&gt;Node11</title>
<path fill="none" stroke="midnightblue" d="M686.961,-280.546C685.814,-265.848 686.634,-246.2 696.081,-232 731.814,-178.289 804.206,-150.25 851.39,-137.068"/>
<polygon fill="midnightblue" stroke="midnightblue" points="683.502,-281.11 688.111,-290.65 690.457,-280.318 683.502,-281.11"/>
</g>
<!-- Node26 -->
<g id="node85" class="node"><title>Node26</title>
<a xlink:href="workunitkey_8cpp.html" target="_top" xlink:title="This file declares the functionality of the metadata used to sort the iWorkUnits.">
<polygon fill="white" stroke="black" points="724.081,-233 724.081,-253 810.081,-253 810.081,-233 724.081,-233"/>
<text text-anchor="middle" x="767.081" y="-240" font-family="FreeSans" font-size="10.00">workunitkey.cpp</text>
</a>
</g>
<!-- Node25&#45;&gt;Node26 -->
<g id="edge118" class="edge"><title>Node25&#45;&gt;Node26</title>
<path fill="none" stroke="midnightblue" d="M711.738,-284.687C725.171,-274.569 742.009,-261.885 753.564,-253.182"/>
<polygon fill="midnightblue" stroke="midnightblue" points="709.375,-282.085 703.493,-290.897 713.587,-287.676 709.375,-282.085"/>
</g>
<!-- Node27&#45;&gt;Node6 -->
<g id="edge124" class="edge"><title>Node27&#45;&gt;Node6</title>
<path fill="none" stroke="midnightblue" d="M1224.09,-224.568C1197.68,-188.281 1134.28,-106.868 1064.08,-58 1040.11,-41.3142 1009.3,-28.9261 986.057,-21.0694"/>
<polygon fill="midnightblue" stroke="midnightblue" points="1221.3,-226.697 1229.98,-232.774 1226.99,-222.611 1221.3,-226.697"/>
</g>
<!-- Node27&#45;&gt;Node10 -->
<g id="edge126" class="edge"><title>Node27&#45;&gt;Node10</title>
<path fill="none" stroke="midnightblue" d="M1185.35,-231.74C1084.75,-212.822 976.91,-196.728 925.446,-189.305"/>
<polygon fill="midnightblue" stroke="midnightblue" points="1184.9,-235.216 1195.38,-233.639 1186.2,-228.338 1184.9,-235.216"/>
</g>
<!-- Node28&#45;&gt;Node6 -->
<g id="edge130" class="edge"><title>Node28&#45;&gt;Node6</title>
<path fill="none" stroke="midnightblue" d="M1113.66,-222.88C1106.48,-186.045 1086.64,-107.057 1042.08,-58 1026.32,-40.6452 1002.64,-28.6372 983.53,-21.1047"/>
<polygon fill="midnightblue" stroke="midnightblue" points="1110.25,-223.676 1115.5,-232.879 1117.14,-222.411 1110.25,-223.676"/>
</g>
<!-- Node28&#45;&gt;Node10 -->
<g id="edge132" class="edge"><title>Node28&#45;&gt;Node10</title>
<path fill="none" stroke="midnightblue" d="M1068.83,-230.393C1025.13,-218.977 962.115,-202.513 925.202,-192.869"/>
<polygon fill="midnightblue" stroke="midnightblue" points="1068.11,-233.822 1078.67,-232.963 1069.87,-227.049 1068.11,-233.822"/>
</g>
<!-- Node29&#45;&gt;Node18 -->
<g id="edge138" class="edge"><title>Node29&#45;&gt;Node18</title>
<path fill="none" stroke="midnightblue" d="M1384.11,-398.036C1374.62,-383.633 1360.57,-363.695 1346.08,-348 1333.13,-333.971 1316.17,-320.032 1304.53,-311.022"/>
<polygon fill="midnightblue" stroke="midnightblue" points="1381.29,-400.108 1389.66,-406.602 1387.16,-396.305 1381.29,-400.108"/>
</g>
<!-- Node29&#45;&gt;Node19 -->
<g id="edge156" class="edge"><title>Node29&#45;&gt;Node19</title>
<path fill="none" stroke="midnightblue" d="M1428.53,-402.194C1444.03,-394.108 1462.19,-383.073 1476.08,-370 1498.7,-348.713 1506.02,-341.713 1515.08,-312 1521.39,-291.321 1510.34,-266.876 1502.62,-253.338"/>
<polygon fill="midnightblue" stroke="midnightblue" points="1426.64,-399.223 1419.28,-406.839 1429.78,-405.479 1426.64,-399.223"/>
</g>
<!-- Node29&#45;&gt;Node20 -->
<g id="edge154" class="edge"><title>Node29&#45;&gt;Node20</title>
<path fill="none" stroke="midnightblue" d="M1377.83,-399.789C1358.02,-381.486 1327.31,-354.314 1313.08,-348 1262.52,-325.559 1103.12,-310.367 1026.29,-304.155"/>
<polygon fill="midnightblue" stroke="midnightblue" points="1375.62,-402.517 1385.33,-406.771 1380.39,-397.395 1375.62,-402.517"/>
</g>
<!-- Node29&#45;&gt;Node21 -->
<g id="edge150" class="edge"><title>Node29&#45;&gt;Node21</title>
<path fill="none" stroke="midnightblue" d="M1361.07,-403.09C1334.78,-392.649 1299.39,-378.59 1275.71,-369.182"/>
<polygon fill="midnightblue" stroke="midnightblue" points="1360.06,-406.458 1370.65,-406.897 1362.65,-399.952 1360.06,-406.458"/>
</g>
<!-- Node30 -->
<g id="node100" class="node"><title>Node30</title>
<a xlink:href="mutex_8h.html" target="_top" xlink:title="This file declares and defines a mutex that is a partial implementation.">
<polygon fill="white" stroke="black" points="1398.08,-349 1398.08,-369 1448.08,-369 1448.08,-349 1398.08,-349"/>
<text text-anchor="middle" x="1423.08" y="-356" font-family="FreeSans" font-size="10.00">mutex.h</text>
</a>
</g>
<!-- Node29&#45;&gt;Node30 -->
<g id="edge140" class="edge"><title>Node29&#45;&gt;Node30</title>
<path fill="none" stroke="midnightblue" d="M1405.02,-397.793C1409.43,-388.315 1414.58,-377.257 1418.25,-369.378"/>
<polygon fill="midnightblue" stroke="midnightblue" points="1401.83,-396.354 1400.78,-406.897 1408.18,-399.308 1401.83,-396.354"/>
</g>
<!-- Node31 -->
<g id="node104" class="node"><title>Node31</title>
<a xlink:href="mutex_8cpp.html" target="_top" xlink:title="Contains the implementation for the Mezzanine::Threading::Mutex Mutex synchronization object...">
<polygon fill="white" stroke="black" points="1445.58,-291 1445.58,-311 1506.58,-311 1506.58,-291 1445.58,-291"/>
<text text-anchor="middle" x="1476.08" y="-298" font-family="FreeSans" font-size="10.00">mutex.cpp</text>
</a>
</g>
<!-- Node29&#45;&gt;Node31 -->
<g id="edge152" class="edge"><title>Node29&#45;&gt;Node31</title>
<path fill="none" stroke="midnightblue" d="M1423.74,-401.328C1435.57,-393.347 1448.59,-382.646 1457.08,-370 1469.41,-351.641 1473.78,-325.454 1475.3,-311.2"/>
<polygon fill="midnightblue" stroke="midnightblue" points="1421.56,-398.561 1415.01,-406.888 1425.33,-404.464 1421.56,-398.561"/>
</g>
<!-- Node30&#45;&gt;Node6 -->
<g id="edge144" class="edge"><title>Node30&#45;&gt;Node6</title>
<path fill="none" stroke="midnightblue" d="M1422.51,-338.788C1421.64,-306.354 1420.08,-240.674 1420.08,-185 1420.08,-185 1420.08,-185 1420.08,-127 1420.08,-84.2547 1391.41,-76.915 1353.08,-58 1293.13,-28.4174 1099.88,-16.8254 1005.27,-12.8381"/>
<polygon fill="midnightblue" stroke="midnightblue" points="1419.01,-338.903 1422.78,-348.803 1426.01,-338.71 1419.01,-338.903"/>
</g>
<!-- Node30&#45;&gt;Node10 -->
<g id="edge148" class="edge"><title>Node30&#45;&gt;Node10</title>
<path fill="none" stroke="midnightblue" d="M1409.68,-340.497C1387.7,-311.753 1341,-257.074 1287.08,-232 1222.68,-202.051 1005.63,-189.79 925.306,-186.206"/>
<polygon fill="midnightblue" stroke="midnightblue" points="1407.13,-342.937 1415.92,-348.848 1412.74,-338.744 1407.13,-342.937"/>
</g>
<!-- Node30&#45;&gt;Node18 -->
<g id="edge142" class="edge"><title>Node30&#45;&gt;Node18</title>
<path fill="none" stroke="midnightblue" d="M1390.79,-344.813C1367.1,-334.401 1335.48,-320.507 1314.25,-311.182"/>
<polygon fill="midnightblue" stroke="midnightblue" points="1389.53,-348.079 1400.09,-348.897 1392.34,-341.67 1389.53,-348.079"/>
</g>
<!-- Node30&#45;&gt;Node31 -->
<g id="edge146" class="edge"><title>Node30&#45;&gt;Node31</title>
<path fill="none" stroke="midnightblue" d="M1439.28,-341.275C1448.22,-331.488 1459.02,-319.672 1466.6,-311.378"/>
<polygon fill="midnightblue" stroke="midnightblue" points="1436.47,-339.154 1432.31,-348.897 1441.64,-343.876 1436.47,-339.154"/>
</g>
</g>
</svg>
