<?xml version="1.0" encoding="UTF-8" standalone="no"?>
<!DOCTYPE svg PUBLIC "-//W3C//DTD SVG 1.1//EN"
 "http://www.w3.org/Graphics/SVG/1.1/DTD/svg11.dtd">
<!-- Generated by graphviz version 2.26.3 (20100126.1600)
 -->
<!-- Title: G Pages: 1 -->
<!--zoomable 512 -->
<svg id="main" version="1.1" xmlns="http://www.w3.org/2000/svg" xmlns:xlink="http://www.w3.org/1999/xlink" xml:space="preserve" onload="init(evt)">
        <defs>
                <circle id="rim" cx="0" cy="0" r="7"/>
                <circle id="rim2" cx="0" cy="0" r="3.5"/>
                <g id="zoomPlus">
                        <use xlink:href="#rim" fill="#404040">
                                <set attributeName="fill" to="#808080" begin="zoomplus.mouseover" end="zoomplus.mouseout"/>
                        </use>
                        <path d="M-4,0h8M0,-4v8" fill="none" stroke="white" stroke-width="1.5" pointer-events="none"/>
                </g>
                <g id="zoomMin">
                        <use xlink:href="#rim" fill="#404040">
                                <set attributeName="fill" to="#808080" begin="zoomminus.mouseover" end="zoomminus.mouseout"/>
                        </use>
                        <path d="M-4,0h8" fill="none" stroke="white" stroke-width="1.5" pointer-events="none"/>
                </g>
                <g id="dirArrow">
                        <path fill="none" stroke="white" stroke-width="1.5" d="M0,-3.0v7 M-2.5,-0.5L0,-3.0L2.5,-0.5"/>
                </g>
               <g id="resetDef">
                       <use xlink:href="#rim2" fill="#404040">
                               <set attributeName="fill" to="#808080" begin="reset.mouseover" end="reset.mouseout"/>
                       </use>
               </g>
        </defs>

<script type="text/javascript">
var viewWidth = 1053;
var viewHeight = 512;
var sectionId = 'dynsection-0';
</script>
<script xlink:href="svgpan.js"/>
<svg id="graph" class="graph">
<g id="viewport">
<title>G</title>
<polygon fill="white" stroke="white" points="-4,5 -4,-508 1050,-508 1050,5 -4,5"/>
<!-- Node1 -->
<g id="node1" class="node"><title>Node1</title>
<polygon fill="#bfbfbf" stroke="black" points="504,-481 504,-503 616,-503 616,-481 504,-481"/>
<text text-anchor="middle" x="560" y="-490" font-family="FreeSans" font-size="10.00">dagframescheduler.h</text>
</g>
<!-- Node2 -->
<g id="node3" class="node"><title>Node2</title>
<a xlink:href="asynchronousworkunit_8h.html" target="_top" xlink:title="Contains an interface for a kind of WorkUnit that loads or writes a.">
<polygon fill="white" stroke="black" points="148.5,-421 148.5,-443 271.5,-443 271.5,-421 148.5,-421"/>
<text text-anchor="middle" x="210" y="-430" font-family="FreeSans" font-size="10.00">asynchronousworkunit.h</text>
</a>
</g>
<!-- Node1&#45;&gt;Node2 -->
<g id="edge2" class="edge"><title>Node1&#45;&gt;Node2</title>
<path fill="none" stroke="midnightblue" d="M503.766,-482.36C443.388,-472.009 347.296,-455.536 281.567,-444.269"/>
<polygon fill="midnightblue" stroke="midnightblue" points="282.141,-440.816 271.694,-442.576 280.958,-447.715 282.141,-440.816"/>
</g>
<!-- Node3 -->
<g id="node5" class="node"><title>Node3</title>
<a xlink:href="datatypes_8h.html" target="_top" xlink:title="This file declares a few typedefs to allow flexibility, in case a change is required/desired.">
<polygon fill="white" stroke="black" points="400,-121 400,-143 468,-143 468,-121 400,-121"/>
<text text-anchor="middle" x="434" y="-130" font-family="FreeSans" font-size="10.00">datatypes.h</text>
</a>
</g>
<!-- Node1&#45;&gt;Node3 -->
<g id="edge76" class="edge"><title>Node1&#45;&gt;Node3</title>
<path fill="none" stroke="midnightblue" d="M503.685,-489.078C400.557,-483.207 185.489,-468.413 115,-444 58.0187,-424.265 3.55271e-15,-432.302 0,-372 0,-372 0,-372 0,-252 3.55271e-15,-210.345 23.4816,-200.038 60,-180 115.908,-149.323 303.34,-137.538 389.72,-133.657"/>
<polygon fill="midnightblue" stroke="midnightblue" points="389.899,-137.153 399.738,-133.223 389.596,-130.16 389.899,-137.153"/>
</g>
<!-- Node4 -->
<g id="node7" class="node"><title>Node4</title>
<a xlink:href="compilerthreadcompat_8h.html" target="_top" xlink:title="This file determines what features are offered by the compiler that this library can take advantage o...">
<polygon fill="white" stroke="black" points="599,-61 599,-83 723,-83 723,-61 599,-61"/>
<text text-anchor="middle" x="661" y="-70" font-family="FreeSans" font-size="10.00">compilerthreadcompat.h</text>
</a>
</g>
<!-- Node1&#45;&gt;Node4 -->
<g id="edge74" class="edge"><title>Node1&#45;&gt;Node4</title>
<path fill="none" stroke="midnightblue" d="M616.109,-489.905C743.776,-483.614 1045,-459.499 1045,-372 1045,-372 1045,-372 1045,-192 1045,-127.401 844.516,-93.5042 733.272,-79.6678"/>
<polygon fill="midnightblue" stroke="midnightblue" points="733.473,-76.1665 723.123,-78.4303 732.626,-83.1151 733.473,-76.1665"/>
</g>
<!-- Node11 -->
<g id="node21" class="node"><title>Node11</title>
<a xlink:href="workunit_8h.html" target="_top" xlink:title="This file has the defintion of the workunit.">
<polygon fill="white" stroke="black" points="498.5,-361 498.5,-383 559.5,-383 559.5,-361 498.5,-361"/>
<text text-anchor="middle" x="529" y="-370" font-family="FreeSans" font-size="10.00">workunit.h</text>
</a>
</g>
<!-- Node1&#45;&gt;Node11 -->
<g id="edge112" class="edge"><title>Node1&#45;&gt;Node11</title>
<path fill="none" stroke="midnightblue" d="M557.139,-480.926C551.972,-460.923 541.005,-418.472 534.392,-392.872"/>
<polygon fill="midnightblue" stroke="midnightblue" points="537.744,-391.854 531.854,-383.047 530.966,-393.605 537.744,-391.854"/>
</g>
<!-- Node12 -->
<g id="node24" class="node"><title>Node12</title>
<a xlink:href="framescheduler_8h.html" target="_top" xlink:title="This file has the Declarations for the main FrameScheduler class.">
<polygon fill="white" stroke="black" points="242,-301 242,-323 336,-323 336,-301 242,-301"/>
<text text-anchor="middle" x="289" y="-310" font-family="FreeSans" font-size="10.00">framescheduler.h</text>
</a>
</g>
<!-- Node1&#45;&gt;Node12 -->
<g id="edge88" class="edge"><title>Node1&#45;&gt;Node12</title>
<path fill="none" stroke="midnightblue" d="M503.755,-487.434C442.093,-481.283 348.503,-468.203 323,-444 292.542,-415.093 287.972,-362.84 288.036,-333.494"/>
<polygon fill="midnightblue" stroke="midnightblue" points="291.543,-333.199 288.256,-323.126 284.544,-333.05 291.543,-333.199"/>
</g>
<!-- Node13 -->
<g id="node27" class="node"><title>Node13</title>
<a xlink:href="thread_8h.html" target="_top" xlink:title="This file defines a minimalistic cross&#45;platform thread that the scheduler uses to schedule tasks...">
<polygon fill="white" stroke="black" points="519.5,-241 519.5,-263 572.5,-263 572.5,-241 519.5,-241"/>
<text text-anchor="middle" x="546" y="-250" font-family="FreeSans" font-size="10.00">thread.h</text>
</a>
</g>
<!-- Node1&#45;&gt;Node13 -->
<g id="edge108" class="edge"><title>Node1&#45;&gt;Node13</title>
<path fill="none" stroke="midnightblue" d="M589.982,-480.917C606.143,-473.223 624.643,-461.223 634,-444 639.092,-434.627 636.549,-430.358 634,-420 619.67,-361.761 581.179,-301.343 560.165,-271.334"/>
<polygon fill="midnightblue" stroke="midnightblue" points="562.904,-269.146 554.251,-263.033 557.203,-273.208 562.904,-269.146"/>
</g>
<!-- Node14 -->
<g id="node30" class="node"><title>Node14</title>
<a xlink:href="systemcalls_8h.html" target="_top" xlink:title="This file defines a minimalistic cross&#45;platform thread that the scheduler uses to schedule tasks...">
<polygon fill="white" stroke="black" points="255.5,-181 255.5,-203 332.5,-203 332.5,-181 255.5,-181"/>
<text text-anchor="middle" x="294" y="-190" font-family="FreeSans" font-size="10.00">systemcalls.h</text>
</a>
</g>
<!-- Node1&#45;&gt;Node14 -->
<g id="edge106" class="edge"><title>Node1&#45;&gt;Node14</title>
<path fill="none" stroke="midnightblue" d="M503.775,-488.853C395.892,-482.342 167.993,-466.134 140,-444 113.312,-422.899 114,-406.023 114,-372 114,-372 114,-372 114,-312 114,-278.905 109.972,-263.77 133,-240 148.655,-223.84 203.915,-209.725 245.358,-201.059"/>
<polygon fill="midnightblue" stroke="midnightblue" points="246.2,-204.459 255.297,-199.028 244.799,-197.601 246.2,-204.459"/>
</g>
<!-- Node15 -->
<g id="node33" class="node"><title>Node15</title>
<a xlink:href="mutex_8h.html" target="_top" xlink:title="This file declares and defines a mutex that is a partial implementation.">
<polygon fill="white" stroke="black" points="779.5,-181 779.5,-203 830.5,-203 830.5,-181 779.5,-181"/>
<text text-anchor="middle" x="805" y="-190" font-family="FreeSans" font-size="10.00">mutex.h</text>
</a>
</g>
<!-- Node1&#45;&gt;Node15 -->
<g id="edge102" class="edge"><title>Node1&#45;&gt;Node15</title>
<path fill="none" stroke="midnightblue" d="M616.16,-488.725C736.215,-480.185 1007,-452.051 1007,-372 1007,-372 1007,-372 1007,-312 1007,-271.46 984.219,-263.236 951,-240 910.666,-211.787 890.924,-219.592 840.398,-204.265"/>
<polygon fill="midnightblue" stroke="midnightblue" points="841.184,-200.842 830.593,-201.12 839.046,-207.507 841.184,-200.842"/>
</g>
<!-- Node18 -->
<g id="node41" class="node"><title>Node18</title>
<a xlink:href="workunitkey_8h.html" target="_top" xlink:title="This file defines the metadata used to sort workunits.">
<polygon fill="white" stroke="black" points="387.5,-241 387.5,-263 464.5,-263 464.5,-241 387.5,-241"/>
<text text-anchor="middle" x="426" y="-250" font-family="FreeSans" font-size="10.00">workunitkey.h</text>
</a>
</g>
<!-- Node1&#45;&gt;Node18 -->
<g id="edge114" class="edge"><title>Node1&#45;&gt;Node18</title>
<path fill="none" stroke="midnightblue" d="M503.833,-486.531C449.947,-479.985 374.156,-466.924 356,-444 313.198,-389.958 375.696,-307.344 408.305,-270.663"/>
<polygon fill="midnightblue" stroke="midnightblue" points="410.99,-272.912 415.133,-263.161 405.813,-268.201 410.99,-272.912"/>
</g>
<!-- Node22 -->
<g id="node52" class="node"><title>Node22</title>
<a xlink:href="rollingaverage_8h.html" target="_top" xlink:title="This Store the implementation and the declaration of the RollingAverage, BufferedRollingAverage, WeightedRollingAverage and the DefaultRollingAverage.">
<polygon fill="white" stroke="black" points="632.5,-301 632.5,-323 721.5,-323 721.5,-301 632.5,-301"/>
<text text-anchor="middle" x="677" y="-310" font-family="FreeSans" font-size="10.00">rollingaverage.h</text>
</a>
</g>
<!-- Node1&#45;&gt;Node22 -->
<g id="edge104" class="edge"><title>Node1&#45;&gt;Node22</title>
<path fill="none" stroke="midnightblue" d="M611.871,-480.95C632.365,-473.87 654.068,-462.41 667,-444 690.208,-410.961 686.272,-361.104 681.518,-333.071"/>
<polygon fill="midnightblue" stroke="midnightblue" points="684.94,-332.328 679.643,-323.152 678.062,-333.628 684.94,-332.328"/>
</g>
<!-- Node23 -->
<g id="node56" class="node"><title>Node23</title>
<a xlink:href="threadingenumerations_8h.html" target="_top" xlink:title="Any enumerations the threading library requires are all declared here.">
<polygon fill="white" stroke="black" points="814.5,-301 814.5,-323 941.5,-323 941.5,-301 814.5,-301"/>
<text text-anchor="middle" x="878" y="-310" font-family="FreeSans" font-size="10.00">threadingenumerations.h</text>
</a>
</g>
<!-- Node1&#45;&gt;Node23 -->
<g id="edge110" class="edge"><title>Node1&#45;&gt;Node23</title>
<path fill="none" stroke="midnightblue" d="M595.768,-480.896C644.922,-464.583 734.78,-430.913 801,-384 823.382,-368.143 845.949,-346.175 860.813,-330.686"/>
<polygon fill="midnightblue" stroke="midnightblue" points="863.52,-332.917 867.841,-323.244 858.431,-328.111 863.52,-332.917"/>
</g>
<!-- Node24 -->
<g id="node63" class="node"><title>Node24</title>
<a xlink:href="doublebufferedresource_8h.html" target="_top" xlink:title="This file defines the template double buffered resources that can be attached to a thread...">
<polygon fill="white" stroke="black" points="811.5,-241 811.5,-263 942.5,-263 942.5,-241 811.5,-241"/>
<text text-anchor="middle" x="877" y="-250" font-family="FreeSans" font-size="10.00">doublebufferedresource.h</text>
</a>
</g>
<!-- Node1&#45;&gt;Node24 -->
<g id="edge78" class="edge"><title>Node1&#45;&gt;Node24</title>
<path fill="none" stroke="midnightblue" d="M616.195,-487.592C706.31,-477.075 880.097,-441.755 950,-324 963.434,-301.37 937.004,-280.864 912.274,-267.577"/>
<polygon fill="midnightblue" stroke="midnightblue" points="913.816,-264.435 903.317,-263.018 910.641,-270.674 913.816,-264.435"/>
</g>
<!-- Node27 -->
<g id="node72" class="node"><title>Node27</title>
<a xlink:href="frameschedulerworkunits_8h.html" target="_top" xlink:title="This defines a number of workunits that are required for doing some tasks that the Framescheduler req...">
<polygon fill="white" stroke="black" points="365,-421 365,-443 501,-443 501,-421 365,-421"/>
<text text-anchor="middle" x="433" y="-430" font-family="FreeSans" font-size="10.00">frameschedulerworkunits.h</text>
</a>
</g>
<!-- Node1&#45;&gt;Node27 -->
<g id="edge90" class="edge"><title>Node1&#45;&gt;Node27</title>
<path fill="none" stroke="midnightblue" d="M536.706,-480.995C516.781,-471.582 487.884,-457.929 465.651,-447.426"/>
<polygon fill="midnightblue" stroke="midnightblue" points="467.113,-444.245 456.576,-443.138 464.123,-450.575 467.113,-444.245"/>
</g>
<!-- Node28 -->
<g id="node76" class="node"><title>Node28</title>
<a xlink:href="monopoly_8h.html" target="_top" xlink:title="Contains an interface for a kind of WorkUnit that consumes time on multiple thread.">
<polygon fill="white" stroke="black" points="557,-421 557,-443 625,-443 625,-421 557,-421"/>
<text text-anchor="middle" x="591" y="-430" font-family="FreeSans" font-size="10.00">monopoly.h</text>
</a>
</g>
<!-- Node1&#45;&gt;Node28 -->
<g id="edge96" class="edge"><title>Node1&#45;&gt;Node28</title>
<path fill="none" stroke="midnightblue" d="M565.686,-480.995C569.828,-472.977 575.56,-461.884 580.522,-452.281"/>
<polygon fill="midnightblue" stroke="midnightblue" points="583.659,-453.834 585.14,-443.343 577.44,-450.621 583.659,-453.834"/>
</g>
<!-- Node2&#45;&gt;Node3 -->
<g id="edge4" class="edge"><title>Node2&#45;&gt;Node3</title>
<path fill="none" stroke="midnightblue" d="M163,-420.894C112.074,-405.734 38,-373.169 38,-312 38,-312 38,-312 38,-252 38,-204.822 73.4698,-200.42 116,-180 163.531,-157.179 314.014,-141.905 389.67,-135.463"/>
<polygon fill="midnightblue" stroke="midnightblue" points="390.157,-138.935 399.83,-134.613 389.573,-131.959 390.157,-138.935"/>
</g>
<!-- Node2&#45;&gt;Node11 -->
<g id="edge20" class="edge"><title>Node2&#45;&gt;Node11</title>
<path fill="none" stroke="midnightblue" d="M268.51,-420.995C332.347,-408.988 432.849,-390.085 488.511,-379.616"/>
<polygon fill="midnightblue" stroke="midnightblue" points="489.183,-383.051 498.363,-377.762 487.889,-376.171 489.183,-383.051"/>
</g>
<!-- Node3&#45;&gt;Node4 -->
<g id="edge6" class="edge"><title>Node3&#45;&gt;Node4</title>
<path fill="none" stroke="midnightblue" d="M468.476,-122.887C505.988,-112.972 566.361,-97.0148 609.497,-85.6131"/>
<polygon fill="midnightblue" stroke="midnightblue" points="610.471,-88.9759 619.245,-83.0366 608.682,-82.2083 610.471,-88.9759"/>
</g>
<!-- Node9 -->
<g id="node17" class="node"><title>Node9</title>
<polygon fill="white" stroke="#bfbfbf" points="486.5,-61 486.5,-83 527.5,-83 527.5,-61 486.5,-61"/>
<text text-anchor="middle" x="507" y="-70" font-family="FreeSans" font-size="10.00">string</text>
</g>
<!-- Node3&#45;&gt;Node9 -->
<g id="edge16" class="edge"><title>Node3&#45;&gt;Node9</title>
<path fill="none" stroke="midnightblue" d="M447.389,-120.995C458.024,-112.254 473.106,-99.858 485.438,-89.7219"/>
<polygon fill="midnightblue" stroke="midnightblue" points="487.945,-92.1919 493.448,-83.1383 483.501,-86.7841 487.945,-92.1919"/>
</g>
<!-- Node10 -->
<g id="node19" class="node"><title>Node10</title>
<polygon fill="white" stroke="#bfbfbf" points="410.5,-61 410.5,-83 457.5,-83 457.5,-61 410.5,-61"/>
<text text-anchor="middle" x="434" y="-70" font-family="FreeSans" font-size="10.00">stdint.h</text>
</g>
<!-- Node3&#45;&gt;Node10 -->
<g id="edge18" class="edge"><title>Node3&#45;&gt;Node10</title>
<path fill="none" stroke="midnightblue" d="M434,-120.995C434,-113.311 434,-102.803 434,-93.4884"/>
<polygon fill="midnightblue" stroke="midnightblue" points="437.5,-93.3428 434,-83.3428 430.5,-93.3429 437.5,-93.3428"/>
</g>
<!-- Node5 -->
<g id="node9" class="node"><title>Node5</title>
<polygon fill="white" stroke="#bfbfbf" points="525,-1 525,-23 583,-23 583,-1 525,-1"/>
<text text-anchor="middle" x="554" y="-10" font-family="FreeSans" font-size="10.00">pthread.h</text>
</g>
<!-- Node4&#45;&gt;Node5 -->
<g id="edge8" class="edge"><title>Node4&#45;&gt;Node5</title>
<path fill="none" stroke="midnightblue" d="M641.375,-60.9951C624.962,-51.7917 601.324,-38.5366 582.772,-28.1336"/>
<polygon fill="midnightblue" stroke="midnightblue" points="584.298,-24.9766 573.863,-23.1383 580.874,-31.0822 584.298,-24.9766"/>
</g>
<!-- Node6 -->
<g id="node11" class="node"><title>Node6</title>
<polygon fill="white" stroke="#bfbfbf" points="600.5,-1 600.5,-23 651.5,-23 651.5,-1 600.5,-1"/>
<text text-anchor="middle" x="626" y="-10" font-family="FreeSans" font-size="10.00">signal.h</text>
</g>
<!-- Node4&#45;&gt;Node6 -->
<g id="edge10" class="edge"><title>Node4&#45;&gt;Node6</title>
<path fill="none" stroke="midnightblue" d="M654.58,-60.9951C649.855,-52.8936 643.297,-41.6525 637.656,-31.981"/>
<polygon fill="midnightblue" stroke="midnightblue" points="640.679,-30.2171 632.617,-23.3428 634.632,-33.7442 640.679,-30.2171"/>
</g>
<!-- Node7 -->
<g id="node13" class="node"><title>Node7</title>
<polygon fill="white" stroke="#bfbfbf" points="669,-1 669,-23 721,-23 721,-1 669,-1"/>
<text text-anchor="middle" x="695" y="-10" font-family="FreeSans" font-size="10.00">sched.h</text>
</g>
<!-- Node4&#45;&gt;Node7 -->
<g id="edge12" class="edge"><title>Node4&#45;&gt;Node7</title>
<path fill="none" stroke="midnightblue" d="M667.236,-60.9951C671.78,-52.9771 678.066,-41.884 683.508,-32.2806"/>
<polygon fill="midnightblue" stroke="midnightblue" points="686.687,-33.7686 688.572,-23.3428 680.597,-30.3175 686.687,-33.7686"/>
</g>
<!-- Node8 -->
<g id="node15" class="node"><title>Node8</title>
<polygon fill="white" stroke="#bfbfbf" points="739,-1 739,-23 789,-23 789,-1 739,-1"/>
<text text-anchor="middle" x="764" y="-10" font-family="FreeSans" font-size="10.00">unistd.h</text>
</g>
<!-- Node4&#45;&gt;Node8 -->
<g id="edge14" class="edge"><title>Node4&#45;&gt;Node8</title>
<path fill="none" stroke="midnightblue" d="M679.892,-60.9951C695.619,-51.8337 718.238,-38.6576 736.059,-28.2763"/>
<polygon fill="midnightblue" stroke="midnightblue" points="738,-31.1962 744.879,-23.1383 734.477,-25.1476 738,-31.1962"/>
</g>
<!-- Node11&#45;&gt;Node3 -->
<g id="edge22" class="edge"><title>Node11&#45;&gt;Node3</title>
<path fill="none" stroke="midnightblue" d="M524.545,-360.746C509.679,-323.189 461.618,-201.773 442.226,-152.782"/>
<polygon fill="midnightblue" stroke="midnightblue" points="445.38,-151.239 438.445,-143.229 438.871,-153.816 445.38,-151.239"/>
</g>
<!-- Node11&#45;&gt;Node12 -->
<g id="edge24" class="edge"><title>Node11&#45;&gt;Node12</title>
<path fill="none" stroke="midnightblue" d="M498.116,-364.279C458.993,-354.498 390.92,-337.48 343.094,-325.523"/>
<polygon fill="midnightblue" stroke="midnightblue" points="343.763,-322.083 333.213,-323.053 342.066,-328.874 343.763,-322.083"/>
</g>
<!-- Node11&#45;&gt;Node13 -->
<g id="edge68" class="edge"><title>Node11&#45;&gt;Node13</title>
<path fill="none" stroke="midnightblue" d="M530.569,-360.926C533.39,-341.012 539.363,-298.851 542.994,-273.216"/>
<polygon fill="midnightblue" stroke="midnightblue" points="546.498,-273.44 544.435,-263.047 539.567,-272.458 546.498,-273.44"/>
</g>
<!-- Node11&#45;&gt;Node15 -->
<g id="edge58" class="edge"><title>Node11&#45;&gt;Node15</title>
<path fill="none" stroke="midnightblue" d="M559.883,-367.691C609.304,-360.298 703.323,-344.04 730,-324 767.726,-295.661 789.364,-242.409 798.967,-212.944"/>
<polygon fill="midnightblue" stroke="midnightblue" points="802.352,-213.842 801.968,-203.254 795.666,-211.771 802.352,-213.842"/>
</g>
<!-- Node17 -->
<g id="node39" class="node"><title>Node17</title>
<polygon fill="white" stroke="#bfbfbf" points="604,-181 604,-203 648,-203 648,-181 604,-181"/>
<text text-anchor="middle" x="626" y="-190" font-family="FreeSans" font-size="10.00">vector</text>
</g>
<!-- Node11&#45;&gt;Node17 -->
<g id="edge72" class="edge"><title>Node11&#45;&gt;Node17</title>
<path fill="none" stroke="midnightblue" d="M535.068,-360.74C551.059,-331.066 594.529,-250.4 615.026,-212.364"/>
<polygon fill="midnightblue" stroke="midnightblue" points="618.272,-213.719 619.935,-203.256 612.109,-210.398 618.272,-213.719"/>
</g>
<!-- Node11&#45;&gt;Node18 -->
<g id="edge70" class="edge"><title>Node11&#45;&gt;Node18</title>
<path fill="none" stroke="midnightblue" d="M515.452,-360.873C504.506,-351.569 489.001,-337.66 477,-324 462.348,-307.323 447.941,-286.454 438.197,-271.483"/>
<polygon fill="midnightblue" stroke="midnightblue" points="441.114,-269.547 432.772,-263.015 435.219,-273.323 441.114,-269.547"/>
</g>
<!-- Node11&#45;&gt;Node22 -->
<g id="edge60" class="edge"><title>Node11&#45;&gt;Node22</title>
<path fill="none" stroke="midnightblue" d="M556.145,-360.995C579.75,-351.426 614.161,-337.475 640.232,-326.906"/>
<polygon fill="midnightblue" stroke="midnightblue" points="641.824,-330.037 649.776,-323.037 639.194,-323.55 641.824,-330.037"/>
</g>
<!-- Node11&#45;&gt;Node23 -->
<g id="edge66" class="edge"><title>Node11&#45;&gt;Node23</title>
<path fill="none" stroke="midnightblue" d="M559.666,-366.728C613.948,-357.396 728.363,-337.726 804.2,-324.688"/>
<polygon fill="midnightblue" stroke="midnightblue" points="804.91,-328.117 814.173,-322.973 803.724,-321.218 804.91,-328.117"/>
</g>
<!-- Node12&#45;&gt;Node3 -->
<g id="edge26" class="edge"><title>Node12&#45;&gt;Node3</title>
<path fill="none" stroke="midnightblue" d="M298.07,-300.74C322.178,-270.814 388.065,-189.023 418.37,-151.402"/>
<polygon fill="midnightblue" stroke="midnightblue" points="421.385,-153.239 424.933,-143.256 415.934,-148.847 421.385,-153.239"/>
</g>
<!-- Node12&#45;&gt;Node13 -->
<g id="edge28" class="edge"><title>Node12&#45;&gt;Node13</title>
<path fill="none" stroke="midnightblue" d="M336.138,-300.995C386.119,-289.326 463.999,-271.144 509.506,-260.52"/>
<polygon fill="midnightblue" stroke="midnightblue" points="510.308,-263.927 519.25,-258.245 508.716,-257.11 510.308,-263.927"/>
</g>
<!-- Node12&#45;&gt;Node14 -->
<g id="edge50" class="edge"><title>Node12&#45;&gt;Node14</title>
<path fill="none" stroke="midnightblue" d="M293.266,-300.756C296.669,-291.154 301.159,-276.89 303,-264 305.442,-246.907 302.689,-227.479 299.604,-213.115"/>
<polygon fill="midnightblue" stroke="midnightblue" points="302.975,-212.162 297.261,-203.24 296.164,-213.778 302.975,-212.162"/>
</g>
<!-- Node12&#45;&gt;Node18 -->
<g id="edge46" class="edge"><title>Node12&#45;&gt;Node18</title>
<path fill="none" stroke="midnightblue" d="M314.128,-300.995C335.718,-291.54 367.073,-277.807 391.099,-267.285"/>
<polygon fill="midnightblue" stroke="midnightblue" points="392.812,-270.356 400.567,-263.138 390.003,-263.944 392.812,-270.356"/>
</g>
<!-- Node19 -->
<g id="node45" class="node"><title>Node19</title>
<polygon fill="white" stroke="#bfbfbf" points="210,-241 210,-263 246,-263 246,-241 210,-241"/>
<text text-anchor="middle" x="228" y="-250" font-family="FreeSans" font-size="10.00">map</text>
</g>
<!-- Node12&#45;&gt;Node19 -->
<g id="edge52" class="edge"><title>Node12&#45;&gt;Node19</title>
<path fill="none" stroke="midnightblue" d="M277.812,-300.995C269.151,-292.476 256.96,-280.485 246.807,-270.499"/>
<polygon fill="midnightblue" stroke="midnightblue" points="249.116,-267.86 239.532,-263.343 244.207,-272.851 249.116,-267.86"/>
</g>
<!-- Node20 -->
<g id="node47" class="node"><title>Node20</title>
<polygon fill="white" stroke="#bfbfbf" points="264,-241 264,-263 294,-263 294,-241 264,-241"/>
<text text-anchor="middle" x="279" y="-250" font-family="FreeSans" font-size="10.00">set</text>
</g>
<!-- Node12&#45;&gt;Node20 -->
<g id="edge54" class="edge"><title>Node12&#45;&gt;Node20</title>
<path fill="none" stroke="midnightblue" d="M287.166,-300.995C285.885,-293.311 284.134,-282.803 282.581,-273.488"/>
<polygon fill="midnightblue" stroke="midnightblue" points="285.987,-272.631 280.89,-263.343 279.082,-273.782 285.987,-272.631"/>
</g>
<!-- Node21 -->
<g id="node49" class="node"><title>Node21</title>
<polygon fill="white" stroke="#bfbfbf" points="142,-241 142,-263 192,-263 192,-241 142,-241"/>
<text text-anchor="middle" x="167" y="-250" font-family="FreeSans" font-size="10.00">fstream</text>
</g>
<!-- Node12&#45;&gt;Node21 -->
<g id="edge56" class="edge"><title>Node12&#45;&gt;Node21</title>
<path fill="none" stroke="midnightblue" d="M266.623,-300.995C247.568,-291.624 219.971,-278.051 198.652,-267.566"/>
<polygon fill="midnightblue" stroke="midnightblue" points="200.166,-264.411 189.648,-263.138 197.077,-270.692 200.166,-264.411"/>
</g>
<!-- Node13&#45;&gt;Node4 -->
<g id="edge30" class="edge"><title>Node13&#45;&gt;Node4</title>
<path fill="none" stroke="midnightblue" d="M553.194,-240.74C572.233,-210.94 624.128,-129.713 648.298,-91.881"/>
<polygon fill="midnightblue" stroke="midnightblue" points="651.374,-93.5669 653.809,-83.2556 645.476,-89.7982 651.374,-93.5669"/>
</g>
<!-- Node13&#45;&gt;Node14 -->
<g id="edge32" class="edge"><title>Node13&#45;&gt;Node14</title>
<path fill="none" stroke="midnightblue" d="M519.032,-245.579C476.925,-235.553 394.957,-216.037 342.43,-203.531"/>
<polygon fill="midnightblue" stroke="midnightblue" points="343.198,-200.116 332.659,-201.205 341.577,-206.926 343.198,-200.116"/>
</g>
<!-- Node13&#45;&gt;Node15 -->
<g id="edge36" class="edge"><title>Node13&#45;&gt;Node15</title>
<path fill="none" stroke="midnightblue" d="M572.742,-245.805C619.634,-234.942 716.695,-212.457 769.277,-200.276"/>
<polygon fill="midnightblue" stroke="midnightblue" points="770.221,-203.65 779.173,-197.983 768.641,-196.83 770.221,-203.65"/>
</g>
<!-- Node16 -->
<g id="node37" class="node"><title>Node16</title>
<polygon fill="white" stroke="#bfbfbf" points="495.5,-181 495.5,-203 548.5,-203 548.5,-181 495.5,-181"/>
<text text-anchor="middle" x="522" y="-190" font-family="FreeSans" font-size="10.00">ostream</text>
</g>
<!-- Node13&#45;&gt;Node16 -->
<g id="edge42" class="edge"><title>Node13&#45;&gt;Node16</title>
<path fill="none" stroke="midnightblue" d="M541.598,-240.995C538.458,-233.144 534.138,-222.345 530.353,-212.883"/>
<polygon fill="midnightblue" stroke="midnightblue" points="533.501,-211.328 526.537,-203.343 527.001,-213.928 533.501,-211.328"/>
</g>
<!-- Node13&#45;&gt;Node17 -->
<g id="edge44" class="edge"><title>Node13&#45;&gt;Node17</title>
<path fill="none" stroke="midnightblue" d="M560.673,-240.995C572.552,-232.086 589.494,-219.38 603.147,-209.14"/>
<polygon fill="midnightblue" stroke="midnightblue" points="605.249,-211.938 611.149,-203.138 601.049,-206.338 605.249,-211.938"/>
</g>
<!-- Node14&#45;&gt;Node3 -->
<g id="edge34" class="edge"><title>Node14&#45;&gt;Node3</title>
<path fill="none" stroke="midnightblue" d="M319.678,-180.995C341.839,-171.498 374.068,-157.685 398.662,-147.145"/>
<polygon fill="midnightblue" stroke="midnightblue" points="400.198,-150.295 408.011,-143.138 397.44,-143.861 400.198,-150.295"/>
</g>
<!-- Node15&#45;&gt;Node4 -->
<g id="edge38" class="edge"><title>Node15&#45;&gt;Node4</title>
<path fill="none" stroke="midnightblue" d="M791.711,-180.926C766.636,-160.03 712.164,-114.637 682.058,-89.5481"/>
<polygon fill="midnightblue" stroke="midnightblue" points="684.18,-86.7605 674.257,-83.0475 679.699,-92.1381 684.18,-86.7605"/>
</g>
<!-- Node15&#45;&gt;Node9 -->
<g id="edge40" class="edge"><title>Node15&#45;&gt;Node9</title>
<path fill="none" stroke="midnightblue" d="M779.335,-181.665C724.483,-159.577 596.06,-107.863 537.307,-84.2042"/>
<polygon fill="midnightblue" stroke="midnightblue" points="538.421,-80.8798 527.838,-80.391 535.806,-87.3731 538.421,-80.8798"/>
</g>
<!-- Node18&#45;&gt;Node3 -->
<g id="edge48" class="edge"><title>Node18&#45;&gt;Node3</title>
<path fill="none" stroke="midnightblue" d="M426.738,-240.926C428.066,-221.012 430.877,-178.851 432.586,-153.216"/>
<polygon fill="midnightblue" stroke="midnightblue" points="436.09,-153.258 433.264,-143.047 429.106,-152.792 436.09,-153.258"/>
</g>
<!-- Node22&#45;&gt;Node3 -->
<g id="edge64" class="edge"><title>Node22&#45;&gt;Node3</title>
<path fill="none" stroke="midnightblue" d="M679.106,-300.663C683.099,-275.342 688.753,-213.773 657,-180 633.073,-154.551 536.23,-141.383 478.325,-135.654"/>
<polygon fill="midnightblue" stroke="midnightblue" points="478.627,-132.167 468.34,-134.702 477.963,-139.136 478.627,-132.167"/>
</g>
<!-- Node22&#45;&gt;Node17 -->
<g id="edge62" class="edge"><title>Node22&#45;&gt;Node17</title>
<path fill="none" stroke="midnightblue" d="M672.293,-300.926C663.754,-280.834 645.589,-238.093 634.725,-212.531"/>
<polygon fill="midnightblue" stroke="midnightblue" points="637.828,-210.882 630.695,-203.047 631.385,-213.62 637.828,-210.882"/>
</g>
<!-- Node24&#45;&gt;Node3 -->
<g id="edge80" class="edge"><title>Node24&#45;&gt;Node3</title>
<path fill="none" stroke="midnightblue" d="M851.011,-240.957C829.375,-231.592 797.876,-217.555 771,-204 751.459,-194.144 748.666,-187.205 728,-180 642.773,-150.287 537.113,-138.778 478.488,-134.462"/>
<polygon fill="midnightblue" stroke="midnightblue" points="478.671,-130.967 468.451,-133.76 478.183,-137.95 478.671,-130.967"/>
</g>
<!-- Node24&#45;&gt;Node17 -->
<g id="edge86" class="edge"><title>Node24&#45;&gt;Node17</title>
<path fill="none" stroke="midnightblue" d="M830.963,-240.995C780.781,-228.999 701.805,-210.121 657.983,-199.645"/>
<polygon fill="midnightblue" stroke="midnightblue" points="658.694,-196.217 648.154,-197.296 657.066,-203.025 658.694,-196.217"/>
</g>
<!-- Node25 -->
<g id="node66" class="node"><title>Node25</title>
<polygon fill="white" stroke="#bfbfbf" points="848,-181 848,-203 906,-203 906,-181 848,-181"/>
<text text-anchor="middle" x="877" y="-190" font-family="FreeSans" font-size="10.00">algorithm</text>
</g>
<!-- Node24&#45;&gt;Node25 -->
<g id="edge82" class="edge"><title>Node24&#45;&gt;Node25</title>
<path fill="none" stroke="midnightblue" d="M877,-240.995C877,-233.311 877,-222.803 877,-213.488"/>
<polygon fill="midnightblue" stroke="midnightblue" points="880.5,-213.343 877,-203.343 873.5,-213.343 880.5,-213.343"/>
</g>
<!-- Node26 -->
<g id="node68" class="node"><title>Node26</title>
<polygon fill="white" stroke="#bfbfbf" points="923.5,-181 923.5,-203 976.5,-203 976.5,-181 923.5,-181"/>
<text text-anchor="middle" x="950" y="-190" font-family="FreeSans" font-size="10.00">sstream</text>
</g>
<!-- Node24&#45;&gt;Node26 -->
<g id="edge84" class="edge"><title>Node24&#45;&gt;Node26</title>
<path fill="none" stroke="midnightblue" d="M890.389,-240.995C901.024,-232.254 916.106,-219.858 928.438,-209.722"/>
<polygon fill="midnightblue" stroke="midnightblue" points="930.945,-212.192 936.448,-203.138 926.501,-206.784 930.945,-212.192"/>
</g>
<!-- Node27&#45;&gt;Node3 -->
<g id="edge92" class="edge"><title>Node27&#45;&gt;Node3</title>
<path fill="none" stroke="midnightblue" d="M364.589,-423.2C260.928,-407.927 76,-372.238 76,-312 76,-312 76,-312 76,-252 76,-186.46 294.427,-150.092 390.05,-137.311"/>
<polygon fill="midnightblue" stroke="midnightblue" points="390.537,-140.777 399.997,-136.008 389.627,-133.837 390.537,-140.777"/>
</g>
<!-- Node27&#45;&gt;Node11 -->
<g id="edge94" class="edge"><title>Node27&#45;&gt;Node11</title>
<path fill="none" stroke="midnightblue" d="M450.608,-420.995C465.132,-411.918 485.962,-398.899 502.5,-388.563"/>
<polygon fill="midnightblue" stroke="midnightblue" points="504.554,-391.406 511.179,-383.138 500.844,-385.47 504.554,-391.406"/>
</g>
<!-- Node28&#45;&gt;Node3 -->
<g id="edge98" class="edge"><title>Node28&#45;&gt;Node3</title>
<path fill="none" stroke="midnightblue" d="M616.596,-420.969C649.847,-405.054 706.424,-372.173 730,-324 754.516,-273.904 738.022,-228.346 678,-180 647.885,-155.743 540.44,-141.931 478.635,-135.823"/>
<polygon fill="midnightblue" stroke="midnightblue" points="478.68,-132.311 468.391,-134.84 478.011,-139.279 478.68,-132.311"/>
</g>
<!-- Node28&#45;&gt;Node11 -->
<g id="edge100" class="edge"><title>Node28&#45;&gt;Node11</title>
<path fill="none" stroke="midnightblue" d="M579.628,-420.995C570.825,-412.476 558.435,-400.485 548.115,-390.499"/>
<polygon fill="midnightblue" stroke="midnightblue" points="550.341,-387.782 540.721,-383.343 545.473,-392.812 550.341,-387.782"/>
</g>
</g>
</svg>
        <g id="navigator" transform="translate(0 0)" fill="#404254">
                <rect fill="#f2f5e9" fill-opacity="0.5" stroke="#606060" stroke-width=".5" x="0" y="0" width="60" height="60"/>
                <use id="zoomplus" xlink:href="#zoomPlus" x="17" y="9" onmousedown="handleZoom(evt,'in')"/>
                <use id="zoomminus" xlink:href="#zoomMin" x="42" y="9" onmousedown="handleZoom(evt,'out')"/>
                <use id="reset" xlink:href="#resetDef" x="30" y="36" onmousedown="handleReset()"/>
                <g id="arrowUp" xlink:href="#dirArrow" transform="translate(30 24)" onmousedown="handlePan(0,-1)">
                  <use xlink:href="#rim" fill="#404040">
                        <set attributeName="fill" to="#808080" begin="arrowUp.mouseover" end="arrowUp.mouseout"/>
                  </use>
                  <path fill="none" stroke="white" stroke-width="1.5" d="M0,-3.0v7 M-2.5,-0.5L0,-3.0L2.5,-0.5"/>
                </g>
                <g id="arrowRight" xlink:href="#dirArrow" transform="rotate(90) translate(36 -43)" onmousedown="handlePan(1,0)">
                  <use xlink:href="#rim" fill="#404040">
                        <set attributeName="fill" to="#808080" begin="arrowRight.mouseover" end="arrowRight.mouseout"/>
                  </use>
                  <path fill="none" stroke="white" stroke-width="1.5" d="M0,-3.0v7 M-2.5,-0.5L0,-3.0L2.5,-0.5"/>
                </g>
                <g id="arrowDown" xlink:href="#dirArrow" transform="rotate(180) translate(-30 -48)" onmousedown="handlePan(0,1)">
                  <use xlink:href="#rim" fill="#404040">
                        <set attributeName="fill" to="#808080" begin="arrowDown.mouseover" end="arrowDown.mouseout"/>
                  </use>
                  <path fill="none" stroke="white" stroke-width="1.5" d="M0,-3.0v7 M-2.5,-0.5L0,-3.0L2.5,-0.5"/>
                </g>
                <g id="arrowLeft" xlink:href="#dirArrow" transform="rotate(270) translate(-36 17)" onmousedown="handlePan(-1,0)">
                  <use xlink:href="#rim" fill="#404040">
                        <set attributeName="fill" to="#808080" begin="arrowLeft.mouseover" end="arrowLeft.mouseout"/>
                  </use>
                  <path fill="none" stroke="white" stroke-width="1.5" d="M0,-3.0v7 M-2.5,-0.5L0,-3.0L2.5,-0.5"/>
                </g>
        </g>
</svg>
