<?xml version="1.0" encoding="UTF-8" standalone="no"?>
<!DOCTYPE svg PUBLIC "-//W3C//DTD SVG 1.1//EN"
 "http://www.w3.org/Graphics/SVG/1.1/DTD/svg11.dtd">
<!-- Generated by graphviz version 2.26.3 (20100126.1600)
 -->
<!-- Title: G Pages: 1 -->
<!--zoomable 512 -->
<svg id="main" version="1.1" xmlns="http://www.w3.org/2000/svg" xmlns:xlink="http://www.w3.org/1999/xlink" xml:space="preserve" onload="init(evt)">
        <defs>
                <circle id="rim" cx="0" cy="0" r="7"/>
                <circle id="rim2" cx="0" cy="0" r="3.5"/>
                <g id="zoomPlus">
                        <use xlink:href="#rim" fill="#404040">
                                <set attributeName="fill" to="#808080" begin="zoomplus.mouseover" end="zoomplus.mouseout"/>
                        </use>
                        <path d="M-4,0h8M0,-4v8" fill="none" stroke="white" stroke-width="1.5" pointer-events="none"/>
                </g>
                <g id="zoomMin">
                        <use xlink:href="#rim" fill="#404040">
                                <set attributeName="fill" to="#808080" begin="zoomminus.mouseover" end="zoomminus.mouseout"/>
                        </use>
                        <path d="M-4,0h8" fill="none" stroke="white" stroke-width="1.5" pointer-events="none"/>
                </g>
                <g id="dirArrow">
                        <path fill="none" stroke="white" stroke-width="1.5" d="M0,-3.0v7 M-2.5,-0.5L0,-3.0L2.5,-0.5"/>
                </g>
               <g id="resetDef">
                       <use xlink:href="#rim2" fill="#404040">
                               <set attributeName="fill" to="#808080" begin="reset.mouseover" end="reset.mouseout"/>
                       </use>
               </g>
        </defs>

<script type="text/javascript">
var viewWidth = 1268;
var viewHeight = 512;
var sectionId = 'dynsection-0';
</script>
<script xlink:href="svgpan.js"/>
<svg id="graph" class="graph">
<g id="viewport">
<title>G</title>
<polygon fill="white" stroke="white" points="-4,5 -4,-508 1265,-508 1265,5 -4,5"/>
<!-- Node1 -->
<g id="node1" class="node"><title>Node1</title>
<polygon fill="#bfbfbf" stroke="black" points="615,-481 615,-503 727,-503 727,-481 615,-481"/>
<text text-anchor="middle" x="671" y="-490" font-family="FreeSans" font-size="10.00">dagframescheduler.h</text>
</g>
<!-- Node2 -->
<g id="node3" class="node"><title>Node2</title>
<a xlink:href="asynchronousworkunit_8h.html" target="_top" xlink:title="Contains an interface for a kind of WorkUnit that loads or writes a.">
<polygon fill="white" stroke="black" points="767.5,-421 767.5,-443 890.5,-443 890.5,-421 767.5,-421"/>
<text text-anchor="middle" x="829" y="-430" font-family="FreeSans" font-size="10.00">asynchronousworkunit.h</text>
</a>
</g>
<!-- Node1&#45;&gt;Node2 -->
<g id="edge2" class="edge"><title>Node1&#45;&gt;Node2</title>
<path fill="none" stroke="midnightblue" d="M699.98,-480.995C725.401,-471.341 762.563,-457.229 790.482,-446.627"/>
<polygon fill="midnightblue" stroke="midnightblue" points="791.831,-449.859 799.937,-443.037 789.346,-443.315 791.831,-449.859"/>
</g>
<!-- Node3 -->
<g id="node5" class="node"><title>Node3</title>
<a xlink:href="datatypes_8h.html" target="_top" xlink:title="This file declares a few typedefs to allow flexibility, in case a change is required/desired.">
<polygon fill="white" stroke="black" points="611,-121 611,-143 679,-143 679,-121 611,-121"/>
<text text-anchor="middle" x="645" y="-130" font-family="FreeSans" font-size="10.00">datatypes.h</text>
</a>
</g>
<!-- Node1&#45;&gt;Node3 -->
<g id="edge98" class="edge"><title>Node1&#45;&gt;Node3</title>
<path fill="none" stroke="midnightblue" d="M614.896,-489.385C477.57,-482.703 132.218,-464.109 84,-444 38.6175,-425.074 0,-421.171 0,-372 0,-372 0,-372 0,-252 0,-191.321 58.4584,-199.26 116,-180 205.587,-150.014 490.631,-137.28 600.876,-133.39"/>
<polygon fill="midnightblue" stroke="midnightblue" points="601.114,-136.884 610.987,-133.041 600.872,-129.888 601.114,-136.884"/>
</g>
<!-- Node4 -->
<g id="node7" class="node"><title>Node4</title>
<a xlink:href="compilerthreadcompat_8h.html" target="_top" xlink:title="This file determines what features are offered by the compiler that this library can take advantage o...">
<polygon fill="white" stroke="black" points="877,-61 877,-83 1001,-83 1001,-61 877,-61"/>
<text text-anchor="middle" x="939" y="-70" font-family="FreeSans" font-size="10.00">compilerthreadcompat.h</text>
</a>
</g>
<!-- Node1&#45;&gt;Node4 -->
<g id="edge96" class="edge"><title>Node1&#45;&gt;Node4</title>
<path fill="none" stroke="midnightblue" d="M727.258,-490.333C807.885,-486.861 960.428,-476.243 1086,-444 1167.06,-423.186 1260,-455.693 1260,-372 1260,-372 1260,-372 1260,-192 1260,-139.26 1106.05,-102.016 1011.37,-84.0991"/>
<polygon fill="midnightblue" stroke="midnightblue" points="1011.74,-80.6078 1001.27,-82.2177 1010.46,-87.4895 1011.74,-80.6078"/>
</g>
<!-- Node11 -->
<g id="node21" class="node"><title>Node11</title>
<a xlink:href="doublebufferedresource_8h.html" target="_top" xlink:title="This file defines the template double buffered resources that can be attached to a thread...">
<polygon fill="white" stroke="black" points="259.5,-241 259.5,-263 390.5,-263 390.5,-241 259.5,-241"/>
<text text-anchor="middle" x="325" y="-250" font-family="FreeSans" font-size="10.00">doublebufferedresource.h</text>
</a>
</g>
<!-- Node1&#45;&gt;Node11 -->
<g id="edge100" class="edge"><title>Node1&#45;&gt;Node11</title>
<path fill="none" stroke="midnightblue" d="M614.717,-489.579C506.829,-484.359 279.461,-470.331 256,-444 210.215,-392.615 273.682,-308.624 306.932,-271.126"/>
<polygon fill="midnightblue" stroke="midnightblue" points="309.769,-273.207 313.897,-263.45 304.585,-268.503 309.769,-273.207"/>
</g>
<!-- Node15 -->
<g id="node30" class="node"><title>Node15</title>
<a xlink:href="workunit_8h.html" target="_top" xlink:title="This file has the defintion of the workunit.">
<polygon fill="white" stroke="black" points="762.5,-361 762.5,-383 823.5,-383 823.5,-361 762.5,-361"/>
<text text-anchor="middle" x="793" y="-370" font-family="FreeSans" font-size="10.00">workunit.h</text>
</a>
</g>
<!-- Node1&#45;&gt;Node15 -->
<g id="edge128" class="edge"><title>Node1&#45;&gt;Node15</title>
<path fill="none" stroke="midnightblue" d="M682.259,-480.926C703.321,-460.208 748.865,-415.411 774.501,-390.196"/>
<polygon fill="midnightblue" stroke="midnightblue" points="777.093,-392.555 781.768,-383.047 772.185,-387.565 777.093,-392.555"/>
</g>
<!-- Node16 -->
<g id="node33" class="node"><title>Node16</title>
<a xlink:href="framescheduler_8h.html" target="_top" xlink:title="This file has the Declarations for the main FrameScheduler class.">
<polygon fill="white" stroke="black" points="508,-301 508,-323 602,-323 602,-301 508,-301"/>
<text text-anchor="middle" x="555" y="-310" font-family="FreeSans" font-size="10.00">framescheduler.h</text>
</a>
</g>
<!-- Node1&#45;&gt;Node16 -->
<g id="edge102" class="edge"><title>Node1&#45;&gt;Node16</title>
<path fill="none" stroke="midnightblue" d="M614.935,-488.115C554.553,-482.626 464.25,-470.189 443,-444 408.526,-401.513 479.723,-352.7 523.733,-328.044"/>
<polygon fill="midnightblue" stroke="midnightblue" points="525.569,-331.029 532.663,-323.161 522.21,-324.888 525.569,-331.029"/>
</g>
<!-- Node17 -->
<g id="node37" class="node"><title>Node17</title>
<a xlink:href="thread_8h.html" target="_top" xlink:title="This file defines a minimalistic cross&#45;platform thread that the scheduler uses to schedule tasks...">
<polygon fill="white" stroke="black" points="843.5,-241 843.5,-263 896.5,-263 896.5,-241 843.5,-241"/>
<text text-anchor="middle" x="870" y="-250" font-family="FreeSans" font-size="10.00">thread.h</text>
</a>
</g>
<!-- Node1&#45;&gt;Node17 -->
<g id="edge124" class="edge"><title>Node1&#45;&gt;Node17</title>
<path fill="none" stroke="midnightblue" d="M727.092,-485.17C791.075,-476.727 891.207,-461.331 925,-444 993.811,-408.709 1020.54,-395.081 1051,-324 1055.2,-314.196 1057.54,-308.424 1051,-300 1011.32,-248.922 972.321,-281.296 910,-264 908.782,-263.662 907.544,-263.314 906.295,-262.96"/>
<polygon fill="midnightblue" stroke="midnightblue" points="907.215,-259.582 896.636,-260.158 905.265,-266.305 907.215,-259.582"/>
</g>
<!-- Node18 -->
<g id="node40" class="node"><title>Node18</title>
<a xlink:href="systemcalls_8h.html" target="_top" xlink:title="This file defines a minimalistic cross&#45;platform thread that the scheduler uses to schedule tasks...">
<polygon fill="white" stroke="black" points="492.5,-181 492.5,-203 569.5,-203 569.5,-181 492.5,-181"/>
<text text-anchor="middle" x="531" y="-190" font-family="FreeSans" font-size="10.00">systemcalls.h</text>
</a>
</g>
<!-- Node1&#45;&gt;Node18 -->
<g id="edge122" class="edge"><title>Node1&#45;&gt;Node18</title>
<path fill="none" stroke="midnightblue" d="M614.736,-484.733C553.606,-476.159 460.452,-460.914 429,-444 329.909,-390.713 293.765,-368.066 251,-264 246.946,-254.134 244.124,-248.155 251,-240 265.727,-222.534 405.812,-205.206 482.08,-196.966"/>
<polygon fill="midnightblue" stroke="midnightblue" points="482.826,-200.406 492.398,-195.865 482.083,-193.446 482.826,-200.406"/>
</g>
<!-- Node19 -->
<g id="node43" class="node"><title>Node19</title>
<a xlink:href="mutex_8h.html" target="_top" xlink:title="This file declares and defines a mutex that is a partial implementation.">
<polygon fill="white" stroke="black" points="1089.5,-181 1089.5,-203 1140.5,-203 1140.5,-181 1089.5,-181"/>
<text text-anchor="middle" x="1115" y="-190" font-family="FreeSans" font-size="10.00">mutex.h</text>
</a>
</g>
<!-- Node1&#45;&gt;Node19 -->
<g id="edge118" class="edge"><title>Node1&#45;&gt;Node19</title>
<path fill="none" stroke="midnightblue" d="M727.121,-485.675C867.377,-469.113 1222,-422.267 1222,-372 1222,-372 1222,-372 1222,-312 1222,-265.382 1176.46,-228.516 1144.8,-208.52"/>
<polygon fill="midnightblue" stroke="midnightblue" points="1146.25,-205.305 1135.88,-203.098 1142.61,-211.285 1146.25,-205.305"/>
</g>
<!-- Node21 -->
<g id="node50" class="node"><title>Node21</title>
<a xlink:href="workunitkey_8h.html" target="_top" xlink:title="This file defines the metadata used to sort workunits.">
<polygon fill="white" stroke="black" points="918.5,-241 918.5,-263 995.5,-263 995.5,-241 918.5,-241"/>
<text text-anchor="middle" x="957" y="-250" font-family="FreeSans" font-size="10.00">workunitkey.h</text>
</a>
</g>
<!-- Node1&#45;&gt;Node21 -->
<g id="edge130" class="edge"><title>Node1&#45;&gt;Node21</title>
<path fill="none" stroke="midnightblue" d="M727.231,-485.954C799.124,-477.66 919.188,-461.745 960,-444 1000.11,-426.561 1010.41,-417.935 1038,-384 1062.92,-353.356 1088.63,-333.044 1067,-300 1053.28,-279.044 1028.19,-267.185 1005.43,-260.5"/>
<polygon fill="midnightblue" stroke="midnightblue" points="1006.09,-257.054 995.529,-257.86 1004.29,-263.817 1006.09,-257.054"/>
</g>
<!-- Node25 -->
<g id="node61" class="node"><title>Node25</title>
<a xlink:href="rollingaverage_8h.html" target="_top" xlink:title="This Store the implementation and the declaration of the RollingAverage, BufferedRollingAverage, WeightedRollingAverage and the DefaultRollingAverage.">
<polygon fill="white" stroke="black" points="657.5,-301 657.5,-323 746.5,-323 746.5,-301 657.5,-301"/>
<text text-anchor="middle" x="702" y="-310" font-family="FreeSans" font-size="10.00">rollingaverage.h</text>
</a>
</g>
<!-- Node1&#45;&gt;Node25 -->
<g id="edge120" class="edge"><title>Node1&#45;&gt;Node25</title>
<path fill="none" stroke="midnightblue" d="M674.191,-480.629C676.823,-470.95 680.516,-456.643 683,-444 690.62,-405.211 696.527,-359.448 699.617,-333.267"/>
<polygon fill="midnightblue" stroke="midnightblue" points="703.13,-333.351 700.8,-323.016 696.176,-332.549 703.13,-333.351"/>
</g>
<!-- Node26 -->
<g id="node65" class="node"><title>Node26</title>
<a xlink:href="threadingenumerations_8h.html" target="_top" xlink:title="Any enumerations the threading library requires are all declared here.">
<polygon fill="white" stroke="black" points="915.5,-301 915.5,-323 1042.5,-323 1042.5,-301 915.5,-301"/>
<text text-anchor="middle" x="979" y="-310" font-family="FreeSans" font-size="10.00">threadingenumerations.h</text>
</a>
</g>
<!-- Node1&#45;&gt;Node26 -->
<g id="edge126" class="edge"><title>Node1&#45;&gt;Node26</title>
<path fill="none" stroke="midnightblue" d="M727.158,-485.362C785.455,-477.575 871.858,-463.243 899,-444 938.134,-416.256 961.656,-362.767 972.264,-333.105"/>
<polygon fill="midnightblue" stroke="midnightblue" points="975.677,-333.941 975.593,-323.347 969.052,-331.681 975.677,-333.941"/>
</g>
<!-- Node27 -->
<g id="node70" class="node"><title>Node27</title>
<a xlink:href="atomicoperations_8h.html" target="_top" xlink:title="Simple thread safe ways to check and change a specified variable atomically.">
<polygon fill="white" stroke="black" points="27.5,-361 27.5,-383 128.5,-383 128.5,-361 27.5,-361"/>
<text text-anchor="middle" x="78" y="-370" font-family="FreeSans" font-size="10.00">atomicoperations.h</text>
</a>
</g>
<!-- Node1&#45;&gt;Node27 -->
<g id="edge86" class="edge"><title>Node1&#45;&gt;Node27</title>
<path fill="none" stroke="midnightblue" d="M614.894,-490.608C479.88,-486.788 145.041,-474.333 105,-444 89.2001,-432.031 82.6453,-409.726 79.9263,-393.101"/>
<polygon fill="midnightblue" stroke="midnightblue" points="83.3943,-392.627 78.6349,-383.161 76.4527,-393.529 83.3943,-392.627"/>
</g>
<!-- Node28 -->
<g id="node73" class="node"><title>Node28</title>
<a xlink:href="barrier_8h.html" target="_top" xlink:title="The declaration of the Mezzanine::Threading::Barrier Barrier synchronization primitive.">
<polygon fill="white" stroke="black" points="113.5,-421 113.5,-443 166.5,-443 166.5,-421 113.5,-421"/>
<text text-anchor="middle" x="140" y="-430" font-family="FreeSans" font-size="10.00">barrier.h</text>
</a>
</g>
<!-- Node1&#45;&gt;Node28 -->
<g id="edge90" class="edge"><title>Node1&#45;&gt;Node28</title>
<path fill="none" stroke="midnightblue" d="M614.894,-490.053C523.156,-486.081 335.675,-474.659 180,-444 178.933,-443.79 177.854,-443.563 176.767,-443.323"/>
<polygon fill="midnightblue" stroke="midnightblue" points="177.484,-439.894 166.932,-440.853 175.779,-446.683 177.484,-439.894"/>
</g>
<!-- Node29 -->
<g id="node81" class="node"><title>Node29</title>
<a xlink:href="frameschedulerworkunits_8h.html" target="_top" xlink:title="This defines a number of workunits that are required for doing some tasks that the Framescheduler req...">
<polygon fill="white" stroke="black" points="452,-421 452,-443 588,-443 588,-421 452,-421"/>
<text text-anchor="middle" x="520" y="-430" font-family="FreeSans" font-size="10.00">frameschedulerworkunits.h</text>
</a>
</g>
<!-- Node1&#45;&gt;Node29 -->
<g id="edge104" class="edge"><title>Node1&#45;&gt;Node29</title>
<path fill="none" stroke="midnightblue" d="M643.304,-480.995C619.115,-471.383 583.804,-457.352 557.162,-446.766"/>
<polygon fill="midnightblue" stroke="midnightblue" points="558.361,-443.477 547.775,-443.037 555.776,-449.982 558.361,-443.477"/>
</g>
<!-- Node30 -->
<g id="node85" class="node"><title>Node30</title>
<a xlink:href="monopoly_8h.html" target="_top" xlink:title="Contains an interface for a kind of WorkUnit that consumes time on multiple thread.">
<polygon fill="white" stroke="black" points="606,-421 606,-443 674,-443 674,-421 606,-421"/>
<text text-anchor="middle" x="640" y="-430" font-family="FreeSans" font-size="10.00">monopoly.h</text>
</a>
</g>
<!-- Node1&#45;&gt;Node30 -->
<g id="edge110" class="edge"><title>Node1&#45;&gt;Node30</title>
<path fill="none" stroke="midnightblue" d="M665.314,-480.995C661.172,-472.977 655.44,-461.884 650.478,-452.281"/>
<polygon fill="midnightblue" stroke="midnightblue" points="653.56,-450.621 645.86,-443.343 647.341,-453.834 653.56,-450.621"/>
</g>
<!-- Node2&#45;&gt;Node3 -->
<g id="edge4" class="edge"><title>Node2&#45;&gt;Node3</title>
<path fill="none" stroke="midnightblue" d="M890.573,-422.748C964.744,-408.23 1076.45,-373.755 1051,-300 1026.4,-228.7 999.649,-211.245 931,-180 888.667,-160.732 758.461,-144.274 689.277,-136.606"/>
<polygon fill="midnightblue" stroke="midnightblue" points="689.446,-133.103 679.125,-135.495 688.685,-140.062 689.446,-133.103"/>
</g>
<!-- Node2&#45;&gt;Node11 -->
<g id="edge20" class="edge"><title>Node2&#45;&gt;Node11</title>
<path fill="none" stroke="midnightblue" d="M791.509,-420.916C729.898,-402.437 603.631,-363.454 499,-324 473.663,-314.446 467.987,-310.435 443,-300 416.036,-288.739 385.473,-276.316 362.208,-266.93"/>
<polygon fill="midnightblue" stroke="midnightblue" points="363.3,-263.596 352.716,-263.106 360.684,-270.089 363.3,-263.596"/>
</g>
<!-- Node2&#45;&gt;Node15 -->
<g id="edge30" class="edge"><title>Node2&#45;&gt;Node15</title>
<path fill="none" stroke="midnightblue" d="M822.397,-420.995C817.536,-412.894 810.792,-401.653 804.989,-391.981"/>
<polygon fill="midnightblue" stroke="midnightblue" points="807.952,-390.117 799.806,-383.343 801.949,-393.719 807.952,-390.117"/>
</g>
<!-- Node3&#45;&gt;Node4 -->
<g id="edge6" class="edge"><title>Node3&#45;&gt;Node4</title>
<path fill="none" stroke="midnightblue" d="M679.013,-125.059C726.737,-115.319 814.469,-97.4145 874.717,-85.1189"/>
<polygon fill="midnightblue" stroke="midnightblue" points="875.786,-88.473 884.885,-83.044 874.387,-81.6143 875.786,-88.473"/>
</g>
<!-- Node9 -->
<g id="node17" class="node"><title>Node9</title>
<polygon fill="white" stroke="#bfbfbf" points="742.5,-61 742.5,-83 783.5,-83 783.5,-61 742.5,-61"/>
<text text-anchor="middle" x="763" y="-70" font-family="FreeSans" font-size="10.00">string</text>
</g>
<!-- Node3&#45;&gt;Node9 -->
<g id="edge16" class="edge"><title>Node3&#45;&gt;Node9</title>
<path fill="none" stroke="midnightblue" d="M666.643,-120.995C685.337,-111.49 712.531,-97.6621 733.267,-87.1186"/>
<polygon fill="midnightblue" stroke="midnightblue" points="734.958,-90.1851 742.286,-82.5328 731.785,-83.9454 734.958,-90.1851"/>
</g>
<!-- Node10 -->
<g id="node19" class="node"><title>Node10</title>
<polygon fill="white" stroke="#bfbfbf" points="621.5,-61 621.5,-83 668.5,-83 668.5,-61 621.5,-61"/>
<text text-anchor="middle" x="645" y="-70" font-family="FreeSans" font-size="10.00">stdint.h</text>
</g>
<!-- Node3&#45;&gt;Node10 -->
<g id="edge18" class="edge"><title>Node3&#45;&gt;Node10</title>
<path fill="none" stroke="midnightblue" d="M645,-120.995C645,-113.311 645,-102.803 645,-93.4884"/>
<polygon fill="midnightblue" stroke="midnightblue" points="648.5,-93.3428 645,-83.3428 641.5,-93.3429 648.5,-93.3428"/>
</g>
<!-- Node5 -->
<g id="node9" class="node"><title>Node5</title>
<polygon fill="white" stroke="#bfbfbf" points="803,-1 803,-23 861,-23 861,-1 803,-1"/>
<text text-anchor="middle" x="832" y="-10" font-family="FreeSans" font-size="10.00">pthread.h</text>
</g>
<!-- Node4&#45;&gt;Node5 -->
<g id="edge8" class="edge"><title>Node4&#45;&gt;Node5</title>
<path fill="none" stroke="midnightblue" d="M919.375,-60.9951C902.962,-51.7917 879.324,-38.5366 860.772,-28.1336"/>
<polygon fill="midnightblue" stroke="midnightblue" points="862.298,-24.9766 851.863,-23.1383 858.874,-31.0822 862.298,-24.9766"/>
</g>
<!-- Node6 -->
<g id="node11" class="node"><title>Node6</title>
<polygon fill="white" stroke="#bfbfbf" points="878.5,-1 878.5,-23 929.5,-23 929.5,-1 878.5,-1"/>
<text text-anchor="middle" x="904" y="-10" font-family="FreeSans" font-size="10.00">signal.h</text>
</g>
<!-- Node4&#45;&gt;Node6 -->
<g id="edge10" class="edge"><title>Node4&#45;&gt;Node6</title>
<path fill="none" stroke="midnightblue" d="M932.58,-60.9951C927.855,-52.8936 921.297,-41.6525 915.656,-31.981"/>
<polygon fill="midnightblue" stroke="midnightblue" points="918.679,-30.2171 910.617,-23.3428 912.632,-33.7442 918.679,-30.2171"/>
</g>
<!-- Node7 -->
<g id="node13" class="node"><title>Node7</title>
<polygon fill="white" stroke="#bfbfbf" points="947,-1 947,-23 999,-23 999,-1 947,-1"/>
<text text-anchor="middle" x="973" y="-10" font-family="FreeSans" font-size="10.00">sched.h</text>
</g>
<!-- Node4&#45;&gt;Node7 -->
<g id="edge12" class="edge"><title>Node4&#45;&gt;Node7</title>
<path fill="none" stroke="midnightblue" d="M945.236,-60.9951C949.78,-52.9771 956.066,-41.884 961.508,-32.2806"/>
<polygon fill="midnightblue" stroke="midnightblue" points="964.687,-33.7686 966.572,-23.3428 958.597,-30.3175 964.687,-33.7686"/>
</g>
<!-- Node8 -->
<g id="node15" class="node"><title>Node8</title>
<polygon fill="white" stroke="#bfbfbf" points="1017,-1 1017,-23 1067,-23 1067,-1 1017,-1"/>
<text text-anchor="middle" x="1042" y="-10" font-family="FreeSans" font-size="10.00">unistd.h</text>
</g>
<!-- Node4&#45;&gt;Node8 -->
<g id="edge14" class="edge"><title>Node4&#45;&gt;Node8</title>
<path fill="none" stroke="midnightblue" d="M957.892,-60.9951C973.619,-51.8337 996.238,-38.6576 1014.06,-28.2763"/>
<polygon fill="midnightblue" stroke="midnightblue" points="1016,-31.1962 1022.88,-23.1383 1012.48,-25.1476 1016,-31.1962"/>
</g>
<!-- Node11&#45;&gt;Node3 -->
<g id="edge22" class="edge"><title>Node11&#45;&gt;Node3</title>
<path fill="none" stroke="midnightblue" d="M346.982,-240.896C377.302,-225.848 433.897,-198.715 484,-180 523,-165.433 568.56,-152.188 601.242,-143.319"/>
<polygon fill="midnightblue" stroke="midnightblue" points="602.2,-146.686 610.949,-140.711 600.384,-139.926 602.2,-146.686"/>
</g>
<!-- Node12 -->
<g id="node24" class="node"><title>Node12</title>
<polygon fill="white" stroke="#bfbfbf" points="237,-181 237,-203 295,-203 295,-181 237,-181"/>
<text text-anchor="middle" x="266" y="-190" font-family="FreeSans" font-size="10.00">algorithm</text>
</g>
<!-- Node11&#45;&gt;Node12 -->
<g id="edge24" class="edge"><title>Node11&#45;&gt;Node12</title>
<path fill="none" stroke="midnightblue" d="M314.178,-240.995C305.801,-232.476 294.011,-220.485 284.19,-210.499"/>
<polygon fill="midnightblue" stroke="midnightblue" points="286.661,-208.019 277.154,-203.343 281.67,-212.927 286.661,-208.019"/>
</g>
<!-- Node13 -->
<g id="node26" class="node"><title>Node13</title>
<polygon fill="white" stroke="#bfbfbf" points="312.5,-181 312.5,-203 365.5,-203 365.5,-181 312.5,-181"/>
<text text-anchor="middle" x="339" y="-190" font-family="FreeSans" font-size="10.00">sstream</text>
</g>
<!-- Node11&#45;&gt;Node13 -->
<g id="edge26" class="edge"><title>Node11&#45;&gt;Node13</title>
<path fill="none" stroke="midnightblue" d="M327.568,-240.995C329.38,-233.228 331.866,-222.574 334.057,-213.185"/>
<polygon fill="midnightblue" stroke="midnightblue" points="337.489,-213.877 336.353,-203.343 330.673,-212.286 337.489,-213.877"/>
</g>
<!-- Node14 -->
<g id="node28" class="node"><title>Node14</title>
<polygon fill="white" stroke="#bfbfbf" points="737,-181 737,-203 781,-203 781,-181 737,-181"/>
<text text-anchor="middle" x="759" y="-190" font-family="FreeSans" font-size="10.00">vector</text>
</g>
<!-- Node11&#45;&gt;Node14 -->
<g id="edge28" class="edge"><title>Node11&#45;&gt;Node14</title>
<path fill="none" stroke="midnightblue" d="M390.915,-242.887C485.421,-229.822 655.825,-206.264 726.708,-196.464"/>
<polygon fill="midnightblue" stroke="midnightblue" points="727.387,-199.904 736.813,-195.067 726.428,-192.97 727.387,-199.904"/>
</g>
<!-- Node15&#45;&gt;Node3 -->
<g id="edge32" class="edge"><title>Node15&#45;&gt;Node3</title>
<path fill="none" stroke="midnightblue" d="M796.977,-360.586C807.409,-328.394 831.965,-235.62 790,-180 777.611,-163.581 726.988,-149.434 689.02,-140.836"/>
<polygon fill="midnightblue" stroke="midnightblue" points="689.7,-137.402 679.181,-138.666 688.193,-144.237 689.7,-137.402"/>
</g>
<!-- Node15&#45;&gt;Node14 -->
<g id="edge84" class="edge"><title>Node15&#45;&gt;Node14</title>
<path fill="none" stroke="midnightblue" d="M790.873,-360.74C785.316,-331.319 770.29,-251.769 763.032,-213.345"/>
<polygon fill="midnightblue" stroke="midnightblue" points="766.421,-212.432 761.126,-203.256 759.543,-213.731 766.421,-212.432"/>
</g>
<!-- Node15&#45;&gt;Node16 -->
<g id="edge34" class="edge"><title>Node15&#45;&gt;Node16</title>
<path fill="none" stroke="midnightblue" d="M762.373,-364.279C723.576,-354.498 656.07,-337.48 608.643,-325.523"/>
<polygon fill="midnightblue" stroke="midnightblue" points="609.397,-322.104 598.845,-323.053 607.686,-328.892 609.397,-322.104"/>
</g>
<!-- Node15&#45;&gt;Node17 -->
<g id="edge80" class="edge"><title>Node15&#45;&gt;Node17</title>
<path fill="none" stroke="midnightblue" d="M801.042,-360.672C807.834,-351.019 817.745,-336.726 826,-324 837.248,-306.659 849.463,-286.562 858.162,-272.014"/>
<polygon fill="midnightblue" stroke="midnightblue" points="861.218,-273.724 863.326,-263.341 855.203,-270.143 861.218,-273.724"/>
</g>
<!-- Node15&#45;&gt;Node19 -->
<g id="edge70" class="edge"><title>Node15&#45;&gt;Node19</title>
<path fill="none" stroke="midnightblue" d="M823.949,-369.712C884.473,-364.69 1015.68,-350.941 1051,-324 1087.09,-296.47 1103.95,-243.291 1110.86,-213.522"/>
<polygon fill="midnightblue" stroke="midnightblue" points="1114.37,-213.873 1113.04,-203.361 1107.52,-212.404 1114.37,-213.873"/>
</g>
<!-- Node15&#45;&gt;Node21 -->
<g id="edge82" class="edge"><title>Node15&#45;&gt;Node21</title>
<path fill="none" stroke="midnightblue" d="M808.135,-360.926C836.815,-339.941 899.26,-294.249 933.456,-269.228"/>
<polygon fill="midnightblue" stroke="midnightblue" points="935.898,-271.777 941.902,-263.047 931.765,-266.128 935.898,-271.777"/>
</g>
<!-- Node15&#45;&gt;Node25 -->
<g id="edge72" class="edge"><title>Node15&#45;&gt;Node25</title>
<path fill="none" stroke="midnightblue" d="M776.309,-360.995C762.669,-352.002 743.162,-339.14 727.557,-328.851"/>
<polygon fill="midnightblue" stroke="midnightblue" points="729.168,-325.721 718.893,-323.138 725.315,-331.565 729.168,-325.721"/>
</g>
<!-- Node15&#45;&gt;Node26 -->
<g id="edge78" class="edge"><title>Node15&#45;&gt;Node26</title>
<path fill="none" stroke="midnightblue" d="M823.714,-362.092C854.048,-352.307 900.742,-337.244 935.009,-326.19"/>
<polygon fill="midnightblue" stroke="midnightblue" points="936.324,-329.444 944.766,-323.043 934.175,-322.782 936.324,-329.444"/>
</g>
<!-- Node16&#45;&gt;Node3 -->
<g id="edge36" class="edge"><title>Node16&#45;&gt;Node3</title>
<path fill="none" stroke="midnightblue" d="M571.301,-300.755C582.842,-291.992 597.839,-278.847 607,-264 628.792,-228.682 638.516,-180.384 642.51,-153.073"/>
<polygon fill="midnightblue" stroke="midnightblue" points="645.991,-153.445 643.85,-143.069 639.053,-152.515 645.991,-153.445"/>
</g>
<!-- Node16&#45;&gt;Node11 -->
<g id="edge38" class="edge"><title>Node16&#45;&gt;Node11</title>
<path fill="none" stroke="midnightblue" d="M512.814,-300.995C474.596,-291.025 418.15,-276.3 377.122,-265.597"/>
<polygon fill="midnightblue" stroke="midnightblue" points="377.867,-262.174 367.307,-263.037 376.1,-268.948 377.867,-262.174"/>
</g>
<!-- Node16&#45;&gt;Node17 -->
<g id="edge40" class="edge"><title>Node16&#45;&gt;Node17</title>
<path fill="none" stroke="midnightblue" d="M602.159,-303.017C665.334,-290.984 776.107,-269.884 833.388,-258.974"/>
<polygon fill="midnightblue" stroke="midnightblue" points="834.269,-262.369 843.437,-257.06 832.959,-255.493 834.269,-262.369"/>
</g>
<!-- Node16&#45;&gt;Node18 -->
<g id="edge62" class="edge"><title>Node16&#45;&gt;Node18</title>
<path fill="none" stroke="midnightblue" d="M514.902,-300.924C484.404,-291.594 446.167,-277.625 437,-264 420.257,-239.115 453.134,-219.207 484.509,-206.688"/>
<polygon fill="midnightblue" stroke="midnightblue" points="486.027,-209.855 494.141,-203.042 483.549,-203.309 486.027,-209.855"/>
</g>
<!-- Node16&#45;&gt;Node21 -->
<g id="edge58" class="edge"><title>Node16&#45;&gt;Node21</title>
<path fill="none" stroke="midnightblue" d="M602.18,-305.772C690.788,-294.039 875.818,-269.357 905,-264 906.094,-263.799 907.199,-263.591 908.312,-263.376"/>
<polygon fill="midnightblue" stroke="midnightblue" points="909.365,-266.734 918.462,-261.302 907.963,-259.875 909.365,-266.734"/>
</g>
<!-- Node22 -->
<g id="node54" class="node"><title>Node22</title>
<polygon fill="white" stroke="#bfbfbf" points="514,-241 514,-263 550,-263 550,-241 514,-241"/>
<text text-anchor="middle" x="532" y="-250" font-family="FreeSans" font-size="10.00">map</text>
</g>
<!-- Node16&#45;&gt;Node22 -->
<g id="edge64" class="edge"><title>Node16&#45;&gt;Node22</title>
<path fill="none" stroke="midnightblue" d="M550.781,-300.995C547.772,-293.144 543.632,-282.345 540.005,-272.883"/>
<polygon fill="midnightblue" stroke="midnightblue" points="543.196,-271.428 536.348,-263.343 536.659,-273.933 543.196,-271.428"/>
</g>
<!-- Node23 -->
<g id="node56" class="node"><title>Node23</title>
<polygon fill="white" stroke="#bfbfbf" points="568,-241 568,-263 598,-263 598,-241 568,-241"/>
<text text-anchor="middle" x="583" y="-250" font-family="FreeSans" font-size="10.00">set</text>
</g>
<!-- Node16&#45;&gt;Node23 -->
<g id="edge66" class="edge"><title>Node16&#45;&gt;Node23</title>
<path fill="none" stroke="midnightblue" d="M560.136,-300.995C563.838,-293.061 568.946,-282.115 573.395,-272.581"/>
<polygon fill="midnightblue" stroke="midnightblue" points="576.649,-273.885 577.707,-263.343 570.306,-270.925 576.649,-273.885"/>
</g>
<!-- Node24 -->
<g id="node58" class="node"><title>Node24</title>
<polygon fill="white" stroke="#bfbfbf" points="446,-241 446,-263 496,-263 496,-241 446,-241"/>
<text text-anchor="middle" x="471" y="-250" font-family="FreeSans" font-size="10.00">fstream</text>
</g>
<!-- Node16&#45;&gt;Node24 -->
<g id="edge68" class="edge"><title>Node16&#45;&gt;Node24</title>
<path fill="none" stroke="midnightblue" d="M539.593,-300.995C527.12,-292.086 509.332,-279.38 494.996,-269.14"/>
<polygon fill="midnightblue" stroke="midnightblue" points="496.765,-266.103 486.594,-263.138 492.697,-271.799 496.765,-266.103"/>
</g>
<!-- Node17&#45;&gt;Node4 -->
<g id="edge42" class="edge"><title>Node17&#45;&gt;Node4</title>
<path fill="none" stroke="midnightblue" d="M879.953,-240.949C887.804,-231.689 898.484,-217.803 905,-204 922.414,-167.112 931.792,-120.053 936.061,-93.2451"/>
<polygon fill="midnightblue" stroke="midnightblue" points="939.563,-93.4931 937.586,-83.0844 932.64,-92.454 939.563,-93.4931"/>
</g>
<!-- Node17&#45;&gt;Node14 -->
<g id="edge56" class="edge"><title>Node17&#45;&gt;Node14</title>
<path fill="none" stroke="midnightblue" d="M849.641,-240.995C832.537,-231.75 807.869,-218.416 788.584,-207.991"/>
<polygon fill="midnightblue" stroke="midnightblue" points="790.067,-204.815 779.606,-203.138 786.739,-210.973 790.067,-204.815"/>
</g>
<!-- Node17&#45;&gt;Node18 -->
<g id="edge44" class="edge"><title>Node17&#45;&gt;Node18</title>
<path fill="none" stroke="midnightblue" d="M843.399,-247.292C786.569,-237.233 652.587,-213.52 579.921,-200.658"/>
<polygon fill="midnightblue" stroke="midnightblue" points="580.118,-197.139 569.661,-198.843 578.898,-204.032 580.118,-197.139"/>
</g>
<!-- Node17&#45;&gt;Node19 -->
<g id="edge48" class="edge"><title>Node17&#45;&gt;Node19</title>
<path fill="none" stroke="midnightblue" d="M896.615,-243.767C901.071,-242.46 905.657,-241.159 910,-240 969.093,-224.234 1038.51,-208.572 1079.52,-199.613"/>
<polygon fill="midnightblue" stroke="midnightblue" points="1080.28,-203.03 1089.31,-197.484 1078.79,-196.19 1080.28,-203.03"/>
</g>
<!-- Node20 -->
<g id="node47" class="node"><title>Node20</title>
<polygon fill="white" stroke="#bfbfbf" points="843.5,-181 843.5,-203 896.5,-203 896.5,-181 843.5,-181"/>
<text text-anchor="middle" x="870" y="-190" font-family="FreeSans" font-size="10.00">ostream</text>
</g>
<!-- Node17&#45;&gt;Node20 -->
<g id="edge54" class="edge"><title>Node17&#45;&gt;Node20</title>
<path fill="none" stroke="midnightblue" d="M870,-240.995C870,-233.311 870,-222.803 870,-213.488"/>
<polygon fill="midnightblue" stroke="midnightblue" points="873.5,-213.343 870,-203.343 866.5,-213.343 873.5,-213.343"/>
</g>
<!-- Node18&#45;&gt;Node3 -->
<g id="edge46" class="edge"><title>Node18&#45;&gt;Node3</title>
<path fill="none" stroke="midnightblue" d="M551.909,-180.995C569.555,-171.708 595.041,-158.294 614.886,-147.849"/>
<polygon fill="midnightblue" stroke="midnightblue" points="616.618,-150.893 623.837,-143.138 613.358,-144.699 616.618,-150.893"/>
</g>
<!-- Node19&#45;&gt;Node4 -->
<g id="edge50" class="edge"><title>Node19&#45;&gt;Node4</title>
<path fill="none" stroke="midnightblue" d="M1098.76,-180.926C1067.85,-159.851 1000.39,-113.859 963.8,-88.9093"/>
<polygon fill="midnightblue" stroke="midnightblue" points="965.437,-85.7891 955.203,-83.0475 961.494,-91.5727 965.437,-85.7891"/>
</g>
<!-- Node19&#45;&gt;Node9 -->
<g id="edge52" class="edge"><title>Node19&#45;&gt;Node9</title>
<path fill="none" stroke="midnightblue" d="M1089.4,-183.273C1025.9,-161.625 861.354,-105.53 793.225,-82.304"/>
<polygon fill="midnightblue" stroke="midnightblue" points="794.117,-78.9102 783.522,-78.9962 791.858,-85.5358 794.117,-78.9102"/>
</g>
<!-- Node21&#45;&gt;Node3 -->
<g id="edge60" class="edge"><title>Node21&#45;&gt;Node3</title>
<path fill="none" stroke="midnightblue" d="M952.299,-240.923C944.815,-224.733 928.587,-194.918 905,-180 869.813,-157.746 753.944,-142.929 689.403,-136.183"/>
<polygon fill="midnightblue" stroke="midnightblue" points="689.428,-132.668 679.124,-135.132 688.716,-139.631 689.428,-132.668"/>
</g>
<!-- Node25&#45;&gt;Node3 -->
<g id="edge76" class="edge"><title>Node25&#45;&gt;Node3</title>
<path fill="none" stroke="midnightblue" d="M701.55,-300.958C700.274,-277.721 695.491,-222.422 678,-180 673.766,-169.73 667.09,-159.437 660.847,-151.03"/>
<polygon fill="midnightblue" stroke="midnightblue" points="663.524,-148.772 654.618,-143.033 658.001,-153.073 663.524,-148.772"/>
</g>
<!-- Node25&#45;&gt;Node14 -->
<g id="edge74" class="edge"><title>Node25&#45;&gt;Node14</title>
<path fill="none" stroke="midnightblue" d="M707.26,-300.926C716.846,-280.744 737.287,-237.712 749.409,-212.191"/>
<polygon fill="midnightblue" stroke="midnightblue" points="752.623,-213.582 753.752,-203.047 746.3,-210.579 752.623,-213.582"/>
</g>
<!-- Node27&#45;&gt;Node3 -->
<g id="edge88" class="edge"><title>Node27&#45;&gt;Node3</title>
<path fill="none" stroke="midnightblue" d="M77.8596,-360.567C78.1268,-326.661 83.9856,-226.16 142,-180 177.489,-151.763 483.862,-137.824 600.327,-133.509"/>
<polygon fill="midnightblue" stroke="midnightblue" points="600.8,-136.994 610.666,-133.133 600.545,-129.999 600.8,-136.994"/>
</g>
<!-- Node28&#45;&gt;Node3 -->
<g id="edge92" class="edge"><title>Node28&#45;&gt;Node3</title>
<path fill="none" stroke="midnightblue" d="M142.5,-420.816C147,-399.677 156,-352.354 156,-312 156,-312 156,-312 156,-252 156,-213.041 172.512,-199.909 206,-180 239.45,-160.114 495.961,-141.58 600.685,-134.761"/>
<polygon fill="midnightblue" stroke="midnightblue" points="601.169,-138.237 610.922,-134.1 600.718,-131.251 601.169,-138.237"/>
</g>
<!-- Node28&#45;&gt;Node27 -->
<g id="edge94" class="edge"><title>Node28&#45;&gt;Node27</title>
<path fill="none" stroke="midnightblue" d="M128.628,-420.995C119.825,-412.476 107.435,-400.485 97.1151,-390.499"/>
<polygon fill="midnightblue" stroke="midnightblue" points="99.341,-387.782 89.7209,-383.343 94.473,-392.812 99.341,-387.782"/>
</g>
<!-- Node29&#45;&gt;Node3 -->
<g id="edge106" class="edge"><title>Node29&#45;&gt;Node3</title>
<path fill="none" stroke="midnightblue" d="M487.969,-420.894C392.884,-386.442 125.114,-277.813 228,-180 254.653,-154.661 498.538,-139.439 600.508,-134.133"/>
<polygon fill="midnightblue" stroke="midnightblue" points="600.977,-137.613 610.785,-133.607 600.619,-130.623 600.977,-137.613"/>
</g>
<!-- Node29&#45;&gt;Node15 -->
<g id="edge108" class="edge"><title>Node29&#45;&gt;Node15</title>
<path fill="none" stroke="midnightblue" d="M570.072,-420.995C622.526,-409.467 703.906,-391.581 752.474,-380.907"/>
<polygon fill="midnightblue" stroke="midnightblue" points="753.302,-384.309 762.317,-378.743 751.799,-377.472 753.302,-384.309"/>
</g>
<!-- Node30&#45;&gt;Node3 -->
<g id="edge112" class="edge"><title>Node30&#45;&gt;Node3</title>
<path fill="none" stroke="midnightblue" d="M640.541,-420.616C642.093,-387.311 646.541,-287.163 648,-204 648.187,-193.335 648.333,-190.661 648,-180 647.725,-171.18 647.165,-161.461 646.603,-153.089"/>
<polygon fill="midnightblue" stroke="midnightblue" points="650.09,-152.774 645.887,-143.048 643.108,-153.272 650.09,-152.774"/>
</g>
<!-- Node30&#45;&gt;Node11 -->
<g id="edge114" class="edge"><title>Node30&#45;&gt;Node11</title>
<path fill="none" stroke="midnightblue" d="M620.295,-420.74C566.36,-389.92 416.158,-304.09 353.266,-268.152"/>
<polygon fill="midnightblue" stroke="midnightblue" points="354.714,-264.948 344.295,-263.026 351.241,-271.026 354.714,-264.948"/>
</g>
<!-- Node30&#45;&gt;Node15 -->
<g id="edge116" class="edge"><title>Node30&#45;&gt;Node15</title>
<path fill="none" stroke="midnightblue" d="M668.063,-420.995C692.572,-411.383 728.351,-397.352 755.346,-386.766"/>
<polygon fill="midnightblue" stroke="midnightblue" points="756.825,-389.946 764.857,-383.037 754.269,-383.429 756.825,-389.946"/>
</g>
</g>
</svg>
        <g id="navigator" transform="translate(0 0)" fill="#404254">
                <rect fill="#f2f5e9" fill-opacity="0.5" stroke="#606060" stroke-width=".5" x="0" y="0" width="60" height="60"/>
                <use id="zoomplus" xlink:href="#zoomPlus" x="17" y="9" onmousedown="handleZoom(evt,'in')"/>
                <use id="zoomminus" xlink:href="#zoomMin" x="42" y="9" onmousedown="handleZoom(evt,'out')"/>
                <use id="reset" xlink:href="#resetDef" x="30" y="36" onmousedown="handleReset()"/>
                <g id="arrowUp" xlink:href="#dirArrow" transform="translate(30 24)" onmousedown="handlePan(0,-1)">
                  <use xlink:href="#rim" fill="#404040">
                        <set attributeName="fill" to="#808080" begin="arrowUp.mouseover" end="arrowUp.mouseout"/>
                  </use>
                  <path fill="none" stroke="white" stroke-width="1.5" d="M0,-3.0v7 M-2.5,-0.5L0,-3.0L2.5,-0.5"/>
                </g>
                <g id="arrowRight" xlink:href="#dirArrow" transform="rotate(90) translate(36 -43)" onmousedown="handlePan(1,0)">
                  <use xlink:href="#rim" fill="#404040">
                        <set attributeName="fill" to="#808080" begin="arrowRight.mouseover" end="arrowRight.mouseout"/>
                  </use>
                  <path fill="none" stroke="white" stroke-width="1.5" d="M0,-3.0v7 M-2.5,-0.5L0,-3.0L2.5,-0.5"/>
                </g>
                <g id="arrowDown" xlink:href="#dirArrow" transform="rotate(180) translate(-30 -48)" onmousedown="handlePan(0,1)">
                  <use xlink:href="#rim" fill="#404040">
                        <set attributeName="fill" to="#808080" begin="arrowDown.mouseover" end="arrowDown.mouseout"/>
                  </use>
                  <path fill="none" stroke="white" stroke-width="1.5" d="M0,-3.0v7 M-2.5,-0.5L0,-3.0L2.5,-0.5"/>
                </g>
                <g id="arrowLeft" xlink:href="#dirArrow" transform="rotate(270) translate(-36 17)" onmousedown="handlePan(-1,0)">
                  <use xlink:href="#rim" fill="#404040">
                        <set attributeName="fill" to="#808080" begin="arrowLeft.mouseover" end="arrowLeft.mouseout"/>
                  </use>
                  <path fill="none" stroke="white" stroke-width="1.5" d="M0,-3.0v7 M-2.5,-0.5L0,-3.0L2.5,-0.5"/>
                </g>
        </g>
</svg>
