<?xml version="1.0" encoding="UTF-8" standalone="no"?>
<!DOCTYPE svg PUBLIC "-//W3C//DTD SVG 1.1//EN"
 "http://www.w3.org/Graphics/SVG/1.1/DTD/svg11.dtd">
<!-- Generated by graphviz version 2.26.3 (20100126.1600)
 -->
<!-- Title: G Pages: 1 -->
<!--zoomable 572 -->
<svg id="main" version="1.1" xmlns="http://www.w3.org/2000/svg" xmlns:xlink="http://www.w3.org/1999/xlink" xml:space="preserve" onload="init(evt)">
        <defs>
                <circle id="rim" cx="0" cy="0" r="7"/>
                <circle id="rim2" cx="0" cy="0" r="3.5"/>
                <g id="zoomPlus">
                        <use xlink:href="#rim" fill="#404040">
                                <set attributeName="fill" to="#808080" begin="zoomplus.mouseover" end="zoomplus.mouseout"/>
                        </use>
                        <path d="M-4,0h8M0,-4v8" fill="none" stroke="white" stroke-width="1.5" pointer-events="none"/>
                </g>
                <g id="zoomMin">
                        <use xlink:href="#rim" fill="#404040">
                                <set attributeName="fill" to="#808080" begin="zoomminus.mouseover" end="zoomminus.mouseout"/>
                        </use>
                        <path d="M-4,0h8" fill="none" stroke="white" stroke-width="1.5" pointer-events="none"/>
                </g>
                <g id="dirArrow">
                        <path fill="none" stroke="white" stroke-width="1.5" d="M0,-3.0v7 M-2.5,-0.5L0,-3.0L2.5,-0.5"/>
                </g>
               <g id="resetDef">
                       <use xlink:href="#rim2" fill="#404040">
                               <set attributeName="fill" to="#808080" begin="reset.mouseover" end="reset.mouseout"/>
                       </use>
               </g>
        </defs>

<script type="text/javascript">
var viewWidth = 1180;
var viewHeight = 572;
var sectionId = 'dynsection-0';
</script>
<script xlink:href="svgpan.js"/>
<svg id="graph" class="graph">
<g id="viewport">
<title>G</title>
<polygon fill="white" stroke="white" points="-4,5 -4,-568 1177,-568 1177,5 -4,5"/>
<!-- Node1 -->
<g id="node1" class="node"><title>Node1</title>
<polygon fill="#bfbfbf" stroke="black" points="558,-541 558,-563 670,-563 670,-541 558,-541"/>
<text text-anchor="middle" x="614" y="-550" font-family="FreeSans" font-size="10.00">dagframescheduler.h</text>
</g>
<!-- Node2 -->
<g id="node3" class="node"><title>Node2</title>
<a xlink:href="asynchronousfileloadingworkunit_8h.html" target="_top" xlink:title="The declaration of the AsynchronousFileLoadWorkUnit a workunit that loads a listing of files asynchro...">
<polygon fill="white" stroke="black" points="340,-481 340,-503 510,-503 510,-481 340,-481"/>
<text text-anchor="middle" x="425" y="-490" font-family="FreeSans" font-size="10.00">asynchronousfileloadingworkunit.h</text>
</a>
</g>
<!-- Node1&#45;&gt;Node2 -->
<g id="edge2" class="edge"><title>Node1&#45;&gt;Node2</title>
<path fill="none" stroke="midnightblue" d="M579.334,-540.995C548.394,-531.173 502.915,-516.735 469.336,-506.075"/>
<polygon fill="midnightblue" stroke="midnightblue" points="470.356,-502.727 459.765,-503.037 468.237,-509.398 470.356,-502.727"/>
</g>
<!-- Node3 -->
<g id="node5" class="node"><title>Node3</title>
<a xlink:href="asynchronousworkunit_8h.html" target="_top" xlink:title="Contains an interface for a kind of WorkUnit that loads or does other work even when the frame schedu...">
<polygon fill="white" stroke="black" points="363.5,-421 363.5,-443 486.5,-443 486.5,-421 363.5,-421"/>
<text text-anchor="middle" x="425" y="-430" font-family="FreeSans" font-size="10.00">asynchronousworkunit.h</text>
</a>
</g>
<!-- Node1&#45;&gt;Node3 -->
<g id="edge96" class="edge"><title>Node1&#45;&gt;Node3</title>
<path fill="none" stroke="midnightblue" d="M601.005,-540.972C583.185,-526.13 549.853,-499.357 519,-480 499.702,-467.892 476.977,-456.224 458.706,-447.423"/>
<polygon fill="midnightblue" stroke="midnightblue" points="460.133,-444.226 449.599,-443.095 457.129,-450.549 460.133,-444.226"/>
</g>
<!-- Node4 -->
<g id="node7" class="node"><title>Node4</title>
<a xlink:href="datatypes_8h.html" target="_top" xlink:title="This file declares a few typedefs to allow flexibility, in case a change is required/desired.">
<polygon fill="white" stroke="black" points="470,-121 470,-143 538,-143 538,-121 470,-121"/>
<text text-anchor="middle" x="504" y="-130" font-family="FreeSans" font-size="10.00">datatypes.h</text>
</a>
</g>
<!-- Node1&#45;&gt;Node4 -->
<g id="edge104" class="edge"><title>Node1&#45;&gt;Node4</title>
<path fill="none" stroke="midnightblue" d="M557.655,-550.37C442.559,-546.448 184.38,-534.452 102,-504 49.9523,-484.761 0,-487.49 0,-432 0,-432 0,-432 0,-252 0,-215.607 8.73168,-200.206 39,-180 73.5753,-156.919 350.669,-140.037 459.932,-134.216"/>
<polygon fill="midnightblue" stroke="midnightblue" points="460.166,-137.708 469.968,-133.687 459.798,-130.718 460.166,-137.708"/>
</g>
<!-- Node5 -->
<g id="node9" class="node"><title>Node5</title>
<a xlink:href="compilerthreadcompat_8h.html" target="_top" xlink:title="This file determines what features are offered by the compiler that this library can take advantage o...">
<polygon fill="white" stroke="black" points="982,-61 982,-83 1106,-83 1106,-61 982,-61"/>
<text text-anchor="middle" x="1044" y="-70" font-family="FreeSans" font-size="10.00">compilerthreadcompat.h</text>
</a>
</g>
<!-- Node1&#45;&gt;Node5 -->
<g id="edge102" class="edge"><title>Node1&#45;&gt;Node5</title>
<path fill="none" stroke="midnightblue" d="M670.029,-550.247C775.518,-546.271 999.358,-534.431 1070,-504 1115.16,-484.547 1154,-481.171 1154,-432 1154,-432 1154,-432 1154,-192 1154,-144.725 1107.04,-107.997 1074.48,-88.2161"/>
<polygon fill="midnightblue" stroke="midnightblue" points="1076.13,-85.1257 1065.73,-83.0916 1072.59,-91.1659 1076.13,-85.1257"/>
</g>
<!-- Node12 -->
<g id="node23" class="node"><title>Node12</title>
<a xlink:href="doublebufferedresource_8h.html" target="_top" xlink:title="This file defines the template double buffered resources that can be attached to a thread...">
<polygon fill="white" stroke="black" points="173.5,-241 173.5,-263 304.5,-263 304.5,-241 173.5,-241"/>
<text text-anchor="middle" x="239" y="-250" font-family="FreeSans" font-size="10.00">doublebufferedresource.h</text>
</a>
</g>
<!-- Node1&#45;&gt;Node12 -->
<g id="edge106" class="edge"><title>Node1&#45;&gt;Node12</title>
<path fill="none" stroke="midnightblue" d="M557.783,-549.214C456.568,-543.633 247.898,-529.39 180,-504 127.343,-484.309 76,-488.218 76,-432 76,-432 76,-432 76,-372 76,-315.783 139.655,-282.965 187.407,-266.256"/>
<polygon fill="midnightblue" stroke="midnightblue" points="188.656,-269.528 197.023,-263.029 186.43,-262.892 188.656,-269.528"/>
</g>
<!-- Node16 -->
<g id="node32" class="node"><title>Node16</title>
<a xlink:href="workunit_8h.html" target="_top" xlink:title="This file has the definition of the workunit.">
<polygon fill="white" stroke="black" points="641.5,-361 641.5,-383 702.5,-383 702.5,-361 641.5,-361"/>
<text text-anchor="middle" x="672" y="-370" font-family="FreeSans" font-size="10.00">workunit.h</text>
</a>
</g>
<!-- Node1&#45;&gt;Node16 -->
<g id="edge134" class="edge"><title>Node1&#45;&gt;Node16</title>
<path fill="none" stroke="midnightblue" d="M617.628,-540.74C627.149,-511.193 652.961,-431.086 665.281,-392.852"/>
<polygon fill="midnightblue" stroke="midnightblue" points="668.638,-393.847 668.373,-383.256 661.975,-391.7 668.638,-393.847"/>
</g>
<!-- Node17 -->
<g id="node35" class="node"><title>Node17</title>
<a xlink:href="framescheduler_8h.html" target="_top" xlink:title="This file has the Declarations for the main FrameScheduler class.">
<polygon fill="white" stroke="black" points="583,-301 583,-323 677,-323 677,-301 583,-301"/>
<text text-anchor="middle" x="630" y="-310" font-family="FreeSans" font-size="10.00">framescheduler.h</text>
</a>
</g>
<!-- Node1&#45;&gt;Node17 -->
<g id="edge108" class="edge"><title>Node1&#45;&gt;Node17</title>
<path fill="none" stroke="midnightblue" d="M614.75,-540.746C617.244,-503.346 625.281,-382.79 628.573,-333.402"/>
<polygon fill="midnightblue" stroke="midnightblue" points="632.078,-333.44 629.251,-323.229 625.094,-332.974 632.078,-333.44"/>
</g>
<!-- Node18 -->
<g id="node39" class="node"><title>Node18</title>
<a xlink:href="thread_8h.html" target="_top" xlink:title="This file defines a minimalistic cross&#45;platform thread that the scheduler uses to schedule tasks...">
<polygon fill="white" stroke="black" points="959.5,-241 959.5,-263 1012.5,-263 1012.5,-241 959.5,-241"/>
<text text-anchor="middle" x="986" y="-250" font-family="FreeSans" font-size="10.00">thread.h</text>
</a>
</g>
<!-- Node1&#45;&gt;Node18 -->
<g id="edge130" class="edge"><title>Node1&#45;&gt;Node18</title>
<path fill="none" stroke="midnightblue" d="M670.31,-549.235C793.7,-541.637 1077,-515.142 1077,-432 1077,-432 1077,-432 1077,-372 1077,-338.269 1073.02,-327.147 1053,-300 1043.57,-287.212 1029.71,-276.486 1017.05,-268.44"/>
<polygon fill="midnightblue" stroke="midnightblue" points="1018.48,-265.221 1008.11,-263.064 1014.88,-271.219 1018.48,-265.221"/>
</g>
<!-- Node19 -->
<g id="node42" class="node"><title>Node19</title>
<a xlink:href="systemcalls_8h.html" target="_top" xlink:title="This file defines a minimalistic cross&#45;platform thread that the scheduler uses to schedule tasks...">
<polygon fill="white" stroke="black" points="794.5,-181 794.5,-203 871.5,-203 871.5,-181 794.5,-181"/>
<text text-anchor="middle" x="833" y="-190" font-family="FreeSans" font-size="10.00">systemcalls.h</text>
</a>
</g>
<!-- Node1&#45;&gt;Node19 -->
<g id="edge128" class="edge"><title>Node1&#45;&gt;Node19</title>
<path fill="none" stroke="midnightblue" d="M670.186,-543.478C760.546,-528.421 931.272,-493.913 963,-444 995.773,-392.443 1098.58,-483.786 913,-240 902.357,-226.019 886.368,-215.267 871.475,-207.519"/>
<polygon fill="midnightblue" stroke="midnightblue" points="872.922,-204.331 862.401,-203.081 869.846,-210.619 872.922,-204.331"/>
</g>
<!-- Node20 -->
<g id="node45" class="node"><title>Node20</title>
<a xlink:href="mutex_8h.html" target="_top" xlink:title="This file declares and defines a mutex that is a partial implementation.">
<polygon fill="white" stroke="black" points="1067.5,-181 1067.5,-203 1118.5,-203 1118.5,-181 1067.5,-181"/>
<text text-anchor="middle" x="1093" y="-190" font-family="FreeSans" font-size="10.00">mutex.h</text>
</a>
</g>
<!-- Node1&#45;&gt;Node20 -->
<g id="edge124" class="edge"><title>Node1&#45;&gt;Node20</title>
<path fill="none" stroke="midnightblue" d="M670.213,-549.286C767.532,-543.954 963.033,-530.279 1026,-504 1073.27,-484.271 1116,-483.225 1116,-432 1116,-432 1116,-432 1116,-312 1116,-276.681 1106.27,-236.543 1099.47,-212.795"/>
<polygon fill="midnightblue" stroke="midnightblue" points="1102.8,-211.704 1096.59,-203.113 1096.08,-213.696 1102.8,-211.704"/>
</g>
<!-- Node22 -->
<g id="node52" class="node"><title>Node22</title>
<a xlink:href="workunitkey_8h.html" target="_top" xlink:title="This file defines the metadata used to sort workunits.">
<polygon fill="white" stroke="black" points="827.5,-241 827.5,-263 904.5,-263 904.5,-241 827.5,-241"/>
<text text-anchor="middle" x="866" y="-250" font-family="FreeSans" font-size="10.00">workunitkey.h</text>
</a>
</g>
<!-- Node1&#45;&gt;Node22 -->
<g id="edge136" class="edge"><title>Node1&#45;&gt;Node22</title>
<path fill="none" stroke="midnightblue" d="M635.851,-540.855C687.991,-512.853 818.989,-433.855 868,-324 875.105,-308.075 873.876,-288.134 871.284,-273.279"/>
<polygon fill="midnightblue" stroke="midnightblue" points="874.621,-272.135 869.152,-263.061 867.768,-273.565 874.621,-272.135"/>
</g>
<!-- Node23 -->
<g id="node56" class="node"><title>Node23</title>
<a xlink:href="barrier_8h.html" target="_top" xlink:title="The declaration of the Mezzanine::Threading::Barrier Barrier synchronization primitive.">
<polygon fill="white" stroke="black" points="321.5,-241 321.5,-263 374.5,-263 374.5,-241 321.5,-241"/>
<text text-anchor="middle" x="348" y="-250" font-family="FreeSans" font-size="10.00">barrier.h</text>
</a>
</g>
<!-- Node1&#45;&gt;Node23 -->
<g id="edge100" class="edge"><title>Node1&#45;&gt;Node23</title>
<path fill="none" stroke="midnightblue" d="M557.809,-546.35C479.503,-537.902 345.471,-521.132 331,-504 274.06,-436.589 317.142,-319.445 338.181,-272.409"/>
<polygon fill="midnightblue" stroke="midnightblue" points="341.402,-273.782 342.408,-263.235 335.045,-270.853 341.402,-273.782"/>
</g>
<!-- Node24 -->
<g id="node59" class="node"><title>Node24</title>
<a xlink:href="atomicoperations_8h.html" target="_top" xlink:title="Simple thread safe ways to check and change a specified variable atomically.">
<polygon fill="white" stroke="black" points="65.5,-181 65.5,-203 166.5,-203 166.5,-181 65.5,-181"/>
<text text-anchor="middle" x="116" y="-190" font-family="FreeSans" font-size="10.00">atomicoperations.h</text>
</a>
</g>
<!-- Node1&#45;&gt;Node24 -->
<g id="edge98" class="edge"><title>Node1&#45;&gt;Node24</title>
<path fill="none" stroke="midnightblue" d="M557.956,-548.6C482.029,-543.075 351.424,-530.042 312,-504 200.933,-430.634 140.926,-270.394 122.355,-212.985"/>
<polygon fill="midnightblue" stroke="midnightblue" points="125.621,-211.704 119.278,-203.217 118.944,-213.807 125.621,-211.704"/>
</g>
<!-- Node28 -->
<g id="node69" class="node"><title>Node28</title>
<a xlink:href="rollingaverage_8h.html" target="_top" xlink:title="This stores the implementation and the declaration of the RollingAverage, BufferedRollingAverage, WeightedRollingAverage and the DefaultRollingAverage.">
<polygon fill="white" stroke="black" points="400.5,-301 400.5,-323 489.5,-323 489.5,-301 400.5,-301"/>
<text text-anchor="middle" x="445" y="-310" font-family="FreeSans" font-size="10.00">rollingaverage.h</text>
</a>
</g>
<!-- Node1&#45;&gt;Node28 -->
<g id="edge126" class="edge"><title>Node1&#45;&gt;Node28</title>
<path fill="none" stroke="midnightblue" d="M606.075,-540.746C579.407,-502.874 492.694,-379.731 458.777,-331.565"/>
<polygon fill="midnightblue" stroke="midnightblue" points="461.527,-329.391 452.907,-323.229 455.803,-333.421 461.527,-329.391"/>
</g>
<!-- Node29 -->
<g id="node73" class="node"><title>Node29</title>
<a xlink:href="threadingenumerations_8h.html" target="_top" xlink:title="Any enumerations the threading library requires are all declared here.">
<polygon fill="white" stroke="black" points="732.5,-301 732.5,-323 859.5,-323 859.5,-301 732.5,-301"/>
<text text-anchor="middle" x="796" y="-310" font-family="FreeSans" font-size="10.00">threadingenumerations.h</text>
</a>
</g>
<!-- Node1&#45;&gt;Node29 -->
<g id="edge132" class="edge"><title>Node1&#45;&gt;Node29</title>
<path fill="none" stroke="midnightblue" d="M670.186,-543.478C760.546,-528.421 931.272,-493.913 963,-444 998.025,-388.901 905.177,-346.986 844.266,-326.299"/>
<polygon fill="midnightblue" stroke="midnightblue" points="845.011,-322.859 834.418,-323.043 842.814,-329.505 845.011,-322.859"/>
</g>
<!-- Node30 -->
<g id="node85" class="node"><title>Node30</title>
<a xlink:href="frameschedulerworkunits_8h.html" target="_top" xlink:title="This defines a number of workunits that are required for doing some tasks that the Framescheduler req...">
<polygon fill="white" stroke="black" points="818,-421 818,-443 954,-443 954,-421 818,-421"/>
<text text-anchor="middle" x="886" y="-430" font-family="FreeSans" font-size="10.00">frameschedulerworkunits.h</text>
</a>
</g>
<!-- Node1&#45;&gt;Node30 -->
<g id="edge110" class="edge"><title>Node1&#45;&gt;Node30</title>
<path fill="none" stroke="midnightblue" d="M670.131,-544.947C709.346,-538.354 761.99,-526.085 804,-504 829.94,-490.363 854.471,-466.918 869.825,-450.497"/>
<polygon fill="midnightblue" stroke="midnightblue" points="872.441,-452.822 876.591,-443.074 867.268,-448.107 872.441,-452.822"/>
</g>
<!-- Node31 -->
<g id="node89" class="node"><title>Node31</title>
<a xlink:href="monopoly_8h.html" target="_top" xlink:title="Contains an interface for a kind of WorkUnit that consumes time on multiple thread.">
<polygon fill="white" stroke="black" points="126,-421 126,-443 194,-443 194,-421 126,-421"/>
<text text-anchor="middle" x="160" y="-430" font-family="FreeSans" font-size="10.00">monopoly.h</text>
</a>
</g>
<!-- Node1&#45;&gt;Node31 -->
<g id="edge116" class="edge"><title>Node1&#45;&gt;Node31</title>
<path fill="none" stroke="midnightblue" d="M557.649,-551.084C460.248,-548.571 265.325,-539.165 208,-504 188.805,-492.225 175.633,-469.556 168.01,-452.786"/>
<polygon fill="midnightblue" stroke="midnightblue" points="171.098,-451.102 163.977,-443.257 164.652,-453.831 171.098,-451.102"/>
</g>
<!-- Node2&#45;&gt;Node3 -->
<g id="edge4" class="edge"><title>Node2&#45;&gt;Node3</title>
<path fill="none" stroke="midnightblue" d="M425,-480.995C425,-473.311 425,-462.803 425,-453.488"/>
<polygon fill="midnightblue" stroke="midnightblue" points="428.5,-453.343 425,-443.343 421.5,-453.343 428.5,-453.343"/>
</g>
<!-- Node3&#45;&gt;Node4 -->
<g id="edge6" class="edge"><title>Node3&#45;&gt;Node4</title>
<path fill="none" stroke="midnightblue" d="M418.248,-420.668C405.484,-397.797 380.117,-344.504 392,-300 408.449,-238.395 458.068,-179.518 485.415,-150.595"/>
<polygon fill="midnightblue" stroke="midnightblue" points="488.071,-152.882 492.491,-143.254 483.031,-148.024 488.071,-152.882"/>
</g>
<!-- Node3&#45;&gt;Node12 -->
<g id="edge22" class="edge"><title>Node3&#45;&gt;Node12</title>
<path fill="none" stroke="midnightblue" d="M407.728,-420.866C393.968,-411.666 374.508,-397.903 359,-384 318.007,-347.249 276.084,-297.891 254.288,-271.154"/>
<polygon fill="midnightblue" stroke="midnightblue" points="256.955,-268.886 247.945,-263.312 251.513,-273.288 256.955,-268.886"/>
</g>
<!-- Node3&#45;&gt;Node16 -->
<g id="edge32" class="edge"><title>Node3&#45;&gt;Node16</title>
<path fill="none" stroke="midnightblue" d="M470.304,-420.995C516.43,-409.79 587.28,-392.58 631.566,-381.822"/>
<polygon fill="midnightblue" stroke="midnightblue" points="632.516,-385.193 641.407,-379.431 630.863,-378.391 632.516,-385.193"/>
</g>
<!-- Node4&#45;&gt;Node5 -->
<g id="edge8" class="edge"><title>Node4&#45;&gt;Node5</title>
<path fill="none" stroke="midnightblue" d="M538.189,-128.201C624.695,-118.589 853.748,-93.1391 971.641,-80.0399"/>
<polygon fill="midnightblue" stroke="midnightblue" points="972.107,-83.5097 981.66,-78.9267 971.334,-76.5525 972.107,-83.5097"/>
</g>
<!-- Node10 -->
<g id="node19" class="node"><title>Node10</title>
<polygon fill="white" stroke="#bfbfbf" points="709.5,-61 709.5,-83 750.5,-83 750.5,-61 709.5,-61"/>
<text text-anchor="middle" x="730" y="-70" font-family="FreeSans" font-size="10.00">string</text>
</g>
<!-- Node4&#45;&gt;Node10 -->
<g id="edge18" class="edge"><title>Node4&#45;&gt;Node10</title>
<path fill="none" stroke="midnightblue" d="M538.325,-122.887C582.151,-111.252 657.323,-91.2948 699.322,-80.1446"/>
<polygon fill="midnightblue" stroke="midnightblue" points="700.479,-83.4588 709.246,-77.5099 698.683,-76.6932 700.479,-83.4588"/>
</g>
<!-- Node11 -->
<g id="node21" class="node"><title>Node11</title>
<polygon fill="white" stroke="#bfbfbf" points="480.5,-61 480.5,-83 527.5,-83 527.5,-61 480.5,-61"/>
<text text-anchor="middle" x="504" y="-70" font-family="FreeSans" font-size="10.00">stdint.h</text>
</g>
<!-- Node4&#45;&gt;Node11 -->
<g id="edge20" class="edge"><title>Node4&#45;&gt;Node11</title>
<path fill="none" stroke="midnightblue" d="M504,-120.995C504,-113.311 504,-102.803 504,-93.4884"/>
<polygon fill="midnightblue" stroke="midnightblue" points="507.5,-93.3428 504,-83.3428 500.5,-93.3429 507.5,-93.3428"/>
</g>
<!-- Node6 -->
<g id="node11" class="node"><title>Node6</title>
<polygon fill="white" stroke="#bfbfbf" points="908,-1 908,-23 966,-23 966,-1 908,-1"/>
<text text-anchor="middle" x="937" y="-10" font-family="FreeSans" font-size="10.00">pthread.h</text>
</g>
<!-- Node5&#45;&gt;Node6 -->
<g id="edge10" class="edge"><title>Node5&#45;&gt;Node6</title>
<path fill="none" stroke="midnightblue" d="M1024.37,-60.9951C1007.96,-51.7917 984.324,-38.5366 965.772,-28.1336"/>
<polygon fill="midnightblue" stroke="midnightblue" points="967.298,-24.9766 956.863,-23.1383 963.874,-31.0822 967.298,-24.9766"/>
</g>
<!-- Node7 -->
<g id="node13" class="node"><title>Node7</title>
<polygon fill="white" stroke="#bfbfbf" points="983.5,-1 983.5,-23 1034.5,-23 1034.5,-1 983.5,-1"/>
<text text-anchor="middle" x="1009" y="-10" font-family="FreeSans" font-size="10.00">signal.h</text>
</g>
<!-- Node5&#45;&gt;Node7 -->
<g id="edge12" class="edge"><title>Node5&#45;&gt;Node7</title>
<path fill="none" stroke="midnightblue" d="M1037.58,-60.9951C1032.85,-52.8936 1026.3,-41.6525 1020.66,-31.981"/>
<polygon fill="midnightblue" stroke="midnightblue" points="1023.68,-30.2171 1015.62,-23.3428 1017.63,-33.7442 1023.68,-30.2171"/>
</g>
<!-- Node8 -->
<g id="node15" class="node"><title>Node8</title>
<polygon fill="white" stroke="#bfbfbf" points="1052,-1 1052,-23 1104,-23 1104,-1 1052,-1"/>
<text text-anchor="middle" x="1078" y="-10" font-family="FreeSans" font-size="10.00">sched.h</text>
</g>
<!-- Node5&#45;&gt;Node8 -->
<g id="edge14" class="edge"><title>Node5&#45;&gt;Node8</title>
<path fill="none" stroke="midnightblue" d="M1050.24,-60.9951C1054.78,-52.9771 1061.07,-41.884 1066.51,-32.2806"/>
<polygon fill="midnightblue" stroke="midnightblue" points="1069.69,-33.7686 1071.57,-23.3428 1063.6,-30.3175 1069.69,-33.7686"/>
</g>
<!-- Node9 -->
<g id="node17" class="node"><title>Node9</title>
<polygon fill="white" stroke="#bfbfbf" points="1122,-1 1122,-23 1172,-23 1172,-1 1122,-1"/>
<text text-anchor="middle" x="1147" y="-10" font-family="FreeSans" font-size="10.00">unistd.h</text>
</g>
<!-- Node5&#45;&gt;Node9 -->
<g id="edge16" class="edge"><title>Node5&#45;&gt;Node9</title>
<path fill="none" stroke="midnightblue" d="M1062.89,-60.9951C1078.62,-51.8337 1101.24,-38.6576 1119.06,-28.2763"/>
<polygon fill="midnightblue" stroke="midnightblue" points="1121,-31.1962 1127.88,-23.1383 1117.48,-25.1476 1121,-31.1962"/>
</g>
<!-- Node12&#45;&gt;Node4 -->
<g id="edge24" class="edge"><title>Node12&#45;&gt;Node4</title>
<path fill="none" stroke="midnightblue" d="M228.752,-240.786C216.036,-225.489 197.78,-197.936 213,-180 228.761,-161.426 381.891,-143.942 459.452,-136.192"/>
<polygon fill="midnightblue" stroke="midnightblue" points="460.264,-139.629 469.872,-135.164 459.577,-132.662 460.264,-139.629"/>
</g>
<!-- Node13 -->
<g id="node26" class="node"><title>Node13</title>
<polygon fill="white" stroke="#bfbfbf" points="292,-181 292,-203 350,-203 350,-181 292,-181"/>
<text text-anchor="middle" x="321" y="-190" font-family="FreeSans" font-size="10.00">algorithm</text>
</g>
<!-- Node12&#45;&gt;Node13 -->
<g id="edge26" class="edge"><title>Node12&#45;&gt;Node13</title>
<path fill="none" stroke="midnightblue" d="M254.04,-240.995C266.216,-232.086 283.581,-219.38 297.576,-209.14"/>
<polygon fill="midnightblue" stroke="midnightblue" points="299.774,-211.868 305.778,-203.138 295.64,-206.219 299.774,-211.868"/>
</g>
<!-- Node14 -->
<g id="node28" class="node"><title>Node14</title>
<polygon fill="white" stroke="#bfbfbf" points="221.5,-181 221.5,-203 274.5,-203 274.5,-181 221.5,-181"/>
<text text-anchor="middle" x="248" y="-190" font-family="FreeSans" font-size="10.00">sstream</text>
</g>
<!-- Node12&#45;&gt;Node14 -->
<g id="edge28" class="edge"><title>Node12&#45;&gt;Node14</title>
<path fill="none" stroke="midnightblue" d="M240.651,-240.995C241.803,-233.311 243.38,-222.803 244.777,-213.488"/>
<polygon fill="midnightblue" stroke="midnightblue" points="248.276,-213.751 246.299,-203.343 241.354,-212.713 248.276,-213.751"/>
</g>
<!-- Node15 -->
<g id="node30" class="node"><title>Node15</title>
<polygon fill="white" stroke="#bfbfbf" points="482,-181 482,-203 526,-203 526,-181 482,-181"/>
<text text-anchor="middle" x="504" y="-190" font-family="FreeSans" font-size="10.00">vector</text>
</g>
<!-- Node12&#45;&gt;Node15 -->
<g id="edge30" class="edge"><title>Node12&#45;&gt;Node15</title>
<path fill="none" stroke="midnightblue" d="M287.605,-240.995C341.252,-228.849 426.069,-209.645 471.961,-199.254"/>
<polygon fill="midnightblue" stroke="midnightblue" points="472.963,-202.616 481.944,-196.994 471.417,-195.789 472.963,-202.616"/>
</g>
<!-- Node16&#45;&gt;Node4 -->
<g id="edge34" class="edge"><title>Node16&#45;&gt;Node4</title>
<path fill="none" stroke="midnightblue" d="M641.193,-364.266C619.402,-357.249 591.122,-344.75 574,-324 531.798,-272.858 561.974,-240.571 535,-180 530.614,-170.151 524.364,-160.012 518.624,-151.606"/>
<polygon fill="midnightblue" stroke="midnightblue" points="521.346,-149.394 512.708,-143.26 515.635,-153.442 521.346,-149.394"/>
</g>
<!-- Node16&#45;&gt;Node15 -->
<g id="edge94" class="edge"><title>Node16&#45;&gt;Node15</title>
<path fill="none" stroke="midnightblue" d="M641.373,-368.771C611.63,-364.015 567.233,-352.362 541,-324 512.466,-293.151 505.692,-242.065 504.235,-213.331"/>
<polygon fill="midnightblue" stroke="midnightblue" points="507.727,-213.048 503.897,-203.169 500.731,-213.28 507.727,-213.048"/>
</g>
<!-- Node16&#45;&gt;Node17 -->
<g id="edge36" class="edge"><title>Node16&#45;&gt;Node17</title>
<path fill="none" stroke="midnightblue" d="M664.297,-360.995C658.567,-352.81 650.594,-341.42 643.778,-331.682"/>
<polygon fill="midnightblue" stroke="midnightblue" points="646.542,-329.528 637.94,-323.343 640.807,-333.542 646.542,-329.528"/>
</g>
<!-- Node16&#45;&gt;Node18 -->
<g id="edge90" class="edge"><title>Node16&#45;&gt;Node18</title>
<path fill="none" stroke="midnightblue" d="M702.801,-367.472C742.202,-361.008 812.036,-347.267 868,-324 903.017,-309.441 939.766,-285.422 962.765,-269.169"/>
<polygon fill="midnightblue" stroke="midnightblue" points="965.075,-271.819 971.161,-263.147 960.995,-266.131 965.075,-271.819"/>
</g>
<!-- Node16&#45;&gt;Node20 -->
<g id="edge80" class="edge"><title>Node16&#45;&gt;Node20</title>
<path fill="none" stroke="midnightblue" d="M702.74,-368.329C747.845,-362.346 834.176,-348.615 904,-324 959.114,-304.57 973.767,-298.411 1021,-264 1042.34,-248.454 1063.28,-226.543 1077.03,-210.984"/>
<polygon fill="midnightblue" stroke="midnightblue" points="1079.98,-212.923 1083.89,-203.074 1074.69,-208.339 1079.98,-212.923"/>
</g>
<!-- Node16&#45;&gt;Node22 -->
<g id="edge92" class="edge"><title>Node16&#45;&gt;Node22</title>
<path fill="none" stroke="midnightblue" d="M677.255,-360.824C685.216,-345.059 701.79,-316.386 724,-300 739.152,-288.821 782.55,-274.942 817.418,-264.988"/>
<polygon fill="midnightblue" stroke="midnightblue" points="818.782,-268.24 827.459,-262.161 816.885,-261.502 818.782,-268.24"/>
</g>
<!-- Node16&#45;&gt;Node28 -->
<g id="edge82" class="edge"><title>Node16&#45;&gt;Node28</title>
<path fill="none" stroke="midnightblue" d="M641.386,-363.908C604.258,-354.095 541.111,-337.404 496.459,-325.601"/>
<polygon fill="midnightblue" stroke="midnightblue" points="497.227,-322.184 486.664,-323.013 495.438,-328.952 497.227,-322.184"/>
</g>
<!-- Node16&#45;&gt;Node29 -->
<g id="edge88" class="edge"><title>Node16&#45;&gt;Node29</title>
<path fill="none" stroke="midnightblue" d="M694.744,-360.995C714.111,-351.624 742.161,-338.051 763.829,-327.566"/>
<polygon fill="midnightblue" stroke="midnightblue" points="765.504,-330.645 772.981,-323.138 762.455,-324.343 765.504,-330.645"/>
</g>
<!-- Node17&#45;&gt;Node4 -->
<g id="edge38" class="edge"><title>Node17&#45;&gt;Node4</title>
<path fill="none" stroke="midnightblue" d="M625.549,-300.767C614.285,-272.664 584.383,-200.127 568,-180 558.052,-167.778 544.35,-156.962 532.176,-148.705"/>
<polygon fill="midnightblue" stroke="midnightblue" points="533.948,-145.682 523.658,-143.162 530.13,-151.549 533.948,-145.682"/>
</g>
<!-- Node17&#45;&gt;Node12 -->
<g id="edge40" class="edge"><title>Node17&#45;&gt;Node12</title>
<path fill="none" stroke="midnightblue" d="M582.981,-305.038C523.06,-296.13 416.003,-280.099 314.846,-264.28"/>
<polygon fill="midnightblue" stroke="midnightblue" points="315.183,-260.79 304.762,-262.701 314.1,-267.706 315.183,-260.79"/>
</g>
<!-- Node17&#45;&gt;Node18 -->
<g id="edge42" class="edge"><title>Node17&#45;&gt;Node18</title>
<path fill="none" stroke="midnightblue" d="M677.274,-304.032C749.119,-291.924 884.288,-269.142 949.277,-258.189"/>
<polygon fill="midnightblue" stroke="midnightblue" points="950.176,-261.587 959.455,-256.474 949.012,-254.685 950.176,-261.587"/>
</g>
<!-- Node17&#45;&gt;Node19 -->
<g id="edge64" class="edge"><title>Node17&#45;&gt;Node19</title>
<path fill="none" stroke="midnightblue" d="M675.384,-300.934C713.347,-291.074 763.954,-276.339 781,-264 799.515,-250.598 814.023,-228.576 822.957,-212.41"/>
<polygon fill="midnightblue" stroke="midnightblue" points="826.227,-213.71 827.785,-203.231 820.032,-210.452 826.227,-213.71"/>
</g>
<!-- Node17&#45;&gt;Node22 -->
<g id="edge60" class="edge"><title>Node17&#45;&gt;Node22</title>
<path fill="none" stroke="midnightblue" d="M673.286,-300.995C714.063,-290.628 775.061,-275.12 817.469,-264.338"/>
<polygon fill="midnightblue" stroke="midnightblue" points="818.46,-267.698 827.29,-261.842 816.735,-260.914 818.46,-267.698"/>
</g>
<!-- Node17&#45;&gt;Node23 -->
<g id="edge66" class="edge"><title>Node17&#45;&gt;Node23</title>
<path fill="none" stroke="midnightblue" d="M582.8,-301.957C526.911,-290.066 435.04,-270.519 384.375,-259.739"/>
<polygon fill="midnightblue" stroke="midnightblue" points="385.024,-256.299 374.515,-257.641 383.568,-263.146 385.024,-256.299"/>
</g>
<!-- Node25 -->
<g id="node62" class="node"><title>Node25</title>
<polygon fill="white" stroke="#bfbfbf" points="620,-241 620,-263 656,-263 656,-241 620,-241"/>
<text text-anchor="middle" x="638" y="-250" font-family="FreeSans" font-size="10.00">map</text>
</g>
<!-- Node17&#45;&gt;Node25 -->
<g id="edge74" class="edge"><title>Node17&#45;&gt;Node25</title>
<path fill="none" stroke="midnightblue" d="M631.467,-300.995C632.492,-293.311 633.893,-282.803 635.135,-273.488"/>
<polygon fill="midnightblue" stroke="midnightblue" points="638.635,-273.718 636.488,-263.343 631.697,-272.793 638.635,-273.718"/>
</g>
<!-- Node26 -->
<g id="node64" class="node"><title>Node26</title>
<polygon fill="white" stroke="#bfbfbf" points="674,-241 674,-263 704,-263 704,-241 674,-241"/>
<text text-anchor="middle" x="689" y="-250" font-family="FreeSans" font-size="10.00">set</text>
</g>
<!-- Node17&#45;&gt;Node26 -->
<g id="edge76" class="edge"><title>Node17&#45;&gt;Node26</title>
<path fill="none" stroke="midnightblue" d="M640.822,-300.995C649.199,-292.476 660.989,-280.485 670.81,-270.499"/>
<polygon fill="midnightblue" stroke="midnightblue" points="673.33,-272.927 677.846,-263.343 668.339,-268.019 673.33,-272.927"/>
</g>
<!-- Node27 -->
<g id="node66" class="node"><title>Node27</title>
<polygon fill="white" stroke="#bfbfbf" points="722,-241 722,-263 772,-263 772,-241 722,-241"/>
<text text-anchor="middle" x="747" y="-250" font-family="FreeSans" font-size="10.00">fstream</text>
</g>
<!-- Node17&#45;&gt;Node27 -->
<g id="edge78" class="edge"><title>Node17&#45;&gt;Node27</title>
<path fill="none" stroke="midnightblue" d="M651.46,-300.995C669.652,-291.666 695.963,-278.173 716.37,-267.708"/>
<polygon fill="midnightblue" stroke="midnightblue" points="717.979,-270.816 725.28,-263.138 714.785,-264.587 717.979,-270.816"/>
</g>
<!-- Node18&#45;&gt;Node5 -->
<g id="edge44" class="edge"><title>Node18&#45;&gt;Node5</title>
<path fill="none" stroke="midnightblue" d="M989.628,-240.74C999.149,-211.193 1024.96,-131.086 1037.28,-92.8521"/>
<polygon fill="midnightblue" stroke="midnightblue" points="1040.64,-93.8471 1040.37,-83.2556 1033.97,-91.7002 1040.64,-93.8471"/>
</g>
<!-- Node18&#45;&gt;Node15 -->
<g id="edge58" class="edge"><title>Node18&#45;&gt;Node15</title>
<path fill="none" stroke="midnightblue" d="M959.348,-247.316C945.539,-244.966 928.389,-242.167 913,-240 773.222,-220.32 605.771,-202.445 536.474,-195.297"/>
<polygon fill="midnightblue" stroke="midnightblue" points="536.519,-191.783 526.214,-194.243 535.804,-198.747 536.519,-191.783"/>
</g>
<!-- Node18&#45;&gt;Node19 -->
<g id="edge46" class="edge"><title>Node18&#45;&gt;Node19</title>
<path fill="none" stroke="midnightblue" d="M959.349,-241.549C934.765,-231.908 898.015,-217.496 870.478,-206.697"/>
<polygon fill="midnightblue" stroke="midnightblue" points="871.745,-203.435 861.157,-203.042 869.189,-209.951 871.745,-203.435"/>
</g>
<!-- Node18&#45;&gt;Node20 -->
<g id="edge50" class="edge"><title>Node18&#45;&gt;Node20</title>
<path fill="none" stroke="midnightblue" d="M1005.63,-240.995C1022.04,-231.792 1045.68,-218.537 1064.23,-208.134"/>
<polygon fill="midnightblue" stroke="midnightblue" points="1066.13,-211.082 1073.14,-203.138 1062.7,-204.977 1066.13,-211.082"/>
</g>
<!-- Node21 -->
<g id="node49" class="node"><title>Node21</title>
<polygon fill="white" stroke="#bfbfbf" points="921.5,-181 921.5,-203 974.5,-203 974.5,-181 921.5,-181"/>
<text text-anchor="middle" x="948" y="-190" font-family="FreeSans" font-size="10.00">ostream</text>
</g>
<!-- Node18&#45;&gt;Node21 -->
<g id="edge56" class="edge"><title>Node18&#45;&gt;Node21</title>
<path fill="none" stroke="midnightblue" d="M979.03,-240.995C973.899,-232.894 966.78,-221.653 960.655,-211.981"/>
<polygon fill="midnightblue" stroke="midnightblue" points="963.491,-209.918 955.184,-203.343 957.577,-213.664 963.491,-209.918"/>
</g>
<!-- Node19&#45;&gt;Node4 -->
<g id="edge48" class="edge"><title>Node19&#45;&gt;Node4</title>
<path fill="none" stroke="midnightblue" d="M794.292,-184.941C732.7,-173.708 612.75,-151.833 547.993,-140.023"/>
<polygon fill="midnightblue" stroke="midnightblue" points="548.557,-136.568 538.091,-138.217 547.301,-143.455 548.557,-136.568"/>
</g>
<!-- Node20&#45;&gt;Node5 -->
<g id="edge52" class="edge"><title>Node20&#45;&gt;Node5</title>
<path fill="none" stroke="midnightblue" d="M1088.48,-180.926C1080.27,-160.834 1062.82,-118.093 1052.38,-92.5306"/>
<polygon fill="midnightblue" stroke="midnightblue" points="1055.53,-90.9823 1048.51,-83.0475 1049.05,-93.6285 1055.53,-90.9823"/>
</g>
<!-- Node20&#45;&gt;Node10 -->
<g id="edge54" class="edge"><title>Node20&#45;&gt;Node10</title>
<path fill="none" stroke="midnightblue" d="M1067.47,-183.562C1002.41,-162.053 830.558,-105.242 760.441,-82.063"/>
<polygon fill="midnightblue" stroke="midnightblue" points="761.452,-78.711 750.858,-78.8954 759.255,-85.3573 761.452,-78.711"/>
</g>
<!-- Node22&#45;&gt;Node4 -->
<g id="edge62" class="edge"><title>Node22&#45;&gt;Node4</title>
<path fill="none" stroke="midnightblue" d="M832.593,-240.926C766.728,-219.092 620.184,-170.514 547.131,-146.297"/>
<polygon fill="midnightblue" stroke="midnightblue" points="547.92,-142.872 537.326,-143.047 545.717,-149.516 547.92,-142.872"/>
</g>
<!-- Node23&#45;&gt;Node4 -->
<g id="edge68" class="edge"><title>Node23&#45;&gt;Node4</title>
<path fill="none" stroke="midnightblue" d="M353.979,-240.913C362.753,-225.513 380.436,-197.565 402,-180 419.394,-165.831 441.663,-154.727 460.953,-146.784"/>
<polygon fill="midnightblue" stroke="midnightblue" points="462.428,-149.964 470.437,-143.029 459.851,-143.456 462.428,-149.964"/>
</g>
<!-- Node23&#45;&gt;Node24 -->
<g id="edge70" class="edge"><title>Node23&#45;&gt;Node24</title>
<path fill="none" stroke="midnightblue" d="M321.327,-242.575C318.527,-241.669 315.713,-240.794 313,-240 267.623,-226.723 215.635,-214.165 176.463,-205.227"/>
<polygon fill="midnightblue" stroke="midnightblue" points="177.064,-201.774 166.538,-202.977 175.516,-208.601 177.064,-201.774"/>
</g>
<!-- Node24&#45;&gt;Node4 -->
<g id="edge72" class="edge"><title>Node24&#45;&gt;Node4</title>
<path fill="none" stroke="midnightblue" d="M166.624,-182.323C171.143,-181.515 175.652,-180.729 180,-180 279.665,-163.28 397.099,-146.642 459.599,-138.03"/>
<polygon fill="midnightblue" stroke="midnightblue" points="460.45,-141.446 469.88,-136.617 459.497,-134.511 460.45,-141.446"/>
</g>
<!-- Node28&#45;&gt;Node4 -->
<g id="edge86" class="edge"><title>Node28&#45;&gt;Node4</title>
<path fill="none" stroke="midnightblue" d="M445.972,-300.996C448.307,-277.833 455.402,-222.663 473,-180 477.111,-170.033 483.32,-159.877 489.103,-151.489"/>
<polygon fill="midnightblue" stroke="midnightblue" points="492.088,-153.334 495.093,-143.174 486.408,-149.242 492.088,-153.334"/>
</g>
<!-- Node28&#45;&gt;Node15 -->
<g id="edge84" class="edge"><title>Node28&#45;&gt;Node15</title>
<path fill="none" stroke="midnightblue" d="M450.445,-300.926C460.367,-280.744 481.525,-237.712 494.073,-212.191"/>
<polygon fill="midnightblue" stroke="midnightblue" points="497.297,-213.566 498.568,-203.047 491.015,-210.477 497.297,-213.566"/>
</g>
<!-- Node30&#45;&gt;Node4 -->
<g id="edge112" class="edge"><title>Node30&#45;&gt;Node4</title>
<path fill="none" stroke="midnightblue" d="M899.861,-420.798C929.096,-396.164 996.401,-333.882 1021,-264 1034.61,-225.349 1017.87,-201.524 983,-180 946.486,-157.459 660.275,-140.192 548.504,-134.244"/>
<polygon fill="midnightblue" stroke="midnightblue" points="548.416,-130.735 538.246,-133.704 548.048,-137.725 548.416,-130.735"/>
</g>
<!-- Node30&#45;&gt;Node16 -->
<g id="edge114" class="edge"><title>Node30&#45;&gt;Node16</title>
<path fill="none" stroke="midnightblue" d="M846.749,-420.995C808.646,-410.312 751.07,-394.169 712.536,-383.365"/>
<polygon fill="midnightblue" stroke="midnightblue" points="713.263,-379.934 702.689,-380.605 711.373,-386.674 713.263,-379.934"/>
</g>
<!-- Node31&#45;&gt;Node4 -->
<g id="edge118" class="edge"><title>Node31&#45;&gt;Node4</title>
<path fill="none" stroke="midnightblue" d="M147.971,-420.763C108.451,-382.546 -11.0674,-255.768 57,-180 83.628,-150.36 352.183,-137.465 459.773,-133.46"/>
<polygon fill="midnightblue" stroke="midnightblue" points="460.104,-136.95 469.971,-133.089 459.85,-129.955 460.104,-136.95"/>
</g>
<!-- Node31&#45;&gt;Node12 -->
<g id="edge120" class="edge"><title>Node31&#45;&gt;Node12</title>
<path fill="none" stroke="midnightblue" d="M164.942,-420.74C177.91,-391.193 213.068,-311.086 229.848,-272.852"/>
<polygon fill="midnightblue" stroke="midnightblue" points="233.246,-273.819 234.06,-263.256 226.836,-271.006 233.246,-273.819"/>
</g>
<!-- Node31&#45;&gt;Node16 -->
<g id="edge122" class="edge"><title>Node31&#45;&gt;Node16</title>
<path fill="none" stroke="midnightblue" d="M194.389,-427.97C285.572,-417.285 533.232,-388.262 631.262,-376.774"/>
<polygon fill="midnightblue" stroke="midnightblue" points="631.842,-380.23 641.367,-375.59 631.027,-373.278 631.842,-380.23"/>
</g>
</g>
</svg>
        <g id="navigator" transform="translate(0 0)" fill="#404254">
                <rect fill="#f2f5e9" fill-opacity="0.5" stroke="#606060" stroke-width=".5" x="0" y="0" width="60" height="60"/>
                <use id="zoomplus" xlink:href="#zoomPlus" x="17" y="9" onmousedown="handleZoom(evt,'in')"/>
                <use id="zoomminus" xlink:href="#zoomMin" x="42" y="9" onmousedown="handleZoom(evt,'out')"/>
                <use id="reset" xlink:href="#resetDef" x="30" y="36" onmousedown="handleReset()"/>
                <g id="arrowUp" xlink:href="#dirArrow" transform="translate(30 24)" onmousedown="handlePan(0,-1)">
                  <use xlink:href="#rim" fill="#404040">
                        <set attributeName="fill" to="#808080" begin="arrowUp.mouseover" end="arrowUp.mouseout"/>
                  </use>
                  <path fill="none" stroke="white" stroke-width="1.5" d="M0,-3.0v7 M-2.5,-0.5L0,-3.0L2.5,-0.5"/>
                </g>
                <g id="arrowRight" xlink:href="#dirArrow" transform="rotate(90) translate(36 -43)" onmousedown="handlePan(1,0)">
                  <use xlink:href="#rim" fill="#404040">
                        <set attributeName="fill" to="#808080" begin="arrowRight.mouseover" end="arrowRight.mouseout"/>
                  </use>
                  <path fill="none" stroke="white" stroke-width="1.5" d="M0,-3.0v7 M-2.5,-0.5L0,-3.0L2.5,-0.5"/>
                </g>
                <g id="arrowDown" xlink:href="#dirArrow" transform="rotate(180) translate(-30 -48)" onmousedown="handlePan(0,1)">
                  <use xlink:href="#rim" fill="#404040">
                        <set attributeName="fill" to="#808080" begin="arrowDown.mouseover" end="arrowDown.mouseout"/>
                  </use>
                  <path fill="none" stroke="white" stroke-width="1.5" d="M0,-3.0v7 M-2.5,-0.5L0,-3.0L2.5,-0.5"/>
                </g>
                <g id="arrowLeft" xlink:href="#dirArrow" transform="rotate(270) translate(-36 17)" onmousedown="handlePan(-1,0)">
                  <use xlink:href="#rim" fill="#404040">
                        <set attributeName="fill" to="#808080" begin="arrowLeft.mouseover" end="arrowLeft.mouseout"/>
                  </use>
                  <path fill="none" stroke="white" stroke-width="1.5" d="M0,-3.0v7 M-2.5,-0.5L0,-3.0L2.5,-0.5"/>
                </g>
        </g>
</svg>
