<?xml version="1.0" encoding="UTF-8" standalone="no"?>
<!DOCTYPE svg PUBLIC "-//W3C//DTD SVG 1.1//EN"
 "http://www.w3.org/Graphics/SVG/1.1/DTD/svg11.dtd">
<!-- Generated by graphviz version 2.26.3 (20100126.1600)
 -->
<!-- Title: G Pages: 1 -->
<!--zoomable 512 -->
<svg id="main" version="1.1" xmlns="http://www.w3.org/2000/svg" xmlns:xlink="http://www.w3.org/1999/xlink" xml:space="preserve" onload="init(evt)">
        <defs>
                <circle id="rim" cx="0" cy="0" r="7"/>
                <circle id="rim2" cx="0" cy="0" r="3.5"/>
                <g id="zoomPlus">
                        <use xlink:href="#rim" fill="#404040">
                                <set attributeName="fill" to="#808080" begin="zoomplus.mouseover" end="zoomplus.mouseout"/>
                        </use>
                        <path d="M-4,0h8M0,-4v8" fill="none" stroke="white" stroke-width="1.5" pointer-events="none"/>
                </g>
                <g id="zoomMin">
                        <use xlink:href="#rim" fill="#404040">
                                <set attributeName="fill" to="#808080" begin="zoomminus.mouseover" end="zoomminus.mouseout"/>
                        </use>
                        <path d="M-4,0h8" fill="none" stroke="white" stroke-width="1.5" pointer-events="none"/>
                </g>
                <g id="dirArrow">
                        <path fill="none" stroke="white" stroke-width="1.5" d="M0,-3.0v7 M-2.5,-0.5L0,-3.0L2.5,-0.5"/>
                </g>
               <g id="resetDef">
                       <use xlink:href="#rim2" fill="#404040">
                               <set attributeName="fill" to="#808080" begin="reset.mouseover" end="reset.mouseout"/>
                       </use>
               </g>
        </defs>

<script type="text/javascript">
var viewWidth = 1029;
var viewHeight = 512;
var sectionId = 'dynsection-0';
</script>
<script xlink:href="svgpan.js"/>
<svg id="graph" class="graph">
<g id="viewport">
<title>G</title>
<polygon fill="white" stroke="white" points="-4,5 -4,-508 1026,-508 1026,5 -4,5"/>
<!-- Node1 -->
<g id="node1" class="node"><title>Node1</title>
<polygon fill="#bfbfbf" stroke="black" points="412,-481 412,-503 524,-503 524,-481 412,-481"/>
<text text-anchor="middle" x="468" y="-490" font-family="FreeSans" font-size="10.00">dagframescheduler.h</text>
</g>
<!-- Node2 -->
<g id="node3" class="node"><title>Node2</title>
<a xlink:href="asynchronousworkunit_8h.html" target="_top" xlink:title="Contains an interface for a kind of WorkUnit that loads or writes a.">
<polygon fill="white" stroke="black" points="100.5,-421 100.5,-443 223.5,-443 223.5,-421 100.5,-421"/>
<text text-anchor="middle" x="162" y="-430" font-family="FreeSans" font-size="10.00">asynchronousworkunit.h</text>
</a>
</g>
<!-- Node1&#45;&gt;Node2 -->
<g id="edge2" class="edge"><title>Node1&#45;&gt;Node2</title>
<path fill="none" stroke="midnightblue" d="M411.875,-480.995C360.06,-470.835 283.064,-455.738 228.252,-444.991"/>
<polygon fill="midnightblue" stroke="midnightblue" points="228.773,-441.526 218.287,-443.037 227.426,-448.395 228.773,-441.526"/>
</g>
<!-- Node3 -->
<g id="node5" class="node"><title>Node3</title>
<a xlink:href="datatypes_8h.html" target="_top" xlink:title="This file declares a few typedefs to allow flexibility, in case a change is required/desired.">
<polygon fill="white" stroke="black" points="439,-121 439,-143 507,-143 507,-121 439,-121"/>
<text text-anchor="middle" x="473" y="-130" font-family="FreeSans" font-size="10.00">datatypes.h</text>
</a>
</g>
<!-- Node1&#45;&gt;Node3 -->
<g id="edge88" class="edge"><title>Node1&#45;&gt;Node3</title>
<path fill="none" stroke="midnightblue" d="M411.899,-489.505C317.955,-484.608 133.368,-471.711 75,-444 33.2584,-424.182 3.55271e-15,-418.207 0,-372 0,-372 0,-372 0,-252 3.55271e-15,-215.817 8.08637,-200.357 38,-180 69.8444,-158.329 324.189,-140.872 428.554,-134.551"/>
<polygon fill="midnightblue" stroke="midnightblue" points="428.988,-138.031 438.761,-133.939 428.569,-131.044 428.988,-138.031"/>
</g>
<!-- Node4 -->
<g id="node7" class="node"><title>Node4</title>
<a xlink:href="compilerthreadcompat_8h.html" target="_top" xlink:title="This file determines what features are offered by the compiler that this library can take advantage o...">
<polygon fill="white" stroke="black" points="829,-61 829,-83 953,-83 953,-61 829,-61"/>
<text text-anchor="middle" x="891" y="-70" font-family="FreeSans" font-size="10.00">compilerthreadcompat.h</text>
</a>
</g>
<!-- Node1&#45;&gt;Node4 -->
<g id="edge86" class="edge"><title>Node1&#45;&gt;Node4</title>
<path fill="none" stroke="midnightblue" d="M524.228,-490.378C631.929,-486.598 863.105,-475.034 936,-444 981.553,-424.606 1021,-421.509 1021,-372 1021,-372 1021,-372 1021,-192 1021,-141.316 966.985,-106.113 928.59,-87.4923"/>
<polygon fill="midnightblue" stroke="midnightblue" points="929.75,-84.1713 919.208,-83.1163 926.791,-90.5152 929.75,-84.1713"/>
</g>
<!-- Node11 -->
<g id="node21" class="node"><title>Node11</title>
<a xlink:href="doublebufferedresource_8h.html" target="_top" xlink:title="This file defines the template double buffered resources that can be attached to a thread...">
<polygon fill="white" stroke="black" points="94.5,-241 94.5,-263 225.5,-263 225.5,-241 94.5,-241"/>
<text text-anchor="middle" x="160" y="-250" font-family="FreeSans" font-size="10.00">doublebufferedresource.h</text>
</a>
</g>
<!-- Node1&#45;&gt;Node11 -->
<g id="edge90" class="edge"><title>Node1&#45;&gt;Node11</title>
<path fill="none" stroke="midnightblue" d="M411.996,-488.873C312.369,-482.735 112.792,-467.615 92,-444 46.5948,-392.43 109.289,-308.535 142.144,-271.094"/>
<polygon fill="midnightblue" stroke="midnightblue" points="144.949,-273.208 149.027,-263.43 139.741,-268.531 144.949,-273.208"/>
</g>
<!-- Node15 -->
<g id="node30" class="node"><title>Node15</title>
<a xlink:href="workunit_8h.html" target="_top" xlink:title="This file has the defintion of the workunit.">
<polygon fill="white" stroke="black" points="439.5,-361 439.5,-383 500.5,-383 500.5,-361 439.5,-361"/>
<text text-anchor="middle" x="470" y="-370" font-family="FreeSans" font-size="10.00">workunit.h</text>
</a>
</g>
<!-- Node1&#45;&gt;Node15 -->
<g id="edge118" class="edge"><title>Node1&#45;&gt;Node15</title>
<path fill="none" stroke="midnightblue" d="M458.936,-480.991C451.956,-471.755 442.868,-457.881 439,-444 436.137,-433.725 435.983,-430.231 439,-420 442.008,-409.798 447.934,-399.722 453.806,-391.456"/>
<polygon fill="midnightblue" stroke="midnightblue" points="456.757,-393.357 460.017,-383.276 451.182,-389.124 456.757,-393.357"/>
</g>
<!-- Node16 -->
<g id="node33" class="node"><title>Node16</title>
<a xlink:href="framescheduler_8h.html" target="_top" xlink:title="This file has the Declarations for the main FrameScheduler class.">
<polygon fill="white" stroke="black" points="603,-301 603,-323 697,-323 697,-301 603,-301"/>
<text text-anchor="middle" x="650" y="-310" font-family="FreeSans" font-size="10.00">framescheduler.h</text>
</a>
</g>
<!-- Node1&#45;&gt;Node16 -->
<g id="edge92" class="edge"><title>Node1&#45;&gt;Node16</title>
<path fill="none" stroke="midnightblue" d="M524.379,-481.326C563.992,-472.672 612.268,-459.411 626,-444 653.36,-413.296 654.396,-362.155 652.405,-333.373"/>
<polygon fill="midnightblue" stroke="midnightblue" points="655.872,-332.846 651.506,-323.193 648.899,-333.462 655.872,-332.846"/>
</g>
<!-- Node17 -->
<g id="node37" class="node"><title>Node17</title>
<a xlink:href="thread_8h.html" target="_top" xlink:title="This file defines a minimalistic cross&#45;platform thread that the scheduler uses to schedule tasks...">
<polygon fill="white" stroke="black" points="848.5,-241 848.5,-263 901.5,-263 901.5,-241 848.5,-241"/>
<text text-anchor="middle" x="875" y="-250" font-family="FreeSans" font-size="10.00">thread.h</text>
</a>
</g>
<!-- Node1&#45;&gt;Node17 -->
<g id="edge114" class="edge"><title>Node1&#45;&gt;Node17</title>
<path fill="none" stroke="midnightblue" d="M524.077,-483.374C568.297,-475.663 631.116,-462.678 684,-444 797.2,-404.02 862.716,-426.018 926,-324 937.974,-304.697 918.964,-283.598 900.847,-269.261"/>
<polygon fill="midnightblue" stroke="midnightblue" points="902.808,-266.357 892.701,-263.18 898.621,-271.966 902.808,-266.357"/>
</g>
<!-- Node18 -->
<g id="node40" class="node"><title>Node18</title>
<a xlink:href="systemcalls_8h.html" target="_top" xlink:title="This file defines a minimalistic cross&#45;platform thread that the scheduler uses to schedule tasks...">
<polygon fill="white" stroke="black" points="564.5,-181 564.5,-203 641.5,-203 641.5,-181 564.5,-181"/>
<text text-anchor="middle" x="603" y="-190" font-family="FreeSans" font-size="10.00">systemcalls.h</text>
</a>
</g>
<!-- Node1&#45;&gt;Node18 -->
<g id="edge112" class="edge"><title>Node1&#45;&gt;Node18</title>
<path fill="none" stroke="midnightblue" d="M511.397,-480.945C543.502,-471.79 583.274,-458.048 593,-444 594.138,-442.356 593.91,-301.998 594,-300 595.364,-269.749 598.57,-234.848 600.763,-213.1"/>
<polygon fill="midnightblue" stroke="midnightblue" points="604.258,-213.327 601.802,-203.021 597.295,-212.609 604.258,-213.327"/>
</g>
<!-- Node19 -->
<g id="node43" class="node"><title>Node19</title>
<a xlink:href="mutex_8h.html" target="_top" xlink:title="This file declares and defines a mutex that is a partial implementation.">
<polygon fill="white" stroke="black" points="903.5,-181 903.5,-203 954.5,-203 954.5,-181 903.5,-181"/>
<text text-anchor="middle" x="929" y="-190" font-family="FreeSans" font-size="10.00">mutex.h</text>
</a>
</g>
<!-- Node1&#45;&gt;Node19 -->
<g id="edge108" class="edge"><title>Node1&#45;&gt;Node19</title>
<path fill="none" stroke="midnightblue" d="M524.094,-490.715C657.571,-486.141 983,-465.411 983,-372 983,-372 983,-372 983,-312 983,-273.68 959.818,-234.059 943.832,-211.293"/>
<polygon fill="midnightblue" stroke="midnightblue" points="946.629,-209.189 937.917,-203.16 940.968,-213.306 946.629,-209.189"/>
</g>
<!-- Node21 -->
<g id="node50" class="node"><title>Node21</title>
<a xlink:href="workunitkey_8h.html" target="_top" xlink:title="This file defines the metadata used to sort workunits.">
<polygon fill="white" stroke="black" points="394.5,-241 394.5,-263 471.5,-263 471.5,-241 394.5,-241"/>
<text text-anchor="middle" x="433" y="-250" font-family="FreeSans" font-size="10.00">workunitkey.h</text>
</a>
</g>
<!-- Node1&#45;&gt;Node21 -->
<g id="edge120" class="edge"><title>Node1&#45;&gt;Node21</title>
<path fill="none" stroke="midnightblue" d="M456.502,-480.998C447.945,-471.976 436.929,-458.387 432,-444 411.732,-384.844 421.705,-309.286 428.482,-273.129"/>
<polygon fill="midnightblue" stroke="midnightblue" points="431.932,-273.725 430.446,-263.235 425.066,-272.363 431.932,-273.725"/>
</g>
<!-- Node25 -->
<g id="node61" class="node"><title>Node25</title>
<a xlink:href="rollingaverage_8h.html" target="_top" xlink:title="This Store the implementation and the declaration of the RollingAverage, BufferedRollingAverage, WeightedRollingAverage and the DefaultRollingAverage.">
<polygon fill="white" stroke="black" points="268.5,-301 268.5,-323 357.5,-323 357.5,-301 268.5,-301"/>
<text text-anchor="middle" x="313" y="-310" font-family="FreeSans" font-size="10.00">rollingaverage.h</text>
</a>
</g>
<!-- Node1&#45;&gt;Node25 -->
<g id="edge110" class="edge"><title>Node1&#45;&gt;Node25</title>
<path fill="none" stroke="midnightblue" d="M429.257,-480.876C408.797,-473.318 384.567,-461.464 368,-444 337.832,-412.198 323.115,-361.474 316.887,-333.056"/>
<polygon fill="midnightblue" stroke="midnightblue" points="320.266,-332.113 314.839,-323.014 313.408,-333.512 320.266,-332.113"/>
</g>
<!-- Node26 -->
<g id="node65" class="node"><title>Node26</title>
<a xlink:href="threadingenumerations_8h.html" target="_top" xlink:title="Any enumerations the threading library requires are all declared here.">
<polygon fill="white" stroke="black" points="790.5,-301 790.5,-323 917.5,-323 917.5,-301 790.5,-301"/>
<text text-anchor="middle" x="854" y="-310" font-family="FreeSans" font-size="10.00">threadingenumerations.h</text>
</a>
</g>
<!-- Node1&#45;&gt;Node26 -->
<g id="edge116" class="edge"><title>Node1&#45;&gt;Node26</title>
<path fill="none" stroke="midnightblue" d="M524.328,-481.525C560.349,-473.713 607.543,-461.376 647,-444 719.225,-412.193 795.259,-357.345 831.81,-329.424"/>
<polygon fill="midnightblue" stroke="midnightblue" points="834.032,-332.13 839.817,-323.254 829.76,-326.585 834.032,-332.13"/>
</g>
<!-- Node27 -->
<g id="node74" class="node"><title>Node27</title>
<a xlink:href="frameschedulerworkunits_8h.html" target="_top" xlink:title="This defines a number of workunits that are required for doing some tasks that the Framescheduler req...">
<polygon fill="white" stroke="black" points="448,-421 448,-443 584,-443 584,-421 448,-421"/>
<text text-anchor="middle" x="516" y="-430" font-family="FreeSans" font-size="10.00">frameschedulerworkunits.h</text>
</a>
</g>
<!-- Node1&#45;&gt;Node27 -->
<g id="edge94" class="edge"><title>Node1&#45;&gt;Node27</title>
<path fill="none" stroke="midnightblue" d="M476.804,-480.995C483.419,-472.727 492.65,-461.188 500.492,-451.385"/>
<polygon fill="midnightblue" stroke="midnightblue" points="503.412,-453.338 506.926,-443.343 497.946,-448.965 503.412,-453.338"/>
</g>
<!-- Node28 -->
<g id="node78" class="node"><title>Node28</title>
<a xlink:href="monopoly_8h.html" target="_top" xlink:title="Contains an interface for a kind of WorkUnit that consumes time on multiple thread.">
<polygon fill="white" stroke="black" points="245,-421 245,-443 313,-443 313,-421 245,-421"/>
<text text-anchor="middle" x="279" y="-430" font-family="FreeSans" font-size="10.00">monopoly.h</text>
</a>
</g>
<!-- Node1&#45;&gt;Node28 -->
<g id="edge100" class="edge"><title>Node1&#45;&gt;Node28</title>
<path fill="none" stroke="midnightblue" d="M433.334,-480.995C402.2,-471.111 356.344,-456.554 322.706,-445.875"/>
<polygon fill="midnightblue" stroke="midnightblue" points="323.718,-442.524 313.127,-442.834 321.599,-449.196 323.718,-442.524"/>
</g>
<!-- Node2&#45;&gt;Node3 -->
<g id="edge4" class="edge"><title>Node2&#45;&gt;Node3</title>
<path fill="none" stroke="midnightblue" d="M149.845,-420.799C109.903,-382.699 -10.9573,-256.249 57,-180 81.4396,-152.578 326.553,-138.538 428.689,-133.841"/>
<polygon fill="midnightblue" stroke="midnightblue" points="429.147,-137.324 438.979,-133.377 428.832,-130.331 429.147,-137.324"/>
</g>
<!-- Node2&#45;&gt;Node11 -->
<g id="edge20" class="edge"><title>Node2&#45;&gt;Node11</title>
<path fill="none" stroke="midnightblue" d="M161.875,-420.74C161.548,-391.319 160.664,-311.769 160.237,-273.345"/>
<polygon fill="midnightblue" stroke="midnightblue" points="163.736,-273.216 160.125,-263.256 156.736,-273.294 163.736,-273.216"/>
</g>
<!-- Node2&#45;&gt;Node15 -->
<g id="edge30" class="edge"><title>Node2&#45;&gt;Node15</title>
<path fill="none" stroke="midnightblue" d="M218.492,-420.995C279.51,-409.108 375.224,-390.463 429.279,-379.933"/>
<polygon fill="midnightblue" stroke="midnightblue" points="430.045,-383.349 439.191,-378.002 428.706,-376.479 430.045,-383.349"/>
</g>
<!-- Node3&#45;&gt;Node4 -->
<g id="edge6" class="edge"><title>Node3&#45;&gt;Node4</title>
<path fill="none" stroke="midnightblue" d="M507.207,-127.09C575.052,-117.351 727.94,-95.4058 818.945,-82.3428"/>
<polygon fill="midnightblue" stroke="midnightblue" points="819.51,-85.7977 828.911,-80.9123 818.515,-78.8687 819.51,-85.7977"/>
</g>
<!-- Node9 -->
<g id="node17" class="node"><title>Node9</title>
<polygon fill="white" stroke="#bfbfbf" points="629.5,-61 629.5,-83 670.5,-83 670.5,-61 629.5,-61"/>
<text text-anchor="middle" x="650" y="-70" font-family="FreeSans" font-size="10.00">string</text>
</g>
<!-- Node3&#45;&gt;Node9 -->
<g id="edge16" class="edge"><title>Node3&#45;&gt;Node9</title>
<path fill="none" stroke="midnightblue" d="M505.465,-120.995C538.065,-109.944 587.897,-93.0517 619.706,-82.2693"/>
<polygon fill="midnightblue" stroke="midnightblue" points="621.008,-85.5235 629.355,-78.9983 618.761,-78.8941 621.008,-85.5235"/>
</g>
<!-- Node10 -->
<g id="node19" class="node"><title>Node10</title>
<polygon fill="white" stroke="#bfbfbf" points="449.5,-61 449.5,-83 496.5,-83 496.5,-61 449.5,-61"/>
<text text-anchor="middle" x="473" y="-70" font-family="FreeSans" font-size="10.00">stdint.h</text>
</g>
<!-- Node3&#45;&gt;Node10 -->
<g id="edge18" class="edge"><title>Node3&#45;&gt;Node10</title>
<path fill="none" stroke="midnightblue" d="M473,-120.995C473,-113.311 473,-102.803 473,-93.4884"/>
<polygon fill="midnightblue" stroke="midnightblue" points="476.5,-93.3428 473,-83.3428 469.5,-93.3429 476.5,-93.3428"/>
</g>
<!-- Node5 -->
<g id="node9" class="node"><title>Node5</title>
<polygon fill="white" stroke="#bfbfbf" points="755,-1 755,-23 813,-23 813,-1 755,-1"/>
<text text-anchor="middle" x="784" y="-10" font-family="FreeSans" font-size="10.00">pthread.h</text>
</g>
<!-- Node4&#45;&gt;Node5 -->
<g id="edge8" class="edge"><title>Node4&#45;&gt;Node5</title>
<path fill="none" stroke="midnightblue" d="M871.375,-60.9951C854.962,-51.7917 831.324,-38.5366 812.772,-28.1336"/>
<polygon fill="midnightblue" stroke="midnightblue" points="814.298,-24.9766 803.863,-23.1383 810.874,-31.0822 814.298,-24.9766"/>
</g>
<!-- Node6 -->
<g id="node11" class="node"><title>Node6</title>
<polygon fill="white" stroke="#bfbfbf" points="830.5,-1 830.5,-23 881.5,-23 881.5,-1 830.5,-1"/>
<text text-anchor="middle" x="856" y="-10" font-family="FreeSans" font-size="10.00">signal.h</text>
</g>
<!-- Node4&#45;&gt;Node6 -->
<g id="edge10" class="edge"><title>Node4&#45;&gt;Node6</title>
<path fill="none" stroke="midnightblue" d="M884.58,-60.9951C879.855,-52.8936 873.297,-41.6525 867.656,-31.981"/>
<polygon fill="midnightblue" stroke="midnightblue" points="870.679,-30.2171 862.617,-23.3428 864.632,-33.7442 870.679,-30.2171"/>
</g>
<!-- Node7 -->
<g id="node13" class="node"><title>Node7</title>
<polygon fill="white" stroke="#bfbfbf" points="899,-1 899,-23 951,-23 951,-1 899,-1"/>
<text text-anchor="middle" x="925" y="-10" font-family="FreeSans" font-size="10.00">sched.h</text>
</g>
<!-- Node4&#45;&gt;Node7 -->
<g id="edge12" class="edge"><title>Node4&#45;&gt;Node7</title>
<path fill="none" stroke="midnightblue" d="M897.236,-60.9951C901.78,-52.9771 908.066,-41.884 913.508,-32.2806"/>
<polygon fill="midnightblue" stroke="midnightblue" points="916.687,-33.7686 918.572,-23.3428 910.597,-30.3175 916.687,-33.7686"/>
</g>
<!-- Node8 -->
<g id="node15" class="node"><title>Node8</title>
<polygon fill="white" stroke="#bfbfbf" points="969,-1 969,-23 1019,-23 1019,-1 969,-1"/>
<text text-anchor="middle" x="994" y="-10" font-family="FreeSans" font-size="10.00">unistd.h</text>
</g>
<!-- Node4&#45;&gt;Node8 -->
<g id="edge14" class="edge"><title>Node4&#45;&gt;Node8</title>
<path fill="none" stroke="midnightblue" d="M909.892,-60.9951C925.619,-51.8337 948.238,-38.6576 966.059,-28.2763"/>
<polygon fill="midnightblue" stroke="midnightblue" points="968,-31.1962 974.879,-23.1383 964.477,-25.1476 968,-31.1962"/>
</g>
<!-- Node11&#45;&gt;Node3 -->
<g id="edge22" class="edge"><title>Node11&#45;&gt;Node3</title>
<path fill="none" stroke="midnightblue" d="M169.904,-240.784C184.768,-224.698 214.48,-195.331 246,-180 305.102,-151.253 381.077,-139.652 428.409,-135.018"/>
<polygon fill="midnightblue" stroke="midnightblue" points="428.998,-138.478 438.637,-134.081 428.359,-131.508 428.998,-138.478"/>
</g>
<!-- Node12 -->
<g id="node24" class="node"><title>Node12</title>
<polygon fill="white" stroke="#bfbfbf" points="66,-181 66,-203 124,-203 124,-181 66,-181"/>
<text text-anchor="middle" x="95" y="-190" font-family="FreeSans" font-size="10.00">algorithm</text>
</g>
<!-- Node11&#45;&gt;Node12 -->
<g id="edge24" class="edge"><title>Node11&#45;&gt;Node12</title>
<path fill="none" stroke="midnightblue" d="M148.078,-240.995C138.759,-232.392 125.604,-220.25 114.722,-210.205"/>
<polygon fill="midnightblue" stroke="midnightblue" points="117.01,-207.554 107.288,-203.343 112.262,-212.697 117.01,-207.554"/>
</g>
<!-- Node13 -->
<g id="node26" class="node"><title>Node13</title>
<polygon fill="white" stroke="#bfbfbf" points="141.5,-181 141.5,-203 194.5,-203 194.5,-181 141.5,-181"/>
<text text-anchor="middle" x="168" y="-190" font-family="FreeSans" font-size="10.00">sstream</text>
</g>
<!-- Node11&#45;&gt;Node13 -->
<g id="edge26" class="edge"><title>Node11&#45;&gt;Node13</title>
<path fill="none" stroke="midnightblue" d="M161.467,-240.995C162.492,-233.311 163.893,-222.803 165.135,-213.488"/>
<polygon fill="midnightblue" stroke="midnightblue" points="168.635,-213.718 166.488,-203.343 161.697,-212.793 168.635,-213.718"/>
</g>
<!-- Node14 -->
<g id="node28" class="node"><title>Node14</title>
<polygon fill="white" stroke="#bfbfbf" points="332,-181 332,-203 376,-203 376,-181 332,-181"/>
<text text-anchor="middle" x="354" y="-190" font-family="FreeSans" font-size="10.00">vector</text>
</g>
<!-- Node11&#45;&gt;Node14 -->
<g id="edge28" class="edge"><title>Node11&#45;&gt;Node14</title>
<path fill="none" stroke="midnightblue" d="M195.583,-240.995C231.822,-229.787 287.491,-212.57 322.272,-201.813"/>
<polygon fill="midnightblue" stroke="midnightblue" points="323.403,-205.126 331.923,-198.828 321.335,-198.439 323.403,-205.126"/>
</g>
<!-- Node15&#45;&gt;Node3 -->
<g id="edge32" class="edge"><title>Node15&#45;&gt;Node3</title>
<path fill="none" stroke="midnightblue" d="M471.359,-360.985C473.69,-341.475 478.358,-299.551 480,-264 481.799,-225.06 478.129,-179.68 475.455,-153.55"/>
<polygon fill="midnightblue" stroke="midnightblue" points="478.902,-152.867 474.355,-143.298 471.942,-153.614 478.902,-152.867"/>
</g>
<!-- Node15&#45;&gt;Node14 -->
<g id="edge84" class="edge"><title>Node15&#45;&gt;Node14</title>
<path fill="none" stroke="midnightblue" d="M459.957,-360.997C443.124,-342.169 408.824,-302.107 386,-264 376.159,-247.569 367.51,-227.573 361.694,-212.828"/>
<polygon fill="midnightblue" stroke="midnightblue" points="364.829,-211.229 357.982,-203.144 358.293,-213.734 364.829,-211.229"/>
</g>
<!-- Node15&#45;&gt;Node16 -->
<g id="edge34" class="edge"><title>Node15&#45;&gt;Node16</title>
<path fill="none" stroke="midnightblue" d="M500.535,-361.822C529.804,-352.065 574.262,-337.246 607.087,-326.304"/>
<polygon fill="midnightblue" stroke="midnightblue" points="608.491,-329.526 616.871,-323.043 606.277,-322.885 608.491,-329.526"/>
</g>
<!-- Node15&#45;&gt;Node17 -->
<g id="edge80" class="edge"><title>Node15&#45;&gt;Node17</title>
<path fill="none" stroke="midnightblue" d="M500.627,-368.825C546.445,-363.402 635.037,-350.295 706,-324 726.523,-316.395 729.166,-309.253 749,-300 765.318,-292.387 807.53,-276.588 838.62,-265.192"/>
<polygon fill="midnightblue" stroke="midnightblue" points="840.085,-268.383 848.276,-261.663 837.682,-261.808 840.085,-268.383"/>
</g>
<!-- Node15&#45;&gt;Node19 -->
<g id="edge70" class="edge"><title>Node15&#45;&gt;Node19</title>
<path fill="none" stroke="midnightblue" d="M500.584,-370.109C551.76,-366.177 657.366,-354.761 741,-324 760.817,-316.711 762.568,-308.259 782,-300 836.388,-276.885 868.552,-306.124 910,-264 923.187,-250.598 927.523,-229.185 928.808,-213.19"/>
<polygon fill="midnightblue" stroke="midnightblue" points="932.307,-213.3 929.282,-203.146 925.315,-212.97 932.307,-213.3"/>
</g>
<!-- Node15&#45;&gt;Node21 -->
<g id="edge82" class="edge"><title>Node15&#45;&gt;Node21</title>
<path fill="none" stroke="midnightblue" d="M466.585,-360.926C460.418,-340.923 447.329,-298.472 439.436,-272.872"/>
<polygon fill="midnightblue" stroke="midnightblue" points="442.697,-271.572 436.406,-263.047 436.008,-273.635 442.697,-271.572"/>
</g>
<!-- Node15&#45;&gt;Node25 -->
<g id="edge72" class="edge"><title>Node15&#45;&gt;Node25</title>
<path fill="none" stroke="midnightblue" d="M441.204,-360.995C415.943,-351.341 379.017,-337.229 351.275,-326.627"/>
<polygon fill="midnightblue" stroke="midnightblue" points="352.47,-323.337 341.879,-323.037 349.971,-329.876 352.47,-323.337"/>
</g>
<!-- Node15&#45;&gt;Node26 -->
<g id="edge78" class="edge"><title>Node15&#45;&gt;Node26</title>
<path fill="none" stroke="midnightblue" d="M500.775,-367.191C560.974,-357.785 695.798,-336.719 780.372,-323.504"/>
<polygon fill="midnightblue" stroke="midnightblue" points="781.089,-326.935 790.429,-321.933 780.008,-320.019 781.089,-326.935"/>
</g>
<!-- Node16&#45;&gt;Node3 -->
<g id="edge36" class="edge"><title>Node16&#45;&gt;Node3</title>
<path fill="none" stroke="midnightblue" d="M654.121,-300.669C662.338,-275.893 677.707,-216.222 650,-180 633.915,-158.973 564.037,-145.009 517.042,-137.805"/>
<polygon fill="midnightblue" stroke="midnightblue" points="517.502,-134.335 507.097,-136.328 516.474,-141.259 517.502,-134.335"/>
</g>
<!-- Node16&#45;&gt;Node11 -->
<g id="edge38" class="edge"><title>Node16&#45;&gt;Node11</title>
<path fill="none" stroke="midnightblue" d="M602.572,-306.192C517.383,-295.761 337.831,-273.775 235.539,-261.25"/>
<polygon fill="midnightblue" stroke="midnightblue" points="235.935,-257.772 225.584,-260.031 235.084,-264.72 235.935,-257.772"/>
</g>
<!-- Node16&#45;&gt;Node17 -->
<g id="edge40" class="edge"><title>Node16&#45;&gt;Node17</title>
<path fill="none" stroke="midnightblue" d="M697.144,-301.238C733.584,-292.661 785.449,-279.893 838.714,-264.25"/>
<polygon fill="midnightblue" stroke="midnightblue" points="839.728,-267.6 848.32,-261.402 837.738,-260.889 839.728,-267.6"/>
</g>
<!-- Node16&#45;&gt;Node18 -->
<g id="edge62" class="edge"><title>Node16&#45;&gt;Node18</title>
<path fill="none" stroke="midnightblue" d="M645.663,-300.926C637.793,-280.834 621.053,-238.093 611.041,-212.531"/>
<polygon fill="midnightblue" stroke="midnightblue" points="614.233,-211.082 607.327,-203.047 607.715,-213.635 614.233,-211.082"/>
</g>
<!-- Node16&#45;&gt;Node21 -->
<g id="edge58" class="edge"><title>Node16&#45;&gt;Node21</title>
<path fill="none" stroke="midnightblue" d="M610.199,-300.995C574.032,-290.995 520.565,-276.212 481.828,-265.501"/>
<polygon fill="midnightblue" stroke="midnightblue" points="482.39,-262.025 471.819,-262.733 480.524,-268.772 482.39,-262.025"/>
</g>
<!-- Node22 -->
<g id="node54" class="node"><title>Node22</title>
<polygon fill="white" stroke="#bfbfbf" points="747,-241 747,-263 783,-263 783,-241 747,-241"/>
<text text-anchor="middle" x="765" y="-250" font-family="FreeSans" font-size="10.00">map</text>
</g>
<!-- Node16&#45;&gt;Node22 -->
<g id="edge64" class="edge"><title>Node16&#45;&gt;Node22</title>
<path fill="none" stroke="midnightblue" d="M671.093,-300.995C689.789,-291.24 717.21,-276.934 737.599,-266.296"/>
<polygon fill="midnightblue" stroke="midnightblue" points="739.448,-269.279 746.694,-261.551 736.21,-263.073 739.448,-269.279"/>
</g>
<!-- Node23 -->
<g id="node56" class="node"><title>Node23</title>
<polygon fill="white" stroke="#bfbfbf" points="801,-241 801,-263 831,-263 831,-241 801,-241"/>
<text text-anchor="middle" x="816" y="-250" font-family="FreeSans" font-size="10.00">set</text>
</g>
<!-- Node16&#45;&gt;Node23 -->
<g id="edge66" class="edge"><title>Node16&#45;&gt;Node23</title>
<path fill="none" stroke="midnightblue" d="M687.294,-300.939C714.148,-292.632 751.316,-280.437 791.476,-263.886"/>
<polygon fill="midnightblue" stroke="midnightblue" points="793.037,-267.027 800.911,-259.938 790.335,-260.569 793.037,-267.027"/>
</g>
<!-- Node24 -->
<g id="node58" class="node"><title>Node24</title>
<polygon fill="white" stroke="#bfbfbf" points="679,-241 679,-263 729,-263 729,-241 679,-241"/>
<text text-anchor="middle" x="704" y="-250" font-family="FreeSans" font-size="10.00">fstream</text>
</g>
<!-- Node16&#45;&gt;Node24 -->
<g id="edge68" class="edge"><title>Node16&#45;&gt;Node24</title>
<path fill="none" stroke="midnightblue" d="M659.904,-300.995C667.496,-292.56 678.152,-280.72 687.086,-270.793"/>
<polygon fill="midnightblue" stroke="midnightblue" points="689.703,-273.117 693.791,-263.343 684.5,-268.434 689.703,-273.117"/>
</g>
<!-- Node17&#45;&gt;Node4 -->
<g id="edge42" class="edge"><title>Node17&#45;&gt;Node4</title>
<path fill="none" stroke="midnightblue" d="M876.001,-240.74C878.616,-211.319 885.687,-131.769 889.103,-93.3446"/>
<polygon fill="midnightblue" stroke="midnightblue" points="892.6,-93.5262 890,-83.2556 885.628,-92.9064 892.6,-93.5262"/>
</g>
<!-- Node17&#45;&gt;Node14 -->
<g id="edge56" class="edge"><title>Node17&#45;&gt;Node14</title>
<path fill="none" stroke="midnightblue" d="M848.428,-242.179C845.608,-241.35 842.762,-240.601 840,-240 752.751,-221.004 480.068,-200.773 386.16,-194.198"/>
<polygon fill="midnightblue" stroke="midnightblue" points="386.338,-190.702 376.12,-193.5 385.853,-197.686 386.338,-190.702"/>
</g>
<!-- Node17&#45;&gt;Node18 -->
<g id="edge44" class="edge"><title>Node17&#45;&gt;Node18</title>
<path fill="none" stroke="midnightblue" d="M848.358,-242.465C845.552,-241.581 842.728,-240.74 840,-240 775.644,-222.531 699.906,-208.26 651.688,-199.944"/>
<polygon fill="midnightblue" stroke="midnightblue" points="651.981,-196.444 641.534,-198.211 650.803,-203.344 651.981,-196.444"/>
</g>
<!-- Node17&#45;&gt;Node19 -->
<g id="edge48" class="edge"><title>Node17&#45;&gt;Node19</title>
<path fill="none" stroke="midnightblue" d="M884.904,-240.995C892.496,-232.56 903.152,-220.72 912.086,-210.793"/>
<polygon fill="midnightblue" stroke="midnightblue" points="914.703,-213.117 918.791,-203.343 909.5,-208.434 914.703,-213.117"/>
</g>
<!-- Node20 -->
<g id="node47" class="node"><title>Node20</title>
<polygon fill="white" stroke="#bfbfbf" points="795.5,-181 795.5,-203 848.5,-203 848.5,-181 795.5,-181"/>
<text text-anchor="middle" x="822" y="-190" font-family="FreeSans" font-size="10.00">ostream</text>
</g>
<!-- Node17&#45;&gt;Node20 -->
<g id="edge54" class="edge"><title>Node17&#45;&gt;Node20</title>
<path fill="none" stroke="midnightblue" d="M865.279,-240.995C857.901,-232.643 847.576,-220.954 838.861,-211.088"/>
<polygon fill="midnightblue" stroke="midnightblue" points="841.263,-208.52 832.02,-203.343 836.017,-213.155 841.263,-208.52"/>
</g>
<!-- Node18&#45;&gt;Node3 -->
<g id="edge46" class="edge"><title>Node18&#45;&gt;Node3</title>
<path fill="none" stroke="midnightblue" d="M579.156,-180.995C558.76,-171.582 529.18,-157.929 506.422,-147.426"/>
<polygon fill="midnightblue" stroke="midnightblue" points="507.679,-144.151 497.133,-143.138 504.746,-150.507 507.679,-144.151"/>
</g>
<!-- Node19&#45;&gt;Node4 -->
<g id="edge50" class="edge"><title>Node19&#45;&gt;Node4</title>
<path fill="none" stroke="midnightblue" d="M925.493,-180.926C919.159,-160.923 905.716,-118.472 897.61,-92.8724"/>
<polygon fill="midnightblue" stroke="midnightblue" points="900.854,-91.5242 894.498,-83.0475 894.181,-93.6375 900.854,-91.5242"/>
</g>
<!-- Node19&#45;&gt;Node9 -->
<g id="edge52" class="edge"><title>Node19&#45;&gt;Node9</title>
<path fill="none" stroke="midnightblue" d="M903.252,-180.926C851.458,-158.649 734.929,-108.529 679.881,-84.8519"/>
<polygon fill="midnightblue" stroke="midnightblue" points="681.226,-81.6208 670.657,-80.8848 678.461,-88.0512 681.226,-81.6208"/>
</g>
<!-- Node21&#45;&gt;Node3 -->
<g id="edge60" class="edge"><title>Node21&#45;&gt;Node3</title>
<path fill="none" stroke="midnightblue" d="M436.691,-240.926C443.359,-220.923 457.509,-178.472 466.043,-152.872"/>
<polygon fill="midnightblue" stroke="midnightblue" points="469.476,-153.641 469.318,-143.047 462.835,-151.427 469.476,-153.641"/>
</g>
<!-- Node25&#45;&gt;Node3 -->
<g id="edge76" class="edge"><title>Node25&#45;&gt;Node3</title>
<path fill="none" stroke="midnightblue" d="M310.137,-300.993C304.435,-276.349 294.516,-216.075 323,-180 336.288,-163.171 389.6,-148.945 428.905,-140.45"/>
<polygon fill="midnightblue" stroke="midnightblue" points="429.75,-143.849 438.815,-138.364 428.308,-136.999 429.75,-143.849"/>
</g>
<!-- Node25&#45;&gt;Node14 -->
<g id="edge74" class="edge"><title>Node25&#45;&gt;Node14</title>
<path fill="none" stroke="midnightblue" d="M316.784,-300.926C323.649,-280.834 338.252,-238.093 346.985,-212.531"/>
<polygon fill="midnightblue" stroke="midnightblue" points="350.304,-213.642 350.225,-203.047 343.68,-211.379 350.304,-213.642"/>
</g>
<!-- Node27&#45;&gt;Node3 -->
<g id="edge96" class="edge"><title>Node27&#45;&gt;Node3</title>
<path fill="none" stroke="midnightblue" d="M519.281,-420.864C525.188,-399.804 537,-352.608 537,-312 537,-312 537,-312 537,-252 537,-212.43 509.572,-173.241 490.627,-150.893"/>
<polygon fill="midnightblue" stroke="midnightblue" points="493.086,-148.389 483.857,-143.186 487.828,-153.009 493.086,-148.389"/>
</g>
<!-- Node27&#45;&gt;Node15 -->
<g id="edge98" class="edge"><title>Node27&#45;&gt;Node15</title>
<path fill="none" stroke="midnightblue" d="M507.563,-420.995C501.224,-412.727 492.377,-401.188 484.862,-391.385"/>
<polygon fill="midnightblue" stroke="midnightblue" points="487.558,-389.149 478.696,-383.343 482.003,-393.408 487.558,-389.149"/>
</g>
<!-- Node28&#45;&gt;Node3 -->
<g id="edge102" class="edge"><title>Node28&#45;&gt;Node3</title>
<path fill="none" stroke="midnightblue" d="M276.349,-420.735C271.9,-401.187 263.112,-359.656 260,-324 254.157,-257.068 256.49,-225.417 306,-180 323.956,-163.528 385.753,-148.731 428.909,-140.054"/>
<polygon fill="midnightblue" stroke="midnightblue" points="429.761,-143.453 438.897,-138.087 428.409,-136.585 429.761,-143.453"/>
</g>
<!-- Node28&#45;&gt;Node11 -->
<g id="edge104" class="edge"><title>Node28&#45;&gt;Node11</title>
<path fill="none" stroke="midnightblue" d="M264.442,-420.953C253.212,-411.907 237.82,-398.307 227,-384 199.902,-348.171 178.573,-299.73 167.768,-272.603"/>
<polygon fill="midnightblue" stroke="midnightblue" points="170.921,-271.056 164.032,-263.007 164.398,-273.595 170.921,-271.056"/>
</g>
<!-- Node28&#45;&gt;Node15 -->
<g id="edge106" class="edge"><title>Node28&#45;&gt;Node15</title>
<path fill="none" stroke="midnightblue" d="M313.147,-421.273C345.766,-411.026 394.945,-395.578 429.52,-384.716"/>
<polygon fill="midnightblue" stroke="midnightblue" points="430.811,-387.979 439.303,-381.643 428.713,-381.301 430.811,-387.979"/>
</g>
</g>
</svg>
        <g id="navigator" transform="translate(0 0)" fill="#404254">
                <rect fill="#f2f5e9" fill-opacity="0.5" stroke="#606060" stroke-width=".5" x="0" y="0" width="60" height="60"/>
                <use id="zoomplus" xlink:href="#zoomPlus" x="17" y="9" onmousedown="handleZoom(evt,'in')"/>
                <use id="zoomminus" xlink:href="#zoomMin" x="42" y="9" onmousedown="handleZoom(evt,'out')"/>
                <use id="reset" xlink:href="#resetDef" x="30" y="36" onmousedown="handleReset()"/>
                <g id="arrowUp" xlink:href="#dirArrow" transform="translate(30 24)" onmousedown="handlePan(0,-1)">
                  <use xlink:href="#rim" fill="#404040">
                        <set attributeName="fill" to="#808080" begin="arrowUp.mouseover" end="arrowUp.mouseout"/>
                  </use>
                  <path fill="none" stroke="white" stroke-width="1.5" d="M0,-3.0v7 M-2.5,-0.5L0,-3.0L2.5,-0.5"/>
                </g>
                <g id="arrowRight" xlink:href="#dirArrow" transform="rotate(90) translate(36 -43)" onmousedown="handlePan(1,0)">
                  <use xlink:href="#rim" fill="#404040">
                        <set attributeName="fill" to="#808080" begin="arrowRight.mouseover" end="arrowRight.mouseout"/>
                  </use>
                  <path fill="none" stroke="white" stroke-width="1.5" d="M0,-3.0v7 M-2.5,-0.5L0,-3.0L2.5,-0.5"/>
                </g>
                <g id="arrowDown" xlink:href="#dirArrow" transform="rotate(180) translate(-30 -48)" onmousedown="handlePan(0,1)">
                  <use xlink:href="#rim" fill="#404040">
                        <set attributeName="fill" to="#808080" begin="arrowDown.mouseover" end="arrowDown.mouseout"/>
                  </use>
                  <path fill="none" stroke="white" stroke-width="1.5" d="M0,-3.0v7 M-2.5,-0.5L0,-3.0L2.5,-0.5"/>
                </g>
                <g id="arrowLeft" xlink:href="#dirArrow" transform="rotate(270) translate(-36 17)" onmousedown="handlePan(-1,0)">
                  <use xlink:href="#rim" fill="#404040">
                        <set attributeName="fill" to="#808080" begin="arrowLeft.mouseover" end="arrowLeft.mouseout"/>
                  </use>
                  <path fill="none" stroke="white" stroke-width="1.5" d="M0,-3.0v7 M-2.5,-0.5L0,-3.0L2.5,-0.5"/>
                </g>
        </g>
</svg>
