<?xml version="1.0" encoding="UTF-8" standalone="no"?>
<!DOCTYPE svg PUBLIC "-//W3C//DTD SVG 1.1//EN"
 "http://www.w3.org/Graphics/SVG/1.1/DTD/svg11.dtd">
<!-- Generated by graphviz version 2.26.3 (20100126.1600)
 -->
<!-- Title: dagframescheduler.h Pages: 1 -->
<!--zoomable 552 -->
<svg id="main" version="1.1" xmlns="http://www.w3.org/2000/svg" xmlns:xlink="http://www.w3.org/1999/xlink" xml:space="preserve" onload="init(evt)">
        <defs>
                <circle id="rim" cx="0" cy="0" r="7"/>
                <circle id="rim2" cx="0" cy="0" r="3.5"/>
                <g id="zoomPlus">
                        <use xlink:href="#rim" fill="#404040">
                                <set attributeName="fill" to="#808080" begin="zoomplus.mouseover" end="zoomplus.mouseout"/>
                        </use>
                        <path d="M-4,0h8M0,-4v8" fill="none" stroke="white" stroke-width="1.5" pointer-events="none"/>
                </g>
                <g id="zoomMin">
                        <use xlink:href="#rim" fill="#404040">
                                <set attributeName="fill" to="#808080" begin="zoomminus.mouseover" end="zoomminus.mouseout"/>
                        </use>
                        <path d="M-4,0h8" fill="none" stroke="white" stroke-width="1.5" pointer-events="none"/>
                </g>
                <g id="dirArrow">
                        <path fill="none" stroke="white" stroke-width="1.5" d="M0,-3.0v7 M-2.5,-0.5L0,-3.0L2.5,-0.5"/>
                </g>
               <g id="resetDef">
                       <use xlink:href="#rim2" fill="#404040">
                               <set attributeName="fill" to="#808080" begin="reset.mouseover" end="reset.mouseout"/>
                       </use>
               </g>
        </defs>

<script type="text/javascript">
var viewWidth = 1225;
var viewHeight = 552;
var sectionId = 'dynsection-0';
</script>
<script xlink:href="svgpan.js"/>
<svg id="graph" class="graph">
<g id="viewport">
<title>dagframescheduler.h</title>
<polygon fill="white" stroke="white" points="-4,5 -4,-548 1222,-548 1222,5 -4,5"/>
<!-- Node1 -->
<g id="node1" class="node"><title>Node1</title>
<polygon fill="#bfbfbf" stroke="black" points="565,-523 565,-543 671,-543 671,-523 565,-523"/>
<text text-anchor="middle" x="618" y="-530" font-family="FreeSans" font-size="10.00">dagframescheduler.h</text>
</g>
<!-- Node2 -->
<g id="node3" class="node"><title>Node2</title>
<a xlink:href="asynchronousfileloadingworkunit_8h.html" target="_top" xlink:title="The declaration of the AsynchronousFileLoadWorkUnit a workunit that loads a listing of files asynchro...">
<polygon fill="white" stroke="black" points="537.5,-465 537.5,-485 698.5,-485 698.5,-465 537.5,-465"/>
<text text-anchor="middle" x="618" y="-472" font-family="FreeSans" font-size="10.00">asynchronousfileloadingworkunit.h</text>
</a>
</g>
<!-- Node1&#45;&gt;Node2 -->
<g id="edge2" class="edge"><title>Node1&#45;&gt;Node2</title>
<path fill="none" stroke="midnightblue" d="M618,-522.897C618,-515.339 618,-504.748 618,-495.446"/>
<polygon fill="midnightblue" stroke="midnightblue" points="621.5,-495.378 618,-485.378 614.5,-495.378 621.5,-495.378"/>
</g>
<!-- Node3 -->
<g id="node5" class="node"><title>Node3</title>
<a xlink:href="asynchronousworkunit_8h.html" target="_top" xlink:title="Contains an interface for a kind of WorkUnit that loads or does other work even when the frame schedu...">
<polygon fill="white" stroke="black" points="522.5,-407 522.5,-427 641.5,-427 641.5,-407 522.5,-407"/>
<text text-anchor="middle" x="582" y="-414" font-family="FreeSans" font-size="10.00">asynchronousworkunit.h</text>
</a>
</g>
<!-- Node1&#45;&gt;Node3 -->
<g id="edge108" class="edge"><title>Node1&#45;&gt;Node3</title>
<path fill="none" stroke="midnightblue" d="M579.419,-522.856C560.734,-515.787 540.005,-504.257 529,-486 517.369,-466.704 537.283,-446.47 555.932,-432.941"/>
<polygon fill="midnightblue" stroke="midnightblue" points="558.014,-435.758 564.294,-427.225 554.063,-429.979 558.014,-435.758"/>
</g>
<!-- Node4 -->
<g id="node7" class="node"><title>Node4</title>
<a xlink:href="datatypes_8h.html" target="_top" xlink:title="This file declares a few typedefs to allow flexibility, in case a change is required/desired.">
<polygon fill="white" stroke="black" points="672.5,-117 672.5,-137 737.5,-137 737.5,-117 672.5,-117"/>
<text text-anchor="middle" x="705" y="-124" font-family="FreeSans" font-size="10.00">datatypes.h</text>
</a>
</g>
<!-- Node1&#45;&gt;Node4 -->
<g id="edge116" class="edge"><title>Node1&#45;&gt;Node4</title>
<path fill="none" stroke="midnightblue" d="M671.036,-530.414C797.122,-523.969 1107.46,-506.243 1150,-486 1188.6,-467.634 1217,-459.745 1217,-417 1217,-417 1217,-417 1217,-243 1217,-204.6 1198.45,-192.86 1165,-174 1129.13,-153.777 855.297,-135.781 747.965,-129.431"/>
<polygon fill="midnightblue" stroke="midnightblue" points="747.999,-125.927 737.811,-128.836 747.589,-132.915 747.999,-125.927"/>
</g>
<!-- Node5 -->
<g id="node9" class="node"><title>Node5</title>
<a xlink:href="crossplatformexport_8h.html" target="_top" xlink:title="This file determines what features are offered by the compiler that this library can take advantage o...">
<polygon fill="white" stroke="black" points="103,-59 103,-79 211,-79 211,-59 103,-59"/>
<text text-anchor="middle" x="157" y="-66" font-family="FreeSans" font-size="10.00">crossplatformexport.h</text>
</a>
</g>
<!-- Node1&#45;&gt;Node5 -->
<g id="edge114" class="edge"><title>Node1&#45;&gt;Node5</title>
<path fill="none" stroke="midnightblue" d="M564.881,-530.891C433.614,-525.35 101.33,-509.19 57,-486 21.7541,-467.562 0,-456.777 0,-417 0,-417 0,-417 0,-185 0,-130.106 62.8542,-98.2378 109.023,-82.234"/>
<polygon fill="midnightblue" stroke="midnightblue" points="110.205,-85.5295 118.593,-79.0571 108,-78.8859 110.205,-85.5295"/>
</g>
<!-- Node12 -->
<g id="node23" class="node"><title>Node12</title>
<a xlink:href="doublebufferedresource_8h.html" target="_top" xlink:title="This file defines the template double buffered resources that can be attached to a thread...">
<polygon fill="white" stroke="black" points="552.5,-233 552.5,-253 675.5,-253 675.5,-233 552.5,-233"/>
<text text-anchor="middle" x="614" y="-240" font-family="FreeSans" font-size="10.00">doublebufferedresource.h</text>
</a>
</g>
<!-- Node1&#45;&gt;Node12 -->
<g id="edge118" class="edge"><title>Node1&#45;&gt;Node12</title>
<path fill="none" stroke="midnightblue" d="M656.581,-522.856C675.266,-515.787 695.995,-504.257 707,-486 712.048,-477.626 708.934,-473.585 707,-464 691.048,-384.966 645.997,-299.015 625.011,-261.857"/>
<polygon fill="midnightblue" stroke="midnightblue" points="628.006,-260.044 620,-253.104 621.931,-263.522 628.006,-260.044"/>
</g>
<!-- Node16 -->
<g id="node32" class="node"><title>Node16</title>
<a xlink:href="workunit_8h.html" target="_top" xlink:title="This file has the definition of the workunit.">
<polygon fill="white" stroke="black" points="379,-349 379,-369 439,-369 439,-349 379,-349"/>
<text text-anchor="middle" x="409" y="-356" font-family="FreeSans" font-size="10.00">workunit.h</text>
</a>
</g>
<!-- Node1&#45;&gt;Node16 -->
<g id="edge150" class="edge"><title>Node1&#45;&gt;Node16</title>
<path fill="none" stroke="midnightblue" d="M566.233,-522.976C525.813,-514.225 473.921,-500.658 458,-486 427.133,-457.581 415.512,-407.498 411.289,-379.468"/>
<polygon fill="midnightblue" stroke="midnightblue" points="414.718,-378.705 409.933,-369.252 407.779,-379.626 414.718,-378.705"/>
</g>
<!-- Node17 -->
<g id="node35" class="node"><title>Node17</title>
<a xlink:href="framescheduler_8h.html" target="_top" xlink:title="This file has the Declarations for the main FrameScheduler class.">
<polygon fill="white" stroke="black" points="747,-291 747,-311 837,-311 837,-291 747,-291"/>
<text text-anchor="middle" x="792" y="-298" font-family="FreeSans" font-size="10.00">framescheduler.h</text>
</a>
</g>
<!-- Node1&#45;&gt;Node17 -->
<g id="edge120" class="edge"><title>Node1&#45;&gt;Node17</title>
<path fill="none" stroke="midnightblue" d="M671.243,-528.219C730.91,-519.593 824.342,-495.452 863,-428 885.521,-388.704 841.666,-342.154 813.366,-317.787"/>
<polygon fill="midnightblue" stroke="midnightblue" points="815.441,-314.961 805.518,-311.248 810.96,-320.339 815.441,-314.961"/>
</g>
<!-- Node18 -->
<g id="node39" class="node"><title>Node18</title>
<a xlink:href="thread_8h.html" target="_top" xlink:title="This file defines a minimalistic cross&#45;platform thread that the scheduler uses to schedule tasks...">
<polygon fill="white" stroke="black" points="294.5,-233 294.5,-253 345.5,-253 345.5,-233 294.5,-233"/>
<text text-anchor="middle" x="320" y="-240" font-family="FreeSans" font-size="10.00">thread.h</text>
</a>
</g>
<!-- Node1&#45;&gt;Node18 -->
<g id="edge146" class="edge"><title>Node1&#45;&gt;Node18</title>
<path fill="none" stroke="midnightblue" d="M564.681,-527.253C463.577,-514.865 254,-481.419 254,-417 254,-417 254,-417 254,-359 254,-319.758 282.887,-281.668 302.439,-260.381"/>
<polygon fill="midnightblue" stroke="midnightblue" points="305.033,-262.733 309.396,-253.078 299.964,-257.905 305.033,-262.733"/>
</g>
<!-- Node20 -->
<g id="node48" class="node"><title>Node20</title>
<a xlink:href="systemcalls_8h.html" target="_top" xlink:title="This file defines a minimalistic cross&#45;platform thread that the scheduler uses to schedule tasks...">
<polygon fill="white" stroke="black" points="841,-175 841,-195 915,-195 915,-175 841,-175"/>
<text text-anchor="middle" x="878" y="-182" font-family="FreeSans" font-size="10.00">systemcalls.h</text>
</a>
</g>
<!-- Node1&#45;&gt;Node20 -->
<g id="edge144" class="edge"><title>Node1&#45;&gt;Node20</title>
<path fill="none" stroke="midnightblue" d="M671.25,-524.876C725.09,-516.024 804.082,-501.098 831,-486 955.738,-416.034 1000.58,-386.669 1054,-254 1057.65,-244.93 1059.96,-239.755 1054,-232 1038.34,-211.611 971.593,-198.164 924.958,-191.064"/>
<polygon fill="midnightblue" stroke="midnightblue" points="925.449,-187.599 915.046,-189.603 924.429,-194.524 925.449,-187.599"/>
</g>
<!-- Node21 -->
<g id="node51" class="node"><title>Node21</title>
<a xlink:href="mutex_8h.html" target="_top" xlink:title="This file declares and defines a mutex that is a partial implementation.">
<polygon fill="white" stroke="black" points="66,-175 66,-195 116,-195 116,-175 66,-175"/>
<text text-anchor="middle" x="91" y="-182" font-family="FreeSans" font-size="10.00">mutex.h</text>
</a>
</g>
<!-- Node1&#45;&gt;Node21 -->
<g id="edge140" class="edge"><title>Node1&#45;&gt;Node21</title>
<path fill="none" stroke="midnightblue" d="M564.697,-531.38C485.999,-527.978 334.586,-517.56 210,-486 130.156,-465.774 38,-499.366 38,-417 38,-417 38,-417 38,-301 38,-263.636 61.0294,-225.127 76.7273,-203.218"/>
<polygon fill="midnightblue" stroke="midnightblue" points="79.5642,-205.268 82.7188,-195.154 73.9454,-201.094 79.5642,-205.268"/>
</g>
<!-- Node23 -->
<g id="node58" class="node"><title>Node23</title>
<a xlink:href="workunitkey_8h.html" target="_top" xlink:title="This file defines the metadata used to sort workunits.">
<polygon fill="white" stroke="black" points="970.5,-233 970.5,-253 1045.5,-253 1045.5,-233 970.5,-233"/>
<text text-anchor="middle" x="1008" y="-240" font-family="FreeSans" font-size="10.00">workunitkey.h</text>
</a>
</g>
<!-- Node1&#45;&gt;Node23 -->
<g id="edge152" class="edge"><title>Node1&#45;&gt;Node23</title>
<path fill="none" stroke="midnightblue" d="M671.139,-530.831C777.283,-525.95 1007.42,-512.413 1031,-486 1088.06,-422.076 1040.63,-307.529 1018.18,-262.212"/>
<polygon fill="midnightblue" stroke="midnightblue" points="1021.23,-260.489 1013.57,-253.17 1014.99,-263.668 1021.23,-260.489"/>
</g>
<!-- Node24 -->
<g id="node62" class="node"><title>Node24</title>
<a xlink:href="barrier_8h.html" target="_top" xlink:title="The declaration of the Mezzanine::Threading::Barrier Barrier synchronization primitive.">
<polygon fill="white" stroke="black" points="1138.5,-233 1138.5,-253 1189.5,-253 1189.5,-233 1138.5,-233"/>
<text text-anchor="middle" x="1164" y="-240" font-family="FreeSans" font-size="10.00">barrier.h</text>
</a>
</g>
<!-- Node1&#45;&gt;Node24 -->
<g id="edge112" class="edge"><title>Node1&#45;&gt;Node24</title>
<path fill="none" stroke="midnightblue" d="M671.291,-531.044C793.944,-526.121 1088.53,-511.738 1125,-486 1152.62,-466.51 1157,-450.804 1157,-417 1157,-417 1157,-417 1157,-359 1157,-325.364 1159.97,-286.34 1162.04,-263.212"/>
<polygon fill="midnightblue" stroke="midnightblue" points="1165.53,-263.51 1162.97,-253.229 1158.56,-262.862 1165.53,-263.51"/>
</g>
<!-- Node25 -->
<g id="node65" class="node"><title>Node25</title>
<a xlink:href="atomicoperations_8h.html" target="_top" xlink:title="Simple thread safe ways to check and change a specified variable atomically.">
<polygon fill="white" stroke="black" points="1038,-175 1038,-195 1136,-195 1136,-175 1038,-175"/>
<text text-anchor="middle" x="1087" y="-182" font-family="FreeSans" font-size="10.00">atomicoperations.h</text>
</a>
</g>
<!-- Node1&#45;&gt;Node25 -->
<g id="edge110" class="edge"><title>Node1&#45;&gt;Node25</title>
<path fill="none" stroke="midnightblue" d="M671.379,-532.083C772.382,-529.564 987.153,-520.225 1052,-486 1087.68,-467.167 1111,-457.349 1111,-417 1111,-417 1111,-417 1111,-301 1111,-266.558 1100.73,-227.534 1093.62,-204.664"/>
<polygon fill="midnightblue" stroke="midnightblue" points="1096.94,-203.54 1090.54,-195.096 1090.28,-205.687 1096.94,-203.54"/>
</g>
<!-- Node29 -->
<g id="node75" class="node"><title>Node29</title>
<a xlink:href="rollingaverage_8h.html" target="_top" xlink:title="This stores the implementation and the declaration of the RollingAverage, BufferedRollingAverage, WeightedRollingAverage and the DefaultRollingAverage.">
<polygon fill="white" stroke="black" points="433.5,-291 433.5,-311 516.5,-311 516.5,-291 433.5,-291"/>
<text text-anchor="middle" x="475" y="-298" font-family="FreeSans" font-size="10.00">rollingaverage.h</text>
</a>
</g>
<!-- Node1&#45;&gt;Node29 -->
<g id="edge142" class="edge"><title>Node1&#45;&gt;Node29</title>
<path fill="none" stroke="midnightblue" d="M579.373,-522.943C559.21,-515.795 535.738,-504.164 521,-486 481.297,-437.068 475.206,-358.591 474.692,-321.582"/>
<polygon fill="midnightblue" stroke="midnightblue" points="478.192,-321.11 474.686,-311.113 471.192,-321.115 478.192,-321.11"/>
</g>
<!-- Node30 -->
<g id="node79" class="node"><title>Node30</title>
<a xlink:href="threadingenumerations_8h.html" target="_top" xlink:title="Any enumerations the threading library requires are all declared here.">
<polygon fill="white" stroke="black" points="66,-291 66,-311 188,-311 188,-291 66,-291"/>
<text text-anchor="middle" x="127" y="-298" font-family="FreeSans" font-size="10.00">threadingenumerations.h</text>
</a>
</g>
<!-- Node1&#45;&gt;Node30 -->
<g id="edge148" class="edge"><title>Node1&#45;&gt;Node30</title>
<path fill="none" stroke="midnightblue" d="M564.667,-531.99C473.517,-529.355 292.509,-519.885 240,-486 178.432,-446.269 145.153,-359.966 132.745,-320.911"/>
<polygon fill="midnightblue" stroke="midnightblue" points="136.056,-319.771 129.792,-311.226 129.361,-321.812 136.056,-319.771"/>
</g>
<!-- Node31 -->
<g id="node92" class="node"><title>Node31</title>
<a xlink:href="frameschedulerworkunits_8h.html" target="_top" xlink:title="This defines a number of workunits that are required for doing some tasks that the Framescheduler req...">
<polygon fill="white" stroke="black" points="723.5,-407 723.5,-427 854.5,-427 854.5,-407 723.5,-407"/>
<text text-anchor="middle" x="789" y="-414" font-family="FreeSans" font-size="10.00">frameschedulerworkunits.h</text>
</a>
</g>
<!-- Node1&#45;&gt;Node31 -->
<g id="edge122" class="edge"><title>Node1&#45;&gt;Node31</title>
<path fill="none" stroke="midnightblue" d="M661.503,-522.954C686.319,-515.666 716.967,-503.894 740,-486 757.132,-472.69 770.802,-451.779 779.305,-436.464"/>
<polygon fill="midnightblue" stroke="midnightblue" points="782.547,-437.819 784.13,-427.343 776.36,-434.545 782.547,-437.819"/>
</g>
<!-- Node32 -->
<g id="node98" class="node"><title>Node32</title>
<a xlink:href="monopoly_8h.html" target="_top" xlink:title="Contains an interface for a kind of WorkUnit that consumes time on multiple thread.">
<polygon fill="white" stroke="black" points="341.5,-407 341.5,-427 406.5,-427 406.5,-407 341.5,-407"/>
<text text-anchor="middle" x="374" y="-414" font-family="FreeSans" font-size="10.00">monopoly.h</text>
</a>
</g>
<!-- Node1&#45;&gt;Node32 -->
<g id="edge132" class="edge"><title>Node1&#45;&gt;Node32</title>
<path fill="none" stroke="midnightblue" d="M564.666,-524.86C514.297,-516.377 443.128,-502.093 420,-486 402.357,-473.723 389.647,-452.298 382.117,-436.571"/>
<polygon fill="midnightblue" stroke="midnightblue" points="385.205,-434.902 377.917,-427.212 378.818,-437.768 385.205,-434.902"/>
</g>
<!-- Node2&#45;&gt;Node3 -->
<g id="edge4" class="edge"><title>Node2&#45;&gt;Node3</title>
<path fill="none" stroke="midnightblue" d="M611.729,-464.897C606.783,-456.928 599.744,-445.587 593.757,-435.941"/>
<polygon fill="midnightblue" stroke="midnightblue" points="596.689,-434.028 588.441,-427.378 590.741,-437.72 596.689,-434.028"/>
</g>
<!-- Node3&#45;&gt;Node4 -->
<g id="edge6" class="edge"><title>Node3&#45;&gt;Node4</title>
<path fill="none" stroke="midnightblue" d="M575.753,-406.961C554.367,-371.188 488.413,-248.134 544,-174 558.231,-155.021 619.568,-141.161 662.282,-133.593"/>
<polygon fill="midnightblue" stroke="midnightblue" points="662.9,-137.038 672.162,-131.895 661.714,-130.139 662.9,-137.038"/>
</g>
<!-- Node3&#45;&gt;Node12 -->
<g id="edge22" class="edge"><title>Node3&#45;&gt;Node12</title>
<path fill="none" stroke="midnightblue" d="M585.563,-406.662C588.703,-397.216 593.201,-382.809 596,-370 604.122,-332.834 609.42,-288.715 612.046,-263.474"/>
<polygon fill="midnightblue" stroke="midnightblue" points="615.551,-263.597 613.065,-253.298 608.586,-262.9 615.551,-263.597"/>
</g>
<!-- Node3&#45;&gt;Node16 -->
<g id="edge32" class="edge"><title>Node3&#45;&gt;Node16</title>
<path fill="none" stroke="midnightblue" d="M551.866,-406.897C523.301,-397.321 480.211,-382.874 448.825,-372.352"/>
<polygon fill="midnightblue" stroke="midnightblue" points="449.673,-368.945 439.079,-369.084 447.447,-375.581 449.673,-368.945"/>
</g>
<!-- Node4&#45;&gt;Node5 -->
<g id="edge8" class="edge"><title>Node4&#45;&gt;Node5</title>
<path fill="none" stroke="midnightblue" d="M672.361,-123.546C584.012,-114.195 338.962,-88.2588 221.46,-75.8224"/>
<polygon fill="midnightblue" stroke="midnightblue" points="221.491,-72.3062 211.178,-74.7341 220.754,-79.2673 221.491,-72.3062"/>
</g>
<!-- Node10 -->
<g id="node19" class="node"><title>Node10</title>
<polygon fill="white" stroke="#bfbfbf" points="464,-59 464,-79 504,-79 504,-59 464,-59"/>
<text text-anchor="middle" x="484" y="-66" font-family="FreeSans" font-size="10.00">string</text>
</g>
<!-- Node4&#45;&gt;Node10 -->
<g id="edge18" class="edge"><title>Node4&#45;&gt;Node10</title>
<path fill="none" stroke="midnightblue" d="M672.391,-118.442C629.665,-107.229 555.329,-87.7199 513.96,-76.8628"/>
<polygon fill="midnightblue" stroke="midnightblue" points="514.753,-73.4524 504.192,-74.2993 512.976,-80.2232 514.753,-73.4524"/>
</g>
<!-- Node11 -->
<g id="node21" class="node"><title>Node11</title>
<polygon fill="white" stroke="#bfbfbf" points="681.5,-59 681.5,-79 728.5,-79 728.5,-59 681.5,-59"/>
<text text-anchor="middle" x="705" y="-66" font-family="FreeSans" font-size="10.00">stdint.h</text>
</g>
<!-- Node4&#45;&gt;Node11 -->
<g id="edge20" class="edge"><title>Node4&#45;&gt;Node11</title>
<path fill="none" stroke="midnightblue" d="M705,-116.897C705,-109.339 705,-98.7476 705,-89.4458"/>
<polygon fill="midnightblue" stroke="midnightblue" points="708.5,-89.3776 705,-79.3776 701.5,-89.3776 708.5,-89.3776"/>
</g>
<!-- Node6 -->
<g id="node11" class="node"><title>Node6</title>
<polygon fill="white" stroke="#bfbfbf" points="26,-1 26,-21 82,-21 82,-1 26,-1"/>
<text text-anchor="middle" x="54" y="-8" font-family="FreeSans" font-size="10.00">pthread.h</text>
</g>
<!-- Node5&#45;&gt;Node6 -->
<g id="edge10" class="edge"><title>Node5&#45;&gt;Node6</title>
<path fill="none" stroke="midnightblue" d="M139.059,-58.8972C122.985,-49.8458 99.1854,-36.4442 80.8456,-26.117"/>
<polygon fill="midnightblue" stroke="midnightblue" points="82.5121,-23.0386 72.0812,-21.1817 79.0774,-29.1381 82.5121,-23.0386"/>
</g>
<!-- Node7 -->
<g id="node13" class="node"><title>Node7</title>
<polygon fill="white" stroke="#bfbfbf" points="108.5,-1 108.5,-21 157.5,-21 157.5,-1 108.5,-1"/>
<text text-anchor="middle" x="133" y="-8" font-family="FreeSans" font-size="10.00">signal.h</text>
</g>
<!-- Node5&#45;&gt;Node7 -->
<g id="edge12" class="edge"><title>Node5&#45;&gt;Node7</title>
<path fill="none" stroke="midnightblue" d="M152.82,-58.8972C149.624,-51.1747 145.118,-40.2857 141.21,-30.841"/>
<polygon fill="midnightblue" stroke="midnightblue" points="144.352,-29.2795 137.294,-21.3776 137.884,-31.956 144.352,-29.2795"/>
</g>
<!-- Node8 -->
<g id="node15" class="node"><title>Node8</title>
<polygon fill="white" stroke="#bfbfbf" points="179,-1 179,-21 229,-21 229,-1 179,-1"/>
<text text-anchor="middle" x="204" y="-8" font-family="FreeSans" font-size="10.00">sched.h</text>
</g>
<!-- Node5&#45;&gt;Node8 -->
<g id="edge14" class="edge"><title>Node5&#45;&gt;Node8</title>
<path fill="none" stroke="midnightblue" d="M165.187,-58.8972C171.777,-50.7639 181.214,-39.1183 189.133,-29.3468"/>
<polygon fill="midnightblue" stroke="midnightblue" points="192.014,-31.3505 195.591,-21.3776 186.575,-26.9434 192.014,-31.3505"/>
</g>
<!-- Node9 -->
<g id="node17" class="node"><title>Node9</title>
<polygon fill="white" stroke="#bfbfbf" points="249,-1 249,-21 299,-21 299,-1 249,-1"/>
<text text-anchor="middle" x="274" y="-8" font-family="FreeSans" font-size="10.00">unistd.h</text>
</g>
<!-- Node5&#45;&gt;Node9 -->
<g id="edge16" class="edge"><title>Node5&#45;&gt;Node9</title>
<path fill="none" stroke="midnightblue" d="M177.38,-58.8972C195.889,-49.7218 223.415,-36.0762 244.358,-25.6943"/>
<polygon fill="midnightblue" stroke="midnightblue" points="246.056,-28.759 253.461,-21.1817 242.947,-22.4874 246.056,-28.759"/>
</g>
<!-- Node12&#45;&gt;Node4 -->
<g id="edge24" class="edge"><title>Node12&#45;&gt;Node4</title>
<path fill="none" stroke="midnightblue" d="M638.048,-232.853C653.88,-224.996 673.854,-212.638 686,-196 696.392,-181.765 701.101,-162.122 703.234,-147.433"/>
<polygon fill="midnightblue" stroke="midnightblue" points="706.729,-147.677 704.415,-137.338 699.777,-146.864 706.729,-147.677"/>
</g>
<!-- Node13 -->
<g id="node26" class="node"><title>Node13</title>
<polygon fill="white" stroke="#bfbfbf" points="621,-175 621,-195 677,-195 677,-175 621,-175"/>
<text text-anchor="middle" x="649" y="-182" font-family="FreeSans" font-size="10.00">algorithm</text>
</g>
<!-- Node12&#45;&gt;Node13 -->
<g id="edge26" class="edge"><title>Node12&#45;&gt;Node13</title>
<path fill="none" stroke="midnightblue" d="M620.097,-232.897C624.905,-224.928 631.749,-213.587 637.57,-203.941"/>
<polygon fill="midnightblue" stroke="midnightblue" points="640.568,-205.748 642.738,-195.378 634.574,-202.131 640.568,-205.748"/>
</g>
<!-- Node14 -->
<g id="node28" class="node"><title>Node14</title>
<polygon fill="white" stroke="#bfbfbf" points="553,-175 553,-195 603,-195 603,-175 553,-175"/>
<text text-anchor="middle" x="578" y="-182" font-family="FreeSans" font-size="10.00">sstream</text>
</g>
<!-- Node12&#45;&gt;Node14 -->
<g id="edge28" class="edge"><title>Node12&#45;&gt;Node14</title>
<path fill="none" stroke="midnightblue" d="M607.729,-232.897C602.783,-224.928 595.744,-213.587 589.757,-203.941"/>
<polygon fill="midnightblue" stroke="midnightblue" points="592.689,-202.028 584.441,-195.378 586.741,-205.72 592.689,-202.028"/>
</g>
<!-- Node15 -->
<g id="node30" class="node"><title>Node15</title>
<polygon fill="white" stroke="#bfbfbf" points="427.5,-175 427.5,-195 470.5,-195 470.5,-175 427.5,-175"/>
<text text-anchor="middle" x="449" y="-182" font-family="FreeSans" font-size="10.00">vector</text>
</g>
<!-- Node12&#45;&gt;Node15 -->
<g id="edge30" class="edge"><title>Node12&#45;&gt;Node15</title>
<path fill="none" stroke="midnightblue" d="M585.259,-232.897C555.894,-222.575 510.432,-206.594 480.204,-195.969"/>
<polygon fill="midnightblue" stroke="midnightblue" points="481.176,-192.601 470.581,-192.586 478.855,-199.204 481.176,-192.601"/>
</g>
<!-- Node16&#45;&gt;Node4 -->
<g id="edge34" class="edge"><title>Node16&#45;&gt;Node4</title>
<path fill="none" stroke="midnightblue" d="M388.423,-348.906C359.179,-333.249 306.834,-300.044 286,-254 271.343,-221.606 262.301,-200.506 286,-174 310.798,-146.265 560.468,-132.94 662.202,-128.629"/>
<polygon fill="midnightblue" stroke="midnightblue" points="662.584,-132.116 672.43,-128.205 662.294,-125.122 662.584,-132.116"/>
</g>
<!-- Node16&#45;&gt;Node15 -->
<g id="edge106" class="edge"><title>Node16&#45;&gt;Node15</title>
<path fill="none" stroke="midnightblue" d="M411.323,-348.893C417.73,-321.023 435.741,-242.675 444.33,-205.313"/>
<polygon fill="midnightblue" stroke="midnightblue" points="447.841,-205.665 446.67,-195.135 441.019,-204.097 447.841,-205.665"/>
</g>
<!-- Node16&#45;&gt;Node17 -->
<g id="edge36" class="edge"><title>Node16&#45;&gt;Node17</title>
<path fill="none" stroke="midnightblue" d="M439.053,-354.449C503.297,-344.72 654.807,-321.776 736.873,-309.348"/>
<polygon fill="midnightblue" stroke="midnightblue" points="737.404,-312.808 746.768,-307.85 736.356,-305.887 737.404,-312.808"/>
</g>
<!-- Node16&#45;&gt;Node18 -->
<g id="edge102" class="edge"><title>Node16&#45;&gt;Node18</title>
<path fill="none" stroke="midnightblue" d="M401.102,-348.706C386.022,-329.051 352.949,-285.945 334.026,-261.281"/>
<polygon fill="midnightblue" stroke="midnightblue" points="336.617,-258.909 327.753,-253.106 331.064,-263.17 336.617,-258.909"/>
</g>
<!-- Node16&#45;&gt;Node21 -->
<g id="edge90" class="edge"><title>Node16&#45;&gt;Node21</title>
<path fill="none" stroke="midnightblue" d="M388.542,-348.998C369.606,-339.66 340.729,-325.219 316,-312 243.182,-273.075 158.75,-224.464 117.056,-200.223"/>
<polygon fill="midnightblue" stroke="midnightblue" points="118.756,-197.163 108.353,-195.156 115.234,-203.212 118.756,-197.163"/>
</g>
<!-- Node16&#45;&gt;Node23 -->
<g id="edge104" class="edge"><title>Node16&#45;&gt;Node23</title>
<path fill="none" stroke="midnightblue" d="M439.054,-356.928C524.656,-350.843 768.56,-332.178 846,-312 895.06,-299.217 948.543,-274.038 980.129,-257.889"/>
<polygon fill="midnightblue" stroke="midnightblue" points="981.93,-260.898 989.2,-253.191 978.711,-254.683 981.93,-260.898"/>
</g>
<!-- Node16&#45;&gt;Node29 -->
<g id="edge92" class="edge"><title>Node16&#45;&gt;Node29</title>
<path fill="none" stroke="midnightblue" d="M420.496,-348.897C430.125,-340.435 444.081,-328.172 455.46,-318.172"/>
<polygon fill="midnightblue" stroke="midnightblue" points="457.99,-320.608 463.191,-311.378 453.369,-315.35 457.99,-320.608"/>
</g>
<!-- Node16&#45;&gt;Node30 -->
<g id="edge98" class="edge"><title>Node16&#45;&gt;Node30</title>
<path fill="none" stroke="midnightblue" d="M378.821,-352.793C332.885,-343.345 244.556,-325.178 185.686,-313.07"/>
<polygon fill="midnightblue" stroke="midnightblue" points="186.279,-309.619 175.779,-311.032 184.868,-316.475 186.279,-309.619"/>
</g>
<!-- Node17&#45;&gt;Node4 -->
<g id="edge38" class="edge"><title>Node17&#45;&gt;Node4</title>
<path fill="none" stroke="midnightblue" d="M810.725,-290.793C831.266,-278.149 859.848,-255.399 848,-232 825.553,-187.669 774.605,-157.511 739.994,-141.27"/>
<polygon fill="midnightblue" stroke="midnightblue" points="741.255,-137.999 730.702,-137.057 738.365,-144.374 741.255,-137.999"/>
</g>
<!-- Node17&#45;&gt;Node12 -->
<g id="edge40" class="edge"><title>Node17&#45;&gt;Node12</title>
<path fill="none" stroke="midnightblue" d="M760.995,-290.897C731.477,-281.279 686.885,-266.749 654.557,-256.215"/>
<polygon fill="midnightblue" stroke="midnightblue" points="655.54,-252.855 644.948,-253.084 653.372,-259.51 655.54,-252.855"/>
</g>
<!-- Node17&#45;&gt;Node18 -->
<g id="edge42" class="edge"><title>Node17&#45;&gt;Node18</title>
<path fill="none" stroke="midnightblue" d="M746.743,-295.439C653.254,-283.951 440.489,-257.806 355.772,-247.396"/>
<polygon fill="midnightblue" stroke="midnightblue" points="355.976,-243.895 345.624,-246.149 355.122,-250.842 355.976,-243.895"/>
</g>
<!-- Node17&#45;&gt;Node20 -->
<g id="edge74" class="edge"><title>Node17&#45;&gt;Node20</title>
<path fill="none" stroke="midnightblue" d="M830.581,-290.856C849.266,-283.787 869.995,-272.257 881,-254 889.78,-239.434 887.91,-219.826 884.495,-205.236"/>
<polygon fill="midnightblue" stroke="midnightblue" points="887.767,-203.932 881.734,-195.223 881.019,-205.793 887.767,-203.932"/>
</g>
<!-- Node17&#45;&gt;Node23 -->
<g id="edge70" class="edge"><title>Node17&#45;&gt;Node23</title>
<path fill="none" stroke="midnightblue" d="M829.624,-290.897C865.984,-281.134 921.192,-266.309 960.55,-255.741"/>
<polygon fill="midnightblue" stroke="midnightblue" points="961.695,-259.058 970.445,-253.084 959.88,-252.297 961.695,-259.058"/>
</g>
<!-- Node17&#45;&gt;Node24 -->
<g id="edge76" class="edge"><title>Node17&#45;&gt;Node24</title>
<path fill="none" stroke="midnightblue" d="M837.243,-293.946C912.048,-282.283 1060,-259.214 1128.13,-248.593"/>
<polygon fill="midnightblue" stroke="midnightblue" points="1129.01,-251.998 1138.35,-246.999 1127.93,-245.081 1129.01,-251.998"/>
</g>
<!-- Node26 -->
<g id="node68" class="node"><title>Node26</title>
<polygon fill="white" stroke="#bfbfbf" points="804.5,-233 804.5,-253 839.5,-253 839.5,-233 804.5,-233"/>
<text text-anchor="middle" x="822" y="-240" font-family="FreeSans" font-size="10.00">map</text>
</g>
<!-- Node17&#45;&gt;Node26 -->
<g id="edge84" class="edge"><title>Node17&#45;&gt;Node26</title>
<path fill="none" stroke="midnightblue" d="M797.226,-290.897C801.262,-283.093 806.972,-272.054 811.893,-262.54"/>
<polygon fill="midnightblue" stroke="midnightblue" points="815.147,-263.868 816.632,-253.378 808.929,-260.652 815.147,-263.868"/>
</g>
<!-- Node27 -->
<g id="node70" class="node"><title>Node27</title>
<polygon fill="white" stroke="#bfbfbf" points="692.5,-233 692.5,-253 721.5,-253 721.5,-233 692.5,-233"/>
<text text-anchor="middle" x="707" y="-240" font-family="FreeSans" font-size="10.00">set</text>
</g>
<!-- Node17&#45;&gt;Node27 -->
<g id="edge86" class="edge"><title>Node17&#45;&gt;Node27</title>
<path fill="none" stroke="midnightblue" d="M777.194,-290.897C764.153,-281.998 744.948,-268.894 729.922,-258.641"/>
<polygon fill="midnightblue" stroke="midnightblue" points="731.869,-255.732 721.636,-252.987 727.924,-261.515 731.869,-255.732"/>
</g>
<!-- Node28 -->
<g id="node72" class="node"><title>Node28</title>
<polygon fill="white" stroke="#bfbfbf" points="738.5,-233 738.5,-253 787.5,-253 787.5,-233 738.5,-233"/>
<text text-anchor="middle" x="763" y="-240" font-family="FreeSans" font-size="10.00">fstream</text>
</g>
<!-- Node17&#45;&gt;Node28 -->
<g id="edge88" class="edge"><title>Node17&#45;&gt;Node28</title>
<path fill="none" stroke="midnightblue" d="M786.949,-290.897C783.046,-283.093 777.527,-272.054 772.77,-262.54"/>
<polygon fill="midnightblue" stroke="midnightblue" points="775.791,-260.757 768.189,-253.378 769.53,-263.887 775.791,-260.757"/>
</g>
<!-- Node18&#45;&gt;Node15 -->
<g id="edge68" class="edge"><title>Node18&#45;&gt;Node15</title>
<path fill="none" stroke="midnightblue" d="M342.47,-232.897C363.314,-223.526 394.53,-209.49 417.789,-199.033"/>
<polygon fill="midnightblue" stroke="midnightblue" points="419.532,-202.087 427.217,-194.794 416.661,-195.702 419.532,-202.087"/>
</g>
<!-- Node19 -->
<g id="node41" class="node"><title>Node19</title>
<a xlink:href="crossplatformincludes_8h.html" target="_top" xlink:title="This file determines what features are offered by the compiler that this library can take advantage o...">
<polygon fill="white" stroke="black" points="98.5,-117 98.5,-137 215.5,-137 215.5,-117 98.5,-117"/>
<text text-anchor="middle" x="157" y="-124" font-family="FreeSans" font-size="10.00">crossplatformincludes.h</text>
</a>
</g>
<!-- Node18&#45;&gt;Node19 -->
<g id="edge44" class="edge"><title>Node18&#45;&gt;Node19</title>
<path fill="none" stroke="midnightblue" d="M305.82,-232.909C277.522,-212.77 213.831,-167.444 179.668,-143.132"/>
<polygon fill="midnightblue" stroke="midnightblue" points="181.44,-140.097 171.263,-137.151 177.381,-145.8 181.44,-140.097"/>
</g>
<!-- Node18&#45;&gt;Node20 -->
<g id="edge56" class="edge"><title>Node18&#45;&gt;Node20</title>
<path fill="none" stroke="midnightblue" d="M345.794,-240.319C432.988,-231.256 717.596,-201.673 830.872,-189.899"/>
<polygon fill="midnightblue" stroke="midnightblue" points="831.384,-193.364 840.968,-188.849 830.66,-186.402 831.384,-193.364"/>
</g>
<!-- Node18&#45;&gt;Node21 -->
<g id="edge60" class="edge"><title>Node18&#45;&gt;Node21</title>
<path fill="none" stroke="midnightblue" d="M294.176,-236.459C252.961,-226.021 172.249,-205.578 125.922,-193.845"/>
<polygon fill="midnightblue" stroke="midnightblue" points="126.586,-190.403 116.033,-191.34 124.867,-197.188 126.586,-190.403"/>
</g>
<!-- Node22 -->
<g id="node55" class="node"><title>Node22</title>
<polygon fill="white" stroke="#bfbfbf" points="294.5,-175 294.5,-195 345.5,-195 345.5,-175 294.5,-175"/>
<text text-anchor="middle" x="320" y="-182" font-family="FreeSans" font-size="10.00">ostream</text>
</g>
<!-- Node18&#45;&gt;Node22 -->
<g id="edge66" class="edge"><title>Node18&#45;&gt;Node22</title>
<path fill="none" stroke="midnightblue" d="M320,-232.897C320,-225.339 320,-214.748 320,-205.446"/>
<polygon fill="midnightblue" stroke="midnightblue" points="323.5,-205.378 320,-195.378 316.5,-205.378 323.5,-205.378"/>
</g>
<!-- Node19&#45;&gt;Node5 -->
<g id="edge46" class="edge"><title>Node19&#45;&gt;Node5</title>
<path fill="none" stroke="midnightblue" d="M157,-116.897C157,-109.339 157,-98.7476 157,-89.4458"/>
<polygon fill="midnightblue" stroke="midnightblue" points="160.5,-89.3776 157,-79.3776 153.5,-89.3776 160.5,-89.3776"/>
</g>
<!-- Node19&#45;&gt;Node6 -->
<g id="edge48" class="edge"><title>Node19&#45;&gt;Node6</title>
<path fill="none" stroke="midnightblue" d="M136.796,-116.93C121.81,-108.657 101.689,-95.7555 88,-80 75.4544,-65.5605 66.3038,-45.6786 60.6766,-30.9647"/>
<polygon fill="midnightblue" stroke="midnightblue" points="63.8835,-29.5395 57.2037,-21.3158 57.2972,-31.9102 63.8835,-29.5395"/>
</g>
<!-- Node19&#45;&gt;Node7 -->
<g id="edge50" class="edge"><title>Node19&#45;&gt;Node7</title>
<path fill="none" stroke="midnightblue" d="M134.565,-116.977C120.09,-109.175 102.443,-96.8325 94,-80 84.9425,-61.9425 99.1003,-41.9033 112.825,-28.0942"/>
<polygon fill="midnightblue" stroke="midnightblue" points="115.362,-30.5129 120.255,-21.1156 110.57,-25.4106 115.362,-30.5129"/>
</g>
<!-- Node19&#45;&gt;Node8 -->
<g id="edge52" class="edge"><title>Node19&#45;&gt;Node8</title>
<path fill="none" stroke="midnightblue" d="M179.435,-116.977C193.91,-109.175 211.557,-96.8325 220,-80 227.884,-64.2818 221.968,-44.5939 215.209,-30.2757"/>
<polygon fill="midnightblue" stroke="midnightblue" points="218.276,-28.5891 210.554,-21.3358 212.068,-31.8219 218.276,-28.5891"/>
</g>
<!-- Node19&#45;&gt;Node9 -->
<g id="edge54" class="edge"><title>Node19&#45;&gt;Node9</title>
<path fill="none" stroke="midnightblue" d="M180.315,-116.915C197.061,-108.795 219.348,-96.0943 235,-80 248.875,-65.7334 259.52,-45.5645 266.156,-30.7154"/>
<polygon fill="midnightblue" stroke="midnightblue" points="269.415,-31.9958 270.1,-21.4231 262.971,-29.2606 269.415,-31.9958"/>
</g>
<!-- Node20&#45;&gt;Node4 -->
<g id="edge58" class="edge"><title>Node20&#45;&gt;Node4</title>
<path fill="none" stroke="midnightblue" d="M847.866,-174.897C819.301,-165.321 776.211,-150.874 744.825,-140.352"/>
<polygon fill="midnightblue" stroke="midnightblue" points="745.673,-136.945 735.079,-137.084 743.447,-143.581 745.673,-136.945"/>
</g>
<!-- Node21&#45;&gt;Node10 -->
<g id="edge64" class="edge"><title>Node21&#45;&gt;Node10</title>
<path fill="none" stroke="midnightblue" d="M116.182,-177.567C185.595,-157.079 379.464,-99.8555 454.144,-77.8124"/>
<polygon fill="midnightblue" stroke="midnightblue" points="455.265,-81.1308 463.866,-74.943 453.284,-74.4171 455.265,-81.1308"/>
</g>
<!-- Node21&#45;&gt;Node19 -->
<g id="edge62" class="edge"><title>Node21&#45;&gt;Node19</title>
<path fill="none" stroke="midnightblue" d="M102.496,-174.897C112.125,-166.435 126.081,-154.172 137.46,-144.172"/>
<polygon fill="midnightblue" stroke="midnightblue" points="139.99,-146.608 145.191,-137.378 135.369,-141.35 139.99,-146.608"/>
</g>
<!-- Node23&#45;&gt;Node4 -->
<g id="edge72" class="edge"><title>Node23&#45;&gt;Node4</title>
<path fill="none" stroke="midnightblue" d="M1003.56,-232.896C996.239,-217.509 980.106,-188.465 957,-174 922.767,-152.569 810.405,-137.902 747.906,-131.18"/>
<polygon fill="midnightblue" stroke="midnightblue" points="747.897,-127.659 737.585,-130.093 747.164,-134.621 747.897,-127.659"/>
</g>
<!-- Node24&#45;&gt;Node4 -->
<g id="edge78" class="edge"><title>Node24&#45;&gt;Node4</title>
<path fill="none" stroke="midnightblue" d="M1164.47,-232.959C1164.59,-217.655 1162.33,-188.722 1145,-174 1115.11,-148.603 852.86,-133.815 748.028,-128.873"/>
<polygon fill="midnightblue" stroke="midnightblue" points="747.951,-125.365 737.8,-128.398 747.627,-132.358 747.951,-125.365"/>
</g>
<!-- Node24&#45;&gt;Node25 -->
<g id="edge80" class="edge"><title>Node24&#45;&gt;Node25</title>
<path fill="none" stroke="midnightblue" d="M1150.59,-232.897C1139.06,-224.218 1122.23,-211.538 1108.78,-201.405"/>
<polygon fill="midnightblue" stroke="midnightblue" points="1110.61,-198.403 1100.52,-195.182 1106.4,-203.994 1110.61,-198.403"/>
</g>
<!-- Node25&#45;&gt;Node4 -->
<g id="edge82" class="edge"><title>Node25&#45;&gt;Node4</title>
<path fill="none" stroke="midnightblue" d="M1037.84,-177.536C962.362,-166.076 819.175,-144.335 747.749,-133.491"/>
<polygon fill="midnightblue" stroke="midnightblue" points="748.161,-130.013 737.748,-131.972 747.11,-136.934 748.161,-130.013"/>
</g>
<!-- Node29&#45;&gt;Node4 -->
<g id="edge96" class="edge"><title>Node29&#45;&gt;Node4</title>
<path fill="none" stroke="midnightblue" d="M463.655,-290.701C439.533,-267.587 387.807,-210.738 419,-174 434.553,-155.683 586.126,-138.533 662.076,-131.007"/>
<polygon fill="midnightblue" stroke="midnightblue" points="662.657,-134.467 672.268,-130.01 661.975,-127.5 662.657,-134.467"/>
</g>
<!-- Node29&#45;&gt;Node15 -->
<g id="edge94" class="edge"><title>Node29&#45;&gt;Node15</title>
<path fill="none" stroke="midnightblue" d="M472.693,-290.706C468.384,-271.482 459.047,-229.825 453.467,-204.929"/>
<polygon fill="midnightblue" stroke="midnightblue" points="456.867,-204.098 451.265,-195.106 450.037,-205.629 456.867,-204.098"/>
</g>
<!-- Node30&#45;&gt;Node4 -->
<g id="edge100" class="edge"><title>Node30&#45;&gt;Node4</title>
<path fill="none" stroke="midnightblue" d="M127.56,-290.993C129.525,-266.409 138.292,-202.956 177,-174 215.494,-145.205 542.884,-132.104 661.941,-128.261"/>
<polygon fill="midnightblue" stroke="midnightblue" points="662.254,-131.753 672.138,-127.939 662.032,-124.757 662.254,-131.753"/>
</g>
<!-- Node31&#45;&gt;Node4 -->
<g id="edge124" class="edge"><title>Node31&#45;&gt;Node4</title>
<path fill="none" stroke="midnightblue" d="M802.657,-406.994C848.367,-372.332 989.523,-255.077 924,-174 902.313,-147.165 805.462,-134.949 748.072,-129.98"/>
<polygon fill="midnightblue" stroke="midnightblue" points="748.097,-126.47 737.843,-129.134 747.52,-133.446 748.097,-126.47"/>
</g>
<!-- Node31&#45;&gt;Node15 -->
<g id="edge130" class="edge"><title>Node31&#45;&gt;Node15</title>
<path fill="none" stroke="midnightblue" d="M773.372,-406.921C734.339,-381.679 629.566,-313.5 544,-254 518.457,-236.238 489.604,-215.129 470.467,-200.978"/>
<polygon fill="midnightblue" stroke="midnightblue" points="472.522,-198.145 462.404,-195.003 468.354,-203.769 472.522,-198.145"/>
</g>
<!-- Node31&#45;&gt;Node16 -->
<g id="edge126" class="edge"><title>Node31&#45;&gt;Node16</title>
<path fill="none" stroke="midnightblue" d="M723.243,-406.963C644.403,-394.93 514.739,-375.139 449.363,-365.161"/>
<polygon fill="midnightblue" stroke="midnightblue" points="449.854,-361.695 439.44,-363.646 448.798,-368.615 449.854,-361.695"/>
</g>
<!-- Node31&#45;&gt;Node23 -->
<g id="edge128" class="edge"><title>Node31&#45;&gt;Node23</title>
<path fill="none" stroke="midnightblue" d="M836.137,-406.923C861.884,-399.731 893.263,-388.063 917,-370 955.834,-340.449 985.028,-289.711 998.953,-262.159"/>
<polygon fill="midnightblue" stroke="midnightblue" points="1002.12,-263.658 1003.38,-253.14 995.832,-260.573 1002.12,-263.658"/>
</g>
<!-- Node32&#45;&gt;Node4 -->
<g id="edge134" class="edge"><title>Node32&#45;&gt;Node4</title>
<path fill="none" stroke="midnightblue" d="M362.792,-406.966C324.143,-371.209 202.368,-248.201 269,-174 295.003,-145.043 557.629,-132.359 662.287,-128.426"/>
<polygon fill="midnightblue" stroke="midnightblue" points="662.63,-131.916 672.495,-128.052 662.374,-124.921 662.63,-131.916"/>
</g>
<!-- Node32&#45;&gt;Node12 -->
<g id="edge136" class="edge"><title>Node32&#45;&gt;Node12</title>
<path fill="none" stroke="midnightblue" d="M390.705,-406.917C405.867,-397.642 428.732,-383.344 448,-370 501.989,-332.609 562.609,-284.611 593.5,-259.692"/>
<polygon fill="midnightblue" stroke="midnightblue" points="595.822,-262.315 601.394,-253.304 591.419,-256.874 595.822,-262.315"/>
</g>
<!-- Node32&#45;&gt;Node16 -->
<g id="edge138" class="edge"><title>Node32&#45;&gt;Node16</title>
<path fill="none" stroke="midnightblue" d="M380.097,-406.897C384.905,-398.928 391.749,-387.587 397.57,-377.941"/>
<polygon fill="midnightblue" stroke="midnightblue" points="400.568,-379.748 402.738,-369.378 394.574,-376.131 400.568,-379.748"/>
</g>
</g>
</svg>
        <g id="navigator" transform="translate(0 0)" fill="#404254">
                <rect fill="#f2f5e9" fill-opacity="0.5" stroke="#606060" stroke-width=".5" x="0" y="0" width="60" height="60"/>
                <use id="zoomplus" xlink:href="#zoomPlus" x="17" y="9" onmousedown="handleZoom(evt,'in')"/>
                <use id="zoomminus" xlink:href="#zoomMin" x="42" y="9" onmousedown="handleZoom(evt,'out')"/>
                <use id="reset" xlink:href="#resetDef" x="30" y="36" onmousedown="handleReset()"/>
                <g id="arrowUp" xlink:href="#dirArrow" transform="translate(30 24)" onmousedown="handlePan(0,-1)">
                  <use xlink:href="#rim" fill="#404040">
                        <set attributeName="fill" to="#808080" begin="arrowUp.mouseover" end="arrowUp.mouseout"/>
                  </use>
                  <path fill="none" stroke="white" stroke-width="1.5" d="M0,-3.0v7 M-2.5,-0.5L0,-3.0L2.5,-0.5"/>
                </g>
                <g id="arrowRight" xlink:href="#dirArrow" transform="rotate(90) translate(36 -43)" onmousedown="handlePan(1,0)">
                  <use xlink:href="#rim" fill="#404040">
                        <set attributeName="fill" to="#808080" begin="arrowRight.mouseover" end="arrowRight.mouseout"/>
                  </use>
                  <path fill="none" stroke="white" stroke-width="1.5" d="M0,-3.0v7 M-2.5,-0.5L0,-3.0L2.5,-0.5"/>
                </g>
                <g id="arrowDown" xlink:href="#dirArrow" transform="rotate(180) translate(-30 -48)" onmousedown="handlePan(0,1)">
                  <use xlink:href="#rim" fill="#404040">
                        <set attributeName="fill" to="#808080" begin="arrowDown.mouseover" end="arrowDown.mouseout"/>
                  </use>
                  <path fill="none" stroke="white" stroke-width="1.5" d="M0,-3.0v7 M-2.5,-0.5L0,-3.0L2.5,-0.5"/>
                </g>
                <g id="arrowLeft" xlink:href="#dirArrow" transform="rotate(270) translate(-36 17)" onmousedown="handlePan(-1,0)">
                  <use xlink:href="#rim" fill="#404040">
                        <set attributeName="fill" to="#808080" begin="arrowLeft.mouseover" end="arrowLeft.mouseout"/>
                  </use>
                  <path fill="none" stroke="white" stroke-width="1.5" d="M0,-3.0v7 M-2.5,-0.5L0,-3.0L2.5,-0.5"/>
                </g>
        </g>
        <svg viewBox="0 0 15 15" width="100%" height="30px" preserveAspectRatio="xMaxYMin meet">
         <g id="arrow_out" transform="scale(0.3 0.3)">
          <a xlink:href="dagframescheduler_8h__incl_org.svg" target="_base">
           <rect id="button" ry="5" rx="5" y="6" x="6" height="38" width="38"
                fill="#f2f5e9" fill-opacity="0.5" stroke="#606060" stroke-width="1.0"/>
           <path id="arrow"
             d="M 11.500037,31.436501 C 11.940474,20.09759 22.043105,11.32322 32.158766,21.979434 L 37.068811,17.246167 C 37.068811,17.246167 37.088388,32 37.088388,32 L 22.160133,31.978069 C 22.160133,31.978069 26.997745,27.140456 26.997745,27.140456 C 18.528582,18.264221 13.291696,25.230495 11.500037,31.436501 z"
             style="fill:#404040;"/>
          </a>
         </g>
        </svg>
</svg>
