<?xml version="1.0" encoding="UTF-8" standalone="no"?>
<!DOCTYPE svg PUBLIC "-//W3C//DTD SVG 1.1//EN"
 "http://www.w3.org/Graphics/SVG/1.1/DTD/svg11.dtd">
<!-- Generated by graphviz version 2.26.3 (20100126.1600)
 -->
<!-- Title: dagframescheduler.h Pages: 1 -->
<svg width="1392pt" height="552pt"
 viewBox="0.00 0.00 1392.00 552.00" xmlns="http://www.w3.org/2000/svg" xmlns:xlink="http://www.w3.org/1999/xlink">
<g id="graph1" class="graph" transform="scale(1 1) rotate(0) translate(4 548)">
<title>dagframescheduler.h</title>
<polygon fill="white" stroke="white" points="-4,5 -4,-548 1389,-548 1389,5 -4,5"/>
<!-- Node1 -->
<g id="node1" class="node"><title>Node1</title>
<polygon fill="#bfbfbf" stroke="black" points="765,-523 765,-543 871,-543 871,-523 765,-523"/>
<text text-anchor="middle" x="818" y="-530" font-family="FreeSans" font-size="10.00">dagframescheduler.h</text>
</g>
<!-- Node2 -->
<g id="node3" class="node"><title>Node2</title>
<a xlink:href="datatypes_8h.html" target="_top" xlink:title="This file declares a few typedefs to allow flexibility, in case a change is required/desired. ">
<polygon fill="white" stroke="black" points="698.5,-59 698.5,-79 763.5,-79 763.5,-59 698.5,-59"/>
<text text-anchor="middle" x="731" y="-66" font-family="FreeSans" font-size="10.00">datatypes.h</text>
</a>
</g>
<!-- Node1&#45;&gt;Node2 -->
<g id="edge2" class="edge"><title>Node1&#45;&gt;Node2</title>
<path fill="none" stroke="midnightblue" d="M871.128,-530.825C995.79,-525.35 1299.55,-509.724 1339,-486 1370.38,-467.131 1384,-453.612 1384,-417 1384,-417 1384,-417 1384,-185 1384,-122.866 919.772,-83.0435 774.152,-72.0802"/>
<polygon fill="midnightblue" stroke="midnightblue" points="774.062,-68.5639 763.83,-71.3114 773.542,-75.5446 774.062,-68.5639"/>
</g>
<!-- Node3 -->
<g id="node5" class="node"><title>Node3</title>
<a xlink:href="crossplatformexport_8h.html" target="_top" xlink:title="This file determines what features are offered by the compiler that this library can take advantage o...">
<polygon fill="white" stroke="black" points="151,-1 151,-21 259,-21 259,-1 151,-1"/>
<text text-anchor="middle" x="205" y="-8" font-family="FreeSans" font-size="10.00">crossplatformexport.h</text>
</a>
</g>
<!-- Node1&#45;&gt;Node3 -->
<g id="edge94" class="edge"><title>Node1&#45;&gt;Node3</title>
<path fill="none" stroke="midnightblue" d="M764.727,-532.447C600.445,-530.37 109.009,-521.246 47,-486 14.7417,-467.665 0,-454.105 0,-417 0,-417 0,-417 0,-127 0,-61.2446 80.8792,-32.3278 141.034,-19.9142"/>
<polygon fill="midnightblue" stroke="midnightblue" points="141.728,-23.3449 150.871,-17.9909 140.385,-16.475 141.728,-23.3449"/>
</g>
<!-- Node13 -->
<g id="node25" class="node"><title>Node13</title>
<a xlink:href="asynchronousfileloadingworkunit_8h.html" target="_top" xlink:title="The declaration of the AsynchronousFileLoadWorkUnit a workunit that loads a listing of files asynchro...">
<polygon fill="white" stroke="black" points="65.5,-465 65.5,-485 226.5,-485 226.5,-465 65.5,-465"/>
<text text-anchor="middle" x="146" y="-472" font-family="FreeSans" font-size="10.00">asynchronousfileloadingworkunit.h</text>
</a>
</g>
<!-- Node1&#45;&gt;Node13 -->
<g id="edge24" class="edge"><title>Node1&#45;&gt;Node13</title>
<path fill="none" stroke="midnightblue" d="M764.95,-529.316C663.094,-522.104 433.111,-505.144 240,-486 238.917,-485.893 237.827,-485.783 236.731,-485.673"/>
<polygon fill="midnightblue" stroke="midnightblue" points="237.048,-482.187 226.74,-484.635 236.325,-489.149 237.048,-482.187"/>
</g>
<!-- Node14 -->
<g id="node27" class="node"><title>Node14</title>
<a xlink:href="asynchronousworkunit_8h.html" target="_top" xlink:title="Contains an interface for a kind of WorkUnit that loads or does other work even when the frame schedu...">
<polygon fill="white" stroke="black" points="86.5,-407 86.5,-427 205.5,-427 205.5,-407 86.5,-407"/>
<text text-anchor="middle" x="146" y="-414" font-family="FreeSans" font-size="10.00">asynchronousworkunit.h</text>
</a>
</g>
<!-- Node1&#45;&gt;Node14 -->
<g id="edge88" class="edge"><title>Node1&#45;&gt;Node14</title>
<path fill="none" stroke="midnightblue" d="M764.934,-531.695C596.137,-527.29 81.2397,-511.783 57,-486 36.3402,-464.025 72.9013,-443.478 105.221,-430.617"/>
<polygon fill="midnightblue" stroke="midnightblue" points="106.511,-433.872 114.609,-427.04 104.018,-427.33 106.511,-433.872"/>
</g>
<!-- Node15 -->
<g id="node30" class="node"><title>Node15</title>
<a xlink:href="doublebufferedresource_8h.html" target="_top" xlink:title="This file defines the template double buffered resources that can be attached to a thread...">
<polygon fill="white" stroke="black" points="152.5,-233 152.5,-253 275.5,-253 275.5,-233 152.5,-233"/>
<text text-anchor="middle" x="214" y="-240" font-family="FreeSans" font-size="10.00">doublebufferedresource.h</text>
</a>
</g>
<!-- Node1&#45;&gt;Node15 -->
<g id="edge96" class="edge"><title>Node1&#45;&gt;Node15</title>
<path fill="none" stroke="midnightblue" d="M764.759,-530.479C642.167,-524.334 347.421,-507.501 308,-486 273.813,-467.354 254,-455.942 254,-417 254,-417 254,-417 254,-359 254,-323.186 236.749,-284.383 224.905,-261.962"/>
<polygon fill="midnightblue" stroke="midnightblue" points="227.95,-260.236 220.075,-253.148 221.811,-263.6 227.95,-260.236"/>
</g>
<!-- Node16 -->
<g id="node33" class="node"><title>Node16</title>
<a xlink:href="workunit_8h.html" target="_top" xlink:title="This file has the definition of the workunit. ">
<polygon fill="white" stroke="black" points="560,-349 560,-369 620,-369 620,-349 560,-349"/>
<text text-anchor="middle" x="590" y="-356" font-family="FreeSans" font-size="10.00">workunit.h</text>
</a>
</g>
<!-- Node1&#45;&gt;Node16 -->
<g id="edge146" class="edge"><title>Node1&#45;&gt;Node16</title>
<path fill="none" stroke="midnightblue" d="M764.884,-527.929C705.18,-519.029 611.101,-494.632 569,-428 559.234,-412.543 567.44,-392.271 576.294,-377.705"/>
<polygon fill="midnightblue" stroke="midnightblue" points="579.414,-379.334 582.024,-369.066 573.58,-375.465 579.414,-379.334"/>
</g>
<!-- Node17 -->
<g id="node36" class="node"><title>Node17</title>
<a xlink:href="framescheduler_8h.html" target="_top" xlink:title="This file has the Declarations for the main FrameScheduler class. ">
<polygon fill="white" stroke="black" points="396,-291 396,-311 486,-311 486,-291 396,-291"/>
<text text-anchor="middle" x="441" y="-298" font-family="FreeSans" font-size="10.00">framescheduler.h</text>
</a>
</g>
<!-- Node1&#45;&gt;Node17 -->
<g id="edge98" class="edge"><title>Node1&#45;&gt;Node17</title>
<path fill="none" stroke="midnightblue" d="M764.951,-531.896C684.566,-529.145 537.108,-519.538 498,-486 448.774,-443.785 441.372,-360.109 440.712,-321.454"/>
<polygon fill="midnightblue" stroke="midnightblue" points="444.212,-321.395 440.68,-311.406 437.212,-321.417 444.212,-321.395"/>
</g>
<!-- Node18 -->
<g id="node40" class="node"><title>Node18</title>
<a xlink:href="thread_8h.html" target="_top" xlink:title="This file defines a minimalistic cross&#45;platform thread that the scheduler uses to schedule tasks...">
<polygon fill="white" stroke="black" points="701.5,-233 701.5,-253 752.5,-253 752.5,-233 701.5,-233"/>
<text text-anchor="middle" x="727" y="-240" font-family="FreeSans" font-size="10.00">thread.h</text>
</a>
</g>
<!-- Node1&#45;&gt;Node18 -->
<g id="edge142" class="edge"><title>Node1&#45;&gt;Node18</title>
<path fill="none" stroke="midnightblue" d="M817.409,-522.926C815.936,-501.183 811.293,-448.396 799,-406 783.287,-351.809 753.418,-292.101 737.539,-262.242"/>
<polygon fill="midnightblue" stroke="midnightblue" points="740.554,-260.457 732.731,-253.311 734.39,-263.775 740.554,-260.457"/>
</g>
<!-- Node19 -->
<g id="node42" class="node"><title>Node19</title>
<a xlink:href="systemcalls_8h.html" target="_top" xlink:title="This file defines a minimalistic cross&#45;platform thread that the scheduler uses to schedule tasks...">
<polygon fill="white" stroke="black" points="771,-175 771,-195 845,-195 845,-175 771,-175"/>
<text text-anchor="middle" x="808" y="-182" font-family="FreeSans" font-size="10.00">systemcalls.h</text>
</a>
</g>
<!-- Node1&#45;&gt;Node19 -->
<g id="edge140" class="edge"><title>Node1&#45;&gt;Node19</title>
<path fill="none" stroke="midnightblue" d="M832.643,-522.979C844.225,-514.375 860.05,-501.012 870,-486 887.937,-458.936 894,-449.469 894,-417 894,-417 894,-417 894,-301 894,-258.655 856.562,-221.69 831.089,-201.44"/>
<polygon fill="midnightblue" stroke="midnightblue" points="833.047,-198.531 822.98,-195.229 828.791,-204.089 833.047,-198.531"/>
</g>
<!-- Node20 -->
<g id="node45" class="node"><title>Node20</title>
<a xlink:href="mutex_8h.html" target="_top" xlink:title="This file declares and defines a mutex that is a partial implementation. ">
<polygon fill="white" stroke="black" points="703,-175 703,-195 753,-195 753,-175 703,-175"/>
<text text-anchor="middle" x="728" y="-182" font-family="FreeSans" font-size="10.00">mutex.h</text>
</a>
</g>
<!-- Node1&#45;&gt;Node20 -->
<g id="edge126" class="edge"><title>Node1&#45;&gt;Node20</title>
<path fill="none" stroke="midnightblue" d="M860.228,-522.956C932.454,-504.535 1072,-462.994 1072,-417 1072,-417 1072,-417 1072,-359 1072,-327.192 1074.99,-312.978 1053,-290 1042.15,-278.662 816.787,-212.508 762.873,-196.144"/>
<polygon fill="midnightblue" stroke="midnightblue" points="763.838,-192.779 753.251,-193.171 761.771,-199.467 763.838,-192.779"/>
</g>
<!-- Node21 -->
<g id="node47" class="node"><title>Node21</title>
<a xlink:href="atomicoperations_8h.html" target="_top" xlink:title="Simple thread safe ways to check and change a specified variable atomically. ">
<polygon fill="white" stroke="black" points="682,-117 682,-137 780,-137 780,-117 682,-117"/>
<text text-anchor="middle" x="731" y="-124" font-family="FreeSans" font-size="10.00">atomicoperations.h</text>
</a>
</g>
<!-- Node1&#45;&gt;Node21 -->
<g id="edge90" class="edge"><title>Node1&#45;&gt;Node21</title>
<path fill="none" stroke="midnightblue" d="M871.042,-526.459C912.282,-519.978 970.162,-507.772 1017,-486 1063.67,-464.305 1110,-468.467 1110,-417 1110,-417 1110,-417 1110,-359 1110,-324.41 1098.41,-314.512 1074,-290 996.008,-211.669 954.699,-219.588 854,-174 826.362,-161.488 794.323,-149.317 769.874,-140.497"/>
<polygon fill="midnightblue" stroke="midnightblue" points="770.826,-137.12 760.232,-137.049 768.47,-143.712 770.826,-137.12"/>
</g>
<!-- Node22 -->
<g id="node50" class="node"><title>Node22</title>
<a xlink:href="workunitkey_8h.html" target="_top" xlink:title="This file defines the metadata used to sort workunits. ">
<polygon fill="white" stroke="black" points="506.5,-233 506.5,-253 581.5,-253 581.5,-233 506.5,-233"/>
<text text-anchor="middle" x="544" y="-240" font-family="FreeSans" font-size="10.00">workunitkey.h</text>
</a>
</g>
<!-- Node1&#45;&gt;Node22 -->
<g id="edge148" class="edge"><title>Node1&#45;&gt;Node22</title>
<path fill="none" stroke="midnightblue" d="M764.953,-526.38C708.799,-518.558 624.663,-504.266 598,-486 525.398,-436.262 534.131,-311.894 540.741,-263.098"/>
<polygon fill="midnightblue" stroke="midnightblue" points="544.213,-263.545 542.208,-253.141 537.288,-262.524 544.213,-263.545"/>
</g>
<!-- Node23 -->
<g id="node53" class="node"><title>Node23</title>
<a xlink:href="spinlock_8h.html" target="_top" xlink:title="Declares a Mutex, Mutex tools, and at least one MutexLike object. ">
<polygon fill="white" stroke="black" points="1145.5,-233 1145.5,-253 1204.5,-253 1204.5,-233 1145.5,-233"/>
<text text-anchor="middle" x="1175" y="-240" font-family="FreeSans" font-size="10.00">spinlock.h</text>
</a>
</g>
<!-- Node1&#45;&gt;Node23 -->
<g id="edge138" class="edge"><title>Node1&#45;&gt;Node23</title>
<path fill="none" stroke="midnightblue" d="M871.032,-531.041C952.38,-527.118 1103.16,-515.934 1147,-486 1176.09,-466.135 1186,-452.226 1186,-417 1186,-417 1186,-417 1186,-359 1186,-325.274 1181.33,-286.278 1178.08,-263.18"/>
<polygon fill="midnightblue" stroke="midnightblue" points="1181.53,-262.599 1176.62,-253.211 1174.61,-263.612 1181.53,-262.599"/>
</g>
<!-- Node24 -->
<g id="node57" class="node"><title>Node24</title>
<a xlink:href="rollingaverage_8h.html" target="_top" xlink:title="This stores the implementation and the declaration of the RollingAverage, BufferedRollingAverage, WeightedRollingAverage and the DefaultRollingAverage. ">
<polygon fill="white" stroke="black" points="292.5,-233 292.5,-253 375.5,-253 375.5,-233 292.5,-233"/>
<text text-anchor="middle" x="334" y="-240" font-family="FreeSans" font-size="10.00">rollingaverage.h</text>
</a>
</g>
<!-- Node1&#45;&gt;Node24 -->
<g id="edge136" class="edge"><title>Node1&#45;&gt;Node24</title>
<path fill="none" stroke="midnightblue" d="M764.836,-529.489C696.63,-524.133 575.061,-511.706 474,-486 390.163,-464.675 292,-503.507 292,-417 292,-417 292,-417 292,-359 292,-322.991 310.114,-284.249 322.55,-261.894"/>
<polygon fill="midnightblue" stroke="midnightblue" points="325.654,-263.518 327.621,-253.107 319.591,-260.019 325.654,-263.518"/>
</g>
<!-- Node25 -->
<g id="node60" class="node"><title>Node25</title>
<a xlink:href="barrier_8h.html" target="_top" xlink:title="The declaration of the Mezzanine::Threading::Barrier Barrier synchronization primitive. ">
<polygon fill="white" stroke="black" points="634.5,-175 634.5,-195 685.5,-195 685.5,-175 634.5,-175"/>
<text text-anchor="middle" x="660" y="-182" font-family="FreeSans" font-size="10.00">barrier.h</text>
</a>
</g>
<!-- Node1&#45;&gt;Node25 -->
<g id="edge92" class="edge"><title>Node1&#45;&gt;Node25</title>
<path fill="none" stroke="midnightblue" d="M823.771,-522.813C834.402,-503.062 856,-457.9 856,-417 856,-417 856,-417 856,-359 856,-274.009 751.658,-220.411 695.235,-197.642"/>
<polygon fill="midnightblue" stroke="midnightblue" points="696.211,-194.265 685.624,-193.874 693.656,-200.782 696.211,-194.265"/>
</g>
<!-- Node26 -->
<g id="node66" class="node"><title>Node26</title>
<a xlink:href="threadingenumerations_8h.html" target="_top" xlink:title="Any enumerations the threading library requires are all declared here. ">
<polygon fill="white" stroke="black" points="922,-291 922,-311 1044,-311 1044,-291 922,-291"/>
<text text-anchor="middle" x="983" y="-298" font-family="FreeSans" font-size="10.00">threadingenumerations.h</text>
</a>
</g>
<!-- Node1&#45;&gt;Node26 -->
<g id="edge144" class="edge"><title>Node1&#45;&gt;Node26</title>
<path fill="none" stroke="midnightblue" d="M849.449,-522.895C868.561,-515.363 892.238,-503.355 908,-486 952.555,-436.943 972.395,-357.955 979.582,-321.12"/>
<polygon fill="midnightblue" stroke="midnightblue" points="983.054,-321.589 981.42,-311.121 976.17,-320.324 983.054,-321.589"/>
</g>
<!-- Node27 -->
<g id="node77" class="node"><title>Node27</title>
<a xlink:href="frameschedulerworkunits_8h.html" target="_top" xlink:title="This defines a number of workunits that are required for doing some tasks that the Framescheduler req...">
<polygon fill="white" stroke="black" points="659.5,-407 659.5,-427 790.5,-427 790.5,-407 659.5,-407"/>
<text text-anchor="middle" x="725" y="-414" font-family="FreeSans" font-size="10.00">frameschedulerworkunits.h</text>
</a>
</g>
<!-- Node1&#45;&gt;Node27 -->
<g id="edge100" class="edge"><title>Node1&#45;&gt;Node27</title>
<path fill="none" stroke="midnightblue" d="M809.747,-522.706C793.92,-502.965 759.127,-459.567 739.397,-434.957"/>
<polygon fill="midnightblue" stroke="midnightblue" points="742.088,-432.718 733.102,-427.106 736.626,-437.097 742.088,-432.718"/>
</g>
<!-- Node28 -->
<g id="node82" class="node"><title>Node28</title>
<a xlink:href="lockguard_8h.html" target="_top" xlink:title="Declares a tool for automatically unlocking a mutex in an exception safe way. ">
<polygon fill="white" stroke="black" points="1290,-407 1290,-427 1356,-427 1356,-407 1290,-407"/>
<text text-anchor="middle" x="1323" y="-414" font-family="FreeSans" font-size="10.00">lockguard.h</text>
</a>
</g>
<!-- Node1&#45;&gt;Node28 -->
<g id="edge108" class="edge"><title>Node1&#45;&gt;Node28</title>
<path fill="none" stroke="midnightblue" d="M871.199,-531.932C994.308,-528.919 1290.66,-518.348 1321,-486 1332.87,-473.338 1331.95,-452.916 1328.91,-437.568"/>
<polygon fill="midnightblue" stroke="midnightblue" points="1332.22,-436.373 1326.48,-427.473 1325.42,-438.015 1332.22,-436.373"/>
</g>
<!-- Node29 -->
<g id="node84" class="node"><title>Node29</title>
<a xlink:href="logtools_8h.html" target="_top" xlink:title="The definitions of the logging tools. ">
<polygon fill="white" stroke="black" points="1059.5,-233 1059.5,-253 1116.5,-253 1116.5,-233 1059.5,-233"/>
<text text-anchor="middle" x="1088" y="-240" font-family="FreeSans" font-size="10.00">logtools.h</text>
</a>
</g>
<!-- Node1&#45;&gt;Node29 -->
<g id="edge110" class="edge"><title>Node1&#45;&gt;Node29</title>
<path fill="none" stroke="midnightblue" d="M871.138,-531.304C948.368,-527.788 1086.51,-517.207 1124,-486 1148.95,-465.227 1148,-449.469 1148,-417 1148,-417 1148,-417 1148,-359 1148,-320.769 1121.97,-282.576 1104.2,-260.956"/>
<polygon fill="midnightblue" stroke="midnightblue" points="1106.79,-258.601 1097.64,-253.262 1101.46,-263.142 1106.79,-258.601"/>
</g>
<!-- Node31 -->
<g id="node90" class="node"><title>Node31</title>
<a xlink:href="monopoly_8h.html" target="_top" xlink:title="Contains an interface for a kind of WorkUnit that consumes time on multiple thread. ">
<polygon fill="white" stroke="black" points="577.5,-407 577.5,-427 642.5,-427 642.5,-407 577.5,-407"/>
<text text-anchor="middle" x="610" y="-414" font-family="FreeSans" font-size="10.00">monopoly.h</text>
</a>
</g>
<!-- Node1&#45;&gt;Node31 -->
<g id="edge118" class="edge"><title>Node1&#45;&gt;Node31</title>
<path fill="none" stroke="midnightblue" d="M799.905,-522.909C763.257,-502.47 680.09,-456.089 637.004,-432.06"/>
<polygon fill="midnightblue" stroke="midnightblue" points="638.639,-428.965 628.201,-427.151 635.23,-435.078 638.639,-428.965"/>
</g>
<!-- Node32 -->
<g id="node96" class="node"><title>Node32</title>
<a xlink:href="readwritespinlock_8h.html" target="_top" xlink:title="Declares a Mutex, Mutex tools, and at least one MutexLike object. ">
<polygon fill="white" stroke="black" points="1214,-465 1214,-485 1312,-485 1312,-465 1214,-465"/>
<text text-anchor="middle" x="1263" y="-472" font-family="FreeSans" font-size="10.00">readwritespinlock.h</text>
</a>
</g>
<!-- Node1&#45;&gt;Node32 -->
<g id="edge128" class="edge"><title>Node1&#45;&gt;Node32</title>
<path fill="none" stroke="midnightblue" d="M871.261,-527.305C945.187,-519.206 1083.02,-503.398 1200,-486 1201.27,-485.812 1202.55,-485.618 1203.84,-485.42"/>
<polygon fill="midnightblue" stroke="midnightblue" points="1204.53,-488.853 1213.86,-483.827 1203.43,-481.94 1204.53,-488.853"/>
</g>
<!-- Node2&#45;&gt;Node3 -->
<g id="edge4" class="edge"><title>Node2&#45;&gt;Node3</title>
<path fill="none" stroke="midnightblue" d="M698.493,-65.4156C613.35,-56.0271 382.608,-30.5842 269.4,-18.1011"/>
<polygon fill="midnightblue" stroke="midnightblue" points="269.472,-14.588 259.149,-16.9708 268.705,-21.5458 269.472,-14.588"/>
</g>
<!-- Node4 -->
<g id="node7" class="node"><title>Node4</title>
<polygon fill="white" stroke="#bfbfbf" points="977.5,-1 977.5,-21 1020.5,-21 1020.5,-1 977.5,-1"/>
<text text-anchor="middle" x="999" y="-8" font-family="FreeSans" font-size="10.00">vector</text>
</g>
<!-- Node2&#45;&gt;Node4 -->
<g id="edge6" class="edge"><title>Node2&#45;&gt;Node4</title>
<path fill="none" stroke="midnightblue" d="M763.715,-64.2028C808.051,-57.3426 889.754,-43.4311 967.256,-22.2137"/>
<polygon fill="midnightblue" stroke="midnightblue" points="968.48,-25.5062 977.174,-19.4512 966.602,-18.7629 968.48,-25.5062"/>
</g>
<!-- Node5 -->
<g id="node9" class="node"><title>Node5</title>
<polygon fill="white" stroke="#bfbfbf" points="482,-1 482,-21 522,-21 522,-1 482,-1"/>
<text text-anchor="middle" x="502" y="-8" font-family="FreeSans" font-size="10.00">string</text>
</g>
<!-- Node2&#45;&gt;Node5 -->
<g id="edge8" class="edge"><title>Node2&#45;&gt;Node5</title>
<path fill="none" stroke="midnightblue" d="M698.436,-62.7234C660.51,-55.1143 595.865,-41.2216 531.991,-22.0338"/>
<polygon fill="midnightblue" stroke="midnightblue" points="532.75,-18.6062 522.164,-19.037 530.708,-25.3018 532.75,-18.6062"/>
</g>
<!-- Node6 -->
<g id="node11" class="node"><title>Node6</title>
<polygon fill="white" stroke="#bfbfbf" points="539.5,-1 539.5,-21 590.5,-21 590.5,-1 539.5,-1"/>
<text text-anchor="middle" x="565" y="-8" font-family="FreeSans" font-size="10.00">ostream</text>
</g>
<!-- Node2&#45;&gt;Node6 -->
<g id="edge10" class="edge"><title>Node2&#45;&gt;Node6</title>
<path fill="none" stroke="midnightblue" d="M702.085,-58.8972C673.793,-49.0121 630.652,-33.9385 600.339,-23.3473"/>
<polygon fill="midnightblue" stroke="midnightblue" points="601.186,-19.9357 590.591,-19.9413 598.877,-26.544 601.186,-19.9357"/>
</g>
<!-- Node7 -->
<g id="node13" class="node"><title>Node7</title>
<polygon fill="white" stroke="#bfbfbf" points="607.5,-1 607.5,-21 642.5,-21 642.5,-1 607.5,-1"/>
<text text-anchor="middle" x="625" y="-8" font-family="FreeSans" font-size="10.00">map</text>
</g>
<!-- Node2&#45;&gt;Node7 -->
<g id="edge12" class="edge"><title>Node2&#45;&gt;Node7</title>
<path fill="none" stroke="midnightblue" d="M712.536,-58.8972C695.613,-49.6371 670.368,-35.824 651.331,-25.4077"/>
<polygon fill="midnightblue" stroke="midnightblue" points="653.001,-22.3317 642.548,-20.6019 649.641,-28.4725 653.001,-22.3317"/>
</g>
<!-- Node8 -->
<g id="node15" class="node"><title>Node8</title>
<polygon fill="white" stroke="#bfbfbf" points="659.5,-1 659.5,-21 688.5,-21 688.5,-1 659.5,-1"/>
<text text-anchor="middle" x="674" y="-8" font-family="FreeSans" font-size="10.00">set</text>
</g>
<!-- Node2&#45;&gt;Node8 -->
<g id="edge14" class="edge"><title>Node2&#45;&gt;Node8</title>
<path fill="none" stroke="midnightblue" d="M721.071,-58.8972C712.917,-50.5996 701.17,-38.6463 691.451,-28.7569"/>
<polygon fill="midnightblue" stroke="midnightblue" points="693.704,-26.0566 684.199,-21.3776 688.712,-30.9632 693.704,-26.0566"/>
</g>
<!-- Node9 -->
<g id="node17" class="node"><title>Node9</title>
<polygon fill="white" stroke="#bfbfbf" points="706,-1 706,-21 756,-21 756,-1 706,-1"/>
<text text-anchor="middle" x="731" y="-8" font-family="FreeSans" font-size="10.00">sstream</text>
</g>
<!-- Node2&#45;&gt;Node9 -->
<g id="edge16" class="edge"><title>Node2&#45;&gt;Node9</title>
<path fill="none" stroke="midnightblue" d="M731,-58.8972C731,-51.339 731,-40.7476 731,-31.4458"/>
<polygon fill="midnightblue" stroke="midnightblue" points="734.5,-31.3776 731,-21.3776 727.5,-31.3776 734.5,-31.3776"/>
</g>
<!-- Node10 -->
<g id="node19" class="node"><title>Node10</title>
<polygon fill="white" stroke="#bfbfbf" points="773.5,-1 773.5,-21 822.5,-21 822.5,-1 773.5,-1"/>
<text text-anchor="middle" x="798" y="-8" font-family="FreeSans" font-size="10.00">fstream</text>
</g>
<!-- Node2&#45;&gt;Node10 -->
<g id="edge18" class="edge"><title>Node2&#45;&gt;Node10</title>
<path fill="none" stroke="midnightblue" d="M742.671,-58.8972C752.445,-50.4353 766.612,-38.1715 778.163,-28.1719"/>
<polygon fill="midnightblue" stroke="midnightblue" points="780.742,-30.5689 786.012,-21.3776 776.161,-25.2764 780.742,-30.5689"/>
</g>
<!-- Node11 -->
<g id="node21" class="node"><title>Node11</title>
<polygon fill="white" stroke="#bfbfbf" points="840,-1 840,-21 896,-21 896,-1 840,-1"/>
<text text-anchor="middle" x="868" y="-8" font-family="FreeSans" font-size="10.00">algorithm</text>
</g>
<!-- Node2&#45;&gt;Node11 -->
<g id="edge20" class="edge"><title>Node2&#45;&gt;Node11</title>
<path fill="none" stroke="midnightblue" d="M754.864,-58.8972C776.927,-49.5565 809.933,-35.5831 834.609,-25.1363"/>
<polygon fill="midnightblue" stroke="midnightblue" points="836.106,-28.3034 843.95,-21.1817 833.377,-21.8573 836.106,-28.3034"/>
</g>
<!-- Node12 -->
<g id="node23" class="node"><title>Node12</title>
<polygon fill="white" stroke="#bfbfbf" points="913.5,-1 913.5,-21 960.5,-21 960.5,-1 913.5,-1"/>
<text text-anchor="middle" x="937" y="-8" font-family="FreeSans" font-size="10.00">stdint.h</text>
</g>
<!-- Node2&#45;&gt;Node12 -->
<g id="edge22" class="edge"><title>Node2&#45;&gt;Node12</title>
<path fill="none" stroke="midnightblue" d="M763.576,-60.8987C796.689,-52.511 849.654,-38.6757 903.574,-22.3206"/>
<polygon fill="midnightblue" stroke="midnightblue" points="904.754,-25.62 913.292,-19.3481 902.706,-18.9261 904.754,-25.62"/>
</g>
<!-- Node13&#45;&gt;Node14 -->
<g id="edge26" class="edge"><title>Node13&#45;&gt;Node14</title>
<path fill="none" stroke="midnightblue" d="M146,-464.897C146,-457.339 146,-446.748 146,-437.446"/>
<polygon fill="midnightblue" stroke="midnightblue" points="149.5,-437.378 146,-427.378 142.5,-437.378 149.5,-437.378"/>
</g>
<!-- Node14&#45;&gt;Node2 -->
<g id="edge28" class="edge"><title>Node14&#45;&gt;Node2</title>
<path fill="none" stroke="midnightblue" d="M142.901,-406.87C137.06,-386.848 125,-340.705 125,-301 125,-301 125,-301 125,-185 125,-91.8096 232.159,-136.792 323,-116 453.837,-86.0537 612.864,-74.7349 687.88,-70.8411"/>
<polygon fill="midnightblue" stroke="midnightblue" points="688.513,-74.314 698.325,-70.3192 688.163,-67.3227 688.513,-74.314"/>
</g>
<!-- Node14&#45;&gt;Node15 -->
<g id="edge30" class="edge"><title>Node14&#45;&gt;Node15</title>
<path fill="none" stroke="midnightblue" d="M149.95,-406.893C160.889,-378.903 191.725,-299.999 206.249,-262.832"/>
<polygon fill="midnightblue" stroke="midnightblue" points="209.659,-263.723 210.039,-253.135 203.139,-261.175 209.659,-263.723"/>
</g>
<!-- Node14&#45;&gt;Node16 -->
<g id="edge34" class="edge"><title>Node14&#45;&gt;Node16</title>
<path fill="none" stroke="midnightblue" d="M205.88,-409.178C297.853,-397.163 471.454,-374.486 549.819,-364.249"/>
<polygon fill="midnightblue" stroke="midnightblue" points="550.32,-367.713 559.782,-362.947 549.413,-360.772 550.32,-367.713"/>
</g>
<!-- Node15&#45;&gt;Node2 -->
<g id="edge32" class="edge"><title>Node15&#45;&gt;Node2</title>
<path fill="none" stroke="midnightblue" d="M222.168,-232.882C242.87,-208.047 300.299,-144.063 364,-116 421.289,-90.7616 604.091,-76.7093 688.069,-71.4401"/>
<polygon fill="midnightblue" stroke="midnightblue" points="688.518,-74.9192 698.284,-70.812 688.088,-67.9324 688.518,-74.9192"/>
</g>
<!-- Node16&#45;&gt;Node2 -->
<g id="edge36" class="edge"><title>Node16&#45;&gt;Node2</title>
<path fill="none" stroke="midnightblue" d="M589.819,-348.87C589.724,-312.261 594.345,-185.337 660,-116 672.09,-103.233 688.272,-92.183 702.135,-84.0112"/>
<polygon fill="midnightblue" stroke="midnightblue" points="703.874,-87.0483 710.843,-79.0676 700.419,-80.9608 703.874,-87.0483"/>
</g>
<!-- Node16&#45;&gt;Node17 -->
<g id="edge38" class="edge"><title>Node16&#45;&gt;Node17</title>
<path fill="none" stroke="midnightblue" d="M564.046,-348.897C539.764,-339.445 503.294,-325.249 476.358,-314.764"/>
<polygon fill="midnightblue" stroke="midnightblue" points="477.494,-311.45 466.906,-311.084 474.955,-317.973 477.494,-311.45"/>
</g>
<!-- Node16&#45;&gt;Node18 -->
<g id="edge84" class="edge"><title>Node16&#45;&gt;Node18</title>
<path fill="none" stroke="midnightblue" d="M602.158,-348.706C625.88,-328.62 678.526,-284.043 707.294,-259.685"/>
<polygon fill="midnightblue" stroke="midnightblue" points="709.695,-262.239 715.065,-253.106 705.172,-256.896 709.695,-262.239"/>
</g>
<!-- Node16&#45;&gt;Node20 -->
<g id="edge76" class="edge"><title>Node16&#45;&gt;Node20</title>
<path fill="none" stroke="midnightblue" d="M597.624,-348.614C607.646,-335.023 625.874,-310.522 642,-290 666.44,-258.898 695.808,-223.436 713.131,-202.706"/>
<polygon fill="midnightblue" stroke="midnightblue" points="715.825,-204.94 719.561,-195.026 710.457,-200.446 715.825,-204.94"/>
</g>
<!-- Node16&#45;&gt;Node22 -->
<g id="edge86" class="edge"><title>Node16&#45;&gt;Node22</title>
<path fill="none" stroke="midnightblue" d="M585.918,-348.706C578.26,-329.396 561.627,-287.451 551.771,-262.596"/>
<polygon fill="midnightblue" stroke="midnightblue" points="554.947,-261.111 548.007,-253.106 548.44,-263.692 554.947,-261.111"/>
</g>
<!-- Node16&#45;&gt;Node24 -->
<g id="edge78" class="edge"><title>Node16&#45;&gt;Node24</title>
<path fill="none" stroke="midnightblue" d="M559.907,-354.586C510.652,-346.943 415.446,-330.3 387,-312 367.853,-299.683 352.881,-277.952 343.804,-262.162"/>
<polygon fill="midnightblue" stroke="midnightblue" points="346.794,-260.334 338.93,-253.235 340.65,-263.689 346.794,-260.334"/>
</g>
<!-- Node16&#45;&gt;Node26 -->
<g id="edge80" class="edge"><title>Node16&#45;&gt;Node26</title>
<path fill="none" stroke="midnightblue" d="M620.185,-354.545C682.081,-345.41 824.844,-324.341 911.694,-311.524"/>
<polygon fill="midnightblue" stroke="midnightblue" points="912.357,-314.964 921.739,-310.041 911.335,-308.039 912.357,-314.964"/>
</g>
<!-- Node17&#45;&gt;Node2 -->
<g id="edge40" class="edge"><title>Node17&#45;&gt;Node2</title>
<path fill="none" stroke="midnightblue" d="M439.469,-290.574C437.896,-276.512 436.815,-251.039 446,-232 479.076,-163.444 505.783,-153.541 572,-116 608.536,-95.2864 655.074,-82.9167 688.345,-76.1083"/>
<polygon fill="midnightblue" stroke="midnightblue" points="689.08,-79.5309 698.219,-74.1708 687.732,-72.6619 689.08,-79.5309"/>
</g>
<!-- Node17&#45;&gt;Node15 -->
<g id="edge42" class="edge"><title>Node17&#45;&gt;Node15</title>
<path fill="none" stroke="midnightblue" d="M401.719,-290.963C363.268,-281.139 304.579,-266.144 263.075,-255.539"/>
<polygon fill="midnightblue" stroke="midnightblue" points="263.735,-252.095 253.18,-253.011 262.002,-258.877 263.735,-252.095"/>
</g>
<!-- Node17&#45;&gt;Node18 -->
<g id="edge44" class="edge"><title>Node17&#45;&gt;Node18</title>
<path fill="none" stroke="midnightblue" d="M486.002,-291.874C542.809,-280.353 639.371,-260.771 691.349,-250.23"/>
<polygon fill="midnightblue" stroke="midnightblue" points="692.325,-253.603 701.43,-248.186 690.934,-246.743 692.325,-253.603"/>
</g>
<!-- Node17&#45;&gt;Node19 -->
<g id="edge64" class="edge"><title>Node17&#45;&gt;Node19</title>
<path fill="none" stroke="midnightblue" d="M446.062,-290.996C454.502,-275.467 473.02,-245.905 498,-232 598.639,-175.978 643.146,-215.5 760.811,-195.992"/>
<polygon fill="midnightblue" stroke="midnightblue" points="761.674,-199.393 770.911,-194.203 760.453,-192.501 761.674,-199.393"/>
</g>
<!-- Node17&#45;&gt;Node22 -->
<g id="edge56" class="edge"><title>Node17&#45;&gt;Node22</title>
<path fill="none" stroke="midnightblue" d="M458.941,-290.897C475.015,-281.846 498.815,-268.444 517.154,-258.117"/>
<polygon fill="midnightblue" stroke="midnightblue" points="518.923,-261.138 525.919,-253.182 515.488,-255.039 518.923,-261.138"/>
</g>
<!-- Node17&#45;&gt;Node23 -->
<g id="edge60" class="edge"><title>Node17&#45;&gt;Node23</title>
<path fill="none" stroke="midnightblue" d="M486.058,-300.206C595.866,-297.77 885.821,-288.335 1125,-254 1128.4,-253.512 1131.92,-252.92 1135.43,-252.267"/>
<polygon fill="midnightblue" stroke="midnightblue" points="1136.14,-255.696 1145.26,-250.3 1134.76,-248.832 1136.14,-255.696"/>
</g>
<!-- Node17&#45;&gt;Node24 -->
<g id="edge66" class="edge"><title>Node17&#45;&gt;Node24</title>
<path fill="none" stroke="midnightblue" d="M422.362,-290.897C405.588,-281.804 380.714,-268.322 361.628,-257.976"/>
<polygon fill="midnightblue" stroke="midnightblue" points="363.243,-254.87 352.783,-253.182 359.907,-261.024 363.243,-254.87"/>
</g>
<!-- Node17&#45;&gt;Node25 -->
<g id="edge70" class="edge"><title>Node17&#45;&gt;Node25</title>
<path fill="none" stroke="midnightblue" d="M441.569,-290.923C442.981,-275.837 447.896,-247.501 465,-232 488.126,-211.041 574.47,-196.39 624.164,-189.489"/>
<polygon fill="midnightblue" stroke="midnightblue" points="624.735,-192.943 634.176,-188.134 623.797,-186.007 624.735,-192.943"/>
</g>
<!-- Node18&#45;&gt;Node19 -->
<g id="edge46" class="edge"><title>Node18&#45;&gt;Node19</title>
<path fill="none" stroke="midnightblue" d="M741.109,-232.897C753.346,-224.135 771.276,-211.297 785.493,-201.116"/>
<polygon fill="midnightblue" stroke="midnightblue" points="787.688,-203.849 793.781,-195.182 783.613,-198.158 787.688,-203.849"/>
</g>
<!-- Node18&#45;&gt;Node20 -->
<g id="edge50" class="edge"><title>Node18&#45;&gt;Node20</title>
<path fill="none" stroke="midnightblue" d="M727.174,-232.897C727.304,-225.339 727.487,-214.748 727.647,-205.446"/>
<polygon fill="midnightblue" stroke="midnightblue" points="731.148,-205.436 727.821,-195.378 724.149,-205.316 731.148,-205.436"/>
</g>
<!-- Node19&#45;&gt;Node2 -->
<g id="edge48" class="edge"><title>Node19&#45;&gt;Node2</title>
<path fill="none" stroke="midnightblue" d="M807.155,-174.841C805.563,-160.638 801.106,-134.509 789,-116 780.859,-103.554 768.363,-92.8221 757.052,-84.7686"/>
<polygon fill="midnightblue" stroke="midnightblue" points="758.971,-81.8417 748.725,-79.1481 755.055,-87.6437 758.971,-81.8417"/>
</g>
<!-- Node20&#45;&gt;Node21 -->
<g id="edge52" class="edge"><title>Node20&#45;&gt;Node21</title>
<path fill="none" stroke="midnightblue" d="M728.523,-174.897C728.913,-167.339 729.461,-156.748 729.942,-147.446"/>
<polygon fill="midnightblue" stroke="midnightblue" points="733.442,-147.545 730.463,-137.378 726.451,-147.183 733.442,-147.545"/>
</g>
<!-- Node21&#45;&gt;Node2 -->
<g id="edge54" class="edge"><title>Node21&#45;&gt;Node2</title>
<path fill="none" stroke="midnightblue" d="M731,-116.897C731,-109.339 731,-98.7476 731,-89.4458"/>
<polygon fill="midnightblue" stroke="midnightblue" points="734.5,-89.3776 731,-79.3776 727.5,-89.3776 734.5,-89.3776"/>
</g>
<!-- Node22&#45;&gt;Node2 -->
<g id="edge58" class="edge"><title>Node22&#45;&gt;Node2</title>
<path fill="none" stroke="midnightblue" d="M545.026,-232.846C547.969,-209.026 558.576,-149.075 593,-116 618.795,-91.2161 658.171,-79.4723 688.269,-73.9242"/>
<polygon fill="midnightblue" stroke="midnightblue" points="689.208,-77.3157 698.491,-72.209 688.05,-70.4122 689.208,-77.3157"/>
</g>
<!-- Node23&#45;&gt;Node2 -->
<g id="edge62" class="edge"><title>Node23&#45;&gt;Node2</title>
<path fill="none" stroke="midnightblue" d="M1171.9,-232.596C1167.16,-218.1 1156.95,-191.626 1141,-174 1108.32,-137.88 1093.72,-132.814 1048,-116 998.44,-97.7737 848.087,-80.7356 773.664,-73.1447"/>
<polygon fill="midnightblue" stroke="midnightblue" points="773.986,-69.6595 763.685,-72.1371 773.283,-76.6241 773.986,-69.6595"/>
</g>
<!-- Node24&#45;&gt;Node2 -->
<g id="edge68" class="edge"><title>Node24&#45;&gt;Node2</title>
<path fill="none" stroke="midnightblue" d="M335.101,-232.716C338.33,-208.069 350.151,-145.493 389,-116 435.198,-80.9278 607.049,-72.0225 688.132,-69.7648"/>
<polygon fill="midnightblue" stroke="midnightblue" points="688.578,-73.2546 698.485,-69.4992 688.399,-66.2569 688.578,-73.2546"/>
</g>
<!-- Node25&#45;&gt;Node2 -->
<g id="edge72" class="edge"><title>Node25&#45;&gt;Node2</title>
<path fill="none" stroke="midnightblue" d="M659.789,-174.876C659.94,-160.713 661.881,-134.633 673,-116 680.568,-103.317 692.891,-92.613 704.235,-84.6387"/>
<polygon fill="midnightblue" stroke="midnightblue" points="706.219,-87.5234 712.625,-79.0852 702.355,-81.6862 706.219,-87.5234"/>
</g>
<!-- Node25&#45;&gt;Node21 -->
<g id="edge74" class="edge"><title>Node25&#45;&gt;Node21</title>
<path fill="none" stroke="midnightblue" d="M672.367,-174.897C682.826,-166.353 698.03,-153.933 710.335,-143.881"/>
<polygon fill="midnightblue" stroke="midnightblue" points="712.766,-146.415 718.296,-137.378 708.338,-140.994 712.766,-146.415"/>
</g>
<!-- Node26&#45;&gt;Node2 -->
<g id="edge82" class="edge"><title>Node26&#45;&gt;Node2</title>
<path fill="none" stroke="midnightblue" d="M984.409,-290.873C988.102,-259.899 994.661,-165.536 946,-116 922.418,-91.994 829.497,-78.7718 773.823,-72.8589"/>
<polygon fill="midnightblue" stroke="midnightblue" points="773.856,-69.344 763.551,-71.8058 773.142,-76.3075 773.856,-69.344"/>
</g>
<!-- Node27&#45;&gt;Node2 -->
<g id="edge102" class="edge"><title>Node27&#45;&gt;Node2</title>
<path fill="none" stroke="midnightblue" d="M736.249,-406.943C767.669,-377.998 856.076,-290.495 887,-196 898.059,-162.208 908.207,-144.538 887,-116 873.362,-97.6477 814.733,-83.7306 773.378,-75.9661"/>
<polygon fill="midnightblue" stroke="midnightblue" points="774.002,-72.5221 763.536,-74.172 772.746,-79.4087 774.002,-72.5221"/>
</g>
<!-- Node27&#45;&gt;Node16 -->
<g id="edge104" class="edge"><title>Node27&#45;&gt;Node16</title>
<path fill="none" stroke="midnightblue" d="M701.485,-406.897C679.744,-397.556 647.219,-383.583 622.904,-373.136"/>
<polygon fill="midnightblue" stroke="midnightblue" points="624.268,-369.913 613.699,-369.182 621.505,-376.345 624.268,-369.913"/>
</g>
<!-- Node27&#45;&gt;Node22 -->
<g id="edge106" class="edge"><title>Node27&#45;&gt;Node22</title>
<path fill="none" stroke="midnightblue" d="M714.486,-406.893C684.745,-378.302 599.745,-296.589 562.202,-260.498"/>
<polygon fill="midnightblue" stroke="midnightblue" points="564.177,-257.542 554.543,-253.135 559.326,-262.588 564.177,-257.542"/>
</g>
<!-- Node29&#45;&gt;Node2 -->
<g id="edge112" class="edge"><title>Node29&#45;&gt;Node2</title>
<path fill="none" stroke="midnightblue" d="M1083.88,-232.916C1072.06,-204.219 1038.24,-123.678 1028,-116 988.633,-86.4938 846.24,-74.9584 773.867,-70.9261"/>
<polygon fill="midnightblue" stroke="midnightblue" points="773.89,-67.4225 763.718,-70.3844 773.517,-74.4125 773.89,-67.4225"/>
</g>
<!-- Node29&#45;&gt;Node19 -->
<g id="edge114" class="edge"><title>Node29&#45;&gt;Node19</title>
<path fill="none" stroke="midnightblue" d="M1059.35,-237.066C1011.23,-227.097 913.706,-206.896 855.294,-194.797"/>
<polygon fill="midnightblue" stroke="midnightblue" points="855.717,-191.31 845.215,-192.709 854.297,-198.164 855.717,-191.31"/>
</g>
<!-- Node30 -->
<g id="node88" class="node"><title>Node30</title>
<polygon fill="white" stroke="#bfbfbf" points="1079.5,-175 1079.5,-195 1132.5,-195 1132.5,-175 1079.5,-175"/>
<text text-anchor="middle" x="1106" y="-182" font-family="FreeSans" font-size="10.00">iostream</text>
</g>
<!-- Node29&#45;&gt;Node30 -->
<g id="edge116" class="edge"><title>Node29&#45;&gt;Node30</title>
<path fill="none" stroke="midnightblue" d="M1091.14,-232.897C1093.51,-225.257 1096.84,-214.517 1099.75,-205.143"/>
<polygon fill="midnightblue" stroke="midnightblue" points="1103.16,-205.966 1102.78,-195.378 1096.47,-203.891 1103.16,-205.966"/>
</g>
<!-- Node31&#45;&gt;Node2 -->
<g id="edge120" class="edge"><title>Node31&#45;&gt;Node2</title>
<path fill="none" stroke="midnightblue" d="M629.538,-406.934C678.61,-380.391 806.502,-303.106 854,-196 876.142,-146.071 808.075,-104.192 764.508,-83.2955"/>
<polygon fill="midnightblue" stroke="midnightblue" points="765.902,-80.0839 755.359,-79.0397 762.95,-86.4308 765.902,-80.0839"/>
</g>
<!-- Node31&#45;&gt;Node15 -->
<g id="edge122" class="edge"><title>Node31&#45;&gt;Node15</title>
<path fill="none" stroke="midnightblue" d="M585.006,-406.927C539.83,-388.626 441.686,-348.436 360,-312 319.514,-293.941 273.34,-271.866 243.951,-257.626"/>
<polygon fill="midnightblue" stroke="midnightblue" points="245.185,-254.335 234.66,-253.115 242.127,-260.632 245.185,-254.335"/>
</g>
<!-- Node31&#45;&gt;Node16 -->
<g id="edge124" class="edge"><title>Node31&#45;&gt;Node16</title>
<path fill="none" stroke="midnightblue" d="M606.516,-406.897C603.853,-399.175 600.099,-388.286 596.842,-378.841"/>
<polygon fill="midnightblue" stroke="midnightblue" points="600.147,-377.69 593.578,-369.378 593.53,-379.972 600.147,-377.69"/>
</g>
<!-- Node32&#45;&gt;Node2 -->
<g id="edge130" class="edge"><title>Node32&#45;&gt;Node2</title>
<path fill="none" stroke="midnightblue" d="M1262.85,-464.759C1262.57,-444.541 1262,-398.071 1262,-359 1262,-359 1262,-359 1262,-185 1262,-101.395 1167.93,-136.961 1087,-116 976.438,-87.3661 841.804,-75.6449 774.172,-71.294"/>
<polygon fill="midnightblue" stroke="midnightblue" points="774.104,-67.7832 763.906,-70.6576 773.671,-74.7698 774.104,-67.7832"/>
</g>
<!-- Node32&#45;&gt;Node23 -->
<g id="edge134" class="edge"><title>Node32&#45;&gt;Node23</title>
<path fill="none" stroke="midnightblue" d="M1259.78,-464.86C1249.08,-431.209 1214.49,-323.472 1200,-290 1195.94,-280.612 1190.71,-270.556 1186.09,-262.164"/>
<polygon fill="midnightblue" stroke="midnightblue" points="1189.01,-260.211 1181.05,-253.218 1182.91,-263.648 1189.01,-260.211"/>
</g>
<!-- Node32&#45;&gt;Node28 -->
<g id="edge132" class="edge"><title>Node32&#45;&gt;Node28</title>
<path fill="none" stroke="midnightblue" d="M1273.45,-464.897C1282.12,-456.517 1294.65,-444.409 1304.93,-434.464"/>
<polygon fill="midnightblue" stroke="midnightblue" points="1307.51,-436.844 1312.26,-427.378 1302.64,-431.811 1307.51,-436.844"/>
</g>
</g>
</svg>
