<?xml version="1.0" encoding="UTF-8" standalone="no"?>
<!DOCTYPE svg PUBLIC "-//W3C//DTD SVG 1.1//EN"
 "http://www.w3.org/Graphics/SVG/1.1/DTD/svg11.dtd">
<!-- Generated by graphviz version 2.26.3 (20100126.1600)
 -->
<!-- Title: G Pages: 1 -->
<!--zoomable 512 -->
<svg id="main" version="1.1" xmlns="http://www.w3.org/2000/svg" xmlns:xlink="http://www.w3.org/1999/xlink" xml:space="preserve" onload="init(evt)">
        <defs>
                <circle id="rim" cx="0" cy="0" r="7"/>
                <circle id="rim2" cx="0" cy="0" r="3.5"/>
                <g id="zoomPlus">
                        <use xlink:href="#rim" fill="#404040">
                                <set attributeName="fill" to="#808080" begin="zoomplus.mouseover" end="zoomplus.mouseout"/>
                        </use>
                        <path d="M-4,0h8M0,-4v8" fill="none" stroke="white" stroke-width="1.5" pointer-events="none"/>
                </g>
                <g id="zoomMin">
                        <use xlink:href="#rim" fill="#404040">
                                <set attributeName="fill" to="#808080" begin="zoomminus.mouseover" end="zoomminus.mouseout"/>
                        </use>
                        <path d="M-4,0h8" fill="none" stroke="white" stroke-width="1.5" pointer-events="none"/>
                </g>
                <g id="dirArrow">
                        <path fill="none" stroke="white" stroke-width="1.5" d="M0,-3.0v7 M-2.5,-0.5L0,-3.0L2.5,-0.5"/>
                </g>
               <g id="resetDef">
                       <use xlink:href="#rim2" fill="#404040">
                               <set attributeName="fill" to="#808080" begin="reset.mouseover" end="reset.mouseout"/>
                       </use>
               </g>
        </defs>

<script type="text/javascript">
var viewWidth = 1067;
var viewHeight = 512;
var sectionId = 'dynsection-0';
</script>
<script xlink:href="svgpan.js"/>
<svg id="graph" class="graph">
<g id="viewport">
<title>G</title>
<polygon fill="white" stroke="white" points="-4,5 -4,-508 1063.59,-508 1063.59,5 -4,5"/>
<!-- Node1 -->
<g id="node1" class="node"><title>Node1</title>
<polygon fill="#bfbfbf" stroke="black" points="449,-481 449,-503 561,-503 561,-481 449,-481"/>
<text text-anchor="middle" x="505" y="-490" font-family="FreeSans" font-size="10.00">dagframescheduler.h</text>
</g>
<!-- Node2 -->
<g id="node3" class="node"><title>Node2</title>
<a xlink:href="asynchronousworkunit_8h.html" target="_top" xlink:title="Contains an interface for a kind of WorkUnit that.">
<polygon fill="white" stroke="black" points="399.5,-421 399.5,-443 522.5,-443 522.5,-421 399.5,-421"/>
<text text-anchor="middle" x="461" y="-430" font-family="FreeSans" font-size="10.00">asynchronousworkunit.h</text>
</a>
</g>
<!-- Node1&#45;&gt;Node2 -->
<g id="edge2" class="edge"><title>Node1&#45;&gt;Node2</title>
<path fill="none" stroke="midnightblue" d="M496.93,-480.995C490.927,-472.81 482.575,-461.42 475.434,-451.682"/>
<polygon fill="midnightblue" stroke="midnightblue" points="478.054,-449.337 469.318,-443.343 472.409,-453.477 478.054,-449.337"/>
</g>
<!-- Node3 -->
<g id="node5" class="node"><title>Node3</title>
<a xlink:href="datatypes_8h.html" target="_top" xlink:title="This file declares a few typedefs to allow flexibility, in case a change is required/desired.">
<polygon fill="white" stroke="black" points="422,-121 422,-143 490,-143 490,-121 422,-121"/>
<text text-anchor="middle" x="456" y="-130" font-family="FreeSans" font-size="10.00">datatypes.h</text>
</a>
</g>
<!-- Node1&#45;&gt;Node3 -->
<g id="edge86" class="edge"><title>Node1&#45;&gt;Node3</title>
<path fill="none" stroke="midnightblue" d="M561.354,-483.418C655.606,-467.461 835,-429.533 835,-372 835,-372 835,-372 835,-252 835,-210.628 811.973,-200.435 776,-180 729.756,-153.731 576.864,-140.062 500.38,-134.725"/>
<polygon fill="midnightblue" stroke="midnightblue" points="500.329,-131.214 490.114,-134.027 499.854,-138.198 500.329,-131.214"/>
</g>
<!-- Node4 -->
<g id="node7" class="node"><title>Node4</title>
<a xlink:href="compilerthreadcompat_8h.html" target="_top" xlink:title="This file determines what features are offered by the compiler that this library can take advantage o...">
<polygon fill="white" stroke="black" points="102,-61 102,-83 226,-83 226,-61 102,-61"/>
<text text-anchor="middle" x="164" y="-70" font-family="FreeSans" font-size="10.00">compilerthreadcompat.h</text>
</a>
</g>
<!-- Node1&#45;&gt;Node4 -->
<g id="edge84" class="edge"><title>Node1&#45;&gt;Node4</title>
<path fill="none" stroke="midnightblue" d="M448.724,-490.243C347.477,-486.345 139.098,-474.751 74,-444 32.5086,-424.4 0,-417.888 0,-372 0,-372 0,-372 0,-192 0,-135.724 63.6713,-102.989 111.668,-86.3076"/>
<polygon fill="midnightblue" stroke="midnightblue" points="112.958,-89.5672 121.339,-83.086 110.745,-82.926 112.958,-89.5672"/>
</g>
<!-- Node11 -->
<g id="node21" class="node"><title>Node11</title>
<a xlink:href="workunit_8h.html" target="_top" xlink:title="This file has the defintion of the workunit.">
<polygon fill="white" stroke="black" points="477.5,-361 477.5,-383 538.5,-383 538.5,-361 477.5,-361"/>
<text text-anchor="middle" x="508" y="-370" font-family="FreeSans" font-size="10.00">workunit.h</text>
</a>
</g>
<!-- Node1&#45;&gt;Node11 -->
<g id="edge116" class="edge"><title>Node1&#45;&gt;Node11</title>
<path fill="none" stroke="midnightblue" d="M513.138,-480.839C519.403,-471.515 527.554,-457.597 531,-444 535.505,-426.224 528.238,-406.399 520.708,-392.06"/>
<polygon fill="midnightblue" stroke="midnightblue" points="523.592,-390.052 515.595,-383.102 517.512,-393.522 523.592,-390.052"/>
</g>
<!-- Node12 -->
<g id="node24" class="node"><title>Node12</title>
<a xlink:href="framescheduler_8h.html" target="_top" xlink:title="This file has the Declarations for the main FrameScheduler class.">
<polygon fill="white" stroke="black" points="514,-301 514,-323 608,-323 608,-301 514,-301"/>
<text text-anchor="middle" x="561" y="-310" font-family="FreeSans" font-size="10.00">framescheduler.h</text>
</a>
</g>
<!-- Node1&#45;&gt;Node12 -->
<g id="edge90" class="edge"><title>Node1&#45;&gt;Node12</title>
<path fill="none" stroke="midnightblue" d="M517.713,-480.711C526.925,-471.735 538.807,-458.34 545,-444 560.777,-407.469 562.561,-360.287 562.044,-333.36"/>
<polygon fill="midnightblue" stroke="midnightblue" points="565.535,-333.032 561.715,-323.149 558.539,-333.257 565.535,-333.032"/>
</g>
<!-- Node13 -->
<g id="node27" class="node"><title>Node13</title>
<a xlink:href="thread_8h.html" target="_top" xlink:title="This file defines a minimalistic cross&#45;platform thread that the scheduler uses to schedule tasks...">
<polygon fill="white" stroke="black" points="280.5,-241 280.5,-263 333.5,-263 333.5,-241 280.5,-241"/>
<text text-anchor="middle" x="307" y="-250" font-family="FreeSans" font-size="10.00">thread.h</text>
</a>
</g>
<!-- Node1&#45;&gt;Node13 -->
<g id="edge112" class="edge"><title>Node1&#45;&gt;Node13</title>
<path fill="none" stroke="midnightblue" d="M454.36,-480.917C417.384,-471.85 371.465,-458.241 358,-444 312.71,-396.101 306.619,-312.699 306.44,-273.509"/>
<polygon fill="midnightblue" stroke="midnightblue" points="309.942,-273.302 306.528,-263.272 302.943,-273.242 309.942,-273.302"/>
</g>
<!-- Node14 -->
<g id="node30" class="node"><title>Node14</title>
<a xlink:href="systemcalls_8h.html" target="_top" xlink:title="This file defines a minimalistic cross&#45;platform thread that the scheduler uses to schedule tasks...">
<polygon fill="white" stroke="black" points="332.5,-181 332.5,-203 409.5,-203 409.5,-181 332.5,-181"/>
<text text-anchor="middle" x="371" y="-190" font-family="FreeSans" font-size="10.00">systemcalls.h</text>
</a>
</g>
<!-- Node1&#45;&gt;Node14 -->
<g id="edge110" class="edge"><title>Node1&#45;&gt;Node14</title>
<path fill="none" stroke="midnightblue" d="M448.963,-481.463C427.411,-474.49 404.709,-462.972 391,-444 339.718,-373.031 356.219,-259.628 366,-213.032"/>
<polygon fill="midnightblue" stroke="midnightblue" points="369.439,-213.69 368.184,-203.17 362.604,-212.176 369.439,-213.69"/>
</g>
<!-- Node15 -->
<g id="node33" class="node"><title>Node15</title>
<a xlink:href="mutex_8h.html" target="_top" xlink:title="This file declares and defines a mutex that is a partial implementation.">
<polygon fill="white" stroke="black" points="80.5,-181 80.5,-203 131.5,-203 131.5,-181 80.5,-181"/>
<text text-anchor="middle" x="106" y="-190" font-family="FreeSans" font-size="10.00">mutex.h</text>
</a>
</g>
<!-- Node1&#45;&gt;Node15 -->
<g id="edge106" class="edge"><title>Node1&#45;&gt;Node15</title>
<path fill="none" stroke="midnightblue" d="M448.669,-489.358C324.461,-481.996 38,-455.92 38,-372 38,-372 38,-372 38,-312 38,-271.693 67.3997,-232.51 87.5366,-210.4"/>
<polygon fill="midnightblue" stroke="midnightblue" points="90.1484,-212.732 94.4647,-203.056 85.0566,-207.929 90.1484,-212.732"/>
</g>
<!-- Node18 -->
<g id="node41" class="node"><title>Node18</title>
<a xlink:href="doublebufferedresource_8h.html" target="_top" xlink:title="This file defines the template double buffered resources that can be attached to a thread...">
<polygon fill="white" stroke="black" points="862.5,-241 862.5,-263 993.5,-263 993.5,-241 862.5,-241"/>
<text text-anchor="middle" x="928" y="-250" font-family="FreeSans" font-size="10.00">doublebufferedresource.h</text>
</a>
</g>
<!-- Node1&#45;&gt;Node18 -->
<g id="edge88" class="edge"><title>Node1&#45;&gt;Node18</title>
<path fill="none" stroke="midnightblue" d="M561.273,-490.8C647.059,-487.891 805.218,-477.948 849,-444 903.938,-401.402 920.937,-314.012 925.98,-273.499"/>
<polygon fill="midnightblue" stroke="midnightblue" points="929.477,-273.718 927.107,-263.392 922.52,-272.943 929.477,-273.718"/>
</g>
<!-- Node21 -->
<g id="node49" class="node"><title>Node21</title>
<a xlink:href="workunitkey_8h.html" target="_top" xlink:title="This file defines the metadata used to sort workunits.">
<polygon fill="white" stroke="black" points="186.5,-241 186.5,-263 263.5,-263 263.5,-241 186.5,-241"/>
<text text-anchor="middle" x="225" y="-250" font-family="FreeSans" font-size="10.00">workunitkey.h</text>
</a>
</g>
<!-- Node1&#45;&gt;Node21 -->
<g id="edge118" class="edge"><title>Node1&#45;&gt;Node21</title>
<path fill="none" stroke="midnightblue" d="M448.901,-485.076C385.845,-476.626 287.968,-461.307 255,-444 187.659,-408.649 162.395,-394.146 133,-324 128.877,-314.162 127.471,-309.122 133,-300 142.771,-283.882 159.922,-272.921 176.788,-265.594"/>
<polygon fill="midnightblue" stroke="midnightblue" points="178.089,-268.843 186.081,-261.888 175.496,-262.341 178.089,-268.843"/>
</g>
<!-- Node25 -->
<g id="node60" class="node"><title>Node25</title>
<a xlink:href="rollingaverage_8h.html" target="_top" xlink:title="This Store the implementation and the declaration of the RollingAverage, BufferedRollingAverage, WeightedRollingAverage and the DefaultRollingAverage.">
<polygon fill="white" stroke="black" points="680.5,-301 680.5,-323 769.5,-323 769.5,-301 680.5,-301"/>
<text text-anchor="middle" x="725" y="-310" font-family="FreeSans" font-size="10.00">rollingaverage.h</text>
</a>
</g>
<!-- Node1&#45;&gt;Node25 -->
<g id="edge108" class="edge"><title>Node1&#45;&gt;Node25</title>
<path fill="none" stroke="midnightblue" d="M561.131,-484.154C609.603,-476.251 674.652,-462.572 693,-444 722.261,-414.382 726.381,-362.829 726.121,-333.687"/>
<polygon fill="midnightblue" stroke="midnightblue" points="729.611,-333.268 725.834,-323.37 722.613,-333.463 729.611,-333.268"/>
</g>
<!-- Node26 -->
<g id="node64" class="node"><title>Node26</title>
<a xlink:href="threadingenumerations_8h.html" target="_top" xlink:title="Any enumerations the threading library requires are all declared here.">
<polygon fill="white" stroke="black" points="141.5,-301 141.5,-323 268.5,-323 268.5,-301 141.5,-301"/>
<text text-anchor="middle" x="205" y="-310" font-family="FreeSans" font-size="10.00">threadingenumerations.h</text>
</a>
</g>
<!-- Node1&#45;&gt;Node26 -->
<g id="edge114" class="edge"><title>Node1&#45;&gt;Node26</title>
<path fill="none" stroke="midnightblue" d="M448.962,-485.172C391.903,-477.313 308.21,-463.004 282,-444 243.55,-416.12 221.222,-362.685 211.27,-333.068"/>
<polygon fill="midnightblue" stroke="midnightblue" points="214.535,-331.786 208.157,-323.326 207.867,-333.917 214.535,-331.786"/>
</g>
<!-- Node27 -->
<g id="node73" class="node"><title>Node27</title>
<a xlink:href="frameschedulerworkunits_8h.html" target="_top" xlink:title="This defines a number of workunits that are required for doing some tasks that the Framescheduler req...">
<polygon fill="white" stroke="black" points="901,-421 901,-443 1037,-443 1037,-421 901,-421"/>
<text text-anchor="middle" x="969" y="-430" font-family="FreeSans" font-size="10.00">frameschedulerworkunits.h</text>
</a>
</g>
<!-- Node1&#45;&gt;Node27 -->
<g id="edge92" class="edge"><title>Node1&#45;&gt;Node27</title>
<path fill="none" stroke="midnightblue" d="M561.037,-485.32C635.534,-476.357 771.261,-459.739 887,-444 888.105,-443.85 889.218,-443.698 890.338,-443.544"/>
<polygon fill="midnightblue" stroke="midnightblue" points="891.136,-446.967 900.558,-442.122 890.171,-440.033 891.136,-446.967"/>
</g>
<!-- Node28 -->
<g id="node78" class="node"><title>Node28</title>
<a xlink:href="monopoly_8h.html" target="_top" xlink:title="Contains an interface for a kind of WorkUnit that consumes time on multiple thread.">
<polygon fill="white" stroke="black" points="616,-421 616,-443 684,-443 684,-421 616,-421"/>
<text text-anchor="middle" x="650" y="-430" font-family="FreeSans" font-size="10.00">monopoly.h</text>
</a>
</g>
<!-- Node1&#45;&gt;Node28 -->
<g id="edge100" class="edge"><title>Node1&#45;&gt;Node28</title>
<path fill="none" stroke="midnightblue" d="M531.595,-480.995C554.649,-471.456 588.223,-457.563 613.737,-447.005"/>
<polygon fill="midnightblue" stroke="midnightblue" points="615.18,-450.196 623.082,-443.138 612.504,-443.728 615.18,-450.196"/>
</g>
<!-- Node2&#45;&gt;Node3 -->
<g id="edge4" class="edge"><title>Node2&#45;&gt;Node3</title>
<path fill="none" stroke="midnightblue" d="M401.228,-420.941C315.601,-403.745 164.805,-367.957 133,-324 87.1754,-260.667 166.021,-218.598 234,-180 263.941,-163 356.337,-146.857 412.048,-138.313"/>
<polygon fill="midnightblue" stroke="midnightblue" points="412.636,-141.764 422,-136.807 411.589,-134.842 412.636,-141.764"/>
</g>
<!-- Node2&#45;&gt;Node11 -->
<g id="edge20" class="edge"><title>Node2&#45;&gt;Node11</title>
<path fill="none" stroke="midnightblue" d="M469.621,-420.995C476.098,-412.727 485.136,-401.188 492.815,-391.385"/>
<polygon fill="midnightblue" stroke="midnightblue" points="495.703,-393.373 499.115,-383.343 490.193,-389.057 495.703,-393.373"/>
</g>
<!-- Node3&#45;&gt;Node4 -->
<g id="edge6" class="edge"><title>Node3&#45;&gt;Node4</title>
<path fill="none" stroke="midnightblue" d="M421.932,-125C374.433,-115.24 287.43,-97.3622 227.707,-85.0905"/>
<polygon fill="midnightblue" stroke="midnightblue" points="228.129,-81.6041 217.629,-83.0197 226.72,-88.4609 228.129,-81.6041"/>
</g>
<!-- Node9 -->
<g id="node17" class="node"><title>Node9</title>
<polygon fill="white" stroke="#bfbfbf" points="338.5,-61 338.5,-83 379.5,-83 379.5,-61 338.5,-61"/>
<text text-anchor="middle" x="359" y="-70" font-family="FreeSans" font-size="10.00">string</text>
</g>
<!-- Node3&#45;&gt;Node9 -->
<g id="edge16" class="edge"><title>Node3&#45;&gt;Node9</title>
<path fill="none" stroke="midnightblue" d="M438.209,-120.995C423.534,-111.918 402.487,-98.899 385.776,-88.5627"/>
<polygon fill="midnightblue" stroke="midnightblue" points="387.353,-85.4223 377.007,-83.1383 383.67,-91.3755 387.353,-85.4223"/>
</g>
<!-- Node10 -->
<g id="node19" class="node"><title>Node10</title>
<polygon fill="white" stroke="#bfbfbf" points="432.5,-61 432.5,-83 479.5,-83 479.5,-61 432.5,-61"/>
<text text-anchor="middle" x="456" y="-70" font-family="FreeSans" font-size="10.00">stdint.h</text>
</g>
<!-- Node3&#45;&gt;Node10 -->
<g id="edge18" class="edge"><title>Node3&#45;&gt;Node10</title>
<path fill="none" stroke="midnightblue" d="M456,-120.995C456,-113.311 456,-102.803 456,-93.4884"/>
<polygon fill="midnightblue" stroke="midnightblue" points="459.5,-93.3428 456,-83.3428 452.5,-93.3429 459.5,-93.3428"/>
</g>
<!-- Node5 -->
<g id="node9" class="node"><title>Node5</title>
<polygon fill="white" stroke="#bfbfbf" points="29,-1 29,-23 87,-23 87,-1 29,-1"/>
<text text-anchor="middle" x="58" y="-10" font-family="FreeSans" font-size="10.00">pthread.h</text>
</g>
<!-- Node4&#45;&gt;Node5 -->
<g id="edge8" class="edge"><title>Node4&#45;&gt;Node5</title>
<path fill="none" stroke="midnightblue" d="M144.558,-60.9951C128.299,-51.7917 104.881,-38.5366 86.5027,-28.1336"/>
<polygon fill="midnightblue" stroke="midnightblue" points="88.1044,-25.0185 77.6777,-23.1383 84.6562,-31.1103 88.1044,-25.0185"/>
</g>
<!-- Node6 -->
<g id="node11" class="node"><title>Node6</title>
<polygon fill="white" stroke="#bfbfbf" points="104.5,-1 104.5,-23 155.5,-23 155.5,-1 104.5,-1"/>
<text text-anchor="middle" x="130" y="-10" font-family="FreeSans" font-size="10.00">signal.h</text>
</g>
<!-- Node4&#45;&gt;Node6 -->
<g id="edge10" class="edge"><title>Node4&#45;&gt;Node6</title>
<path fill="none" stroke="midnightblue" d="M157.764,-60.9951C153.22,-52.9771 146.934,-41.884 141.492,-32.2806"/>
<polygon fill="midnightblue" stroke="midnightblue" points="144.403,-30.3175 136.428,-23.3428 138.313,-33.7686 144.403,-30.3175"/>
</g>
<!-- Node7 -->
<g id="node13" class="node"><title>Node7</title>
<polygon fill="white" stroke="#bfbfbf" points="173,-1 173,-23 225,-23 225,-1 173,-1"/>
<text text-anchor="middle" x="199" y="-10" font-family="FreeSans" font-size="10.00">sched.h</text>
</g>
<!-- Node4&#45;&gt;Node7 -->
<g id="edge12" class="edge"><title>Node4&#45;&gt;Node7</title>
<path fill="none" stroke="midnightblue" d="M170.42,-60.9951C175.145,-52.8936 181.703,-41.6525 187.344,-31.981"/>
<polygon fill="midnightblue" stroke="midnightblue" points="190.368,-33.7442 192.383,-23.3428 184.321,-30.2171 190.368,-33.7442"/>
</g>
<!-- Node8 -->
<g id="node15" class="node"><title>Node8</title>
<polygon fill="white" stroke="#bfbfbf" points="243,-1 243,-23 293,-23 293,-1 243,-1"/>
<text text-anchor="middle" x="268" y="-10" font-family="FreeSans" font-size="10.00">unistd.h</text>
</g>
<!-- Node4&#45;&gt;Node8 -->
<g id="edge14" class="edge"><title>Node4&#45;&gt;Node8</title>
<path fill="none" stroke="midnightblue" d="M183.075,-60.9951C198.955,-51.8337 221.793,-38.6576 239.788,-28.2763"/>
<polygon fill="midnightblue" stroke="midnightblue" points="241.781,-31.1673 248.694,-23.1383 238.283,-25.104 241.781,-31.1673"/>
</g>
<!-- Node11&#45;&gt;Node3 -->
<g id="edge22" class="edge"><title>Node11&#45;&gt;Node3</title>
<path fill="none" stroke="midnightblue" d="M503.56,-360.831C493.225,-334.208 467.704,-264.7 458,-204 455.321,-187.241 454.92,-168.016 455.135,-153.649"/>
<polygon fill="midnightblue" stroke="midnightblue" points="458.643,-153.397 455.408,-143.309 451.646,-153.213 458.643,-153.397"/>
</g>
<!-- Node11&#45;&gt;Node12 -->
<g id="edge24" class="edge"><title>Node11&#45;&gt;Node12</title>
<path fill="none" stroke="midnightblue" d="M517.721,-360.995C525.099,-352.643 535.424,-340.954 544.139,-331.088"/>
<polygon fill="midnightblue" stroke="midnightblue" points="546.983,-333.155 550.98,-323.343 541.737,-328.52 546.983,-333.155"/>
</g>
<!-- Node11&#45;&gt;Node13 -->
<g id="edge78" class="edge"><title>Node11&#45;&gt;Node13</title>
<path fill="none" stroke="midnightblue" d="M497.48,-360.989C482.383,-345.68 453.165,-317.84 424,-300 398.598,-284.462 367.273,-271.915 343.43,-263.552"/>
<polygon fill="midnightblue" stroke="midnightblue" points="344.303,-260.151 333.709,-260.227 342.038,-266.775 344.303,-260.151"/>
</g>
<!-- Node11&#45;&gt;Node15 -->
<g id="edge68" class="edge"><title>Node11&#45;&gt;Node15</title>
<path fill="none" stroke="midnightblue" d="M477.49,-363.318C445.195,-354.018 392.802,-338.617 348,-324 338.479,-320.893 186.473,-269.34 178,-264 155.413,-249.765 134.417,-227.266 120.996,-211.209"/>
<polygon fill="midnightblue" stroke="midnightblue" points="123.382,-208.595 114.357,-203.044 117.95,-213.011 123.382,-208.595"/>
</g>
<!-- Node17 -->
<g id="node39" class="node"><title>Node17</title>
<polygon fill="white" stroke="#bfbfbf" points="674,-181 674,-203 718,-203 718,-181 674,-181"/>
<text text-anchor="middle" x="696" y="-190" font-family="FreeSans" font-size="10.00">vector</text>
</g>
<!-- Node11&#45;&gt;Node17 -->
<g id="edge82" class="edge"><title>Node11&#45;&gt;Node17</title>
<path fill="none" stroke="midnightblue" d="M538.833,-362.967C561.939,-355.173 593.488,-342.269 617,-324 654.753,-294.666 678.337,-241.81 689.107,-212.674"/>
<polygon fill="midnightblue" stroke="midnightblue" points="692.458,-213.694 692.497,-203.1 685.86,-211.357 692.458,-213.694"/>
</g>
<!-- Node11&#45;&gt;Node21 -->
<g id="edge80" class="edge"><title>Node11&#45;&gt;Node21</title>
<path fill="none" stroke="midnightblue" d="M484.311,-360.886C453.223,-346.405 396.87,-320.516 348,-300 320.136,-288.302 288.35,-275.923 264.072,-266.666"/>
<polygon fill="midnightblue" stroke="midnightblue" points="265.085,-263.307 254.494,-263.028 262.599,-269.851 265.085,-263.307"/>
</g>
<!-- Node11&#45;&gt;Node25 -->
<g id="edge70" class="edge"><title>Node11&#45;&gt;Node25</title>
<path fill="none" stroke="midnightblue" d="M538.631,-363.531C574.106,-353.722 633.056,-337.422 675.158,-325.781"/>
<polygon fill="midnightblue" stroke="midnightblue" points="676.232,-329.116 684.938,-323.077 674.367,-322.369 676.232,-329.116"/>
</g>
<!-- Node11&#45;&gt;Node26 -->
<g id="edge76" class="edge"><title>Node11&#45;&gt;Node26</title>
<path fill="none" stroke="midnightblue" d="M477.279,-365.917C429.08,-356.372 334.599,-337.663 270.623,-324.995"/>
<polygon fill="midnightblue" stroke="midnightblue" points="271.119,-321.525 260.629,-323.016 269.759,-328.392 271.119,-321.525"/>
</g>
<!-- Node12&#45;&gt;Node3 -->
<g id="edge26" class="edge"><title>Node12&#45;&gt;Node3</title>
<path fill="none" stroke="midnightblue" d="M538.356,-300.908C523.699,-292.635 505.306,-280.015 494,-264 470.066,-230.097 461.112,-181.29 457.831,-153.508"/>
<polygon fill="midnightblue" stroke="midnightblue" points="461.287,-152.902 456.774,-143.317 454.325,-153.624 461.287,-152.902"/>
</g>
<!-- Node12&#45;&gt;Node13 -->
<g id="edge28" class="edge"><title>Node12&#45;&gt;Node13</title>
<path fill="none" stroke="midnightblue" d="M514.412,-300.995C465.251,-289.382 388.781,-271.318 343.716,-260.673"/>
<polygon fill="midnightblue" stroke="midnightblue" points="344.321,-257.22 333.785,-258.327 342.712,-264.032 344.321,-257.22"/>
</g>
<!-- Node12&#45;&gt;Node14 -->
<g id="edge60" class="edge"><title>Node12&#45;&gt;Node14</title>
<path fill="none" stroke="midnightblue" d="M533.808,-300.95C513.184,-292.1 484.478,-278.757 461,-264 435.376,-247.895 408.614,-225.687 391.004,-210.21"/>
<polygon fill="midnightblue" stroke="midnightblue" points="392.935,-207.243 383.139,-203.209 388.281,-212.472 392.935,-207.243"/>
</g>
<!-- Node12&#45;&gt;Node18 -->
<g id="edge46" class="edge"><title>Node12&#45;&gt;Node18</title>
<path fill="none" stroke="midnightblue" d="M608.228,-304.279C669.984,-294.183 778.915,-276.373 852.266,-264.382"/>
<polygon fill="midnightblue" stroke="midnightblue" points="853.067,-267.797 862.371,-262.73 851.937,-260.889 853.067,-267.797"/>
</g>
<!-- Node12&#45;&gt;Node21 -->
<g id="edge56" class="edge"><title>Node12&#45;&gt;Node21</title>
<path fill="none" stroke="midnightblue" d="M513.968,-305.45C458.603,-297.459 363.705,-282.891 273.506,-264.21"/>
<polygon fill="midnightblue" stroke="midnightblue" points="274.172,-260.773 263.667,-262.151 272.739,-267.625 274.172,-260.773"/>
</g>
<!-- Node22 -->
<g id="node53" class="node"><title>Node22</title>
<polygon fill="white" stroke="#bfbfbf" points="503,-241 503,-263 539,-263 539,-241 503,-241"/>
<text text-anchor="middle" x="521" y="-250" font-family="FreeSans" font-size="10.00">map</text>
</g>
<!-- Node12&#45;&gt;Node22 -->
<g id="edge62" class="edge"><title>Node12&#45;&gt;Node22</title>
<path fill="none" stroke="midnightblue" d="M553.663,-300.995C548.207,-292.81 540.614,-281.42 534.122,-271.682"/>
<polygon fill="midnightblue" stroke="midnightblue" points="537.021,-269.722 528.562,-263.343 531.197,-273.605 537.021,-269.722"/>
</g>
<!-- Node23 -->
<g id="node55" class="node"><title>Node23</title>
<polygon fill="white" stroke="#bfbfbf" points="557,-241 557,-263 587,-263 587,-241 557,-241"/>
<text text-anchor="middle" x="572" y="-250" font-family="FreeSans" font-size="10.00">set</text>
</g>
<!-- Node12&#45;&gt;Node23 -->
<g id="edge64" class="edge"><title>Node12&#45;&gt;Node23</title>
<path fill="none" stroke="midnightblue" d="M563.018,-300.995C564.442,-293.228 566.395,-282.574 568.116,-273.185"/>
<polygon fill="midnightblue" stroke="midnightblue" points="571.56,-273.81 569.92,-263.343 564.674,-272.548 571.56,-273.81"/>
</g>
<!-- Node24 -->
<g id="node57" class="node"><title>Node24</title>
<polygon fill="white" stroke="#bfbfbf" points="605,-241 605,-263 655,-263 655,-241 605,-241"/>
<text text-anchor="middle" x="630" y="-250" font-family="FreeSans" font-size="10.00">fstream</text>
</g>
<!-- Node12&#45;&gt;Node24 -->
<g id="edge66" class="edge"><title>Node12&#45;&gt;Node24</title>
<path fill="none" stroke="midnightblue" d="M573.656,-300.995C583.645,-292.309 597.784,-280.014 609.4,-269.913"/>
<polygon fill="midnightblue" stroke="midnightblue" points="611.706,-272.546 616.956,-263.343 607.113,-267.264 611.706,-272.546"/>
</g>
<!-- Node13&#45;&gt;Node4 -->
<g id="edge30" class="edge"><title>Node13&#45;&gt;Node4</title>
<path fill="none" stroke="midnightblue" d="M293.104,-240.976C281.897,-231.732 266.068,-217.853 254,-204 222.034,-167.306 191.61,-118.906 175.629,-92.0818"/>
<polygon fill="midnightblue" stroke="midnightblue" points="178.51,-90.0767 170.419,-83.237 172.479,-93.6296 178.51,-90.0767"/>
</g>
<!-- Node13&#45;&gt;Node14 -->
<g id="edge32" class="edge"><title>Node13&#45;&gt;Node14</title>
<path fill="none" stroke="midnightblue" d="M318.739,-240.995C327.915,-232.392 340.867,-220.25 351.581,-210.205"/>
<polygon fill="midnightblue" stroke="midnightblue" points="353.999,-212.736 358.901,-203.343 349.212,-207.629 353.999,-212.736"/>
</g>
<!-- Node13&#45;&gt;Node15 -->
<g id="edge36" class="edge"><title>Node13&#45;&gt;Node15</title>
<path fill="none" stroke="midnightblue" d="M280.291,-242.693C277.498,-241.764 274.695,-240.851 272,-240 227.278,-225.877 175.274,-211.103 141.559,-201.74"/>
<polygon fill="midnightblue" stroke="midnightblue" points="142.282,-198.309 131.711,-199.015 140.415,-205.055 142.282,-198.309"/>
</g>
<!-- Node16 -->
<g id="node37" class="node"><title>Node16</title>
<polygon fill="white" stroke="#bfbfbf" points="262.5,-181 262.5,-203 315.5,-203 315.5,-181 262.5,-181"/>
<text text-anchor="middle" x="289" y="-190" font-family="FreeSans" font-size="10.00">ostream</text>
</g>
<!-- Node13&#45;&gt;Node16 -->
<g id="edge42" class="edge"><title>Node13&#45;&gt;Node16</title>
<path fill="none" stroke="midnightblue" d="M303.699,-240.995C301.368,-233.228 298.172,-222.574 295.356,-213.185"/>
<polygon fill="midnightblue" stroke="midnightblue" points="298.629,-211.915 292.403,-203.343 291.924,-213.927 298.629,-211.915"/>
</g>
<!-- Node13&#45;&gt;Node17 -->
<g id="edge44" class="edge"><title>Node13&#45;&gt;Node17</title>
<path fill="none" stroke="midnightblue" d="M333.738,-247.876C402.943,-237.202 587.785,-208.691 663.237,-197.053"/>
<polygon fill="midnightblue" stroke="midnightblue" points="664.199,-200.446 673.549,-195.463 663.132,-193.528 664.199,-200.446"/>
</g>
<!-- Node14&#45;&gt;Node3 -->
<g id="edge34" class="edge"><title>Node14&#45;&gt;Node3</title>
<path fill="none" stroke="midnightblue" d="M386.59,-180.995C399.212,-172.086 417.212,-159.38 431.719,-149.14"/>
<polygon fill="midnightblue" stroke="midnightblue" points="434.069,-151.765 440.221,-143.138 430.033,-146.046 434.069,-151.765"/>
</g>
<!-- Node15&#45;&gt;Node4 -->
<g id="edge38" class="edge"><title>Node15&#45;&gt;Node4</title>
<path fill="none" stroke="midnightblue" d="M111.353,-180.926C121.107,-160.744 141.906,-117.712 154.241,-92.1908"/>
<polygon fill="midnightblue" stroke="midnightblue" points="157.46,-93.5741 158.66,-83.0475 151.157,-90.5278 157.46,-93.5741"/>
</g>
<!-- Node15&#45;&gt;Node9 -->
<g id="edge40" class="edge"><title>Node15&#45;&gt;Node9</title>
<path fill="none" stroke="midnightblue" d="M129.348,-180.926C175.432,-159.068 278.028,-110.405 329.027,-86.2165"/>
<polygon fill="midnightblue" stroke="midnightblue" points="330.68,-89.3062 338.215,-81.8583 327.68,-82.9815 330.68,-89.3062"/>
</g>
<!-- Node18&#45;&gt;Node3 -->
<g id="edge48" class="edge"><title>Node18&#45;&gt;Node3</title>
<path fill="none" stroke="midnightblue" d="M919.707,-240.961C906.675,-224.536 879.695,-194.089 849,-180 787.707,-151.867 589.468,-138.661 500.241,-134.027"/>
<polygon fill="midnightblue" stroke="midnightblue" points="500.335,-130.528 490.171,-133.517 499.981,-137.519 500.335,-130.528"/>
</g>
<!-- Node18&#45;&gt;Node17 -->
<g id="edge54" class="edge"><title>Node18&#45;&gt;Node17</title>
<path fill="none" stroke="midnightblue" d="M885.448,-240.995C839.984,-229.237 768.95,-210.866 728.008,-200.278"/>
<polygon fill="midnightblue" stroke="midnightblue" points="728.839,-196.878 718.281,-197.762 727.086,-203.655 728.839,-196.878"/>
</g>
<!-- Node19 -->
<g id="node44" class="node"><title>Node19</title>
<polygon fill="white" stroke="#bfbfbf" points="901,-181 901,-203 959,-203 959,-181 901,-181"/>
<text text-anchor="middle" x="930" y="-190" font-family="FreeSans" font-size="10.00">algorithm</text>
</g>
<!-- Node18&#45;&gt;Node19 -->
<g id="edge50" class="edge"><title>Node18&#45;&gt;Node19</title>
<path fill="none" stroke="midnightblue" d="M928.367,-240.995C928.623,-233.311 928.973,-222.803 929.284,-213.488"/>
<polygon fill="midnightblue" stroke="midnightblue" points="932.787,-213.454 929.622,-203.343 925.791,-213.221 932.787,-213.454"/>
</g>
<!-- Node20 -->
<g id="node46" class="node"><title>Node20</title>
<polygon fill="white" stroke="#bfbfbf" points="976.5,-181 976.5,-203 1029.5,-203 1029.5,-181 976.5,-181"/>
<text text-anchor="middle" x="1003" y="-190" font-family="FreeSans" font-size="10.00">sstream</text>
</g>
<!-- Node18&#45;&gt;Node20 -->
<g id="edge52" class="edge"><title>Node18&#45;&gt;Node20</title>
<path fill="none" stroke="midnightblue" d="M941.756,-240.995C952.788,-232.17 968.476,-219.619 981.212,-209.43"/>
<polygon fill="midnightblue" stroke="midnightblue" points="983.455,-212.118 989.077,-203.138 979.082,-206.652 983.455,-212.118"/>
</g>
<!-- Node21&#45;&gt;Node3 -->
<g id="edge58" class="edge"><title>Node21&#45;&gt;Node3</title>
<path fill="none" stroke="midnightblue" d="M226.289,-240.914C228.746,-224.99 235.614,-195.822 254,-180 277.373,-159.886 359.732,-145.218 411.792,-137.7"/>
<polygon fill="midnightblue" stroke="midnightblue" points="412.36,-141.155 421.773,-136.292 411.382,-134.223 412.36,-141.155"/>
</g>
<!-- Node25&#45;&gt;Node3 -->
<g id="edge74" class="edge"><title>Node25&#45;&gt;Node3</title>
<path fill="none" stroke="midnightblue" d="M729.473,-300.857C738.664,-275.934 756.451,-215.126 727,-180 698.603,-146.131 569.72,-136.146 500.417,-133.213"/>
<polygon fill="midnightblue" stroke="midnightblue" points="500.366,-129.708 490.237,-132.815 500.092,-136.703 500.366,-129.708"/>
</g>
<!-- Node25&#45;&gt;Node17 -->
<g id="edge72" class="edge"><title>Node25&#45;&gt;Node17</title>
<path fill="none" stroke="midnightblue" d="M722.324,-300.926C717.49,-280.923 707.231,-238.472 701.044,-212.872"/>
<polygon fill="midnightblue" stroke="midnightblue" points="704.421,-211.945 698.67,-203.047 697.617,-213.59 704.421,-211.945"/>
</g>
<!-- Node27&#45;&gt;Node3 -->
<g id="edge94" class="edge"><title>Node27&#45;&gt;Node3</title>
<path fill="none" stroke="midnightblue" d="M985.141,-420.769C1010.55,-401.626 1057,-360.053 1057,-312 1057,-312 1057,-312 1057,-252 1057,-218.905 1063.37,-201.258 1038,-180 997.093,-145.716 629.683,-135.356 500.597,-132.759"/>
<polygon fill="midnightblue" stroke="midnightblue" points="500.355,-129.254 490.288,-132.558 500.218,-136.252 500.355,-129.254"/>
</g>
<!-- Node27&#45;&gt;Node11 -->
<g id="edge96" class="edge"><title>Node27&#45;&gt;Node11</title>
<path fill="none" stroke="midnightblue" d="M900.978,-423.147C803.781,-410.496 628.159,-387.639 548.839,-377.315"/>
<polygon fill="midnightblue" stroke="midnightblue" points="549.121,-373.823 538.753,-376.003 548.217,-380.764 549.121,-373.823"/>
</g>
<!-- Node27&#45;&gt;Node18 -->
<g id="edge98" class="edge"><title>Node27&#45;&gt;Node18</title>
<path fill="none" stroke="midnightblue" d="M966.435,-420.74C959.734,-391.319 941.614,-311.769 932.862,-273.345"/>
<polygon fill="midnightblue" stroke="midnightblue" points="936.197,-272.228 930.564,-263.256 929.372,-273.783 936.197,-272.228"/>
</g>
<!-- Node28&#45;&gt;Node3 -->
<g id="edge102" class="edge"><title>Node28&#45;&gt;Node3</title>
<path fill="none" stroke="midnightblue" d="M684.094,-421.155C727.52,-404.958 797,-369.982 797,-312 797,-312 797,-312 797,-252 797,-213.041 779.933,-200.815 747,-180 706.726,-154.545 571.227,-140.733 500.233,-135.088"/>
<polygon fill="midnightblue" stroke="midnightblue" points="500.486,-131.598 490.246,-134.314 499.945,-138.577 500.486,-131.598"/>
</g>
<!-- Node28&#45;&gt;Node11 -->
<g id="edge104" class="edge"><title>Node28&#45;&gt;Node11</title>
<path fill="none" stroke="midnightblue" d="M623.955,-420.995C601.478,-411.498 568.788,-397.685 543.843,-387.145"/>
<polygon fill="midnightblue" stroke="midnightblue" points="544.935,-383.807 534.361,-383.138 542.21,-390.255 544.935,-383.807"/>
</g>
</g>
</svg>
        <g id="navigator" transform="translate(0 0)" fill="#404254">
                <rect fill="#f2f5e9" fill-opacity="0.5" stroke="#606060" stroke-width=".5" x="0" y="0" width="60" height="60"/>
                <use id="zoomplus" xlink:href="#zoomPlus" x="17" y="9" onmousedown="handleZoom(evt,'in')"/>
                <use id="zoomminus" xlink:href="#zoomMin" x="42" y="9" onmousedown="handleZoom(evt,'out')"/>
                <use id="reset" xlink:href="#resetDef" x="30" y="36" onmousedown="handleReset()"/>
                <g id="arrowUp" xlink:href="#dirArrow" transform="translate(30 24)" onmousedown="handlePan(0,-1)">
                  <use xlink:href="#rim" fill="#404040">
                        <set attributeName="fill" to="#808080" begin="arrowUp.mouseover" end="arrowUp.mouseout"/>
                  </use>
                  <path fill="none" stroke="white" stroke-width="1.5" d="M0,-3.0v7 M-2.5,-0.5L0,-3.0L2.5,-0.5"/>
                </g>
                <g id="arrowRight" xlink:href="#dirArrow" transform="rotate(90) translate(36 -43)" onmousedown="handlePan(1,0)">
                  <use xlink:href="#rim" fill="#404040">
                        <set attributeName="fill" to="#808080" begin="arrowRight.mouseover" end="arrowRight.mouseout"/>
                  </use>
                  <path fill="none" stroke="white" stroke-width="1.5" d="M0,-3.0v7 M-2.5,-0.5L0,-3.0L2.5,-0.5"/>
                </g>
                <g id="arrowDown" xlink:href="#dirArrow" transform="rotate(180) translate(-30 -48)" onmousedown="handlePan(0,1)">
                  <use xlink:href="#rim" fill="#404040">
                        <set attributeName="fill" to="#808080" begin="arrowDown.mouseover" end="arrowDown.mouseout"/>
                  </use>
                  <path fill="none" stroke="white" stroke-width="1.5" d="M0,-3.0v7 M-2.5,-0.5L0,-3.0L2.5,-0.5"/>
                </g>
                <g id="arrowLeft" xlink:href="#dirArrow" transform="rotate(270) translate(-36 17)" onmousedown="handlePan(-1,0)">
                  <use xlink:href="#rim" fill="#404040">
                        <set attributeName="fill" to="#808080" begin="arrowLeft.mouseover" end="arrowLeft.mouseout"/>
                  </use>
                  <path fill="none" stroke="white" stroke-width="1.5" d="M0,-3.0v7 M-2.5,-0.5L0,-3.0L2.5,-0.5"/>
                </g>
        </g>
</svg>
