<?xml version="1.0" encoding="UTF-8" standalone="no"?>
<!DOCTYPE svg PUBLIC "-//W3C//DTD SVG 1.1//EN"
 "http://www.w3.org/Graphics/SVG/1.1/DTD/svg11.dtd">
<!-- Generated by graphviz version 2.26.3 (20100126.1600)
 -->
<!-- Title: dagframescheduler.h Pages: 1 -->
<!--zoomable 552 -->
<svg id="main" version="1.1" xmlns="http://www.w3.org/2000/svg" xmlns:xlink="http://www.w3.org/1999/xlink" xml:space="preserve" onload="init(evt)">
        <defs>
                <circle id="rim" cx="0" cy="0" r="7"/>
                <circle id="rim2" cx="0" cy="0" r="3.5"/>
                <g id="zoomPlus">
                        <use xlink:href="#rim" fill="#404040">
                                <set attributeName="fill" to="#808080" begin="zoomplus.mouseover" end="zoomplus.mouseout"/>
                        </use>
                        <path d="M-4,0h8M0,-4v8" fill="none" stroke="white" stroke-width="1.5" pointer-events="none"/>
                </g>
                <g id="zoomMin">
                        <use xlink:href="#rim" fill="#404040">
                                <set attributeName="fill" to="#808080" begin="zoomminus.mouseover" end="zoomminus.mouseout"/>
                        </use>
                        <path d="M-4,0h8" fill="none" stroke="white" stroke-width="1.5" pointer-events="none"/>
                </g>
                <g id="dirArrow">
                        <path fill="none" stroke="white" stroke-width="1.5" d="M0,-3.0v7 M-2.5,-0.5L0,-3.0L2.5,-0.5"/>
                </g>
               <g id="resetDef">
                       <use xlink:href="#rim2" fill="#404040">
                               <set attributeName="fill" to="#808080" begin="reset.mouseover" end="reset.mouseout"/>
                       </use>
               </g>
        </defs>

<script type="text/javascript">
var viewWidth = 1174;
var viewHeight = 552;
var sectionId = 'dynsection-0';
</script>
<script xlink:href="svgpan.js"/>
<svg id="graph" class="graph">
<g id="viewport">
<title>dagframescheduler.h</title>
<polygon fill="white" stroke="white" points="-4,5 -4,-548 1170.7,-548 1170.7,5 -4,5"/>
<!-- Node1 -->
<g id="node1" class="node"><title>Node1</title>
<polygon fill="#bfbfbf" stroke="black" points="517.364,-523 517.364,-543 623.364,-543 623.364,-523 517.364,-523"/>
<text text-anchor="middle" x="570.364" y="-530" font-family="FreeSans" font-size="10.00">dagframescheduler.h</text>
</g>
<!-- Node2 -->
<g id="node3" class="node"><title>Node2</title>
<a xlink:href="datatypes_8h.html" target="_top" xlink:title="This file declares a few typedefs to allow flexibility, in case a change is required/desired.">
<polygon fill="white" stroke="black" points="566.864,-59 566.864,-79 631.864,-79 631.864,-59 566.864,-59"/>
<text text-anchor="middle" x="599.364" y="-66" font-family="FreeSans" font-size="10.00">datatypes.h</text>
</a>
</g>
<!-- Node1&#45;&gt;Node2 -->
<g id="edge2" class="edge"><title>Node1&#45;&gt;Node2</title>
<path fill="none" stroke="midnightblue" d="M623.483,-530.928C751.366,-525.578 1068.88,-510.021 1110.36,-486 1142.69,-467.279 1158.36,-454.357 1158.36,-417 1158.36,-417 1158.36,-417 1158.36,-185 1158.36,-172.411 1221.33,-174.868 968.364,-116 852.298,-88.9897 711.835,-76.4983 642.45,-71.6288"/>
<polygon fill="midnightblue" stroke="midnightblue" points="642.555,-68.1279 632.34,-70.9382 642.078,-75.1116 642.555,-68.1279"/>
</g>
<!-- Node3 -->
<g id="node5" class="node"><title>Node3</title>
<a xlink:href="crossplatformexport_8h.html" target="_top" xlink:title="This file determines what features are offered by the compiler that this library can take advantage o...">
<polygon fill="white" stroke="black" points="86.3643,-1 86.3643,-21 194.364,-21 194.364,-1 86.3643,-1"/>
<text text-anchor="middle" x="140.364" y="-8" font-family="FreeSans" font-size="10.00">crossplatformexport.h</text>
</a>
</g>
<!-- Node1&#45;&gt;Node3 -->
<g id="edge90" class="edge"><title>Node1&#45;&gt;Node3</title>
<path fill="none" stroke="midnightblue" d="M517.118,-531.862C386.491,-528.596 58.037,-517.326 20.3643,-486 -4.09302,-465.663 1.36434,-448.808 1.36434,-417 1.36434,-417 1.36434,-417 1.36434,-127 1.36434,-75.0592 59.2843,-41.8395 100.348,-24.8146"/>
<polygon fill="midnightblue" stroke="midnightblue" points="101.862,-27.9791 109.86,-21.031 99.2747,-21.4748 101.862,-27.9791"/>
</g>
<!-- Node13 -->
<g id="node25" class="node"><title>Node13</title>
<a xlink:href="asynchronousfileloadingworkunit_8h.html" target="_top" xlink:title="The declaration of the AsynchronousFileLoadWorkUnit a workunit that loads a listing of files asynchro...">
<polygon fill="white" stroke="black" points="28.8643,-465 28.8643,-485 189.864,-485 189.864,-465 28.8643,-465"/>
<text text-anchor="middle" x="109.364" y="-472" font-family="FreeSans" font-size="10.00">asynchronousfileloadingworkunit.h</text>
</a>
</g>
<!-- Node1&#45;&gt;Node13 -->
<g id="edge24" class="edge"><title>Node1&#45;&gt;Node13</title>
<path fill="none" stroke="midnightblue" d="M517.031,-526.29C439.281,-516.508 293.808,-498.205 199.312,-486.317"/>
<polygon fill="midnightblue" stroke="midnightblue" points="199.55,-482.819 189.192,-485.043 198.676,-489.764 199.55,-482.819"/>
</g>
<!-- Node14 -->
<g id="node27" class="node"><title>Node14</title>
<a xlink:href="asynchronousworkunit_8h.html" target="_top" xlink:title="Contains an interface for a kind of WorkUnit that loads or does other work even when the frame schedu...">
<polygon fill="white" stroke="black" points="106.864,-407 106.864,-427 225.864,-427 225.864,-407 106.864,-407"/>
<text text-anchor="middle" x="166.364" y="-414" font-family="FreeSans" font-size="10.00">asynchronousworkunit.h</text>
</a>
</g>
<!-- Node1&#45;&gt;Node14 -->
<g id="edge84" class="edge"><title>Node1&#45;&gt;Node14</title>
<path fill="none" stroke="midnightblue" d="M517.33,-529.259C437.092,-522.958 289.131,-508.653 241.364,-486 216.452,-474.186 194.078,-451.186 180.383,-434.997"/>
<polygon fill="midnightblue" stroke="midnightblue" points="183.085,-432.773 174.045,-427.248 177.667,-437.205 183.085,-432.773"/>
</g>
<!-- Node15 -->
<g id="node30" class="node"><title>Node15</title>
<a xlink:href="doublebufferedresource_8h.html" target="_top" xlink:title="This file defines the template double buffered resources that can be attached to a thread...">
<polygon fill="white" stroke="black" points="104.864,-233 104.864,-253 227.864,-253 227.864,-233 104.864,-233"/>
<text text-anchor="middle" x="166.364" y="-240" font-family="FreeSans" font-size="10.00">doublebufferedresource.h</text>
</a>
</g>
<!-- Node1&#45;&gt;Node15 -->
<g id="edge92" class="edge"><title>Node1&#45;&gt;Node15</title>
<path fill="none" stroke="midnightblue" d="M517.134,-530.303C443.607,-525.605 315.887,-513.639 279.364,-486 259.934,-471.295 196.629,-317.921 174.272,-262.686"/>
<polygon fill="midnightblue" stroke="midnightblue" points="177.47,-261.257 170.482,-253.292 170.978,-263.876 177.47,-261.257"/>
</g>
<!-- Node16 -->
<g id="node33" class="node"><title>Node16</title>
<a xlink:href="workunit_8h.html" target="_top" xlink:title="This file has the definition of the workunit.">
<polygon fill="white" stroke="black" points="609.364,-349 609.364,-369 669.364,-369 669.364,-349 609.364,-349"/>
<text text-anchor="middle" x="639.364" y="-356" font-family="FreeSans" font-size="10.00">workunit.h</text>
</a>
</g>
<!-- Node1&#45;&gt;Node16 -->
<g id="edge130" class="edge"><title>Node1&#45;&gt;Node16</title>
<path fill="none" stroke="midnightblue" d="M573.273,-522.919C579.676,-501.162 595.898,-448.351 614.364,-406 618.453,-396.623 623.68,-386.568 628.296,-378.174"/>
<polygon fill="midnightblue" stroke="midnightblue" points="631.478,-379.656 633.33,-369.225 625.377,-376.225 631.478,-379.656"/>
</g>
<!-- Node17 -->
<g id="node36" class="node"><title>Node17</title>
<a xlink:href="framescheduler_8h.html" target="_top" xlink:title="This file has the Declarations for the main FrameScheduler class.">
<polygon fill="white" stroke="black" points="359.364,-291 359.364,-311 449.364,-311 449.364,-291 359.364,-291"/>
<text text-anchor="middle" x="404.364" y="-298" font-family="FreeSans" font-size="10.00">framescheduler.h</text>
</a>
</g>
<!-- Node1&#45;&gt;Node17 -->
<g id="edge94" class="edge"><title>Node1&#45;&gt;Node17</title>
<path fill="none" stroke="midnightblue" d="M525.018,-522.971C503.07,-515.98 477.948,-504.483 461.364,-486 418.447,-438.167 407.841,-358.574 405.222,-321.355"/>
<polygon fill="midnightblue" stroke="midnightblue" points="408.709,-321.028 404.639,-311.247 401.721,-321.432 408.709,-321.028"/>
</g>
<!-- Node18 -->
<g id="node40" class="node"><title>Node18</title>
<a xlink:href="thread_8h.html" target="_top" xlink:title="This file defines a minimalistic cross&#45;platform thread that the scheduler uses to schedule tasks...">
<polygon fill="white" stroke="black" points="664.864,-233 664.864,-253 715.864,-253 715.864,-233 664.864,-233"/>
<text text-anchor="middle" x="690.364" y="-240" font-family="FreeSans" font-size="10.00">thread.h</text>
</a>
</g>
<!-- Node1&#45;&gt;Node18 -->
<g id="edge126" class="edge"><title>Node1&#45;&gt;Node18</title>
<path fill="none" stroke="midnightblue" d="M623.609,-526.952C686.116,-516.549 781.364,-488.901 781.364,-417 781.364,-417 781.364,-417 781.364,-359 781.364,-315.578 741.405,-278.767 714.445,-258.872"/>
<polygon fill="midnightblue" stroke="midnightblue" points="716.393,-255.963 706.215,-253.02 712.337,-261.667 716.393,-255.963"/>
</g>
<!-- Node19 -->
<g id="node42" class="node"><title>Node19</title>
<a xlink:href="systemcalls_8h.html" target="_top" xlink:title="This file defines a minimalistic cross&#45;platform thread that the scheduler uses to schedule tasks...">
<polygon fill="white" stroke="black" points="421.364,-175 421.364,-195 495.364,-195 495.364,-175 421.364,-175"/>
<text text-anchor="middle" x="458.364" y="-182" font-family="FreeSans" font-size="10.00">systemcalls.h</text>
</a>
</g>
<!-- Node1&#45;&gt;Node19 -->
<g id="edge124" class="edge"><title>Node1&#45;&gt;Node19</title>
<path fill="none" stroke="midnightblue" d="M517.086,-527.443C475.779,-521.498 418.067,-509.532 372.364,-486 330.918,-464.659 293.364,-463.618 293.364,-417 293.364,-417 293.364,-417 293.364,-301 293.364,-242.852 362.792,-211.332 411.576,-196.362"/>
<polygon fill="midnightblue" stroke="midnightblue" points="412.724,-199.672 421.335,-193.5 410.754,-192.955 412.724,-199.672"/>
</g>
<!-- Node20 -->
<g id="node45" class="node"><title>Node20</title>
<a xlink:href="mutex_8h.html" target="_top" xlink:title="This file declares and defines a mutex that is a partial implementation.">
<polygon fill="white" stroke="black" points="739.364,-175 739.364,-195 789.364,-195 789.364,-175 739.364,-175"/>
<text text-anchor="middle" x="764.364" y="-182" font-family="FreeSans" font-size="10.00">mutex.h</text>
</a>
</g>
<!-- Node1&#45;&gt;Node20 -->
<g id="edge120" class="edge"><title>Node1&#45;&gt;Node20</title>
<path fill="none" stroke="midnightblue" d="M623.706,-530.911C745.846,-524.676 1035.36,-501.035 1035.36,-417 1035.36,-417 1035.36,-417 1035.36,-359 1035.36,-327.192 1037.39,-313.864 1016.36,-290 986.458,-256.064 861.056,-214.362 799.187,-195.34"/>
<polygon fill="midnightblue" stroke="midnightblue" points="800.059,-191.947 789.473,-192.379 798.018,-198.643 800.059,-191.947"/>
</g>
<!-- Node21 -->
<g id="node47" class="node"><title>Node21</title>
<a xlink:href="atomicoperations_8h.html" target="_top" xlink:title="Simple thread safe ways to check and change a specified variable atomically.">
<polygon fill="white" stroke="black" points="709.364,-117 709.364,-137 807.364,-137 807.364,-117 709.364,-117"/>
<text text-anchor="middle" x="758.364" y="-124" font-family="FreeSans" font-size="10.00">atomicoperations.h</text>
</a>
</g>
<!-- Node1&#45;&gt;Node21 -->
<g id="edge86" class="edge"><title>Node1&#45;&gt;Node21</title>
<path fill="none" stroke="midnightblue" d="M623.718,-531.916C753.171,-527.844 1073.36,-508.523 1073.36,-417 1073.36,-417 1073.36,-417 1073.36,-359 1073.36,-230.197 900.504,-164.912 810.888,-139.721"/>
<polygon fill="midnightblue" stroke="midnightblue" points="811.744,-136.326 801.174,-137.055 809.892,-143.077 811.744,-136.326"/>
</g>
<!-- Node22 -->
<g id="node50" class="node"><title>Node22</title>
<a xlink:href="workunitkey_8h.html" target="_top" xlink:title="This file defines the metadata used to sort workunits.">
<polygon fill="white" stroke="black" points="496.864,-233 496.864,-253 571.864,-253 571.864,-233 496.864,-233"/>
<text text-anchor="middle" x="534.364" y="-240" font-family="FreeSans" font-size="10.00">workunitkey.h</text>
</a>
</g>
<!-- Node1&#45;&gt;Node22 -->
<g id="edge132" class="edge"><title>Node1&#45;&gt;Node22</title>
<path fill="none" stroke="midnightblue" d="M559.603,-522.953C541.907,-505.607 507.332,-468.033 494.364,-428 475.194,-368.819 506.251,-295.997 523.733,-262.073"/>
<polygon fill="midnightblue" stroke="midnightblue" points="526.839,-263.686 528.451,-253.215 520.661,-260.395 526.839,-263.686"/>
</g>
<!-- Node23 -->
<g id="node54" class="node"><title>Node23</title>
<a xlink:href="rollingaverage_8h.html" target="_top" xlink:title="This stores the implementation and the declaration of the RollingAverage, BufferedRollingAverage, WeightedRollingAverage and the DefaultRollingAverage.">
<polygon fill="white" stroke="black" points="358.864,-233 358.864,-253 441.864,-253 441.864,-233 358.864,-233"/>
<text text-anchor="middle" x="400.364" y="-240" font-family="FreeSans" font-size="10.00">rollingaverage.h</text>
</a>
</g>
<!-- Node1&#45;&gt;Node23 -->
<g id="edge122" class="edge"><title>Node1&#45;&gt;Node23</title>
<path fill="none" stroke="midnightblue" d="M532.23,-522.956C464.754,-504.052 331.364,-461.104 331.364,-417 331.364,-417 331.364,-417 331.364,-359 331.364,-327.192 333.942,-317.241 350.364,-290 357.38,-278.362 368.07,-267.765 377.767,-259.59"/>
<polygon fill="midnightblue" stroke="midnightblue" points="379.967,-262.313 385.577,-253.325 375.587,-256.853 379.967,-262.313"/>
</g>
<!-- Node24 -->
<g id="node57" class="node"><title>Node24</title>
<a xlink:href="barrier_8h.html" target="_top" xlink:title="The declaration of the Mezzanine::Threading::Barrier Barrier synchronization primitive.">
<polygon fill="white" stroke="black" points="666.864,-175 666.864,-195 717.864,-195 717.864,-175 666.864,-175"/>
<text text-anchor="middle" x="692.364" y="-182" font-family="FreeSans" font-size="10.00">barrier.h</text>
</a>
</g>
<!-- Node1&#45;&gt;Node24 -->
<g id="edge88" class="edge"><title>Node1&#45;&gt;Node24</title>
<path fill="none" stroke="midnightblue" d="M623.575,-524.238C672.934,-515.39 742.154,-500.931 765.364,-486 798.115,-464.932 819.364,-455.942 819.364,-417 819.364,-417 819.364,-417 819.364,-359 819.364,-289.407 752.263,-229.052 715.61,-201.274"/>
<polygon fill="midnightblue" stroke="midnightblue" points="717.555,-198.36 707.432,-195.234 713.396,-203.991 717.555,-198.36"/>
</g>
<!-- Node25 -->
<g id="node63" class="node"><title>Node25</title>
<a xlink:href="threadingenumerations_8h.html" target="_top" xlink:title="Any enumerations the threading library requires are all declared here.">
<polygon fill="white" stroke="black" points="885.364,-291 885.364,-311 1007.36,-311 1007.36,-291 885.364,-291"/>
<text text-anchor="middle" x="946.364" y="-298" font-family="FreeSans" font-size="10.00">threadingenumerations.h</text>
</a>
</g>
<!-- Node1&#45;&gt;Node25 -->
<g id="edge128" class="edge"><title>Node1&#45;&gt;Node25</title>
<path fill="none" stroke="midnightblue" d="M623.488,-528.66C690.209,-522.341 800.004,-508.806 833.364,-486 893.855,-444.647 927.695,-359.19 940.434,-320.632"/>
<polygon fill="midnightblue" stroke="midnightblue" points="943.778,-321.666 943.472,-311.076 937.107,-319.545 943.778,-321.666"/>
</g>
<!-- Node26 -->
<g id="node74" class="node"><title>Node26</title>
<a xlink:href="frameschedulerworkunits_8h.html" target="_top" xlink:title="This defines a number of workunits that are required for doing some tasks that the Framescheduler req...">
<polygon fill="white" stroke="black" points="622.864,-407 622.864,-427 753.864,-427 753.864,-407 622.864,-407"/>
<text text-anchor="middle" x="688.364" y="-414" font-family="FreeSans" font-size="10.00">frameschedulerworkunits.h</text>
</a>
</g>
<!-- Node1&#45;&gt;Node26 -->
<g id="edge96" class="edge"><title>Node1&#45;&gt;Node26</title>
<path fill="none" stroke="midnightblue" d="M580.836,-522.706C601.093,-502.792 645.837,-458.807 670.749,-434.317"/>
<polygon fill="midnightblue" stroke="midnightblue" points="673.407,-436.612 678.085,-427.106 668.5,-431.62 673.407,-436.612"/>
</g>
<!-- Node27 -->
<g id="node79" class="node"><title>Node27</title>
<a xlink:href="logtools_8h.html" target="_top" xlink:title="The definitions of the logging tools.">
<polygon fill="white" stroke="black" points="1073.86,-233 1073.86,-253 1130.86,-253 1130.86,-233 1073.86,-233"/>
<text text-anchor="middle" x="1102.36" y="-240" font-family="FreeSans" font-size="10.00">logtools.h</text>
</a>
</g>
<!-- Node1&#45;&gt;Node27 -->
<g id="edge104" class="edge"><title>Node1&#45;&gt;Node27</title>
<path fill="none" stroke="midnightblue" d="M623.494,-531.397C748.101,-527.183 1051.37,-514.13 1087.36,-486 1112.95,-466.007 1111.36,-449.469 1111.36,-417 1111.36,-417 1111.36,-417 1111.36,-359 1111.36,-325.324 1107.55,-286.313 1104.88,-263.198"/>
<polygon fill="midnightblue" stroke="midnightblue" points="1108.35,-262.735 1103.69,-253.221 1101.4,-263.565 1108.35,-262.735"/>
</g>
<!-- Node29 -->
<g id="node85" class="node"><title>Node29</title>
<a xlink:href="monopoly_8h.html" target="_top" xlink:title="Contains an interface for a kind of WorkUnit that consumes time on multiple thread.">
<polygon fill="white" stroke="black" points="502.864,-407 502.864,-427 567.864,-427 567.864,-407 502.864,-407"/>
<text text-anchor="middle" x="535.364" y="-414" font-family="FreeSans" font-size="10.00">monopoly.h</text>
</a>
</g>
<!-- Node1&#45;&gt;Node29 -->
<g id="edge112" class="edge"><title>Node1&#45;&gt;Node29</title>
<path fill="none" stroke="midnightblue" d="M567.258,-522.706C561.458,-503.482 548.889,-461.825 541.378,-436.929"/>
<polygon fill="midnightblue" stroke="midnightblue" points="544.653,-435.668 538.413,-427.106 537.951,-437.69 544.653,-435.668"/>
</g>
<!-- Node2&#45;&gt;Node3 -->
<g id="edge4" class="edge"><title>Node2&#45;&gt;Node3</title>
<path fill="none" stroke="midnightblue" d="M566.722,-64.8753C491.357,-55.352 304.092,-31.6889 204.703,-19.1299"/>
<polygon fill="midnightblue" stroke="midnightblue" points="204.85,-15.6208 194.49,-17.8394 203.972,-22.5655 204.85,-15.6208"/>
</g>
<!-- Node4 -->
<g id="node7" class="node"><title>Node4</title>
<polygon fill="white" stroke="#bfbfbf" points="845.864,-1 845.864,-21 888.864,-21 888.864,-1 845.864,-1"/>
<text text-anchor="middle" x="867.364" y="-8" font-family="FreeSans" font-size="10.00">vector</text>
</g>
<!-- Node2&#45;&gt;Node4 -->
<g id="edge6" class="edge"><title>Node2&#45;&gt;Node4</title>
<path fill="none" stroke="midnightblue" d="M632.08,-64.2028C676.415,-57.3426 758.119,-43.4311 835.621,-22.2137"/>
<polygon fill="midnightblue" stroke="midnightblue" points="836.845,-25.5062 845.539,-19.4512 834.966,-18.7629 836.845,-25.5062"/>
</g>
<!-- Node5 -->
<g id="node9" class="node"><title>Node5</title>
<polygon fill="white" stroke="#bfbfbf" points="350.364,-1 350.364,-21 390.364,-21 390.364,-1 350.364,-1"/>
<text text-anchor="middle" x="370.364" y="-8" font-family="FreeSans" font-size="10.00">string</text>
</g>
<!-- Node2&#45;&gt;Node5 -->
<g id="edge8" class="edge"><title>Node2&#45;&gt;Node5</title>
<path fill="none" stroke="midnightblue" d="M566.8,-62.7234C528.874,-55.1143 464.229,-41.2216 400.355,-22.0338"/>
<polygon fill="midnightblue" stroke="midnightblue" points="401.114,-18.6062 390.528,-19.037 399.072,-25.3018 401.114,-18.6062"/>
</g>
<!-- Node6 -->
<g id="node11" class="node"><title>Node6</title>
<polygon fill="white" stroke="#bfbfbf" points="407.864,-1 407.864,-21 458.864,-21 458.864,-1 407.864,-1"/>
<text text-anchor="middle" x="433.364" y="-8" font-family="FreeSans" font-size="10.00">ostream</text>
</g>
<!-- Node2&#45;&gt;Node6 -->
<g id="edge10" class="edge"><title>Node2&#45;&gt;Node6</title>
<path fill="none" stroke="midnightblue" d="M570.449,-58.8972C542.158,-49.0121 499.016,-33.9385 468.703,-23.3473"/>
<polygon fill="midnightblue" stroke="midnightblue" points="469.55,-19.9357 458.955,-19.9413 467.241,-26.544 469.55,-19.9357"/>
</g>
<!-- Node7 -->
<g id="node13" class="node"><title>Node7</title>
<polygon fill="white" stroke="#bfbfbf" points="475.864,-1 475.864,-21 510.864,-21 510.864,-1 475.864,-1"/>
<text text-anchor="middle" x="493.364" y="-8" font-family="FreeSans" font-size="10.00">map</text>
</g>
<!-- Node2&#45;&gt;Node7 -->
<g id="edge12" class="edge"><title>Node2&#45;&gt;Node7</title>
<path fill="none" stroke="midnightblue" d="M580.901,-58.8972C563.977,-49.6371 538.732,-35.824 519.696,-25.4077"/>
<polygon fill="midnightblue" stroke="midnightblue" points="521.365,-22.3317 510.913,-20.6019 518.005,-28.4725 521.365,-22.3317"/>
</g>
<!-- Node8 -->
<g id="node15" class="node"><title>Node8</title>
<polygon fill="white" stroke="#bfbfbf" points="527.864,-1 527.864,-21 556.864,-21 556.864,-1 527.864,-1"/>
<text text-anchor="middle" x="542.364" y="-8" font-family="FreeSans" font-size="10.00">set</text>
</g>
<!-- Node2&#45;&gt;Node8 -->
<g id="edge14" class="edge"><title>Node2&#45;&gt;Node8</title>
<path fill="none" stroke="midnightblue" d="M589.436,-58.8972C581.281,-50.5996 569.534,-38.6463 559.815,-28.7569"/>
<polygon fill="midnightblue" stroke="midnightblue" points="562.069,-26.0566 552.563,-21.3776 557.076,-30.9632 562.069,-26.0566"/>
</g>
<!-- Node9 -->
<g id="node17" class="node"><title>Node9</title>
<polygon fill="white" stroke="#bfbfbf" points="574.364,-1 574.364,-21 624.364,-21 624.364,-1 574.364,-1"/>
<text text-anchor="middle" x="599.364" y="-8" font-family="FreeSans" font-size="10.00">sstream</text>
</g>
<!-- Node2&#45;&gt;Node9 -->
<g id="edge16" class="edge"><title>Node2&#45;&gt;Node9</title>
<path fill="none" stroke="midnightblue" d="M599.364,-58.8972C599.364,-51.339 599.364,-40.7476 599.364,-31.4458"/>
<polygon fill="midnightblue" stroke="midnightblue" points="602.864,-31.3776 599.364,-21.3776 595.864,-31.3776 602.864,-31.3776"/>
</g>
<!-- Node10 -->
<g id="node19" class="node"><title>Node10</title>
<polygon fill="white" stroke="#bfbfbf" points="641.864,-1 641.864,-21 690.864,-21 690.864,-1 641.864,-1"/>
<text text-anchor="middle" x="666.364" y="-8" font-family="FreeSans" font-size="10.00">fstream</text>
</g>
<!-- Node2&#45;&gt;Node10 -->
<g id="edge18" class="edge"><title>Node2&#45;&gt;Node10</title>
<path fill="none" stroke="midnightblue" d="M611.035,-58.8972C620.81,-50.4353 634.977,-38.1715 646.528,-28.1719"/>
<polygon fill="midnightblue" stroke="midnightblue" points="649.107,-30.5689 654.376,-21.3776 644.525,-25.2764 649.107,-30.5689"/>
</g>
<!-- Node11 -->
<g id="node21" class="node"><title>Node11</title>
<polygon fill="white" stroke="#bfbfbf" points="708.364,-1 708.364,-21 764.364,-21 764.364,-1 708.364,-1"/>
<text text-anchor="middle" x="736.364" y="-8" font-family="FreeSans" font-size="10.00">algorithm</text>
</g>
<!-- Node2&#45;&gt;Node11 -->
<g id="edge20" class="edge"><title>Node2&#45;&gt;Node11</title>
<path fill="none" stroke="midnightblue" d="M623.228,-58.8972C645.291,-49.5565 678.297,-35.5831 702.973,-25.1363"/>
<polygon fill="midnightblue" stroke="midnightblue" points="704.47,-28.3034 712.315,-21.1817 701.741,-21.8573 704.47,-28.3034"/>
</g>
<!-- Node12 -->
<g id="node23" class="node"><title>Node12</title>
<polygon fill="white" stroke="#bfbfbf" points="781.864,-1 781.864,-21 828.864,-21 828.864,-1 781.864,-1"/>
<text text-anchor="middle" x="805.364" y="-8" font-family="FreeSans" font-size="10.00">stdint.h</text>
</g>
<!-- Node2&#45;&gt;Node12 -->
<g id="edge22" class="edge"><title>Node2&#45;&gt;Node12</title>
<path fill="none" stroke="midnightblue" d="M631.941,-60.8987C665.053,-52.511 718.019,-38.6757 771.938,-22.3206"/>
<polygon fill="midnightblue" stroke="midnightblue" points="773.118,-25.62 781.657,-19.3481 771.07,-18.9261 773.118,-25.62"/>
</g>
<!-- Node13&#45;&gt;Node14 -->
<g id="edge26" class="edge"><title>Node13&#45;&gt;Node14</title>
<path fill="none" stroke="midnightblue" d="M119.293,-464.897C127.447,-456.6 139.195,-444.646 148.914,-434.757"/>
<polygon fill="midnightblue" stroke="midnightblue" points="151.653,-436.963 156.166,-427.378 146.66,-432.057 151.653,-436.963"/>
</g>
<!-- Node14&#45;&gt;Node2 -->
<g id="edge28" class="edge"><title>Node14&#45;&gt;Node2</title>
<path fill="none" stroke="midnightblue" d="M150.862,-406.895C125.363,-388.911 77.3643,-348.721 77.3643,-301 77.3643,-301 77.3643,-301 77.3643,-185 77.3643,-117.221 148.52,-135.728 213.364,-116 276.824,-96.6933 470.306,-79.3326 556.801,-72.3067"/>
<polygon fill="midnightblue" stroke="midnightblue" points="557.116,-75.7928 566.803,-71.5017 556.554,-68.8153 557.116,-75.7928"/>
</g>
<!-- Node14&#45;&gt;Node15 -->
<g id="edge30" class="edge"><title>Node14&#45;&gt;Node15</title>
<path fill="none" stroke="midnightblue" d="M166.364,-406.893C166.364,-379.023 166.364,-300.675 166.364,-263.313"/>
<polygon fill="midnightblue" stroke="midnightblue" points="169.864,-263.135 166.364,-253.135 162.864,-263.135 169.864,-263.135"/>
</g>
<!-- Node14&#45;&gt;Node16 -->
<g id="edge34" class="edge"><title>Node14&#45;&gt;Node16</title>
<path fill="none" stroke="midnightblue" d="M226.27,-409.654C324.131,-397.654 515.714,-374.162 599.046,-363.944"/>
<polygon fill="midnightblue" stroke="midnightblue" points="599.629,-367.399 609.129,-362.708 598.777,-360.451 599.629,-367.399"/>
</g>
<!-- Node15&#45;&gt;Node2 -->
<g id="edge32" class="edge"><title>Node15&#45;&gt;Node2</title>
<path fill="none" stroke="midnightblue" d="M168.996,-232.974C176.034,-208.346 197.783,-144.799 241.364,-116 292.333,-82.3188 473.222,-72.6801 556.646,-69.9979"/>
<polygon fill="midnightblue" stroke="midnightblue" points="556.908,-73.4917 566.798,-69.6906 556.696,-66.4949 556.908,-73.4917"/>
</g>
<!-- Node16&#45;&gt;Node2 -->
<g id="edge36" class="edge"><title>Node16&#45;&gt;Node2</title>
<path fill="none" stroke="midnightblue" d="M638.937,-348.713C637.395,-315.017 631.229,-205.022 613.364,-116 611.55,-106.961 608.766,-97.16 606.157,-88.8587"/>
<polygon fill="midnightblue" stroke="midnightblue" points="609.471,-87.73 603.032,-79.3159 602.818,-89.9086 609.471,-87.73"/>
</g>
<!-- Node16&#45;&gt;Node17 -->
<g id="edge38" class="edge"><title>Node16&#45;&gt;Node17</title>
<path fill="none" stroke="midnightblue" d="M609.123,-351.536C570.203,-341.93 502.021,-325.102 455.099,-313.522"/>
<polygon fill="midnightblue" stroke="midnightblue" points="455.681,-310.06 445.134,-311.062 454.004,-316.856 455.681,-310.06"/>
</g>
<!-- Node16&#45;&gt;Node18 -->
<g id="edge80" class="edge"><title>Node16&#45;&gt;Node18</title>
<path fill="none" stroke="midnightblue" d="M643.89,-348.706C652.418,-329.31 670.986,-287.076 681.895,-262.264"/>
<polygon fill="midnightblue" stroke="midnightblue" points="685.101,-263.669 685.921,-253.106 678.693,-260.851 685.101,-263.669"/>
</g>
<!-- Node16&#45;&gt;Node20 -->
<g id="edge72" class="edge"><title>Node16&#45;&gt;Node20</title>
<path fill="none" stroke="midnightblue" d="M647.798,-348.968C655.741,-339.488 667.943,-324.845 678.364,-312 699.093,-286.45 705.843,-281.192 724.364,-254 735.404,-237.792 746.471,-218.4 754.156,-204.307"/>
<polygon fill="midnightblue" stroke="midnightblue" points="757.452,-205.568 759.106,-195.103 751.287,-202.252 757.452,-205.568"/>
</g>
<!-- Node16&#45;&gt;Node22 -->
<g id="edge82" class="edge"><title>Node16&#45;&gt;Node22</title>
<path fill="none" stroke="midnightblue" d="M630.046,-348.706C612.099,-328.879 572.551,-285.187 550.328,-260.636"/>
<polygon fill="midnightblue" stroke="midnightblue" points="552.817,-258.171 543.512,-253.106 547.628,-262.868 552.817,-258.171"/>
</g>
<!-- Node16&#45;&gt;Node23 -->
<g id="edge74" class="edge"><title>Node16&#45;&gt;Node23</title>
<path fill="none" stroke="midnightblue" d="M618.573,-348.909C576.197,-328.342 479.696,-281.504 430.464,-257.609"/>
<polygon fill="midnightblue" stroke="midnightblue" points="431.803,-254.368 421.278,-253.151 428.746,-260.666 431.803,-254.368"/>
</g>
<!-- Node16&#45;&gt;Node25 -->
<g id="edge76" class="edge"><title>Node16&#45;&gt;Node25</title>
<path fill="none" stroke="midnightblue" d="M669.641,-353.28C719.036,-343.948 817.98,-325.255 883.181,-312.937"/>
<polygon fill="midnightblue" stroke="midnightblue" points="884.167,-316.313 893.343,-311.017 882.867,-309.434 884.167,-316.313"/>
</g>
<!-- Node17&#45;&gt;Node2 -->
<g id="edge40" class="edge"><title>Node17&#45;&gt;Node2</title>
<path fill="none" stroke="midnightblue" d="M383.342,-290.825C361.152,-278.55 330.854,-256.485 342.364,-232 383.139,-145.262 495.171,-99.6045 557.001,-80.3606"/>
<polygon fill="midnightblue" stroke="midnightblue" points="558.278,-83.6311 566.839,-77.3897 556.255,-76.93 558.278,-83.6311"/>
</g>
<!-- Node17&#45;&gt;Node15 -->
<g id="edge42" class="edge"><title>Node17&#45;&gt;Node15</title>
<path fill="none" stroke="midnightblue" d="M363.18,-290.963C322.695,-281.097 260.812,-266.017 217.266,-255.405"/>
<polygon fill="midnightblue" stroke="midnightblue" points="217.987,-251.978 207.443,-253.011 216.33,-258.779 217.987,-251.978"/>
</g>
<!-- Node17&#45;&gt;Node18 -->
<g id="edge44" class="edge"><title>Node17&#45;&gt;Node18</title>
<path fill="none" stroke="midnightblue" d="M449.366,-291.874C506.174,-280.353 602.736,-260.771 654.714,-250.23"/>
<polygon fill="midnightblue" stroke="midnightblue" points="655.689,-253.603 664.794,-248.186 654.298,-246.743 655.689,-253.603"/>
</g>
<!-- Node17&#45;&gt;Node19 -->
<g id="edge60" class="edge"><title>Node17&#45;&gt;Node19</title>
<path fill="none" stroke="midnightblue" d="M386.467,-290.885C365.671,-277.783 335.939,-254.01 350.364,-232 363.985,-211.217 389.01,-199.575 411.542,-193.078"/>
<polygon fill="midnightblue" stroke="midnightblue" points="412.547,-196.433 421.337,-190.519 410.777,-189.66 412.547,-196.433"/>
</g>
<!-- Node17&#45;&gt;Node22 -->
<g id="edge56" class="edge"><title>Node17&#45;&gt;Node22</title>
<path fill="none" stroke="midnightblue" d="M427.009,-290.897C447.852,-281.598 478.987,-267.707 502.368,-257.275"/>
<polygon fill="midnightblue" stroke="midnightblue" points="503.837,-260.452 511.543,-253.182 500.985,-254.06 503.837,-260.452"/>
</g>
<!-- Node17&#45;&gt;Node23 -->
<g id="edge62" class="edge"><title>Node17&#45;&gt;Node23</title>
<path fill="none" stroke="midnightblue" d="M403.668,-290.897C403.146,-283.339 402.416,-272.748 401.774,-263.446"/>
<polygon fill="midnightblue" stroke="midnightblue" points="405.26,-263.113 401.08,-253.378 398.276,-263.595 405.26,-263.113"/>
</g>
<!-- Node17&#45;&gt;Node24 -->
<g id="edge66" class="edge"><title>Node17&#45;&gt;Node24</title>
<path fill="none" stroke="midnightblue" d="M413.637,-290.837C428.089,-275.638 457.542,-247.158 488.364,-232 543.385,-204.942 614.481,-193.135 656.571,-188.229"/>
<polygon fill="midnightblue" stroke="midnightblue" points="657.062,-191.696 666.62,-187.126 656.297,-184.738 657.062,-191.696"/>
</g>
<!-- Node18&#45;&gt;Node19 -->
<g id="edge46" class="edge"><title>Node18&#45;&gt;Node19</title>
<path fill="none" stroke="midnightblue" d="M664.65,-236.571C626.32,-226.989 553.573,-208.802 505.521,-196.789"/>
<polygon fill="midnightblue" stroke="midnightblue" points="506.214,-193.355 495.663,-194.325 504.516,-200.146 506.214,-193.355"/>
</g>
<!-- Node18&#45;&gt;Node20 -->
<g id="edge50" class="edge"><title>Node18&#45;&gt;Node20</title>
<path fill="none" stroke="midnightblue" d="M703.254,-232.897C714.26,-224.271 730.307,-211.694 743.195,-201.592"/>
<polygon fill="midnightblue" stroke="midnightblue" points="745.412,-204.301 751.124,-195.378 741.094,-198.792 745.412,-204.301"/>
</g>
<!-- Node19&#45;&gt;Node2 -->
<g id="edge48" class="edge"><title>Node19&#45;&gt;Node2</title>
<path fill="none" stroke="midnightblue" d="M463.793,-174.976C472.054,-160.463 488.991,-133.432 509.364,-116 525.298,-102.366 545.859,-91.2534 563.306,-83.2635"/>
<polygon fill="midnightblue" stroke="midnightblue" points="564.893,-86.3889 572.629,-79.1497 562.067,-79.9846 564.893,-86.3889"/>
</g>
<!-- Node20&#45;&gt;Node21 -->
<g id="edge52" class="edge"><title>Node20&#45;&gt;Node21</title>
<path fill="none" stroke="midnightblue" d="M763.319,-174.897C762.537,-167.339 761.442,-156.748 760.479,-147.446"/>
<polygon fill="midnightblue" stroke="midnightblue" points="763.948,-146.964 759.438,-137.378 756.986,-147.685 763.948,-146.964"/>
</g>
<!-- Node21&#45;&gt;Node2 -->
<g id="edge54" class="edge"><title>Node21&#45;&gt;Node2</title>
<path fill="none" stroke="midnightblue" d="M730.669,-116.897C704.643,-107.403 665.497,-93.124 636.718,-82.6258"/>
<polygon fill="midnightblue" stroke="midnightblue" points="637.603,-79.2231 627.009,-79.0842 635.204,-85.7992 637.603,-79.2231"/>
</g>
<!-- Node22&#45;&gt;Node2 -->
<g id="edge58" class="edge"><title>Node22&#45;&gt;Node2</title>
<path fill="none" stroke="midnightblue" d="M538.14,-232.893C548.596,-204.903 578.072,-125.999 591.956,-88.8322"/>
<polygon fill="midnightblue" stroke="midnightblue" points="595.357,-89.7275 595.578,-79.135 588.8,-87.2779 595.357,-89.7275"/>
</g>
<!-- Node23&#45;&gt;Node2 -->
<g id="edge64" class="edge"><title>Node23&#45;&gt;Node2</title>
<path fill="none" stroke="midnightblue" d="M433.168,-232.991C454.901,-225.26 483.198,-212.995 504.364,-196 524.503,-179.831 566.14,-119.162 586.954,-87.8945"/>
<polygon fill="midnightblue" stroke="midnightblue" points="590.097,-89.4869 592.698,-79.2163 584.26,-85.6233 590.097,-89.4869"/>
</g>
<!-- Node24&#45;&gt;Node2 -->
<g id="edge68" class="edge"><title>Node24&#45;&gt;Node2</title>
<path fill="none" stroke="midnightblue" d="M687.406,-174.556C680.453,-160.474 666.899,-134.977 651.364,-116 642.331,-104.966 630.672,-94.1847 620.683,-85.7375"/>
<polygon fill="midnightblue" stroke="midnightblue" points="622.726,-82.8863 612.78,-79.2364 618.279,-88.2923 622.726,-82.8863"/>
</g>
<!-- Node24&#45;&gt;Node21 -->
<g id="edge70" class="edge"><title>Node24&#45;&gt;Node21</title>
<path fill="none" stroke="midnightblue" d="M703.861,-174.897C713.49,-166.435 727.445,-154.172 738.824,-144.172"/>
<polygon fill="midnightblue" stroke="midnightblue" points="741.354,-146.608 746.555,-137.378 736.733,-141.35 741.354,-146.608"/>
</g>
<!-- Node25&#45;&gt;Node2 -->
<g id="edge78" class="edge"><title>Node25&#45;&gt;Node2</title>
<path fill="none" stroke="midnightblue" d="M945.549,-290.569C942.463,-258.72 928.57,-162.106 871.364,-116 836.833,-88.1684 710.039,-76.0126 642.454,-71.4141"/>
<polygon fill="midnightblue" stroke="midnightblue" points="642.346,-67.8996 632.139,-70.7397 641.889,-74.8847 642.346,-67.8996"/>
</g>
<!-- Node26&#45;&gt;Node2 -->
<g id="edge98" class="edge"><title>Node26&#45;&gt;Node2</title>
<path fill="none" stroke="midnightblue" d="M733.21,-406.879C783.277,-392.616 857.364,-361.32 857.364,-301 857.364,-301 857.364,-301 857.364,-185 857.364,-149.328 845.314,-136.842 816.364,-116 788.959,-96.2701 697.421,-81.5314 642.373,-74.1936"/>
<polygon fill="midnightblue" stroke="midnightblue" points="642.58,-70.691 632.211,-72.8677 641.674,-77.6322 642.58,-70.691"/>
</g>
<!-- Node26&#45;&gt;Node16 -->
<g id="edge100" class="edge"><title>Node26&#45;&gt;Node16</title>
<path fill="none" stroke="midnightblue" d="M679.829,-406.897C672.889,-398.682 662.92,-386.883 654.615,-377.051"/>
<polygon fill="midnightblue" stroke="midnightblue" points="657.259,-374.758 648.132,-369.378 651.912,-379.275 657.259,-374.758"/>
</g>
<!-- Node26&#45;&gt;Node22 -->
<g id="edge102" class="edge"><title>Node26&#45;&gt;Node22</title>
<path fill="none" stroke="midnightblue" d="M689.218,-406.841C689.923,-392.636 689.399,-366.506 678.364,-348 652.511,-304.641 601.118,-273.899 567.243,-257.305"/>
<polygon fill="midnightblue" stroke="midnightblue" points="568.723,-254.133 558.189,-253 565.718,-260.455 568.723,-254.133"/>
</g>
<!-- Node27&#45;&gt;Node2 -->
<g id="edge106" class="edge"><title>Node27&#45;&gt;Node2</title>
<path fill="none" stroke="midnightblue" d="M1092.98,-232.944C1069.28,-208.251 1003.96,-144.564 935.364,-116 883.13,-94.249 720.054,-78.6739 641.925,-72.2556"/>
<polygon fill="midnightblue" stroke="midnightblue" points="642.183,-68.7651 631.933,-71.4468 641.618,-75.7423 642.183,-68.7651"/>
</g>
<!-- Node27&#45;&gt;Node19 -->
<g id="edge108" class="edge"><title>Node27&#45;&gt;Node19</title>
<path fill="none" stroke="midnightblue" d="M1073.86,-240.433C972.88,-231.338 631.478,-200.591 505.539,-189.249"/>
<polygon fill="midnightblue" stroke="midnightblue" points="505.712,-185.75 495.438,-188.339 505.084,-192.722 505.712,-185.75"/>
</g>
<!-- Node28 -->
<g id="node83" class="node"><title>Node28</title>
<polygon fill="white" stroke="#bfbfbf" points="1075.86,-175 1075.86,-195 1128.86,-195 1128.86,-175 1075.86,-175"/>
<text text-anchor="middle" x="1102.36" y="-182" font-family="FreeSans" font-size="10.00">iostream</text>
</g>
<!-- Node27&#45;&gt;Node28 -->
<g id="edge110" class="edge"><title>Node27&#45;&gt;Node28</title>
<path fill="none" stroke="midnightblue" d="M1102.36,-232.897C1102.36,-225.339 1102.36,-214.748 1102.36,-205.446"/>
<polygon fill="midnightblue" stroke="midnightblue" points="1105.86,-205.378 1102.36,-195.378 1098.86,-205.378 1105.86,-205.378"/>
</g>
<!-- Node29&#45;&gt;Node2 -->
<g id="edge114" class="edge"><title>Node29&#45;&gt;Node2</title>
<path fill="none" stroke="midnightblue" d="M538.81,-406.841C547.293,-381.417 569.298,-312.857 580.364,-254 591.514,-194.703 596.51,-123.396 598.395,-89.2109"/>
<polygon fill="midnightblue" stroke="midnightblue" points="601.896,-89.2799 598.92,-79.1118 594.906,-88.9168 601.896,-89.2799"/>
</g>
<!-- Node29&#45;&gt;Node15 -->
<g id="edge116" class="edge"><title>Node29&#45;&gt;Node15</title>
<path fill="none" stroke="midnightblue" d="M513.93,-406.893C451.515,-377.461 269.719,-291.736 196.975,-257.435"/>
<polygon fill="midnightblue" stroke="midnightblue" points="198.395,-254.234 187.857,-253.135 195.41,-260.566 198.395,-254.234"/>
</g>
<!-- Node29&#45;&gt;Node16 -->
<g id="edge118" class="edge"><title>Node29&#45;&gt;Node16</title>
<path fill="none" stroke="midnightblue" d="M553.48,-406.897C569.71,-397.846 593.74,-384.444 612.258,-374.117"/>
<polygon fill="midnightblue" stroke="midnightblue" points="614.079,-377.109 621.108,-369.182 610.669,-370.996 614.079,-377.109"/>
</g>
</g>
</svg>
        <g id="navigator" transform="translate(0 0)" fill="#404254">
                <rect fill="#f2f5e9" fill-opacity="0.5" stroke="#606060" stroke-width=".5" x="0" y="0" width="60" height="60"/>
                <use id="zoomplus" xlink:href="#zoomPlus" x="17" y="9" onmousedown="handleZoom(evt,'in')"/>
                <use id="zoomminus" xlink:href="#zoomMin" x="42" y="9" onmousedown="handleZoom(evt,'out')"/>
                <use id="reset" xlink:href="#resetDef" x="30" y="36" onmousedown="handleReset()"/>
                <g id="arrowUp" xlink:href="#dirArrow" transform="translate(30 24)" onmousedown="handlePan(0,-1)">
                  <use xlink:href="#rim" fill="#404040">
                        <set attributeName="fill" to="#808080" begin="arrowUp.mouseover" end="arrowUp.mouseout"/>
                  </use>
                  <path fill="none" stroke="white" stroke-width="1.5" d="M0,-3.0v7 M-2.5,-0.5L0,-3.0L2.5,-0.5"/>
                </g>
                <g id="arrowRight" xlink:href="#dirArrow" transform="rotate(90) translate(36 -43)" onmousedown="handlePan(1,0)">
                  <use xlink:href="#rim" fill="#404040">
                        <set attributeName="fill" to="#808080" begin="arrowRight.mouseover" end="arrowRight.mouseout"/>
                  </use>
                  <path fill="none" stroke="white" stroke-width="1.5" d="M0,-3.0v7 M-2.5,-0.5L0,-3.0L2.5,-0.5"/>
                </g>
                <g id="arrowDown" xlink:href="#dirArrow" transform="rotate(180) translate(-30 -48)" onmousedown="handlePan(0,1)">
                  <use xlink:href="#rim" fill="#404040">
                        <set attributeName="fill" to="#808080" begin="arrowDown.mouseover" end="arrowDown.mouseout"/>
                  </use>
                  <path fill="none" stroke="white" stroke-width="1.5" d="M0,-3.0v7 M-2.5,-0.5L0,-3.0L2.5,-0.5"/>
                </g>
                <g id="arrowLeft" xlink:href="#dirArrow" transform="rotate(270) translate(-36 17)" onmousedown="handlePan(-1,0)">
                  <use xlink:href="#rim" fill="#404040">
                        <set attributeName="fill" to="#808080" begin="arrowLeft.mouseover" end="arrowLeft.mouseout"/>
                  </use>
                  <path fill="none" stroke="white" stroke-width="1.5" d="M0,-3.0v7 M-2.5,-0.5L0,-3.0L2.5,-0.5"/>
                </g>
        </g>
        <svg viewBox="0 0 15 15" width="100%" height="30px" preserveAspectRatio="xMaxYMin meet">
         <g id="arrow_out" transform="scale(0.3 0.3)">
          <a xlink:href="dagframescheduler_8h__incl_org.svg" target="_base">
           <rect id="button" ry="5" rx="5" y="6" x="6" height="38" width="38"
                fill="#f2f5e9" fill-opacity="0.5" stroke="#606060" stroke-width="1.0"/>
           <path id="arrow"
             d="M 11.500037,31.436501 C 11.940474,20.09759 22.043105,11.32322 32.158766,21.979434 L 37.068811,17.246167 C 37.068811,17.246167 37.088388,32 37.088388,32 L 22.160133,31.978069 C 22.160133,31.978069 26.997745,27.140456 26.997745,27.140456 C 18.528582,18.264221 13.291696,25.230495 11.500037,31.436501 z"
             style="fill:#404040;"/>
          </a>
         </g>
        </svg>
</svg>
