<?xml version="1.0" encoding="UTF-8" standalone="no"?>
<!DOCTYPE svg PUBLIC "-//W3C//DTD SVG 1.1//EN"
 "http://www.w3.org/Graphics/SVG/1.1/DTD/svg11.dtd">
<!-- Generated by graphviz version 2.26.3 (20100126.1600)
 -->
<!-- Title: dagframescheduler.h Pages: 1 -->
<svg width="1355pt" height="552pt"
 viewBox="0.00 0.00 1355.00 552.00" xmlns="http://www.w3.org/2000/svg" xmlns:xlink="http://www.w3.org/1999/xlink">
<g id="graph1" class="graph" transform="scale(1 1) rotate(0) translate(4 548)">
<title>dagframescheduler.h</title>
<polygon fill="white" stroke="white" points="-4,5 -4,-548 1352,-548 1352,5 -4,5"/>
<!-- Node1 -->
<g id="node1" class="node"><title>Node1</title>
<polygon fill="#bfbfbf" stroke="black" points="735,-523 735,-543 841,-543 841,-523 735,-523"/>
<text text-anchor="middle" x="788" y="-530" font-family="FreeSans" font-size="10.00">dagframescheduler.h</text>
</g>
<!-- Node2 -->
<g id="node3" class="node"><title>Node2</title>
<a xlink:href="asynchronousfileloadingworkunit_8h.html" target="_top" xlink:title="The declaration of the AsynchronousFileLoadWorkUnit a workunit that loads a listing of files asynchro...">
<polygon fill="white" stroke="black" points="653.5,-465 653.5,-485 814.5,-485 814.5,-465 653.5,-465"/>
<text text-anchor="middle" x="734" y="-472" font-family="FreeSans" font-size="10.00">asynchronousfileloadingworkunit.h</text>
</a>
</g>
<!-- Node1&#45;&gt;Node2 -->
<g id="edge2" class="edge"><title>Node1&#45;&gt;Node2</title>
<path fill="none" stroke="midnightblue" d="M778.594,-522.897C770.869,-514.6 759.74,-502.646 750.532,-492.757"/>
<polygon fill="midnightblue" stroke="midnightblue" points="753.038,-490.312 743.662,-485.378 747.914,-495.082 753.038,-490.312"/>
</g>
<!-- Node3 -->
<g id="node5" class="node"><title>Node3</title>
<a xlink:href="asynchronousworkunit_8h.html" target="_top" xlink:title="Contains an interface for a kind of WorkUnit that loads or does other work even when the frame schedu...">
<polygon fill="white" stroke="black" points="675.5,-407 675.5,-427 794.5,-427 794.5,-407 675.5,-407"/>
<text text-anchor="middle" x="735" y="-414" font-family="FreeSans" font-size="10.00">asynchronousworkunit.h</text>
</a>
</g>
<!-- Node1&#45;&gt;Node3 -->
<g id="edge90" class="edge"><title>Node1&#45;&gt;Node3</title>
<path fill="none" stroke="midnightblue" d="M799.679,-522.937C814.055,-509.285 835.157,-484.275 823,-464 813.842,-448.726 797.845,-438.14 781.979,-430.939"/>
<polygon fill="midnightblue" stroke="midnightblue" points="783.283,-427.691 772.706,-427.081 780.594,-434.154 783.283,-427.691"/>
</g>
<!-- Node4 -->
<g id="node7" class="node"><title>Node4</title>
<a xlink:href="datatypes_8h.html" target="_top" xlink:title="This file declares a few typedefs to allow flexibility, in case a change is required/desired.">
<polygon fill="white" stroke="black" points="703.5,-59 703.5,-79 768.5,-79 768.5,-59 703.5,-59"/>
<text text-anchor="middle" x="736" y="-66" font-family="FreeSans" font-size="10.00">datatypes.h</text>
</a>
</g>
<!-- Node1&#45;&gt;Node4 -->
<g id="edge98" class="edge"><title>Node1&#45;&gt;Node4</title>
<path fill="none" stroke="midnightblue" d="M841.106,-530.033C960.375,-523.071 1242.12,-504.844 1281,-486 1319.19,-467.491 1347,-459.437 1347,-417 1347,-417 1347,-417 1347,-185 1347,-111.214 1267.21,-135.341 1196,-116 1117.89,-94.7838 877.415,-77.8293 778.832,-71.5868"/>
<polygon fill="midnightblue" stroke="midnightblue" points="778.835,-68.0802 768.636,-70.9474 778.397,-75.0665 778.835,-68.0802"/>
</g>
<!-- Node5 -->
<g id="node9" class="node"><title>Node5</title>
<a xlink:href="crossplatformexport_8h.html" target="_top" xlink:title="This file determines what features are offered by the compiler that this library can take advantage o...">
<polygon fill="white" stroke="black" points="267,-1 267,-21 375,-21 375,-1 267,-1"/>
<text text-anchor="middle" x="321" y="-8" font-family="FreeSans" font-size="10.00">crossplatformexport.h</text>
</a>
</g>
<!-- Node1&#45;&gt;Node5 -->
<g id="edge96" class="edge"><title>Node1&#45;&gt;Node5</title>
<path fill="none" stroke="midnightblue" d="M734.9,-531.895C577.558,-528.297 121.015,-515.415 61,-486 24.2448,-467.986 0,-457.932 0,-417 0,-417 0,-417 0,-127 0,-72.8999 163.309,-36.9604 256.961,-20.7982"/>
<polygon fill="midnightblue" stroke="midnightblue" points="257.636,-24.2338 266.91,-19.1104 256.465,-17.3325 257.636,-24.2338"/>
</g>
<!-- Node8 -->
<g id="node15" class="node"><title>Node8</title>
<a xlink:href="doublebufferedresource_8h.html" target="_top" xlink:title="This file defines the template double buffered resources that can be attached to a thread...">
<polygon fill="white" stroke="black" points="141.5,-233 141.5,-253 264.5,-253 264.5,-233 141.5,-233"/>
<text text-anchor="middle" x="203" y="-240" font-family="FreeSans" font-size="10.00">doublebufferedresource.h</text>
</a>
</g>
<!-- Node1&#45;&gt;Node8 -->
<g id="edge100" class="edge"><title>Node1&#45;&gt;Node8</title>
<path fill="none" stroke="midnightblue" d="M734.755,-526.947C600.354,-510.951 258,-465.45 258,-417 258,-417 258,-417 258,-359 258,-321.389 234.102,-282.959 217.811,-261.132"/>
<polygon fill="midnightblue" stroke="midnightblue" points="220.483,-258.866 211.594,-253.101 214.948,-263.151 220.483,-258.866"/>
</g>
<!-- Node12 -->
<g id="node24" class="node"><title>Node12</title>
<a xlink:href="workunit_8h.html" target="_top" xlink:title="This file has the definition of the workunit.">
<polygon fill="white" stroke="black" points="750,-349 750,-369 810,-369 810,-349 750,-349"/>
<text text-anchor="middle" x="780" y="-356" font-family="FreeSans" font-size="10.00">workunit.h</text>
</a>
</g>
<!-- Node1&#45;&gt;Node12 -->
<g id="edge140" class="edge"><title>Node1&#45;&gt;Node12</title>
<path fill="none" stroke="midnightblue" d="M804.427,-522.925C816.221,-514.649 831.191,-501.746 838,-486 841.881,-477.025 840.441,-473.468 838,-464 829.523,-431.123 808.32,-397.537 794.038,-377.478"/>
<polygon fill="midnightblue" stroke="midnightblue" points="796.761,-375.272 788.034,-369.265 791.11,-379.403 796.761,-375.272"/>
</g>
<!-- Node13 -->
<g id="node27" class="node"><title>Node13</title>
<a xlink:href="framescheduler_8h.html" target="_top" xlink:title="This file has the Declarations for the main FrameScheduler class.">
<polygon fill="white" stroke="black" points="492,-291 492,-311 582,-311 582,-291 492,-291"/>
<text text-anchor="middle" x="537" y="-298" font-family="FreeSans" font-size="10.00">framescheduler.h</text>
</a>
</g>
<!-- Node1&#45;&gt;Node13 -->
<g id="edge102" class="edge"><title>Node1&#45;&gt;Node13</title>
<path fill="none" stroke="midnightblue" d="M734.81,-524.205C685.467,-515.332 616.258,-500.855 593,-486 565.272,-468.29 559.037,-458.62 547,-428 533.044,-392.498 533.354,-347.186 535.042,-321.398"/>
<polygon fill="midnightblue" stroke="midnightblue" points="538.539,-321.572 535.84,-311.327 531.561,-321.019 538.539,-321.572"/>
</g>
<!-- Node14 -->
<g id="node31" class="node"><title>Node14</title>
<a xlink:href="thread_8h.html" target="_top" xlink:title="This file defines a minimalistic cross&#45;platform thread that the scheduler uses to schedule tasks...">
<polygon fill="white" stroke="black" points="941.5,-233 941.5,-253 992.5,-253 992.5,-233 941.5,-233"/>
<text text-anchor="middle" x="967" y="-240" font-family="FreeSans" font-size="10.00">thread.h</text>
</a>
</g>
<!-- Node1&#45;&gt;Node14 -->
<g id="edge136" class="edge"><title>Node1&#45;&gt;Node14</title>
<path fill="none" stroke="midnightblue" d="M841.237,-527.967C945.819,-516.602 1168,-484.512 1168,-417 1168,-417 1168,-417 1168,-359 1168,-327.192 1171.74,-312.242 1149,-290 1102.15,-244.172 1069.32,-270.897 1006,-254 1004.78,-253.674 1003.53,-253.339 1002.28,-252.998"/>
<polygon fill="midnightblue" stroke="midnightblue" points="1003.14,-249.604 992.565,-250.322 1001.28,-256.353 1003.14,-249.604"/>
</g>
<!-- Node15 -->
<g id="node33" class="node"><title>Node15</title>
<a xlink:href="systemcalls_8h.html" target="_top" xlink:title="This file defines a minimalistic cross&#45;platform thread that the scheduler uses to schedule tasks...">
<polygon fill="white" stroke="black" points="1124,-175 1124,-195 1198,-195 1198,-175 1124,-175"/>
<text text-anchor="middle" x="1161" y="-182" font-family="FreeSans" font-size="10.00">systemcalls.h</text>
</a>
</g>
<!-- Node1&#45;&gt;Node15 -->
<g id="edge134" class="edge"><title>Node1&#45;&gt;Node15</title>
<path fill="none" stroke="midnightblue" d="M841.135,-529.753C929.193,-523.788 1101.2,-509.499 1157,-486 1202.48,-466.845 1244,-466.351 1244,-417 1244,-417 1244,-417 1244,-359 1244,-296.857 1200.34,-233.327 1176.35,-203.111"/>
<polygon fill="midnightblue" stroke="midnightblue" points="1178.91,-200.713 1169.88,-195.17 1173.48,-205.134 1178.91,-200.713"/>
</g>
<!-- Node16 -->
<g id="node36" class="node"><title>Node16</title>
<a xlink:href="mutex_8h.html" target="_top" xlink:title="This file declares and defines a mutex that is a partial implementation.">
<polygon fill="white" stroke="black" points="942,-175 942,-195 992,-195 992,-175 942,-175"/>
<text text-anchor="middle" x="967" y="-182" font-family="FreeSans" font-size="10.00">mutex.h</text>
</a>
</g>
<!-- Node1&#45;&gt;Node16 -->
<g id="edge130" class="edge"><title>Node1&#45;&gt;Node16</title>
<path fill="none" stroke="midnightblue" d="M841.242,-528.432C920.173,-521.129 1064.07,-505.626 1112,-486 1159.96,-466.362 1206,-468.825 1206,-417 1206,-417 1206,-417 1206,-359 1206,-259.371 1068.58,-210.789 1002.15,-193.122"/>
<polygon fill="midnightblue" stroke="midnightblue" points="1002.68,-189.646 992.125,-190.549 1000.94,-196.426 1002.68,-189.646"/>
</g>
<!-- Node17 -->
<g id="node38" class="node"><title>Node17</title>
<a xlink:href="atomicoperations_8h.html" target="_top" xlink:title="Simple thread safe ways to check and change a specified variable atomically.">
<polygon fill="white" stroke="black" points="202,-117 202,-137 300,-137 300,-117 202,-117"/>
<text text-anchor="middle" x="251" y="-124" font-family="FreeSans" font-size="10.00">atomicoperations.h</text>
</a>
</g>
<!-- Node1&#45;&gt;Node17 -->
<g id="edge92" class="edge"><title>Node1&#45;&gt;Node17</title>
<path fill="none" stroke="midnightblue" d="M734.999,-531.546C606.382,-527.599 280.624,-514.972 176,-486 109.914,-467.7 38,-485.573 38,-417 38,-417 38,-417 38,-243 38,-172.699 128.594,-144.757 191.617,-133.824"/>
<polygon fill="midnightblue" stroke="midnightblue" points="192.56,-137.216 201.866,-132.152 191.433,-130.308 192.56,-137.216"/>
</g>
<!-- Node19 -->
<g id="node45" class="node"><title>Node19</title>
<a xlink:href="workunitkey_8h.html" target="_top" xlink:title="This file defines the metadata used to sort workunits.">
<polygon fill="white" stroke="black" points="659.5,-233 659.5,-253 734.5,-253 734.5,-233 659.5,-233"/>
<text text-anchor="middle" x="697" y="-240" font-family="FreeSans" font-size="10.00">workunitkey.h</text>
</a>
</g>
<!-- Node1&#45;&gt;Node19 -->
<g id="edge142" class="edge"><title>Node1&#45;&gt;Node19</title>
<path fill="none" stroke="midnightblue" d="M737.679,-522.983C701.126,-514.567 656.187,-501.453 645,-486 618.846,-449.874 668.857,-313.597 689.065,-262.505"/>
<polygon fill="midnightblue" stroke="midnightblue" points="692.315,-263.804 692.782,-253.219 685.816,-261.202 692.315,-263.804"/>
</g>
<!-- Node20 -->
<g id="node49" class="node"><title>Node20</title>
<a xlink:href="rollingaverage_8h.html" target="_top" xlink:title="This stores the implementation and the declaration of the RollingAverage, BufferedRollingAverage, WeightedRollingAverage and the DefaultRollingAverage.">
<polygon fill="white" stroke="black" points="281.5,-233 281.5,-253 364.5,-253 364.5,-233 281.5,-233"/>
<text text-anchor="middle" x="323" y="-240" font-family="FreeSans" font-size="10.00">rollingaverage.h</text>
</a>
</g>
<!-- Node1&#45;&gt;Node20 -->
<g id="edge132" class="edge"><title>Node1&#45;&gt;Node20</title>
<path fill="none" stroke="midnightblue" d="M734.974,-527.197C634.425,-514.71 426,-481.098 426,-417 426,-417 426,-417 426,-359 426,-313.603 381.344,-277.697 350.839,-258.465"/>
<polygon fill="midnightblue" stroke="midnightblue" points="352.257,-255.232 341.892,-253.04 348.628,-261.218 352.257,-255.232"/>
</g>
<!-- Node21 -->
<g id="node53" class="node"><title>Node21</title>
<a xlink:href="barrier_8h.html" target="_top" xlink:title="The declaration of the Mezzanine::Threading::Barrier Barrier synchronization primitive.">
<polygon fill="white" stroke="black" points="92.5,-175 92.5,-195 143.5,-195 143.5,-175 92.5,-175"/>
<text text-anchor="middle" x="118" y="-182" font-family="FreeSans" font-size="10.00">barrier.h</text>
</a>
</g>
<!-- Node1&#45;&gt;Node21 -->
<g id="edge94" class="edge"><title>Node1&#45;&gt;Node21</title>
<path fill="none" stroke="midnightblue" d="M734.775,-529.944C569.479,-519.75 76,-483.73 76,-417 76,-417 76,-417 76,-301 76,-264.991 94.114,-226.249 106.55,-203.894"/>
<polygon fill="midnightblue" stroke="midnightblue" points="109.654,-205.518 111.621,-195.107 103.591,-202.019 109.654,-205.518"/>
</g>
<!-- Node25 -->
<g id="node65" class="node"><title>Node25</title>
<a xlink:href="threadingenumerations_8h.html" target="_top" xlink:title="Any enumerations the threading library requires are all declared here.">
<polygon fill="white" stroke="black" points="1018,-291 1018,-311 1140,-311 1140,-291 1018,-291"/>
<text text-anchor="middle" x="1079" y="-298" font-family="FreeSans" font-size="10.00">threadingenumerations.h</text>
</a>
</g>
<!-- Node1&#45;&gt;Node25 -->
<g id="edge138" class="edge"><title>Node1&#45;&gt;Node25</title>
<path fill="none" stroke="midnightblue" d="M838.604,-522.938C891.593,-509.866 973.807,-482.018 1023,-428 1051.66,-396.526 1067.43,-348.012 1074.46,-320.965"/>
<polygon fill="midnightblue" stroke="midnightblue" points="1077.89,-321.654 1076.87,-311.108 1071.09,-319.988 1077.89,-321.654"/>
</g>
<!-- Node26 -->
<g id="node78" class="node"><title>Node26</title>
<a xlink:href="frameschedulerworkunits_8h.html" target="_top" xlink:title="This defines a number of workunits that are required for doing some tasks that the Framescheduler req...">
<polygon fill="white" stroke="black" points="883.5,-407 883.5,-427 1014.5,-427 1014.5,-407 883.5,-407"/>
<text text-anchor="middle" x="949" y="-414" font-family="FreeSans" font-size="10.00">frameschedulerworkunits.h</text>
</a>
</g>
<!-- Node1&#45;&gt;Node26 -->
<g id="edge104" class="edge"><title>Node1&#45;&gt;Node26</title>
<path fill="none" stroke="midnightblue" d="M821.27,-522.901C843.349,-515.132 872.172,-502.857 894,-486 912.073,-472.043 927.747,-450.946 937.687,-435.755"/>
<polygon fill="midnightblue" stroke="midnightblue" points="940.725,-437.501 943.106,-427.177 934.807,-433.762 940.725,-437.501"/>
</g>
<!-- Node27 -->
<g id="node84" class="node"><title>Node27</title>
<a xlink:href="logtools_8h.html" target="_top" xlink:title="The definitions of the logging tools.">
<polygon fill="white" stroke="black" points="1262.5,-233 1262.5,-253 1319.5,-253 1319.5,-233 1262.5,-233"/>
<text text-anchor="middle" x="1291" y="-240" font-family="FreeSans" font-size="10.00">logtools.h</text>
</a>
</g>
<!-- Node1&#45;&gt;Node27 -->
<g id="edge114" class="edge"><title>Node1&#45;&gt;Node27</title>
<path fill="none" stroke="midnightblue" d="M841.376,-530.773C957.511,-525.488 1225.37,-510.742 1258,-486 1284.24,-466.104 1285,-449.931 1285,-417 1285,-417 1285,-417 1285,-359 1285,-325.38 1287.54,-286.352 1289.32,-263.218"/>
<polygon fill="midnightblue" stroke="midnightblue" points="1292.81,-263.478 1290.11,-253.232 1285.83,-262.923 1292.81,-263.478"/>
</g>
<!-- Node28 -->
<g id="node89" class="node"><title>Node28</title>
<a xlink:href="monopoly_8h.html" target="_top" xlink:title="Contains an interface for a kind of WorkUnit that consumes time on multiple thread.">
<polygon fill="white" stroke="black" points="555.5,-407 555.5,-427 620.5,-427 620.5,-407 555.5,-407"/>
<text text-anchor="middle" x="588" y="-414" font-family="FreeSans" font-size="10.00">monopoly.h</text>
</a>
</g>
<!-- Node1&#45;&gt;Node28 -->
<g id="edge122" class="edge"><title>Node1&#45;&gt;Node28</title>
<path fill="none" stroke="midnightblue" d="M734.942,-524.455C689.909,-516.215 629.843,-502.573 612,-486 598.39,-473.359 592.498,-452.599 589.947,-437.147"/>
<polygon fill="midnightblue" stroke="midnightblue" points="593.39,-436.484 588.617,-427.025 586.449,-437.396 593.39,-436.484"/>
</g>
<!-- Node2&#45;&gt;Node3 -->
<g id="edge4" class="edge"><title>Node2&#45;&gt;Node3</title>
<path fill="none" stroke="midnightblue" d="M734.174,-464.897C734.304,-457.339 734.487,-446.748 734.647,-437.446"/>
<polygon fill="midnightblue" stroke="midnightblue" points="738.148,-437.436 734.821,-427.378 731.149,-437.316 738.148,-437.436"/>
</g>
<!-- Node3&#45;&gt;Node4 -->
<g id="edge6" class="edge"><title>Node3&#45;&gt;Node4</title>
<path fill="none" stroke="midnightblue" d="M735.681,-406.708C737.344,-380.98 741.583,-311.781 743,-254 744.473,-193.954 740.065,-122.992 737.578,-89.0472"/>
<polygon fill="midnightblue" stroke="midnightblue" points="741.064,-88.7312 736.819,-79.0239 734.084,-89.2596 741.064,-88.7312"/>
</g>
<!-- Node3&#45;&gt;Node8 -->
<g id="edge14" class="edge"><title>Node3&#45;&gt;Node8</title>
<path fill="none" stroke="midnightblue" d="M704.098,-406.893C612.994,-377.096 345.475,-289.599 243.3,-256.181"/>
<polygon fill="midnightblue" stroke="midnightblue" points="244.248,-252.808 233.655,-253.026 242.072,-259.462 244.248,-252.808"/>
</g>
<!-- Node3&#45;&gt;Node12 -->
<g id="edge24" class="edge"><title>Node3&#45;&gt;Node12</title>
<path fill="none" stroke="midnightblue" d="M742.838,-406.897C749.149,-398.764 758.184,-387.118 765.765,-377.347"/>
<polygon fill="midnightblue" stroke="midnightblue" points="768.584,-379.424 771.948,-369.378 763.053,-375.133 768.584,-379.424"/>
</g>
<!-- Node4&#45;&gt;Node5 -->
<g id="edge8" class="edge"><title>Node4&#45;&gt;Node5</title>
<path fill="none" stroke="midnightblue" d="M703.436,-64.4488C634.992,-54.8832 475.135,-32.5418 385.27,-19.9823"/>
<polygon fill="midnightblue" stroke="midnightblue" points="385.589,-16.493 375.201,-18.575 384.62,-23.4256 385.589,-16.493"/>
</g>
<!-- Node6 -->
<g id="node11" class="node"><title>Node6</title>
<polygon fill="white" stroke="#bfbfbf" points="1022,-1 1022,-21 1062,-21 1062,-1 1022,-1"/>
<text text-anchor="middle" x="1042" y="-8" font-family="FreeSans" font-size="10.00">string</text>
</g>
<!-- Node4&#45;&gt;Node6 -->
<g id="edge10" class="edge"><title>Node4&#45;&gt;Node6</title>
<path fill="none" stroke="midnightblue" d="M768.747,-62.793C828.402,-51.4859 953.944,-27.6903 1011.72,-16.7386"/>
<polygon fill="midnightblue" stroke="midnightblue" points="1012.52,-20.1502 1021.69,-14.8491 1011.22,-13.2726 1012.52,-20.1502"/>
</g>
<!-- Node7 -->
<g id="node13" class="node"><title>Node7</title>
<polygon fill="white" stroke="#bfbfbf" points="712.5,-1 712.5,-21 759.5,-21 759.5,-1 712.5,-1"/>
<text text-anchor="middle" x="736" y="-8" font-family="FreeSans" font-size="10.00">stdint.h</text>
</g>
<!-- Node4&#45;&gt;Node7 -->
<g id="edge12" class="edge"><title>Node4&#45;&gt;Node7</title>
<path fill="none" stroke="midnightblue" d="M736,-58.8972C736,-51.339 736,-40.7476 736,-31.4458"/>
<polygon fill="midnightblue" stroke="midnightblue" points="739.5,-31.3776 736,-21.3776 732.5,-31.3776 739.5,-31.3776"/>
</g>
<!-- Node8&#45;&gt;Node4 -->
<g id="edge16" class="edge"><title>Node8&#45;&gt;Node4</title>
<path fill="none" stroke="midnightblue" d="M228.452,-232.885C249.153,-224.227 278.794,-210.836 303,-196 352.42,-165.71 352.633,-138.621 406,-116 456.951,-94.4029 615.958,-78.8431 693.129,-72.354"/>
<polygon fill="midnightblue" stroke="midnightblue" points="693.778,-75.8123 703.455,-71.4989 693.201,-68.8362 693.778,-75.8123"/>
</g>
<!-- Node9 -->
<g id="node18" class="node"><title>Node9</title>
<polygon fill="white" stroke="#bfbfbf" points="170,-175 170,-195 226,-195 226,-175 170,-175"/>
<text text-anchor="middle" x="198" y="-182" font-family="FreeSans" font-size="10.00">algorithm</text>
</g>
<!-- Node8&#45;&gt;Node9 -->
<g id="edge18" class="edge"><title>Node8&#45;&gt;Node9</title>
<path fill="none" stroke="midnightblue" d="M202.129,-232.897C201.478,-225.339 200.564,-214.748 199.763,-205.446"/>
<polygon fill="midnightblue" stroke="midnightblue" points="203.241,-205.04 198.895,-195.378 196.267,-205.641 203.241,-205.04"/>
</g>
<!-- Node10 -->
<g id="node20" class="node"><title>Node10</title>
<polygon fill="white" stroke="#bfbfbf" points="244,-175 244,-195 294,-195 294,-175 244,-175"/>
<text text-anchor="middle" x="269" y="-182" font-family="FreeSans" font-size="10.00">sstream</text>
</g>
<!-- Node8&#45;&gt;Node10 -->
<g id="edge20" class="edge"><title>Node8&#45;&gt;Node10</title>
<path fill="none" stroke="midnightblue" d="M214.496,-232.897C224.125,-224.435 238.081,-212.172 249.46,-202.172"/>
<polygon fill="midnightblue" stroke="midnightblue" points="251.99,-204.608 257.191,-195.378 247.369,-199.35 251.99,-204.608"/>
</g>
<!-- Node11 -->
<g id="node22" class="node"><title>Node11</title>
<polygon fill="white" stroke="#bfbfbf" points="827.5,-175 827.5,-195 870.5,-195 870.5,-175 827.5,-175"/>
<text text-anchor="middle" x="849" y="-182" font-family="FreeSans" font-size="10.00">vector</text>
</g>
<!-- Node8&#45;&gt;Node11 -->
<g id="edge22" class="edge"><title>Node8&#45;&gt;Node11</title>
<path fill="none" stroke="midnightblue" d="M264.802,-233.033C267.57,-232.667 270.313,-232.32 273,-232 480.056,-207.318 730.553,-191.735 817.488,-186.744"/>
<polygon fill="midnightblue" stroke="midnightblue" points="817.713,-190.237 827.498,-186.175 817.315,-183.249 817.713,-190.237"/>
</g>
<!-- Node12&#45;&gt;Node4 -->
<g id="edge26" class="edge"><title>Node12&#45;&gt;Node4</title>
<path fill="none" stroke="midnightblue" d="M782.189,-348.829C789.079,-314.584 808.023,-200.875 776,-116 771.802,-104.872 763.724,-94.5582 755.92,-86.4443"/>
<polygon fill="midnightblue" stroke="midnightblue" points="757.977,-83.5638 748.362,-79.115 753.104,-88.5891 757.977,-83.5638"/>
</g>
<!-- Node12&#45;&gt;Node11 -->
<g id="edge88" class="edge"><title>Node12&#45;&gt;Node11</title>
<path fill="none" stroke="midnightblue" d="M784.008,-348.893C795.108,-320.903 826.397,-241.999 841.135,-204.832"/>
<polygon fill="midnightblue" stroke="midnightblue" points="844.548,-205.721 844.981,-195.135 838.041,-203.141 844.548,-205.721"/>
</g>
<!-- Node12&#45;&gt;Node13 -->
<g id="edge28" class="edge"><title>Node12&#45;&gt;Node13</title>
<path fill="none" stroke="midnightblue" d="M749.715,-351.772C709.484,-342.169 637.809,-325.061 588.876,-313.382"/>
<polygon fill="midnightblue" stroke="midnightblue" points="589.643,-309.967 579.104,-311.05 588.018,-316.776 589.643,-309.967"/>
</g>
<!-- Node12&#45;&gt;Node14 -->
<g id="edge84" class="edge"><title>Node12&#45;&gt;Node14</title>
<path fill="none" stroke="midnightblue" d="M810.01,-355.992C842.278,-351.388 893.57,-339.952 928,-312 943.797,-299.175 954.357,-278.144 960.46,-262.666"/>
<polygon fill="midnightblue" stroke="midnightblue" points="963.844,-263.6 963.982,-253.006 957.268,-261.202 963.844,-263.6"/>
</g>
<!-- Node12&#45;&gt;Node16 -->
<g id="edge76" class="edge"><title>Node12&#45;&gt;Node16</title>
<path fill="none" stroke="midnightblue" d="M790.862,-348.893C821.718,-320.182 910.146,-237.901 948.681,-202.046"/>
<polygon fill="midnightblue" stroke="midnightblue" points="951.171,-204.509 956.108,-195.135 946.403,-199.385 951.171,-204.509"/>
</g>
<!-- Node12&#45;&gt;Node19 -->
<g id="edge86" class="edge"><title>Node12&#45;&gt;Node19</title>
<path fill="none" stroke="midnightblue" d="M772.634,-348.706C758.571,-329.051 727.728,-285.945 710.08,-261.281"/>
<polygon fill="midnightblue" stroke="midnightblue" points="712.896,-259.201 704.231,-253.106 707.203,-263.275 712.896,-259.201"/>
</g>
<!-- Node12&#45;&gt;Node20 -->
<g id="edge78" class="edge"><title>Node12&#45;&gt;Node20</title>
<path fill="none" stroke="midnightblue" d="M749.762,-357.365C695.229,-353.731 577.31,-342.723 483,-312 462.589,-305.351 459.536,-298.899 440,-290 413.506,-277.931 382.961,-265.717 359.725,-256.765"/>
<polygon fill="midnightblue" stroke="midnightblue" points="360.838,-253.444 350.248,-253.139 358.337,-259.982 360.838,-253.444"/>
</g>
<!-- Node12&#45;&gt;Node25 -->
<g id="edge80" class="edge"><title>Node12&#45;&gt;Node25</title>
<path fill="none" stroke="midnightblue" d="M810.038,-353.173C858.324,-343.807 954.188,-325.211 1017.45,-312.94"/>
<polygon fill="midnightblue" stroke="midnightblue" points="1018.16,-316.367 1027.31,-311.027 1016.83,-309.495 1018.16,-316.367"/>
</g>
<!-- Node13&#45;&gt;Node4 -->
<g id="edge30" class="edge"><title>Node13&#45;&gt;Node4</title>
<path fill="none" stroke="midnightblue" d="M510.678,-290.867C484.517,-279.089 450.025,-257.917 463,-232 508.273,-141.572 628.556,-97.0935 693.307,-79.1095"/>
<polygon fill="midnightblue" stroke="midnightblue" points="694.455,-82.4252 703.203,-76.4476 692.637,-75.6655 694.455,-82.4252"/>
</g>
<!-- Node13&#45;&gt;Node8 -->
<g id="edge32" class="edge"><title>Node13&#45;&gt;Node8</title>
<path fill="none" stroke="midnightblue" d="M491.955,-293.178C435.048,-283.296 336.598,-266.2 270.64,-254.746"/>
<polygon fill="midnightblue" stroke="midnightblue" points="271.201,-251.291 260.749,-253.028 270.003,-258.188 271.201,-251.291"/>
</g>
<!-- Node13&#45;&gt;Node14 -->
<g id="edge34" class="edge"><title>Node13&#45;&gt;Node14</title>
<path fill="none" stroke="midnightblue" d="M582.205,-294.903C668.082,-283.319 853.188,-258.351 931.186,-247.831"/>
<polygon fill="midnightblue" stroke="midnightblue" points="932.018,-251.25 941.46,-246.445 931.082,-244.313 932.018,-251.25"/>
</g>
<!-- Node13&#45;&gt;Node15 -->
<g id="edge56" class="edge"><title>Node13&#45;&gt;Node15</title>
<path fill="none" stroke="midnightblue" d="M549.386,-290.855C569.364,-275.134 610.568,-245.313 651,-232 694.297,-217.744 995.463,-196.17 1113.6,-188.149"/>
<polygon fill="midnightblue" stroke="midnightblue" points="1114.04,-191.627 1123.79,-187.46 1113.57,-184.643 1114.04,-191.627"/>
</g>
<!-- Node13&#45;&gt;Node19 -->
<g id="edge52" class="edge"><title>Node13&#45;&gt;Node19</title>
<path fill="none" stroke="midnightblue" d="M564.87,-290.897C591.059,-281.403 630.451,-267.124 659.412,-256.626"/>
<polygon fill="midnightblue" stroke="midnightblue" points="660.973,-259.783 669.182,-253.084 658.587,-253.202 660.973,-259.783"/>
</g>
<!-- Node13&#45;&gt;Node20 -->
<g id="edge58" class="edge"><title>Node13&#45;&gt;Node20</title>
<path fill="none" stroke="midnightblue" d="M499.724,-290.897C463.778,-281.155 409.236,-266.372 370.259,-255.809"/>
<polygon fill="midnightblue" stroke="midnightblue" points="370.775,-252.322 360.207,-253.084 368.943,-259.078 370.775,-252.322"/>
</g>
<!-- Node13&#45;&gt;Node21 -->
<g id="edge64" class="edge"><title>Node13&#45;&gt;Node21</title>
<path fill="none" stroke="midnightblue" d="M491.966,-298.682C392.188,-293.136 159.226,-277.768 133,-254 119.697,-241.944 116.705,-221.099 116.581,-205.468"/>
<polygon fill="midnightblue" stroke="midnightblue" points="120.088,-205.309 116.891,-195.207 113.091,-205.097 120.088,-205.309"/>
</g>
<!-- Node22 -->
<g id="node57" class="node"><title>Node22</title>
<polygon fill="white" stroke="#bfbfbf" points="381.5,-233 381.5,-253 416.5,-253 416.5,-233 381.5,-233"/>
<text text-anchor="middle" x="399" y="-240" font-family="FreeSans" font-size="10.00">map</text>
</g>
<!-- Node13&#45;&gt;Node22 -->
<g id="edge70" class="edge"><title>Node13&#45;&gt;Node22</title>
<path fill="none" stroke="midnightblue" d="M512.962,-290.897C488.693,-280.697 451.278,-264.972 426.001,-254.348"/>
<polygon fill="midnightblue" stroke="midnightblue" points="427.211,-251.06 416.636,-250.412 424.498,-257.513 427.211,-251.06"/>
</g>
<!-- Node23 -->
<g id="node59" class="node"><title>Node23</title>
<polygon fill="white" stroke="#bfbfbf" points="471.5,-233 471.5,-253 500.5,-253 500.5,-233 471.5,-233"/>
<text text-anchor="middle" x="486" y="-240" font-family="FreeSans" font-size="10.00">set</text>
</g>
<!-- Node13&#45;&gt;Node23 -->
<g id="edge72" class="edge"><title>Node13&#45;&gt;Node23</title>
<path fill="none" stroke="midnightblue" d="M528.116,-290.897C520.893,-282.682 510.518,-270.883 501.873,-261.051"/>
<polygon fill="midnightblue" stroke="midnightblue" points="504.357,-258.576 495.125,-253.378 499.1,-263.199 504.357,-258.576"/>
</g>
<!-- Node24 -->
<g id="node61" class="node"><title>Node24</title>
<polygon fill="white" stroke="#bfbfbf" points="517.5,-233 517.5,-253 566.5,-253 566.5,-233 517.5,-233"/>
<text text-anchor="middle" x="542" y="-240" font-family="FreeSans" font-size="10.00">fstream</text>
</g>
<!-- Node13&#45;&gt;Node24 -->
<g id="edge74" class="edge"><title>Node13&#45;&gt;Node24</title>
<path fill="none" stroke="midnightblue" d="M537.871,-290.897C538.522,-283.339 539.436,-272.748 540.237,-263.446"/>
<polygon fill="midnightblue" stroke="midnightblue" points="543.733,-263.641 541.105,-253.378 536.759,-263.04 543.733,-263.641"/>
</g>
<!-- Node14&#45;&gt;Node11 -->
<g id="edge50" class="edge"><title>Node14&#45;&gt;Node11</title>
<path fill="none" stroke="midnightblue" d="M946.446,-232.897C927.779,-223.722 900.017,-210.076 878.895,-199.694"/>
<polygon fill="midnightblue" stroke="midnightblue" points="880.233,-196.452 869.714,-195.182 877.145,-202.734 880.233,-196.452"/>
</g>
<!-- Node14&#45;&gt;Node15 -->
<g id="edge36" class="edge"><title>Node14&#45;&gt;Node15</title>
<path fill="none" stroke="midnightblue" d="M992.762,-235.298C1024.55,-225.794 1079.1,-209.487 1117.44,-198.023"/>
<polygon fill="midnightblue" stroke="midnightblue" points="1118.73,-201.292 1127.3,-195.074 1116.72,-194.585 1118.73,-201.292"/>
</g>
<!-- Node14&#45;&gt;Node16 -->
<g id="edge40" class="edge"><title>Node14&#45;&gt;Node16</title>
<path fill="none" stroke="midnightblue" d="M967,-232.897C967,-225.339 967,-214.748 967,-205.446"/>
<polygon fill="midnightblue" stroke="midnightblue" points="970.5,-205.378 967,-195.378 963.5,-205.378 970.5,-205.378"/>
</g>
<!-- Node18 -->
<g id="node42" class="node"><title>Node18</title>
<polygon fill="white" stroke="#bfbfbf" points="1215.5,-175 1215.5,-195 1266.5,-195 1266.5,-175 1215.5,-175"/>
<text text-anchor="middle" x="1241" y="-182" font-family="FreeSans" font-size="10.00">ostream</text>
</g>
<!-- Node14&#45;&gt;Node18 -->
<g id="edge48" class="edge"><title>Node14&#45;&gt;Node18</title>
<path fill="none" stroke="midnightblue" d="M992.8,-238.988C1035.32,-232.153 1122.92,-217.14 1205.67,-196.141"/>
<polygon fill="midnightblue" stroke="midnightblue" points="1206.66,-199.501 1215.48,-193.619 1204.92,-192.721 1206.66,-199.501"/>
</g>
<!-- Node15&#45;&gt;Node4 -->
<g id="edge38" class="edge"><title>Node15&#45;&gt;Node4</title>
<path fill="none" stroke="midnightblue" d="M1156.78,-174.982C1149.65,-159.435 1133.65,-129.848 1110,-116 1054.63,-83.5863 864.685,-73.2535 778.788,-70.1921"/>
<polygon fill="midnightblue" stroke="midnightblue" points="778.713,-66.6877 768.6,-69.8459 778.475,-73.6836 778.713,-66.6877"/>
</g>
<!-- Node16&#45;&gt;Node6 -->
<g id="edge46" class="edge"><title>Node16&#45;&gt;Node6</title>
<path fill="none" stroke="midnightblue" d="M971.356,-174.893C983.473,-146.783 1017.72,-67.3207 1033.66,-30.356"/>
<polygon fill="midnightblue" stroke="midnightblue" points="1036.89,-31.7036 1037.63,-21.135 1030.46,-28.9328 1036.89,-31.7036"/>
</g>
<!-- Node16&#45;&gt;Node17 -->
<g id="edge42" class="edge"><title>Node16&#45;&gt;Node17</title>
<path fill="none" stroke="midnightblue" d="M941.622,-181.489C924.062,-179.143 900.142,-176.111 879,-174 670.377,-153.167 421.923,-137.173 310.372,-130.458"/>
<polygon fill="midnightblue" stroke="midnightblue" points="310.522,-126.96 300.331,-129.856 310.103,-133.948 310.522,-126.96"/>
</g>
<!-- Node17&#45;&gt;Node4 -->
<g id="edge44" class="edge"><title>Node17&#45;&gt;Node4</title>
<path fill="none" stroke="midnightblue" d="M300.414,-120.231C311.152,-118.799 322.453,-117.322 333,-116 464.067,-99.5673 619.363,-81.9893 693.06,-73.7617"/>
<polygon fill="midnightblue" stroke="midnightblue" points="693.778,-77.2034 703.329,-72.6169 693.002,-70.2465 693.778,-77.2034"/>
</g>
<!-- Node19&#45;&gt;Node4 -->
<g id="edge54" class="edge"><title>Node19&#45;&gt;Node4</title>
<path fill="none" stroke="midnightblue" d="M699.265,-232.893C705.512,-205.023 723.073,-126.675 731.447,-89.3131"/>
<polygon fill="midnightblue" stroke="midnightblue" points="734.956,-89.6584 733.728,-79.135 728.126,-88.1273 734.956,-89.6584"/>
</g>
<!-- Node20&#45;&gt;Node4 -->
<g id="edge62" class="edge"><title>Node20&#45;&gt;Node4</title>
<path fill="none" stroke="midnightblue" d="M331.142,-232.952C354.98,-203.584 423.369,-119.722 430,-116 474.28,-91.1423 619.905,-77.3741 693.143,-71.8675"/>
<polygon fill="midnightblue" stroke="midnightblue" points="693.685,-75.3372 703.402,-71.1147 693.173,-68.356 693.685,-75.3372"/>
</g>
<!-- Node20&#45;&gt;Node11 -->
<g id="edge60" class="edge"><title>Node20&#45;&gt;Node11</title>
<path fill="none" stroke="midnightblue" d="M364.672,-233.446C367.483,-232.921 370.279,-232.432 373,-232 539.057,-205.63 740.204,-191.572 817.055,-186.846"/>
<polygon fill="midnightblue" stroke="midnightblue" points="817.287,-190.339 827.058,-186.241 816.865,-183.352 817.287,-190.339"/>
</g>
<!-- Node21&#45;&gt;Node4 -->
<g id="edge66" class="edge"><title>Node21&#45;&gt;Node4</title>
<path fill="none" stroke="midnightblue" d="M125.391,-174.811C137.497,-159.03 163.209,-129.127 193,-116 238.336,-96.0229 572.903,-77.2764 693.129,-71.117"/>
<polygon fill="midnightblue" stroke="midnightblue" points="693.606,-74.5973 703.415,-70.594 693.25,-67.6064 693.606,-74.5973"/>
</g>
<!-- Node21&#45;&gt;Node17 -->
<g id="edge68" class="edge"><title>Node21&#45;&gt;Node17</title>
<path fill="none" stroke="midnightblue" d="M141.167,-174.897C162.491,-165.598 194.345,-151.707 218.265,-141.275"/>
<polygon fill="midnightblue" stroke="midnightblue" points="219.885,-144.387 227.652,-137.182 217.087,-137.971 219.885,-144.387"/>
</g>
<!-- Node25&#45;&gt;Node4 -->
<g id="edge82" class="edge"><title>Node25&#45;&gt;Node4</title>
<path fill="none" stroke="midnightblue" d="M1082.5,-290.964C1092.5,-260.25 1117.68,-166.556 1072,-116 1052.6,-94.5257 864.92,-78.3206 778.803,-71.9524"/>
<polygon fill="midnightblue" stroke="midnightblue" points="778.805,-68.4433 768.577,-71.2072 778.296,-75.4248 778.805,-68.4433"/>
</g>
<!-- Node26&#45;&gt;Node4 -->
<g id="edge106" class="edge"><title>Node26&#45;&gt;Node4</title>
<path fill="none" stroke="midnightblue" d="M953.153,-406.827C969.572,-365.879 1027.79,-213.433 1001,-174 950.918,-100.287 840.165,-78.3223 778.88,-71.7776"/>
<polygon fill="midnightblue" stroke="midnightblue" points="779.055,-68.2781 768.762,-70.7896 778.374,-75.245 779.055,-68.2781"/>
</g>
<!-- Node26&#45;&gt;Node11 -->
<g id="edge112" class="edge"><title>Node26&#45;&gt;Node11</title>
<path fill="none" stroke="midnightblue" d="M944.574,-406.732C929.182,-371.023 877.82,-251.862 857.438,-204.577"/>
<polygon fill="midnightblue" stroke="midnightblue" points="860.547,-202.947 853.375,-195.15 854.119,-205.718 860.547,-202.947"/>
</g>
<!-- Node26&#45;&gt;Node12 -->
<g id="edge108" class="edge"><title>Node26&#45;&gt;Node12</title>
<path fill="none" stroke="midnightblue" d="M919.562,-406.897C891.658,-397.321 849.564,-382.874 818.904,-372.352"/>
<polygon fill="midnightblue" stroke="midnightblue" points="819.978,-369.02 809.383,-369.084 817.706,-375.641 819.978,-369.02"/>
</g>
<!-- Node26&#45;&gt;Node19 -->
<g id="edge110" class="edge"><title>Node26&#45;&gt;Node19</title>
<path fill="none" stroke="midnightblue" d="M928.073,-406.888C910.106,-397.928 883.745,-384.112 862,-370 806.843,-334.205 746.765,-285.159 716.607,-259.765"/>
<polygon fill="midnightblue" stroke="midnightblue" points="718.817,-257.05 708.923,-253.26 714.294,-262.393 718.817,-257.05"/>
</g>
<!-- Node27&#45;&gt;Node4 -->
<g id="edge116" class="edge"><title>Node27&#45;&gt;Node4</title>
<path fill="none" stroke="midnightblue" d="M1291.38,-232.837C1291.39,-218.15 1289.29,-190.906 1275,-174 1231.79,-122.874 1200.76,-132.959 1136,-116 1008.99,-82.7389 853.11,-72.9849 779.035,-70.1482"/>
<polygon fill="midnightblue" stroke="midnightblue" points="778.831,-66.6387 768.712,-69.7779 778.58,-73.6342 778.831,-66.6387"/>
</g>
<!-- Node27&#45;&gt;Node15 -->
<g id="edge118" class="edge"><title>Node27&#45;&gt;Node15</title>
<path fill="none" stroke="midnightblue" d="M1268.36,-232.897C1247.51,-223.598 1216.38,-209.707 1193,-199.275"/>
<polygon fill="midnightblue" stroke="midnightblue" points="1194.38,-196.06 1183.82,-195.182 1191.53,-202.452 1194.38,-196.06"/>
</g>
<!-- Node27&#45;&gt;Node18 -->
<g id="edge120" class="edge"><title>Node27&#45;&gt;Node18</title>
<path fill="none" stroke="midnightblue" d="M1282.29,-232.897C1275.21,-224.682 1265.04,-212.883 1256.56,-203.051"/>
<polygon fill="midnightblue" stroke="midnightblue" points="1259.13,-200.666 1249.95,-195.378 1253.82,-205.237 1259.13,-200.666"/>
</g>
<!-- Node28&#45;&gt;Node4 -->
<g id="edge124" class="edge"><title>Node28&#45;&gt;Node4</title>
<path fill="none" stroke="midnightblue" d="M590.885,-406.77C598.996,-378.459 623.229,-296.879 651,-232 674.018,-178.225 707.646,-117.9 724.893,-87.9676"/>
<polygon fill="midnightblue" stroke="midnightblue" points="728.084,-89.4413 730.075,-79.0352 722.029,-85.9287 728.084,-89.4413"/>
</g>
<!-- Node28&#45;&gt;Node8 -->
<g id="edge126" class="edge"><title>Node28&#45;&gt;Node8</title>
<path fill="none" stroke="midnightblue" d="M565.637,-406.893C500.515,-377.461 310.836,-291.736 234.938,-257.435"/>
<polygon fill="midnightblue" stroke="midnightblue" points="235.979,-254.064 225.425,-253.135 233.096,-260.443 235.979,-254.064"/>
</g>
<!-- Node28&#45;&gt;Node12 -->
<g id="edge128" class="edge"><title>Node28&#45;&gt;Node12</title>
<path fill="none" stroke="midnightblue" d="M620.57,-407.161C653.484,-397.219 704.402,-381.837 739.806,-371.142"/>
<polygon fill="midnightblue" stroke="midnightblue" points="741.245,-374.364 749.805,-368.121 739.22,-367.663 741.245,-374.364"/>
</g>
</g>
</svg>
