<?xml version="1.0" encoding="UTF-8" standalone="no"?>
<!DOCTYPE svg PUBLIC "-//W3C//DTD SVG 1.1//EN"
 "http://www.w3.org/Graphics/SVG/1.1/DTD/svg11.dtd">
<!-- Generated by graphviz version 2.26.3 (20100126.1600)
 -->
<!-- Title: G Pages: 1 -->
<!--zoomable 392 -->
<svg id="main" version="1.1" xmlns="http://www.w3.org/2000/svg" xmlns:xlink="http://www.w3.org/1999/xlink" xml:space="preserve" onload="init(evt)">
        <defs>
                <circle id="rim" cx="0" cy="0" r="7"/>
                <circle id="rim2" cx="0" cy="0" r="3.5"/>
                <g id="zoomPlus">
                        <use xlink:href="#rim" fill="#404040">
                                <set attributeName="fill" to="#808080" begin="zoomplus.mouseover" end="zoomplus.mouseout"/>
                        </use>
                        <path d="M-4,0h8M0,-4v8" fill="none" stroke="white" stroke-width="1.5" pointer-events="none"/>
                </g>
                <g id="zoomMin">
                        <use xlink:href="#rim" fill="#404040">
                                <set attributeName="fill" to="#808080" begin="zoomminus.mouseover" end="zoomminus.mouseout"/>
                        </use>
                        <path d="M-4,0h8" fill="none" stroke="white" stroke-width="1.5" pointer-events="none"/>
                </g>
                <g id="dirArrow">
                        <path fill="none" stroke="white" stroke-width="1.5" d="M0,-3.0v7 M-2.5,-0.5L0,-3.0L2.5,-0.5"/>
                </g>
               <g id="resetDef">
                       <use xlink:href="#rim2" fill="#404040">
                               <set attributeName="fill" to="#808080" begin="reset.mouseover" end="reset.mouseout"/>
                       </use>
               </g>
        </defs>

<script type="text/javascript">
var viewWidth = 1397;
var viewHeight = 392;
var sectionId = 'dynsection-1';
</script>
<script xlink:href="svgpan.js"/>
<svg id="graph" class="graph">
<g id="viewport">
<title>G</title>
<polygon fill="white" stroke="white" points="-4,5 -4,-388 1394,-388 1394,5 -4,5"/>
<!-- Node1 -->
<g id="node1" class="node"><title>Node1</title>
<polygon fill="#bfbfbf" stroke="black" points="828,-361 828,-383 896,-383 896,-361 828,-361"/>
<text text-anchor="middle" x="862" y="-370" font-family="FreeSans" font-size="10.00">datatypes.h</text>
</g>
<!-- Node2 -->
<g id="node3" class="node"><title>Node2</title>
<a xlink:href="monopoly_8h.html" target="_top" xlink:title="Contains an interface for a kind of WorkUnit that consumes time on multiple thread.">
<polygon fill="white" stroke="black" points="175,-61 175,-83 243,-83 243,-61 175,-61"/>
<text text-anchor="middle" x="209" y="-70" font-family="FreeSans" font-size="10.00">monopoly.h</text>
</a>
</g>
<!-- Node1&#45;&gt;Node2 -->
<g id="edge2" class="edge"><title>Node1&#45;&gt;Node2</title>
<path fill="none" stroke="midnightblue" d="M817.639,-369.783C710.078,-364.095 437.783,-347.744 350,-324 276.677,-304.167 195,-327.958 195,-252 195,-252 195,-252 195,-192 195,-151.729 202.875,-104.364 206.812,-83.1991"/>
<polygon fill="midnightblue" stroke="midnightblue" points="817.655,-373.288 827.824,-370.315 818.02,-366.298 817.655,-373.288"/>
</g>
<!-- Node4 -->
<g id="node7" class="node"><title>Node4</title>
<a xlink:href="dagframescheduler_8h.html" target="_top" xlink:title="This is the file that code using this library should include. It includes all the required components...">
<polygon fill="white" stroke="black" points="635,-1 635,-23 747,-23 747,-1 635,-1"/>
<text text-anchor="middle" x="691" y="-10" font-family="FreeSans" font-size="10.00">dagframescheduler.h</text>
</a>
</g>
<!-- Node1&#45;&gt;Node4 -->
<g id="edge92" class="edge"><title>Node1&#45;&gt;Node4</title>
<path fill="none" stroke="midnightblue" d="M817.724,-368.787C712.311,-360.078 451.691,-331.949 404,-264 336.198,-167.398 471.196,-117.969 574,-60 601.061,-44.7408 633.952,-31.6855 657.961,-23.0596"/>
<polygon fill="midnightblue" stroke="midnightblue" points="817.476,-372.278 827.725,-369.593 818.038,-365.301 817.476,-372.278"/>
</g>
<!-- Node7 -->
<g id="node13" class="node"><title>Node7</title>
<a xlink:href="doublebufferedresource_8h.html" target="_top" xlink:title="This file defines the template double buffered resources that can be attached to a thread...">
<polygon fill="white" stroke="black" points="412.5,-241 412.5,-263 543.5,-263 543.5,-241 412.5,-241"/>
<text text-anchor="middle" x="478" y="-250" font-family="FreeSans" font-size="10.00">doublebufferedresource.h</text>
</a>
</g>
<!-- Node1&#45;&gt;Node7 -->
<g id="edge12" class="edge"><title>Node1&#45;&gt;Node7</title>
<path fill="none" stroke="midnightblue" d="M817.999,-366.094C770.718,-359.014 693.768,-345.359 630,-324 580.439,-307.4 525.872,-278.813 497.53,-263.118"/>
<polygon fill="midnightblue" stroke="midnightblue" points="817.509,-369.56 827.911,-367.547 818.524,-362.634 817.509,-369.56"/>
</g>
<!-- Node8 -->
<g id="node16" class="node"><title>Node8</title>
<a xlink:href="framescheduler_8h.html" target="_top" xlink:title="This file has the Declarations for the main FrameScheduler class.">
<polygon fill="white" stroke="black" points="853,-181 853,-203 947,-203 947,-181 853,-181"/>
<text text-anchor="middle" x="900" y="-190" font-family="FreeSans" font-size="10.00">framescheduler.h</text>
</a>
</g>
<!-- Node1&#45;&gt;Node8 -->
<g id="edge52" class="edge"><title>Node1&#45;&gt;Node8</title>
<path fill="none" stroke="midnightblue" d="M866.507,-350.65C874.62,-312.221 891.414,-232.672 897.624,-203.256"/>
<polygon fill="midnightblue" stroke="midnightblue" points="863.018,-350.233 864.377,-360.74 869.867,-351.679 863.018,-350.233"/>
</g>
<!-- Node9 -->
<g id="node18" class="node"><title>Node9</title>
<a xlink:href="workunit_8h.html" target="_top" xlink:title="This file has the defintion of the workunit.">
<polygon fill="white" stroke="black" points="728.5,-121 728.5,-143 789.5,-143 789.5,-121 728.5,-121"/>
<text text-anchor="middle" x="759" y="-130" font-family="FreeSans" font-size="10.00">workunit.h</text>
</a>
</g>
<!-- Node1&#45;&gt;Node9 -->
<g id="edge50" class="edge"><title>Node1&#45;&gt;Node9</title>
<path fill="none" stroke="midnightblue" d="M859.266,-350.777C853.791,-313.89 839.05,-236.494 806,-180 797.519,-165.504 783.708,-152.128 773.247,-143.199"/>
<polygon fill="midnightblue" stroke="midnightblue" points="855.825,-351.438 860.678,-360.856 862.757,-350.467 855.825,-351.438"/>
</g>
<!-- Node10 -->
<g id="node21" class="node"><title>Node10</title>
<a xlink:href="asynchronousworkunit_8h.html" target="_top" xlink:title="Contains an interface for a kind of WorkUnit that loads or writes a.">
<polygon fill="white" stroke="black" points="718.5,-61 718.5,-83 841.5,-83 841.5,-61 718.5,-61"/>
<text text-anchor="middle" x="780" y="-70" font-family="FreeSans" font-size="10.00">asynchronousworkunit.h</text>
</a>
</g>
<!-- Node1&#45;&gt;Node10 -->
<g id="edge74" class="edge"><title>Node1&#45;&gt;Node10</title>
<path fill="none" stroke="midnightblue" d="M882.953,-353.899C920.198,-319.449 990.88,-242.328 956,-180 926.675,-127.599 860.378,-97.5345 818.045,-83.01"/>
<polygon fill="midnightblue" stroke="midnightblue" points="880.212,-351.659 875.137,-360.959 884.904,-356.854 880.212,-351.659"/>
</g>
<!-- Node11 -->
<g id="node24" class="node"><title>Node11</title>
<a xlink:href="frameschedulerworkunits_8h.html" target="_top" xlink:title="This defines a number of workunits that are required for doing some tasks that the Framescheduler req...">
<polygon fill="white" stroke="black" points="375,-61 375,-83 511,-83 511,-61 375,-61"/>
<text text-anchor="middle" x="443" y="-70" font-family="FreeSans" font-size="10.00">frameschedulerworkunits.h</text>
</a>
</g>
<!-- Node1&#45;&gt;Node11 -->
<g id="edge94" class="edge"><title>Node1&#45;&gt;Node11</title>
<path fill="none" stroke="midnightblue" d="M817.446,-370.986C702.117,-367.903 400.713,-356.76 371,-324 309.595,-256.299 346.413,-196.125 397,-120 406.327,-105.965 419.977,-92.3261 429.986,-83.1968"/>
<polygon fill="midnightblue" stroke="midnightblue" points="817.601,-374.491 827.689,-371.252 817.783,-367.493 817.601,-374.491"/>
</g>
<!-- Node14 -->
<g id="node41" class="node"><title>Node14</title>
<a xlink:href="systemcalls_8h.html" target="_top" xlink:title="This file defines a minimalistic cross&#45;platform thread that the scheduler uses to schedule tasks...">
<polygon fill="white" stroke="black" points="1141.5,-301 1141.5,-323 1218.5,-323 1218.5,-301 1141.5,-301"/>
<text text-anchor="middle" x="1180" y="-310" font-family="FreeSans" font-size="10.00">systemcalls.h</text>
</a>
</g>
<!-- Node1&#45;&gt;Node14 -->
<g id="edge54" class="edge"><title>Node1&#45;&gt;Node14</title>
<path fill="none" stroke="midnightblue" d="M906.282,-365.199C960.104,-356.692 1053.58,-341.147 1133,-324 1135.72,-323.413 1138.51,-322.779 1141.33,-322.118"/>
<polygon fill="midnightblue" stroke="midnightblue" points="905.719,-361.744 896.384,-366.754 906.806,-368.659 905.719,-361.744"/>
</g>
<!-- Node17 -->
<g id="node52" class="node"><title>Node17</title>
<a xlink:href="systemcalls_8cpp.html" target="_top" xlink:title="This file defines some time&#45;tracking functions.">
<polygon fill="white" stroke="black" points="1235,-241 1235,-263 1323,-263 1323,-241 1235,-241"/>
<text text-anchor="middle" x="1279" y="-250" font-family="FreeSans" font-size="10.00">systemcalls.cpp</text>
</a>
</g>
<!-- Node1&#45;&gt;Node17 -->
<g id="edge112" class="edge"><title>Node1&#45;&gt;Node17</title>
<path fill="none" stroke="midnightblue" d="M906.289,-370.516C991.315,-366.971 1173.72,-355.795 1227,-324 1250.97,-309.698 1267.04,-279.628 1274.4,-263.236"/>
<polygon fill="midnightblue" stroke="midnightblue" points="906.027,-367.024 896.175,-370.921 906.307,-374.018 906.027,-367.024"/>
</g>
<!-- Node18 -->
<g id="node56" class="node"><title>Node18</title>
<a xlink:href="atomicoperations_8cpp.html" target="_top" xlink:title="The implemenation of Simple thread safe ways to check and change a specified variable atomically...">
<polygon fill="white" stroke="black" points="1012,-301 1012,-323 1124,-323 1124,-301 1012,-301"/>
<text text-anchor="middle" x="1068" y="-310" font-family="FreeSans" font-size="10.00">atomicoperations.cpp</text>
</a>
</g>
<!-- Node1&#45;&gt;Node18 -->
<g id="edge76" class="edge"><title>Node1&#45;&gt;Node18</title>
<path fill="none" stroke="midnightblue" d="M905.991,-359.187C942.881,-348.442 995.012,-333.259 1030.09,-323.043"/>
<polygon fill="midnightblue" stroke="midnightblue" points="904.639,-355.935 896.017,-362.092 906.597,-362.656 904.639,-355.935"/>
</g>
<!-- Node19 -->
<g id="node58" class="node"><title>Node19</title>
<a xlink:href="atomicoperations_8h.html" target="_top" xlink:title="Simple thread safe ways to check and change a specified variable atomically.">
<polygon fill="white" stroke="black" points="1241.5,-121 1241.5,-143 1342.5,-143 1342.5,-121 1241.5,-121"/>
<text text-anchor="middle" x="1292" y="-130" font-family="FreeSans" font-size="10.00">atomicoperations.h</text>
</a>
</g>
<!-- Node1&#45;&gt;Node19 -->
<g id="edge78" class="edge"><title>Node1&#45;&gt;Node19</title>
<path fill="none" stroke="midnightblue" d="M906.147,-369.482C994.715,-363.959 1190.91,-349.223 1253,-324 1293.85,-307.407 1312.4,-303.494 1332,-264 1352.97,-221.743 1317.98,-166.355 1300.74,-143.069"/>
<polygon fill="midnightblue" stroke="midnightblue" points="905.915,-365.989 896.148,-370.095 906.344,-372.976 905.915,-365.989"/>
</g>
<!-- Node20 -->
<g id="node60" class="node"><title>Node20</title>
<a xlink:href="barrier_8h.html" target="_top" xlink:title="The declaration of the Mezzanine::Threading::Barrier Barrier synchronization primitive.">
<polygon fill="white" stroke="black" points="1272.5,-61 1272.5,-83 1325.5,-83 1325.5,-61 1272.5,-61"/>
<text text-anchor="middle" x="1299" y="-70" font-family="FreeSans" font-size="10.00">barrier.h</text>
</a>
</g>
<!-- Node1&#45;&gt;Node20 -->
<g id="edge90" class="edge"><title>Node1&#45;&gt;Node20</title>
<path fill="none" stroke="midnightblue" d="M906.406,-369.976C1001.64,-365.163 1222.52,-351.337 1292,-324 1341.96,-304.342 1389,-305.69 1389,-252 1389,-252 1389,-252 1389,-192 1389,-143.562 1341.49,-102.164 1315.51,-83.1451"/>
<polygon fill="midnightblue" stroke="midnightblue" points="906.054,-366.489 896.24,-370.48 906.401,-373.481 906.054,-366.489"/>
</g>
<!-- Node22 -->
<g id="node70" class="node"><title>Node22</title>
<a xlink:href="rollingaverage_8h.html" target="_top" xlink:title="This Store the implementation and the declaration of the RollingAverage, BufferedRollingAverage, WeightedRollingAverage and the DefaultRollingAverage.">
<polygon fill="white" stroke="black" points="488.5,-181 488.5,-203 577.5,-203 577.5,-181 488.5,-181"/>
<text text-anchor="middle" x="533" y="-190" font-family="FreeSans" font-size="10.00">rollingaverage.h</text>
</a>
</g>
<!-- Node1&#45;&gt;Node22 -->
<g id="edge96" class="edge"><title>Node1&#45;&gt;Node22</title>
<path fill="none" stroke="midnightblue" d="M832.382,-355.795C766.469,-319.734 609.087,-233.628 553.153,-203.026"/>
<polygon fill="midnightblue" stroke="midnightblue" points="830.967,-359.011 841.42,-360.74 834.327,-352.87 830.967,-359.011"/>
</g>
<!-- Node23 -->
<g id="node74" class="node"><title>Node23</title>
<a xlink:href="workunitkey_8h.html" target="_top" xlink:title="This file defines the metadata used to sort workunits.">
<polygon fill="white" stroke="black" points="714.5,-241 714.5,-263 791.5,-263 791.5,-241 714.5,-241"/>
<text text-anchor="middle" x="753" y="-250" font-family="FreeSans" font-size="10.00">workunitkey.h</text>
</a>
</g>
<!-- Node1&#45;&gt;Node23 -->
<g id="edge102" class="edge"><title>Node1&#45;&gt;Node23</title>
<path fill="none" stroke="midnightblue" d="M841.429,-353.836C831.878,-345.106 820.551,-334.316 811,-324 792.026,-303.506 772.05,-277.609 761.2,-263.121"/>
<polygon fill="midnightblue" stroke="midnightblue" points="839.187,-356.527 848.956,-360.63 843.877,-351.331 839.187,-356.527"/>
</g>
<!-- Node3 -->
<g id="node5" class="node"><title>Node3</title>
<a xlink:href="asynchronousworkunit_8cpp.html" target="_top" xlink:title="Contains the minimal implementation for the monopoly base class.">
<polygon fill="white" stroke="black" points="0,-1 0,-23 134,-23 134,-1 0,-1"/>
<text text-anchor="middle" x="67" y="-10" font-family="FreeSans" font-size="10.00">asynchronousworkunit.cpp</text>
</a>
</g>
<!-- Node2&#45;&gt;Node3 -->
<g id="edge4" class="edge"><title>Node2&#45;&gt;Node3</title>
<path fill="none" stroke="midnightblue" d="M173.506,-57.0025C148.634,-46.4931 115.933,-32.676 93.3608,-23.1383"/>
<polygon fill="midnightblue" stroke="midnightblue" points="172.381,-60.3269 182.955,-60.9951 175.106,-53.8788 172.381,-60.3269"/>
</g>
<!-- Node2&#45;&gt;Node4 -->
<g id="edge6" class="edge"><title>Node2&#45;&gt;Node4</title>
<path fill="none" stroke="midnightblue" d="M253.203,-66.4975C341.183,-55.5457 538.062,-31.0379 634.955,-18.9765"/>
<polygon fill="midnightblue" stroke="midnightblue" points="252.769,-63.0245 243.278,-67.733 253.634,-69.9709 252.769,-63.0245"/>
</g>
<!-- Node5 -->
<g id="node9" class="node"><title>Node5</title>
<a xlink:href="framescheduler_8cpp.html" target="_top" xlink:title="This is the core object implementation for this algorithm.">
<polygon fill="white" stroke="black" points="248,-1 248,-23 352,-23 352,-1 248,-1"/>
<text text-anchor="middle" x="300" y="-10" font-family="FreeSans" font-size="10.00">framescheduler.cpp</text>
</a>
</g>
<!-- Node2&#45;&gt;Node5 -->
<g id="edge8" class="edge"><title>Node2&#45;&gt;Node5</title>
<path fill="none" stroke="midnightblue" d="M234.326,-55.3016C249.893,-45.0379 269.409,-32.1696 283.107,-23.1383"/>
<polygon fill="midnightblue" stroke="midnightblue" points="232.113,-52.5684 225.691,-60.9951 235.966,-58.4125 232.113,-52.5684"/>
</g>
<!-- Node6 -->
<g id="node11" class="node"><title>Node6</title>
<a xlink:href="monopoly_8cpp.html" target="_top" xlink:title="Contains the minimal implementation for the monopoly base class.">
<polygon fill="white" stroke="black" points="151.5,-1 151.5,-23 230.5,-23 230.5,-1 151.5,-1"/>
<text text-anchor="middle" x="191" y="-10" font-family="FreeSans" font-size="10.00">monopoly.cpp</text>
</a>
</g>
<!-- Node2&#45;&gt;Node6 -->
<g id="edge10" class="edge"><title>Node2&#45;&gt;Node6</title>
<path fill="none" stroke="midnightblue" d="M202.766,-51.2204C199.961,-41.8686 196.758,-31.1926 194.403,-23.3428"/>
<polygon fill="midnightblue" stroke="midnightblue" points="199.473,-52.4226 205.699,-60.9951 206.177,-50.4111 199.473,-52.4226"/>
</g>
<!-- Node7&#45;&gt;Node2 -->
<g id="edge14" class="edge"><title>Node7&#45;&gt;Node2</title>
<path fill="none" stroke="midnightblue" d="M407.368,-238.936C363.909,-229.868 313.164,-217.103 295,-204 250.414,-171.836 222.826,-108.806 213.029,-83.2067"/>
<polygon fill="midnightblue" stroke="midnightblue" points="406.873,-242.407 417.372,-240.986 408.278,-235.55 406.873,-242.407"/>
</g>
<!-- Node7&#45;&gt;Node4 -->
<g id="edge42" class="edge"><title>Node7&#45;&gt;Node4</title>
<path fill="none" stroke="midnightblue" d="M468.824,-231.585C463.515,-216.643 459.265,-196.231 467,-180 488.646,-134.582 621.743,-52.771 671.901,-23.1167"/>
<polygon fill="midnightblue" stroke="midnightblue" points="465.593,-232.932 472.534,-240.937 472.1,-230.351 465.593,-232.932"/>
</g>
<!-- Node7&#45;&gt;Node5 -->
<g id="edge44" class="edge"><title>Node7&#45;&gt;Node5</title>
<path fill="none" stroke="midnightblue" d="M436.375,-236.705C419.682,-228.942 401.293,-218.119 388,-204 335.466,-148.204 310.056,-55.5408 302.497,-23.3967"/>
<polygon fill="midnightblue" stroke="midnightblue" points="435.393,-240.097 445.956,-240.924 438.215,-233.691 435.393,-240.097"/>
</g>
<!-- Node7&#45;&gt;Node8 -->
<g id="edge16" class="edge"><title>Node7&#45;&gt;Node8</title>
<path fill="none" stroke="midnightblue" d="M554,-241.194C640.857,-228.845 780.331,-209.015 852.82,-198.708"/>
<polygon fill="midnightblue" stroke="midnightblue" points="553.345,-237.752 543.938,-242.625 554.331,-244.682 553.345,-237.752"/>
</g>
<!-- Node7&#45;&gt;Node10 -->
<g id="edge40" class="edge"><title>Node7&#45;&gt;Node10</title>
<path fill="none" stroke="midnightblue" d="M472.666,-230.581C470.115,-215.089 469.557,-194.428 480,-180 509.859,-138.745 651.776,-101.001 729.243,-83.0335"/>
<polygon fill="midnightblue" stroke="midnightblue" points="469.319,-231.685 474.746,-240.785 476.178,-230.287 469.319,-231.685"/>
</g>
<!-- Node12 -->
<g id="node27" class="node"><title>Node12</title>
<a xlink:href="frameschedulerworkunits_8cpp.html" target="_top" xlink:title="The implementation of any workunits the framescheduler needs to work correctly.">
<polygon fill="white" stroke="black" points="370,-1 370,-23 516,-23 516,-1 370,-1"/>
<text text-anchor="middle" x="443" y="-10" font-family="FreeSans" font-size="10.00">frameschedulerworkunits.cpp</text>
</a>
</g>
<!-- Node7&#45;&gt;Node12 -->
<g id="edge46" class="edge"><title>Node7&#45;&gt;Node12</title>
<path fill="none" stroke="midnightblue" d="M446.541,-235.867C433.418,-227.81 418.948,-216.99 409,-204 374.554,-159.02 375.699,-139.818 366,-84 364.174,-73.4908 360.824,-69.3265 366,-60 375.632,-42.6453 394.436,-30.7462 411.049,-23.1365"/>
<polygon fill="midnightblue" stroke="midnightblue" points="444.937,-238.984 455.339,-240.997 448.463,-232.937 444.937,-238.984"/>
</g>
<!-- Node13 -->
<g id="node30" class="node"><title>Node13</title>
<a xlink:href="workunit_8cpp.html" target="_top" xlink:title="This file has the implementation of the workunit.">
<polygon fill="white" stroke="black" points="1108.5,-61 1108.5,-83 1179.5,-83 1179.5,-61 1108.5,-61"/>
<text text-anchor="middle" x="1144" y="-70" font-family="FreeSans" font-size="10.00">workunit.cpp</text>
</a>
</g>
<!-- Node7&#45;&gt;Node13 -->
<g id="edge48" class="edge"><title>Node7&#45;&gt;Node13</title>
<path fill="none" stroke="midnightblue" d="M518.94,-237.701C563.274,-222.458 636.214,-198.074 700,-180 850.553,-137.34 1032.7,-96.3022 1108.37,-79.7131"/>
<polygon fill="midnightblue" stroke="midnightblue" points="517.7,-234.426 509.389,-240.996 519.983,-241.044 517.7,-234.426"/>
</g>
<!-- Node8&#45;&gt;Node4 -->
<g id="edge36" class="edge"><title>Node8&#45;&gt;Node4</title>
<path fill="none" stroke="midnightblue" d="M897.745,-170.722C893.532,-141.629 881.789,-89.6706 850,-60 834.612,-45.6374 785.06,-32.0448 745.318,-23.0155"/>
<polygon fill="midnightblue" stroke="midnightblue" points="894.318,-171.516 899.054,-180.993 901.262,-170.631 894.318,-171.516"/>
</g>
<!-- Node8&#45;&gt;Node5 -->
<g id="edge38" class="edge"><title>Node8&#45;&gt;Node5</title>
<path fill="none" stroke="midnightblue" d="M842.483,-182.442C713.145,-160.653 407.394,-107.383 366,-84 339.277,-68.9043 317.349,-39.1625 306.794,-23.0314"/>
<polygon fill="midnightblue" stroke="midnightblue" points="842.152,-185.935 852.594,-184.142 843.313,-179.032 842.152,-185.935"/>
</g>
<!-- Node8&#45;&gt;Node9 -->
<g id="edge18" class="edge"><title>Node8&#45;&gt;Node9</title>
<path fill="none" stroke="midnightblue" d="M864.756,-177.003C840.059,-166.493 807.589,-152.676 785.175,-143.138"/>
<polygon fill="midnightblue" stroke="midnightblue" points="863.566,-180.3 874.138,-180.995 866.307,-173.859 863.566,-180.3"/>
</g>
<!-- Node9&#45;&gt;Node2 -->
<g id="edge20" class="edge"><title>Node9&#45;&gt;Node2</title>
<path fill="none" stroke="midnightblue" d="M718.135,-127.542C613.983,-116.18 340,-86.291 243.352,-75.7475"/>
<polygon fill="midnightblue" stroke="midnightblue" points="717.93,-131.04 728.251,-128.646 718.69,-124.082 717.93,-131.04"/>
</g>
<!-- Node9&#45;&gt;Node4 -->
<g id="edge32" class="edge"><title>Node9&#45;&gt;Node4</title>
<path fill="none" stroke="midnightblue" d="M736.139,-114.328C726.81,-106.039 716.669,-95.4645 710,-84 698.624,-64.4441 693.923,-37.9792 692.086,-23.1896"/>
<polygon fill="midnightblue" stroke="midnightblue" points="734.124,-117.207 744.021,-120.988 738.642,-111.86 734.124,-117.207"/>
</g>
<!-- Node9&#45;&gt;Node10 -->
<g id="edge22" class="edge"><title>Node9&#45;&gt;Node10</title>
<path fill="none" stroke="midnightblue" d="M766.167,-111.522C769.466,-102.098 773.253,-91.277 776.03,-83.3428"/>
<polygon fill="midnightblue" stroke="midnightblue" points="762.852,-110.4 762.852,-120.995 769.459,-112.713 762.852,-110.4"/>
</g>
<!-- Node9&#45;&gt;Node11 -->
<g id="edge26" class="edge"><title>Node9&#45;&gt;Node11</title>
<path fill="none" stroke="midnightblue" d="M718.302,-124.272C663.072,-113.786 564.065,-94.987 501.049,-83.0219"/>
<polygon fill="midnightblue" stroke="midnightblue" points="717.936,-127.766 728.413,-126.192 719.242,-120.888 717.936,-127.766"/>
</g>
<!-- Node9&#45;&gt;Node13 -->
<g id="edge34" class="edge"><title>Node9&#45;&gt;Node13</title>
<path fill="none" stroke="midnightblue" d="M799.616,-125.67C875.234,-113.886 1036.43,-88.7643 1108.22,-77.576"/>
<polygon fill="midnightblue" stroke="midnightblue" points="798.874,-122.244 789.532,-127.242 799.952,-129.16 798.874,-122.244"/>
</g>
<!-- Node10&#45;&gt;Node4 -->
<g id="edge24" class="edge"><title>Node10&#45;&gt;Node4</title>
<path fill="none" stroke="midnightblue" d="M755.231,-55.3016C740.006,-45.0379 720.918,-32.1696 707.522,-23.1383"/>
<polygon fill="midnightblue" stroke="midnightblue" points="753.428,-58.3072 763.676,-60.9951 757.341,-52.503 753.428,-58.3072"/>
</g>
<!-- Node11&#45;&gt;Node4 -->
<g id="edge28" class="edge"><title>Node11&#45;&gt;Node4</title>
<path fill="none" stroke="midnightblue" d="M498.222,-58.6399C542.492,-47.9294 603.869,-33.08 645.382,-23.0366"/>
<polygon fill="midnightblue" stroke="midnightblue" points="497.384,-55.2416 488.487,-60.9951 499.03,-62.0453 497.384,-55.2416"/>
</g>
<!-- Node11&#45;&gt;Node12 -->
<g id="edge30" class="edge"><title>Node11&#45;&gt;Node12</title>
<path fill="none" stroke="midnightblue" d="M443,-50.9183C443,-41.6393 443,-31.1082 443,-23.3428"/>
<polygon fill="midnightblue" stroke="midnightblue" points="439.5,-50.995 443,-60.9951 446.5,-50.9951 439.5,-50.995"/>
</g>
<!-- Node14&#45;&gt;Node4 -->
<g id="edge66" class="edge"><title>Node14&#45;&gt;Node4</title>
<path fill="none" stroke="midnightblue" d="M1187.59,-291.291C1195.58,-267.621 1207,-227.555 1207,-192 1207,-192 1207,-192 1207,-132 1207,-98.9046 1213.22,-81.4352 1188,-60 1154.98,-31.9276 870.207,-18.4214 747.201,-13.8558"/>
<polygon fill="midnightblue" stroke="midnightblue" points="1184.22,-290.343 1184.22,-300.938 1190.82,-292.654 1184.22,-290.343"/>
</g>
<!-- Node14&#45;&gt;Node8 -->
<g id="edge68" class="edge"><title>Node14&#45;&gt;Node8</title>
<path fill="none" stroke="midnightblue" d="M1132.15,-298.045C1104.03,-289.325 1068.02,-277.256 1037,-264 993.514,-245.416 945.068,-218.354 919.035,-203.255"/>
<polygon fill="midnightblue" stroke="midnightblue" points="1131.16,-301.402 1141.75,-300.986 1133.21,-294.709 1131.16,-301.402"/>
</g>
<!-- Node14&#45;&gt;Node13 -->
<g id="edge72" class="edge"><title>Node14&#45;&gt;Node13</title>
<path fill="none" stroke="midnightblue" d="M1176.78,-290.566C1169.37,-241.147 1151.29,-120.593 1145.68,-83.2294"/>
<polygon fill="midnightblue" stroke="midnightblue" points="1173.37,-291.376 1178.31,-300.746 1180.29,-290.338 1173.37,-291.376"/>
</g>
<!-- Node15 -->
<g id="node43" class="node"><title>Node15</title>
<a xlink:href="thread_8h.html" target="_top" xlink:title="This file defines a minimalistic cross&#45;platform thread that the scheduler uses to schedule tasks...">
<polygon fill="white" stroke="black" points="1045.5,-241 1045.5,-263 1098.5,-263 1098.5,-241 1045.5,-241"/>
<text text-anchor="middle" x="1072" y="-250" font-family="FreeSans" font-size="10.00">thread.h</text>
</a>
</g>
<!-- Node14&#45;&gt;Node15 -->
<g id="edge56" class="edge"><title>Node14&#45;&gt;Node15</title>
<path fill="none" stroke="midnightblue" d="M1151.23,-296.017C1132.55,-285.641 1108.69,-272.381 1092.05,-263.138"/>
<polygon fill="midnightblue" stroke="midnightblue" points="1149.75,-299.198 1160.19,-300.995 1153.15,-293.079 1149.75,-299.198"/>
</g>
<!-- Node14&#45;&gt;Node17 -->
<g id="edge70" class="edge"><title>Node14&#45;&gt;Node17</title>
<path fill="none" stroke="midnightblue" d="M1207.08,-295.589C1224.09,-285.279 1245.58,-272.254 1260.62,-263.138"/>
<polygon fill="midnightblue" stroke="midnightblue" points="1204.9,-292.819 1198.16,-300.995 1208.52,-298.805 1204.9,-292.819"/>
</g>
<!-- Node15&#45;&gt;Node4 -->
<g id="edge60" class="edge"><title>Node15&#45;&gt;Node4</title>
<path fill="none" stroke="midnightblue" d="M1093.49,-233.783C1108.14,-219.067 1123.06,-197.929 1112,-180 1049.6,-78.8398 984.174,-102.048 873,-60 830.821,-44.047 781.229,-31.345 744.473,-23.0249"/>
<polygon fill="midnightblue" stroke="midnightblue" points="1090.87,-231.44 1085.98,-240.842 1095.66,-236.538 1090.87,-231.44"/>
</g>
<!-- Node15&#45;&gt;Node8 -->
<g id="edge58" class="edge"><title>Node15&#45;&gt;Node8</title>
<path fill="none" stroke="midnightblue" d="M1035.61,-239.304C1004.78,-228.552 961.039,-213.293 931.648,-203.04"/>
<polygon fill="midnightblue" stroke="midnightblue" points="1034.53,-242.636 1045.12,-242.625 1036.84,-236.027 1034.53,-242.636"/>
</g>
<!-- Node15&#45;&gt;Node9 -->
<g id="edge64" class="edge"><title>Node15&#45;&gt;Node9</title>
<path fill="none" stroke="midnightblue" d="M1049.21,-234.802C1026.64,-218.526 990.539,-194.491 956,-180 899.681,-156.371 829.214,-142.723 789.644,-136.38"/>
<polygon fill="midnightblue" stroke="midnightblue" points="1047.31,-237.75 1057.45,-240.832 1051.45,-232.101 1047.31,-237.75"/>
</g>
<!-- Node16 -->
<g id="node47" class="node"><title>Node16</title>
<a xlink:href="thread_8cpp.html" target="_top" xlink:title="This file implements a minimalistic cross&#45;platform thread that the scheduler uses to schedule tasks...">
<polygon fill="white" stroke="black" points="1040.5,-181 1040.5,-203 1103.5,-203 1103.5,-181 1040.5,-181"/>
<text text-anchor="middle" x="1072" y="-190" font-family="FreeSans" font-size="10.00">thread.cpp</text>
</a>
</g>
<!-- Node15&#45;&gt;Node16 -->
<g id="edge62" class="edge"><title>Node15&#45;&gt;Node16</title>
<path fill="none" stroke="midnightblue" d="M1072,-230.918C1072,-221.639 1072,-211.108 1072,-203.343"/>
<polygon fill="midnightblue" stroke="midnightblue" points="1068.5,-230.995 1072,-240.995 1075.5,-230.995 1068.5,-230.995"/>
</g>
<!-- Node19&#45;&gt;Node4 -->
<g id="edge86" class="edge"><title>Node19&#45;&gt;Node4</title>
<path fill="none" stroke="midnightblue" d="M1279.05,-112.644C1266.44,-95.5615 1245.6,-71.6223 1221,-60 1178.92,-40.119 874.726,-21.7971 747.113,-14.897"/>
<polygon fill="midnightblue" stroke="midnightblue" points="1276.23,-114.721 1284.87,-120.851 1281.94,-110.67 1276.23,-114.721"/>
</g>
<!-- Node19&#45;&gt;Node13 -->
<g id="edge88" class="edge"><title>Node19&#45;&gt;Node13</title>
<path fill="none" stroke="midnightblue" d="M1255.32,-117.129C1229.27,-106.567 1194.85,-92.6158 1171.22,-83.0366"/>
<polygon fill="midnightblue" stroke="midnightblue" points="1254.27,-120.482 1264.85,-120.995 1256.9,-113.994 1254.27,-120.482"/>
</g>
<!-- Node19&#45;&gt;Node20 -->
<g id="edge80" class="edge"><title>Node19&#45;&gt;Node20</title>
<path fill="none" stroke="midnightblue" d="M1294.46,-110.918C1295.54,-101.639 1296.77,-91.1082 1297.68,-83.3428"/>
<polygon fill="midnightblue" stroke="midnightblue" points="1290.97,-110.657 1293.28,-120.995 1297.92,-111.468 1290.97,-110.657"/>
</g>
<!-- Node20&#45;&gt;Node4 -->
<g id="edge84" class="edge"><title>Node20&#45;&gt;Node4</title>
<path fill="none" stroke="midnightblue" d="M1262.24,-60.6588C1261.15,-60.4236 1260.07,-60.2031 1259,-60 1073.79,-24.7878 849.699,-15.4015 747.15,-12.9035"/>
<polygon fill="midnightblue" stroke="midnightblue" points="1261.53,-64.0893 1272.08,-63.0974 1263.21,-57.2948 1261.53,-64.0893"/>
</g>
<!-- Node21 -->
<g id="node62" class="node"><title>Node21</title>
<a xlink:href="barrier_8cpp.html" target="_top" xlink:title="Contains the implementation for the Mezzanine::Threading::Barrier Barrier synchronization object...">
<polygon fill="white" stroke="black" points="1267.5,-1 1267.5,-23 1330.5,-23 1330.5,-1 1267.5,-1"/>
<text text-anchor="middle" x="1299" y="-10" font-family="FreeSans" font-size="10.00">barrier.cpp</text>
</a>
</g>
<!-- Node20&#45;&gt;Node21 -->
<g id="edge82" class="edge"><title>Node20&#45;&gt;Node21</title>
<path fill="none" stroke="midnightblue" d="M1299,-50.9183C1299,-41.6393 1299,-31.1082 1299,-23.3428"/>
<polygon fill="midnightblue" stroke="midnightblue" points="1295.5,-50.995 1299,-60.9951 1302.5,-50.9951 1295.5,-50.995"/>
</g>
<!-- Node22&#45;&gt;Node4 -->
<g id="edge98" class="edge"><title>Node22&#45;&gt;Node4</title>
<path fill="none" stroke="midnightblue" d="M547.17,-172.563C566.744,-146.147 603.658,-97.8622 639,-60 651.407,-46.7077 666.849,-32.7416 677.669,-23.3235"/>
<polygon fill="midnightblue" stroke="midnightblue" points="544.111,-170.815 541,-180.942 549.748,-174.965 544.111,-170.815"/>
</g>
<!-- Node22&#45;&gt;Node9 -->
<g id="edge100" class="edge"><title>Node22&#45;&gt;Node9</title>
<path fill="none" stroke="midnightblue" d="M584.186,-178.411C628.564,-166.629 691.315,-149.97 728.319,-140.146"/>
<polygon fill="midnightblue" stroke="midnightblue" points="583.219,-175.046 574.452,-180.995 585.015,-181.812 583.219,-175.046"/>
</g>
<!-- Node23&#45;&gt;Node4 -->
<g id="edge104" class="edge"><title>Node23&#45;&gt;Node4</title>
<path fill="none" stroke="midnightblue" d="M722.47,-235.49C711.054,-227.593 699.33,-216.997 693,-204 662.639,-141.664 680.294,-53.8738 687.982,-23.1442"/>
<polygon fill="midnightblue" stroke="midnightblue" points="720.74,-238.539 731.045,-240.999 724.523,-232.649 720.74,-238.539"/>
</g>
<!-- Node23&#45;&gt;Node8 -->
<g id="edge106" class="edge"><title>Node23&#45;&gt;Node8</title>
<path fill="none" stroke="midnightblue" d="M789.434,-237.129C815.311,-226.567 849.491,-212.616 872.96,-203.037"/>
<polygon fill="midnightblue" stroke="midnightblue" points="787.898,-233.976 779.962,-240.995 790.543,-240.457 787.898,-233.976"/>
</g>
<!-- Node23&#45;&gt;Node9 -->
<g id="edge108" class="edge"><title>Node23&#45;&gt;Node9</title>
<path fill="none" stroke="midnightblue" d="M726.382,-234.66C708.68,-220.79 690.318,-200.358 700,-180 707.713,-163.782 723.882,-151.249 737.346,-143.062"/>
<polygon fill="midnightblue" stroke="midnightblue" points="724.762,-237.813 734.894,-240.913 728.907,-232.172 724.762,-237.813"/>
</g>
<!-- Node24 -->
<g id="node79" class="node"><title>Node24</title>
<a xlink:href="workunitkey_8cpp.html" target="_top" xlink:title="This file declares the functionality of the metadata used to sort workunits.">
<polygon fill="white" stroke="black" points="709,-181 709,-203 797,-203 797,-181 709,-181"/>
<text text-anchor="middle" x="753" y="-190" font-family="FreeSans" font-size="10.00">workunitkey.cpp</text>
</a>
</g>
<!-- Node23&#45;&gt;Node24 -->
<g id="edge110" class="edge"><title>Node23&#45;&gt;Node24</title>
<path fill="none" stroke="midnightblue" d="M753,-230.918C753,-221.639 753,-211.108 753,-203.343"/>
<polygon fill="midnightblue" stroke="midnightblue" points="749.5,-230.995 753,-240.995 756.5,-230.995 749.5,-230.995"/>
</g>
</g>
</svg>
        <g id="navigator" transform="translate(0 0)" fill="#404254">
                <rect fill="#f2f5e9" fill-opacity="0.5" stroke="#606060" stroke-width=".5" x="0" y="0" width="60" height="60"/>
                <use id="zoomplus" xlink:href="#zoomPlus" x="17" y="9" onmousedown="handleZoom(evt,'in')"/>
                <use id="zoomminus" xlink:href="#zoomMin" x="42" y="9" onmousedown="handleZoom(evt,'out')"/>
                <use id="reset" xlink:href="#resetDef" x="30" y="36" onmousedown="handleReset()"/>
                <g id="arrowUp" xlink:href="#dirArrow" transform="translate(30 24)" onmousedown="handlePan(0,-1)">
                  <use xlink:href="#rim" fill="#404040">
                        <set attributeName="fill" to="#808080" begin="arrowUp.mouseover" end="arrowUp.mouseout"/>
                  </use>
                  <path fill="none" stroke="white" stroke-width="1.5" d="M0,-3.0v7 M-2.5,-0.5L0,-3.0L2.5,-0.5"/>
                </g>
                <g id="arrowRight" xlink:href="#dirArrow" transform="rotate(90) translate(36 -43)" onmousedown="handlePan(1,0)">
                  <use xlink:href="#rim" fill="#404040">
                        <set attributeName="fill" to="#808080" begin="arrowRight.mouseover" end="arrowRight.mouseout"/>
                  </use>
                  <path fill="none" stroke="white" stroke-width="1.5" d="M0,-3.0v7 M-2.5,-0.5L0,-3.0L2.5,-0.5"/>
                </g>
                <g id="arrowDown" xlink:href="#dirArrow" transform="rotate(180) translate(-30 -48)" onmousedown="handlePan(0,1)">
                  <use xlink:href="#rim" fill="#404040">
                        <set attributeName="fill" to="#808080" begin="arrowDown.mouseover" end="arrowDown.mouseout"/>
                  </use>
                  <path fill="none" stroke="white" stroke-width="1.5" d="M0,-3.0v7 M-2.5,-0.5L0,-3.0L2.5,-0.5"/>
                </g>
                <g id="arrowLeft" xlink:href="#dirArrow" transform="rotate(270) translate(-36 17)" onmousedown="handlePan(-1,0)">
                  <use xlink:href="#rim" fill="#404040">
                        <set attributeName="fill" to="#808080" begin="arrowLeft.mouseover" end="arrowLeft.mouseout"/>
                  </use>
                  <path fill="none" stroke="white" stroke-width="1.5" d="M0,-3.0v7 M-2.5,-0.5L0,-3.0L2.5,-0.5"/>
                </g>
        </g>
</svg>
