<?xml version="1.0" encoding="UTF-8" standalone="no"?>
<!DOCTYPE svg PUBLIC "-//W3C//DTD SVG 1.1//EN"
 "http://www.w3.org/Graphics/SVG/1.1/DTD/svg11.dtd">
<!-- Generated by graphviz version 2.26.3 (20100126.1600)
 -->
<!-- Title: G Pages: 1 -->
<!--zoomable 452 -->
<svg id="main" version="1.1" xmlns="http://www.w3.org/2000/svg" xmlns:xlink="http://www.w3.org/1999/xlink" xml:space="preserve" onload="init(evt)">
        <defs>
                <circle id="rim" cx="0" cy="0" r="7"/>
                <circle id="rim2" cx="0" cy="0" r="3.5"/>
                <g id="zoomPlus">
                        <use xlink:href="#rim" fill="#404040">
                                <set attributeName="fill" to="#808080" begin="zoomplus.mouseover" end="zoomplus.mouseout"/>
                        </use>
                        <path d="M-4,0h8M0,-4v8" fill="none" stroke="white" stroke-width="1.5" pointer-events="none"/>
                </g>
                <g id="zoomMin">
                        <use xlink:href="#rim" fill="#404040">
                                <set attributeName="fill" to="#808080" begin="zoomminus.mouseover" end="zoomminus.mouseout"/>
                        </use>
                        <path d="M-4,0h8" fill="none" stroke="white" stroke-width="1.5" pointer-events="none"/>
                </g>
                <g id="dirArrow">
                        <path fill="none" stroke="white" stroke-width="1.5" d="M0,-3.0v7 M-2.5,-0.5L0,-3.0L2.5,-0.5"/>
                </g>
               <g id="resetDef">
                       <use xlink:href="#rim2" fill="#404040">
                               <set attributeName="fill" to="#808080" begin="reset.mouseover" end="reset.mouseout"/>
                       </use>
               </g>
        </defs>

<script type="text/javascript">
var viewWidth = 1467;
var viewHeight = 452;
var sectionId = 'dynsection-1';
</script>
<script xlink:href="svgpan.js"/>
<svg id="graph" class="graph">
<g id="viewport">
<title>G</title>
<polygon fill="white" stroke="white" points="-4,5 -4,-448 1464,-448 1464,5 -4,5"/>
<!-- Node1 -->
<g id="node1" class="node"><title>Node1</title>
<polygon fill="#bfbfbf" stroke="black" points="1072,-421 1072,-443 1140,-443 1140,-421 1072,-421"/>
<text text-anchor="middle" x="1106" y="-430" font-family="FreeSans" font-size="10.00">datatypes.h</text>
</g>
<!-- Node2 -->
<g id="node3" class="node"><title>Node2</title>
<a xlink:href="asynchronousworkunit_8h.html" target="_top" xlink:title="Contains an interface for a kind of WorkUnit that loads or does other work even when the frame schedu...">
<polygon fill="white" stroke="black" points="296.5,-121 296.5,-143 419.5,-143 419.5,-121 296.5,-121"/>
<text text-anchor="middle" x="358" y="-130" font-family="FreeSans" font-size="10.00">asynchronousworkunit.h</text>
</a>
</g>
<!-- Node1&#45;&gt;Node2 -->
<g id="edge2" class="edge"><title>Node1&#45;&gt;Node2</title>
<path fill="none" stroke="midnightblue" d="M1061.62,-430.645C941.268,-426.623 610.678,-413.167 506,-384 437.071,-364.794 362,-383.554 362,-312 362,-312 362,-312 362,-252 362,-211.978 359.75,-164.489 358.625,-143.246"/>
<polygon fill="midnightblue" stroke="midnightblue" points="1061.83,-434.154 1071.93,-430.984 1062.06,-427.157 1061.83,-434.154"/>
</g>
<!-- Node5 -->
<g id="node9" class="node"><title>Node5</title>
<a xlink:href="dagframescheduler_8h.html" target="_top" xlink:title="This is the file that code using this library should include. It includes all the required components...">
<polygon fill="white" stroke="black" points="906,-1 906,-23 1018,-23 1018,-1 906,-1"/>
<text text-anchor="middle" x="962" y="-10" font-family="FreeSans" font-size="10.00">dagframescheduler.h</text>
</a>
</g>
<!-- Node1&#45;&gt;Node5 -->
<g id="edge96" class="edge"><title>Node1&#45;&gt;Node5</title>
<path fill="none" stroke="midnightblue" d="M1150.29,-429.096C1223.24,-423.634 1364.8,-409.974 1407,-384 1440.62,-363.31 1459,-351.473 1459,-312 1459,-312 1459,-312 1459,-132 1459,-94.2641 1445.99,-80.0127 1414,-60 1381.09,-39.4147 1131.78,-22.1188 1018.14,-15.2154"/>
<polygon fill="midnightblue" stroke="midnightblue" points="1149.77,-425.625 1140.05,-429.843 1150.27,-432.606 1149.77,-425.625"/>
</g>
<!-- Node7 -->
<g id="node14" class="node"><title>Node7</title>
<a xlink:href="doublebufferedresource_8h.html" target="_top" xlink:title="This file defines the template double buffered resources that can be attached to a thread...">
<polygon fill="white" stroke="black" points="514.5,-301 514.5,-323 645.5,-323 645.5,-301 514.5,-301"/>
<text text-anchor="middle" x="580" y="-310" font-family="FreeSans" font-size="10.00">doublebufferedresource.h</text>
</a>
</g>
<!-- Node1&#45;&gt;Node7 -->
<g id="edge14" class="edge"><title>Node1&#45;&gt;Node7</title>
<path fill="none" stroke="midnightblue" d="M1061.72,-429.122C970.821,-422.83 766.145,-406.586 700,-384 658.384,-369.79 615.629,-339.681 594.148,-323.259"/>
<polygon fill="midnightblue" stroke="midnightblue" points="1061.75,-432.632 1071.97,-429.822 1062.23,-425.648 1061.75,-432.632"/>
</g>
<!-- Node8 -->
<g id="node17" class="node"><title>Node8</title>
<a xlink:href="framescheduler_8h.html" target="_top" xlink:title="This file has the Declarations for the main FrameScheduler class.">
<polygon fill="white" stroke="black" points="665,-241 665,-263 759,-263 759,-241 665,-241"/>
<text text-anchor="middle" x="712" y="-250" font-family="FreeSans" font-size="10.00">framescheduler.h</text>
</a>
</g>
<!-- Node1&#45;&gt;Node8 -->
<g id="edge58" class="edge"><title>Node1&#45;&gt;Node8</title>
<path fill="none" stroke="midnightblue" d="M1061.83,-423.961C975.872,-407.515 790.454,-367.862 744,-324 726.197,-307.19 717.645,-278.686 714.112,-263.061"/>
<polygon fill="midnightblue" stroke="midnightblue" points="1061.33,-427.428 1071.8,-425.85 1062.63,-420.55 1061.33,-427.428"/>
</g>
<!-- Node9 -->
<g id="node19" class="node"><title>Node9</title>
<a xlink:href="workunit_8h.html" target="_top" xlink:title="This file has the defintion of the workunit.">
<polygon fill="white" stroke="black" points="865.5,-181 865.5,-203 926.5,-203 926.5,-181 865.5,-181"/>
<text text-anchor="middle" x="896" y="-190" font-family="FreeSans" font-size="10.00">workunit.h</text>
</a>
</g>
<!-- Node1&#45;&gt;Node9 -->
<g id="edge56" class="edge"><title>Node1&#45;&gt;Node9</title>
<path fill="none" stroke="midnightblue" d="M1070.96,-416.339C1055.78,-408.289 1038.63,-397.345 1026,-384 976.25,-331.446 994.648,-296.952 950,-240 938.856,-225.785 923.163,-212.375 911.565,-203.361"/>
<polygon fill="midnightblue" stroke="midnightblue" points="1069.6,-419.573 1080.1,-420.973 1072.76,-413.329 1069.6,-419.573"/>
</g>
<!-- Node10 -->
<g id="node22" class="node"><title>Node10</title>
<a xlink:href="frameschedulerworkunits_8h.html" target="_top" xlink:title="This defines a number of workunits that are required for doing some tasks that the Framescheduler req...">
<polygon fill="white" stroke="black" points="961,-121 961,-143 1097,-143 1097,-121 961,-121"/>
<text text-anchor="middle" x="1029" y="-130" font-family="FreeSans" font-size="10.00">frameschedulerworkunits.h</text>
</a>
</g>
<!-- Node1&#45;&gt;Node10 -->
<g id="edge98" class="edge"><title>Node1&#45;&gt;Node10</title>
<path fill="none" stroke="midnightblue" d="M1150.3,-428.753C1208.08,-423.492 1304.37,-410.855 1326,-384 1366.14,-334.155 1362.72,-292.42 1326,-240 1310.5,-217.868 1142.98,-165.843 1066.58,-143.039"/>
<polygon fill="midnightblue" stroke="midnightblue" points="1149.99,-425.267 1140.33,-429.623 1150.6,-432.241 1149.99,-425.267"/>
</g>
<!-- Node12 -->
<g id="node27" class="node"><title>Node12</title>
<a xlink:href="monopoly_8h.html" target="_top" xlink:title="Contains an interface for a kind of WorkUnit that consumes time on multiple thread.">
<polygon fill="white" stroke="black" points="553,-121 553,-143 621,-143 621,-121 553,-121"/>
<text text-anchor="middle" x="587" y="-130" font-family="FreeSans" font-size="10.00">monopoly.h</text>
</a>
</g>
<!-- Node1&#45;&gt;Node12 -->
<g id="edge100" class="edge"><title>Node1&#45;&gt;Node12</title>
<path fill="none" stroke="midnightblue" d="M1061.91,-429.097C908.745,-418.434 409,-378.541 409,-312 409,-312 409,-312 409,-252 409,-183.424 500.955,-151.434 552.68,-138.864"/>
<polygon fill="midnightblue" stroke="midnightblue" points="1061.69,-432.591 1071.91,-429.786 1062.17,-425.607 1061.69,-432.591"/>
</g>
<!-- Node16 -->
<g id="node46" class="node"><title>Node16</title>
<a xlink:href="systemcalls_8h.html" target="_top" xlink:title="This file defines a minimalistic cross&#45;platform thread that the scheduler uses to schedule tasks...">
<polygon fill="white" stroke="black" points="1034.5,-361 1034.5,-383 1111.5,-383 1111.5,-361 1034.5,-361"/>
<text text-anchor="middle" x="1073" y="-370" font-family="FreeSans" font-size="10.00">systemcalls.h</text>
</a>
</g>
<!-- Node1&#45;&gt;Node16 -->
<g id="edge60" class="edge"><title>Node1&#45;&gt;Node16</title>
<path fill="none" stroke="midnightblue" d="M1095.07,-412.121C1089.81,-402.56 1083.7,-391.446 1079.24,-383.343"/>
<polygon fill="midnightblue" stroke="midnightblue" points="1092.06,-413.92 1099.95,-420.995 1098.19,-410.546 1092.06,-413.92"/>
</g>
<!-- Node19 -->
<g id="node57" class="node"><title>Node19</title>
<a xlink:href="systemcalls_8cpp.html" target="_top" xlink:title="This file defines some time&#45;tracking functions.">
<polygon fill="white" stroke="black" points="1161,-301 1161,-323 1249,-323 1249,-301 1161,-301"/>
<text text-anchor="middle" x="1205" y="-310" font-family="FreeSans" font-size="10.00">systemcalls.cpp</text>
</a>
</g>
<!-- Node1&#45;&gt;Node19 -->
<g id="edge118" class="edge"><title>Node1&#45;&gt;Node19</title>
<path fill="none" stroke="midnightblue" d="M1121.12,-412.368C1132.46,-397.774 1148.47,-377.453 1163,-360 1173.63,-347.235 1186.22,-332.949 1194.83,-323.308"/>
<polygon fill="midnightblue" stroke="midnightblue" points="1118.07,-410.589 1114.72,-420.639 1123.61,-414.875 1118.07,-410.589"/>
</g>
<!-- Node20 -->
<g id="node60" class="node"><title>Node20</title>
<a xlink:href="atomicoperations_8cpp.html" target="_top" xlink:title="The implementation of simple thread safe ways to check and change a specified variable atomically...">
<polygon fill="white" stroke="black" points="1205,-361 1205,-383 1317,-383 1317,-361 1205,-361"/>
<text text-anchor="middle" x="1261" y="-370" font-family="FreeSans" font-size="10.00">atomicoperations.cpp</text>
</a>
</g>
<!-- Node1&#45;&gt;Node20 -->
<g id="edge80" class="edge"><title>Node1&#45;&gt;Node20</title>
<path fill="none" stroke="midnightblue" d="M1144.06,-417.269C1171.38,-406.69 1207.63,-392.658 1232.49,-383.037"/>
<polygon fill="midnightblue" stroke="midnightblue" points="1142.49,-414.121 1134.43,-420.995 1145.02,-420.649 1142.49,-414.121"/>
</g>
<!-- Node21 -->
<g id="node62" class="node"><title>Node21</title>
<a xlink:href="atomicoperations_8h.html" target="_top" xlink:title="Simple thread safe ways to check and change a specified variable atomically.">
<polygon fill="white" stroke="black" points="1279.5,-181 1279.5,-203 1380.5,-203 1380.5,-181 1279.5,-181"/>
<text text-anchor="middle" x="1330" y="-190" font-family="FreeSans" font-size="10.00">atomicoperations.h</text>
</a>
</g>
<!-- Node1&#45;&gt;Node21 -->
<g id="edge82" class="edge"><title>Node1&#45;&gt;Node21</title>
<path fill="none" stroke="midnightblue" d="M1150.42,-430.157C1215.8,-426.406 1333.02,-415.377 1359,-384 1399.82,-334.708 1376.18,-301.652 1359,-240 1355.13,-226.119 1346.04,-212.245 1339.06,-203.009"/>
<polygon fill="midnightblue" stroke="midnightblue" points="1150.2,-426.664 1140.4,-430.698 1150.57,-433.654 1150.2,-426.664"/>
</g>
<!-- Node22 -->
<g id="node64" class="node"><title>Node22</title>
<a xlink:href="barrier_8h.html" target="_top" xlink:title="The declaration of the Mezzanine::Threading::Barrier Barrier synchronization primitive.">
<polygon fill="white" stroke="black" points="1326.5,-121 1326.5,-143 1379.5,-143 1379.5,-121 1326.5,-121"/>
<text text-anchor="middle" x="1353" y="-130" font-family="FreeSans" font-size="10.00">barrier.h</text>
</a>
</g>
<!-- Node1&#45;&gt;Node22 -->
<g id="edge94" class="edge"><title>Node1&#45;&gt;Node22</title>
<path fill="none" stroke="midnightblue" d="M1150.57,-428.783C1218.46,-423.133 1343.73,-409.527 1380,-384 1410.11,-362.805 1421,-348.825 1421,-312 1421,-312 1421,-312 1421,-252 1421,-206.743 1383.94,-162.903 1364.54,-143.056"/>
<polygon fill="midnightblue" stroke="midnightblue" points="1149.87,-425.328 1140.19,-429.623 1150.44,-432.305 1149.87,-425.328"/>
</g>
<!-- Node24 -->
<g id="node75" class="node"><title>Node24</title>
<a xlink:href="rollingaverage_8h.html" target="_top" xlink:title="This Store the implementation and the declaration of the RollingAverage, BufferedRollingAverage, WeightedRollingAverage and the DefaultRollingAverage.">
<polygon fill="white" stroke="black" points="1228.5,-241 1228.5,-263 1317.5,-263 1317.5,-241 1228.5,-241"/>
<text text-anchor="middle" x="1273" y="-250" font-family="FreeSans" font-size="10.00">rollingaverage.h</text>
</a>
</g>
<!-- Node1&#45;&gt;Node24 -->
<g id="edge102" class="edge"><title>Node1&#45;&gt;Node24</title>
<path fill="none" stroke="midnightblue" d="M1126.64,-414.03C1144.45,-398.876 1171.17,-377.002 1196,-360 1222.29,-341.998 1239.35,-349.839 1258,-324 1271.22,-305.673 1273.33,-278.27 1273.37,-263.102"/>
<polygon fill="midnightblue" stroke="midnightblue" points="1123.96,-411.712 1118.65,-420.879 1128.52,-417.025 1123.96,-411.712"/>
</g>
<!-- Node25 -->
<g id="node79" class="node"><title>Node25</title>
<a xlink:href="workunitkey_8h.html" target="_top" xlink:title="This file defines the metadata used to sort workunits.">
<polygon fill="white" stroke="black" points="786.5,-301 786.5,-323 863.5,-323 863.5,-301 786.5,-301"/>
<text text-anchor="middle" x="825" y="-310" font-family="FreeSans" font-size="10.00">workunitkey.h</text>
</a>
</g>
<!-- Node1&#45;&gt;Node25 -->
<g id="edge108" class="edge"><title>Node1&#45;&gt;Node25</title>
<path fill="none" stroke="midnightblue" d="M1061.79,-420.447C1031.23,-411.861 989.954,-399.059 955,-384 913.061,-365.932 866.97,-338.43 842.517,-323.176"/>
<polygon fill="midnightblue" stroke="midnightblue" points="1061.15,-423.9 1071.72,-423.194 1063.01,-417.154 1061.15,-423.9"/>
</g>
<!-- Node3 -->
<g id="node5" class="node"><title>Node3</title>
<a xlink:href="asynchronousfileloadingworkunit_8h.html" target="_top" xlink:title="The declaration of the AsynchronousFileLoadWorkUnit a workunit that loads a listing of files asynchro...">
<polygon fill="white" stroke="black" points="5,-61 5,-83 175,-83 175,-61 5,-61"/>
<text text-anchor="middle" x="90" y="-70" font-family="FreeSans" font-size="10.00">asynchronousfileloadingworkunit.h</text>
</a>
</g>
<!-- Node2&#45;&gt;Node3 -->
<g id="edge4" class="edge"><title>Node2&#45;&gt;Node3</title>
<path fill="none" stroke="midnightblue" d="M298.927,-118.775C251.042,-108.054 184.346,-93.1222 139.297,-83.0366"/>
<polygon fill="midnightblue" stroke="midnightblue" points="298.322,-122.226 308.845,-120.995 299.851,-115.395 298.322,-122.226"/>
</g>
<!-- Node2&#45;&gt;Node5 -->
<g id="edge12" class="edge"><title>Node2&#45;&gt;Node5</title>
<path fill="none" stroke="midnightblue" d="M356.516,-110.431C356.672,-94.0477 359.881,-72.3032 374,-60 413.55,-25.5356 766.393,-15.4919 905.745,-12.8549"/>
<polygon fill="midnightblue" stroke="midnightblue" points="353.026,-110.834 356.799,-120.734 360.023,-110.642 353.026,-110.834"/>
</g>
<!-- Node6 -->
<g id="node11" class="node"><title>Node6</title>
<a xlink:href="asynchronousworkunit_8cpp.html" target="_top" xlink:title="Contains very little actually.">
<polygon fill="white" stroke="black" points="193,-61 193,-83 327,-83 327,-61 193,-61"/>
<text text-anchor="middle" x="260" y="-70" font-family="FreeSans" font-size="10.00">asynchronousworkunit.cpp</text>
</a>
</g>
<!-- Node2&#45;&gt;Node6 -->
<g id="edge10" class="edge"><title>Node2&#45;&gt;Node6</title>
<path fill="none" stroke="midnightblue" d="M331.195,-115.589C314.355,-105.279 293.082,-92.254 278.193,-83.1383"/>
<polygon fill="midnightblue" stroke="midnightblue" points="329.669,-118.758 340.025,-120.995 333.324,-112.789 329.669,-118.758"/>
</g>
<!-- Node4 -->
<g id="node7" class="node"><title>Node4</title>
<a xlink:href="asynchronousfileloadingworkunit_8cpp.html" target="_top" xlink:title="The implemtation of the AsynchronousFileLoadWorkUnit a workunit that loads a listing of files asynchr...">
<polygon fill="white" stroke="black" points="0,-1 0,-23 180,-23 180,-1 0,-1"/>
<text text-anchor="middle" x="90" y="-10" font-family="FreeSans" font-size="10.00">asynchronousfileloadingworkunit.cpp</text>
</a>
</g>
<!-- Node3&#45;&gt;Node4 -->
<g id="edge6" class="edge"><title>Node3&#45;&gt;Node4</title>
<path fill="none" stroke="midnightblue" d="M90,-50.9183C90,-41.6393 90,-31.1082 90,-23.3428"/>
<polygon fill="midnightblue" stroke="midnightblue" points="86.5001,-50.995 90,-60.9951 93.5001,-50.9951 86.5001,-50.995"/>
</g>
<!-- Node3&#45;&gt;Node5 -->
<g id="edge8" class="edge"><title>Node3&#45;&gt;Node5</title>
<path fill="none" stroke="midnightblue" d="M183.693,-60.0291C183.795,-60.0194 183.898,-60.0097 184,-60 453.787,-34.4846 777.546,-19.5167 905.764,-14.2075"/>
<polygon fill="midnightblue" stroke="midnightblue" points="183.618,-56.519 174.017,-60.9982 184.316,-63.4841 183.618,-56.519"/>
</g>
<!-- Node7&#45;&gt;Node2 -->
<g id="edge16" class="edge"><title>Node7&#45;&gt;Node2</title>
<path fill="none" stroke="midnightblue" d="M534.964,-297.4C514.308,-289.435 490.203,-278.262 471,-264 422.563,-228.027 380.839,-167.695 364.903,-143.022"/>
<polygon fill="midnightblue" stroke="midnightblue" points="533.892,-300.736 544.485,-300.942 536.333,-294.175 533.892,-300.736"/>
</g>
<!-- Node7&#45;&gt;Node5 -->
<g id="edge46" class="edge"><title>Node7&#45;&gt;Node5</title>
<path fill="none" stroke="midnightblue" d="M585.916,-291.264C601.98,-236.444 647.838,-89.846 687,-60 720.536,-34.442 835.527,-21.4521 905.752,-15.7527"/>
<polygon fill="midnightblue" stroke="midnightblue" points="582.533,-290.363 583.111,-300.942 589.256,-292.311 582.533,-290.363"/>
</g>
<!-- Node7&#45;&gt;Node8 -->
<g id="edge18" class="edge"><title>Node7&#45;&gt;Node8</title>
<path fill="none" stroke="midnightblue" d="M613.61,-296.723C636.652,-286.249 666.698,-272.592 687.496,-263.138"/>
<polygon fill="midnightblue" stroke="midnightblue" points="611.866,-293.671 604.211,-300.995 614.763,-300.043 611.866,-293.671"/>
</g>
<!-- Node11 -->
<g id="node25" class="node"><title>Node11</title>
<a xlink:href="frameschedulerworkunits_8cpp.html" target="_top" xlink:title="The implementation of any workunits the framescheduler needs to work correctly.">
<polygon fill="white" stroke="black" points="715,-61 715,-83 861,-83 861,-61 715,-61"/>
<text text-anchor="middle" x="788" y="-70" font-family="FreeSans" font-size="10.00">frameschedulerworkunits.cpp</text>
</a>
</g>
<!-- Node7&#45;&gt;Node11 -->
<g id="edge52" class="edge"><title>Node7&#45;&gt;Node11</title>
<path fill="none" stroke="midnightblue" d="M590.103,-291.646C597.917,-276.735 609.486,-256.334 622,-240 671.873,-174.902 745.138,-108.981 774.805,-83.255"/>
<polygon fill="midnightblue" stroke="midnightblue" points="586.769,-290.478 585.328,-300.975 593,-293.668 586.769,-290.478"/>
</g>
<!-- Node7&#45;&gt;Node12 -->
<g id="edge48" class="edge"><title>Node7&#45;&gt;Node12</title>
<path fill="none" stroke="midnightblue" d="M562.975,-292.962C556.661,-284.671 550.25,-274.465 547,-264 535.926,-228.347 534.291,-215.103 547,-180 552.318,-165.312 564.309,-151.961 573.784,-143.09"/>
<polygon fill="midnightblue" stroke="midnightblue" points="560.358,-295.29 569.383,-300.839 565.788,-290.873 560.358,-295.29"/>
</g>
<!-- Node13 -->
<g id="node30" class="node"><title>Node13</title>
<a xlink:href="framescheduler_8cpp.html" target="_top" xlink:title="This is the core object implementation for this algorithm.">
<polygon fill="white" stroke="black" points="383,-61 383,-83 487,-83 487,-61 383,-61"/>
<text text-anchor="middle" x="435" y="-70" font-family="FreeSans" font-size="10.00">framescheduler.cpp</text>
</a>
</g>
<!-- Node7&#45;&gt;Node13 -->
<g id="edge50" class="edge"><title>Node7&#45;&gt;Node13</title>
<path fill="none" stroke="midnightblue" d="M561.1,-293.651C552.837,-285.083 543.371,-274.477 536,-264 491.138,-200.236 452.79,-114.056 439.754,-83.4015"/>
<polygon fill="midnightblue" stroke="midnightblue" points="558.734,-296.237 568.255,-300.885 563.711,-291.314 558.734,-296.237"/>
</g>
<!-- Node15 -->
<g id="node35" class="node"><title>Node15</title>
<a xlink:href="workunit_8cpp.html" target="_top" xlink:title="This file has the implementation of the workunit.">
<polygon fill="white" stroke="black" points="872.5,-121 872.5,-143 943.5,-143 943.5,-121 872.5,-121"/>
<text text-anchor="middle" x="908" y="-130" font-family="FreeSans" font-size="10.00">workunit.cpp</text>
</a>
</g>
<!-- Node7&#45;&gt;Node15 -->
<g id="edge54" class="edge"><title>Node7&#45;&gt;Node15</title>
<path fill="none" stroke="midnightblue" d="M596.129,-293.389C610.576,-277.59 632.98,-255.136 656,-240 726.993,-193.322 821.501,-159.23 872.217,-142.867"/>
<polygon fill="midnightblue" stroke="midnightblue" points="593.403,-291.187 589.338,-300.971 598.617,-295.857 593.403,-291.187"/>
</g>
<!-- Node8&#45;&gt;Node5 -->
<g id="edge42" class="edge"><title>Node8&#45;&gt;Node5</title>
<path fill="none" stroke="midnightblue" d="M703.385,-231.21C688.917,-192.596 665.117,-109.261 706,-60 730.872,-30.0316 838.172,-18.6608 905.717,-14.4283"/>
<polygon fill="midnightblue" stroke="midnightblue" points="700.253,-232.813 707.156,-240.85 706.772,-230.262 700.253,-232.813"/>
</g>
<!-- Node8&#45;&gt;Node9 -->
<g id="edge20" class="edge"><title>Node8&#45;&gt;Node9</title>
<path fill="none" stroke="midnightblue" d="M755.361,-237.86C789.125,-226.851 835.156,-211.84 865.219,-202.037"/>
<polygon fill="midnightblue" stroke="midnightblue" points="754.171,-234.567 745.748,-240.995 756.341,-241.222 754.171,-234.567"/>
</g>
<!-- Node8&#45;&gt;Node13 -->
<g id="edge44" class="edge"><title>Node8&#45;&gt;Node13</title>
<path fill="none" stroke="midnightblue" d="M685.655,-235.206C652.521,-214.053 593.92,-176.531 544,-144 511.129,-122.579 472.907,-97.2286 451.578,-83.0425"/>
<polygon fill="midnightblue" stroke="midnightblue" points="683.984,-238.292 694.297,-240.721 687.75,-232.391 683.984,-238.292"/>
</g>
<!-- Node9&#45;&gt;Node2 -->
<g id="edge22" class="edge"><title>Node9&#45;&gt;Node2</title>
<path fill="none" stroke="midnightblue" d="M854.922,-187.419C761.14,-176.96 530.831,-151.275 419.813,-138.894"/>
<polygon fill="midnightblue" stroke="midnightblue" points="854.816,-190.929 865.142,-188.559 855.592,-183.972 854.816,-190.929"/>
</g>
<!-- Node9&#45;&gt;Node5 -->
<g id="edge38" class="edge"><title>Node9&#45;&gt;Node5</title>
<path fill="none" stroke="midnightblue" d="M878.397,-173.01C867.179,-158.507 856.112,-138.017 864,-120 873.461,-98.3913 886.819,-101.164 903,-84 922.289,-63.5392 942.614,-37.6301 953.655,-23.1313"/>
<polygon fill="midnightblue" stroke="midnightblue" points="875.789,-175.348 884.877,-180.793 881.168,-170.868 875.789,-175.348"/>
</g>
<!-- Node9&#45;&gt;Node10 -->
<g id="edge24" class="edge"><title>Node9&#45;&gt;Node10</title>
<path fill="none" stroke="midnightblue" d="M929.554,-176.863C952.811,-166.371 983.262,-152.634 1004.31,-143.138"/>
<polygon fill="midnightblue" stroke="midnightblue" points="928.07,-173.692 920.394,-180.995 930.949,-180.073 928.07,-173.692"/>
</g>
<!-- Node9&#45;&gt;Node12 -->
<g id="edge30" class="edge"><title>Node9&#45;&gt;Node12</title>
<path fill="none" stroke="midnightblue" d="M855.144,-184.067C793.737,-172.143 678.746,-149.815 621.379,-138.676"/>
<polygon fill="midnightblue" stroke="midnightblue" points="854.758,-187.557 865.242,-186.028 856.093,-180.686 854.758,-187.557"/>
</g>
<!-- Node9&#45;&gt;Node15 -->
<g id="edge40" class="edge"><title>Node9&#45;&gt;Node15</title>
<path fill="none" stroke="midnightblue" d="M900.216,-170.918C902.072,-161.639 904.178,-151.108 905.731,-143.343"/>
<polygon fill="midnightblue" stroke="midnightblue" points="896.73,-170.503 898.201,-180.995 903.594,-171.876 896.73,-170.503"/>
</g>
<!-- Node10&#45;&gt;Node5 -->
<g id="edge26" class="edge"><title>Node10&#45;&gt;Node5</title>
<path fill="none" stroke="midnightblue" d="M1017.9,-112.113C1003.66,-86.6197 979.475,-43.298 968.168,-23.0475"/>
<polygon fill="midnightblue" stroke="midnightblue" points="1014.89,-113.901 1022.82,-120.926 1021,-110.488 1014.89,-113.901"/>
</g>
<!-- Node10&#45;&gt;Node11 -->
<g id="edge28" class="edge"><title>Node10&#45;&gt;Node11</title>
<path fill="none" stroke="midnightblue" d="M975.065,-118.572C932.066,-107.867 872.587,-93.0589 832.33,-83.0366"/>
<polygon fill="midnightblue" stroke="midnightblue" points="974.248,-121.975 984.797,-120.995 975.939,-115.183 974.248,-121.975"/>
</g>
<!-- Node12&#45;&gt;Node5 -->
<g id="edge32" class="edge"><title>Node12&#45;&gt;Node5</title>
<path fill="none" stroke="midnightblue" d="M595.096,-111.352C602.771,-94.6664 615.973,-72.0428 635,-60 678.939,-32.1905 824.577,-19.6985 905.88,-14.7744"/>
<polygon fill="midnightblue" stroke="midnightblue" points="591.758,-110.256 591.029,-120.826 598.19,-113.018 591.758,-110.256"/>
</g>
<!-- Node12&#45;&gt;Node13 -->
<g id="edge34" class="edge"><title>Node12&#45;&gt;Node13</title>
<path fill="none" stroke="midnightblue" d="M549.68,-117.269C522.881,-106.69 487.334,-92.658 462.959,-83.0366"/>
<polygon fill="midnightblue" stroke="midnightblue" points="548.534,-120.579 559.121,-120.995 551.104,-114.068 548.534,-120.579"/>
</g>
<!-- Node14 -->
<g id="node32" class="node"><title>Node14</title>
<a xlink:href="monopoly_8cpp.html" target="_top" xlink:title="Contains the minimal implementation for the monopoly base class.">
<polygon fill="white" stroke="black" points="504.5,-61 504.5,-83 583.5,-83 583.5,-61 504.5,-61"/>
<text text-anchor="middle" x="544" y="-70" font-family="FreeSans" font-size="10.00">monopoly.cpp</text>
</a>
</g>
<!-- Node12&#45;&gt;Node14 -->
<g id="edge36" class="edge"><title>Node12&#45;&gt;Node14</title>
<path fill="none" stroke="midnightblue" d="M573.18,-112.717C566.234,-103.025 558.057,-91.6147 552.129,-83.3428"/>
<polygon fill="midnightblue" stroke="midnightblue" points="570.443,-114.906 579.113,-120.995 576.133,-110.828 570.443,-114.906"/>
</g>
<!-- Node16&#45;&gt;Node5 -->
<g id="edge72" class="edge"><title>Node16&#45;&gt;Node5</title>
<path fill="none" stroke="midnightblue" d="M1092.05,-353.659C1100.66,-344.993 1110.73,-334.306 1119,-324 1162.22,-270.126 1201,-261.065 1201,-192 1201,-192 1201,-192 1201,-132 1201,-50.5162 1088.68,-24.3574 1018.03,-15.9631"/>
<polygon fill="midnightblue" stroke="midnightblue" points="1089.59,-351.171 1084.95,-360.694 1094.52,-356.146 1089.59,-351.171"/>
</g>
<!-- Node16&#45;&gt;Node8 -->
<g id="edge74" class="edge"><title>Node16&#45;&gt;Node8</title>
<path fill="none" stroke="midnightblue" d="M1024.06,-367.941C951.536,-361.276 819.615,-346.469 778,-324 750.993,-309.418 729.182,-279.464 718.721,-263.164"/>
<polygon fill="midnightblue" stroke="midnightblue" points="1024.04,-371.453 1034.31,-368.865 1024.66,-364.482 1024.04,-371.453"/>
</g>
<!-- Node16&#45;&gt;Node15 -->
<g id="edge78" class="edge"><title>Node16&#45;&gt;Node15</title>
<path fill="none" stroke="midnightblue" d="M1085.47,-352.031C1094.61,-337.506 1107.4,-317.417 1119,-300 1129.8,-283.789 1138.18,-282.589 1144,-264 1147.19,-253.821 1149.76,-248.976 1144,-240 1121.05,-204.265 1003.95,-162.6 943.784,-143.113"/>
<polygon fill="midnightblue" stroke="midnightblue" points="1082.39,-350.358 1080.04,-360.689 1088.32,-354.078 1082.39,-350.358"/>
</g>
<!-- Node17 -->
<g id="node48" class="node"><title>Node17</title>
<a xlink:href="thread_8h.html" target="_top" xlink:title="This file defines a minimalistic cross&#45;platform thread that the scheduler uses to schedule tasks...">
<polygon fill="white" stroke="black" points="1014.5,-301 1014.5,-323 1067.5,-323 1067.5,-301 1014.5,-301"/>
<text text-anchor="middle" x="1041" y="-310" font-family="FreeSans" font-size="10.00">thread.h</text>
</a>
</g>
<!-- Node16&#45;&gt;Node17 -->
<g id="edge62" class="edge"><title>Node16&#45;&gt;Node17</title>
<path fill="none" stroke="midnightblue" d="M1062.4,-352.121C1057.3,-342.56 1051.37,-331.446 1047.05,-323.343"/>
<polygon fill="midnightblue" stroke="midnightblue" points="1059.34,-353.819 1067.13,-360.995 1065.51,-350.524 1059.34,-353.819"/>
</g>
<!-- Node16&#45;&gt;Node19 -->
<g id="edge76" class="edge"><title>Node16&#45;&gt;Node19</title>
<path fill="none" stroke="midnightblue" d="M1106.61,-356.723C1129.65,-346.249 1159.7,-332.592 1180.5,-323.138"/>
<polygon fill="midnightblue" stroke="midnightblue" points="1104.87,-353.671 1097.21,-360.995 1107.76,-360.043 1104.87,-353.671"/>
</g>
<!-- Node17&#45;&gt;Node5 -->
<g id="edge66" class="edge"><title>Node17&#45;&gt;Node5</title>
<path fill="none" stroke="midnightblue" d="M1047.17,-290.714C1051.51,-276.275 1057.65,-256.828 1064,-240 1083.95,-187.133 1131.27,-170.54 1106,-120 1081.61,-71.2258 1023.56,-38.7641 989.076,-23.0385"/>
<polygon fill="midnightblue" stroke="midnightblue" points="1043.71,-290.07 1044.23,-300.652 1050.42,-292.055 1043.71,-290.07"/>
</g>
<!-- Node17&#45;&gt;Node8 -->
<g id="edge64" class="edge"><title>Node17&#45;&gt;Node8</title>
<path fill="none" stroke="midnightblue" d="M1004.21,-305.29C944.212,-294.349 825.372,-272.676 759.228,-260.613"/>
<polygon fill="midnightblue" stroke="midnightblue" points="1003.89,-308.79 1014.36,-307.141 1005.15,-301.903 1003.89,-308.79"/>
</g>
<!-- Node17&#45;&gt;Node9 -->
<g id="edge70" class="edge"><title>Node17&#45;&gt;Node9</title>
<path fill="none" stroke="midnightblue" d="M1028.45,-292.513C1017.73,-276.942 1001.19,-255.271 983,-240 964.504,-224.471 940.219,-211.571 922.008,-203.069"/>
<polygon fill="midnightblue" stroke="midnightblue" points="1025.58,-294.522 1034.06,-300.881 1031.4,-290.625 1025.58,-294.522"/>
</g>
<!-- Node18 -->
<g id="node52" class="node"><title>Node18</title>
<a xlink:href="thread_8cpp.html" target="_top" xlink:title="This file implements a minimalistic cross&#45;platform thread that the scheduler uses to schedule tasks...">
<polygon fill="white" stroke="black" points="1072.5,-241 1072.5,-263 1135.5,-263 1135.5,-241 1072.5,-241"/>
<text text-anchor="middle" x="1104" y="-250" font-family="FreeSans" font-size="10.00">thread.cpp</text>
</a>
</g>
<!-- Node17&#45;&gt;Node18 -->
<g id="edge68" class="edge"><title>Node17&#45;&gt;Node18</title>
<path fill="none" stroke="midnightblue" d="M1060.01,-293.894C1070.44,-283.961 1083.05,-271.952 1092.09,-263.343"/>
<polygon fill="midnightblue" stroke="midnightblue" points="1057.38,-291.564 1052.56,-300.995 1062.21,-296.633 1057.38,-291.564"/>
</g>
<!-- Node21&#45;&gt;Node5 -->
<g id="edge90" class="edge"><title>Node21&#45;&gt;Node5</title>
<path fill="none" stroke="midnightblue" d="M1324.05,-171.121C1314.4,-141.285 1292.31,-87.0726 1253,-60 1215.84,-34.4063 1091.91,-21.3019 1018.31,-15.6211"/>
<polygon fill="midnightblue" stroke="midnightblue" points="1320.78,-172.382 1327.06,-180.915 1327.47,-170.329 1320.78,-172.382"/>
</g>
<!-- Node21&#45;&gt;Node15 -->
<g id="edge92" class="edge"><title>Node21&#45;&gt;Node15</title>
<path fill="none" stroke="midnightblue" d="M1268.98,-186.901C1193.9,-180.021 1062.77,-166.025 952,-144 949.36,-143.475 946.644,-142.878 943.921,-142.237"/>
<polygon fill="midnightblue" stroke="midnightblue" points="1268.92,-190.41 1279.19,-187.825 1269.55,-183.438 1268.92,-190.41"/>
</g>
<!-- Node21&#45;&gt;Node22 -->
<g id="edge84" class="edge"><title>Node21&#45;&gt;Node22</title>
<path fill="none" stroke="midnightblue" d="M1337.85,-171.522C1341.46,-162.098 1345.61,-151.277 1348.65,-143.343"/>
<polygon fill="midnightblue" stroke="midnightblue" points="1334.53,-170.405 1334.22,-180.995 1341.07,-172.91 1334.53,-170.405"/>
</g>
<!-- Node22&#45;&gt;Node5 -->
<g id="edge88" class="edge"><title>Node22&#45;&gt;Node5</title>
<path fill="none" stroke="midnightblue" d="M1341.65,-112.222C1330.88,-95.4112 1313.08,-72.1304 1291,-60 1245.15,-34.8114 1099.31,-21.2291 1018.04,-15.4447"/>
<polygon fill="midnightblue" stroke="midnightblue" points="1338.68,-114.083 1346.89,-120.783 1344.65,-110.427 1338.68,-114.083"/>
</g>
<!-- Node23 -->
<g id="node66" class="node"><title>Node23</title>
<a xlink:href="barrier_8cpp.html" target="_top" xlink:title="Contains the implementation for the Mezzanine::Threading::Barrier Barrier synchronization object...">
<polygon fill="white" stroke="black" points="1342.5,-61 1342.5,-83 1405.5,-83 1405.5,-61 1342.5,-61"/>
<text text-anchor="middle" x="1374" y="-70" font-family="FreeSans" font-size="10.00">barrier.cpp</text>
</a>
</g>
<!-- Node22&#45;&gt;Node23 -->
<g id="edge86" class="edge"><title>Node22&#45;&gt;Node23</title>
<path fill="none" stroke="midnightblue" d="M1360.17,-111.522C1363.47,-102.098 1367.25,-91.277 1370.03,-83.3428"/>
<polygon fill="midnightblue" stroke="midnightblue" points="1356.85,-110.4 1356.85,-120.995 1363.46,-112.713 1356.85,-110.4"/>
</g>
<!-- Node24&#45;&gt;Node5 -->
<g id="edge104" class="edge"><title>Node24&#45;&gt;Node5</title>
<path fill="none" stroke="midnightblue" d="M1269.45,-230.902C1261.45,-185.988 1240.72,-83.1294 1215,-60 1186.62,-34.4765 1083.54,-21.6468 1018.04,-15.9324"/>
<polygon fill="midnightblue" stroke="midnightblue" points="1266.04,-231.735 1271.2,-240.988 1272.93,-230.536 1266.04,-231.735"/>
</g>
<!-- Node24&#45;&gt;Node9 -->
<g id="edge106" class="edge"><title>Node24&#45;&gt;Node9</title>
<path fill="none" stroke="midnightblue" d="M1218.33,-243.299C1137.86,-230.492 990.201,-206.992 926.537,-196.86"/>
<polygon fill="midnightblue" stroke="midnightblue" points="1217.85,-246.766 1228.27,-244.882 1218.95,-239.853 1217.85,-246.766"/>
</g>
<!-- Node25&#45;&gt;Node5 -->
<g id="edge110" class="edge"><title>Node25&#45;&gt;Node5</title>
<path fill="none" stroke="midnightblue" d="M824.877,-290.553C825.452,-253.862 830.117,-177.446 857,-120 877.173,-76.8923 921.733,-40.4917 945.809,-23.0495"/>
<polygon fill="midnightblue" stroke="midnightblue" points="821.374,-290.974 824.811,-300.996 828.374,-291.018 821.374,-290.974"/>
</g>
<!-- Node25&#45;&gt;Node8 -->
<g id="edge112" class="edge"><title>Node25&#45;&gt;Node8</title>
<path fill="none" stroke="midnightblue" d="M795.432,-296.3C775.815,-285.884 750.542,-272.465 732.977,-263.138"/>
<polygon fill="midnightblue" stroke="midnightblue" points="793.8,-299.397 804.274,-300.995 797.083,-293.214 793.8,-299.397"/>
</g>
<!-- Node25&#45;&gt;Node9 -->
<g id="edge114" class="edge"><title>Node25&#45;&gt;Node9</title>
<path fill="none" stroke="midnightblue" d="M827.449,-290.424C829.898,-275.43 834.705,-255.447 844,-240 852.995,-225.052 868.01,-211.918 879.6,-203.185"/>
<polygon fill="midnightblue" stroke="midnightblue" points="823.922,-290.37 825.999,-300.759 830.854,-291.342 823.922,-290.37"/>
</g>
<!-- Node26 -->
<g id="node84" class="node"><title>Node26</title>
<a xlink:href="workunitkey_8cpp.html" target="_top" xlink:title="This file declares the functionality of the metadata used to sort workunits.">
<polygon fill="white" stroke="black" points="853,-241 853,-263 941,-263 941,-241 853,-241"/>
<text text-anchor="middle" x="897" y="-250" font-family="FreeSans" font-size="10.00">workunitkey.cpp</text>
</a>
</g>
<!-- Node25&#45;&gt;Node26 -->
<g id="edge116" class="edge"><title>Node25&#45;&gt;Node26</title>
<path fill="none" stroke="midnightblue" d="M846.028,-294.476C858.08,-284.434 872.855,-272.121 883.389,-263.343"/>
<polygon fill="midnightblue" stroke="midnightblue" points="843.647,-291.904 838.206,-300.995 848.129,-297.282 843.647,-291.904"/>
</g>
</g>
</svg>
        <g id="navigator" transform="translate(0 0)" fill="#404254">
                <rect fill="#f2f5e9" fill-opacity="0.5" stroke="#606060" stroke-width=".5" x="0" y="0" width="60" height="60"/>
                <use id="zoomplus" xlink:href="#zoomPlus" x="17" y="9" onmousedown="handleZoom(evt,'in')"/>
                <use id="zoomminus" xlink:href="#zoomMin" x="42" y="9" onmousedown="handleZoom(evt,'out')"/>
                <use id="reset" xlink:href="#resetDef" x="30" y="36" onmousedown="handleReset()"/>
                <g id="arrowUp" xlink:href="#dirArrow" transform="translate(30 24)" onmousedown="handlePan(0,-1)">
                  <use xlink:href="#rim" fill="#404040">
                        <set attributeName="fill" to="#808080" begin="arrowUp.mouseover" end="arrowUp.mouseout"/>
                  </use>
                  <path fill="none" stroke="white" stroke-width="1.5" d="M0,-3.0v7 M-2.5,-0.5L0,-3.0L2.5,-0.5"/>
                </g>
                <g id="arrowRight" xlink:href="#dirArrow" transform="rotate(90) translate(36 -43)" onmousedown="handlePan(1,0)">
                  <use xlink:href="#rim" fill="#404040">
                        <set attributeName="fill" to="#808080" begin="arrowRight.mouseover" end="arrowRight.mouseout"/>
                  </use>
                  <path fill="none" stroke="white" stroke-width="1.5" d="M0,-3.0v7 M-2.5,-0.5L0,-3.0L2.5,-0.5"/>
                </g>
                <g id="arrowDown" xlink:href="#dirArrow" transform="rotate(180) translate(-30 -48)" onmousedown="handlePan(0,1)">
                  <use xlink:href="#rim" fill="#404040">
                        <set attributeName="fill" to="#808080" begin="arrowDown.mouseover" end="arrowDown.mouseout"/>
                  </use>
                  <path fill="none" stroke="white" stroke-width="1.5" d="M0,-3.0v7 M-2.5,-0.5L0,-3.0L2.5,-0.5"/>
                </g>
                <g id="arrowLeft" xlink:href="#dirArrow" transform="rotate(270) translate(-36 17)" onmousedown="handlePan(-1,0)">
                  <use xlink:href="#rim" fill="#404040">
                        <set attributeName="fill" to="#808080" begin="arrowLeft.mouseover" end="arrowLeft.mouseout"/>
                  </use>
                  <path fill="none" stroke="white" stroke-width="1.5" d="M0,-3.0v7 M-2.5,-0.5L0,-3.0L2.5,-0.5"/>
                </g>
        </g>
</svg>
