<?xml version="1.0" encoding="UTF-8" standalone="no"?>
<!DOCTYPE svg PUBLIC "-//W3C//DTD SVG 1.1//EN"
 "http://www.w3.org/Graphics/SVG/1.1/DTD/svg11.dtd">
<!-- Generated by graphviz version 2.26.3 (20100126.1600)
 -->
<!-- Title: G Pages: 1 -->
<!--zoomable 392 -->
<svg id="main" version="1.1" xmlns="http://www.w3.org/2000/svg" xmlns:xlink="http://www.w3.org/1999/xlink" xml:space="preserve" onload="init(evt)">
        <defs>
                <circle id="rim" cx="0" cy="0" r="7"/>
                <circle id="rim2" cx="0" cy="0" r="3.5"/>
                <g id="zoomPlus">
                        <use xlink:href="#rim" fill="#404040">
                                <set attributeName="fill" to="#808080" begin="zoomplus.mouseover" end="zoomplus.mouseout"/>
                        </use>
                        <path d="M-4,0h8M0,-4v8" fill="none" stroke="white" stroke-width="1.5" pointer-events="none"/>
                </g>
                <g id="zoomMin">
                        <use xlink:href="#rim" fill="#404040">
                                <set attributeName="fill" to="#808080" begin="zoomminus.mouseover" end="zoomminus.mouseout"/>
                        </use>
                        <path d="M-4,0h8" fill="none" stroke="white" stroke-width="1.5" pointer-events="none"/>
                </g>
                <g id="dirArrow">
                        <path fill="none" stroke="white" stroke-width="1.5" d="M0,-3.0v7 M-2.5,-0.5L0,-3.0L2.5,-0.5"/>
                </g>
               <g id="resetDef">
                       <use xlink:href="#rim2" fill="#404040">
                               <set attributeName="fill" to="#808080" begin="reset.mouseover" end="reset.mouseout"/>
                       </use>
               </g>
        </defs>

<script type="text/javascript">
var viewWidth = 1122;
var viewHeight = 392;
var sectionId = 'dynsection-1';
</script>
<script xlink:href="svgpan.js"/>
<svg id="graph" class="graph">
<g id="viewport">
<title>G</title>
<polygon fill="white" stroke="white" points="-4,5 -4,-388 1119,-388 1119,5 -4,5"/>
<!-- Node1 -->
<g id="node1" class="node"><title>Node1</title>
<polygon fill="#bfbfbf" stroke="black" points="656,-361 656,-383 724,-383 724,-361 656,-361"/>
<text text-anchor="middle" x="690" y="-370" font-family="FreeSans" font-size="10.00">datatypes.h</text>
</g>
<!-- Node2 -->
<g id="node3" class="node"><title>Node2</title>
<a xlink:href="monopoly_8h.html" target="_top" xlink:title="Contains an interface for a kind of WorkUnit that consumes time on multiple thread.">
<polygon fill="white" stroke="black" points="309,-61 309,-83 377,-83 377,-61 309,-61"/>
<text text-anchor="middle" x="343" y="-70" font-family="FreeSans" font-size="10.00">monopoly.h</text>
</a>
</g>
<!-- Node1&#45;&gt;Node2 -->
<g id="edge2" class="edge"><title>Node1&#45;&gt;Node2</title>
<path fill="none" stroke="midnightblue" d="M645.824,-367.164C547.462,-355.171 319,-319.997 319,-252 319,-252 319,-252 319,-192 319,-151.208 332.5,-104.104 339.25,-83.1015"/>
<polygon fill="midnightblue" stroke="midnightblue" points="645.418,-370.641 655.762,-368.351 646.248,-363.69 645.418,-370.641"/>
</g>
<!-- Node4 -->
<g id="node7" class="node"><title>Node4</title>
<a xlink:href="dagframescheduler_8h.html" target="_top" xlink:title="This is the file that code using this library should include. It includes all the required components...">
<polygon fill="white" stroke="black" points="544,-1 544,-23 656,-23 656,-1 544,-1"/>
<text text-anchor="middle" x="600" y="-10" font-family="FreeSans" font-size="10.00">dagframescheduler.h</text>
</a>
</g>
<!-- Node1&#45;&gt;Node4 -->
<g id="edge64" class="edge"><title>Node1&#45;&gt;Node4</title>
<path fill="none" stroke="midnightblue" d="M734.337,-368.901C843.041,-360.091 1114,-330.281 1114,-252 1114,-252 1114,-252 1114,-132 1114,-38.8752 790.001,-17.9805 656.477,-13.3235"/>
<polygon fill="midnightblue" stroke="midnightblue" points="734.033,-365.414 724.339,-369.689 734.583,-372.393 734.033,-365.414"/>
</g>
<!-- Node7 -->
<g id="node13" class="node"><title>Node7</title>
<a xlink:href="workunit_8h.html" target="_top" xlink:title="This file has the defintion of the workunit.">
<polygon fill="white" stroke="black" points="477.5,-121 477.5,-143 538.5,-143 538.5,-121 477.5,-121"/>
<text text-anchor="middle" x="508" y="-130" font-family="FreeSans" font-size="10.00">workunit.h</text>
</a>
</g>
<!-- Node1&#45;&gt;Node7 -->
<g id="edge12" class="edge"><title>Node1&#45;&gt;Node7</title>
<path fill="none" stroke="midnightblue" d="M645.891,-364.681C572.369,-349.729 427.734,-307.859 376,-204 354.584,-161.007 432.145,-142.621 477.467,-135.68"/>
<polygon fill="midnightblue" stroke="midnightblue" points="645.29,-368.13 655.776,-366.616 646.635,-361.26 645.29,-368.13"/>
</g>
<!-- Node8 -->
<g id="node16" class="node"><title>Node8</title>
<a xlink:href="asynchronousworkunit_8h.html" target="_top" xlink:title="Contains an interface for a kind of WorkUnit that loads or writes a.">
<polygon fill="white" stroke="black" points="538.5,-61 538.5,-83 661.5,-83 661.5,-61 538.5,-61"/>
<text text-anchor="middle" x="600" y="-70" font-family="FreeSans" font-size="10.00">asynchronousworkunit.h</text>
</a>
</g>
<!-- Node1&#45;&gt;Node8 -->
<g id="edge58" class="edge"><title>Node1&#45;&gt;Node8</title>
<path fill="none" stroke="midnightblue" d="M700.429,-351.513C711.371,-328.084 727,-288.273 727,-252 727,-252 727,-252 727,-192 727,-137.398 664.213,-100.254 626.933,-83.012"/>
<polygon fill="midnightblue" stroke="midnightblue" points="697.153,-350.248 695.945,-360.773 703.453,-353.298 697.153,-350.248"/>
</g>
<!-- Node9 -->
<g id="node19" class="node"><title>Node9</title>
<a xlink:href="frameschedulerworkunits_8h.html" target="_top" xlink:title="This defines a number of workunits that are required for doing some tasks that the Framescheduler req...">
<polygon fill="white" stroke="black" points="117,-61 117,-83 253,-83 253,-61 117,-61"/>
<text text-anchor="middle" x="185" y="-70" font-family="FreeSans" font-size="10.00">frameschedulerworkunits.h</text>
</a>
</g>
<!-- Node1&#45;&gt;Node9 -->
<g id="edge76" class="edge"><title>Node1&#45;&gt;Node9</title>
<path fill="none" stroke="midnightblue" d="M645.748,-369.008C552.337,-362.36 337.88,-345.257 268,-324 202.943,-304.21 133,-320 133,-252 133,-252 133,-252 133,-192 133,-148.86 161.644,-103.655 176.413,-83.2134"/>
<polygon fill="midnightblue" stroke="midnightblue" points="645.772,-372.518 655.993,-369.73 646.264,-365.536 645.772,-372.518"/>
</g>
<!-- Node12 -->
<g id="node27" class="node"><title>Node12</title>
<a xlink:href="framescheduler_8h.html" target="_top" xlink:title="This file has the Declarations for the main FrameScheduler class.">
<polygon fill="white" stroke="black" points="385,-181 385,-203 479,-203 479,-181 385,-181"/>
<text text-anchor="middle" x="432" y="-190" font-family="FreeSans" font-size="10.00">framescheduler.h</text>
</a>
</g>
<!-- Node1&#45;&gt;Node12 -->
<g id="edge30" class="edge"><title>Node1&#45;&gt;Node12</title>
<path fill="none" stroke="midnightblue" d="M651.066,-357.223C607.839,-339.54 537.511,-306.865 487,-264 465.772,-245.985 447.606,-218.462 438.416,-203.191"/>
<polygon fill="midnightblue" stroke="midnightblue" points="649.805,-360.488 660.389,-360.976 652.419,-353.995 649.805,-360.488"/>
</g>
<!-- Node13 -->
<g id="node32" class="node"><title>Node13</title>
<a xlink:href="systemcalls_8h.html" target="_top" xlink:title="This file defines a minimalistic cross&#45;platform thread that the scheduler uses to schedule tasks...">
<polygon fill="white" stroke="black" points="779.5,-301 779.5,-323 856.5,-323 856.5,-301 779.5,-301"/>
<text text-anchor="middle" x="818" y="-310" font-family="FreeSans" font-size="10.00">systemcalls.h</text>
</a>
</g>
<!-- Node1&#45;&gt;Node13 -->
<g id="edge38" class="edge"><title>Node1&#45;&gt;Node13</title>
<path fill="none" stroke="midnightblue" d="M722.591,-356.723C744.936,-346.249 774.071,-332.592 794.238,-323.138"/>
<polygon fill="midnightblue" stroke="midnightblue" points="721.046,-353.582 713.477,-360.995 724.017,-359.92 721.046,-353.582"/>
</g>
<!-- Node16 -->
<g id="node43" class="node"><title>Node16</title>
<a xlink:href="systemcalls_8cpp.html" target="_top" xlink:title="This file defines some time&#45;tracking functions.">
<polygon fill="white" stroke="black" points="919,-241 919,-263 1007,-263 1007,-241 919,-241"/>
<text text-anchor="middle" x="963" y="-250" font-family="FreeSans" font-size="10.00">systemcalls.cpp</text>
</a>
</g>
<!-- Node1&#45;&gt;Node16 -->
<g id="edge94" class="edge"><title>Node1&#45;&gt;Node16</title>
<path fill="none" stroke="midnightblue" d="M734.488,-364.475C770.848,-357.24 822.928,-344.358 865,-324 899.018,-307.54 933.377,-278.897 950.968,-263.155"/>
<polygon fill="midnightblue" stroke="midnightblue" points="733.363,-361.127 724.205,-366.454 734.686,-368.001 733.363,-361.127"/>
</g>
<!-- Node17 -->
<g id="node47" class="node"><title>Node17</title>
<a xlink:href="atomiccas_8h.html" target="_top" xlink:title="A simple thread safe way to check and change a specified variable atomically.">
<polygon fill="white" stroke="black" points="1015.5,-121 1015.5,-143 1086.5,-143 1086.5,-121 1015.5,-121"/>
<text text-anchor="middle" x="1051" y="-130" font-family="FreeSans" font-size="10.00">atomiccas.h</text>
</a>
</g>
<!-- Node1&#45;&gt;Node17 -->
<g id="edge60" class="edge"><title>Node1&#45;&gt;Node17</title>
<path fill="none" stroke="midnightblue" d="M734.305,-370.065C787.903,-366.355 879.91,-355.534 952,-324 992.719,-306.188 1007.71,-301.218 1032,-264 1057.06,-225.611 1054.72,-167.642 1052.37,-143.345"/>
<polygon fill="midnightblue" stroke="midnightblue" points="733.871,-366.586 724.115,-370.717 734.318,-373.572 733.871,-366.586"/>
</g>
<!-- Node18 -->
<g id="node51" class="node"><title>Node18</title>
<a xlink:href="doublebufferedresource_8h.html" target="_top" xlink:title="This file defines the template double buffered resources that can be attached to a thread...">
<polygon fill="white" stroke="black" points="160.5,-241 160.5,-263 291.5,-263 291.5,-241 160.5,-241"/>
<text text-anchor="middle" x="226" y="-250" font-family="FreeSans" font-size="10.00">doublebufferedresource.h</text>
</a>
</g>
<!-- Node1&#45;&gt;Node18 -->
<g id="edge66" class="edge"><title>Node1&#45;&gt;Node18</title>
<path fill="none" stroke="midnightblue" d="M645.745,-369.843C557.898,-365.018 364.821,-351.548 305,-324 274.323,-309.873 247.336,-279.442 234.297,-263.029"/>
<polygon fill="midnightblue" stroke="midnightblue" points="645.747,-373.348 655.92,-370.389 646.122,-366.358 645.747,-373.348"/>
</g>
<!-- Node19 -->
<g id="node58" class="node"><title>Node19</title>
<a xlink:href="rollingaverage_8h.html" target="_top" xlink:title="This Store the implementation and the declaration of the RollingAverage, BufferedRollingAverage, WeightedRollingAverage and the DefaultRollingAverage.">
<polygon fill="white" stroke="black" points="948.5,-181 948.5,-203 1037.5,-203 1037.5,-181 948.5,-181"/>
<text text-anchor="middle" x="993" y="-190" font-family="FreeSans" font-size="10.00">rollingaverage.h</text>
</a>
</g>
<!-- Node1&#45;&gt;Node19 -->
<g id="edge78" class="edge"><title>Node1&#45;&gt;Node19</title>
<path fill="none" stroke="midnightblue" d="M734.037,-364.498C815.87,-349.497 985.835,-312.992 1016,-264 1028.04,-244.445 1012.87,-217.98 1002.07,-203.19"/>
<polygon fill="midnightblue" stroke="midnightblue" points="733.257,-361.082 724.039,-366.304 734.502,-367.97 733.257,-361.082"/>
</g>
<!-- Node20 -->
<g id="node62" class="node"><title>Node20</title>
<a xlink:href="workunitkey_8h.html" target="_top" xlink:title="This file defines the metadata used to sort workunits.">
<polygon fill="white" stroke="black" points="540.5,-241 540.5,-263 617.5,-263 617.5,-241 540.5,-241"/>
<text text-anchor="middle" x="579" y="-250" font-family="FreeSans" font-size="10.00">workunitkey.h</text>
</a>
</g>
<!-- Node1&#45;&gt;Node20 -->
<g id="edge84" class="edge"><title>Node1&#45;&gt;Node20</title>
<path fill="none" stroke="midnightblue" d="M672.836,-353.444C649.442,-328.154 608.281,-283.655 589.219,-263.047"/>
<polygon fill="midnightblue" stroke="midnightblue" points="670.397,-355.961 679.756,-360.926 675.535,-351.208 670.397,-355.961"/>
</g>
<!-- Node3 -->
<g id="node5" class="node"><title>Node3</title>
<a xlink:href="asynchronousworkunit_8cpp.html" target="_top" xlink:title="Contains the minimal implementation for the monopoly base class.">
<polygon fill="white" stroke="black" points="286,-1 286,-23 420,-23 420,-1 286,-1"/>
<text text-anchor="middle" x="353" y="-10" font-family="FreeSans" font-size="10.00">asynchronousworkunit.cpp</text>
</a>
</g>
<!-- Node2&#45;&gt;Node3 -->
<g id="edge4" class="edge"><title>Node2&#45;&gt;Node3</title>
<path fill="none" stroke="midnightblue" d="M346.514,-50.9183C348.06,-41.6393 349.815,-31.1082 351.11,-23.3428"/>
<polygon fill="midnightblue" stroke="midnightblue" points="343.026,-50.5557 344.834,-60.9951 349.931,-51.7066 343.026,-50.5557"/>
</g>
<!-- Node2&#45;&gt;Node4 -->
<g id="edge6" class="edge"><title>Node2&#45;&gt;Node4</title>
<path fill="none" stroke="midnightblue" d="M387.146,-60.9293C388.444,-60.6146 389.731,-60.3042 391,-60 445.485,-46.9339 508.142,-32.6411 550.53,-23.0798"/>
<polygon fill="midnightblue" stroke="midnightblue" points="385.949,-57.6188 377.069,-63.397 387.614,-64.4179 385.949,-57.6188"/>
</g>
<!-- Node5 -->
<g id="node9" class="node"><title>Node5</title>
<a xlink:href="framescheduler_8cpp.html" target="_top" xlink:title="This is the core object implementation for this algorithm.">
<polygon fill="white" stroke="black" points="164,-1 164,-23 268,-23 268,-1 164,-1"/>
<text text-anchor="middle" x="216" y="-10" font-family="FreeSans" font-size="10.00">framescheduler.cpp</text>
</a>
</g>
<!-- Node2&#45;&gt;Node5 -->
<g id="edge8" class="edge"><title>Node2&#45;&gt;Node5</title>
<path fill="none" stroke="midnightblue" d="M310.663,-56.7227C288.494,-46.2489 259.586,-32.5916 239.576,-23.1383"/>
<polygon fill="midnightblue" stroke="midnightblue" points="309.169,-59.8879 319.706,-60.9951 312.16,-53.5587 309.169,-59.8879"/>
</g>
<!-- Node6 -->
<g id="node11" class="node"><title>Node6</title>
<a xlink:href="monopoly_8cpp.html" target="_top" xlink:title="Contains the minimal implementation for the monopoly base class.">
<polygon fill="white" stroke="black" points="437.5,-1 437.5,-23 516.5,-23 516.5,-1 437.5,-1"/>
<text text-anchor="middle" x="477" y="-10" font-family="FreeSans" font-size="10.00">monopoly.cpp</text>
</a>
</g>
<!-- Node2&#45;&gt;Node6 -->
<g id="edge10" class="edge"><title>Node2&#45;&gt;Node6</title>
<path fill="none" stroke="midnightblue" d="M376.806,-56.8628C400.238,-46.371 430.918,-32.6338 452.124,-23.1383"/>
<polygon fill="midnightblue" stroke="midnightblue" points="375.274,-53.714 367.578,-60.9951 378.135,-60.1028 375.274,-53.714"/>
</g>
<!-- Node7&#45;&gt;Node2 -->
<g id="edge14" class="edge"><title>Node7&#45;&gt;Node2</title>
<path fill="none" stroke="midnightblue" d="M468.252,-117.546C439.075,-106.937 400.042,-92.7424 373.351,-83.0366"/>
<polygon fill="midnightblue" stroke="midnightblue" points="467.142,-120.867 477.736,-120.995 469.535,-114.288 467.142,-120.867"/>
</g>
<!-- Node7&#45;&gt;Node4 -->
<g id="edge26" class="edge"><title>Node7&#45;&gt;Node4</title>
<path fill="none" stroke="midnightblue" d="M510.644,-110.923C513.417,-95.6032 518.985,-75.008 530,-60 541.857,-43.844 560.872,-31.3069 576.093,-23.1032"/>
<polygon fill="midnightblue" stroke="midnightblue" points="507.157,-110.572 509.082,-120.99 514.074,-111.646 507.157,-110.572"/>
</g>
<!-- Node7&#45;&gt;Node8 -->
<g id="edge16" class="edge"><title>Node7&#45;&gt;Node8</title>
<path fill="none" stroke="midnightblue" d="M533.604,-115.302C549.342,-105.038 569.073,-92.1696 582.921,-83.1383"/>
<polygon fill="midnightblue" stroke="midnightblue" points="531.338,-112.601 524.874,-120.995 535.162,-118.464 531.338,-112.601"/>
</g>
<!-- Node7&#45;&gt;Node9 -->
<g id="edge20" class="edge"><title>Node7&#45;&gt;Node9</title>
<path fill="none" stroke="midnightblue" d="M467.366,-124.452C411.093,-113.999 309.064,-95.0459 244.285,-83.0127"/>
<polygon fill="midnightblue" stroke="midnightblue" points="466.851,-127.916 477.322,-126.301 468.129,-121.034 466.851,-127.916"/>
</g>
<!-- Node11 -->
<g id="node25" class="node"><title>Node11</title>
<a xlink:href="workunit_8cpp.html" target="_top" xlink:title="This file has the implementation of the workunit.">
<polygon fill="white" stroke="black" points="889.5,-61 889.5,-83 960.5,-83 960.5,-61 889.5,-61"/>
<text text-anchor="middle" x="925" y="-70" font-family="FreeSans" font-size="10.00">workunit.cpp</text>
</a>
</g>
<!-- Node7&#45;&gt;Node11 -->
<g id="edge28" class="edge"><title>Node7&#45;&gt;Node11</title>
<path fill="none" stroke="midnightblue" d="M549.039,-126.095C630.697,-114.346 812.292,-88.217 889.335,-77.1317"/>
<polygon fill="midnightblue" stroke="midnightblue" points="548.063,-122.699 538.663,-127.588 549.06,-129.628 548.063,-122.699"/>
</g>
<!-- Node8&#45;&gt;Node4 -->
<g id="edge18" class="edge"><title>Node8&#45;&gt;Node4</title>
<path fill="none" stroke="midnightblue" d="M600,-50.9183C600,-41.6393 600,-31.1082 600,-23.3428"/>
<polygon fill="midnightblue" stroke="midnightblue" points="596.5,-50.995 600,-60.9951 603.5,-50.9951 596.5,-50.995"/>
</g>
<!-- Node9&#45;&gt;Node4 -->
<g id="edge22" class="edge"><title>Node9&#45;&gt;Node4</title>
<path fill="none" stroke="midnightblue" d="M263.029,-61.3998C331.98,-51.9335 435.244,-37.515 525,-24 531.129,-23.0772 537.535,-22.0887 543.91,-21.0899"/>
<polygon fill="midnightblue" stroke="midnightblue" points="262.542,-57.9337 253.11,-62.7598 263.493,-64.8688 262.542,-57.9337"/>
</g>
<!-- Node10 -->
<g id="node22" class="node"><title>Node10</title>
<a xlink:href="frameschedulerworkunits_8cpp.html" target="_top" xlink:title="The implementation of any workunits the framescheduler needs to work correctly.">
<polygon fill="white" stroke="black" points="0,-1 0,-23 146,-23 146,-1 0,-1"/>
<text text-anchor="middle" x="73" y="-10" font-family="FreeSans" font-size="10.00">frameschedulerworkunits.cpp</text>
</a>
</g>
<!-- Node9&#45;&gt;Node10 -->
<g id="edge24" class="edge"><title>Node9&#45;&gt;Node10</title>
<path fill="none" stroke="midnightblue" d="M155.429,-56.1586C136.023,-45.7625 111.123,-32.4228 93.7916,-23.1383"/>
<polygon fill="midnightblue" stroke="midnightblue" points="153.99,-59.358 164.457,-60.9951 157.295,-53.1876 153.99,-59.358"/>
</g>
<!-- Node12&#45;&gt;Node4 -->
<g id="edge34" class="edge"><title>Node12&#45;&gt;Node4</title>
<path fill="none" stroke="midnightblue" d="M440.102,-171.565C452.285,-143.145 477.814,-91.6214 514,-60 531.897,-44.3608 555.713,-31.5536 573.744,-23.1138"/>
<polygon fill="midnightblue" stroke="midnightblue" points="436.824,-170.333 436.222,-180.911 443.289,-173.017 436.824,-170.333"/>
</g>
<!-- Node12&#45;&gt;Node5 -->
<g id="edge36" class="edge"><title>Node12&#45;&gt;Node5</title>
<path fill="none" stroke="midnightblue" d="M410.217,-174.431C383.945,-153.183 338.509,-116.251 300,-84 274.525,-62.6652 245.12,-37.2848 228.73,-23.0698"/>
<polygon fill="midnightblue" stroke="midnightblue" points="408.063,-177.19 418.041,-180.753 412.462,-171.746 408.063,-177.19"/>
</g>
<!-- Node12&#45;&gt;Node7 -->
<g id="edge32" class="edge"><title>Node12&#45;&gt;Node7</title>
<path fill="none" stroke="midnightblue" d="M453.884,-174.723C466.76,-164.558 482.666,-152.001 493.891,-143.138"/>
<polygon fill="midnightblue" stroke="midnightblue" points="451.62,-172.051 445.94,-180.995 455.957,-177.546 451.62,-172.051"/>
</g>
<!-- Node13&#45;&gt;Node4 -->
<g id="edge50" class="edge"><title>Node13&#45;&gt;Node4</title>
<path fill="none" stroke="midnightblue" d="M834.076,-292.696C853.83,-266.483 882.575,-218.487 864,-180 820.552,-89.975 703.178,-42.5719 640.591,-23.0287"/>
<polygon fill="midnightblue" stroke="midnightblue" points="831.214,-290.675 827.803,-300.705 836.725,-294.991 831.214,-290.675"/>
</g>
<!-- Node13&#45;&gt;Node11 -->
<g id="edge56" class="edge"><title>Node13&#45;&gt;Node11</title>
<path fill="none" stroke="midnightblue" d="M839.388,-293.964C848.614,-285.488 859.081,-274.868 867,-264 909.857,-205.181 921.395,-114.431 924.187,-83.091"/>
<polygon fill="midnightblue" stroke="midnightblue" points="836.837,-291.549 831.695,-300.812 841.491,-296.777 836.837,-291.549"/>
</g>
<!-- Node13&#45;&gt;Node12 -->
<g id="edge52" class="edge"><title>Node13&#45;&gt;Node12</title>
<path fill="none" stroke="midnightblue" d="M768.97,-306.5C698.896,-298.177 573.933,-281.49 532,-264 496.263,-249.094 461.071,-219.274 443.518,-203.08"/>
<polygon fill="midnightblue" stroke="midnightblue" points="768.969,-310.024 779.309,-307.714 769.786,-303.071 768.969,-310.024"/>
</g>
<!-- Node14 -->
<g id="node34" class="node"><title>Node14</title>
<a xlink:href="thread_8h.html" target="_top" xlink:title="This file defines a minimalistic cross&#45;platform thread that the scheduler uses to schedule tasks...">
<polygon fill="white" stroke="black" points="754.5,-241 754.5,-263 807.5,-263 807.5,-241 754.5,-241"/>
<text text-anchor="middle" x="781" y="-250" font-family="FreeSans" font-size="10.00">thread.h</text>
</a>
</g>
<!-- Node13&#45;&gt;Node14 -->
<g id="edge40" class="edge"><title>Node13&#45;&gt;Node14</title>
<path fill="none" stroke="midnightblue" d="M805.925,-292.419C799.988,-282.792 793.044,-271.53 787.995,-263.343"/>
<polygon fill="midnightblue" stroke="midnightblue" points="802.986,-294.32 811.214,-300.995 808.944,-290.646 802.986,-294.32"/>
</g>
<!-- Node13&#45;&gt;Node16 -->
<g id="edge54" class="edge"><title>Node13&#45;&gt;Node16</title>
<path fill="none" stroke="midnightblue" d="M853.907,-297.142C879.346,-286.616 912.931,-272.718 936.082,-263.138"/>
<polygon fill="midnightblue" stroke="midnightblue" points="852.497,-293.937 844.595,-300.995 855.174,-300.406 852.497,-293.937"/>
</g>
<!-- Node14&#45;&gt;Node4 -->
<g id="edge44" class="edge"><title>Node14&#45;&gt;Node4</title>
<path fill="none" stroke="midnightblue" d="M777.645,-230.759C772.693,-203.638 761.694,-155.927 741,-120 722.794,-88.3915 713.66,-82.5648 685,-60 665.959,-45.0083 641.668,-31.7879 623.934,-23.0376"/>
<polygon fill="midnightblue" stroke="midnightblue" points="774.213,-231.45 779.357,-240.712 781.111,-230.263 774.213,-231.45"/>
</g>
<!-- Node14&#45;&gt;Node7 -->
<g id="edge48" class="edge"><title>Node14&#45;&gt;Node7</title>
<path fill="none" stroke="midnightblue" d="M750.465,-236.349C720.581,-221.245 673.612,-198.073 632,-180 600.557,-166.344 563.868,-152.379 538.599,-143.06"/>
<polygon fill="midnightblue" stroke="midnightblue" points="749.038,-239.549 759.539,-240.952 752.205,-233.307 749.038,-239.549"/>
</g>
<!-- Node14&#45;&gt;Node12 -->
<g id="edge42" class="edge"><title>Node14&#45;&gt;Node12</title>
<path fill="none" stroke="midnightblue" d="M744.497,-245.724C680.817,-234.776 549.504,-212.201 479.075,-200.093"/>
<polygon fill="midnightblue" stroke="midnightblue" points="744.033,-249.196 754.482,-247.441 745.219,-242.297 744.033,-249.196"/>
</g>
<!-- Node15 -->
<g id="node38" class="node"><title>Node15</title>
<a xlink:href="thread_8cpp.html" target="_top" xlink:title="This file implements a minimalistic cross&#45;platform thread that the scheduler uses to schedule tasks...">
<polygon fill="white" stroke="black" points="792.5,-181 792.5,-203 855.5,-203 855.5,-181 792.5,-181"/>
<text text-anchor="middle" x="824" y="-190" font-family="FreeSans" font-size="10.00">thread.cpp</text>
</a>
</g>
<!-- Node14&#45;&gt;Node15 -->
<g id="edge46" class="edge"><title>Node14&#45;&gt;Node15</title>
<path fill="none" stroke="midnightblue" d="M794.82,-232.717C801.766,-223.025 809.943,-211.615 815.871,-203.343"/>
<polygon fill="midnightblue" stroke="midnightblue" points="791.867,-230.828 788.887,-240.995 797.557,-234.906 791.867,-230.828"/>
</g>
<!-- Node17&#45;&gt;Node11 -->
<g id="edge62" class="edge"><title>Node17&#45;&gt;Node11</title>
<path fill="none" stroke="midnightblue" d="M1018.62,-116.582C996.667,-106.127 968.154,-92.5494 948.391,-83.1383"/>
<polygon fill="midnightblue" stroke="midnightblue" points="1017.36,-119.856 1027.89,-120.995 1020.37,-113.536 1017.36,-119.856"/>
</g>
<!-- Node18&#45;&gt;Node4 -->
<g id="edge68" class="edge"><title>Node18&#45;&gt;Node4</title>
<path fill="none" stroke="midnightblue" d="M246.652,-234.298C289.489,-198.177 392.038,-114.773 488,-60 514.273,-45.0039 546.141,-31.784 569.156,-23.0351"/>
<polygon fill="midnightblue" stroke="midnightblue" points="244.265,-231.733 238.9,-240.869 248.791,-237.073 244.265,-231.733"/>
</g>
<!-- Node18&#45;&gt;Node5 -->
<g id="edge72" class="edge"><title>Node18&#45;&gt;Node5</title>
<path fill="none" stroke="midnightblue" d="M206.975,-233.459C178.887,-204.605 127.541,-145.818 108,-84 104.785,-73.8294 102.188,-68.9439 108,-60 120.522,-40.7309 142.76,-29.1347 163.814,-22.186"/>
<polygon fill="midnightblue" stroke="midnightblue" points="204.708,-236.144 214.235,-240.781 209.679,-231.216 204.708,-236.144"/>
</g>
<!-- Node18&#45;&gt;Node9 -->
<g id="edge70" class="edge"><title>Node18&#45;&gt;Node9</title>
<path fill="none" stroke="midnightblue" d="M221.137,-230.65C212.384,-192.221 194.264,-112.672 187.564,-83.2556"/>
<polygon fill="midnightblue" stroke="midnightblue" points="217.802,-231.767 223.435,-240.74 224.627,-230.213 217.802,-231.767"/>
</g>
<!-- Node18&#45;&gt;Node12 -->
<g id="edge74" class="edge"><title>Node18&#45;&gt;Node12</title>
<path fill="none" stroke="midnightblue" d="M273.736,-238.096C310.352,-227.432 360.205,-212.911 394.108,-203.037"/>
<polygon fill="midnightblue" stroke="midnightblue" points="272.406,-234.838 263.784,-240.995 274.363,-241.559 272.406,-234.838"/>
</g>
<!-- Node19&#45;&gt;Node4 -->
<g id="edge80" class="edge"><title>Node19&#45;&gt;Node4</title>
<path fill="none" stroke="midnightblue" d="M996.031,-170.775C998.913,-141.361 999.087,-88.6044 969,-60 946.732,-38.8286 753.765,-22.6148 656.113,-15.6828"/>
<polygon fill="midnightblue" stroke="midnightblue" points="992.543,-170.466 994.851,-180.806 999.495,-171.284 992.543,-170.466"/>
</g>
<!-- Node19&#45;&gt;Node7 -->
<g id="edge82" class="edge"><title>Node19&#45;&gt;Node7</title>
<path fill="none" stroke="midnightblue" d="M938.11,-185.21C835.745,-172.546 618.829,-145.711 538.638,-135.79"/>
<polygon fill="midnightblue" stroke="midnightblue" points="937.888,-188.709 948.242,-186.463 938.747,-181.762 937.888,-188.709"/>
</g>
<!-- Node20&#45;&gt;Node4 -->
<g id="edge86" class="edge"><title>Node20&#45;&gt;Node4</title>
<path fill="none" stroke="midnightblue" d="M603.6,-234.393C613.615,-226.148 624.559,-215.589 632,-204 662.225,-156.924 661.455,-139.287 670,-84 671.629,-73.4585 674.972,-69.4372 670,-60 661.072,-43.0518 643.16,-30.9387 627.691,-23.1205"/>
<polygon fill="midnightblue" stroke="midnightblue" points="601.21,-231.819 595.504,-240.747 605.531,-237.326 601.21,-231.819"/>
</g>
<!-- Node20&#45;&gt;Node7 -->
<g id="edge90" class="edge"><title>Node20&#45;&gt;Node7</title>
<path fill="none" stroke="midnightblue" d="M554.052,-234.609C543.976,-226.402 533.08,-215.813 526,-204 514.342,-184.549 510.206,-157.812 508.76,-143.001"/>
<polygon fill="midnightblue" stroke="midnightblue" points="552.167,-237.575 562.221,-240.917 556.446,-232.035 552.167,-237.575"/>
</g>
<!-- Node20&#45;&gt;Node12 -->
<g id="edge88" class="edge"><title>Node20&#45;&gt;Node12</title>
<path fill="none" stroke="midnightblue" d="M542.566,-237.129C516.689,-226.567 482.509,-212.616 459.04,-203.037"/>
<polygon fill="midnightblue" stroke="midnightblue" points="541.457,-240.457 552.038,-240.995 544.102,-233.976 541.457,-240.457"/>
</g>
<!-- Node21 -->
<g id="node67" class="node"><title>Node21</title>
<a xlink:href="workunitkey_8cpp.html" target="_top" xlink:title="This file declares the functionality of the metadata used to sort workunits.">
<polygon fill="white" stroke="black" points="535,-181 535,-203 623,-203 623,-181 535,-181"/>
<text text-anchor="middle" x="579" y="-190" font-family="FreeSans" font-size="10.00">workunitkey.cpp</text>
</a>
</g>
<!-- Node20&#45;&gt;Node21 -->
<g id="edge92" class="edge"><title>Node20&#45;&gt;Node21</title>
<path fill="none" stroke="midnightblue" d="M579,-230.918C579,-221.639 579,-211.108 579,-203.343"/>
<polygon fill="midnightblue" stroke="midnightblue" points="575.5,-230.995 579,-240.995 582.5,-230.995 575.5,-230.995"/>
</g>
</g>
</svg>
        <g id="navigator" transform="translate(0 0)" fill="#404254">
                <rect fill="#f2f5e9" fill-opacity="0.5" stroke="#606060" stroke-width=".5" x="0" y="0" width="60" height="60"/>
                <use id="zoomplus" xlink:href="#zoomPlus" x="17" y="9" onmousedown="handleZoom(evt,'in')"/>
                <use id="zoomminus" xlink:href="#zoomMin" x="42" y="9" onmousedown="handleZoom(evt,'out')"/>
                <use id="reset" xlink:href="#resetDef" x="30" y="36" onmousedown="handleReset()"/>
                <g id="arrowUp" xlink:href="#dirArrow" transform="translate(30 24)" onmousedown="handlePan(0,-1)">
                  <use xlink:href="#rim" fill="#404040">
                        <set attributeName="fill" to="#808080" begin="arrowUp.mouseover" end="arrowUp.mouseout"/>
                  </use>
                  <path fill="none" stroke="white" stroke-width="1.5" d="M0,-3.0v7 M-2.5,-0.5L0,-3.0L2.5,-0.5"/>
                </g>
                <g id="arrowRight" xlink:href="#dirArrow" transform="rotate(90) translate(36 -43)" onmousedown="handlePan(1,0)">
                  <use xlink:href="#rim" fill="#404040">
                        <set attributeName="fill" to="#808080" begin="arrowRight.mouseover" end="arrowRight.mouseout"/>
                  </use>
                  <path fill="none" stroke="white" stroke-width="1.5" d="M0,-3.0v7 M-2.5,-0.5L0,-3.0L2.5,-0.5"/>
                </g>
                <g id="arrowDown" xlink:href="#dirArrow" transform="rotate(180) translate(-30 -48)" onmousedown="handlePan(0,1)">
                  <use xlink:href="#rim" fill="#404040">
                        <set attributeName="fill" to="#808080" begin="arrowDown.mouseover" end="arrowDown.mouseout"/>
                  </use>
                  <path fill="none" stroke="white" stroke-width="1.5" d="M0,-3.0v7 M-2.5,-0.5L0,-3.0L2.5,-0.5"/>
                </g>
                <g id="arrowLeft" xlink:href="#dirArrow" transform="rotate(270) translate(-36 17)" onmousedown="handlePan(-1,0)">
                  <use xlink:href="#rim" fill="#404040">
                        <set attributeName="fill" to="#808080" begin="arrowLeft.mouseover" end="arrowLeft.mouseout"/>
                  </use>
                  <path fill="none" stroke="white" stroke-width="1.5" d="M0,-3.0v7 M-2.5,-0.5L0,-3.0L2.5,-0.5"/>
                </g>
        </g>
</svg>
