<?xml version="1.0" encoding="UTF-8" standalone="no"?>
<!DOCTYPE svg PUBLIC "-//W3C//DTD SVG 1.1//EN"
 "http://www.w3.org/Graphics/SVG/1.1/DTD/svg11.dtd">
<!-- Generated by graphviz version 2.26.3 (20100126.1600)
 -->
<!-- Title: G Pages: 1 -->
<!--zoomable 392 -->
<svg id="main" version="1.1" xmlns="http://www.w3.org/2000/svg" xmlns:xlink="http://www.w3.org/1999/xlink" xml:space="preserve" onload="init(evt)">
        <defs>
                <circle id="rim" cx="0" cy="0" r="7"/>
                <circle id="rim2" cx="0" cy="0" r="3.5"/>
                <g id="zoomPlus">
                        <use xlink:href="#rim" fill="#404040">
                                <set attributeName="fill" to="#808080" begin="zoomplus.mouseover" end="zoomplus.mouseout"/>
                        </use>
                        <path d="M-4,0h8M0,-4v8" fill="none" stroke="white" stroke-width="1.5" pointer-events="none"/>
                </g>
                <g id="zoomMin">
                        <use xlink:href="#rim" fill="#404040">
                                <set attributeName="fill" to="#808080" begin="zoomminus.mouseover" end="zoomminus.mouseout"/>
                        </use>
                        <path d="M-4,0h8" fill="none" stroke="white" stroke-width="1.5" pointer-events="none"/>
                </g>
                <g id="dirArrow">
                        <path fill="none" stroke="white" stroke-width="1.5" d="M0,-3.0v7 M-2.5,-0.5L0,-3.0L2.5,-0.5"/>
                </g>
               <g id="resetDef">
                       <use xlink:href="#rim2" fill="#404040">
                               <set attributeName="fill" to="#808080" begin="reset.mouseover" end="reset.mouseout"/>
                       </use>
               </g>
        </defs>

<script type="text/javascript">
var viewWidth = 1110;
var viewHeight = 392;
var sectionId = 'dynsection-1';
</script>
<script xlink:href="svgpan.js"/>
<svg id="graph" class="graph">
<g id="viewport">
<title>G</title>
<polygon fill="white" stroke="white" points="-4,5 -4,-388 1107,-388 1107,5 -4,5"/>
<!-- Node1 -->
<g id="node1" class="node"><title>Node1</title>
<polygon fill="#bfbfbf" stroke="black" points="450,-361 450,-383 518,-383 518,-361 450,-361"/>
<text text-anchor="middle" x="484" y="-370" font-family="FreeSans" font-size="10.00">datatypes.h</text>
</g>
<!-- Node2 -->
<g id="node3" class="node"><title>Node2</title>
<a xlink:href="monopoly_8h.html" target="_top" xlink:title="Contains an interface for a kind of WorkUnit that consumes time on multiple thread.">
<polygon fill="white" stroke="black" points="127,-61 127,-83 195,-83 195,-61 127,-61"/>
<text text-anchor="middle" x="161" y="-70" font-family="FreeSans" font-size="10.00">monopoly.h</text>
</a>
</g>
<!-- Node1&#45;&gt;Node2 -->
<g id="edge2" class="edge"><title>Node1&#45;&gt;Node2</title>
<path fill="none" stroke="midnightblue" d="M439.453,-369.882C323.814,-363.175 23,-337.511 23,-252 23,-252 23,-252 23,-192 23,-135.645 89.3431,-99.7487 130.03,-83.0333"/>
<polygon fill="midnightblue" stroke="midnightblue" points="439.547,-373.392 449.727,-370.456 439.938,-366.403 439.547,-373.392"/>
</g>
<!-- Node4 -->
<g id="node7" class="node"><title>Node4</title>
<a xlink:href="dagframescheduler_8h.html" target="_top" xlink:title="This is the file that code using this library should include. It includes all the required components...">
<polygon fill="white" stroke="black" points="561,-1 561,-23 673,-23 673,-1 561,-1"/>
<text text-anchor="middle" x="617" y="-10" font-family="FreeSans" font-size="10.00">dagframescheduler.h</text>
</a>
</g>
<!-- Node1&#45;&gt;Node4 -->
<g id="edge64" class="edge"><title>Node1&#45;&gt;Node4</title>
<path fill="none" stroke="midnightblue" d="M528.252,-370.674C636.173,-366.989 910.321,-354.797 996,-324 1049.59,-304.736 1102,-308.951 1102,-252 1102,-252 1102,-252 1102,-132 1102,-44.5006 800.776,-20.3858 673.109,-14.0946"/>
<polygon fill="midnightblue" stroke="midnightblue" points="527.915,-367.183 518.037,-371.014 528.148,-374.179 527.915,-367.183"/>
</g>
<!-- Node7 -->
<g id="node13" class="node"><title>Node7</title>
<a xlink:href="workunit_8h.html" target="_top" xlink:title="This file has the defintion of the workunit.">
<polygon fill="white" stroke="black" points="480.5,-121 480.5,-143 541.5,-143 541.5,-121 480.5,-121"/>
<text text-anchor="middle" x="511" y="-130" font-family="FreeSans" font-size="10.00">workunit.h</text>
</a>
</g>
<!-- Node1&#45;&gt;Node7 -->
<g id="edge12" class="edge"><title>Node1&#45;&gt;Node7</title>
<path fill="none" stroke="midnightblue" d="M480.54,-350.692C475.469,-314.782 468.223,-240.23 484,-180 487.586,-166.311 496.05,-152.407 502.553,-143.112"/>
<polygon fill="midnightblue" stroke="midnightblue" points="477.131,-351.558 482.078,-360.926 484.053,-350.517 477.131,-351.558"/>
</g>
<!-- Node8 -->
<g id="node16" class="node"><title>Node8</title>
<a xlink:href="asynchronousworkunit_8h.html" target="_top" xlink:title="Contains an interface for a kind of WorkUnit that loads or writes a.">
<polygon fill="white" stroke="black" points="644.5,-61 644.5,-83 767.5,-83 767.5,-61 644.5,-61"/>
<text text-anchor="middle" x="706" y="-70" font-family="FreeSans" font-size="10.00">asynchronousworkunit.h</text>
</a>
</g>
<!-- Node1&#45;&gt;Node8 -->
<g id="edge58" class="edge"><title>Node1&#45;&gt;Node8</title>
<path fill="none" stroke="midnightblue" d="M528.394,-369.329C625.813,-363.126 855.568,-346.54 930,-324 994.706,-304.405 1064,-319.608 1064,-252 1064,-252 1064,-252 1064,-192 1064,-130.218 869.9,-94.358 767.542,-79.7429"/>
<polygon fill="midnightblue" stroke="midnightblue" points="528.046,-365.844 518.286,-369.965 528.486,-372.83 528.046,-365.844"/>
</g>
<!-- Node9 -->
<g id="node19" class="node"><title>Node9</title>
<a xlink:href="frameschedulerworkunits_8h.html" target="_top" xlink:title="This defines a number of workunits that are required for doing some tasks that the Framescheduler req...">
<polygon fill="white" stroke="black" points="251,-61 251,-83 387,-83 387,-61 251,-61"/>
<text text-anchor="middle" x="319" y="-70" font-family="FreeSans" font-size="10.00">frameschedulerworkunits.h</text>
</a>
</g>
<!-- Node1&#45;&gt;Node9 -->
<g id="edge76" class="edge"><title>Node1&#45;&gt;Node9</title>
<path fill="none" stroke="midnightblue" d="M439.912,-366.17C401.335,-359.776 344.646,-347.185 300,-324 256.062,-301.182 215,-301.509 215,-252 215,-252 215,-252 215,-192 215,-158.905 213.777,-146.198 234,-120 247.255,-102.828 268.505,-90.8281 286.441,-83.1211"/>
<polygon fill="midnightblue" stroke="midnightblue" points="439.374,-369.628 449.799,-367.739 440.471,-362.715 439.374,-369.628"/>
</g>
<!-- Node12 -->
<g id="node27" class="node"><title>Node12</title>
<a xlink:href="framescheduler_8h.html" target="_top" xlink:title="This file has the Declarations for the main FrameScheduler class.">
<polygon fill="white" stroke="black" points="645,-181 645,-203 739,-203 739,-181 645,-181"/>
<text text-anchor="middle" x="692" y="-190" font-family="FreeSans" font-size="10.00">framescheduler.h</text>
</a>
</g>
<!-- Node1&#45;&gt;Node12 -->
<g id="edge30" class="edge"><title>Node1&#45;&gt;Node12</title>
<path fill="none" stroke="midnightblue" d="M504.821,-353.982C547.641,-316.926 644.476,-233.127 679.259,-203.026"/>
<polygon fill="midnightblue" stroke="midnightblue" points="502.283,-351.55 497.011,-360.74 506.863,-356.843 502.283,-351.55"/>
</g>
<!-- Node13 -->
<g id="node32" class="node"><title>Node13</title>
<a xlink:href="systemcalls_8h.html" target="_top" xlink:title="This file defines a minimalistic cross&#45;platform thread that the scheduler uses to schedule tasks...">
<polygon fill="white" stroke="black" points="811.5,-301 811.5,-323 888.5,-323 888.5,-301 811.5,-301"/>
<text text-anchor="middle" x="850" y="-310" font-family="FreeSans" font-size="10.00">systemcalls.h</text>
</a>
</g>
<!-- Node1&#45;&gt;Node13 -->
<g id="edge38" class="edge"><title>Node1&#45;&gt;Node13</title>
<path fill="none" stroke="midnightblue" d="M528.254,-364.745C600.613,-352.883 743.03,-329.536 811.48,-318.315"/>
<polygon fill="midnightblue" stroke="midnightblue" points="527.406,-361.337 518.104,-366.409 528.538,-368.245 527.406,-361.337"/>
</g>
<!-- Node16 -->
<g id="node43" class="node"><title>Node16</title>
<a xlink:href="systemcalls_8cpp.html" target="_top" xlink:title="This file defines some time&#45;tracking functions.">
<polygon fill="white" stroke="black" points="948,-241 948,-263 1036,-263 1036,-241 948,-241"/>
<text text-anchor="middle" x="992" y="-250" font-family="FreeSans" font-size="10.00">systemcalls.cpp</text>
</a>
</g>
<!-- Node1&#45;&gt;Node16 -->
<g id="edge94" class="edge"><title>Node1&#45;&gt;Node16</title>
<path fill="none" stroke="midnightblue" d="M528.295,-369.8C620.676,-364.736 830.815,-350.598 897,-324 931.948,-309.955 965.22,-279.489 981.536,-263.05"/>
<polygon fill="midnightblue" stroke="midnightblue" points="527.951,-366.314 518.153,-370.345 528.327,-373.303 527.951,-366.314"/>
</g>
<!-- Node17 -->
<g id="node47" class="node"><title>Node17</title>
<a xlink:href="atomiccas_8h.html" target="_top" xlink:title="Simple thread safe ways to check and change a specified variable atomically.">
<polygon fill="white" stroke="black" points="352.5,-301 352.5,-323 423.5,-323 423.5,-301 352.5,-301"/>
<text text-anchor="middle" x="388" y="-310" font-family="FreeSans" font-size="10.00">atomiccas.h</text>
</a>
</g>
<!-- Node1&#45;&gt;Node17 -->
<g id="edge60" class="edge"><title>Node1&#45;&gt;Node17</title>
<path fill="none" stroke="midnightblue" d="M457.742,-355.589C441.246,-345.279 420.406,-332.254 405.821,-323.138"/>
<polygon fill="midnightblue" stroke="midnightblue" points="456.057,-358.663 466.392,-360.995 459.767,-352.727 456.057,-358.663"/>
</g>
<!-- Node18 -->
<g id="node51" class="node"><title>Node18</title>
<a xlink:href="doublebufferedresource_8h.html" target="_top" xlink:title="This file defines the template double buffered resources that can be attached to a thread...">
<polygon fill="white" stroke="black" points="242.5,-121 242.5,-143 373.5,-143 373.5,-121 242.5,-121"/>
<text text-anchor="middle" x="308" y="-130" font-family="FreeSans" font-size="10.00">doublebufferedresource.h</text>
</a>
</g>
<!-- Node1&#45;&gt;Node18 -->
<g id="edge66" class="edge"><title>Node1&#45;&gt;Node18</title>
<path fill="none" stroke="midnightblue" d="M440.12,-362.82C399.85,-353.656 343.956,-338.838 327,-324 282.849,-285.365 284.51,-261.319 272,-204 269.726,-193.579 268.627,-190.119 272,-180 276.743,-165.77 287.541,-152.361 296.081,-143.352"/>
<polygon fill="midnightblue" stroke="midnightblue" points="439.465,-366.26 449.988,-365.024 440.991,-359.428 439.465,-366.26"/>
</g>
<!-- Node19 -->
<g id="node58" class="node"><title>Node19</title>
<a xlink:href="rollingaverage_8h.html" target="_top" xlink:title="This Store the implementation and the declaration of the RollingAverage, BufferedRollingAverage, WeightedRollingAverage and the DefaultRollingAverage.">
<polygon fill="white" stroke="black" points="280.5,-181 280.5,-203 369.5,-203 369.5,-181 280.5,-181"/>
<text text-anchor="middle" x="325" y="-190" font-family="FreeSans" font-size="10.00">rollingaverage.h</text>
</a>
</g>
<!-- Node1&#45;&gt;Node19 -->
<g id="edge78" class="edge"><title>Node1&#45;&gt;Node19</title>
<path fill="none" stroke="midnightblue" d="M440.086,-362.232C403.878,-353.262 356.509,-339.103 344,-324 314.463,-288.338 319.481,-227.831 323.09,-203.066"/>
<polygon fill="midnightblue" stroke="midnightblue" points="439.422,-365.672 449.964,-364.621 441.067,-358.868 439.422,-365.672"/>
</g>
<!-- Node20 -->
<g id="node62" class="node"><title>Node20</title>
<a xlink:href="workunitkey_8h.html" target="_top" xlink:title="This file defines the metadata used to sort workunits.">
<polygon fill="white" stroke="black" points="506.5,-241 506.5,-263 583.5,-263 583.5,-241 506.5,-241"/>
<text text-anchor="middle" x="545" y="-250" font-family="FreeSans" font-size="10.00">workunitkey.h</text>
</a>
</g>
<!-- Node1&#45;&gt;Node20 -->
<g id="edge84" class="edge"><title>Node1&#45;&gt;Node20</title>
<path fill="none" stroke="midnightblue" d="M494.281,-351.775C507.262,-326.239 529.136,-283.209 539.384,-263.047"/>
<polygon fill="midnightblue" stroke="midnightblue" points="491.041,-350.425 489.629,-360.926 497.281,-353.597 491.041,-350.425"/>
</g>
<!-- Node3 -->
<g id="node5" class="node"><title>Node3</title>
<a xlink:href="asynchronousworkunit_8cpp.html" target="_top" xlink:title="Contains the minimal implementation for the monopoly base class.">
<polygon fill="white" stroke="black" points="218,-1 218,-23 352,-23 352,-1 218,-1"/>
<text text-anchor="middle" x="285" y="-10" font-family="FreeSans" font-size="10.00">asynchronousworkunit.cpp</text>
</a>
</g>
<!-- Node2&#45;&gt;Node3 -->
<g id="edge4" class="edge"><title>Node2&#45;&gt;Node3</title>
<path fill="none" stroke="midnightblue" d="M192.863,-56.5823C214.471,-46.1271 242.531,-32.5494 261.981,-23.1383"/>
<polygon fill="midnightblue" stroke="midnightblue" points="191.221,-53.4888 183.744,-60.9951 194.27,-59.79 191.221,-53.4888"/>
</g>
<!-- Node2&#45;&gt;Node4 -->
<g id="edge6" class="edge"><title>Node2&#45;&gt;Node4</title>
<path fill="none" stroke="midnightblue" d="M205.411,-65.2526C217.29,-63.4938 230.127,-61.6344 242,-60 367.607,-42.7085 399.248,-40.1996 525,-24 536.502,-22.5183 548.812,-20.9208 560.565,-19.3899"/>
<polygon fill="midnightblue" stroke="midnightblue" points="204.642,-61.8285 195.267,-66.7642 205.673,-68.7521 204.642,-61.8285"/>
</g>
<!-- Node5 -->
<g id="node9" class="node"><title>Node5</title>
<a xlink:href="framescheduler_8cpp.html" target="_top" xlink:title="This is the core object implementation for this algorithm.">
<polygon fill="white" stroke="black" points="0,-1 0,-23 104,-23 104,-1 0,-1"/>
<text text-anchor="middle" x="52" y="-10" font-family="FreeSans" font-size="10.00">framescheduler.cpp</text>
</a>
</g>
<!-- Node2&#45;&gt;Node5 -->
<g id="edge8" class="edge"><title>Node2&#45;&gt;Node5</title>
<path fill="none" stroke="midnightblue" d="M132.222,-56.1586C113.335,-45.7625 89.1015,-32.4228 72.2347,-23.1383"/>
<polygon fill="midnightblue" stroke="midnightblue" points="130.559,-59.2389 141.008,-60.9951 133.935,-53.1066 130.559,-59.2389"/>
</g>
<!-- Node6 -->
<g id="node11" class="node"><title>Node6</title>
<a xlink:href="monopoly_8cpp.html" target="_top" xlink:title="Contains the minimal implementation for the monopoly base class.">
<polygon fill="white" stroke="black" points="121.5,-1 121.5,-23 200.5,-23 200.5,-1 121.5,-1"/>
<text text-anchor="middle" x="161" y="-10" font-family="FreeSans" font-size="10.00">monopoly.cpp</text>
</a>
</g>
<!-- Node2&#45;&gt;Node6 -->
<g id="edge10" class="edge"><title>Node2&#45;&gt;Node6</title>
<path fill="none" stroke="midnightblue" d="M161,-50.9183C161,-41.6393 161,-31.1082 161,-23.3428"/>
<polygon fill="midnightblue" stroke="midnightblue" points="157.5,-50.995 161,-60.9951 164.5,-50.9951 157.5,-50.995"/>
</g>
<!-- Node7&#45;&gt;Node2 -->
<g id="edge14" class="edge"><title>Node7&#45;&gt;Node2</title>
<path fill="none" stroke="midnightblue" d="M470.093,-124.987C400.401,-113.04 259.911,-88.9561 195.135,-77.8517"/>
<polygon fill="midnightblue" stroke="midnightblue" points="469.799,-128.488 480.247,-126.728 470.982,-121.589 469.799,-128.488"/>
</g>
<!-- Node7&#45;&gt;Node4 -->
<g id="edge26" class="edge"><title>Node7&#45;&gt;Node4</title>
<path fill="none" stroke="midnightblue" d="M530.642,-113.852C539.831,-105.09 550.759,-94.2705 560,-84 578.555,-63.3778 598.219,-37.5267 608.913,-23.0817"/>
<polygon fill="midnightblue" stroke="midnightblue" points="527.979,-111.552 523.101,-120.957 532.779,-116.647 527.979,-111.552"/>
</g>
<!-- Node7&#45;&gt;Node8 -->
<g id="edge16" class="edge"><title>Node7&#45;&gt;Node8</title>
<path fill="none" stroke="midnightblue" d="M551.772,-119.455C586.682,-108.713 636.47,-93.3938 669.946,-83.0934"/>
<polygon fill="midnightblue" stroke="midnightblue" points="550.427,-116.207 541.898,-122.493 552.485,-122.897 550.427,-116.207"/>
</g>
<!-- Node7&#45;&gt;Node9 -->
<g id="edge20" class="edge"><title>Node7&#45;&gt;Node9</title>
<path fill="none" stroke="midnightblue" d="M470.414,-119.317C436.006,-108.564 387.156,-93.2988 354.335,-83.0421"/>
<polygon fill="midnightblue" stroke="midnightblue" points="469.563,-122.718 480.152,-122.36 471.651,-116.036 469.563,-122.718"/>
</g>
<!-- Node11 -->
<g id="node25" class="node"><title>Node11</title>
<a xlink:href="workunit_8cpp.html" target="_top" xlink:title="This file has the implementation of the workunit.">
<polygon fill="white" stroke="black" points="480.5,-61 480.5,-83 551.5,-83 551.5,-61 480.5,-61"/>
<text text-anchor="middle" x="516" y="-70" font-family="FreeSans" font-size="10.00">workunit.cpp</text>
</a>
</g>
<!-- Node7&#45;&gt;Node11 -->
<g id="edge28" class="edge"><title>Node7&#45;&gt;Node11</title>
<path fill="none" stroke="midnightblue" d="M512.757,-110.918C513.53,-101.639 514.408,-91.1082 515.055,-83.3428"/>
<polygon fill="midnightblue" stroke="midnightblue" points="509.26,-110.739 511.917,-120.995 516.236,-111.32 509.26,-110.739"/>
</g>
<!-- Node8&#45;&gt;Node4 -->
<g id="edge18" class="edge"><title>Node8&#45;&gt;Node4</title>
<path fill="none" stroke="midnightblue" d="M681.231,-55.3016C666.006,-45.0379 646.918,-32.1696 633.522,-23.1383"/>
<polygon fill="midnightblue" stroke="midnightblue" points="679.428,-58.3072 689.676,-60.9951 683.341,-52.503 679.428,-58.3072"/>
</g>
<!-- Node9&#45;&gt;Node4 -->
<g id="edge22" class="edge"><title>Node9&#45;&gt;Node4</title>
<path fill="none" stroke="midnightblue" d="M383.686,-58.976C436.999,-48.2419 511.779,-33.1855 562.185,-23.0366"/>
<polygon fill="midnightblue" stroke="midnightblue" points="382.77,-55.59 373.658,-60.9951 384.152,-62.4523 382.77,-55.59"/>
</g>
<!-- Node10 -->
<g id="node22" class="node"><title>Node10</title>
<a xlink:href="frameschedulerworkunits_8cpp.html" target="_top" xlink:title="The implementation of any workunits the framescheduler needs to work correctly.">
<polygon fill="white" stroke="black" points="370,-1 370,-23 516,-23 516,-1 370,-1"/>
<text text-anchor="middle" x="443" y="-10" font-family="FreeSans" font-size="10.00">frameschedulerworkunits.cpp</text>
</a>
</g>
<!-- Node9&#45;&gt;Node10 -->
<g id="edge24" class="edge"><title>Node9&#45;&gt;Node10</title>
<path fill="none" stroke="midnightblue" d="M350.863,-56.5823C372.471,-46.1271 400.531,-32.5494 419.981,-23.1383"/>
<polygon fill="midnightblue" stroke="midnightblue" points="349.221,-53.4888 341.744,-60.9951 352.27,-59.79 349.221,-53.4888"/>
</g>
<!-- Node12&#45;&gt;Node4 -->
<g id="edge34" class="edge"><title>Node12&#45;&gt;Node4</title>
<path fill="none" stroke="midnightblue" d="M717.131,-174.68C751.372,-148.942 805.264,-99.4025 776,-60 763.493,-43.1593 713.84,-29.9562 673.307,-21.6959"/>
<polygon fill="midnightblue" stroke="midnightblue" points="714.918,-171.962 708.911,-180.69 719.049,-177.612 714.918,-171.962"/>
</g>
<!-- Node12&#45;&gt;Node5 -->
<g id="edge36" class="edge"><title>Node12&#45;&gt;Node5</title>
<path fill="none" stroke="midnightblue" d="M634.694,-184.421C622.585,-182.893 609.877,-181.345 598,-180 436.466,-161.705 391.835,-182.938 234,-144 165.088,-127 137.575,-132.763 86,-84 68.02,-67 58.561,-38.5722 54.4976,-23.009"/>
<polygon fill="midnightblue" stroke="midnightblue" points="634.331,-187.903 644.694,-185.695 635.216,-180.959 634.331,-187.903"/>
</g>
<!-- Node12&#45;&gt;Node7 -->
<g id="edge32" class="edge"><title>Node12&#45;&gt;Node7</title>
<path fill="none" stroke="midnightblue" d="M648.949,-177.729C615.884,-166.768 571.036,-151.902 541.576,-142.136"/>
<polygon fill="midnightblue" stroke="midnightblue" points="648.208,-181.171 658.802,-180.995 650.411,-174.526 648.208,-181.171"/>
</g>
<!-- Node13&#45;&gt;Node4 -->
<g id="edge50" class="edge"><title>Node13&#45;&gt;Node4</title>
<path fill="none" stroke="midnightblue" d="M869.126,-293.206C876.178,-284.98 883.335,-274.756 887,-264 890.44,-253.903 887.531,-250.653 887,-240 882.755,-154.898 892.059,-107.021 821,-60 797.03,-44.1383 724.94,-29.5717 673.259,-20.7436"/>
<polygon fill="midnightblue" stroke="midnightblue" points="866.422,-290.976 862.244,-300.712 871.582,-295.707 866.422,-290.976"/>
</g>
<!-- Node13&#45;&gt;Node11 -->
<g id="edge56" class="edge"><title>Node13&#45;&gt;Node11</title>
<path fill="none" stroke="midnightblue" d="M860.511,-291.551C873.28,-263.526 890.294,-212.92 866,-180 827.958,-128.449 632.963,-91.1402 551.662,-77.5911"/>
<polygon fill="midnightblue" stroke="midnightblue" points="857.254,-290.25 856.083,-300.78 863.565,-293.278 857.254,-290.25"/>
</g>
<!-- Node13&#45;&gt;Node12 -->
<g id="edge52" class="edge"><title>Node13&#45;&gt;Node12</title>
<path fill="none" stroke="midnightblue" d="M827.275,-294.74C794.308,-269.702 734.149,-224.012 706.546,-203.047"/>
<polygon fill="midnightblue" stroke="midnightblue" points="825.338,-297.665 835.419,-300.926 829.572,-292.09 825.338,-297.665"/>
</g>
<!-- Node14 -->
<g id="node34" class="node"><title>Node14</title>
<a xlink:href="thread_8h.html" target="_top" xlink:title="This file defines a minimalistic cross&#45;platform thread that the scheduler uses to schedule tasks...">
<polygon fill="white" stroke="black" points="799.5,-241 799.5,-263 852.5,-263 852.5,-241 799.5,-241"/>
<text text-anchor="middle" x="826" y="-250" font-family="FreeSans" font-size="10.00">thread.h</text>
</a>
</g>
<!-- Node13&#45;&gt;Node14 -->
<g id="edge40" class="edge"><title>Node13&#45;&gt;Node14</title>
<path fill="none" stroke="midnightblue" d="M841.809,-291.522C838.039,-282.098 833.711,-271.277 830.537,-263.343"/>
<polygon fill="midnightblue" stroke="midnightblue" points="838.634,-293.01 845.598,-300.995 845.134,-290.41 838.634,-293.01"/>
</g>
<!-- Node13&#45;&gt;Node16 -->
<g id="edge54" class="edge"><title>Node13&#45;&gt;Node16</title>
<path fill="none" stroke="midnightblue" d="M885.494,-297.003C910.366,-286.493 943.067,-272.676 965.639,-263.138"/>
<polygon fill="midnightblue" stroke="midnightblue" points="883.894,-293.879 876.045,-300.995 886.619,-300.327 883.894,-293.879"/>
</g>
<!-- Node14&#45;&gt;Node4 -->
<g id="edge44" class="edge"><title>Node14&#45;&gt;Node4</title>
<path fill="none" stroke="midnightblue" d="M846.412,-233.721C854.108,-225.494 861.97,-215.13 866,-204 869.631,-193.97 868.847,-190.28 866,-180 849.398,-120.06 843.604,-97.5216 794,-60 774.955,-45.5943 717.461,-31.5908 673.113,-22.464"/>
<polygon fill="midnightblue" stroke="midnightblue" points="843.817,-231.367 839.216,-240.91 848.764,-236.319 843.817,-231.367"/>
</g>
<!-- Node14&#45;&gt;Node7 -->
<g id="edge48" class="edge"><title>Node14&#45;&gt;Node7</title>
<path fill="none" stroke="midnightblue" d="M810.791,-233.014C796.403,-216.391 773.291,-192.931 748,-180 712.209,-161.701 597.346,-143.92 541.737,-136.121"/>
<polygon fill="midnightblue" stroke="midnightblue" points="808.377,-235.581 817.486,-240.991 813.739,-231.081 808.377,-235.581"/>
</g>
<!-- Node14&#45;&gt;Node12 -->
<g id="edge42" class="edge"><title>Node14&#45;&gt;Node12</title>
<path fill="none" stroke="midnightblue" d="M792.194,-236.863C768.762,-226.371 738.082,-212.634 716.876,-203.138"/>
<polygon fill="midnightblue" stroke="midnightblue" points="790.865,-240.103 801.422,-240.995 793.726,-233.714 790.865,-240.103"/>
</g>
<!-- Node15 -->
<g id="node38" class="node"><title>Node15</title>
<a xlink:href="thread_8cpp.html" target="_top" xlink:title="This file implements a minimalistic cross&#45;platform thread that the scheduler uses to schedule tasks...">
<polygon fill="white" stroke="black" points="794.5,-181 794.5,-203 857.5,-203 857.5,-181 794.5,-181"/>
<text text-anchor="middle" x="826" y="-190" font-family="FreeSans" font-size="10.00">thread.cpp</text>
</a>
</g>
<!-- Node14&#45;&gt;Node15 -->
<g id="edge46" class="edge"><title>Node14&#45;&gt;Node15</title>
<path fill="none" stroke="midnightblue" d="M826,-230.918C826,-221.639 826,-211.108 826,-203.343"/>
<polygon fill="midnightblue" stroke="midnightblue" points="822.5,-230.995 826,-240.995 829.5,-230.995 822.5,-230.995"/>
</g>
<!-- Node17&#45;&gt;Node11 -->
<g id="edge62" class="edge"><title>Node17&#45;&gt;Node11</title>
<path fill="none" stroke="midnightblue" d="M394.479,-291.452C406.482,-255.07 434.415,-177.721 472,-120 481.006,-106.169 494.051,-92.5015 503.598,-83.3098"/>
<polygon fill="midnightblue" stroke="midnightblue" points="391.148,-290.378 391.397,-300.97 397.808,-292.535 391.148,-290.378"/>
</g>
<!-- Node18&#45;&gt;Node4 -->
<g id="edge68" class="edge"><title>Node18&#45;&gt;Node4</title>
<path fill="none" stroke="midnightblue" d="M337.272,-116.126C354.411,-106.809 376.458,-94.7826 396,-84 415.163,-73.4264 418.726,-68.2446 439,-60 479.174,-43.6628 526.688,-31.1726 562.516,-23.0339"/>
<polygon fill="midnightblue" stroke="midnightblue" points="335.419,-113.149 328.303,-120.998 338.761,-119.3 335.419,-113.149"/>
</g>
<!-- Node18&#45;&gt;Node5 -->
<g id="edge70" class="edge"><title>Node18&#45;&gt;Node5</title>
<path fill="none" stroke="midnightblue" d="M232.285,-123.195C195.804,-116.457 152.581,-104.642 118,-84 91.7914,-68.3556 69.8092,-39.1154 59.0672,-23.1329"/>
<polygon fill="midnightblue" stroke="midnightblue" points="231.929,-126.686 242.382,-124.964 233.136,-119.791 231.929,-126.686"/>
</g>
<!-- Node18&#45;&gt;Node10 -->
<g id="edge72" class="edge"><title>Node18&#45;&gt;Node10</title>
<path fill="none" stroke="midnightblue" d="M276.09,-115.919C252.165,-101.716 226.07,-80.1824 242,-60 250.725,-48.9466 324.347,-33.3974 379.984,-23.0242"/>
<polygon fill="midnightblue" stroke="midnightblue" points="274.633,-119.116 285.062,-120.986 278.075,-113.021 274.633,-119.116"/>
</g>
<!-- Node18&#45;&gt;Node11 -->
<g id="edge74" class="edge"><title>Node18&#45;&gt;Node11</title>
<path fill="none" stroke="midnightblue" d="M355.944,-118.17C393.825,-107.243 445.855,-92.234 480.177,-82.3336"/>
<polygon fill="midnightblue" stroke="midnightblue" points="354.789,-114.861 346.15,-120.995 356.729,-121.586 354.789,-114.861"/>
</g>
<!-- Node19&#45;&gt;Node4 -->
<g id="edge80" class="edge"><title>Node19&#45;&gt;Node4</title>
<path fill="none" stroke="midnightblue" d="M346.46,-174.368C357.237,-165.403 370.429,-154.26 382,-144 422.94,-107.699 424.939,-87.9105 472,-60 501.194,-42.6862 537.444,-30.6862 566.395,-23.0146"/>
<polygon fill="midnightblue" stroke="midnightblue" points="344.225,-171.674 338.756,-180.749 348.69,-177.065 344.225,-171.674"/>
</g>
<!-- Node19&#45;&gt;Node7 -->
<g id="edge82" class="edge"><title>Node19&#45;&gt;Node7</title>
<path fill="none" stroke="midnightblue" d="M368.894,-177.841C403.247,-166.759 450.135,-151.634 480.491,-141.842"/>
<polygon fill="midnightblue" stroke="midnightblue" points="367.558,-174.594 359.115,-180.995 369.707,-181.256 367.558,-174.594"/>
</g>
<!-- Node20&#45;&gt;Node4 -->
<g id="edge86" class="edge"><title>Node20&#45;&gt;Node4</title>
<path fill="none" stroke="midnightblue" d="M571.23,-234.732C581.327,-226.652 591.89,-216.126 598,-204 629.351,-141.78 622.3,-53.9177 618.553,-23.1565"/>
<polygon fill="midnightblue" stroke="midnightblue" points="568.87,-232.127 562.967,-240.925 573.068,-237.728 568.87,-232.127"/>
</g>
<!-- Node20&#45;&gt;Node7 -->
<g id="edge90" class="edge"><title>Node20&#45;&gt;Node7</title>
<path fill="none" stroke="midnightblue" d="M517.956,-234.841C507.831,-226.829 497.465,-216.323 492,-204 482.88,-183.437 494.935,-157.565 503.594,-143.1"/>
<polygon fill="midnightblue" stroke="midnightblue" points="516.161,-237.866 526.291,-240.971 520.308,-232.227 516.161,-237.866"/>
</g>
<!-- Node20&#45;&gt;Node12 -->
<g id="edge88" class="edge"><title>Node20&#45;&gt;Node12</title>
<path fill="none" stroke="midnightblue" d="M581.434,-237.129C607.311,-226.567 641.491,-212.616 664.96,-203.037"/>
<polygon fill="midnightblue" stroke="midnightblue" points="579.898,-233.976 571.962,-240.995 582.543,-240.457 579.898,-233.976"/>
</g>
<!-- Node21 -->
<g id="node67" class="node"><title>Node21</title>
<a xlink:href="workunitkey_8cpp.html" target="_top" xlink:title="This file declares the functionality of the metadata used to sort workunits.">
<polygon fill="white" stroke="black" points="501,-181 501,-203 589,-203 589,-181 501,-181"/>
<text text-anchor="middle" x="545" y="-190" font-family="FreeSans" font-size="10.00">workunitkey.cpp</text>
</a>
</g>
<!-- Node20&#45;&gt;Node21 -->
<g id="edge92" class="edge"><title>Node20&#45;&gt;Node21</title>
<path fill="none" stroke="midnightblue" d="M545,-230.918C545,-221.639 545,-211.108 545,-203.343"/>
<polygon fill="midnightblue" stroke="midnightblue" points="541.5,-230.995 545,-240.995 548.5,-230.995 541.5,-230.995"/>
</g>
</g>
</svg>
        <g id="navigator" transform="translate(0 0)" fill="#404254">
                <rect fill="#f2f5e9" fill-opacity="0.5" stroke="#606060" stroke-width=".5" x="0" y="0" width="60" height="60"/>
                <use id="zoomplus" xlink:href="#zoomPlus" x="17" y="9" onmousedown="handleZoom(evt,'in')"/>
                <use id="zoomminus" xlink:href="#zoomMin" x="42" y="9" onmousedown="handleZoom(evt,'out')"/>
                <use id="reset" xlink:href="#resetDef" x="30" y="36" onmousedown="handleReset()"/>
                <g id="arrowUp" xlink:href="#dirArrow" transform="translate(30 24)" onmousedown="handlePan(0,-1)">
                  <use xlink:href="#rim" fill="#404040">
                        <set attributeName="fill" to="#808080" begin="arrowUp.mouseover" end="arrowUp.mouseout"/>
                  </use>
                  <path fill="none" stroke="white" stroke-width="1.5" d="M0,-3.0v7 M-2.5,-0.5L0,-3.0L2.5,-0.5"/>
                </g>
                <g id="arrowRight" xlink:href="#dirArrow" transform="rotate(90) translate(36 -43)" onmousedown="handlePan(1,0)">
                  <use xlink:href="#rim" fill="#404040">
                        <set attributeName="fill" to="#808080" begin="arrowRight.mouseover" end="arrowRight.mouseout"/>
                  </use>
                  <path fill="none" stroke="white" stroke-width="1.5" d="M0,-3.0v7 M-2.5,-0.5L0,-3.0L2.5,-0.5"/>
                </g>
                <g id="arrowDown" xlink:href="#dirArrow" transform="rotate(180) translate(-30 -48)" onmousedown="handlePan(0,1)">
                  <use xlink:href="#rim" fill="#404040">
                        <set attributeName="fill" to="#808080" begin="arrowDown.mouseover" end="arrowDown.mouseout"/>
                  </use>
                  <path fill="none" stroke="white" stroke-width="1.5" d="M0,-3.0v7 M-2.5,-0.5L0,-3.0L2.5,-0.5"/>
                </g>
                <g id="arrowLeft" xlink:href="#dirArrow" transform="rotate(270) translate(-36 17)" onmousedown="handlePan(-1,0)">
                  <use xlink:href="#rim" fill="#404040">
                        <set attributeName="fill" to="#808080" begin="arrowLeft.mouseover" end="arrowLeft.mouseout"/>
                  </use>
                  <path fill="none" stroke="white" stroke-width="1.5" d="M0,-3.0v7 M-2.5,-0.5L0,-3.0L2.5,-0.5"/>
                </g>
        </g>
</svg>
