<?xml version="1.0" encoding="UTF-8" standalone="no"?>
<!DOCTYPE svg PUBLIC "-//W3C//DTD SVG 1.1//EN"
 "http://www.w3.org/Graphics/SVG/1.1/DTD/svg11.dtd">
<!-- Generated by graphviz version 2.26.3 (20100126.1600)
 -->
<!-- Title: datatypes.h Pages: 1 -->
<svg width="1991pt" height="494pt"
 viewBox="0.00 0.00 1991.00 494.00" xmlns="http://www.w3.org/2000/svg" xmlns:xlink="http://www.w3.org/1999/xlink">
<g id="graph1" class="graph" transform="scale(1 1) rotate(0) translate(4 490)">
<title>datatypes.h</title>
<polygon fill="white" stroke="white" points="-4,5 -4,-490 1988,-490 1988,5 -4,5"/>
<!-- Node1 -->
<g id="node1" class="node"><title>Node1</title>
<polygon fill="#bfbfbf" stroke="black" points="775.5,-465 775.5,-485 840.5,-485 840.5,-465 775.5,-465"/>
<text text-anchor="middle" x="808" y="-472" font-family="FreeSans" font-size="10.00">datatypes.h</text>
</g>
<!-- Node2 -->
<g id="node3" class="node"><title>Node2</title>
<a xlink:href="asynchronousworkunit_8h.html" target="_top" xlink:title="Contains an interface for a kind of WorkUnit that loads or does other work even when the frame schedu...">
<polygon fill="white" stroke="black" points="223.5,-117 223.5,-137 342.5,-137 342.5,-117 223.5,-117"/>
<text text-anchor="middle" x="283" y="-124" font-family="FreeSans" font-size="10.00">asynchronousworkunit.h</text>
</a>
</g>
<!-- Node1&#45;&gt;Node2 -->
<g id="edge2" class="edge"><title>Node1&#45;&gt;Node2</title>
<path fill="none" stroke="midnightblue" d="M764.912,-472.755C607.964,-464.012 76,-429.2 76,-359 76,-359 76,-359 76,-243 76,-174.924 162.253,-146.4 223.405,-134.732"/>
<polygon fill="midnightblue" stroke="midnightblue" points="764.948,-476.262 775.125,-473.316 765.333,-469.273 764.948,-476.262"/>
</g>
<!-- Node5 -->
<g id="node9" class="node"><title>Node5</title>
<a xlink:href="dagframescheduler_8h.html" target="_top" xlink:title="This is the file that code using this library should include. It includes all the required components...">
<polygon fill="white" stroke="black" points="983,-1 983,-21 1089,-21 1089,-1 983,-1"/>
<text text-anchor="middle" x="1036" y="-8" font-family="FreeSans" font-size="10.00">dagframescheduler.h</text>
</a>
</g>
<!-- Node1&#45;&gt;Node5 -->
<g id="edge164" class="edge"><title>Node1&#45;&gt;Node5</title>
<path fill="none" stroke="midnightblue" d="M765.052,-474.265C639.752,-471.742 276.345,-461.646 163,-428 102.166,-409.942 38,-422.458 38,-359 38,-359 38,-359 38,-127 38,-92.2025 45.5868,-76.5937 75,-58 113.586,-33.608 787.146,-16.5996 982.998,-12.1531"/>
<polygon fill="midnightblue" stroke="midnightblue" points="765.323,-477.77 775.389,-474.466 765.459,-470.772 765.323,-477.77"/>
</g>
<!-- Node7 -->
<g id="node14" class="node"><title>Node7</title>
<a xlink:href="doublebufferedresource_8h.html" target="_top" xlink:title="This file defines the template double buffered resources that can be attached to a thread...">
<polygon fill="white" stroke="black" points="727.5,-291 727.5,-311 850.5,-311 850.5,-291 727.5,-291"/>
<text text-anchor="middle" x="789" y="-298" font-family="FreeSans" font-size="10.00">doublebufferedresource.h</text>
</a>
</g>
<!-- Node1&#45;&gt;Node7 -->
<g id="edge14" class="edge"><title>Node1&#45;&gt;Node7</title>
<path fill="none" stroke="midnightblue" d="M805.786,-454.724C801.709,-417.389 793.154,-339.039 790.107,-311.135"/>
<polygon fill="midnightblue" stroke="midnightblue" points="802.331,-455.332 806.896,-464.893 809.29,-454.572 802.331,-455.332"/>
</g>
<!-- Node8 -->
<g id="node17" class="node"><title>Node8</title>
<a xlink:href="framescheduler_8h.html" target="_top" xlink:title="This file has the Declarations for the main FrameScheduler class. ">
<polygon fill="white" stroke="black" points="956,-233 956,-253 1046,-253 1046,-233 956,-233"/>
<text text-anchor="middle" x="1001" y="-240" font-family="FreeSans" font-size="10.00">framescheduler.h</text>
</a>
</g>
<!-- Node1&#45;&gt;Node8 -->
<g id="edge60" class="edge"><title>Node1&#45;&gt;Node8</title>
<path fill="none" stroke="midnightblue" d="M812.845,-454.602C822.664,-417.314 848.235,-337.611 897,-290 915.289,-272.144 941.554,-260.349 963.112,-253.041"/>
<polygon fill="midnightblue" stroke="midnightblue" points="809.343,-454.179 810.295,-464.731 816.131,-455.888 809.343,-454.179"/>
</g>
<!-- Node9 -->
<g id="node19" class="node"><title>Node9</title>
<a xlink:href="workunit_8h.html" target="_top" xlink:title="This file has the definition of the workunit. ">
<polygon fill="white" stroke="black" points="554,-175 554,-195 614,-195 614,-175 554,-175"/>
<text text-anchor="middle" x="584" y="-182" font-family="FreeSans" font-size="10.00">workunit.h</text>
</a>
</g>
<!-- Node1&#45;&gt;Node9 -->
<g id="edge58" class="edge"><title>Node1&#45;&gt;Node9</title>
<path fill="none" stroke="midnightblue" d="M765.651,-467.517C735.445,-460.73 694.877,-448.558 664,-428 607.342,-390.276 588.803,-375.389 564,-312 551.04,-278.878 554.277,-266.718 562,-232 564.974,-218.632 572.172,-204.57 577.53,-195.35"/>
<polygon fill="midnightblue" stroke="midnightblue" points="764.958,-470.947 775.469,-469.616 766.422,-464.102 764.958,-470.947"/>
</g>
<!-- Node10 -->
<g id="node22" class="node"><title>Node10</title>
<a xlink:href="frameschedulerworkunits_8h.html" target="_top" xlink:title="This defines a number of workunits that are required for doing some tasks that the Framescheduler req...">
<polygon fill="white" stroke="black" points="423.5,-117 423.5,-137 554.5,-137 554.5,-117 423.5,-117"/>
<text text-anchor="middle" x="489" y="-124" font-family="FreeSans" font-size="10.00">frameschedulerworkunits.h</text>
</a>
</g>
<!-- Node1&#45;&gt;Node10 -->
<g id="edge166" class="edge"><title>Node1&#45;&gt;Node10</title>
<path fill="none" stroke="midnightblue" d="M765.029,-473.142C688.231,-469.111 531.221,-457.435 486,-428 427.848,-390.148 397.984,-357.742 413,-290 426.717,-228.119 466.469,-161.883 482.34,-137.11"/>
<polygon fill="midnightblue" stroke="midnightblue" points="765.15,-476.653 775.314,-473.661 765.503,-469.661 765.15,-476.653"/>
</g>
<!-- Node13 -->
<g id="node29" class="node"><title>Node13</title>
<a xlink:href="monopoly_8h.html" target="_top" xlink:title="Contains an interface for a kind of WorkUnit that consumes time on multiple thread. ">
<polygon fill="white" stroke="black" points="759.5,-117 759.5,-137 824.5,-137 824.5,-117 759.5,-117"/>
<text text-anchor="middle" x="792" y="-124" font-family="FreeSans" font-size="10.00">monopoly.h</text>
</a>
</g>
<!-- Node1&#45;&gt;Node13 -->
<g id="edge170" class="edge"><title>Node1&#45;&gt;Node13</title>
<path fill="none" stroke="midnightblue" d="M778.705,-459.818C746.722,-440.898 700,-405.331 700,-359 700,-359 700,-359 700,-301 700,-231.633 757.85,-162.867 781.803,-137.366"/>
<polygon fill="midnightblue" stroke="midnightblue" points="777.264,-463.025 787.686,-464.928 780.725,-456.94 777.264,-463.025"/>
</g>
<!-- Node16 -->
<g id="node47" class="node"><title>Node16</title>
<a xlink:href="systemcalls_8h.html" target="_top" xlink:title="This file defines a minimalistic cross&#45;platform thread that the scheduler uses to schedule tasks...">
<polygon fill="white" stroke="black" points="1213,-349 1213,-369 1287,-369 1287,-349 1213,-349"/>
<text text-anchor="middle" x="1250" y="-356" font-family="FreeSans" font-size="10.00">systemcalls.h</text>
</a>
</g>
<!-- Node1&#45;&gt;Node16 -->
<g id="edge62" class="edge"><title>Node1&#45;&gt;Node16</title>
<path fill="none" stroke="midnightblue" d="M851.118,-471.154C907.248,-465.399 1007.98,-452.504 1091,-428 1143.53,-412.497 1201.73,-384.162 1230.99,-369.077"/>
<polygon fill="midnightblue" stroke="midnightblue" points="850.441,-467.704 840.838,-472.179 851.136,-474.669 850.441,-467.704"/>
</g>
<!-- Node19 -->
<g id="node57" class="node"><title>Node19</title>
<a xlink:href="logtools_8h.html" target="_top" xlink:title="The definitions of the logging tools. ">
<polygon fill="white" stroke="black" points="1345.5,-291 1345.5,-311 1402.5,-311 1402.5,-291 1345.5,-291"/>
<text text-anchor="middle" x="1374" y="-298" font-family="FreeSans" font-size="10.00">logtools.h</text>
</a>
</g>
<!-- Node1&#45;&gt;Node19 -->
<g id="edge168" class="edge"><title>Node1&#45;&gt;Node19</title>
<path fill="none" stroke="midnightblue" d="M851.134,-471.557C914.043,-465.913 1034.32,-452.762 1134,-428 1208.22,-409.562 1230.17,-408.926 1296,-370 1324.01,-353.435 1351.19,-326.052 1364.86,-311.253"/>
<polygon fill="midnightblue" stroke="midnightblue" points="850.463,-468.102 840.807,-472.462 851.074,-475.076 850.463,-468.102"/>
</g>
<!-- Node21 -->
<g id="node63" class="node"><title>Node21</title>
<a xlink:href="systemcalls_8cpp.html" target="_top" xlink:title="This file defines some platform specifc functions. ">
<polygon fill="white" stroke="black" points="1062,-291 1062,-311 1146,-311 1146,-291 1062,-291"/>
<text text-anchor="middle" x="1104" y="-298" font-family="FreeSans" font-size="10.00">systemcalls.cpp</text>
</a>
</g>
<!-- Node1&#45;&gt;Node21 -->
<g id="edge174" class="edge"><title>Node1&#45;&gt;Node21</title>
<path fill="none" stroke="midnightblue" d="M847.093,-461.39C893.299,-444.24 971.314,-411.873 1030,-370 1055.45,-351.84 1081.29,-325.575 1094.67,-311.256"/>
<polygon fill="midnightblue" stroke="midnightblue" points="845.644,-458.194 837.456,-464.917 848.05,-464.767 845.644,-458.194"/>
</g>
<!-- Node22 -->
<g id="node66" class="node"><title>Node22</title>
<a xlink:href="atomicoperations_8h.html" target="_top" xlink:title="Simple thread safe ways to check and change a specified variable atomically. ">
<polygon fill="white" stroke="black" points="1535,-407 1535,-427 1633,-427 1633,-407 1535,-407"/>
<text text-anchor="middle" x="1584" y="-414" font-family="FreeSans" font-size="10.00">atomicoperations.h</text>
</a>
</g>
<!-- Node1&#45;&gt;Node22 -->
<g id="edge88" class="edge"><title>Node1&#45;&gt;Node22</title>
<path fill="none" stroke="midnightblue" d="M851.114,-471.778C985.04,-461.768 1393.34,-431.25 1534.99,-420.663"/>
<polygon fill="midnightblue" stroke="midnightblue" points="850.559,-468.309 840.848,-472.545 851.081,-475.29 850.559,-468.309"/>
</g>
<!-- Node25 -->
<g id="node75" class="node"><title>Node25</title>
<a xlink:href="barrier_8h.html" target="_top" xlink:title="The declaration of the Mezzanine::Threading::Barrier Barrier synchronization primitive. ">
<polygon fill="white" stroke="black" points="970.5,-349 970.5,-369 1021.5,-369 1021.5,-349 970.5,-349"/>
<text text-anchor="middle" x="996" y="-356" font-family="FreeSans" font-size="10.00">barrier.h</text>
</a>
</g>
<!-- Node1&#45;&gt;Node25 -->
<g id="edge154" class="edge"><title>Node1&#45;&gt;Node25</title>
<path fill="none" stroke="midnightblue" d="M836.024,-460.011C852.501,-451.028 873.637,-439.207 892,-428 924.552,-408.134 961.501,-382.97 981.416,-369.183"/>
<polygon fill="midnightblue" stroke="midnightblue" points="834.041,-457.105 826.917,-464.947 837.377,-463.259 834.041,-457.105"/>
</g>
<!-- Node29 -->
<g id="node89" class="node"><title>Node29</title>
<a xlink:href="workunitkey_8h.html" target="_top" xlink:title="This file defines the metadata used to sort workunits. ">
<polygon fill="white" stroke="black" points="421.5,-291 421.5,-311 496.5,-311 496.5,-291 421.5,-291"/>
<text text-anchor="middle" x="459" y="-298" font-family="FreeSans" font-size="10.00">workunitkey.h</text>
</a>
</g>
<!-- Node1&#45;&gt;Node29 -->
<g id="edge120" class="edge"><title>Node1&#45;&gt;Node29</title>
<path fill="none" stroke="midnightblue" d="M765.078,-473.348C692.263,-469.728 548.655,-458.794 510,-428 472.275,-397.947 462.311,-335.699 459.802,-311.212"/>
<polygon fill="midnightblue" stroke="midnightblue" points="765.133,-476.855 775.287,-473.831 765.463,-469.862 765.133,-476.855"/>
</g>
<!-- Node31 -->
<g id="node97" class="node"><title>Node31</title>
<a xlink:href="spinlock_8h.html" target="_top" xlink:title="Declares a Mutex, Mutex tools, and at least one MutexLike object. ">
<polygon fill="white" stroke="black" points="1690.5,-407 1690.5,-427 1749.5,-427 1749.5,-407 1690.5,-407"/>
<text text-anchor="middle" x="1720" y="-414" font-family="FreeSans" font-size="10.00">spinlock.h</text>
</a>
</g>
<!-- Node1&#45;&gt;Node31 -->
<g id="edge132" class="edge"><title>Node1&#45;&gt;Node31</title>
<path fill="none" stroke="midnightblue" d="M850.808,-473.854C973.98,-470.285 1339.79,-457.772 1642,-428 1658.06,-426.418 1675.89,-423.957 1690.44,-421.764"/>
<polygon fill="midnightblue" stroke="midnightblue" points="850.56,-470.36 840.664,-474.144 850.759,-477.357 850.56,-470.36"/>
</g>
<!-- Node32 -->
<g id="node100" class="node"><title>Node32</title>
<a xlink:href="readwritespinlock_8h.html" target="_top" xlink:title="Declares a Mutex, Mutex tools, and at least one MutexLike object. ">
<polygon fill="white" stroke="black" points="1852,-349 1852,-369 1950,-369 1950,-349 1852,-349"/>
<text text-anchor="middle" x="1901" y="-356" font-family="FreeSans" font-size="10.00">readwritespinlock.h</text>
</a>
</g>
<!-- Node1&#45;&gt;Node32 -->
<g id="edge172" class="edge"><title>Node1&#45;&gt;Node32</title>
<path fill="none" stroke="midnightblue" d="M850.677,-474.072C1024.02,-470.144 1670.36,-453.878 1758,-428 1776.72,-422.474 1778.63,-414.887 1796,-406 1823.03,-392.175 1854.98,-378.198 1876.47,-369.123"/>
<polygon fill="midnightblue" stroke="midnightblue" points="850.573,-470.574 840.654,-474.298 850.73,-477.572 850.573,-470.574"/>
</g>
<!-- Node33 -->
<g id="node106" class="node"><title>Node33</title>
<a xlink:href="rollingaverage_8h.html" target="_top" xlink:title="This stores the implementation and the declaration of the RollingAverage, BufferedRollingAverage, WeightedRollingAverage and the DefaultRollingAverage. ">
<polygon fill="white" stroke="black" points="589.5,-291 589.5,-311 672.5,-311 672.5,-291 589.5,-291"/>
<text text-anchor="middle" x="631" y="-298" font-family="FreeSans" font-size="10.00">rollingaverage.h</text>
</a>
</g>
<!-- Node1&#45;&gt;Node33 -->
<g id="edge146" class="edge"><title>Node1&#45;&gt;Node33</title>
<path fill="none" stroke="midnightblue" d="M765.576,-467.333C739.792,-460.75 707.757,-448.883 686,-428 650.985,-394.39 636.984,-334.748 632.635,-311.082"/>
<polygon fill="midnightblue" stroke="midnightblue" points="764.937,-470.779 775.475,-469.685 766.554,-463.968 764.937,-470.779"/>
</g>
<!-- Node34 -->
<g id="node112" class="node"><title>Node34</title>
<a xlink:href="threadingenumerations_8h.html" target="_top" xlink:title="Any enumerations the threading library requires are all declared here. ">
<polygon fill="white" stroke="black" points="284,-233 284,-253 406,-253 406,-233 284,-233"/>
<text text-anchor="middle" x="345" y="-240" font-family="FreeSans" font-size="10.00">threadingenumerations.h</text>
</a>
</g>
<!-- Node1&#45;&gt;Node34 -->
<g id="edge156" class="edge"><title>Node1&#45;&gt;Node34</title>
<path fill="none" stroke="midnightblue" d="M765.286,-473.157C662.533,-468.329 407.949,-453.86 380,-428 329.135,-380.937 338.512,-284.951 343.239,-253.346"/>
<polygon fill="midnightblue" stroke="midnightblue" points="765.17,-476.656 775.32,-473.621 765.493,-469.663 765.17,-476.656"/>
</g>
<!-- Node35 -->
<g id="node116" class="node"><title>Node35</title>
<a xlink:href="atomicoperations_8cpp.html" target="_top" xlink:title="The implementation of simple thread safe ways to check and change a specified variable atomically...">
<polygon fill="white" stroke="black" points="1805,-407 1805,-427 1913,-427 1913,-407 1805,-407"/>
<text text-anchor="middle" x="1859" y="-414" font-family="FreeSans" font-size="10.00">atomicoperations.cpp</text>
</a>
</g>
<!-- Node1&#45;&gt;Node35 -->
<g id="edge162" class="edge"><title>Node1&#45;&gt;Node35</title>
<path fill="none" stroke="midnightblue" d="M850.87,-474.671C988.09,-473.251 1428.72,-465.842 1791,-428 1795.52,-427.528 1800.2,-426.954 1804.88,-426.318"/>
<polygon fill="midnightblue" stroke="midnightblue" points="850.735,-471.172 840.77,-474.771 850.804,-478.172 850.735,-471.172"/>
</g>
<!-- Node3 -->
<g id="node5" class="node"><title>Node3</title>
<a xlink:href="asynchronousfileloadingworkunit_8h.html" target="_top" xlink:title="The declaration of the AsynchronousFileLoadWorkUnit a workunit that loads a listing of files asynchro...">
<polygon fill="white" stroke="black" points="103.5,-59 103.5,-79 264.5,-79 264.5,-59 103.5,-59"/>
<text text-anchor="middle" x="184" y="-66" font-family="FreeSans" font-size="10.00">asynchronousfileloadingworkunit.h</text>
</a>
</g>
<!-- Node2&#45;&gt;Node3 -->
<g id="edge4" class="edge"><title>Node2&#45;&gt;Node3</title>
<path fill="none" stroke="midnightblue" d="M257.109,-111.831C239.544,-101.541 216.801,-88.2168 201.379,-79.1817"/>
<polygon fill="midnightblue" stroke="midnightblue" points="255.358,-114.862 265.756,-116.897 258.896,-108.822 255.358,-114.862"/>
</g>
<!-- Node2&#45;&gt;Node5 -->
<g id="edge12" class="edge"><title>Node2&#45;&gt;Node5</title>
<path fill="none" stroke="midnightblue" d="M325.759,-113.926C352.841,-105.229 388.4,-93.0393 419,-80 438.749,-71.5845 441.353,-63.8769 462,-58 559.008,-30.388 859.614,-17.1065 982.663,-12.7174"/>
<polygon fill="midnightblue" stroke="midnightblue" points="324.66,-110.602 316.19,-116.967 326.78,-117.274 324.66,-110.602"/>
</g>
<!-- Node6 -->
<g id="node11" class="node"><title>Node6</title>
<a xlink:href="asynchronousworkunit_8cpp.html" target="_top" xlink:title="Contains very little actually. ">
<polygon fill="white" stroke="black" points="281.5,-59 281.5,-79 410.5,-79 410.5,-59 281.5,-59"/>
<text text-anchor="middle" x="346" y="-66" font-family="FreeSans" font-size="10.00">asynchronousworkunit.cpp</text>
</a>
</g>
<!-- Node2&#45;&gt;Node6 -->
<g id="edge10" class="edge"><title>Node2&#45;&gt;Node6</title>
<path fill="none" stroke="midnightblue" d="M301.618,-109.86C312.369,-99.9622 325.538,-87.8377 334.728,-79.3776"/>
<polygon fill="midnightblue" stroke="midnightblue" points="298.96,-107.549 293.974,-116.897 303.701,-112.699 298.96,-107.549"/>
</g>
<!-- Node4 -->
<g id="node7" class="node"><title>Node4</title>
<a xlink:href="asynchronousfileloadingworkunit_8cpp.html" target="_top" xlink:title="The implementation of the AsynchronousFileLoadWorkUnit a workunit that loads a listing of files async...">
<polygon fill="white" stroke="black" points="6,-1 6,-21 178,-21 178,-1 6,-1"/>
<text text-anchor="middle" x="92" y="-8" font-family="FreeSans" font-size="10.00">asynchronousfileloadingworkunit.cpp</text>
</a>
</g>
<!-- Node3&#45;&gt;Node4 -->
<g id="edge6" class="edge"><title>Node3&#45;&gt;Node4</title>
<path fill="none" stroke="midnightblue" d="M159.489,-53.5474C143.23,-43.2969 122.35,-30.1339 108.15,-21.1817"/>
<polygon fill="midnightblue" stroke="midnightblue" points="157.649,-56.5249 167.975,-58.8972 161.382,-50.6034 157.649,-56.5249"/>
</g>
<!-- Node3&#45;&gt;Node5 -->
<g id="edge8" class="edge"><title>Node3&#45;&gt;Node5</title>
<path fill="none" stroke="midnightblue" d="M273.194,-58.0394C546.723,-33.0327 859.815,-18.3657 982.724,-13.1537"/>
<polygon fill="midnightblue" stroke="midnightblue" points="272.708,-54.5692 263.071,-58.9713 273.35,-61.5397 272.708,-54.5692"/>
</g>
<!-- Node7&#45;&gt;Node2 -->
<g id="edge16" class="edge"><title>Node7&#45;&gt;Node2</title>
<path fill="none" stroke="midnightblue" d="M717.267,-293.561C705.164,-292.344 692.726,-291.117 681,-290 635.916,-285.705 305.577,-287.408 275,-254 244.87,-221.08 267.27,-161.039 278.06,-137.174"/>
<polygon fill="midnightblue" stroke="midnightblue" points="717.031,-297.055 727.332,-294.579 717.735,-290.091 717.031,-297.055"/>
</g>
<!-- Node7&#45;&gt;Node5 -->
<g id="edge48" class="edge"><title>Node7&#45;&gt;Node5</title>
<path fill="none" stroke="midnightblue" d="M803.569,-282.921C810.312,-274.32 818.295,-263.797 825,-254 865.555,-194.748 852.848,-160.75 909,-116 948.568,-84.4663 982.184,-116.713 1017,-80 1032.39,-63.7717 1035.53,-36.2519 1036.04,-21.3423"/>
<polygon fill="midnightblue" stroke="midnightblue" points="800.806,-280.773 797.333,-290.783 806.29,-285.123 800.806,-280.773"/>
</g>
<!-- Node7&#45;&gt;Node8 -->
<g id="edge18" class="edge"><title>Node7&#45;&gt;Node8</title>
<path fill="none" stroke="midnightblue" d="M835.891,-288.171C874.524,-277.602 928.554,-262.82 964.141,-253.084"/>
<polygon fill="midnightblue" stroke="midnightblue" points="834.649,-284.882 825.928,-290.897 836.497,-291.634 834.649,-284.882"/>
</g>
<!-- Node11 -->
<g id="node25" class="node"><title>Node11</title>
<a xlink:href="framescheduler_8cpp.html" target="_top" xlink:title="This is the core object implementation for this algorithm. ">
<polygon fill="white" stroke="black" points="907.5,-59 907.5,-79 1008.5,-79 1008.5,-59 907.5,-59"/>
<text text-anchor="middle" x="958" y="-66" font-family="FreeSans" font-size="10.00">framescheduler.cpp</text>
</a>
</g>
<!-- Node7&#45;&gt;Node11 -->
<g id="edge52" class="edge"><title>Node7&#45;&gt;Node11</title>
<path fill="none" stroke="midnightblue" d="M796.427,-281.51C812.718,-239.472 852.044,-141.977 876,-116 891.351,-99.354 913.98,-86.9968 931.58,-79.1417"/>
<polygon fill="midnightblue" stroke="midnightblue" points="793.129,-280.336 792.805,-290.925 799.662,-282.849 793.129,-280.336"/>
</g>
<!-- Node12 -->
<g id="node27" class="node"><title>Node12</title>
<a xlink:href="frameschedulerworkunits_8cpp.html" target="_top" xlink:title="The implementation of any workunits the framescheduler needs to work correctly. ">
<polygon fill="white" stroke="black" points="579.5,-59 579.5,-79 720.5,-79 720.5,-59 579.5,-59"/>
<text text-anchor="middle" x="650" y="-66" font-family="FreeSans" font-size="10.00">frameschedulerworkunits.cpp</text>
</a>
</g>
<!-- Node7&#45;&gt;Node12 -->
<g id="edge54" class="edge"><title>Node7&#45;&gt;Node12</title>
<path fill="none" stroke="midnightblue" d="M777.708,-282.153C749.653,-235.327 677.499,-114.897 656.081,-79.1495"/>
<polygon fill="midnightblue" stroke="midnightblue" points="774.706,-283.953 782.848,-290.732 780.711,-280.355 774.706,-283.953"/>
</g>
<!-- Node7&#45;&gt;Node13 -->
<g id="edge50" class="edge"><title>Node7&#45;&gt;Node13</title>
<path fill="none" stroke="midnightblue" d="M789.35,-280.724C789.993,-243.389 791.344,-165.039 791.825,-137.135"/>
<polygon fill="midnightblue" stroke="midnightblue" points="785.847,-280.834 789.174,-290.893 792.846,-280.955 785.847,-280.834"/>
</g>
<!-- Node15 -->
<g id="node36" class="node"><title>Node15</title>
<a xlink:href="workunit_8cpp.html" target="_top" xlink:title="This file has the implementation of the Mezzanine::Threading::DefaultWorkUnit. ">
<polygon fill="white" stroke="black" points="917.5,-117 917.5,-137 988.5,-137 988.5,-117 917.5,-117"/>
<text text-anchor="middle" x="953" y="-124" font-family="FreeSans" font-size="10.00">workunit.cpp</text>
</a>
</g>
<!-- Node7&#45;&gt;Node15 -->
<g id="edge56" class="edge"><title>Node7&#45;&gt;Node15</title>
<path fill="none" stroke="midnightblue" d="M846.114,-287.824C866.543,-280.693 888.358,-269.954 904,-254 937.421,-219.912 948.608,-160.547 951.84,-137.018"/>
<polygon fill="midnightblue" stroke="midnightblue" points="844.963,-284.518 836.542,-290.947 847.134,-291.173 844.963,-284.518"/>
</g>
<!-- Node8&#45;&gt;Node5 -->
<g id="edge44" class="edge"><title>Node8&#45;&gt;Node5</title>
<path fill="none" stroke="midnightblue" d="M1009.58,-223.429C1013.07,-215.071 1016.98,-205.151 1020,-196 1036.68,-145.428 1043.28,-132.826 1050,-80 1051.23,-70.3004 1051.41,-67.6755 1050,-58 1048.11,-45.0255 1043.43,-30.6527 1040,-21.2591"/>
<polygon fill="midnightblue" stroke="midnightblue" points="1006.33,-222.121 1005.62,-232.692 1012.77,-224.871 1006.33,-222.121"/>
</g>
<!-- Node8&#45;&gt;Node9 -->
<g id="edge20" class="edge"><title>Node8&#45;&gt;Node9</title>
<path fill="none" stroke="midnightblue" d="M946.063,-235.359C856.986,-222.969 683.986,-198.907 614.235,-189.205"/>
<polygon fill="midnightblue" stroke="midnightblue" points="945.591,-238.827 955.977,-236.738 946.555,-231.894 945.591,-238.827"/>
</g>
<!-- Node8&#45;&gt;Node11 -->
<g id="edge46" class="edge"><title>Node8&#45;&gt;Node11</title>
<path fill="none" stroke="midnightblue" d="M1004.3,-222.627C1007.61,-196.865 1010.48,-151.581 997,-116 991.442,-101.325 979.275,-87.9091 969.999,-79.2014"/>
<polygon fill="midnightblue" stroke="midnightblue" points="1000.82,-222.291 1002.86,-232.687 1007.75,-223.286 1000.82,-222.291"/>
</g>
<!-- Node9&#45;&gt;Node2 -->
<g id="edge22" class="edge"><title>Node9&#45;&gt;Node2</title>
<path fill="none" stroke="midnightblue" d="M543.895,-177.272C490.064,-166.899 394.361,-148.458 335.035,-137.027"/>
<polygon fill="midnightblue" stroke="midnightblue" points="543.279,-180.718 553.761,-179.173 544.604,-173.844 543.279,-180.718"/>
</g>
<!-- Node9&#45;&gt;Node5 -->
<g id="edge40" class="edge"><title>Node9&#45;&gt;Node5</title>
<path fill="none" stroke="midnightblue" d="M578.405,-164.708C570.186,-132.867 557.239,-73.222 571,-58 598.207,-27.9046 866.716,-16.1467 982.888,-12.4428"/>
<polygon fill="midnightblue" stroke="midnightblue" points="575.108,-165.93 581.063,-174.693 581.872,-164.129 575.108,-165.93"/>
</g>
<!-- Node9&#45;&gt;Node10 -->
<g id="edge24" class="edge"><title>Node9&#45;&gt;Node10</title>
<path fill="none" stroke="midnightblue" d="M558.69,-169.547C541.9,-159.297 520.34,-146.134 505.677,-137.182"/>
<polygon fill="midnightblue" stroke="midnightblue" points="557.093,-172.674 567.452,-174.897 560.741,-166.699 557.093,-172.674"/>
</g>
<!-- Node9&#45;&gt;Node13 -->
<g id="edge32" class="edge"><title>Node9&#45;&gt;Node13</title>
<path fill="none" stroke="midnightblue" d="M624.04,-173.835C663.393,-162.862 722.719,-146.319 759.317,-136.114"/>
<polygon fill="midnightblue" stroke="midnightblue" points="622.937,-170.509 614.245,-176.566 624.818,-177.252 622.937,-170.509"/>
</g>
<!-- Node9&#45;&gt;Node15 -->
<g id="edge42" class="edge"><title>Node9&#45;&gt;Node15</title>
<path fill="none" stroke="midnightblue" d="M624.308,-178.664C696.846,-167.263 848.236,-143.467 917.287,-132.613"/>
<polygon fill="midnightblue" stroke="midnightblue" points="623.532,-175.243 614.197,-180.254 624.619,-182.158 623.532,-175.243"/>
</g>
<!-- Node10&#45;&gt;Node5 -->
<g id="edge26" class="edge"><title>Node10&#45;&gt;Node5</title>
<path fill="none" stroke="midnightblue" d="M497.056,-107.739C504.945,-91.5091 518.613,-69.1957 538,-58 575.837,-36.15 861.95,-19.6078 982.601,-13.5315"/>
<polygon fill="midnightblue" stroke="midnightblue" points="493.842,-106.352 492.892,-116.904 500.215,-109.248 493.842,-106.352"/>
</g>
<!-- Node10&#45;&gt;Node11 -->
<g id="edge28" class="edge"><title>Node10&#45;&gt;Node11</title>
<path fill="none" stroke="midnightblue" d="M564.68,-117.641C661.076,-105.72 825.02,-85.4453 907.475,-75.2483"/>
<polygon fill="midnightblue" stroke="midnightblue" points="564.201,-114.173 554.706,-118.874 565.06,-121.12 564.201,-114.173"/>
</g>
<!-- Node10&#45;&gt;Node12 -->
<g id="edge30" class="edge"><title>Node10&#45;&gt;Node12</title>
<path fill="none" stroke="midnightblue" d="M526.499,-113.491C555.689,-102.975 595.557,-88.6131 622.008,-79.0842"/>
<polygon fill="midnightblue" stroke="midnightblue" points="525.266,-110.215 517.044,-116.897 527.638,-116.801 525.266,-110.215"/>
</g>
<!-- Node13&#45;&gt;Node5 -->
<g id="edge34" class="edge"><title>Node13&#45;&gt;Node5</title>
<path fill="none" stroke="midnightblue" d="M815.236,-111.072C841.35,-93.3424 882.277,-66.1115 899,-58 931.579,-42.1974 970.854,-29.3016 998.984,-21.0425"/>
<polygon fill="midnightblue" stroke="midnightblue" points="812.975,-108.378 806.681,-116.901 816.916,-114.163 812.975,-108.378"/>
</g>
<!-- Node13&#45;&gt;Node11 -->
<g id="edge36" class="edge"><title>Node13&#45;&gt;Node11</title>
<path fill="none" stroke="midnightblue" d="M830.664,-113.491C860.76,-102.975 901.866,-88.6131 929.138,-79.0842"/>
<polygon fill="midnightblue" stroke="midnightblue" points="829.201,-110.295 820.915,-116.897 831.51,-116.903 829.201,-110.295"/>
</g>
<!-- Node14 -->
<g id="node33" class="node"><title>Node14</title>
<a xlink:href="monopoly_8cpp.html" target="_top" xlink:title="Contains the minimal implementation for the monopoly base class. ">
<polygon fill="white" stroke="black" points="776,-59 776,-79 852,-79 852,-59 776,-59"/>
<text text-anchor="middle" x="814" y="-66" font-family="FreeSans" font-size="10.00">monopoly.cpp</text>
</a>
</g>
<!-- Node13&#45;&gt;Node14 -->
<g id="edge38" class="edge"><title>Node13&#45;&gt;Node14</title>
<path fill="none" stroke="midnightblue" d="M799.399,-107.493C802.969,-98.0829 807.106,-87.1742 810.064,-79.3776"/>
<polygon fill="midnightblue" stroke="midnightblue" points="796.106,-106.306 795.832,-116.897 802.651,-108.789 796.106,-106.306"/>
</g>
<!-- Node16&#45;&gt;Node5 -->
<g id="edge82" class="edge"><title>Node16&#45;&gt;Node5</title>
<path fill="none" stroke="midnightblue" d="M1296.93,-349.859C1338.07,-341.045 1393.91,-326.884 1411,-312 1457.66,-271.369 1468,-246.869 1468,-185 1468,-185 1468,-185 1468,-127 1468,-49.4403 1204.99,-22.2923 1089.4,-14.1065"/>
<polygon fill="midnightblue" stroke="midnightblue" points="1296.15,-346.446 1287.09,-351.928 1297.59,-353.297 1296.15,-346.446"/>
</g>
<!-- Node16&#45;&gt;Node8 -->
<g id="edge74" class="edge"><title>Node16&#45;&gt;Node8</title>
<path fill="none" stroke="midnightblue" d="M1238.03,-340.391C1226.92,-324.634 1208.98,-302.65 1188,-290 1175.82,-282.655 1097.35,-264.339 1046.01,-252.862"/>
<polygon fill="midnightblue" stroke="midnightblue" points="1235.24,-342.515 1243.75,-348.83 1241.03,-338.588 1235.24,-342.515"/>
</g>
<!-- Node16&#45;&gt;Node15 -->
<g id="edge86" class="edge"><title>Node16&#45;&gt;Node15</title>
<path fill="none" stroke="midnightblue" d="M1242.85,-338.898C1236.85,-324.114 1227.15,-304.204 1214,-290 1194.59,-269.023 1025.25,-169.214 970.203,-137.029"/>
<polygon fill="midnightblue" stroke="midnightblue" points="1239.72,-340.512 1246.56,-348.603 1246.26,-338.012 1239.72,-340.512"/>
</g>
<!-- Node17 -->
<g id="node49" class="node"><title>Node17</title>
<a xlink:href="thread_8h.html" target="_top" xlink:title="This file defines a minimalistic cross&#45;platform thread that the scheduler uses to schedule tasks...">
<polygon fill="white" stroke="black" points="1277.5,-291 1277.5,-311 1328.5,-311 1328.5,-291 1277.5,-291"/>
<text text-anchor="middle" x="1303" y="-298" font-family="FreeSans" font-size="10.00">thread.h</text>
</a>
</g>
<!-- Node16&#45;&gt;Node17 -->
<g id="edge64" class="edge"><title>Node16&#45;&gt;Node17</title>
<path fill="none" stroke="midnightblue" d="M1266.2,-341.275C1275.14,-331.488 1285.94,-319.672 1293.52,-311.378"/>
<polygon fill="midnightblue" stroke="midnightblue" points="1263.39,-339.154 1259.23,-348.897 1268.56,-343.876 1263.39,-339.154"/>
</g>
<!-- Node16&#45;&gt;Node19 -->
<g id="edge76" class="edge"><title>Node16&#45;&gt;Node19</title>
<path fill="none" stroke="midnightblue" d="M1280.93,-344.535C1303.12,-334.155 1332.47,-320.424 1352.23,-311.182"/>
<polygon fill="midnightblue" stroke="midnightblue" points="1279.17,-341.49 1271.6,-348.897 1282.14,-347.831 1279.17,-341.49"/>
</g>
<!-- Node16&#45;&gt;Node21 -->
<g id="edge84" class="edge"><title>Node16&#45;&gt;Node21</title>
<path fill="none" stroke="midnightblue" d="M1214.98,-345.09C1188.7,-334.649 1153.31,-320.59 1129.63,-311.182"/>
<polygon fill="midnightblue" stroke="midnightblue" points="1213.98,-348.458 1224.57,-348.897 1216.57,-341.952 1213.98,-348.458"/>
</g>
<!-- Node17&#45;&gt;Node5 -->
<g id="edge70" class="edge"><title>Node17&#45;&gt;Node5</title>
<path fill="none" stroke="midnightblue" d="M1293.32,-281.574C1282.96,-258.96 1268,-220.207 1268,-185 1268,-185 1268,-185 1268,-127 1268,-47.5187 1157.72,-22.4945 1089.23,-14.6174"/>
<polygon fill="midnightblue" stroke="midnightblue" points="1290.23,-283.229 1297.68,-290.758 1296.55,-280.224 1290.23,-283.229"/>
</g>
<!-- Node17&#45;&gt;Node8 -->
<g id="edge66" class="edge"><title>Node17&#45;&gt;Node8</title>
<path fill="none" stroke="midnightblue" d="M1267.24,-294.133C1212.08,-283.538 1106.3,-263.224 1046.01,-251.644"/>
<polygon fill="midnightblue" stroke="midnightblue" points="1266.77,-297.606 1277.25,-296.055 1268.09,-290.732 1266.77,-297.606"/>
</g>
<!-- Node17&#45;&gt;Node9 -->
<g id="edge68" class="edge"><title>Node17&#45;&gt;Node9</title>
<path fill="none" stroke="midnightblue" d="M1267.74,-289.116C1220.05,-273.526 1132.1,-246.46 1055,-232 890.232,-201.095 688.974,-189.6 614.01,-186.204"/>
<polygon fill="midnightblue" stroke="midnightblue" points="1266.69,-292.456 1277.28,-292.26 1268.88,-285.807 1266.69,-292.456"/>
</g>
<!-- Node18 -->
<g id="node54" class="node"><title>Node18</title>
<a xlink:href="thread_8cpp.html" target="_top" xlink:title="This file implements a minimalistic cross&#45;platform thread that the scheduler uses to schedule tasks...">
<polygon fill="white" stroke="black" points="1178,-233 1178,-253 1240,-253 1240,-233 1178,-233"/>
<text text-anchor="middle" x="1209" y="-240" font-family="FreeSans" font-size="10.00">thread.cpp</text>
</a>
</g>
<!-- Node17&#45;&gt;Node18 -->
<g id="edge72" class="edge"><title>Node17&#45;&gt;Node18</title>
<path fill="none" stroke="midnightblue" d="M1277.96,-285.547C1261.34,-275.297 1240.01,-262.134 1225.5,-253.182"/>
<polygon fill="midnightblue" stroke="midnightblue" points="1276.28,-288.625 1286.63,-290.897 1279.95,-282.667 1276.28,-288.625"/>
</g>
<!-- Node19&#45;&gt;Node5 -->
<g id="edge78" class="edge"><title>Node19&#45;&gt;Node5</title>
<path fill="none" stroke="midnightblue" d="M1379.04,-280.912C1384.37,-257.897 1392,-218.977 1392,-185 1392,-185 1392,-185 1392,-127 1392,-64.1088 1188.61,-30.0179 1089.3,-17.1205"/>
<polygon fill="midnightblue" stroke="midnightblue" points="1375.59,-280.3 1376.66,-290.841 1382.39,-281.935 1375.59,-280.3"/>
</g>
<!-- Node20 -->
<g id="node60" class="node"><title>Node20</title>
<a xlink:href="logtools_8cpp.html" target="_top" xlink:title="Tools that make logging specific data a little bit easier. ">
<polygon fill="white" stroke="black" points="1296,-233 1296,-253 1364,-253 1364,-233 1296,-233"/>
<text text-anchor="middle" x="1330" y="-240" font-family="FreeSans" font-size="10.00">logtools.cpp</text>
</a>
</g>
<!-- Node19&#45;&gt;Node20 -->
<g id="edge80" class="edge"><title>Node19&#45;&gt;Node20</title>
<path fill="none" stroke="midnightblue" d="M1360.11,-282.686C1352.77,-273.017 1344.04,-261.506 1337.87,-253.378"/>
<polygon fill="midnightblue" stroke="midnightblue" points="1357.5,-285.046 1366.34,-290.897 1363.08,-280.815 1357.5,-285.046"/>
</g>
<!-- Node22&#45;&gt;Node4 -->
<g id="edge108" class="edge"><title>Node22&#45;&gt;Node4</title>
<path fill="none" stroke="midnightblue" d="M1524.62,-414.691C1236.74,-402.725 0,-342.175 0,-185 0,-185 0,-185 0,-127 0,-94.5312 4.34059,-83.8405 24,-58 36.3389,-41.7817 55.9114,-29.0947 70.8964,-21.0115"/>
<polygon fill="midnightblue" stroke="midnightblue" points="1524.72,-418.198 1534.86,-415.112 1525.01,-411.204 1524.72,-418.198"/>
</g>
<!-- Node22&#45;&gt;Node5 -->
<g id="edge110" class="edge"><title>Node22&#45;&gt;Node5</title>
<path fill="none" stroke="midnightblue" d="M1604.28,-400.093C1626.79,-379.306 1660,-341.742 1660,-301 1660,-301 1660,-301 1660,-127 1660,-40.493 1562.15,-78.0717 1478,-58 1340.26,-25.1444 1172.88,-15.2419 1089.13,-12.2682"/>
<polygon fill="midnightblue" stroke="midnightblue" points="1601.7,-397.706 1596.55,-406.967 1606.35,-402.937 1601.7,-397.706"/>
</g>
<!-- Node22&#45;&gt;Node11 -->
<g id="edge112" class="edge"><title>Node22&#45;&gt;Node11</title>
<path fill="none" stroke="midnightblue" d="M1585.95,-396.95C1586.7,-382.97 1586.49,-364.026 1582,-348 1561.29,-274.071 1523.69,-264.202 1454,-232 1291.9,-157.105 1085.56,-100.953 999.063,-79.0485"/>
<polygon fill="midnightblue" stroke="midnightblue" points="1582.45,-396.715 1585.2,-406.947 1589.44,-397.234 1582.45,-396.715"/>
</g>
<!-- Node22&#45;&gt;Node15 -->
<g id="edge118" class="edge"><title>Node22&#45;&gt;Node15</title>
<path fill="none" stroke="midnightblue" d="M1580.03,-396.806C1573.58,-369.097 1558.26,-319.39 1527,-290 1446.43,-214.253 1101.01,-151.478 988.546,-132.723"/>
<polygon fill="midnightblue" stroke="midnightblue" points="1576.68,-397.86 1582.21,-406.895 1583.52,-396.381 1576.68,-397.86"/>
</g>
<!-- Node23 -->
<g id="node68" class="node"><title>Node23</title>
<a xlink:href="mutex_8h.html" target="_top" xlink:title="This file declares and defines a mutex that is a partial implementation. ">
<polygon fill="white" stroke="black" points="1463,-349 1463,-369 1513,-369 1513,-349 1463,-349"/>
<text text-anchor="middle" x="1488" y="-356" font-family="FreeSans" font-size="10.00">mutex.h</text>
</a>
</g>
<!-- Node22&#45;&gt;Node23 -->
<g id="edge90" class="edge"><title>Node22&#45;&gt;Node23</title>
<path fill="none" stroke="midnightblue" d="M1558.42,-401.547C1541.46,-391.297 1519.67,-378.134 1504.85,-369.182"/>
<polygon fill="midnightblue" stroke="midnightblue" points="1556.91,-404.722 1567.28,-406.897 1560.53,-398.73 1556.91,-404.722"/>
</g>
<!-- Node22&#45;&gt;Node25 -->
<g id="edge100" class="edge"><title>Node22&#45;&gt;Node25</title>
<path fill="none" stroke="midnightblue" d="M1524.66,-411.147C1398.8,-398.732 1109.42,-370.187 1021.68,-361.533"/>
<polygon fill="midnightblue" stroke="midnightblue" points="1524.58,-414.656 1534.88,-412.155 1525.27,-407.69 1524.58,-414.656"/>
</g>
<!-- Node27 -->
<g id="node84" class="node"><title>Node27</title>
<a xlink:href="readwritespinlock_8cpp.html" target="_top" xlink:title="Contains the implementation for the Mezzanine::Threading::Mutex Mutex synchronization object...">
<polygon fill="white" stroke="black" points="1846.5,-291 1846.5,-311 1955.5,-311 1955.5,-291 1846.5,-291"/>
<text text-anchor="middle" x="1901" y="-298" font-family="FreeSans" font-size="10.00">readwritespinlock.cpp</text>
</a>
</g>
<!-- Node22&#45;&gt;Node27 -->
<g id="edge114" class="edge"><title>Node22&#45;&gt;Node27</title>
<path fill="none" stroke="midnightblue" d="M1612.52,-402.103C1650.78,-382.129 1714.29,-349.033 1717,-348 1760.13,-331.553 1811.11,-319.038 1848.47,-311.074"/>
<polygon fill="midnightblue" stroke="midnightblue" points="1610.63,-399.139 1603.39,-406.87 1613.87,-405.345 1610.63,-399.139"/>
</g>
<!-- Node28 -->
<g id="node86" class="node"><title>Node28</title>
<a xlink:href="spinlock_8cpp.html" target="_top" xlink:title="Contains the implementation for the Mezzanine::Threading::SpinLock synchronization object...">
<polygon fill="white" stroke="black" points="1726,-349 1726,-369 1796,-369 1796,-349 1726,-349"/>
<text text-anchor="middle" x="1761" y="-356" font-family="FreeSans" font-size="10.00">spinlock.cpp</text>
</a>
</g>
<!-- Node22&#45;&gt;Node28 -->
<g id="edge116" class="edge"><title>Node22&#45;&gt;Node28</title>
<path fill="none" stroke="midnightblue" d="M1624.39,-403.764C1656.55,-393.225 1700.89,-378.696 1730.23,-369.084"/>
<polygon fill="midnightblue" stroke="midnightblue" points="1623.24,-400.457 1614.83,-406.897 1625.42,-407.109 1623.24,-400.457"/>
</g>
<!-- Node23&#45;&gt;Node5 -->
<g id="edge96" class="edge"><title>Node23&#45;&gt;Node5</title>
<path fill="none" stroke="midnightblue" d="M1505.83,-341.222C1513.29,-332.934 1521.48,-322.577 1527,-312 1541.71,-283.796 1546,-274.808 1546,-243 1546,-243 1546,-243 1546,-127 1546,-60.0126 1476,-77.792 1412,-58 1353,-39.7535 1178.3,-22.9909 1089.34,-15.3499"/>
<polygon fill="midnightblue" stroke="midnightblue" points="1503.04,-339.071 1498.74,-348.752 1508.14,-343.868 1503.04,-339.071"/>
</g>
<!-- Node23&#45;&gt;Node9 -->
<g id="edge94" class="edge"><title>Node23&#45;&gt;Node9</title>
<path fill="none" stroke="midnightblue" d="M1452.67,-356.902C1414.15,-354.633 1350.7,-350.944 1296,-348 1256.28,-345.863 608.407,-340.822 581,-312 550.3,-279.716 569.916,-219.307 579.558,-195.259"/>
<polygon fill="midnightblue" stroke="midnightblue" points="1452.65,-360.408 1462.84,-357.503 1453.07,-353.42 1452.65,-360.408"/>
</g>
<!-- Node23&#45;&gt;Node17 -->
<g id="edge92" class="edge"><title>Node23&#45;&gt;Node17</title>
<path fill="none" stroke="midnightblue" d="M1453.08,-348.252C1422.45,-338.796 1376.73,-324.611 1337,-312 1334.28,-311.137 1331.44,-310.228 1328.61,-309.319"/>
<polygon fill="midnightblue" stroke="midnightblue" points="1452.27,-351.665 1462.86,-351.268 1454.33,-344.976 1452.27,-351.665"/>
</g>
<!-- Node24 -->
<g id="node73" class="node"><title>Node24</title>
<a xlink:href="mutex_8cpp.html" target="_top" xlink:title="Contains the implementation for the Mezzanine::Threading::Mutex Mutex synchronization object...">
<polygon fill="white" stroke="black" points="1457.5,-291 1457.5,-311 1518.5,-311 1518.5,-291 1457.5,-291"/>
<text text-anchor="middle" x="1488" y="-298" font-family="FreeSans" font-size="10.00">mutex.cpp</text>
</a>
</g>
<!-- Node23&#45;&gt;Node24 -->
<g id="edge98" class="edge"><title>Node23&#45;&gt;Node24</title>
<path fill="none" stroke="midnightblue" d="M1488,-338.89C1488,-329.62 1488,-319.008 1488,-311.378"/>
<polygon fill="midnightblue" stroke="midnightblue" points="1484.5,-338.897 1488,-348.897 1491.5,-338.897 1484.5,-338.897"/>
</g>
<!-- Node25&#45;&gt;Node5 -->
<g id="edge106" class="edge"><title>Node25&#45;&gt;Node5</title>
<path fill="none" stroke="midnightblue" d="M1009.71,-340.79C1023.96,-320.725 1045.47,-286.919 1055,-254 1079.25,-170.237 1087.15,-142.075 1064,-58 1060.17,-44.0809 1051.02,-30.1214 1044.21,-21.0765"/>
<polygon fill="midnightblue" stroke="midnightblue" points="1006.8,-338.843 1003.75,-348.989 1012.46,-342.961 1006.8,-338.843"/>
</g>
<!-- Node25&#45;&gt;Node8 -->
<g id="edge102" class="edge"><title>Node25&#45;&gt;Node8</title>
<path fill="none" stroke="midnightblue" d="M996.884,-338.487C997.964,-313.447 999.746,-272.096 1000.56,-253.106"/>
<polygon fill="midnightblue" stroke="midnightblue" points="993.378,-338.564 996.444,-348.706 1000.37,-338.866 993.378,-338.564"/>
</g>
<!-- Node26 -->
<g id="node78" class="node"><title>Node26</title>
<a xlink:href="barrier_8cpp.html" target="_top" xlink:title="Contains the implementation for the Mezzanine::Threading::Barrier Barrier synchronization object...">
<polygon fill="white" stroke="black" points="906,-291 906,-311 968,-311 968,-291 906,-291"/>
<text text-anchor="middle" x="937" y="-298" font-family="FreeSans" font-size="10.00">barrier.cpp</text>
</a>
</g>
<!-- Node25&#45;&gt;Node26 -->
<g id="edge104" class="edge"><title>Node25&#45;&gt;Node26</title>
<path fill="none" stroke="midnightblue" d="M978.564,-341.86C968.496,-331.962 956.162,-319.838 947.557,-311.378"/>
<polygon fill="midnightblue" stroke="midnightblue" points="976.138,-344.383 985.723,-348.897 981.045,-339.391 976.138,-344.383"/>
</g>
<!-- Node29&#45;&gt;Node5 -->
<g id="edge128" class="edge"><title>Node29&#45;&gt;Node5</title>
<path fill="none" stroke="midnightblue" d="M411.438,-297.128C325.893,-289.735 153.062,-272.67 133,-254 68.0437,-193.55 33.8412,-122.29 95,-58 125.775,-25.6498 788.77,-14.291 982.99,-11.6509"/>
<polygon fill="midnightblue" stroke="midnightblue" points="411.16,-300.617 421.422,-297.982 411.756,-293.643 411.16,-300.617"/>
</g>
<!-- Node29&#45;&gt;Node8 -->
<g id="edge122" class="edge"><title>Node29&#45;&gt;Node8</title>
<path fill="none" stroke="midnightblue" d="M506.85,-295.879C610.474,-284.791 854.436,-258.684 955.706,-247.847"/>
<polygon fill="midnightblue" stroke="midnightblue" points="506.253,-292.423 496.682,-296.968 506.998,-299.384 506.253,-292.423"/>
</g>
<!-- Node29&#45;&gt;Node9 -->
<g id="edge124" class="edge"><title>Node29&#45;&gt;Node9</title>
<path fill="none" stroke="midnightblue" d="M477.569,-283.768C504.024,-259.217 551.725,-214.951 573.11,-195.106"/>
<polygon fill="midnightblue" stroke="midnightblue" points="475.042,-281.338 470.093,-290.706 479.804,-286.469 475.042,-281.338"/>
</g>
<!-- Node29&#45;&gt;Node10 -->
<g id="edge126" class="edge"><title>Node29&#45;&gt;Node10</title>
<path fill="none" stroke="midnightblue" d="M462.496,-280.724C468.933,-243.389 482.442,-165.039 487.253,-137.135"/>
<polygon fill="midnightblue" stroke="midnightblue" points="458.993,-280.444 460.743,-290.893 465.891,-281.633 458.993,-280.444"/>
</g>
<!-- Node30 -->
<g id="node95" class="node"><title>Node30</title>
<a xlink:href="workunitkey_8cpp.html" target="_top" xlink:title="This file declares the functionality of the metadata used to sort the iWorkUnits. ...">
<polygon fill="white" stroke="black" points="142,-233 142,-253 228,-253 228,-233 142,-233"/>
<text text-anchor="middle" x="185" y="-240" font-family="FreeSans" font-size="10.00">workunitkey.cpp</text>
</a>
</g>
<!-- Node29&#45;&gt;Node30 -->
<g id="edge130" class="edge"><title>Node29&#45;&gt;Node30</title>
<path fill="none" stroke="midnightblue" d="M411.584,-290.963C360.021,-280.048 278.311,-262.752 228.388,-252.184"/>
<polygon fill="midnightblue" stroke="midnightblue" points="410.968,-294.41 421.476,-293.057 412.418,-287.562 410.968,-294.41"/>
</g>
<!-- Node31&#45;&gt;Node5 -->
<g id="edge142" class="edge"><title>Node31&#45;&gt;Node5</title>
<path fill="none" stroke="midnightblue" d="M1753.08,-402.58C1774.09,-392.724 1798.51,-379.735 1805,-370 1836.49,-322.743 1819,-299.786 1819,-243 1819,-243 1819,-243 1819,-127 1819,-53.0502 1265.44,-21.4479 1089.2,-13.2607"/>
<polygon fill="midnightblue" stroke="midnightblue" points="1751.37,-399.513 1743.74,-406.865 1754.29,-405.875 1751.37,-399.513"/>
</g>
<!-- Node31&#45;&gt;Node8 -->
<g id="edge134" class="edge"><title>Node31&#45;&gt;Node8</title>
<path fill="none" stroke="midnightblue" d="M1680.45,-410.968C1668.15,-409.215 1654.53,-407.397 1642,-406 1544.94,-395.177 1287.18,-421.181 1204,-370 1168.49,-348.149 1187.97,-315.522 1155,-290 1137.92,-276.782 1085.37,-262.4 1046.38,-253.073"/>
<polygon fill="midnightblue" stroke="midnightblue" points="1680.02,-414.443 1690.42,-412.416 1681.03,-407.515 1680.02,-414.443"/>
</g>
<!-- Node31&#45;&gt;Node28 -->
<g id="edge144" class="edge"><title>Node31&#45;&gt;Node28</title>
<path fill="none" stroke="midnightblue" d="M1732.95,-398.686C1739.78,-389.017 1747.92,-377.506 1753.66,-369.378"/>
<polygon fill="midnightblue" stroke="midnightblue" points="1730.06,-396.711 1727.14,-406.897 1735.77,-400.752 1730.06,-396.711"/>
</g>
<!-- Node31&#45;&gt;Node32 -->
<g id="edge136" class="edge"><title>Node31&#45;&gt;Node32</title>
<path fill="none" stroke="midnightblue" d="M1759.67,-404.287C1792.69,-393.708 1839.05,-378.851 1869.55,-369.079"/>
<polygon fill="midnightblue" stroke="midnightblue" points="1758.34,-401.038 1749.89,-407.422 1760.48,-407.704 1758.34,-401.038"/>
</g>
<!-- Node32&#45;&gt;Node5 -->
<g id="edge138" class="edge"><title>Node32&#45;&gt;Node5</title>
<path fill="none" stroke="midnightblue" d="M1929.46,-343.572C1941.71,-335.621 1955.21,-324.875 1964,-312 1981.94,-285.735 1983,-274.808 1983,-243 1983,-243 1983,-243 1983,-127 1983,-53.6182 1904.19,-75.8007 1833,-58 1691.47,-22.6116 1243.82,-13.6429 1089.17,-11.5727"/>
<polygon fill="midnightblue" stroke="midnightblue" points="1927.54,-340.645 1920.85,-348.859 1931.2,-346.61 1927.54,-340.645"/>
</g>
<!-- Node32&#45;&gt;Node27 -->
<g id="edge140" class="edge"><title>Node32&#45;&gt;Node27</title>
<path fill="none" stroke="midnightblue" d="M1901,-338.89C1901,-329.62 1901,-319.008 1901,-311.378"/>
<polygon fill="midnightblue" stroke="midnightblue" points="1897.5,-338.897 1901,-348.897 1904.5,-338.897 1897.5,-338.897"/>
</g>
<!-- Node33&#45;&gt;Node5 -->
<g id="edge152" class="edge"><title>Node33&#45;&gt;Node5</title>
<path fill="none" stroke="midnightblue" d="M635.914,-280.864C648.607,-233.459 687.224,-114.564 767,-58 800.936,-33.9378 914.766,-20.7783 982.998,-14.8815"/>
<polygon fill="midnightblue" stroke="midnightblue" points="632.455,-280.261 633.353,-290.818 639.234,-282.006 632.455,-280.261"/>
</g>
<!-- Node33&#45;&gt;Node8 -->
<g id="edge148" class="edge"><title>Node33&#45;&gt;Node8</title>
<path fill="none" stroke="midnightblue" d="M683.037,-292.843C755.896,-281.422 887.095,-260.855 955.976,-250.058"/>
<polygon fill="midnightblue" stroke="midnightblue" points="682.062,-289.453 672.724,-294.459 683.146,-296.368 682.062,-289.453"/>
</g>
<!-- Node33&#45;&gt;Node9 -->
<g id="edge150" class="edge"><title>Node33&#45;&gt;Node9</title>
<path fill="none" stroke="midnightblue" d="M622.961,-281.16C612.846,-256.194 595.858,-214.267 588.094,-195.106"/>
<polygon fill="midnightblue" stroke="midnightblue" points="619.83,-282.752 626.829,-290.706 626.318,-280.123 619.83,-282.752"/>
</g>
<!-- Node34&#45;&gt;Node5 -->
<g id="edge160" class="edge"><title>Node34&#45;&gt;Node5</title>
<path fill="none" stroke="midnightblue" d="M352.005,-223.583C362.417,-196.829 384.12,-148.282 415,-116 449.195,-80.2525 463.021,-73.4966 510,-58 596.742,-29.3873 867.1,-16.8425 982.702,-12.6867"/>
<polygon fill="midnightblue" stroke="midnightblue" points="348.709,-222.404 348.461,-232.996 355.26,-224.871 348.709,-222.404"/>
</g>
<!-- Node34&#45;&gt;Node9 -->
<g id="edge158" class="edge"><title>Node34&#45;&gt;Node9</title>
<path fill="none" stroke="midnightblue" d="M396.232,-230.567C444.163,-218.935 514.143,-201.953 553.74,-192.343"/>
<polygon fill="midnightblue" stroke="midnightblue" points="395.25,-227.204 386.358,-232.963 396.901,-234.006 395.25,-227.204"/>
</g>
</g>
</svg>
