<?xml version="1.0" encoding="UTF-8" standalone="no"?>
<!DOCTYPE svg PUBLIC "-//W3C//DTD SVG 1.1//EN"
 "http://www.w3.org/Graphics/SVG/1.1/DTD/svg11.dtd">
<!-- Generated by graphviz version 2.26.3 (20100126.1600)
 -->
<!-- Title: datatypes.h Pages: 1 -->
<!--zoomable 436 -->
<svg id="main" version="1.1" xmlns="http://www.w3.org/2000/svg" xmlns:xlink="http://www.w3.org/1999/xlink" xml:space="preserve" onload="init(evt)">
        <defs>
                <circle id="rim" cx="0" cy="0" r="7"/>
                <circle id="rim2" cx="0" cy="0" r="3.5"/>
                <g id="zoomPlus">
                        <use xlink:href="#rim" fill="#404040">
                                <set attributeName="fill" to="#808080" begin="zoomplus.mouseover" end="zoomplus.mouseout"/>
                        </use>
                        <path d="M-4,0h8M0,-4v8" fill="none" stroke="white" stroke-width="1.5" pointer-events="none"/>
                </g>
                <g id="zoomMin">
                        <use xlink:href="#rim" fill="#404040">
                                <set attributeName="fill" to="#808080" begin="zoomminus.mouseover" end="zoomminus.mouseout"/>
                        </use>
                        <path d="M-4,0h8" fill="none" stroke="white" stroke-width="1.5" pointer-events="none"/>
                </g>
                <g id="dirArrow">
                        <path fill="none" stroke="white" stroke-width="1.5" d="M0,-3.0v7 M-2.5,-0.5L0,-3.0L2.5,-0.5"/>
                </g>
               <g id="resetDef">
                       <use xlink:href="#rim2" fill="#404040">
                               <set attributeName="fill" to="#808080" begin="reset.mouseover" end="reset.mouseout"/>
                       </use>
               </g>
        </defs>

<script type="text/javascript">
var viewWidth = 1659;
var viewHeight = 436;
var sectionId = 'dynsection-1';
</script>
<script xlink:href="svgpan.js"/>
<svg id="graph" class="graph">
<g id="viewport">
<title>datatypes.h</title>
<polygon fill="white" stroke="white" points="-4,5 -4,-432 1656,-432 1656,5 -4,5"/>
<!-- Node1 -->
<g id="node1" class="node"><title>Node1</title>
<polygon fill="#bfbfbf" stroke="black" points="771.5,-407 771.5,-427 836.5,-427 836.5,-407 771.5,-407"/>
<text text-anchor="middle" x="804" y="-414" font-family="FreeSans" font-size="10.00">datatypes.h</text>
</g>
<!-- Node2 -->
<g id="node3" class="node"><title>Node2</title>
<a xlink:href="asynchronousworkunit_8h.html" target="_top" xlink:title="Contains an interface for a kind of WorkUnit that loads or does other work even when the frame schedu...">
<polygon fill="white" stroke="black" points="525.5,-117 525.5,-137 644.5,-137 644.5,-117 525.5,-117"/>
<text text-anchor="middle" x="585" y="-124" font-family="FreeSans" font-size="10.00">asynchronousworkunit.h</text>
</a>
</g>
<!-- Node1&#45;&gt;Node2 -->
<g id="edge2" class="edge"><title>Node1&#45;&gt;Node2</title>
<path fill="none" stroke="midnightblue" d="M761.677,-406.097C692.057,-386.906 561,-344.944 561,-301 561,-301 561,-301 561,-243 561,-203.103 574.783,-157.058 581.459,-137.096"/>
<polygon fill="midnightblue" stroke="midnightblue" points="760.912,-409.516 771.48,-408.761 762.748,-402.761 760.912,-409.516"/>
</g>
<!-- Node5 -->
<g id="node9" class="node"><title>Node5</title>
<a xlink:href="dagframescheduler_8h.html" target="_top" xlink:title="This is the file that code using this library should include. It includes all the required components...">
<polygon fill="white" stroke="black" points="751,-1 751,-21 857,-21 857,-1 751,-1"/>
<text text-anchor="middle" x="804" y="-8" font-family="FreeSans" font-size="10.00">dagframescheduler.h</text>
</a>
</g>
<!-- Node1&#45;&gt;Node5 -->
<g id="edge102" class="edge"><title>Node1&#45;&gt;Node5</title>
<path fill="none" stroke="midnightblue" d="M761.151,-415.381C594.671,-408.529 0,-378.624 0,-301 0,-301 0,-301 0,-127 0,-89.3873 16.1322,-76.2872 49,-58 79.6094,-40.9694 583.704,-19.677 750.722,-13.0587"/>
<polygon fill="midnightblue" stroke="midnightblue" points="761.353,-418.892 771.486,-415.799 761.636,-411.897 761.353,-418.892"/>
</g>
<!-- Node7 -->
<g id="node14" class="node"><title>Node7</title>
<a xlink:href="doublebufferedresource_8h.html" target="_top" xlink:title="This file defines the template double buffered resources that can be attached to a thread...">
<polygon fill="white" stroke="black" points="742.5,-291 742.5,-311 865.5,-311 865.5,-291 742.5,-291"/>
<text text-anchor="middle" x="804" y="-298" font-family="FreeSans" font-size="10.00">doublebufferedresource.h</text>
</a>
</g>
<!-- Node1&#45;&gt;Node7 -->
<g id="edge14" class="edge"><title>Node1&#45;&gt;Node7</title>
<path fill="none" stroke="midnightblue" d="M804,-396.487C804,-371.447 804,-330.096 804,-311.106"/>
<polygon fill="midnightblue" stroke="midnightblue" points="800.5,-396.706 804,-406.706 807.5,-396.706 800.5,-396.706"/>
</g>
<!-- Node8 -->
<g id="node17" class="node"><title>Node8</title>
<a xlink:href="framescheduler_8h.html" target="_top" xlink:title="This file has the Declarations for the main FrameScheduler class.">
<polygon fill="white" stroke="black" points="895,-233 895,-253 985,-253 985,-233 895,-233"/>
<text text-anchor="middle" x="940" y="-240" font-family="FreeSans" font-size="10.00">framescheduler.h</text>
</a>
</g>
<!-- Node1&#45;&gt;Node8 -->
<g id="edge60" class="edge"><title>Node1&#45;&gt;Node8</title>
<path fill="none" stroke="midnightblue" d="M818.367,-398.618C846.906,-362.106 909.893,-281.52 932.078,-253.135"/>
<polygon fill="midnightblue" stroke="midnightblue" points="815.3,-396.859 811.9,-406.893 820.816,-401.169 815.3,-396.859"/>
</g>
<!-- Node9 -->
<g id="node19" class="node"><title>Node9</title>
<a xlink:href="workunit_8h.html" target="_top" xlink:title="This file has the definition of the workunit.">
<polygon fill="white" stroke="black" points="627,-175 627,-195 687,-195 687,-175 627,-175"/>
<text text-anchor="middle" x="657" y="-182" font-family="FreeSans" font-size="10.00">workunit.h</text>
</a>
</g>
<!-- Node1&#45;&gt;Node9 -->
<g id="edge58" class="edge"><title>Node1&#45;&gt;Node9</title>
<path fill="none" stroke="midnightblue" d="M761.702,-407.175C740.567,-400.177 716.302,-388.612 701,-370 656.761,-316.191 655.556,-225.406 656.5,-195.151"/>
<polygon fill="midnightblue" stroke="midnightblue" points="760.874,-410.582 771.461,-410.166 762.926,-403.889 760.874,-410.582"/>
</g>
<!-- Node10 -->
<g id="node22" class="node"><title>Node10</title>
<a xlink:href="frameschedulerworkunits_8h.html" target="_top" xlink:title="This defines a number of workunits that are required for doing some tasks that the Framescheduler req...">
<polygon fill="white" stroke="black" points="377.5,-117 377.5,-137 508.5,-137 508.5,-117 377.5,-117"/>
<text text-anchor="middle" x="443" y="-124" font-family="FreeSans" font-size="10.00">frameschedulerworkunits.h</text>
</a>
</g>
<!-- Node1&#45;&gt;Node10 -->
<g id="edge104" class="edge"><title>Node1&#45;&gt;Node10</title>
<path fill="none" stroke="midnightblue" d="M761.106,-413.278C623.643,-400.783 203,-357.898 203,-301 203,-301 203,-301 203,-243 203,-198.746 336.947,-155.873 404.706,-137.016"/>
<polygon fill="midnightblue" stroke="midnightblue" points="760.987,-416.782 771.261,-414.193 761.615,-409.81 760.987,-416.782"/>
</g>
<!-- Node13 -->
<g id="node29" class="node"><title>Node13</title>
<a xlink:href="monopoly_8h.html" target="_top" xlink:title="Contains an interface for a kind of WorkUnit that consumes time on multiple thread.">
<polygon fill="white" stroke="black" points="699.5,-117 699.5,-137 764.5,-137 764.5,-117 699.5,-117"/>
<text text-anchor="middle" x="732" y="-124" font-family="FreeSans" font-size="10.00">monopoly.h</text>
</a>
</g>
<!-- Node1&#45;&gt;Node13 -->
<g id="edge118" class="edge"><title>Node1&#45;&gt;Node13</title>
<path fill="none" stroke="midnightblue" d="M780.106,-400.744C753.744,-380.67 715,-343.874 715,-301 715,-301 715,-301 715,-243 715,-203.513 724.763,-157.257 729.492,-137.168"/>
<polygon fill="midnightblue" stroke="midnightblue" points="778.363,-403.806 788.497,-406.895 782.501,-398.161 778.363,-403.806"/>
</g>
<!-- Node16 -->
<g id="node47" class="node"><title>Node16</title>
<a xlink:href="systemcalls_8h.html" target="_top" xlink:title="This file defines a minimalistic cross&#45;platform thread that the scheduler uses to schedule tasks...">
<polygon fill="white" stroke="black" points="1294,-349 1294,-369 1368,-369 1368,-349 1294,-349"/>
<text text-anchor="middle" x="1331" y="-356" font-family="FreeSans" font-size="10.00">systemcalls.h</text>
</a>
</g>
<!-- Node1&#45;&gt;Node16 -->
<g id="edge62" class="edge"><title>Node1&#45;&gt;Node16</title>
<path fill="none" stroke="midnightblue" d="M846.784,-414.796C931.102,-410.018 1124.5,-396.901 1285,-370 1287.92,-369.511 1290.92,-368.943 1293.93,-368.326"/>
<polygon fill="midnightblue" stroke="midnightblue" points="846.365,-411.314 836.575,-415.364 846.754,-418.303 846.365,-411.314"/>
</g>
<!-- Node19 -->
<g id="node58" class="node"><title>Node19</title>
<a xlink:href="systemcalls_8cpp.html" target="_top" xlink:title="This file defines some platform specifc functions.">
<polygon fill="white" stroke="black" points="1567,-291 1567,-311 1651,-311 1651,-291 1567,-291"/>
<text text-anchor="middle" x="1609" y="-298" font-family="FreeSans" font-size="10.00">systemcalls.cpp</text>
</a>
</g>
<!-- Node1&#45;&gt;Node19 -->
<g id="edge132" class="edge"><title>Node1&#45;&gt;Node19</title>
<path fill="none" stroke="midnightblue" d="M846.824,-415.922C962.298,-412.628 1278.05,-400.97 1377,-370 1395.62,-364.171 1396.89,-355.261 1415,-348 1442.26,-337.072 1518.47,-320.011 1566.86,-309.729"/>
<polygon fill="midnightblue" stroke="midnightblue" points="846.506,-412.429 836.607,-416.206 846.701,-419.426 846.506,-412.429"/>
</g>
<!-- Node20 -->
<g id="node61" class="node"><title>Node20</title>
<a xlink:href="atomicoperations_8cpp.html" target="_top" xlink:title="The implementation of simple thread safe ways to check and change a specified variable atomically...">
<polygon fill="white" stroke="black" points="1424,-349 1424,-369 1532,-369 1532,-349 1424,-349"/>
<text text-anchor="middle" x="1478" y="-356" font-family="FreeSans" font-size="10.00">atomicoperations.cpp</text>
</a>
</g>
<!-- Node1&#45;&gt;Node20 -->
<g id="edge82" class="edge"><title>Node1&#45;&gt;Node20</title>
<path fill="none" stroke="midnightblue" d="M846.838,-414.902C946.104,-409.774 1199.47,-395.149 1410,-370 1414.51,-369.461 1419.18,-368.84 1423.87,-368.172"/>
<polygon fill="midnightblue" stroke="midnightblue" points="846.419,-411.419 836.61,-415.425 846.776,-418.41 846.419,-411.419"/>
</g>
<!-- Node21 -->
<g id="node63" class="node"><title>Node21</title>
<a xlink:href="atomicoperations_8h.html" target="_top" xlink:title="Simple thread safe ways to check and change a specified variable atomically.">
<polygon fill="white" stroke="black" points="1178,-349 1178,-369 1276,-369 1276,-349 1178,-349"/>
<text text-anchor="middle" x="1227" y="-356" font-family="FreeSans" font-size="10.00">atomicoperations.h</text>
</a>
</g>
<!-- Node1&#45;&gt;Node21 -->
<g id="edge84" class="edge"><title>Node1&#45;&gt;Node21</title>
<path fill="none" stroke="midnightblue" d="M846.945,-411.112C926.089,-400.26 1094.48,-377.17 1177.97,-365.723"/>
<polygon fill="midnightblue" stroke="midnightblue" points="846.272,-407.671 836.84,-412.497 847.223,-414.606 846.272,-407.671"/>
</g>
<!-- Node22 -->
<g id="node65" class="node"><title>Node22</title>
<a xlink:href="barrier_8h.html" target="_top" xlink:title="The declaration of the Mezzanine::Threading::Barrier Barrier synchronization primitive.">
<polygon fill="white" stroke="black" points="1008.5,-291 1008.5,-311 1059.5,-311 1059.5,-291 1008.5,-291"/>
<text text-anchor="middle" x="1034" y="-298" font-family="FreeSans" font-size="10.00">barrier.h</text>
</a>
</g>
<!-- Node1&#45;&gt;Node22 -->
<g id="edge100" class="edge"><title>Node1&#45;&gt;Node22</title>
<path fill="none" stroke="midnightblue" d="M846.258,-403.939C871.219,-395.566 903.098,-383.713 930,-370 964.555,-352.386 1001.63,-325.669 1020.81,-311.191"/>
<polygon fill="midnightblue" stroke="midnightblue" points="845.113,-400.631 836.711,-407.085 847.304,-407.279 845.113,-400.631"/>
</g>
<!-- Node24 -->
<g id="node77" class="node"><title>Node24</title>
<a xlink:href="workunitkey_8h.html" target="_top" xlink:title="This file defines the metadata used to sort workunits.">
<polygon fill="white" stroke="black" points="453.5,-291 453.5,-311 528.5,-311 528.5,-291 453.5,-291"/>
<text text-anchor="middle" x="491" y="-298" font-family="FreeSans" font-size="10.00">workunitkey.h</text>
</a>
</g>
<!-- Node1&#45;&gt;Node24 -->
<g id="edge106" class="edge"><title>Node1&#45;&gt;Node24</title>
<path fill="none" stroke="midnightblue" d="M761.258,-412.803C697.865,-405.977 582.577,-391.083 547,-370 522.711,-355.607 504.532,-326.532 496.139,-311.121"/>
<polygon fill="midnightblue" stroke="midnightblue" points="761.027,-416.298 771.339,-413.867 761.762,-409.337 761.027,-416.298"/>
</g>
<!-- Node26 -->
<g id="node86" class="node"><title>Node26</title>
<a xlink:href="rollingaverage_8h.html" target="_top" xlink:title="This stores the implementation and the declaration of the RollingAverage, BufferedRollingAverage, WeightedRollingAverage and the DefaultRollingAverage.">
<polygon fill="white" stroke="black" points="1082.5,-233 1082.5,-253 1165.5,-253 1165.5,-233 1082.5,-233"/>
<text text-anchor="middle" x="1124" y="-240" font-family="FreeSans" font-size="10.00">rollingaverage.h</text>
</a>
</g>
<!-- Node1&#45;&gt;Node26 -->
<g id="edge120" class="edge"><title>Node1&#45;&gt;Node26</title>
<path fill="none" stroke="midnightblue" d="M846.52,-408.698C902.489,-395.991 1001.55,-367.169 1068,-312 1089.13,-294.459 1107.95,-267.952 1117.46,-253.428"/>
<polygon fill="midnightblue" stroke="midnightblue" points="845.601,-405.317 836.588,-410.886 847.107,-412.153 845.601,-405.317"/>
</g>
<!-- Node27 -->
<g id="node90" class="node"><title>Node27</title>
<a xlink:href="threadingenumerations_8h.html" target="_top" xlink:title="Any enumerations the threading library requires are all declared here.">
<polygon fill="white" stroke="black" points="231,-233 231,-253 353,-253 353,-233 231,-233"/>
<text text-anchor="middle" x="292" y="-240" font-family="FreeSans" font-size="10.00">threadingenumerations.h</text>
</a>
</g>
<!-- Node1&#45;&gt;Node27 -->
<g id="edge126" class="edge"><title>Node1&#45;&gt;Node27</title>
<path fill="none" stroke="midnightblue" d="M761.119,-414.671C703.984,-410.522 600.404,-399.324 517,-370 430.887,-339.723 339.502,-277.33 305.642,-253.013"/>
<polygon fill="midnightblue" stroke="midnightblue" points="761.015,-418.172 771.232,-415.366 761.496,-411.189 761.015,-418.172"/>
</g>
<!-- Node3 -->
<g id="node5" class="node"><title>Node3</title>
<a xlink:href="asynchronousfileloadingworkunit_8h.html" target="_top" xlink:title="The declaration of the AsynchronousFileLoadWorkUnit a workunit that loads a listing of files asynchro...">
<polygon fill="white" stroke="black" points="299.5,-59 299.5,-79 460.5,-79 460.5,-59 299.5,-59"/>
<text text-anchor="middle" x="380" y="-66" font-family="FreeSans" font-size="10.00">asynchronousfileloadingworkunit.h</text>
</a>
</g>
<!-- Node2&#45;&gt;Node3 -->
<g id="edge4" class="edge"><title>Node2&#45;&gt;Node3</title>
<path fill="none" stroke="midnightblue" d="M539.657,-114.171C502.3,-103.602 450.054,-88.8202 415.642,-79.0842"/>
<polygon fill="midnightblue" stroke="midnightblue" points="538.717,-117.542 549.292,-116.897 540.622,-110.807 538.717,-117.542"/>
</g>
<!-- Node2&#45;&gt;Node5 -->
<g id="edge12" class="edge"><title>Node2&#45;&gt;Node5</title>
<path fill="none" stroke="midnightblue" d="M600.094,-108.735C613.765,-93.2577 635.206,-71.4884 658,-58 687.906,-40.3029 725.262,-28.435 754.7,-21.0522"/>
<polygon fill="midnightblue" stroke="midnightblue" points="597.203,-106.729 593.339,-116.594 602.511,-111.292 597.203,-106.729"/>
</g>
<!-- Node6 -->
<g id="node11" class="node"><title>Node6</title>
<a xlink:href="asynchronousworkunit_8cpp.html" target="_top" xlink:title="Contains very little actually.">
<polygon fill="white" stroke="black" points="477.5,-59 477.5,-79 606.5,-79 606.5,-59 477.5,-59"/>
<text text-anchor="middle" x="542" y="-66" font-family="FreeSans" font-size="10.00">asynchronousworkunit.cpp</text>
</a>
</g>
<!-- Node2&#45;&gt;Node6 -->
<g id="edge10" class="edge"><title>Node2&#45;&gt;Node6</title>
<path fill="none" stroke="midnightblue" d="M571.422,-108.686C564.254,-99.0169 555.72,-87.5059 549.694,-79.3776"/>
<polygon fill="midnightblue" stroke="midnightblue" points="568.743,-110.949 577.51,-116.897 574.366,-106.78 568.743,-110.949"/>
</g>
<!-- Node4 -->
<g id="node7" class="node"><title>Node4</title>
<a xlink:href="asynchronousfileloadingworkunit_8cpp.html" target="_top" xlink:title="The implemtation of the AsynchronousFileLoadWorkUnit a workunit that loads a listing of files asynchr...">
<polygon fill="white" stroke="black" points="294,-1 294,-21 466,-21 466,-1 294,-1"/>
<text text-anchor="middle" x="380" y="-8" font-family="FreeSans" font-size="10.00">asynchronousfileloadingworkunit.cpp</text>
</a>
</g>
<!-- Node3&#45;&gt;Node4 -->
<g id="edge6" class="edge"><title>Node3&#45;&gt;Node4</title>
<path fill="none" stroke="midnightblue" d="M380,-48.8902C380,-39.6201 380,-29.0083 380,-21.3776"/>
<polygon fill="midnightblue" stroke="midnightblue" points="376.5,-48.8971 380,-58.8972 383.5,-48.8972 376.5,-48.8971"/>
</g>
<!-- Node3&#45;&gt;Node5 -->
<g id="edge8" class="edge"><title>Node3&#45;&gt;Node5</title>
<path fill="none" stroke="midnightblue" d="M463.289,-57.6066C548.616,-45.9346 678.701,-28.14 750.949,-18.257"/>
<polygon fill="midnightblue" stroke="midnightblue" points="462.804,-54.1403 453.371,-58.9634 463.753,-61.0757 462.804,-54.1403"/>
</g>
<!-- Node7&#45;&gt;Node2 -->
<g id="edge16" class="edge"><title>Node7&#45;&gt;Node2</title>
<path fill="none" stroke="midnightblue" d="M765.184,-287.24C724.069,-270.979 659.485,-240.398 618,-196 601.682,-178.536 591.996,-151.518 587.684,-137.015"/>
<polygon fill="midnightblue" stroke="midnightblue" points="764.006,-290.537 774.596,-290.875 766.528,-284.007 764.006,-290.537"/>
</g>
<!-- Node7&#45;&gt;Node5 -->
<g id="edge48" class="edge"><title>Node7&#45;&gt;Node5</title>
<path fill="none" stroke="midnightblue" d="M817.124,-282.797C848.919,-238.271 928.391,-124.273 941,-80 943.678,-70.5962 946.682,-65.957 941,-58 930.222,-42.9085 886.384,-29.6048 851.16,-21.0388"/>
<polygon fill="midnightblue" stroke="midnightblue" points="814.25,-280.799 811.269,-290.965 819.94,-284.877 814.25,-280.799"/>
</g>
<!-- Node7&#45;&gt;Node8 -->
<g id="edge18" class="edge"><title>Node7&#45;&gt;Node8</title>
<path fill="none" stroke="midnightblue" d="M836.941,-286.952C861.39,-276.525 894.163,-262.548 916.126,-253.182"/>
<polygon fill="midnightblue" stroke="midnightblue" points="835.515,-283.755 827.689,-290.897 838.261,-290.194 835.515,-283.755"/>
</g>
<!-- Node11 -->
<g id="node25" class="node"><title>Node11</title>
<a xlink:href="framescheduler_8cpp.html" target="_top" xlink:title="This is the core object implementation for this algorithm.">
<polygon fill="white" stroke="black" points="831.5,-59 831.5,-79 932.5,-79 932.5,-59 831.5,-59"/>
<text text-anchor="middle" x="882" y="-66" font-family="FreeSans" font-size="10.00">framescheduler.cpp</text>
</a>
</g>
<!-- Node7&#45;&gt;Node11 -->
<g id="edge52" class="edge"><title>Node7&#45;&gt;Node11</title>
<path fill="none" stroke="midnightblue" d="M805.995,-280.594C807.656,-266.716 810.493,-248.033 815,-232 831.891,-171.913 864.408,-104.083 876.921,-79.0064"/>
<polygon fill="midnightblue" stroke="midnightblue" points="802.514,-280.23 804.905,-290.551 809.472,-280.992 802.514,-280.23"/>
</g>
<!-- Node12 -->
<g id="node27" class="node"><title>Node12</title>
<a xlink:href="frameschedulerworkunits_8cpp.html" target="_top" xlink:title="The implementation of any workunits the framescheduler needs to work correctly.">
<polygon fill="white" stroke="black" points="103.5,-59 103.5,-79 244.5,-79 244.5,-59 103.5,-59"/>
<text text-anchor="middle" x="174" y="-66" font-family="FreeSans" font-size="10.00">frameschedulerworkunits.cpp</text>
</a>
</g>
<!-- Node7&#45;&gt;Node12 -->
<g id="edge54" class="edge"><title>Node7&#45;&gt;Node12</title>
<path fill="none" stroke="midnightblue" d="M761.193,-287.884C731.986,-278.773 692.491,-266.134 658,-254 480.432,-191.534 269.779,-107.584 198.762,-79.0058"/>
<polygon fill="midnightblue" stroke="midnightblue" points="760.482,-291.328 771.07,-290.953 762.559,-284.643 760.482,-291.328"/>
</g>
<!-- Node7&#45;&gt;Node13 -->
<g id="edge50" class="edge"><title>Node7&#45;&gt;Node13</title>
<path fill="none" stroke="midnightblue" d="M792.147,-282.181C787.11,-273.749 781.399,-263.566 777,-254 757.651,-211.92 741.313,-158.96 734.903,-137.123"/>
<polygon fill="midnightblue" stroke="midnightblue" points="789.235,-284.129 797.44,-290.832 795.206,-280.476 789.235,-284.129"/>
</g>
<!-- Node15 -->
<g id="node36" class="node"><title>Node15</title>
<a xlink:href="workunit_8cpp.html" target="_top" xlink:title="This file has the implementation of the Mezzanine::Threading::DefaultWorkUnit.">
<polygon fill="white" stroke="black" points="1063.5,-117 1063.5,-137 1134.5,-137 1134.5,-117 1063.5,-117"/>
<text text-anchor="middle" x="1099" y="-124" font-family="FreeSans" font-size="10.00">workunit.cpp</text>
</a>
</g>
<!-- Node7&#45;&gt;Node15 -->
<g id="edge56" class="edge"><title>Node7&#45;&gt;Node15</title>
<path fill="none" stroke="midnightblue" d="M822.015,-283.625C837.992,-268.775 862.391,-247.426 886,-232 949.851,-190.28 1032.65,-154.024 1073.67,-137.123"/>
<polygon fill="midnightblue" stroke="midnightblue" points="819.352,-281.325 814.477,-290.732 824.154,-286.418 819.352,-281.325"/>
</g>
<!-- Node8&#45;&gt;Node5 -->
<g id="edge44" class="edge"><title>Node8&#45;&gt;Node5</title>
<path fill="none" stroke="midnightblue" d="M951.87,-224.402C973.183,-188.406 1012.31,-108.333 974,-58 959.767,-39.2983 901.482,-26.126 857.091,-18.5761"/>
<polygon fill="midnightblue" stroke="midnightblue" points="948.878,-222.585 946.651,-232.943 954.851,-226.235 948.878,-222.585"/>
</g>
<!-- Node8&#45;&gt;Node9 -->
<g id="edge20" class="edge"><title>Node8&#45;&gt;Node9</title>
<path fill="none" stroke="midnightblue" d="M884.939,-231.715C825.889,-219.613 734.284,-200.839 687.202,-191.19"/>
<polygon fill="midnightblue" stroke="midnightblue" points="884.346,-235.167 894.845,-233.746 885.751,-228.309 884.346,-235.167"/>
</g>
<!-- Node8&#45;&gt;Node11 -->
<g id="edge46" class="edge"><title>Node8&#45;&gt;Node11</title>
<path fill="none" stroke="midnightblue" d="M933.402,-223.205C921.022,-186.066 894.72,-107.159 885.378,-79.135"/>
<polygon fill="midnightblue" stroke="midnightblue" points="930.148,-224.513 936.631,-232.893 936.789,-222.299 930.148,-224.513"/>
</g>
<!-- Node9&#45;&gt;Node2 -->
<g id="edge22" class="edge"><title>Node9&#45;&gt;Node2</title>
<path fill="none" stroke="midnightblue" d="M636.442,-168.44C624.028,-158.439 608.591,-146.004 597.883,-137.378"/>
<polygon fill="midnightblue" stroke="midnightblue" points="634.475,-171.349 644.459,-174.897 638.867,-165.898 634.475,-171.349"/>
</g>
<!-- Node9&#45;&gt;Node5 -->
<g id="edge40" class="edge"><title>Node9&#45;&gt;Node5</title>
<path fill="none" stroke="midnightblue" d="M657.119,-164.708C658.345,-137.284 664.439,-88.3386 691,-58 707.305,-39.3759 732.172,-27.9691 754.431,-21.0678"/>
<polygon fill="midnightblue" stroke="midnightblue" points="653.62,-164.622 656.849,-174.713 660.618,-164.811 653.62,-164.622"/>
</g>
<!-- Node9&#45;&gt;Node10 -->
<g id="edge24" class="edge"><title>Node9&#45;&gt;Node10</title>
<path fill="none" stroke="midnightblue" d="M617.037,-174.169C577.823,-163.541 518.493,-147.461 480.243,-137.094"/>
<polygon fill="midnightblue" stroke="midnightblue" points="616.226,-177.575 626.793,-176.813 618.057,-170.819 616.226,-177.575"/>
</g>
<!-- Node9&#45;&gt;Node13 -->
<g id="edge32" class="edge"><title>Node9&#45;&gt;Node13</title>
<path fill="none" stroke="midnightblue" d="M678.095,-168.687C691.178,-158.569 707.579,-145.885 718.834,-137.182"/>
<polygon fill="midnightblue" stroke="midnightblue" points="675.833,-166.011 670.064,-174.897 680.116,-171.548 675.833,-166.011"/>
</g>
<!-- Node9&#45;&gt;Node15 -->
<g id="edge42" class="edge"><title>Node9&#45;&gt;Node15</title>
<path fill="none" stroke="midnightblue" d="M697.136,-179.733C782.756,-168.498 982.134,-142.335 1063.48,-131.661"/>
<polygon fill="midnightblue" stroke="midnightblue" points="696.493,-176.288 687.033,-181.059 697.403,-183.228 696.493,-176.288"/>
</g>
<!-- Node10&#45;&gt;Node5 -->
<g id="edge26" class="edge"><title>Node10&#45;&gt;Node5</title>
<path fill="none" stroke="midnightblue" d="M377.491,-114.772C341.39,-106.557 301.752,-94.5793 291,-80 285.196,-72.1308 284.409,-65.2224 291,-58 321.558,-24.5146 625.493,-14.5887 750.612,-11.9082"/>
<polygon fill="midnightblue" stroke="midnightblue" points="377.033,-118.255 387.552,-116.988 378.539,-111.419 377.033,-118.255"/>
</g>
<!-- Node10&#45;&gt;Node11 -->
<g id="edge28" class="edge"><title>Node10&#45;&gt;Node11</title>
<path fill="none" stroke="midnightblue" d="M519.014,-115.738C636.591,-99.5113 762.988,-83.6502 831.476,-75.1897"/>
<polygon fill="midnightblue" stroke="midnightblue" points="518.184,-112.319 508.758,-117.157 519.143,-119.253 518.184,-112.319"/>
</g>
<!-- Node10&#45;&gt;Node12 -->
<g id="edge30" class="edge"><title>Node10&#45;&gt;Node12</title>
<path fill="none" stroke="midnightblue" d="M386.579,-114.835C337.265,-104.202 266.53,-88.9508 220.429,-79.0108"/>
<polygon fill="midnightblue" stroke="midnightblue" points="385.938,-118.277 396.451,-116.963 387.413,-111.434 385.938,-118.277"/>
</g>
<!-- Node13&#45;&gt;Node5 -->
<g id="edge34" class="edge"><title>Node13&#45;&gt;Node5</title>
<path fill="none" stroke="midnightblue" d="M755.972,-110.658C766.255,-102.534 777.584,-91.9072 785,-80 796.692,-61.2267 801.311,-35.2013 803.04,-21.0849"/>
<polygon fill="midnightblue" stroke="midnightblue" points="753.592,-108.068 747.689,-116.866 757.79,-113.669 753.592,-108.068"/>
</g>
<!-- Node13&#45;&gt;Node11 -->
<g id="edge36" class="edge"><title>Node13&#45;&gt;Node11</title>
<path fill="none" stroke="midnightblue" d="M767.649,-113.216C794.778,-102.726 831.491,-88.5302 855.92,-79.0842"/>
<polygon fill="midnightblue" stroke="midnightblue" points="766.193,-110.026 758.128,-116.897 768.717,-116.555 766.193,-110.026"/>
</g>
<!-- Node14 -->
<g id="node33" class="node"><title>Node14</title>
<a xlink:href="monopoly_8cpp.html" target="_top" xlink:title="Contains the minimal implementation for the monopoly base class.">
<polygon fill="white" stroke="black" points="700,-59 700,-79 776,-79 776,-59 700,-59"/>
<text text-anchor="middle" x="738" y="-66" font-family="FreeSans" font-size="10.00">monopoly.cpp</text>
</a>
</g>
<!-- Node13&#45;&gt;Node14 -->
<g id="edge38" class="edge"><title>Node13&#45;&gt;Node14</title>
<path fill="none" stroke="midnightblue" d="M734.08,-106.89C735.039,-97.6201 736.137,-87.0083 736.926,-79.3776"/>
<polygon fill="midnightblue" stroke="midnightblue" points="730.593,-106.59 733.045,-116.897 737.556,-107.31 730.593,-106.59"/>
</g>
<!-- Node16&#45;&gt;Node5 -->
<g id="edge74" class="edge"><title>Node16&#45;&gt;Node5</title>
<path fill="none" stroke="midnightblue" d="M1371.33,-345.581C1431.82,-324.215 1539,-280.992 1539,-243 1539,-243 1539,-243 1539,-127 1539,-111.514 1728.31,-142.529 1370,-58 1273.43,-35.2184 978.904,-19.2093 857.341,-13.4037"/>
<polygon fill="midnightblue" stroke="midnightblue" points="1369.98,-342.345 1361.69,-348.941 1372.29,-348.955 1369.98,-342.345"/>
</g>
<!-- Node16&#45;&gt;Node8 -->
<g id="edge76" class="edge"><title>Node16&#45;&gt;Node8</title>
<path fill="none" stroke="midnightblue" d="M1287.38,-346.059C1208.76,-322.733 1044.87,-274.112 973.936,-253.068"/>
<polygon fill="midnightblue" stroke="midnightblue" points="1286.4,-349.42 1296.99,-348.909 1288.39,-342.709 1286.4,-349.42"/>
</g>
<!-- Node16&#45;&gt;Node15 -->
<g id="edge80" class="edge"><title>Node16&#45;&gt;Node15</title>
<path fill="none" stroke="midnightblue" d="M1355.49,-342.716C1365.46,-334.71 1376.03,-324.161 1382,-312 1397.69,-280.017 1403.46,-263.592 1387,-232 1366.2,-192.092 1345.13,-192.254 1304,-174 1247.76,-149.045 1176.74,-136.579 1134.77,-130.973"/>
<polygon fill="midnightblue" stroke="midnightblue" points="1353.25,-340.017 1347.36,-348.822 1357.46,-345.613 1353.25,-340.017"/>
</g>
<!-- Node17 -->
<g id="node49" class="node"><title>Node17</title>
<a xlink:href="thread_8h.html" target="_top" xlink:title="This file defines a minimalistic cross&#45;platform thread that the scheduler uses to schedule tasks...">
<polygon fill="white" stroke="black" points="1302.5,-291 1302.5,-311 1353.5,-311 1353.5,-291 1302.5,-291"/>
<text text-anchor="middle" x="1328" y="-298" font-family="FreeSans" font-size="10.00">thread.h</text>
</a>
</g>
<!-- Node16&#45;&gt;Node17 -->
<g id="edge64" class="edge"><title>Node16&#45;&gt;Node17</title>
<path fill="none" stroke="midnightblue" d="M1329.96,-338.89C1329.48,-329.62 1328.93,-319.008 1328.54,-311.378"/>
<polygon fill="midnightblue" stroke="midnightblue" points="1326.47,-339.091 1330.48,-348.897 1333.46,-338.73 1326.47,-339.091"/>
</g>
<!-- Node16&#45;&gt;Node19 -->
<g id="edge78" class="edge"><title>Node16&#45;&gt;Node19</title>
<path fill="none" stroke="midnightblue" d="M1378.14,-348.818C1379.44,-348.542 1380.73,-348.269 1382,-348 1446.38,-334.393 1521.12,-318.995 1566.72,-309.645"/>
<polygon fill="midnightblue" stroke="midnightblue" points="1377.09,-345.463 1368.04,-350.973 1378.55,-352.309 1377.09,-345.463"/>
</g>
<!-- Node17&#45;&gt;Node5 -->
<g id="edge68" class="edge"><title>Node17&#45;&gt;Node5</title>
<path fill="none" stroke="midnightblue" d="M1346.06,-283.552C1353.78,-275.236 1362.3,-264.764 1368,-254 1382.88,-225.889 1387,-216.808 1387,-185 1387,-185 1387,-185 1387,-127 1387,-73.2396 1000.74,-30.1428 857.024,-15.9684"/>
<polygon fill="midnightblue" stroke="midnightblue" points="1343.48,-281.189 1339.03,-290.805 1348.5,-286.063 1343.48,-281.189"/>
</g>
<!-- Node17&#45;&gt;Node8 -->
<g id="edge66" class="edge"><title>Node17&#45;&gt;Node8</title>
<path fill="none" stroke="midnightblue" d="M1292.62,-291.375C1290.38,-290.879 1288.17,-290.415 1286,-290 1157.58,-265.381 1123.05,-275.066 994,-254 991.073,-253.522 988.063,-252.999 985.033,-252.448"/>
<polygon fill="midnightblue" stroke="midnightblue" points="1291.82,-294.783 1302.36,-293.705 1293.45,-287.975 1291.82,-294.783"/>
</g>
<!-- Node17&#45;&gt;Node9 -->
<g id="edge72" class="edge"><title>Node17&#45;&gt;Node9</title>
<path fill="none" stroke="midnightblue" d="M1301.74,-285.986C1271.85,-269.679 1221.06,-244.314 1174,-232 1080.92,-207.643 783.507,-191.223 687.32,-186.442"/>
<polygon fill="midnightblue" stroke="midnightblue" points="1300.24,-289.154 1310.68,-290.935 1303.63,-283.029 1300.24,-289.154"/>
</g>
<!-- Node18 -->
<g id="node53" class="node"><title>Node18</title>
<a xlink:href="thread_8cpp.html" target="_top" xlink:title="This file implements a minimalistic cross&#45;platform thread that the scheduler uses to schedule tasks...">
<polygon fill="white" stroke="black" points="1297,-233 1297,-253 1359,-253 1359,-233 1297,-233"/>
<text text-anchor="middle" x="1328" y="-240" font-family="FreeSans" font-size="10.00">thread.cpp</text>
</a>
</g>
<!-- Node17&#45;&gt;Node18 -->
<g id="edge70" class="edge"><title>Node17&#45;&gt;Node18</title>
<path fill="none" stroke="midnightblue" d="M1328,-280.89C1328,-271.62 1328,-261.008 1328,-253.378"/>
<polygon fill="midnightblue" stroke="midnightblue" points="1324.5,-280.897 1328,-290.897 1331.5,-280.897 1324.5,-280.897"/>
</g>
<!-- Node21&#45;&gt;Node5 -->
<g id="edge94" class="edge"><title>Node21&#45;&gt;Node5</title>
<path fill="none" stroke="midnightblue" d="M1285.36,-346.632C1365.83,-327.871 1501,-289.442 1501,-243 1501,-243 1501,-243 1501,-127 1501,-61.7925 1020.18,-24.8818 857.247,-14.246"/>
<polygon fill="midnightblue" stroke="midnightblue" points="1284.32,-343.281 1275.35,-348.931 1285.88,-350.104 1284.32,-343.281"/>
</g>
<!-- Node21&#45;&gt;Node11 -->
<g id="edge96" class="edge"><title>Node21&#45;&gt;Node11</title>
<path fill="none" stroke="midnightblue" d="M1222.98,-339.041C1216.66,-311.999 1202.1,-263.493 1174,-232 1099.98,-149.04 973.305,-98.9854 914.172,-79.0288"/>
<polygon fill="midnightblue" stroke="midnightblue" points="1219.58,-339.875 1225.14,-348.895 1226.42,-338.377 1219.58,-339.875"/>
</g>
<!-- Node21&#45;&gt;Node15 -->
<g id="edge98" class="edge"><title>Node21&#45;&gt;Node15</title>
<path fill="none" stroke="midnightblue" d="M1281.65,-346.324C1314.37,-337.577 1351.57,-325.183 1362,-312 1384.13,-284.04 1388.11,-261.441 1368,-232 1340.68,-192.001 1201.32,-152.557 1134.64,-135.624"/>
<polygon fill="midnightblue" stroke="midnightblue" points="1280.47,-343.014 1271.68,-348.918 1282.24,-349.788 1280.47,-343.014"/>
</g>
<!-- Node21&#45;&gt;Node22 -->
<g id="edge86" class="edge"><title>Node21&#45;&gt;Node22</title>
<path fill="none" stroke="midnightblue" d="M1183.56,-345.945C1145.38,-334.472 1091.12,-318.165 1059.54,-308.674"/>
<polygon fill="midnightblue" stroke="midnightblue" points="1182.8,-349.371 1193.38,-348.897 1184.81,-342.667 1182.8,-349.371"/>
</g>
<!-- Node22&#45;&gt;Node5 -->
<g id="edge90" class="edge"><title>Node22&#45;&gt;Node5</title>
<path fill="none" stroke="midnightblue" d="M1069.51,-293.981C1106.77,-285.812 1161.62,-271.219 1174,-254 1192.54,-228.217 1240.95,-245.704 1161,-116 1136.22,-75.809 1115.92,-75.3187 1072,-58 1000.81,-29.9293 912.398,-18.5644 857.07,-14.0029"/>
<polygon fill="midnightblue" stroke="midnightblue" points="1068.57,-290.603 1059.52,-296.112 1070.03,-297.449 1068.57,-290.603"/>
</g>
<!-- Node22&#45;&gt;Node8 -->
<g id="edge92" class="edge"><title>Node22&#45;&gt;Node8</title>
<path fill="none" stroke="midnightblue" d="M1008.96,-285.547C992.343,-275.297 971.01,-262.134 956.501,-253.182"/>
<polygon fill="midnightblue" stroke="midnightblue" points="1007.28,-288.625 1017.63,-290.897 1010.95,-282.667 1007.28,-288.625"/>
</g>
<!-- Node23 -->
<g id="node67" class="node"><title>Node23</title>
<a xlink:href="barrier_8cpp.html" target="_top" xlink:title="Contains the implementation for the Mezzanine::Threading::Barrier Barrier synchronization object...">
<polygon fill="white" stroke="black" points="1003,-233 1003,-253 1065,-253 1065,-233 1003,-233"/>
<text text-anchor="middle" x="1034" y="-240" font-family="FreeSans" font-size="10.00">barrier.cpp</text>
</a>
</g>
<!-- Node22&#45;&gt;Node23 -->
<g id="edge88" class="edge"><title>Node22&#45;&gt;Node23</title>
<path fill="none" stroke="midnightblue" d="M1034,-280.89C1034,-271.62 1034,-261.008 1034,-253.378"/>
<polygon fill="midnightblue" stroke="midnightblue" points="1030.5,-280.897 1034,-290.897 1037.5,-280.897 1030.5,-280.897"/>
</g>
<!-- Node24&#45;&gt;Node5 -->
<g id="edge110" class="edge"><title>Node24&#45;&gt;Node5</title>
<path fill="none" stroke="midnightblue" d="M443.092,-298.868C326.599,-292.381 38,-267.942 38,-185 38,-185 38,-185 38,-127 38,-91.328 48.583,-76.636 79,-58 107.568,-40.4967 588.255,-19.6672 750.789,-13.0938"/>
<polygon fill="midnightblue" stroke="midnightblue" points="442.984,-302.367 453.157,-299.407 443.358,-295.377 442.984,-302.367"/>
</g>
<!-- Node24&#45;&gt;Node8 -->
<g id="edge112" class="edge"><title>Node24&#45;&gt;Node8</title>
<path fill="none" stroke="midnightblue" d="M538.635,-294.847C625.7,-283.6 809.401,-259.87 894.703,-248.851"/>
<polygon fill="midnightblue" stroke="midnightblue" points="537.978,-291.402 528.509,-296.155 538.875,-298.345 537.978,-291.402"/>
</g>
<!-- Node24&#45;&gt;Node9 -->
<g id="edge114" class="edge"><title>Node24&#45;&gt;Node9</title>
<path fill="none" stroke="midnightblue" d="M513.983,-284.939C548.716,-260.668 613.585,-215.339 642.474,-195.151"/>
<polygon fill="midnightblue" stroke="midnightblue" points="511.633,-282.312 505.441,-290.909 515.643,-288.05 511.633,-282.312"/>
</g>
<!-- Node24&#45;&gt;Node10 -->
<g id="edge108" class="edge"><title>Node24&#45;&gt;Node10</title>
<path fill="none" stroke="midnightblue" d="M485.539,-281.205C475.294,-244.066 453.527,-165.159 445.796,-137.135"/>
<polygon fill="midnightblue" stroke="midnightblue" points="482.179,-282.184 488.212,-290.893 488.926,-280.322 482.179,-282.184"/>
</g>
<!-- Node25 -->
<g id="node83" class="node"><title>Node25</title>
<a xlink:href="workunitkey_8cpp.html" target="_top" xlink:title="This file declares the functionality of the metadata used to sort the iWorkUnits.">
<polygon fill="white" stroke="black" points="371,-233 371,-253 457,-253 457,-233 371,-233"/>
<text text-anchor="middle" x="414" y="-240" font-family="FreeSans" font-size="10.00">workunitkey.cpp</text>
</a>
</g>
<!-- Node24&#45;&gt;Node25 -->
<g id="edge116" class="edge"><title>Node24&#45;&gt;Node25</title>
<path fill="none" stroke="midnightblue" d="M469.343,-284.687C455.91,-274.569 439.072,-261.885 427.517,-253.182"/>
<polygon fill="midnightblue" stroke="midnightblue" points="467.494,-287.676 477.588,-290.897 471.706,-282.085 467.494,-287.676"/>
</g>
<!-- Node26&#45;&gt;Node5 -->
<g id="edge122" class="edge"><title>Node26&#45;&gt;Node5</title>
<path fill="none" stroke="midnightblue" d="M1134.61,-223.635C1147.62,-196.987 1165.35,-148.611 1143,-116 1110.38,-68.4206 944.113,-34.2684 857.159,-19.3564"/>
<polygon fill="midnightblue" stroke="midnightblue" points="1131.41,-222.213 1129.95,-232.707 1137.63,-225.412 1131.41,-222.213"/>
</g>
<!-- Node26&#45;&gt;Node9 -->
<g id="edge124" class="edge"><title>Node26&#45;&gt;Node9</title>
<path fill="none" stroke="midnightblue" d="M1072.03,-231.796C922.317,-207.443 754.613,-192.719 687.239,-187.319"/>
<polygon fill="midnightblue" stroke="midnightblue" points="1071.89,-235.319 1082.32,-233.49 1073.02,-228.412 1071.89,-235.319"/>
</g>
<!-- Node27&#45;&gt;Node5 -->
<g id="edge128" class="edge"><title>Node27&#45;&gt;Node5</title>
<path fill="none" stroke="midnightblue" d="M256.06,-229.09C183.508,-199.125 31.6406,-125.699 95,-58 117.364,-34.1039 590.017,-17.5241 750.915,-12.5552"/>
<polygon fill="midnightblue" stroke="midnightblue" points="254.745,-232.333 265.326,-232.859 257.382,-225.849 254.745,-232.333"/>
</g>
<!-- Node27&#45;&gt;Node9 -->
<g id="edge130" class="edge"><title>Node27&#45;&gt;Node9</title>
<path fill="none" stroke="midnightblue" d="M363.104,-231.701C443.18,-218.977 569.596,-198.889 626.939,-189.777"/>
<polygon fill="midnightblue" stroke="midnightblue" points="362.42,-228.266 353.093,-233.292 363.518,-235.179 362.42,-228.266"/>
</g>
</g>
</svg>
        <g id="navigator" transform="translate(0 0)" fill="#404254">
                <rect fill="#f2f5e9" fill-opacity="0.5" stroke="#606060" stroke-width=".5" x="0" y="0" width="60" height="60"/>
                <use id="zoomplus" xlink:href="#zoomPlus" x="17" y="9" onmousedown="handleZoom(evt,'in')"/>
                <use id="zoomminus" xlink:href="#zoomMin" x="42" y="9" onmousedown="handleZoom(evt,'out')"/>
                <use id="reset" xlink:href="#resetDef" x="30" y="36" onmousedown="handleReset()"/>
                <g id="arrowUp" xlink:href="#dirArrow" transform="translate(30 24)" onmousedown="handlePan(0,-1)">
                  <use xlink:href="#rim" fill="#404040">
                        <set attributeName="fill" to="#808080" begin="arrowUp.mouseover" end="arrowUp.mouseout"/>
                  </use>
                  <path fill="none" stroke="white" stroke-width="1.5" d="M0,-3.0v7 M-2.5,-0.5L0,-3.0L2.5,-0.5"/>
                </g>
                <g id="arrowRight" xlink:href="#dirArrow" transform="rotate(90) translate(36 -43)" onmousedown="handlePan(1,0)">
                  <use xlink:href="#rim" fill="#404040">
                        <set attributeName="fill" to="#808080" begin="arrowRight.mouseover" end="arrowRight.mouseout"/>
                  </use>
                  <path fill="none" stroke="white" stroke-width="1.5" d="M0,-3.0v7 M-2.5,-0.5L0,-3.0L2.5,-0.5"/>
                </g>
                <g id="arrowDown" xlink:href="#dirArrow" transform="rotate(180) translate(-30 -48)" onmousedown="handlePan(0,1)">
                  <use xlink:href="#rim" fill="#404040">
                        <set attributeName="fill" to="#808080" begin="arrowDown.mouseover" end="arrowDown.mouseout"/>
                  </use>
                  <path fill="none" stroke="white" stroke-width="1.5" d="M0,-3.0v7 M-2.5,-0.5L0,-3.0L2.5,-0.5"/>
                </g>
                <g id="arrowLeft" xlink:href="#dirArrow" transform="rotate(270) translate(-36 17)" onmousedown="handlePan(-1,0)">
                  <use xlink:href="#rim" fill="#404040">
                        <set attributeName="fill" to="#808080" begin="arrowLeft.mouseover" end="arrowLeft.mouseout"/>
                  </use>
                  <path fill="none" stroke="white" stroke-width="1.5" d="M0,-3.0v7 M-2.5,-0.5L0,-3.0L2.5,-0.5"/>
                </g>
        </g>
        <svg viewBox="0 0 15 15" width="100%" height="30px" preserveAspectRatio="xMaxYMin meet">
         <g id="arrow_out" transform="scale(0.3 0.3)">
          <a xlink:href="datatypes_8h__dep__incl_org.svg" target="_base">
           <rect id="button" ry="5" rx="5" y="6" x="6" height="38" width="38"
                fill="#f2f5e9" fill-opacity="0.5" stroke="#606060" stroke-width="1.0"/>
           <path id="arrow"
             d="M 11.500037,31.436501 C 11.940474,20.09759 22.043105,11.32322 32.158766,21.979434 L 37.068811,17.246167 C 37.068811,17.246167 37.088388,32 37.088388,32 L 22.160133,31.978069 C 22.160133,31.978069 26.997745,27.140456 26.997745,27.140456 C 18.528582,18.264221 13.291696,25.230495 11.500037,31.436501 z"
             style="fill:#404040;"/>
          </a>
         </g>
        </svg>
</svg>
