<?xml version="1.0" encoding="UTF-8" standalone="no"?>
<!DOCTYPE svg PUBLIC "-//W3C//DTD SVG 1.1//EN"
 "http://www.w3.org/Graphics/SVG/1.1/DTD/svg11.dtd">
<!-- Generated by graphviz version 2.26.3 (20100126.1600)
 -->
<!-- Title: G Pages: 1 -->
<!--zoomable 392 -->
<svg id="main" version="1.1" xmlns="http://www.w3.org/2000/svg" xmlns:xlink="http://www.w3.org/1999/xlink" xml:space="preserve" onload="init(evt)">
        <defs>
                <circle id="rim" cx="0" cy="0" r="7"/>
                <circle id="rim2" cx="0" cy="0" r="3.5"/>
                <g id="zoomPlus">
                        <use xlink:href="#rim" fill="#404040">
                                <set attributeName="fill" to="#808080" begin="zoomplus.mouseover" end="zoomplus.mouseout"/>
                        </use>
                        <path d="M-4,0h8M0,-4v8" fill="none" stroke="white" stroke-width="1.5" pointer-events="none"/>
                </g>
                <g id="zoomMin">
                        <use xlink:href="#rim" fill="#404040">
                                <set attributeName="fill" to="#808080" begin="zoomminus.mouseover" end="zoomminus.mouseout"/>
                        </use>
                        <path d="M-4,0h8" fill="none" stroke="white" stroke-width="1.5" pointer-events="none"/>
                </g>
                <g id="dirArrow">
                        <path fill="none" stroke="white" stroke-width="1.5" d="M0,-3.0v7 M-2.5,-0.5L0,-3.0L2.5,-0.5"/>
                </g>
               <g id="resetDef">
                       <use xlink:href="#rim2" fill="#404040">
                               <set attributeName="fill" to="#808080" begin="reset.mouseover" end="reset.mouseout"/>
                       </use>
               </g>
        </defs>

<script type="text/javascript">
var viewWidth = 1180;
var viewHeight = 392;
var sectionId = 'dynsection-1';
</script>
<script xlink:href="svgpan.js"/>
<svg id="graph" class="graph">
<g id="viewport">
<title>G</title>
<polygon fill="white" stroke="white" points="-4,5 -4,-388 1177,-388 1177,5 -4,5"/>
<!-- Node1 -->
<g id="node1" class="node"><title>Node1</title>
<polygon fill="#bfbfbf" stroke="black" points="679,-361 679,-383 747,-383 747,-361 679,-361"/>
<text text-anchor="middle" x="713" y="-370" font-family="FreeSans" font-size="10.00">datatypes.h</text>
</g>
<!-- Node2 -->
<g id="node3" class="node"><title>Node2</title>
<a xlink:href="monopoly_8h.html" target="_top" xlink:title="Contains an interface for a kind of WorkUnit that consumes time on multiple thread.">
<polygon fill="white" stroke="black" points="174,-61 174,-83 242,-83 242,-61 174,-61"/>
<text text-anchor="middle" x="208" y="-70" font-family="FreeSans" font-size="10.00">monopoly.h</text>
</a>
</g>
<!-- Node1&#45;&gt;Node2 -->
<g id="edge2" class="edge"><title>Node1&#45;&gt;Node2</title>
<path fill="none" stroke="midnightblue" d="M668.674,-370.637C575.756,-367.173 363.886,-355.921 300,-324 208.549,-278.307 206.286,-125.707 207.5,-83.1209"/>
<polygon fill="midnightblue" stroke="midnightblue" points="668.753,-374.142 678.872,-371.003 669.004,-367.146 668.753,-374.142"/>
</g>
<!-- Node4 -->
<g id="node7" class="node"><title>Node4</title>
<a xlink:href="dagframescheduler_8h.html" target="_top" xlink:title="This is the file that code using this library should include. It includes all the required components...">
<polygon fill="white" stroke="black" points="534,-1 534,-23 646,-23 646,-1 534,-1"/>
<text text-anchor="middle" x="590" y="-10" font-family="FreeSans" font-size="10.00">dagframescheduler.h</text>
</a>
</g>
<!-- Node1&#45;&gt;Node4 -->
<g id="edge80" class="edge"><title>Node1&#45;&gt;Node4</title>
<path fill="none" stroke="midnightblue" d="M757.354,-369.843C872.491,-363.042 1172,-337.164 1172,-252 1172,-252 1172,-252 1172,-132 1172,-60.8431 1097.23,-80.1888 1029,-60 958.606,-39.1716 747.875,-22.6449 646.155,-15.6392"/>
<polygon fill="midnightblue" stroke="midnightblue" points="756.909,-366.363 747.125,-370.426 757.307,-373.351 756.909,-366.363"/>
</g>
<!-- Node7 -->
<g id="node13" class="node"><title>Node7</title>
<a xlink:href="doublebufferedresource_8h.html" target="_top" xlink:title="This file defines the template double buffered resources that can be attached to a thread...">
<polygon fill="white" stroke="black" points="265.5,-241 265.5,-263 396.5,-263 396.5,-241 265.5,-241"/>
<text text-anchor="middle" x="331" y="-250" font-family="FreeSans" font-size="10.00">doublebufferedresource.h</text>
</a>
</g>
<!-- Node1&#45;&gt;Node7 -->
<g id="edge12" class="edge"><title>Node1&#45;&gt;Node7</title>
<path fill="none" stroke="midnightblue" d="M668.809,-367.793C597.408,-360.508 460.202,-344.353 416,-324 384.204,-309.36 354.879,-279.429 340.425,-263.149"/>
<polygon fill="midnightblue" stroke="midnightblue" points="668.547,-371.284 678.848,-368.802 669.248,-364.319 668.547,-371.284"/>
</g>
<!-- Node8 -->
<g id="node16" class="node"><title>Node8</title>
<a xlink:href="framescheduler_8h.html" target="_top" xlink:title="This file has the Declarations for the main FrameScheduler class.">
<polygon fill="white" stroke="black" points="378,-181 378,-203 472,-203 472,-181 378,-181"/>
<text text-anchor="middle" x="425" y="-190" font-family="FreeSans" font-size="10.00">framescheduler.h</text>
</a>
</g>
<!-- Node1&#45;&gt;Node8 -->
<g id="edge52" class="edge"><title>Node1&#45;&gt;Node8</title>
<path fill="none" stroke="midnightblue" d="M668.716,-363.782C612.778,-351.292 516.642,-322.519 457,-264 439.62,-246.947 430.938,-218.799 427.261,-203.23"/>
<polygon fill="midnightblue" stroke="midnightblue" points="668.162,-367.243 678.675,-365.928 669.637,-360.4 668.162,-367.243"/>
</g>
<!-- Node9 -->
<g id="node18" class="node"><title>Node9</title>
<a xlink:href="workunit_8h.html" target="_top" xlink:title="This file has the defintion of the workunit.">
<polygon fill="white" stroke="black" points="624.5,-121 624.5,-143 685.5,-143 685.5,-121 624.5,-121"/>
<text text-anchor="middle" x="655" y="-130" font-family="FreeSans" font-size="10.00">workunit.h</text>
</a>
</g>
<!-- Node1&#45;&gt;Node9 -->
<g id="edge50" class="edge"><title>Node1&#45;&gt;Node9</title>
<path fill="none" stroke="midnightblue" d="M707.895,-350.877C696,-301.655 666.762,-180.672 657.714,-143.229"/>
<polygon fill="midnightblue" stroke="midnightblue" points="704.529,-351.848 710.28,-360.746 711.333,-350.204 704.529,-351.848"/>
</g>
<!-- Node10 -->
<g id="node21" class="node"><title>Node10</title>
<a xlink:href="asynchronousworkunit_8h.html" target="_top" xlink:title="Contains an interface for a kind of WorkUnit that loads or writes a.">
<polygon fill="white" stroke="black" points="605.5,-61 605.5,-83 728.5,-83 728.5,-61 605.5,-61"/>
<text text-anchor="middle" x="667" y="-70" font-family="FreeSans" font-size="10.00">asynchronousworkunit.h</text>
</a>
</g>
<!-- Node1&#45;&gt;Node10 -->
<g id="edge74" class="edge"><title>Node1&#45;&gt;Node10</title>
<path fill="none" stroke="midnightblue" d="M729.204,-352.918C736.552,-344.173 745.3,-333.631 753,-324 763.491,-310.877 839.603,-219.91 845,-204 848.427,-193.899 850.233,-189.295 845,-180 815.389,-127.398 748.662,-97.4654 705.846,-83.0108"/>
<polygon fill="midnightblue" stroke="midnightblue" points="726.443,-350.764 722.669,-360.663 731.793,-355.278 726.443,-350.764"/>
</g>
<!-- Node11 -->
<g id="node24" class="node"><title>Node11</title>
<a xlink:href="frameschedulerworkunits_8h.html" target="_top" xlink:title="This defines a number of workunits that are required for doing some tasks that the Framescheduler req...">
<polygon fill="white" stroke="black" points="260,-61 260,-83 396,-83 396,-61 260,-61"/>
<text text-anchor="middle" x="328" y="-70" font-family="FreeSans" font-size="10.00">frameschedulerworkunits.h</text>
</a>
</g>
<!-- Node1&#45;&gt;Node11 -->
<g id="edge82" class="edge"><title>Node1&#45;&gt;Node11</title>
<path fill="none" stroke="midnightblue" d="M668.768,-369.127C562.882,-361.151 300.397,-334.481 257,-264 218.242,-201.053 289.337,-113.645 317.36,-83.0798"/>
<polygon fill="midnightblue" stroke="midnightblue" points="668.582,-372.623 678.811,-369.863 669.094,-365.642 668.582,-372.623"/>
</g>
<!-- Node14 -->
<g id="node41" class="node"><title>Node14</title>
<a xlink:href="systemcalls_8h.html" target="_top" xlink:title="This file defines a minimalistic cross&#45;platform thread that the scheduler uses to schedule tasks...">
<polygon fill="white" stroke="black" points="906.5,-301 906.5,-323 983.5,-323 983.5,-301 906.5,-301"/>
<text text-anchor="middle" x="945" y="-310" font-family="FreeSans" font-size="10.00">systemcalls.h</text>
</a>
</g>
<!-- Node1&#45;&gt;Node14 -->
<g id="edge54" class="edge"><title>Node1&#45;&gt;Node14</title>
<path fill="none" stroke="midnightblue" d="M757.158,-360.58C800.279,-349.428 865.245,-332.626 906.368,-321.991"/>
<polygon fill="midnightblue" stroke="midnightblue" points="756.038,-357.254 747.232,-363.147 757.79,-364.031 756.038,-357.254"/>
</g>
<!-- Node17 -->
<g id="node52" class="node"><title>Node17</title>
<a xlink:href="systemcalls_8cpp.html" target="_top" xlink:title="This file defines some time&#45;tracking functions.">
<polygon fill="white" stroke="black" points="832,-241 832,-263 920,-263 920,-241 832,-241"/>
<text text-anchor="middle" x="876" y="-250" font-family="FreeSans" font-size="10.00">systemcalls.cpp</text>
</a>
</g>
<!-- Node1&#45;&gt;Node17 -->
<g id="edge100" class="edge"><title>Node1&#45;&gt;Node17</title>
<path fill="none" stroke="midnightblue" d="M756.827,-357.262C776.701,-349.299 799.776,-338.165 818,-324 840.558,-306.466 859.787,-278.506 869.41,-263.096"/>
<polygon fill="midnightblue" stroke="midnightblue" points="755.431,-354.05 747.363,-360.917 757.952,-360.58 755.431,-354.05"/>
</g>
<!-- Node18 -->
<g id="node56" class="node"><title>Node18</title>
<a xlink:href="atomiccas_8h.html" target="_top" xlink:title="Simple thread safe ways to check and change a specified variable atomically.">
<polygon fill="white" stroke="black" points="967.5,-121 967.5,-143 1038.5,-143 1038.5,-121 967.5,-121"/>
<text text-anchor="middle" x="1003" y="-130" font-family="FreeSans" font-size="10.00">atomiccas.h</text>
</a>
</g>
<!-- Node1&#45;&gt;Node18 -->
<g id="edge76" class="edge"><title>Node1&#45;&gt;Node18</title>
<path fill="none" stroke="midnightblue" d="M757.272,-369.513C826.577,-364.79 956.455,-352.346 992,-324 1042.91,-283.402 1029.43,-244.274 1019,-180 1016.89,-166.994 1011.76,-152.75 1007.87,-143.184"/>
<polygon fill="midnightblue" stroke="midnightblue" points="756.848,-366.033 747.099,-370.18 757.307,-373.018 756.848,-366.033"/>
</g>
<!-- Node19 -->
<g id="node61" class="node"><title>Node19</title>
<a xlink:href="rollingaverage_8h.html" target="_top" xlink:title="This Store the implementation and the declaration of the RollingAverage, BufferedRollingAverage, WeightedRollingAverage and the DefaultRollingAverage.">
<polygon fill="white" stroke="black" points="747.5,-181 747.5,-203 836.5,-203 836.5,-181 747.5,-181"/>
<text text-anchor="middle" x="792" y="-190" font-family="FreeSans" font-size="10.00">rollingaverage.h</text>
</a>
</g>
<!-- Node1&#45;&gt;Node19 -->
<g id="edge84" class="edge"><title>Node1&#45;&gt;Node19</title>
<path fill="none" stroke="midnightblue" d="M722.154,-351.142C738.936,-312.905 774.094,-232.798 787.06,-203.256"/>
<polygon fill="midnightblue" stroke="midnightblue" points="718.756,-350.177 717.942,-360.74 725.166,-352.99 718.756,-350.177"/>
</g>
<!-- Node20 -->
<g id="node65" class="node"><title>Node20</title>
<a xlink:href="workunitkey_8h.html" target="_top" xlink:title="This file defines the metadata used to sort workunits.">
<polygon fill="white" stroke="black" points="499.5,-241 499.5,-263 576.5,-263 576.5,-241 499.5,-241"/>
<text text-anchor="middle" x="538" y="-250" font-family="FreeSans" font-size="10.00">workunitkey.h</text>
</a>
</g>
<!-- Node1&#45;&gt;Node20 -->
<g id="edge90" class="edge"><title>Node1&#45;&gt;Node20</title>
<path fill="none" stroke="midnightblue" d="M688.294,-355.059C651.883,-330.091 584.814,-284.101 554.111,-263.047"/>
<polygon fill="midnightblue" stroke="midnightblue" points="686.623,-358.157 696.85,-360.926 690.582,-352.384 686.623,-358.157"/>
</g>
<!-- Node3 -->
<g id="node5" class="node"><title>Node3</title>
<a xlink:href="asynchronousworkunit_8cpp.html" target="_top" xlink:title="Contains the minimal implementation for the monopoly base class.">
<polygon fill="white" stroke="black" points="122,-1 122,-23 256,-23 256,-1 122,-1"/>
<text text-anchor="middle" x="189" y="-10" font-family="FreeSans" font-size="10.00">asynchronousworkunit.cpp</text>
</a>
</g>
<!-- Node2&#45;&gt;Node3 -->
<g id="edge4" class="edge"><title>Node2&#45;&gt;Node3</title>
<path fill="none" stroke="midnightblue" d="M201.42,-51.2204C198.458,-41.8686 195.078,-31.1926 192.592,-23.3428"/>
<polygon fill="midnightblue" stroke="midnightblue" points="198.159,-52.5183 204.515,-60.9951 204.833,-50.405 198.159,-52.5183"/>
</g>
<!-- Node2&#45;&gt;Node4 -->
<g id="edge6" class="edge"><title>Node2&#45;&gt;Node4</title>
<path fill="none" stroke="midnightblue" d="M252.181,-59.9654C373.109,-35.8197 406.877,-42.6506 525,-24 527.834,-23.5526 530.734,-23.0781 533.661,-22.5861"/>
<polygon fill="midnightblue" stroke="midnightblue" points="251.267,-56.5795 242.161,-61.9964 252.657,-63.44 251.267,-56.5795"/>
</g>
<!-- Node5 -->
<g id="node9" class="node"><title>Node5</title>
<a xlink:href="framescheduler_8cpp.html" target="_top" xlink:title="This is the core object implementation for this algorithm.">
<polygon fill="white" stroke="black" points="0,-1 0,-23 104,-23 104,-1 0,-1"/>
<text text-anchor="middle" x="52" y="-10" font-family="FreeSans" font-size="10.00">framescheduler.cpp</text>
</a>
</g>
<!-- Node2&#45;&gt;Node5 -->
<g id="edge8" class="edge"><title>Node2&#45;&gt;Node5</title>
<path fill="none" stroke="midnightblue" d="M169.698,-57.2685C142.194,-46.69 105.711,-32.658 80.6951,-23.0366"/>
<polygon fill="midnightblue" stroke="midnightblue" points="168.797,-60.6719 179.387,-60.9951 171.31,-54.1385 168.797,-60.6719"/>
</g>
<!-- Node6 -->
<g id="node11" class="node"><title>Node6</title>
<a xlink:href="monopoly_8cpp.html" target="_top" xlink:title="Contains the minimal implementation for the monopoly base class.">
<polygon fill="white" stroke="black" points="437.5,-1 437.5,-23 516.5,-23 516.5,-1 437.5,-1"/>
<text text-anchor="middle" x="477" y="-10" font-family="FreeSans" font-size="10.00">monopoly.cpp</text>
</a>
</g>
<!-- Node2&#45;&gt;Node6 -->
<g id="edge10" class="edge"><title>Node2&#45;&gt;Node6</title>
<path fill="none" stroke="midnightblue" d="M252.139,-59.8396C331.191,-41.1627 353.348,-41.0974 429,-24 431.765,-23.3751 434.615,-22.712 437.481,-22.0307"/>
<polygon fill="midnightblue" stroke="midnightblue" points="251.122,-56.484 242.209,-62.2119 252.749,-63.2924 251.122,-56.484"/>
</g>
<!-- Node7&#45;&gt;Node2 -->
<g id="edge14" class="edge"><title>Node7&#45;&gt;Node2</title>
<path fill="none" stroke="midnightblue" d="M317.626,-232.584C311.618,-223.852 304.445,-213.414 298,-204 267.445,-159.372 231.219,-106.143 215.69,-83.3106"/>
<polygon fill="midnightblue" stroke="midnightblue" points="314.833,-234.698 323.386,-240.951 320.599,-230.729 314.833,-234.698"/>
</g>
<!-- Node7&#45;&gt;Node4 -->
<g id="edge42" class="edge"><title>Node7&#45;&gt;Node4</title>
<path fill="none" stroke="midnightblue" d="M332.274,-230.581C333.902,-215.661 337.601,-195.701 346,-180 381.281,-114.045 401.388,-100.922 464,-60 489.767,-43.1592 522.309,-30.9545 547.866,-23.0666"/>
<polygon fill="midnightblue" stroke="midnightblue" points="328.76,-230.591 331.389,-240.855 335.734,-231.192 328.76,-230.591"/>
</g>
<!-- Node7&#45;&gt;Node5 -->
<g id="edge44" class="edge"><title>Node7&#45;&gt;Node5</title>
<path fill="none" stroke="midnightblue" d="M280.088,-237.856C257.137,-230.046 230.438,-218.869 209,-204 134.699,-152.466 76.6509,-56.2807 58.1888,-23.3781"/>
<polygon fill="midnightblue" stroke="midnightblue" points="279.075,-241.207 289.668,-240.998 281.257,-234.556 279.075,-241.207"/>
</g>
<!-- Node7&#45;&gt;Node8 -->
<g id="edge16" class="edge"><title>Node7&#45;&gt;Node8</title>
<path fill="none" stroke="midnightblue" d="M356.711,-235.589C372.863,-225.279 393.269,-212.254 407.55,-203.138"/>
<polygon fill="midnightblue" stroke="midnightblue" points="354.787,-232.664 348.241,-240.995 358.553,-238.565 354.787,-232.664"/>
</g>
<!-- Node7&#45;&gt;Node10 -->
<g id="edge40" class="edge"><title>Node7&#45;&gt;Node10</title>
<path fill="none" stroke="midnightblue" d="M337.298,-231.324C343.15,-215.311 353.348,-193.629 369,-180 436.957,-120.825 539.903,-93.1641 605.273,-80.913"/>
<polygon fill="midnightblue" stroke="midnightblue" points="333.952,-230.292 334.067,-240.886 340.584,-232.533 333.952,-230.292"/>
</g>
<!-- Node12 -->
<g id="node27" class="node"><title>Node12</title>
<a xlink:href="frameschedulerworkunits_8cpp.html" target="_top" xlink:title="The implementation of any workunits the framescheduler needs to work correctly.">
<polygon fill="white" stroke="black" points="274,-1 274,-23 420,-23 420,-1 274,-1"/>
<text text-anchor="middle" x="347" y="-10" font-family="FreeSans" font-size="10.00">frameschedulerworkunits.cpp</text>
</a>
</g>
<!-- Node7&#45;&gt;Node12 -->
<g id="edge46" class="edge"><title>Node7&#45;&gt;Node12</title>
<path fill="none" stroke="midnightblue" d="M298.727,-236.315C236.916,-204.201 112.433,-128.229 165,-60 172.928,-49.7104 241.216,-33.6861 291.827,-23.0199"/>
<polygon fill="midnightblue" stroke="midnightblue" points="297.22,-239.476 307.718,-240.907 300.404,-233.242 297.22,-239.476"/>
</g>
<!-- Node13 -->
<g id="node30" class="node"><title>Node13</title>
<a xlink:href="workunit_8cpp.html" target="_top" xlink:title="This file has the implementation of the workunit.">
<polygon fill="white" stroke="black" points="866.5,-61 866.5,-83 937.5,-83 937.5,-61 866.5,-61"/>
<text text-anchor="middle" x="902" y="-70" font-family="FreeSans" font-size="10.00">workunit.cpp</text>
</a>
</g>
<!-- Node7&#45;&gt;Node13 -->
<g id="edge48" class="edge"><title>Node7&#45;&gt;Node13</title>
<path fill="none" stroke="midnightblue" d="M406.846,-245.915C547.691,-234.481 836.24,-210.362 845,-204 885.799,-174.369 897.701,-109.314 900.907,-83.1869"/>
<polygon fill="midnightblue" stroke="midnightblue" points="406.24,-242.453 396.556,-246.749 406.806,-249.43 406.24,-242.453"/>
</g>
<!-- Node8&#45;&gt;Node4 -->
<g id="edge36" class="edge"><title>Node8&#45;&gt;Node4</title>
<path fill="none" stroke="midnightblue" d="M429.869,-170.86C437.418,-142.346 454.474,-91.5109 486,-60 503.581,-42.4274 528.789,-30.5715 549.983,-23.0391"/>
<polygon fill="midnightblue" stroke="midnightblue" points="426.379,-170.388 427.353,-180.938 433.171,-172.083 426.379,-170.388"/>
</g>
<!-- Node8&#45;&gt;Node5 -->
<g id="edge38" class="edge"><title>Node8&#45;&gt;Node5</title>
<path fill="none" stroke="midnightblue" d="M383.825,-177.428C331.708,-158.415 239.72,-122.947 165,-84 128.695,-65.0761 88.8992,-38.1413 67.5723,-23.1551"/>
<polygon fill="midnightblue" stroke="midnightblue" points="382.795,-180.777 393.389,-180.895 385.181,-174.196 382.795,-180.777"/>
</g>
<!-- Node8&#45;&gt;Node9 -->
<g id="edge18" class="edge"><title>Node8&#45;&gt;Node9</title>
<path fill="none" stroke="midnightblue" d="M476.865,-178.47C522.319,-166.612 586.842,-149.78 624.469,-139.965"/>
<polygon fill="midnightblue" stroke="midnightblue" points="475.978,-175.084 467.186,-180.995 477.745,-181.857 475.978,-175.084"/>
</g>
<!-- Node9&#45;&gt;Node2 -->
<g id="edge20" class="edge"><title>Node9&#45;&gt;Node2</title>
<path fill="none" stroke="midnightblue" d="M614.16,-129.236C540.875,-123.814 382.425,-109.985 251,-84 248.111,-83.4287 245.132,-82.7627 242.153,-82.0425"/>
<polygon fill="midnightblue" stroke="midnightblue" points="614.114,-132.742 624.341,-129.976 614.621,-125.76 614.114,-132.742"/>
</g>
<!-- Node9&#45;&gt;Node4 -->
<g id="edge32" class="edge"><title>Node9&#45;&gt;Node4</title>
<path fill="none" stroke="midnightblue" d="M626.494,-115.354C615.394,-107.34 603.742,-96.6944 597,-84 586.692,-64.5893 587.206,-38.071 588.563,-23.2332"/>
<polygon fill="midnightblue" stroke="midnightblue" points="624.539,-118.258 634.784,-120.961 628.461,-112.459 624.539,-118.258"/>
</g>
<!-- Node9&#45;&gt;Node10 -->
<g id="edge22" class="edge"><title>Node9&#45;&gt;Node10</title>
<path fill="none" stroke="midnightblue" d="M659.216,-110.918C661.072,-101.639 663.178,-91.1082 664.731,-83.3428"/>
<polygon fill="midnightblue" stroke="midnightblue" points="655.73,-110.503 657.201,-120.995 662.594,-111.876 655.73,-110.503"/>
</g>
<!-- Node9&#45;&gt;Node11 -->
<g id="edge26" class="edge"><title>Node9&#45;&gt;Node11</title>
<path fill="none" stroke="midnightblue" d="M614.18,-124.51C557.315,-114.076 453.857,-95.0931 388.148,-83.0363"/>
<polygon fill="midnightblue" stroke="midnightblue" points="613.769,-127.993 624.237,-126.355 615.033,-121.108 613.769,-127.993"/>
</g>
<!-- Node9&#45;&gt;Node13 -->
<g id="edge34" class="edge"><title>Node9&#45;&gt;Node13</title>
<path fill="none" stroke="midnightblue" d="M695.738,-122.104C743.301,-110.55 821.202,-91.6269 866.427,-80.6412"/>
<polygon fill="midnightblue" stroke="midnightblue" points="694.675,-118.761 685.783,-124.522 696.327,-125.563 694.675,-118.761"/>
</g>
<!-- Node10&#45;&gt;Node4 -->
<g id="edge24" class="edge"><title>Node10&#45;&gt;Node4</title>
<path fill="none" stroke="midnightblue" d="M644.828,-54.7234C631.783,-44.5582 615.668,-32.0008 604.294,-23.1383"/>
<polygon fill="midnightblue" stroke="midnightblue" points="642.838,-57.6093 652.877,-60.9951 647.14,-52.0877 642.838,-57.6093"/>
</g>
<!-- Node11&#45;&gt;Node4 -->
<g id="edge28" class="edge"><title>Node11&#45;&gt;Node4</title>
<path fill="none" stroke="midnightblue" d="M386.045,-58.7073C432.836,-47.9918 497.859,-33.1011 541.807,-23.0366"/>
<polygon fill="midnightblue" stroke="midnightblue" points="385.021,-55.351 376.055,-60.9951 386.584,-62.1744 385.021,-55.351"/>
</g>
<!-- Node11&#45;&gt;Node12 -->
<g id="edge30" class="edge"><title>Node11&#45;&gt;Node12</title>
<path fill="none" stroke="midnightblue" d="M334.58,-51.2204C337.542,-41.8686 340.922,-31.1926 343.408,-23.3428"/>
<polygon fill="midnightblue" stroke="midnightblue" points="331.167,-50.405 331.485,-60.9951 337.841,-52.5183 331.167,-50.405"/>
</g>
<!-- Node14&#45;&gt;Node4 -->
<g id="edge66" class="edge"><title>Node14&#45;&gt;Node4</title>
<path fill="none" stroke="midnightblue" d="M976.492,-296.004C990.238,-287.851 1005.75,-276.918 1017,-264 1061.21,-213.232 1092.35,-181.065 1064,-120 1046.61,-82.5262 1030.89,-76.4715 993,-60 932.017,-33.4886 741.882,-19.9775 646.195,-14.7084"/>
<polygon fill="midnightblue" stroke="midnightblue" points="974.744,-292.972 967.777,-300.954 978.201,-299.059 974.744,-292.972"/>
</g>
<!-- Node14&#45;&gt;Node8 -->
<g id="edge68" class="edge"><title>Node14&#45;&gt;Node8</title>
<path fill="none" stroke="midnightblue" d="M896.361,-311.164C794.218,-308.719 561.044,-299.324 491,-264 463.444,-250.103 441.711,-219.575 431.449,-203.087"/>
<polygon fill="midnightblue" stroke="midnightblue" points="896.333,-314.664 906.41,-311.392 896.492,-307.666 896.333,-314.664"/>
</g>
<!-- Node14&#45;&gt;Node13 -->
<g id="edge72" class="edge"><title>Node14&#45;&gt;Node13</title>
<path fill="none" stroke="midnightblue" d="M972.03,-295.089C982.407,-287.048 993.156,-276.454 999,-264 1014.86,-230.193 1016.6,-213.927 1001,-180 990.727,-157.664 976.042,-161.72 959,-144 939.66,-123.891 920.125,-97.629 909.7,-83.0234"/>
<polygon fill="midnightblue" stroke="midnightblue" points="969.939,-292.281 963.887,-300.977 974.041,-297.953 969.939,-292.281"/>
</g>
<!-- Node15 -->
<g id="node43" class="node"><title>Node15</title>
<a xlink:href="thread_8h.html" target="_top" xlink:title="This file defines a minimalistic cross&#45;platform thread that the scheduler uses to schedule tasks...">
<polygon fill="white" stroke="black" points="937.5,-241 937.5,-263 990.5,-263 990.5,-241 937.5,-241"/>
<text text-anchor="middle" x="964" y="-250" font-family="FreeSans" font-size="10.00">thread.h</text>
</a>
</g>
<!-- Node14&#45;&gt;Node15 -->
<g id="edge56" class="edge"><title>Node14&#45;&gt;Node15</title>
<path fill="none" stroke="midnightblue" d="M951.58,-291.22C954.542,-281.869 957.922,-271.193 960.408,-263.343"/>
<polygon fill="midnightblue" stroke="midnightblue" points="948.167,-290.405 948.485,-300.995 954.841,-292.518 948.167,-290.405"/>
</g>
<!-- Node14&#45;&gt;Node17 -->
<g id="edge70" class="edge"><title>Node14&#45;&gt;Node17</title>
<path fill="none" stroke="midnightblue" d="M924.514,-294.186C913.027,-284.197 899.042,-272.037 889.044,-263.343"/>
<polygon fill="midnightblue" stroke="midnightblue" points="922.502,-297.074 932.344,-300.995 927.095,-291.792 922.502,-297.074"/>
</g>
<!-- Node15&#45;&gt;Node4 -->
<g id="edge60" class="edge"><title>Node15&#45;&gt;Node4</title>
<path fill="none" stroke="midnightblue" d="M988.512,-234.79C1020.84,-209.872 1070.97,-162.115 1047,-120 1021.18,-74.6213 995.309,-77.1673 946,-60 891.888,-41.1606 732.046,-24.6365 646.132,-16.81"/>
<polygon fill="midnightblue" stroke="midnightblue" points="986.251,-232.11 980.339,-240.902 990.443,-237.716 986.251,-232.11"/>
</g>
<!-- Node15&#45;&gt;Node8 -->
<g id="edge58" class="edge"><title>Node15&#45;&gt;Node8</title>
<path fill="none" stroke="midnightblue" d="M927.539,-240.655C868.686,-233.041 585.599,-206.81 472.104,-196.339"/>
<polygon fill="midnightblue" stroke="midnightblue" points="927.016,-244.116 937.43,-242.169 928.075,-237.196 927.016,-244.116"/>
</g>
<!-- Node15&#45;&gt;Node9 -->
<g id="edge64" class="edge"><title>Node15&#45;&gt;Node9</title>
<path fill="none" stroke="midnightblue" d="M927.437,-239.902C843.663,-219.646 813.593,-239.843 739,-204 707.665,-188.943 678.648,-159.185 664.336,-143.041"/>
<polygon fill="midnightblue" stroke="midnightblue" points="926.813,-243.355 937.368,-242.43 928.54,-236.571 926.813,-243.355"/>
</g>
<!-- Node16 -->
<g id="node47" class="node"><title>Node16</title>
<a xlink:href="thread_8cpp.html" target="_top" xlink:title="This file implements a minimalistic cross&#45;platform thread that the scheduler uses to schedule tasks...">
<polygon fill="white" stroke="black" points="929.5,-181 929.5,-203 992.5,-203 992.5,-181 929.5,-181"/>
<text text-anchor="middle" x="961" y="-190" font-family="FreeSans" font-size="10.00">thread.cpp</text>
</a>
</g>
<!-- Node15&#45;&gt;Node16 -->
<g id="edge62" class="edge"><title>Node15&#45;&gt;Node16</title>
<path fill="none" stroke="midnightblue" d="M962.946,-230.918C962.482,-221.639 961.955,-211.108 961.567,-203.343"/>
<polygon fill="midnightblue" stroke="midnightblue" points="959.455,-231.182 963.45,-240.995 966.446,-230.833 959.455,-231.182"/>
</g>
<!-- Node18&#45;&gt;Node13 -->
<g id="edge78" class="edge"><title>Node18&#45;&gt;Node13</title>
<path fill="none" stroke="midnightblue" d="M975.855,-115.874C958.426,-105.52 936.236,-92.3384 920.75,-83.1383"/>
<polygon fill="midnightblue" stroke="midnightblue" points="974.09,-118.897 984.475,-120.995 977.665,-112.879 974.09,-118.897"/>
</g>
<!-- Node19&#45;&gt;Node4 -->
<g id="edge86" class="edge"><title>Node19&#45;&gt;Node4</title>
<path fill="none" stroke="midnightblue" d="M788.773,-170.735C783.268,-141.706 769.34,-89.876 737,-60 712.153,-37.046 676.154,-25.0594 646,-18.8048"/>
<polygon fill="midnightblue" stroke="midnightblue" points="785.335,-171.396 790.492,-180.651 792.233,-170.2 785.335,-171.396"/>
</g>
<!-- Node19&#45;&gt;Node9 -->
<g id="edge88" class="edge"><title>Node19&#45;&gt;Node9</title>
<path fill="none" stroke="midnightblue" d="M757.437,-176.863C733.48,-166.371 702.114,-152.634 680.433,-143.138"/>
<polygon fill="midnightblue" stroke="midnightblue" points="756.308,-180.189 766.872,-180.995 759.116,-173.777 756.308,-180.189"/>
</g>
<!-- Node20&#45;&gt;Node4 -->
<g id="edge92" class="edge"><title>Node20&#45;&gt;Node4</title>
<path fill="none" stroke="midnightblue" d="M537.135,-230.351C536.92,-215.984 537.321,-196.759 540,-180 549.704,-119.3 575.225,-49.7921 585.56,-23.1693"/>
<polygon fill="midnightblue" stroke="midnightblue" points="533.646,-230.787 537.408,-240.691 540.643,-230.603 533.646,-230.787"/>
</g>
<!-- Node20&#45;&gt;Node8 -->
<g id="edge94" class="edge"><title>Node20&#45;&gt;Node8</title>
<path fill="none" stroke="midnightblue" d="M508.432,-236.3C488.815,-225.884 463.542,-212.465 445.977,-203.138"/>
<polygon fill="midnightblue" stroke="midnightblue" points="506.8,-239.397 517.274,-240.995 510.083,-233.214 506.8,-239.397"/>
</g>
<!-- Node20&#45;&gt;Node9 -->
<g id="edge96" class="edge"><title>Node20&#45;&gt;Node9</title>
<path fill="none" stroke="midnightblue" d="M538.979,-230.733C540.71,-215.156 545.261,-194.32 557,-180 574.055,-159.195 602.342,-146.702 624.153,-139.701"/>
<polygon fill="midnightblue" stroke="midnightblue" points="535.468,-230.729 538.154,-240.977 542.445,-231.29 535.468,-230.729"/>
</g>
<!-- Node21 -->
<g id="node70" class="node"><title>Node21</title>
<a xlink:href="workunitkey_8cpp.html" target="_top" xlink:title="This file declares the functionality of the metadata used to sort workunits.">
<polygon fill="white" stroke="black" points="566,-181 566,-203 654,-203 654,-181 566,-181"/>
<text text-anchor="middle" x="610" y="-190" font-family="FreeSans" font-size="10.00">workunitkey.cpp</text>
</a>
</g>
<!-- Node20&#45;&gt;Node21 -->
<g id="edge98" class="edge"><title>Node20&#45;&gt;Node21</title>
<path fill="none" stroke="midnightblue" d="M559.028,-234.476C571.08,-224.434 585.855,-212.121 596.389,-203.343"/>
<polygon fill="midnightblue" stroke="midnightblue" points="556.647,-231.904 551.206,-240.995 561.129,-237.282 556.647,-231.904"/>
</g>
</g>
</svg>
        <g id="navigator" transform="translate(0 0)" fill="#404254">
                <rect fill="#f2f5e9" fill-opacity="0.5" stroke="#606060" stroke-width=".5" x="0" y="0" width="60" height="60"/>
                <use id="zoomplus" xlink:href="#zoomPlus" x="17" y="9" onmousedown="handleZoom(evt,'in')"/>
                <use id="zoomminus" xlink:href="#zoomMin" x="42" y="9" onmousedown="handleZoom(evt,'out')"/>
                <use id="reset" xlink:href="#resetDef" x="30" y="36" onmousedown="handleReset()"/>
                <g id="arrowUp" xlink:href="#dirArrow" transform="translate(30 24)" onmousedown="handlePan(0,-1)">
                  <use xlink:href="#rim" fill="#404040">
                        <set attributeName="fill" to="#808080" begin="arrowUp.mouseover" end="arrowUp.mouseout"/>
                  </use>
                  <path fill="none" stroke="white" stroke-width="1.5" d="M0,-3.0v7 M-2.5,-0.5L0,-3.0L2.5,-0.5"/>
                </g>
                <g id="arrowRight" xlink:href="#dirArrow" transform="rotate(90) translate(36 -43)" onmousedown="handlePan(1,0)">
                  <use xlink:href="#rim" fill="#404040">
                        <set attributeName="fill" to="#808080" begin="arrowRight.mouseover" end="arrowRight.mouseout"/>
                  </use>
                  <path fill="none" stroke="white" stroke-width="1.5" d="M0,-3.0v7 M-2.5,-0.5L0,-3.0L2.5,-0.5"/>
                </g>
                <g id="arrowDown" xlink:href="#dirArrow" transform="rotate(180) translate(-30 -48)" onmousedown="handlePan(0,1)">
                  <use xlink:href="#rim" fill="#404040">
                        <set attributeName="fill" to="#808080" begin="arrowDown.mouseover" end="arrowDown.mouseout"/>
                  </use>
                  <path fill="none" stroke="white" stroke-width="1.5" d="M0,-3.0v7 M-2.5,-0.5L0,-3.0L2.5,-0.5"/>
                </g>
                <g id="arrowLeft" xlink:href="#dirArrow" transform="rotate(270) translate(-36 17)" onmousedown="handlePan(-1,0)">
                  <use xlink:href="#rim" fill="#404040">
                        <set attributeName="fill" to="#808080" begin="arrowLeft.mouseover" end="arrowLeft.mouseout"/>
                  </use>
                  <path fill="none" stroke="white" stroke-width="1.5" d="M0,-3.0v7 M-2.5,-0.5L0,-3.0L2.5,-0.5"/>
                </g>
        </g>
</svg>
