<?xml version="1.0" encoding="UTF-8" standalone="no"?>
<!DOCTYPE svg PUBLIC "-//W3C//DTD SVG 1.1//EN"
 "http://www.w3.org/Graphics/SVG/1.1/DTD/svg11.dtd">
<!-- Generated by graphviz version 2.26.3 (20100126.1600)
 -->
<!-- Title: doublebufferedresource.h Pages: 1 -->
<!--zoomable 320 -->
<svg id="main" version="1.1" xmlns="http://www.w3.org/2000/svg" xmlns:xlink="http://www.w3.org/1999/xlink" xml:space="preserve" onload="init(evt)">
<style type="text/css"><![CDATA[
.edge:hover path { stroke: red; }
.edge:hover polygon { stroke: red; fill: red; }
]]></style>
<script type="text/javascript"><![CDATA[
var edges = document.getElementsByTagName('g');
if (edges && edges.length) {
  for (var i=0;i<edges.length;i++) {
    if (edges[i].id.substr(0,4)=='edge') {
      edges[i].setAttribute('class','edge');
    }
  }
}
]]></script>
        <defs>
                <circle id="rim" cx="0" cy="0" r="7"/>
                <circle id="rim2" cx="0" cy="0" r="3.5"/>
                <g id="zoomPlus">
                        <use xlink:href="#rim" fill="#404040">
                                <set attributeName="fill" to="#808080" begin="zoomplus.mouseover" end="zoomplus.mouseout"/>
                        </use>
                        <path d="M-4,0h8M0,-4v8" fill="none" stroke="white" stroke-width="1.5" pointer-events="none"/>
                </g>
                <g id="zoomMin">
                        <use xlink:href="#rim" fill="#404040">
                                <set attributeName="fill" to="#808080" begin="zoomminus.mouseover" end="zoomminus.mouseout"/>
                        </use>
                        <path d="M-4,0h8" fill="none" stroke="white" stroke-width="1.5" pointer-events="none"/>
                </g>
                <g id="dirArrow">
                        <path fill="none" stroke="white" stroke-width="1.5" d="M0,-3.0v7 M-2.5,-0.5L0,-3.0L2.5,-0.5"/>
                </g>
               <g id="resetDef">
                       <use xlink:href="#rim2" fill="#404040">
                               <set attributeName="fill" to="#808080" begin="reset.mouseover" end="reset.mouseout"/>
                       </use>
               </g>
        </defs>

<script type="text/javascript">
var viewWidth = 1009;
var viewHeight = 320;
var sectionId = 'dynsection-1';
</script>
<script xlink:href="svgpan.js"/>
<svg id="graph" class="graph">
<g id="viewport">
<title>doublebufferedresource.h</title>
<polygon fill="white" stroke="white" points="-4,5 -4,-316 1005.79,-316 1005.79,5 -4,5"/>
<!-- Node1 -->
<g id="node1" class="node"><title>Node1</title>
<polygon fill="#bfbfbf" stroke="black" points="584.5,-291 584.5,-311 707.5,-311 707.5,-291 584.5,-291"/>
<text text-anchor="middle" x="646" y="-298" font-family="FreeSans" font-size="10.00">doublebufferedresource.h</text>
</g>
<!-- Node2 -->
<g id="node3" class="node"><title>Node2</title>
<a xlink:href="asynchronousworkunit_8h.html" target="_top" xlink:title="Contains an interface for a kind of WorkUnit that loads or does other work even when the frame schedu...">
<polygon fill="white" stroke="black" points="318.5,-117 318.5,-137 437.5,-137 437.5,-117 318.5,-117"/>
<text text-anchor="middle" x="378" y="-124" font-family="FreeSans" font-size="10.00">asynchronousworkunit.h</text>
</a>
</g>
<!-- Node1&#45;&gt;Node2 -->
<g id="edge2" class="edge"><title>Node1&#45;&gt;Node2</title>
<path fill="none" stroke="midnightblue" d="M614.807,-286.294C596.948,-277.529 574.319,-265.833 555,-254 490.819,-214.689 419.465,-159.753 390.872,-137.238"/>
<polygon fill="midnightblue" stroke="midnightblue" points="613.662,-289.628 624.187,-290.844 616.717,-283.33 613.662,-289.628"/>
</g>
<!-- Node5 -->
<g id="node9" class="node"><title>Node5</title>
<a xlink:href="dagframescheduler_8h.html" target="_top" xlink:title="This is the file that code using this library should include. It includes all the required components...">
<polygon fill="white" stroke="black" points="363,-1 363,-21 469,-21 469,-1 363,-1"/>
<text text-anchor="middle" x="416" y="-8" font-family="FreeSans" font-size="10.00">dagframescheduler.h</text>
</a>
</g>
<!-- Node1&#45;&gt;Node5 -->
<g id="edge46" class="edge"><title>Node1&#45;&gt;Node5</title>
<path fill="none" stroke="midnightblue" d="M574.017,-297.369C446.449,-288.95 194,-262.499 194,-185 194,-185 194,-185 194,-127 194,-95.1919 190.05,-80.0238 213,-58 234.142,-37.7114 309.818,-24.2793 362.542,-17.1506"/>
<polygon fill="midnightblue" stroke="midnightblue" points="573.896,-300.868 584.099,-298.013 574.343,-293.882 573.896,-300.868"/>
</g>
<!-- Node7 -->
<g id="node14" class="node"><title>Node7</title>
<a xlink:href="framescheduler_8h.html" target="_top" xlink:title="This file has the Declarations for the main FrameScheduler class. ">
<polygon fill="white" stroke="black" points="659,-233 659,-253 749,-253 749,-233 659,-233"/>
<text text-anchor="middle" x="704" y="-240" font-family="FreeSans" font-size="10.00">framescheduler.h</text>
</a>
</g>
<!-- Node1&#45;&gt;Node7 -->
<g id="edge14" class="edge"><title>Node1&#45;&gt;Node7</title>
<path fill="none" stroke="midnightblue" d="M663.432,-283.568C673.275,-273.725 685.245,-261.755 693.622,-253.378"/>
<polygon fill="midnightblue" stroke="midnightblue" points="660.699,-281.351 656.103,-290.897 665.649,-286.301 660.699,-281.351"/>
</g>
<!-- Node10 -->
<g id="node22" class="node"><title>Node10</title>
<a xlink:href="framescheduler_8cpp.html" target="_top" xlink:title="This is the core object implementation for this algorithm. ">
<polygon fill="white" stroke="black" points="537.5,-59 537.5,-79 638.5,-79 638.5,-59 537.5,-59"/>
<text text-anchor="middle" x="588" y="-66" font-family="FreeSans" font-size="10.00">framescheduler.cpp</text>
</a>
</g>
<!-- Node1&#45;&gt;Node10 -->
<g id="edge52" class="edge"><title>Node1&#45;&gt;Node10</title>
<path fill="none" stroke="midnightblue" d="M637.353,-281.473C628.478,-260.677 614.883,-226.608 607,-196 595.991,-153.253 590.645,-100.658 588.789,-79.0203"/>
<polygon fill="midnightblue" stroke="midnightblue" points="634.207,-283.015 641.397,-290.796 640.629,-280.229 634.207,-283.015"/>
</g>
<!-- Node11 -->
<g id="node24" class="node"><title>Node11</title>
<a xlink:href="frameschedulerworkunits_8cpp.html" target="_top" xlink:title="The implementation of any workunits the framescheduler needs to work correctly. ">
<polygon fill="white" stroke="black" points="731.5,-59 731.5,-79 872.5,-79 872.5,-59 731.5,-59"/>
<text text-anchor="middle" x="802" y="-66" font-family="FreeSans" font-size="10.00">frameschedulerworkunits.cpp</text>
</a>
</g>
<!-- Node1&#45;&gt;Node11 -->
<g id="edge54" class="edge"><title>Node1&#45;&gt;Node11</title>
<path fill="none" stroke="midnightblue" d="M717.793,-296.333C766.865,-290.922 832.301,-279.235 885,-254 949.636,-223.049 974.526,-206.049 997,-138 1000.07,-128.715 1003.05,-123.681 997,-116 981.513,-96.337 921.934,-83.937 872.663,-76.8432"/>
<polygon fill="midnightblue" stroke="midnightblue" points="717.165,-292.88 707.581,-297.395 717.889,-299.842 717.165,-292.88"/>
</g>
<!-- Node12 -->
<g id="node26" class="node"><title>Node12</title>
<a xlink:href="monopoly_8h.html" target="_top" xlink:title="Contains an interface for a kind of WorkUnit that consumes time on multiple thread. ">
<polygon fill="white" stroke="black" points="495.5,-117 495.5,-137 560.5,-137 560.5,-117 495.5,-117"/>
<text text-anchor="middle" x="528" y="-124" font-family="FreeSans" font-size="10.00">monopoly.h</text>
</a>
</g>
<!-- Node1&#45;&gt;Node12 -->
<g id="edge48" class="edge"><title>Node1&#45;&gt;Node12</title>
<path fill="none" stroke="midnightblue" d="M614.179,-286.146C600.23,-278.277 584.646,-267.437 574,-254 544.876,-217.238 533.182,-160.402 529.46,-137.295"/>
<polygon fill="midnightblue" stroke="midnightblue" points="612.573,-289.256 623.041,-290.885 615.874,-283.083 612.573,-289.256"/>
</g>
<!-- Node14 -->
<g id="node33" class="node"><title>Node14</title>
<a xlink:href="workunit_8cpp.html" target="_top" xlink:title="This file has the implementation of the Mezzanine::Threading::DefaultWorkUnit. ">
<polygon fill="white" stroke="black" points="917.5,-117 917.5,-137 988.5,-137 988.5,-117 917.5,-117"/>
<text text-anchor="middle" x="953" y="-124" font-family="FreeSans" font-size="10.00">workunit.cpp</text>
</a>
</g>
<!-- Node1&#45;&gt;Node14 -->
<g id="edge56" class="edge"><title>Node1&#45;&gt;Node14</title>
<path fill="none" stroke="midnightblue" d="M717.989,-293.814C783.647,-283.393 878.614,-257.952 934,-196 948.906,-179.327 952.244,-151.988 952.912,-137.225"/>
<polygon fill="midnightblue" stroke="midnightblue" points="717.081,-290.411 707.713,-295.361 718.123,-297.333 717.081,-290.411"/>
</g>
<!-- Node15 -->
<g id="node36" class="node"><title>Node15</title>
<a xlink:href="doublebufferedresource_8cpp.html" target="_top" xlink:title="This file defines the template double buffered resources that can be attached to a thread...">
<polygon fill="white" stroke="black" points="791,-175 791,-195 925,-195 925,-175 791,-175"/>
<text text-anchor="middle" x="858" y="-182" font-family="FreeSans" font-size="10.00">doublebufferedresource.cpp</text>
</a>
</g>
<!-- Node1&#45;&gt;Node15 -->
<g id="edge50" class="edge"><title>Node1&#45;&gt;Node15</title>
<path fill="none" stroke="midnightblue" d="M683.765,-287.4C705.918,-278.875 734.151,-267.049 758,-254 791.122,-235.877 826.816,-209.363 845.291,-195.053"/>
<polygon fill="midnightblue" stroke="midnightblue" points="682.475,-284.146 674.363,-290.961 684.955,-290.692 682.475,-284.146"/>
</g>
<!-- Node3 -->
<g id="node5" class="node"><title>Node3</title>
<a xlink:href="asynchronousfileloadingworkunit_8h.html" target="_top" xlink:title="The declaration of the AsynchronousFileLoadWorkUnit a workunit that loads a listing of files asynchro...">
<polygon fill="white" stroke="black" points="5.5,-59 5.5,-79 166.5,-79 166.5,-59 5.5,-59"/>
<text text-anchor="middle" x="86" y="-66" font-family="FreeSans" font-size="10.00">asynchronousfileloadingworkunit.h</text>
</a>
</g>
<!-- Node2&#45;&gt;Node3 -->
<g id="edge4" class="edge"><title>Node2&#45;&gt;Node3</title>
<path fill="none" stroke="midnightblue" d="M317.424,-114.968C263.866,-104.33 186.651,-88.9923 136.399,-79.0108"/>
<polygon fill="midnightblue" stroke="midnightblue" points="316.981,-118.448 327.471,-116.963 318.344,-111.582 316.981,-118.448"/>
</g>
<!-- Node2&#45;&gt;Node5 -->
<g id="edge12" class="edge"><title>Node2&#45;&gt;Node5</title>
<path fill="none" stroke="midnightblue" d="M384.499,-107.16C392.678,-82.1937 406.413,-40.267 412.69,-21.1055"/>
<polygon fill="midnightblue" stroke="midnightblue" points="381.159,-106.113 381.372,-116.706 387.811,-108.292 381.159,-106.113"/>
</g>
<!-- Node6 -->
<g id="node11" class="node"><title>Node6</title>
<a xlink:href="asynchronousworkunit_8cpp.html" target="_top" xlink:title="Contains very little actually. ">
<polygon fill="white" stroke="black" points="221.5,-59 221.5,-79 350.5,-79 350.5,-59 221.5,-59"/>
<text text-anchor="middle" x="286" y="-66" font-family="FreeSans" font-size="10.00">asynchronousworkunit.cpp</text>
</a>
</g>
<!-- Node2&#45;&gt;Node6 -->
<g id="edge10" class="edge"><title>Node2&#45;&gt;Node6</title>
<path fill="none" stroke="midnightblue" d="M353.489,-111.547C337.23,-101.297 316.35,-88.1339 302.15,-79.1817"/>
<polygon fill="midnightblue" stroke="midnightblue" points="351.649,-114.525 361.975,-116.897 355.382,-108.603 351.649,-114.525"/>
</g>
<!-- Node4 -->
<g id="node7" class="node"><title>Node4</title>
<a xlink:href="asynchronousfileloadingworkunit_8cpp.html" target="_top" xlink:title="The implementation of the AsynchronousFileLoadWorkUnit a workunit that loads a listing of files async...">
<polygon fill="white" stroke="black" points="0,-1 0,-21 172,-21 172,-1 0,-1"/>
<text text-anchor="middle" x="86" y="-8" font-family="FreeSans" font-size="10.00">asynchronousfileloadingworkunit.cpp</text>
</a>
</g>
<!-- Node3&#45;&gt;Node4 -->
<g id="edge6" class="edge"><title>Node3&#45;&gt;Node4</title>
<path fill="none" stroke="midnightblue" d="M86,-48.8902C86,-39.6201 86,-29.0083 86,-21.3776"/>
<polygon fill="midnightblue" stroke="midnightblue" points="82.5001,-48.8971 86,-58.8972 89.5001,-48.8972 82.5001,-48.8971"/>
</g>
<!-- Node3&#45;&gt;Node5 -->
<g id="edge8" class="edge"><title>Node3&#45;&gt;Node5</title>
<path fill="none" stroke="midnightblue" d="M153.171,-57.1942C215.109,-46.3081 305.835,-30.3623 362.865,-20.339"/>
<polygon fill="midnightblue" stroke="midnightblue" points="152.348,-53.7851 143.105,-58.9634 153.56,-60.6794 152.348,-53.7851"/>
</g>
<!-- Node7&#45;&gt;Node5 -->
<g id="edge40" class="edge"><title>Node7&#45;&gt;Node5</title>
<path fill="none" stroke="midnightblue" d="M720.215,-225.634C735.127,-210.443 758.437,-188.587 782,-174 818.28,-151.541 844.217,-171.216 871,-138 893.491,-110.106 905.029,-84.5807 881,-58 853.793,-27.9046 585.284,-16.1467 469.112,-12.4428"/>
<polygon fill="midnightblue" stroke="midnightblue" points="717.638,-223.264 713.226,-232.896 722.682,-228.118 717.638,-223.264"/>
</g>
<!-- Node8 -->
<g id="node16" class="node"><title>Node8</title>
<a xlink:href="workunit_8h.html" target="_top" xlink:title="This file has the definition of the workunit. ">
<polygon fill="white" stroke="black" points="616,-175 616,-195 676,-195 676,-175 616,-175"/>
<text text-anchor="middle" x="646" y="-182" font-family="FreeSans" font-size="10.00">workunit.h</text>
</a>
</g>
<!-- Node7&#45;&gt;Node8 -->
<g id="edge16" class="edge"><title>Node7&#45;&gt;Node8</title>
<path fill="none" stroke="midnightblue" d="M686.568,-225.568C676.725,-215.725 664.755,-203.755 656.378,-195.378"/>
<polygon fill="midnightblue" stroke="midnightblue" points="684.351,-228.301 693.897,-232.897 689.301,-223.351 684.351,-228.301"/>
</g>
<!-- Node7&#45;&gt;Node10 -->
<g id="edge44" class="edge"><title>Node7&#45;&gt;Node10</title>
<path fill="none" stroke="midnightblue" d="M700.972,-222.358C698.262,-208.107 693.382,-189.082 685,-174 662.576,-133.652 621.531,-96.5061 600.762,-79.2085"/>
<polygon fill="midnightblue" stroke="midnightblue" points="697.585,-223.321 702.706,-232.597 704.487,-222.152 697.585,-223.321"/>
</g>
<!-- Node7&#45;&gt;Node15 -->
<g id="edge42" class="edge"><title>Node7&#45;&gt;Node15</title>
<path fill="none" stroke="midnightblue" d="M740.234,-229.354C768.121,-218.85 806.034,-204.572 831.225,-195.084"/>
<polygon fill="midnightblue" stroke="midnightblue" points="738.949,-226.097 730.825,-232.897 741.417,-232.648 738.949,-226.097"/>
</g>
<!-- Node8&#45;&gt;Node2 -->
<g id="edge18" class="edge"><title>Node8&#45;&gt;Node2</title>
<path fill="none" stroke="midnightblue" d="M605.929,-176.328C557.303,-165.804 475.479,-148.096 424.232,-137.005"/>
<polygon fill="midnightblue" stroke="midnightblue" points="605.264,-179.765 615.778,-178.459 606.745,-172.923 605.264,-179.765"/>
</g>
<!-- Node8&#45;&gt;Node5 -->
<g id="edge36" class="edge"><title>Node8&#45;&gt;Node5</title>
<path fill="none" stroke="midnightblue" d="M653.217,-165.023C661.712,-137.612 671.755,-88.2986 647,-58 624.99,-31.0611 530.346,-19.1744 469.241,-14.2282"/>
<polygon fill="midnightblue" stroke="midnightblue" points="649.839,-164.092 650.002,-174.685 656.48,-166.302 649.839,-164.092"/>
</g>
<!-- Node9 -->
<g id="node19" class="node"><title>Node9</title>
<a xlink:href="frameschedulerworkunits_8h.html" target="_top" xlink:title="This defines a number of workunits that are required for doing some tasks that the Framescheduler req...">
<polygon fill="white" stroke="black" points="731.5,-117 731.5,-137 862.5,-137 862.5,-117 731.5,-117"/>
<text text-anchor="middle" x="797" y="-124" font-family="FreeSans" font-size="10.00">frameschedulerworkunits.h</text>
</a>
</g>
<!-- Node8&#45;&gt;Node9 -->
<g id="edge20" class="edge"><title>Node8&#45;&gt;Node9</title>
<path fill="none" stroke="midnightblue" d="M681.887,-171.216C709.197,-160.726 746.154,-146.53 770.746,-137.084"/>
<polygon fill="midnightblue" stroke="midnightblue" points="680.382,-168.044 672.302,-174.897 682.892,-174.579 680.382,-168.044"/>
</g>
<!-- Node8&#45;&gt;Node12 -->
<g id="edge28" class="edge"><title>Node8&#45;&gt;Node12</title>
<path fill="none" stroke="midnightblue" d="M616.286,-170.395C595.202,-160.031 567.433,-146.383 548.714,-137.182"/>
<polygon fill="midnightblue" stroke="midnightblue" points="614.928,-173.627 625.446,-174.897 618.015,-167.345 614.928,-173.627"/>
</g>
<!-- Node8&#45;&gt;Node14 -->
<g id="edge38" class="edge"><title>Node8&#45;&gt;Node14</title>
<path fill="none" stroke="midnightblue" d="M686.205,-177.404C746.582,-165.998 859.717,-144.623 917.324,-133.74"/>
<polygon fill="midnightblue" stroke="midnightblue" points="685.453,-173.984 676.277,-179.28 686.752,-180.863 685.453,-173.984"/>
</g>
<!-- Node9&#45;&gt;Node5 -->
<g id="edge22" class="edge"><title>Node9&#45;&gt;Node5</title>
<path fill="none" stroke="midnightblue" d="M772.896,-111.4C744.515,-93.2825 698.858,-64.9804 680,-58 609.709,-31.9816 523.413,-20.0999 469.045,-14.8644"/>
<polygon fill="midnightblue" stroke="midnightblue" points="771.14,-114.432 781.447,-116.885 774.919,-108.54 771.14,-114.432"/>
</g>
<!-- Node9&#45;&gt;Node10 -->
<g id="edge24" class="edge"><title>Node9&#45;&gt;Node10</title>
<path fill="none" stroke="midnightblue" d="M750.772,-114.171C712.686,-103.602 659.421,-88.8202 624.338,-79.0842"/>
<polygon fill="midnightblue" stroke="midnightblue" points="750.023,-117.596 760.595,-116.897 751.895,-110.85 750.023,-117.596"/>
</g>
<!-- Node9&#45;&gt;Node11 -->
<g id="edge26" class="edge"><title>Node9&#45;&gt;Node11</title>
<path fill="none" stroke="midnightblue" d="M798.734,-106.89C799.533,-97.6201 800.448,-87.0083 801.105,-79.3776"/>
<polygon fill="midnightblue" stroke="midnightblue" points="795.243,-106.633 797.871,-116.897 802.217,-107.235 795.243,-106.633"/>
</g>
<!-- Node12&#45;&gt;Node5 -->
<g id="edge30" class="edge"><title>Node12&#45;&gt;Node5</title>
<path fill="none" stroke="midnightblue" d="M485.511,-114.21C467.605,-106.844 447.953,-95.8296 435,-80 420.837,-62.6911 417.197,-35.6103 416.285,-21.0566"/>
<polygon fill="midnightblue" stroke="midnightblue" points="484.636,-117.623 495.227,-117.934 487.142,-111.086 484.636,-117.623"/>
</g>
<!-- Node12&#45;&gt;Node10 -->
<g id="edge32" class="edge"><title>Node12&#45;&gt;Node10</title>
<path fill="none" stroke="midnightblue" d="M545.731,-109.86C555.97,-99.9622 568.513,-87.8377 577.265,-79.3776"/>
<polygon fill="midnightblue" stroke="midnightblue" points="543.209,-107.43 538.451,-116.897 548.074,-112.463 543.209,-107.43"/>
</g>
<!-- Node13 -->
<g id="node30" class="node"><title>Node13</title>
<a xlink:href="monopoly_8cpp.html" target="_top" xlink:title="Contains the minimal implementation for the monopoly base class. ">
<polygon fill="white" stroke="black" points="444,-59 444,-79 520,-79 520,-59 444,-59"/>
<text text-anchor="middle" x="482" y="-66" font-family="FreeSans" font-size="10.00">monopoly.cpp</text>
</a>
</g>
<!-- Node12&#45;&gt;Node13 -->
<g id="edge34" class="edge"><title>Node12&#45;&gt;Node13</title>
<path fill="none" stroke="midnightblue" d="M513.709,-108.981C505.993,-99.2522 496.743,-87.5889 490.231,-79.3776"/>
<polygon fill="midnightblue" stroke="midnightblue" points="511.031,-111.237 519.987,-116.897 516.516,-106.887 511.031,-111.237"/>
</g>
</g>
</svg>
        <g id="navigator" transform="translate(0 0)" fill="#404254">
                <rect fill="#f2f5e9" fill-opacity="0.5" stroke="#606060" stroke-width=".5" x="0" y="0" width="60" height="60"/>
                <use id="zoomplus" xlink:href="#zoomPlus" x="17" y="9" onmousedown="handleZoom(evt,'in')"/>
                <use id="zoomminus" xlink:href="#zoomMin" x="42" y="9" onmousedown="handleZoom(evt,'out')"/>
                <use id="reset" xlink:href="#resetDef" x="30" y="36" onmousedown="handleReset()"/>
                <g id="arrowUp" xlink:href="#dirArrow" transform="translate(30 24)" onmousedown="handlePan(0,-1)">
                  <use xlink:href="#rim" fill="#404040">
                        <set attributeName="fill" to="#808080" begin="arrowUp.mouseover" end="arrowUp.mouseout"/>
                  </use>
                  <path fill="none" stroke="white" stroke-width="1.5" d="M0,-3.0v7 M-2.5,-0.5L0,-3.0L2.5,-0.5"/>
                </g>
                <g id="arrowRight" xlink:href="#dirArrow" transform="rotate(90) translate(36 -43)" onmousedown="handlePan(1,0)">
                  <use xlink:href="#rim" fill="#404040">
                        <set attributeName="fill" to="#808080" begin="arrowRight.mouseover" end="arrowRight.mouseout"/>
                  </use>
                  <path fill="none" stroke="white" stroke-width="1.5" d="M0,-3.0v7 M-2.5,-0.5L0,-3.0L2.5,-0.5"/>
                </g>
                <g id="arrowDown" xlink:href="#dirArrow" transform="rotate(180) translate(-30 -48)" onmousedown="handlePan(0,1)">
                  <use xlink:href="#rim" fill="#404040">
                        <set attributeName="fill" to="#808080" begin="arrowDown.mouseover" end="arrowDown.mouseout"/>
                  </use>
                  <path fill="none" stroke="white" stroke-width="1.5" d="M0,-3.0v7 M-2.5,-0.5L0,-3.0L2.5,-0.5"/>
                </g>
                <g id="arrowLeft" xlink:href="#dirArrow" transform="rotate(270) translate(-36 17)" onmousedown="handlePan(-1,0)">
                  <use xlink:href="#rim" fill="#404040">
                        <set attributeName="fill" to="#808080" begin="arrowLeft.mouseover" end="arrowLeft.mouseout"/>
                  </use>
                  <path fill="none" stroke="white" stroke-width="1.5" d="M0,-3.0v7 M-2.5,-0.5L0,-3.0L2.5,-0.5"/>
                </g>
        </g>
        <svg viewBox="0 0 15 15" width="100%" height="30px" preserveAspectRatio="xMaxYMin meet">
         <g id="arrow_out" transform="scale(0.3 0.3)">
          <a xlink:href="doublebufferedresource_8h__dep__incl_org.svg" target="_base">
           <rect id="button" ry="5" rx="5" y="6" x="6" height="38" width="38"
                fill="#f2f5e9" fill-opacity="0.5" stroke="#606060" stroke-width="1.0"/>
           <path id="arrow"
             d="M 11.500037,31.436501 C 11.940474,20.09759 22.043105,11.32322 32.158766,21.979434 L 37.068811,17.246167 C 37.068811,17.246167 37.088388,32 37.088388,32 L 22.160133,31.978069 C 22.160133,31.978069 26.997745,27.140456 26.997745,27.140456 C 18.528582,18.264221 13.291696,25.230495 11.500037,31.436501 z"
             style="fill:#404040;"/>
          </a>
         </g>
        </svg>
</svg>
