<?xml version="1.0" encoding="UTF-8" standalone="no"?>
<!DOCTYPE svg PUBLIC "-//W3C//DTD SVG 1.1//EN"
 "http://www.w3.org/Graphics/SVG/1.1/DTD/svg11.dtd">
<!-- Generated by graphviz version 2.26.3 (20100126.1600)
 -->
<!-- Title: G Pages: 1 -->
<!--zoomable 272 -->
<svg id="main" version="1.1" xmlns="http://www.w3.org/2000/svg" xmlns:xlink="http://www.w3.org/1999/xlink" xml:space="preserve" onload="init(evt)">
        <defs>
                <circle id="rim" cx="0" cy="0" r="7"/>
                <circle id="rim2" cx="0" cy="0" r="3.5"/>
                <g id="zoomPlus">
                        <use xlink:href="#rim" fill="#404040">
                                <set attributeName="fill" to="#808080" begin="zoomplus.mouseover" end="zoomplus.mouseout"/>
                        </use>
                        <path d="M-4,0h8M0,-4v8" fill="none" stroke="white" stroke-width="1.5" pointer-events="none"/>
                </g>
                <g id="zoomMin">
                        <use xlink:href="#rim" fill="#404040">
                                <set attributeName="fill" to="#808080" begin="zoomminus.mouseover" end="zoomminus.mouseout"/>
                        </use>
                        <path d="M-4,0h8" fill="none" stroke="white" stroke-width="1.5" pointer-events="none"/>
                </g>
                <g id="dirArrow">
                        <path fill="none" stroke="white" stroke-width="1.5" d="M0,-3.0v7 M-2.5,-0.5L0,-3.0L2.5,-0.5"/>
                </g>
               <g id="resetDef">
                       <use xlink:href="#rim2" fill="#404040">
                               <set attributeName="fill" to="#808080" begin="reset.mouseover" end="reset.mouseout"/>
                       </use>
               </g>
        </defs>

<script type="text/javascript">
var viewWidth = 704;
var viewHeight = 272;
var sectionId = 'dynsection-1';
</script>
<script xlink:href="svgpan.js"/>
<svg id="graph" class="graph">
<g id="viewport">
<title>G</title>
<polygon fill="white" stroke="white" points="-4,5 -4,-268 701,-268 701,5 -4,5"/>
<!-- Node1 -->
<g id="node1" class="node"><title>Node1</title>
<polygon fill="#bfbfbf" stroke="black" points="232.5,-241 232.5,-263 363.5,-263 363.5,-241 232.5,-241"/>
<text text-anchor="middle" x="298" y="-250" font-family="FreeSans" font-size="10.00">doublebufferedresource.h</text>
</g>
<!-- Node2 -->
<g id="node3" class="node"><title>Node2</title>
<a xlink:href="dagframescheduler_8h.html" target="_top" xlink:title="This is the file that code using this library should include. It includes all the required components...">
<polygon fill="white" stroke="black" points="214,-1 214,-23 326,-23 326,-1 214,-1"/>
<text text-anchor="middle" x="270" y="-10" font-family="FreeSans" font-size="10.00">dagframescheduler.h</text>
</a>
</g>
<!-- Node1&#45;&gt;Node2 -->
<g id="edge2" class="edge"><title>Node1&#45;&gt;Node2</title>
<path fill="none" stroke="midnightblue" d="M280.299,-233.259C254.098,-204.085 206.138,-144.813 188,-84 184.951,-73.7783 182.694,-69.2535 188,-60 198.092,-42.3982 217.416,-30.6298 234.771,-23.1527"/>
<polygon fill="midnightblue" stroke="midnightblue" points="278.041,-235.976 287.373,-240.992 283.205,-231.251 278.041,-235.976"/>
</g>
<!-- Node3 -->
<g id="node5" class="node"><title>Node3</title>
<a xlink:href="frameschedulerworkunits_8h.html" target="_top" xlink:title="This defines a number of workunits that are required for doing some tasks that the Framescheduler req...">
<polygon fill="white" stroke="black" points="5,-61 5,-83 141,-83 141,-61 5,-61"/>
<text text-anchor="middle" x="73" y="-70" font-family="FreeSans" font-size="10.00">frameschedulerworkunits.h</text>
</a>
</g>
<!-- Node1&#45;&gt;Node3 -->
<g id="edge4" class="edge"><title>Node1&#45;&gt;Node3</title>
<path fill="none" stroke="midnightblue" d="M225.79,-238.204C201.489,-230.979 175.396,-220.138 155,-204 112.475,-170.352 86.177,-108.168 76.8399,-83.0011"/>
<polygon fill="midnightblue" stroke="midnightblue" points="225.138,-241.657 235.712,-240.989 227.03,-234.917 225.138,-241.657"/>
</g>
<!-- Node5 -->
<g id="node10" class="node"><title>Node5</title>
<a xlink:href="framescheduler_8cpp.html" target="_top" xlink:title="This is the core object implementation for this algorithm.">
<polygon fill="white" stroke="black" points="592,-1 592,-23 696,-23 696,-1 592,-1"/>
<text text-anchor="middle" x="644" y="-10" font-family="FreeSans" font-size="10.00">framescheduler.cpp</text>
</a>
</g>
<!-- Node1&#45;&gt;Node5 -->
<g id="edge10" class="edge"><title>Node1&#45;&gt;Node5</title>
<path fill="none" stroke="midnightblue" d="M373.865,-241.709C408.764,-234.678 449.708,-223.045 483,-204 548.469,-166.547 557.263,-143.975 603,-84 618.265,-63.9834 631.819,-37.6876 638.868,-23.0512"/>
<polygon fill="midnightblue" stroke="midnightblue" points="372.879,-238.334 363.72,-243.659 374.201,-245.208 372.879,-238.334"/>
</g>
<!-- Node6 -->
<g id="node12" class="node"><title>Node6</title>
<a xlink:href="framescheduler_8h.html" target="_top" xlink:title="This file has the Declarations for the main FrameScheduler class.">
<polygon fill="white" stroke="black" points="380,-181 380,-203 474,-203 474,-181 380,-181"/>
<text text-anchor="middle" x="427" y="-190" font-family="FreeSans" font-size="10.00">framescheduler.h</text>
</a>
</g>
<!-- Node1&#45;&gt;Node6 -->
<g id="edge12" class="edge"><title>Node1&#45;&gt;Node6</title>
<path fill="none" stroke="midnightblue" d="M330.846,-236.723C353.365,-226.249 382.728,-212.592 403.053,-203.138"/>
<polygon fill="midnightblue" stroke="midnightblue" points="329.252,-233.604 321.661,-240.995 332.204,-239.951 329.252,-233.604"/>
</g>
<!-- Node3&#45;&gt;Node2 -->
<g id="edge6" class="edge"><title>Node3&#45;&gt;Node2</title>
<path fill="none" stroke="midnightblue" d="M119.1,-57.9594C154.074,-47.3076 201.48,-32.869 233.763,-23.0366"/>
<polygon fill="midnightblue" stroke="midnightblue" points="117.679,-54.7333 109.133,-60.9951 119.719,-61.4296 117.679,-54.7333"/>
</g>
<!-- Node4 -->
<g id="node8" class="node"><title>Node4</title>
<a xlink:href="frameschedulerworkunits_8cpp.html" target="_top" xlink:title="The implementation of any workunits the framescheduler needs to work correctly.">
<polygon fill="white" stroke="black" points="0,-1 0,-23 146,-23 146,-1 0,-1"/>
<text text-anchor="middle" x="73" y="-10" font-family="FreeSans" font-size="10.00">frameschedulerworkunits.cpp</text>
</a>
</g>
<!-- Node3&#45;&gt;Node4 -->
<g id="edge8" class="edge"><title>Node3&#45;&gt;Node4</title>
<path fill="none" stroke="midnightblue" d="M73,-50.9183C73,-41.6393 73,-31.1082 73,-23.3428"/>
<polygon fill="midnightblue" stroke="midnightblue" points="69.5001,-50.995 73,-60.9951 76.5001,-50.9951 69.5001,-50.995"/>
</g>
<!-- Node6&#45;&gt;Node2 -->
<g id="edge36" class="edge"><title>Node6&#45;&gt;Node2</title>
<path fill="none" stroke="midnightblue" d="M435.16,-171.079C444.67,-142.865 456.211,-92.4253 432,-60 424.936,-50.5395 362.683,-33.9934 317.451,-23.016"/>
<polygon fill="midnightblue" stroke="midnightblue" points="431.784,-170.126 431.694,-180.721 438.371,-172.495 431.784,-170.126"/>
</g>
<!-- Node6&#45;&gt;Node5 -->
<g id="edge38" class="edge"><title>Node6&#45;&gt;Node5</title>
<path fill="none" stroke="midnightblue" d="M453.682,-175.351C484.866,-155.353 537.374,-119.982 578,-84 600.214,-64.3246 622.899,-37.9035 635.031,-23.1537"/>
<polygon fill="midnightblue" stroke="midnightblue" points="451.66,-172.488 445.102,-180.809 455.418,-178.394 451.66,-172.488"/>
</g>
<!-- Node7 -->
<g id="node14" class="node"><title>Node7</title>
<a xlink:href="workunit_8h.html" target="_top" xlink:title="This file has the defintion of the workunit.">
<polygon fill="white" stroke="black" points="350.5,-121 350.5,-143 411.5,-143 411.5,-121 350.5,-121"/>
<text text-anchor="middle" x="381" y="-130" font-family="FreeSans" font-size="10.00">workunit.h</text>
</a>
</g>
<!-- Node6&#45;&gt;Node7 -->
<g id="edge14" class="edge"><title>Node6&#45;&gt;Node7</title>
<path fill="none" stroke="midnightblue" d="M412.443,-173.013C404.964,-163.258 396.103,-151.699 389.696,-143.343"/>
<polygon fill="midnightblue" stroke="midnightblue" points="409.701,-175.189 418.563,-180.995 415.256,-170.929 409.701,-175.189"/>
</g>
<!-- Node7&#45;&gt;Node2 -->
<g id="edge32" class="edge"><title>Node7&#45;&gt;Node2</title>
<path fill="none" stroke="midnightblue" d="M400.59,-113.579C414.29,-98.4205 428.145,-76.7777 416,-60 404.931,-44.7085 361.493,-31.6566 324.851,-23.0402"/>
<polygon fill="midnightblue" stroke="midnightblue" points="397.997,-111.225 393.578,-120.854 403.038,-116.083 397.997,-111.225"/>
</g>
<!-- Node7&#45;&gt;Node3 -->
<g id="edge30" class="edge"><title>Node7&#45;&gt;Node3</title>
<path fill="none" stroke="midnightblue" d="M340.438,-124.098C286.415,-113.574 190.582,-94.9056 129.503,-83.0071"/>
<polygon fill="midnightblue" stroke="midnightblue" points="339.857,-127.551 350.342,-126.028 341.196,-120.68 339.857,-127.551"/>
</g>
<!-- Node8 -->
<g id="node16" class="node"><title>Node8</title>
<a xlink:href="monopoly_8h.html" target="_top" xlink:title="Contains an interface for a kind of WorkUnit that consumes time on multiple thread.">
<polygon fill="white" stroke="black" points="501,-61 501,-83 569,-83 569,-61 501,-61"/>
<text text-anchor="middle" x="535" y="-70" font-family="FreeSans" font-size="10.00">monopoly.h</text>
</a>
</g>
<!-- Node7&#45;&gt;Node8 -->
<g id="edge16" class="edge"><title>Node7&#45;&gt;Node8</title>
<path fill="none" stroke="midnightblue" d="M418.811,-117.269C445.962,-106.69 481.978,-92.658 506.673,-83.0366"/>
<polygon fill="midnightblue" stroke="midnightblue" points="417.293,-114.103 409.246,-120.995 419.834,-120.626 417.293,-114.103"/>
</g>
<!-- Node11 -->
<g id="node24" class="node"><title>Node11</title>
<a xlink:href="asynchronousworkunit_8h.html" target="_top" xlink:title="Contains an interface for a kind of WorkUnit that.">
<polygon fill="white" stroke="black" points="284.5,-61 284.5,-83 407.5,-83 407.5,-61 284.5,-61"/>
<text text-anchor="middle" x="346" y="-70" font-family="FreeSans" font-size="10.00">asynchronousworkunit.h</text>
</a>
</g>
<!-- Node7&#45;&gt;Node11 -->
<g id="edge26" class="edge"><title>Node7&#45;&gt;Node11</title>
<path fill="none" stroke="midnightblue" d="M369.404,-112.121C363.827,-102.56 357.343,-91.4459 352.617,-83.3428"/>
<polygon fill="midnightblue" stroke="midnightblue" points="366.518,-114.121 374.58,-120.995 372.565,-110.594 366.518,-114.121"/>
</g>
<!-- Node12 -->
<g id="node29" class="node"><title>Node12</title>
<a xlink:href="workunit_8cpp.html" target="_top" xlink:title="This file has the implementation of the workunit.">
<polygon fill="white" stroke="black" points="196.5,-61 196.5,-83 267.5,-83 267.5,-61 196.5,-61"/>
<text text-anchor="middle" x="232" y="-70" font-family="FreeSans" font-size="10.00">workunit.cpp</text>
</a>
</g>
<!-- Node7&#45;&gt;Node12 -->
<g id="edge34" class="edge"><title>Node7&#45;&gt;Node12</title>
<path fill="none" stroke="midnightblue" d="M344.071,-117.129C317.841,-106.567 283.196,-92.6158 259.408,-83.0366"/>
<polygon fill="midnightblue" stroke="midnightblue" points="343.088,-120.506 353.671,-120.995 345.702,-114.013 343.088,-120.506"/>
</g>
<!-- Node8&#45;&gt;Node2 -->
<g id="edge20" class="edge"><title>Node8&#45;&gt;Node2</title>
<path fill="none" stroke="midnightblue" d="M490.858,-60.9157C489.558,-60.605 488.27,-60.2991 487,-60 430.665,-46.7302 365.847,-32.5315 321.827,-23.0482"/>
<polygon fill="midnightblue" stroke="midnightblue" points="490.396,-64.4052 500.939,-63.363 492.047,-57.6028 490.396,-64.4052"/>
</g>
<!-- Node8&#45;&gt;Node5 -->
<g id="edge22" class="edge"><title>Node8&#45;&gt;Node5</title>
<path fill="none" stroke="midnightblue" d="M563.778,-56.1586C582.665,-45.7625 606.899,-32.4228 623.765,-23.1383"/>
<polygon fill="midnightblue" stroke="midnightblue" points="562.065,-53.1066 554.992,-60.9951 565.441,-59.2389 562.065,-53.1066"/>
</g>
<!-- Node9 -->
<g id="node18" class="node"><title>Node9</title>
<a xlink:href="asynchronousworkunit_8cpp.html" target="_top" xlink:title="Contains the minimal implementation for the monopoly base class.">
<polygon fill="white" stroke="black" points="344,-1 344,-23 478,-23 478,-1 344,-1"/>
<text text-anchor="middle" x="411" y="-10" font-family="FreeSans" font-size="10.00">asynchronousworkunit.cpp</text>
</a>
</g>
<!-- Node8&#45;&gt;Node9 -->
<g id="edge18" class="edge"><title>Node8&#45;&gt;Node9</title>
<path fill="none" stroke="midnightblue" d="M503.137,-56.5823C481.529,-46.1271 453.469,-32.5494 434.019,-23.1383"/>
<polygon fill="midnightblue" stroke="midnightblue" points="501.73,-59.79 512.256,-60.9951 504.779,-53.4888 501.73,-59.79"/>
</g>
<!-- Node10 -->
<g id="node22" class="node"><title>Node10</title>
<a xlink:href="monopoly_8cpp.html" target="_top" xlink:title="Contains the minimal implementation for the monopoly base class.">
<polygon fill="white" stroke="black" points="495.5,-1 495.5,-23 574.5,-23 574.5,-1 495.5,-1"/>
<text text-anchor="middle" x="535" y="-10" font-family="FreeSans" font-size="10.00">monopoly.cpp</text>
</a>
</g>
<!-- Node8&#45;&gt;Node10 -->
<g id="edge24" class="edge"><title>Node8&#45;&gt;Node10</title>
<path fill="none" stroke="midnightblue" d="M535,-50.9183C535,-41.6393 535,-31.1082 535,-23.3428"/>
<polygon fill="midnightblue" stroke="midnightblue" points="531.5,-50.995 535,-60.9951 538.5,-50.9951 531.5,-50.995"/>
</g>
<!-- Node11&#45;&gt;Node2 -->
<g id="edge28" class="edge"><title>Node11&#45;&gt;Node2</title>
<path fill="none" stroke="midnightblue" d="M324.116,-54.7234C311.24,-44.5582 295.334,-32.0008 284.109,-23.1383"/>
<polygon fill="midnightblue" stroke="midnightblue" points="322.043,-57.5457 332.06,-60.9951 326.38,-52.0515 322.043,-57.5457"/>
</g>
</g>
</svg>
        <g id="navigator" transform="translate(0 0)" fill="#404254">
                <rect fill="#f2f5e9" fill-opacity="0.5" stroke="#606060" stroke-width=".5" x="0" y="0" width="60" height="60"/>
                <use id="zoomplus" xlink:href="#zoomPlus" x="17" y="9" onmousedown="handleZoom(evt,'in')"/>
                <use id="zoomminus" xlink:href="#zoomMin" x="42" y="9" onmousedown="handleZoom(evt,'out')"/>
                <use id="reset" xlink:href="#resetDef" x="30" y="36" onmousedown="handleReset()"/>
                <g id="arrowUp" xlink:href="#dirArrow" transform="translate(30 24)" onmousedown="handlePan(0,-1)">
                  <use xlink:href="#rim" fill="#404040">
                        <set attributeName="fill" to="#808080" begin="arrowUp.mouseover" end="arrowUp.mouseout"/>
                  </use>
                  <path fill="none" stroke="white" stroke-width="1.5" d="M0,-3.0v7 M-2.5,-0.5L0,-3.0L2.5,-0.5"/>
                </g>
                <g id="arrowRight" xlink:href="#dirArrow" transform="rotate(90) translate(36 -43)" onmousedown="handlePan(1,0)">
                  <use xlink:href="#rim" fill="#404040">
                        <set attributeName="fill" to="#808080" begin="arrowRight.mouseover" end="arrowRight.mouseout"/>
                  </use>
                  <path fill="none" stroke="white" stroke-width="1.5" d="M0,-3.0v7 M-2.5,-0.5L0,-3.0L2.5,-0.5"/>
                </g>
                <g id="arrowDown" xlink:href="#dirArrow" transform="rotate(180) translate(-30 -48)" onmousedown="handlePan(0,1)">
                  <use xlink:href="#rim" fill="#404040">
                        <set attributeName="fill" to="#808080" begin="arrowDown.mouseover" end="arrowDown.mouseout"/>
                  </use>
                  <path fill="none" stroke="white" stroke-width="1.5" d="M0,-3.0v7 M-2.5,-0.5L0,-3.0L2.5,-0.5"/>
                </g>
                <g id="arrowLeft" xlink:href="#dirArrow" transform="rotate(270) translate(-36 17)" onmousedown="handlePan(-1,0)">
                  <use xlink:href="#rim" fill="#404040">
                        <set attributeName="fill" to="#808080" begin="arrowLeft.mouseover" end="arrowLeft.mouseout"/>
                  </use>
                  <path fill="none" stroke="white" stroke-width="1.5" d="M0,-3.0v7 M-2.5,-0.5L0,-3.0L2.5,-0.5"/>
                </g>
        </g>
</svg>
