<?xml version="1.0" encoding="UTF-8" standalone="no"?>
<!DOCTYPE svg PUBLIC "-//W3C//DTD SVG 1.1//EN"
 "http://www.w3.org/Graphics/SVG/1.1/DTD/svg11.dtd">
<!-- Generated by graphviz version 2.26.3 (20100126.1600)
 -->
<!-- Title: doublebufferedresource.h Pages: 1 -->
<svg width="388pt" height="146pt"
 viewBox="0.00 0.00 388.00 146.00" xmlns="http://www.w3.org/2000/svg" xmlns:xlink="http://www.w3.org/1999/xlink">
<g id="graph1" class="graph" transform="scale(1 1) rotate(0) translate(4 142)">
<title>doublebufferedresource.h</title>
<polygon fill="white" stroke="white" points="-4,5 -4,-142 385,-142 385,5 -4,5"/>
<!-- Node1 -->
<g id="node1" class="node"><title>Node1</title>
<polygon fill="#bfbfbf" stroke="black" points="197.5,-117 197.5,-137 320.5,-137 320.5,-117 197.5,-117"/>
<text text-anchor="middle" x="259" y="-124" font-family="FreeSans" font-size="10.00">doublebufferedresource.h</text>
</g>
<!-- Node2 -->
<g id="node3" class="node"><title>Node2</title>
<a xlink:href="datatypes_8h.html" target="_top" xlink:title="This file declares a few typedefs to allow flexibility, in case a change is required/desired.">
<polygon fill="white" stroke="black" points="113.5,-59 113.5,-79 178.5,-79 178.5,-59 113.5,-59"/>
<text text-anchor="middle" x="146" y="-66" font-family="FreeSans" font-size="10.00">datatypes.h</text>
</a>
</g>
<!-- Node1&#45;&gt;Node2 -->
<g id="edge2" class="edge"><title>Node1&#45;&gt;Node2</title>
<path fill="none" stroke="midnightblue" d="M239.317,-116.897C221.521,-107.763 195.095,-94.1991 174.902,-83.8348"/>
<polygon fill="midnightblue" stroke="midnightblue" points="176.331,-80.6343 165.837,-79.1817 173.135,-86.8619 176.331,-80.6343"/>
</g>
<!-- Node6 -->
<g id="node11" class="node"><title>Node6</title>
<polygon fill="white" stroke="#bfbfbf" points="196,-59 196,-79 252,-79 252,-59 196,-59"/>
<text text-anchor="middle" x="224" y="-66" font-family="FreeSans" font-size="10.00">algorithm</text>
</g>
<!-- Node1&#45;&gt;Node6 -->
<g id="edge10" class="edge"><title>Node1&#45;&gt;Node6</title>
<path fill="none" stroke="midnightblue" d="M252.903,-116.897C248.095,-108.928 241.251,-97.5874 235.43,-87.9413"/>
<polygon fill="midnightblue" stroke="midnightblue" points="238.426,-86.1311 230.262,-79.3776 232.432,-89.7478 238.426,-86.1311"/>
</g>
<!-- Node7 -->
<g id="node13" class="node"><title>Node7</title>
<polygon fill="white" stroke="#bfbfbf" points="270,-59 270,-79 320,-79 320,-59 270,-59"/>
<text text-anchor="middle" x="295" y="-66" font-family="FreeSans" font-size="10.00">sstream</text>
</g>
<!-- Node1&#45;&gt;Node7 -->
<g id="edge12" class="edge"><title>Node1&#45;&gt;Node7</title>
<path fill="none" stroke="midnightblue" d="M265.271,-116.897C270.217,-108.928 277.256,-97.5874 283.243,-87.9413"/>
<polygon fill="midnightblue" stroke="midnightblue" points="286.259,-89.7198 288.559,-79.3776 280.311,-86.0282 286.259,-89.7198"/>
</g>
<!-- Node8 -->
<g id="node15" class="node"><title>Node8</title>
<polygon fill="white" stroke="#bfbfbf" points="337.5,-59 337.5,-79 380.5,-79 380.5,-59 337.5,-59"/>
<text text-anchor="middle" x="359" y="-66" font-family="FreeSans" font-size="10.00">vector</text>
</g>
<!-- Node1&#45;&gt;Node8 -->
<g id="edge14" class="edge"><title>Node1&#45;&gt;Node8</title>
<path fill="none" stroke="midnightblue" d="M276.419,-116.897C291.953,-107.887 314.92,-94.5665 332.692,-84.2586"/>
<polygon fill="midnightblue" stroke="midnightblue" points="334.551,-87.2265 341.445,-79.1817 331.039,-81.1713 334.551,-87.2265"/>
</g>
<!-- Node3 -->
<g id="node5" class="node"><title>Node3</title>
<a xlink:href="crossplatformexport_8h.html" target="_top" xlink:title="This file determines what features are offered by the compiler that this library can take advantage o...">
<polygon fill="white" stroke="black" points="0,-1 0,-21 108,-21 108,-1 0,-1"/>
<text text-anchor="middle" x="54" y="-8" font-family="FreeSans" font-size="10.00">crossplatformexport.h</text>
</a>
</g>
<!-- Node2&#45;&gt;Node3 -->
<g id="edge4" class="edge"><title>Node2&#45;&gt;Node3</title>
<path fill="none" stroke="midnightblue" d="M129.975,-58.8972C115.814,-49.9698 94.9409,-36.8106 78.6545,-26.5431"/>
<polygon fill="midnightblue" stroke="midnightblue" points="80.4761,-23.554 70.1502,-21.1817 76.7429,-29.4755 80.4761,-23.554"/>
</g>
<!-- Node4 -->
<g id="node7" class="node"><title>Node4</title>
<polygon fill="white" stroke="#bfbfbf" points="126,-1 126,-21 166,-21 166,-1 126,-1"/>
<text text-anchor="middle" x="146" y="-8" font-family="FreeSans" font-size="10.00">string</text>
</g>
<!-- Node2&#45;&gt;Node4 -->
<g id="edge6" class="edge"><title>Node2&#45;&gt;Node4</title>
<path fill="none" stroke="midnightblue" d="M146,-58.8972C146,-51.339 146,-40.7476 146,-31.4458"/>
<polygon fill="midnightblue" stroke="midnightblue" points="149.5,-31.3776 146,-21.3776 142.5,-31.3776 149.5,-31.3776"/>
</g>
<!-- Node5 -->
<g id="node9" class="node"><title>Node5</title>
<polygon fill="white" stroke="#bfbfbf" points="183.5,-1 183.5,-21 230.5,-21 230.5,-1 183.5,-1"/>
<text text-anchor="middle" x="207" y="-8" font-family="FreeSans" font-size="10.00">stdint.h</text>
</g>
<!-- Node2&#45;&gt;Node5 -->
<g id="edge8" class="edge"><title>Node2&#45;&gt;Node5</title>
<path fill="none" stroke="midnightblue" d="M156.625,-58.8972C165.439,-50.5175 178.173,-38.4093 188.633,-28.4638"/>
<polygon fill="midnightblue" stroke="midnightblue" points="191.25,-30.8047 196.086,-21.3776 186.427,-25.7318 191.25,-30.8047"/>
</g>
</g>
</svg>
