<?xml version="1.0" encoding="UTF-8" standalone="no"?>
<!DOCTYPE svg PUBLIC "-//W3C//DTD SVG 1.1//EN"
 "http://www.w3.org/Graphics/SVG/1.1/DTD/svg11.dtd">
<!-- Generated by graphviz version 2.26.3 (20100126.1600)
 -->
<!-- Title: G Pages: 1 -->
<!--zoomable 272 -->
<svg id="main" version="1.1" xmlns="http://www.w3.org/2000/svg" xmlns:xlink="http://www.w3.org/1999/xlink" xml:space="preserve" onload="init(evt)">
        <defs>
                <circle id="rim" cx="0" cy="0" r="7"/>
                <circle id="rim2" cx="0" cy="0" r="3.5"/>
                <g id="zoomPlus">
                        <use xlink:href="#rim" fill="#404040">
                                <set attributeName="fill" to="#808080" begin="zoomplus.mouseover" end="zoomplus.mouseout"/>
                        </use>
                        <path d="M-4,0h8M0,-4v8" fill="none" stroke="white" stroke-width="1.5" pointer-events="none"/>
                </g>
                <g id="zoomMin">
                        <use xlink:href="#rim" fill="#404040">
                                <set attributeName="fill" to="#808080" begin="zoomminus.mouseover" end="zoomminus.mouseout"/>
                        </use>
                        <path d="M-4,0h8" fill="none" stroke="white" stroke-width="1.5" pointer-events="none"/>
                </g>
                <g id="dirArrow">
                        <path fill="none" stroke="white" stroke-width="1.5" d="M0,-3.0v7 M-2.5,-0.5L0,-3.0L2.5,-0.5"/>
                </g>
               <g id="resetDef">
                       <use xlink:href="#rim2" fill="#404040">
                               <set attributeName="fill" to="#808080" begin="reset.mouseover" end="reset.mouseout"/>
                       </use>
               </g>
        </defs>

<script type="text/javascript">
var viewWidth = 743;
var viewHeight = 272;
var sectionId = 'dynsection-1';
</script>
<script xlink:href="svgpan.js"/>
<svg id="graph" class="graph">
<g id="viewport">
<title>G</title>
<polygon fill="white" stroke="white" points="-4,5 -4,-268 740.351,-268 740.351,5 -4,5"/>
<!-- Node1 -->
<g id="node1" class="node"><title>Node1</title>
<polygon fill="#bfbfbf" stroke="black" points="231.5,-241 231.5,-263 362.5,-263 362.5,-241 231.5,-241"/>
<text text-anchor="middle" x="297" y="-250" font-family="FreeSans" font-size="10.00">doublebufferedresource.h</text>
</g>
<!-- Node2 -->
<g id="node3" class="node"><title>Node2</title>
<a xlink:href="monopoly_8h.html" target="_top" xlink:title="Contains an interface for a kind of WorkUnit that consumes time on multiple thread.">
<polygon fill="white" stroke="black" points="156,-61 156,-83 224,-83 224,-61 156,-61"/>
<text text-anchor="middle" x="190" y="-70" font-family="FreeSans" font-size="10.00">monopoly.h</text>
</a>
</g>
<!-- Node1&#45;&gt;Node2 -->
<g id="edge2" class="edge"><title>Node1&#45;&gt;Node2</title>
<path fill="none" stroke="midnightblue" d="M249.615,-236.919C233.633,-229.498 217.264,-218.86 207,-204 180.868,-166.167 185.091,-107.39 188.267,-83.091"/>
<polygon fill="midnightblue" stroke="midnightblue" points="248.361,-240.19 258.93,-240.925 251.126,-233.759 248.361,-240.19"/>
</g>
<!-- Node4 -->
<g id="node7" class="node"><title>Node4</title>
<a xlink:href="dagframescheduler_8h.html" target="_top" xlink:title="This is the file that code using this library should include. It includes all the required components...">
<polygon fill="white" stroke="black" points="370,-1 370,-23 482,-23 482,-1 370,-1"/>
<text text-anchor="middle" x="426" y="-10" font-family="FreeSans" font-size="10.00">dagframescheduler.h</text>
</a>
</g>
<!-- Node1&#45;&gt;Node4 -->
<g id="edge38" class="edge"><title>Node1&#45;&gt;Node4</title>
<path fill="none" stroke="midnightblue" d="M268.315,-235.041C257.669,-227.09 246.784,-216.576 241,-204 236.543,-194.309 237.822,-190.182 241,-180 260.322,-118.098 274.517,-101.913 324,-60 343.713,-43.3028 370.215,-31.0629 391.265,-23.1229"/>
<polygon fill="midnightblue" stroke="midnightblue" points="266.489,-238.034 276.7,-240.859 270.479,-232.282 266.489,-238.034"/>
</g>
<!-- Node5 -->
<g id="node9" class="node"><title>Node5</title>
<a xlink:href="framescheduler_8cpp.html" target="_top" xlink:title="This is the core object implementation for this algorithm.">
<polygon fill="white" stroke="black" points="0,-1 0,-23 104,-23 104,-1 0,-1"/>
<text text-anchor="middle" x="52" y="-10" font-family="FreeSans" font-size="10.00">framescheduler.cpp</text>
</a>
</g>
<!-- Node1&#45;&gt;Node5 -->
<g id="edge40" class="edge"><title>Node1&#45;&gt;Node5</title>
<path fill="none" stroke="midnightblue" d="M251.964,-237.302C232.232,-229.442 209.611,-218.381 192,-204 124.897,-149.205 73.6772,-55.1089 57.4366,-23.0622"/>
<polygon fill="midnightblue" stroke="midnightblue" points="250.794,-240.601 261.384,-240.903 253.294,-234.063 250.794,-240.601"/>
</g>
<!-- Node7 -->
<g id="node13" class="node"><title>Node7</title>
<a xlink:href="framescheduler_8h.html" target="_top" xlink:title="This file has the Declarations for the main FrameScheduler class.">
<polygon fill="white" stroke="black" points="250,-181 250,-203 344,-203 344,-181 250,-181"/>
<text text-anchor="middle" x="297" y="-190" font-family="FreeSans" font-size="10.00">framescheduler.h</text>
</a>
</g>
<!-- Node1&#45;&gt;Node7 -->
<g id="edge12" class="edge"><title>Node1&#45;&gt;Node7</title>
<path fill="none" stroke="midnightblue" d="M297,-230.918C297,-221.639 297,-211.108 297,-203.343"/>
<polygon fill="midnightblue" stroke="midnightblue" points="293.5,-230.995 297,-240.995 300.5,-230.995 293.5,-230.995"/>
</g>
<!-- Node9 -->
<g id="node18" class="node"><title>Node9</title>
<a xlink:href="asynchronousworkunit_8h.html" target="_top" xlink:title="Contains an interface for a kind of WorkUnit that loads or writes a.">
<polygon fill="white" stroke="black" points="511.5,-61 511.5,-83 634.5,-83 634.5,-61 511.5,-61"/>
<text text-anchor="middle" x="573" y="-70" font-family="FreeSans" font-size="10.00">asynchronousworkunit.h</text>
</a>
</g>
<!-- Node1&#45;&gt;Node9 -->
<g id="edge36" class="edge"><title>Node1&#45;&gt;Node9</title>
<path fill="none" stroke="midnightblue" d="M322.876,-235.125C378.761,-198.677 509.458,-113.44 556.094,-83.0257"/>
<polygon fill="midnightblue" stroke="midnightblue" points="320.729,-232.346 314.265,-240.74 324.553,-238.209 320.729,-232.346"/>
</g>
<!-- Node11 -->
<g id="node24" class="node"><title>Node11</title>
<a xlink:href="frameschedulerworkunits_8cpp.html" target="_top" xlink:title="The implementation of any workunits the framescheduler needs to work correctly.">
<polygon fill="white" stroke="black" points="588,-1 588,-23 734,-23 734,-1 588,-1"/>
<text text-anchor="middle" x="661" y="-10" font-family="FreeSans" font-size="10.00">frameschedulerworkunits.cpp</text>
</a>
</g>
<!-- Node1&#45;&gt;Node11 -->
<g id="edge42" class="edge"><title>Node1&#45;&gt;Node11</title>
<path fill="none" stroke="midnightblue" d="M353.868,-238.553C461.361,-211.846 687.514,-149.056 731,-84 747.276,-59.6501 712.044,-36.2516 685.898,-23.0425"/>
<polygon fill="midnightblue" stroke="midnightblue" points="353.028,-235.156 344.157,-240.948 354.704,-241.952 353.028,-235.156"/>
</g>
<!-- Node12 -->
<g id="node27" class="node"><title>Node12</title>
<a xlink:href="workunit_8cpp.html" target="_top" xlink:title="This file has the implementation of the workunit.">
<polygon fill="white" stroke="black" points="651.5,-61 651.5,-83 722.5,-83 722.5,-61 651.5,-61"/>
<text text-anchor="middle" x="687" y="-70" font-family="FreeSans" font-size="10.00">workunit.cpp</text>
</a>
</g>
<!-- Node1&#45;&gt;Node12 -->
<g id="edge44" class="edge"><title>Node1&#45;&gt;Node12</title>
<path fill="none" stroke="midnightblue" d="M330.49,-236.741C351.121,-227.329 378.107,-214.994 402,-204 498.843,-159.438 613.984,-105.956 662.997,-83.1659"/>
<polygon fill="midnightblue" stroke="midnightblue" points="328.85,-233.642 321.204,-240.976 331.755,-240.011 328.85,-233.642"/>
</g>
<!-- Node3 -->
<g id="node5" class="node"><title>Node3</title>
<a xlink:href="asynchronousworkunit_8cpp.html" target="_top" xlink:title="Contains the minimal implementation for the monopoly base class.">
<polygon fill="white" stroke="black" points="122,-1 122,-23 256,-23 256,-1 122,-1"/>
<text text-anchor="middle" x="189" y="-10" font-family="FreeSans" font-size="10.00">asynchronousworkunit.cpp</text>
</a>
</g>
<!-- Node2&#45;&gt;Node3 -->
<g id="edge4" class="edge"><title>Node2&#45;&gt;Node3</title>
<path fill="none" stroke="midnightblue" d="M189.649,-50.9183C189.494,-41.6393 189.318,-31.1082 189.189,-23.3428"/>
<polygon fill="midnightblue" stroke="midnightblue" points="186.15,-51.0548 189.817,-60.9951 193.149,-50.9381 186.15,-51.0548"/>
</g>
<!-- Node2&#45;&gt;Node4 -->
<g id="edge6" class="edge"><title>Node2&#45;&gt;Node4</title>
<path fill="none" stroke="midnightblue" d="M233.847,-60.8524C276.347,-50.0475 340.423,-33.7568 382.727,-23.0017"/>
<polygon fill="midnightblue" stroke="midnightblue" points="232.894,-57.4834 224.064,-63.3396 234.618,-64.2676 232.894,-57.4834"/>
</g>
<!-- Node2&#45;&gt;Node5 -->
<g id="edge8" class="edge"><title>Node2&#45;&gt;Node5</title>
<path fill="none" stroke="midnightblue" d="M155.506,-57.0025C131.334,-46.4931 99.5549,-32.676 77.6182,-23.1383"/>
<polygon fill="midnightblue" stroke="midnightblue" points="154.122,-60.2175 164.689,-60.9951 156.914,-53.798 154.122,-60.2175"/>
</g>
<!-- Node6 -->
<g id="node11" class="node"><title>Node6</title>
<a xlink:href="monopoly_8cpp.html" target="_top" xlink:title="Contains the minimal implementation for the monopoly base class.">
<polygon fill="white" stroke="black" points="273.5,-1 273.5,-23 352.5,-23 352.5,-1 273.5,-1"/>
<text text-anchor="middle" x="313" y="-10" font-family="FreeSans" font-size="10.00">monopoly.cpp</text>
</a>
</g>
<!-- Node2&#45;&gt;Node6 -->
<g id="edge10" class="edge"><title>Node2&#45;&gt;Node6</title>
<path fill="none" stroke="midnightblue" d="M221.606,-56.5823C243.04,-46.1271 270.874,-32.5494 290.166,-23.1383"/>
<polygon fill="midnightblue" stroke="midnightblue" points="220.013,-53.4651 212.56,-60.9951 223.082,-59.7565 220.013,-53.4651"/>
</g>
<!-- Node7&#45;&gt;Node4 -->
<g id="edge32" class="edge"><title>Node7&#45;&gt;Node4</title>
<path fill="none" stroke="midnightblue" d="M299.513,-170.859C303.816,-142.747 314.921,-92.8023 342,-60 356.008,-43.0315 377.675,-30.8601 395.495,-23.0196"/>
<polygon fill="midnightblue" stroke="midnightblue" points="296.04,-170.423 298.137,-180.808 302.974,-171.382 296.04,-170.423"/>
</g>
<!-- Node7&#45;&gt;Node5 -->
<g id="edge34" class="edge"><title>Node7&#45;&gt;Node5</title>
<path fill="none" stroke="midnightblue" d="M272.641,-174.739C242.855,-153.568 190.974,-116.487 147,-84 118.204,-62.7263 84.9431,-37.3244 66.4023,-23.089"/>
<polygon fill="midnightblue" stroke="midnightblue" points="270.963,-177.84 281.143,-180.776 275.016,-172.132 270.963,-177.84"/>
</g>
<!-- Node8 -->
<g id="node15" class="node"><title>Node8</title>
<a xlink:href="workunit_8h.html" target="_top" xlink:title="This file has the defintion of the workunit.">
<polygon fill="white" stroke="black" points="357.5,-121 357.5,-143 418.5,-143 418.5,-121 357.5,-121"/>
<text text-anchor="middle" x="388" y="-130" font-family="FreeSans" font-size="10.00">workunit.h</text>
</a>
</g>
<!-- Node7&#45;&gt;Node8 -->
<g id="edge14" class="edge"><title>Node7&#45;&gt;Node8</title>
<path fill="none" stroke="midnightblue" d="M322.326,-175.302C337.893,-165.038 357.409,-152.17 371.107,-143.138"/>
<polygon fill="midnightblue" stroke="midnightblue" points="320.113,-172.568 313.691,-180.995 323.966,-178.412 320.113,-172.568"/>
</g>
<!-- Node8&#45;&gt;Node2 -->
<g id="edge16" class="edge"><title>Node8&#45;&gt;Node2</title>
<path fill="none" stroke="midnightblue" d="M347.715,-119.792C311.379,-108.781 258.519,-92.7634 224.196,-82.3624"/>
<polygon fill="midnightblue" stroke="midnightblue" points="346.911,-123.206 357.496,-122.756 348.941,-116.507 346.911,-123.206"/>
</g>
<!-- Node8&#45;&gt;Node4 -->
<g id="edge28" class="edge"><title>Node8&#45;&gt;Node4</title>
<path fill="none" stroke="midnightblue" d="M367.386,-113.99C353.286,-99.3917 338.837,-78.3117 349,-60 358.632,-42.6453 377.436,-30.7462 394.049,-23.1365"/>
<polygon fill="midnightblue" stroke="midnightblue" points="364.981,-116.533 374.596,-120.984 369.855,-111.508 364.981,-116.533"/>
</g>
<!-- Node8&#45;&gt;Node9 -->
<g id="edge18" class="edge"><title>Node8&#45;&gt;Node9</title>
<path fill="none" stroke="midnightblue" d="M428.359,-118.911C461.435,-108.183 507.722,-93.1714 538.95,-83.0431"/>
<polygon fill="midnightblue" stroke="midnightblue" points="426.981,-115.678 418.549,-122.092 429.141,-122.336 426.981,-115.678"/>
</g>
<!-- Node10 -->
<g id="node21" class="node"><title>Node10</title>
<a xlink:href="frameschedulerworkunits_8h.html" target="_top" xlink:title="This defines a number of workunits that are required for doing some tasks that the Framescheduler req...">
<polygon fill="white" stroke="black" points="358,-61 358,-83 494,-83 494,-61 358,-61"/>
<text text-anchor="middle" x="426" y="-70" font-family="FreeSans" font-size="10.00">frameschedulerworkunits.h</text>
</a>
</g>
<!-- Node8&#45;&gt;Node10 -->
<g id="edge22" class="edge"><title>Node8&#45;&gt;Node10</title>
<path fill="none" stroke="midnightblue" d="M400.401,-112.419C406.498,-102.792 413.631,-91.5303 418.816,-83.3428"/>
<polygon fill="midnightblue" stroke="midnightblue" points="397.363,-110.674 394.97,-120.995 403.277,-114.42 397.363,-110.674"/>
</g>
<!-- Node8&#45;&gt;Node12 -->
<g id="edge30" class="edge"><title>Node8&#45;&gt;Node12</title>
<path fill="none" stroke="midnightblue" d="M428.659,-125.382C479.159,-116.925 567.839,-101.294 643,-84 645.624,-83.3963 648.326,-82.7414 651.041,-82.0594"/>
<polygon fill="midnightblue" stroke="midnightblue" points="428.071,-121.932 418.782,-127.026 429.221,-128.837 428.071,-121.932"/>
</g>
<!-- Node9&#45;&gt;Node4 -->
<g id="edge20" class="edge"><title>Node9&#45;&gt;Node4</title>
<path fill="none" stroke="midnightblue" d="M536.566,-57.1291C510.689,-46.567 476.509,-32.6158 453.04,-23.0366"/>
<polygon fill="midnightblue" stroke="midnightblue" points="535.457,-60.4565 546.038,-60.9951 538.102,-53.9756 535.457,-60.4565"/>
</g>
<!-- Node10&#45;&gt;Node4 -->
<g id="edge24" class="edge"><title>Node10&#45;&gt;Node4</title>
<path fill="none" stroke="midnightblue" d="M426,-50.9183C426,-41.6393 426,-31.1082 426,-23.3428"/>
<polygon fill="midnightblue" stroke="midnightblue" points="422.5,-50.995 426,-60.9951 429.5,-50.9951 422.5,-50.995"/>
</g>
<!-- Node10&#45;&gt;Node11 -->
<g id="edge26" class="edge"><title>Node10&#45;&gt;Node11</title>
<path fill="none" stroke="midnightblue" d="M478.857,-58.5046C520.765,-47.8047 578.602,-33.0378 617.773,-23.0366"/>
<polygon fill="midnightblue" stroke="midnightblue" points="477.926,-55.13 469.103,-60.9951 479.658,-61.9124 477.926,-55.13"/>
</g>
</g>
</svg>
        <g id="navigator" transform="translate(0 0)" fill="#404254">
                <rect fill="#f2f5e9" fill-opacity="0.5" stroke="#606060" stroke-width=".5" x="0" y="0" width="60" height="60"/>
                <use id="zoomplus" xlink:href="#zoomPlus" x="17" y="9" onmousedown="handleZoom(evt,'in')"/>
                <use id="zoomminus" xlink:href="#zoomMin" x="42" y="9" onmousedown="handleZoom(evt,'out')"/>
                <use id="reset" xlink:href="#resetDef" x="30" y="36" onmousedown="handleReset()"/>
                <g id="arrowUp" xlink:href="#dirArrow" transform="translate(30 24)" onmousedown="handlePan(0,-1)">
                  <use xlink:href="#rim" fill="#404040">
                        <set attributeName="fill" to="#808080" begin="arrowUp.mouseover" end="arrowUp.mouseout"/>
                  </use>
                  <path fill="none" stroke="white" stroke-width="1.5" d="M0,-3.0v7 M-2.5,-0.5L0,-3.0L2.5,-0.5"/>
                </g>
                <g id="arrowRight" xlink:href="#dirArrow" transform="rotate(90) translate(36 -43)" onmousedown="handlePan(1,0)">
                  <use xlink:href="#rim" fill="#404040">
                        <set attributeName="fill" to="#808080" begin="arrowRight.mouseover" end="arrowRight.mouseout"/>
                  </use>
                  <path fill="none" stroke="white" stroke-width="1.5" d="M0,-3.0v7 M-2.5,-0.5L0,-3.0L2.5,-0.5"/>
                </g>
                <g id="arrowDown" xlink:href="#dirArrow" transform="rotate(180) translate(-30 -48)" onmousedown="handlePan(0,1)">
                  <use xlink:href="#rim" fill="#404040">
                        <set attributeName="fill" to="#808080" begin="arrowDown.mouseover" end="arrowDown.mouseout"/>
                  </use>
                  <path fill="none" stroke="white" stroke-width="1.5" d="M0,-3.0v7 M-2.5,-0.5L0,-3.0L2.5,-0.5"/>
                </g>
                <g id="arrowLeft" xlink:href="#dirArrow" transform="rotate(270) translate(-36 17)" onmousedown="handlePan(-1,0)">
                  <use xlink:href="#rim" fill="#404040">
                        <set attributeName="fill" to="#808080" begin="arrowLeft.mouseover" end="arrowLeft.mouseout"/>
                  </use>
                  <path fill="none" stroke="white" stroke-width="1.5" d="M0,-3.0v7 M-2.5,-0.5L0,-3.0L2.5,-0.5"/>
                </g>
        </g>
</svg>
