<?xml version="1.0" encoding="UTF-8" standalone="no"?>
<!DOCTYPE svg PUBLIC "-//W3C//DTD SVG 1.1//EN"
 "http://www.w3.org/Graphics/SVG/1.1/DTD/svg11.dtd">
<!-- Generated by graphviz version 2.26.3 (20100126.1600)
 -->
<!-- Title: G Pages: 1 -->
<!--zoomable 332 -->
<svg id="main" version="1.1" xmlns="http://www.w3.org/2000/svg" xmlns:xlink="http://www.w3.org/1999/xlink" xml:space="preserve" onload="init(evt)">
        <defs>
                <circle id="rim" cx="0" cy="0" r="7"/>
                <circle id="rim2" cx="0" cy="0" r="3.5"/>
                <g id="zoomPlus">
                        <use xlink:href="#rim" fill="#404040">
                                <set attributeName="fill" to="#808080" begin="zoomplus.mouseover" end="zoomplus.mouseout"/>
                        </use>
                        <path d="M-4,0h8M0,-4v8" fill="none" stroke="white" stroke-width="1.5" pointer-events="none"/>
                </g>
                <g id="zoomMin">
                        <use xlink:href="#rim" fill="#404040">
                                <set attributeName="fill" to="#808080" begin="zoomminus.mouseover" end="zoomminus.mouseout"/>
                        </use>
                        <path d="M-4,0h8" fill="none" stroke="white" stroke-width="1.5" pointer-events="none"/>
                </g>
                <g id="dirArrow">
                        <path fill="none" stroke="white" stroke-width="1.5" d="M0,-3.0v7 M-2.5,-0.5L0,-3.0L2.5,-0.5"/>
                </g>
               <g id="resetDef">
                       <use xlink:href="#rim2" fill="#404040">
                               <set attributeName="fill" to="#808080" begin="reset.mouseover" end="reset.mouseout"/>
                       </use>
               </g>
        </defs>

<script type="text/javascript">
var viewWidth = 932;
var viewHeight = 332;
var sectionId = 'dynsection-1';
</script>
<script xlink:href="svgpan.js"/>
<svg id="graph" class="graph">
<g id="viewport">
<title>G</title>
<polygon fill="white" stroke="white" points="-4,5 -4,-328 928.583,-328 928.583,5 -4,5"/>
<!-- Node1 -->
<g id="node1" class="node"><title>Node1</title>
<polygon fill="#bfbfbf" stroke="black" points="371.083,-301 371.083,-323 502.083,-323 502.083,-301 371.083,-301"/>
<text text-anchor="middle" x="436.583" y="-310" font-family="FreeSans" font-size="10.00">doublebufferedresource.h</text>
</g>
<!-- Node2 -->
<g id="node3" class="node"><title>Node2</title>
<a xlink:href="asynchronousworkunit_8h.html" target="_top" xlink:title="Contains an interface for a kind of WorkUnit that loads or does other work even when the frame schedu...">
<polygon fill="white" stroke="black" points="223.083,-121 223.083,-143 346.083,-143 346.083,-121 223.083,-121"/>
<text text-anchor="middle" x="284.583" y="-130" font-family="FreeSans" font-size="10.00">asynchronousworkunit.h</text>
</a>
</g>
<!-- Node1&#45;&gt;Node2 -->
<g id="edge2" class="edge"><title>Node1&#45;&gt;Node2</title>
<path fill="none" stroke="midnightblue" d="M403.698,-296.272C388.974,-288.102 372.141,-277.08 359.583,-264 323.258,-226.164 298.087,-167.388 288.679,-143.091"/>
<polygon fill="midnightblue" stroke="midnightblue" points="402.065,-299.368 412.536,-300.984 405.358,-293.191 402.065,-299.368"/>
</g>
<!-- Node5 -->
<g id="node9" class="node"><title>Node5</title>
<a xlink:href="dagframescheduler_8h.html" target="_top" xlink:title="This is the file that code using this library should include. It includes all the required components...">
<polygon fill="white" stroke="black" points="525.583,-1 525.583,-23 637.583,-23 637.583,-1 525.583,-1"/>
<text text-anchor="middle" x="581.583" y="-10" font-family="FreeSans" font-size="10.00">dagframescheduler.h</text>
</a>
</g>
<!-- Node1&#45;&gt;Node5 -->
<g id="edge42" class="edge"><title>Node1&#45;&gt;Node5</title>
<path fill="none" stroke="midnightblue" d="M360.744,-306.679C236.096,-295.828 1.58315,-265.628 1.58315,-192 1.58315,-192 1.58315,-192 1.58315,-132 1.58315,-98.9046 -4.74944,-81.2972 20.5831,-60 58.6494,-27.9976 390.693,-16.5428 525.281,-13.1904"/>
<polygon fill="midnightblue" stroke="midnightblue" points="360.728,-310.19 370.988,-307.549 361.32,-303.216 360.728,-310.19"/>
</g>
<!-- Node7 -->
<g id="node14" class="node"><title>Node7</title>
<a xlink:href="framescheduler_8h.html" target="_top" xlink:title="This file has the Declarations for the main FrameScheduler class.">
<polygon fill="white" stroke="black" points="742.583,-241 742.583,-263 836.583,-263 836.583,-241 742.583,-241"/>
<text text-anchor="middle" x="789.583" y="-250" font-family="FreeSans" font-size="10.00">framescheduler.h</text>
</a>
</g>
<!-- Node1&#45;&gt;Node7 -->
<g id="edge14" class="edge"><title>Node1&#45;&gt;Node7</title>
<path fill="none" stroke="midnightblue" d="M511.391,-299.285C581.238,-287.413 683.334,-270.059 742.459,-260.01"/>
<polygon fill="midnightblue" stroke="midnightblue" points="510.601,-295.869 501.329,-300.995 511.774,-302.77 510.601,-295.869"/>
</g>
<!-- Node10 -->
<g id="node22" class="node"><title>Node10</title>
<a xlink:href="frameschedulerworkunits_8cpp.html" target="_top" xlink:title="The implementation of any workunits the framescheduler needs to work correctly.">
<polygon fill="white" stroke="black" points="407.583,-61 407.583,-83 553.583,-83 553.583,-61 407.583,-61"/>
<text text-anchor="middle" x="480.583" y="-70" font-family="FreeSans" font-size="10.00">frameschedulerworkunits.cpp</text>
</a>
</g>
<!-- Node1&#45;&gt;Node10 -->
<g id="edge48" class="edge"><title>Node1&#45;&gt;Node10</title>
<path fill="none" stroke="midnightblue" d="M423.043,-291.979C400.118,-255.348 359.252,-176.148 392.583,-120 403.243,-102.042 423.246,-90.3733 441.489,-83.0428"/>
<polygon fill="midnightblue" stroke="midnightblue" points="420.329,-294.229 428.693,-300.732 426.21,-290.432 420.329,-294.229"/>
</g>
<!-- Node11 -->
<g id="node24" class="node"><title>Node11</title>
<a xlink:href="monopoly_8h.html" target="_top" xlink:title="Contains an interface for a kind of WorkUnit that consumes time on multiple thread.">
<polygon fill="white" stroke="black" points="681.583,-121 681.583,-143 749.583,-143 749.583,-121 681.583,-121"/>
<text text-anchor="middle" x="715.583" y="-130" font-family="FreeSans" font-size="10.00">monopoly.h</text>
</a>
</g>
<!-- Node1&#45;&gt;Node11 -->
<g id="edge44" class="edge"><title>Node1&#45;&gt;Node11</title>
<path fill="none" stroke="midnightblue" d="M473.71,-296.965C516.953,-278.523 589.488,-244.65 644.583,-204 669.587,-185.552 693.956,-158.195 706.616,-143.067"/>
<polygon fill="midnightblue" stroke="midnightblue" points="472.276,-293.771 464.421,-300.881 474.996,-300.221 472.276,-293.771"/>
</g>
<!-- Node12 -->
<g id="node27" class="node"><title>Node12</title>
<a xlink:href="framescheduler_8cpp.html" target="_top" xlink:title="This is the core object implementation for this algorithm.">
<polygon fill="white" stroke="black" points="819.583,-61 819.583,-83 923.583,-83 923.583,-61 819.583,-61"/>
<text text-anchor="middle" x="871.583" y="-70" font-family="FreeSans" font-size="10.00">framescheduler.cpp</text>
</a>
</g>
<!-- Node1&#45;&gt;Node12 -->
<g id="edge46" class="edge"><title>Node1&#45;&gt;Node12</title>
<path fill="none" stroke="midnightblue" d="M512.519,-308.06C624.252,-301.529 822.307,-286.866 845.583,-264 896.214,-214.261 881.046,-116.081 874.149,-83.1015"/>
<polygon fill="midnightblue" stroke="midnightblue" points="512.097,-304.579 502.315,-308.648 512.5,-311.567 512.097,-304.579"/>
</g>
<!-- Node14 -->
<g id="node32" class="node"><title>Node14</title>
<a xlink:href="workunit_8cpp.html" target="_top" xlink:title="This file has the implementation of the workunit.">
<polygon fill="white" stroke="black" points="401.083,-121 401.083,-143 472.083,-143 472.083,-121 401.083,-121"/>
<text text-anchor="middle" x="436.583" y="-130" font-family="FreeSans" font-size="10.00">workunit.cpp</text>
</a>
</g>
<!-- Node1&#45;&gt;Node14 -->
<g id="edge50" class="edge"><title>Node1&#45;&gt;Node14</title>
<path fill="none" stroke="midnightblue" d="M436.583,-290.65C436.583,-252.221 436.583,-172.672 436.583,-143.256"/>
<polygon fill="midnightblue" stroke="midnightblue" points="433.083,-290.74 436.583,-300.74 440.083,-290.74 433.083,-290.74"/>
</g>
<!-- Node3 -->
<g id="node5" class="node"><title>Node3</title>
<a xlink:href="asynchronousfileloadingworkunit_8h.html" target="_top" xlink:title="The declaration of the AsynchronousFileLoadWorkUnit a workunit that loads a listing of files asynchro...">
<polygon fill="white" stroke="black" points="29.5831,-61 29.5831,-83 199.583,-83 199.583,-61 29.5831,-61"/>
<text text-anchor="middle" x="114.583" y="-70" font-family="FreeSans" font-size="10.00">asynchronousfileloadingworkunit.h</text>
</a>
</g>
<!-- Node2&#45;&gt;Node3 -->
<g id="edge4" class="edge"><title>Node2&#45;&gt;Node3</title>
<path fill="none" stroke="midnightblue" d="M243.63,-117.546C213.57,-106.937 173.353,-92.7424 145.853,-83.0366"/>
<polygon fill="midnightblue" stroke="midnightblue" points="242.808,-120.967 253.403,-120.995 245.138,-114.366 242.808,-120.967"/>
</g>
<!-- Node2&#45;&gt;Node5 -->
<g id="edge12" class="edge"><title>Node2&#45;&gt;Node5</title>
<path fill="none" stroke="midnightblue" d="M310.837,-115.41C344.455,-94.168 398.435,-60.0642 398.583,-60 439.402,-42.263 488.278,-29.8548 525.247,-22.1035"/>
<polygon fill="midnightblue" stroke="midnightblue" points="308.95,-112.463 302.365,-120.763 312.689,-118.38 308.95,-112.463"/>
</g>
<!-- Node6 -->
<g id="node11" class="node"><title>Node6</title>
<a xlink:href="asynchronousworkunit_8cpp.html" target="_top" xlink:title="Contains very little actually.">
<polygon fill="white" stroke="black" points="217.583,-61 217.583,-83 351.583,-83 351.583,-61 217.583,-61"/>
<text text-anchor="middle" x="284.583" y="-70" font-family="FreeSans" font-size="10.00">asynchronousworkunit.cpp</text>
</a>
</g>
<!-- Node2&#45;&gt;Node6 -->
<g id="edge10" class="edge"><title>Node2&#45;&gt;Node6</title>
<path fill="none" stroke="midnightblue" d="M284.583,-110.918C284.583,-101.639 284.583,-91.1082 284.583,-83.3428"/>
<polygon fill="midnightblue" stroke="midnightblue" points="281.083,-110.995 284.583,-120.995 288.083,-110.995 281.083,-110.995"/>
</g>
<!-- Node4 -->
<g id="node7" class="node"><title>Node4</title>
<a xlink:href="asynchronousfileloadingworkunit_8cpp.html" target="_top" xlink:title="The implemtation of the AsynchronousFileLoadWorkUnit a workunit that loads a listing of files asynchr...">
<polygon fill="white" stroke="black" points="24.5831,-1 24.5831,-23 204.583,-23 204.583,-1 24.5831,-1"/>
<text text-anchor="middle" x="114.583" y="-10" font-family="FreeSans" font-size="10.00">asynchronousfileloadingworkunit.cpp</text>
</a>
</g>
<!-- Node3&#45;&gt;Node4 -->
<g id="edge6" class="edge"><title>Node3&#45;&gt;Node4</title>
<path fill="none" stroke="midnightblue" d="M114.583,-50.9183C114.583,-41.6393 114.583,-31.1082 114.583,-23.3428"/>
<polygon fill="midnightblue" stroke="midnightblue" points="111.083,-50.995 114.583,-60.9951 118.083,-50.9951 111.083,-50.995"/>
</g>
<!-- Node3&#45;&gt;Node5 -->
<g id="edge8" class="edge"><title>Node3&#45;&gt;Node5</title>
<path fill="none" stroke="midnightblue" d="M209.87,-59.7575C304.738,-47.569 447.159,-29.2708 525.299,-19.2314"/>
<polygon fill="midnightblue" stroke="midnightblue" points="209.168,-56.319 199.695,-61.0648 210.06,-63.2619 209.168,-56.319"/>
</g>
<!-- Node7&#45;&gt;Node5 -->
<g id="edge38" class="edge"><title>Node7&#45;&gt;Node5</title>
<path fill="none" stroke="midnightblue" d="M794.859,-230.636C803.1,-191.683 814.102,-108.653 772.583,-60 755.216,-39.6487 687.702,-26.2414 637.844,-18.8937"/>
<polygon fill="midnightblue" stroke="midnightblue" points="791.351,-230.282 792.552,-240.808 798.177,-231.83 791.351,-230.282"/>
</g>
<!-- Node8 -->
<g id="node16" class="node"><title>Node8</title>
<a xlink:href="workunit_8h.html" target="_top" xlink:title="This file has the defintion of the workunit.">
<polygon fill="white" stroke="black" points="575.083,-181 575.083,-203 636.083,-203 636.083,-181 575.083,-181"/>
<text text-anchor="middle" x="605.583" y="-190" font-family="FreeSans" font-size="10.00">workunit.h</text>
</a>
</g>
<!-- Node7&#45;&gt;Node8 -->
<g id="edge16" class="edge"><title>Node7&#45;&gt;Node8</title>
<path fill="none" stroke="midnightblue" d="M746.222,-237.86C712.458,-226.851 666.427,-211.84 636.364,-202.037"/>
<polygon fill="midnightblue" stroke="midnightblue" points="745.242,-241.222 755.835,-240.995 747.413,-234.567 745.242,-241.222"/>
</g>
<!-- Node7&#45;&gt;Node12 -->
<g id="edge40" class="edge"><title>Node7&#45;&gt;Node12</title>
<path fill="none" stroke="midnightblue" d="M798.863,-231.63C816.192,-193.591 852.94,-112.925 866.456,-83.2556"/>
<polygon fill="midnightblue" stroke="midnightblue" points="795.673,-230.189 794.713,-240.74 802.043,-233.091 795.673,-230.189"/>
</g>
<!-- Node8&#45;&gt;Node2 -->
<g id="edge18" class="edge"><title>Node8&#45;&gt;Node2</title>
<path fill="none" stroke="midnightblue" d="M564.904,-184.396C508.969,-173.941 407.949,-155.059 343.677,-143.046"/>
<polygon fill="midnightblue" stroke="midnightblue" points="564.331,-187.85 574.804,-186.247 565.618,-180.969 564.331,-187.85"/>
</g>
<!-- Node8&#45;&gt;Node5 -->
<g id="edge34" class="edge"><title>Node8&#45;&gt;Node5</title>
<path fill="none" stroke="midnightblue" d="M620.518,-172.736C626.087,-164.384 631.743,-154.194 634.583,-144 637.446,-133.725 636.995,-130.39 634.583,-120 625.751,-81.9548 601.542,-41.8641 589.134,-23.0166"/>
<polygon fill="midnightblue" stroke="midnightblue" points="617.591,-170.813 614.647,-180.991 623.295,-174.87 617.591,-170.813"/>
</g>
<!-- Node9 -->
<g id="node19" class="node"><title>Node9</title>
<a xlink:href="frameschedulerworkunits_8h.html" target="_top" xlink:title="This defines a number of workunits that are required for doing some tasks that the Framescheduler req...">
<polygon fill="white" stroke="black" points="489.583,-121 489.583,-143 625.583,-143 625.583,-121 489.583,-121"/>
<text text-anchor="middle" x="557.583" y="-130" font-family="FreeSans" font-size="10.00">frameschedulerworkunits.h</text>
</a>
</g>
<!-- Node8&#45;&gt;Node9 -->
<g id="edge20" class="edge"><title>Node8&#45;&gt;Node9</title>
<path fill="none" stroke="midnightblue" d="M590.393,-173.013C582.589,-163.258 573.342,-151.699 566.657,-143.343"/>
<polygon fill="midnightblue" stroke="midnightblue" points="587.799,-175.373 596.779,-180.995 593.265,-171 587.799,-175.373"/>
</g>
<!-- Node8&#45;&gt;Node11 -->
<g id="edge26" class="edge"><title>Node8&#45;&gt;Node11</title>
<path fill="none" stroke="midnightblue" d="M634.626,-176.159C653.685,-165.763 678.141,-152.423 695.163,-143.138"/>
<polygon fill="midnightblue" stroke="midnightblue" points="632.862,-173.134 625.759,-180.995 636.214,-179.279 632.862,-173.134"/>
</g>
<!-- Node8&#45;&gt;Node14 -->
<g id="edge36" class="edge"><title>Node8&#45;&gt;Node14</title>
<path fill="none" stroke="midnightblue" d="M565.274,-177.689C535.402,-167.083 495.275,-152.838 467.818,-143.089"/>
<polygon fill="midnightblue" stroke="midnightblue" points="564.384,-181.087 574.979,-181.134 566.726,-174.49 564.384,-181.087"/>
</g>
<!-- Node9&#45;&gt;Node5 -->
<g id="edge22" class="edge"><title>Node9&#45;&gt;Node5</title>
<path fill="none" stroke="midnightblue" d="M561.764,-111.093C566.887,-85.4787 575.377,-43.0303 579.374,-23.0475"/>
<polygon fill="midnightblue" stroke="midnightblue" points="558.327,-110.434 559.798,-120.926 565.191,-111.806 558.327,-110.434"/>
</g>
<!-- Node9&#45;&gt;Node10 -->
<g id="edge24" class="edge"><title>Node9&#45;&gt;Node10</title>
<path fill="none" stroke="midnightblue" d="M535.412,-114.723C522.366,-104.558 506.251,-92.0008 494.877,-83.1383"/>
<polygon fill="midnightblue" stroke="midnightblue" points="533.421,-117.609 543.46,-120.995 537.723,-112.088 533.421,-117.609"/>
</g>
<!-- Node11&#45;&gt;Node5 -->
<g id="edge28" class="edge"><title>Node11&#45;&gt;Node5</title>
<path fill="none" stroke="midnightblue" d="M695.591,-114.097C667.484,-88.926 617.13,-43.8332 593.919,-23.0475"/>
<polygon fill="midnightblue" stroke="midnightblue" points="693.432,-116.862 703.217,-120.926 698.102,-111.647 693.432,-116.862"/>
</g>
<!-- Node11&#45;&gt;Node12 -->
<g id="edge30" class="edge"><title>Node11&#45;&gt;Node12</title>
<path fill="none" stroke="midnightblue" d="M753.885,-117.269C781.389,-106.69 817.872,-92.658 842.888,-83.0366"/>
<polygon fill="midnightblue" stroke="midnightblue" points="752.273,-114.139 744.196,-120.995 754.786,-120.672 752.273,-114.139"/>
</g>
<!-- Node13 -->
<g id="node29" class="node"><title>Node13</title>
<a xlink:href="monopoly_8cpp.html" target="_top" xlink:title="Contains the minimal implementation for the monopoly base class.">
<polygon fill="white" stroke="black" points="685.083,-61 685.083,-83 764.083,-83 764.083,-61 685.083,-61"/>
<text text-anchor="middle" x="724.583" y="-70" font-family="FreeSans" font-size="10.00">monopoly.cpp</text>
</a>
</g>
<!-- Node11&#45;&gt;Node13 -->
<g id="edge32" class="edge"><title>Node11&#45;&gt;Node13</title>
<path fill="none" stroke="midnightblue" d="M718.745,-110.918C720.137,-101.639 721.717,-91.1082 722.882,-83.3428"/>
<polygon fill="midnightblue" stroke="midnightblue" points="715.256,-110.586 717.234,-120.995 722.179,-111.625 715.256,-110.586"/>
</g>
</g>
</svg>
        <g id="navigator" transform="translate(0 0)" fill="#404254">
                <rect fill="#f2f5e9" fill-opacity="0.5" stroke="#606060" stroke-width=".5" x="0" y="0" width="60" height="60"/>
                <use id="zoomplus" xlink:href="#zoomPlus" x="17" y="9" onmousedown="handleZoom(evt,'in')"/>
                <use id="zoomminus" xlink:href="#zoomMin" x="42" y="9" onmousedown="handleZoom(evt,'out')"/>
                <use id="reset" xlink:href="#resetDef" x="30" y="36" onmousedown="handleReset()"/>
                <g id="arrowUp" xlink:href="#dirArrow" transform="translate(30 24)" onmousedown="handlePan(0,-1)">
                  <use xlink:href="#rim" fill="#404040">
                        <set attributeName="fill" to="#808080" begin="arrowUp.mouseover" end="arrowUp.mouseout"/>
                  </use>
                  <path fill="none" stroke="white" stroke-width="1.5" d="M0,-3.0v7 M-2.5,-0.5L0,-3.0L2.5,-0.5"/>
                </g>
                <g id="arrowRight" xlink:href="#dirArrow" transform="rotate(90) translate(36 -43)" onmousedown="handlePan(1,0)">
                  <use xlink:href="#rim" fill="#404040">
                        <set attributeName="fill" to="#808080" begin="arrowRight.mouseover" end="arrowRight.mouseout"/>
                  </use>
                  <path fill="none" stroke="white" stroke-width="1.5" d="M0,-3.0v7 M-2.5,-0.5L0,-3.0L2.5,-0.5"/>
                </g>
                <g id="arrowDown" xlink:href="#dirArrow" transform="rotate(180) translate(-30 -48)" onmousedown="handlePan(0,1)">
                  <use xlink:href="#rim" fill="#404040">
                        <set attributeName="fill" to="#808080" begin="arrowDown.mouseover" end="arrowDown.mouseout"/>
                  </use>
                  <path fill="none" stroke="white" stroke-width="1.5" d="M0,-3.0v7 M-2.5,-0.5L0,-3.0L2.5,-0.5"/>
                </g>
                <g id="arrowLeft" xlink:href="#dirArrow" transform="rotate(270) translate(-36 17)" onmousedown="handlePan(-1,0)">
                  <use xlink:href="#rim" fill="#404040">
                        <set attributeName="fill" to="#808080" begin="arrowLeft.mouseover" end="arrowLeft.mouseout"/>
                  </use>
                  <path fill="none" stroke="white" stroke-width="1.5" d="M0,-3.0v7 M-2.5,-0.5L0,-3.0L2.5,-0.5"/>
                </g>
        </g>
</svg>
