<?xml version="1.0" encoding="UTF-8" standalone="no"?>
<!DOCTYPE svg PUBLIC "-//W3C//DTD SVG 1.1//EN"
 "http://www.w3.org/Graphics/SVG/1.1/DTD/svg11.dtd">
<!-- Generated by graphviz version 2.26.3 (20100126.1600)
 -->
<!-- Title: G Pages: 1 -->
<svg width="494pt" height="92pt"
 viewBox="0.00 0.00 494.00 92.00" xmlns="http://www.w3.org/2000/svg" xmlns:xlink="http://www.w3.org/1999/xlink">
<g id="graph1" class="graph" transform="scale(1 1) rotate(0) translate(4 88)">
<title>G</title>
<polygon fill="white" stroke="white" points="-4,5 -4,-88 491,-88 491,5 -4,5"/>
<!-- Node1 -->
<g id="node1" class="node"><title>Node1</title>
<polygon fill="#bfbfbf" stroke="black" points="187.5,-61 187.5,-83 318.5,-83 318.5,-61 187.5,-61"/>
<text text-anchor="middle" x="253" y="-70" font-family="FreeSans" font-size="10.00">doublebufferedresource.h</text>
</g>
<!-- Node2 -->
<g id="node3" class="node"><title>Node2</title>
<a xlink:href="dagframescheduler_8h.html" target="_top" xlink:title="This is the file that code using this library should include. It includes all the required components...">
<polygon fill="white" stroke="black" points="0,-1 0,-23 112,-23 112,-1 0,-1"/>
<text text-anchor="middle" x="56" y="-10" font-family="FreeSans" font-size="10.00">dagframescheduler.h</text>
</a>
</g>
<!-- Node1&#45;&gt;Node2 -->
<g id="edge2" class="edge"><title>Node1&#45;&gt;Node2</title>
<path fill="none" stroke="midnightblue" d="M206.9,-57.9594C171.926,-47.3076 124.52,-32.869 92.2368,-23.0366"/>
<polygon fill="midnightblue" stroke="midnightblue" points="206.281,-61.4296 216.867,-60.9951 208.321,-54.7333 206.281,-61.4296"/>
</g>
<!-- Node3 -->
<g id="node5" class="node"><title>Node3</title>
<a xlink:href="framescheduler_8cpp.html" target="_top" xlink:title="This is the core object implementation for this algorithm.">
<polygon fill="white" stroke="black" points="130,-1 130,-23 234,-23 234,-1 130,-1"/>
<text text-anchor="middle" x="182" y="-10" font-family="FreeSans" font-size="10.00">framescheduler.cpp</text>
</a>
</g>
<!-- Node1&#45;&gt;Node3 -->
<g id="edge4" class="edge"><title>Node1&#45;&gt;Node3</title>
<path fill="none" stroke="midnightblue" d="M232.264,-54.4763C220.38,-44.4336 205.81,-32.1211 195.422,-23.3428"/>
<polygon fill="midnightblue" stroke="midnightblue" points="230.08,-57.2137 239.978,-60.9951 234.599,-51.8672 230.08,-57.2137"/>
</g>
<!-- Node4 -->
<g id="node7" class="node"><title>Node4</title>
<a xlink:href="frameschedulerworkunits_8cpp.html" target="_top" xlink:title="The implementation of any workunits the framescheduler needs to work correctly.">
<polygon fill="white" stroke="black" points="252,-1 252,-23 398,-23 398,-1 252,-1"/>
<text text-anchor="middle" x="325" y="-10" font-family="FreeSans" font-size="10.00">frameschedulerworkunits.cpp</text>
</a>
</g>
<!-- Node1&#45;&gt;Node4 -->
<g id="edge6" class="edge"><title>Node1&#45;&gt;Node4</title>
<path fill="none" stroke="midnightblue" d="M274.028,-54.4763C286.08,-44.4336 300.855,-32.1211 311.389,-23.3428"/>
<polygon fill="midnightblue" stroke="midnightblue" points="271.647,-51.9044 266.206,-60.9951 276.129,-57.282 271.647,-51.9044"/>
</g>
<!-- Node5 -->
<g id="node9" class="node"><title>Node5</title>
<a xlink:href="workunit_8cpp.html" target="_top" xlink:title="This file has the implementation of the workunit.">
<polygon fill="white" stroke="black" points="415.5,-1 415.5,-23 486.5,-23 486.5,-1 415.5,-1"/>
<text text-anchor="middle" x="451" y="-10" font-family="FreeSans" font-size="10.00">workunit.cpp</text>
</a>
</g>
<!-- Node1&#45;&gt;Node5 -->
<g id="edge8" class="edge"><title>Node1&#45;&gt;Node5</title>
<path fill="none" stroke="midnightblue" d="M298.944,-58.0775C334.374,-47.3413 382.67,-32.706 415.248,-22.8341"/>
<polygon fill="midnightblue" stroke="midnightblue" points="297.871,-54.7453 289.316,-60.9951 299.902,-61.4445 297.871,-54.7453"/>
</g>
</g>
</svg>
