<?xml version="1.0" encoding="UTF-8" standalone="no"?>
<!DOCTYPE svg PUBLIC "-//W3C//DTD SVG 1.1//EN"
 "http://www.w3.org/Graphics/SVG/1.1/DTD/svg11.dtd">
<!-- Generated by graphviz version 2.26.3 (20100126.1600)
 -->
<!-- Title: doublebufferedresource.h Pages: 1 -->
<!--zoomable 320 -->
<svg id="main" version="1.1" xmlns="http://www.w3.org/2000/svg" xmlns:xlink="http://www.w3.org/1999/xlink" xml:space="preserve" onload="init(evt)">
        <defs>
                <circle id="rim" cx="0" cy="0" r="7"/>
                <circle id="rim2" cx="0" cy="0" r="3.5"/>
                <g id="zoomPlus">
                        <use xlink:href="#rim" fill="#404040">
                                <set attributeName="fill" to="#808080" begin="zoomplus.mouseover" end="zoomplus.mouseout"/>
                        </use>
                        <path d="M-4,0h8M0,-4v8" fill="none" stroke="white" stroke-width="1.5" pointer-events="none"/>
                </g>
                <g id="zoomMin">
                        <use xlink:href="#rim" fill="#404040">
                                <set attributeName="fill" to="#808080" begin="zoomminus.mouseover" end="zoomminus.mouseout"/>
                        </use>
                        <path d="M-4,0h8" fill="none" stroke="white" stroke-width="1.5" pointer-events="none"/>
                </g>
                <g id="dirArrow">
                        <path fill="none" stroke="white" stroke-width="1.5" d="M0,-3.0v7 M-2.5,-0.5L0,-3.0L2.5,-0.5"/>
                </g>
               <g id="resetDef">
                       <use xlink:href="#rim2" fill="#404040">
                               <set attributeName="fill" to="#808080" begin="reset.mouseover" end="reset.mouseout"/>
                       </use>
               </g>
        </defs>

<script type="text/javascript">
var viewWidth = 880;
var viewHeight = 320;
var sectionId = 'dynsection-1';
</script>
<script xlink:href="svgpan.js"/>
<svg id="graph" class="graph">
<g id="viewport">
<title>doublebufferedresource.h</title>
<polygon fill="white" stroke="white" points="-4,5 -4,-316 877.407,-316 877.407,5 -4,5"/>
<!-- Node1 -->
<g id="node1" class="node"><title>Node1</title>
<polygon fill="#bfbfbf" stroke="black" points="588.768,-291 588.768,-311 711.768,-311 711.768,-291 588.768,-291"/>
<text text-anchor="middle" x="650.268" y="-298" font-family="FreeSans" font-size="10.00">doublebufferedresource.h</text>
</g>
<!-- Node2 -->
<g id="node3" class="node"><title>Node2</title>
<a xlink:href="asynchronousworkunit_8h.html" target="_top" xlink:title="Contains an interface for a kind of WorkUnit that loads or does other work even when the frame schedu...">
<polygon fill="white" stroke="black" points="216.768,-117 216.768,-137 335.768,-137 335.768,-117 216.768,-117"/>
<text text-anchor="middle" x="276.268" y="-124" font-family="FreeSans" font-size="10.00">asynchronousworkunit.h</text>
</a>
</g>
<!-- Node1&#45;&gt;Node2 -->
<g id="edge2" class="edge"><title>Node1&#45;&gt;Node2</title>
<path fill="none" stroke="midnightblue" d="M578.51,-292.946C514.175,-284.808 425.291,-271.022 394.268,-254 340.705,-224.61 297.891,-161.973 282.459,-137.297"/>
<polygon fill="midnightblue" stroke="midnightblue" points="578.256,-296.442 588.611,-294.204 579.12,-289.495 578.256,-296.442"/>
</g>
<!-- Node5 -->
<g id="node9" class="node"><title>Node5</title>
<a xlink:href="dagframescheduler_8h.html" target="_top" xlink:title="This is the file that code using this library should include. It includes all the required components...">
<polygon fill="white" stroke="black" points="348.268,-1 348.268,-21 454.268,-21 454.268,-1 348.268,-1"/>
<text text-anchor="middle" x="401.268" y="-8" font-family="FreeSans" font-size="10.00">dagframescheduler.h</text>
</a>
</g>
<!-- Node1&#45;&gt;Node5 -->
<g id="edge44" class="edge"><title>Node1&#45;&gt;Node5</title>
<path fill="none" stroke="midnightblue" d="M578.586,-295.632C409.765,-282.032 1.26796,-243.117 1.26796,-185 1.26796,-185 1.26796,-185 1.26796,-127 1.26796,-95.1919 -3.80389,-78.7918 20.268,-58 44.6356,-36.9527 249.326,-20.899 348.208,-14.2935"/>
<polygon fill="midnightblue" stroke="midnightblue" points="578.38,-299.127 588.627,-296.434 578.937,-292.149 578.38,-299.127"/>
</g>
<!-- Node7 -->
<g id="node14" class="node"><title>Node7</title>
<a xlink:href="framescheduler_8h.html" target="_top" xlink:title="This file has the Declarations for the main FrameScheduler class.">
<polygon fill="white" stroke="black" points="403.268,-233 403.268,-253 493.268,-253 493.268,-233 403.268,-233"/>
<text text-anchor="middle" x="448.268" y="-240" font-family="FreeSans" font-size="10.00">framescheduler.h</text>
</a>
</g>
<!-- Node1&#45;&gt;Node7 -->
<g id="edge14" class="edge"><title>Node1&#45;&gt;Node7</title>
<path fill="none" stroke="midnightblue" d="M605.118,-288.036C568.34,-277.476 517.153,-262.779 483.389,-253.084"/>
<polygon fill="midnightblue" stroke="midnightblue" points="604.505,-291.501 615.082,-290.897 606.437,-284.773 604.505,-291.501"/>
</g>
<!-- Node10 -->
<g id="node22" class="node"><title>Node10</title>
<a xlink:href="framescheduler_8cpp.html" target="_top" xlink:title="This is the core object implementation for this algorithm.">
<polygon fill="white" stroke="black" points="504.768,-59 504.768,-79 605.768,-79 605.768,-59 504.768,-59"/>
<text text-anchor="middle" x="555.268" y="-66" font-family="FreeSans" font-size="10.00">framescheduler.cpp</text>
</a>
</g>
<!-- Node1&#45;&gt;Node10 -->
<g id="edge48" class="edge"><title>Node1&#45;&gt;Node10</title>
<path fill="none" stroke="midnightblue" d="M663.783,-282.183C687.644,-246.445 731.369,-167.709 694.268,-116 683.353,-100.787 639.141,-87.5481 603.471,-79.0322"/>
<polygon fill="midnightblue" stroke="midnightblue" points="660.719,-280.461 657.934,-290.683 666.486,-284.429 660.719,-280.461"/>
</g>
<!-- Node11 -->
<g id="node24" class="node"><title>Node11</title>
<a xlink:href="frameschedulerworkunits_8cpp.html" target="_top" xlink:title="The implementation of any workunits the framescheduler needs to work correctly.">
<polygon fill="white" stroke="black" points="716.768,-59 716.768,-79 857.768,-79 857.768,-59 716.768,-59"/>
<text text-anchor="middle" x="787.268" y="-66" font-family="FreeSans" font-size="10.00">frameschedulerworkunits.cpp</text>
</a>
</g>
<!-- Node1&#45;&gt;Node11 -->
<g id="edge50" class="edge"><title>Node1&#45;&gt;Node11</title>
<path fill="none" stroke="midnightblue" d="M692.698,-287.221C711.338,-279.614 732.519,-268.682 748.268,-254 791.655,-213.553 799.097,-195.343 814.268,-138 816.769,-128.547 816.788,-125.447 814.268,-116 810.581,-102.18 801.754,-88.2017 795.19,-79.1254"/>
<polygon fill="midnightblue" stroke="midnightblue" points="691.28,-284.017 683.224,-290.898 693.813,-290.543 691.28,-284.017"/>
</g>
<!-- Node12 -->
<g id="node26" class="node"><title>Node12</title>
<a xlink:href="monopoly_8h.html" target="_top" xlink:title="Contains an interface for a kind of WorkUnit that consumes time on multiple thread.">
<polygon fill="white" stroke="black" points="740.768,-117 740.768,-137 805.768,-137 805.768,-117 740.768,-117"/>
<text text-anchor="middle" x="773.268" y="-124" font-family="FreeSans" font-size="10.00">monopoly.h</text>
</a>
</g>
<!-- Node1&#45;&gt;Node12 -->
<g id="edge46" class="edge"><title>Node1&#45;&gt;Node12</title>
<path fill="none" stroke="midnightblue" d="M684.521,-286.478C699.384,-278.711 715.942,-267.859 727.268,-254 757.094,-217.502 768.442,-160.025 771.941,-137.013"/>
<polygon fill="midnightblue" stroke="midnightblue" points="682.961,-283.345 675.548,-290.915 686.064,-289.62 682.961,-283.345"/>
</g>
<!-- Node14 -->
<g id="node33" class="node"><title>Node14</title>
<a xlink:href="workunit_8cpp.html" target="_top" xlink:title="This file has the implementation of the Mezzanine::Threading::DefaultWorkUnit.">
<polygon fill="white" stroke="black" points="614.768,-117 614.768,-137 685.768,-137 685.768,-117 614.768,-117"/>
<text text-anchor="middle" x="650.268" y="-124" font-family="FreeSans" font-size="10.00">workunit.cpp</text>
</a>
</g>
<!-- Node1&#45;&gt;Node14 -->
<g id="edge52" class="edge"><title>Node1&#45;&gt;Node14</title>
<path fill="none" stroke="midnightblue" d="M650.268,-280.724C650.268,-243.389 650.268,-165.039 650.268,-137.135"/>
<polygon fill="midnightblue" stroke="midnightblue" points="646.768,-280.893 650.268,-290.893 653.768,-280.893 646.768,-280.893"/>
</g>
<!-- Node3 -->
<g id="node5" class="node"><title>Node3</title>
<a xlink:href="asynchronousfileloadingworkunit_8h.html" target="_top" xlink:title="The declaration of the AsynchronousFileLoadWorkUnit a workunit that loads a listing of files asynchro...">
<polygon fill="white" stroke="black" points="28.768,-59 28.768,-79 189.768,-79 189.768,-59 28.768,-59"/>
<text text-anchor="middle" x="109.268" y="-66" font-family="FreeSans" font-size="10.00">asynchronousfileloadingworkunit.h</text>
</a>
</g>
<!-- Node2&#45;&gt;Node3 -->
<g id="edge4" class="edge"><title>Node2&#45;&gt;Node3</title>
<path fill="none" stroke="midnightblue" d="M237.371,-113.491C207.093,-102.975 165.74,-88.6131 138.303,-79.0842"/>
<polygon fill="midnightblue" stroke="midnightblue" points="236.584,-116.923 247.179,-116.897 238.881,-110.31 236.584,-116.923"/>
</g>
<!-- Node2&#45;&gt;Node5 -->
<g id="edge12" class="edge"><title>Node2&#45;&gt;Node5</title>
<path fill="none" stroke="midnightblue" d="M302.095,-111.554C315.354,-103.045 331.382,-91.8266 344.268,-80 364.644,-61.2985 384.242,-35.2451 394.293,-21.1049"/>
<polygon fill="midnightblue" stroke="midnightblue" points="300.045,-108.708 293.431,-116.986 303.763,-114.639 300.045,-108.708"/>
</g>
<!-- Node6 -->
<g id="node11" class="node"><title>Node6</title>
<a xlink:href="asynchronousworkunit_8cpp.html" target="_top" xlink:title="Contains very little actually.">
<polygon fill="white" stroke="black" points="206.768,-59 206.768,-79 335.768,-79 335.768,-59 206.768,-59"/>
<text text-anchor="middle" x="271.268" y="-66" font-family="FreeSans" font-size="10.00">asynchronousworkunit.cpp</text>
</a>
</g>
<!-- Node2&#45;&gt;Node6 -->
<g id="edge10" class="edge"><title>Node2&#45;&gt;Node6</title>
<path fill="none" stroke="midnightblue" d="M274.534,-106.89C273.735,-97.6201 272.82,-87.0083 272.163,-79.3776"/>
<polygon fill="midnightblue" stroke="midnightblue" points="271.051,-107.235 275.397,-116.897 278.025,-106.633 271.051,-107.235"/>
</g>
<!-- Node4 -->
<g id="node7" class="node"><title>Node4</title>
<a xlink:href="asynchronousfileloadingworkunit_8cpp.html" target="_top" xlink:title="The implemtation of the AsynchronousFileLoadWorkUnit a workunit that loads a listing of files asynchr...">
<polygon fill="white" stroke="black" points="23.268,-1 23.268,-21 195.268,-21 195.268,-1 23.268,-1"/>
<text text-anchor="middle" x="109.268" y="-8" font-family="FreeSans" font-size="10.00">asynchronousfileloadingworkunit.cpp</text>
</a>
</g>
<!-- Node3&#45;&gt;Node4 -->
<g id="edge6" class="edge"><title>Node3&#45;&gt;Node4</title>
<path fill="none" stroke="midnightblue" d="M109.268,-48.8902C109.268,-39.6201 109.268,-29.0083 109.268,-21.3776"/>
<polygon fill="midnightblue" stroke="midnightblue" points="105.768,-48.8971 109.268,-58.8972 112.768,-48.8972 105.768,-48.8971"/>
</g>
<!-- Node3&#45;&gt;Node5 -->
<g id="edge8" class="edge"><title>Node3&#45;&gt;Node5</title>
<path fill="none" stroke="midnightblue" d="M169.844,-56.9678C223.402,-46.3296 300.617,-30.9923 350.869,-21.0108"/>
<polygon fill="midnightblue" stroke="midnightblue" points="168.924,-53.5821 159.797,-58.9634 170.287,-60.448 168.924,-53.5821"/>
</g>
<!-- Node7&#45;&gt;Node5 -->
<g id="edge40" class="edge"><title>Node7&#45;&gt;Node5</title>
<path fill="none" stroke="midnightblue" d="M442.878,-223.048C440.704,-214.716 438.248,-204.918 436.268,-196 421.531,-129.626 407.636,-48.9807 402.944,-21.0723"/>
<polygon fill="midnightblue" stroke="midnightblue" points="439.56,-224.192 445.509,-232.959 446.326,-222.396 439.56,-224.192"/>
</g>
<!-- Node8 -->
<g id="node16" class="node"><title>Node8</title>
<a xlink:href="workunit_8h.html" target="_top" xlink:title="This file has the definition of the workunit.">
<polygon fill="white" stroke="black" points="466.268,-175 466.268,-195 526.268,-195 526.268,-175 466.268,-175"/>
<text text-anchor="middle" x="496.268" y="-182" font-family="FreeSans" font-size="10.00">workunit.h</text>
</a>
</g>
<!-- Node7&#45;&gt;Node8 -->
<g id="edge16" class="edge"><title>Node7&#45;&gt;Node8</title>
<path fill="none" stroke="midnightblue" d="M463.18,-224.981C471.232,-215.252 480.884,-203.589 487.68,-195.378"/>
<polygon fill="midnightblue" stroke="midnightblue" points="460.308,-222.962 456.629,-232.897 465.701,-227.425 460.308,-222.962"/>
</g>
<!-- Node7&#45;&gt;Node10 -->
<g id="edge42" class="edge"><title>Node7&#45;&gt;Node10</title>
<path fill="none" stroke="midnightblue" d="M444.083,-222.503C439.784,-195.574 436.443,-147.964 458.268,-116 470.825,-97.6096 492.668,-86.1608 512.45,-79.1738"/>
<polygon fill="midnightblue" stroke="midnightblue" points="440.697,-223.45 445.913,-232.671 447.586,-222.209 440.697,-223.45"/>
</g>
<!-- Node8&#45;&gt;Node2 -->
<g id="edge18" class="edge"><title>Node8&#45;&gt;Node2</title>
<path fill="none" stroke="midnightblue" d="M456.382,-174.485C416.075,-163.858 354.232,-147.554 314.519,-137.084"/>
<polygon fill="midnightblue" stroke="midnightblue" points="455.577,-177.892 466.139,-177.057 457.362,-171.123 455.577,-177.892"/>
</g>
<!-- Node8&#45;&gt;Node5 -->
<g id="edge36" class="edge"><title>Node8&#45;&gt;Node5</title>
<path fill="none" stroke="midnightblue" d="M479.943,-167.068C472.75,-158.627 464.529,-148.192 458.268,-138 433.22,-97.2275 412.82,-43.5529 404.863,-21.3244"/>
<polygon fill="midnightblue" stroke="midnightblue" points="477.46,-169.545 486.683,-174.761 482.725,-164.932 477.46,-169.545"/>
</g>
<!-- Node9 -->
<g id="node19" class="node"><title>Node9</title>
<a xlink:href="frameschedulerworkunits_8h.html" target="_top" xlink:title="This defines a number of workunits that are required for doing some tasks that the Framescheduler req...">
<polygon fill="white" stroke="black" points="466.768,-117 466.768,-137 597.768,-137 597.768,-117 466.768,-117"/>
<text text-anchor="middle" x="532.268" y="-124" font-family="FreeSans" font-size="10.00">frameschedulerworkunits.h</text>
</a>
</g>
<!-- Node8&#45;&gt;Node9 -->
<g id="edge20" class="edge"><title>Node8&#45;&gt;Node9</title>
<path fill="none" stroke="midnightblue" d="M507.82,-166.389C513.782,-156.782 520.833,-145.423 525.827,-137.378"/>
<polygon fill="midnightblue" stroke="midnightblue" points="504.839,-164.555 502.539,-174.897 510.786,-168.247 504.839,-164.555"/>
</g>
<!-- Node8&#45;&gt;Node12 -->
<g id="edge28" class="edge"><title>Node8&#45;&gt;Node12</title>
<path fill="none" stroke="midnightblue" d="M536.547,-176.566C591.707,-165.016 689.692,-144.5 740.569,-133.847"/>
<polygon fill="midnightblue" stroke="midnightblue" points="535.51,-173.207 526.439,-178.683 536.944,-180.059 535.51,-173.207"/>
</g>
<!-- Node8&#45;&gt;Node14 -->
<g id="edge38" class="edge"><title>Node8&#45;&gt;Node14</title>
<path fill="none" stroke="midnightblue" d="M532.502,-171.354C560.389,-160.85 598.302,-146.572 623.493,-137.084"/>
<polygon fill="midnightblue" stroke="midnightblue" points="531.217,-168.097 523.093,-174.897 533.685,-174.648 531.217,-168.097"/>
</g>
<!-- Node9&#45;&gt;Node5 -->
<g id="edge22" class="edge"><title>Node9&#45;&gt;Node5</title>
<path fill="none" stroke="midnightblue" d="M512.808,-109.768C485.083,-85.2175 435.092,-40.9513 412.68,-21.1055"/>
<polygon fill="midnightblue" stroke="midnightblue" points="510.836,-112.697 520.643,-116.706 515.476,-107.456 510.836,-112.697"/>
</g>
<!-- Node9&#45;&gt;Node10 -->
<g id="edge24" class="edge"><title>Node9&#45;&gt;Node10</title>
<path fill="none" stroke="midnightblue" d="M540.004,-107.493C543.735,-98.0829 548.061,-87.1742 551.153,-79.3776"/>
<polygon fill="midnightblue" stroke="midnightblue" points="536.707,-106.311 536.274,-116.897 543.214,-108.892 536.707,-106.311"/>
</g>
<!-- Node9&#45;&gt;Node11 -->
<g id="edge26" class="edge"><title>Node9&#45;&gt;Node11</title>
<path fill="none" stroke="midnightblue" d="M586.339,-114.701C633.059,-104.075 699.736,-88.9093 743.255,-79.0108"/>
<polygon fill="midnightblue" stroke="midnightblue" points="585.369,-111.333 576.394,-116.963 586.922,-118.158 585.369,-111.333"/>
</g>
<!-- Node12&#45;&gt;Node5 -->
<g id="edge30" class="edge"><title>Node12&#45;&gt;Node5</title>
<path fill="none" stroke="midnightblue" d="M815.506,-113.872C849.025,-101.343 887.067,-81.0075 866.268,-58 839.061,-27.9046 570.551,-16.1467 454.38,-12.4428"/>
<polygon fill="midnightblue" stroke="midnightblue" points="814.013,-110.688 805.773,-117.349 816.368,-117.28 814.013,-110.688"/>
</g>
<!-- Node12&#45;&gt;Node10 -->
<g id="edge32" class="edge"><title>Node12&#45;&gt;Node10</title>
<path fill="none" stroke="midnightblue" d="M730.892,-115.726C690.837,-105.069 631.309,-89.2311 592.892,-79.01"/>
<polygon fill="midnightblue" stroke="midnightblue" points="730.067,-119.128 740.631,-118.317 731.867,-112.363 730.067,-119.128"/>
</g>
<!-- Node13 -->
<g id="node30" class="node"><title>Node13</title>
<a xlink:href="monopoly_8cpp.html" target="_top" xlink:title="Contains the minimal implementation for the monopoly base class.">
<polygon fill="white" stroke="black" points="623.268,-59 623.268,-79 699.268,-79 699.268,-59 623.268,-59"/>
<text text-anchor="middle" x="661.268" y="-66" font-family="FreeSans" font-size="10.00">monopoly.cpp</text>
</a>
</g>
<!-- Node12&#45;&gt;Node13 -->
<g id="edge34" class="edge"><title>Node12&#45;&gt;Node13</title>
<path fill="none" stroke="midnightblue" d="M744.794,-112.254C724.816,-101.909 698.616,-88.3411 680.929,-79.1817"/>
<polygon fill="midnightblue" stroke="midnightblue" points="743.27,-115.407 753.759,-116.897 746.489,-109.191 743.27,-115.407"/>
</g>
</g>
</svg>
        <g id="navigator" transform="translate(0 0)" fill="#404254">
                <rect fill="#f2f5e9" fill-opacity="0.5" stroke="#606060" stroke-width=".5" x="0" y="0" width="60" height="60"/>
                <use id="zoomplus" xlink:href="#zoomPlus" x="17" y="9" onmousedown="handleZoom(evt,'in')"/>
                <use id="zoomminus" xlink:href="#zoomMin" x="42" y="9" onmousedown="handleZoom(evt,'out')"/>
                <use id="reset" xlink:href="#resetDef" x="30" y="36" onmousedown="handleReset()"/>
                <g id="arrowUp" xlink:href="#dirArrow" transform="translate(30 24)" onmousedown="handlePan(0,-1)">
                  <use xlink:href="#rim" fill="#404040">
                        <set attributeName="fill" to="#808080" begin="arrowUp.mouseover" end="arrowUp.mouseout"/>
                  </use>
                  <path fill="none" stroke="white" stroke-width="1.5" d="M0,-3.0v7 M-2.5,-0.5L0,-3.0L2.5,-0.5"/>
                </g>
                <g id="arrowRight" xlink:href="#dirArrow" transform="rotate(90) translate(36 -43)" onmousedown="handlePan(1,0)">
                  <use xlink:href="#rim" fill="#404040">
                        <set attributeName="fill" to="#808080" begin="arrowRight.mouseover" end="arrowRight.mouseout"/>
                  </use>
                  <path fill="none" stroke="white" stroke-width="1.5" d="M0,-3.0v7 M-2.5,-0.5L0,-3.0L2.5,-0.5"/>
                </g>
                <g id="arrowDown" xlink:href="#dirArrow" transform="rotate(180) translate(-30 -48)" onmousedown="handlePan(0,1)">
                  <use xlink:href="#rim" fill="#404040">
                        <set attributeName="fill" to="#808080" begin="arrowDown.mouseover" end="arrowDown.mouseout"/>
                  </use>
                  <path fill="none" stroke="white" stroke-width="1.5" d="M0,-3.0v7 M-2.5,-0.5L0,-3.0L2.5,-0.5"/>
                </g>
                <g id="arrowLeft" xlink:href="#dirArrow" transform="rotate(270) translate(-36 17)" onmousedown="handlePan(-1,0)">
                  <use xlink:href="#rim" fill="#404040">
                        <set attributeName="fill" to="#808080" begin="arrowLeft.mouseover" end="arrowLeft.mouseout"/>
                  </use>
                  <path fill="none" stroke="white" stroke-width="1.5" d="M0,-3.0v7 M-2.5,-0.5L0,-3.0L2.5,-0.5"/>
                </g>
        </g>
        <svg viewBox="0 0 15 15" width="100%" height="30px" preserveAspectRatio="xMaxYMin meet">
         <g id="arrow_out" transform="scale(0.3 0.3)">
          <a xlink:href="doublebufferedresource_8h__dep__incl_org.svg" target="_base">
           <rect id="button" ry="5" rx="5" y="6" x="6" height="38" width="38"
                fill="#f2f5e9" fill-opacity="0.5" stroke="#606060" stroke-width="1.0"/>
           <path id="arrow"
             d="M 11.500037,31.436501 C 11.940474,20.09759 22.043105,11.32322 32.158766,21.979434 L 37.068811,17.246167 C 37.068811,17.246167 37.088388,32 37.088388,32 L 22.160133,31.978069 C 22.160133,31.978069 26.997745,27.140456 26.997745,27.140456 C 18.528582,18.264221 13.291696,25.230495 11.500037,31.436501 z"
             style="fill:#404040;"/>
          </a>
         </g>
        </svg>
</svg>
