<?xml version="1.0" encoding="UTF-8" standalone="no"?>
<!DOCTYPE svg PUBLIC "-//W3C//DTD SVG 1.1//EN"
 "http://www.w3.org/Graphics/SVG/1.1/DTD/svg11.dtd">
<!-- Generated by graphviz version 2.26.3 (20100126.1600)
 -->
<!-- Title: G Pages: 1 -->
<!--zoomable 272 -->
<svg id="main" version="1.1" xmlns="http://www.w3.org/2000/svg" xmlns:xlink="http://www.w3.org/1999/xlink" xml:space="preserve" onload="init(evt)">
        <defs>
                <circle id="rim" cx="0" cy="0" r="7"/>
                <circle id="rim2" cx="0" cy="0" r="3.5"/>
                <g id="zoomPlus">
                        <use xlink:href="#rim" fill="#404040">
                                <set attributeName="fill" to="#808080" begin="zoomplus.mouseover" end="zoomplus.mouseout"/>
                        </use>
                        <path d="M-4,0h8M0,-4v8" fill="none" stroke="white" stroke-width="1.5" pointer-events="none"/>
                </g>
                <g id="zoomMin">
                        <use xlink:href="#rim" fill="#404040">
                                <set attributeName="fill" to="#808080" begin="zoomminus.mouseover" end="zoomminus.mouseout"/>
                        </use>
                        <path d="M-4,0h8" fill="none" stroke="white" stroke-width="1.5" pointer-events="none"/>
                </g>
                <g id="dirArrow">
                        <path fill="none" stroke="white" stroke-width="1.5" d="M0,-3.0v7 M-2.5,-0.5L0,-3.0L2.5,-0.5"/>
                </g>
               <g id="resetDef">
                       <use xlink:href="#rim2" fill="#404040">
                               <set attributeName="fill" to="#808080" begin="reset.mouseover" end="reset.mouseout"/>
                       </use>
               </g>
        </defs>

<script type="text/javascript">
var viewWidth = 944;
var viewHeight = 272;
var sectionId = 'dynsection-1';
</script>
<script xlink:href="svgpan.js"/>
<svg id="graph" class="graph">
<g id="viewport">
<title>G</title>
<polygon fill="white" stroke="white" points="-4,5 -4,-268 941,-268 941,5 -4,5"/>
<!-- Node1 -->
<g id="node1" class="node"><title>Node1</title>
<polygon fill="#bfbfbf" stroke="black" points="842,-241 842,-263 936,-263 936,-241 842,-241"/>
<text text-anchor="middle" x="889" y="-250" font-family="FreeSans" font-size="10.00">framescheduler.h</text>
</g>
<!-- Node2 -->
<g id="node3" class="node"><title>Node2</title>
<a xlink:href="workunit_8h.html" target="_top" xlink:title="This file has the defintion of the workunit.">
<polygon fill="white" stroke="black" points="552.5,-181 552.5,-203 613.5,-203 613.5,-181 552.5,-181"/>
<text text-anchor="middle" x="583" y="-190" font-family="FreeSans" font-size="10.00">workunit.h</text>
</a>
</g>
<!-- Node1&#45;&gt;Node2 -->
<g id="edge2" class="edge"><title>Node1&#45;&gt;Node2</title>
<path fill="none" stroke="midnightblue" d="M831.85,-240.794C767.372,-228.151 664.867,-208.052 613.89,-198.057"/>
<polygon fill="midnightblue" stroke="midnightblue" points="831.371,-244.267 841.858,-242.756 832.718,-237.398 831.371,-244.267"/>
</g>
<!-- Node6 -->
<g id="node11" class="node"><title>Node6</title>
<a xlink:href="dagframescheduler_8h.html" target="_top" xlink:title="This is the file that code using this library should include. It includes all the required components...">
<polygon fill="white" stroke="black" points="356,-1 356,-23 468,-23 468,-1 356,-1"/>
<text text-anchor="middle" x="412" y="-10" font-family="FreeSans" font-size="10.00">dagframescheduler.h</text>
</a>
</g>
<!-- Node1&#45;&gt;Node6 -->
<g id="edge34" class="edge"><title>Node1&#45;&gt;Node6</title>
<path fill="none" stroke="midnightblue" d="M894.414,-231.087C903.25,-191.574 915.549,-105.813 870,-60 842.133,-31.9709 584.031,-18.6032 468.018,-13.971"/>
<polygon fill="midnightblue" stroke="midnightblue" points="890.981,-230.395 892.064,-240.934 897.79,-232.019 890.981,-230.395"/>
</g>
<!-- Node11 -->
<g id="node24" class="node"><title>Node11</title>
<a xlink:href="framescheduler_8cpp.html" target="_top" xlink:title="This is the core object implementation for this algorithm.">
<polygon fill="white" stroke="black" points="757,-61 757,-83 861,-83 861,-61 757,-61"/>
<text text-anchor="middle" x="809" y="-70" font-family="FreeSans" font-size="10.00">framescheduler.cpp</text>
</a>
</g>
<!-- Node1&#45;&gt;Node11 -->
<g id="edge36" class="edge"><title>Node1&#45;&gt;Node11</title>
<path fill="none" stroke="midnightblue" d="M879.73,-231.142C862.736,-192.905 827.133,-112.798 814.002,-83.2556"/>
<polygon fill="midnightblue" stroke="midnightblue" points="876.736,-233.024 883.996,-240.74 883.133,-230.181 876.736,-233.024"/>
</g>
<!-- Node3 -->
<g id="node5" class="node"><title>Node3</title>
<a xlink:href="asynchronousworkunit_8h.html" target="_top" xlink:title="Contains an interface for a kind of WorkUnit that loads or does other work even when the frame schedu...">
<polygon fill="white" stroke="black" points="189.5,-121 189.5,-143 312.5,-143 312.5,-121 189.5,-121"/>
<text text-anchor="middle" x="251" y="-130" font-family="FreeSans" font-size="10.00">asynchronousworkunit.h</text>
</a>
</g>
<!-- Node2&#45;&gt;Node3 -->
<g id="edge4" class="edge"><title>Node2&#45;&gt;Node3</title>
<path fill="none" stroke="midnightblue" d="M542.182,-184.623C484.568,-174.211 378.968,-155.127 312.015,-143.027"/>
<polygon fill="midnightblue" stroke="midnightblue" points="541.898,-188.129 552.361,-186.463 543.143,-181.24 541.898,-188.129"/>
</g>
<!-- Node2&#45;&gt;Node6 -->
<g id="edge30" class="edge"><title>Node2&#45;&gt;Node6</title>
<path fill="none" stroke="midnightblue" d="M542.419,-187.932C511.795,-182.736 470.928,-170.909 446,-144 413.836,-109.279 411.176,-48.2433 411.552,-23.2015"/>
<polygon fill="midnightblue" stroke="midnightblue" points="541.96,-191.402 552.374,-189.452 543.017,-184.483 541.96,-191.402"/>
</g>
<!-- Node8 -->
<g id="node16" class="node"><title>Node8</title>
<a xlink:href="frameschedulerworkunits_8h.html" target="_top" xlink:title="This defines a number of workunits that are required for doing some tasks that the Framescheduler req...">
<polygon fill="white" stroke="black" points="455,-121 455,-143 591,-143 591,-121 455,-121"/>
<text text-anchor="middle" x="523" y="-130" font-family="FreeSans" font-size="10.00">frameschedulerworkunits.h</text>
</a>
</g>
<!-- Node2&#45;&gt;Node8 -->
<g id="edge16" class="edge"><title>Node2&#45;&gt;Node8</title>
<path fill="none" stroke="midnightblue" d="M564.894,-173.894C554.961,-163.961 542.952,-151.952 534.343,-143.343"/>
<polygon fill="midnightblue" stroke="midnightblue" points="562.449,-176.399 571.995,-180.995 567.399,-171.449 562.449,-176.399"/>
</g>
<!-- Node10 -->
<g id="node21" class="node"><title>Node10</title>
<a xlink:href="monopoly_8h.html" target="_top" xlink:title="Contains an interface for a kind of WorkUnit that consumes time on multiple thread.">
<polygon fill="white" stroke="black" points="609,-121 609,-143 677,-143 677,-121 609,-121"/>
<text text-anchor="middle" x="643" y="-130" font-family="FreeSans" font-size="10.00">monopoly.h</text>
</a>
</g>
<!-- Node2&#45;&gt;Node10 -->
<g id="edge22" class="edge"><title>Node2&#45;&gt;Node10</title>
<path fill="none" stroke="midnightblue" d="M601.106,-173.894C611.039,-163.961 623.048,-151.952 631.657,-143.343"/>
<polygon fill="midnightblue" stroke="midnightblue" points="598.601,-171.449 594.005,-180.995 603.551,-176.399 598.601,-171.449"/>
</g>
<!-- Node13 -->
<g id="node29" class="node"><title>Node13</title>
<a xlink:href="workunit_8cpp.html" target="_top" xlink:title="This file has the implementation of the workunit.">
<polygon fill="white" stroke="black" points="694.5,-121 694.5,-143 765.5,-143 765.5,-121 694.5,-121"/>
<text text-anchor="middle" x="730" y="-130" font-family="FreeSans" font-size="10.00">workunit.cpp</text>
</a>
</g>
<!-- Node2&#45;&gt;Node13 -->
<g id="edge32" class="edge"><title>Node2&#45;&gt;Node13</title>
<path fill="none" stroke="midnightblue" d="M619.434,-177.129C645.311,-166.567 679.491,-152.616 702.96,-143.037"/>
<polygon fill="midnightblue" stroke="midnightblue" points="617.898,-173.976 609.962,-180.995 620.543,-180.457 617.898,-173.976"/>
</g>
<!-- Node4 -->
<g id="node7" class="node"><title>Node4</title>
<a xlink:href="asynchronousfileloadingworkunit_8h.html" target="_top" xlink:title="The declaration of the AsynchronousFileLoadWorkUnit a workunit that loads a listing of files asynchro...">
<polygon fill="white" stroke="black" points="5,-61 5,-83 175,-83 175,-61 5,-61"/>
<text text-anchor="middle" x="90" y="-70" font-family="FreeSans" font-size="10.00">asynchronousfileloadingworkunit.h</text>
</a>
</g>
<!-- Node3&#45;&gt;Node4 -->
<g id="edge6" class="edge"><title>Node3&#45;&gt;Node4</title>
<path fill="none" stroke="midnightblue" d="M211.844,-117.408C183.415,-106.813 145.546,-92.7002 119.615,-83.0366"/>
<polygon fill="midnightblue" stroke="midnightblue" points="210.877,-120.783 221.47,-120.995 213.322,-114.223 210.877,-120.783"/>
</g>
<!-- Node3&#45;&gt;Node6 -->
<g id="edge14" class="edge"><title>Node3&#45;&gt;Node6</title>
<path fill="none" stroke="midnightblue" d="M233.449,-112.927C221.432,-97.4872 209.704,-75.7885 222,-60 238.358,-38.9957 305.723,-25.7338 355.618,-18.5977"/>
<polygon fill="midnightblue" stroke="midnightblue" points="230.91,-115.347 240.005,-120.783 236.285,-110.862 230.91,-115.347"/>
</g>
<!-- Node7 -->
<g id="node13" class="node"><title>Node7</title>
<a xlink:href="asynchronousworkunit_8cpp.html" target="_top" xlink:title="Contains very little actually.">
<polygon fill="white" stroke="black" points="231,-61 231,-83 365,-83 365,-61 231,-61"/>
<text text-anchor="middle" x="298" y="-70" font-family="FreeSans" font-size="10.00">asynchronousworkunit.cpp</text>
</a>
</g>
<!-- Node3&#45;&gt;Node7 -->
<g id="edge12" class="edge"><title>Node3&#45;&gt;Node7</title>
<path fill="none" stroke="midnightblue" d="M265.873,-113.013C273.515,-103.258 282.569,-91.6991 289.115,-83.3428"/>
<polygon fill="midnightblue" stroke="midnightblue" points="263.032,-110.964 259.621,-120.995 268.542,-115.281 263.032,-110.964"/>
</g>
<!-- Node5 -->
<g id="node9" class="node"><title>Node5</title>
<a xlink:href="asynchronousfileloadingworkunit_8cpp.html" target="_top" xlink:title="The implemtation of the AsynchronousFileLoadWorkUnit a workunit that loads a listing of files asynchr...">
<polygon fill="white" stroke="black" points="0,-1 0,-23 180,-23 180,-1 0,-1"/>
<text text-anchor="middle" x="90" y="-10" font-family="FreeSans" font-size="10.00">asynchronousfileloadingworkunit.cpp</text>
</a>
</g>
<!-- Node4&#45;&gt;Node5 -->
<g id="edge8" class="edge"><title>Node4&#45;&gt;Node5</title>
<path fill="none" stroke="midnightblue" d="M90,-50.9183C90,-41.6393 90,-31.1082 90,-23.3428"/>
<polygon fill="midnightblue" stroke="midnightblue" points="86.5001,-50.995 90,-60.9951 93.5001,-50.9951 86.5001,-50.995"/>
</g>
<!-- Node4&#45;&gt;Node6 -->
<g id="edge10" class="edge"><title>Node4&#45;&gt;Node6</title>
<path fill="none" stroke="midnightblue" d="M158.993,-59.1442C217.708,-48.2034 300.998,-32.6835 355.742,-22.4828"/>
<polygon fill="midnightblue" stroke="midnightblue" points="158.249,-55.7224 149.06,-60.9951 159.532,-62.6039 158.249,-55.7224"/>
</g>
<!-- Node8&#45;&gt;Node6 -->
<g id="edge18" class="edge"><title>Node8&#45;&gt;Node6</title>
<path fill="none" stroke="midnightblue" d="M491.275,-115.898C477.38,-107.723 461.628,-96.8023 450,-84 433.179,-65.4814 421.453,-38.1515 415.817,-23.0473"/>
<polygon fill="midnightblue" stroke="midnightblue" points="489.647,-118.998 500.076,-120.866 493.088,-112.902 489.647,-118.998"/>
</g>
<!-- Node9 -->
<g id="node19" class="node"><title>Node9</title>
<a xlink:href="frameschedulerworkunits_8cpp.html" target="_top" xlink:title="The implementation of any workunits the framescheduler needs to work correctly.">
<polygon fill="white" stroke="black" points="459,-61 459,-83 605,-83 605,-61 459,-61"/>
<text text-anchor="middle" x="532" y="-70" font-family="FreeSans" font-size="10.00">frameschedulerworkunits.cpp</text>
</a>
</g>
<!-- Node8&#45;&gt;Node9 -->
<g id="edge20" class="edge"><title>Node8&#45;&gt;Node9</title>
<path fill="none" stroke="midnightblue" d="M526.162,-110.918C527.554,-101.639 529.134,-91.1082 530.299,-83.3428"/>
<polygon fill="midnightblue" stroke="midnightblue" points="522.673,-110.586 524.651,-120.995 529.596,-111.625 522.673,-110.586"/>
</g>
<!-- Node10&#45;&gt;Node6 -->
<g id="edge24" class="edge"><title>Node10&#45;&gt;Node6</title>
<path fill="none" stroke="midnightblue" d="M639.817,-110.735C636.273,-94.5213 628.938,-72.8555 614,-60 592.347,-41.3665 520.073,-27.4064 468.161,-19.4756"/>
<polygon fill="midnightblue" stroke="midnightblue" points="636.44,-111.723 641.711,-120.914 643.322,-110.443 636.44,-111.723"/>
</g>
<!-- Node10&#45;&gt;Node11 -->
<g id="edge26" class="edge"><title>Node10&#45;&gt;Node11</title>
<path fill="none" stroke="midnightblue" d="M682.989,-117.546C712.342,-106.937 751.613,-92.7424 778.465,-83.0366"/>
<polygon fill="midnightblue" stroke="midnightblue" points="681.662,-114.304 673.447,-120.995 684.041,-120.887 681.662,-114.304"/>
</g>
<!-- Node12 -->
<g id="node26" class="node"><title>Node12</title>
<a xlink:href="monopoly_8cpp.html" target="_top" xlink:title="Contains the minimal implementation for the monopoly base class.">
<polygon fill="white" stroke="black" points="660.5,-61 660.5,-83 739.5,-83 739.5,-61 660.5,-61"/>
<text text-anchor="middle" x="700" y="-70" font-family="FreeSans" font-size="10.00">monopoly.cpp</text>
</a>
</g>
<!-- Node10&#45;&gt;Node12 -->
<g id="edge28" class="edge"><title>Node10&#45;&gt;Node12</title>
<path fill="none" stroke="midnightblue" d="M660.478,-113.602C669.86,-103.726 681.126,-91.8679 689.224,-83.3428"/>
<polygon fill="midnightblue" stroke="midnightblue" points="657.805,-111.334 653.455,-120.995 662.88,-116.156 657.805,-111.334"/>
</g>
</g>
</svg>
        <g id="navigator" transform="translate(0 0)" fill="#404254">
                <rect fill="#f2f5e9" fill-opacity="0.5" stroke="#606060" stroke-width=".5" x="0" y="0" width="60" height="60"/>
                <use id="zoomplus" xlink:href="#zoomPlus" x="17" y="9" onmousedown="handleZoom(evt,'in')"/>
                <use id="zoomminus" xlink:href="#zoomMin" x="42" y="9" onmousedown="handleZoom(evt,'out')"/>
                <use id="reset" xlink:href="#resetDef" x="30" y="36" onmousedown="handleReset()"/>
                <g id="arrowUp" xlink:href="#dirArrow" transform="translate(30 24)" onmousedown="handlePan(0,-1)">
                  <use xlink:href="#rim" fill="#404040">
                        <set attributeName="fill" to="#808080" begin="arrowUp.mouseover" end="arrowUp.mouseout"/>
                  </use>
                  <path fill="none" stroke="white" stroke-width="1.5" d="M0,-3.0v7 M-2.5,-0.5L0,-3.0L2.5,-0.5"/>
                </g>
                <g id="arrowRight" xlink:href="#dirArrow" transform="rotate(90) translate(36 -43)" onmousedown="handlePan(1,0)">
                  <use xlink:href="#rim" fill="#404040">
                        <set attributeName="fill" to="#808080" begin="arrowRight.mouseover" end="arrowRight.mouseout"/>
                  </use>
                  <path fill="none" stroke="white" stroke-width="1.5" d="M0,-3.0v7 M-2.5,-0.5L0,-3.0L2.5,-0.5"/>
                </g>
                <g id="arrowDown" xlink:href="#dirArrow" transform="rotate(180) translate(-30 -48)" onmousedown="handlePan(0,1)">
                  <use xlink:href="#rim" fill="#404040">
                        <set attributeName="fill" to="#808080" begin="arrowDown.mouseover" end="arrowDown.mouseout"/>
                  </use>
                  <path fill="none" stroke="white" stroke-width="1.5" d="M0,-3.0v7 M-2.5,-0.5L0,-3.0L2.5,-0.5"/>
                </g>
                <g id="arrowLeft" xlink:href="#dirArrow" transform="rotate(270) translate(-36 17)" onmousedown="handlePan(-1,0)">
                  <use xlink:href="#rim" fill="#404040">
                        <set attributeName="fill" to="#808080" begin="arrowLeft.mouseover" end="arrowLeft.mouseout"/>
                  </use>
                  <path fill="none" stroke="white" stroke-width="1.5" d="M0,-3.0v7 M-2.5,-0.5L0,-3.0L2.5,-0.5"/>
                </g>
        </g>
</svg>
