<?xml version="1.0" encoding="UTF-8" standalone="no"?>
<!DOCTYPE svg PUBLIC "-//W3C//DTD SVG 1.1//EN"
 "http://www.w3.org/Graphics/SVG/1.1/DTD/svg11.dtd">
<!-- Generated by graphviz version 2.26.3 (20100126.1600)
 -->
<!-- Title: G Pages: 1 -->
<!--zoomable 332 -->
<svg id="main" version="1.1" xmlns="http://www.w3.org/2000/svg" xmlns:xlink="http://www.w3.org/1999/xlink" xml:space="preserve" onload="init(evt)">
        <defs>
                <circle id="rim" cx="0" cy="0" r="7"/>
                <circle id="rim2" cx="0" cy="0" r="3.5"/>
                <g id="zoomPlus">
                        <use xlink:href="#rim" fill="#404040">
                                <set attributeName="fill" to="#808080" begin="zoomplus.mouseover" end="zoomplus.mouseout"/>
                        </use>
                        <path d="M-4,0h8M0,-4v8" fill="none" stroke="white" stroke-width="1.5" pointer-events="none"/>
                </g>
                <g id="zoomMin">
                        <use xlink:href="#rim" fill="#404040">
                                <set attributeName="fill" to="#808080" begin="zoomminus.mouseover" end="zoomminus.mouseout"/>
                        </use>
                        <path d="M-4,0h8" fill="none" stroke="white" stroke-width="1.5" pointer-events="none"/>
                </g>
                <g id="dirArrow">
                        <path fill="none" stroke="white" stroke-width="1.5" d="M0,-3.0v7 M-2.5,-0.5L0,-3.0L2.5,-0.5"/>
                </g>
               <g id="resetDef">
                       <use xlink:href="#rim2" fill="#404040">
                               <set attributeName="fill" to="#808080" begin="reset.mouseover" end="reset.mouseout"/>
                       </use>
               </g>
        </defs>

<script type="text/javascript">
var viewWidth = 605;
var viewHeight = 332;
var sectionId = 'dynsection-0';
</script>
<script xlink:href="svgpan.js"/>
<svg id="graph" class="graph">
<g id="viewport">
<title>G</title>
<polygon fill="white" stroke="white" points="-4,5 -4,-328 601.826,-328 601.826,5 -4,5"/>
<!-- Node1 -->
<g id="node1" class="node"><title>Node1</title>
<polygon fill="#bfbfbf" stroke="black" points="326.826,-301 326.826,-323 420.826,-323 420.826,-301 326.826,-301"/>
<text text-anchor="middle" x="373.826" y="-310" font-family="FreeSans" font-size="10.00">framescheduler.h</text>
</g>
<!-- Node2 -->
<g id="node3" class="node"><title>Node2</title>
<a xlink:href="datatypes_8h.html" target="_top" xlink:title="This file declares a few typedefs to allow flexibility, in case a change is required/desired.">
<polygon fill="white" stroke="black" points="231.826,-121 231.826,-143 299.826,-143 299.826,-121 231.826,-121"/>
<text text-anchor="middle" x="265.826" y="-130" font-family="FreeSans" font-size="10.00">datatypes.h</text>
</a>
</g>
<!-- Node1&#45;&gt;Node2 -->
<g id="edge2" class="edge"><title>Node1&#45;&gt;Node2</title>
<path fill="none" stroke="midnightblue" d="M326.479,-305.878C234.858,-292.88 39.2682,-259.122 4.82623,-204 -0.825978,-194.954 -2.00013,-188.196 4.82623,-180 31.8344,-147.572 153.849,-136.975 221.062,-133.57"/>
<polygon fill="midnightblue" stroke="midnightblue" points="221.532,-137.052 231.355,-133.083 221.201,-130.06 221.532,-137.052"/>
</g>
<!-- Node10 -->
<g id="node19" class="node"><title>Node10</title>
<a xlink:href="thread_8h.html" target="_top" xlink:title="This file defines a minimalistic cross&#45;platform thread that the scheduler uses to schedule tasks...">
<polygon fill="white" stroke="black" points="374.326,-241 374.326,-263 427.326,-263 427.326,-241 374.326,-241"/>
<text text-anchor="middle" x="400.826" y="-250" font-family="FreeSans" font-size="10.00">thread.h</text>
</a>
</g>
<!-- Node1&#45;&gt;Node10 -->
<g id="edge18" class="edge"><title>Node1&#45;&gt;Node10</title>
<path fill="none" stroke="midnightblue" d="M378.778,-300.995C382.349,-293.061 387.275,-282.115 391.565,-272.581"/>
<polygon fill="midnightblue" stroke="midnightblue" points="394.81,-273.898 395.722,-263.343 388.427,-271.026 394.81,-273.898"/>
</g>
<!-- Node11 -->
<g id="node22" class="node"><title>Node11</title>
<a xlink:href="systemcalls_8h.html" target="_top" xlink:title="This file defines a minimalistic cross&#45;platform thread that the scheduler uses to schedule tasks...">
<polygon fill="white" stroke="black" points="353.326,-181 353.326,-203 430.326,-203 430.326,-181 353.326,-181"/>
<text text-anchor="middle" x="391.826" y="-190" font-family="FreeSans" font-size="10.00">systemcalls.h</text>
</a>
</g>
<!-- Node1&#45;&gt;Node11 -->
<g id="edge50" class="edge"><title>Node1&#45;&gt;Node11</title>
<path fill="none" stroke="midnightblue" d="M370.091,-300.604C365.95,-286.263 360.512,-260.969 365.826,-240 368.33,-230.121 373.318,-220.073 378.261,-211.74"/>
<polygon fill="midnightblue" stroke="midnightblue" points="381.299,-213.483 383.688,-203.161 375.384,-209.741 381.299,-213.483"/>
</g>
<!-- Node15 -->
<g id="node33" class="node"><title>Node15</title>
<a xlink:href="doublebufferedresource_8h.html" target="_top" xlink:title="This file defines the template double buffered resources that can be attached to a thread...">
<polygon fill="white" stroke="black" points="188.326,-241 188.326,-263 319.326,-263 319.326,-241 188.326,-241"/>
<text text-anchor="middle" x="253.826" y="-250" font-family="FreeSans" font-size="10.00">doublebufferedresource.h</text>
</a>
</g>
<!-- Node1&#45;&gt;Node15 -->
<g id="edge36" class="edge"><title>Node1&#45;&gt;Node15</title>
<path fill="none" stroke="midnightblue" d="M351.816,-300.995C333.158,-291.666 306.172,-278.173 285.242,-267.708"/>
<polygon fill="midnightblue" stroke="midnightblue" points="286.612,-264.48 276.103,-263.138 283.482,-270.741 286.612,-264.48"/>
</g>
<!-- Node18 -->
<g id="node41" class="node"><title>Node18</title>
<a xlink:href="workunitkey_8h.html" target="_top" xlink:title="This file defines the metadata used to sort workunits.">
<polygon fill="white" stroke="black" points="13.3262,-181 13.3262,-203 90.3262,-203 90.3262,-181 13.3262,-181"/>
<text text-anchor="middle" x="51.8262" y="-190" font-family="FreeSans" font-size="10.00">workunitkey.h</text>
</a>
</g>
<!-- Node1&#45;&gt;Node18 -->
<g id="edge46" class="edge"><title>Node1&#45;&gt;Node18</title>
<path fill="none" stroke="midnightblue" d="M326.472,-303.993C286.496,-296.365 228.207,-283.182 179.826,-264 142.041,-249.019 101.677,-224.774 76.5998,-208.614"/>
<polygon fill="midnightblue" stroke="midnightblue" points="78.373,-205.591 68.0856,-203.058 74.5475,-211.454 78.373,-205.591"/>
</g>
<!-- Node19 -->
<g id="node45" class="node"><title>Node19</title>
<polygon fill="white" stroke="#bfbfbf" points="444.826,-241 444.826,-263 480.826,-263 480.826,-241 444.826,-241"/>
<text text-anchor="middle" x="462.826" y="-250" font-family="FreeSans" font-size="10.00">map</text>
</g>
<!-- Node1&#45;&gt;Node19 -->
<g id="edge52" class="edge"><title>Node1&#45;&gt;Node19</title>
<path fill="none" stroke="midnightblue" d="M390.15,-300.995C403.49,-292.002 422.569,-279.14 437.831,-268.851"/>
<polygon fill="midnightblue" stroke="midnightblue" points="439.969,-271.63 446.304,-263.138 436.056,-265.826 439.969,-271.63"/>
</g>
<!-- Node20 -->
<g id="node47" class="node"><title>Node20</title>
<polygon fill="white" stroke="#bfbfbf" points="498.826,-241 498.826,-263 528.826,-263 528.826,-241 498.826,-241"/>
<text text-anchor="middle" x="513.826" y="-250" font-family="FreeSans" font-size="10.00">set</text>
</g>
<!-- Node1&#45;&gt;Node20 -->
<g id="edge54" class="edge"><title>Node1&#45;&gt;Node20</title>
<path fill="none" stroke="midnightblue" d="M402.196,-300.917C423.893,-292.298 454.702,-279.752 489.306,-264.063"/>
<polygon fill="midnightblue" stroke="midnightblue" points="491.03,-267.123 498.67,-259.783 488.12,-260.757 491.03,-267.123"/>
</g>
<!-- Node21 -->
<g id="node49" class="node"><title>Node21</title>
<polygon fill="white" stroke="#bfbfbf" points="546.826,-241 546.826,-263 596.826,-263 596.826,-241 546.826,-241"/>
<text text-anchor="middle" x="571.826" y="-250" font-family="FreeSans" font-size="10.00">fstream</text>
</g>
<!-- Node1&#45;&gt;Node21 -->
<g id="edge56" class="edge"><title>Node1&#45;&gt;Node21</title>
<path fill="none" stroke="midnightblue" d="M413.779,-300.965C444.955,-292.207 489.549,-279.359 536.822,-264.226"/>
<polygon fill="midnightblue" stroke="midnightblue" points="538.183,-267.464 546.627,-261.066 536.036,-260.802 538.183,-267.464"/>
</g>
<!-- Node3 -->
<g id="node5" class="node"><title>Node3</title>
<a xlink:href="compilerthreadcompat_8h.html" target="_top" xlink:title="This file determines what features are offered by the compiler that this library can take advantage o...">
<polygon fill="white" stroke="black" points="377.826,-61 377.826,-83 501.826,-83 501.826,-61 377.826,-61"/>
<text text-anchor="middle" x="439.826" y="-70" font-family="FreeSans" font-size="10.00">compilerthreadcompat.h</text>
</a>
</g>
<!-- Node2&#45;&gt;Node3 -->
<g id="edge4" class="edge"><title>Node2&#45;&gt;Node3</title>
<path fill="none" stroke="midnightblue" d="M297.741,-120.995C325.981,-111.257 367.377,-96.9824 398.211,-86.3502"/>
<polygon fill="midnightblue" stroke="midnightblue" points="399.507,-89.6054 407.82,-83.0366 397.225,-82.9878 399.507,-89.6054"/>
</g>
<!-- Node8 -->
<g id="node15" class="node"><title>Node8</title>
<polygon fill="white" stroke="#bfbfbf" points="315.326,-61 315.326,-83 356.326,-83 356.326,-61 315.326,-61"/>
<text text-anchor="middle" x="335.826" y="-70" font-family="FreeSans" font-size="10.00">string</text>
</g>
<!-- Node2&#45;&gt;Node8 -->
<g id="edge14" class="edge"><title>Node2&#45;&gt;Node8</title>
<path fill="none" stroke="midnightblue" d="M278.665,-120.995C288.799,-112.309 303.144,-100.014 314.927,-89.9134"/>
<polygon fill="midnightblue" stroke="midnightblue" points="317.278,-92.5082 322.593,-83.3428 312.723,-87.1934 317.278,-92.5082"/>
</g>
<!-- Node9 -->
<g id="node17" class="node"><title>Node9</title>
<polygon fill="white" stroke="#bfbfbf" points="242.326,-61 242.326,-83 289.326,-83 289.326,-61 242.326,-61"/>
<text text-anchor="middle" x="265.826" y="-70" font-family="FreeSans" font-size="10.00">stdint.h</text>
</g>
<!-- Node2&#45;&gt;Node9 -->
<g id="edge16" class="edge"><title>Node2&#45;&gt;Node9</title>
<path fill="none" stroke="midnightblue" d="M265.826,-120.995C265.826,-113.311 265.826,-102.803 265.826,-93.4884"/>
<polygon fill="midnightblue" stroke="midnightblue" points="269.326,-93.3428 265.826,-83.3428 262.326,-93.3429 269.326,-93.3428"/>
</g>
<!-- Node4 -->
<g id="node7" class="node"><title>Node4</title>
<polygon fill="white" stroke="#bfbfbf" points="303.826,-1 303.826,-23 361.826,-23 361.826,-1 303.826,-1"/>
<text text-anchor="middle" x="332.826" y="-10" font-family="FreeSans" font-size="10.00">pthread.h</text>
</g>
<!-- Node3&#45;&gt;Node4 -->
<g id="edge6" class="edge"><title>Node3&#45;&gt;Node4</title>
<path fill="none" stroke="midnightblue" d="M420.201,-60.9951C403.788,-51.7917 380.15,-38.5366 361.598,-28.1336"/>
<polygon fill="midnightblue" stroke="midnightblue" points="363.124,-24.9766 352.69,-23.1383 359.7,-31.0822 363.124,-24.9766"/>
</g>
<!-- Node5 -->
<g id="node9" class="node"><title>Node5</title>
<polygon fill="white" stroke="#bfbfbf" points="379.326,-1 379.326,-23 430.326,-23 430.326,-1 379.326,-1"/>
<text text-anchor="middle" x="404.826" y="-10" font-family="FreeSans" font-size="10.00">signal.h</text>
</g>
<!-- Node3&#45;&gt;Node5 -->
<g id="edge8" class="edge"><title>Node3&#45;&gt;Node5</title>
<path fill="none" stroke="midnightblue" d="M433.407,-60.9951C428.681,-52.8936 422.124,-41.6525 416.482,-31.981"/>
<polygon fill="midnightblue" stroke="midnightblue" points="419.505,-30.2171 411.443,-23.3428 413.458,-33.7442 419.505,-30.2171"/>
</g>
<!-- Node6 -->
<g id="node11" class="node"><title>Node6</title>
<polygon fill="white" stroke="#bfbfbf" points="447.826,-1 447.826,-23 499.826,-23 499.826,-1 447.826,-1"/>
<text text-anchor="middle" x="473.826" y="-10" font-family="FreeSans" font-size="10.00">sched.h</text>
</g>
<!-- Node3&#45;&gt;Node6 -->
<g id="edge10" class="edge"><title>Node3&#45;&gt;Node6</title>
<path fill="none" stroke="midnightblue" d="M446.062,-60.9951C450.606,-52.9771 456.892,-41.884 462.334,-32.2806"/>
<polygon fill="midnightblue" stroke="midnightblue" points="465.514,-33.7686 467.399,-23.3428 459.423,-30.3175 465.514,-33.7686"/>
</g>
<!-- Node7 -->
<g id="node13" class="node"><title>Node7</title>
<polygon fill="white" stroke="#bfbfbf" points="517.826,-1 517.826,-23 567.826,-23 567.826,-1 517.826,-1"/>
<text text-anchor="middle" x="542.826" y="-10" font-family="FreeSans" font-size="10.00">unistd.h</text>
</g>
<!-- Node3&#45;&gt;Node7 -->
<g id="edge12" class="edge"><title>Node3&#45;&gt;Node7</title>
<path fill="none" stroke="midnightblue" d="M458.718,-60.9951C474.445,-51.8337 497.064,-38.6576 514.885,-28.2763"/>
<polygon fill="midnightblue" stroke="midnightblue" points="516.826,-31.1962 523.705,-23.1383 513.303,-25.1476 516.826,-31.1962"/>
</g>
<!-- Node10&#45;&gt;Node3 -->
<g id="edge20" class="edge"><title>Node10&#45;&gt;Node3</title>
<path fill="none" stroke="midnightblue" d="M417.396,-240.996C429.36,-232.262 445.065,-219.049 454.826,-204 470.048,-180.533 469.554,-171.644 473.826,-144 475.455,-133.458 477.061,-130.164 473.826,-120 470.47,-109.455 463.863,-99.2376 457.359,-90.959"/>
<polygon fill="midnightblue" stroke="midnightblue" points="459.871,-88.5074 450.759,-83.1015 454.511,-93.0098 459.871,-88.5074"/>
</g>
<!-- Node10&#45;&gt;Node11 -->
<g id="edge22" class="edge"><title>Node10&#45;&gt;Node11</title>
<path fill="none" stroke="midnightblue" d="M399.175,-240.995C398.023,-233.311 396.447,-222.803 395.049,-213.488"/>
<polygon fill="midnightblue" stroke="midnightblue" points="398.472,-212.713 393.528,-203.343 391.55,-213.751 398.472,-212.713"/>
</g>
<!-- Node12 -->
<g id="node25" class="node"><title>Node12</title>
<a xlink:href="mutex_8h.html" target="_top" xlink:title="This file declares and defines a mutex that is a partial implementation.">
<polygon fill="white" stroke="black" points="414.326,-121 414.326,-143 465.326,-143 465.326,-121 414.326,-121"/>
<text text-anchor="middle" x="439.826" y="-130" font-family="FreeSans" font-size="10.00">mutex.h</text>
</a>
</g>
<!-- Node10&#45;&gt;Node12 -->
<g id="edge26" class="edge"><title>Node10&#45;&gt;Node12</title>
<path fill="none" stroke="midnightblue" d="M413.337,-240.757C422.314,-231.805 433.697,-218.42 438.826,-204 444.636,-187.669 444.445,-167.907 443.05,-153.221"/>
<polygon fill="midnightblue" stroke="midnightblue" points="446.504,-152.628 441.828,-143.121 439.555,-153.469 446.504,-152.628"/>
</g>
<!-- Node13 -->
<g id="node29" class="node"><title>Node13</title>
<polygon fill="white" stroke="#bfbfbf" points="523.326,-181 523.326,-203 576.326,-203 576.326,-181 523.326,-181"/>
<text text-anchor="middle" x="549.826" y="-190" font-family="FreeSans" font-size="10.00">ostream</text>
</g>
<!-- Node10&#45;&gt;Node13 -->
<g id="edge32" class="edge"><title>Node10&#45;&gt;Node13</title>
<path fill="none" stroke="midnightblue" d="M427.464,-241.273C451.544,-231.577 487.193,-217.221 513.809,-206.504"/>
<polygon fill="midnightblue" stroke="midnightblue" points="515.199,-209.717 523.168,-202.735 512.584,-203.224 515.199,-209.717"/>
</g>
<!-- Node14 -->
<g id="node31" class="node"><title>Node14</title>
<polygon fill="white" stroke="#bfbfbf" points="291.826,-181 291.826,-203 335.826,-203 335.826,-181 291.826,-181"/>
<text text-anchor="middle" x="313.826" y="-190" font-family="FreeSans" font-size="10.00">vector</text>
</g>
<!-- Node10&#45;&gt;Node14 -->
<g id="edge34" class="edge"><title>Node10&#45;&gt;Node14</title>
<path fill="none" stroke="midnightblue" d="M384.869,-240.995C371.829,-232.002 353.179,-219.14 338.259,-208.851"/>
<polygon fill="midnightblue" stroke="midnightblue" points="340.196,-205.934 329.977,-203.138 336.222,-211.697 340.196,-205.934"/>
</g>
<!-- Node11&#45;&gt;Node2 -->
<g id="edge24" class="edge"><title>Node11&#45;&gt;Node2</title>
<path fill="none" stroke="midnightblue" d="M368.716,-180.995C349.036,-171.624 320.534,-158.051 298.516,-147.566"/>
<polygon fill="midnightblue" stroke="midnightblue" points="299.75,-144.278 289.217,-143.138 296.741,-150.598 299.75,-144.278"/>
</g>
<!-- Node12&#45;&gt;Node3 -->
<g id="edge28" class="edge"><title>Node12&#45;&gt;Node3</title>
<path fill="none" stroke="midnightblue" d="M439.826,-120.995C439.826,-113.311 439.826,-102.803 439.826,-93.4884"/>
<polygon fill="midnightblue" stroke="midnightblue" points="443.326,-93.3428 439.826,-83.3428 436.326,-93.3429 443.326,-93.3428"/>
</g>
<!-- Node12&#45;&gt;Node8 -->
<g id="edge30" class="edge"><title>Node12&#45;&gt;Node8</title>
<path fill="none" stroke="midnightblue" d="M420.751,-120.995C404.871,-111.834 382.033,-98.6576 364.038,-88.2763"/>
<polygon fill="midnightblue" stroke="midnightblue" points="365.544,-85.104 355.133,-83.1383 362.046,-91.1673 365.544,-85.104"/>
</g>
<!-- Node15&#45;&gt;Node2 -->
<g id="edge38" class="edge"><title>Node15&#45;&gt;Node2</title>
<path fill="none" stroke="midnightblue" d="M254.934,-240.926C256.925,-221.012 261.141,-178.851 263.705,-153.216"/>
<polygon fill="midnightblue" stroke="midnightblue" points="267.209,-153.346 264.721,-143.047 260.244,-152.65 267.209,-153.346"/>
</g>
<!-- Node15&#45;&gt;Node14 -->
<g id="edge44" class="edge"><title>Node15&#45;&gt;Node14</title>
<path fill="none" stroke="midnightblue" d="M264.831,-240.995C273.35,-232.476 285.341,-220.485 295.328,-210.499"/>
<polygon fill="midnightblue" stroke="midnightblue" points="297.887,-212.889 302.483,-203.343 292.937,-207.939 297.887,-212.889"/>
</g>
<!-- Node16 -->
<g id="node36" class="node"><title>Node16</title>
<polygon fill="white" stroke="#bfbfbf" points="107.826,-181 107.826,-203 165.826,-203 165.826,-181 107.826,-181"/>
<text text-anchor="middle" x="136.826" y="-190" font-family="FreeSans" font-size="10.00">algorithm</text>
</g>
<!-- Node15&#45;&gt;Node16 -->
<g id="edge40" class="edge"><title>Node15&#45;&gt;Node16</title>
<path fill="none" stroke="midnightblue" d="M232.367,-240.995C214.174,-231.666 187.863,-218.173 167.456,-207.708"/>
<polygon fill="midnightblue" stroke="midnightblue" points="169.041,-204.587 158.546,-203.138 165.847,-210.816 169.041,-204.587"/>
</g>
<!-- Node17 -->
<g id="node38" class="node"><title>Node17</title>
<polygon fill="white" stroke="#bfbfbf" points="183.326,-181 183.326,-203 236.326,-203 236.326,-181 183.326,-181"/>
<text text-anchor="middle" x="209.826" y="-190" font-family="FreeSans" font-size="10.00">sstream</text>
</g>
<!-- Node15&#45;&gt;Node17 -->
<g id="edge42" class="edge"><title>Node15&#45;&gt;Node17</title>
<path fill="none" stroke="midnightblue" d="M245.756,-240.995C239.754,-232.81 231.401,-221.42 224.26,-211.682"/>
<polygon fill="midnightblue" stroke="midnightblue" points="226.88,-209.337 218.144,-203.343 221.236,-213.477 226.88,-209.337"/>
</g>
<!-- Node18&#45;&gt;Node2 -->
<g id="edge48" class="edge"><title>Node18&#45;&gt;Node2</title>
<path fill="none" stroke="midnightblue" d="M90.58,-181.134C127.509,-170.78 183.053,-155.207 221.674,-144.379"/>
<polygon fill="midnightblue" stroke="midnightblue" points="222.914,-147.667 231.597,-141.597 221.024,-140.927 222.914,-147.667"/>
</g>
</g>
</svg>
        <g id="navigator" transform="translate(0 0)" fill="#404254">
                <rect fill="#f2f5e9" fill-opacity="0.5" stroke="#606060" stroke-width=".5" x="0" y="0" width="60" height="60"/>
                <use id="zoomplus" xlink:href="#zoomPlus" x="17" y="9" onmousedown="handleZoom(evt,'in')"/>
                <use id="zoomminus" xlink:href="#zoomMin" x="42" y="9" onmousedown="handleZoom(evt,'out')"/>
                <use id="reset" xlink:href="#resetDef" x="30" y="36" onmousedown="handleReset()"/>
                <g id="arrowUp" xlink:href="#dirArrow" transform="translate(30 24)" onmousedown="handlePan(0,-1)">
                  <use xlink:href="#rim" fill="#404040">
                        <set attributeName="fill" to="#808080" begin="arrowUp.mouseover" end="arrowUp.mouseout"/>
                  </use>
                  <path fill="none" stroke="white" stroke-width="1.5" d="M0,-3.0v7 M-2.5,-0.5L0,-3.0L2.5,-0.5"/>
                </g>
                <g id="arrowRight" xlink:href="#dirArrow" transform="rotate(90) translate(36 -43)" onmousedown="handlePan(1,0)">
                  <use xlink:href="#rim" fill="#404040">
                        <set attributeName="fill" to="#808080" begin="arrowRight.mouseover" end="arrowRight.mouseout"/>
                  </use>
                  <path fill="none" stroke="white" stroke-width="1.5" d="M0,-3.0v7 M-2.5,-0.5L0,-3.0L2.5,-0.5"/>
                </g>
                <g id="arrowDown" xlink:href="#dirArrow" transform="rotate(180) translate(-30 -48)" onmousedown="handlePan(0,1)">
                  <use xlink:href="#rim" fill="#404040">
                        <set attributeName="fill" to="#808080" begin="arrowDown.mouseover" end="arrowDown.mouseout"/>
                  </use>
                  <path fill="none" stroke="white" stroke-width="1.5" d="M0,-3.0v7 M-2.5,-0.5L0,-3.0L2.5,-0.5"/>
                </g>
                <g id="arrowLeft" xlink:href="#dirArrow" transform="rotate(270) translate(-36 17)" onmousedown="handlePan(-1,0)">
                  <use xlink:href="#rim" fill="#404040">
                        <set attributeName="fill" to="#808080" begin="arrowLeft.mouseover" end="arrowLeft.mouseout"/>
                  </use>
                  <path fill="none" stroke="white" stroke-width="1.5" d="M0,-3.0v7 M-2.5,-0.5L0,-3.0L2.5,-0.5"/>
                </g>
        </g>
</svg>
