<?xml version="1.0" encoding="UTF-8" standalone="no"?>
<!DOCTYPE svg PUBLIC "-//W3C//DTD SVG 1.1//EN"
 "http://www.w3.org/Graphics/SVG/1.1/DTD/svg11.dtd">
<!-- Generated by graphviz version 2.26.3 (20100126.1600)
 -->
<!-- Title: G Pages: 1 -->
<!--zoomable 512 -->
<svg id="main" version="1.1" xmlns="http://www.w3.org/2000/svg" xmlns:xlink="http://www.w3.org/1999/xlink" xml:space="preserve" onload="init(evt)">
        <defs>
                <circle id="rim" cx="0" cy="0" r="7"/>
                <circle id="rim2" cx="0" cy="0" r="3.5"/>
                <g id="zoomPlus">
                        <use xlink:href="#rim" fill="#404040">
                                <set attributeName="fill" to="#808080" begin="zoomplus.mouseover" end="zoomplus.mouseout"/>
                        </use>
                        <path d="M-4,0h8M0,-4v8" fill="none" stroke="white" stroke-width="1.5" pointer-events="none"/>
                </g>
                <g id="zoomMin">
                        <use xlink:href="#rim" fill="#404040">
                                <set attributeName="fill" to="#808080" begin="zoomminus.mouseover" end="zoomminus.mouseout"/>
                        </use>
                        <path d="M-4,0h8" fill="none" stroke="white" stroke-width="1.5" pointer-events="none"/>
                </g>
                <g id="dirArrow">
                        <path fill="none" stroke="white" stroke-width="1.5" d="M0,-3.0v7 M-2.5,-0.5L0,-3.0L2.5,-0.5"/>
                </g>
               <g id="resetDef">
                       <use xlink:href="#rim2" fill="#404040">
                               <set attributeName="fill" to="#808080" begin="reset.mouseover" end="reset.mouseout"/>
                       </use>
               </g>
        </defs>

<script type="text/javascript">
var viewWidth = 985;
var viewHeight = 512;
var sectionId = 'dynsection-0';
</script>
<script xlink:href="svgpan.js"/>
<svg id="graph" class="graph">
<g id="viewport">
<title>G</title>
<polygon fill="white" stroke="white" points="-4,5 -4,-508 982,-508 982,5 -4,5"/>
<!-- Node1 -->
<g id="node1" class="node"><title>Node1</title>
<polygon fill="#bfbfbf" stroke="black" points="219,-481 219,-503 323,-503 323,-481 219,-481"/>
<text text-anchor="middle" x="271" y="-490" font-family="FreeSans" font-size="10.00">framescheduler.cpp</text>
</g>
<!-- Node2 -->
<g id="node3" class="node"><title>Node2</title>
<a xlink:href="framescheduler_8h.html" target="_top" xlink:title="This file has the Declarations for the main FrameScheduler class.">
<polygon fill="white" stroke="black" points="347,-301 347,-323 441,-323 441,-301 347,-301"/>
<text text-anchor="middle" x="394" y="-310" font-family="FreeSans" font-size="10.00">framescheduler.h</text>
</a>
</g>
<!-- Node1&#45;&gt;Node2 -->
<g id="edge2" class="edge"><title>Node1&#45;&gt;Node2</title>
<path fill="none" stroke="midnightblue" d="M265.271,-480.94C258.528,-466.294 249.393,-439.988 259,-420 279.828,-376.666 327.448,-345.276 360.176,-327.85"/>
<polygon fill="midnightblue" stroke="midnightblue" points="362.108,-330.793 369.393,-323.1 358.901,-324.57 362.108,-330.793"/>
</g>
<!-- Node11 -->
<g id="node21" class="node"><title>Node11</title>
<a xlink:href="doublebufferedresource_8h.html" target="_top" xlink:title="This file defines the template double buffered resources that can be attached to a thread...">
<polygon fill="white" stroke="black" points="38.5,-241 38.5,-263 169.5,-263 169.5,-241 38.5,-241"/>
<text text-anchor="middle" x="104" y="-250" font-family="FreeSans" font-size="10.00">doublebufferedresource.h</text>
</a>
</g>
<!-- Node1&#45;&gt;Node11 -->
<g id="edge68" class="edge"><title>Node1&#45;&gt;Node11</title>
<path fill="none" stroke="midnightblue" d="M263.169,-480.746C236.816,-442.874 151.129,-319.731 117.614,-271.565"/>
<polygon fill="midnightblue" stroke="midnightblue" points="120.398,-269.439 111.814,-263.229 114.653,-273.437 120.398,-269.439"/>
</g>
<!-- Node12 -->
<g id="node24" class="node"><title>Node12</title>
<polygon fill="white" stroke="#bfbfbf" points="0,-181 0,-203 58,-203 58,-181 0,-181"/>
<text text-anchor="middle" x="29" y="-190" font-family="FreeSans" font-size="10.00">algorithm</text>
</g>
<!-- Node1&#45;&gt;Node12 -->
<g id="edge102" class="edge"><title>Node1&#45;&gt;Node12</title>
<path fill="none" stroke="midnightblue" d="M225.711,-480.989C151.22,-461.543 11,-418.732 11,-372 11,-372 11,-372 11,-312 11,-277.082 18.5457,-237.076 23.866,-213.208"/>
<polygon fill="midnightblue" stroke="midnightblue" points="27.345,-213.698 26.1875,-203.166 20.5249,-212.121 27.345,-213.698"/>
</g>
<!-- Node25 -->
<g id="node60" class="node"><title>Node25</title>
<a xlink:href="monopoly_8h.html" target="_top" xlink:title="Contains an interface for a kind of WorkUnit that consumes time on multiple thread.">
<polygon fill="white" stroke="black" points="268,-421 268,-443 336,-443 336,-421 268,-421"/>
<text text-anchor="middle" x="302" y="-430" font-family="FreeSans" font-size="10.00">monopoly.h</text>
</a>
</g>
<!-- Node1&#45;&gt;Node25 -->
<g id="edge70" class="edge"><title>Node1&#45;&gt;Node25</title>
<path fill="none" stroke="midnightblue" d="M276.686,-480.995C280.828,-472.977 286.56,-461.884 291.522,-452.281"/>
<polygon fill="midnightblue" stroke="midnightblue" points="294.659,-453.834 296.14,-443.343 288.44,-450.621 294.659,-453.834"/>
</g>
<!-- Node29 -->
<g id="node78" class="node"><title>Node29</title>
<polygon fill="white" stroke="#bfbfbf" points="354,-421 354,-443 414,-443 414,-421 354,-421"/>
<text text-anchor="middle" x="384" y="-430" font-family="FreeSans" font-size="10.00">exception</text>
</g>
<!-- Node1&#45;&gt;Node29 -->
<g id="edge98" class="edge"><title>Node1&#45;&gt;Node29</title>
<path fill="none" stroke="midnightblue" d="M291.726,-480.995C309.217,-471.708 334.479,-458.294 354.15,-447.849"/>
<polygon fill="midnightblue" stroke="midnightblue" points="355.832,-450.919 363.023,-443.138 352.549,-444.737 355.832,-450.919"/>
</g>
<!-- Node30 -->
<g id="node80" class="node"><title>Node30</title>
<polygon fill="white" stroke="#bfbfbf" points="432,-421 432,-443 488,-443 488,-421 432,-421"/>
<text text-anchor="middle" x="460" y="-430" font-family="FreeSans" font-size="10.00">iostream</text>
</g>
<!-- Node1&#45;&gt;Node30 -->
<g id="edge100" class="edge"><title>Node1&#45;&gt;Node30</title>
<path fill="none" stroke="midnightblue" d="M306.345,-480.924C335.12,-471.887 377.04,-458.68 422.072,-444.284"/>
<polygon fill="midnightblue" stroke="midnightblue" points="423.268,-447.576 431.726,-441.195 421.135,-440.909 423.268,-447.576"/>
</g>
<!-- Node3 -->
<g id="node5" class="node"><title>Node3</title>
<a xlink:href="datatypes_8h.html" target="_top" xlink:title="This file declares a few typedefs to allow flexibility, in case a change is required/desired.">
<polygon fill="white" stroke="black" points="513,-121 513,-143 581,-143 581,-121 513,-121"/>
<text text-anchor="middle" x="547" y="-130" font-family="FreeSans" font-size="10.00">datatypes.h</text>
</a>
</g>
<!-- Node2&#45;&gt;Node3 -->
<g id="edge4" class="edge"><title>Node2&#45;&gt;Node3</title>
<path fill="none" stroke="midnightblue" d="M403.571,-300.74C429.116,-270.688 499.118,-188.332 530.911,-150.929"/>
<polygon fill="midnightblue" stroke="midnightblue" points="533.623,-153.142 537.433,-143.256 528.289,-148.608 533.623,-153.142"/>
</g>
<!-- Node2&#45;&gt;Node11 -->
<g id="edge20" class="edge"><title>Node2&#45;&gt;Node11</title>
<path fill="none" stroke="midnightblue" d="M346.761,-302.226C297.882,-292.114 221.261,-276.261 167.194,-265.075"/>
<polygon fill="midnightblue" stroke="midnightblue" points="167.875,-261.641 157.373,-263.043 166.457,-268.496 167.875,-261.641"/>
</g>
<!-- Node15 -->
<g id="node30" class="node"><title>Node15</title>
<a xlink:href="thread_8h.html" target="_top" xlink:title="This file defines a minimalistic cross&#45;platform thread that the scheduler uses to schedule tasks...">
<polygon fill="white" stroke="black" points="780.5,-241 780.5,-263 833.5,-263 833.5,-241 780.5,-241"/>
<text text-anchor="middle" x="807" y="-250" font-family="FreeSans" font-size="10.00">thread.h</text>
</a>
</g>
<!-- Node2&#45;&gt;Node15 -->
<g id="edge30" class="edge"><title>Node2&#45;&gt;Node15</title>
<path fill="none" stroke="midnightblue" d="M441.162,-305.289C505.699,-296.085 625.148,-278.979 727,-264 741.173,-261.916 756.752,-259.587 770.366,-257.54"/>
<polygon fill="midnightblue" stroke="midnightblue" points="770.972,-260.988 780.339,-256.038 769.929,-254.067 770.972,-260.988"/>
</g>
<!-- Node16 -->
<g id="node33" class="node"><title>Node16</title>
<a xlink:href="systemcalls_8h.html" target="_top" xlink:title="This file defines a minimalistic cross&#45;platform thread that the scheduler uses to schedule tasks...">
<polygon fill="white" stroke="black" points="674.5,-181 674.5,-203 751.5,-203 751.5,-181 674.5,-181"/>
<text text-anchor="middle" x="713" y="-190" font-family="FreeSans" font-size="10.00">systemcalls.h</text>
</a>
</g>
<!-- Node2&#45;&gt;Node16 -->
<g id="edge52" class="edge"><title>Node2&#45;&gt;Node16</title>
<path fill="none" stroke="midnightblue" d="M441.094,-307.294C520.811,-298.918 675.524,-280.726 694,-264 708.017,-251.311 712.219,-229.621 713.246,-213.357"/>
<polygon fill="midnightblue" stroke="midnightblue" points="716.751,-213.234 713.532,-203.14 709.754,-213.038 716.751,-213.234"/>
</g>
<!-- Node19 -->
<g id="node43" class="node"><title>Node19</title>
<a xlink:href="workunitkey_8h.html" target="_top" xlink:title="This file defines the metadata used to sort workunits.">
<polygon fill="white" stroke="black" points="464.5,-241 464.5,-263 541.5,-263 541.5,-241 464.5,-241"/>
<text text-anchor="middle" x="503" y="-250" font-family="FreeSans" font-size="10.00">workunitkey.h</text>
</a>
</g>
<!-- Node2&#45;&gt;Node19 -->
<g id="edge48" class="edge"><title>Node2&#45;&gt;Node19</title>
<path fill="none" stroke="midnightblue" d="M413.992,-300.995C430.788,-291.75 455.012,-278.416 473.949,-267.991"/>
<polygon fill="midnightblue" stroke="midnightblue" points="475.693,-271.027 482.765,-263.138 472.317,-264.895 475.693,-271.027"/>
</g>
<!-- Node20 -->
<g id="node47" class="node"><title>Node20</title>
<a xlink:href="barrier_8h.html" target="_top" xlink:title="The declaration of the Mezzanine::Threading::Barrier Barrier synchronization primitive.">
<polygon fill="white" stroke="black" points="254.5,-241 254.5,-263 307.5,-263 307.5,-241 254.5,-241"/>
<text text-anchor="middle" x="281" y="-250" font-family="FreeSans" font-size="10.00">barrier.h</text>
</a>
</g>
<!-- Node2&#45;&gt;Node20 -->
<g id="edge54" class="edge"><title>Node2&#45;&gt;Node20</title>
<path fill="none" stroke="midnightblue" d="M373.274,-300.995C355.783,-291.708 330.521,-278.294 310.85,-267.849"/>
<polygon fill="midnightblue" stroke="midnightblue" points="312.451,-264.737 301.977,-263.138 309.168,-270.919 312.451,-264.737"/>
</g>
<!-- Node22 -->
<g id="node53" class="node"><title>Node22</title>
<polygon fill="white" stroke="#bfbfbf" points="325,-241 325,-263 361,-263 361,-241 325,-241"/>
<text text-anchor="middle" x="343" y="-250" font-family="FreeSans" font-size="10.00">map</text>
</g>
<!-- Node2&#45;&gt;Node22 -->
<g id="edge62" class="edge"><title>Node2&#45;&gt;Node22</title>
<path fill="none" stroke="midnightblue" d="M384.646,-300.995C377.547,-292.643 367.611,-280.954 359.225,-271.088"/>
<polygon fill="midnightblue" stroke="midnightblue" points="361.785,-268.695 352.641,-263.343 356.451,-273.229 361.785,-268.695"/>
</g>
<!-- Node23 -->
<g id="node55" class="node"><title>Node23</title>
<polygon fill="white" stroke="#bfbfbf" points="379,-241 379,-263 409,-263 409,-241 379,-241"/>
<text text-anchor="middle" x="394" y="-250" font-family="FreeSans" font-size="10.00">set</text>
</g>
<!-- Node2&#45;&gt;Node23 -->
<g id="edge64" class="edge"><title>Node2&#45;&gt;Node23</title>
<path fill="none" stroke="midnightblue" d="M394,-300.995C394,-293.311 394,-282.803 394,-273.488"/>
<polygon fill="midnightblue" stroke="midnightblue" points="397.5,-273.343 394,-263.343 390.5,-273.343 397.5,-273.343"/>
</g>
<!-- Node24 -->
<g id="node57" class="node"><title>Node24</title>
<polygon fill="white" stroke="#bfbfbf" points="187,-241 187,-263 237,-263 237,-241 187,-241"/>
<text text-anchor="middle" x="212" y="-250" font-family="FreeSans" font-size="10.00">fstream</text>
</g>
<!-- Node2&#45;&gt;Node24 -->
<g id="edge66" class="edge"><title>Node2&#45;&gt;Node24</title>
<path fill="none" stroke="midnightblue" d="M358.93,-300.905C330.942,-291.989 290.507,-278.97 246.878,-264.251"/>
<polygon fill="midnightblue" stroke="midnightblue" points="247.82,-260.875 237.226,-260.984 245.576,-267.505 247.82,-260.875"/>
</g>
<!-- Node4 -->
<g id="node7" class="node"><title>Node4</title>
<a xlink:href="compilerthreadcompat_8h.html" target="_top" xlink:title="This file determines what features are offered by the compiler that this library can take advantage o...">
<polygon fill="white" stroke="black" points="787,-61 787,-83 911,-83 911,-61 787,-61"/>
<text text-anchor="middle" x="849" y="-70" font-family="FreeSans" font-size="10.00">compilerthreadcompat.h</text>
</a>
</g>
<!-- Node3&#45;&gt;Node4 -->
<g id="edge6" class="edge"><title>Node3&#45;&gt;Node4</title>
<path fill="none" stroke="midnightblue" d="M581.056,-125.234C630.008,-115.508 721.209,-97.389 783.483,-85.0167"/>
<polygon fill="midnightblue" stroke="midnightblue" points="784.475,-88.3879 793.602,-83.0063 783.111,-81.5221 784.475,-88.3879"/>
</g>
<!-- Node9 -->
<g id="node17" class="node"><title>Node9</title>
<polygon fill="white" stroke="#bfbfbf" points="658.5,-61 658.5,-83 699.5,-83 699.5,-61 658.5,-61"/>
<text text-anchor="middle" x="679" y="-70" font-family="FreeSans" font-size="10.00">string</text>
</g>
<!-- Node3&#45;&gt;Node9 -->
<g id="edge16" class="edge"><title>Node3&#45;&gt;Node9</title>
<path fill="none" stroke="midnightblue" d="M571.211,-120.995C593.19,-111.004 625.674,-96.239 649.233,-85.5306"/>
<polygon fill="midnightblue" stroke="midnightblue" points="650.756,-88.6829 658.411,-81.3585 647.859,-82.3103 650.756,-88.6829"/>
</g>
<!-- Node10 -->
<g id="node19" class="node"><title>Node10</title>
<polygon fill="white" stroke="#bfbfbf" points="523.5,-61 523.5,-83 570.5,-83 570.5,-61 523.5,-61"/>
<text text-anchor="middle" x="547" y="-70" font-family="FreeSans" font-size="10.00">stdint.h</text>
</g>
<!-- Node3&#45;&gt;Node10 -->
<g id="edge18" class="edge"><title>Node3&#45;&gt;Node10</title>
<path fill="none" stroke="midnightblue" d="M547,-120.995C547,-113.311 547,-102.803 547,-93.4884"/>
<polygon fill="midnightblue" stroke="midnightblue" points="550.5,-93.3428 547,-83.3428 543.5,-93.3429 550.5,-93.3428"/>
</g>
<!-- Node5 -->
<g id="node9" class="node"><title>Node5</title>
<polygon fill="white" stroke="#bfbfbf" points="713,-1 713,-23 771,-23 771,-1 713,-1"/>
<text text-anchor="middle" x="742" y="-10" font-family="FreeSans" font-size="10.00">pthread.h</text>
</g>
<!-- Node4&#45;&gt;Node5 -->
<g id="edge8" class="edge"><title>Node4&#45;&gt;Node5</title>
<path fill="none" stroke="midnightblue" d="M829.375,-60.9951C812.962,-51.7917 789.324,-38.5366 770.772,-28.1336"/>
<polygon fill="midnightblue" stroke="midnightblue" points="772.298,-24.9766 761.863,-23.1383 768.874,-31.0822 772.298,-24.9766"/>
</g>
<!-- Node6 -->
<g id="node11" class="node"><title>Node6</title>
<polygon fill="white" stroke="#bfbfbf" points="788.5,-1 788.5,-23 839.5,-23 839.5,-1 788.5,-1"/>
<text text-anchor="middle" x="814" y="-10" font-family="FreeSans" font-size="10.00">signal.h</text>
</g>
<!-- Node4&#45;&gt;Node6 -->
<g id="edge10" class="edge"><title>Node4&#45;&gt;Node6</title>
<path fill="none" stroke="midnightblue" d="M842.58,-60.9951C837.855,-52.8936 831.297,-41.6525 825.656,-31.981"/>
<polygon fill="midnightblue" stroke="midnightblue" points="828.679,-30.2171 820.617,-23.3428 822.632,-33.7442 828.679,-30.2171"/>
</g>
<!-- Node7 -->
<g id="node13" class="node"><title>Node7</title>
<polygon fill="white" stroke="#bfbfbf" points="857,-1 857,-23 909,-23 909,-1 857,-1"/>
<text text-anchor="middle" x="883" y="-10" font-family="FreeSans" font-size="10.00">sched.h</text>
</g>
<!-- Node4&#45;&gt;Node7 -->
<g id="edge12" class="edge"><title>Node4&#45;&gt;Node7</title>
<path fill="none" stroke="midnightblue" d="M855.236,-60.9951C859.78,-52.9771 866.066,-41.884 871.508,-32.2806"/>
<polygon fill="midnightblue" stroke="midnightblue" points="874.687,-33.7686 876.572,-23.3428 868.597,-30.3175 874.687,-33.7686"/>
</g>
<!-- Node8 -->
<g id="node15" class="node"><title>Node8</title>
<polygon fill="white" stroke="#bfbfbf" points="927,-1 927,-23 977,-23 977,-1 927,-1"/>
<text text-anchor="middle" x="952" y="-10" font-family="FreeSans" font-size="10.00">unistd.h</text>
</g>
<!-- Node4&#45;&gt;Node8 -->
<g id="edge14" class="edge"><title>Node4&#45;&gt;Node8</title>
<path fill="none" stroke="midnightblue" d="M867.892,-60.9951C883.619,-51.8337 906.238,-38.6576 924.059,-28.2763"/>
<polygon fill="midnightblue" stroke="midnightblue" points="926,-31.1962 932.879,-23.1383 922.477,-25.1476 926,-31.1962"/>
</g>
<!-- Node11&#45;&gt;Node3 -->
<g id="edge22" class="edge"><title>Node11&#45;&gt;Node3</title>
<path fill="none" stroke="midnightblue" d="M103.374,-240.754C103.154,-224.631 105.395,-195.217 123,-180 151.346,-155.499 399.673,-139.746 502.602,-134.216"/>
<polygon fill="midnightblue" stroke="midnightblue" points="502.877,-137.706 512.678,-133.682 502.507,-130.716 502.877,-137.706"/>
</g>
<!-- Node11&#45;&gt;Node12 -->
<g id="edge24" class="edge"><title>Node11&#45;&gt;Node12</title>
<path fill="none" stroke="midnightblue" d="M90.2438,-240.995C79.2124,-232.17 63.5241,-219.619 50.7877,-209.43"/>
<polygon fill="midnightblue" stroke="midnightblue" points="52.9181,-206.652 42.9229,-203.138 48.5452,-212.118 52.9181,-206.652"/>
</g>
<!-- Node13 -->
<g id="node26" class="node"><title>Node13</title>
<polygon fill="white" stroke="#bfbfbf" points="131.5,-181 131.5,-203 184.5,-203 184.5,-181 131.5,-181"/>
<text text-anchor="middle" x="158" y="-190" font-family="FreeSans" font-size="10.00">sstream</text>
</g>
<!-- Node11&#45;&gt;Node13 -->
<g id="edge26" class="edge"><title>Node11&#45;&gt;Node13</title>
<path fill="none" stroke="midnightblue" d="M113.904,-240.995C121.496,-232.56 132.152,-220.72 141.086,-210.793"/>
<polygon fill="midnightblue" stroke="midnightblue" points="143.703,-213.117 147.791,-203.343 138.5,-208.434 143.703,-213.117"/>
</g>
<!-- Node14 -->
<g id="node28" class="node"><title>Node14</title>
<polygon fill="white" stroke="#bfbfbf" points="613,-181 613,-203 657,-203 657,-181 613,-181"/>
<text text-anchor="middle" x="635" y="-190" font-family="FreeSans" font-size="10.00">vector</text>
</g>
<!-- Node11&#45;&gt;Node14 -->
<g id="edge28" class="edge"><title>Node11&#45;&gt;Node14</title>
<path fill="none" stroke="midnightblue" d="M169.739,-241.143C172.528,-240.745 175.291,-240.362 178,-240 336.651,-218.822 527.324,-201.357 602.38,-194.793"/>
<polygon fill="midnightblue" stroke="midnightblue" points="602.938,-198.257 612.597,-193.904 602.331,-191.284 602.938,-198.257"/>
</g>
<!-- Node15&#45;&gt;Node4 -->
<g id="edge32" class="edge"><title>Node15&#45;&gt;Node4</title>
<path fill="none" stroke="midnightblue" d="M813.492,-240.948C818.767,-231.463 825.971,-217.263 830,-204 841.541,-166.007 846.146,-119.678 847.928,-93.2325"/>
<polygon fill="midnightblue" stroke="midnightblue" points="851.425,-93.3906 848.532,-83.1985 844.438,-92.9705 851.425,-93.3906"/>
</g>
<!-- Node15&#45;&gt;Node14 -->
<g id="edge46" class="edge"><title>Node15&#45;&gt;Node14</title>
<path fill="none" stroke="midnightblue" d="M780.379,-243.301C753.832,-234.547 711.687,-220.437 666.902,-204.247"/>
<polygon fill="midnightblue" stroke="midnightblue" points="667.904,-200.888 657.31,-200.762 665.513,-207.467 667.904,-200.888"/>
</g>
<!-- Node15&#45;&gt;Node16 -->
<g id="edge34" class="edge"><title>Node15&#45;&gt;Node16</title>
<path fill="none" stroke="midnightblue" d="M789.759,-240.995C775.538,-231.918 755.142,-218.899 738.948,-208.563"/>
<polygon fill="midnightblue" stroke="midnightblue" points="740.762,-205.569 730.45,-203.138 736.996,-211.469 740.762,-205.569"/>
</g>
<!-- Node17 -->
<g id="node36" class="node"><title>Node17</title>
<a xlink:href="mutex_8h.html" target="_top" xlink:title="This file declares and defines a mutex that is a partial implementation.">
<polygon fill="white" stroke="black" points="876.5,-121 876.5,-143 927.5,-143 927.5,-121 876.5,-121"/>
<text text-anchor="middle" x="902" y="-130" font-family="FreeSans" font-size="10.00">mutex.h</text>
</a>
</g>
<!-- Node15&#45;&gt;Node17 -->
<g id="edge38" class="edge"><title>Node15&#45;&gt;Node17</title>
<path fill="none" stroke="midnightblue" d="M823.125,-240.714C835.145,-231.74 851.416,-218.346 863,-204 875.699,-188.274 886.323,-167.805 893.259,-152.714"/>
<polygon fill="midnightblue" stroke="midnightblue" points="896.601,-153.81 897.452,-143.25 890.201,-150.975 896.601,-153.81"/>
</g>
<!-- Node18 -->
<g id="node40" class="node"><title>Node18</title>
<polygon fill="white" stroke="#bfbfbf" points="768.5,-181 768.5,-203 821.5,-203 821.5,-181 768.5,-181"/>
<text text-anchor="middle" x="795" y="-190" font-family="FreeSans" font-size="10.00">ostream</text>
</g>
<!-- Node15&#45;&gt;Node18 -->
<g id="edge44" class="edge"><title>Node15&#45;&gt;Node18</title>
<path fill="none" stroke="midnightblue" d="M804.799,-240.995C803.246,-233.228 801.115,-222.574 799.237,-213.185"/>
<polygon fill="midnightblue" stroke="midnightblue" points="802.662,-212.462 797.269,-203.343 795.798,-213.835 802.662,-212.462"/>
</g>
<!-- Node16&#45;&gt;Node3 -->
<g id="edge36" class="edge"><title>Node16&#45;&gt;Node3</title>
<path fill="none" stroke="midnightblue" d="M682.553,-180.995C655.727,-171.299 616.46,-157.106 587.085,-146.489"/>
<polygon fill="midnightblue" stroke="midnightblue" points="588.129,-143.144 577.535,-143.037 585.749,-149.727 588.129,-143.144"/>
</g>
<!-- Node17&#45;&gt;Node4 -->
<g id="edge40" class="edge"><title>Node17&#45;&gt;Node4</title>
<path fill="none" stroke="midnightblue" d="M892.279,-120.995C884.901,-112.643 874.576,-100.954 865.861,-91.0882"/>
<polygon fill="midnightblue" stroke="midnightblue" points="868.263,-88.5205 859.02,-83.3428 863.017,-93.1547 868.263,-88.5205"/>
</g>
<!-- Node17&#45;&gt;Node9 -->
<g id="edge42" class="edge"><title>Node17&#45;&gt;Node9</title>
<path fill="none" stroke="midnightblue" d="M876.419,-125.117C835.113,-114.003 753.89,-92.1498 709.589,-80.2301"/>
<polygon fill="midnightblue" stroke="midnightblue" points="710.251,-76.784 699.685,-77.5656 708.433,-83.5436 710.251,-76.784"/>
</g>
<!-- Node19&#45;&gt;Node3 -->
<g id="edge50" class="edge"><title>Node19&#45;&gt;Node3</title>
<path fill="none" stroke="midnightblue" d="M507.061,-240.926C514.428,-220.834 530.099,-178.093 539.472,-152.531"/>
<polygon fill="midnightblue" stroke="midnightblue" points="542.793,-153.641 542.949,-143.047 536.221,-151.231 542.793,-153.641"/>
</g>
<!-- Node20&#45;&gt;Node3 -->
<g id="edge56" class="edge"><title>Node20&#45;&gt;Node3</title>
<path fill="none" stroke="midnightblue" d="M280.537,-240.935C280.519,-225.038 283.011,-195.902 300,-180 328.776,-153.065 439.714,-140.253 502.683,-135.036"/>
<polygon fill="midnightblue" stroke="midnightblue" points="503.041,-138.519 512.731,-134.235 502.485,-131.541 503.041,-138.519"/>
</g>
<!-- Node21 -->
<g id="node50" class="node"><title>Node21</title>
<a xlink:href="atomicoperations_8h.html" target="_top" xlink:title="Simple thread safe ways to check and change a specified variable atomically.">
<polygon fill="white" stroke="black" points="308.5,-181 308.5,-203 409.5,-203 409.5,-181 308.5,-181"/>
<text text-anchor="middle" x="359" y="-190" font-family="FreeSans" font-size="10.00">atomicoperations.h</text>
</a>
</g>
<!-- Node20&#45;&gt;Node21 -->
<g id="edge58" class="edge"><title>Node20&#45;&gt;Node21</title>
<path fill="none" stroke="midnightblue" d="M295.306,-240.995C306.779,-232.17 323.095,-219.619 336.341,-209.43"/>
<polygon fill="midnightblue" stroke="midnightblue" points="338.728,-212.01 344.52,-203.138 334.46,-206.461 338.728,-212.01"/>
</g>
<!-- Node21&#45;&gt;Node3 -->
<g id="edge60" class="edge"><title>Node21&#45;&gt;Node3</title>
<path fill="none" stroke="midnightblue" d="M393.482,-180.995C424.223,-171.184 469.391,-156.769 502.781,-146.112"/>
<polygon fill="midnightblue" stroke="midnightblue" points="504.274,-149.31 512.737,-142.935 502.146,-142.641 504.274,-149.31"/>
</g>
<!-- Node25&#45;&gt;Node3 -->
<g id="edge72" class="edge"><title>Node25&#45;&gt;Node3</title>
<path fill="none" stroke="midnightblue" d="M336.149,-421.937C339.129,-421.221 342.109,-420.562 345,-420 481.855,-393.408 963,-451.415 963,-312 963,-312 963,-312 963,-252 963,-175.254 698.317,-144.591 591.204,-135.325"/>
<polygon fill="midnightblue" stroke="midnightblue" points="591.301,-131.821 581.043,-134.469 590.714,-138.796 591.301,-131.821"/>
</g>
<!-- Node25&#45;&gt;Node11 -->
<g id="edge74" class="edge"><title>Node25&#45;&gt;Node11</title>
<path fill="none" stroke="midnightblue" d="M294.118,-420.637C276.838,-396.304 233.443,-338.27 187,-300 171.751,-287.434 152.798,-276.202 136.855,-267.767"/>
<polygon fill="midnightblue" stroke="midnightblue" points="138.359,-264.605 127.866,-263.136 135.152,-270.827 138.359,-264.605"/>
</g>
<!-- Node26 -->
<g id="node64" class="node"><title>Node26</title>
<a xlink:href="workunit_8h.html" target="_top" xlink:title="This file has the definition of the workunit.">
<polygon fill="white" stroke="black" points="596.5,-361 596.5,-383 657.5,-383 657.5,-361 596.5,-361"/>
<text text-anchor="middle" x="627" y="-370" font-family="FreeSans" font-size="10.00">workunit.h</text>
</a>
</g>
<!-- Node25&#45;&gt;Node26 -->
<g id="edge76" class="edge"><title>Node25&#45;&gt;Node26</title>
<path fill="none" stroke="midnightblue" d="M336.187,-422.115C339.158,-421.361 342.126,-420.644 345,-420 430.136,-400.929 531.226,-385.428 586.28,-377.578"/>
<polygon fill="midnightblue" stroke="midnightblue" points="586.923,-381.022 596.335,-376.157 585.943,-374.091 586.923,-381.022"/>
</g>
<!-- Node26&#45;&gt;Node2 -->
<g id="edge80" class="edge"><title>Node26&#45;&gt;Node2</title>
<path fill="none" stroke="midnightblue" d="M596.059,-364.032C558.001,-354.232 492.793,-337.44 446.763,-325.587"/>
<polygon fill="midnightblue" stroke="midnightblue" points="447.515,-322.167 436.958,-323.062 445.77,-328.946 447.515,-322.167"/>
</g>
<!-- Node26&#45;&gt;Node3 -->
<g id="edge78" class="edge"><title>Node26&#45;&gt;Node3</title>
<path fill="none" stroke="midnightblue" d="M598.8,-360.934C582.989,-353.136 564.572,-341.024 555,-324 552.933,-320.324 549.139,-202.622 547.637,-153.355"/>
<polygon fill="midnightblue" stroke="midnightblue" points="551.13,-153.063 547.329,-143.174 544.133,-153.275 551.13,-153.063"/>
</g>
<!-- Node26&#45;&gt;Node14 -->
<g id="edge96" class="edge"><title>Node26&#45;&gt;Node14</title>
<path fill="none" stroke="midnightblue" d="M657.699,-363.873C677.562,-356.846 701.897,-344.5 714,-324 727.502,-301.13 699.54,-248.016 694,-240 685.564,-227.795 673.168,-217.057 661.912,-208.85"/>
<polygon fill="midnightblue" stroke="midnightblue" points="663.822,-205.915 653.612,-203.084 659.829,-211.664 663.822,-205.915"/>
</g>
<!-- Node26&#45;&gt;Node15 -->
<g id="edge92" class="edge"><title>Node26&#45;&gt;Node15</title>
<path fill="none" stroke="midnightblue" d="M657.668,-368.523C689.108,-363.529 737.826,-351.653 770,-324 785.65,-310.549 795.52,-288.841 801.091,-272.773"/>
<polygon fill="midnightblue" stroke="midnightblue" points="804.449,-273.763 804.15,-263.173 797.779,-271.639 804.449,-273.763"/>
</g>
<!-- Node26&#45;&gt;Node17 -->
<g id="edge82" class="edge"><title>Node26&#45;&gt;Node17</title>
<path fill="none" stroke="midnightblue" d="M657.767,-368.686C692.944,-363.697 751.071,-351.695 793,-324 848.851,-287.11 856.228,-264.901 884,-204 891.413,-187.745 896.076,-167.976 898.794,-153.269"/>
<polygon fill="midnightblue" stroke="midnightblue" points="902.288,-153.594 900.506,-143.151 895.386,-152.426 902.288,-153.594"/>
</g>
<!-- Node26&#45;&gt;Node19 -->
<g id="edge94" class="edge"><title>Node26&#45;&gt;Node19</title>
<path fill="none" stroke="midnightblue" d="M596.427,-365.561C572.785,-359.017 540.982,-346.535 522,-324 510.071,-309.837 505.543,-288.983 503.868,-273.359"/>
<polygon fill="midnightblue" stroke="midnightblue" points="507.334,-272.784 503.088,-263.077 500.355,-273.314 507.334,-272.784"/>
</g>
<!-- Node27 -->
<g id="node69" class="node"><title>Node27</title>
<a xlink:href="rollingaverage_8h.html" target="_top" xlink:title="This stores the implementation and the declaration of the RollingAverage, BufferedRollingAverage, WeightedRollingAverage and the DefaultRollingAverage.">
<polygon fill="white" stroke="black" points="596.5,-241 596.5,-263 685.5,-263 685.5,-241 596.5,-241"/>
<text text-anchor="middle" x="641" y="-250" font-family="FreeSans" font-size="10.00">rollingaverage.h</text>
</a>
</g>
<!-- Node26&#45;&gt;Node27 -->
<g id="edge84" class="edge"><title>Node26&#45;&gt;Node27</title>
<path fill="none" stroke="midnightblue" d="M655.826,-360.897C671.645,-353.141 689.855,-341.087 699,-324 710.15,-303.166 689.296,-282.484 669.559,-268.668"/>
<polygon fill="midnightblue" stroke="midnightblue" points="671.253,-265.593 660.978,-263.008 667.398,-271.436 671.253,-265.593"/>
</g>
<!-- Node28 -->
<g id="node73" class="node"><title>Node28</title>
<a xlink:href="threadingenumerations_8h.html" target="_top" xlink:title="Any enumerations the threading library requires are all declared here.">
<polygon fill="white" stroke="black" points="563.5,-301 563.5,-323 690.5,-323 690.5,-301 563.5,-301"/>
<text text-anchor="middle" x="627" y="-310" font-family="FreeSans" font-size="10.00">threadingenumerations.h</text>
</a>
</g>
<!-- Node26&#45;&gt;Node28 -->
<g id="edge90" class="edge"><title>Node26&#45;&gt;Node28</title>
<path fill="none" stroke="midnightblue" d="M627,-360.995C627,-353.311 627,-342.803 627,-333.488"/>
<polygon fill="midnightblue" stroke="midnightblue" points="630.5,-333.343 627,-323.343 623.5,-333.343 630.5,-333.343"/>
</g>
<!-- Node27&#45;&gt;Node3 -->
<g id="edge88" class="edge"><title>Node27&#45;&gt;Node3</title>
<path fill="none" stroke="midnightblue" d="M632.325,-240.926C616.306,-220.476 581.91,-176.566 562.027,-151.184"/>
<polygon fill="midnightblue" stroke="midnightblue" points="564.576,-148.761 555.654,-143.047 559.065,-153.078 564.576,-148.761"/>
</g>
<!-- Node27&#45;&gt;Node14 -->
<g id="edge86" class="edge"><title>Node27&#45;&gt;Node14</title>
<path fill="none" stroke="midnightblue" d="M639.9,-240.995C639.131,-233.311 638.08,-222.803 637.149,-213.488"/>
<polygon fill="midnightblue" stroke="midnightblue" points="640.612,-212.945 636.134,-203.343 633.647,-213.642 640.612,-212.945"/>
</g>
</g>
</svg>
        <g id="navigator" transform="translate(0 0)" fill="#404254">
                <rect fill="#f2f5e9" fill-opacity="0.5" stroke="#606060" stroke-width=".5" x="0" y="0" width="60" height="60"/>
                <use id="zoomplus" xlink:href="#zoomPlus" x="17" y="9" onmousedown="handleZoom(evt,'in')"/>
                <use id="zoomminus" xlink:href="#zoomMin" x="42" y="9" onmousedown="handleZoom(evt,'out')"/>
                <use id="reset" xlink:href="#resetDef" x="30" y="36" onmousedown="handleReset()"/>
                <g id="arrowUp" xlink:href="#dirArrow" transform="translate(30 24)" onmousedown="handlePan(0,-1)">
                  <use xlink:href="#rim" fill="#404040">
                        <set attributeName="fill" to="#808080" begin="arrowUp.mouseover" end="arrowUp.mouseout"/>
                  </use>
                  <path fill="none" stroke="white" stroke-width="1.5" d="M0,-3.0v7 M-2.5,-0.5L0,-3.0L2.5,-0.5"/>
                </g>
                <g id="arrowRight" xlink:href="#dirArrow" transform="rotate(90) translate(36 -43)" onmousedown="handlePan(1,0)">
                  <use xlink:href="#rim" fill="#404040">
                        <set attributeName="fill" to="#808080" begin="arrowRight.mouseover" end="arrowRight.mouseout"/>
                  </use>
                  <path fill="none" stroke="white" stroke-width="1.5" d="M0,-3.0v7 M-2.5,-0.5L0,-3.0L2.5,-0.5"/>
                </g>
                <g id="arrowDown" xlink:href="#dirArrow" transform="rotate(180) translate(-30 -48)" onmousedown="handlePan(0,1)">
                  <use xlink:href="#rim" fill="#404040">
                        <set attributeName="fill" to="#808080" begin="arrowDown.mouseover" end="arrowDown.mouseout"/>
                  </use>
                  <path fill="none" stroke="white" stroke-width="1.5" d="M0,-3.0v7 M-2.5,-0.5L0,-3.0L2.5,-0.5"/>
                </g>
                <g id="arrowLeft" xlink:href="#dirArrow" transform="rotate(270) translate(-36 17)" onmousedown="handlePan(-1,0)">
                  <use xlink:href="#rim" fill="#404040">
                        <set attributeName="fill" to="#808080" begin="arrowLeft.mouseover" end="arrowLeft.mouseout"/>
                  </use>
                  <path fill="none" stroke="white" stroke-width="1.5" d="M0,-3.0v7 M-2.5,-0.5L0,-3.0L2.5,-0.5"/>
                </g>
        </g>
</svg>
