<?xml version="1.0" encoding="UTF-8" standalone="no"?>
<!DOCTYPE svg PUBLIC "-//W3C//DTD SVG 1.1//EN"
 "http://www.w3.org/Graphics/SVG/1.1/DTD/svg11.dtd">
<!-- Generated by graphviz version 2.26.3 (20100126.1600)
 -->
<!-- Title: G Pages: 1 -->
<svg width="284pt" height="92pt"
 viewBox="0.00 0.00 284.00 92.00" xmlns="http://www.w3.org/2000/svg" xmlns:xlink="http://www.w3.org/1999/xlink">
<g id="graph1" class="graph" transform="scale(1 1) rotate(0) translate(4 88)">
<title>G</title>
<polygon fill="white" stroke="white" points="-4,5 -4,-88 281,-88 281,5 -4,5"/>
<!-- Node1 -->
<g id="node1" class="node"><title>Node1</title>
<polygon fill="#bfbfbf" stroke="black" points="61,-61 61,-83 197,-83 197,-61 61,-61"/>
<text text-anchor="middle" x="129" y="-70" font-family="FreeSans" font-size="10.00">frameschedulerworkunits.h</text>
</g>
<!-- Node2 -->
<g id="node3" class="node"><title>Node2</title>
<a xlink:href="dagframescheduler_8h.html" target="_top" xlink:title="This is the file that code using this library should include. It includes all the required components...">
<polygon fill="white" stroke="black" points="0,-1 0,-23 112,-23 112,-1 0,-1"/>
<text text-anchor="middle" x="56" y="-10" font-family="FreeSans" font-size="10.00">dagframescheduler.h</text>
</a>
</g>
<!-- Node1&#45;&gt;Node2 -->
<g id="edge2" class="edge"><title>Node1&#45;&gt;Node2</title>
<path fill="none" stroke="midnightblue" d="M107.626,-54.4323C95.3219,-44.3193 80.2316,-31.9164 69.5517,-23.1383"/>
<polygon fill="midnightblue" stroke="midnightblue" points="105.663,-57.3493 115.611,-60.9951 110.108,-51.9415 105.663,-57.3493"/>
</g>
<!-- Node3 -->
<g id="node5" class="node"><title>Node3</title>
<a xlink:href="frameschedulerworkunits_8cpp.html" target="_top" xlink:title="The implementation of any workunits the framescheduler needs to work correctly.">
<polygon fill="white" stroke="black" points="130,-1 130,-23 276,-23 276,-1 130,-1"/>
<text text-anchor="middle" x="203" y="-10" font-family="FreeSans" font-size="10.00">frameschedulerworkunits.cpp</text>
</a>
</g>
<!-- Node1&#45;&gt;Node3 -->
<g id="edge4" class="edge"><title>Node1&#45;&gt;Node3</title>
<path fill="none" stroke="midnightblue" d="M150.667,-54.4323C163.139,-44.3193 178.436,-31.9164 189.263,-23.1383"/>
<polygon fill="midnightblue" stroke="midnightblue" points="148.136,-51.9784 142.573,-60.9951 152.545,-57.4157 148.136,-51.9784"/>
</g>
</g>
</svg>
