<?xml version="1.0" encoding="UTF-8" standalone="no"?>
<!DOCTYPE svg PUBLIC "-//W3C//DTD SVG 1.1//EN"
 "http://www.w3.org/Graphics/SVG/1.1/DTD/svg11.dtd">
<!-- Generated by graphviz version 2.26.3 (20100126.1600)
 -->
<!-- Title: G Pages: 1 -->
<!--zoomable 212 -->
<svg id="main" version="1.1" xmlns="http://www.w3.org/2000/svg" xmlns:xlink="http://www.w3.org/1999/xlink" xml:space="preserve" onload="init(evt)">
        <defs>
                <circle id="rim" cx="0" cy="0" r="7"/>
                <circle id="rim2" cx="0" cy="0" r="3.5"/>
                <g id="zoomPlus">
                        <use xlink:href="#rim" fill="#404040">
                                <set attributeName="fill" to="#808080" begin="zoomplus.mouseover" end="zoomplus.mouseout"/>
                        </use>
                        <path d="M-4,0h8M0,-4v8" fill="none" stroke="white" stroke-width="1.5" pointer-events="none"/>
                </g>
                <g id="zoomMin">
                        <use xlink:href="#rim" fill="#404040">
                                <set attributeName="fill" to="#808080" begin="zoomminus.mouseover" end="zoomminus.mouseout"/>
                        </use>
                        <path d="M-4,0h8" fill="none" stroke="white" stroke-width="1.5" pointer-events="none"/>
                </g>
                <g id="dirArrow">
                        <path fill="none" stroke="white" stroke-width="1.5" d="M0,-3.0v7 M-2.5,-0.5L0,-3.0L2.5,-0.5"/>
                </g>
               <g id="resetDef">
                       <use xlink:href="#rim2" fill="#404040">
                               <set attributeName="fill" to="#808080" begin="reset.mouseover" end="reset.mouseout"/>
                       </use>
               </g>
        </defs>

<script type="text/javascript">
var viewWidth = 692;
var viewHeight = 212;
var sectionId = 'dynsection-1';
</script>
<script xlink:href="svgpan.js"/>
<svg id="graph" class="graph">
<g id="viewport">
<title>G</title>
<polygon fill="white" stroke="white" points="-4,5 -4,-208 688.61,-208 688.61,5 -4,5"/>
<!-- Node1 -->
<g id="node1" class="node"><title>Node1</title>
<polygon fill="#bfbfbf" stroke="black" points="212.61,-181 212.61,-203 306.61,-203 306.61,-181 212.61,-181"/>
<text text-anchor="middle" x="259.61" y="-190" font-family="FreeSans" font-size="10.00">framescheduler.h</text>
</g>
<!-- Node2 -->
<g id="node3" class="node"><title>Node2</title>
<a xlink:href="workunit_8h.html" target="_top" xlink:title="This file has the defintion of the workunit.">
<polygon fill="white" stroke="black" points="229.11,-121 229.11,-143 290.11,-143 290.11,-121 229.11,-121"/>
<text text-anchor="middle" x="259.61" y="-130" font-family="FreeSans" font-size="10.00">workunit.h</text>
</a>
</g>
<!-- Node1&#45;&gt;Node2 -->
<g id="edge2" class="edge"><title>Node1&#45;&gt;Node2</title>
<path fill="none" stroke="midnightblue" d="M259.61,-170.918C259.61,-161.639 259.61,-151.108 259.61,-143.343"/>
<polygon fill="midnightblue" stroke="midnightblue" points="256.11,-170.995 259.61,-180.995 263.11,-170.995 256.11,-170.995"/>
</g>
<!-- Node5 -->
<g id="node9" class="node"><title>Node5</title>
<a xlink:href="dagframescheduler_8h.html" target="_top" xlink:title="This is the file that code using this library should include. It includes all the required components...">
<polygon fill="white" stroke="black" points="37.6095,-1 37.6095,-23 149.61,-23 149.61,-1 37.6095,-1"/>
<text text-anchor="middle" x="93.6095" y="-10" font-family="FreeSans" font-size="10.00">dagframescheduler.h</text>
</a>
</g>
<!-- Node1&#45;&gt;Node5 -->
<g id="edge28" class="edge"><title>Node1&#45;&gt;Node5</title>
<path fill="none" stroke="midnightblue" d="M202.152,-185.781C141.373,-175.795 48.3461,-150.021 4.60951,-84 -13.2267,-57.0759 27.4413,-35.322 59.5272,-23.0231"/>
<polygon fill="midnightblue" stroke="midnightblue" points="201.943,-189.29 212.36,-187.36 203.013,-182.372 201.943,-189.29"/>
</g>
<!-- Node6 -->
<g id="node11" class="node"><title>Node6</title>
<a xlink:href="framescheduler_8cpp.html" target="_top" xlink:title="This is the core object implementation for this algorithm.">
<polygon fill="white" stroke="black" points="579.61,-1 579.61,-23 683.61,-23 683.61,-1 579.61,-1"/>
<text text-anchor="middle" x="631.61" y="-10" font-family="FreeSans" font-size="10.00">framescheduler.cpp</text>
</a>
</g>
<!-- Node1&#45;&gt;Node6 -->
<g id="edge30" class="edge"><title>Node1&#45;&gt;Node6</title>
<path fill="none" stroke="midnightblue" d="M298.22,-177.208C348.124,-157.679 437.312,-121.376 510.61,-84 548.719,-64.5673 591.269,-38.0571 614.38,-23.2266"/>
<polygon fill="midnightblue" stroke="midnightblue" points="296.827,-173.995 288.779,-180.886 299.367,-180.517 296.827,-173.995"/>
</g>
<!-- Node3 -->
<g id="node5" class="node"><title>Node3</title>
<a xlink:href="monopoly_8h.html" target="_top" xlink:title="Contains an interface for a kind of WorkUnit that consumes time on multiple thread.">
<polygon fill="white" stroke="black" points="433.61,-61 433.61,-83 501.61,-83 501.61,-61 433.61,-61"/>
<text text-anchor="middle" x="467.61" y="-70" font-family="FreeSans" font-size="10.00">monopoly.h</text>
</a>
</g>
<!-- Node2&#45;&gt;Node3 -->
<g id="edge4" class="edge"><title>Node2&#45;&gt;Node3</title>
<path fill="none" stroke="midnightblue" d="M300.213,-120.287C338.997,-109.1 396.798,-92.4263 433.328,-81.8889"/>
<polygon fill="midnightblue" stroke="midnightblue" points="298.939,-117.012 290.301,-123.147 300.879,-123.738 298.939,-117.012"/>
</g>
<!-- Node2&#45;&gt;Node5 -->
<g id="edge24" class="edge"><title>Node2&#45;&gt;Node5</title>
<path fill="none" stroke="midnightblue" d="M231.776,-115.78C216.901,-106.832 198.443,-95.2751 182.61,-84 154.279,-63.825 123.092,-37.5874 106.192,-23.0036"/>
<polygon fill="midnightblue" stroke="midnightblue" points="230.137,-118.878 240.519,-120.989 233.719,-112.864 230.137,-118.878"/>
</g>
<!-- Node8 -->
<g id="node15" class="node"><title>Node8</title>
<a xlink:href="asynchronousworkunit_8h.html" target="_top" xlink:title="Contains an interface for a kind of WorkUnit that.">
<polygon fill="white" stroke="black" points="13.1095,-61 13.1095,-83 136.11,-83 136.11,-61 13.1095,-61"/>
<text text-anchor="middle" x="74.6095" y="-70" font-family="FreeSans" font-size="10.00">asynchronousworkunit.h</text>
</a>
</g>
<!-- Node2&#45;&gt;Node8 -->
<g id="edge14" class="edge"><title>Node2&#45;&gt;Node8</title>
<path fill="none" stroke="midnightblue" d="M219.251,-118.911C186.174,-108.183 139.888,-93.1714 108.659,-83.0431"/>
<polygon fill="midnightblue" stroke="midnightblue" points="218.468,-122.336 229.061,-122.092 220.628,-115.678 218.468,-122.336"/>
</g>
<!-- Node9 -->
<g id="node18" class="node"><title>Node9</title>
<a xlink:href="frameschedulerworkunits_8h.html" target="_top" xlink:title="This defines a number of workunits that are required for doing some tasks that the Framescheduler req...">
<polygon fill="white" stroke="black" points="191.61,-61 191.61,-83 327.61,-83 327.61,-61 191.61,-61"/>
<text text-anchor="middle" x="259.61" y="-70" font-family="FreeSans" font-size="10.00">frameschedulerworkunits.h</text>
</a>
</g>
<!-- Node2&#45;&gt;Node9 -->
<g id="edge18" class="edge"><title>Node2&#45;&gt;Node9</title>
<path fill="none" stroke="midnightblue" d="M259.61,-110.918C259.61,-101.639 259.61,-91.1082 259.61,-83.3428"/>
<polygon fill="midnightblue" stroke="midnightblue" points="256.11,-110.995 259.61,-120.995 263.11,-110.995 256.11,-110.995"/>
</g>
<!-- Node11 -->
<g id="node24" class="node"><title>Node11</title>
<a xlink:href="workunit_8cpp.html" target="_top" xlink:title="This file has the implementation of the workunit.">
<polygon fill="white" stroke="black" points="345.11,-61 345.11,-83 416.11,-83 416.11,-61 345.11,-61"/>
<text text-anchor="middle" x="380.61" y="-70" font-family="FreeSans" font-size="10.00">workunit.cpp</text>
</a>
</g>
<!-- Node2&#45;&gt;Node11 -->
<g id="edge26" class="edge"><title>Node2&#45;&gt;Node11</title>
<path fill="none" stroke="midnightblue" d="M290.986,-116.441C312.032,-106.005 339.253,-92.5072 358.147,-83.1383"/>
<polygon fill="midnightblue" stroke="midnightblue" points="289.207,-113.417 281.803,-120.995 292.317,-119.688 289.207,-113.417"/>
</g>
<!-- Node4 -->
<g id="node7" class="node"><title>Node4</title>
<a xlink:href="asynchronousworkunit_8cpp.html" target="_top" xlink:title="Contains the minimal implementation for the monopoly base class.">
<polygon fill="white" stroke="black" points="331.61,-1 331.61,-23 465.61,-23 465.61,-1 331.61,-1"/>
<text text-anchor="middle" x="398.61" y="-10" font-family="FreeSans" font-size="10.00">asynchronousworkunit.cpp</text>
</a>
</g>
<!-- Node3&#45;&gt;Node4 -->
<g id="edge6" class="edge"><title>Node3&#45;&gt;Node4</title>
<path fill="none" stroke="midnightblue" d="M447.123,-54.186C435.636,-44.1971 421.652,-32.0367 411.654,-23.3428"/>
<polygon fill="midnightblue" stroke="midnightblue" points="445.111,-57.0744 454.954,-60.9951 449.704,-51.7921 445.111,-57.0744"/>
</g>
<!-- Node3&#45;&gt;Node5 -->
<g id="edge8" class="edge"><title>Node3&#45;&gt;Node5</title>
<path fill="none" stroke="midnightblue" d="M423.344,-59.9405C305.988,-36.2686 273.192,-42.3197 158.61,-24 155.777,-23.5471 152.877,-23.0682 149.951,-22.5727"/>
<polygon fill="midnightblue" stroke="midnightblue" points="422.947,-63.4317 433.446,-62.0086 424.351,-56.5739 422.947,-63.4317"/>
</g>
<!-- Node3&#45;&gt;Node6 -->
<g id="edge10" class="edge"><title>Node3&#45;&gt;Node6</title>
<path fill="none" stroke="midnightblue" d="M507.117,-57.5461C536.116,-46.9365 574.914,-32.7424 601.443,-23.0366"/>
<polygon fill="midnightblue" stroke="midnightblue" points="505.878,-54.2723 497.69,-60.9951 508.283,-60.8461 505.878,-54.2723"/>
</g>
<!-- Node7 -->
<g id="node13" class="node"><title>Node7</title>
<a xlink:href="monopoly_8cpp.html" target="_top" xlink:title="Contains the minimal implementation for the monopoly base class.">
<polygon fill="white" stroke="black" points="483.11,-1 483.11,-23 562.11,-23 562.11,-1 483.11,-1"/>
<text text-anchor="middle" x="522.61" y="-10" font-family="FreeSans" font-size="10.00">monopoly.cpp</text>
</a>
</g>
<!-- Node3&#45;&gt;Node7 -->
<g id="edge12" class="edge"><title>Node3&#45;&gt;Node7</title>
<path fill="none" stroke="midnightblue" d="M484.475,-53.6017C493.527,-43.7262 504.397,-31.8679 512.212,-23.3428"/>
<polygon fill="midnightblue" stroke="midnightblue" points="481.875,-51.2585 477.697,-60.9951 487.035,-55.9886 481.875,-51.2585"/>
</g>
<!-- Node8&#45;&gt;Node5 -->
<g id="edge16" class="edge"><title>Node8&#45;&gt;Node5</title>
<path fill="none" stroke="midnightblue" d="M81.1897,-51.2204C84.1511,-41.8686 87.5318,-31.1926 90.0176,-23.3428"/>
<polygon fill="midnightblue" stroke="midnightblue" points="77.7767,-50.405 78.0944,-60.9951 84.4501,-52.5183 77.7767,-50.405"/>
</g>
<!-- Node9&#45;&gt;Node5 -->
<g id="edge20" class="edge"><title>Node9&#45;&gt;Node5</title>
<path fill="none" stroke="midnightblue" d="M219.62,-57.5461C190.267,-46.9365 150.997,-32.7424 124.144,-23.0366"/>
<polygon fill="midnightblue" stroke="midnightblue" points="218.568,-60.8874 229.163,-60.9951 220.948,-54.3042 218.568,-60.8874"/>
</g>
<!-- Node10 -->
<g id="node21" class="node"><title>Node10</title>
<a xlink:href="frameschedulerworkunits_8cpp.html" target="_top" xlink:title="The implementation of any workunits the framescheduler needs to work correctly.">
<polygon fill="white" stroke="black" points="167.61,-1 167.61,-23 313.61,-23 313.61,-1 167.61,-1"/>
<text text-anchor="middle" x="240.61" y="-10" font-family="FreeSans" font-size="10.00">frameschedulerworkunits.cpp</text>
</a>
</g>
<!-- Node9&#45;&gt;Node10 -->
<g id="edge22" class="edge"><title>Node9&#45;&gt;Node10</title>
<path fill="none" stroke="midnightblue" d="M253.029,-51.2204C250.068,-41.8686 246.687,-31.1926 244.201,-23.3428"/>
<polygon fill="midnightblue" stroke="midnightblue" points="249.769,-52.5183 256.125,-60.9951 256.442,-50.405 249.769,-52.5183"/>
</g>
</g>
</svg>
        <g id="navigator" transform="translate(0 0)" fill="#404254">
                <rect fill="#f2f5e9" fill-opacity="0.5" stroke="#606060" stroke-width=".5" x="0" y="0" width="60" height="60"/>
                <use id="zoomplus" xlink:href="#zoomPlus" x="17" y="9" onmousedown="handleZoom(evt,'in')"/>
                <use id="zoomminus" xlink:href="#zoomMin" x="42" y="9" onmousedown="handleZoom(evt,'out')"/>
                <use id="reset" xlink:href="#resetDef" x="30" y="36" onmousedown="handleReset()"/>
                <g id="arrowUp" xlink:href="#dirArrow" transform="translate(30 24)" onmousedown="handlePan(0,-1)">
                  <use xlink:href="#rim" fill="#404040">
                        <set attributeName="fill" to="#808080" begin="arrowUp.mouseover" end="arrowUp.mouseout"/>
                  </use>
                  <path fill="none" stroke="white" stroke-width="1.5" d="M0,-3.0v7 M-2.5,-0.5L0,-3.0L2.5,-0.5"/>
                </g>
                <g id="arrowRight" xlink:href="#dirArrow" transform="rotate(90) translate(36 -43)" onmousedown="handlePan(1,0)">
                  <use xlink:href="#rim" fill="#404040">
                        <set attributeName="fill" to="#808080" begin="arrowRight.mouseover" end="arrowRight.mouseout"/>
                  </use>
                  <path fill="none" stroke="white" stroke-width="1.5" d="M0,-3.0v7 M-2.5,-0.5L0,-3.0L2.5,-0.5"/>
                </g>
                <g id="arrowDown" xlink:href="#dirArrow" transform="rotate(180) translate(-30 -48)" onmousedown="handlePan(0,1)">
                  <use xlink:href="#rim" fill="#404040">
                        <set attributeName="fill" to="#808080" begin="arrowDown.mouseover" end="arrowDown.mouseout"/>
                  </use>
                  <path fill="none" stroke="white" stroke-width="1.5" d="M0,-3.0v7 M-2.5,-0.5L0,-3.0L2.5,-0.5"/>
                </g>
                <g id="arrowLeft" xlink:href="#dirArrow" transform="rotate(270) translate(-36 17)" onmousedown="handlePan(-1,0)">
                  <use xlink:href="#rim" fill="#404040">
                        <set attributeName="fill" to="#808080" begin="arrowLeft.mouseover" end="arrowLeft.mouseout"/>
                  </use>
                  <path fill="none" stroke="white" stroke-width="1.5" d="M0,-3.0v7 M-2.5,-0.5L0,-3.0L2.5,-0.5"/>
                </g>
        </g>
</svg>
