<?xml version="1.0" encoding="UTF-8" standalone="no"?>
<!DOCTYPE svg PUBLIC "-//W3C//DTD SVG 1.1//EN"
 "http://www.w3.org/Graphics/SVG/1.1/DTD/svg11.dtd">
<!-- Generated by graphviz version 2.26.3 (20100126.1600)
 -->
<!-- Title: G Pages: 1 -->
<!--zoomable 272 -->
<svg id="main" version="1.1" xmlns="http://www.w3.org/2000/svg" xmlns:xlink="http://www.w3.org/1999/xlink" xml:space="preserve" onload="init(evt)">
        <defs>
                <circle id="rim" cx="0" cy="0" r="7"/>
                <circle id="rim2" cx="0" cy="0" r="3.5"/>
                <g id="zoomPlus">
                        <use xlink:href="#rim" fill="#404040">
                                <set attributeName="fill" to="#808080" begin="zoomplus.mouseover" end="zoomplus.mouseout"/>
                        </use>
                        <path d="M-4,0h8M0,-4v8" fill="none" stroke="white" stroke-width="1.5" pointer-events="none"/>
                </g>
                <g id="zoomMin">
                        <use xlink:href="#rim" fill="#404040">
                                <set attributeName="fill" to="#808080" begin="zoomminus.mouseover" end="zoomminus.mouseout"/>
                        </use>
                        <path d="M-4,0h8" fill="none" stroke="white" stroke-width="1.5" pointer-events="none"/>
                </g>
                <g id="dirArrow">
                        <path fill="none" stroke="white" stroke-width="1.5" d="M0,-3.0v7 M-2.5,-0.5L0,-3.0L2.5,-0.5"/>
                </g>
               <g id="resetDef">
                       <use xlink:href="#rim2" fill="#404040">
                               <set attributeName="fill" to="#808080" begin="reset.mouseover" end="reset.mouseout"/>
                       </use>
               </g>
        </defs>

<script type="text/javascript">
var viewWidth = 925;
var viewHeight = 272;
var sectionId = 'dynsection-1';
</script>
<script xlink:href="svgpan.js"/>
<svg id="graph" class="graph">
<g id="viewport">
<title>G</title>
<polygon fill="white" stroke="white" points="-4,5 -4,-268 922,-268 922,5 -4,5"/>
<!-- Node1 -->
<g id="node1" class="node"><title>Node1</title>
<polygon fill="#bfbfbf" stroke="black" points="0,-241 0,-263 94,-263 94,-241 0,-241"/>
<text text-anchor="middle" x="47" y="-250" font-family="FreeSans" font-size="10.00">framescheduler.h</text>
</g>
<!-- Node2 -->
<g id="node3" class="node"><title>Node2</title>
<a xlink:href="workunit_8h.html" target="_top" xlink:title="This file has the definition of the workunit.">
<polygon fill="white" stroke="black" points="234.5,-181 234.5,-203 295.5,-203 295.5,-181 234.5,-181"/>
<text text-anchor="middle" x="265" y="-190" font-family="FreeSans" font-size="10.00">workunit.h</text>
</a>
</g>
<!-- Node1&#45;&gt;Node2 -->
<g id="edge2" class="edge"><title>Node1&#45;&gt;Node2</title>
<path fill="none" stroke="midnightblue" d="M96.8266,-238.286C139.21,-226.621 198.72,-210.242 234.408,-200.42"/>
<polygon fill="midnightblue" stroke="midnightblue" points="95.6973,-234.967 86.9846,-240.995 97.5548,-241.716 95.6973,-234.967"/>
</g>
<!-- Node6 -->
<g id="node11" class="node"><title>Node6</title>
<a xlink:href="dagframescheduler_8h.html" target="_top" xlink:title="This is the file that code using this library should include. It includes all the required components...">
<polygon fill="white" stroke="black" points="210,-1 210,-23 322,-23 322,-1 210,-1"/>
<text text-anchor="middle" x="266" y="-10" font-family="FreeSans" font-size="10.00">dagframescheduler.h</text>
</a>
</g>
<!-- Node1&#45;&gt;Node6 -->
<g id="edge36" class="edge"><title>Node1&#45;&gt;Node6</title>
<path fill="none" stroke="midnightblue" d="M46.3689,-230.408C46.449,-190.772 52.5781,-106.242 100,-60 115.787,-44.6059 168.178,-31.0641 209.931,-22.3231"/>
<polygon fill="midnightblue" stroke="midnightblue" points="42.8705,-230.581 46.4827,-240.541 49.8701,-230.502 42.8705,-230.581"/>
</g>
<!-- Node9 -->
<g id="node19" class="node"><title>Node9</title>
<a xlink:href="framescheduler_8cpp.html" target="_top" xlink:title="This is the core object implementation for this algorithm.">
<polygon fill="white" stroke="black" points="296,-61 296,-83 400,-83 400,-61 296,-61"/>
<text text-anchor="middle" x="348" y="-70" font-family="FreeSans" font-size="10.00">framescheduler.cpp</text>
</a>
</g>
<!-- Node1&#45;&gt;Node9 -->
<g id="edge38" class="edge"><title>Node1&#45;&gt;Node9</title>
<path fill="none" stroke="midnightblue" d="M53.9236,-230.93C64.7907,-201.311 88.7594,-147.873 128,-120 134.892,-115.104 232.939,-94.9049 295.791,-82.3213"/>
<polygon fill="midnightblue" stroke="midnightblue" points="50.5135,-230.078 50.5087,-240.673 57.1195,-232.394 50.5135,-230.078"/>
</g>
<!-- Node3 -->
<g id="node5" class="node"><title>Node3</title>
<a xlink:href="asynchronousworkunit_8h.html" target="_top" xlink:title="Contains an interface for a kind of WorkUnit that loads or does other work even when the frame schedu...">
<polygon fill="white" stroke="black" points="547.5,-121 547.5,-143 670.5,-143 670.5,-121 547.5,-121"/>
<text text-anchor="middle" x="609" y="-130" font-family="FreeSans" font-size="10.00">asynchronousworkunit.h</text>
</a>
</g>
<!-- Node2&#45;&gt;Node3 -->
<g id="edge4" class="edge"><title>Node2&#45;&gt;Node3</title>
<path fill="none" stroke="midnightblue" d="M305.702,-184.901C365.43,-174.483 477.289,-154.973 547.197,-142.78"/>
<polygon fill="midnightblue" stroke="midnightblue" points="304.778,-181.509 295.528,-186.675 305.98,-188.405 304.778,-181.509"/>
</g>
<!-- Node2&#45;&gt;Node6 -->
<g id="edge32" class="edge"><title>Node2&#45;&gt;Node6</title>
<path fill="none" stroke="midnightblue" d="M224.327,-182.429C188.818,-173.266 140.985,-158.698 128,-144 102.988,-115.688 92.6974,-90.4919 115,-60 126.53,-44.2361 171.728,-31.1917 209.697,-22.7001"/>
<polygon fill="midnightblue" stroke="midnightblue" points="223.885,-185.927 234.437,-184.98 225.597,-179.14 223.885,-185.927"/>
</g>
<!-- Node8 -->
<g id="node16" class="node"><title>Node8</title>
<a xlink:href="frameschedulerworkunits_8h.html" target="_top" xlink:title="This defines a number of workunits that are required for doing some tasks that the Framescheduler req...">
<polygon fill="white" stroke="black" points="137,-121 137,-143 273,-143 273,-121 137,-121"/>
<text text-anchor="middle" x="205" y="-130" font-family="FreeSans" font-size="10.00">frameschedulerworkunits.h</text>
</a>
</g>
<!-- Node2&#45;&gt;Node8 -->
<g id="edge16" class="edge"><title>Node2&#45;&gt;Node8</title>
<path fill="none" stroke="midnightblue" d="M246.894,-173.894C236.961,-163.961 224.952,-151.952 216.343,-143.343"/>
<polygon fill="midnightblue" stroke="midnightblue" points="244.449,-176.399 253.995,-180.995 249.399,-171.449 244.449,-176.399"/>
</g>
<!-- Node11 -->
<g id="node23" class="node"><title>Node11</title>
<a xlink:href="monopoly_8h.html" target="_top" xlink:title="Contains an interface for a kind of WorkUnit that consumes time on multiple thread.">
<polygon fill="white" stroke="black" points="387,-121 387,-143 455,-143 455,-121 387,-121"/>
<text text-anchor="middle" x="421" y="-130" font-family="FreeSans" font-size="10.00">monopoly.h</text>
</a>
</g>
<!-- Node2&#45;&gt;Node11 -->
<g id="edge24" class="edge"><title>Node2&#45;&gt;Node11</title>
<path fill="none" stroke="midnightblue" d="M303.302,-177.269C330.806,-166.69 367.289,-152.658 392.305,-143.037"/>
<polygon fill="midnightblue" stroke="midnightblue" points="301.69,-174.139 293.613,-180.995 304.203,-180.672 301.69,-174.139"/>
</g>
<!-- Node13 -->
<g id="node30" class="node"><title>Node13</title>
<a xlink:href="workunit_8cpp.html" target="_top" xlink:title="This file has the implementation of the Mezzanine::Threading::DefaultWorkUnit.">
<polygon fill="white" stroke="black" points="290.5,-121 290.5,-143 361.5,-143 361.5,-121 290.5,-121"/>
<text text-anchor="middle" x="326" y="-130" font-family="FreeSans" font-size="10.00">workunit.cpp</text>
</a>
</g>
<!-- Node2&#45;&gt;Node13 -->
<g id="edge34" class="edge"><title>Node2&#45;&gt;Node13</title>
<path fill="none" stroke="midnightblue" d="M283.407,-173.894C293.506,-163.961 305.715,-151.952 314.468,-143.343"/>
<polygon fill="midnightblue" stroke="midnightblue" points="280.863,-171.487 276.188,-180.995 285.772,-176.478 280.863,-171.487"/>
</g>
<!-- Node4 -->
<g id="node7" class="node"><title>Node4</title>
<a xlink:href="asynchronousfileloadingworkunit_8h.html" target="_top" xlink:title="The declaration of the AsynchronousFileLoadWorkUnit a workunit that loads a listing of files asynchro...">
<polygon fill="white" stroke="black" points="742,-61 742,-83 912,-83 912,-61 742,-61"/>
<text text-anchor="middle" x="827" y="-70" font-family="FreeSans" font-size="10.00">asynchronousfileloadingworkunit.h</text>
</a>
</g>
<!-- Node3&#45;&gt;Node4 -->
<g id="edge6" class="edge"><title>Node3&#45;&gt;Node4</title>
<path fill="none" stroke="midnightblue" d="M659.021,-118.233C697.814,-107.556 750.869,-92.9534 786.9,-83.0366"/>
<polygon fill="midnightblue" stroke="midnightblue" points="657.697,-114.967 648.985,-120.995 659.555,-121.716 657.697,-114.967"/>
</g>
<!-- Node3&#45;&gt;Node6 -->
<g id="edge14" class="edge"><title>Node3&#45;&gt;Node6</title>
<path fill="none" stroke="midnightblue" d="M596.536,-112.363C584.824,-95.6453 565.724,-72.4204 543,-60 505.847,-39.6931 391.821,-24.864 322.186,-17.4152"/>
<polygon fill="midnightblue" stroke="midnightblue" points="593.774,-114.528 602.26,-120.872 599.582,-110.621 593.774,-114.528"/>
</g>
<!-- Node7 -->
<g id="node13" class="node"><title>Node7</title>
<a xlink:href="asynchronousworkunit_8cpp.html" target="_top" xlink:title="Contains very little actually.">
<polygon fill="white" stroke="black" points="590,-61 590,-83 724,-83 724,-61 590,-61"/>
<text text-anchor="middle" x="657" y="-70" font-family="FreeSans" font-size="10.00">asynchronousworkunit.cpp</text>
</a>
</g>
<!-- Node3&#45;&gt;Node7 -->
<g id="edge12" class="edge"><title>Node3&#45;&gt;Node7</title>
<path fill="none" stroke="midnightblue" d="M624.19,-113.013C631.994,-103.258 641.241,-91.6991 647.926,-83.3428"/>
<polygon fill="midnightblue" stroke="midnightblue" points="621.318,-111 617.804,-120.995 626.784,-115.373 621.318,-111"/>
</g>
<!-- Node5 -->
<g id="node9" class="node"><title>Node5</title>
<a xlink:href="asynchronousfileloadingworkunit_8cpp.html" target="_top" xlink:title="The implemtation of the AsynchronousFileLoadWorkUnit a workunit that loads a listing of files asynchr...">
<polygon fill="white" stroke="black" points="737,-1 737,-23 917,-23 917,-1 737,-1"/>
<text text-anchor="middle" x="827" y="-10" font-family="FreeSans" font-size="10.00">asynchronousfileloadingworkunit.cpp</text>
</a>
</g>
<!-- Node4&#45;&gt;Node5 -->
<g id="edge8" class="edge"><title>Node4&#45;&gt;Node5</title>
<path fill="none" stroke="midnightblue" d="M827,-50.9183C827,-41.6393 827,-31.1082 827,-23.3428"/>
<polygon fill="midnightblue" stroke="midnightblue" points="823.5,-50.995 827,-60.9951 830.5,-50.9951 823.5,-50.995"/>
</g>
<!-- Node4&#45;&gt;Node6 -->
<g id="edge10" class="edge"><title>Node4&#45;&gt;Node6</title>
<path fill="none" stroke="midnightblue" d="M731.806,-59.882C577.351,-42.1953 407.973,-25.5559 322.119,-17.3192"/>
<polygon fill="midnightblue" stroke="midnightblue" points="731.623,-63.3839 741.957,-61.0484 732.422,-56.4297 731.623,-63.3839"/>
</g>
<!-- Node8&#45;&gt;Node6 -->
<g id="edge18" class="edge"><title>Node8&#45;&gt;Node6</title>
<path fill="none" stroke="midnightblue" d="M165.185,-116.708C136.875,-103.463 106.553,-82.8697 123,-60 133.894,-44.8518 176.968,-31.6951 213.022,-23.0064"/>
<polygon fill="midnightblue" stroke="midnightblue" points="164.079,-120.047 174.639,-120.911 166.923,-113.65 164.079,-120.047"/>
</g>
<!-- Node8&#45;&gt;Node9 -->
<g id="edge20" class="edge"><title>Node8&#45;&gt;Node9</title>
<path fill="none" stroke="midnightblue" d="M240.744,-117.003C265.791,-106.493 298.722,-92.676 321.454,-83.1383"/>
<polygon fill="midnightblue" stroke="midnightblue" points="239.095,-113.899 231.228,-120.995 241.804,-120.353 239.095,-113.899"/>
</g>
<!-- Node10 -->
<g id="node21" class="node"><title>Node10</title>
<a xlink:href="frameschedulerworkunits_8cpp.html" target="_top" xlink:title="The implementation of any workunits the framescheduler needs to work correctly.">
<polygon fill="white" stroke="black" points="132,-61 132,-83 278,-83 278,-61 132,-61"/>
<text text-anchor="middle" x="205" y="-70" font-family="FreeSans" font-size="10.00">frameschedulerworkunits.cpp</text>
</a>
</g>
<!-- Node8&#45;&gt;Node10 -->
<g id="edge22" class="edge"><title>Node8&#45;&gt;Node10</title>
<path fill="none" stroke="midnightblue" d="M205,-110.918C205,-101.639 205,-91.1082 205,-83.3428"/>
<polygon fill="midnightblue" stroke="midnightblue" points="201.5,-110.995 205,-120.995 208.5,-110.995 201.5,-110.995"/>
</g>
<!-- Node11&#45;&gt;Node6 -->
<g id="edge26" class="edge"><title>Node11&#45;&gt;Node6</title>
<path fill="none" stroke="midnightblue" d="M422.922,-110.436C423.132,-94.7076 420.777,-73.8119 409,-60 396.639,-45.5031 352.135,-31.9795 316.019,-23.0059"/>
<polygon fill="midnightblue" stroke="midnightblue" points="419.407,-110.642 422.413,-120.801 426.399,-110.985 419.407,-110.642"/>
</g>
<!-- Node11&#45;&gt;Node9 -->
<g id="edge28" class="edge"><title>Node11&#45;&gt;Node9</title>
<path fill="none" stroke="midnightblue" d="M399.626,-114.432C387.322,-104.319 372.232,-91.9164 361.552,-83.1383"/>
<polygon fill="midnightblue" stroke="midnightblue" points="397.663,-117.349 407.611,-120.995 402.108,-111.941 397.663,-117.349"/>
</g>
<!-- Node12 -->
<g id="node27" class="node"><title>Node12</title>
<a xlink:href="monopoly_8cpp.html" target="_top" xlink:title="Contains the minimal implementation for the monopoly base class.">
<polygon fill="white" stroke="black" points="455.5,-61 455.5,-83 534.5,-83 534.5,-61 455.5,-61"/>
<text text-anchor="middle" x="495" y="-70" font-family="FreeSans" font-size="10.00">monopoly.cpp</text>
</a>
</g>
<!-- Node11&#45;&gt;Node12 -->
<g id="edge30" class="edge"><title>Node11&#45;&gt;Node12</title>
<path fill="none" stroke="midnightblue" d="M442.667,-114.432C455.139,-104.319 470.436,-91.9164 481.263,-83.1383"/>
<polygon fill="midnightblue" stroke="midnightblue" points="440.136,-111.978 434.573,-120.995 444.545,-117.416 440.136,-111.978"/>
</g>
</g>
</svg>
        <g id="navigator" transform="translate(0 0)" fill="#404254">
                <rect fill="#f2f5e9" fill-opacity="0.5" stroke="#606060" stroke-width=".5" x="0" y="0" width="60" height="60"/>
                <use id="zoomplus" xlink:href="#zoomPlus" x="17" y="9" onmousedown="handleZoom(evt,'in')"/>
                <use id="zoomminus" xlink:href="#zoomMin" x="42" y="9" onmousedown="handleZoom(evt,'out')"/>
                <use id="reset" xlink:href="#resetDef" x="30" y="36" onmousedown="handleReset()"/>
                <g id="arrowUp" xlink:href="#dirArrow" transform="translate(30 24)" onmousedown="handlePan(0,-1)">
                  <use xlink:href="#rim" fill="#404040">
                        <set attributeName="fill" to="#808080" begin="arrowUp.mouseover" end="arrowUp.mouseout"/>
                  </use>
                  <path fill="none" stroke="white" stroke-width="1.5" d="M0,-3.0v7 M-2.5,-0.5L0,-3.0L2.5,-0.5"/>
                </g>
                <g id="arrowRight" xlink:href="#dirArrow" transform="rotate(90) translate(36 -43)" onmousedown="handlePan(1,0)">
                  <use xlink:href="#rim" fill="#404040">
                        <set attributeName="fill" to="#808080" begin="arrowRight.mouseover" end="arrowRight.mouseout"/>
                  </use>
                  <path fill="none" stroke="white" stroke-width="1.5" d="M0,-3.0v7 M-2.5,-0.5L0,-3.0L2.5,-0.5"/>
                </g>
                <g id="arrowDown" xlink:href="#dirArrow" transform="rotate(180) translate(-30 -48)" onmousedown="handlePan(0,1)">
                  <use xlink:href="#rim" fill="#404040">
                        <set attributeName="fill" to="#808080" begin="arrowDown.mouseover" end="arrowDown.mouseout"/>
                  </use>
                  <path fill="none" stroke="white" stroke-width="1.5" d="M0,-3.0v7 M-2.5,-0.5L0,-3.0L2.5,-0.5"/>
                </g>
                <g id="arrowLeft" xlink:href="#dirArrow" transform="rotate(270) translate(-36 17)" onmousedown="handlePan(-1,0)">
                  <use xlink:href="#rim" fill="#404040">
                        <set attributeName="fill" to="#808080" begin="arrowLeft.mouseover" end="arrowLeft.mouseout"/>
                  </use>
                  <path fill="none" stroke="white" stroke-width="1.5" d="M0,-3.0v7 M-2.5,-0.5L0,-3.0L2.5,-0.5"/>
                </g>
        </g>
</svg>
