<?xml version="1.0" encoding="UTF-8" standalone="no"?>
<!DOCTYPE svg PUBLIC "-//W3C//DTD SVG 1.1//EN"
 "http://www.w3.org/Graphics/SVG/1.1/DTD/svg11.dtd">
<!-- Generated by graphviz version 2.26.3 (20100126.1600)
 -->
<!-- Title: framescheduler.h Pages: 1 -->
<svg width="765pt" height="320pt"
 viewBox="0.00 0.00 765.00 320.00" xmlns="http://www.w3.org/2000/svg" xmlns:xlink="http://www.w3.org/1999/xlink">
<g id="graph1" class="graph" transform="scale(1 1) rotate(0) translate(4 316)">
<title>framescheduler.h</title>
<polygon fill="white" stroke="white" points="-4,5 -4,-316 762,-316 762,5 -4,5"/>
<!-- Node1 -->
<g id="node1" class="node"><title>Node1</title>
<polygon fill="#bfbfbf" stroke="black" points="401,-291 401,-311 491,-311 491,-291 401,-291"/>
<text text-anchor="middle" x="446" y="-298" font-family="FreeSans" font-size="10.00">framescheduler.h</text>
</g>
<!-- Node2 -->
<g id="node3" class="node"><title>Node2</title>
<a xlink:href="datatypes_8h.html" target="_top" xlink:title="This file declares a few typedefs to allow flexibility, in case a change is required/desired.">
<polygon fill="white" stroke="black" points="325.5,-117 325.5,-137 390.5,-137 390.5,-117 325.5,-117"/>
<text text-anchor="middle" x="358" y="-124" font-family="FreeSans" font-size="10.00">datatypes.h</text>
</a>
</g>
<!-- Node1&#45;&gt;Node2 -->
<g id="edge2" class="edge"><title>Node1&#45;&gt;Node2</title>
<path fill="none" stroke="midnightblue" d="M440.888,-290.893C426.672,-262.783 386.484,-183.321 367.789,-146.356"/>
<polygon fill="midnightblue" stroke="midnightblue" points="370.762,-144.479 363.126,-137.135 364.516,-147.638 370.762,-144.479"/>
</g>
<!-- Node10 -->
<g id="node19" class="node"><title>Node10</title>
<a xlink:href="doublebufferedresource_8h.html" target="_top" xlink:title="This file defines the template double buffered resources that can be attached to a thread...">
<polygon fill="white" stroke="black" points="240.5,-233 240.5,-253 363.5,-253 363.5,-233 240.5,-233"/>
<text text-anchor="middle" x="302" y="-240" font-family="FreeSans" font-size="10.00">doublebufferedresource.h</text>
</a>
</g>
<!-- Node1&#45;&gt;Node10 -->
<g id="edge18" class="edge"><title>Node1&#45;&gt;Node10</title>
<path fill="none" stroke="midnightblue" d="M420.917,-290.897C397.624,-281.515 362.727,-267.459 336.753,-256.998"/>
<polygon fill="midnightblue" stroke="midnightblue" points="337.862,-253.671 327.279,-253.182 335.247,-260.164 337.862,-253.671"/>
</g>
<!-- Node14 -->
<g id="node28" class="node"><title>Node14</title>
<a xlink:href="thread_8h.html" target="_top" xlink:title="This file defines a minimalistic cross&#45;platform thread that the scheduler uses to schedule tasks...">
<polygon fill="white" stroke="black" points="473.5,-233 473.5,-253 524.5,-253 524.5,-233 473.5,-233"/>
<text text-anchor="middle" x="499" y="-240" font-family="FreeSans" font-size="10.00">thread.h</text>
</a>
</g>
<!-- Node1&#45;&gt;Node14 -->
<g id="edge28" class="edge"><title>Node1&#45;&gt;Node14</title>
<path fill="none" stroke="midnightblue" d="M455.232,-290.897C462.739,-282.682 473.521,-270.883 482.505,-261.051"/>
<polygon fill="midnightblue" stroke="midnightblue" points="485.355,-263.121 489.517,-253.378 480.188,-258.399 485.355,-263.121"/>
</g>
<!-- Node16 -->
<g id="node37" class="node"><title>Node16</title>
<a xlink:href="systemcalls_8h.html" target="_top" xlink:title="This file defines a minimalistic cross&#45;platform thread that the scheduler uses to schedule tasks...">
<polygon fill="white" stroke="black" points="479,-175 479,-195 553,-195 553,-175 479,-175"/>
<text text-anchor="middle" x="516" y="-182" font-family="FreeSans" font-size="10.00">systemcalls.h</text>
</a>
</g>
<!-- Node1&#45;&gt;Node16 -->
<g id="edge60" class="edge"><title>Node1&#45;&gt;Node16</title>
<path fill="none" stroke="midnightblue" d="M447.011,-290.946C448.799,-276.866 453.488,-250.884 465,-232 472.149,-220.273 483.052,-209.666 492.944,-201.508"/>
<polygon fill="midnightblue" stroke="midnightblue" points="495.202,-204.186 500.912,-195.262 490.883,-198.677 495.202,-204.186"/>
</g>
<!-- Node19 -->
<g id="node47" class="node"><title>Node19</title>
<a xlink:href="workunitkey_8h.html" target="_top" xlink:title="This file defines the metadata used to sort workunits.">
<polygon fill="white" stroke="black" points="-0.5,-233 -0.5,-253 74.5,-253 74.5,-233 -0.5,-233"/>
<text text-anchor="middle" x="37" y="-240" font-family="FreeSans" font-size="10.00">workunitkey.h</text>
</a>
</g>
<!-- Node1&#45;&gt;Node19 -->
<g id="edge56" class="edge"><title>Node1&#45;&gt;Node19</title>
<path fill="none" stroke="midnightblue" d="M400.857,-295.422C334.726,-287.124 207.678,-270.708 100,-254 94.9856,-253.222 89.7537,-252.371 84.5417,-251.498"/>
<polygon fill="midnightblue" stroke="midnightblue" points="85.0516,-248.035 74.6059,-249.806 83.8762,-254.935 85.0516,-248.035"/>
</g>
<!-- Node20 -->
<g id="node51" class="node"><title>Node20</title>
<a xlink:href="barrier_8h.html" target="_top" xlink:title="The declaration of the Mezzanine::Threading::Barrier Barrier synchronization primitive.">
<polygon fill="white" stroke="black" points="108.5,-233 108.5,-253 159.5,-253 159.5,-233 108.5,-233"/>
<text text-anchor="middle" x="134" y="-240" font-family="FreeSans" font-size="10.00">barrier.h</text>
</a>
</g>
<!-- Node1&#45;&gt;Node20 -->
<g id="edge62" class="edge"><title>Node1&#45;&gt;Node20</title>
<path fill="none" stroke="midnightblue" d="M400.966,-292.628C338.531,-281.022 226.93,-260.275 169.818,-249.659"/>
<polygon fill="midnightblue" stroke="midnightblue" points="170.284,-246.185 159.813,-247.799 169.005,-253.067 170.284,-246.185"/>
</g>
<!-- Node22 -->
<g id="node57" class="node"><title>Node22</title>
<polygon fill="white" stroke="#bfbfbf" points="541.5,-233 541.5,-253 576.5,-253 576.5,-233 541.5,-233"/>
<text text-anchor="middle" x="559" y="-240" font-family="FreeSans" font-size="10.00">map</text>
</g>
<!-- Node1&#45;&gt;Node22 -->
<g id="edge70" class="edge"><title>Node1&#45;&gt;Node22</title>
<path fill="none" stroke="midnightblue" d="M465.683,-290.897C484.134,-281.427 511.862,-267.195 532.301,-256.704"/>
<polygon fill="midnightblue" stroke="midnightblue" points="534.1,-259.715 541.398,-252.035 530.903,-253.487 534.1,-259.715"/>
</g>
<!-- Node23 -->
<g id="node59" class="node"><title>Node23</title>
<polygon fill="white" stroke="#bfbfbf" points="593.5,-233 593.5,-253 622.5,-253 622.5,-233 593.5,-233"/>
<text text-anchor="middle" x="608" y="-240" font-family="FreeSans" font-size="10.00">set</text>
</g>
<!-- Node1&#45;&gt;Node23 -->
<g id="edge72" class="edge"><title>Node1&#45;&gt;Node23</title>
<path fill="none" stroke="midnightblue" d="M479.268,-290.988C505.632,-282.782 543.512,-270.392 583.615,-254.307"/>
<polygon fill="midnightblue" stroke="midnightblue" points="585.078,-257.491 593.022,-250.481 582.44,-251.006 585.078,-257.491"/>
</g>
<!-- Node24 -->
<g id="node61" class="node"><title>Node24</title>
<polygon fill="white" stroke="#bfbfbf" points="639.5,-233 639.5,-253 688.5,-253 688.5,-233 639.5,-233"/>
<text text-anchor="middle" x="664" y="-240" font-family="FreeSans" font-size="10.00">fstream</text>
</g>
<!-- Node1&#45;&gt;Node24 -->
<g id="edge74" class="edge"><title>Node1&#45;&gt;Node24</title>
<path fill="none" stroke="midnightblue" d="M489.23,-290.962C524.672,-282.52 576.331,-269.737 629.294,-254.381"/>
<polygon fill="midnightblue" stroke="midnightblue" points="630.58,-257.651 639.195,-251.484 628.614,-250.933 630.58,-257.651"/>
</g>
<!-- Node3 -->
<g id="node5" class="node"><title>Node3</title>
<a xlink:href="crossplatformexport_8h.html" target="_top" xlink:title="This file determines what features are offered by the compiler that this library can take advantage o...">
<polygon fill="white" stroke="black" points="523,-59 523,-79 631,-79 631,-59 523,-59"/>
<text text-anchor="middle" x="577" y="-66" font-family="FreeSans" font-size="10.00">crossplatformexport.h</text>
</a>
</g>
<!-- Node2&#45;&gt;Node3 -->
<g id="edge4" class="edge"><title>Node2&#45;&gt;Node3</title>
<path fill="none" stroke="midnightblue" d="M390.787,-118.317C427.572,-108.574 487.57,-92.6845 529.491,-81.5822"/>
<polygon fill="midnightblue" stroke="midnightblue" points="530.433,-84.9536 539.204,-79.01 528.641,-78.1869 530.433,-84.9536"/>
</g>
<!-- Node8 -->
<g id="node15" class="node"><title>Node8</title>
<polygon fill="white" stroke="#bfbfbf" points="418,-59 418,-79 458,-79 458,-59 418,-59"/>
<text text-anchor="middle" x="438" y="-66" font-family="FreeSans" font-size="10.00">string</text>
</g>
<!-- Node2&#45;&gt;Node8 -->
<g id="edge14" class="edge"><title>Node2&#45;&gt;Node8</title>
<path fill="none" stroke="midnightblue" d="M371.935,-116.897C384.021,-108.135 401.729,-95.2965 415.77,-85.1164"/>
<polygon fill="midnightblue" stroke="midnightblue" points="417.915,-87.885 423.956,-79.1817 413.806,-82.2177 417.915,-87.885"/>
</g>
<!-- Node9 -->
<g id="node17" class="node"><title>Node9</title>
<polygon fill="white" stroke="#bfbfbf" points="334.5,-59 334.5,-79 381.5,-79 381.5,-59 334.5,-59"/>
<text text-anchor="middle" x="358" y="-66" font-family="FreeSans" font-size="10.00">stdint.h</text>
</g>
<!-- Node2&#45;&gt;Node9 -->
<g id="edge16" class="edge"><title>Node2&#45;&gt;Node9</title>
<path fill="none" stroke="midnightblue" d="M358,-116.897C358,-109.339 358,-98.7476 358,-89.4458"/>
<polygon fill="midnightblue" stroke="midnightblue" points="361.5,-89.3776 358,-79.3776 354.5,-89.3776 361.5,-89.3776"/>
</g>
<!-- Node4 -->
<g id="node7" class="node"><title>Node4</title>
<polygon fill="white" stroke="#bfbfbf" points="552,-1 552,-21 608,-21 608,-1 552,-1"/>
<text text-anchor="middle" x="580" y="-8" font-family="FreeSans" font-size="10.00">pthread.h</text>
</g>
<!-- Node3&#45;&gt;Node4 -->
<g id="edge6" class="edge"><title>Node3&#45;&gt;Node4</title>
<path fill="none" stroke="midnightblue" d="M577.523,-58.8972C577.913,-51.339 578.461,-40.7476 578.942,-31.4458"/>
<polygon fill="midnightblue" stroke="midnightblue" points="582.442,-31.5451 579.463,-21.3776 575.451,-31.1834 582.442,-31.5451"/>
</g>
<!-- Node5 -->
<g id="node9" class="node"><title>Node5</title>
<polygon fill="white" stroke="#bfbfbf" points="630.5,-1 630.5,-21 679.5,-21 679.5,-1 630.5,-1"/>
<text text-anchor="middle" x="655" y="-8" font-family="FreeSans" font-size="10.00">signal.h</text>
</g>
<!-- Node3&#45;&gt;Node5 -->
<g id="edge8" class="edge"><title>Node3&#45;&gt;Node5</title>
<path fill="none" stroke="midnightblue" d="M590.587,-58.8972C602.259,-50.2178 619.31,-37.5384 632.938,-27.4053"/>
<polygon fill="midnightblue" stroke="midnightblue" points="635.371,-29.9574 641.307,-21.1817 631.194,-24.3401 635.371,-29.9574"/>
</g>
<!-- Node6 -->
<g id="node11" class="node"><title>Node6</title>
<polygon fill="white" stroke="#bfbfbf" points="707,-1 707,-21 757,-21 757,-1 707,-1"/>
<text text-anchor="middle" x="732" y="-8" font-family="FreeSans" font-size="10.00">sched.h</text>
</g>
<!-- Node3&#45;&gt;Node6 -->
<g id="edge10" class="edge"><title>Node3&#45;&gt;Node6</title>
<path fill="none" stroke="midnightblue" d="M603.999,-58.8972C629.913,-49.2002 669.17,-34.5104 697.374,-23.9569"/>
<polygon fill="midnightblue" stroke="midnightblue" points="698.71,-27.1941 706.849,-20.4114 696.256,-20.6381 698.71,-27.1941"/>
</g>
<!-- Node7 -->
<g id="node13" class="node"><title>Node7</title>
<polygon fill="white" stroke="#bfbfbf" points="475,-1 475,-21 525,-21 525,-1 475,-1"/>
<text text-anchor="middle" x="500" y="-8" font-family="FreeSans" font-size="10.00">unistd.h</text>
</g>
<!-- Node3&#45;&gt;Node7 -->
<g id="edge12" class="edge"><title>Node3&#45;&gt;Node7</title>
<path fill="none" stroke="midnightblue" d="M563.588,-58.8972C552.065,-50.2178 535.232,-37.5384 521.779,-27.4053"/>
<polygon fill="midnightblue" stroke="midnightblue" points="523.61,-24.4026 513.517,-21.1817 519.399,-29.9939 523.61,-24.4026"/>
</g>
<!-- Node10&#45;&gt;Node2 -->
<g id="edge20" class="edge"><title>Node10&#45;&gt;Node2</title>
<path fill="none" stroke="midnightblue" d="M310.213,-232.668C317.238,-223.459 327.255,-209.403 334,-196 341.996,-180.111 348.435,-160.922 352.622,-146.817"/>
<polygon fill="midnightblue" stroke="midnightblue" points="355.999,-147.738 355.373,-137.162 349.267,-145.82 355.999,-147.738"/>
</g>
<!-- Node11 -->
<g id="node22" class="node"><title>Node11</title>
<polygon fill="white" stroke="#bfbfbf" points="201,-175 201,-195 257,-195 257,-175 201,-175"/>
<text text-anchor="middle" x="229" y="-182" font-family="FreeSans" font-size="10.00">algorithm</text>
</g>
<!-- Node10&#45;&gt;Node11 -->
<g id="edge22" class="edge"><title>Node10&#45;&gt;Node11</title>
<path fill="none" stroke="midnightblue" d="M289.284,-232.897C278.531,-224.353 262.898,-211.933 250.247,-201.881"/>
<polygon fill="midnightblue" stroke="midnightblue" points="252.068,-198.858 242.061,-195.378 247.714,-204.339 252.068,-198.858"/>
</g>
<!-- Node12 -->
<g id="node24" class="node"><title>Node12</title>
<polygon fill="white" stroke="#bfbfbf" points="275,-175 275,-195 325,-195 325,-175 275,-175"/>
<text text-anchor="middle" x="300" y="-182" font-family="FreeSans" font-size="10.00">sstream</text>
</g>
<!-- Node10&#45;&gt;Node12 -->
<g id="edge24" class="edge"><title>Node10&#45;&gt;Node12</title>
<path fill="none" stroke="midnightblue" d="M301.652,-232.897C301.391,-225.339 301.026,-214.748 300.705,-205.446"/>
<polygon fill="midnightblue" stroke="midnightblue" points="304.2,-205.251 300.358,-195.378 297.205,-205.492 304.2,-205.251"/>
</g>
<!-- Node13 -->
<g id="node26" class="node"><title>Node13</title>
<polygon fill="white" stroke="#bfbfbf" points="418.5,-175 418.5,-195 461.5,-195 461.5,-175 418.5,-175"/>
<text text-anchor="middle" x="440" y="-182" font-family="FreeSans" font-size="10.00">vector</text>
</g>
<!-- Node10&#45;&gt;Node13 -->
<g id="edge26" class="edge"><title>Node10&#45;&gt;Node13</title>
<path fill="none" stroke="midnightblue" d="M326.038,-232.897C348.944,-223.27 383.559,-208.721 408.628,-198.185"/>
<polygon fill="midnightblue" stroke="midnightblue" points="410.194,-201.324 418.057,-194.222 407.482,-194.87 410.194,-201.324"/>
</g>
<!-- Node14&#45;&gt;Node13 -->
<g id="edge54" class="edge"><title>Node14&#45;&gt;Node13</title>
<path fill="none" stroke="midnightblue" d="M488.723,-232.897C480.199,-224.517 467.882,-212.409 457.765,-202.464"/>
<polygon fill="midnightblue" stroke="midnightblue" points="460.141,-199.892 450.557,-195.378 455.234,-204.884 460.141,-199.892"/>
</g>
<!-- Node15 -->
<g id="node30" class="node"><title>Node15</title>
<a xlink:href="crossplatformincludes_8h.html" target="_top" xlink:title="This file determines what features are offered by the compiler that this library can take advantage o...">
<polygon fill="white" stroke="black" points="605.5,-117 605.5,-137 722.5,-137 722.5,-117 605.5,-117"/>
<text text-anchor="middle" x="664" y="-124" font-family="FreeSans" font-size="10.00">crossplatformincludes.h</text>
</a>
</g>
<!-- Node14&#45;&gt;Node15 -->
<g id="edge30" class="edge"><title>Node14&#45;&gt;Node15</title>
<path fill="none" stroke="midnightblue" d="M524.539,-234.44C527.382,-233.576 530.245,-232.744 533,-232 605.461,-212.424 650.921,-254.458 698,-196 710.58,-180.379 696.697,-159.338 683.072,-144.613"/>
<polygon fill="midnightblue" stroke="midnightblue" points="685.218,-141.806 675.698,-137.157 680.241,-146.729 685.218,-141.806"/>
</g>
<!-- Node14&#45;&gt;Node16 -->
<g id="edge42" class="edge"><title>Node14&#45;&gt;Node16</title>
<path fill="none" stroke="midnightblue" d="M501.961,-232.897C504.201,-225.257 507.348,-214.517 510.096,-205.143"/>
<polygon fill="midnightblue" stroke="midnightblue" points="513.504,-205.958 512.958,-195.378 506.787,-203.989 513.504,-205.958"/>
</g>
<!-- Node17 -->
<g id="node40" class="node"><title>Node17</title>
<a xlink:href="mutex_8h.html" target="_top" xlink:title="This file declares and defines a mutex that is a partial implementation.">
<polygon fill="white" stroke="black" points="639,-175 639,-195 689,-195 689,-175 639,-175"/>
<text text-anchor="middle" x="664" y="-182" font-family="FreeSans" font-size="10.00">mutex.h</text>
</a>
</g>
<!-- Node14&#45;&gt;Node17 -->
<g id="edge46" class="edge"><title>Node14&#45;&gt;Node17</title>
<path fill="none" stroke="midnightblue" d="M524.781,-233.938C552.916,-224.048 598.107,-208.162 629.332,-197.186"/>
<polygon fill="midnightblue" stroke="midnightblue" points="630.667,-200.427 638.94,-193.809 628.345,-193.823 630.667,-200.427"/>
</g>
<!-- Node18 -->
<g id="node44" class="node"><title>Node18</title>
<polygon fill="white" stroke="#bfbfbf" points="570.5,-175 570.5,-195 621.5,-195 621.5,-175 570.5,-175"/>
<text text-anchor="middle" x="596" y="-182" font-family="FreeSans" font-size="10.00">ostream</text>
</g>
<!-- Node14&#45;&gt;Node18 -->
<g id="edge52" class="edge"><title>Node14&#45;&gt;Node18</title>
<path fill="none" stroke="midnightblue" d="M515.896,-232.897C530.826,-223.97 552.834,-210.811 570.006,-200.543"/>
<polygon fill="midnightblue" stroke="midnightblue" points="572.186,-203.318 578.972,-195.182 568.593,-197.31 572.186,-203.318"/>
</g>
<!-- Node15&#45;&gt;Node3 -->
<g id="edge32" class="edge"><title>Node15&#45;&gt;Node3</title>
<path fill="none" stroke="midnightblue" d="M648.846,-116.897C635.579,-108.052 616.081,-95.0539 600.744,-84.829"/>
<polygon fill="midnightblue" stroke="midnightblue" points="602.534,-81.8165 592.272,-79.1817 598.652,-87.6409 602.534,-81.8165"/>
</g>
<!-- Node15&#45;&gt;Node4 -->
<g id="edge34" class="edge"><title>Node15&#45;&gt;Node4</title>
<path fill="none" stroke="midnightblue" d="M662.33,-116.802C659.602,-102.551 653.127,-76.3673 640,-58 631.11,-45.561 618.022,-34.7759 606.336,-26.6858"/>
<polygon fill="midnightblue" stroke="midnightblue" points="608.043,-23.6191 597.766,-21.0418 604.193,-29.4651 608.043,-23.6191"/>
</g>
<!-- Node15&#45;&gt;Node5 -->
<g id="edge36" class="edge"><title>Node15&#45;&gt;Node5</title>
<path fill="none" stroke="midnightblue" d="M667.355,-116.659C671.291,-103.118 676.823,-78.6698 673,-58 671.26,-48.5931 667.716,-38.6359 664.23,-30.3196"/>
<polygon fill="midnightblue" stroke="midnightblue" points="667.403,-28.8412 660.13,-21.1367 661.011,-31.6948 667.403,-28.8412"/>
</g>
<!-- Node15&#45;&gt;Node6 -->
<g id="edge38" class="edge"><title>Node15&#45;&gt;Node6</title>
<path fill="none" stroke="midnightblue" d="M670.035,-116.706C681.455,-97.2235 706.383,-54.6998 720.901,-29.9339"/>
<polygon fill="midnightblue" stroke="midnightblue" points="724.038,-31.5026 726.076,-21.1055 717.999,-27.9625 724.038,-31.5026"/>
</g>
<!-- Node15&#45;&gt;Node7 -->
<g id="edge40" class="edge"><title>Node15&#45;&gt;Node7</title>
<path fill="none" stroke="midnightblue" d="M613.655,-116.972C575.544,-108.364 527.522,-94.9991 514,-80 502.26,-66.978 499.281,-46.8867 498.931,-31.7362"/>
<polygon fill="midnightblue" stroke="midnightblue" points="502.436,-31.3595 499.074,-21.3124 495.437,-31.2634 502.436,-31.3595"/>
</g>
<!-- Node16&#45;&gt;Node2 -->
<g id="edge44" class="edge"><title>Node16&#45;&gt;Node2</title>
<path fill="none" stroke="midnightblue" d="M488.479,-174.897C462.616,-165.403 423.717,-151.124 395.119,-140.626"/>
<polygon fill="midnightblue" stroke="midnightblue" points="396.064,-137.245 385.471,-137.084 393.652,-143.816 396.064,-137.245"/>
</g>
<!-- Node17&#45;&gt;Node8 -->
<g id="edge50" class="edge"><title>Node17&#45;&gt;Node8</title>
<path fill="none" stroke="midnightblue" d="M644.339,-174.909C604.352,-154.384 513.397,-107.699 466.754,-83.7588"/>
<polygon fill="midnightblue" stroke="midnightblue" points="468.271,-80.6032 457.776,-79.1506 465.074,-86.8308 468.271,-80.6032"/>
</g>
<!-- Node17&#45;&gt;Node15 -->
<g id="edge48" class="edge"><title>Node17&#45;&gt;Node15</title>
<path fill="none" stroke="midnightblue" d="M664,-174.897C664,-167.339 664,-156.748 664,-147.446"/>
<polygon fill="midnightblue" stroke="midnightblue" points="667.5,-147.378 664,-137.378 660.5,-147.378 667.5,-147.378"/>
</g>
<!-- Node19&#45;&gt;Node2 -->
<g id="edge58" class="edge"><title>Node19&#45;&gt;Node2</title>
<path fill="none" stroke="midnightblue" d="M38.4739,-232.937C41.2861,-217.604 48.9352,-188.632 68,-174 105.956,-144.869 244.042,-133.192 315.104,-129.033"/>
<polygon fill="midnightblue" stroke="midnightblue" points="315.707,-132.505 325.495,-128.451 315.315,-125.516 315.707,-132.505"/>
</g>
<!-- Node20&#45;&gt;Node2 -->
<g id="edge64" class="edge"><title>Node20&#45;&gt;Node2</title>
<path fill="none" stroke="midnightblue" d="M114.938,-232.924C91.9017,-219.467 58.2984,-194.896 76,-174 91.3012,-155.938 240.407,-138.694 315.392,-131.081"/>
<polygon fill="midnightblue" stroke="midnightblue" points="315.858,-134.551 325.459,-130.071 315.16,-127.586 315.858,-134.551"/>
</g>
<!-- Node21 -->
<g id="node54" class="node"><title>Node21</title>
<a xlink:href="atomicoperations_8h.html" target="_top" xlink:title="Simple thread safe ways to check and change a specified variable atomically.">
<polygon fill="white" stroke="black" points="85,-175 85,-195 183,-195 183,-175 85,-175"/>
<text text-anchor="middle" x="134" y="-182" font-family="FreeSans" font-size="10.00">atomicoperations.h</text>
</a>
</g>
<!-- Node20&#45;&gt;Node21 -->
<g id="edge66" class="edge"><title>Node20&#45;&gt;Node21</title>
<path fill="none" stroke="midnightblue" d="M134,-232.897C134,-225.339 134,-214.748 134,-205.446"/>
<polygon fill="midnightblue" stroke="midnightblue" points="137.5,-205.378 134,-195.378 130.5,-205.378 137.5,-205.378"/>
</g>
<!-- Node21&#45;&gt;Node2 -->
<g id="edge68" class="edge"><title>Node21&#45;&gt;Node2</title>
<path fill="none" stroke="midnightblue" d="M172.762,-174.963C212.556,-164.66 274.316,-148.668 315.442,-138.02"/>
<polygon fill="midnightblue" stroke="midnightblue" points="316.366,-141.396 325.17,-135.501 314.612,-134.619 316.366,-141.396"/>
</g>
</g>
</svg>
