<?xml version="1.0" encoding="UTF-8" standalone="no"?>
<!DOCTYPE svg PUBLIC "-//W3C//DTD SVG 1.1//EN"
 "http://www.w3.org/Graphics/SVG/1.1/DTD/svg11.dtd">
<!-- Generated by graphviz version 2.26.3 (20100126.1600)
 -->
<!-- Title: G Pages: 1 -->
<!--zoomable 512 -->
<svg id="main" version="1.1" xmlns="http://www.w3.org/2000/svg" xmlns:xlink="http://www.w3.org/1999/xlink" xml:space="preserve" onload="init(evt)">
        <defs>
                <circle id="rim" cx="0" cy="0" r="7"/>
                <circle id="rim2" cx="0" cy="0" r="3.5"/>
                <g id="zoomPlus">
                        <use xlink:href="#rim" fill="#404040">
                                <set attributeName="fill" to="#808080" begin="zoomplus.mouseover" end="zoomplus.mouseout"/>
                        </use>
                        <path d="M-4,0h8M0,-4v8" fill="none" stroke="white" stroke-width="1.5" pointer-events="none"/>
                </g>
                <g id="zoomMin">
                        <use xlink:href="#rim" fill="#404040">
                                <set attributeName="fill" to="#808080" begin="zoomminus.mouseover" end="zoomminus.mouseout"/>
                        </use>
                        <path d="M-4,0h8" fill="none" stroke="white" stroke-width="1.5" pointer-events="none"/>
                </g>
                <g id="dirArrow">
                        <path fill="none" stroke="white" stroke-width="1.5" d="M0,-3.0v7 M-2.5,-0.5L0,-3.0L2.5,-0.5"/>
                </g>
               <g id="resetDef">
                       <use xlink:href="#rim2" fill="#404040">
                               <set attributeName="fill" to="#808080" begin="reset.mouseover" end="reset.mouseout"/>
                       </use>
               </g>
        </defs>

<script type="text/javascript">
var viewWidth = 835;
var viewHeight = 512;
var sectionId = 'dynsection-0';
</script>
<script xlink:href="svgpan.js"/>
<svg id="graph" class="graph">
<g id="viewport">
<title>G</title>
<polygon fill="white" stroke="white" points="-4,5 -4,-508 832.361,-508 832.361,5 -4,5"/>
<!-- Node1 -->
<g id="node1" class="node"><title>Node1</title>
<polygon fill="#bfbfbf" stroke="black" points="334,-481 334,-503 480,-503 480,-481 334,-481"/>
<text text-anchor="middle" x="407" y="-490" font-family="FreeSans" font-size="10.00">frameschedulerworkunits.cpp</text>
</g>
<!-- Node2 -->
<g id="node3" class="node"><title>Node2</title>
<a xlink:href="frameschedulerworkunits_8h.html" target="_top" xlink:title="This defines a number of workunits that are required for doing some tasks that the Framescheduler req...">
<polygon fill="white" stroke="black" points="339,-421 339,-443 475,-443 475,-421 339,-421"/>
<text text-anchor="middle" x="407" y="-430" font-family="FreeSans" font-size="10.00">frameschedulerworkunits.h</text>
</a>
</g>
<!-- Node1&#45;&gt;Node2 -->
<g id="edge2" class="edge"><title>Node1&#45;&gt;Node2</title>
<path fill="none" stroke="midnightblue" d="M407,-480.995C407,-473.311 407,-462.803 407,-453.488"/>
<polygon fill="midnightblue" stroke="midnightblue" points="410.5,-453.343 407,-443.343 403.5,-453.343 410.5,-453.343"/>
</g>
<!-- Node3 -->
<g id="node5" class="node"><title>Node3</title>
<a xlink:href="datatypes_8h.html" target="_top" xlink:title="This file declares a few typedefs to allow flexibility, in case a change is required/desired.">
<polygon fill="white" stroke="black" points="311,-121 311,-143 379,-143 379,-121 311,-121"/>
<text text-anchor="middle" x="345" y="-130" font-family="FreeSans" font-size="10.00">datatypes.h</text>
</a>
</g>
<!-- Node2&#45;&gt;Node3 -->
<g id="edge4" class="edge"><title>Node2&#45;&gt;Node3</title>
<path fill="none" stroke="midnightblue" d="M338.877,-426.045C223.014,-414.017 0,-381.799 0,-312 0,-312 0,-312 0,-252 0,-202.829 39.6231,-201.177 84,-180 121.615,-162.05 236.429,-145.496 300.533,-137.331"/>
<polygon fill="midnightblue" stroke="midnightblue" points="301.261,-140.768 310.746,-136.047 300.387,-133.822 301.261,-140.768"/>
</g>
<!-- Node11 -->
<g id="node21" class="node"><title>Node11</title>
<a xlink:href="workunit_8h.html" target="_top" xlink:title="This file has the defintion of the workunit.">
<polygon fill="white" stroke="black" points="376.5,-361 376.5,-383 437.5,-383 437.5,-361 376.5,-361"/>
<text text-anchor="middle" x="407" y="-370" font-family="FreeSans" font-size="10.00">workunit.h</text>
</a>
</g>
<!-- Node2&#45;&gt;Node11 -->
<g id="edge20" class="edge"><title>Node2&#45;&gt;Node11</title>
<path fill="none" stroke="midnightblue" d="M407,-420.995C407,-413.311 407,-402.803 407,-393.488"/>
<polygon fill="midnightblue" stroke="midnightblue" points="410.5,-393.343 407,-383.343 403.5,-393.343 410.5,-393.343"/>
</g>
<!-- Node18 -->
<g id="node41" class="node"><title>Node18</title>
<a xlink:href="doublebufferedresource_8h.html" target="_top" xlink:title="This file defines the template double buffered resources that can be attached to a thread...">
<polygon fill="white" stroke="black" points="635.5,-241 635.5,-263 766.5,-263 766.5,-241 635.5,-241"/>
<text text-anchor="middle" x="701" y="-250" font-family="FreeSans" font-size="10.00">doublebufferedresource.h</text>
</a>
</g>
<!-- Node2&#45;&gt;Node18 -->
<g id="edge84" class="edge"><title>Node2&#45;&gt;Node18</title>
<path fill="none" stroke="midnightblue" d="M431.235,-420.865C470.126,-402.614 548.357,-364.311 610,-324 635.501,-307.323 662.635,-285.22 680.57,-269.923"/>
<polygon fill="midnightblue" stroke="midnightblue" points="683.297,-272.193 688.588,-263.014 678.727,-266.89 683.297,-272.193"/>
</g>
<!-- Node4 -->
<g id="node7" class="node"><title>Node4</title>
<a xlink:href="compilerthreadcompat_8h.html" target="_top" xlink:title="This file determines what features are offered by the compiler that this library can take advantage o...">
<polygon fill="white" stroke="black" points="444,-61 444,-83 568,-83 568,-61 444,-61"/>
<text text-anchor="middle" x="506" y="-70" font-family="FreeSans" font-size="10.00">compilerthreadcompat.h</text>
</a>
</g>
<!-- Node3&#45;&gt;Node4 -->
<g id="edge6" class="edge"><title>Node3&#45;&gt;Node4</title>
<path fill="none" stroke="midnightblue" d="M374.53,-120.995C400.434,-111.341 438.302,-97.2293 466.75,-86.6272"/>
<polygon fill="midnightblue" stroke="midnightblue" points="468.237,-89.8084 476.385,-83.0366 465.792,-83.2491 468.237,-89.8084"/>
</g>
<!-- Node9 -->
<g id="node17" class="node"><title>Node9</title>
<polygon fill="white" stroke="#bfbfbf" points="385.5,-61 385.5,-83 426.5,-83 426.5,-61 385.5,-61"/>
<text text-anchor="middle" x="406" y="-70" font-family="FreeSans" font-size="10.00">string</text>
</g>
<!-- Node3&#45;&gt;Node9 -->
<g id="edge16" class="edge"><title>Node3&#45;&gt;Node9</title>
<path fill="none" stroke="midnightblue" d="M356.188,-120.995C364.849,-112.476 377.04,-100.485 387.193,-90.4985"/>
<polygon fill="midnightblue" stroke="midnightblue" points="389.793,-92.8505 394.468,-83.3428 384.884,-87.86 389.793,-92.8505"/>
</g>
<!-- Node10 -->
<g id="node19" class="node"><title>Node10</title>
<polygon fill="white" stroke="#bfbfbf" points="321.5,-61 321.5,-83 368.5,-83 368.5,-61 321.5,-61"/>
<text text-anchor="middle" x="345" y="-70" font-family="FreeSans" font-size="10.00">stdint.h</text>
</g>
<!-- Node3&#45;&gt;Node10 -->
<g id="edge18" class="edge"><title>Node3&#45;&gt;Node10</title>
<path fill="none" stroke="midnightblue" d="M345,-120.995C345,-113.311 345,-102.803 345,-93.4884"/>
<polygon fill="midnightblue" stroke="midnightblue" points="348.5,-93.3428 345,-83.3428 341.5,-93.3429 348.5,-93.3428"/>
</g>
<!-- Node5 -->
<g id="node9" class="node"><title>Node5</title>
<polygon fill="white" stroke="#bfbfbf" points="370,-1 370,-23 428,-23 428,-1 370,-1"/>
<text text-anchor="middle" x="399" y="-10" font-family="FreeSans" font-size="10.00">pthread.h</text>
</g>
<!-- Node4&#45;&gt;Node5 -->
<g id="edge8" class="edge"><title>Node4&#45;&gt;Node5</title>
<path fill="none" stroke="midnightblue" d="M486.375,-60.9951C469.962,-51.7917 446.324,-38.5366 427.772,-28.1336"/>
<polygon fill="midnightblue" stroke="midnightblue" points="429.298,-24.9766 418.863,-23.1383 425.874,-31.0822 429.298,-24.9766"/>
</g>
<!-- Node6 -->
<g id="node11" class="node"><title>Node6</title>
<polygon fill="white" stroke="#bfbfbf" points="445.5,-1 445.5,-23 496.5,-23 496.5,-1 445.5,-1"/>
<text text-anchor="middle" x="471" y="-10" font-family="FreeSans" font-size="10.00">signal.h</text>
</g>
<!-- Node4&#45;&gt;Node6 -->
<g id="edge10" class="edge"><title>Node4&#45;&gt;Node6</title>
<path fill="none" stroke="midnightblue" d="M499.58,-60.9951C494.855,-52.8936 488.297,-41.6525 482.656,-31.981"/>
<polygon fill="midnightblue" stroke="midnightblue" points="485.679,-30.2171 477.617,-23.3428 479.632,-33.7442 485.679,-30.2171"/>
</g>
<!-- Node7 -->
<g id="node13" class="node"><title>Node7</title>
<polygon fill="white" stroke="#bfbfbf" points="514,-1 514,-23 566,-23 566,-1 514,-1"/>
<text text-anchor="middle" x="540" y="-10" font-family="FreeSans" font-size="10.00">sched.h</text>
</g>
<!-- Node4&#45;&gt;Node7 -->
<g id="edge12" class="edge"><title>Node4&#45;&gt;Node7</title>
<path fill="none" stroke="midnightblue" d="M512.236,-60.9951C516.78,-52.9771 523.066,-41.884 528.508,-32.2806"/>
<polygon fill="midnightblue" stroke="midnightblue" points="531.687,-33.7686 533.572,-23.3428 525.597,-30.3175 531.687,-33.7686"/>
</g>
<!-- Node8 -->
<g id="node15" class="node"><title>Node8</title>
<polygon fill="white" stroke="#bfbfbf" points="584,-1 584,-23 634,-23 634,-1 584,-1"/>
<text text-anchor="middle" x="609" y="-10" font-family="FreeSans" font-size="10.00">unistd.h</text>
</g>
<!-- Node4&#45;&gt;Node8 -->
<g id="edge14" class="edge"><title>Node4&#45;&gt;Node8</title>
<path fill="none" stroke="midnightblue" d="M524.892,-60.9951C540.619,-51.8337 563.238,-38.6576 581.059,-28.2763"/>
<polygon fill="midnightblue" stroke="midnightblue" points="583,-31.1962 589.879,-23.1383 579.477,-25.1476 583,-31.1962"/>
</g>
<!-- Node11&#45;&gt;Node3 -->
<g id="edge22" class="edge"><title>Node11&#45;&gt;Node3</title>
<path fill="none" stroke="midnightblue" d="M376.414,-366.713C302.16,-353.164 116.025,-314.666 83,-264 28.2231,-179.963 212.806,-147.103 300.87,-136.416"/>
<polygon fill="midnightblue" stroke="midnightblue" points="301.33,-139.886 310.856,-135.249 300.517,-132.933 301.33,-139.886"/>
</g>
<!-- Node12 -->
<g id="node24" class="node"><title>Node12</title>
<a xlink:href="framescheduler_8h.html" target="_top" xlink:title="This file has the Declarations for the main FrameScheduler class.">
<polygon fill="white" stroke="black" points="228,-301 228,-323 322,-323 322,-301 228,-301"/>
<text text-anchor="middle" x="275" y="-310" font-family="FreeSans" font-size="10.00">framescheduler.h</text>
</a>
</g>
<!-- Node11&#45;&gt;Node12 -->
<g id="edge24" class="edge"><title>Node11&#45;&gt;Node12</title>
<path fill="none" stroke="midnightblue" d="M382.789,-360.995C361.987,-351.54 331.776,-337.807 308.627,-327.285"/>
<polygon fill="midnightblue" stroke="midnightblue" points="310.056,-324.09 299.504,-323.138 307.16,-330.463 310.056,-324.09"/>
</g>
<!-- Node13 -->
<g id="node27" class="node"><title>Node13</title>
<a xlink:href="thread_8h.html" target="_top" xlink:title="This file defines a minimalistic cross&#45;platform thread that the scheduler uses to schedule tasks...">
<polygon fill="white" stroke="black" points="405.5,-241 405.5,-263 458.5,-263 458.5,-241 405.5,-241"/>
<text text-anchor="middle" x="432" y="-250" font-family="FreeSans" font-size="10.00">thread.h</text>
</a>
</g>
<!-- Node11&#45;&gt;Node13 -->
<g id="edge78" class="edge"><title>Node11&#45;&gt;Node13</title>
<path fill="none" stroke="midnightblue" d="M406.661,-360.606C406.49,-346.266 407.043,-320.974 412,-300 414.214,-290.631 418.054,-280.738 421.781,-272.384"/>
<polygon fill="midnightblue" stroke="midnightblue" points="425.061,-273.633 426.155,-263.095 418.728,-270.652 425.061,-273.633"/>
</g>
<!-- Node15 -->
<g id="node33" class="node"><title>Node15</title>
<a xlink:href="mutex_8h.html" target="_top" xlink:title="This file declares and defines a mutex that is a partial implementation.">
<polygon fill="white" stroke="black" points="479.5,-121 479.5,-143 530.5,-143 530.5,-121 479.5,-121"/>
<text text-anchor="middle" x="505" y="-130" font-family="FreeSans" font-size="10.00">mutex.h</text>
</a>
</g>
<!-- Node11&#45;&gt;Node15 -->
<g id="edge68" class="edge"><title>Node11&#45;&gt;Node15</title>
<path fill="none" stroke="midnightblue" d="M437.596,-369.811C504.692,-363.66 667.346,-341.248 775,-264 802.746,-244.091 811.696,-236.225 823,-204 826.531,-193.935 829.957,-188.086 823,-180 804.725,-158.76 619.585,-141.317 540.504,-134.775"/>
<polygon fill="midnightblue" stroke="midnightblue" points="540.769,-131.285 530.518,-133.961 540.2,-138.262 540.769,-131.285"/>
</g>
<!-- Node17 -->
<g id="node39" class="node"><title>Node17</title>
<polygon fill="white" stroke="#bfbfbf" points="586,-181 586,-203 630,-203 630,-181 586,-181"/>
<text text-anchor="middle" x="608" y="-190" font-family="FreeSans" font-size="10.00">vector</text>
</g>
<!-- Node11&#45;&gt;Node17 -->
<g id="edge82" class="edge"><title>Node11&#45;&gt;Node17</title>
<path fill="none" stroke="midnightblue" d="M437.724,-368.017C484.19,-361.34 569.052,-346.383 589,-324 616.198,-293.482 614.917,-242.27 611.504,-213.427"/>
<polygon fill="midnightblue" stroke="midnightblue" points="614.93,-212.65 610.093,-203.223 607.996,-213.608 614.93,-212.65"/>
</g>
<!-- Node21 -->
<g id="node49" class="node"><title>Node21</title>
<a xlink:href="workunitkey_8h.html" target="_top" xlink:title="This file defines the metadata used to sort workunits.">
<polygon fill="white" stroke="black" points="311.5,-241 311.5,-263 388.5,-263 388.5,-241 311.5,-241"/>
<text text-anchor="middle" x="350" y="-250" font-family="FreeSans" font-size="10.00">workunitkey.h</text>
</a>
</g>
<!-- Node11&#45;&gt;Node21 -->
<g id="edge80" class="edge"><title>Node11&#45;&gt;Node21</title>
<path fill="none" stroke="midnightblue" d="M401.74,-360.926C392.154,-340.744 371.713,-297.712 359.591,-272.191"/>
<polygon fill="midnightblue" stroke="midnightblue" points="362.7,-270.579 355.248,-263.047 356.377,-273.582 362.7,-270.579"/>
</g>
<!-- Node25 -->
<g id="node60" class="node"><title>Node25</title>
<a xlink:href="rollingaverage_8h.html" target="_top" xlink:title="This Store the implementation and the declaration of the RollingAverage, BufferedRollingAverage, WeightedRollingAverage and the DefaultRollingAverage.">
<polygon fill="white" stroke="black" points="475.5,-241 475.5,-263 564.5,-263 564.5,-241 475.5,-241"/>
<text text-anchor="middle" x="520" y="-250" font-family="FreeSans" font-size="10.00">rollingaverage.h</text>
</a>
</g>
<!-- Node11&#45;&gt;Node25 -->
<g id="edge70" class="edge"><title>Node11&#45;&gt;Node25</title>
<path fill="none" stroke="midnightblue" d="M410.785,-360.923C416.383,-345.784 428.066,-318.415 445,-300 456.932,-287.025 473.114,-276.086 487.392,-267.943"/>
<polygon fill="midnightblue" stroke="midnightblue" points="489.339,-270.868 496.437,-263.003 485.983,-264.725 489.339,-270.868"/>
</g>
<!-- Node26 -->
<g id="node64" class="node"><title>Node26</title>
<a xlink:href="threadingenumerations_8h.html" target="_top" xlink:title="Any enumerations the threading library requires are all declared here.">
<polygon fill="white" stroke="black" points="453.5,-301 453.5,-323 580.5,-323 580.5,-301 453.5,-301"/>
<text text-anchor="middle" x="517" y="-310" font-family="FreeSans" font-size="10.00">threadingenumerations.h</text>
</a>
</g>
<!-- Node11&#45;&gt;Node26 -->
<g id="edge76" class="edge"><title>Node11&#45;&gt;Node26</title>
<path fill="none" stroke="midnightblue" d="M427.176,-360.995C444.126,-351.75 468.572,-338.416 487.683,-327.991"/>
<polygon fill="midnightblue" stroke="midnightblue" points="489.477,-331 496.58,-323.138 486.125,-324.854 489.477,-331"/>
</g>
<!-- Node12&#45;&gt;Node3 -->
<g id="edge26" class="edge"><title>Node12&#45;&gt;Node3</title>
<path fill="none" stroke="midnightblue" d="M273.96,-300.987C272.231,-277.337 270.814,-220.549 292,-180 298.288,-167.966 308.877,-157.453 318.945,-149.358"/>
<polygon fill="midnightblue" stroke="midnightblue" points="321.301,-151.965 327.173,-143.147 317.083,-146.378 321.301,-151.965"/>
</g>
<!-- Node12&#45;&gt;Node13 -->
<g id="edge28" class="edge"><title>Node12&#45;&gt;Node13</title>
<path fill="none" stroke="midnightblue" d="M303.796,-300.995C329.77,-291.069 368.076,-276.429 396.051,-265.738"/>
<polygon fill="midnightblue" stroke="midnightblue" points="397.386,-268.975 405.478,-262.136 394.888,-262.436 397.386,-268.975"/>
</g>
<!-- Node14 -->
<g id="node30" class="node"><title>Node14</title>
<a xlink:href="systemcalls_8h.html" target="_top" xlink:title="This file defines a minimalistic cross&#45;platform thread that the scheduler uses to schedule tasks...">
<polygon fill="white" stroke="black" points="307.5,-181 307.5,-203 384.5,-203 384.5,-181 307.5,-181"/>
<text text-anchor="middle" x="346" y="-190" font-family="FreeSans" font-size="10.00">systemcalls.h</text>
</a>
</g>
<!-- Node12&#45;&gt;Node14 -->
<g id="edge60" class="edge"><title>Node12&#45;&gt;Node14</title>
<path fill="none" stroke="midnightblue" d="M227.979,-309.194C162.527,-303.547 56.1255,-287.013 95,-240 120.159,-209.574 231.655,-198.253 297.279,-194.179"/>
<polygon fill="midnightblue" stroke="midnightblue" points="297.619,-197.665 307.397,-193.586 297.209,-190.678 297.619,-197.665"/>
</g>
<!-- Node12&#45;&gt;Node18 -->
<g id="edge46" class="edge"><title>Node12&#45;&gt;Node18</title>
<path fill="none" stroke="midnightblue" d="M322.217,-305.35C395.567,-295.019 537.558,-275.02 625.325,-262.658"/>
<polygon fill="midnightblue" stroke="midnightblue" points="626.073,-266.088 635.487,-261.227 625.097,-259.156 626.073,-266.088"/>
</g>
<!-- Node12&#45;&gt;Node21 -->
<g id="edge56" class="edge"><title>Node12&#45;&gt;Node21</title>
<path fill="none" stroke="midnightblue" d="M288.756,-300.995C299.788,-292.17 315.476,-279.619 328.212,-269.43"/>
<polygon fill="midnightblue" stroke="midnightblue" points="330.455,-272.118 336.077,-263.138 326.082,-266.652 330.455,-272.118"/>
</g>
<!-- Node22 -->
<g id="node53" class="node"><title>Node22</title>
<polygon fill="white" stroke="#bfbfbf" points="104,-241 104,-263 140,-263 140,-241 104,-241"/>
<text text-anchor="middle" x="122" y="-250" font-family="FreeSans" font-size="10.00">map</text>
</g>
<!-- Node12&#45;&gt;Node22 -->
<g id="edge62" class="edge"><title>Node12&#45;&gt;Node22</title>
<path fill="none" stroke="midnightblue" d="M244.522,-300.917C220.892,-292.208 187.146,-279.52 149.808,-264.215"/>
<polygon fill="midnightblue" stroke="midnightblue" points="150.821,-260.847 140.242,-260.268 148.151,-267.318 150.821,-260.847"/>
</g>
<!-- Node23 -->
<g id="node55" class="node"><title>Node23</title>
<polygon fill="white" stroke="#bfbfbf" points="158,-241 158,-263 188,-263 188,-241 158,-241"/>
<text text-anchor="middle" x="173" y="-250" font-family="FreeSans" font-size="10.00">set</text>
</g>
<!-- Node12&#45;&gt;Node23 -->
<g id="edge64" class="edge"><title>Node12&#45;&gt;Node23</title>
<path fill="none" stroke="midnightblue" d="M256.292,-300.995C239.64,-291.2 215.186,-276.815 197.079,-266.164"/>
<polygon fill="midnightblue" stroke="midnightblue" points="198.657,-263.032 188.264,-260.979 195.108,-269.066 198.657,-263.032"/>
</g>
<!-- Node24 -->
<g id="node57" class="node"><title>Node24</title>
<polygon fill="white" stroke="#bfbfbf" points="206,-241 206,-263 256,-263 256,-241 206,-241"/>
<text text-anchor="middle" x="231" y="-250" font-family="FreeSans" font-size="10.00">fstream</text>
</g>
<!-- Node12&#45;&gt;Node24 -->
<g id="edge66" class="edge"><title>Node12&#45;&gt;Node24</title>
<path fill="none" stroke="midnightblue" d="M266.93,-300.995C260.927,-292.81 252.575,-281.42 245.434,-271.682"/>
<polygon fill="midnightblue" stroke="midnightblue" points="248.054,-269.337 239.318,-263.343 242.409,-273.477 248.054,-269.337"/>
</g>
<!-- Node13&#45;&gt;Node4 -->
<g id="edge30" class="edge"><title>Node13&#45;&gt;Node4</title>
<path fill="none" stroke="midnightblue" d="M450.192,-240.824C475.995,-223.73 521.979,-188.356 539,-144 546.083,-125.542 534.8,-105.106 523.547,-90.7356"/>
<polygon fill="midnightblue" stroke="midnightblue" points="526.183,-88.4315 517.064,-83.0366 520.828,-92.9403 526.183,-88.4315"/>
</g>
<!-- Node13&#45;&gt;Node14 -->
<g id="edge32" class="edge"><title>Node13&#45;&gt;Node14</title>
<path fill="none" stroke="midnightblue" d="M416.226,-240.995C403.456,-232.086 385.244,-219.38 370.567,-209.14"/>
<polygon fill="midnightblue" stroke="midnightblue" points="372.169,-205.99 361.965,-203.138 368.164,-211.731 372.169,-205.99"/>
</g>
<!-- Node13&#45;&gt;Node15 -->
<g id="edge36" class="edge"><title>Node13&#45;&gt;Node15</title>
<path fill="none" stroke="midnightblue" d="M439.538,-240.648C445.908,-230.98 455.213,-216.68 463,-204 473.584,-186.767 485.128,-166.892 493.431,-152.396"/>
<polygon fill="midnightblue" stroke="midnightblue" points="496.695,-153.738 498.609,-143.318 490.614,-150.27 496.695,-153.738"/>
</g>
<!-- Node16 -->
<g id="node37" class="node"><title>Node16</title>
<polygon fill="white" stroke="#bfbfbf" points="401.5,-181 401.5,-203 454.5,-203 454.5,-181 401.5,-181"/>
<text text-anchor="middle" x="428" y="-190" font-family="FreeSans" font-size="10.00">ostream</text>
</g>
<!-- Node13&#45;&gt;Node16 -->
<g id="edge42" class="edge"><title>Node13&#45;&gt;Node16</title>
<path fill="none" stroke="midnightblue" d="M431.266,-240.995C430.754,-233.311 430.054,-222.803 429.433,-213.488"/>
<polygon fill="midnightblue" stroke="midnightblue" points="432.914,-213.088 428.756,-203.343 425.929,-213.554 432.914,-213.088"/>
</g>
<!-- Node13&#45;&gt;Node17 -->
<g id="edge44" class="edge"><title>Node13&#45;&gt;Node17</title>
<path fill="none" stroke="midnightblue" d="M458.751,-242.822C461.536,-241.868 464.325,-240.914 467,-240 504.431,-227.212 547.471,-212.569 576.054,-202.853"/>
<polygon fill="midnightblue" stroke="midnightblue" points="577.186,-206.165 585.528,-199.633 574.934,-199.537 577.186,-206.165"/>
</g>
<!-- Node14&#45;&gt;Node3 -->
<g id="edge34" class="edge"><title>Node14&#45;&gt;Node3</title>
<path fill="none" stroke="midnightblue" d="M345.817,-180.995C345.689,-173.311 345.513,-162.803 345.358,-153.488"/>
<polygon fill="midnightblue" stroke="midnightblue" points="348.855,-153.283 345.189,-143.343 341.856,-153.4 348.855,-153.283"/>
</g>
<!-- Node15&#45;&gt;Node4 -->
<g id="edge38" class="edge"><title>Node15&#45;&gt;Node4</title>
<path fill="none" stroke="midnightblue" d="M505.183,-120.995C505.311,-113.311 505.487,-102.803 505.642,-93.4884"/>
<polygon fill="midnightblue" stroke="midnightblue" points="509.144,-93.3998 505.811,-83.3428 502.145,-93.2831 509.144,-93.3998"/>
</g>
<!-- Node15&#45;&gt;Node9 -->
<g id="edge40" class="edge"><title>Node15&#45;&gt;Node9</title>
<path fill="none" stroke="midnightblue" d="M486.842,-120.995C471.864,-111.918 450.383,-98.899 433.328,-88.5627"/>
<polygon fill="midnightblue" stroke="midnightblue" points="434.744,-85.3282 424.378,-83.1383 431.116,-91.3146 434.744,-85.3282"/>
</g>
<!-- Node18&#45;&gt;Node3 -->
<g id="edge48" class="edge"><title>Node18&#45;&gt;Node3</title>
<path fill="none" stroke="midnightblue" d="M694.86,-240.84C685.254,-224.546 665.045,-194.598 639,-180 617.591,-168 466.287,-147.405 389.491,-137.559"/>
<polygon fill="midnightblue" stroke="midnightblue" points="389.533,-134.036 379.171,-136.243 388.648,-140.98 389.533,-134.036"/>
</g>
<!-- Node18&#45;&gt;Node17 -->
<g id="edge54" class="edge"><title>Node18&#45;&gt;Node17</title>
<path fill="none" stroke="midnightblue" d="M683.942,-240.995C669.873,-231.918 649.694,-218.899 633.672,-208.563"/>
<polygon fill="midnightblue" stroke="midnightblue" points="635.565,-205.619 625.264,-203.138 631.77,-211.501 635.565,-205.619"/>
</g>
<!-- Node19 -->
<g id="node44" class="node"><title>Node19</title>
<polygon fill="white" stroke="#bfbfbf" points="686,-181 686,-203 744,-203 744,-181 686,-181"/>
<text text-anchor="middle" x="715" y="-190" font-family="FreeSans" font-size="10.00">algorithm</text>
</g>
<!-- Node18&#45;&gt;Node19 -->
<g id="edge50" class="edge"><title>Node18&#45;&gt;Node19</title>
<path fill="none" stroke="midnightblue" d="M703.568,-240.995C705.38,-233.228 707.866,-222.574 710.057,-213.185"/>
<polygon fill="midnightblue" stroke="midnightblue" points="713.489,-213.877 712.353,-203.343 706.673,-212.286 713.489,-213.877"/>
</g>
<!-- Node20 -->
<g id="node46" class="node"><title>Node20</title>
<polygon fill="white" stroke="#bfbfbf" points="761.5,-181 761.5,-203 814.5,-203 814.5,-181 761.5,-181"/>
<text text-anchor="middle" x="788" y="-190" font-family="FreeSans" font-size="10.00">sstream</text>
</g>
<!-- Node18&#45;&gt;Node20 -->
<g id="edge52" class="edge"><title>Node18&#45;&gt;Node20</title>
<path fill="none" stroke="midnightblue" d="M716.957,-240.995C729.997,-232.002 748.647,-219.14 763.567,-208.851"/>
<polygon fill="midnightblue" stroke="midnightblue" points="765.604,-211.697 771.849,-203.138 761.63,-205.934 765.604,-211.697"/>
</g>
<!-- Node21&#45;&gt;Node3 -->
<g id="edge58" class="edge"><title>Node21&#45;&gt;Node3</title>
<path fill="none" stroke="midnightblue" d="M332.234,-240.99C320.371,-232.517 305.752,-219.626 299,-204 294.769,-194.208 295.023,-189.898 299,-180 303.726,-168.237 312.864,-157.733 321.758,-149.572"/>
<polygon fill="midnightblue" stroke="midnightblue" points="324.076,-152.194 329.394,-143.031 319.522,-146.878 324.076,-152.194"/>
</g>
<!-- Node25&#45;&gt;Node3 -->
<g id="edge74" class="edge"><title>Node25&#45;&gt;Node3</title>
<path fill="none" stroke="midnightblue" d="M513.671,-240.765C504.389,-225.188 485.699,-197.033 463,-180 440.943,-163.449 412.379,-151.634 388.88,-143.867"/>
<polygon fill="midnightblue" stroke="midnightblue" points="389.743,-140.469 379.152,-140.785 387.628,-147.142 389.743,-140.469"/>
</g>
<!-- Node25&#45;&gt;Node17 -->
<g id="edge72" class="edge"><title>Node25&#45;&gt;Node17</title>
<path fill="none" stroke="midnightblue" d="M536.141,-240.995C549.331,-232.002 568.195,-219.14 583.286,-208.851"/>
<polygon fill="midnightblue" stroke="midnightblue" points="585.373,-211.664 591.664,-203.138 581.43,-205.88 585.373,-211.664"/>
</g>
</g>
</svg>
        <g id="navigator" transform="translate(0 0)" fill="#404254">
                <rect fill="#f2f5e9" fill-opacity="0.5" stroke="#606060" stroke-width=".5" x="0" y="0" width="60" height="60"/>
                <use id="zoomplus" xlink:href="#zoomPlus" x="17" y="9" onmousedown="handleZoom(evt,'in')"/>
                <use id="zoomminus" xlink:href="#zoomMin" x="42" y="9" onmousedown="handleZoom(evt,'out')"/>
                <use id="reset" xlink:href="#resetDef" x="30" y="36" onmousedown="handleReset()"/>
                <g id="arrowUp" xlink:href="#dirArrow" transform="translate(30 24)" onmousedown="handlePan(0,-1)">
                  <use xlink:href="#rim" fill="#404040">
                        <set attributeName="fill" to="#808080" begin="arrowUp.mouseover" end="arrowUp.mouseout"/>
                  </use>
                  <path fill="none" stroke="white" stroke-width="1.5" d="M0,-3.0v7 M-2.5,-0.5L0,-3.0L2.5,-0.5"/>
                </g>
                <g id="arrowRight" xlink:href="#dirArrow" transform="rotate(90) translate(36 -43)" onmousedown="handlePan(1,0)">
                  <use xlink:href="#rim" fill="#404040">
                        <set attributeName="fill" to="#808080" begin="arrowRight.mouseover" end="arrowRight.mouseout"/>
                  </use>
                  <path fill="none" stroke="white" stroke-width="1.5" d="M0,-3.0v7 M-2.5,-0.5L0,-3.0L2.5,-0.5"/>
                </g>
                <g id="arrowDown" xlink:href="#dirArrow" transform="rotate(180) translate(-30 -48)" onmousedown="handlePan(0,1)">
                  <use xlink:href="#rim" fill="#404040">
                        <set attributeName="fill" to="#808080" begin="arrowDown.mouseover" end="arrowDown.mouseout"/>
                  </use>
                  <path fill="none" stroke="white" stroke-width="1.5" d="M0,-3.0v7 M-2.5,-0.5L0,-3.0L2.5,-0.5"/>
                </g>
                <g id="arrowLeft" xlink:href="#dirArrow" transform="rotate(270) translate(-36 17)" onmousedown="handlePan(-1,0)">
                  <use xlink:href="#rim" fill="#404040">
                        <set attributeName="fill" to="#808080" begin="arrowLeft.mouseover" end="arrowLeft.mouseout"/>
                  </use>
                  <path fill="none" stroke="white" stroke-width="1.5" d="M0,-3.0v7 M-2.5,-0.5L0,-3.0L2.5,-0.5"/>
                </g>
        </g>
</svg>
