<?xml version="1.0" encoding="UTF-8" standalone="no"?>
<!DOCTYPE svg PUBLIC "-//W3C//DTD SVG 1.1//EN"
 "http://www.w3.org/Graphics/SVG/1.1/DTD/svg11.dtd">
<!-- Generated by graphviz version 2.26.3 (20100126.1600)
 -->
<!-- Title: G Pages: 1 -->
<!--zoomable 452 -->
<svg id="main" version="1.1" xmlns="http://www.w3.org/2000/svg" xmlns:xlink="http://www.w3.org/1999/xlink" xml:space="preserve" onload="init(evt)">
        <defs>
                <circle id="rim" cx="0" cy="0" r="7"/>
                <circle id="rim2" cx="0" cy="0" r="3.5"/>
                <g id="zoomPlus">
                        <use xlink:href="#rim" fill="#404040">
                                <set attributeName="fill" to="#808080" begin="zoomplus.mouseover" end="zoomplus.mouseout"/>
                        </use>
                        <path d="M-4,0h8M0,-4v8" fill="none" stroke="white" stroke-width="1.5" pointer-events="none"/>
                </g>
                <g id="zoomMin">
                        <use xlink:href="#rim" fill="#404040">
                                <set attributeName="fill" to="#808080" begin="zoomminus.mouseover" end="zoomminus.mouseout"/>
                        </use>
                        <path d="M-4,0h8" fill="none" stroke="white" stroke-width="1.5" pointer-events="none"/>
                </g>
                <g id="dirArrow">
                        <path fill="none" stroke="white" stroke-width="1.5" d="M0,-3.0v7 M-2.5,-0.5L0,-3.0L2.5,-0.5"/>
                </g>
               <g id="resetDef">
                       <use xlink:href="#rim2" fill="#404040">
                               <set attributeName="fill" to="#808080" begin="reset.mouseover" end="reset.mouseout"/>
                       </use>
               </g>
        </defs>

<script type="text/javascript">
var viewWidth = 977;
var viewHeight = 452;
var sectionId = 'dynsection-0';
</script>
<script xlink:href="svgpan.js"/>
<svg id="graph" class="graph">
<g id="viewport">
<title>G</title>
<polygon fill="white" stroke="white" points="-4,5 -4,-448 974,-448 974,5 -4,5"/>
<!-- Node1 -->
<g id="node1" class="node"><title>Node1</title>
<polygon fill="#bfbfbf" stroke="black" points="146,-421 146,-443 282,-443 282,-421 146,-421"/>
<text text-anchor="middle" x="214" y="-430" font-family="FreeSans" font-size="10.00">frameschedulerworkunits.h</text>
</g>
<!-- Node2 -->
<g id="node3" class="node"><title>Node2</title>
<a xlink:href="datatypes_8h.html" target="_top" xlink:title="This file declares a few typedefs to allow flexibility, in case a change is required/desired.">
<polygon fill="white" stroke="black" points="333,-121 333,-143 401,-143 401,-121 333,-121"/>
<text text-anchor="middle" x="367" y="-130" font-family="FreeSans" font-size="10.00">datatypes.h</text>
</a>
</g>
<!-- Node1&#45;&gt;Node2 -->
<g id="edge2" class="edge"><title>Node1&#45;&gt;Node2</title>
<path fill="none" stroke="midnightblue" d="M145.995,-422.723C83.3327,-409.896 0,-380.046 0,-312 0,-312 0,-312 0,-252 0,-204.165 36.9117,-200.775 80,-180 122.093,-159.705 253.233,-143.675 322.734,-136.345"/>
<polygon fill="midnightblue" stroke="midnightblue" points="323.345,-139.8 332.93,-135.285 322.622,-132.838 323.345,-139.8"/>
</g>
<!-- Node10 -->
<g id="node19" class="node"><title>Node10</title>
<a xlink:href="workunit_8h.html" target="_top" xlink:title="This file has the definition of the workunit.">
<polygon fill="white" stroke="black" points="293.5,-361 293.5,-383 354.5,-383 354.5,-361 293.5,-361"/>
<text text-anchor="middle" x="324" y="-370" font-family="FreeSans" font-size="10.00">workunit.h</text>
</a>
</g>
<!-- Node1&#45;&gt;Node10 -->
<g id="edge18" class="edge"><title>Node1&#45;&gt;Node10</title>
<path fill="none" stroke="midnightblue" d="M234.176,-420.995C251.126,-411.75 275.572,-398.416 294.683,-387.991"/>
<polygon fill="midnightblue" stroke="midnightblue" points="296.477,-391 303.58,-383.138 293.125,-384.854 296.477,-391"/>
</g>
<!-- Node15 -->
<g id="node32" class="node"><title>Node15</title>
<polygon fill="white" stroke="#bfbfbf" points="675,-181 675,-203 719,-203 719,-181 675,-181"/>
<text text-anchor="middle" x="697" y="-190" font-family="FreeSans" font-size="10.00">vector</text>
</g>
<!-- Node1&#45;&gt;Node15 -->
<g id="edge94" class="edge"><title>Node1&#45;&gt;Node15</title>
<path fill="none" stroke="midnightblue" d="M282.109,-421.133C365.544,-406.253 509.972,-375.36 625,-324 669.235,-304.249 693.032,-306.654 716,-264 724.799,-247.66 717.755,-227.005 709.869,-212.012"/>
<polygon fill="midnightblue" stroke="midnightblue" points="712.749,-209.998 704.724,-203.08 706.683,-213.493 712.749,-209.998"/>
</g>
<!-- Node20 -->
<g id="node47" class="node"><title>Node20</title>
<a xlink:href="workunitkey_8h.html" target="_top" xlink:title="This file defines the metadata used to sort workunits.">
<polygon fill="white" stroke="black" points="65.5,-241 65.5,-263 142.5,-263 142.5,-241 65.5,-241"/>
<text text-anchor="middle" x="104" y="-250" font-family="FreeSans" font-size="10.00">workunitkey.h</text>
</a>
</g>
<!-- Node1&#45;&gt;Node20 -->
<g id="edge92" class="edge"><title>Node1&#45;&gt;Node20</title>
<path fill="none" stroke="midnightblue" d="M203.756,-420.762C186.981,-401.91 153.382,-362.213 132,-324 122.83,-307.612 115.315,-287.613 110.388,-272.854"/>
<polygon fill="midnightblue" stroke="midnightblue" points="113.664,-271.609 107.27,-263.161 107,-273.752 113.664,-271.609"/>
</g>
<!-- Node3 -->
<g id="node5" class="node"><title>Node3</title>
<a xlink:href="compilerthreadcompat_8h.html" target="_top" xlink:title="This file determines what features are offered by the compiler that this library can take advantage o...">
<polygon fill="white" stroke="black" points="779,-61 779,-83 903,-83 903,-61 779,-61"/>
<text text-anchor="middle" x="841" y="-70" font-family="FreeSans" font-size="10.00">compilerthreadcompat.h</text>
</a>
</g>
<!-- Node2&#45;&gt;Node3 -->
<g id="edge4" class="edge"><title>Node2&#45;&gt;Node3</title>
<path fill="none" stroke="midnightblue" d="M401.089,-127.685C477.715,-117.985 664.963,-94.2832 768.758,-81.1445"/>
<polygon fill="midnightblue" stroke="midnightblue" points="769.361,-84.5962 778.843,-79.868 768.482,-77.6516 769.361,-84.5962"/>
</g>
<!-- Node8 -->
<g id="node15" class="node"><title>Node8</title>
<polygon fill="white" stroke="#bfbfbf" points="544.5,-61 544.5,-83 585.5,-83 585.5,-61 544.5,-61"/>
<text text-anchor="middle" x="565" y="-70" font-family="FreeSans" font-size="10.00">string</text>
</g>
<!-- Node2&#45;&gt;Node8 -->
<g id="edge14" class="edge"><title>Node2&#45;&gt;Node8</title>
<path fill="none" stroke="midnightblue" d="M401.037,-121.686C438.574,-110.311 498.419,-92.1761 534.486,-81.2468"/>
<polygon fill="midnightblue" stroke="midnightblue" points="535.872,-84.4841 544.427,-78.2343 533.841,-77.7849 535.872,-84.4841"/>
</g>
<!-- Node9 -->
<g id="node17" class="node"><title>Node9</title>
<polygon fill="white" stroke="#bfbfbf" points="343.5,-61 343.5,-83 390.5,-83 390.5,-61 343.5,-61"/>
<text text-anchor="middle" x="367" y="-70" font-family="FreeSans" font-size="10.00">stdint.h</text>
</g>
<!-- Node2&#45;&gt;Node9 -->
<g id="edge16" class="edge"><title>Node2&#45;&gt;Node9</title>
<path fill="none" stroke="midnightblue" d="M367,-120.995C367,-113.311 367,-102.803 367,-93.4884"/>
<polygon fill="midnightblue" stroke="midnightblue" points="370.5,-93.3428 367,-83.3428 363.5,-93.3429 370.5,-93.3428"/>
</g>
<!-- Node4 -->
<g id="node7" class="node"><title>Node4</title>
<polygon fill="white" stroke="#bfbfbf" points="705,-1 705,-23 763,-23 763,-1 705,-1"/>
<text text-anchor="middle" x="734" y="-10" font-family="FreeSans" font-size="10.00">pthread.h</text>
</g>
<!-- Node3&#45;&gt;Node4 -->
<g id="edge6" class="edge"><title>Node3&#45;&gt;Node4</title>
<path fill="none" stroke="midnightblue" d="M821.375,-60.9951C804.962,-51.7917 781.324,-38.5366 762.772,-28.1336"/>
<polygon fill="midnightblue" stroke="midnightblue" points="764.298,-24.9766 753.863,-23.1383 760.874,-31.0822 764.298,-24.9766"/>
</g>
<!-- Node5 -->
<g id="node9" class="node"><title>Node5</title>
<polygon fill="white" stroke="#bfbfbf" points="780.5,-1 780.5,-23 831.5,-23 831.5,-1 780.5,-1"/>
<text text-anchor="middle" x="806" y="-10" font-family="FreeSans" font-size="10.00">signal.h</text>
</g>
<!-- Node3&#45;&gt;Node5 -->
<g id="edge8" class="edge"><title>Node3&#45;&gt;Node5</title>
<path fill="none" stroke="midnightblue" d="M834.58,-60.9951C829.855,-52.8936 823.297,-41.6525 817.656,-31.981"/>
<polygon fill="midnightblue" stroke="midnightblue" points="820.679,-30.2171 812.617,-23.3428 814.632,-33.7442 820.679,-30.2171"/>
</g>
<!-- Node6 -->
<g id="node11" class="node"><title>Node6</title>
<polygon fill="white" stroke="#bfbfbf" points="849,-1 849,-23 901,-23 901,-1 849,-1"/>
<text text-anchor="middle" x="875" y="-10" font-family="FreeSans" font-size="10.00">sched.h</text>
</g>
<!-- Node3&#45;&gt;Node6 -->
<g id="edge10" class="edge"><title>Node3&#45;&gt;Node6</title>
<path fill="none" stroke="midnightblue" d="M847.236,-60.9951C851.78,-52.9771 858.066,-41.884 863.508,-32.2806"/>
<polygon fill="midnightblue" stroke="midnightblue" points="866.687,-33.7686 868.572,-23.3428 860.597,-30.3175 866.687,-33.7686"/>
</g>
<!-- Node7 -->
<g id="node13" class="node"><title>Node7</title>
<polygon fill="white" stroke="#bfbfbf" points="919,-1 919,-23 969,-23 969,-1 919,-1"/>
<text text-anchor="middle" x="944" y="-10" font-family="FreeSans" font-size="10.00">unistd.h</text>
</g>
<!-- Node3&#45;&gt;Node7 -->
<g id="edge12" class="edge"><title>Node3&#45;&gt;Node7</title>
<path fill="none" stroke="midnightblue" d="M859.892,-60.9951C875.619,-51.8337 898.238,-38.6576 916.059,-28.2763"/>
<polygon fill="midnightblue" stroke="midnightblue" points="918,-31.1962 924.879,-23.1383 914.477,-25.1476 918,-31.1962"/>
</g>
<!-- Node10&#45;&gt;Node2 -->
<g id="edge20" class="edge"><title>Node10&#45;&gt;Node2</title>
<path fill="none" stroke="midnightblue" d="M293.446,-370.014C214.319,-363.472 11.9329,-337.089 57,-240 74.3947,-202.526 90.7972,-197.967 128,-180 191.331,-149.414 273.151,-138.311 322.77,-134.285"/>
<polygon fill="midnightblue" stroke="midnightblue" points="323.14,-137.767 332.851,-133.529 322.617,-130.787 323.14,-137.767"/>
</g>
<!-- Node11 -->
<g id="node22" class="node"><title>Node11</title>
<a xlink:href="framescheduler_8h.html" target="_top" xlink:title="This file has the Declarations for the main FrameScheduler class.">
<polygon fill="white" stroke="black" points="425,-301 425,-323 519,-323 519,-301 425,-301"/>
<text text-anchor="middle" x="472" y="-310" font-family="FreeSans" font-size="10.00">framescheduler.h</text>
</a>
</g>
<!-- Node10&#45;&gt;Node11 -->
<g id="edge22" class="edge"><title>Node10&#45;&gt;Node11</title>
<path fill="none" stroke="midnightblue" d="M351.145,-360.995C374.75,-351.426 409.161,-337.475 435.232,-326.906"/>
<polygon fill="midnightblue" stroke="midnightblue" points="436.824,-330.037 444.776,-323.037 434.194,-323.55 436.824,-330.037"/>
</g>
<!-- Node10&#45;&gt;Node15 -->
<g id="edge90" class="edge"><title>Node10&#45;&gt;Node15</title>
<path fill="none" stroke="midnightblue" d="M354.605,-368.055C436.694,-356.768 658.3,-321.413 699,-264 709.4,-249.329 707.484,-228.419 703.808,-212.91"/>
<polygon fill="midnightblue" stroke="midnightblue" points="707.154,-211.881 701.111,-203.179 700.409,-213.751 707.154,-211.881"/>
</g>
<!-- Node16 -->
<g id="node34" class="node"><title>Node16</title>
<a xlink:href="thread_8h.html" target="_top" xlink:title="This file defines a minimalistic cross&#45;platform thread that the scheduler uses to schedule tasks...">
<polygon fill="white" stroke="black" points="843.5,-241 843.5,-263 896.5,-263 896.5,-241 843.5,-241"/>
<text text-anchor="middle" x="870" y="-250" font-family="FreeSans" font-size="10.00">thread.h</text>
</a>
</g>
<!-- Node10&#45;&gt;Node16 -->
<g id="edge86" class="edge"><title>Node10&#45;&gt;Node16</title>
<path fill="none" stroke="midnightblue" d="M354.659,-370.337C440.16,-365.424 679.824,-349.684 754,-324 789.988,-311.539 826.496,-286.358 848.695,-269.332"/>
<polygon fill="midnightblue" stroke="midnightblue" points="851.027,-271.952 856.744,-263.032 846.712,-266.44 851.027,-271.952"/>
</g>
<!-- Node18 -->
<g id="node40" class="node"><title>Node18</title>
<a xlink:href="mutex_8h.html" target="_top" xlink:title="This file declares and defines a mutex that is a partial implementation.">
<polygon fill="white" stroke="black" points="815.5,-121 815.5,-143 866.5,-143 866.5,-121 815.5,-121"/>
<text text-anchor="middle" x="841" y="-130" font-family="FreeSans" font-size="10.00">mutex.h</text>
</a>
</g>
<!-- Node10&#45;&gt;Node18 -->
<g id="edge74" class="edge"><title>Node10&#45;&gt;Node18</title>
<path fill="none" stroke="midnightblue" d="M354.587,-370.378C444.813,-365.352 708.69,-348.872 791,-324 869.126,-300.392 913.994,-284.03 930,-204 932.092,-193.54 935.467,-189.159 930,-180 918.378,-160.527 895.824,-148.485 876.33,-141.332"/>
<polygon fill="midnightblue" stroke="midnightblue" points="877.373,-137.99 866.778,-138.113 875.137,-144.623 877.373,-137.99"/>
</g>
<!-- Node10&#45;&gt;Node20 -->
<g id="edge88" class="edge"><title>Node10&#45;&gt;Node20</title>
<path fill="none" stroke="midnightblue" d="M293.401,-368.624C258.757,-363.592 201.833,-351.563 161,-324 141.117,-310.578 124.915,-288.06 114.936,-271.776"/>
<polygon fill="midnightblue" stroke="midnightblue" points="117.88,-269.876 109.799,-263.024 111.843,-273.42 117.88,-269.876"/>
</g>
<!-- Node26 -->
<g id="node64" class="node"><title>Node26</title>
<a xlink:href="rollingaverage_8h.html" target="_top" xlink:title="This stores the implementation and the declaration of the RollingAverage, BufferedRollingAverage, WeightedRollingAverage and the DefaultRollingAverage.">
<polygon fill="white" stroke="black" points="197.5,-241 197.5,-263 286.5,-263 286.5,-241 197.5,-241"/>
<text text-anchor="middle" x="242" y="-250" font-family="FreeSans" font-size="10.00">rollingaverage.h</text>
</a>
</g>
<!-- Node10&#45;&gt;Node26 -->
<g id="edge76" class="edge"><title>Node10&#45;&gt;Node26</title>
<path fill="none" stroke="midnightblue" d="M323.296,-360.844C321.879,-345.857 317.637,-318.921 305,-300 296.519,-287.302 283.542,-276.589 271.564,-268.527"/>
<polygon fill="midnightblue" stroke="midnightblue" points="273.413,-265.555 263.098,-263.135 269.653,-271.46 273.413,-265.555"/>
</g>
<!-- Node27 -->
<g id="node68" class="node"><title>Node27</title>
<a xlink:href="threadingenumerations_8h.html" target="_top" xlink:title="Any enumerations the threading library requires are all declared here.">
<polygon fill="white" stroke="black" points="169.5,-301 169.5,-323 296.5,-323 296.5,-301 169.5,-301"/>
<text text-anchor="middle" x="233" y="-310" font-family="FreeSans" font-size="10.00">threadingenumerations.h</text>
</a>
</g>
<!-- Node10&#45;&gt;Node27 -->
<g id="edge82" class="edge"><title>Node10&#45;&gt;Node27</title>
<path fill="none" stroke="midnightblue" d="M307.309,-360.995C293.669,-352.002 274.162,-339.14 258.557,-328.851"/>
<polygon fill="midnightblue" stroke="midnightblue" points="260.168,-325.721 249.893,-323.138 256.315,-331.565 260.168,-325.721"/>
</g>
<!-- Node11&#45;&gt;Node2 -->
<g id="edge24" class="edge"><title>Node11&#45;&gt;Node2</title>
<path fill="none" stroke="midnightblue" d="M519.222,-307.993C575.039,-302.164 662.906,-289.179 683,-264 689.654,-255.663 687.524,-249.66 683,-240 665.332,-202.278 648.607,-197.911 611,-180 545.863,-148.977 461.791,-138.002 411.262,-134.121"/>
<polygon fill="midnightblue" stroke="midnightblue" points="411.23,-130.611 401.008,-133.396 410.736,-137.593 411.23,-130.611"/>
</g>
<!-- Node12 -->
<g id="node25" class="node"><title>Node12</title>
<a xlink:href="doublebufferedresource_8h.html" target="_top" xlink:title="This file defines the template double buffered resources that can be attached to a thread...">
<polygon fill="white" stroke="black" points="543.5,-241 543.5,-263 674.5,-263 674.5,-241 543.5,-241"/>
<text text-anchor="middle" x="609" y="-250" font-family="FreeSans" font-size="10.00">doublebufferedresource.h</text>
</a>
</g>
<!-- Node11&#45;&gt;Node12 -->
<g id="edge26" class="edge"><title>Node11&#45;&gt;Node12</title>
<path fill="none" stroke="midnightblue" d="M497.128,-300.995C518.718,-291.54 550.073,-277.807 574.099,-267.285"/>
<polygon fill="midnightblue" stroke="midnightblue" points="575.812,-270.356 583.567,-263.138 573.003,-263.944 575.812,-270.356"/>
</g>
<!-- Node11&#45;&gt;Node16 -->
<g id="edge36" class="edge"><title>Node11&#45;&gt;Node16</title>
<path fill="none" stroke="midnightblue" d="M519.219,-304.882C599.488,-292.781 760.875,-268.451 833.324,-257.529"/>
<polygon fill="midnightblue" stroke="midnightblue" points="833.982,-260.97 843.348,-256.018 832.938,-254.048 833.982,-260.97"/>
</g>
<!-- Node17 -->
<g id="node37" class="node"><title>Node17</title>
<a xlink:href="systemcalls_8h.html" target="_top" xlink:title="This file defines a minimalistic cross&#45;platform thread that the scheduler uses to schedule tasks...">
<polygon fill="white" stroke="black" points="736.5,-181 736.5,-203 813.5,-203 813.5,-181 736.5,-181"/>
<text text-anchor="middle" x="775" y="-190" font-family="FreeSans" font-size="10.00">systemcalls.h</text>
</a>
</g>
<!-- Node11&#45;&gt;Node17 -->
<g id="edge58" class="edge"><title>Node11&#45;&gt;Node17</title>
<path fill="none" stroke="midnightblue" d="M519.041,-306.583C580.297,-298.881 683.4,-283.51 716,-264 736.982,-251.444 753.772,-228.579 763.995,-211.977"/>
<polygon fill="midnightblue" stroke="midnightblue" points="767.191,-213.446 769.238,-203.051 761.156,-209.901 767.191,-213.446"/>
</g>
<!-- Node11&#45;&gt;Node20 -->
<g id="edge54" class="edge"><title>Node11&#45;&gt;Node20</title>
<path fill="none" stroke="midnightblue" d="M424.644,-304.279C354.427,-292.831 223.39,-271.466 152.513,-259.91"/>
<polygon fill="midnightblue" stroke="midnightblue" points="152.939,-256.433 142.506,-258.278 151.813,-263.342 152.939,-256.433"/>
</g>
<!-- Node21 -->
<g id="node51" class="node"><title>Node21</title>
<a xlink:href="barrier_8h.html" target="_top" xlink:title="The declaration of the Mezzanine::Threading::Barrier Barrier synchronization primitive.">
<polygon fill="white" stroke="black" points="303.5,-241 303.5,-263 356.5,-263 356.5,-241 303.5,-241"/>
<text text-anchor="middle" x="330" y="-250" font-family="FreeSans" font-size="10.00">barrier.h</text>
</a>
</g>
<!-- Node11&#45;&gt;Node21 -->
<g id="edge60" class="edge"><title>Node11&#45;&gt;Node21</title>
<path fill="none" stroke="midnightblue" d="M445.955,-300.995C423.478,-291.498 390.788,-277.685 365.843,-267.145"/>
<polygon fill="midnightblue" stroke="midnightblue" points="366.935,-263.807 356.361,-263.138 364.21,-270.255 366.935,-263.807"/>
</g>
<!-- Node23 -->
<g id="node57" class="node"><title>Node23</title>
<polygon fill="white" stroke="#bfbfbf" points="374,-241 374,-263 410,-263 410,-241 374,-241"/>
<text text-anchor="middle" x="392" y="-250" font-family="FreeSans" font-size="10.00">map</text>
</g>
<!-- Node11&#45;&gt;Node23 -->
<g id="edge68" class="edge"><title>Node11&#45;&gt;Node23</title>
<path fill="none" stroke="midnightblue" d="M457.327,-300.995C445.448,-292.086 428.506,-279.38 414.853,-269.14"/>
<polygon fill="midnightblue" stroke="midnightblue" points="416.951,-266.338 406.851,-263.138 412.751,-271.938 416.951,-266.338"/>
</g>
<!-- Node24 -->
<g id="node59" class="node"><title>Node24</title>
<polygon fill="white" stroke="#bfbfbf" points="428,-241 428,-263 458,-263 458,-241 428,-241"/>
<text text-anchor="middle" x="443" y="-250" font-family="FreeSans" font-size="10.00">set</text>
</g>
<!-- Node11&#45;&gt;Node24 -->
<g id="edge70" class="edge"><title>Node11&#45;&gt;Node24</title>
<path fill="none" stroke="midnightblue" d="M466.681,-300.995C462.846,-293.061 457.555,-282.115 452.948,-272.581"/>
<polygon fill="midnightblue" stroke="midnightblue" points="455.985,-270.823 448.482,-263.343 449.683,-273.869 455.985,-270.823"/>
</g>
<!-- Node25 -->
<g id="node61" class="node"><title>Node25</title>
<polygon fill="white" stroke="#bfbfbf" points="476,-241 476,-263 526,-263 526,-241 476,-241"/>
<text text-anchor="middle" x="501" y="-250" font-family="FreeSans" font-size="10.00">fstream</text>
</g>
<!-- Node11&#45;&gt;Node25 -->
<g id="edge72" class="edge"><title>Node11&#45;&gt;Node25</title>
<path fill="none" stroke="midnightblue" d="M477.319,-300.995C481.154,-293.061 486.445,-282.115 491.052,-272.581"/>
<polygon fill="midnightblue" stroke="midnightblue" points="494.317,-273.869 495.518,-263.343 488.015,-270.823 494.317,-273.869"/>
</g>
<!-- Node12&#45;&gt;Node2 -->
<g id="edge28" class="edge"><title>Node12&#45;&gt;Node2</title>
<path fill="none" stroke="midnightblue" d="M609.42,-240.98C609.385,-225.138 606.829,-196.072 590,-180 564.791,-155.925 468.799,-142.263 411.295,-136.077"/>
<polygon fill="midnightblue" stroke="midnightblue" points="411.341,-132.563 401.032,-135.008 410.616,-139.525 411.341,-132.563"/>
</g>
<!-- Node13 -->
<g id="node28" class="node"><title>Node13</title>
<polygon fill="white" stroke="#bfbfbf" points="453,-181 453,-203 511,-203 511,-181 453,-181"/>
<text text-anchor="middle" x="482" y="-190" font-family="FreeSans" font-size="10.00">algorithm</text>
</g>
<!-- Node12&#45;&gt;Node13 -->
<g id="edge30" class="edge"><title>Node12&#45;&gt;Node13</title>
<path fill="none" stroke="midnightblue" d="M585.706,-240.995C565.781,-231.582 536.884,-217.929 514.651,-207.426"/>
<polygon fill="midnightblue" stroke="midnightblue" points="516.113,-204.245 505.576,-203.138 513.123,-210.575 516.113,-204.245"/>
</g>
<!-- Node14 -->
<g id="node30" class="node"><title>Node14</title>
<polygon fill="white" stroke="#bfbfbf" points="528.5,-181 528.5,-203 581.5,-203 581.5,-181 528.5,-181"/>
<text text-anchor="middle" x="555" y="-190" font-family="FreeSans" font-size="10.00">sstream</text>
</g>
<!-- Node12&#45;&gt;Node14 -->
<g id="edge32" class="edge"><title>Node12&#45;&gt;Node14</title>
<path fill="none" stroke="midnightblue" d="M599.096,-240.995C591.504,-232.56 580.848,-220.72 571.914,-210.793"/>
<polygon fill="midnightblue" stroke="midnightblue" points="574.5,-208.434 565.209,-203.343 569.297,-213.117 574.5,-208.434"/>
</g>
<!-- Node12&#45;&gt;Node15 -->
<g id="edge34" class="edge"><title>Node12&#45;&gt;Node15</title>
<path fill="none" stroke="midnightblue" d="M625.141,-240.995C638.331,-232.002 657.195,-219.14 672.286,-208.851"/>
<polygon fill="midnightblue" stroke="midnightblue" points="674.373,-211.664 680.664,-203.138 670.43,-205.88 674.373,-211.664"/>
</g>
<!-- Node16&#45;&gt;Node3 -->
<g id="edge38" class="edge"><title>Node16&#45;&gt;Node3</title>
<path fill="none" stroke="midnightblue" d="M892.313,-240.845C905.94,-232.692 922.199,-220.231 930,-204 934.621,-194.386 933.604,-190.039 930,-180 916.68,-142.893 884.488,-109.435 862.699,-89.9088"/>
<polygon fill="midnightblue" stroke="midnightblue" points="864.758,-87.0601 854.919,-83.1289 860.159,-92.3374 864.758,-87.0601"/>
</g>
<!-- Node16&#45;&gt;Node15 -->
<g id="edge52" class="edge"><title>Node16&#45;&gt;Node15</title>
<path fill="none" stroke="midnightblue" d="M843.448,-243.406C816.73,-234.676 774.141,-220.535 728.979,-204.27"/>
<polygon fill="midnightblue" stroke="midnightblue" points="729.902,-200.882 719.308,-200.768 727.519,-207.464 729.902,-200.882"/>
</g>
<!-- Node16&#45;&gt;Node17 -->
<g id="edge40" class="edge"><title>Node16&#45;&gt;Node17</title>
<path fill="none" stroke="midnightblue" d="M852.576,-240.995C838.203,-231.918 817.59,-218.899 801.224,-208.563"/>
<polygon fill="midnightblue" stroke="midnightblue" points="802.96,-205.519 792.636,-203.138 799.222,-211.438 802.96,-205.519"/>
</g>
<!-- Node16&#45;&gt;Node18 -->
<g id="edge44" class="edge"><title>Node16&#45;&gt;Node18</title>
<path fill="none" stroke="midnightblue" d="M867.324,-240.926C862.49,-220.923 852.231,-178.472 846.044,-152.872"/>
<polygon fill="midnightblue" stroke="midnightblue" points="849.421,-151.945 843.67,-143.047 842.617,-153.59 849.421,-151.945"/>
</g>
<!-- Node19 -->
<g id="node44" class="node"><title>Node19</title>
<polygon fill="white" stroke="#bfbfbf" points="868.5,-181 868.5,-203 921.5,-203 921.5,-181 868.5,-181"/>
<text text-anchor="middle" x="895" y="-190" font-family="FreeSans" font-size="10.00">ostream</text>
</g>
<!-- Node16&#45;&gt;Node19 -->
<g id="edge50" class="edge"><title>Node16&#45;&gt;Node19</title>
<path fill="none" stroke="midnightblue" d="M874.585,-240.995C877.891,-233.061 882.452,-222.115 886.425,-212.581"/>
<polygon fill="midnightblue" stroke="midnightblue" points="889.658,-213.92 890.274,-203.343 883.197,-211.227 889.658,-213.92"/>
</g>
<!-- Node17&#45;&gt;Node2 -->
<g id="edge42" class="edge"><title>Node17&#45;&gt;Node2</title>
<path fill="none" stroke="midnightblue" d="M736.353,-181.748C733.535,-181.119 730.729,-180.528 728,-180 614.637,-158.071 479.299,-143.001 411.031,-136.165"/>
<polygon fill="midnightblue" stroke="midnightblue" points="411.356,-132.68 401.059,-135.177 410.666,-139.646 411.356,-132.68"/>
</g>
<!-- Node18&#45;&gt;Node3 -->
<g id="edge46" class="edge"><title>Node18&#45;&gt;Node3</title>
<path fill="none" stroke="midnightblue" d="M841,-120.995C841,-113.311 841,-102.803 841,-93.4884"/>
<polygon fill="midnightblue" stroke="midnightblue" points="844.5,-93.3428 841,-83.3428 837.5,-93.3429 844.5,-93.3428"/>
</g>
<!-- Node18&#45;&gt;Node8 -->
<g id="edge48" class="edge"><title>Node18&#45;&gt;Node8</title>
<path fill="none" stroke="midnightblue" d="M815.035,-126.355C763.851,-115.229 650.167,-90.5146 595.508,-78.6322"/>
<polygon fill="midnightblue" stroke="midnightblue" points="596.223,-75.206 585.708,-76.5017 594.736,-82.0462 596.223,-75.206"/>
</g>
<!-- Node20&#45;&gt;Node2 -->
<g id="edge56" class="edge"><title>Node20&#45;&gt;Node2</title>
<path fill="none" stroke="midnightblue" d="M108.908,-240.78C116.548,-224.689 132.853,-195.314 156,-180 183.006,-162.133 269.321,-146.563 322.822,-138.298"/>
<polygon fill="midnightblue" stroke="midnightblue" points="323.372,-141.755 332.733,-136.793 322.321,-134.834 323.372,-141.755"/>
</g>
<!-- Node21&#45;&gt;Node2 -->
<g id="edge62" class="edge"><title>Node21&#45;&gt;Node2</title>
<path fill="none" stroke="midnightblue" d="M350.653,-240.944C363.725,-232.687 379.524,-220.07 387,-204 394.811,-187.211 387.694,-166.761 379.868,-151.952"/>
<polygon fill="midnightblue" stroke="midnightblue" points="382.805,-150.038 374.772,-143.129 376.743,-153.539 382.805,-150.038"/>
</g>
<!-- Node22 -->
<g id="node54" class="node"><title>Node22</title>
<a xlink:href="atomicoperations_8h.html" target="_top" xlink:title="Simple thread safe ways to check and change a specified variable atomically.">
<polygon fill="white" stroke="black" points="277.5,-181 277.5,-203 378.5,-203 378.5,-181 277.5,-181"/>
<text text-anchor="middle" x="328" y="-190" font-family="FreeSans" font-size="10.00">atomicoperations.h</text>
</a>
</g>
<!-- Node21&#45;&gt;Node22 -->
<g id="edge64" class="edge"><title>Node21&#45;&gt;Node22</title>
<path fill="none" stroke="midnightblue" d="M329.633,-240.995C329.377,-233.311 329.027,-222.803 328.716,-213.488"/>
<polygon fill="midnightblue" stroke="midnightblue" points="332.209,-213.221 328.378,-203.343 325.213,-213.454 332.209,-213.221"/>
</g>
<!-- Node22&#45;&gt;Node2 -->
<g id="edge66" class="edge"><title>Node22&#45;&gt;Node2</title>
<path fill="none" stroke="midnightblue" d="M335.153,-180.995C340.419,-172.894 347.726,-161.653 354.012,-151.981"/>
<polygon fill="midnightblue" stroke="midnightblue" points="357.112,-153.635 359.627,-143.343 351.243,-149.82 357.112,-153.635"/>
</g>
<!-- Node26&#45;&gt;Node2 -->
<g id="edge80" class="edge"><title>Node26&#45;&gt;Node2</title>
<path fill="none" stroke="midnightblue" d="M243.544,-240.921C246.214,-225.531 253.029,-197.595 269,-180 283.421,-164.112 304.264,-152.887 323.023,-145.309"/>
<polygon fill="midnightblue" stroke="midnightblue" points="324.492,-148.496 332.598,-141.673 322.007,-141.951 324.492,-148.496"/>
</g>
<!-- Node26&#45;&gt;Node15 -->
<g id="edge78" class="edge"><title>Node26&#45;&gt;Node15</title>
<path fill="none" stroke="midnightblue" d="M286.754,-241.524C289.538,-240.978 292.304,-240.465 295,-240 331.15,-233.767 575.676,-205.779 664.683,-195.663"/>
<polygon fill="midnightblue" stroke="midnightblue" points="665.201,-199.127 674.742,-194.521 664.411,-192.171 665.201,-199.127"/>
</g>
<!-- Node27&#45;&gt;Node2 -->
<g id="edge84" class="edge"><title>Node27&#45;&gt;Node2</title>
<path fill="none" stroke="midnightblue" d="M218.057,-300.822C207.721,-292.093 194.819,-278.961 189,-264 185.133,-254.059 184.877,-249.838 189,-240 211.859,-185.452 278.215,-156.513 323.125,-142.731"/>
<polygon fill="midnightblue" stroke="midnightblue" points="324.308,-146.032 332.919,-139.859 322.339,-139.314 324.308,-146.032"/>
</g>
</g>
</svg>
        <g id="navigator" transform="translate(0 0)" fill="#404254">
                <rect fill="#f2f5e9" fill-opacity="0.5" stroke="#606060" stroke-width=".5" x="0" y="0" width="60" height="60"/>
                <use id="zoomplus" xlink:href="#zoomPlus" x="17" y="9" onmousedown="handleZoom(evt,'in')"/>
                <use id="zoomminus" xlink:href="#zoomMin" x="42" y="9" onmousedown="handleZoom(evt,'out')"/>
                <use id="reset" xlink:href="#resetDef" x="30" y="36" onmousedown="handleReset()"/>
                <g id="arrowUp" xlink:href="#dirArrow" transform="translate(30 24)" onmousedown="handlePan(0,-1)">
                  <use xlink:href="#rim" fill="#404040">
                        <set attributeName="fill" to="#808080" begin="arrowUp.mouseover" end="arrowUp.mouseout"/>
                  </use>
                  <path fill="none" stroke="white" stroke-width="1.5" d="M0,-3.0v7 M-2.5,-0.5L0,-3.0L2.5,-0.5"/>
                </g>
                <g id="arrowRight" xlink:href="#dirArrow" transform="rotate(90) translate(36 -43)" onmousedown="handlePan(1,0)">
                  <use xlink:href="#rim" fill="#404040">
                        <set attributeName="fill" to="#808080" begin="arrowRight.mouseover" end="arrowRight.mouseout"/>
                  </use>
                  <path fill="none" stroke="white" stroke-width="1.5" d="M0,-3.0v7 M-2.5,-0.5L0,-3.0L2.5,-0.5"/>
                </g>
                <g id="arrowDown" xlink:href="#dirArrow" transform="rotate(180) translate(-30 -48)" onmousedown="handlePan(0,1)">
                  <use xlink:href="#rim" fill="#404040">
                        <set attributeName="fill" to="#808080" begin="arrowDown.mouseover" end="arrowDown.mouseout"/>
                  </use>
                  <path fill="none" stroke="white" stroke-width="1.5" d="M0,-3.0v7 M-2.5,-0.5L0,-3.0L2.5,-0.5"/>
                </g>
                <g id="arrowLeft" xlink:href="#dirArrow" transform="rotate(270) translate(-36 17)" onmousedown="handlePan(-1,0)">
                  <use xlink:href="#rim" fill="#404040">
                        <set attributeName="fill" to="#808080" begin="arrowLeft.mouseover" end="arrowLeft.mouseout"/>
                  </use>
                  <path fill="none" stroke="white" stroke-width="1.5" d="M0,-3.0v7 M-2.5,-0.5L0,-3.0L2.5,-0.5"/>
                </g>
        </g>
</svg>
