<?xml version="1.0" encoding="UTF-8" standalone="no"?>
<!DOCTYPE svg PUBLIC "-//W3C//DTD SVG 1.1//EN"
 "http://www.w3.org/Graphics/SVG/1.1/DTD/svg11.dtd">
<!-- Generated by graphviz version 2.26.3 (20100126.1600)
 -->
<!-- Title: G Pages: 1 -->
<!--zoomable 512 -->
<svg id="main" version="1.1" xmlns="http://www.w3.org/2000/svg" xmlns:xlink="http://www.w3.org/1999/xlink" xml:space="preserve" onload="init(evt)">
        <defs>
                <circle id="rim" cx="0" cy="0" r="7"/>
                <circle id="rim2" cx="0" cy="0" r="3.5"/>
                <g id="zoomPlus">
                        <use xlink:href="#rim" fill="#404040">
                                <set attributeName="fill" to="#808080" begin="zoomplus.mouseover" end="zoomplus.mouseout"/>
                        </use>
                        <path d="M-4,0h8M0,-4v8" fill="none" stroke="white" stroke-width="1.5" pointer-events="none"/>
                </g>
                <g id="zoomMin">
                        <use xlink:href="#rim" fill="#404040">
                                <set attributeName="fill" to="#808080" begin="zoomminus.mouseover" end="zoomminus.mouseout"/>
                        </use>
                        <path d="M-4,0h8" fill="none" stroke="white" stroke-width="1.5" pointer-events="none"/>
                </g>
                <g id="dirArrow">
                        <path fill="none" stroke="white" stroke-width="1.5" d="M0,-3.0v7 M-2.5,-0.5L0,-3.0L2.5,-0.5"/>
                </g>
               <g id="resetDef">
                       <use xlink:href="#rim2" fill="#404040">
                               <set attributeName="fill" to="#808080" begin="reset.mouseover" end="reset.mouseout"/>
                       </use>
               </g>
        </defs>

<script type="text/javascript">
var viewWidth = 913;
var viewHeight = 512;
var sectionId = 'dynsection-0';
</script>
<script xlink:href="svgpan.js"/>
<svg id="graph" class="graph">
<g id="viewport">
<title>G</title>
<polygon fill="white" stroke="white" points="-4,5 -4,-508 910,-508 910,5 -4,5"/>
<!-- Node1 -->
<g id="node1" class="node"><title>Node1</title>
<polygon fill="#bfbfbf" stroke="black" points="346,-481 346,-503 450,-503 450,-481 346,-481"/>
<text text-anchor="middle" x="398" y="-490" font-family="FreeSans" font-size="10.00">framescheduler.cpp</text>
</g>
<!-- Node2 -->
<g id="node3" class="node"><title>Node2</title>
<a xlink:href="framescheduler_8h.html" target="_top" xlink:title="This file has the Declarations for the main FrameScheduler class.">
<polygon fill="white" stroke="black" points="320,-301 320,-323 414,-323 414,-301 320,-301"/>
<text text-anchor="middle" x="367" y="-310" font-family="FreeSans" font-size="10.00">framescheduler.h</text>
</a>
</g>
<!-- Node1&#45;&gt;Node2 -->
<g id="edge2" class="edge"><title>Node1&#45;&gt;Node2</title>
<path fill="none" stroke="midnightblue" d="M394.809,-480.629C392.177,-470.95 388.484,-456.643 386,-444 378.38,-405.211 372.473,-359.448 369.383,-333.267"/>
<polygon fill="midnightblue" stroke="midnightblue" points="372.824,-332.549 368.2,-323.016 365.87,-333.351 372.824,-332.549"/>
</g>
<!-- Node16 -->
<g id="node35" class="node"><title>Node16</title>
<a xlink:href="doublebufferedresource_8h.html" target="_top" xlink:title="This file defines the template double buffered resources that can be attached to a thread...">
<polygon fill="white" stroke="black" points="46.5,-241 46.5,-263 177.5,-263 177.5,-241 46.5,-241"/>
<text text-anchor="middle" x="112" y="-250" font-family="FreeSans" font-size="10.00">doublebufferedresource.h</text>
</a>
</g>
<!-- Node1&#45;&gt;Node16 -->
<g id="edge60" class="edge"><title>Node1&#45;&gt;Node16</title>
<path fill="none" stroke="midnightblue" d="M384.589,-480.746C338.895,-442.402 189.036,-316.645 133.209,-269.798"/>
<polygon fill="midnightblue" stroke="midnightblue" points="135.292,-266.977 125.382,-263.229 130.792,-272.339 135.292,-266.977"/>
</g>
<!-- Node17 -->
<g id="node38" class="node"><title>Node17</title>
<polygon fill="white" stroke="#bfbfbf" points="0,-181 0,-203 58,-203 58,-181 0,-181"/>
<text text-anchor="middle" x="29" y="-190" font-family="FreeSans" font-size="10.00">algorithm</text>
</g>
<!-- Node1&#45;&gt;Node17 -->
<g id="edge92" class="edge"><title>Node1&#45;&gt;Node17</title>
<path fill="none" stroke="midnightblue" d="M345.7,-486.508C241.73,-474.135 19,-439.724 19,-372 19,-372 19,-372 19,-312 19,-277.349 23.1921,-237.264 26.1478,-213.307"/>
<polygon fill="midnightblue" stroke="midnightblue" points="29.6404,-213.587 27.4375,-203.224 22.6969,-212.699 29.6404,-213.587"/>
</g>
<!-- Node23 -->
<g id="node54" class="node"><title>Node23</title>
<a xlink:href="monopoly_8h.html" target="_top" xlink:title="Contains an interface for a kind of WorkUnit that consumes time on multiple thread.">
<polygon fill="white" stroke="black" points="395,-421 395,-443 463,-443 463,-421 395,-421"/>
<text text-anchor="middle" x="429" y="-430" font-family="FreeSans" font-size="10.00">monopoly.h</text>
</a>
</g>
<!-- Node1&#45;&gt;Node23 -->
<g id="edge62" class="edge"><title>Node1&#45;&gt;Node23</title>
<path fill="none" stroke="midnightblue" d="M403.686,-480.995C407.828,-472.977 413.56,-461.884 418.522,-452.281"/>
<polygon fill="midnightblue" stroke="midnightblue" points="421.659,-453.834 423.14,-443.343 415.44,-450.621 421.659,-453.834"/>
</g>
<!-- Node27 -->
<g id="node71" class="node"><title>Node27</title>
<polygon fill="white" stroke="#bfbfbf" points="481,-421 481,-443 541,-443 541,-421 481,-421"/>
<text text-anchor="middle" x="511" y="-430" font-family="FreeSans" font-size="10.00">exception</text>
</g>
<!-- Node1&#45;&gt;Node27 -->
<g id="edge88" class="edge"><title>Node1&#45;&gt;Node27</title>
<path fill="none" stroke="midnightblue" d="M418.726,-480.995C436.217,-471.708 461.479,-458.294 481.15,-447.849"/>
<polygon fill="midnightblue" stroke="midnightblue" points="482.832,-450.919 490.023,-443.138 479.549,-444.737 482.832,-450.919"/>
</g>
<!-- Node28 -->
<g id="node73" class="node"><title>Node28</title>
<polygon fill="white" stroke="#bfbfbf" points="559,-421 559,-443 615,-443 615,-421 559,-421"/>
<text text-anchor="middle" x="587" y="-430" font-family="FreeSans" font-size="10.00">iostream</text>
</g>
<!-- Node1&#45;&gt;Node28 -->
<g id="edge90" class="edge"><title>Node1&#45;&gt;Node28</title>
<path fill="none" stroke="midnightblue" d="M433.345,-480.924C462.12,-471.887 504.04,-458.68 549.072,-444.284"/>
<polygon fill="midnightblue" stroke="midnightblue" points="550.268,-447.576 558.726,-441.195 548.135,-440.909 550.268,-447.576"/>
</g>
<!-- Node3 -->
<g id="node5" class="node"><title>Node3</title>
<a xlink:href="datatypes_8h.html" target="_top" xlink:title="This file declares a few typedefs to allow flexibility, in case a change is required/desired.">
<polygon fill="white" stroke="black" points="583,-121 583,-143 651,-143 651,-121 583,-121"/>
<text text-anchor="middle" x="617" y="-130" font-family="FreeSans" font-size="10.00">datatypes.h</text>
</a>
</g>
<!-- Node2&#45;&gt;Node3 -->
<g id="edge4" class="edge"><title>Node2&#45;&gt;Node3</title>
<path fill="none" stroke="midnightblue" d="M373.564,-300.626C379.112,-290.943 387.215,-276.636 394,-264 413.84,-227.049 404.365,-206.344 437,-180 457.764,-163.238 526.552,-148.141 572.823,-139.527"/>
<polygon fill="midnightblue" stroke="midnightblue" points="573.696,-142.926 582.905,-137.686 572.439,-136.04 573.696,-142.926"/>
</g>
<!-- Node11 -->
<g id="node21" class="node"><title>Node11</title>
<a xlink:href="thread_8h.html" target="_top" xlink:title="This file defines a minimalistic cross&#45;platform thread that the scheduler uses to schedule tasks...">
<polygon fill="white" stroke="black" points="730.5,-241 730.5,-263 783.5,-263 783.5,-241 730.5,-241"/>
<text text-anchor="middle" x="757" y="-250" font-family="FreeSans" font-size="10.00">thread.h</text>
</a>
</g>
<!-- Node2&#45;&gt;Node11 -->
<g id="edge20" class="edge"><title>Node2&#45;&gt;Node11</title>
<path fill="none" stroke="midnightblue" d="M414.053,-308.589C480.6,-303.121 606.004,-290.45 720.43,-264.062"/>
<polygon fill="midnightblue" stroke="midnightblue" points="721.47,-267.413 730.405,-261.719 719.87,-260.598 721.47,-267.413"/>
</g>
<!-- Node12 -->
<g id="node24" class="node"><title>Node12</title>
<a xlink:href="systemcalls_8h.html" target="_top" xlink:title="This file defines a minimalistic cross&#45;platform thread that the scheduler uses to schedule tasks...">
<polygon fill="white" stroke="black" points="578.5,-181 578.5,-203 655.5,-203 655.5,-181 578.5,-181"/>
<text text-anchor="middle" x="617" y="-190" font-family="FreeSans" font-size="10.00">systemcalls.h</text>
</a>
</g>
<!-- Node2&#45;&gt;Node12 -->
<g id="edge52" class="edge"><title>Node2&#45;&gt;Node12</title>
<path fill="none" stroke="midnightblue" d="M356.484,-300.791C343.426,-285.5 324.638,-257.954 340,-240 371.86,-202.765 504.271,-213.111 568.308,-203.91"/>
<polygon fill="midnightblue" stroke="midnightblue" points="569.079,-207.329 578.339,-202.18 567.889,-200.431 569.079,-207.329"/>
</g>
<!-- Node2&#45;&gt;Node16 -->
<g id="edge38" class="edge"><title>Node2&#45;&gt;Node16</title>
<path fill="none" stroke="midnightblue" d="M320.229,-300.995C277.588,-290.962 214.481,-276.113 168.924,-265.394"/>
<polygon fill="midnightblue" stroke="midnightblue" points="169.441,-261.92 158.906,-263.037 167.838,-268.734 169.441,-261.92"/>
</g>
<!-- Node19 -->
<g id="node43" class="node"><title>Node19</title>
<a xlink:href="workunitkey_8h.html" target="_top" xlink:title="This file defines the metadata used to sort workunits.">
<polygon fill="white" stroke="black" points="478.5,-241 478.5,-263 555.5,-263 555.5,-241 478.5,-241"/>
<text text-anchor="middle" x="517" y="-250" font-family="FreeSans" font-size="10.00">workunitkey.h</text>
</a>
</g>
<!-- Node2&#45;&gt;Node19 -->
<g id="edge48" class="edge"><title>Node2&#45;&gt;Node19</title>
<path fill="none" stroke="midnightblue" d="M394.512,-300.995C418.542,-291.383 453.619,-277.352 480.084,-266.766"/>
<polygon fill="midnightblue" stroke="midnightblue" points="481.424,-270 489.409,-263.037 478.824,-263.501 481.424,-270"/>
</g>
<!-- Node20 -->
<g id="node47" class="node"><title>Node20</title>
<polygon fill="white" stroke="#bfbfbf" points="349,-241 349,-263 385,-263 385,-241 349,-241"/>
<text text-anchor="middle" x="367" y="-250" font-family="FreeSans" font-size="10.00">map</text>
</g>
<!-- Node2&#45;&gt;Node20 -->
<g id="edge54" class="edge"><title>Node2&#45;&gt;Node20</title>
<path fill="none" stroke="midnightblue" d="M367,-300.995C367,-293.311 367,-282.803 367,-273.488"/>
<polygon fill="midnightblue" stroke="midnightblue" points="370.5,-273.343 367,-263.343 363.5,-273.343 370.5,-273.343"/>
</g>
<!-- Node21 -->
<g id="node49" class="node"><title>Node21</title>
<polygon fill="white" stroke="#bfbfbf" points="195,-241 195,-263 225,-263 225,-241 195,-241"/>
<text text-anchor="middle" x="210" y="-250" font-family="FreeSans" font-size="10.00">set</text>
</g>
<!-- Node2&#45;&gt;Node21 -->
<g id="edge56" class="edge"><title>Node2&#45;&gt;Node21</title>
<path fill="none" stroke="midnightblue" d="M332.959,-300.944C307.845,-292.517 272.746,-280.174 234.392,-263.884"/>
<polygon fill="midnightblue" stroke="midnightblue" points="235.678,-260.627 225.109,-259.89 232.912,-267.057 235.678,-260.627"/>
</g>
<!-- Node22 -->
<g id="node51" class="node"><title>Node22</title>
<polygon fill="white" stroke="#bfbfbf" points="243,-241 243,-263 293,-263 293,-241 243,-241"/>
<text text-anchor="middle" x="268" y="-250" font-family="FreeSans" font-size="10.00">fstream</text>
</g>
<!-- Node2&#45;&gt;Node22 -->
<g id="edge58" class="edge"><title>Node2&#45;&gt;Node22</title>
<path fill="none" stroke="midnightblue" d="M348.842,-300.995C333.864,-291.918 312.383,-278.899 295.328,-268.563"/>
<polygon fill="midnightblue" stroke="midnightblue" points="296.744,-265.328 286.378,-263.138 293.116,-271.315 296.744,-265.328"/>
</g>
<!-- Node4 -->
<g id="node7" class="node"><title>Node4</title>
<a xlink:href="compilerthreadcompat_8h.html" target="_top" xlink:title="This file determines what features are offered by the compiler that this library can take advantage o...">
<polygon fill="white" stroke="black" points="715,-61 715,-83 839,-83 839,-61 715,-61"/>
<text text-anchor="middle" x="777" y="-70" font-family="FreeSans" font-size="10.00">compilerthreadcompat.h</text>
</a>
</g>
<!-- Node3&#45;&gt;Node4 -->
<g id="edge6" class="edge"><title>Node3&#45;&gt;Node4</title>
<path fill="none" stroke="midnightblue" d="M646.346,-120.995C672.09,-111.341 709.722,-97.2293 737.994,-86.6272"/>
<polygon fill="midnightblue" stroke="midnightblue" points="739.435,-89.825 747.569,-83.0366 736.977,-83.2707 739.435,-89.825"/>
</g>
<!-- Node9 -->
<g id="node17" class="node"><title>Node9</title>
<polygon fill="white" stroke="#bfbfbf" points="656.5,-61 656.5,-83 697.5,-83 697.5,-61 656.5,-61"/>
<text text-anchor="middle" x="677" y="-70" font-family="FreeSans" font-size="10.00">string</text>
</g>
<!-- Node3&#45;&gt;Node9 -->
<g id="edge16" class="edge"><title>Node3&#45;&gt;Node9</title>
<path fill="none" stroke="midnightblue" d="M628.005,-120.995C636.524,-112.476 648.515,-100.485 658.501,-90.4985"/>
<polygon fill="midnightblue" stroke="midnightblue" points="661.061,-92.8888 665.657,-83.3428 656.111,-87.9391 661.061,-92.8888"/>
</g>
<!-- Node10 -->
<g id="node19" class="node"><title>Node10</title>
<polygon fill="white" stroke="#bfbfbf" points="592.5,-61 592.5,-83 639.5,-83 639.5,-61 592.5,-61"/>
<text text-anchor="middle" x="616" y="-70" font-family="FreeSans" font-size="10.00">stdint.h</text>
</g>
<!-- Node3&#45;&gt;Node10 -->
<g id="edge18" class="edge"><title>Node3&#45;&gt;Node10</title>
<path fill="none" stroke="midnightblue" d="M616.817,-120.995C616.689,-113.311 616.513,-102.803 616.358,-93.4884"/>
<polygon fill="midnightblue" stroke="midnightblue" points="619.855,-93.2831 616.189,-83.3428 612.856,-93.3998 619.855,-93.2831"/>
</g>
<!-- Node5 -->
<g id="node9" class="node"><title>Node5</title>
<polygon fill="white" stroke="#bfbfbf" points="641,-1 641,-23 699,-23 699,-1 641,-1"/>
<text text-anchor="middle" x="670" y="-10" font-family="FreeSans" font-size="10.00">pthread.h</text>
</g>
<!-- Node4&#45;&gt;Node5 -->
<g id="edge8" class="edge"><title>Node4&#45;&gt;Node5</title>
<path fill="none" stroke="midnightblue" d="M757.375,-60.9951C740.962,-51.7917 717.324,-38.5366 698.772,-28.1336"/>
<polygon fill="midnightblue" stroke="midnightblue" points="700.298,-24.9766 689.863,-23.1383 696.874,-31.0822 700.298,-24.9766"/>
</g>
<!-- Node6 -->
<g id="node11" class="node"><title>Node6</title>
<polygon fill="white" stroke="#bfbfbf" points="716.5,-1 716.5,-23 767.5,-23 767.5,-1 716.5,-1"/>
<text text-anchor="middle" x="742" y="-10" font-family="FreeSans" font-size="10.00">signal.h</text>
</g>
<!-- Node4&#45;&gt;Node6 -->
<g id="edge10" class="edge"><title>Node4&#45;&gt;Node6</title>
<path fill="none" stroke="midnightblue" d="M770.58,-60.9951C765.855,-52.8936 759.297,-41.6525 753.656,-31.981"/>
<polygon fill="midnightblue" stroke="midnightblue" points="756.679,-30.2171 748.617,-23.3428 750.632,-33.7442 756.679,-30.2171"/>
</g>
<!-- Node7 -->
<g id="node13" class="node"><title>Node7</title>
<polygon fill="white" stroke="#bfbfbf" points="785,-1 785,-23 837,-23 837,-1 785,-1"/>
<text text-anchor="middle" x="811" y="-10" font-family="FreeSans" font-size="10.00">sched.h</text>
</g>
<!-- Node4&#45;&gt;Node7 -->
<g id="edge12" class="edge"><title>Node4&#45;&gt;Node7</title>
<path fill="none" stroke="midnightblue" d="M783.236,-60.9951C787.78,-52.9771 794.066,-41.884 799.508,-32.2806"/>
<polygon fill="midnightblue" stroke="midnightblue" points="802.687,-33.7686 804.572,-23.3428 796.597,-30.3175 802.687,-33.7686"/>
</g>
<!-- Node8 -->
<g id="node15" class="node"><title>Node8</title>
<polygon fill="white" stroke="#bfbfbf" points="855,-1 855,-23 905,-23 905,-1 855,-1"/>
<text text-anchor="middle" x="880" y="-10" font-family="FreeSans" font-size="10.00">unistd.h</text>
</g>
<!-- Node4&#45;&gt;Node8 -->
<g id="edge14" class="edge"><title>Node4&#45;&gt;Node8</title>
<path fill="none" stroke="midnightblue" d="M795.892,-60.9951C811.619,-51.8337 834.238,-38.6576 852.059,-28.2763"/>
<polygon fill="midnightblue" stroke="midnightblue" points="854,-31.1962 860.879,-23.1383 850.477,-25.1476 854,-31.1962"/>
</g>
<!-- Node11&#45;&gt;Node4 -->
<g id="edge22" class="edge"><title>Node11&#45;&gt;Node4</title>
<path fill="none" stroke="midnightblue" d="M765.135,-240.759C778.155,-221.903 802.929,-182.199 810,-144 811.941,-133.511 813.164,-130.187 810,-120 806.75,-109.535 800.339,-99.3293 794.025,-91.0384"/>
<polygon fill="midnightblue" stroke="midnightblue" points="796.642,-88.7098 787.617,-83.1609 791.212,-93.1271 796.642,-88.7098"/>
</g>
<!-- Node11&#45;&gt;Node12 -->
<g id="edge24" class="edge"><title>Node11&#45;&gt;Node12</title>
<path fill="none" stroke="midnightblue" d="M731.322,-240.995C709.161,-231.498 676.932,-217.685 652.338,-207.145"/>
<polygon fill="midnightblue" stroke="midnightblue" points="653.56,-203.861 642.989,-203.138 650.802,-210.295 653.56,-203.861"/>
</g>
<!-- Node13 -->
<g id="node27" class="node"><title>Node13</title>
<a xlink:href="mutex_8h.html" target="_top" xlink:title="This file declares and defines a mutex that is a partial implementation.">
<polygon fill="white" stroke="black" points="750.5,-121 750.5,-143 801.5,-143 801.5,-121 750.5,-121"/>
<text text-anchor="middle" x="776" y="-130" font-family="FreeSans" font-size="10.00">mutex.h</text>
</a>
</g>
<!-- Node11&#45;&gt;Node13 -->
<g id="edge28" class="edge"><title>Node11&#45;&gt;Node13</title>
<path fill="none" stroke="midnightblue" d="M761.385,-240.755C764.917,-231.151 769.666,-216.886 772,-204 775.028,-187.281 775.97,-168.053 776.186,-153.675"/>
<polygon fill="midnightblue" stroke="midnightblue" points="779.688,-153.34 776.23,-143.325 772.688,-153.31 779.688,-153.34"/>
</g>
<!-- Node14 -->
<g id="node31" class="node"><title>Node14</title>
<polygon fill="white" stroke="#bfbfbf" points="710.5,-181 710.5,-203 763.5,-203 763.5,-181 710.5,-181"/>
<text text-anchor="middle" x="737" y="-190" font-family="FreeSans" font-size="10.00">ostream</text>
</g>
<!-- Node11&#45;&gt;Node14 -->
<g id="edge34" class="edge"><title>Node11&#45;&gt;Node14</title>
<path fill="none" stroke="midnightblue" d="M753.332,-240.995C750.715,-233.144 747.115,-222.345 743.961,-212.883"/>
<polygon fill="midnightblue" stroke="midnightblue" points="747.264,-211.723 740.781,-203.343 740.623,-213.937 747.264,-211.723"/>
</g>
<!-- Node15 -->
<g id="node33" class="node"><title>Node15</title>
<polygon fill="white" stroke="#bfbfbf" points="517,-181 517,-203 561,-203 561,-181 517,-181"/>
<text text-anchor="middle" x="539" y="-190" font-family="FreeSans" font-size="10.00">vector</text>
</g>
<!-- Node11&#45;&gt;Node15 -->
<g id="edge36" class="edge"><title>Node11&#45;&gt;Node15</title>
<path fill="none" stroke="midnightblue" d="M730.333,-242.557C727.531,-241.655 724.715,-240.785 722,-240 658.303,-221.585 638.108,-224.279 571.011,-204.035"/>
<polygon fill="midnightblue" stroke="midnightblue" points="571.81,-200.618 561.222,-201.021 569.75,-207.309 571.81,-200.618"/>
</g>
<!-- Node12&#45;&gt;Node3 -->
<g id="edge26" class="edge"><title>Node12&#45;&gt;Node3</title>
<path fill="none" stroke="midnightblue" d="M617,-180.995C617,-173.311 617,-162.803 617,-153.488"/>
<polygon fill="midnightblue" stroke="midnightblue" points="620.5,-153.343 617,-143.343 613.5,-153.343 620.5,-153.343"/>
</g>
<!-- Node13&#45;&gt;Node4 -->
<g id="edge30" class="edge"><title>Node13&#45;&gt;Node4</title>
<path fill="none" stroke="midnightblue" d="M776.183,-120.995C776.311,-113.311 776.487,-102.803 776.642,-93.4884"/>
<polygon fill="midnightblue" stroke="midnightblue" points="780.144,-93.3998 776.811,-83.3428 773.145,-93.2831 780.144,-93.3998"/>
</g>
<!-- Node13&#45;&gt;Node9 -->
<g id="edge32" class="edge"><title>Node13&#45;&gt;Node9</title>
<path fill="none" stroke="midnightblue" d="M757.842,-120.995C742.864,-111.918 721.383,-98.899 704.328,-88.5627"/>
<polygon fill="midnightblue" stroke="midnightblue" points="705.744,-85.3282 695.378,-83.1383 702.116,-91.3146 705.744,-85.3282"/>
</g>
<!-- Node16&#45;&gt;Node3 -->
<g id="edge40" class="edge"><title>Node16&#45;&gt;Node3</title>
<path fill="none" stroke="midnightblue" d="M154.695,-240.877C210.676,-226.387 311.995,-200.487 399,-180 459.193,-165.826 529.046,-150.672 573.13,-141.268"/>
<polygon fill="midnightblue" stroke="midnightblue" points="573.894,-144.683 582.946,-139.178 572.436,-137.837 573.894,-144.683"/>
</g>
<!-- Node16&#45;&gt;Node15 -->
<g id="edge46" class="edge"><title>Node16&#45;&gt;Node15</title>
<path fill="none" stroke="midnightblue" d="M177.754,-241.248C180.539,-240.82 183.297,-240.403 186,-240 303.968,-222.417 444.518,-204.087 506.687,-196.112"/>
<polygon fill="midnightblue" stroke="midnightblue" points="507.195,-199.576 516.67,-194.835 506.306,-192.633 507.195,-199.576"/>
</g>
<!-- Node16&#45;&gt;Node17 -->
<g id="edge42" class="edge"><title>Node16&#45;&gt;Node17</title>
<path fill="none" stroke="midnightblue" d="M96.7765,-240.995C84.4521,-232.086 66.8755,-219.38 52.7099,-209.14"/>
<polygon fill="midnightblue" stroke="midnightblue" points="54.5628,-206.16 44.408,-203.138 50.4618,-211.833 54.5628,-206.16"/>
</g>
<!-- Node18 -->
<g id="node40" class="node"><title>Node18</title>
<polygon fill="white" stroke="#bfbfbf" points="85.5,-181 85.5,-203 138.5,-203 138.5,-181 85.5,-181"/>
<text text-anchor="middle" x="112" y="-190" font-family="FreeSans" font-size="10.00">sstream</text>
</g>
<!-- Node16&#45;&gt;Node18 -->
<g id="edge44" class="edge"><title>Node16&#45;&gt;Node18</title>
<path fill="none" stroke="midnightblue" d="M112,-240.995C112,-233.311 112,-222.803 112,-213.488"/>
<polygon fill="midnightblue" stroke="midnightblue" points="115.5,-213.343 112,-203.343 108.5,-213.343 115.5,-213.343"/>
</g>
<!-- Node19&#45;&gt;Node3 -->
<g id="edge50" class="edge"><title>Node19&#45;&gt;Node3</title>
<path fill="none" stroke="midnightblue" d="M511.478,-240.997C504.784,-225.945 495.818,-198.675 508,-180 522.382,-157.951 549.418,-145.962 572.964,-139.479"/>
<polygon fill="midnightblue" stroke="midnightblue" points="573.94,-142.843 582.794,-137.024 572.244,-136.051 573.94,-142.843"/>
</g>
<!-- Node23&#45;&gt;Node3 -->
<g id="edge64" class="edge"><title>Node23&#45;&gt;Node3</title>
<path fill="none" stroke="midnightblue" d="M463.263,-422.421C466.218,-421.6 469.161,-420.784 472,-420 647.429,-371.539 867,-493.999 867,-312 867,-312 867,-312 867,-252 867,-199.022 819.127,-204.202 772,-180 736.612,-161.827 693.101,-149.097 661.196,-141.336"/>
<polygon fill="midnightblue" stroke="midnightblue" points="661.808,-137.884 651.271,-138.989 660.197,-144.696 661.808,-137.884"/>
</g>
<!-- Node24 -->
<g id="node57" class="node"><title>Node24</title>
<a xlink:href="workunit_8h.html" target="_top" xlink:title="This file has the defintion of the workunit.">
<polygon fill="white" stroke="black" points="524.5,-361 524.5,-383 585.5,-383 585.5,-361 524.5,-361"/>
<text text-anchor="middle" x="555" y="-370" font-family="FreeSans" font-size="10.00">workunit.h</text>
</a>
</g>
<!-- Node23&#45;&gt;Node24 -->
<g id="edge66" class="edge"><title>Node23&#45;&gt;Node24</title>
<path fill="none" stroke="midnightblue" d="M452.11,-420.995C471.79,-411.624 500.293,-398.051 522.31,-387.566"/>
<polygon fill="midnightblue" stroke="midnightblue" points="524.086,-390.598 531.609,-383.138 521.076,-384.278 524.086,-390.598"/>
</g>
<!-- Node24&#45;&gt;Node2 -->
<g id="edge70" class="edge"><title>Node24&#45;&gt;Node2</title>
<path fill="none" stroke="midnightblue" d="M524.376,-362.226C493.788,-352.464 446.442,-337.354 411.666,-326.255"/>
<polygon fill="midnightblue" stroke="midnightblue" points="412.355,-322.801 401.764,-323.095 410.226,-329.47 412.355,-322.801"/>
</g>
<!-- Node24&#45;&gt;Node3 -->
<g id="edge68" class="edge"><title>Node24&#45;&gt;Node3</title>
<path fill="none" stroke="midnightblue" d="M539.66,-360.969C512.321,-339.834 459.018,-291.168 470,-240 476.137,-211.409 475.889,-200.235 497,-180 517.857,-160.008 548.091,-147.984 572.992,-140.97"/>
<polygon fill="midnightblue" stroke="midnightblue" points="574.164,-144.28 582.942,-138.348 572.381,-137.511 574.164,-144.28"/>
</g>
<!-- Node24&#45;&gt;Node11 -->
<g id="edge82" class="edge"><title>Node24&#45;&gt;Node11</title>
<path fill="none" stroke="midnightblue" d="M585.54,-367.413C630.831,-360.03 712.756,-344.264 734,-324 747.81,-310.827 753.352,-289.383 755.563,-273.318"/>
<polygon fill="midnightblue" stroke="midnightblue" points="759.059,-273.533 756.622,-263.223 752.098,-272.803 759.059,-273.533"/>
</g>
<!-- Node24&#45;&gt;Node13 -->
<g id="edge72" class="edge"><title>Node24&#45;&gt;Node13</title>
<path fill="none" stroke="midnightblue" d="M585.651,-367.566C634.713,-359.992 728.106,-343.481 755,-324 808.096,-285.541 797.07,-244.783 787,-180 785.63,-171.189 783.551,-161.59 781.567,-153.308"/>
<polygon fill="midnightblue" stroke="midnightblue" points="784.901,-152.21 779.083,-143.356 778.109,-153.906 784.901,-152.21"/>
</g>
<!-- Node24&#45;&gt;Node15 -->
<g id="edge86" class="edge"><title>Node24&#45;&gt;Node15</title>
<path fill="none" stroke="midnightblue" d="M558.016,-360.852C563.743,-337.874 574.705,-283.73 564,-240 561.598,-230.186 556.802,-220.148 552.049,-211.805"/>
<polygon fill="midnightblue" stroke="midnightblue" points="555.011,-209.94 546.829,-203.209 549.027,-213.573 555.011,-209.94"/>
</g>
<!-- Node24&#45;&gt;Node19 -->
<g id="edge84" class="edge"><title>Node24&#45;&gt;Node19</title>
<path fill="none" stroke="midnightblue" d="M551.493,-360.926C545.159,-340.923 531.716,-298.472 523.61,-272.872"/>
<polygon fill="midnightblue" stroke="midnightblue" points="526.854,-271.524 520.498,-263.047 520.181,-273.638 526.854,-271.524"/>
</g>
<!-- Node25 -->
<g id="node62" class="node"><title>Node25</title>
<a xlink:href="rollingaverage_8h.html" target="_top" xlink:title="This Store the implementation and the declaration of the RollingAverage, BufferedRollingAverage, WeightedRollingAverage and the DefaultRollingAverage.">
<polygon fill="white" stroke="black" points="624.5,-241 624.5,-263 713.5,-263 713.5,-241 624.5,-241"/>
<text text-anchor="middle" x="669" y="-250" font-family="FreeSans" font-size="10.00">rollingaverage.h</text>
</a>
</g>
<!-- Node24&#45;&gt;Node25 -->
<g id="edge74" class="edge"><title>Node24&#45;&gt;Node25</title>
<path fill="none" stroke="midnightblue" d="M585.719,-367.383C628.385,-360.27 702.142,-345.202 718,-324 731.587,-305.835 712.421,-284.234 694.224,-269.462"/>
<polygon fill="midnightblue" stroke="midnightblue" points="696.118,-266.503 686.053,-263.192 691.856,-272.056 696.118,-266.503"/>
</g>
<!-- Node26 -->
<g id="node66" class="node"><title>Node26</title>
<a xlink:href="threadingenumerations_8h.html" target="_top" xlink:title="Any enumerations the threading library requires are all declared here.">
<polygon fill="white" stroke="black" points="582.5,-301 582.5,-323 709.5,-323 709.5,-301 582.5,-301"/>
<text text-anchor="middle" x="646" y="-310" font-family="FreeSans" font-size="10.00">threadingenumerations.h</text>
</a>
</g>
<!-- Node24&#45;&gt;Node26 -->
<g id="edge80" class="edge"><title>Node24&#45;&gt;Node26</title>
<path fill="none" stroke="midnightblue" d="M571.691,-360.995C585.331,-352.002 604.838,-339.14 620.443,-328.851"/>
<polygon fill="midnightblue" stroke="midnightblue" points="622.685,-331.565 629.107,-323.138 618.832,-325.721 622.685,-331.565"/>
</g>
<!-- Node25&#45;&gt;Node3 -->
<g id="edge78" class="edge"><title>Node25&#45;&gt;Node3</title>
<path fill="none" stroke="midnightblue" d="M670.513,-240.945C672.021,-226.304 672.983,-200.003 664,-180 658.752,-168.315 649.357,-157.822 640.338,-149.648"/>
<polygon fill="midnightblue" stroke="midnightblue" points="642.51,-146.9 632.624,-143.09 637.976,-152.234 642.51,-146.9"/>
</g>
<!-- Node25&#45;&gt;Node15 -->
<g id="edge76" class="edge"><title>Node25&#45;&gt;Node15</title>
<path fill="none" stroke="midnightblue" d="M645.156,-240.995C624.247,-231.345 593.686,-217.24 570.718,-206.639"/>
<polygon fill="midnightblue" stroke="midnightblue" points="571.936,-203.346 561.389,-202.334 569.002,-209.702 571.936,-203.346"/>
</g>
</g>
</svg>
        <g id="navigator" transform="translate(0 0)" fill="#404254">
                <rect fill="#f2f5e9" fill-opacity="0.5" stroke="#606060" stroke-width=".5" x="0" y="0" width="60" height="60"/>
                <use id="zoomplus" xlink:href="#zoomPlus" x="17" y="9" onmousedown="handleZoom(evt,'in')"/>
                <use id="zoomminus" xlink:href="#zoomMin" x="42" y="9" onmousedown="handleZoom(evt,'out')"/>
                <use id="reset" xlink:href="#resetDef" x="30" y="36" onmousedown="handleReset()"/>
                <g id="arrowUp" xlink:href="#dirArrow" transform="translate(30 24)" onmousedown="handlePan(0,-1)">
                  <use xlink:href="#rim" fill="#404040">
                        <set attributeName="fill" to="#808080" begin="arrowUp.mouseover" end="arrowUp.mouseout"/>
                  </use>
                  <path fill="none" stroke="white" stroke-width="1.5" d="M0,-3.0v7 M-2.5,-0.5L0,-3.0L2.5,-0.5"/>
                </g>
                <g id="arrowRight" xlink:href="#dirArrow" transform="rotate(90) translate(36 -43)" onmousedown="handlePan(1,0)">
                  <use xlink:href="#rim" fill="#404040">
                        <set attributeName="fill" to="#808080" begin="arrowRight.mouseover" end="arrowRight.mouseout"/>
                  </use>
                  <path fill="none" stroke="white" stroke-width="1.5" d="M0,-3.0v7 M-2.5,-0.5L0,-3.0L2.5,-0.5"/>
                </g>
                <g id="arrowDown" xlink:href="#dirArrow" transform="rotate(180) translate(-30 -48)" onmousedown="handlePan(0,1)">
                  <use xlink:href="#rim" fill="#404040">
                        <set attributeName="fill" to="#808080" begin="arrowDown.mouseover" end="arrowDown.mouseout"/>
                  </use>
                  <path fill="none" stroke="white" stroke-width="1.5" d="M0,-3.0v7 M-2.5,-0.5L0,-3.0L2.5,-0.5"/>
                </g>
                <g id="arrowLeft" xlink:href="#dirArrow" transform="rotate(270) translate(-36 17)" onmousedown="handlePan(-1,0)">
                  <use xlink:href="#rim" fill="#404040">
                        <set attributeName="fill" to="#808080" begin="arrowLeft.mouseover" end="arrowLeft.mouseout"/>
                  </use>
                  <path fill="none" stroke="white" stroke-width="1.5" d="M0,-3.0v7 M-2.5,-0.5L0,-3.0L2.5,-0.5"/>
                </g>
        </g>
</svg>
