<?xml version="1.0" encoding="UTF-8" standalone="no"?>
<!DOCTYPE svg PUBLIC "-//W3C//DTD SVG 1.1//EN"
 "http://www.w3.org/Graphics/SVG/1.1/DTD/svg11.dtd">
<!-- Generated by graphviz version 2.26.3 (20100126.1600)
 -->
<!-- Title: framescheduler.h Pages: 1 -->
<!--zoomable 320 -->
<svg id="main" version="1.1" xmlns="http://www.w3.org/2000/svg" xmlns:xlink="http://www.w3.org/1999/xlink" xml:space="preserve" onload="init(evt)">
<style type="text/css"><![CDATA[
.edge:hover path { stroke: red; }
.edge:hover polygon { stroke: red; fill: red; }
]]></style>
<script type="text/javascript"><![CDATA[
var edges = document.getElementsByTagName('g');
if (edges && edges.length) {
  for (var i=0;i<edges.length;i++) {
    if (edges[i].id.substr(0,4)=='edge') {
      edges[i].setAttribute('class','edge');
    }
  }
}
]]></script>
        <defs>
                <circle id="rim" cx="0" cy="0" r="7"/>
                <circle id="rim2" cx="0" cy="0" r="3.5"/>
                <g id="zoomPlus">
                        <use xlink:href="#rim" fill="#404040">
                                <set attributeName="fill" to="#808080" begin="zoomplus.mouseover" end="zoomplus.mouseout"/>
                        </use>
                        <path d="M-4,0h8M0,-4v8" fill="none" stroke="white" stroke-width="1.5" pointer-events="none"/>
                </g>
                <g id="zoomMin">
                        <use xlink:href="#rim" fill="#404040">
                                <set attributeName="fill" to="#808080" begin="zoomminus.mouseover" end="zoomminus.mouseout"/>
                        </use>
                        <path d="M-4,0h8" fill="none" stroke="white" stroke-width="1.5" pointer-events="none"/>
                </g>
                <g id="dirArrow">
                        <path fill="none" stroke="white" stroke-width="1.5" d="M0,-3.0v7 M-2.5,-0.5L0,-3.0L2.5,-0.5"/>
                </g>
               <g id="resetDef">
                       <use xlink:href="#rim2" fill="#404040">
                               <set attributeName="fill" to="#808080" begin="reset.mouseover" end="reset.mouseout"/>
                       </use>
               </g>
        </defs>

<script type="text/javascript">
var viewWidth = 672;
var viewHeight = 320;
var sectionId = 'dynsection-0';
</script>
<script xlink:href="svgpan.js"/>
<svg id="graph" class="graph">
<g id="viewport">
<title>framescheduler.h</title>
<polygon fill="white" stroke="white" points="-4,5 -4,-316 669,-316 669,5 -4,5"/>
<!-- Node1 -->
<g id="node1" class="node"><title>Node1</title>
<polygon fill="#bfbfbf" stroke="black" points="300,-291 300,-311 390,-311 390,-291 300,-291"/>
<text text-anchor="middle" x="345" y="-298" font-family="FreeSans" font-size="10.00">framescheduler.h</text>
</g>
<!-- Node2 -->
<g id="node3" class="node"><title>Node2</title>
<a xlink:href="datatypes_8h.html" target="_top" xlink:title="This file declares a few typedefs to allow flexibility, in case a change is required/desired. ">
<polygon fill="white" stroke="black" points="320.5,-59 320.5,-79 385.5,-79 385.5,-59 320.5,-59"/>
<text text-anchor="middle" x="353" y="-66" font-family="FreeSans" font-size="10.00">datatypes.h</text>
</a>
</g>
<!-- Node1&#45;&gt;Node2 -->
<g id="edge2" class="edge"><title>Node1&#45;&gt;Node2</title>
<path fill="none" stroke="midnightblue" d="M303.007,-290.933C211.155,-267.03 6.21242,-202.336 79,-116 93.733,-98.5246 236.694,-81.1765 310.045,-73.3361"/>
<polygon fill="midnightblue" stroke="midnightblue" points="310.761,-76.78 320.339,-72.2495 310.026,-69.8187 310.761,-76.78"/>
</g>
<!-- Node13 -->
<g id="node25" class="node"><title>Node13</title>
<a xlink:href="doublebufferedresource_8h.html" target="_top" xlink:title="This file defines the template double buffered resources that can be attached to a thread...">
<polygon fill="white" stroke="black" points="87.5,-117 87.5,-137 210.5,-137 210.5,-117 87.5,-117"/>
<text text-anchor="middle" x="149" y="-124" font-family="FreeSans" font-size="10.00">doublebufferedresource.h</text>
</a>
</g>
<!-- Node1&#45;&gt;Node13 -->
<g id="edge24" class="edge"><title>Node1&#45;&gt;Node13</title>
<path fill="none" stroke="midnightblue" d="M322.777,-290.992C289.688,-275.11 227.268,-241.239 189,-196 176.067,-180.711 164.98,-160.675 157.782,-146.135"/>
<polygon fill="midnightblue" stroke="midnightblue" points="160.918,-144.582 153.444,-137.073 154.604,-147.604 160.918,-144.582"/>
</g>
<!-- Node14 -->
<g id="node28" class="node"><title>Node14</title>
<a xlink:href="thread_8h.html" target="_top" xlink:title="This file defines a minimalistic cross&#45;platform thread that the scheduler uses to schedule tasks...">
<polygon fill="white" stroke="black" points="289.5,-233 289.5,-253 340.5,-253 340.5,-233 289.5,-233"/>
<text text-anchor="middle" x="315" y="-240" font-family="FreeSans" font-size="10.00">thread.h</text>
</a>
</g>
<!-- Node1&#45;&gt;Node14 -->
<g id="edge28" class="edge"><title>Node1&#45;&gt;Node14</title>
<path fill="none" stroke="midnightblue" d="M339.774,-290.897C335.738,-283.093 330.028,-272.054 325.107,-262.54"/>
<polygon fill="midnightblue" stroke="midnightblue" points="328.071,-260.652 320.368,-253.378 321.853,-263.868 328.071,-260.652"/>
</g>
<!-- Node15 -->
<g id="node30" class="node"><title>Node15</title>
<a xlink:href="systemcalls_8h.html" target="_top" xlink:title="This file defines a minimalistic cross&#45;platform thread that the scheduler uses to schedule tasks...">
<polygon fill="white" stroke="black" points="198,-175 198,-195 272,-195 272,-175 198,-175"/>
<text text-anchor="middle" x="235" y="-182" font-family="FreeSans" font-size="10.00">systemcalls.h</text>
</a>
</g>
<!-- Node1&#45;&gt;Node15 -->
<g id="edge48" class="edge"><title>Node1&#45;&gt;Node15</title>
<path fill="none" stroke="midnightblue" d="M327.965,-290.839C314.284,-282.155 295.095,-268.751 281,-254 266.615,-238.946 253.802,-218.879 245.376,-204.268"/>
<polygon fill="midnightblue" stroke="midnightblue" points="248.214,-202.173 240.278,-195.153 242.105,-205.589 248.214,-202.173"/>
</g>
<!-- Node18 -->
<g id="node38" class="node"><title>Node18</title>
<a xlink:href="workunitkey_8h.html" target="_top" xlink:title="This file defines the metadata used to sort workunits. ">
<polygon fill="white" stroke="black" points="419.5,-117 419.5,-137 494.5,-137 494.5,-117 419.5,-117"/>
<text text-anchor="middle" x="457" y="-124" font-family="FreeSans" font-size="10.00">workunitkey.h</text>
</a>
</g>
<!-- Node1&#45;&gt;Node18 -->
<g id="edge40" class="edge"><title>Node1&#45;&gt;Node18</title>
<path fill="none" stroke="midnightblue" d="M352.14,-290.956C358.864,-281.467 369.191,-266.819 378,-254 395.593,-228.398 400.535,-222.341 417,-196 427.276,-179.56 438.277,-160.463 446.136,-146.533"/>
<polygon fill="midnightblue" stroke="midnightblue" points="449.411,-147.849 451.248,-137.415 443.305,-144.426 449.411,-147.849"/>
</g>
<!-- Node19 -->
<g id="node41" class="node"><title>Node19</title>
<a xlink:href="spinlock_8h.html" target="_top" xlink:title="Declares a Mutex, Mutex tools, and at least one MutexLike object. ">
<polygon fill="white" stroke="black" points="463.5,-233 463.5,-253 522.5,-253 522.5,-233 463.5,-233"/>
<text text-anchor="middle" x="493" y="-240" font-family="FreeSans" font-size="10.00">spinlock.h</text>
</a>
</g>
<!-- Node1&#45;&gt;Node19 -->
<g id="edge44" class="edge"><title>Node1&#45;&gt;Node19</title>
<path fill="none" stroke="midnightblue" d="M370.78,-290.897C394.825,-281.474 430.903,-267.335 457.634,-256.86"/>
<polygon fill="midnightblue" stroke="midnightblue" points="458.986,-260.089 467.019,-253.182 456.432,-253.572 458.986,-260.089"/>
</g>
<!-- Node20 -->
<g id="node45" class="node"><title>Node20</title>
<a xlink:href="rollingaverage_8h.html" target="_top" xlink:title="This stores the implementation and the declaration of the RollingAverage, BufferedRollingAverage, WeightedRollingAverage and the DefaultRollingAverage. ">
<polygon fill="white" stroke="black" points="539.5,-233 539.5,-253 622.5,-253 622.5,-233 539.5,-233"/>
<text text-anchor="middle" x="581" y="-240" font-family="FreeSans" font-size="10.00">rollingaverage.h</text>
</a>
</g>
<!-- Node1&#45;&gt;Node20 -->
<g id="edge50" class="edge"><title>Node1&#45;&gt;Node20</title>
<path fill="none" stroke="midnightblue" d="M385.839,-290.963C425.983,-281.097 487.346,-266.017 530.526,-255.405"/>
<polygon fill="midnightblue" stroke="midnightblue" points="531.391,-258.796 540.266,-253.011 529.72,-251.999 531.391,-258.796"/>
</g>
<!-- Node21 -->
<g id="node48" class="node"><title>Node21</title>
<a xlink:href="barrier_8h.html" target="_top" xlink:title="The declaration of the Mezzanine::Threading::Barrier Barrier synchronization primitive. ">
<polygon fill="white" stroke="black" points="357.5,-175 357.5,-195 408.5,-195 408.5,-175 357.5,-175"/>
<text text-anchor="middle" x="383" y="-182" font-family="FreeSans" font-size="10.00">barrier.h</text>
</a>
</g>
<!-- Node1&#45;&gt;Node21 -->
<g id="edge54" class="edge"><title>Node1&#45;&gt;Node21</title>
<path fill="none" stroke="midnightblue" d="M348.372,-290.706C354.67,-271.482 368.316,-229.825 376.471,-204.929"/>
<polygon fill="midnightblue" stroke="midnightblue" points="379.903,-205.698 379.69,-195.106 373.25,-203.519 379.903,-205.698"/>
</g>
<!-- Node3 -->
<g id="node5" class="node"><title>Node3</title>
<a xlink:href="crossplatformexport_8h.html" target="_top" xlink:title="This file determines what features are offered by the compiler that this library can take advantage o...">
<polygon fill="white" stroke="black" points="0,-1 0,-21 108,-21 108,-1 0,-1"/>
<text text-anchor="middle" x="54" y="-8" font-family="FreeSans" font-size="10.00">crossplatformexport.h</text>
</a>
</g>
<!-- Node2&#45;&gt;Node3 -->
<g id="edge4" class="edge"><title>Node2&#45;&gt;Node3</title>
<path fill="none" stroke="midnightblue" d="M320.433,-62.6826C271.47,-53.1849 178.02,-35.0574 115.844,-22.9965"/>
<polygon fill="midnightblue" stroke="midnightblue" points="116.247,-19.5096 105.764,-21.0411 114.914,-26.3815 116.247,-19.5096"/>
</g>
<!-- Node4 -->
<g id="node7" class="node"><title>Node4</title>
<polygon fill="white" stroke="#bfbfbf" points="125.5,-1 125.5,-21 168.5,-21 168.5,-1 125.5,-1"/>
<text text-anchor="middle" x="147" y="-8" font-family="FreeSans" font-size="10.00">vector</text>
</g>
<!-- Node2&#45;&gt;Node4 -->
<g id="edge6" class="edge"><title>Node2&#45;&gt;Node4</title>
<path fill="none" stroke="midnightblue" d="M320.307,-61.2103C286.788,-53.0181 232.988,-39.3017 178.389,-22.2696"/>
<polygon fill="midnightblue" stroke="midnightblue" points="179.139,-18.8364 168.55,-19.1663 177.034,-25.5122 179.139,-18.8364"/>
</g>
<!-- Node5 -->
<g id="node9" class="node"><title>Node5</title>
<polygon fill="white" stroke="#bfbfbf" points="186,-1 186,-21 226,-21 226,-1 186,-1"/>
<text text-anchor="middle" x="206" y="-8" font-family="FreeSans" font-size="10.00">string</text>
</g>
<!-- Node2&#45;&gt;Node5 -->
<g id="edge8" class="edge"><title>Node2&#45;&gt;Node5</title>
<path fill="none" stroke="midnightblue" d="M327.395,-58.8972C301.865,-48.8245 262.682,-33.3644 235.778,-22.7491"/>
<polygon fill="midnightblue" stroke="midnightblue" points="236.709,-19.3538 226.122,-18.9393 234.139,-25.8653 236.709,-19.3538"/>
</g>
<!-- Node6 -->
<g id="node11" class="node"><title>Node6</title>
<polygon fill="white" stroke="#bfbfbf" points="243.5,-1 243.5,-21 294.5,-21 294.5,-1 243.5,-1"/>
<text text-anchor="middle" x="269" y="-8" font-family="FreeSans" font-size="10.00">ostream</text>
</g>
<!-- Node2&#45;&gt;Node6 -->
<g id="edge10" class="edge"><title>Node2&#45;&gt;Node6</title>
<path fill="none" stroke="midnightblue" d="M338.368,-58.8972C325.678,-50.1351 307.085,-37.2965 292.341,-27.1164"/>
<polygon fill="midnightblue" stroke="midnightblue" points="293.964,-23.9835 283.746,-21.1817 289.986,-29.7438 293.964,-23.9835"/>
</g>
<!-- Node7 -->
<g id="node13" class="node"><title>Node7</title>
<polygon fill="white" stroke="#bfbfbf" points="311.5,-1 311.5,-21 346.5,-21 346.5,-1 311.5,-1"/>
<text text-anchor="middle" x="329" y="-8" font-family="FreeSans" font-size="10.00">map</text>
</g>
<!-- Node2&#45;&gt;Node7 -->
<g id="edge12" class="edge"><title>Node2&#45;&gt;Node7</title>
<path fill="none" stroke="midnightblue" d="M348.82,-58.8972C345.624,-51.1747 341.118,-40.2857 337.21,-30.841"/>
<polygon fill="midnightblue" stroke="midnightblue" points="340.352,-29.2795 333.294,-21.3776 333.884,-31.956 340.352,-29.2795"/>
</g>
<!-- Node8 -->
<g id="node15" class="node"><title>Node8</title>
<polygon fill="white" stroke="#bfbfbf" points="363.5,-1 363.5,-21 392.5,-21 392.5,-1 363.5,-1"/>
<text text-anchor="middle" x="378" y="-8" font-family="FreeSans" font-size="10.00">set</text>
</g>
<!-- Node2&#45;&gt;Node8 -->
<g id="edge14" class="edge"><title>Node2&#45;&gt;Node8</title>
<path fill="none" stroke="midnightblue" d="M357.355,-58.8972C360.683,-51.1747 365.377,-40.2857 369.448,-30.841"/>
<polygon fill="midnightblue" stroke="midnightblue" points="372.783,-31.9463 373.527,-21.3776 366.354,-29.1754 372.783,-31.9463"/>
</g>
<!-- Node9 -->
<g id="node17" class="node"><title>Node9</title>
<polygon fill="white" stroke="#bfbfbf" points="410,-1 410,-21 460,-21 460,-1 410,-1"/>
<text text-anchor="middle" x="435" y="-8" font-family="FreeSans" font-size="10.00">sstream</text>
</g>
<!-- Node2&#45;&gt;Node9 -->
<g id="edge16" class="edge"><title>Node2&#45;&gt;Node9</title>
<path fill="none" stroke="midnightblue" d="M367.283,-58.8972C379.671,-50.1351 397.822,-37.2965 412.215,-27.1164"/>
<polygon fill="midnightblue" stroke="midnightblue" points="414.462,-29.8138 420.605,-21.1817 410.42,-24.0989 414.462,-29.8138"/>
</g>
<!-- Node10 -->
<g id="node19" class="node"><title>Node10</title>
<polygon fill="white" stroke="#bfbfbf" points="477.5,-1 477.5,-21 526.5,-21 526.5,-1 477.5,-1"/>
<text text-anchor="middle" x="502" y="-8" font-family="FreeSans" font-size="10.00">fstream</text>
</g>
<!-- Node2&#45;&gt;Node10 -->
<g id="edge18" class="edge"><title>Node2&#45;&gt;Node10</title>
<path fill="none" stroke="midnightblue" d="M378.954,-58.8972C403.608,-49.3004 440.824,-34.8134 467.871,-24.2852"/>
<polygon fill="midnightblue" stroke="midnightblue" points="469.284,-27.4911 477.333,-20.6019 466.744,-20.9679 469.284,-27.4911"/>
</g>
<!-- Node11 -->
<g id="node21" class="node"><title>Node11</title>
<polygon fill="white" stroke="#bfbfbf" points="544,-1 544,-21 600,-21 600,-1 544,-1"/>
<text text-anchor="middle" x="572" y="-8" font-family="FreeSans" font-size="10.00">algorithm</text>
</g>
<!-- Node2&#45;&gt;Node11 -->
<g id="edge20" class="edge"><title>Node2&#45;&gt;Node11</title>
<path fill="none" stroke="midnightblue" d="M385.643,-60.9493C420.145,-52.357 476.381,-38.1166 533.779,-22.2779"/>
<polygon fill="midnightblue" stroke="midnightblue" points="535.047,-25.5584 543.749,-19.5138 533.177,-18.8129 535.047,-25.5584"/>
</g>
<!-- Node12 -->
<g id="node23" class="node"><title>Node12</title>
<polygon fill="white" stroke="#bfbfbf" points="617.5,-1 617.5,-21 664.5,-21 664.5,-1 617.5,-1"/>
<text text-anchor="middle" x="641" y="-8" font-family="FreeSans" font-size="10.00">stdint.h</text>
</g>
<!-- Node2&#45;&gt;Node12 -->
<g id="edge22" class="edge"><title>Node2&#45;&gt;Node12</title>
<path fill="none" stroke="midnightblue" d="M385.671,-64.601C432.852,-57.9034 522.88,-43.832 607.588,-22.1141"/>
<polygon fill="midnightblue" stroke="midnightblue" points="608.561,-25.4775 617.355,-19.569 606.796,-18.7037 608.561,-25.4775"/>
</g>
<!-- Node13&#45;&gt;Node2 -->
<g id="edge26" class="edge"><title>Node13&#45;&gt;Node2</title>
<path fill="none" stroke="midnightblue" d="M184.534,-116.897C219.49,-106.959 272.891,-91.776 310.172,-81.1766"/>
<polygon fill="midnightblue" stroke="midnightblue" points="311.569,-84.4181 320.231,-78.3167 309.655,-77.6849 311.569,-84.4181"/>
</g>
<!-- Node14&#45;&gt;Node15 -->
<g id="edge30" class="edge"><title>Node14&#45;&gt;Node15</title>
<path fill="none" stroke="midnightblue" d="M301.065,-232.897C288.979,-224.135 271.271,-211.297 257.23,-201.116"/>
<polygon fill="midnightblue" stroke="midnightblue" points="259.194,-198.218 249.044,-195.182 255.085,-203.885 259.194,-198.218"/>
</g>
<!-- Node16 -->
<g id="node33" class="node"><title>Node16</title>
<a xlink:href="mutex_8h.html" target="_top" xlink:title="This file declares and defines a mutex that is a partial implementation. ">
<polygon fill="white" stroke="black" points="290,-175 290,-195 340,-195 340,-175 290,-175"/>
<text text-anchor="middle" x="315" y="-182" font-family="FreeSans" font-size="10.00">mutex.h</text>
</a>
</g>
<!-- Node14&#45;&gt;Node16 -->
<g id="edge34" class="edge"><title>Node14&#45;&gt;Node16</title>
<path fill="none" stroke="midnightblue" d="M315,-232.897C315,-225.339 315,-214.748 315,-205.446"/>
<polygon fill="midnightblue" stroke="midnightblue" points="318.5,-205.378 315,-195.378 311.5,-205.378 318.5,-205.378"/>
</g>
<!-- Node15&#45;&gt;Node2 -->
<g id="edge32" class="edge"><title>Node15&#45;&gt;Node2</title>
<path fill="none" stroke="midnightblue" d="M235.756,-174.897C237.343,-160.285 242.212,-133.132 257,-116 271.043,-99.7311 292.027,-88.5631 310.798,-81.2103"/>
<polygon fill="midnightblue" stroke="midnightblue" points="312.178,-84.4323 320.364,-77.7063 309.771,-77.8594 312.178,-84.4323"/>
</g>
<!-- Node17 -->
<g id="node35" class="node"><title>Node17</title>
<a xlink:href="atomicoperations_8h.html" target="_top" xlink:title="Simple thread safe ways to check and change a specified variable atomically. ">
<polygon fill="white" stroke="black" points="266,-117 266,-137 364,-137 364,-117 266,-117"/>
<text text-anchor="middle" x="315" y="-124" font-family="FreeSans" font-size="10.00">atomicoperations.h</text>
</a>
</g>
<!-- Node16&#45;&gt;Node17 -->
<g id="edge36" class="edge"><title>Node16&#45;&gt;Node17</title>
<path fill="none" stroke="midnightblue" d="M315,-174.897C315,-167.339 315,-156.748 315,-147.446"/>
<polygon fill="midnightblue" stroke="midnightblue" points="318.5,-147.378 315,-137.378 311.5,-147.378 318.5,-147.378"/>
</g>
<!-- Node17&#45;&gt;Node2 -->
<g id="edge38" class="edge"><title>Node17&#45;&gt;Node2</title>
<path fill="none" stroke="midnightblue" d="M321.619,-116.897C326.84,-108.928 334.27,-97.5874 340.59,-87.9413"/>
<polygon fill="midnightblue" stroke="midnightblue" points="343.648,-89.6603 346.201,-79.3776 337.793,-85.8241 343.648,-89.6603"/>
</g>
<!-- Node18&#45;&gt;Node2 -->
<g id="edge42" class="edge"><title>Node18&#45;&gt;Node2</title>
<path fill="none" stroke="midnightblue" d="M438.885,-116.897C422.655,-107.846 398.624,-94.4442 380.106,-84.117"/>
<polygon fill="midnightblue" stroke="midnightblue" points="381.695,-80.9956 371.257,-79.1817 378.286,-87.1092 381.695,-80.9956"/>
</g>
<!-- Node19&#45;&gt;Node2 -->
<g id="edge46" class="edge"><title>Node19&#45;&gt;Node2</title>
<path fill="none" stroke="midnightblue" d="M497.831,-232.894C508.144,-209.686 529.319,-151.827 503,-116 490.144,-98.499 435.302,-84.5936 395.645,-76.5768"/>
<polygon fill="midnightblue" stroke="midnightblue" points="396.158,-73.1109 385.671,-74.6186 394.81,-79.9797 396.158,-73.1109"/>
</g>
<!-- Node20&#45;&gt;Node2 -->
<g id="edge52" class="edge"><title>Node20&#45;&gt;Node2</title>
<path fill="none" stroke="midnightblue" d="M579.231,-232.672C574.533,-208.476 559.448,-147.771 522,-116 503.028,-99.9034 439.423,-85.2072 395.892,-76.6814"/>
<polygon fill="midnightblue" stroke="midnightblue" points="396.323,-73.2004 385.843,-74.7524 395.004,-80.0749 396.323,-73.2004"/>
</g>
<!-- Node21&#45;&gt;Node2 -->
<g id="edge56" class="edge"><title>Node21&#45;&gt;Node2</title>
<path fill="none" stroke="midnightblue" d="M382.328,-174.539C381.259,-160.869 378.681,-136.281 373,-116 370.381,-106.651 366.344,-96.7022 362.581,-88.3765"/>
<polygon fill="midnightblue" stroke="midnightblue" points="365.673,-86.7263 358.241,-79.1755 359.342,-89.7129 365.673,-86.7263"/>
</g>
<!-- Node21&#45;&gt;Node17 -->
<g id="edge58" class="edge"><title>Node21&#45;&gt;Node17</title>
<path fill="none" stroke="midnightblue" d="M371.155,-174.897C361.138,-166.353 346.577,-153.933 334.792,-143.881"/>
<polygon fill="midnightblue" stroke="midnightblue" points="337.047,-141.204 327.167,-137.378 332.504,-146.53 337.047,-141.204"/>
</g>
</g>
</svg>
        <g id="navigator" transform="translate(0 0)" fill="#404254">
                <rect fill="#f2f5e9" fill-opacity="0.5" stroke="#606060" stroke-width=".5" x="0" y="0" width="60" height="60"/>
                <use id="zoomplus" xlink:href="#zoomPlus" x="17" y="9" onmousedown="handleZoom(evt,'in')"/>
                <use id="zoomminus" xlink:href="#zoomMin" x="42" y="9" onmousedown="handleZoom(evt,'out')"/>
                <use id="reset" xlink:href="#resetDef" x="30" y="36" onmousedown="handleReset()"/>
                <g id="arrowUp" xlink:href="#dirArrow" transform="translate(30 24)" onmousedown="handlePan(0,-1)">
                  <use xlink:href="#rim" fill="#404040">
                        <set attributeName="fill" to="#808080" begin="arrowUp.mouseover" end="arrowUp.mouseout"/>
                  </use>
                  <path fill="none" stroke="white" stroke-width="1.5" d="M0,-3.0v7 M-2.5,-0.5L0,-3.0L2.5,-0.5"/>
                </g>
                <g id="arrowRight" xlink:href="#dirArrow" transform="rotate(90) translate(36 -43)" onmousedown="handlePan(1,0)">
                  <use xlink:href="#rim" fill="#404040">
                        <set attributeName="fill" to="#808080" begin="arrowRight.mouseover" end="arrowRight.mouseout"/>
                  </use>
                  <path fill="none" stroke="white" stroke-width="1.5" d="M0,-3.0v7 M-2.5,-0.5L0,-3.0L2.5,-0.5"/>
                </g>
                <g id="arrowDown" xlink:href="#dirArrow" transform="rotate(180) translate(-30 -48)" onmousedown="handlePan(0,1)">
                  <use xlink:href="#rim" fill="#404040">
                        <set attributeName="fill" to="#808080" begin="arrowDown.mouseover" end="arrowDown.mouseout"/>
                  </use>
                  <path fill="none" stroke="white" stroke-width="1.5" d="M0,-3.0v7 M-2.5,-0.5L0,-3.0L2.5,-0.5"/>
                </g>
                <g id="arrowLeft" xlink:href="#dirArrow" transform="rotate(270) translate(-36 17)" onmousedown="handlePan(-1,0)">
                  <use xlink:href="#rim" fill="#404040">
                        <set attributeName="fill" to="#808080" begin="arrowLeft.mouseover" end="arrowLeft.mouseout"/>
                  </use>
                  <path fill="none" stroke="white" stroke-width="1.5" d="M0,-3.0v7 M-2.5,-0.5L0,-3.0L2.5,-0.5"/>
                </g>
        </g>
        <svg viewBox="0 0 15 15" width="100%" height="30px" preserveAspectRatio="xMaxYMin meet">
         <g id="arrow_out" transform="scale(0.3 0.3)">
          <a xlink:href="framescheduler_8h__incl_org.svg" target="_base">
           <rect id="button" ry="5" rx="5" y="6" x="6" height="38" width="38"
                fill="#f2f5e9" fill-opacity="0.5" stroke="#606060" stroke-width="1.0"/>
           <path id="arrow"
             d="M 11.500037,31.436501 C 11.940474,20.09759 22.043105,11.32322 32.158766,21.979434 L 37.068811,17.246167 C 37.068811,17.246167 37.088388,32 37.088388,32 L 22.160133,31.978069 C 22.160133,31.978069 26.997745,27.140456 26.997745,27.140456 C 18.528582,18.264221 13.291696,25.230495 11.500037,31.436501 z"
             style="fill:#404040;"/>
          </a>
         </g>
        </svg>
</svg>
