<?xml version="1.0" encoding="UTF-8" standalone="no"?>
<!DOCTYPE svg PUBLIC "-//W3C//DTD SVG 1.1//EN"
 "http://www.w3.org/Graphics/SVG/1.1/DTD/svg11.dtd">
<!-- Generated by graphviz version 2.26.3 (20100126.1600)
 -->
<!-- Title: framescheduler.h Pages: 1 -->
<!--zoomable 320 -->
<svg id="main" version="1.1" xmlns="http://www.w3.org/2000/svg" xmlns:xlink="http://www.w3.org/1999/xlink" xml:space="preserve" onload="init(evt)">
        <defs>
                <circle id="rim" cx="0" cy="0" r="7"/>
                <circle id="rim2" cx="0" cy="0" r="3.5"/>
                <g id="zoomPlus">
                        <use xlink:href="#rim" fill="#404040">
                                <set attributeName="fill" to="#808080" begin="zoomplus.mouseover" end="zoomplus.mouseout"/>
                        </use>
                        <path d="M-4,0h8M0,-4v8" fill="none" stroke="white" stroke-width="1.5" pointer-events="none"/>
                </g>
                <g id="zoomMin">
                        <use xlink:href="#rim" fill="#404040">
                                <set attributeName="fill" to="#808080" begin="zoomminus.mouseover" end="zoomminus.mouseout"/>
                        </use>
                        <path d="M-4,0h8" fill="none" stroke="white" stroke-width="1.5" pointer-events="none"/>
                </g>
                <g id="dirArrow">
                        <path fill="none" stroke="white" stroke-width="1.5" d="M0,-3.0v7 M-2.5,-0.5L0,-3.0L2.5,-0.5"/>
                </g>
               <g id="resetDef">
                       <use xlink:href="#rim2" fill="#404040">
                               <set attributeName="fill" to="#808080" begin="reset.mouseover" end="reset.mouseout"/>
                       </use>
               </g>
        </defs>

<script type="text/javascript">
var viewWidth = 786;
var viewHeight = 320;
var sectionId = 'dynsection-0';
</script>
<script xlink:href="svgpan.js"/>
<svg id="graph" class="graph">
<g id="viewport">
<title>framescheduler.h</title>
<polygon fill="white" stroke="white" points="-4,5 -4,-316 783,-316 783,5 -4,5"/>
<!-- Node1 -->
<g id="node1" class="node"><title>Node1</title>
<polygon fill="#bfbfbf" stroke="black" points="393,-291 393,-311 483,-311 483,-291 393,-291"/>
<text text-anchor="middle" x="438" y="-298" font-family="FreeSans" font-size="10.00">framescheduler.h</text>
</g>
<!-- Node2 -->
<g id="node3" class="node"><title>Node2</title>
<a xlink:href="datatypes_8h.html" target="_top" xlink:title="This file declares a few typedefs to allow flexibility, in case a change is required/desired.">
<polygon fill="white" stroke="black" points="234.5,-59 234.5,-79 299.5,-79 299.5,-59 234.5,-59"/>
<text text-anchor="middle" x="267" y="-66" font-family="FreeSans" font-size="10.00">datatypes.h</text>
</a>
</g>
<!-- Node1&#45;&gt;Node2 -->
<g id="edge2" class="edge"><title>Node1&#45;&gt;Node2</title>
<path fill="none" stroke="midnightblue" d="M483.027,-292.672C509.973,-285.878 543.608,-274.025 568,-254 597.996,-229.375 625.988,-205.268 603,-174 567.763,-126.071 391.817,-90.3178 309.541,-75.9385"/>
<polygon fill="midnightblue" stroke="midnightblue" points="309.966,-72.4602 299.517,-74.2115 308.778,-79.3585 309.966,-72.4602"/>
</g>
<!-- Node6 -->
<g id="node11" class="node"><title>Node6</title>
<a xlink:href="doublebufferedresource_8h.html" target="_top" xlink:title="This file defines the template double buffered resources that can be attached to a thread...">
<polygon fill="white" stroke="black" points="436.5,-233 436.5,-253 559.5,-253 559.5,-233 436.5,-233"/>
<text text-anchor="middle" x="498" y="-240" font-family="FreeSans" font-size="10.00">doublebufferedresource.h</text>
</a>
</g>
<!-- Node1&#45;&gt;Node6 -->
<g id="edge10" class="edge"><title>Node1&#45;&gt;Node6</title>
<path fill="none" stroke="midnightblue" d="M448.451,-290.897C457.12,-282.517 469.646,-270.409 479.934,-260.464"/>
<polygon fill="midnightblue" stroke="midnightblue" points="482.507,-262.844 487.265,-253.378 477.642,-257.811 482.507,-262.844"/>
</g>
<!-- Node10 -->
<g id="node20" class="node"><title>Node10</title>
<a xlink:href="thread_8h.html" target="_top" xlink:title="This file defines a minimalistic cross&#45;platform thread that the scheduler uses to schedule tasks...">
<polygon fill="white" stroke="black" points="230.5,-233 230.5,-253 281.5,-253 281.5,-233 230.5,-233"/>
<text text-anchor="middle" x="256" y="-240" font-family="FreeSans" font-size="10.00">thread.h</text>
</a>
</g>
<!-- Node1&#45;&gt;Node10 -->
<g id="edge20" class="edge"><title>Node1&#45;&gt;Node10</title>
<path fill="none" stroke="midnightblue" d="M406.298,-290.897C374.271,-280.691 324.888,-264.953 291.55,-254.329"/>
<polygon fill="midnightblue" stroke="midnightblue" points="292.347,-250.91 281.756,-251.208 290.221,-257.579 292.347,-250.91"/>
</g>
<!-- Node11 -->
<g id="node22" class="node"><title>Node11</title>
<a xlink:href="systemcalls_8h.html" target="_top" xlink:title="This file defines a minimalistic cross&#45;platform thread that the scheduler uses to schedule tasks...">
<polygon fill="white" stroke="black" points="242,-175 242,-195 316,-195 316,-175 242,-175"/>
<text text-anchor="middle" x="279" y="-182" font-family="FreeSans" font-size="10.00">systemcalls.h</text>
</a>
</g>
<!-- Node1&#45;&gt;Node11 -->
<g id="edge42" class="edge"><title>Node1&#45;&gt;Node11</title>
<path fill="none" stroke="midnightblue" d="M401.369,-290.967C378.57,-283.435 349.583,-271.402 328,-254 311.111,-240.383 297.404,-219.52 288.826,-204.299"/>
<polygon fill="midnightblue" stroke="midnightblue" points="291.772,-202.388 283.948,-195.244 285.609,-205.708 291.772,-202.388"/>
</g>
<!-- Node15 -->
<g id="node34" class="node"><title>Node15</title>
<a xlink:href="workunitkey_8h.html" target="_top" xlink:title="This file defines the metadata used to sort workunits.">
<polygon fill="white" stroke="black" points="197.5,-117 197.5,-137 272.5,-137 272.5,-117 197.5,-117"/>
<text text-anchor="middle" x="235" y="-124" font-family="FreeSans" font-size="10.00">workunitkey.h</text>
</a>
</g>
<!-- Node1&#45;&gt;Node15 -->
<g id="edge38" class="edge"><title>Node1&#45;&gt;Node15</title>
<path fill="none" stroke="midnightblue" d="M392.828,-294.29C338.47,-285.68 250.898,-269.944 222,-254 183.775,-232.91 144.463,-212.526 165,-174 172.497,-159.936 186.278,-149.334 199.643,-141.792"/>
<polygon fill="midnightblue" stroke="midnightblue" points="201.491,-144.776 208.746,-137.056 198.259,-138.567 201.491,-144.776"/>
</g>
<!-- Node16 -->
<g id="node38" class="node"><title>Node16</title>
<a xlink:href="rollingaverage_8h.html" target="_top" xlink:title="This stores the implementation and the declaration of the RollingAverage, BufferedRollingAverage, WeightedRollingAverage and the DefaultRollingAverage.">
<polygon fill="white" stroke="black" points="336.5,-233 336.5,-253 419.5,-253 419.5,-233 336.5,-233"/>
<text text-anchor="middle" x="378" y="-240" font-family="FreeSans" font-size="10.00">rollingaverage.h</text>
</a>
</g>
<!-- Node1&#45;&gt;Node16 -->
<g id="edge44" class="edge"><title>Node1&#45;&gt;Node16</title>
<path fill="none" stroke="midnightblue" d="M427.549,-290.897C418.88,-282.517 406.354,-270.409 396.066,-260.464"/>
<polygon fill="midnightblue" stroke="midnightblue" points="398.358,-257.811 388.735,-253.378 393.493,-262.844 398.358,-257.811"/>
</g>
<!-- Node17 -->
<g id="node42" class="node"><title>Node17</title>
<a xlink:href="barrier_8h.html" target="_top" xlink:title="The declaration of the Mezzanine::Threading::Barrier Barrier synchronization primitive.">
<polygon fill="white" stroke="black" points="67.5,-175 67.5,-195 118.5,-195 118.5,-175 67.5,-175"/>
<text text-anchor="middle" x="93" y="-182" font-family="FreeSans" font-size="10.00">barrier.h</text>
</a>
</g>
<!-- Node1&#45;&gt;Node17 -->
<g id="edge50" class="edge"><title>Node1&#45;&gt;Node17</title>
<path fill="none" stroke="midnightblue" d="M392.904,-298.856C318.34,-294.536 173.463,-282.633 132,-254 115.165,-242.374 104.729,-220.976 98.9388,-205.08"/>
<polygon fill="midnightblue" stroke="midnightblue" points="102.115,-203.536 95.6505,-195.142 95.4689,-205.735 102.115,-203.536"/>
</g>
<!-- Node18 -->
<g id="node46" class="node"><title>Node18</title>
<polygon fill="white" stroke="#bfbfbf" points="631.5,-233 631.5,-253 666.5,-253 666.5,-233 631.5,-233"/>
<text text-anchor="middle" x="649" y="-240" font-family="FreeSans" font-size="10.00">map</text>
</g>
<!-- Node1&#45;&gt;Node18 -->
<g id="edge56" class="edge"><title>Node1&#45;&gt;Node18</title>
<path fill="none" stroke="midnightblue" d="M480.476,-290.997C517.134,-282.106 571.383,-268.328 618,-254 619.228,-253.623 620.48,-253.226 621.742,-252.818"/>
<polygon fill="midnightblue" stroke="midnightblue" points="623.038,-256.074 631.382,-249.546 620.788,-249.446 623.038,-256.074"/>
</g>
<!-- Node19 -->
<g id="node48" class="node"><title>Node19</title>
<polygon fill="white" stroke="#bfbfbf" points="683.5,-233 683.5,-253 712.5,-253 712.5,-233 683.5,-233"/>
<text text-anchor="middle" x="698" y="-240" font-family="FreeSans" font-size="10.00">set</text>
</g>
<!-- Node1&#45;&gt;Node19 -->
<g id="edge58" class="edge"><title>Node1&#45;&gt;Node19</title>
<path fill="none" stroke="midnightblue" d="M483.42,-295.438C529.604,-289.027 603.139,-276.738 673.261,-254.045"/>
<polygon fill="midnightblue" stroke="midnightblue" points="674.739,-257.242 683.13,-250.773 672.537,-250.598 674.739,-257.242"/>
</g>
<!-- Node20 -->
<g id="node50" class="node"><title>Node20</title>
<polygon fill="white" stroke="#bfbfbf" points="729.5,-233 729.5,-253 778.5,-253 778.5,-233 729.5,-233"/>
<text text-anchor="middle" x="754" y="-240" font-family="FreeSans" font-size="10.00">fstream</text>
</g>
<!-- Node1&#45;&gt;Node20 -->
<g id="edge60" class="edge"><title>Node1&#45;&gt;Node20</title>
<path fill="none" stroke="midnightblue" d="M483.048,-295.74C537.231,-288.925 631.011,-275.576 719.347,-254.155"/>
<polygon fill="midnightblue" stroke="midnightblue" points="720.385,-257.504 729.257,-251.712 718.709,-250.708 720.385,-257.504"/>
</g>
<!-- Node3 -->
<g id="node5" class="node"><title>Node3</title>
<a xlink:href="crossplatformexport_8h.html" target="_top" xlink:title="This file determines what features are offered by the compiler that this library can take advantage o...">
<polygon fill="white" stroke="black" points="165,-1 165,-21 273,-21 273,-1 165,-1"/>
<text text-anchor="middle" x="219" y="-8" font-family="FreeSans" font-size="10.00">crossplatformexport.h</text>
</a>
</g>
<!-- Node2&#45;&gt;Node3 -->
<g id="edge4" class="edge"><title>Node2&#45;&gt;Node3</title>
<path fill="none" stroke="midnightblue" d="M258.639,-58.8972C251.908,-50.7639 242.27,-39.1183 234.184,-29.3468"/>
<polygon fill="midnightblue" stroke="midnightblue" points="236.66,-26.8501 227.588,-21.3776 231.268,-31.3131 236.66,-26.8501"/>
</g>
<!-- Node4 -->
<g id="node7" class="node"><title>Node4</title>
<polygon fill="white" stroke="#bfbfbf" points="52,-1 52,-21 92,-21 92,-1 52,-1"/>
<text text-anchor="middle" x="72" y="-8" font-family="FreeSans" font-size="10.00">string</text>
</g>
<!-- Node2&#45;&gt;Node4 -->
<g id="edge6" class="edge"><title>Node2&#45;&gt;Node4</title>
<path fill="none" stroke="midnightblue" d="M234.361,-59.2921C197.455,-48.3148 137.856,-30.5881 102.052,-19.9386"/>
<polygon fill="midnightblue" stroke="midnightblue" points="102.772,-16.5013 92.1895,-17.0051 100.777,-23.2108 102.772,-16.5013"/>
</g>
<!-- Node5 -->
<g id="node9" class="node"><title>Node5</title>
<polygon fill="white" stroke="#bfbfbf" points="290.5,-1 290.5,-21 337.5,-21 337.5,-1 290.5,-1"/>
<text text-anchor="middle" x="314" y="-8" font-family="FreeSans" font-size="10.00">stdint.h</text>
</g>
<!-- Node2&#45;&gt;Node5 -->
<g id="edge8" class="edge"><title>Node2&#45;&gt;Node5</title>
<path fill="none" stroke="midnightblue" d="M275.187,-58.8972C281.777,-50.7639 291.214,-39.1183 299.133,-29.3468"/>
<polygon fill="midnightblue" stroke="midnightblue" points="302.014,-31.3505 305.591,-21.3776 296.575,-26.9434 302.014,-31.3505"/>
</g>
<!-- Node6&#45;&gt;Node2 -->
<g id="edge12" class="edge"><title>Node6&#45;&gt;Node2</title>
<path fill="none" stroke="midnightblue" d="M489.045,-232.683C468.555,-209.531 415.931,-152.608 363,-116 344.025,-102.876 320.838,-91.4144 302.005,-83.0954"/>
<polygon fill="midnightblue" stroke="midnightblue" points="303.168,-79.7853 292.599,-79.0395 300.396,-86.2131 303.168,-79.7853"/>
</g>
<!-- Node7 -->
<g id="node14" class="node"><title>Node7</title>
<polygon fill="white" stroke="#bfbfbf" points="470,-175 470,-195 526,-195 526,-175 470,-175"/>
<text text-anchor="middle" x="498" y="-182" font-family="FreeSans" font-size="10.00">algorithm</text>
</g>
<!-- Node6&#45;&gt;Node7 -->
<g id="edge14" class="edge"><title>Node6&#45;&gt;Node7</title>
<path fill="none" stroke="midnightblue" d="M498,-232.897C498,-225.339 498,-214.748 498,-205.446"/>
<polygon fill="midnightblue" stroke="midnightblue" points="501.5,-205.378 498,-195.378 494.5,-205.378 501.5,-205.378"/>
</g>
<!-- Node8 -->
<g id="node16" class="node"><title>Node8</title>
<polygon fill="white" stroke="#bfbfbf" points="544,-175 544,-195 594,-195 594,-175 544,-175"/>
<text text-anchor="middle" x="569" y="-182" font-family="FreeSans" font-size="10.00">sstream</text>
</g>
<!-- Node6&#45;&gt;Node8 -->
<g id="edge16" class="edge"><title>Node6&#45;&gt;Node8</title>
<path fill="none" stroke="midnightblue" d="M510.367,-232.897C520.826,-224.353 536.03,-211.933 548.335,-201.881"/>
<polygon fill="midnightblue" stroke="midnightblue" points="550.766,-204.415 556.296,-195.378 546.338,-198.994 550.766,-204.415"/>
</g>
<!-- Node9 -->
<g id="node18" class="node"><title>Node9</title>
<polygon fill="white" stroke="#bfbfbf" points="333.5,-175 333.5,-195 376.5,-195 376.5,-175 333.5,-175"/>
<text text-anchor="middle" x="355" y="-182" font-family="FreeSans" font-size="10.00">vector</text>
</g>
<!-- Node6&#45;&gt;Node9 -->
<g id="edge18" class="edge"><title>Node6&#45;&gt;Node9</title>
<path fill="none" stroke="midnightblue" d="M473.091,-232.897C448.966,-223.112 412.307,-208.243 386.24,-197.671"/>
<polygon fill="midnightblue" stroke="midnightblue" points="387.398,-194.364 376.816,-193.848 384.767,-200.85 387.398,-194.364"/>
</g>
<!-- Node10&#45;&gt;Node9 -->
<g id="edge36" class="edge"><title>Node10&#45;&gt;Node9</title>
<path fill="none" stroke="midnightblue" d="M273.244,-232.897C288.624,-223.887 311.361,-210.567 328.955,-200.259"/>
<polygon fill="midnightblue" stroke="midnightblue" points="330.762,-203.257 337.621,-195.182 327.223,-197.217 330.762,-203.257"/>
</g>
<!-- Node10&#45;&gt;Node11 -->
<g id="edge22" class="edge"><title>Node10&#45;&gt;Node11</title>
<path fill="none" stroke="midnightblue" d="M260.006,-232.897C263.069,-225.175 267.387,-214.286 271.132,-204.841"/>
<polygon fill="midnightblue" stroke="midnightblue" points="274.452,-205.964 274.885,-195.378 267.945,-203.383 274.452,-205.964"/>
</g>
<!-- Node12 -->
<g id="node25" class="node"><title>Node12</title>
<a xlink:href="mutex_8h.html" target="_top" xlink:title="This file declares and defines a mutex that is a partial implementation.">
<polygon fill="white" stroke="black" points="0,-175 0,-195 50,-195 50,-175 0,-175"/>
<text text-anchor="middle" x="25" y="-182" font-family="FreeSans" font-size="10.00">mutex.h</text>
</a>
</g>
<!-- Node10&#45;&gt;Node12 -->
<g id="edge26" class="edge"><title>Node10&#45;&gt;Node12</title>
<path fill="none" stroke="midnightblue" d="M230.333,-237.553C194.345,-229.771 126.67,-214.607 60.0081,-196.14"/>
<polygon fill="midnightblue" stroke="midnightblue" points="60.7571,-192.715 50.1839,-193.392 58.8713,-199.456 60.7571,-192.715"/>
</g>
<!-- Node14 -->
<g id="node31" class="node"><title>Node14</title>
<polygon fill="white" stroke="#bfbfbf" points="173.5,-175 173.5,-195 224.5,-195 224.5,-175 173.5,-175"/>
<text text-anchor="middle" x="199" y="-182" font-family="FreeSans" font-size="10.00">ostream</text>
</g>
<!-- Node10&#45;&gt;Node14 -->
<g id="edge34" class="edge"><title>Node10&#45;&gt;Node14</title>
<path fill="none" stroke="midnightblue" d="M246.071,-232.897C237.917,-224.6 226.17,-212.646 216.451,-202.757"/>
<polygon fill="midnightblue" stroke="midnightblue" points="218.704,-200.057 209.199,-195.378 213.712,-204.963 218.704,-200.057"/>
</g>
<!-- Node11&#45;&gt;Node2 -->
<g id="edge24" class="edge"><title>Node11&#45;&gt;Node2</title>
<path fill="none" stroke="midnightblue" d="M280.41,-174.648C282.003,-161.095 284.008,-136.634 281,-116 279.67,-106.877 276.961,-97.0633 274.276,-88.775"/>
<polygon fill="midnightblue" stroke="midnightblue" points="277.564,-87.5723 270.996,-79.2591 270.946,-89.8539 277.564,-87.5723"/>
</g>
<!-- Node12&#45;&gt;Node4 -->
<g id="edge32" class="edge"><title>Node12&#45;&gt;Node4</title>
<path fill="none" stroke="midnightblue" d="M25.8712,-174.592C27.1552,-160.978 29.9658,-136.451 35,-116 42.509,-85.4953 55.3983,-51.3989 63.8087,-30.5687"/>
<polygon fill="midnightblue" stroke="midnightblue" points="67.0832,-31.8084 67.6405,-21.2283 60.6069,-29.1516 67.0832,-31.8084"/>
</g>
<!-- Node13 -->
<g id="node27" class="node"><title>Node13</title>
<a xlink:href="atomicoperations_8h.html" target="_top" xlink:title="Simple thread safe ways to check and change a specified variable atomically.">
<polygon fill="white" stroke="black" points="44,-117 44,-137 142,-137 142,-117 44,-117"/>
<text text-anchor="middle" x="93" y="-124" font-family="FreeSans" font-size="10.00">atomicoperations.h</text>
</a>
</g>
<!-- Node12&#45;&gt;Node13 -->
<g id="edge28" class="edge"><title>Node12&#45;&gt;Node13</title>
<path fill="none" stroke="midnightblue" d="M36.8447,-174.897C46.8618,-166.353 61.4234,-153.933 73.2081,-143.881"/>
<polygon fill="midnightblue" stroke="midnightblue" points="75.4961,-146.53 80.8332,-137.378 70.9535,-141.204 75.4961,-146.53"/>
</g>
<!-- Node13&#45;&gt;Node2 -->
<g id="edge30" class="edge"><title>Node13&#45;&gt;Node2</title>
<path fill="none" stroke="midnightblue" d="M123.308,-116.897C152.038,-107.321 195.377,-92.8742 226.945,-82.3516"/>
<polygon fill="midnightblue" stroke="midnightblue" points="228.367,-85.5669 236.747,-79.0842 226.154,-78.9261 228.367,-85.5669"/>
</g>
<!-- Node15&#45;&gt;Node2 -->
<g id="edge40" class="edge"><title>Node15&#45;&gt;Node2</title>
<path fill="none" stroke="midnightblue" d="M240.574,-116.897C244.925,-109.01 251.099,-97.8209 256.385,-88.2401"/>
<polygon fill="midnightblue" stroke="midnightblue" points="259.508,-89.8242 261.274,-79.3776 253.379,-86.4426 259.508,-89.8242"/>
</g>
<!-- Node16&#45;&gt;Node2 -->
<g id="edge48" class="edge"><title>Node16&#45;&gt;Node2</title>
<path fill="none" stroke="midnightblue" d="M382.165,-232.661C387.114,-218.697 393.676,-193.334 385,-174 366.663,-133.138 323.695,-101.677 294.987,-84.2537"/>
<polygon fill="midnightblue" stroke="midnightblue" points="296.611,-81.1484 286.217,-79.0958 293.063,-87.1823 296.611,-81.1484"/>
</g>
<!-- Node16&#45;&gt;Node9 -->
<g id="edge46" class="edge"><title>Node16&#45;&gt;Node9</title>
<path fill="none" stroke="midnightblue" d="M373.994,-232.897C370.931,-225.175 366.613,-214.286 362.868,-204.841"/>
<polygon fill="midnightblue" stroke="midnightblue" points="366.055,-203.383 359.115,-195.378 359.548,-205.964 366.055,-203.383"/>
</g>
<!-- Node17&#45;&gt;Node2 -->
<g id="edge52" class="edge"><title>Node17&#45;&gt;Node2</title>
<path fill="none" stroke="midnightblue" d="M106.429,-174.821C124.774,-161.038 158.838,-135.88 189,-116 205.835,-104.904 225.254,-93.1992 240.505,-84.246"/>
<polygon fill="midnightblue" stroke="midnightblue" points="242.527,-87.1186 249.401,-79.057 239,-81.0719 242.527,-87.1186"/>
</g>
<!-- Node17&#45;&gt;Node13 -->
<g id="edge54" class="edge"><title>Node17&#45;&gt;Node13</title>
<path fill="none" stroke="midnightblue" d="M93,-174.897C93,-167.339 93,-156.748 93,-147.446"/>
<polygon fill="midnightblue" stroke="midnightblue" points="96.5001,-147.378 93,-137.378 89.5001,-147.378 96.5001,-147.378"/>
</g>
</g>
</svg>
        <g id="navigator" transform="translate(0 0)" fill="#404254">
                <rect fill="#f2f5e9" fill-opacity="0.5" stroke="#606060" stroke-width=".5" x="0" y="0" width="60" height="60"/>
                <use id="zoomplus" xlink:href="#zoomPlus" x="17" y="9" onmousedown="handleZoom(evt,'in')"/>
                <use id="zoomminus" xlink:href="#zoomMin" x="42" y="9" onmousedown="handleZoom(evt,'out')"/>
                <use id="reset" xlink:href="#resetDef" x="30" y="36" onmousedown="handleReset()"/>
                <g id="arrowUp" xlink:href="#dirArrow" transform="translate(30 24)" onmousedown="handlePan(0,-1)">
                  <use xlink:href="#rim" fill="#404040">
                        <set attributeName="fill" to="#808080" begin="arrowUp.mouseover" end="arrowUp.mouseout"/>
                  </use>
                  <path fill="none" stroke="white" stroke-width="1.5" d="M0,-3.0v7 M-2.5,-0.5L0,-3.0L2.5,-0.5"/>
                </g>
                <g id="arrowRight" xlink:href="#dirArrow" transform="rotate(90) translate(36 -43)" onmousedown="handlePan(1,0)">
                  <use xlink:href="#rim" fill="#404040">
                        <set attributeName="fill" to="#808080" begin="arrowRight.mouseover" end="arrowRight.mouseout"/>
                  </use>
                  <path fill="none" stroke="white" stroke-width="1.5" d="M0,-3.0v7 M-2.5,-0.5L0,-3.0L2.5,-0.5"/>
                </g>
                <g id="arrowDown" xlink:href="#dirArrow" transform="rotate(180) translate(-30 -48)" onmousedown="handlePan(0,1)">
                  <use xlink:href="#rim" fill="#404040">
                        <set attributeName="fill" to="#808080" begin="arrowDown.mouseover" end="arrowDown.mouseout"/>
                  </use>
                  <path fill="none" stroke="white" stroke-width="1.5" d="M0,-3.0v7 M-2.5,-0.5L0,-3.0L2.5,-0.5"/>
                </g>
                <g id="arrowLeft" xlink:href="#dirArrow" transform="rotate(270) translate(-36 17)" onmousedown="handlePan(-1,0)">
                  <use xlink:href="#rim" fill="#404040">
                        <set attributeName="fill" to="#808080" begin="arrowLeft.mouseover" end="arrowLeft.mouseout"/>
                  </use>
                  <path fill="none" stroke="white" stroke-width="1.5" d="M0,-3.0v7 M-2.5,-0.5L0,-3.0L2.5,-0.5"/>
                </g>
        </g>
        <svg viewBox="0 0 15 15" width="100%" height="30px" preserveAspectRatio="xMaxYMin meet">
         <g id="arrow_out" transform="scale(0.3 0.3)">
          <a xlink:href="framescheduler_8h__incl_org.svg" target="_base">
           <rect id="button" ry="5" rx="5" y="6" x="6" height="38" width="38"
                fill="#f2f5e9" fill-opacity="0.5" stroke="#606060" stroke-width="1.0"/>
           <path id="arrow"
             d="M 11.500037,31.436501 C 11.940474,20.09759 22.043105,11.32322 32.158766,21.979434 L 37.068811,17.246167 C 37.068811,17.246167 37.088388,32 37.088388,32 L 22.160133,31.978069 C 22.160133,31.978069 26.997745,27.140456 26.997745,27.140456 C 18.528582,18.264221 13.291696,25.230495 11.500037,31.436501 z"
             style="fill:#404040;"/>
          </a>
         </g>
        </svg>
</svg>
