<?xml version="1.0" encoding="UTF-8" standalone="no"?>
<!DOCTYPE svg PUBLIC "-//W3C//DTD SVG 1.1//EN"
 "http://www.w3.org/Graphics/SVG/1.1/DTD/svg11.dtd">
<!-- Generated by graphviz version 2.26.3 (20100126.1600)
 -->
<!-- Title: frameschedulerworkunits.cpp Pages: 1 -->
<svg width="748pt" height="494pt"
 viewBox="0.00 0.00 748.00 494.00" xmlns="http://www.w3.org/2000/svg" xmlns:xlink="http://www.w3.org/1999/xlink">
<g id="graph1" class="graph" transform="scale(1 1) rotate(0) translate(4 490)">
<title>frameschedulerworkunits.cpp</title>
<polygon fill="white" stroke="white" points="-4,5 -4,-490 745,-490 745,5 -4,5"/>
<!-- Node1 -->
<g id="node1" class="node"><title>Node1</title>
<polygon fill="#bfbfbf" stroke="black" points="21.5,-465 21.5,-485 162.5,-485 162.5,-465 21.5,-465"/>
<text text-anchor="middle" x="92" y="-472" font-family="FreeSans" font-size="10.00">frameschedulerworkunits.cpp</text>
</g>
<!-- Node2 -->
<g id="node3" class="node"><title>Node2</title>
<a xlink:href="frameschedulerworkunits_8h.html" target="_top" xlink:title="This defines a number of workunits that are required for doing some tasks that the Framescheduler req...">
<polygon fill="white" stroke="black" points="156.5,-407 156.5,-427 287.5,-427 287.5,-407 156.5,-407"/>
<text text-anchor="middle" x="222" y="-414" font-family="FreeSans" font-size="10.00">frameschedulerworkunits.h</text>
</a>
</g>
<!-- Node1&#45;&gt;Node2 -->
<g id="edge2" class="edge"><title>Node1&#45;&gt;Node2</title>
<path fill="none" stroke="midnightblue" d="M114.644,-464.897C135.488,-455.598 166.623,-441.707 190.004,-431.275"/>
<polygon fill="midnightblue" stroke="midnightblue" points="191.473,-434.452 199.179,-427.182 188.621,-428.06 191.473,-434.452"/>
</g>
<!-- Node16 -->
<g id="node33" class="node"><title>Node16</title>
<a xlink:href="doublebufferedresource_8h.html" target="_top" xlink:title="This file defines the template double buffered resources that can be attached to a thread...">
<polygon fill="white" stroke="black" points="27.5,-233 27.5,-253 150.5,-253 150.5,-233 27.5,-233"/>
<text text-anchor="middle" x="89" y="-240" font-family="FreeSans" font-size="10.00">doublebufferedresource.h</text>
</a>
</g>
<!-- Node1&#45;&gt;Node16 -->
<g id="edge80" class="edge"><title>Node1&#45;&gt;Node16</title>
<path fill="none" stroke="midnightblue" d="M91.8672,-464.732C91.4074,-429.173 89.8775,-310.861 89.2609,-263.177"/>
<polygon fill="midnightblue" stroke="midnightblue" points="92.7603,-263.103 89.1312,-253.15 85.7609,-263.194 92.7603,-263.103"/>
</g>
<!-- Node3 -->
<g id="node5" class="node"><title>Node3</title>
<a xlink:href="datatypes_8h.html" target="_top" xlink:title="This file declares a few typedefs to allow flexibility, in case a change is required/desired.">
<polygon fill="white" stroke="black" points="323.5,-59 323.5,-79 388.5,-79 388.5,-59 323.5,-59"/>
<text text-anchor="middle" x="356" y="-66" font-family="FreeSans" font-size="10.00">datatypes.h</text>
</a>
</g>
<!-- Node2&#45;&gt;Node3 -->
<g id="edge4" class="edge"><title>Node2&#45;&gt;Node3</title>
<path fill="none" stroke="midnightblue" d="M156.294,-410.407C90.8313,-399.782 0,-372.208 0,-301 0,-301 0,-301 0,-185 0,-119.76 218.864,-85.5121 313.377,-73.764"/>
<polygon fill="midnightblue" stroke="midnightblue" points="313.959,-77.2191 323.464,-72.5372 313.114,-70.2703 313.959,-77.2191"/>
</g>
<!-- Node14 -->
<g id="node27" class="node"><title>Node14</title>
<a xlink:href="workunit_8h.html" target="_top" xlink:title="This file has the definition of the workunit.">
<polygon fill="white" stroke="black" points="418,-349 418,-369 478,-369 478,-349 418,-349"/>
<text text-anchor="middle" x="448" y="-356" font-family="FreeSans" font-size="10.00">workunit.h</text>
</a>
</g>
<!-- Node2&#45;&gt;Node14 -->
<g id="edge26" class="edge"><title>Node2&#45;&gt;Node14</title>
<path fill="none" stroke="midnightblue" d="M261.108,-406.963C302.191,-396.42 366.479,-379.921 407.922,-369.285"/>
<polygon fill="midnightblue" stroke="midnightblue" points="408.866,-372.657 417.682,-366.781 407.126,-365.876 408.866,-372.657"/>
</g>
<!-- Node21 -->
<g id="node46" class="node"><title>Node21</title>
<a xlink:href="workunitkey_8h.html" target="_top" xlink:title="This file defines the metadata used to sort workunits.">
<polygon fill="white" stroke="black" points="387.5,-233 387.5,-253 462.5,-253 462.5,-233 387.5,-233"/>
<text text-anchor="middle" x="425" y="-240" font-family="FreeSans" font-size="10.00">workunitkey.h</text>
</a>
</g>
<!-- Node2&#45;&gt;Node21 -->
<g id="edge78" class="edge"><title>Node2&#45;&gt;Node21</title>
<path fill="none" stroke="midnightblue" d="M239.762,-406.84C269.019,-389.612 328.348,-352.564 371,-312 387.095,-296.693 402.397,-276.4 412.575,-261.788"/>
<polygon fill="midnightblue" stroke="midnightblue" points="415.744,-263.352 418.48,-253.117 409.959,-259.412 415.744,-263.352"/>
</g>
<!-- Node4 -->
<g id="node7" class="node"><title>Node4</title>
<a xlink:href="crossplatformexport_8h.html" target="_top" xlink:title="This file determines what features are offered by the compiler that this library can take advantage o...">
<polygon fill="white" stroke="black" points="3,-1 3,-21 111,-21 111,-1 3,-1"/>
<text text-anchor="middle" x="57" y="-8" font-family="FreeSans" font-size="10.00">crossplatformexport.h</text>
</a>
</g>
<!-- Node3&#45;&gt;Node4 -->
<g id="edge6" class="edge"><title>Node3&#45;&gt;Node4</title>
<path fill="none" stroke="midnightblue" d="M323.433,-62.6826C274.47,-53.1849 181.02,-35.0574 118.844,-22.9965"/>
<polygon fill="midnightblue" stroke="midnightblue" points="119.247,-19.5096 108.764,-21.0411 117.914,-26.3815 119.247,-19.5096"/>
</g>
<!-- Node5 -->
<g id="node9" class="node"><title>Node5</title>
<polygon fill="white" stroke="#bfbfbf" points="128.5,-1 128.5,-21 171.5,-21 171.5,-1 128.5,-1"/>
<text text-anchor="middle" x="150" y="-8" font-family="FreeSans" font-size="10.00">vector</text>
</g>
<!-- Node3&#45;&gt;Node5 -->
<g id="edge8" class="edge"><title>Node3&#45;&gt;Node5</title>
<path fill="none" stroke="midnightblue" d="M323.307,-61.2103C289.788,-53.0181 235.988,-39.3017 181.389,-22.2696"/>
<polygon fill="midnightblue" stroke="midnightblue" points="182.139,-18.8364 171.55,-19.1663 180.034,-25.5122 182.139,-18.8364"/>
</g>
<!-- Node6 -->
<g id="node11" class="node"><title>Node6</title>
<polygon fill="white" stroke="#bfbfbf" points="189,-1 189,-21 229,-21 229,-1 189,-1"/>
<text text-anchor="middle" x="209" y="-8" font-family="FreeSans" font-size="10.00">string</text>
</g>
<!-- Node3&#45;&gt;Node6 -->
<g id="edge10" class="edge"><title>Node3&#45;&gt;Node6</title>
<path fill="none" stroke="midnightblue" d="M330.395,-58.8972C304.865,-48.8245 265.682,-33.3644 238.778,-22.7491"/>
<polygon fill="midnightblue" stroke="midnightblue" points="239.709,-19.3538 229.122,-18.9393 237.139,-25.8653 239.709,-19.3538"/>
</g>
<!-- Node7 -->
<g id="node13" class="node"><title>Node7</title>
<polygon fill="white" stroke="#bfbfbf" points="246.5,-1 246.5,-21 297.5,-21 297.5,-1 246.5,-1"/>
<text text-anchor="middle" x="272" y="-8" font-family="FreeSans" font-size="10.00">ostream</text>
</g>
<!-- Node3&#45;&gt;Node7 -->
<g id="edge12" class="edge"><title>Node3&#45;&gt;Node7</title>
<path fill="none" stroke="midnightblue" d="M341.368,-58.8972C328.678,-50.1351 310.085,-37.2965 295.341,-27.1164"/>
<polygon fill="midnightblue" stroke="midnightblue" points="296.964,-23.9835 286.746,-21.1817 292.986,-29.7438 296.964,-23.9835"/>
</g>
<!-- Node8 -->
<g id="node15" class="node"><title>Node8</title>
<polygon fill="white" stroke="#bfbfbf" points="314.5,-1 314.5,-21 349.5,-21 349.5,-1 314.5,-1"/>
<text text-anchor="middle" x="332" y="-8" font-family="FreeSans" font-size="10.00">map</text>
</g>
<!-- Node3&#45;&gt;Node8 -->
<g id="edge14" class="edge"><title>Node3&#45;&gt;Node8</title>
<path fill="none" stroke="midnightblue" d="M351.82,-58.8972C348.624,-51.1747 344.118,-40.2857 340.21,-30.841"/>
<polygon fill="midnightblue" stroke="midnightblue" points="343.352,-29.2795 336.294,-21.3776 336.884,-31.956 343.352,-29.2795"/>
</g>
<!-- Node9 -->
<g id="node17" class="node"><title>Node9</title>
<polygon fill="white" stroke="#bfbfbf" points="366.5,-1 366.5,-21 395.5,-21 395.5,-1 366.5,-1"/>
<text text-anchor="middle" x="381" y="-8" font-family="FreeSans" font-size="10.00">set</text>
</g>
<!-- Node3&#45;&gt;Node9 -->
<g id="edge16" class="edge"><title>Node3&#45;&gt;Node9</title>
<path fill="none" stroke="midnightblue" d="M360.355,-58.8972C363.683,-51.1747 368.377,-40.2857 372.448,-30.841"/>
<polygon fill="midnightblue" stroke="midnightblue" points="375.783,-31.9463 376.527,-21.3776 369.354,-29.1754 375.783,-31.9463"/>
</g>
<!-- Node10 -->
<g id="node19" class="node"><title>Node10</title>
<polygon fill="white" stroke="#bfbfbf" points="413,-1 413,-21 463,-21 463,-1 413,-1"/>
<text text-anchor="middle" x="438" y="-8" font-family="FreeSans" font-size="10.00">sstream</text>
</g>
<!-- Node3&#45;&gt;Node10 -->
<g id="edge18" class="edge"><title>Node3&#45;&gt;Node10</title>
<path fill="none" stroke="midnightblue" d="M370.283,-58.8972C382.671,-50.1351 400.822,-37.2965 415.215,-27.1164"/>
<polygon fill="midnightblue" stroke="midnightblue" points="417.462,-29.8138 423.605,-21.1817 413.42,-24.0989 417.462,-29.8138"/>
</g>
<!-- Node11 -->
<g id="node21" class="node"><title>Node11</title>
<polygon fill="white" stroke="#bfbfbf" points="480.5,-1 480.5,-21 529.5,-21 529.5,-1 480.5,-1"/>
<text text-anchor="middle" x="505" y="-8" font-family="FreeSans" font-size="10.00">fstream</text>
</g>
<!-- Node3&#45;&gt;Node11 -->
<g id="edge20" class="edge"><title>Node3&#45;&gt;Node11</title>
<path fill="none" stroke="midnightblue" d="M381.954,-58.8972C406.608,-49.3004 443.824,-34.8134 470.871,-24.2852"/>
<polygon fill="midnightblue" stroke="midnightblue" points="472.284,-27.4911 480.333,-20.6019 469.744,-20.9679 472.284,-27.4911"/>
</g>
<!-- Node12 -->
<g id="node23" class="node"><title>Node12</title>
<polygon fill="white" stroke="#bfbfbf" points="547,-1 547,-21 603,-21 603,-1 547,-1"/>
<text text-anchor="middle" x="575" y="-8" font-family="FreeSans" font-size="10.00">algorithm</text>
</g>
<!-- Node3&#45;&gt;Node12 -->
<g id="edge22" class="edge"><title>Node3&#45;&gt;Node12</title>
<path fill="none" stroke="midnightblue" d="M388.643,-60.9493C423.145,-52.357 479.381,-38.1166 536.779,-22.2779"/>
<polygon fill="midnightblue" stroke="midnightblue" points="538.047,-25.5584 546.749,-19.5138 536.177,-18.8129 538.047,-25.5584"/>
</g>
<!-- Node13 -->
<g id="node25" class="node"><title>Node13</title>
<polygon fill="white" stroke="#bfbfbf" points="620.5,-1 620.5,-21 667.5,-21 667.5,-1 620.5,-1"/>
<text text-anchor="middle" x="644" y="-8" font-family="FreeSans" font-size="10.00">stdint.h</text>
</g>
<!-- Node3&#45;&gt;Node13 -->
<g id="edge24" class="edge"><title>Node3&#45;&gt;Node13</title>
<path fill="none" stroke="midnightblue" d="M388.671,-64.601C435.852,-57.9034 525.88,-43.832 610.588,-22.1141"/>
<polygon fill="midnightblue" stroke="midnightblue" points="611.561,-25.4775 620.355,-19.569 609.796,-18.7037 611.561,-25.4775"/>
</g>
<!-- Node14&#45;&gt;Node3 -->
<g id="edge28" class="edge"><title>Node14&#45;&gt;Node3</title>
<path fill="none" stroke="midnightblue" d="M478.115,-349.55C519.797,-334.37 590,-300.299 590,-243 590,-243 590,-243 590,-185 590,-142.734 465.902,-100.509 398.452,-80.6801"/>
<polygon fill="midnightblue" stroke="midnightblue" points="399.116,-77.2285 388.537,-77.8065 397.167,-83.9519 399.116,-77.2285"/>
</g>
<!-- Node15 -->
<g id="node30" class="node"><title>Node15</title>
<a xlink:href="framescheduler_8h.html" target="_top" xlink:title="This file has the Declarations for the main FrameScheduler class.">
<polygon fill="white" stroke="black" points="272,-291 272,-311 362,-311 362,-291 272,-291"/>
<text text-anchor="middle" x="317" y="-298" font-family="FreeSans" font-size="10.00">framescheduler.h</text>
</a>
</g>
<!-- Node14&#45;&gt;Node15 -->
<g id="edge30" class="edge"><title>Node14&#45;&gt;Node15</title>
<path fill="none" stroke="midnightblue" d="M425.182,-348.897C404.178,-339.598 372.803,-325.707 349.242,-315.275"/>
<polygon fill="midnightblue" stroke="midnightblue" points="350.557,-312.03 339.997,-311.182 347.723,-318.431 350.557,-312.03"/>
</g>
<!-- Node17 -->
<g id="node36" class="node"><title>Node17</title>
<a xlink:href="thread_8h.html" target="_top" xlink:title="This file defines a minimalistic cross&#45;platform thread that the scheduler uses to schedule tasks...">
<polygon fill="white" stroke="black" points="205.5,-233 205.5,-253 256.5,-253 256.5,-233 205.5,-233"/>
<text text-anchor="middle" x="231" y="-240" font-family="FreeSans" font-size="10.00">thread.h</text>
</a>
</g>
<!-- Node14&#45;&gt;Node17 -->
<g id="edge74" class="edge"><title>Node14&#45;&gt;Node17</title>
<path fill="none" stroke="midnightblue" d="M417.898,-354.558C371.768,-347.232 286.461,-331.469 263,-312 247.974,-299.53 239.629,-278.444 235.262,-262.856"/>
<polygon fill="midnightblue" stroke="midnightblue" points="238.65,-261.976 232.84,-253.116 231.856,-263.665 238.65,-261.976"/>
</g>
<!-- Node19 -->
<g id="node41" class="node"><title>Node19</title>
<a xlink:href="mutex_8h.html" target="_top" xlink:title="This file declares and defines a mutex that is a partial implementation.">
<polygon fill="white" stroke="black" points="137,-175 137,-195 187,-195 187,-175 137,-175"/>
<text text-anchor="middle" x="162" y="-182" font-family="FreeSans" font-size="10.00">mutex.h</text>
</a>
</g>
<!-- Node14&#45;&gt;Node19 -->
<g id="edge66" class="edge"><title>Node14&#45;&gt;Node19</title>
<path fill="none" stroke="midnightblue" d="M417.643,-354.567C367.95,-346.898 271.874,-330.216 243,-312 202.991,-286.759 179.081,-233.779 168.494,-204.864"/>
<polygon fill="midnightblue" stroke="midnightblue" points="171.677,-203.361 165.084,-195.068 165.066,-205.663 171.677,-203.361"/>
</g>
<!-- Node14&#45;&gt;Node21 -->
<g id="edge76" class="edge"><title>Node14&#45;&gt;Node21</title>
<path fill="none" stroke="midnightblue" d="M445.959,-348.706C442.147,-329.482 433.888,-287.825 428.952,-262.929"/>
<polygon fill="midnightblue" stroke="midnightblue" points="432.382,-262.234 427.004,-253.106 425.515,-263.595 432.382,-262.234"/>
</g>
<!-- Node22 -->
<g id="node50" class="node"><title>Node22</title>
<a xlink:href="rollingaverage_8h.html" target="_top" xlink:title="This stores the implementation and the declaration of the RollingAverage, BufferedRollingAverage, WeightedRollingAverage and the DefaultRollingAverage.">
<polygon fill="white" stroke="black" points="479.5,-233 479.5,-253 562.5,-253 562.5,-233 479.5,-233"/>
<text text-anchor="middle" x="521" y="-240" font-family="FreeSans" font-size="10.00">rollingaverage.h</text>
</a>
</g>
<!-- Node14&#45;&gt;Node22 -->
<g id="edge68" class="edge"><title>Node14&#45;&gt;Node22</title>
<path fill="none" stroke="midnightblue" d="M454.478,-348.706C466.793,-329.137 493.736,-286.323 509.291,-261.606"/>
<polygon fill="midnightblue" stroke="midnightblue" points="512.276,-263.433 514.64,-253.106 506.352,-259.705 512.276,-263.433"/>
</g>
<!-- Node24 -->
<g id="node59" class="node"><title>Node24</title>
<a xlink:href="threadingenumerations_8h.html" target="_top" xlink:title="Any enumerations the threading library requires are all declared here.">
<polygon fill="white" stroke="black" points="618,-117 618,-137 740,-137 740,-117 618,-117"/>
<text text-anchor="middle" x="679" y="-124" font-family="FreeSans" font-size="10.00">threadingenumerations.h</text>
</a>
</g>
<!-- Node14&#45;&gt;Node24 -->
<g id="edge70" class="edge"><title>Node14&#45;&gt;Node24</title>
<path fill="none" stroke="midnightblue" d="M478.113,-353.153C518.007,-344.876 585.499,-328.863 604,-312 653.21,-267.145 670.799,-185.418 676.513,-147.427"/>
<polygon fill="midnightblue" stroke="midnightblue" points="680.034,-147.513 677.927,-137.13 673.099,-146.561 680.034,-147.513"/>
</g>
<!-- Node15&#45;&gt;Node3 -->
<g id="edge32" class="edge"><title>Node15&#45;&gt;Node3</title>
<path fill="none" stroke="midnightblue" d="M322.137,-290.913C331.147,-272.589 349.465,-232.365 356,-196 362.663,-158.927 360.433,-114.777 358.212,-89.5053"/>
<polygon fill="midnightblue" stroke="midnightblue" points="361.673,-88.9311 357.224,-79.3155 354.706,-89.6066 361.673,-88.9311"/>
</g>
<!-- Node15&#45;&gt;Node16 -->
<g id="edge34" class="edge"><title>Node15&#45;&gt;Node16</title>
<path fill="none" stroke="midnightblue" d="M277.546,-290.963C238.925,-281.139 179.978,-266.144 138.291,-255.539"/>
<polygon fill="midnightblue" stroke="midnightblue" points="138.907,-252.084 128.353,-253.011 137.181,-258.868 138.907,-252.084"/>
</g>
<!-- Node15&#45;&gt;Node17 -->
<g id="edge38" class="edge"><title>Node15&#45;&gt;Node17</title>
<path fill="none" stroke="midnightblue" d="M302.02,-290.897C288.905,-282.052 269.632,-269.054 254.471,-258.829"/>
<polygon fill="midnightblue" stroke="midnightblue" points="256.345,-255.871 246.097,-253.182 252.431,-261.675 256.345,-255.871"/>
</g>
<!-- Node18 -->
<g id="node38" class="node"><title>Node18</title>
<a xlink:href="systemcalls_8h.html" target="_top" xlink:title="This file defines a minimalistic cross&#45;platform thread that the scheduler uses to schedule tasks...">
<polygon fill="white" stroke="black" points="205,-175 205,-195 279,-195 279,-175 205,-175"/>
<text text-anchor="middle" x="242" y="-182" font-family="FreeSans" font-size="10.00">systemcalls.h</text>
</a>
</g>
<!-- Node15&#45;&gt;Node18 -->
<g id="edge54" class="edge"><title>Node15&#45;&gt;Node18</title>
<path fill="none" stroke="midnightblue" d="M310.344,-290.706C297.692,-271.137 270.011,-228.323 254.03,-203.606"/>
<polygon fill="midnightblue" stroke="midnightblue" points="256.902,-201.603 248.534,-195.106 251.024,-205.404 256.902,-201.603"/>
</g>
<!-- Node15&#45;&gt;Node21 -->
<g id="edge50" class="edge"><title>Node15&#45;&gt;Node21</title>
<path fill="none" stroke="midnightblue" d="M335.812,-290.897C352.743,-281.804 377.849,-268.322 397.114,-257.976"/>
<polygon fill="midnightblue" stroke="midnightblue" points="398.887,-260.996 406.041,-253.182 395.575,-254.829 398.887,-260.996"/>
</g>
<!-- Node15&#45;&gt;Node22 -->
<g id="edge56" class="edge"><title>Node15&#45;&gt;Node22</title>
<path fill="none" stroke="midnightblue" d="M352.534,-290.897C386.655,-281.196 438.351,-266.498 475.474,-255.944"/>
<polygon fill="midnightblue" stroke="midnightblue" points="476.87,-259.186 485.531,-253.084 474.955,-252.452 476.87,-259.186"/>
</g>
<!-- Node23 -->
<g id="node53" class="node"><title>Node23</title>
<a xlink:href="barrier_8h.html" target="_top" xlink:title="The declaration of the Mezzanine::Threading::Barrier Barrier synchronization primitive.">
<polygon fill="white" stroke="black" points="296.5,-175 296.5,-195 347.5,-195 347.5,-175 296.5,-175"/>
<text text-anchor="middle" x="322" y="-182" font-family="FreeSans" font-size="10.00">barrier.h</text>
</a>
</g>
<!-- Node15&#45;&gt;Node23 -->
<g id="edge60" class="edge"><title>Node15&#45;&gt;Node23</title>
<path fill="none" stroke="midnightblue" d="M317.444,-290.706C318.269,-271.568 320.052,-230.198 321.126,-205.265"/>
<polygon fill="midnightblue" stroke="midnightblue" points="324.63,-205.247 321.564,-195.106 317.637,-204.945 324.63,-205.247"/>
</g>
<!-- Node16&#45;&gt;Node3 -->
<g id="edge36" class="edge"><title>Node16&#45;&gt;Node3</title>
<path fill="none" stroke="midnightblue" d="M93.3547,-232.982C99.7352,-218.944 112.558,-193.012 128,-174 152.62,-143.688 159.761,-134.779 194,-116 231.696,-95.3247 279.435,-82.9057 313.301,-76.0731"/>
<polygon fill="midnightblue" stroke="midnightblue" points="314.187,-79.4667 323.339,-74.1291 312.856,-72.5944 314.187,-79.4667"/>
</g>
<!-- Node17&#45;&gt;Node18 -->
<g id="edge40" class="edge"><title>Node17&#45;&gt;Node18</title>
<path fill="none" stroke="midnightblue" d="M232.916,-232.897C234.349,-225.339 236.358,-214.748 238.122,-205.446"/>
<polygon fill="midnightblue" stroke="midnightblue" points="241.607,-205.855 240.032,-195.378 234.73,-204.55 241.607,-205.855"/>
</g>
<!-- Node17&#45;&gt;Node19 -->
<g id="edge44" class="edge"><title>Node17&#45;&gt;Node19</title>
<path fill="none" stroke="midnightblue" d="M218.981,-232.897C208.817,-224.353 194.041,-211.933 182.083,-201.881"/>
<polygon fill="midnightblue" stroke="midnightblue" points="184.253,-199.133 174.346,-195.378 179.749,-204.491 184.253,-199.133"/>
</g>
<!-- Node18&#45;&gt;Node3 -->
<g id="edge42" class="edge"><title>Node18&#45;&gt;Node3</title>
<path fill="none" stroke="midnightblue" d="M228.757,-174.97C212.121,-161.142 187.417,-135.698 202,-116 215.34,-97.9811 272.425,-84.0903 313.197,-76.2288"/>
<polygon fill="midnightblue" stroke="midnightblue" points="313.99,-79.6413 323.175,-74.3611 312.702,-72.7608 313.99,-79.6413"/>
</g>
<!-- Node20 -->
<g id="node43" class="node"><title>Node20</title>
<a xlink:href="atomicoperations_8h.html" target="_top" xlink:title="Simple thread safe ways to check and change a specified variable atomically.">
<polygon fill="white" stroke="black" points="211,-117 211,-137 309,-137 309,-117 211,-117"/>
<text text-anchor="middle" x="260" y="-124" font-family="FreeSans" font-size="10.00">atomicoperations.h</text>
</a>
</g>
<!-- Node19&#45;&gt;Node20 -->
<g id="edge46" class="edge"><title>Node19&#45;&gt;Node20</title>
<path fill="none" stroke="midnightblue" d="M179.07,-174.897C194.154,-165.97 216.389,-152.811 233.738,-142.543"/>
<polygon fill="midnightblue" stroke="midnightblue" points="235.973,-145.287 242.797,-137.182 232.408,-139.263 235.973,-145.287"/>
</g>
<!-- Node20&#45;&gt;Node3 -->
<g id="edge48" class="edge"><title>Node20&#45;&gt;Node3</title>
<path fill="none" stroke="midnightblue" d="M276.722,-116.897C291.498,-107.97 313.279,-94.8106 330.274,-84.5431"/>
<polygon fill="midnightblue" stroke="midnightblue" points="332.398,-87.3486 339.148,-79.1817 328.779,-81.3572 332.398,-87.3486"/>
</g>
<!-- Node21&#45;&gt;Node3 -->
<g id="edge52" class="edge"><title>Node21&#45;&gt;Node3</title>
<path fill="none" stroke="midnightblue" d="M423.296,-232.706C419.371,-210.538 408.499,-156.973 389,-116 384.167,-105.844 377.185,-95.5117 370.887,-87.1309"/>
<polygon fill="midnightblue" stroke="midnightblue" points="373.602,-84.9215 364.689,-79.1929 368.084,-89.2291 373.602,-84.9215"/>
</g>
<!-- Node22&#45;&gt;Node3 -->
<g id="edge58" class="edge"><title>Node22&#45;&gt;Node3</title>
<path fill="none" stroke="midnightblue" d="M512.442,-232.827C493.869,-210.891 448.21,-157.753 407,-116 396.824,-105.69 384.948,-94.6895 375.218,-85.9251"/>
<polygon fill="midnightblue" stroke="midnightblue" points="377.424,-83.2027 367.634,-79.1531 372.762,-88.4242 377.424,-83.2027"/>
</g>
<!-- Node23&#45;&gt;Node3 -->
<g id="edge62" class="edge"><title>Node23&#45;&gt;Node3</title>
<path fill="none" stroke="midnightblue" d="M325.017,-174.706C330.652,-155.482 342.862,-113.825 350.159,-88.9294"/>
<polygon fill="midnightblue" stroke="midnightblue" points="353.584,-89.6863 353.038,-79.1055 346.867,-87.7173 353.584,-89.6863"/>
</g>
<!-- Node23&#45;&gt;Node20 -->
<g id="edge64" class="edge"><title>Node23&#45;&gt;Node20</title>
<path fill="none" stroke="midnightblue" d="M311.2,-174.897C302.243,-166.517 289.3,-154.409 278.668,-144.464"/>
<polygon fill="midnightblue" stroke="midnightblue" points="280.787,-141.653 271.093,-137.378 276.005,-146.765 280.787,-141.653"/>
</g>
<!-- Node24&#45;&gt;Node3 -->
<g id="edge72" class="edge"><title>Node24&#45;&gt;Node3</title>
<path fill="none" stroke="midnightblue" d="M623.106,-116.963C559.232,-105.494 456.109,-86.9762 398.467,-76.6257"/>
<polygon fill="midnightblue" stroke="midnightblue" points="399.056,-73.1755 388.595,-74.8529 397.819,-80.0653 399.056,-73.1755"/>
</g>
</g>
</svg>
