<?xml version="1.0" encoding="UTF-8" standalone="no"?>
<!DOCTYPE svg PUBLIC "-//W3C//DTD SVG 1.1//EN"
 "http://www.w3.org/Graphics/SVG/1.1/DTD/svg11.dtd">
<!-- Generated by graphviz version 2.26.3 (20100126.1600)
 -->
<!-- Title: G Pages: 1 -->
<!--zoomable 512 -->
<svg id="main" version="1.1" xmlns="http://www.w3.org/2000/svg" xmlns:xlink="http://www.w3.org/1999/xlink" xml:space="preserve" onload="init(evt)">
        <defs>
                <circle id="rim" cx="0" cy="0" r="7"/>
                <circle id="rim2" cx="0" cy="0" r="3.5"/>
                <g id="zoomPlus">
                        <use xlink:href="#rim" fill="#404040">
                                <set attributeName="fill" to="#808080" begin="zoomplus.mouseover" end="zoomplus.mouseout"/>
                        </use>
                        <path d="M-4,0h8M0,-4v8" fill="none" stroke="white" stroke-width="1.5" pointer-events="none"/>
                </g>
                <g id="zoomMin">
                        <use xlink:href="#rim" fill="#404040">
                                <set attributeName="fill" to="#808080" begin="zoomminus.mouseover" end="zoomminus.mouseout"/>
                        </use>
                        <path d="M-4,0h8" fill="none" stroke="white" stroke-width="1.5" pointer-events="none"/>
                </g>
                <g id="dirArrow">
                        <path fill="none" stroke="white" stroke-width="1.5" d="M0,-3.0v7 M-2.5,-0.5L0,-3.0L2.5,-0.5"/>
                </g>
               <g id="resetDef">
                       <use xlink:href="#rim2" fill="#404040">
                               <set attributeName="fill" to="#808080" begin="reset.mouseover" end="reset.mouseout"/>
                       </use>
               </g>
        </defs>

<script type="text/javascript">
var viewWidth = 1007;
var viewHeight = 512;
var sectionId = 'dynsection-0';
</script>
<script xlink:href="svgpan.js"/>
<svg id="graph" class="graph">
<g id="viewport">
<title>G</title>
<polygon fill="white" stroke="white" points="-4,5 -4,-508 1003.61,-508 1003.61,5 -4,5"/>
<!-- Node1 -->
<g id="node1" class="node"><title>Node1</title>
<polygon fill="#bfbfbf" stroke="black" points="737.611,-481 737.611,-503 841.611,-503 841.611,-481 737.611,-481"/>
<text text-anchor="middle" x="789.611" y="-490" font-family="FreeSans" font-size="10.00">framescheduler.cpp</text>
</g>
<!-- Node2 -->
<g id="node3" class="node"><title>Node2</title>
<a xlink:href="framescheduler_8h.html" target="_top" xlink:title="This file has the Declarations for the main FrameScheduler class.">
<polygon fill="white" stroke="black" points="118.611,-301 118.611,-323 212.611,-323 212.611,-301 118.611,-301"/>
<text text-anchor="middle" x="165.611" y="-310" font-family="FreeSans" font-size="10.00">framescheduler.h</text>
</a>
</g>
<!-- Node1&#45;&gt;Node2 -->
<g id="edge2" class="edge"><title>Node1&#45;&gt;Node2</title>
<path fill="none" stroke="midnightblue" d="M738.173,-480.951C696.366,-471.747 635.953,-457.935 583.611,-444 443.73,-406.76 280.953,-351.987 206.527,-326.294"/>
<polygon fill="midnightblue" stroke="midnightblue" points="207.641,-322.976 197.046,-323.014 205.352,-329.592 207.641,-322.976"/>
</g>
<!-- Node20 -->
<g id="node45" class="node"><title>Node20</title>
<a xlink:href="doublebufferedresource_8h.html" target="_top" xlink:title="This file defines the template double buffered resources that can be attached to a thread...">
<polygon fill="white" stroke="black" points="678.111,-421 678.111,-443 809.111,-443 809.111,-421 678.111,-421"/>
<text text-anchor="middle" x="743.611" y="-430" font-family="FreeSans" font-size="10.00">doublebufferedresource.h</text>
</a>
</g>
<!-- Node1&#45;&gt;Node20 -->
<g id="edge50" class="edge"><title>Node1&#45;&gt;Node20</title>
<path fill="none" stroke="midnightblue" d="M781.174,-480.995C774.835,-472.727 765.988,-461.188 758.473,-451.385"/>
<polygon fill="midnightblue" stroke="midnightblue" points="761.169,-449.149 752.307,-443.343 755.614,-453.408 761.169,-449.149"/>
</g>
<!-- Node21 -->
<g id="node48" class="node"><title>Node21</title>
<polygon fill="white" stroke="#bfbfbf" points="816.611,-361 816.611,-383 874.611,-383 874.611,-361 816.611,-361"/>
<text text-anchor="middle" x="845.611" y="-370" font-family="FreeSans" font-size="10.00">algorithm</text>
</g>
<!-- Node1&#45;&gt;Node21 -->
<g id="edge90" class="edge"><title>Node1&#45;&gt;Node21</title>
<path fill="none" stroke="midnightblue" d="M796.803,-480.83C802.791,-471.273 811.323,-457.034 817.611,-444 825.677,-427.281 833.206,-407.594 838.42,-393.036"/>
<polygon fill="midnightblue" stroke="midnightblue" points="841.773,-394.052 841.783,-383.458 835.168,-391.734 841.773,-394.052"/>
</g>
<!-- Node23 -->
<g id="node53" class="node"><title>Node23</title>
<a xlink:href="monopoly_8h.html" target="_top" xlink:title="Contains an interface for a kind of WorkUnit that consumes time on multiple thread.">
<polygon fill="white" stroke="black" points="592.611,-421 592.611,-443 660.611,-443 660.611,-421 592.611,-421"/>
<text text-anchor="middle" x="626.611" y="-430" font-family="FreeSans" font-size="10.00">monopoly.h</text>
</a>
</g>
<!-- Node1&#45;&gt;Node23 -->
<g id="edge60" class="edge"><title>Node1&#45;&gt;Node23</title>
<path fill="none" stroke="midnightblue" d="M759.715,-480.995C733.488,-471.341 695.151,-457.229 666.349,-446.627"/>
<polygon fill="midnightblue" stroke="midnightblue" points="667.187,-443.206 656.594,-443.037 664.769,-449.776 667.187,-443.206"/>
</g>
<!-- Node27 -->
<g id="node70" class="node"><title>Node27</title>
<polygon fill="white" stroke="#bfbfbf" points="864.611,-421 864.611,-443 924.611,-443 924.611,-421 864.611,-421"/>
<text text-anchor="middle" x="894.611" y="-430" font-family="FreeSans" font-size="10.00">exception</text>
</g>
<!-- Node1&#45;&gt;Node27 -->
<g id="edge86" class="edge"><title>Node1&#45;&gt;Node27</title>
<path fill="none" stroke="midnightblue" d="M808.87,-480.995C824.902,-471.834 847.96,-458.658 866.128,-448.276"/>
<polygon fill="midnightblue" stroke="midnightblue" points="868.173,-451.139 875.119,-443.138 864.7,-445.061 868.173,-451.139"/>
</g>
<!-- Node28 -->
<g id="node72" class="node"><title>Node28</title>
<polygon fill="white" stroke="#bfbfbf" points="942.611,-421 942.611,-443 998.611,-443 998.611,-421 942.611,-421"/>
<text text-anchor="middle" x="970.611" y="-430" font-family="FreeSans" font-size="10.00">iostream</text>
</g>
<!-- Node1&#45;&gt;Node28 -->
<g id="edge88" class="edge"><title>Node1&#45;&gt;Node28</title>
<path fill="none" stroke="midnightblue" d="M822.809,-480.995C853.886,-470.694 900.276,-455.316 932.773,-444.543"/>
<polygon fill="midnightblue" stroke="midnightblue" points="933.989,-447.827 942.38,-441.359 931.786,-441.183 933.989,-447.827"/>
</g>
<!-- Node3 -->
<g id="node5" class="node"><title>Node3</title>
<a xlink:href="datatypes_8h.html" target="_top" xlink:title="This file declares a few typedefs to allow flexibility, in case a change is required/desired.">
<polygon fill="white" stroke="black" points="402.611,-121 402.611,-143 470.611,-143 470.611,-121 402.611,-121"/>
<text text-anchor="middle" x="436.611" y="-130" font-family="FreeSans" font-size="10.00">datatypes.h</text>
</a>
</g>
<!-- Node2&#45;&gt;Node3 -->
<g id="edge4" class="edge"><title>Node2&#45;&gt;Node3</title>
<path fill="none" stroke="midnightblue" d="M168.953,-300.711C178.231,-269.525 203.926,-184.207 208.611,-180 222.189,-167.807 329.914,-148.954 392.311,-138.888"/>
<polygon fill="midnightblue" stroke="midnightblue" points="392.966,-142.328 402.287,-137.291 391.859,-135.416 392.966,-142.328"/>
</g>
<!-- Node11 -->
<g id="node21" class="node"><title>Node11</title>
<a xlink:href="thread_8h.html" target="_top" xlink:title="This file defines a minimalistic cross&#45;platform thread that the scheduler uses to schedule tasks...">
<polygon fill="white" stroke="black" points="286.111,-241 286.111,-263 339.111,-263 339.111,-241 286.111,-241"/>
<text text-anchor="middle" x="312.611" y="-250" font-family="FreeSans" font-size="10.00">thread.h</text>
</a>
</g>
<!-- Node2&#45;&gt;Node11 -->
<g id="edge20" class="edge"><title>Node2&#45;&gt;Node11</title>
<path fill="none" stroke="midnightblue" d="M192.573,-300.995C216.092,-291.396 250.411,-277.388 276.335,-266.806"/>
<polygon fill="midnightblue" stroke="midnightblue" points="277.884,-269.955 285.82,-262.935 275.239,-263.474 277.884,-269.955"/>
</g>
<!-- Node12 -->
<g id="node24" class="node"><title>Node12</title>
<a xlink:href="systemcalls_8h.html" target="_top" xlink:title="This file defines a minimalistic cross&#45;platform thread that the scheduler uses to schedule tasks...">
<polygon fill="white" stroke="black" points="217.111,-181 217.111,-203 294.111,-203 294.111,-181 217.111,-181"/>
<text text-anchor="middle" x="255.611" y="-190" font-family="FreeSans" font-size="10.00">systemcalls.h</text>
</a>
</g>
<!-- Node2&#45;&gt;Node12 -->
<g id="edge42" class="edge"><title>Node2&#45;&gt;Node12</title>
<path fill="none" stroke="midnightblue" d="M178.022,-300.879C188.012,-291.579 202.074,-277.672 212.611,-264 225.37,-247.445 237.341,-226.816 245.396,-211.888"/>
<polygon fill="midnightblue" stroke="midnightblue" points="248.514,-213.479 250.092,-203.002 242.325,-210.208 248.514,-213.479"/>
</g>
<!-- Node16 -->
<g id="node35" class="node"><title>Node16</title>
<a xlink:href="workunitkey_8h.html" target="_top" xlink:title="This file defines the metadata used to sort workunits.">
<polygon fill="white" stroke="black" points="356.111,-241 356.111,-263 433.111,-263 433.111,-241 356.111,-241"/>
<text text-anchor="middle" x="394.611" y="-250" font-family="FreeSans" font-size="10.00">workunitkey.h</text>
</a>
</g>
<!-- Node2&#45;&gt;Node16 -->
<g id="edge38" class="edge"><title>Node2&#45;&gt;Node16</title>
<path fill="none" stroke="midnightblue" d="M207.613,-300.995C246.739,-290.744 305.051,-275.465 346.136,-264.701"/>
<polygon fill="midnightblue" stroke="midnightblue" points="347.14,-268.056 355.926,-262.136 345.366,-261.285 347.14,-268.056"/>
</g>
<!-- Node17 -->
<g id="node39" class="node"><title>Node17</title>
<polygon fill="white" stroke="#bfbfbf" points="86.6113,-241 86.6113,-263 122.611,-263 122.611,-241 86.6113,-241"/>
<text text-anchor="middle" x="104.611" y="-250" font-family="FreeSans" font-size="10.00">map</text>
</g>
<!-- Node2&#45;&gt;Node17 -->
<g id="edge44" class="edge"><title>Node2&#45;&gt;Node17</title>
<path fill="none" stroke="midnightblue" d="M154.423,-300.995C145.762,-292.476 133.571,-280.485 123.418,-270.499"/>
<polygon fill="midnightblue" stroke="midnightblue" points="125.727,-267.86 116.143,-263.343 120.818,-272.851 125.727,-267.86"/>
</g>
<!-- Node18 -->
<g id="node41" class="node"><title>Node18</title>
<polygon fill="white" stroke="#bfbfbf" points="140.611,-241 140.611,-263 170.611,-263 170.611,-241 140.611,-241"/>
<text text-anchor="middle" x="155.611" y="-250" font-family="FreeSans" font-size="10.00">set</text>
</g>
<!-- Node2&#45;&gt;Node18 -->
<g id="edge46" class="edge"><title>Node2&#45;&gt;Node18</title>
<path fill="none" stroke="midnightblue" d="M163.777,-300.995C162.496,-293.311 160.745,-282.803 159.193,-273.488"/>
<polygon fill="midnightblue" stroke="midnightblue" points="162.598,-272.631 157.502,-263.343 155.693,-273.782 162.598,-272.631"/>
</g>
<!-- Node19 -->
<g id="node43" class="node"><title>Node19</title>
<polygon fill="white" stroke="#bfbfbf" points="18.6113,-241 18.6113,-263 68.6113,-263 68.6113,-241 18.6113,-241"/>
<text text-anchor="middle" x="43.6113" y="-250" font-family="FreeSans" font-size="10.00">fstream</text>
</g>
<!-- Node2&#45;&gt;Node19 -->
<g id="edge48" class="edge"><title>Node2&#45;&gt;Node19</title>
<path fill="none" stroke="midnightblue" d="M143.235,-300.995C124.179,-291.624 96.5818,-278.051 75.2631,-267.566"/>
<polygon fill="midnightblue" stroke="midnightblue" points="76.7774,-264.411 66.2592,-263.138 73.6881,-270.692 76.7774,-264.411"/>
</g>
<!-- Node4 -->
<g id="node7" class="node"><title>Node4</title>
<a xlink:href="compilerthreadcompat_8h.html" target="_top" xlink:title="This file determines what features are offered by the compiler that this library can take advantage o...">
<polygon fill="white" stroke="black" points="239.611,-61 239.611,-83 363.611,-83 363.611,-61 239.611,-61"/>
<text text-anchor="middle" x="301.611" y="-70" font-family="FreeSans" font-size="10.00">compilerthreadcompat.h</text>
</a>
</g>
<!-- Node3&#45;&gt;Node4 -->
<g id="edge6" class="edge"><title>Node3&#45;&gt;Node4</title>
<path fill="none" stroke="midnightblue" d="M411.85,-120.995C390.575,-111.54 359.678,-97.8073 336.003,-87.2851"/>
<polygon fill="midnightblue" stroke="midnightblue" points="337.232,-84.0014 326.673,-83.1383 334.389,-90.3981 337.232,-84.0014"/>
</g>
<!-- Node9 -->
<g id="node17" class="node"><title>Node9</title>
<polygon fill="white" stroke="#bfbfbf" points="381.111,-61 381.111,-83 422.111,-83 422.111,-61 381.111,-61"/>
<text text-anchor="middle" x="401.611" y="-70" font-family="FreeSans" font-size="10.00">string</text>
</g>
<!-- Node3&#45;&gt;Node9 -->
<g id="edge16" class="edge"><title>Node3&#45;&gt;Node9</title>
<path fill="none" stroke="midnightblue" d="M430.192,-120.995C425.466,-112.894 418.909,-101.653 413.267,-91.981"/>
<polygon fill="midnightblue" stroke="midnightblue" points="416.29,-90.2171 408.228,-83.3428 410.243,-93.7442 416.29,-90.2171"/>
</g>
<!-- Node10 -->
<g id="node19" class="node"><title>Node10</title>
<polygon fill="white" stroke="#bfbfbf" points="439.111,-61 439.111,-83 486.111,-83 486.111,-61 439.111,-61"/>
<text text-anchor="middle" x="462.611" y="-70" font-family="FreeSans" font-size="10.00">stdint.h</text>
</g>
<!-- Node3&#45;&gt;Node10 -->
<g id="edge18" class="edge"><title>Node3&#45;&gt;Node10</title>
<path fill="none" stroke="midnightblue" d="M441.38,-120.995C444.818,-113.061 449.562,-102.115 453.693,-92.5812"/>
<polygon fill="midnightblue" stroke="midnightblue" points="456.931,-93.9101 457.696,-83.3428 450.508,-91.1268 456.931,-93.9101"/>
</g>
<!-- Node5 -->
<g id="node9" class="node"><title>Node5</title>
<polygon fill="white" stroke="#bfbfbf" points="166.611,-1 166.611,-23 224.611,-23 224.611,-1 166.611,-1"/>
<text text-anchor="middle" x="195.611" y="-10" font-family="FreeSans" font-size="10.00">pthread.h</text>
</g>
<!-- Node4&#45;&gt;Node5 -->
<g id="edge8" class="edge"><title>Node4&#45;&gt;Node5</title>
<path fill="none" stroke="midnightblue" d="M282.169,-60.9951C265.91,-51.7917 242.493,-38.5366 224.114,-28.1336"/>
<polygon fill="midnightblue" stroke="midnightblue" points="225.716,-25.0185 215.289,-23.1383 222.267,-31.1103 225.716,-25.0185"/>
</g>
<!-- Node6 -->
<g id="node11" class="node"><title>Node6</title>
<polygon fill="white" stroke="#bfbfbf" points="242.111,-1 242.111,-23 293.111,-23 293.111,-1 242.111,-1"/>
<text text-anchor="middle" x="267.611" y="-10" font-family="FreeSans" font-size="10.00">signal.h</text>
</g>
<!-- Node4&#45;&gt;Node6 -->
<g id="edge10" class="edge"><title>Node4&#45;&gt;Node6</title>
<path fill="none" stroke="midnightblue" d="M295.375,-60.9951C290.832,-52.9771 284.546,-41.884 279.104,-32.2806"/>
<polygon fill="midnightblue" stroke="midnightblue" points="282.014,-30.3175 274.039,-23.3428 275.924,-33.7686 282.014,-30.3175"/>
</g>
<!-- Node7 -->
<g id="node13" class="node"><title>Node7</title>
<polygon fill="white" stroke="#bfbfbf" points="310.611,-1 310.611,-23 362.611,-23 362.611,-1 310.611,-1"/>
<text text-anchor="middle" x="336.611" y="-10" font-family="FreeSans" font-size="10.00">sched.h</text>
</g>
<!-- Node4&#45;&gt;Node7 -->
<g id="edge12" class="edge"><title>Node4&#45;&gt;Node7</title>
<path fill="none" stroke="midnightblue" d="M308.031,-60.9951C312.757,-52.8936 319.314,-41.6525 324.956,-31.981"/>
<polygon fill="midnightblue" stroke="midnightblue" points="327.979,-33.7442 329.995,-23.3428 321.933,-30.2171 327.979,-33.7442"/>
</g>
<!-- Node8 -->
<g id="node15" class="node"><title>Node8</title>
<polygon fill="white" stroke="#bfbfbf" points="380.611,-1 380.611,-23 430.611,-23 430.611,-1 380.611,-1"/>
<text text-anchor="middle" x="405.611" y="-10" font-family="FreeSans" font-size="10.00">unistd.h</text>
</g>
<!-- Node4&#45;&gt;Node8 -->
<g id="edge14" class="edge"><title>Node4&#45;&gt;Node8</title>
<path fill="none" stroke="midnightblue" d="M320.686,-60.9951C336.566,-51.8337 359.405,-38.6576 377.399,-28.2763"/>
<polygon fill="midnightblue" stroke="midnightblue" points="379.392,-31.1673 386.305,-23.1383 375.894,-25.104 379.392,-31.1673"/>
</g>
<!-- Node11&#45;&gt;Node4 -->
<g id="edge22" class="edge"><title>Node11&#45;&gt;Node4</title>
<path fill="none" stroke="midnightblue" d="M286.002,-247.918C261.192,-242.547 225.545,-230.466 208.611,-204 181.451,-161.551 238.293,-113.629 274.556,-88.8523"/>
<polygon fill="midnightblue" stroke="midnightblue" points="276.872,-91.5157 283.268,-83.0692 273.001,-85.6836 276.872,-91.5157"/>
</g>
<!-- Node11&#45;&gt;Node12 -->
<g id="edge24" class="edge"><title>Node11&#45;&gt;Node12</title>
<path fill="none" stroke="midnightblue" d="M302.157,-240.995C294.143,-232.56 282.895,-220.72 273.464,-210.793"/>
<polygon fill="midnightblue" stroke="midnightblue" points="275.812,-208.182 266.387,-203.343 270.737,-213.003 275.812,-208.182"/>
</g>
<!-- Node13 -->
<g id="node27" class="node"><title>Node13</title>
<a xlink:href="mutex_8h.html" target="_top" xlink:title="This file declares and defines a mutex that is a partial implementation.">
<polygon fill="white" stroke="black" points="289.111,-121 289.111,-143 340.111,-143 340.111,-121 289.111,-121"/>
<text text-anchor="middle" x="314.611" y="-130" font-family="FreeSans" font-size="10.00">mutex.h</text>
</a>
</g>
<!-- Node11&#45;&gt;Node13 -->
<g id="edge28" class="edge"><title>Node11&#45;&gt;Node13</title>
<path fill="none" stroke="midnightblue" d="M312.796,-240.926C313.128,-221.012 313.83,-178.851 314.258,-153.216"/>
<polygon fill="midnightblue" stroke="midnightblue" points="317.76,-153.104 314.427,-143.047 310.761,-152.988 317.76,-153.104"/>
</g>
<!-- Node14 -->
<g id="node31" class="node"><title>Node14</title>
<polygon fill="white" stroke="#bfbfbf" points="349.111,-181 349.111,-203 402.111,-203 402.111,-181 349.111,-181"/>
<text text-anchor="middle" x="375.611" y="-190" font-family="FreeSans" font-size="10.00">ostream</text>
</g>
<!-- Node11&#45;&gt;Node14 -->
<g id="edge34" class="edge"><title>Node11&#45;&gt;Node14</title>
<path fill="none" stroke="midnightblue" d="M324.166,-240.995C333.111,-232.476 345.702,-220.485 356.188,-210.499"/>
<polygon fill="midnightblue" stroke="midnightblue" points="358.874,-212.774 363.701,-203.343 354.046,-207.705 358.874,-212.774"/>
</g>
<!-- Node15 -->
<g id="node33" class="node"><title>Node15</title>
<polygon fill="white" stroke="#bfbfbf" points="498.611,-181 498.611,-203 542.611,-203 542.611,-181 498.611,-181"/>
<text text-anchor="middle" x="520.611" y="-190" font-family="FreeSans" font-size="10.00">vector</text>
</g>
<!-- Node11&#45;&gt;Node15 -->
<g id="edge36" class="edge"><title>Node11&#45;&gt;Node15</title>
<path fill="none" stroke="midnightblue" d="M339.31,-242.663C342.106,-241.74 344.911,-240.837 347.611,-240 396.313,-224.909 453.411,-209.506 488.29,-200.351"/>
<polygon fill="midnightblue" stroke="midnightblue" points="489.577,-203.632 498.368,-197.717 487.807,-196.859 489.577,-203.632"/>
</g>
<!-- Node12&#45;&gt;Node3 -->
<g id="edge26" class="edge"><title>Node12&#45;&gt;Node3</title>
<path fill="none" stroke="midnightblue" d="M288.809,-180.995C318.313,-171.215 361.621,-156.859 393.737,-146.212"/>
<polygon fill="midnightblue" stroke="midnightblue" points="394.927,-149.505 403.318,-143.037 392.724,-142.861 394.927,-149.505"/>
</g>
<!-- Node13&#45;&gt;Node4 -->
<g id="edge30" class="edge"><title>Node13&#45;&gt;Node4</title>
<path fill="none" stroke="midnightblue" d="M312.227,-120.995C310.544,-113.228 308.236,-102.574 306.201,-93.1851"/>
<polygon fill="midnightblue" stroke="midnightblue" points="309.607,-92.3749 304.069,-83.3428 302.766,-93.8572 309.607,-92.3749"/>
</g>
<!-- Node13&#45;&gt;Node9 -->
<g id="edge32" class="edge"><title>Node13&#45;&gt;Node9</title>
<path fill="none" stroke="midnightblue" d="M330.568,-120.995C343.609,-112.002 362.259,-99.1398 377.178,-88.8505"/>
<polygon fill="midnightblue" stroke="midnightblue" points="379.216,-91.697 385.461,-83.1383 375.241,-85.9345 379.216,-91.697"/>
</g>
<!-- Node16&#45;&gt;Node3 -->
<g id="edge40" class="edge"><title>Node16&#45;&gt;Node3</title>
<path fill="none" stroke="midnightblue" d="M398.487,-240.926C405.52,-220.834 420.479,-178.093 429.426,-152.531"/>
<polygon fill="midnightblue" stroke="midnightblue" points="432.745,-153.642 432.745,-143.047 426.138,-151.33 432.745,-153.642"/>
</g>
<!-- Node20&#45;&gt;Node3 -->
<g id="edge52" class="edge"><title>Node20&#45;&gt;Node3</title>
<path fill="none" stroke="midnightblue" d="M750.841,-420.939C763.562,-400.379 788.611,-354.498 788.611,-312 788.611,-312 788.611,-312 788.611,-252 788.611,-187.668 575.313,-150.777 480.794,-137.588"/>
<polygon fill="midnightblue" stroke="midnightblue" points="481.065,-134.092 470.682,-136.204 480.115,-141.028 481.065,-134.092"/>
</g>
<!-- Node20&#45;&gt;Node15 -->
<g id="edge58" class="edge"><title>Node20&#45;&gt;Node15</title>
<path fill="none" stroke="midnightblue" d="M731.871,-420.882C722.448,-411.583 709.248,-397.677 699.611,-384 657.931,-324.842 676.034,-289.888 623.611,-240 603.534,-220.894 574.475,-208.302 552.337,-200.829"/>
<polygon fill="midnightblue" stroke="midnightblue" points="553.301,-197.463 542.71,-197.751 551.169,-204.13 553.301,-197.463"/>
</g>
<!-- Node20&#45;&gt;Node21 -->
<g id="edge54" class="edge"><title>Node20&#45;&gt;Node21</title>
<path fill="none" stroke="midnightblue" d="M762.32,-420.995C777.894,-411.834 800.293,-398.658 817.942,-388.276"/>
<polygon fill="midnightblue" stroke="midnightblue" points="819.831,-391.225 826.676,-383.138 816.282,-385.192 819.831,-391.225"/>
</g>
<!-- Node22 -->
<g id="node50" class="node"><title>Node22</title>
<polygon fill="white" stroke="#bfbfbf" points="708.111,-361 708.111,-383 761.111,-383 761.111,-361 708.111,-361"/>
<text text-anchor="middle" x="734.611" y="-370" font-family="FreeSans" font-size="10.00">sstream</text>
</g>
<!-- Node20&#45;&gt;Node22 -->
<g id="edge56" class="edge"><title>Node20&#45;&gt;Node22</title>
<path fill="none" stroke="midnightblue" d="M741.961,-420.995C740.808,-413.311 739.232,-402.803 737.835,-393.488"/>
<polygon fill="midnightblue" stroke="midnightblue" points="741.257,-392.713 736.313,-383.343 734.335,-393.751 741.257,-392.713"/>
</g>
<!-- Node23&#45;&gt;Node3 -->
<g id="edge62" class="edge"><title>Node23&#45;&gt;Node3</title>
<path fill="none" stroke="midnightblue" d="M629.111,-420.816C633.611,-399.677 642.611,-352.354 642.611,-312 642.611,-312 642.611,-312 642.611,-252 642.611,-177.661 541.21,-148.565 480.693,-137.82"/>
<polygon fill="midnightblue" stroke="midnightblue" points="481.069,-134.335 470.628,-136.135 479.912,-141.239 481.069,-134.335"/>
</g>
<!-- Node24 -->
<g id="node56" class="node"><title>Node24</title>
<a xlink:href="workunit_8h.html" target="_top" xlink:title="This file has the defintion of the workunit.">
<polygon fill="white" stroke="black" points="392.111,-361 392.111,-383 453.111,-383 453.111,-361 392.111,-361"/>
<text text-anchor="middle" x="422.611" y="-370" font-family="FreeSans" font-size="10.00">workunit.h</text>
</a>
</g>
<!-- Node23&#45;&gt;Node24 -->
<g id="edge64" class="edge"><title>Node23&#45;&gt;Node24</title>
<path fill="none" stroke="midnightblue" d="M592.466,-421.957C556.753,-411.453 500.728,-394.975 462.88,-383.844"/>
<polygon fill="midnightblue" stroke="midnightblue" points="463.777,-380.459 453.196,-380.996 461.802,-387.175 463.777,-380.459"/>
</g>
<!-- Node24&#45;&gt;Node2 -->
<g id="edge68" class="edge"><title>Node24&#45;&gt;Node2</title>
<path fill="none" stroke="midnightblue" d="M391.866,-364.822C350.186,-355.091 274.971,-337.531 222.762,-325.343"/>
<polygon fill="midnightblue" stroke="midnightblue" points="223.503,-321.922 212.969,-323.056 221.912,-328.738 223.503,-321.922"/>
</g>
<!-- Node24&#45;&gt;Node3 -->
<g id="edge66" class="edge"><title>Node24&#45;&gt;Node3</title>
<path fill="none" stroke="midnightblue" d="M425.262,-360.735C429.711,-341.187 438.499,-299.656 441.611,-264 444.999,-225.193 441.69,-179.769 439.079,-153.595"/>
<polygon fill="midnightblue" stroke="midnightblue" points="442.525,-152.899 437.99,-143.324 435.564,-153.637 442.525,-152.899"/>
</g>
<!-- Node24&#45;&gt;Node11 -->
<g id="edge80" class="edge"><title>Node24&#45;&gt;Node11</title>
<path fill="none" stroke="midnightblue" d="M414.647,-360.805C404.087,-346.238 384.566,-320.255 365.611,-300 355.804,-289.52 344.043,-278.714 334.095,-270.016"/>
<polygon fill="midnightblue" stroke="midnightblue" points="336.109,-267.131 326.248,-263.258 331.542,-272.436 336.109,-267.131"/>
</g>
<!-- Node24&#45;&gt;Node13 -->
<g id="edge70" class="edge"><title>Node24&#45;&gt;Node13</title>
<path fill="none" stroke="midnightblue" d="M391.875,-371.199C334.659,-368.866 208.64,-359.733 109.611,-324 60.8574,-306.408 35.1482,-309.103 9.61126,-264 -49.2399,-160.058 186.55,-137.904 278.928,-133.232"/>
<polygon fill="midnightblue" stroke="midnightblue" points="279.118,-136.727 288.944,-132.766 278.792,-129.735 279.118,-136.727"/>
</g>
<!-- Node24&#45;&gt;Node15 -->
<g id="edge84" class="edge"><title>Node24&#45;&gt;Node15</title>
<path fill="none" stroke="midnightblue" d="M438.191,-360.972C449.67,-352.133 464.911,-338.795 474.611,-324 497.768,-288.682 510.698,-240.384 516.605,-213.073"/>
<polygon fill="midnightblue" stroke="midnightblue" points="520.076,-213.568 518.655,-203.069 513.219,-212.163 520.076,-213.568"/>
</g>
<!-- Node24&#45;&gt;Node16 -->
<g id="edge82" class="edge"><title>Node24&#45;&gt;Node16</title>
<path fill="none" stroke="midnightblue" d="M420.027,-360.926C415.36,-340.923 405.455,-298.472 399.481,-272.872"/>
<polygon fill="midnightblue" stroke="midnightblue" points="402.87,-271.991 397.189,-263.047 396.053,-273.581 402.87,-271.991"/>
</g>
<!-- Node25 -->
<g id="node61" class="node"><title>Node25</title>
<a xlink:href="rollingaverage_8h.html" target="_top" xlink:title="This Store the implementation and the declaration of the RollingAverage, BufferedRollingAverage, WeightedRollingAverage and the DefaultRollingAverage.">
<polygon fill="white" stroke="black" points="526.111,-241 526.111,-263 615.111,-263 615.111,-241 526.111,-241"/>
<text text-anchor="middle" x="570.611" y="-250" font-family="FreeSans" font-size="10.00">rollingaverage.h</text>
</a>
</g>
<!-- Node24&#45;&gt;Node25 -->
<g id="edge72" class="edge"><title>Node24&#45;&gt;Node25</title>
<path fill="none" stroke="midnightblue" d="M449.942,-360.92C468.744,-352.496 493.648,-339.693 512.611,-324 530.908,-308.858 547.43,-287.168 558.116,-271.557"/>
<polygon fill="midnightblue" stroke="midnightblue" points="561.076,-273.427 563.703,-263.163 555.249,-269.548 561.076,-273.427"/>
</g>
<!-- Node26 -->
<g id="node65" class="node"><title>Node26</title>
<a xlink:href="threadingenumerations_8h.html" target="_top" xlink:title="Any enumerations the threading library requires are all declared here.">
<polygon fill="white" stroke="black" points="230.111,-301 230.111,-323 357.111,-323 357.111,-301 230.111,-301"/>
<text text-anchor="middle" x="293.611" y="-310" font-family="FreeSans" font-size="10.00">threadingenumerations.h</text>
</a>
</g>
<!-- Node24&#45;&gt;Node26 -->
<g id="edge78" class="edge"><title>Node24&#45;&gt;Node26</title>
<path fill="none" stroke="midnightblue" d="M398.951,-360.995C378.712,-351.582 349.359,-337.929 326.776,-327.426"/>
<polygon fill="midnightblue" stroke="midnightblue" points="328.102,-324.182 317.559,-323.138 325.15,-330.529 328.102,-324.182"/>
</g>
<!-- Node25&#45;&gt;Node3 -->
<g id="edge76" class="edge"><title>Node25&#45;&gt;Node3</title>
<path fill="none" stroke="midnightblue" d="M570.604,-240.853C570.009,-225.382 566.728,-197.35 551.611,-180 533.437,-159.14 504.724,-147.143 480.536,-140.359"/>
<polygon fill="midnightblue" stroke="midnightblue" points="481.393,-136.966 470.835,-137.843 479.636,-143.742 481.393,-136.966"/>
</g>
<!-- Node25&#45;&gt;Node15 -->
<g id="edge74" class="edge"><title>Node25&#45;&gt;Node15</title>
<path fill="none" stroke="midnightblue" d="M561.44,-240.995C554.48,-232.643 544.74,-220.954 536.518,-211.088"/>
<polygon fill="midnightblue" stroke="midnightblue" points="539.154,-208.784 530.064,-203.343 533.777,-213.266 539.154,-208.784"/>
</g>
</g>
</svg>
        <g id="navigator" transform="translate(0 0)" fill="#404254">
                <rect fill="#f2f5e9" fill-opacity="0.5" stroke="#606060" stroke-width=".5" x="0" y="0" width="60" height="60"/>
                <use id="zoomplus" xlink:href="#zoomPlus" x="17" y="9" onmousedown="handleZoom(evt,'in')"/>
                <use id="zoomminus" xlink:href="#zoomMin" x="42" y="9" onmousedown="handleZoom(evt,'out')"/>
                <use id="reset" xlink:href="#resetDef" x="30" y="36" onmousedown="handleReset()"/>
                <g id="arrowUp" xlink:href="#dirArrow" transform="translate(30 24)" onmousedown="handlePan(0,-1)">
                  <use xlink:href="#rim" fill="#404040">
                        <set attributeName="fill" to="#808080" begin="arrowUp.mouseover" end="arrowUp.mouseout"/>
                  </use>
                  <path fill="none" stroke="white" stroke-width="1.5" d="M0,-3.0v7 M-2.5,-0.5L0,-3.0L2.5,-0.5"/>
                </g>
                <g id="arrowRight" xlink:href="#dirArrow" transform="rotate(90) translate(36 -43)" onmousedown="handlePan(1,0)">
                  <use xlink:href="#rim" fill="#404040">
                        <set attributeName="fill" to="#808080" begin="arrowRight.mouseover" end="arrowRight.mouseout"/>
                  </use>
                  <path fill="none" stroke="white" stroke-width="1.5" d="M0,-3.0v7 M-2.5,-0.5L0,-3.0L2.5,-0.5"/>
                </g>
                <g id="arrowDown" xlink:href="#dirArrow" transform="rotate(180) translate(-30 -48)" onmousedown="handlePan(0,1)">
                  <use xlink:href="#rim" fill="#404040">
                        <set attributeName="fill" to="#808080" begin="arrowDown.mouseover" end="arrowDown.mouseout"/>
                  </use>
                  <path fill="none" stroke="white" stroke-width="1.5" d="M0,-3.0v7 M-2.5,-0.5L0,-3.0L2.5,-0.5"/>
                </g>
                <g id="arrowLeft" xlink:href="#dirArrow" transform="rotate(270) translate(-36 17)" onmousedown="handlePan(-1,0)">
                  <use xlink:href="#rim" fill="#404040">
                        <set attributeName="fill" to="#808080" begin="arrowLeft.mouseover" end="arrowLeft.mouseout"/>
                  </use>
                  <path fill="none" stroke="white" stroke-width="1.5" d="M0,-3.0v7 M-2.5,-0.5L0,-3.0L2.5,-0.5"/>
                </g>
        </g>
</svg>
