<?xml version="1.0" encoding="UTF-8" standalone="no"?>
<!DOCTYPE svg PUBLIC "-//W3C//DTD SVG 1.1//EN"
 "http://www.w3.org/Graphics/SVG/1.1/DTD/svg11.dtd">
<!-- Generated by graphviz version 2.26.3 (20100126.1600)
 -->
<!-- Title: G Pages: 1 -->
<!--zoomable 512 -->
<svg id="main" version="1.1" xmlns="http://www.w3.org/2000/svg" xmlns:xlink="http://www.w3.org/1999/xlink" xml:space="preserve" onload="init(evt)">
        <defs>
                <circle id="rim" cx="0" cy="0" r="7"/>
                <circle id="rim2" cx="0" cy="0" r="3.5"/>
                <g id="zoomPlus">
                        <use xlink:href="#rim" fill="#404040">
                                <set attributeName="fill" to="#808080" begin="zoomplus.mouseover" end="zoomplus.mouseout"/>
                        </use>
                        <path d="M-4,0h8M0,-4v8" fill="none" stroke="white" stroke-width="1.5" pointer-events="none"/>
                </g>
                <g id="zoomMin">
                        <use xlink:href="#rim" fill="#404040">
                                <set attributeName="fill" to="#808080" begin="zoomminus.mouseover" end="zoomminus.mouseout"/>
                        </use>
                        <path d="M-4,0h8" fill="none" stroke="white" stroke-width="1.5" pointer-events="none"/>
                </g>
                <g id="dirArrow">
                        <path fill="none" stroke="white" stroke-width="1.5" d="M0,-3.0v7 M-2.5,-0.5L0,-3.0L2.5,-0.5"/>
                </g>
               <g id="resetDef">
                       <use xlink:href="#rim2" fill="#404040">
                               <set attributeName="fill" to="#808080" begin="reset.mouseover" end="reset.mouseout"/>
                       </use>
               </g>
        </defs>

<script type="text/javascript">
var viewWidth = 941;
var viewHeight = 512;
var sectionId = 'dynsection-0';
</script>
<script xlink:href="svgpan.js"/>
<svg id="graph" class="graph">
<g id="viewport">
<title>G</title>
<polygon fill="white" stroke="white" points="-4,5 -4,-508 938.494,-508 938.494,5 -4,5"/>
<!-- Node1 -->
<g id="node1" class="node"><title>Node1</title>
<polygon fill="#bfbfbf" stroke="black" points="142.722,-481 142.722,-503 288.722,-503 288.722,-481 142.722,-481"/>
<text text-anchor="middle" x="215.722" y="-490" font-family="FreeSans" font-size="10.00">frameschedulerworkunits.cpp</text>
</g>
<!-- Node2 -->
<g id="node3" class="node"><title>Node2</title>
<a xlink:href="frameschedulerworkunits_8h.html" target="_top" xlink:title="This defines a number of workunits that are required for doing some tasks that the Framescheduler req...">
<polygon fill="white" stroke="black" points="218.722,-421 218.722,-443 354.722,-443 354.722,-421 218.722,-421"/>
<text text-anchor="middle" x="286.722" y="-430" font-family="FreeSans" font-size="10.00">frameschedulerworkunits.h</text>
</a>
</g>
<!-- Node1&#45;&gt;Node2 -->
<g id="edge2" class="edge"><title>Node1&#45;&gt;Node2</title>
<path fill="none" stroke="midnightblue" d="M228.745,-480.995C239.023,-472.309 253.573,-460.014 265.525,-449.913"/>
<polygon fill="midnightblue" stroke="midnightblue" points="267.921,-452.471 273.3,-443.343 263.403,-447.124 267.921,-452.471"/>
</g>
<!-- Node13 -->
<g id="node27" class="node"><title>Node13</title>
<a xlink:href="doublebufferedresource_8h.html" target="_top" xlink:title="This file defines the template double buffered resources that can be attached to a thread...">
<polygon fill="white" stroke="black" points="52.2223,-241 52.2223,-263 183.222,-263 183.222,-241 52.2223,-241"/>
<text text-anchor="middle" x="117.722" y="-250" font-family="FreeSans" font-size="10.00">doublebufferedresource.h</text>
</a>
</g>
<!-- Node1&#45;&gt;Node13 -->
<g id="edge98" class="edge"><title>Node1&#45;&gt;Node13</title>
<path fill="none" stroke="midnightblue" d="M211.127,-480.746C195.791,-443.189 146.213,-321.773 126.208,-272.782"/>
<polygon fill="midnightblue" stroke="midnightblue" points="129.328,-271.164 122.308,-263.229 122.848,-273.811 129.328,-271.164"/>
</g>
<!-- Node3 -->
<g id="node5" class="node"><title>Node3</title>
<a xlink:href="datatypes_8h.html" target="_top" xlink:title="This file declares a few typedefs to allow flexibility, in case a change is required/desired.">
<polygon fill="white" stroke="black" points="540.722,-121 540.722,-143 608.722,-143 608.722,-121 540.722,-121"/>
<text text-anchor="middle" x="574.722" y="-130" font-family="FreeSans" font-size="10.00">datatypes.h</text>
</a>
</g>
<!-- Node2&#45;&gt;Node3 -->
<g id="edge4" class="edge"><title>Node2&#45;&gt;Node3</title>
<path fill="none" stroke="midnightblue" d="M286.722,-420.75C286.722,-399.5 286.722,-352 286.722,-312 286.722,-312 286.722,-312 286.722,-252 286.722,-199.795 450,-158.173 530.675,-140.794"/>
<polygon fill="midnightblue" stroke="midnightblue" points="531.498,-144.198 540.554,-138.699 530.045,-137.35 531.498,-144.198"/>
</g>
<!-- Node11 -->
<g id="node21" class="node"><title>Node11</title>
<a xlink:href="workunit_8h.html" target="_top" xlink:title="This file has the definition of the workunit.">
<polygon fill="white" stroke="black" points="416.222,-361 416.222,-383 477.222,-383 477.222,-361 416.222,-361"/>
<text text-anchor="middle" x="446.722" y="-370" font-family="FreeSans" font-size="10.00">workunit.h</text>
</a>
</g>
<!-- Node2&#45;&gt;Node11 -->
<g id="edge20" class="edge"><title>Node2&#45;&gt;Node11</title>
<path fill="none" stroke="midnightblue" d="M316.069,-420.995C341.812,-411.341 379.444,-397.229 407.716,-386.627"/>
<polygon fill="midnightblue" stroke="midnightblue" points="409.157,-389.825 417.291,-383.037 406.699,-383.271 409.157,-389.825"/>
</g>
<!-- Node16 -->
<g id="node34" class="node"><title>Node16</title>
<polygon fill="white" stroke="#bfbfbf" points="214.722,-181 214.722,-203 258.722,-203 258.722,-181 214.722,-181"/>
<text text-anchor="middle" x="236.722" y="-190" font-family="FreeSans" font-size="10.00">vector</text>
</g>
<!-- Node2&#45;&gt;Node16 -->
<g id="edge96" class="edge"><title>Node2&#45;&gt;Node16</title>
<path fill="none" stroke="midnightblue" d="M283.066,-420.64C280.035,-410.967 275.749,-396.664 272.722,-384 258.07,-322.686 245.716,-249.185 240.047,-213.521"/>
<polygon fill="midnightblue" stroke="midnightblue" points="243.457,-212.671 238.447,-203.335 236.542,-213.757 243.457,-212.671"/>
</g>
<!-- Node21 -->
<g id="node49" class="node"><title>Node21</title>
<a xlink:href="workunitkey_8h.html" target="_top" xlink:title="This file defines the metadata used to sort workunits.">
<polygon fill="white" stroke="black" points="844.222,-241 844.222,-263 921.222,-263 921.222,-241 844.222,-241"/>
<text text-anchor="middle" x="882.722" y="-250" font-family="FreeSans" font-size="10.00">workunitkey.h</text>
</a>
</g>
<!-- Node2&#45;&gt;Node21 -->
<g id="edge94" class="edge"><title>Node2&#45;&gt;Node21</title>
<path fill="none" stroke="midnightblue" d="M354.883,-427.435C489.257,-417.13 781.836,-387.817 856.722,-324 871.516,-311.393 877.892,-289.692 880.641,-273.402"/>
<polygon fill="midnightblue" stroke="midnightblue" points="884.153,-273.545 882.023,-263.167 877.216,-272.609 884.153,-273.545"/>
</g>
<!-- Node4 -->
<g id="node7" class="node"><title>Node4</title>
<a xlink:href="compilerthreadcompat_8h.html" target="_top" xlink:title="This file determines what features are offered by the compiler that this library can take advantage o...">
<polygon fill="white" stroke="black" points="352.722,-61 352.722,-83 476.722,-83 476.722,-61 352.722,-61"/>
<text text-anchor="middle" x="414.722" y="-70" font-family="FreeSans" font-size="10.00">compilerthreadcompat.h</text>
</a>
</g>
<!-- Node3&#45;&gt;Node4 -->
<g id="edge6" class="edge"><title>Node3&#45;&gt;Node4</title>
<path fill="none" stroke="midnightblue" d="M545.376,-120.995C519.632,-111.341 482,-97.2293 453.728,-86.6272"/>
<polygon fill="midnightblue" stroke="midnightblue" points="454.745,-83.2707 444.153,-83.0366 452.288,-89.825 454.745,-83.2707"/>
</g>
<!-- Node9 -->
<g id="node17" class="node"><title>Node9</title>
<polygon fill="white" stroke="#bfbfbf" points="494.222,-61 494.222,-83 535.222,-83 535.222,-61 494.222,-61"/>
<text text-anchor="middle" x="514.722" y="-70" font-family="FreeSans" font-size="10.00">string</text>
</g>
<!-- Node3&#45;&gt;Node9 -->
<g id="edge16" class="edge"><title>Node3&#45;&gt;Node9</title>
<path fill="none" stroke="midnightblue" d="M563.717,-120.995C555.198,-112.476 543.208,-100.485 533.221,-90.4985"/>
<polygon fill="midnightblue" stroke="midnightblue" points="535.611,-87.9391 526.065,-83.3428 530.661,-92.8888 535.611,-87.9391"/>
</g>
<!-- Node10 -->
<g id="node19" class="node"><title>Node10</title>
<polygon fill="white" stroke="#bfbfbf" points="552.222,-61 552.222,-83 599.222,-83 599.222,-61 552.222,-61"/>
<text text-anchor="middle" x="575.722" y="-70" font-family="FreeSans" font-size="10.00">stdint.h</text>
</g>
<!-- Node3&#45;&gt;Node10 -->
<g id="edge18" class="edge"><title>Node3&#45;&gt;Node10</title>
<path fill="none" stroke="midnightblue" d="M574.906,-120.995C575.034,-113.311 575.209,-102.803 575.364,-93.4884"/>
<polygon fill="midnightblue" stroke="midnightblue" points="578.866,-93.3998 575.533,-83.3428 571.867,-93.2831 578.866,-93.3998"/>
</g>
<!-- Node5 -->
<g id="node9" class="node"><title>Node5</title>
<polygon fill="white" stroke="#bfbfbf" points="279.722,-1 279.722,-23 337.722,-23 337.722,-1 279.722,-1"/>
<text text-anchor="middle" x="308.722" y="-10" font-family="FreeSans" font-size="10.00">pthread.h</text>
</g>
<!-- Node4&#45;&gt;Node5 -->
<g id="edge8" class="edge"><title>Node4&#45;&gt;Node5</title>
<path fill="none" stroke="midnightblue" d="M395.28,-60.9951C379.021,-51.7917 355.604,-38.5366 337.225,-28.1336"/>
<polygon fill="midnightblue" stroke="midnightblue" points="338.827,-25.0185 328.4,-23.1383 335.378,-31.1103 338.827,-25.0185"/>
</g>
<!-- Node6 -->
<g id="node11" class="node"><title>Node6</title>
<polygon fill="white" stroke="#bfbfbf" points="355.222,-1 355.222,-23 406.222,-23 406.222,-1 355.222,-1"/>
<text text-anchor="middle" x="380.722" y="-10" font-family="FreeSans" font-size="10.00">signal.h</text>
</g>
<!-- Node4&#45;&gt;Node6 -->
<g id="edge10" class="edge"><title>Node4&#45;&gt;Node6</title>
<path fill="none" stroke="midnightblue" d="M408.486,-60.9951C403.943,-52.9771 397.657,-41.884 392.215,-32.2806"/>
<polygon fill="midnightblue" stroke="midnightblue" points="395.125,-30.3175 387.15,-23.3428 389.035,-33.7686 395.125,-30.3175"/>
</g>
<!-- Node7 -->
<g id="node13" class="node"><title>Node7</title>
<polygon fill="white" stroke="#bfbfbf" points="423.722,-1 423.722,-23 475.722,-23 475.722,-1 423.722,-1"/>
<text text-anchor="middle" x="449.722" y="-10" font-family="FreeSans" font-size="10.00">sched.h</text>
</g>
<!-- Node4&#45;&gt;Node7 -->
<g id="edge12" class="edge"><title>Node4&#45;&gt;Node7</title>
<path fill="none" stroke="midnightblue" d="M421.142,-60.9951C425.868,-52.8936 432.425,-41.6525 438.067,-31.981"/>
<polygon fill="midnightblue" stroke="midnightblue" points="441.09,-33.7442 443.106,-23.3428 435.044,-30.2171 441.09,-33.7442"/>
</g>
<!-- Node8 -->
<g id="node15" class="node"><title>Node8</title>
<polygon fill="white" stroke="#bfbfbf" points="493.722,-1 493.722,-23 543.722,-23 543.722,-1 493.722,-1"/>
<text text-anchor="middle" x="518.722" y="-10" font-family="FreeSans" font-size="10.00">unistd.h</text>
</g>
<!-- Node4&#45;&gt;Node8 -->
<g id="edge14" class="edge"><title>Node4&#45;&gt;Node8</title>
<path fill="none" stroke="midnightblue" d="M433.797,-60.9951C449.677,-51.8337 472.516,-38.6576 490.51,-28.2763"/>
<polygon fill="midnightblue" stroke="midnightblue" points="492.503,-31.1673 499.416,-23.1383 489.005,-25.104 492.503,-31.1673"/>
</g>
<!-- Node11&#45;&gt;Node3 -->
<g id="edge22" class="edge"><title>Node11&#45;&gt;Node3</title>
<path fill="none" stroke="midnightblue" d="M449.801,-360.889C458.619,-330.245 486.041,-242.652 527.722,-180 535.017,-169.035 545.021,-158.404 553.925,-149.946"/>
<polygon fill="midnightblue" stroke="midnightblue" points="556.366,-152.456 561.371,-143.118 551.635,-147.297 556.366,-152.456"/>
</g>
<!-- Node12 -->
<g id="node24" class="node"><title>Node12</title>
<a xlink:href="framescheduler_8h.html" target="_top" xlink:title="This file has the Declarations for the main FrameScheduler class.">
<polygon fill="white" stroke="black" points="547.722,-301 547.722,-323 641.722,-323 641.722,-301 547.722,-301"/>
<text text-anchor="middle" x="594.722" y="-310" font-family="FreeSans" font-size="10.00">framescheduler.h</text>
</a>
</g>
<!-- Node11&#45;&gt;Node12 -->
<g id="edge24" class="edge"><title>Node11&#45;&gt;Node12</title>
<path fill="none" stroke="midnightblue" d="M473.868,-360.995C497.473,-351.426 531.883,-337.475 557.955,-326.906"/>
<polygon fill="midnightblue" stroke="midnightblue" points="559.546,-330.037 567.499,-323.037 556.916,-323.55 559.546,-330.037"/>
</g>
<!-- Node11&#45;&gt;Node16 -->
<g id="edge92" class="edge"><title>Node11&#45;&gt;Node16</title>
<path fill="none" stroke="midnightblue" d="M430.446,-360.772C403.524,-341.932 348.454,-302.254 305.722,-264 286.784,-247.047 266.874,-225.858 253.336,-210.868"/>
<polygon fill="midnightblue" stroke="midnightblue" points="255.792,-208.365 246.517,-203.245 250.575,-213.031 255.792,-208.365"/>
</g>
<!-- Node17 -->
<g id="node36" class="node"><title>Node17</title>
<a xlink:href="thread_8h.html" target="_top" xlink:title="This file defines a minimalistic cross&#45;platform thread that the scheduler uses to schedule tasks...">
<polygon fill="white" stroke="black" points="420.222,-241 420.222,-263 473.222,-263 473.222,-241 420.222,-241"/>
<text text-anchor="middle" x="446.722" y="-250" font-family="FreeSans" font-size="10.00">thread.h</text>
</a>
</g>
<!-- Node11&#45;&gt;Node17 -->
<g id="edge88" class="edge"><title>Node11&#45;&gt;Node17</title>
<path fill="none" stroke="midnightblue" d="M446.722,-360.926C446.722,-341.012 446.722,-298.851 446.722,-273.216"/>
<polygon fill="midnightblue" stroke="midnightblue" points="450.222,-273.047 446.722,-263.047 443.222,-273.047 450.222,-273.047"/>
</g>
<!-- Node19 -->
<g id="node42" class="node"><title>Node19</title>
<a xlink:href="mutex_8h.html" target="_top" xlink:title="This file declares and defines a mutex that is a partial implementation.">
<polygon fill="white" stroke="black" points="390.222,-121 390.222,-143 441.222,-143 441.222,-121 390.222,-121"/>
<text text-anchor="middle" x="415.722" y="-130" font-family="FreeSans" font-size="10.00">mutex.h</text>
</a>
</g>
<!-- Node11&#45;&gt;Node19 -->
<g id="edge76" class="edge"><title>Node11&#45;&gt;Node19</title>
<path fill="none" stroke="midnightblue" d="M416.082,-369.518C300.573,-359.092 -96.0998,-313.047 21.7223,-180 45.3115,-153.363 287.3,-138.463 379.926,-133.7"/>
<polygon fill="midnightblue" stroke="midnightblue" points="380.137,-137.194 389.948,-133.194 379.785,-130.203 380.137,-137.194"/>
</g>
<!-- Node11&#45;&gt;Node21 -->
<g id="edge90" class="edge"><title>Node11&#45;&gt;Node21</title>
<path fill="none" stroke="midnightblue" d="M477.49,-366.143C517.737,-358.168 590.246,-342.722 650.722,-324 678.949,-315.262 684.695,-309.358 712.722,-300 753.23,-286.474 799.97,-273.461 834.177,-264.404"/>
<polygon fill="midnightblue" stroke="midnightblue" points="835.141,-267.77 843.922,-261.841 833.361,-261 835.141,-267.77"/>
</g>
<!-- Node27 -->
<g id="node66" class="node"><title>Node27</title>
<a xlink:href="rollingaverage_8h.html" target="_top" xlink:title="This stores the implementation and the declaration of the RollingAverage, BufferedRollingAverage, WeightedRollingAverage and the DefaultRollingAverage.">
<polygon fill="white" stroke="black" points="314.222,-241 314.222,-263 403.222,-263 403.222,-241 314.222,-241"/>
<text text-anchor="middle" x="358.722" y="-250" font-family="FreeSans" font-size="10.00">rollingaverage.h</text>
</a>
</g>
<!-- Node11&#45;&gt;Node27 -->
<g id="edge78" class="edge"><title>Node11&#45;&gt;Node27</title>
<path fill="none" stroke="midnightblue" d="M438.601,-360.926C423.605,-340.476 391.404,-296.566 372.79,-271.184"/>
<polygon fill="midnightblue" stroke="midnightblue" points="375.56,-269.042 366.824,-263.047 369.915,-273.181 375.56,-269.042"/>
</g>
<!-- Node28 -->
<g id="node70" class="node"><title>Node28</title>
<a xlink:href="threadingenumerations_8h.html" target="_top" xlink:title="Any enumerations the threading library requires are all declared here.">
<polygon fill="white" stroke="black" points="721.222,-301 721.222,-323 848.222,-323 848.222,-301 721.222,-301"/>
<text text-anchor="middle" x="784.722" y="-310" font-family="FreeSans" font-size="10.00">threadingenumerations.h</text>
</a>
</g>
<!-- Node11&#45;&gt;Node28 -->
<g id="edge84" class="edge"><title>Node11&#45;&gt;Node28</title>
<path fill="none" stroke="midnightblue" d="M477.314,-366.57C530.083,-357.202 639.571,-337.766 712.606,-324.802"/>
<polygon fill="midnightblue" stroke="midnightblue" points="713.426,-328.211 722.66,-323.017 712.202,-321.319 713.426,-328.211"/>
</g>
<!-- Node12&#45;&gt;Node3 -->
<g id="edge26" class="edge"><title>Node12&#45;&gt;Node3</title>
<path fill="none" stroke="midnightblue" d="M641.879,-301.037C701.659,-287.112 797.105,-264.78 797.722,-264 804.34,-255.635 800.872,-250.191 797.722,-240 788.186,-209.142 783.11,-198.624 756.722,-180 734.648,-164.42 665.149,-148.939 618.706,-139.931"/>
<polygon fill="midnightblue" stroke="midnightblue" points="619.362,-136.493 608.883,-138.055 618.049,-143.369 619.362,-136.493"/>
</g>
<!-- Node12&#45;&gt;Node13 -->
<g id="edge28" class="edge"><title>Node12&#45;&gt;Node13</title>
<path fill="none" stroke="midnightblue" d="M547.68,-306.083C464.967,-295.679 292.833,-274.027 193.279,-261.504"/>
<polygon fill="midnightblue" stroke="midnightblue" points="193.643,-258.022 183.285,-260.247 192.77,-264.968 193.643,-258.022"/>
</g>
<!-- Node12&#45;&gt;Node17 -->
<g id="edge38" class="edge"><title>Node12&#45;&gt;Node17</title>
<path fill="none" stroke="midnightblue" d="M567.577,-300.995C543.898,-291.396 509.346,-277.388 483.245,-266.806"/>
<polygon fill="midnightblue" stroke="midnightblue" points="484.278,-263.449 473.696,-262.935 481.648,-269.936 484.278,-263.449"/>
</g>
<!-- Node18 -->
<g id="node39" class="node"><title>Node18</title>
<a xlink:href="systemcalls_8h.html" target="_top" xlink:title="This file defines a minimalistic cross&#45;platform thread that the scheduler uses to schedule tasks...">
<polygon fill="white" stroke="black" points="536.222,-181 536.222,-203 613.222,-203 613.222,-181 536.222,-181"/>
<text text-anchor="middle" x="574.722" y="-190" font-family="FreeSans" font-size="10.00">systemcalls.h</text>
</a>
</g>
<!-- Node12&#45;&gt;Node18 -->
<g id="edge60" class="edge"><title>Node12&#45;&gt;Node18</title>
<path fill="none" stroke="midnightblue" d="M582.479,-300.712C573.705,-291.737 562.608,-278.342 557.722,-264 551.934,-247.01 557.531,-227.113 563.809,-212.546"/>
<polygon fill="midnightblue" stroke="midnightblue" points="567.016,-213.95 568.131,-203.414 560.689,-210.955 567.016,-213.95"/>
</g>
<!-- Node12&#45;&gt;Node21 -->
<g id="edge56" class="edge"><title>Node12&#45;&gt;Node21</title>
<path fill="none" stroke="midnightblue" d="M641.814,-302.799C689.503,-293.392 765.347,-278.189 830.722,-264 831.809,-263.764 832.908,-263.524 834.015,-263.281"/>
<polygon fill="midnightblue" stroke="midnightblue" points="835.13,-266.618 844.128,-261.024 833.606,-259.786 835.13,-266.618"/>
</g>
<!-- Node22 -->
<g id="node53" class="node"><title>Node22</title>
<a xlink:href="barrier_8h.html" target="_top" xlink:title="The declaration of the Mezzanine::Threading::Barrier Barrier synchronization primitive.">
<polygon fill="white" stroke="black" points="566.222,-241 566.222,-263 619.222,-263 619.222,-241 566.222,-241"/>
<text text-anchor="middle" x="592.722" y="-250" font-family="FreeSans" font-size="10.00">barrier.h</text>
</a>
</g>
<!-- Node12&#45;&gt;Node22 -->
<g id="edge62" class="edge"><title>Node12&#45;&gt;Node22</title>
<path fill="none" stroke="midnightblue" d="M594.355,-300.995C594.099,-293.311 593.749,-282.803 593.439,-273.488"/>
<polygon fill="midnightblue" stroke="midnightblue" points="596.932,-273.221 593.1,-263.343 589.936,-273.454 596.932,-273.221"/>
</g>
<!-- Node24 -->
<g id="node59" class="node"><title>Node24</title>
<polygon fill="white" stroke="#bfbfbf" points="636.722,-241 636.722,-263 672.722,-263 672.722,-241 636.722,-241"/>
<text text-anchor="middle" x="654.722" y="-250" font-family="FreeSans" font-size="10.00">map</text>
</g>
<!-- Node12&#45;&gt;Node24 -->
<g id="edge70" class="edge"><title>Node12&#45;&gt;Node24</title>
<path fill="none" stroke="midnightblue" d="M605.727,-300.995C614.246,-292.476 626.237,-280.485 636.224,-270.499"/>
<polygon fill="midnightblue" stroke="midnightblue" points="638.783,-272.889 643.379,-263.343 633.833,-267.939 638.783,-272.889"/>
</g>
<!-- Node25 -->
<g id="node61" class="node"><title>Node25</title>
<polygon fill="white" stroke="#bfbfbf" points="690.722,-241 690.722,-263 720.722,-263 720.722,-241 690.722,-241"/>
<text text-anchor="middle" x="705.722" y="-250" font-family="FreeSans" font-size="10.00">set</text>
</g>
<!-- Node12&#45;&gt;Node25 -->
<g id="edge72" class="edge"><title>Node12&#45;&gt;Node25</title>
<path fill="none" stroke="midnightblue" d="M615.081,-300.995C633.799,-290.877 661.575,-275.863 681.442,-265.125"/>
<polygon fill="midnightblue" stroke="midnightblue" points="683.352,-268.071 690.485,-260.237 680.023,-261.913 683.352,-268.071"/>
</g>
<!-- Node26 -->
<g id="node63" class="node"><title>Node26</title>
<polygon fill="white" stroke="#bfbfbf" points="738.722,-241 738.722,-263 788.722,-263 788.722,-241 738.722,-241"/>
<text text-anchor="middle" x="763.722" y="-250" font-family="FreeSans" font-size="10.00">fstream</text>
</g>
<!-- Node12&#45;&gt;Node26 -->
<g id="edge74" class="edge"><title>Node12&#45;&gt;Node26</title>
<path fill="none" stroke="midnightblue" d="M625.719,-300.995C654.913,-290.63 698.582,-275.127 728.949,-264.345"/>
<polygon fill="midnightblue" stroke="midnightblue" points="730.445,-267.529 738.698,-260.884 728.103,-260.932 730.445,-267.529"/>
</g>
<!-- Node13&#45;&gt;Node3 -->
<g id="edge30" class="edge"><title>Node13&#45;&gt;Node3</title>
<path fill="none" stroke="midnightblue" d="M129.762,-240.722C149.632,-222.362 188.777,-187.315 205.722,-180 235.027,-167.349 439.006,-145.624 530.495,-136.375"/>
<polygon fill="midnightblue" stroke="midnightblue" points="530.956,-139.846 540.555,-135.362 530.255,-132.881 530.956,-139.846"/>
</g>
<!-- Node14 -->
<g id="node30" class="node"><title>Node14</title>
<polygon fill="white" stroke="#bfbfbf" points="30.7223,-181 30.7223,-203 88.7223,-203 88.7223,-181 30.7223,-181"/>
<text text-anchor="middle" x="59.7223" y="-190" font-family="FreeSans" font-size="10.00">algorithm</text>
</g>
<!-- Node13&#45;&gt;Node14 -->
<g id="edge32" class="edge"><title>Node13&#45;&gt;Node14</title>
<path fill="none" stroke="midnightblue" d="M107.084,-240.995C98.9298,-232.56 87.485,-220.72 77.8887,-210.793"/>
<polygon fill="midnightblue" stroke="midnightblue" points="80.1537,-208.1 70.687,-203.343 75.1208,-212.965 80.1537,-208.1"/>
</g>
<!-- Node15 -->
<g id="node32" class="node"><title>Node15</title>
<polygon fill="white" stroke="#bfbfbf" points="106.222,-181 106.222,-203 159.222,-203 159.222,-181 106.222,-181"/>
<text text-anchor="middle" x="132.722" y="-190" font-family="FreeSans" font-size="10.00">sstream</text>
</g>
<!-- Node13&#45;&gt;Node15 -->
<g id="edge34" class="edge"><title>Node13&#45;&gt;Node15</title>
<path fill="none" stroke="midnightblue" d="M120.473,-240.995C122.415,-233.228 125.079,-222.574 127.426,-213.185"/>
<polygon fill="midnightblue" stroke="midnightblue" points="130.857,-213.893 129.887,-203.343 124.066,-212.195 130.857,-213.893"/>
</g>
<!-- Node13&#45;&gt;Node16 -->
<g id="edge36" class="edge"><title>Node13&#45;&gt;Node16</title>
<path fill="none" stroke="midnightblue" d="M139.549,-240.995C158.052,-231.666 184.813,-218.173 205.569,-207.708"/>
<polygon fill="midnightblue" stroke="midnightblue" points="207.278,-210.766 214.631,-203.138 204.126,-204.515 207.278,-210.766"/>
</g>
<!-- Node17&#45;&gt;Node4 -->
<g id="edge40" class="edge"><title>Node17&#45;&gt;Node4</title>
<path fill="none" stroke="midnightblue" d="M436.643,-240.778C420.827,-222.257 391.024,-183.402 381.722,-144 379.272,-133.619 378.558,-130.187 381.722,-120 384.973,-109.535 391.384,-99.3293 397.698,-91.0384"/>
<polygon fill="midnightblue" stroke="midnightblue" points="400.51,-93.1271 404.106,-83.1609 395.08,-88.7098 400.51,-93.1271"/>
</g>
<!-- Node17&#45;&gt;Node16 -->
<g id="edge54" class="edge"><title>Node17&#45;&gt;Node16</title>
<path fill="none" stroke="midnightblue" d="M420.026,-242.654C417.23,-241.733 414.423,-240.833 411.722,-240 362.126,-224.712 303.893,-209.223 268.677,-200.123"/>
<polygon fill="midnightblue" stroke="midnightblue" points="269.508,-196.722 258.951,-197.621 267.764,-203.502 269.508,-196.722"/>
</g>
<!-- Node17&#45;&gt;Node18 -->
<g id="edge42" class="edge"><title>Node17&#45;&gt;Node18</title>
<path fill="none" stroke="midnightblue" d="M470.199,-240.995C490.282,-231.582 519.406,-217.929 541.814,-207.426"/>
<polygon fill="midnightblue" stroke="midnightblue" points="543.391,-210.552 550.96,-203.138 540.42,-204.214 543.391,-210.552"/>
</g>
<!-- Node17&#45;&gt;Node19 -->
<g id="edge46" class="edge"><title>Node17&#45;&gt;Node19</title>
<path fill="none" stroke="midnightblue" d="M438.477,-240.832C432.091,-231.504 423.686,-217.584 419.722,-204 414.915,-187.528 414.109,-168.055 414.397,-153.516"/>
<polygon fill="midnightblue" stroke="midnightblue" points="417.896,-153.619 414.783,-143.492 410.901,-153.35 417.896,-153.619"/>
</g>
<!-- Node20 -->
<g id="node46" class="node"><title>Node20</title>
<polygon fill="white" stroke="#bfbfbf" points="428.222,-181 428.222,-203 481.222,-203 481.222,-181 428.222,-181"/>
<text text-anchor="middle" x="454.722" y="-190" font-family="FreeSans" font-size="10.00">ostream</text>
</g>
<!-- Node17&#45;&gt;Node20 -->
<g id="edge52" class="edge"><title>Node17&#45;&gt;Node20</title>
<path fill="none" stroke="midnightblue" d="M448.19,-240.995C449.214,-233.311 450.615,-222.803 451.857,-213.488"/>
<polygon fill="midnightblue" stroke="midnightblue" points="455.357,-213.718 453.21,-203.343 448.419,-212.793 455.357,-213.718"/>
</g>
<!-- Node18&#45;&gt;Node3 -->
<g id="edge44" class="edge"><title>Node18&#45;&gt;Node3</title>
<path fill="none" stroke="midnightblue" d="M574.722,-180.995C574.722,-173.311 574.722,-162.803 574.722,-153.488"/>
<polygon fill="midnightblue" stroke="midnightblue" points="578.222,-153.343 574.722,-143.343 571.222,-153.343 578.222,-153.343"/>
</g>
<!-- Node19&#45;&gt;Node4 -->
<g id="edge48" class="edge"><title>Node19&#45;&gt;Node4</title>
<path fill="none" stroke="midnightblue" d="M415.539,-120.995C415.411,-113.311 415.236,-102.803 415.08,-93.4884"/>
<polygon fill="midnightblue" stroke="midnightblue" points="418.578,-93.2831 414.911,-83.3428 411.579,-93.3998 418.578,-93.2831"/>
</g>
<!-- Node19&#45;&gt;Node9 -->
<g id="edge50" class="edge"><title>Node19&#45;&gt;Node9</title>
<path fill="none" stroke="midnightblue" d="M433.88,-120.995C448.858,-111.918 470.339,-98.899 487.394,-88.5627"/>
<polygon fill="midnightblue" stroke="midnightblue" points="489.606,-91.3146 496.344,-83.1383 485.978,-85.3282 489.606,-91.3146"/>
</g>
<!-- Node21&#45;&gt;Node3 -->
<g id="edge58" class="edge"><title>Node21&#45;&gt;Node3</title>
<path fill="none" stroke="midnightblue" d="M878.016,-240.931C870.525,-224.752 854.289,-194.951 830.722,-180 796.18,-158.086 682.593,-143.172 618.944,-136.309"/>
<polygon fill="midnightblue" stroke="midnightblue" points="619.113,-132.807 608.801,-135.238 618.378,-139.769 619.113,-132.807"/>
</g>
<!-- Node22&#45;&gt;Node3 -->
<g id="edge64" class="edge"><title>Node22&#45;&gt;Node3</title>
<path fill="none" stroke="midnightblue" d="M619.457,-242.774C622.246,-241.83 625.04,-240.891 627.722,-240 681.315,-222.201 773.62,-225.165 739.722,-180 725.174,-160.616 662.63,-146.503 618.873,-138.777"/>
<polygon fill="midnightblue" stroke="midnightblue" points="619.193,-135.281 608.746,-137.043 618.012,-142.181 619.193,-135.281"/>
</g>
<!-- Node23 -->
<g id="node56" class="node"><title>Node23</title>
<a xlink:href="atomicoperations_8h.html" target="_top" xlink:title="Simple thread safe ways to check and change a specified variable atomically.">
<polygon fill="white" stroke="black" points="630.222,-181 630.222,-203 731.222,-203 731.222,-181 630.222,-181"/>
<text text-anchor="middle" x="680.722" y="-190" font-family="FreeSans" font-size="10.00">atomicoperations.h</text>
</a>
</g>
<!-- Node22&#45;&gt;Node23 -->
<g id="edge66" class="edge"><title>Node22&#45;&gt;Node23</title>
<path fill="none" stroke="midnightblue" d="M608.863,-240.995C622.053,-232.002 640.917,-219.14 656.008,-208.851"/>
<polygon fill="midnightblue" stroke="midnightblue" points="658.095,-211.664 664.386,-203.138 654.152,-205.88 658.095,-211.664"/>
</g>
<!-- Node23&#45;&gt;Node3 -->
<g id="edge68" class="edge"><title>Node23&#45;&gt;Node3</title>
<path fill="none" stroke="midnightblue" d="M661.28,-180.995C645.021,-171.792 621.604,-158.537 603.225,-148.134"/>
<polygon fill="midnightblue" stroke="midnightblue" points="604.827,-145.018 594.4,-143.138 601.378,-151.11 604.827,-145.018"/>
</g>
<!-- Node27&#45;&gt;Node3 -->
<g id="edge82" class="edge"><title>Node27&#45;&gt;Node3</title>
<path fill="none" stroke="midnightblue" d="M365.319,-240.766C375.183,-224.93 395.259,-196.172 419.722,-180 453.332,-157.782 497.767,-145.407 530.44,-138.813"/>
<polygon fill="midnightblue" stroke="midnightblue" points="531.442,-142.185 540.607,-136.869 530.127,-135.309 531.442,-142.185"/>
</g>
<!-- Node27&#45;&gt;Node16 -->
<g id="edge80" class="edge"><title>Node27&#45;&gt;Node16</title>
<path fill="none" stroke="midnightblue" d="M336.346,-240.995C317.17,-231.565 289.345,-217.88 267.973,-207.369"/>
<polygon fill="midnightblue" stroke="midnightblue" points="269.475,-204.208 258.957,-202.935 266.386,-210.489 269.475,-204.208"/>
</g>
<!-- Node28&#45;&gt;Node3 -->
<g id="edge86" class="edge"><title>Node28&#45;&gt;Node3</title>
<path fill="none" stroke="midnightblue" d="M848.448,-304.71C895.208,-296.165 947.674,-277.991 929.722,-240 911.78,-202.028 894.926,-197.442 856.722,-180 815.094,-160.995 687.26,-144.478 618.909,-136.715"/>
<polygon fill="midnightblue" stroke="midnightblue" points="619.2,-133.226 608.873,-135.59 618.42,-140.183 619.2,-133.226"/>
</g>
</g>
</svg>
        <g id="navigator" transform="translate(0 0)" fill="#404254">
                <rect fill="#f2f5e9" fill-opacity="0.5" stroke="#606060" stroke-width=".5" x="0" y="0" width="60" height="60"/>
                <use id="zoomplus" xlink:href="#zoomPlus" x="17" y="9" onmousedown="handleZoom(evt,'in')"/>
                <use id="zoomminus" xlink:href="#zoomMin" x="42" y="9" onmousedown="handleZoom(evt,'out')"/>
                <use id="reset" xlink:href="#resetDef" x="30" y="36" onmousedown="handleReset()"/>
                <g id="arrowUp" xlink:href="#dirArrow" transform="translate(30 24)" onmousedown="handlePan(0,-1)">
                  <use xlink:href="#rim" fill="#404040">
                        <set attributeName="fill" to="#808080" begin="arrowUp.mouseover" end="arrowUp.mouseout"/>
                  </use>
                  <path fill="none" stroke="white" stroke-width="1.5" d="M0,-3.0v7 M-2.5,-0.5L0,-3.0L2.5,-0.5"/>
                </g>
                <g id="arrowRight" xlink:href="#dirArrow" transform="rotate(90) translate(36 -43)" onmousedown="handlePan(1,0)">
                  <use xlink:href="#rim" fill="#404040">
                        <set attributeName="fill" to="#808080" begin="arrowRight.mouseover" end="arrowRight.mouseout"/>
                  </use>
                  <path fill="none" stroke="white" stroke-width="1.5" d="M0,-3.0v7 M-2.5,-0.5L0,-3.0L2.5,-0.5"/>
                </g>
                <g id="arrowDown" xlink:href="#dirArrow" transform="rotate(180) translate(-30 -48)" onmousedown="handlePan(0,1)">
                  <use xlink:href="#rim" fill="#404040">
                        <set attributeName="fill" to="#808080" begin="arrowDown.mouseover" end="arrowDown.mouseout"/>
                  </use>
                  <path fill="none" stroke="white" stroke-width="1.5" d="M0,-3.0v7 M-2.5,-0.5L0,-3.0L2.5,-0.5"/>
                </g>
                <g id="arrowLeft" xlink:href="#dirArrow" transform="rotate(270) translate(-36 17)" onmousedown="handlePan(-1,0)">
                  <use xlink:href="#rim" fill="#404040">
                        <set attributeName="fill" to="#808080" begin="arrowLeft.mouseover" end="arrowLeft.mouseout"/>
                  </use>
                  <path fill="none" stroke="white" stroke-width="1.5" d="M0,-3.0v7 M-2.5,-0.5L0,-3.0L2.5,-0.5"/>
                </g>
        </g>
</svg>
