<?xml version="1.0" encoding="UTF-8" standalone="no"?>
<!DOCTYPE svg PUBLIC "-//W3C//DTD SVG 1.1//EN"
 "http://www.w3.org/Graphics/SVG/1.1/DTD/svg11.dtd">
<!-- Generated by graphviz version 2.26.3 (20100126.1600)
 -->
<!-- Title: framescheduler.cpp Pages: 1 -->
<!--zoomable 494 -->
<svg id="main" version="1.1" xmlns="http://www.w3.org/2000/svg" xmlns:xlink="http://www.w3.org/1999/xlink" xml:space="preserve" onload="init(evt)">
<style type="text/css"><![CDATA[
.edge:hover path { stroke: red; }
.edge:hover polygon { stroke: red; fill: red; }
]]></style>
<script type="text/javascript"><![CDATA[
var edges = document.getElementsByTagName('g');
if (edges && edges.length) {
  for (var i=0;i<edges.length;i++) {
    if (edges[i].id.substr(0,4)=='edge') {
      edges[i].setAttribute('class','edge');
    }
  }
}
]]></script>
        <defs>
                <circle id="rim" cx="0" cy="0" r="7"/>
                <circle id="rim2" cx="0" cy="0" r="3.5"/>
                <g id="zoomPlus">
                        <use xlink:href="#rim" fill="#404040">
                                <set attributeName="fill" to="#808080" begin="zoomplus.mouseover" end="zoomplus.mouseout"/>
                        </use>
                        <path d="M-4,0h8M0,-4v8" fill="none" stroke="white" stroke-width="1.5" pointer-events="none"/>
                </g>
                <g id="zoomMin">
                        <use xlink:href="#rim" fill="#404040">
                                <set attributeName="fill" to="#808080" begin="zoomminus.mouseover" end="zoomminus.mouseout"/>
                        </use>
                        <path d="M-4,0h8" fill="none" stroke="white" stroke-width="1.5" pointer-events="none"/>
                </g>
                <g id="dirArrow">
                        <path fill="none" stroke="white" stroke-width="1.5" d="M0,-3.0v7 M-2.5,-0.5L0,-3.0L2.5,-0.5"/>
                </g>
               <g id="resetDef">
                       <use xlink:href="#rim2" fill="#404040">
                               <set attributeName="fill" to="#808080" begin="reset.mouseover" end="reset.mouseout"/>
                       </use>
               </g>
        </defs>

<script type="text/javascript">
var viewWidth = 996;
var viewHeight = 494;
var sectionId = 'dynsection-0';
</script>
<script xlink:href="svgpan.js"/>
<svg id="graph" class="graph">
<g id="viewport">
<title>framescheduler.cpp</title>
<polygon fill="white" stroke="white" points="-4,5 -4,-490 993,-490 993,5 -4,5"/>
<!-- Node1 -->
<g id="node1" class="node"><title>Node1</title>
<polygon fill="#bfbfbf" stroke="black" points="661.5,-465 661.5,-485 762.5,-485 762.5,-465 661.5,-465"/>
<text text-anchor="middle" x="712" y="-472" font-family="FreeSans" font-size="10.00">framescheduler.cpp</text>
</g>
<!-- Node2 -->
<g id="node3" class="node"><title>Node2</title>
<a xlink:href="framescheduler_8h.html" target="_top" xlink:title="This file has the Declarations for the main FrameScheduler class. ">
<polygon fill="white" stroke="black" points="292,-291 292,-311 382,-311 382,-291 292,-291"/>
<text text-anchor="middle" x="337" y="-298" font-family="FreeSans" font-size="10.00">framescheduler.h</text>
</a>
</g>
<!-- Node1&#45;&gt;Node2 -->
<g id="edge2" class="edge"><title>Node1&#45;&gt;Node2</title>
<path fill="none" stroke="midnightblue" d="M672.015,-464.939C641.312,-456.628 598.185,-443.674 562,-428 485.247,-394.754 400.927,-342.557 360.789,-316.657"/>
<polygon fill="midnightblue" stroke="midnightblue" points="362.531,-313.615 352.238,-311.105 358.719,-319.486 362.531,-313.615"/>
</g>
<!-- Node12 -->
<g id="node23" class="node"><title>Node12</title>
<polygon fill="white" stroke="#bfbfbf" points="792,-1 792,-21 848,-21 848,-1 792,-1"/>
<text text-anchor="middle" x="820" y="-8" font-family="FreeSans" font-size="10.00">algorithm</text>
</g>
<!-- Node1&#45;&gt;Node12 -->
<g id="edge102" class="edge"><title>Node1&#45;&gt;Node12</title>
<path fill="none" stroke="midnightblue" d="M735.995,-464.882C771.014,-448.318 832,-411.881 832,-359 832,-359 832,-359 832,-127 832,-93.2455 826.911,-54.258 823.361,-31.1693"/>
<polygon fill="midnightblue" stroke="midnightblue" points="826.803,-30.5282 821.771,-21.2047 819.89,-31.6313 826.803,-30.5282"/>
</g>
<!-- Node14 -->
<g id="node27" class="node"><title>Node14</title>
<a xlink:href="doublebufferedresource_8h.html" target="_top" xlink:title="This file defines the template double buffered resources that can be attached to a thread...">
<polygon fill="white" stroke="black" points="-0.5,-233 -0.5,-253 122.5,-253 122.5,-233 -0.5,-233"/>
<text text-anchor="middle" x="61" y="-240" font-family="FreeSans" font-size="10.00">doublebufferedresource.h</text>
</a>
</g>
<!-- Node1&#45;&gt;Node14 -->
<g id="edge62" class="edge"><title>Node1&#45;&gt;Node14</title>
<path fill="none" stroke="midnightblue" d="M661.46,-472.551C535.727,-466.181 215.801,-448.185 172,-428 111.987,-400.343 104.287,-373.049 79,-312 72.4206,-296.116 67.6825,-277.16 64.7241,-263.139"/>
<polygon fill="midnightblue" stroke="midnightblue" points="68.1125,-262.233 62.732,-253.106 61.2466,-263.596 68.1125,-262.233"/>
</g>
<!-- Node18 -->
<g id="node37" class="node"><title>Node18</title>
<a xlink:href="atomicoperations_8h.html" target="_top" xlink:title="Simple thread safe ways to check and change a specified variable atomically. ">
<polygon fill="white" stroke="black" points="528,-117 528,-137 626,-137 626,-117 528,-117"/>
<text text-anchor="middle" x="577" y="-124" font-family="FreeSans" font-size="10.00">atomicoperations.h</text>
</a>
</g>
<!-- Node1&#45;&gt;Node18 -->
<g id="edge96" class="edge"><title>Node1&#45;&gt;Node18</title>
<path fill="none" stroke="midnightblue" d="M719.344,-464.697C732.562,-445.11 759,-400.72 759,-359 759,-359 759,-359 759,-301 759,-220.341 664.451,-165.561 611.648,-141.257"/>
<polygon fill="midnightblue" stroke="midnightblue" points="612.864,-137.967 602.306,-137.074 610.003,-144.355 612.864,-137.967"/>
</g>
<!-- Node23 -->
<g id="node55" class="node"><title>Node23</title>
<a xlink:href="monopoly_8h.html" target="_top" xlink:title="Contains an interface for a kind of WorkUnit that consumes time on multiple thread. ">
<polygon fill="white" stroke="black" points="180.5,-407 180.5,-427 245.5,-427 245.5,-407 180.5,-407"/>
<text text-anchor="middle" x="213" y="-414" font-family="FreeSans" font-size="10.00">monopoly.h</text>
</a>
</g>
<!-- Node1&#45;&gt;Node23 -->
<g id="edge64" class="edge"><title>Node1&#45;&gt;Node23</title>
<path fill="none" stroke="midnightblue" d="M661.407,-469.119C562.993,-457.681 347.414,-432.623 255.682,-421.961"/>
<polygon fill="midnightblue" stroke="midnightblue" points="255.979,-418.472 245.642,-420.794 255.171,-425.425 255.979,-418.472"/>
</g>
<!-- Node26 -->
<g id="node70" class="node"><title>Node26</title>
<a xlink:href="frameschedulerworkunits_8h.html" target="_top" xlink:title="This defines a number of workunits that are required for doing some tasks that the Framescheduler req...">
<polygon fill="white" stroke="black" points="570.5,-407 570.5,-427 701.5,-427 701.5,-407 570.5,-407"/>
<text text-anchor="middle" x="636" y="-414" font-family="FreeSans" font-size="10.00">frameschedulerworkunits.h</text>
</a>
</g>
<!-- Node1&#45;&gt;Node26 -->
<g id="edge88" class="edge"><title>Node1&#45;&gt;Node26</title>
<path fill="none" stroke="midnightblue" d="M698.762,-464.897C687.389,-456.218 670.774,-443.538 657.497,-433.405"/>
<polygon fill="midnightblue" stroke="midnightblue" points="659.414,-430.466 649.341,-427.182 655.168,-436.031 659.414,-430.466"/>
</g>
<!-- Node27 -->
<g id="node76" class="node"><title>Node27</title>
<polygon fill="white" stroke="#bfbfbf" points="860,-407 860,-427 918,-427 918,-407 860,-407"/>
<text text-anchor="middle" x="889" y="-414" font-family="FreeSans" font-size="10.00">exception</text>
</g>
<!-- Node1&#45;&gt;Node27 -->
<g id="edge98" class="edge"><title>Node1&#45;&gt;Node27</title>
<path fill="none" stroke="midnightblue" d="M742.831,-464.897C772.721,-455.103 818.157,-440.214 850.428,-429.639"/>
<polygon fill="midnightblue" stroke="midnightblue" points="851.576,-432.946 859.989,-426.506 849.396,-426.294 851.576,-432.946"/>
</g>
<!-- Node28 -->
<g id="node78" class="node"><title>Node28</title>
<polygon fill="white" stroke="#bfbfbf" points="935.5,-407 935.5,-427 988.5,-427 988.5,-407 935.5,-407"/>
<text text-anchor="middle" x="962" y="-414" font-family="FreeSans" font-size="10.00">iostream</text>
</g>
<!-- Node1&#45;&gt;Node28 -->
<g id="edge100" class="edge"><title>Node1&#45;&gt;Node28</title>
<path fill="none" stroke="midnightblue" d="M762.698,-465.247C804.238,-456.956 864.718,-444.202 925.555,-428.244"/>
<polygon fill="midnightblue" stroke="midnightblue" points="926.549,-431.601 935.319,-425.655 924.756,-424.835 926.549,-431.601"/>
</g>
<!-- Node3 -->
<g id="node5" class="node"><title>Node3</title>
<a xlink:href="datatypes_8h.html" target="_top" xlink:title="This file declares a few typedefs to allow flexibility, in case a change is required/desired. ">
<polygon fill="white" stroke="black" points="391.5,-59 391.5,-79 456.5,-79 456.5,-59 391.5,-59"/>
<text text-anchor="middle" x="424" y="-66" font-family="FreeSans" font-size="10.00">datatypes.h</text>
</a>
</g>
<!-- Node2&#45;&gt;Node3 -->
<g id="edge4" class="edge"><title>Node2&#45;&gt;Node3</title>
<path fill="none" stroke="midnightblue" d="M319.632,-290.841C286.292,-269.977 218.846,-220.358 245,-174 273.824,-122.91 338.389,-94.3339 381.574,-80.3002"/>
<polygon fill="midnightblue" stroke="midnightblue" points="382.745,-83.6012 391.249,-77.2817 380.66,-76.9188 382.745,-83.6012"/>
</g>
<!-- Node2&#45;&gt;Node14 -->
<g id="edge26" class="edge"><title>Node2&#45;&gt;Node14</title>
<path fill="none" stroke="midnightblue" d="M291.733,-291.487C244.42,-281.545 170.041,-265.914 118.579,-255.1"/>
<polygon fill="midnightblue" stroke="midnightblue" points="119.113,-251.636 108.607,-253.004 117.673,-258.486 119.113,-251.636"/>
</g>
<!-- Node15 -->
<g id="node30" class="node"><title>Node15</title>
<a xlink:href="thread_8h.html" target="_top" xlink:title="This file defines a minimalistic cross&#45;platform thread that the scheduler uses to schedule tasks...">
<polygon fill="white" stroke="black" points="429.5,-233 429.5,-253 480.5,-253 480.5,-233 429.5,-233"/>
<text text-anchor="middle" x="455" y="-240" font-family="FreeSans" font-size="10.00">thread.h</text>
</a>
</g>
<!-- Node2&#45;&gt;Node15 -->
<g id="edge30" class="edge"><title>Node2&#45;&gt;Node15</title>
<path fill="none" stroke="midnightblue" d="M357.554,-290.897C376.221,-281.722 403.983,-268.076 425.105,-257.694"/>
<polygon fill="midnightblue" stroke="midnightblue" points="426.855,-260.734 434.286,-253.182 423.767,-254.452 426.855,-260.734"/>
</g>
<!-- Node16 -->
<g id="node32" class="node"><title>Node16</title>
<a xlink:href="systemcalls_8h.html" target="_top" xlink:title="This file defines a minimalistic cross&#45;platform thread that the scheduler uses to schedule tasks...">
<polygon fill="white" stroke="black" points="254,-175 254,-195 328,-195 328,-175 254,-175"/>
<text text-anchor="middle" x="291" y="-182" font-family="FreeSans" font-size="10.00">systemcalls.h</text>
</a>
</g>
<!-- Node2&#45;&gt;Node16 -->
<g id="edge50" class="edge"><title>Node2&#45;&gt;Node16</title>
<path fill="none" stroke="midnightblue" d="M331.163,-290.776C325.964,-281.406 318.369,-267.048 313,-254 306.355,-237.853 300.445,-218.919 296.429,-204.974"/>
<polygon fill="midnightblue" stroke="midnightblue" points="299.705,-203.692 293.635,-195.008 292.964,-205.582 299.705,-203.692"/>
</g>
<!-- Node19 -->
<g id="node40" class="node"><title>Node19</title>
<a xlink:href="workunitkey_8h.html" target="_top" xlink:title="This file defines the metadata used to sort workunits. ">
<polygon fill="white" stroke="black" points="497.5,-233 497.5,-253 572.5,-253 572.5,-233 497.5,-233"/>
<text text-anchor="middle" x="535" y="-240" font-family="FreeSans" font-size="10.00">workunitkey.h</text>
</a>
</g>
<!-- Node2&#45;&gt;Node19 -->
<g id="edge42" class="edge"><title>Node2&#45;&gt;Node19</title>
<path fill="none" stroke="midnightblue" d="M371.489,-290.897C404.606,-281.196 454.782,-266.498 490.813,-255.944"/>
<polygon fill="midnightblue" stroke="midnightblue" points="491.962,-259.254 500.575,-253.084 489.994,-252.537 491.962,-259.254"/>
</g>
<!-- Node20 -->
<g id="node43" class="node"><title>Node20</title>
<a xlink:href="spinlock_8h.html" target="_top" xlink:title="Declares a Mutex, Mutex tools, and at least one MutexLike object. ">
<polygon fill="white" stroke="black" points="177.5,-117 177.5,-137 236.5,-137 236.5,-117 177.5,-117"/>
<text text-anchor="middle" x="207" y="-124" font-family="FreeSans" font-size="10.00">spinlock.h</text>
</a>
</g>
<!-- Node2&#45;&gt;Node20 -->
<g id="edge46" class="edge"><title>Node2&#45;&gt;Node20</title>
<path fill="none" stroke="midnightblue" d="M296.335,-290.929C263.894,-281.995 222.245,-268.193 212,-254 189.184,-222.393 195.477,-173.93 201.569,-146.927"/>
<polygon fill="midnightblue" stroke="midnightblue" points="204.999,-147.635 203.999,-137.088 198.203,-145.957 204.999,-147.635"/>
</g>
<!-- Node21 -->
<g id="node47" class="node"><title>Node21</title>
<a xlink:href="rollingaverage_8h.html" target="_top" xlink:title="This stores the implementation and the declaration of the RollingAverage, BufferedRollingAverage, WeightedRollingAverage and the DefaultRollingAverage. ">
<polygon fill="white" stroke="black" points="329.5,-233 329.5,-253 412.5,-253 412.5,-233 329.5,-233"/>
<text text-anchor="middle" x="371" y="-240" font-family="FreeSans" font-size="10.00">rollingaverage.h</text>
</a>
</g>
<!-- Node2&#45;&gt;Node21 -->
<g id="edge52" class="edge"><title>Node2&#45;&gt;Node21</title>
<path fill="none" stroke="midnightblue" d="M342.922,-290.897C347.546,-283.01 354.105,-271.821 359.721,-262.24"/>
<polygon fill="midnightblue" stroke="midnightblue" points="362.879,-263.775 364.917,-253.378 356.84,-260.235 362.879,-263.775"/>
</g>
<!-- Node22 -->
<g id="node50" class="node"><title>Node22</title>
<a xlink:href="barrier_8h.html" target="_top" xlink:title="The declaration of the Mezzanine::Threading::Barrier Barrier synchronization primitive. ">
<polygon fill="white" stroke="black" points="345.5,-175 345.5,-195 396.5,-195 396.5,-175 345.5,-175"/>
<text text-anchor="middle" x="371" y="-182" font-family="FreeSans" font-size="10.00">barrier.h</text>
</a>
</g>
<!-- Node2&#45;&gt;Node22 -->
<g id="edge56" class="edge"><title>Node2&#45;&gt;Node22</title>
<path fill="none" stroke="midnightblue" d="M330.772,-290.816C323.193,-277.029 312.41,-251.865 321,-232 326.32,-219.698 336.62,-209.132 346.496,-201.152"/>
<polygon fill="midnightblue" stroke="midnightblue" points="348.686,-203.884 354.573,-195.075 344.478,-198.29 348.686,-203.884"/>
</g>
<!-- Node4 -->
<g id="node7" class="node"><title>Node4</title>
<a xlink:href="crossplatformexport_8h.html" target="_top" xlink:title="This file determines what features are offered by the compiler that this library can take advantage o...">
<polygon fill="white" stroke="black" points="654,-1 654,-21 762,-21 762,-1 654,-1"/>
<text text-anchor="middle" x="708" y="-8" font-family="FreeSans" font-size="10.00">crossplatformexport.h</text>
</a>
</g>
<!-- Node3&#45;&gt;Node4 -->
<g id="edge6" class="edge"><title>Node3&#45;&gt;Node4</title>
<path fill="none" stroke="midnightblue" d="M456.578,-62.3467C503.476,-52.7691 590.775,-34.9402 649.143,-23.0201"/>
<polygon fill="midnightblue" stroke="midnightblue" points="649.872,-26.4436 658.969,-21.0134 648.471,-19.5852 649.872,-26.4436"/>
</g>
<!-- Node5 -->
<g id="node9" class="node"><title>Node5</title>
<polygon fill="white" stroke="#bfbfbf" points="171.5,-1 171.5,-21 214.5,-21 214.5,-1 171.5,-1"/>
<text text-anchor="middle" x="193" y="-8" font-family="FreeSans" font-size="10.00">vector</text>
</g>
<!-- Node3&#45;&gt;Node5 -->
<g id="edge8" class="edge"><title>Node3&#45;&gt;Node5</title>
<path fill="none" stroke="midnightblue" d="M391.304,-62.6321C353.218,-54.9366 288.279,-40.9577 224.357,-22.1782"/>
<polygon fill="midnightblue" stroke="midnightblue" points="225.108,-18.7499 214.524,-19.2484 223.109,-25.4584 225.108,-18.7499"/>
</g>
<!-- Node6 -->
<g id="node11" class="node"><title>Node6</title>
<polygon fill="white" stroke="#bfbfbf" points="232,-1 232,-21 272,-21 272,-1 232,-1"/>
<text text-anchor="middle" x="252" y="-8" font-family="FreeSans" font-size="10.00">string</text>
</g>
<!-- Node3&#45;&gt;Node6 -->
<g id="edge10" class="edge"><title>Node3&#45;&gt;Node6</title>
<path fill="none" stroke="midnightblue" d="M392.055,-58.9544C364.97,-50.3369 324.892,-37.3519 281.775,-22.1831"/>
<polygon fill="midnightblue" stroke="midnightblue" points="282.834,-18.845 272.239,-18.8096 280.499,-25.4443 282.834,-18.845"/>
</g>
<!-- Node7 -->
<g id="node13" class="node"><title>Node7</title>
<polygon fill="white" stroke="#bfbfbf" points="289.5,-1 289.5,-21 340.5,-21 340.5,-1 289.5,-1"/>
<text text-anchor="middle" x="315" y="-8" font-family="FreeSans" font-size="10.00">ostream</text>
</g>
<!-- Node3&#45;&gt;Node7 -->
<g id="edge12" class="edge"><title>Node3&#45;&gt;Node7</title>
<path fill="none" stroke="midnightblue" d="M405.014,-58.8972C387.926,-49.8045 362.587,-36.3218 343.144,-25.9757"/>
<polygon fill="midnightblue" stroke="midnightblue" points="344.607,-22.7894 334.135,-21.1817 341.318,-28.969 344.607,-22.7894"/>
</g>
<!-- Node8 -->
<g id="node15" class="node"><title>Node8</title>
<polygon fill="white" stroke="#bfbfbf" points="357.5,-1 357.5,-21 392.5,-21 392.5,-1 357.5,-1"/>
<text text-anchor="middle" x="375" y="-8" font-family="FreeSans" font-size="10.00">map</text>
</g>
<!-- Node3&#45;&gt;Node8 -->
<g id="edge14" class="edge"><title>Node3&#45;&gt;Node8</title>
<path fill="none" stroke="midnightblue" d="M415.465,-58.8972C408.524,-50.6818 398.556,-38.8827 390.25,-29.0513"/>
<polygon fill="midnightblue" stroke="midnightblue" points="392.894,-26.7577 383.767,-21.3776 387.547,-31.2752 392.894,-26.7577"/>
</g>
<!-- Node9 -->
<g id="node17" class="node"><title>Node9</title>
<polygon fill="white" stroke="#bfbfbf" points="409.5,-1 409.5,-21 438.5,-21 438.5,-1 409.5,-1"/>
<text text-anchor="middle" x="424" y="-8" font-family="FreeSans" font-size="10.00">set</text>
</g>
<!-- Node3&#45;&gt;Node9 -->
<g id="edge16" class="edge"><title>Node3&#45;&gt;Node9</title>
<path fill="none" stroke="midnightblue" d="M424,-58.8972C424,-51.339 424,-40.7476 424,-31.4458"/>
<polygon fill="midnightblue" stroke="midnightblue" points="427.5,-31.3776 424,-21.3776 420.5,-31.3776 427.5,-31.3776"/>
</g>
<!-- Node10 -->
<g id="node19" class="node"><title>Node10</title>
<polygon fill="white" stroke="#bfbfbf" points="456,-1 456,-21 506,-21 506,-1 456,-1"/>
<text text-anchor="middle" x="481" y="-8" font-family="FreeSans" font-size="10.00">sstream</text>
</g>
<!-- Node3&#45;&gt;Node10 -->
<g id="edge18" class="edge"><title>Node3&#45;&gt;Node10</title>
<path fill="none" stroke="midnightblue" d="M433.929,-58.8972C442.083,-50.5996 453.83,-38.6463 463.549,-28.7569"/>
<polygon fill="midnightblue" stroke="midnightblue" points="466.288,-30.9632 470.801,-21.3776 461.296,-26.0566 466.288,-30.9632"/>
</g>
<!-- Node11 -->
<g id="node21" class="node"><title>Node11</title>
<polygon fill="white" stroke="#bfbfbf" points="523.5,-1 523.5,-21 572.5,-21 572.5,-1 523.5,-1"/>
<text text-anchor="middle" x="548" y="-8" font-family="FreeSans" font-size="10.00">fstream</text>
</g>
<!-- Node3&#45;&gt;Node11 -->
<g id="edge20" class="edge"><title>Node3&#45;&gt;Node11</title>
<path fill="none" stroke="midnightblue" d="M445.599,-58.8972C465.304,-49.6805 494.652,-35.9532 516.884,-25.5542"/>
<polygon fill="midnightblue" stroke="midnightblue" points="518.657,-28.5889 526.232,-21.1817 515.691,-22.2482 518.657,-28.5889"/>
</g>
<!-- Node3&#45;&gt;Node12 -->
<g id="edge22" class="edge"><title>Node3&#45;&gt;Node12</title>
<path fill="none" stroke="midnightblue" d="M456.678,-65.5255C518.37,-58.7554 656.116,-42.6359 771,-22 774.496,-21.3721 778.119,-20.6655 781.742,-19.9212"/>
<polygon fill="midnightblue" stroke="midnightblue" points="782.796,-23.2748 791.841,-17.7576 781.33,-16.4302 782.796,-23.2748"/>
</g>
<!-- Node13 -->
<g id="node25" class="node"><title>Node13</title>
<polygon fill="white" stroke="#bfbfbf" points="589.5,-1 589.5,-21 636.5,-21 636.5,-1 589.5,-1"/>
<text text-anchor="middle" x="613" y="-8" font-family="FreeSans" font-size="10.00">stdint.h</text>
</g>
<!-- Node3&#45;&gt;Node13 -->
<g id="edge24" class="edge"><title>Node3&#45;&gt;Node13</title>
<path fill="none" stroke="midnightblue" d="M456.592,-59.658C486.439,-51.0115 532.05,-37.5694 579.714,-22.344"/>
<polygon fill="midnightblue" stroke="midnightblue" points="580.818,-25.6654 589.27,-19.276 578.679,-19.0005 580.818,-25.6654"/>
</g>
<!-- Node14&#45;&gt;Node3 -->
<g id="edge28" class="edge"><title>Node14&#45;&gt;Node3</title>
<path fill="none" stroke="midnightblue" d="M63.7947,-232.695C71.0708,-208.003 93.0855,-145.332 136,-116 175.137,-89.2505 310.961,-76.4934 381.196,-71.566"/>
<polygon fill="midnightblue" stroke="midnightblue" points="381.732,-75.0377 391.471,-70.8682 381.257,-68.0538 381.732,-75.0377"/>
</g>
<!-- Node15&#45;&gt;Node16 -->
<g id="edge32" class="edge"><title>Node15&#45;&gt;Node16</title>
<path fill="none" stroke="midnightblue" d="M429.375,-233.938C402.468,-224.422 359.865,-209.355 329.034,-198.451"/>
<polygon fill="midnightblue" stroke="midnightblue" points="330.068,-195.104 319.473,-195.07 327.734,-201.704 330.068,-195.104"/>
</g>
<!-- Node17 -->
<g id="node35" class="node"><title>Node17</title>
<a xlink:href="mutex_8h.html" target="_top" xlink:title="This file declares and defines a mutex that is a partial implementation. ">
<polygon fill="white" stroke="black" points="552,-175 552,-195 602,-195 602,-175 552,-175"/>
<text text-anchor="middle" x="577" y="-182" font-family="FreeSans" font-size="10.00">mutex.h</text>
</a>
</g>
<!-- Node15&#45;&gt;Node17 -->
<g id="edge36" class="edge"><title>Node15&#45;&gt;Node17</title>
<path fill="none" stroke="midnightblue" d="M476.251,-232.897C495.638,-223.68 524.512,-209.953 546.386,-199.554"/>
<polygon fill="midnightblue" stroke="midnightblue" points="548.055,-202.636 555.583,-195.182 545.049,-196.314 548.055,-202.636"/>
</g>
<!-- Node16&#45;&gt;Node3 -->
<g id="edge34" class="edge"><title>Node16&#45;&gt;Node3</title>
<path fill="none" stroke="midnightblue" d="M302.803,-174.706C325.832,-154.62 376.942,-110.043 404.87,-85.685"/>
<polygon fill="midnightblue" stroke="midnightblue" points="407.178,-88.3163 412.413,-79.1055 402.577,-83.0409 407.178,-88.3163"/>
</g>
<!-- Node17&#45;&gt;Node18 -->
<g id="edge38" class="edge"><title>Node17&#45;&gt;Node18</title>
<path fill="none" stroke="midnightblue" d="M577,-174.897C577,-167.339 577,-156.748 577,-147.446"/>
<polygon fill="midnightblue" stroke="midnightblue" points="580.5,-147.378 577,-137.378 573.5,-147.378 580.5,-147.378"/>
</g>
<!-- Node18&#45;&gt;Node3 -->
<g id="edge40" class="edge"><title>Node18&#45;&gt;Node3</title>
<path fill="none" stroke="midnightblue" d="M550.349,-116.897C525.415,-107.445 487.966,-93.2486 460.307,-82.7635"/>
<polygon fill="midnightblue" stroke="midnightblue" points="461.193,-79.3562 450.601,-79.0842 458.711,-85.9017 461.193,-79.3562"/>
</g>
<!-- Node19&#45;&gt;Node3 -->
<g id="edge44" class="edge"><title>Node19&#45;&gt;Node3</title>
<path fill="none" stroke="midnightblue" d="M526.343,-232.86C518.556,-223.546 506.994,-209.224 498,-196 472.915,-159.116 447.586,-113.392 434.041,-88.0949"/>
<polygon fill="midnightblue" stroke="midnightblue" points="437.082,-86.3576 429.299,-79.1693 430.9,-89.6424 437.082,-86.3576"/>
</g>
<!-- Node20&#45;&gt;Node3 -->
<g id="edge48" class="edge"><title>Node20&#45;&gt;Node3</title>
<path fill="none" stroke="midnightblue" d="M236.718,-119.057C274.222,-109.033 338.972,-91.7263 381.646,-80.3203"/>
<polygon fill="midnightblue" stroke="midnightblue" points="382.702,-83.6612 391.459,-77.6976 380.894,-76.8986 382.702,-83.6612"/>
</g>
<!-- Node21&#45;&gt;Node3 -->
<g id="edge54" class="edge"><title>Node21&#45;&gt;Node3</title>
<path fill="none" stroke="midnightblue" d="M380.725,-232.693C388.601,-223.719 399.293,-209.987 405,-196 419.526,-160.397 423.103,-115.12 423.891,-89.3657"/>
<polygon fill="midnightblue" stroke="midnightblue" points="427.391,-89.3746 424.084,-79.3092 420.393,-89.2402 427.391,-89.3746"/>
</g>
<!-- Node22&#45;&gt;Node3 -->
<g id="edge58" class="edge"><title>Node22&#45;&gt;Node3</title>
<path fill="none" stroke="midnightblue" d="M375.703,-174.706C384.565,-155.31 403.862,-113.076 415.198,-88.2637"/>
<polygon fill="midnightblue" stroke="midnightblue" points="418.41,-89.6557 419.383,-79.1055 412.044,-86.7466 418.41,-89.6557"/>
</g>
<!-- Node22&#45;&gt;Node18 -->
<g id="edge60" class="edge"><title>Node22&#45;&gt;Node18</title>
<path fill="none" stroke="midnightblue" d="M396.674,-177.772C430.352,-168.289 490.022,-151.489 531.455,-139.823"/>
<polygon fill="midnightblue" stroke="midnightblue" points="532.63,-143.129 541.307,-137.05 530.732,-136.391 532.63,-143.129"/>
</g>
<!-- Node23&#45;&gt;Node3 -->
<g id="edge66" class="edge"><title>Node23&#45;&gt;Node3</title>
<path fill="none" stroke="midnightblue" d="M202.878,-406.828C185.069,-387.8 150,-344.772 150,-301 150,-301 150,-301 150,-185 150,-153.192 145.558,-137.499 169,-116 199.327,-88.1868 316.391,-76.1287 380.838,-71.5077"/>
<polygon fill="midnightblue" stroke="midnightblue" points="381.351,-74.9808 391.088,-70.8037 380.871,-67.9973 381.351,-74.9808"/>
</g>
<!-- Node23&#45;&gt;Node14 -->
<g id="edge68" class="edge"><title>Node23&#45;&gt;Node14</title>
<path fill="none" stroke="midnightblue" d="M190.426,-406.936C173.904,-398.747 151.721,-385.951 136,-370 104.265,-337.799 80.6288,-289.604 69.0159,-262.795"/>
<polygon fill="midnightblue" stroke="midnightblue" points="72.1405,-261.196 65.036,-253.336 65.6884,-263.911 72.1405,-261.196"/>
</g>
<!-- Node24 -->
<g id="node59" class="node"><title>Node24</title>
<a xlink:href="workunit_8h.html" target="_top" xlink:title="This file has the definition of the workunit. ">
<polygon fill="white" stroke="black" points="501,-349 501,-369 561,-369 561,-349 501,-349"/>
<text text-anchor="middle" x="531" y="-356" font-family="FreeSans" font-size="10.00">workunit.h</text>
</a>
</g>
<!-- Node23&#45;&gt;Node24 -->
<g id="edge70" class="edge"><title>Node23&#45;&gt;Node24</title>
<path fill="none" stroke="midnightblue" d="M245.537,-411.066C304.017,-400.399 426.726,-378.018 490.529,-366.382"/>
<polygon fill="midnightblue" stroke="midnightblue" points="491.406,-369.779 500.616,-364.542 490.15,-362.893 491.406,-369.779"/>
</g>
<!-- Node24&#45;&gt;Node2 -->
<g id="edge74" class="edge"><title>Node24&#45;&gt;Node2</title>
<path fill="none" stroke="midnightblue" d="M500.688,-349.938C468.445,-340.298 417.15,-324.962 380.578,-314.028"/>
<polygon fill="midnightblue" stroke="midnightblue" points="381.265,-310.581 370.681,-311.07 379.26,-317.288 381.265,-310.581"/>
</g>
<!-- Node24&#45;&gt;Node3 -->
<g id="edge72" class="edge"><title>Node24&#45;&gt;Node3</title>
<path fill="none" stroke="midnightblue" d="M540.682,-348.705C559.893,-326.973 599.445,-274.882 581,-232 571.808,-210.629 559.352,-212.548 543,-196 508.957,-161.548 502.194,-151.271 469,-116 459.753,-106.174 449.339,-95.2865 440.86,-86.4664"/>
<polygon fill="midnightblue" stroke="midnightblue" points="443.164,-83.8127 433.706,-79.0373 438.122,-88.6683 443.164,-83.8127"/>
</g>
<!-- Node24&#45;&gt;Node15 -->
<g id="edge84" class="edge"><title>Node24&#45;&gt;Node15</title>
<path fill="none" stroke="midnightblue" d="M524.256,-348.706C511.435,-329.137 483.384,-286.323 467.19,-261.606"/>
<polygon fill="midnightblue" stroke="midnightblue" points="470.029,-259.552 461.621,-253.106 464.174,-263.388 470.029,-259.552"/>
</g>
<!-- Node24&#45;&gt;Node17 -->
<g id="edge76" class="edge"><title>Node24&#45;&gt;Node17</title>
<path fill="none" stroke="midnightblue" d="M544.582,-348.896C555.839,-340.047 571.76,-326.382 583,-312 600.998,-288.97 606.898,-282.353 614,-254 616.376,-244.515 617.2,-241.239 614,-232 610.227,-221.108 602.77,-210.825 595.533,-202.671"/>
<polygon fill="midnightblue" stroke="midnightblue" points="597.939,-200.122 588.513,-195.283 592.864,-204.943 597.939,-200.122"/>
</g>
<!-- Node24&#45;&gt;Node19 -->
<g id="edge86" class="edge"><title>Node24&#45;&gt;Node19</title>
<path fill="none" stroke="midnightblue" d="M531.355,-348.706C532.015,-329.568 533.441,-288.198 534.301,-263.265"/>
<polygon fill="midnightblue" stroke="midnightblue" points="537.805,-263.22 534.652,-253.106 530.809,-262.979 537.805,-263.22"/>
</g>
<!-- Node24&#45;&gt;Node21 -->
<g id="edge78" class="edge"><title>Node24&#45;&gt;Node21</title>
<path fill="none" stroke="midnightblue" d="M517.081,-348.909C489.304,-328.77 426.785,-283.444 393.251,-259.132"/>
<polygon fill="midnightblue" stroke="midnightblue" points="395.151,-256.187 385.001,-253.151 391.043,-261.854 395.151,-256.187"/>
</g>
<!-- Node25 -->
<g id="node65" class="node"><title>Node25</title>
<a xlink:href="threadingenumerations_8h.html" target="_top" xlink:title="Any enumerations the threading library requires are all declared here. ">
<polygon fill="white" stroke="black" points="644,-117 644,-137 766,-137 766,-117 644,-117"/>
<text text-anchor="middle" x="705" y="-124" font-family="FreeSans" font-size="10.00">threadingenumerations.h</text>
</a>
</g>
<!-- Node24&#45;&gt;Node25 -->
<g id="edge80" class="edge"><title>Node24&#45;&gt;Node25</title>
<path fill="none" stroke="midnightblue" d="M552.852,-348.918C568.81,-340.72 590.161,-327.921 605,-312 652.579,-260.953 684.855,-183.006 698.157,-146.782"/>
<polygon fill="midnightblue" stroke="midnightblue" points="701.461,-147.935 701.538,-137.34 694.871,-145.575 701.461,-147.935"/>
</g>
<!-- Node25&#45;&gt;Node3 -->
<g id="edge82" class="edge"><title>Node25&#45;&gt;Node3</title>
<path fill="none" stroke="midnightblue" d="M656.374,-116.963C602.882,-105.922 517.749,-88.3504 466.729,-77.8196"/>
<polygon fill="midnightblue" stroke="midnightblue" points="467.193,-74.3415 456.692,-75.7477 465.778,-81.197 467.193,-74.3415"/>
</g>
<!-- Node26&#45;&gt;Node3 -->
<g id="edge90" class="edge"><title>Node26&#45;&gt;Node3</title>
<path fill="none" stroke="midnightblue" d="M648.099,-406.751C695.058,-365.798 858.578,-211.516 775,-116 754.944,-93.079 555.639,-77.4821 466.593,-71.6038"/>
<polygon fill="midnightblue" stroke="midnightblue" points="466.758,-68.1072 456.552,-70.9514 466.304,-75.0925 466.758,-68.1072"/>
</g>
<!-- Node26&#45;&gt;Node19 -->
<g id="edge94" class="edge"><title>Node26&#45;&gt;Node19</title>
<path fill="none" stroke="midnightblue" d="M630.133,-406.893C613.747,-378.663 567.297,-298.641 545.962,-261.884"/>
<polygon fill="midnightblue" stroke="midnightblue" points="548.93,-260.026 540.883,-253.135 542.876,-263.541 548.93,-260.026"/>
</g>
<!-- Node26&#45;&gt;Node24 -->
<g id="edge92" class="edge"><title>Node26&#45;&gt;Node24</title>
<path fill="none" stroke="midnightblue" d="M617.71,-406.897C601.324,-397.846 577.063,-384.444 558.367,-374.117"/>
<polygon fill="midnightblue" stroke="midnightblue" points="559.878,-370.953 549.432,-369.182 556.493,-377.081 559.878,-370.953"/>
</g>
</g>
</svg>
        <g id="navigator" transform="translate(0 0)" fill="#404254">
                <rect fill="#f2f5e9" fill-opacity="0.5" stroke="#606060" stroke-width=".5" x="0" y="0" width="60" height="60"/>
                <use id="zoomplus" xlink:href="#zoomPlus" x="17" y="9" onmousedown="handleZoom(evt,'in')"/>
                <use id="zoomminus" xlink:href="#zoomMin" x="42" y="9" onmousedown="handleZoom(evt,'out')"/>
                <use id="reset" xlink:href="#resetDef" x="30" y="36" onmousedown="handleReset()"/>
                <g id="arrowUp" xlink:href="#dirArrow" transform="translate(30 24)" onmousedown="handlePan(0,-1)">
                  <use xlink:href="#rim" fill="#404040">
                        <set attributeName="fill" to="#808080" begin="arrowUp.mouseover" end="arrowUp.mouseout"/>
                  </use>
                  <path fill="none" stroke="white" stroke-width="1.5" d="M0,-3.0v7 M-2.5,-0.5L0,-3.0L2.5,-0.5"/>
                </g>
                <g id="arrowRight" xlink:href="#dirArrow" transform="rotate(90) translate(36 -43)" onmousedown="handlePan(1,0)">
                  <use xlink:href="#rim" fill="#404040">
                        <set attributeName="fill" to="#808080" begin="arrowRight.mouseover" end="arrowRight.mouseout"/>
                  </use>
                  <path fill="none" stroke="white" stroke-width="1.5" d="M0,-3.0v7 M-2.5,-0.5L0,-3.0L2.5,-0.5"/>
                </g>
                <g id="arrowDown" xlink:href="#dirArrow" transform="rotate(180) translate(-30 -48)" onmousedown="handlePan(0,1)">
                  <use xlink:href="#rim" fill="#404040">
                        <set attributeName="fill" to="#808080" begin="arrowDown.mouseover" end="arrowDown.mouseout"/>
                  </use>
                  <path fill="none" stroke="white" stroke-width="1.5" d="M0,-3.0v7 M-2.5,-0.5L0,-3.0L2.5,-0.5"/>
                </g>
                <g id="arrowLeft" xlink:href="#dirArrow" transform="rotate(270) translate(-36 17)" onmousedown="handlePan(-1,0)">
                  <use xlink:href="#rim" fill="#404040">
                        <set attributeName="fill" to="#808080" begin="arrowLeft.mouseover" end="arrowLeft.mouseout"/>
                  </use>
                  <path fill="none" stroke="white" stroke-width="1.5" d="M0,-3.0v7 M-2.5,-0.5L0,-3.0L2.5,-0.5"/>
                </g>
        </g>
        <svg viewBox="0 0 15 15" width="100%" height="30px" preserveAspectRatio="xMaxYMin meet">
         <g id="arrow_out" transform="scale(0.3 0.3)">
          <a xlink:href="framescheduler_8cpp__incl_org.svg" target="_base">
           <rect id="button" ry="5" rx="5" y="6" x="6" height="38" width="38"
                fill="#f2f5e9" fill-opacity="0.5" stroke="#606060" stroke-width="1.0"/>
           <path id="arrow"
             d="M 11.500037,31.436501 C 11.940474,20.09759 22.043105,11.32322 32.158766,21.979434 L 37.068811,17.246167 C 37.068811,17.246167 37.088388,32 37.088388,32 L 22.160133,31.978069 C 22.160133,31.978069 26.997745,27.140456 26.997745,27.140456 C 18.528582,18.264221 13.291696,25.230495 11.500037,31.436501 z"
             style="fill:#404040;"/>
          </a>
         </g>
        </svg>
</svg>
