<?xml version="1.0" encoding="UTF-8" standalone="no"?>
<!DOCTYPE svg PUBLIC "-//W3C//DTD SVG 1.1//EN"
 "http://www.w3.org/Graphics/SVG/1.1/DTD/svg11.dtd">
<!-- Generated by graphviz version 2.26.3 (20100126.1600)
 -->
<!-- Title: framescheduler.h Pages: 1 -->
<!--zoomable 262 -->
<svg id="main" version="1.1" xmlns="http://www.w3.org/2000/svg" xmlns:xlink="http://www.w3.org/1999/xlink" xml:space="preserve" onload="init(evt)">
        <defs>
                <circle id="rim" cx="0" cy="0" r="7"/>
                <circle id="rim2" cx="0" cy="0" r="3.5"/>
                <g id="zoomPlus">
                        <use xlink:href="#rim" fill="#404040">
                                <set attributeName="fill" to="#808080" begin="zoomplus.mouseover" end="zoomplus.mouseout"/>
                        </use>
                        <path d="M-4,0h8M0,-4v8" fill="none" stroke="white" stroke-width="1.5" pointer-events="none"/>
                </g>
                <g id="zoomMin">
                        <use xlink:href="#rim" fill="#404040">
                                <set attributeName="fill" to="#808080" begin="zoomminus.mouseover" end="zoomminus.mouseout"/>
                        </use>
                        <path d="M-4,0h8" fill="none" stroke="white" stroke-width="1.5" pointer-events="none"/>
                </g>
                <g id="dirArrow">
                        <path fill="none" stroke="white" stroke-width="1.5" d="M0,-3.0v7 M-2.5,-0.5L0,-3.0L2.5,-0.5"/>
                </g>
               <g id="resetDef">
                       <use xlink:href="#rim2" fill="#404040">
                               <set attributeName="fill" to="#808080" begin="reset.mouseover" end="reset.mouseout"/>
                       </use>
               </g>
        </defs>

<script type="text/javascript">
var viewWidth = 896;
var viewHeight = 262;
var sectionId = 'dynsection-1';
</script>
<script xlink:href="svgpan.js"/>
<svg id="graph" class="graph">
<g id="viewport">
<title>framescheduler.h</title>
<polygon fill="white" stroke="white" points="-4,5 -4,-258 893,-258 893,5 -4,5"/>
<!-- Node1 -->
<g id="node1" class="node"><title>Node1</title>
<polygon fill="#bfbfbf" stroke="black" points="0,-233 0,-253 90,-253 90,-233 0,-233"/>
<text text-anchor="middle" x="45" y="-240" font-family="FreeSans" font-size="10.00">framescheduler.h</text>
</g>
<!-- Node2 -->
<g id="node3" class="node"><title>Node2</title>
<a xlink:href="workunit_8h.html" target="_top" xlink:title="This file has the definition of the workunit.">
<polygon fill="white" stroke="black" points="229,-175 229,-195 289,-195 289,-175 229,-175"/>
<text text-anchor="middle" x="259" y="-182" font-family="FreeSans" font-size="10.00">workunit.h</text>
</a>
</g>
<!-- Node1&#45;&gt;Node2 -->
<g id="edge2" class="edge"><title>Node1&#45;&gt;Node2</title>
<path fill="none" stroke="midnightblue" d="M92.1808,-230.213C133.784,-218.937 193.163,-202.844 228.715,-193.208"/>
<polygon fill="midnightblue" stroke="midnightblue" points="91.0122,-226.903 82.276,-232.897 92.8433,-233.659 91.0122,-226.903"/>
</g>
<!-- Node6 -->
<g id="node11" class="node"><title>Node6</title>
<a xlink:href="dagframescheduler_8h.html" target="_top" xlink:title="This is the file that code using this library should include. It includes all the required components...">
<polygon fill="white" stroke="black" points="206,-1 206,-21 312,-21 312,-1 206,-1"/>
<text text-anchor="middle" x="259" y="-8" font-family="FreeSans" font-size="10.00">dagframescheduler.h</text>
</a>
</g>
<!-- Node1&#45;&gt;Node6 -->
<g id="edge36" class="edge"><title>Node1&#45;&gt;Node6</title>
<path fill="none" stroke="midnightblue" d="M44.7885,-222.553C45.5555,-184.528 52.8501,-102.747 99,-58 114.381,-43.0864 165.454,-29.7079 205.81,-21.0741"/>
<polygon fill="midnightblue" stroke="midnightblue" points="41.2868,-222.838 44.7242,-232.859 48.2866,-222.881 41.2868,-222.838"/>
</g>
<!-- Node9 -->
<g id="node19" class="node"><title>Node9</title>
<a xlink:href="framescheduler_8cpp.html" target="_top" xlink:title="This is the core object implementation for this algorithm.">
<polygon fill="white" stroke="black" points="287.5,-59 287.5,-79 388.5,-79 388.5,-59 287.5,-59"/>
<text text-anchor="middle" x="338" y="-66" font-family="FreeSans" font-size="10.00">framescheduler.cpp</text>
</a>
</g>
<!-- Node1&#45;&gt;Node9 -->
<g id="edge38" class="edge"><title>Node1&#45;&gt;Node9</title>
<path fill="none" stroke="midnightblue" d="M51.9802,-223.205C63.0549,-194.814 87.4327,-142.99 126,-116 132.699,-111.312 227.694,-91.3903 288.226,-79.0369"/>
<polygon fill="midnightblue" stroke="midnightblue" points="48.6026,-222.245 48.3851,-232.837 55.1608,-224.692 48.6026,-222.245"/>
</g>
<!-- Node3 -->
<g id="node5" class="node"><title>Node3</title>
<a xlink:href="asynchronousworkunit_8h.html" target="_top" xlink:title="Contains an interface for a kind of WorkUnit that loads or does other work even when the frame schedu...">
<polygon fill="white" stroke="black" points="534.5,-117 534.5,-137 653.5,-137 653.5,-117 534.5,-117"/>
<text text-anchor="middle" x="594" y="-124" font-family="FreeSans" font-size="10.00">asynchronousworkunit.h</text>
</a>
</g>
<!-- Node2&#45;&gt;Node3 -->
<g id="edge4" class="edge"><title>Node2&#45;&gt;Node3</title>
<path fill="none" stroke="midnightblue" d="M299.063,-178.064C358.001,-167.859 468.399,-148.746 536.136,-137.018"/>
<polygon fill="midnightblue" stroke="midnightblue" points="298.28,-174.647 289.024,-179.802 299.474,-181.544 298.28,-174.647"/>
</g>
<!-- Node2&#45;&gt;Node6 -->
<g id="edge32" class="edge"><title>Node2&#45;&gt;Node6</title>
<path fill="none" stroke="midnightblue" d="M218.634,-181.079C188.817,-176.026 149.483,-164.463 126,-138 102.091,-111.057 91.7873,-87.1136 113,-58 124.369,-42.397 169.698,-29.3909 206.87,-21.0456"/>
<polygon fill="midnightblue" stroke="midnightblue" points="218.331,-184.573 228.742,-182.608 219.378,-177.651 218.331,-184.573"/>
</g>
<!-- Node8 -->
<g id="node16" class="node"><title>Node8</title>
<a xlink:href="frameschedulerworkunits_8h.html" target="_top" xlink:title="This defines a number of workunits that are required for doing some tasks that the Framescheduler req...">
<polygon fill="white" stroke="black" points="134.5,-117 134.5,-137 265.5,-137 265.5,-117 134.5,-117"/>
<text text-anchor="middle" x="200" y="-124" font-family="FreeSans" font-size="10.00">frameschedulerworkunits.h</text>
</a>
</g>
<!-- Node2&#45;&gt;Node8 -->
<g id="edge16" class="edge"><title>Node2&#45;&gt;Node8</title>
<path fill="none" stroke="midnightblue" d="M241.564,-167.86C231.496,-157.962 219.162,-145.838 210.557,-137.378"/>
<polygon fill="midnightblue" stroke="midnightblue" points="239.138,-170.383 248.723,-174.897 244.045,-165.391 239.138,-170.383"/>
</g>
<!-- Node11 -->
<g id="node23" class="node"><title>Node11</title>
<a xlink:href="monopoly_8h.html" target="_top" xlink:title="Contains an interface for a kind of WorkUnit that consumes time on multiple thread.">
<polygon fill="white" stroke="black" points="377.5,-117 377.5,-137 442.5,-137 442.5,-117 377.5,-117"/>
<text text-anchor="middle" x="410" y="-124" font-family="FreeSans" font-size="10.00">monopoly.h</text>
</a>
</g>
<!-- Node2&#45;&gt;Node11 -->
<g id="edge24" class="edge"><title>Node2&#45;&gt;Node11</title>
<path fill="none" stroke="midnightblue" d="M294.887,-171.216C322.197,-160.726 359.154,-146.53 383.746,-137.084"/>
<polygon fill="midnightblue" stroke="midnightblue" points="293.382,-168.044 285.302,-174.897 295.892,-174.579 293.382,-168.044"/>
</g>
<!-- Node13 -->
<g id="node30" class="node"><title>Node13</title>
<a xlink:href="workunit_8cpp.html" target="_top" xlink:title="This file has the implementation of the Mezzanine::Threading::DefaultWorkUnit.">
<polygon fill="white" stroke="black" points="282.5,-117 282.5,-137 353.5,-137 353.5,-117 282.5,-117"/>
<text text-anchor="middle" x="318" y="-124" font-family="FreeSans" font-size="10.00">workunit.cpp</text>
</a>
</g>
<!-- Node2&#45;&gt;Node13 -->
<g id="edge34" class="edge"><title>Node2&#45;&gt;Node13</title>
<path fill="none" stroke="midnightblue" d="M276.436,-167.86C286.504,-157.962 298.838,-145.838 307.443,-137.378"/>
<polygon fill="midnightblue" stroke="midnightblue" points="273.955,-165.391 269.277,-174.897 278.862,-170.383 273.955,-165.391"/>
</g>
<!-- Node4 -->
<g id="node7" class="node"><title>Node4</title>
<a xlink:href="asynchronousfileloadingworkunit_8h.html" target="_top" xlink:title="The declaration of the AsynchronousFileLoadWorkUnit a workunit that loads a listing of files asynchro...">
<polygon fill="white" stroke="black" points="721.5,-59 721.5,-79 882.5,-79 882.5,-59 721.5,-59"/>
<text text-anchor="middle" x="802" y="-66" font-family="FreeSans" font-size="10.00">asynchronousfileloadingworkunit.h</text>
</a>
</g>
<!-- Node3&#45;&gt;Node4 -->
<g id="edge6" class="edge"><title>Node3&#45;&gt;Node4</title>
<path fill="none" stroke="midnightblue" d="M640.007,-114.171C677.91,-103.602 730.921,-88.8202 765.836,-79.0842"/>
<polygon fill="midnightblue" stroke="midnightblue" points="638.923,-110.84 630.231,-116.897 640.803,-117.582 638.923,-110.84"/>
</g>
<!-- Node3&#45;&gt;Node6 -->
<g id="edge14" class="edge"><title>Node3&#45;&gt;Node6</title>
<path fill="none" stroke="midnightblue" d="M581.663,-108.267C570.053,-92.243 551.168,-69.9326 529,-58 492.393,-38.2957 379.952,-23.592 312.266,-16.2434"/>
<polygon fill="midnightblue" stroke="midnightblue" points="579.046,-110.636 587.627,-116.85 584.794,-106.641 579.046,-110.636"/>
</g>
<!-- Node7 -->
<g id="node13" class="node"><title>Node7</title>
<a xlink:href="asynchronousworkunit_8cpp.html" target="_top" xlink:title="Contains very little actually.">
<polygon fill="white" stroke="black" points="575.5,-59 575.5,-79 704.5,-79 704.5,-59 575.5,-59"/>
<text text-anchor="middle" x="640" y="-66" font-family="FreeSans" font-size="10.00">asynchronousworkunit.cpp</text>
</a>
</g>
<!-- Node3&#45;&gt;Node7 -->
<g id="edge12" class="edge"><title>Node3&#45;&gt;Node7</title>
<path fill="none" stroke="midnightblue" d="M608.291,-108.981C616.007,-99.2522 625.257,-87.5889 631.769,-79.3776"/>
<polygon fill="midnightblue" stroke="midnightblue" points="605.484,-106.887 602.013,-116.897 610.969,-111.237 605.484,-106.887"/>
</g>
<!-- Node5 -->
<g id="node9" class="node"><title>Node5</title>
<a xlink:href="asynchronousfileloadingworkunit_8cpp.html" target="_top" xlink:title="The implementation of the AsynchronousFileLoadWorkUnit a workunit that loads a listing of files async...">
<polygon fill="white" stroke="black" points="716,-1 716,-21 888,-21 888,-1 716,-1"/>
<text text-anchor="middle" x="802" y="-8" font-family="FreeSans" font-size="10.00">asynchronousfileloadingworkunit.cpp</text>
</a>
</g>
<!-- Node4&#45;&gt;Node5 -->
<g id="edge8" class="edge"><title>Node4&#45;&gt;Node5</title>
<path fill="none" stroke="midnightblue" d="M802,-48.8902C802,-39.6201 802,-29.0083 802,-21.3776"/>
<polygon fill="midnightblue" stroke="midnightblue" points="798.5,-48.8971 802,-58.8972 805.5,-48.8972 798.5,-48.8971"/>
</g>
<!-- Node4&#45;&gt;Node6 -->
<g id="edge10" class="edge"><title>Node4&#45;&gt;Node6</title>
<path fill="none" stroke="midnightblue" d="M711.119,-57.8018C560.483,-40.787 395.067,-24.28 312.157,-16.1584"/>
<polygon fill="midnightblue" stroke="midnightblue" points="711.148,-61.3273 721.478,-58.9753 711.936,-54.3718 711.148,-61.3273"/>
</g>
<!-- Node8&#45;&gt;Node6 -->
<g id="edge18" class="edge"><title>Node8&#45;&gt;Node6</title>
<path fill="none" stroke="midnightblue" d="M162.92,-112.967C135.331,-100.331 105.001,-80.3499 121,-58 131.828,-42.8734 175.723,-29.6216 211.139,-21.0791"/>
<polygon fill="midnightblue" stroke="midnightblue" points="161.534,-116.181 172.1,-116.964 164.329,-109.763 161.534,-116.181"/>
</g>
<!-- Node8&#45;&gt;Node9 -->
<g id="edge20" class="edge"><title>Node8&#45;&gt;Node9</title>
<path fill="none" stroke="midnightblue" d="M233.425,-112.952C258.234,-102.525 291.488,-88.5483 313.775,-79.1817"/>
<polygon fill="midnightblue" stroke="midnightblue" points="231.901,-109.796 224.038,-116.897 234.613,-116.249 231.901,-109.796"/>
</g>
<!-- Node10 -->
<g id="node21" class="node"><title>Node10</title>
<a xlink:href="frameschedulerworkunits_8cpp.html" target="_top" xlink:title="The implementation of any workunits the framescheduler needs to work correctly.">
<polygon fill="white" stroke="black" points="129.5,-59 129.5,-79 270.5,-79 270.5,-59 129.5,-59"/>
<text text-anchor="middle" x="200" y="-66" font-family="FreeSans" font-size="10.00">frameschedulerworkunits.cpp</text>
</a>
</g>
<!-- Node8&#45;&gt;Node10 -->
<g id="edge22" class="edge"><title>Node8&#45;&gt;Node10</title>
<path fill="none" stroke="midnightblue" d="M200,-106.89C200,-97.6201 200,-87.0083 200,-79.3776"/>
<polygon fill="midnightblue" stroke="midnightblue" points="196.5,-106.897 200,-116.897 203.5,-106.897 196.5,-106.897"/>
</g>
<!-- Node11&#45;&gt;Node6 -->
<g id="edge26" class="edge"><title>Node11&#45;&gt;Node6</title>
<path fill="none" stroke="midnightblue" d="M411.314,-106.373C411.155,-91.2785 408.455,-71.2098 397,-58 384.522,-43.6111 339.021,-29.8965 303.637,-21.0363"/>
<polygon fill="midnightblue" stroke="midnightblue" points="407.806,-106.662 411.044,-116.75 414.803,-106.844 407.806,-106.662"/>
</g>
<!-- Node11&#45;&gt;Node9 -->
<g id="edge28" class="edge"><title>Node11&#45;&gt;Node9</title>
<path fill="none" stroke="midnightblue" d="M389.442,-110.44C377.028,-100.439 361.591,-88.0036 350.883,-79.3776"/>
<polygon fill="midnightblue" stroke="midnightblue" points="387.475,-113.349 397.459,-116.897 391.867,-107.898 387.475,-113.349"/>
</g>
<!-- Node12 -->
<g id="node27" class="node"><title>Node12</title>
<a xlink:href="monopoly_8cpp.html" target="_top" xlink:title="Contains the minimal implementation for the monopoly base class.">
<polygon fill="white" stroke="black" points="444,-59 444,-79 520,-79 520,-59 444,-59"/>
<text text-anchor="middle" x="482" y="-66" font-family="FreeSans" font-size="10.00">monopoly.cpp</text>
</a>
</g>
<!-- Node11&#45;&gt;Node12 -->
<g id="edge30" class="edge"><title>Node11&#45;&gt;Node12</title>
<path fill="none" stroke="midnightblue" d="M430.558,-110.44C442.972,-100.439 458.409,-88.0036 469.117,-79.3776"/>
<polygon fill="midnightblue" stroke="midnightblue" points="428.133,-107.898 422.541,-116.897 432.525,-113.349 428.133,-107.898"/>
</g>
</g>
</svg>
        <g id="navigator" transform="translate(0 0)" fill="#404254">
                <rect fill="#f2f5e9" fill-opacity="0.5" stroke="#606060" stroke-width=".5" x="0" y="0" width="60" height="60"/>
                <use id="zoomplus" xlink:href="#zoomPlus" x="17" y="9" onmousedown="handleZoom(evt,'in')"/>
                <use id="zoomminus" xlink:href="#zoomMin" x="42" y="9" onmousedown="handleZoom(evt,'out')"/>
                <use id="reset" xlink:href="#resetDef" x="30" y="36" onmousedown="handleReset()"/>
                <g id="arrowUp" xlink:href="#dirArrow" transform="translate(30 24)" onmousedown="handlePan(0,-1)">
                  <use xlink:href="#rim" fill="#404040">
                        <set attributeName="fill" to="#808080" begin="arrowUp.mouseover" end="arrowUp.mouseout"/>
                  </use>
                  <path fill="none" stroke="white" stroke-width="1.5" d="M0,-3.0v7 M-2.5,-0.5L0,-3.0L2.5,-0.5"/>
                </g>
                <g id="arrowRight" xlink:href="#dirArrow" transform="rotate(90) translate(36 -43)" onmousedown="handlePan(1,0)">
                  <use xlink:href="#rim" fill="#404040">
                        <set attributeName="fill" to="#808080" begin="arrowRight.mouseover" end="arrowRight.mouseout"/>
                  </use>
                  <path fill="none" stroke="white" stroke-width="1.5" d="M0,-3.0v7 M-2.5,-0.5L0,-3.0L2.5,-0.5"/>
                </g>
                <g id="arrowDown" xlink:href="#dirArrow" transform="rotate(180) translate(-30 -48)" onmousedown="handlePan(0,1)">
                  <use xlink:href="#rim" fill="#404040">
                        <set attributeName="fill" to="#808080" begin="arrowDown.mouseover" end="arrowDown.mouseout"/>
                  </use>
                  <path fill="none" stroke="white" stroke-width="1.5" d="M0,-3.0v7 M-2.5,-0.5L0,-3.0L2.5,-0.5"/>
                </g>
                <g id="arrowLeft" xlink:href="#dirArrow" transform="rotate(270) translate(-36 17)" onmousedown="handlePan(-1,0)">
                  <use xlink:href="#rim" fill="#404040">
                        <set attributeName="fill" to="#808080" begin="arrowLeft.mouseover" end="arrowLeft.mouseout"/>
                  </use>
                  <path fill="none" stroke="white" stroke-width="1.5" d="M0,-3.0v7 M-2.5,-0.5L0,-3.0L2.5,-0.5"/>
                </g>
        </g>
        <svg viewBox="0 0 15 15" width="100%" height="30px" preserveAspectRatio="xMaxYMin meet">
         <g id="arrow_out" transform="scale(0.3 0.3)">
          <a xlink:href="framescheduler_8h__dep__incl_org.svg" target="_base">
           <rect id="button" ry="5" rx="5" y="6" x="6" height="38" width="38"
                fill="#f2f5e9" fill-opacity="0.5" stroke="#606060" stroke-width="1.0"/>
           <path id="arrow"
             d="M 11.500037,31.436501 C 11.940474,20.09759 22.043105,11.32322 32.158766,21.979434 L 37.068811,17.246167 C 37.068811,17.246167 37.088388,32 37.088388,32 L 22.160133,31.978069 C 22.160133,31.978069 26.997745,27.140456 26.997745,27.140456 C 18.528582,18.264221 13.291696,25.230495 11.500037,31.436501 z"
             style="fill:#404040;"/>
          </a>
         </g>
        </svg>
</svg>
