<?xml version="1.0" encoding="UTF-8" standalone="no"?>
<!DOCTYPE svg PUBLIC "-//W3C//DTD SVG 1.1//EN"
 "http://www.w3.org/Graphics/SVG/1.1/DTD/svg11.dtd">
<!-- Generated by graphviz version 2.26.3 (20100126.1600)
 -->
<!-- Title: frameschedulerworkunits.h Pages: 1 -->
<!--zoomable 436 -->
<svg id="main" version="1.1" xmlns="http://www.w3.org/2000/svg" xmlns:xlink="http://www.w3.org/1999/xlink" xml:space="preserve" onload="init(evt)">
        <defs>
                <circle id="rim" cx="0" cy="0" r="7"/>
                <circle id="rim2" cx="0" cy="0" r="3.5"/>
                <g id="zoomPlus">
                        <use xlink:href="#rim" fill="#404040">
                                <set attributeName="fill" to="#808080" begin="zoomplus.mouseover" end="zoomplus.mouseout"/>
                        </use>
                        <path d="M-4,0h8M0,-4v8" fill="none" stroke="white" stroke-width="1.5" pointer-events="none"/>
                </g>
                <g id="zoomMin">
                        <use xlink:href="#rim" fill="#404040">
                                <set attributeName="fill" to="#808080" begin="zoomminus.mouseover" end="zoomminus.mouseout"/>
                        </use>
                        <path d="M-4,0h8" fill="none" stroke="white" stroke-width="1.5" pointer-events="none"/>
                </g>
                <g id="dirArrow">
                        <path fill="none" stroke="white" stroke-width="1.5" d="M0,-3.0v7 M-2.5,-0.5L0,-3.0L2.5,-0.5"/>
                </g>
               <g id="resetDef">
                       <use xlink:href="#rim2" fill="#404040">
                               <set attributeName="fill" to="#808080" begin="reset.mouseover" end="reset.mouseout"/>
                       </use>
               </g>
        </defs>

<script type="text/javascript">
var viewWidth = 923;
var viewHeight = 436;
var sectionId = 'dynsection-0';
</script>
<script xlink:href="svgpan.js"/>
<svg id="graph" class="graph">
<g id="viewport">
<title>frameschedulerworkunits.h</title>
<polygon fill="white" stroke="white" points="-4,5 -4,-432 920,-432 920,5 -4,5"/>
<!-- Node1 -->
<g id="node1" class="node"><title>Node1</title>
<polygon fill="#bfbfbf" stroke="black" points="556.5,-407 556.5,-427 687.5,-427 687.5,-407 556.5,-407"/>
<text text-anchor="middle" x="622" y="-414" font-family="FreeSans" font-size="10.00">frameschedulerworkunits.h</text>
</g>
<!-- Node2 -->
<g id="node3" class="node"><title>Node2</title>
<a xlink:href="datatypes_8h.html" target="_top" xlink:title="This file declares a few typedefs to allow flexibility, in case a change is required/desired.">
<polygon fill="white" stroke="black" points="453.5,-59 453.5,-79 518.5,-79 518.5,-59 453.5,-59"/>
<text text-anchor="middle" x="486" y="-66" font-family="FreeSans" font-size="10.00">datatypes.h</text>
</a>
</g>
<!-- Node1&#45;&gt;Node2 -->
<g id="edge2" class="edge"><title>Node1&#45;&gt;Node2</title>
<path fill="none" stroke="midnightblue" d="M676.424,-406.998C761.158,-389.855 915,-351.743 915,-301 915,-301 915,-301 915,-185 915,-105.572 637.499,-78.8726 528.871,-71.4636"/>
<polygon fill="midnightblue" stroke="midnightblue" points="528.805,-67.9518 518.597,-70.7864 528.345,-74.9367 528.805,-67.9518"/>
</g>
<!-- Node6 -->
<g id="node11" class="node"><title>Node6</title>
<a xlink:href="workunit_8h.html" target="_top" xlink:title="This file has the definition of the workunit.">
<polygon fill="white" stroke="black" points="279,-349 279,-369 339,-369 339,-349 279,-349"/>
<text text-anchor="middle" x="309" y="-356" font-family="FreeSans" font-size="10.00">workunit.h</text>
</a>
</g>
<!-- Node1&#45;&gt;Node6 -->
<g id="edge10" class="edge"><title>Node1&#45;&gt;Node6</title>
<path fill="none" stroke="midnightblue" d="M557.068,-407C502.427,-398.263 422.334,-384.704 353,-370 351.744,-369.734 350.468,-369.456 349.182,-369.171"/>
<polygon fill="midnightblue" stroke="midnightblue" points="349.763,-365.713 339.23,-366.862 348.18,-372.531 349.763,-365.713"/>
</g>
<!-- Node11 -->
<g id="node24" class="node"><title>Node11</title>
<polygon fill="white" stroke="#bfbfbf" points="343.5,-175 343.5,-195 386.5,-195 386.5,-175 343.5,-175"/>
<text text-anchor="middle" x="365" y="-182" font-family="FreeSans" font-size="10.00">vector</text>
</g>
<!-- Node1&#45;&gt;Node11 -->
<g id="edge86" class="edge"><title>Node1&#45;&gt;Node11</title>
<path fill="none" stroke="midnightblue" d="M571.437,-406.953C519.657,-393.992 440.623,-366.327 396,-312 370.664,-281.155 365.509,-232.749 364.764,-205.471"/>
<polygon fill="midnightblue" stroke="midnightblue" points="368.261,-205.153 364.668,-195.186 361.261,-205.218 368.261,-205.153"/>
</g>
<!-- Node17 -->
<g id="node40" class="node"><title>Node17</title>
<a xlink:href="workunitkey_8h.html" target="_top" xlink:title="This file defines the metadata used to sort workunits.">
<polygon fill="white" stroke="black" points="774.5,-233 774.5,-253 849.5,-253 849.5,-233 774.5,-233"/>
<text text-anchor="middle" x="812" y="-240" font-family="FreeSans" font-size="10.00">workunitkey.h</text>
</a>
</g>
<!-- Node1&#45;&gt;Node17 -->
<g id="edge84" class="edge"><title>Node1&#45;&gt;Node17</title>
<path fill="none" stroke="midnightblue" d="M633.036,-406.893C664.387,-378.182 754.234,-295.901 793.387,-260.046"/>
<polygon fill="midnightblue" stroke="midnightblue" points="795.922,-262.47 800.933,-253.135 791.194,-257.308 795.922,-262.47"/>
</g>
<!-- Node3 -->
<g id="node5" class="node"><title>Node3</title>
<a xlink:href="crossplatformexport_8h.html" target="_top" xlink:title="This file determines what features are offered by the compiler that this library can take advantage o...">
<polygon fill="white" stroke="black" points="385,-1 385,-21 493,-21 493,-1 385,-1"/>
<text text-anchor="middle" x="439" y="-8" font-family="FreeSans" font-size="10.00">crossplatformexport.h</text>
</a>
</g>
<!-- Node2&#45;&gt;Node3 -->
<g id="edge4" class="edge"><title>Node2&#45;&gt;Node3</title>
<path fill="none" stroke="midnightblue" d="M477.813,-58.8972C471.223,-50.7639 461.786,-39.1183 453.867,-29.3468"/>
<polygon fill="midnightblue" stroke="midnightblue" points="456.425,-26.9434 447.409,-21.3776 450.986,-31.3505 456.425,-26.9434"/>
</g>
<!-- Node4 -->
<g id="node7" class="node"><title>Node4</title>
<polygon fill="white" stroke="#bfbfbf" points="217,-1 217,-21 257,-21 257,-1 217,-1"/>
<text text-anchor="middle" x="237" y="-8" font-family="FreeSans" font-size="10.00">string</text>
</g>
<!-- Node2&#45;&gt;Node4 -->
<g id="edge6" class="edge"><title>Node2&#45;&gt;Node4</title>
<path fill="none" stroke="midnightblue" d="M453.448,-61.4175C404.915,-50.1128 314.266,-28.9976 267.161,-18.0255"/>
<polygon fill="midnightblue" stroke="midnightblue" points="267.791,-14.5786 257.258,-15.7187 266.203,-21.3961 267.791,-14.5786"/>
</g>
<!-- Node5 -->
<g id="node9" class="node"><title>Node5</title>
<polygon fill="white" stroke="#bfbfbf" points="510.5,-1 510.5,-21 557.5,-21 557.5,-1 510.5,-1"/>
<text text-anchor="middle" x="534" y="-8" font-family="FreeSans" font-size="10.00">stdint.h</text>
</g>
<!-- Node2&#45;&gt;Node5 -->
<g id="edge8" class="edge"><title>Node2&#45;&gt;Node5</title>
<path fill="none" stroke="midnightblue" d="M494.361,-58.8972C501.092,-50.7639 510.73,-39.1183 518.816,-29.3468"/>
<polygon fill="midnightblue" stroke="midnightblue" points="521.732,-31.3131 525.412,-21.3776 516.34,-26.8501 521.732,-31.3131"/>
</g>
<!-- Node6&#45;&gt;Node2 -->
<g id="edge12" class="edge"><title>Node6&#45;&gt;Node2</title>
<path fill="none" stroke="midnightblue" d="M339.069,-358.097C444.046,-354.252 791.49,-335.465 858,-254 898.071,-204.918 930.69,-212.042 784,-116 742.705,-88.9629 600.681,-76.2609 528.637,-71.4414"/>
<polygon fill="midnightblue" stroke="midnightblue" points="528.741,-67.9409 518.535,-70.7868 528.288,-74.9262 528.741,-67.9409"/>
</g>
<!-- Node7 -->
<g id="node14" class="node"><title>Node7</title>
<a xlink:href="framescheduler_8h.html" target="_top" xlink:title="This file has the Declarations for the main FrameScheduler class.">
<polygon fill="white" stroke="black" points="405,-291 405,-311 495,-311 495,-291 405,-291"/>
<text text-anchor="middle" x="450" y="-298" font-family="FreeSans" font-size="10.00">framescheduler.h</text>
</a>
</g>
<!-- Node6&#45;&gt;Node7 -->
<g id="edge14" class="edge"><title>Node6&#45;&gt;Node7</title>
<path fill="none" stroke="midnightblue" d="M333.56,-348.897C356.368,-339.515 390.539,-325.459 415.971,-314.998"/>
<polygon fill="midnightblue" stroke="midnightblue" points="417.331,-318.223 425.248,-311.182 414.668,-311.749 417.331,-318.223"/>
</g>
<!-- Node6&#45;&gt;Node11 -->
<g id="edge82" class="edge"><title>Node6&#45;&gt;Node11</title>
<path fill="none" stroke="midnightblue" d="M312.253,-348.893C321.261,-320.903 346.656,-241.999 358.617,-204.832"/>
<polygon fill="midnightblue" stroke="midnightblue" points="362.006,-205.726 361.738,-195.135 355.343,-203.582 362.006,-205.726"/>
</g>
<!-- Node12 -->
<g id="node26" class="node"><title>Node12</title>
<a xlink:href="thread_8h.html" target="_top" xlink:title="This file defines a minimalistic cross&#45;platform thread that the scheduler uses to schedule tasks...">
<polygon fill="white" stroke="black" points="112.5,-233 112.5,-253 163.5,-253 163.5,-233 112.5,-233"/>
<text text-anchor="middle" x="138" y="-240" font-family="FreeSans" font-size="10.00">thread.h</text>
</a>
</g>
<!-- Node6&#45;&gt;Node12 -->
<g id="edge78" class="edge"><title>Node6&#45;&gt;Node12</title>
<path fill="none" stroke="midnightblue" d="M294.124,-348.909C264.311,-328.684 197.051,-283.058 161.325,-258.823"/>
<polygon fill="midnightblue" stroke="midnightblue" points="163.204,-255.868 152.963,-253.151 159.274,-261.661 163.204,-255.868"/>
</g>
<!-- Node14 -->
<g id="node31" class="node"><title>Node14</title>
<a xlink:href="mutex_8h.html" target="_top" xlink:title="This file declares and defines a mutex that is a partial implementation.">
<polygon fill="white" stroke="black" points="78,-175 78,-195 128,-195 128,-175 78,-175"/>
<text text-anchor="middle" x="103" y="-182" font-family="FreeSans" font-size="10.00">mutex.h</text>
</a>
</g>
<!-- Node6&#45;&gt;Node14 -->
<g id="edge70" class="edge"><title>Node6&#45;&gt;Node14</title>
<path fill="none" stroke="midnightblue" d="M278.684,-353.901C231.308,-344.099 141.287,-317.66 104,-254 95.4114,-239.337 96.0333,-219.739 98.2957,-205.178"/>
<polygon fill="midnightblue" stroke="midnightblue" points="101.765,-205.67 100.22,-195.189 94.8915,-204.346 101.765,-205.67"/>
</g>
<!-- Node6&#45;&gt;Node17 -->
<g id="edge80" class="edge"><title>Node6&#45;&gt;Node17</title>
<path fill="none" stroke="midnightblue" d="M339.332,-352.005C423.816,-332.522 662.299,-277.524 764.52,-253.95"/>
<polygon fill="midnightblue" stroke="midnightblue" points="765.31,-257.359 774.268,-251.702 763.737,-250.538 765.31,-257.359"/>
</g>
<!-- Node18 -->
<g id="node44" class="node"><title>Node18</title>
<a xlink:href="rollingaverage_8h.html" target="_top" xlink:title="This stores the implementation and the declaration of the RollingAverage, BufferedRollingAverage, WeightedRollingAverage and the DefaultRollingAverage.">
<polygon fill="white" stroke="black" points="180.5,-233 180.5,-253 263.5,-253 263.5,-233 180.5,-233"/>
<text text-anchor="middle" x="222" y="-240" font-family="FreeSans" font-size="10.00">rollingaverage.h</text>
</a>
</g>
<!-- Node6&#45;&gt;Node18 -->
<g id="edge72" class="edge"><title>Node6&#45;&gt;Node18</title>
<path fill="none" stroke="midnightblue" d="M301.279,-348.706C286.538,-329.051 254.209,-285.945 235.71,-261.281"/>
<polygon fill="midnightblue" stroke="midnightblue" points="238.379,-259.006 229.579,-253.106 232.779,-263.206 238.379,-259.006"/>
</g>
<!-- Node23 -->
<g id="node60" class="node"><title>Node23</title>
<a xlink:href="threadingenumerations_8h.html" target="_top" xlink:title="Any enumerations the threading library requires are all declared here.">
<polygon fill="white" stroke="black" points="0,-117 0,-137 122,-137 122,-117 0,-117"/>
<text text-anchor="middle" x="61" y="-124" font-family="FreeSans" font-size="10.00">threadingenumerations.h</text>
</a>
</g>
<!-- Node6&#45;&gt;Node23 -->
<g id="edge74" class="edge"><title>Node6&#45;&gt;Node23</title>
<path fill="none" stroke="midnightblue" d="M278.699,-353.806C234.132,-345.712 153.628,-329.222 130,-312 76.2972,-272.856 64.3609,-186.906 61.7303,-147.488"/>
<polygon fill="midnightblue" stroke="midnightblue" points="65.2131,-147.067 61.1921,-137.265 58.2228,-147.435 65.2131,-147.067"/>
</g>
<!-- Node7&#45;&gt;Node2 -->
<g id="edge16" class="edge"><title>Node7&#45;&gt;Node2</title>
<path fill="none" stroke="midnightblue" d="M495.291,-292.76C500.585,-291.818 505.91,-290.881 511,-290 559.165,-281.662 696.39,-291.286 728,-254 795.6,-174.261 614.516,-107.361 528.49,-81.0163"/>
<polygon fill="midnightblue" stroke="midnightblue" points="529.325,-77.6125 518.74,-78.0794 527.306,-84.315 529.325,-77.6125"/>
</g>
<!-- Node8 -->
<g id="node17" class="node"><title>Node8</title>
<a xlink:href="doublebufferedresource_8h.html" target="_top" xlink:title="This file defines the template double buffered resources that can be attached to a thread...">
<polygon fill="white" stroke="black" points="530.5,-233 530.5,-253 653.5,-253 653.5,-233 530.5,-233"/>
<text text-anchor="middle" x="592" y="-240" font-family="FreeSans" font-size="10.00">doublebufferedresource.h</text>
</a>
</g>
<!-- Node7&#45;&gt;Node8 -->
<g id="edge18" class="edge"><title>Node7&#45;&gt;Node8</title>
<path fill="none" stroke="midnightblue" d="M474.735,-290.897C497.704,-281.515 532.117,-267.459 557.729,-256.998"/>
<polygon fill="midnightblue" stroke="midnightblue" points="559.138,-260.203 567.072,-253.182 556.491,-253.723 559.138,-260.203"/>
</g>
<!-- Node7&#45;&gt;Node12 -->
<g id="edge28" class="edge"><title>Node7&#45;&gt;Node12</title>
<path fill="none" stroke="midnightblue" d="M404.811,-295.418C351.461,-288.374 259.975,-274.875 173.238,-254.063"/>
<polygon fill="midnightblue" stroke="midnightblue" points="174.05,-250.659 163.505,-251.692 172.393,-257.46 174.05,-250.659"/>
</g>
<!-- Node13 -->
<g id="node28" class="node"><title>Node13</title>
<a xlink:href="systemcalls_8h.html" target="_top" xlink:title="This file defines a minimalistic cross&#45;platform thread that the scheduler uses to schedule tasks...">
<polygon fill="white" stroke="black" points="252,-175 252,-195 326,-195 326,-175 252,-175"/>
<text text-anchor="middle" x="289" y="-182" font-family="FreeSans" font-size="10.00">systemcalls.h</text>
</a>
</g>
<!-- Node7&#45;&gt;Node13 -->
<g id="edge50" class="edge"><title>Node7&#45;&gt;Node13</title>
<path fill="none" stroke="midnightblue" d="M435.994,-290.909C408.043,-270.77 345.134,-225.444 311.39,-201.132"/>
<polygon fill="midnightblue" stroke="midnightblue" points="313.248,-198.157 303.088,-195.151 309.156,-203.836 313.248,-198.157"/>
</g>
<!-- Node7&#45;&gt;Node17 -->
<g id="edge46" class="edge"><title>Node7&#45;&gt;Node17</title>
<path fill="none" stroke="midnightblue" d="M495.212,-295.069C555.871,-286.906 666.87,-271.247 761,-254 762.091,-253.8 763.195,-253.594 764.308,-253.383"/>
<polygon fill="midnightblue" stroke="midnightblue" points="765.322,-256.75 774.453,-251.376 763.964,-249.883 765.322,-256.75"/>
</g>
<!-- Node7&#45;&gt;Node18 -->
<g id="edge52" class="edge"><title>Node7&#45;&gt;Node18</title>
<path fill="none" stroke="midnightblue" d="M410.546,-290.963C371.925,-281.139 312.978,-266.144 271.291,-255.539"/>
<polygon fill="midnightblue" stroke="midnightblue" points="271.907,-252.084 261.353,-253.011 270.181,-258.868 271.907,-252.084"/>
</g>
<!-- Node19 -->
<g id="node48" class="node"><title>Node19</title>
<a xlink:href="barrier_8h.html" target="_top" xlink:title="The declaration of the Mezzanine::Threading::Barrier Barrier synchronization primitive.">
<polygon fill="white" stroke="black" points="403.5,-175 403.5,-195 454.5,-195 454.5,-175 403.5,-175"/>
<text text-anchor="middle" x="429" y="-182" font-family="FreeSans" font-size="10.00">barrier.h</text>
</a>
</g>
<!-- Node7&#45;&gt;Node19 -->
<g id="edge58" class="edge"><title>Node7&#45;&gt;Node19</title>
<path fill="none" stroke="midnightblue" d="M442.368,-290.827C436.045,-281.72 427.543,-267.724 424,-254 419.831,-237.85 421.656,-218.916 424.2,-204.972"/>
<polygon fill="midnightblue" stroke="midnightblue" points="427.662,-205.513 426.292,-195.007 420.812,-204.074 427.662,-205.513"/>
</g>
<!-- Node20 -->
<g id="node52" class="node"><title>Node20</title>
<polygon fill="white" stroke="#bfbfbf" points="432.5,-233 432.5,-253 467.5,-253 467.5,-233 432.5,-233"/>
<text text-anchor="middle" x="450" y="-240" font-family="FreeSans" font-size="10.00">map</text>
</g>
<!-- Node7&#45;&gt;Node20 -->
<g id="edge64" class="edge"><title>Node7&#45;&gt;Node20</title>
<path fill="none" stroke="midnightblue" d="M450,-290.897C450,-283.339 450,-272.748 450,-263.446"/>
<polygon fill="midnightblue" stroke="midnightblue" points="453.5,-263.378 450,-253.378 446.5,-263.378 453.5,-263.378"/>
</g>
<!-- Node21 -->
<g id="node54" class="node"><title>Node21</title>
<polygon fill="white" stroke="#bfbfbf" points="484.5,-233 484.5,-253 513.5,-253 513.5,-233 484.5,-233"/>
<text text-anchor="middle" x="499" y="-240" font-family="FreeSans" font-size="10.00">set</text>
</g>
<!-- Node7&#45;&gt;Node21 -->
<g id="edge66" class="edge"><title>Node7&#45;&gt;Node21</title>
<path fill="none" stroke="midnightblue" d="M458.535,-290.897C465.476,-282.682 475.444,-270.883 483.75,-261.051"/>
<polygon fill="midnightblue" stroke="midnightblue" points="486.453,-263.275 490.233,-253.378 481.106,-258.758 486.453,-263.275"/>
</g>
<!-- Node22 -->
<g id="node56" class="node"><title>Node22</title>
<polygon fill="white" stroke="#bfbfbf" points="670.5,-233 670.5,-253 719.5,-253 719.5,-233 670.5,-233"/>
<text text-anchor="middle" x="695" y="-240" font-family="FreeSans" font-size="10.00">fstream</text>
</g>
<!-- Node7&#45;&gt;Node22 -->
<g id="edge68" class="edge"><title>Node7&#45;&gt;Node22</title>
<path fill="none" stroke="midnightblue" d="M495.413,-292.35C536.378,-284.231 598.437,-271.149 660.296,-254.302"/>
<polygon fill="midnightblue" stroke="midnightblue" points="661.508,-257.599 670.218,-251.567 659.648,-250.85 661.508,-257.599"/>
</g>
<!-- Node8&#45;&gt;Node2 -->
<g id="edge20" class="edge"><title>Node8&#45;&gt;Node2</title>
<path fill="none" stroke="midnightblue" d="M600.386,-232.897C610.67,-219.202 625.623,-194.142 616,-174 595.712,-131.535 548.936,-100.726 517.388,-83.8525"/>
<polygon fill="midnightblue" stroke="midnightblue" points="518.622,-80.5506 508.132,-79.0658 515.407,-86.7684 518.622,-80.5506"/>
</g>
<!-- Node9 -->
<g id="node20" class="node"><title>Node9</title>
<polygon fill="white" stroke="#bfbfbf" points="551,-175 551,-195 607,-195 607,-175 551,-175"/>
<text text-anchor="middle" x="579" y="-182" font-family="FreeSans" font-size="10.00">algorithm</text>
</g>
<!-- Node8&#45;&gt;Node9 -->
<g id="edge22" class="edge"><title>Node8&#45;&gt;Node9</title>
<path fill="none" stroke="midnightblue" d="M589.736,-232.897C588.023,-225.257 585.616,-214.517 583.515,-205.143"/>
<polygon fill="midnightblue" stroke="midnightblue" points="586.928,-204.37 581.326,-195.378 580.098,-205.901 586.928,-204.37"/>
</g>
<!-- Node10 -->
<g id="node22" class="node"><title>Node10</title>
<polygon fill="white" stroke="#bfbfbf" points="483,-175 483,-195 533,-195 533,-175 483,-175"/>
<text text-anchor="middle" x="508" y="-182" font-family="FreeSans" font-size="10.00">sstream</text>
</g>
<!-- Node8&#45;&gt;Node10 -->
<g id="edge24" class="edge"><title>Node8&#45;&gt;Node10</title>
<path fill="none" stroke="midnightblue" d="M577.368,-232.897C564.678,-224.135 546.085,-211.297 531.341,-201.116"/>
<polygon fill="midnightblue" stroke="midnightblue" points="532.964,-197.983 522.746,-195.182 528.986,-203.744 532.964,-197.983"/>
</g>
<!-- Node8&#45;&gt;Node11 -->
<g id="edge26" class="edge"><title>Node8&#45;&gt;Node11</title>
<path fill="none" stroke="midnightblue" d="M543.001,-232.983C505.154,-224.87 451.343,-212.52 396.428,-196.216"/>
<polygon fill="midnightblue" stroke="midnightblue" points="397.112,-192.767 386.528,-193.237 395.095,-199.47 397.112,-192.767"/>
</g>
<!-- Node12&#45;&gt;Node11 -->
<g id="edge44" class="edge"><title>Node12&#45;&gt;Node11</title>
<path fill="none" stroke="midnightblue" d="M163.541,-234.448C166.384,-233.582 169.246,-232.748 172,-232 240.521,-213.395 261.96,-216.495 333.533,-196.165"/>
<polygon fill="midnightblue" stroke="midnightblue" points="334.854,-199.426 343.485,-193.281 332.906,-192.703 334.854,-199.426"/>
</g>
<!-- Node12&#45;&gt;Node13 -->
<g id="edge30" class="edge"><title>Node12&#45;&gt;Node13</title>
<path fill="none" stroke="midnightblue" d="M163.615,-233.161C188.195,-223.72 225.544,-209.374 253.089,-198.794"/>
<polygon fill="midnightblue" stroke="midnightblue" points="254.672,-201.935 262.752,-195.082 252.162,-195.401 254.672,-201.935"/>
</g>
<!-- Node12&#45;&gt;Node14 -->
<g id="edge34" class="edge"><title>Node12&#45;&gt;Node14</title>
<path fill="none" stroke="midnightblue" d="M131.903,-232.897C127.095,-224.928 120.251,-213.587 114.43,-203.941"/>
<polygon fill="midnightblue" stroke="midnightblue" points="117.426,-202.131 109.262,-195.378 111.432,-205.748 117.426,-202.131"/>
</g>
<!-- Node16 -->
<g id="node37" class="node"><title>Node16</title>
<polygon fill="white" stroke="#bfbfbf" points="145.5,-175 145.5,-195 196.5,-195 196.5,-175 145.5,-175"/>
<text text-anchor="middle" x="171" y="-182" font-family="FreeSans" font-size="10.00">ostream</text>
</g>
<!-- Node12&#45;&gt;Node16 -->
<g id="edge42" class="edge"><title>Node12&#45;&gt;Node16</title>
<path fill="none" stroke="midnightblue" d="M143.748,-232.897C148.235,-225.01 154.602,-213.821 160.053,-204.24"/>
<polygon fill="midnightblue" stroke="midnightblue" points="163.192,-205.8 165.096,-195.378 157.108,-202.338 163.192,-205.8"/>
</g>
<!-- Node13&#45;&gt;Node2 -->
<g id="edge32" class="edge"><title>Node13&#45;&gt;Node2</title>
<path fill="none" stroke="midnightblue" d="M326.166,-175.03C361.635,-165.072 412.096,-149.617 429,-138 448.088,-124.882 464.273,-103.646 474.463,-88.1941"/>
<polygon fill="midnightblue" stroke="midnightblue" points="477.611,-89.7653 480.006,-79.4447 471.698,-86.0191 477.611,-89.7653"/>
</g>
<!-- Node14&#45;&gt;Node4 -->
<g id="edge40" class="edge"><title>Node14&#45;&gt;Node4</title>
<path fill="none" stroke="midnightblue" d="M110.784,-174.893C132.617,-146.542 194.676,-65.9586 222.816,-29.4176"/>
<polygon fill="midnightblue" stroke="midnightblue" points="225.866,-31.1934 229.195,-21.135 220.32,-26.9223 225.866,-31.1934"/>
</g>
<!-- Node15 -->
<g id="node33" class="node"><title>Node15</title>
<a xlink:href="atomicoperations_8h.html" target="_top" xlink:title="Simple thread safe ways to check and change a specified variable atomically.">
<polygon fill="white" stroke="black" points="322,-117 322,-137 420,-137 420,-117 322,-117"/>
<text text-anchor="middle" x="371" y="-124" font-family="FreeSans" font-size="10.00">atomicoperations.h</text>
</a>
</g>
<!-- Node14&#45;&gt;Node15 -->
<g id="edge36" class="edge"><title>Node14&#45;&gt;Node15</title>
<path fill="none" stroke="midnightblue" d="M128.156,-176.506C131.123,-175.61 134.119,-174.753 137,-174 195.826,-158.63 264.093,-145.439 311.652,-136.978"/>
<polygon fill="midnightblue" stroke="midnightblue" points="312.535,-140.376 321.775,-135.193 311.319,-133.483 312.535,-140.376"/>
</g>
<!-- Node15&#45;&gt;Node2 -->
<g id="edge38" class="edge"><title>Node15&#45;&gt;Node2</title>
<path fill="none" stroke="midnightblue" d="M391.031,-116.897C409.224,-107.722 436.28,-94.0762 456.865,-83.6943"/>
<polygon fill="midnightblue" stroke="midnightblue" points="458.46,-86.8099 465.812,-79.1817 455.307,-80.5598 458.46,-86.8099"/>
</g>
<!-- Node17&#45;&gt;Node2 -->
<g id="edge48" class="edge"><title>Node17&#45;&gt;Node2</title>
<path fill="none" stroke="midnightblue" d="M811.173,-232.819C808.609,-208.401 798.532,-146.295 761,-116 725.958,-87.7145 596.725,-75.7225 528.628,-71.2777"/>
<polygon fill="midnightblue" stroke="midnightblue" points="528.844,-67.7845 518.645,-70.6517 528.406,-74.7708 528.844,-67.7845"/>
</g>
<!-- Node18&#45;&gt;Node2 -->
<g id="edge56" class="edge"><title>Node18&#45;&gt;Node2</title>
<path fill="none" stroke="midnightblue" d="M223.222,-232.854C225.323,-218.666 230.652,-192.556 243,-174 265.383,-140.364 277.137,-134.607 313,-116 354.488,-94.4747 406.835,-82.0299 443.023,-75.4194"/>
<polygon fill="midnightblue" stroke="midnightblue" points="443.995,-78.8024 453.241,-73.6292 442.787,-71.9075 443.995,-78.8024"/>
</g>
<!-- Node18&#45;&gt;Node11 -->
<g id="edge54" class="edge"><title>Node18&#45;&gt;Node11</title>
<path fill="none" stroke="midnightblue" d="M246.909,-232.897C271.034,-223.112 307.693,-208.243 333.76,-197.671"/>
<polygon fill="midnightblue" stroke="midnightblue" points="335.233,-200.85 343.184,-193.848 332.602,-194.364 335.233,-200.85"/>
</g>
<!-- Node19&#45;&gt;Node2 -->
<g id="edge60" class="edge"><title>Node19&#45;&gt;Node2</title>
<path fill="none" stroke="midnightblue" d="M437.493,-174.71C444.752,-165.528 455.09,-151.488 462,-138 470.111,-122.169 476.538,-102.974 480.692,-88.8528"/>
<polygon fill="midnightblue" stroke="midnightblue" points="484.073,-89.7574 483.415,-79.183 477.335,-87.8595 484.073,-89.7574"/>
</g>
<!-- Node19&#45;&gt;Node15 -->
<g id="edge62" class="edge"><title>Node19&#45;&gt;Node15</title>
<path fill="none" stroke="midnightblue" d="M418.897,-174.897C410.517,-166.517 398.409,-154.409 388.464,-144.464"/>
<polygon fill="midnightblue" stroke="midnightblue" points="390.924,-141.974 381.378,-137.378 385.974,-146.924 390.924,-141.974"/>
</g>
<!-- Node23&#45;&gt;Node2 -->
<g id="edge76" class="edge"><title>Node23&#45;&gt;Node2</title>
<path fill="none" stroke="midnightblue" d="M122.345,-118.628C209.615,-106.718 367.406,-85.1846 443.155,-74.8471"/>
<polygon fill="midnightblue" stroke="midnightblue" points="443.848,-78.285 453.283,-73.4649 442.901,-71.3493 443.848,-78.285"/>
</g>
</g>
</svg>
        <g id="navigator" transform="translate(0 0)" fill="#404254">
                <rect fill="#f2f5e9" fill-opacity="0.5" stroke="#606060" stroke-width=".5" x="0" y="0" width="60" height="60"/>
                <use id="zoomplus" xlink:href="#zoomPlus" x="17" y="9" onmousedown="handleZoom(evt,'in')"/>
                <use id="zoomminus" xlink:href="#zoomMin" x="42" y="9" onmousedown="handleZoom(evt,'out')"/>
                <use id="reset" xlink:href="#resetDef" x="30" y="36" onmousedown="handleReset()"/>
                <g id="arrowUp" xlink:href="#dirArrow" transform="translate(30 24)" onmousedown="handlePan(0,-1)">
                  <use xlink:href="#rim" fill="#404040">
                        <set attributeName="fill" to="#808080" begin="arrowUp.mouseover" end="arrowUp.mouseout"/>
                  </use>
                  <path fill="none" stroke="white" stroke-width="1.5" d="M0,-3.0v7 M-2.5,-0.5L0,-3.0L2.5,-0.5"/>
                </g>
                <g id="arrowRight" xlink:href="#dirArrow" transform="rotate(90) translate(36 -43)" onmousedown="handlePan(1,0)">
                  <use xlink:href="#rim" fill="#404040">
                        <set attributeName="fill" to="#808080" begin="arrowRight.mouseover" end="arrowRight.mouseout"/>
                  </use>
                  <path fill="none" stroke="white" stroke-width="1.5" d="M0,-3.0v7 M-2.5,-0.5L0,-3.0L2.5,-0.5"/>
                </g>
                <g id="arrowDown" xlink:href="#dirArrow" transform="rotate(180) translate(-30 -48)" onmousedown="handlePan(0,1)">
                  <use xlink:href="#rim" fill="#404040">
                        <set attributeName="fill" to="#808080" begin="arrowDown.mouseover" end="arrowDown.mouseout"/>
                  </use>
                  <path fill="none" stroke="white" stroke-width="1.5" d="M0,-3.0v7 M-2.5,-0.5L0,-3.0L2.5,-0.5"/>
                </g>
                <g id="arrowLeft" xlink:href="#dirArrow" transform="rotate(270) translate(-36 17)" onmousedown="handlePan(-1,0)">
                  <use xlink:href="#rim" fill="#404040">
                        <set attributeName="fill" to="#808080" begin="arrowLeft.mouseover" end="arrowLeft.mouseout"/>
                  </use>
                  <path fill="none" stroke="white" stroke-width="1.5" d="M0,-3.0v7 M-2.5,-0.5L0,-3.0L2.5,-0.5"/>
                </g>
        </g>
        <svg viewBox="0 0 15 15" width="100%" height="30px" preserveAspectRatio="xMaxYMin meet">
         <g id="arrow_out" transform="scale(0.3 0.3)">
          <a xlink:href="frameschedulerworkunits_8h__incl_org.svg" target="_base">
           <rect id="button" ry="5" rx="5" y="6" x="6" height="38" width="38"
                fill="#f2f5e9" fill-opacity="0.5" stroke="#606060" stroke-width="1.0"/>
           <path id="arrow"
             d="M 11.500037,31.436501 C 11.940474,20.09759 22.043105,11.32322 32.158766,21.979434 L 37.068811,17.246167 C 37.068811,17.246167 37.088388,32 37.088388,32 L 22.160133,31.978069 C 22.160133,31.978069 26.997745,27.140456 26.997745,27.140456 C 18.528582,18.264221 13.291696,25.230495 11.500037,31.436501 z"
             style="fill:#404040;"/>
          </a>
         </g>
        </svg>
</svg>
