<?xml version="1.0" encoding="UTF-8" standalone="no"?>
<!DOCTYPE svg PUBLIC "-//W3C//DTD SVG 1.1//EN"
 "http://www.w3.org/Graphics/SVG/1.1/DTD/svg11.dtd">
<!-- Generated by graphviz version 2.26.3 (20100126.1600)
 -->
<!-- Title: G Pages: 1 -->
<!--zoomable 512 -->
<svg id="main" version="1.1" xmlns="http://www.w3.org/2000/svg" xmlns:xlink="http://www.w3.org/1999/xlink" xml:space="preserve" onload="init(evt)">
        <defs>
                <circle id="rim" cx="0" cy="0" r="7"/>
                <circle id="rim2" cx="0" cy="0" r="3.5"/>
                <g id="zoomPlus">
                        <use xlink:href="#rim" fill="#404040">
                                <set attributeName="fill" to="#808080" begin="zoomplus.mouseover" end="zoomplus.mouseout"/>
                        </use>
                        <path d="M-4,0h8M0,-4v8" fill="none" stroke="white" stroke-width="1.5" pointer-events="none"/>
                </g>
                <g id="zoomMin">
                        <use xlink:href="#rim" fill="#404040">
                                <set attributeName="fill" to="#808080" begin="zoomminus.mouseover" end="zoomminus.mouseout"/>
                        </use>
                        <path d="M-4,0h8" fill="none" stroke="white" stroke-width="1.5" pointer-events="none"/>
                </g>
                <g id="dirArrow">
                        <path fill="none" stroke="white" stroke-width="1.5" d="M0,-3.0v7 M-2.5,-0.5L0,-3.0L2.5,-0.5"/>
                </g>
               <g id="resetDef">
                       <use xlink:href="#rim2" fill="#404040">
                               <set attributeName="fill" to="#808080" begin="reset.mouseover" end="reset.mouseout"/>
                       </use>
               </g>
        </defs>

<script type="text/javascript">
var viewWidth = 903;
var viewHeight = 512;
var sectionId = 'dynsection-0';
</script>
<script xlink:href="svgpan.js"/>
<svg id="graph" class="graph">
<g id="viewport">
<title>G</title>
<polygon fill="white" stroke="white" points="-4,5 -4,-508 900,-508 900,5 -4,5"/>
<!-- Node1 -->
<g id="node1" class="node"><title>Node1</title>
<polygon fill="#bfbfbf" stroke="black" points="706,-481 706,-503 852,-503 852,-481 706,-481"/>
<text text-anchor="middle" x="779" y="-490" font-family="FreeSans" font-size="10.00">frameschedulerworkunits.cpp</text>
</g>
<!-- Node2 -->
<g id="node3" class="node"><title>Node2</title>
<a xlink:href="frameschedulerworkunits_8h.html" target="_top" xlink:title="This defines a number of workunits that are required for doing some tasks that the Framescheduler req...">
<polygon fill="white" stroke="black" points="759,-421 759,-443 895,-443 895,-421 759,-421"/>
<text text-anchor="middle" x="827" y="-430" font-family="FreeSans" font-size="10.00">frameschedulerworkunits.h</text>
</a>
</g>
<!-- Node1&#45;&gt;Node2 -->
<g id="edge2" class="edge"><title>Node1&#45;&gt;Node2</title>
<path fill="none" stroke="midnightblue" d="M787.804,-480.995C794.419,-472.727 803.65,-461.188 811.492,-451.385"/>
<polygon fill="midnightblue" stroke="midnightblue" points="814.412,-453.338 817.926,-443.343 808.946,-448.965 814.412,-453.338"/>
</g>
<!-- Node13 -->
<g id="node27" class="node"><title>Node13</title>
<a xlink:href="doublebufferedresource_8h.html" target="_top" xlink:title="This file defines the template double buffered resources that can be attached to a thread...">
<polygon fill="white" stroke="black" points="570.5,-241 570.5,-263 701.5,-263 701.5,-241 570.5,-241"/>
<text text-anchor="middle" x="636" y="-250" font-family="FreeSans" font-size="10.00">doublebufferedresource.h</text>
</a>
</g>
<!-- Node1&#45;&gt;Node13 -->
<g id="edge84" class="edge"><title>Node1&#45;&gt;Node13</title>
<path fill="none" stroke="midnightblue" d="M772.295,-480.957C766.402,-471.237 757.604,-456.696 750,-444 712.493,-381.378 668.486,-307.003 647.833,-272.044"/>
<polygon fill="midnightblue" stroke="midnightblue" points="650.751,-270.102 642.652,-263.271 644.723,-273.662 650.751,-270.102"/>
</g>
<!-- Node3 -->
<g id="node5" class="node"><title>Node3</title>
<a xlink:href="datatypes_8h.html" target="_top" xlink:title="This file declares a few typedefs to allow flexibility, in case a change is required/desired.">
<polygon fill="white" stroke="black" points="337,-121 337,-143 405,-143 405,-121 337,-121"/>
<text text-anchor="middle" x="371" y="-130" font-family="FreeSans" font-size="10.00">datatypes.h</text>
</a>
</g>
<!-- Node2&#45;&gt;Node3 -->
<g id="edge4" class="edge"><title>Node2&#45;&gt;Node3</title>
<path fill="none" stroke="midnightblue" d="M822.469,-420.966C814.312,-400.076 798,-353.151 798,-312 798,-312 798,-312 798,-252 798,-207.678 768.517,-200.072 729,-180 674.981,-152.562 498.537,-139.197 415.265,-134.293"/>
<polygon fill="midnightblue" stroke="midnightblue" points="415.293,-130.789 405.109,-133.71 414.892,-137.778 415.293,-130.789"/>
</g>
<!-- Node11 -->
<g id="node21" class="node"><title>Node11</title>
<a xlink:href="workunit_8h.html" target="_top" xlink:title="This file has the defintion of the workunit.">
<polygon fill="white" stroke="black" points="406.5,-361 406.5,-383 467.5,-383 467.5,-361 406.5,-361"/>
<text text-anchor="middle" x="437" y="-370" font-family="FreeSans" font-size="10.00">workunit.h</text>
</a>
</g>
<!-- Node2&#45;&gt;Node11 -->
<g id="edge20" class="edge"><title>Node2&#45;&gt;Node11</title>
<path fill="none" stroke="midnightblue" d="M758.621,-421.48C677.334,-408.974 544.33,-388.512 477.712,-378.263"/>
<polygon fill="midnightblue" stroke="midnightblue" points="478.024,-374.77 467.608,-376.709 476.959,-381.689 478.024,-374.77"/>
</g>
<!-- Node4 -->
<g id="node7" class="node"><title>Node4</title>
<a xlink:href="compilerthreadcompat_8h.html" target="_top" xlink:title="This file determines what features are offered by the compiler that this library can take advantage o...">
<polygon fill="white" stroke="black" points="73,-61 73,-83 197,-83 197,-61 73,-61"/>
<text text-anchor="middle" x="135" y="-70" font-family="FreeSans" font-size="10.00">compilerthreadcompat.h</text>
</a>
</g>
<!-- Node3&#45;&gt;Node4 -->
<g id="edge6" class="edge"><title>Node3&#45;&gt;Node4</title>
<path fill="none" stroke="midnightblue" d="M336.936,-123.34C297.929,-113.423 233.552,-97.0556 187.983,-85.4702"/>
<polygon fill="midnightblue" stroke="midnightblue" points="188.827,-82.0736 178.273,-83.0017 187.102,-88.8578 188.827,-82.0736"/>
</g>
<!-- Node9 -->
<g id="node17" class="node"><title>Node9</title>
<polygon fill="white" stroke="#bfbfbf" points="252.5,-61 252.5,-83 293.5,-83 293.5,-61 252.5,-61"/>
<text text-anchor="middle" x="273" y="-70" font-family="FreeSans" font-size="10.00">string</text>
</g>
<!-- Node3&#45;&gt;Node9 -->
<g id="edge16" class="edge"><title>Node3&#45;&gt;Node9</title>
<path fill="none" stroke="midnightblue" d="M353.025,-120.995C338.199,-111.918 316.935,-98.899 300.052,-88.5627"/>
<polygon fill="midnightblue" stroke="midnightblue" points="301.549,-85.3749 291.193,-83.1383 297.894,-91.3449 301.549,-85.3749"/>
</g>
<!-- Node10 -->
<g id="node19" class="node"><title>Node10</title>
<polygon fill="white" stroke="#bfbfbf" points="347.5,-61 347.5,-83 394.5,-83 394.5,-61 347.5,-61"/>
<text text-anchor="middle" x="371" y="-70" font-family="FreeSans" font-size="10.00">stdint.h</text>
</g>
<!-- Node3&#45;&gt;Node10 -->
<g id="edge18" class="edge"><title>Node3&#45;&gt;Node10</title>
<path fill="none" stroke="midnightblue" d="M371,-120.995C371,-113.311 371,-102.803 371,-93.4884"/>
<polygon fill="midnightblue" stroke="midnightblue" points="374.5,-93.3428 371,-83.3428 367.5,-93.3429 374.5,-93.3428"/>
</g>
<!-- Node5 -->
<g id="node9" class="node"><title>Node5</title>
<polygon fill="white" stroke="#bfbfbf" points="0,-1 0,-23 58,-23 58,-1 0,-1"/>
<text text-anchor="middle" x="29" y="-10" font-family="FreeSans" font-size="10.00">pthread.h</text>
</g>
<!-- Node4&#45;&gt;Node5 -->
<g id="edge8" class="edge"><title>Node4&#45;&gt;Node5</title>
<path fill="none" stroke="midnightblue" d="M115.558,-60.9951C99.2987,-51.7917 75.8814,-38.5366 57.5027,-28.1336"/>
<polygon fill="midnightblue" stroke="midnightblue" points="59.1044,-25.0185 48.6777,-23.1383 55.6562,-31.1103 59.1044,-25.0185"/>
</g>
<!-- Node6 -->
<g id="node11" class="node"><title>Node6</title>
<polygon fill="white" stroke="#bfbfbf" points="75.5,-1 75.5,-23 126.5,-23 126.5,-1 75.5,-1"/>
<text text-anchor="middle" x="101" y="-10" font-family="FreeSans" font-size="10.00">signal.h</text>
</g>
<!-- Node4&#45;&gt;Node6 -->
<g id="edge10" class="edge"><title>Node4&#45;&gt;Node6</title>
<path fill="none" stroke="midnightblue" d="M128.764,-60.9951C124.22,-52.9771 117.934,-41.884 112.492,-32.2806"/>
<polygon fill="midnightblue" stroke="midnightblue" points="115.403,-30.3175 107.428,-23.3428 109.313,-33.7686 115.403,-30.3175"/>
</g>
<!-- Node7 -->
<g id="node13" class="node"><title>Node7</title>
<polygon fill="white" stroke="#bfbfbf" points="144,-1 144,-23 196,-23 196,-1 144,-1"/>
<text text-anchor="middle" x="170" y="-10" font-family="FreeSans" font-size="10.00">sched.h</text>
</g>
<!-- Node4&#45;&gt;Node7 -->
<g id="edge12" class="edge"><title>Node4&#45;&gt;Node7</title>
<path fill="none" stroke="midnightblue" d="M141.42,-60.9951C146.145,-52.8936 152.703,-41.6525 158.344,-31.981"/>
<polygon fill="midnightblue" stroke="midnightblue" points="161.368,-33.7442 163.383,-23.3428 155.321,-30.2171 161.368,-33.7442"/>
</g>
<!-- Node8 -->
<g id="node15" class="node"><title>Node8</title>
<polygon fill="white" stroke="#bfbfbf" points="214,-1 214,-23 264,-23 264,-1 214,-1"/>
<text text-anchor="middle" x="239" y="-10" font-family="FreeSans" font-size="10.00">unistd.h</text>
</g>
<!-- Node4&#45;&gt;Node8 -->
<g id="edge14" class="edge"><title>Node4&#45;&gt;Node8</title>
<path fill="none" stroke="midnightblue" d="M154.075,-60.9951C169.955,-51.8337 192.793,-38.6576 210.788,-28.2763"/>
<polygon fill="midnightblue" stroke="midnightblue" points="212.781,-31.1673 219.694,-23.1383 209.283,-25.104 212.781,-31.1673"/>
</g>
<!-- Node11&#45;&gt;Node3 -->
<g id="edge22" class="edge"><title>Node11&#45;&gt;Node3</title>
<path fill="none" stroke="midnightblue" d="M467.776,-369.073C508.553,-364.232 581.87,-352.13 638,-324 701.619,-292.117 755.525,-232.965 708,-180 688.705,-158.496 502.249,-141.837 415.269,-135.168"/>
<polygon fill="midnightblue" stroke="midnightblue" points="415.408,-131.669 405.173,-134.405 414.881,-138.649 415.408,-131.669"/>
</g>
<!-- Node12 -->
<g id="node24" class="node"><title>Node12</title>
<a xlink:href="framescheduler_8h.html" target="_top" xlink:title="This file has the Declarations for the main FrameScheduler class.">
<polygon fill="white" stroke="black" points="205,-301 205,-323 299,-323 299,-301 205,-301"/>
<text text-anchor="middle" x="252" y="-310" font-family="FreeSans" font-size="10.00">framescheduler.h</text>
</a>
</g>
<!-- Node11&#45;&gt;Node12 -->
<g id="edge24" class="edge"><title>Node11&#45;&gt;Node12</title>
<path fill="none" stroke="midnightblue" d="M406.451,-362.092C376.281,-352.307 329.837,-337.244 295.754,-326.19"/>
<polygon fill="midnightblue" stroke="midnightblue" points="296.642,-322.799 286.05,-323.043 294.482,-329.458 296.642,-322.799"/>
</g>
<!-- Node16 -->
<g id="node34" class="node"><title>Node16</title>
<polygon fill="white" stroke="#bfbfbf" points="416,-181 416,-203 460,-203 460,-181 416,-181"/>
<text text-anchor="middle" x="438" y="-190" font-family="FreeSans" font-size="10.00">vector</text>
</g>
<!-- Node11&#45;&gt;Node16 -->
<g id="edge82" class="edge"><title>Node11&#45;&gt;Node16</title>
<path fill="none" stroke="midnightblue" d="M437.063,-360.74C437.226,-331.319 437.668,-251.769 437.881,-213.345"/>
<polygon fill="midnightblue" stroke="midnightblue" points="441.382,-213.275 437.937,-203.256 434.382,-213.236 441.382,-213.275"/>
</g>
<!-- Node17 -->
<g id="node36" class="node"><title>Node17</title>
<a xlink:href="thread_8h.html" target="_top" xlink:title="This file defines a minimalistic cross&#45;platform thread that the scheduler uses to schedule tasks...">
<polygon fill="white" stroke="black" points="16.5,-241 16.5,-263 69.5,-263 69.5,-241 16.5,-241"/>
<text text-anchor="middle" x="43" y="-250" font-family="FreeSans" font-size="10.00">thread.h</text>
</a>
</g>
<!-- Node11&#45;&gt;Node17 -->
<g id="edge78" class="edge"><title>Node11&#45;&gt;Node17</title>
<path fill="none" stroke="midnightblue" d="M406.334,-368.326C359.946,-362.228 269.544,-348.227 196,-324 150.964,-309.164 101.851,-284.388 71.7342,-268.12"/>
<polygon fill="midnightblue" stroke="midnightblue" points="73.1068,-264.882 62.6527,-263.161 69.7518,-271.025 73.1068,-264.882"/>
</g>
<!-- Node19 -->
<g id="node42" class="node"><title>Node19</title>
<a xlink:href="mutex_8h.html" target="_top" xlink:title="This file declares and defines a mutex that is a partial implementation.">
<polygon fill="white" stroke="black" points="109.5,-121 109.5,-143 160.5,-143 160.5,-121 109.5,-121"/>
<text text-anchor="middle" x="135" y="-130" font-family="FreeSans" font-size="10.00">mutex.h</text>
</a>
</g>
<!-- Node11&#45;&gt;Node19 -->
<g id="edge68" class="edge"><title>Node11&#45;&gt;Node19</title>
<path fill="none" stroke="midnightblue" d="M406.246,-369.529C315.341,-361.477 51.5189,-332.462 8,-264 -22.7877,-215.566 52.9468,-169.82 100.317,-147.043"/>
<polygon fill="midnightblue" stroke="midnightblue" points="101.803,-150.212 109.373,-142.8 98.8326,-143.873 101.803,-150.212"/>
</g>
<!-- Node21 -->
<g id="node49" class="node"><title>Node21</title>
<a xlink:href="workunitkey_8h.html" target="_top" xlink:title="This file defines the metadata used to sort workunits.">
<polygon fill="white" stroke="black" points="332.5,-241 332.5,-263 409.5,-263 409.5,-241 332.5,-241"/>
<text text-anchor="middle" x="371" y="-250" font-family="FreeSans" font-size="10.00">workunitkey.h</text>
</a>
</g>
<!-- Node11&#45;&gt;Node21 -->
<g id="edge80" class="edge"><title>Node11&#45;&gt;Node21</title>
<path fill="none" stroke="midnightblue" d="M430.909,-360.926C419.76,-340.655 395.932,-297.331 381.919,-271.853"/>
<polygon fill="midnightblue" stroke="midnightblue" points="384.962,-270.123 377.076,-263.047 378.829,-273.496 384.962,-270.123"/>
</g>
<!-- Node25 -->
<g id="node60" class="node"><title>Node25</title>
<a xlink:href="rollingaverage_8h.html" target="_top" xlink:title="This Store the implementation and the declaration of the RollingAverage, BufferedRollingAverage, WeightedRollingAverage and the DefaultRollingAverage.">
<polygon fill="white" stroke="black" points="464.5,-241 464.5,-263 553.5,-263 553.5,-241 464.5,-241"/>
<text text-anchor="middle" x="509" y="-250" font-family="FreeSans" font-size="10.00">rollingaverage.h</text>
</a>
</g>
<!-- Node11&#45;&gt;Node25 -->
<g id="edge70" class="edge"><title>Node11&#45;&gt;Node25</title>
<path fill="none" stroke="midnightblue" d="M443.645,-360.926C455.807,-340.655 481.801,-297.331 497.088,-271.853"/>
<polygon fill="midnightblue" stroke="midnightblue" points="500.228,-273.423 502.372,-263.047 494.225,-269.822 500.228,-273.423"/>
</g>
<!-- Node26 -->
<g id="node64" class="node"><title>Node26</title>
<a xlink:href="threadingenumerations_8h.html" target="_top" xlink:title="Any enumerations the threading library requires are all declared here.">
<polygon fill="white" stroke="black" points="502.5,-301 502.5,-323 629.5,-323 629.5,-301 502.5,-301"/>
<text text-anchor="middle" x="566" y="-310" font-family="FreeSans" font-size="10.00">threadingenumerations.h</text>
</a>
</g>
<!-- Node11&#45;&gt;Node26 -->
<g id="edge76" class="edge"><title>Node11&#45;&gt;Node26</title>
<path fill="none" stroke="midnightblue" d="M460.661,-360.995C480.9,-351.582 510.252,-337.929 532.835,-327.426"/>
<polygon fill="midnightblue" stroke="midnightblue" points="534.461,-330.529 542.053,-323.138 531.509,-324.182 534.461,-330.529"/>
</g>
<!-- Node12&#45;&gt;Node3 -->
<g id="edge26" class="edge"><title>Node12&#45;&gt;Node3</title>
<path fill="none" stroke="midnightblue" d="M260.249,-300.655C267.225,-290.991 277.424,-276.693 286,-264 312.638,-224.575 342.47,-177.541 358.754,-151.606"/>
<polygon fill="midnightblue" stroke="midnightblue" points="361.766,-153.391 364.11,-143.059 355.834,-149.675 361.766,-153.391"/>
</g>
<!-- Node12&#45;&gt;Node13 -->
<g id="edge28" class="edge"><title>Node12&#45;&gt;Node13</title>
<path fill="none" stroke="midnightblue" d="M299.021,-304.826C357.757,-295.841 461.623,-279.875 560.11,-264.293"/>
<polygon fill="midnightblue" stroke="midnightblue" points="560.907,-267.711 570.236,-262.689 559.812,-260.797 560.907,-267.711"/>
</g>
<!-- Node12&#45;&gt;Node17 -->
<g id="edge38" class="edge"><title>Node12&#45;&gt;Node17</title>
<path fill="none" stroke="midnightblue" d="M212.342,-300.914C178.064,-291.289 127.21,-276.909 83,-264 81.7864,-263.646 80.5526,-263.284 79.3069,-262.917"/>
<polygon fill="midnightblue" stroke="midnightblue" points="80.2463,-259.545 69.6639,-260.059 78.2567,-266.257 80.2463,-259.545"/>
</g>
<!-- Node18 -->
<g id="node39" class="node"><title>Node18</title>
<a xlink:href="systemcalls_8h.html" target="_top" xlink:title="This file defines a minimalistic cross&#45;platform thread that the scheduler uses to schedule tasks...">
<polygon fill="white" stroke="black" points="162.5,-181 162.5,-203 239.5,-203 239.5,-181 162.5,-181"/>
<text text-anchor="middle" x="201" y="-190" font-family="FreeSans" font-size="10.00">systemcalls.h</text>
</a>
</g>
<!-- Node12&#45;&gt;Node18 -->
<g id="edge60" class="edge"><title>Node12&#45;&gt;Node18</title>
<path fill="none" stroke="midnightblue" d="M204.81,-301.475C169.894,-292.62 126.629,-279.023 116,-264 99.4198,-240.566 130.644,-220.101 159.81,-207.04"/>
<polygon fill="midnightblue" stroke="midnightblue" points="161.315,-210.204 169.144,-203.066 158.572,-203.763 161.315,-210.204"/>
</g>
<!-- Node12&#45;&gt;Node21 -->
<g id="edge56" class="edge"><title>Node12&#45;&gt;Node21</title>
<path fill="none" stroke="midnightblue" d="M273.826,-300.995C292.33,-291.666 319.091,-278.173 339.846,-267.708"/>
<polygon fill="midnightblue" stroke="midnightblue" points="341.555,-270.766 348.909,-263.138 338.404,-264.515 341.555,-270.766"/>
</g>
<!-- Node22 -->
<g id="node53" class="node"><title>Node22</title>
<polygon fill="white" stroke="#bfbfbf" points="125,-241 125,-263 161,-263 161,-241 125,-241"/>
<text text-anchor="middle" x="143" y="-250" font-family="FreeSans" font-size="10.00">map</text>
</g>
<!-- Node12&#45;&gt;Node22 -->
<g id="edge62" class="edge"><title>Node12&#45;&gt;Node22</title>
<path fill="none" stroke="midnightblue" d="M232.008,-300.995C214.578,-291.401 189.149,-277.403 169.93,-266.824"/>
<polygon fill="midnightblue" stroke="midnightblue" points="171.505,-263.695 161.056,-261.939 168.129,-269.828 171.505,-263.695"/>
</g>
<!-- Node23 -->
<g id="node55" class="node"><title>Node23</title>
<polygon fill="white" stroke="#bfbfbf" points="179,-241 179,-263 209,-263 209,-241 179,-241"/>
<text text-anchor="middle" x="194" y="-250" font-family="FreeSans" font-size="10.00">set</text>
</g>
<!-- Node12&#45;&gt;Node23 -->
<g id="edge64" class="edge"><title>Node12&#45;&gt;Node23</title>
<path fill="none" stroke="midnightblue" d="M241.362,-300.995C233.208,-292.56 221.763,-280.72 212.166,-270.793"/>
<polygon fill="midnightblue" stroke="midnightblue" points="214.431,-268.1 204.965,-263.343 209.399,-272.965 214.431,-268.1"/>
</g>
<!-- Node24 -->
<g id="node57" class="node"><title>Node24</title>
<polygon fill="white" stroke="#bfbfbf" points="227,-241 227,-263 277,-263 277,-241 227,-241"/>
<text text-anchor="middle" x="252" y="-250" font-family="FreeSans" font-size="10.00">fstream</text>
</g>
<!-- Node12&#45;&gt;Node24 -->
<g id="edge66" class="edge"><title>Node12&#45;&gt;Node24</title>
<path fill="none" stroke="midnightblue" d="M252,-300.995C252,-293.311 252,-282.803 252,-273.488"/>
<polygon fill="midnightblue" stroke="midnightblue" points="255.5,-273.343 252,-263.343 248.5,-273.343 255.5,-273.343"/>
</g>
<!-- Node13&#45;&gt;Node3 -->
<g id="edge30" class="edge"><title>Node13&#45;&gt;Node3</title>
<path fill="none" stroke="midnightblue" d="M615.284,-240.936C587.546,-226.286 536.65,-199.974 492,-180 465.166,-167.996 434.361,-155.798 410.549,-146.702"/>
<polygon fill="midnightblue" stroke="midnightblue" points="411.725,-143.405 401.134,-143.128 409.241,-149.949 411.725,-143.405"/>
</g>
<!-- Node14 -->
<g id="node30" class="node"><title>Node14</title>
<polygon fill="white" stroke="#bfbfbf" points="571,-181 571,-203 629,-203 629,-181 571,-181"/>
<text text-anchor="middle" x="600" y="-190" font-family="FreeSans" font-size="10.00">algorithm</text>
</g>
<!-- Node13&#45;&gt;Node14 -->
<g id="edge32" class="edge"><title>Node13&#45;&gt;Node14</title>
<path fill="none" stroke="midnightblue" d="M629.397,-240.995C624.536,-232.894 617.792,-221.653 611.989,-211.981"/>
<polygon fill="midnightblue" stroke="midnightblue" points="614.952,-210.117 606.806,-203.343 608.949,-213.719 614.952,-210.117"/>
</g>
<!-- Node15 -->
<g id="node32" class="node"><title>Node15</title>
<polygon fill="white" stroke="#bfbfbf" points="646.5,-181 646.5,-203 699.5,-203 699.5,-181 646.5,-181"/>
<text text-anchor="middle" x="673" y="-190" font-family="FreeSans" font-size="10.00">sstream</text>
</g>
<!-- Node13&#45;&gt;Node15 -->
<g id="edge34" class="edge"><title>Node13&#45;&gt;Node15</title>
<path fill="none" stroke="midnightblue" d="M642.786,-240.995C647.782,-232.894 654.714,-221.653 660.678,-211.981"/>
<polygon fill="midnightblue" stroke="midnightblue" points="663.735,-213.692 666.005,-203.343 657.777,-210.017 663.735,-213.692"/>
</g>
<!-- Node13&#45;&gt;Node16 -->
<g id="edge36" class="edge"><title>Node13&#45;&gt;Node16</title>
<path fill="none" stroke="midnightblue" d="M599.684,-240.995C562.595,-229.756 505.568,-212.475 470.09,-201.724"/>
<polygon fill="midnightblue" stroke="midnightblue" points="470.839,-198.294 460.253,-198.743 468.809,-204.993 470.839,-198.294"/>
</g>
<!-- Node17&#45;&gt;Node4 -->
<g id="edge40" class="edge"><title>Node17&#45;&gt;Node4</title>
<path fill="none" stroke="midnightblue" d="M41.3317,-240.829C39.6304,-226.287 38.2206,-200.331 46,-180 60.0893,-143.178 92.076,-109.644 113.61,-90.0235"/>
<polygon fill="midnightblue" stroke="midnightblue" points="116.135,-92.4623 121.293,-83.2074 111.489,-87.2261 116.135,-92.4623"/>
</g>
<!-- Node17&#45;&gt;Node16 -->
<g id="edge54" class="edge"><title>Node17&#45;&gt;Node16</title>
<path fill="none" stroke="midnightblue" d="M69.6821,-247.516C83.4984,-245.219 100.647,-242.406 116,-240 221.923,-223.4 347.669,-205.046 405.703,-196.651"/>
<polygon fill="midnightblue" stroke="midnightblue" points="406.334,-200.097 415.731,-195.203 405.333,-193.169 406.334,-200.097"/>
</g>
<!-- Node17&#45;&gt;Node18 -->
<g id="edge42" class="edge"><title>Node17&#45;&gt;Node18</title>
<path fill="none" stroke="midnightblue" d="M69.8025,-241.822C95.1624,-232.191 133.512,-217.629 162.209,-206.731"/>
<polygon fill="midnightblue" stroke="midnightblue" points="163.814,-209.865 171.92,-203.043 161.329,-203.321 163.814,-209.865"/>
</g>
<!-- Node17&#45;&gt;Node19 -->
<g id="edge46" class="edge"><title>Node17&#45;&gt;Node19</title>
<path fill="none" stroke="midnightblue" d="M68.849,-240.928C84.6867,-232.878 104.131,-220.5 116,-204 126.752,-189.052 131.421,-168.45 133.448,-153.113"/>
<polygon fill="midnightblue" stroke="midnightblue" points="136.943,-153.342 134.506,-143.031 129.981,-152.611 136.943,-153.342"/>
</g>
<!-- Node20 -->
<g id="node46" class="node"><title>Node20</title>
<polygon fill="white" stroke="#bfbfbf" points="54.5,-181 54.5,-203 107.5,-203 107.5,-181 54.5,-181"/>
<text text-anchor="middle" x="81" y="-190" font-family="FreeSans" font-size="10.00">ostream</text>
</g>
<!-- Node17&#45;&gt;Node20 -->
<g id="edge52" class="edge"><title>Node17&#45;&gt;Node20</title>
<path fill="none" stroke="midnightblue" d="M49.9698,-240.995C55.1007,-232.894 62.2201,-221.653 68.3454,-211.981"/>
<polygon fill="midnightblue" stroke="midnightblue" points="71.4225,-213.664 73.8162,-203.343 65.5088,-209.918 71.4225,-213.664"/>
</g>
<!-- Node18&#45;&gt;Node3 -->
<g id="edge44" class="edge"><title>Node18&#45;&gt;Node3</title>
<path fill="none" stroke="midnightblue" d="M232.181,-180.995C259.653,-171.299 299.867,-157.106 329.949,-146.489"/>
<polygon fill="midnightblue" stroke="midnightblue" points="331.465,-149.665 339.73,-143.037 329.135,-143.064 331.465,-149.665"/>
</g>
<!-- Node19&#45;&gt;Node4 -->
<g id="edge48" class="edge"><title>Node19&#45;&gt;Node4</title>
<path fill="none" stroke="midnightblue" d="M135,-120.995C135,-113.311 135,-102.803 135,-93.4884"/>
<polygon fill="midnightblue" stroke="midnightblue" points="138.5,-93.3428 135,-83.3428 131.5,-93.3429 138.5,-93.3428"/>
</g>
<!-- Node19&#45;&gt;Node9 -->
<g id="edge50" class="edge"><title>Node19&#45;&gt;Node9</title>
<path fill="none" stroke="midnightblue" d="M160.311,-120.995C183.667,-110.84 218.367,-95.7533 243.084,-85.0069"/>
<polygon fill="midnightblue" stroke="midnightblue" points="244.574,-88.1756 252.349,-80.9786 241.783,-81.7561 244.574,-88.1756"/>
</g>
<!-- Node21&#45;&gt;Node3 -->
<g id="edge58" class="edge"><title>Node21&#45;&gt;Node3</title>
<path fill="none" stroke="midnightblue" d="M371,-240.926C371,-221.012 371,-178.851 371,-153.216"/>
<polygon fill="midnightblue" stroke="midnightblue" points="374.5,-153.047 371,-143.047 367.5,-153.047 374.5,-153.047"/>
</g>
<!-- Node25&#45;&gt;Node3 -->
<g id="edge74" class="edge"><title>Node25&#45;&gt;Node3</title>
<path fill="none" stroke="midnightblue" d="M505.263,-240.902C499.585,-225.49 487.457,-197.527 469,-180 453.675,-165.447 433.097,-154.462 414.754,-146.7"/>
<polygon fill="midnightblue" stroke="midnightblue" points="415.989,-143.424 405.406,-142.933 413.373,-149.917 415.989,-143.424"/>
</g>
<!-- Node25&#45;&gt;Node16 -->
<g id="edge72" class="edge"><title>Node25&#45;&gt;Node16</title>
<path fill="none" stroke="midnightblue" d="M495.978,-240.995C485.699,-232.309 471.15,-220.014 459.198,-209.913"/>
<polygon fill="midnightblue" stroke="midnightblue" points="461.319,-207.124 451.422,-203.343 456.801,-212.471 461.319,-207.124"/>
</g>
</g>
</svg>
        <g id="navigator" transform="translate(0 0)" fill="#404254">
                <rect fill="#f2f5e9" fill-opacity="0.5" stroke="#606060" stroke-width=".5" x="0" y="0" width="60" height="60"/>
                <use id="zoomplus" xlink:href="#zoomPlus" x="17" y="9" onmousedown="handleZoom(evt,'in')"/>
                <use id="zoomminus" xlink:href="#zoomMin" x="42" y="9" onmousedown="handleZoom(evt,'out')"/>
                <use id="reset" xlink:href="#resetDef" x="30" y="36" onmousedown="handleReset()"/>
                <g id="arrowUp" xlink:href="#dirArrow" transform="translate(30 24)" onmousedown="handlePan(0,-1)">
                  <use xlink:href="#rim" fill="#404040">
                        <set attributeName="fill" to="#808080" begin="arrowUp.mouseover" end="arrowUp.mouseout"/>
                  </use>
                  <path fill="none" stroke="white" stroke-width="1.5" d="M0,-3.0v7 M-2.5,-0.5L0,-3.0L2.5,-0.5"/>
                </g>
                <g id="arrowRight" xlink:href="#dirArrow" transform="rotate(90) translate(36 -43)" onmousedown="handlePan(1,0)">
                  <use xlink:href="#rim" fill="#404040">
                        <set attributeName="fill" to="#808080" begin="arrowRight.mouseover" end="arrowRight.mouseout"/>
                  </use>
                  <path fill="none" stroke="white" stroke-width="1.5" d="M0,-3.0v7 M-2.5,-0.5L0,-3.0L2.5,-0.5"/>
                </g>
                <g id="arrowDown" xlink:href="#dirArrow" transform="rotate(180) translate(-30 -48)" onmousedown="handlePan(0,1)">
                  <use xlink:href="#rim" fill="#404040">
                        <set attributeName="fill" to="#808080" begin="arrowDown.mouseover" end="arrowDown.mouseout"/>
                  </use>
                  <path fill="none" stroke="white" stroke-width="1.5" d="M0,-3.0v7 M-2.5,-0.5L0,-3.0L2.5,-0.5"/>
                </g>
                <g id="arrowLeft" xlink:href="#dirArrow" transform="rotate(270) translate(-36 17)" onmousedown="handlePan(-1,0)">
                  <use xlink:href="#rim" fill="#404040">
                        <set attributeName="fill" to="#808080" begin="arrowLeft.mouseover" end="arrowLeft.mouseout"/>
                  </use>
                  <path fill="none" stroke="white" stroke-width="1.5" d="M0,-3.0v7 M-2.5,-0.5L0,-3.0L2.5,-0.5"/>
                </g>
        </g>
</svg>
