<?xml version="1.0" encoding="UTF-8" standalone="no"?>
<!DOCTYPE svg PUBLIC "-//W3C//DTD SVG 1.1//EN"
 "http://www.w3.org/Graphics/SVG/1.1/DTD/svg11.dtd">
<!-- Generated by graphviz version 2.26.3 (20100126.1600)
 -->
<!-- Title: framescheduler.cpp Pages: 1 -->
<svg width="779pt" height="494pt"
 viewBox="0.00 0.00 779.00 494.00" xmlns="http://www.w3.org/2000/svg" xmlns:xlink="http://www.w3.org/1999/xlink">
<g id="graph1" class="graph" transform="scale(1 1) rotate(0) translate(4 490)">
<title>framescheduler.cpp</title>
<polygon fill="white" stroke="white" points="-4,5 -4,-490 776,-490 776,5 -4,5"/>
<!-- Node1 -->
<g id="node1" class="node"><title>Node1</title>
<polygon fill="#bfbfbf" stroke="black" points="324.5,-465 324.5,-485 425.5,-485 425.5,-465 324.5,-465"/>
<text text-anchor="middle" x="375" y="-472" font-family="FreeSans" font-size="10.00">framescheduler.cpp</text>
</g>
<!-- Node2 -->
<g id="node3" class="node"><title>Node2</title>
<a xlink:href="framescheduler_8h.html" target="_top" xlink:title="This file has the Declarations for the main FrameScheduler class.">
<polygon fill="white" stroke="black" points="315,-291 315,-311 405,-311 405,-291 315,-291"/>
<text text-anchor="middle" x="360" y="-298" font-family="FreeSans" font-size="10.00">framescheduler.h</text>
</a>
</g>
<!-- Node1&#45;&gt;Node2 -->
<g id="edge2" class="edge"><title>Node1&#45;&gt;Node2</title>
<path fill="none" stroke="midnightblue" d="M371.954,-464.656C369.321,-455.205 365.682,-440.795 364,-428 359.089,-390.636 358.951,-346.583 359.403,-321.409"/>
<polygon fill="midnightblue" stroke="midnightblue" points="362.905,-321.34 359.637,-311.262 355.907,-321.179 362.905,-321.34"/>
</g>
<!-- Node12 -->
<g id="node23" class="node"><title>Node12</title>
<polygon fill="white" stroke="#bfbfbf" points="60,-1 60,-21 116,-21 116,-1 60,-1"/>
<text text-anchor="middle" x="88" y="-8" font-family="FreeSans" font-size="10.00">algorithm</text>
</g>
<!-- Node1&#45;&gt;Node12 -->
<g id="edge98" class="edge"><title>Node1&#45;&gt;Node12</title>
<path fill="none" stroke="midnightblue" d="M324.426,-470.052C222.067,-458.633 0,-426.126 0,-359 0,-359 0,-359 0,-127 0,-84.3036 38.3084,-47.4511 64.3742,-27.3177"/>
<polygon fill="midnightblue" stroke="midnightblue" points="66.7363,-29.9228 72.6716,-21.1465 62.5588,-24.306 66.7363,-29.9228"/>
</g>
<!-- Node14 -->
<g id="node27" class="node"><title>Node14</title>
<a xlink:href="doublebufferedresource_8h.html" target="_top" xlink:title="This file defines the template double buffered resources that can be attached to a thread...">
<polygon fill="white" stroke="black" points="65.5,-233 65.5,-253 188.5,-253 188.5,-233 65.5,-233"/>
<text text-anchor="middle" x="127" y="-240" font-family="FreeSans" font-size="10.00">doublebufferedresource.h</text>
</a>
</g>
<!-- Node1&#45;&gt;Node14 -->
<g id="edge58" class="edge"><title>Node1&#45;&gt;Node14</title>
<path fill="none" stroke="midnightblue" d="M359.362,-464.985C323.352,-441.415 232.995,-379.328 172,-312 158.113,-296.671 145.555,-276.64 137.256,-262.112"/>
<polygon fill="midnightblue" stroke="midnightblue" points="140.143,-260.101 132.227,-253.059 134.023,-263.5 140.143,-260.101"/>
</g>
<!-- Node18 -->
<g id="node37" class="node"><title>Node18</title>
<a xlink:href="atomicoperations_8h.html" target="_top" xlink:title="Simple thread safe ways to check and change a specified variable atomically.">
<polygon fill="white" stroke="black" points="166,-117 166,-137 264,-137 264,-117 166,-117"/>
<text text-anchor="middle" x="215" y="-124" font-family="FreeSans" font-size="10.00">atomicoperations.h</text>
</a>
</g>
<!-- Node1&#45;&gt;Node18 -->
<g id="edge92" class="edge"><title>Node1&#45;&gt;Node18</title>
<path fill="none" stroke="midnightblue" d="M344.7,-464.917C277.95,-440.851 119.22,-373.012 57,-254 28.3127,-199.128 113.682,-159.694 169.886,-140.395"/>
<polygon fill="midnightblue" stroke="midnightblue" points="171.282,-143.619 179.663,-137.138 169.07,-136.978 171.282,-143.619"/>
</g>
<!-- Node22 -->
<g id="node52" class="node"><title>Node22</title>
<a xlink:href="monopoly_8h.html" target="_top" xlink:title="Contains an interface for a kind of WorkUnit that consumes time on multiple thread.">
<polygon fill="white" stroke="black" points="372.5,-407 372.5,-427 437.5,-427 437.5,-407 372.5,-407"/>
<text text-anchor="middle" x="405" y="-414" font-family="FreeSans" font-size="10.00">monopoly.h</text>
</a>
</g>
<!-- Node1&#45;&gt;Node22 -->
<g id="edge60" class="edge"><title>Node1&#45;&gt;Node22</title>
<path fill="none" stroke="midnightblue" d="M380.226,-464.897C384.262,-457.093 389.972,-446.054 394.893,-436.54"/>
<polygon fill="midnightblue" stroke="midnightblue" points="398.147,-437.868 399.632,-427.378 391.929,-434.652 398.147,-437.868"/>
</g>
<!-- Node25 -->
<g id="node67" class="node"><title>Node25</title>
<a xlink:href="frameschedulerworkunits_8h.html" target="_top" xlink:title="This defines a number of workunits that are required for doing some tasks that the Framescheduler req...">
<polygon fill="white" stroke="black" points="454.5,-407 454.5,-427 585.5,-427 585.5,-407 454.5,-407"/>
<text text-anchor="middle" x="520" y="-414" font-family="FreeSans" font-size="10.00">frameschedulerworkunits.h</text>
</a>
</g>
<!-- Node1&#45;&gt;Node25 -->
<g id="edge84" class="edge"><title>Node1&#45;&gt;Node25</title>
<path fill="none" stroke="midnightblue" d="M400.257,-464.897C423.712,-455.515 458.852,-441.459 485.005,-430.998"/>
<polygon fill="midnightblue" stroke="midnightblue" points="486.561,-434.145 494.546,-427.182 483.961,-427.646 486.561,-434.145"/>
</g>
<!-- Node26 -->
<g id="node73" class="node"><title>Node26</title>
<polygon fill="white" stroke="#bfbfbf" points="603,-407 603,-427 661,-427 661,-407 603,-407"/>
<text text-anchor="middle" x="632" y="-414" font-family="FreeSans" font-size="10.00">exception</text>
</g>
<!-- Node1&#45;&gt;Node26 -->
<g id="edge94" class="edge"><title>Node1&#45;&gt;Node26</title>
<path fill="none" stroke="midnightblue" d="M425.684,-465.175C467.96,-456.743 529.987,-443.823 592.554,-428.254"/>
<polygon fill="midnightblue" stroke="midnightblue" points="593.75,-431.562 602.597,-425.733 592.046,-424.773 593.75,-431.562"/>
</g>
<!-- Node27 -->
<g id="node75" class="node"><title>Node27</title>
<polygon fill="white" stroke="#bfbfbf" points="678.5,-407 678.5,-427 731.5,-427 731.5,-407 678.5,-407"/>
<text text-anchor="middle" x="705" y="-414" font-family="FreeSans" font-size="10.00">iostream</text>
</g>
<!-- Node1&#45;&gt;Node27 -->
<g id="edge96" class="edge"><title>Node1&#45;&gt;Node27</title>
<path fill="none" stroke="midnightblue" d="M425.546,-469.236C482.571,-462.225 578.174,-448.945 668.507,-428.122"/>
<polygon fill="midnightblue" stroke="midnightblue" points="669.42,-431.503 678.359,-425.815 667.824,-424.687 669.42,-431.503"/>
</g>
<!-- Node3 -->
<g id="node5" class="node"><title>Node3</title>
<a xlink:href="datatypes_8h.html" target="_top" xlink:title="This file declares a few typedefs to allow flexibility, in case a change is required/desired.">
<polygon fill="white" stroke="black" points="406.5,-59 406.5,-79 471.5,-79 471.5,-59 406.5,-59"/>
<text text-anchor="middle" x="439" y="-66" font-family="FreeSans" font-size="10.00">datatypes.h</text>
</a>
</g>
<!-- Node2&#45;&gt;Node3 -->
<g id="edge4" class="edge"><title>Node2&#45;&gt;Node3</title>
<path fill="none" stroke="midnightblue" d="M356.97,-290.741C350.98,-268.641 339.414,-215.199 354,-174 366.853,-137.696 398.188,-104.766 419.008,-85.8167"/>
<polygon fill="midnightblue" stroke="midnightblue" points="421.504,-88.2817 426.675,-79.0346 416.866,-83.0385 421.504,-88.2817"/>
</g>
<!-- Node2&#45;&gt;Node14 -->
<g id="edge26" class="edge"><title>Node2&#45;&gt;Node14</title>
<path fill="none" stroke="midnightblue" d="M319.68,-290.963C280.129,-281.118 219.718,-266.08 177.102,-255.472"/>
<polygon fill="midnightblue" stroke="midnightblue" points="177.765,-252.03 167.216,-253.011 176.074,-258.823 177.765,-252.03"/>
</g>
<!-- Node15 -->
<g id="node30" class="node"><title>Node15</title>
<a xlink:href="thread_8h.html" target="_top" xlink:title="This file defines a minimalistic cross&#45;platform thread that the scheduler uses to schedule tasks...">
<polygon fill="white" stroke="black" points="243.5,-233 243.5,-253 294.5,-253 294.5,-233 243.5,-233"/>
<text text-anchor="middle" x="269" y="-240" font-family="FreeSans" font-size="10.00">thread.h</text>
</a>
</g>
<!-- Node2&#45;&gt;Node15 -->
<g id="edge30" class="edge"><title>Node2&#45;&gt;Node15</title>
<path fill="none" stroke="midnightblue" d="M344.149,-290.897C330.272,-282.052 309.878,-269.054 293.835,-258.829"/>
<polygon fill="midnightblue" stroke="midnightblue" points="295.289,-255.605 284.975,-253.182 291.526,-261.508 295.289,-255.605"/>
</g>
<!-- Node16 -->
<g id="node32" class="node"><title>Node16</title>
<a xlink:href="systemcalls_8h.html" target="_top" xlink:title="This file defines a minimalistic cross&#45;platform thread that the scheduler uses to schedule tasks...">
<polygon fill="white" stroke="black" points="363,-175 363,-195 437,-195 437,-175 363,-175"/>
<text text-anchor="middle" x="400" y="-182" font-family="FreeSans" font-size="10.00">systemcalls.h</text>
</a>
</g>
<!-- Node2&#45;&gt;Node16 -->
<g id="edge46" class="edge"><title>Node2&#45;&gt;Node16</title>
<path fill="none" stroke="midnightblue" d="M363.55,-290.706C370.208,-271.396 384.672,-229.451 393.243,-204.596"/>
<polygon fill="midnightblue" stroke="midnightblue" points="396.564,-205.7 396.515,-195.106 389.947,-203.418 396.564,-205.7"/>
</g>
<!-- Node19 -->
<g id="node40" class="node"><title>Node19</title>
<a xlink:href="workunitkey_8h.html" target="_top" xlink:title="This file defines the metadata used to sort workunits.">
<polygon fill="white" stroke="black" points="645.5,-233 645.5,-253 720.5,-253 720.5,-233 645.5,-233"/>
<text text-anchor="middle" x="683" y="-240" font-family="FreeSans" font-size="10.00">workunitkey.h</text>
</a>
</g>
<!-- Node2&#45;&gt;Node19 -->
<g id="edge42" class="edge"><title>Node2&#45;&gt;Node19</title>
<path fill="none" stroke="midnightblue" d="M405.252,-292.874C465.94,-281.977 573.216,-262.713 635.185,-251.586"/>
<polygon fill="midnightblue" stroke="midnightblue" points="635.873,-255.019 645.097,-249.806 634.636,-248.129 635.873,-255.019"/>
</g>
<!-- Node20 -->
<g id="node44" class="node"><title>Node20</title>
<a xlink:href="rollingaverage_8h.html" target="_top" xlink:title="This stores the implementation and the declaration of the RollingAverage, BufferedRollingAverage, WeightedRollingAverage and the DefaultRollingAverage.">
<polygon fill="white" stroke="black" points="463.5,-233 463.5,-253 546.5,-253 546.5,-233 463.5,-233"/>
<text text-anchor="middle" x="505" y="-240" font-family="FreeSans" font-size="10.00">rollingaverage.h</text>
</a>
</g>
<!-- Node2&#45;&gt;Node20 -->
<g id="edge48" class="edge"><title>Node2&#45;&gt;Node20</title>
<path fill="none" stroke="midnightblue" d="M385.257,-290.897C408.712,-281.515 443.852,-267.459 470.005,-256.998"/>
<polygon fill="midnightblue" stroke="midnightblue" points="471.561,-260.145 479.546,-253.182 468.961,-253.646 471.561,-260.145"/>
</g>
<!-- Node21 -->
<g id="node47" class="node"><title>Node21</title>
<a xlink:href="barrier_8h.html" target="_top" xlink:title="The declaration of the Mezzanine::Threading::Barrier Barrier synchronization primitive.">
<polygon fill="white" stroke="black" points="256.5,-175 256.5,-195 307.5,-195 307.5,-175 256.5,-175"/>
<text text-anchor="middle" x="282" y="-182" font-family="FreeSans" font-size="10.00">barrier.h</text>
</a>
</g>
<!-- Node2&#45;&gt;Node21 -->
<g id="edge52" class="edge"><title>Node2&#45;&gt;Node21</title>
<path fill="none" stroke="midnightblue" d="M353.078,-290.706C339.92,-271.137 311.131,-228.323 294.511,-203.606"/>
<polygon fill="midnightblue" stroke="midnightblue" points="297.28,-201.451 288.795,-195.106 291.471,-205.357 297.28,-201.451"/>
</g>
<!-- Node4 -->
<g id="node7" class="node"><title>Node4</title>
<a xlink:href="crossplatformexport_8h.html" target="_top" xlink:title="This file determines what features are offered by the compiler that this library can take advantage o...">
<polygon fill="white" stroke="black" points="545,-1 545,-21 653,-21 653,-1 545,-1"/>
<text text-anchor="middle" x="599" y="-8" font-family="FreeSans" font-size="10.00">crossplatformexport.h</text>
</a>
</g>
<!-- Node3&#45;&gt;Node4 -->
<g id="edge6" class="edge"><title>Node3&#45;&gt;Node4</title>
<path fill="none" stroke="midnightblue" d="M466.87,-58.8972C493.059,-49.4035 532.451,-35.124 561.412,-24.6258"/>
<polygon fill="midnightblue" stroke="midnightblue" points="562.973,-27.7827 571.182,-21.0842 560.587,-21.2018 562.973,-27.7827"/>
</g>
<!-- Node5 -->
<g id="node9" class="node"><title>Node5</title>
<polygon fill="white" stroke="#bfbfbf" points="670.5,-1 670.5,-21 713.5,-21 713.5,-1 670.5,-1"/>
<text text-anchor="middle" x="692" y="-8" font-family="FreeSans" font-size="10.00">vector</text>
</g>
<!-- Node3&#45;&gt;Node5 -->
<g id="edge8" class="edge"><title>Node3&#45;&gt;Node5</title>
<path fill="none" stroke="midnightblue" d="M471.86,-63.6003C513.795,-56.3786 588.659,-42.3781 660.796,-22.0786"/>
<polygon fill="midnightblue" stroke="midnightblue" points="661.84,-25.4204 670.492,-19.3063 659.916,-18.6901 661.84,-25.4204"/>
</g>
<!-- Node6 -->
<g id="node11" class="node"><title>Node6</title>
<polygon fill="white" stroke="#bfbfbf" points="731,-1 731,-21 771,-21 771,-1 731,-1"/>
<text text-anchor="middle" x="751" y="-8" font-family="FreeSans" font-size="10.00">string</text>
</g>
<!-- Node3&#45;&gt;Node6 -->
<g id="edge10" class="edge"><title>Node3&#45;&gt;Node6</title>
<path fill="none" stroke="midnightblue" d="M471.702,-65.6988C523.1,-60.0535 625.92,-46.9153 721.109,-21.8388"/>
<polygon fill="midnightblue" stroke="midnightblue" points="722.137,-25.1868 730.887,-19.2127 720.321,-18.4264 722.137,-25.1868"/>
</g>
<!-- Node7 -->
<g id="node13" class="node"><title>Node7</title>
<polygon fill="white" stroke="#bfbfbf" points="180.5,-1 180.5,-21 231.5,-21 231.5,-1 180.5,-1"/>
<text text-anchor="middle" x="206" y="-8" font-family="FreeSans" font-size="10.00">ostream</text>
</g>
<!-- Node3&#45;&gt;Node7 -->
<g id="edge12" class="edge"><title>Node3&#45;&gt;Node7</title>
<path fill="none" stroke="midnightblue" d="M406.393,-62.1486C368.739,-54.0511 304.761,-39.7246 241.315,-22.2308"/>
<polygon fill="midnightblue" stroke="midnightblue" points="242.125,-18.8231 231.552,-19.5121 240.247,-25.5665 242.125,-18.8231"/>
</g>
<!-- Node8 -->
<g id="node15" class="node"><title>Node8</title>
<polygon fill="white" stroke="#bfbfbf" points="248.5,-1 248.5,-21 283.5,-21 283.5,-1 248.5,-1"/>
<text text-anchor="middle" x="266" y="-8" font-family="FreeSans" font-size="10.00">map</text>
</g>
<!-- Node3&#45;&gt;Node8 -->
<g id="edge14" class="edge"><title>Node3&#45;&gt;Node8</title>
<path fill="none" stroke="midnightblue" d="M406.305,-59.4766C378.314,-51.1186 336.792,-38.2382 292.927,-22.154"/>
<polygon fill="midnightblue" stroke="midnightblue" points="294.129,-18.8666 283.536,-18.6737 291.696,-25.4305 294.129,-18.8666"/>
</g>
<!-- Node9 -->
<g id="node17" class="node"><title>Node9</title>
<polygon fill="white" stroke="#bfbfbf" points="300.5,-1 300.5,-21 329.5,-21 329.5,-1 300.5,-1"/>
<text text-anchor="middle" x="315" y="-8" font-family="FreeSans" font-size="10.00">set</text>
</g>
<!-- Node3&#45;&gt;Node9 -->
<g id="edge16" class="edge"><title>Node3&#45;&gt;Node9</title>
<path fill="none" stroke="midnightblue" d="M417.297,-58.9809C398.582,-50.3242 370.625,-37.351 338.696,-22.3035"/>
<polygon fill="midnightblue" stroke="midnightblue" points="340.127,-19.1085 329.59,-18.0061 337.14,-25.4391 340.127,-19.1085"/>
</g>
<!-- Node10 -->
<g id="node19" class="node"><title>Node10</title>
<polygon fill="white" stroke="#bfbfbf" points="347,-1 347,-21 397,-21 397,-1 347,-1"/>
<text text-anchor="middle" x="372" y="-8" font-family="FreeSans" font-size="10.00">sstream</text>
</g>
<!-- Node3&#45;&gt;Node10 -->
<g id="edge18" class="edge"><title>Node3&#45;&gt;Node10</title>
<path fill="none" stroke="midnightblue" d="M427.329,-58.8972C417.555,-50.4353 403.388,-38.1715 391.837,-28.1719"/>
<polygon fill="midnightblue" stroke="midnightblue" points="393.839,-25.2764 383.988,-21.3776 389.258,-30.5689 393.839,-25.2764"/>
</g>
<!-- Node11 -->
<g id="node21" class="node"><title>Node11</title>
<polygon fill="white" stroke="#bfbfbf" points="414.5,-1 414.5,-21 463.5,-21 463.5,-1 414.5,-1"/>
<text text-anchor="middle" x="439" y="-8" font-family="FreeSans" font-size="10.00">fstream</text>
</g>
<!-- Node3&#45;&gt;Node11 -->
<g id="edge20" class="edge"><title>Node3&#45;&gt;Node11</title>
<path fill="none" stroke="midnightblue" d="M439,-58.8972C439,-51.339 439,-40.7476 439,-31.4458"/>
<polygon fill="midnightblue" stroke="midnightblue" points="442.5,-31.3776 439,-21.3776 435.5,-31.3776 442.5,-31.3776"/>
</g>
<!-- Node3&#45;&gt;Node12 -->
<g id="edge22" class="edge"><title>Node3&#45;&gt;Node12</title>
<path fill="none" stroke="midnightblue" d="M406.294,-63.5956C341.219,-52.8425 195.818,-28.8161 126.363,-17.3393"/>
<polygon fill="midnightblue" stroke="midnightblue" points="126.726,-13.8517 116.289,-15.6745 125.584,-20.7581 126.726,-13.8517"/>
</g>
<!-- Node13 -->
<g id="node25" class="node"><title>Node13</title>
<polygon fill="white" stroke="#bfbfbf" points="480.5,-1 480.5,-21 527.5,-21 527.5,-1 480.5,-1"/>
<text text-anchor="middle" x="504" y="-8" font-family="FreeSans" font-size="10.00">stdint.h</text>
</g>
<!-- Node3&#45;&gt;Node13 -->
<g id="edge24" class="edge"><title>Node3&#45;&gt;Node13</title>
<path fill="none" stroke="midnightblue" d="M450.322,-58.8972C459.805,-50.4353 473.549,-38.1715 484.756,-28.1719"/>
<polygon fill="midnightblue" stroke="midnightblue" points="487.239,-30.647 492.37,-21.3776 482.578,-25.424 487.239,-30.647"/>
</g>
<!-- Node14&#45;&gt;Node3 -->
<g id="edge28" class="edge"><title>Node14&#45;&gt;Node3</title>
<path fill="none" stroke="midnightblue" d="M126.006,-232.963C124.228,-208.866 123.412,-147.416 157,-116 190.919,-84.2752 325.948,-73.8169 396.132,-70.4861"/>
<polygon fill="midnightblue" stroke="midnightblue" points="396.571,-73.9701 406.405,-70.0276 396.259,-66.9771 396.571,-73.9701"/>
</g>
<!-- Node15&#45;&gt;Node16 -->
<g id="edge32" class="edge"><title>Node15&#45;&gt;Node16</title>
<path fill="none" stroke="midnightblue" d="M291.818,-232.897C312.822,-223.598 344.197,-209.707 367.758,-199.275"/>
<polygon fill="midnightblue" stroke="midnightblue" points="369.277,-202.431 377.003,-195.182 366.443,-196.03 369.277,-202.431"/>
</g>
<!-- Node17 -->
<g id="node35" class="node"><title>Node17</title>
<a xlink:href="mutex_8h.html" target="_top" xlink:title="This file declares and defines a mutex that is a partial implementation.">
<polygon fill="white" stroke="black" points="189,-175 189,-195 239,-195 239,-175 189,-175"/>
<text text-anchor="middle" x="214" y="-182" font-family="FreeSans" font-size="10.00">mutex.h</text>
</a>
</g>
<!-- Node15&#45;&gt;Node17 -->
<g id="edge36" class="edge"><title>Node15&#45;&gt;Node17</title>
<path fill="none" stroke="midnightblue" d="M259.42,-232.897C251.551,-224.6 240.216,-212.646 230.838,-202.757"/>
<polygon fill="midnightblue" stroke="midnightblue" points="233.261,-200.226 223.841,-195.378 228.182,-205.042 233.261,-200.226"/>
</g>
<!-- Node16&#45;&gt;Node3 -->
<g id="edge34" class="edge"><title>Node16&#45;&gt;Node3</title>
<path fill="none" stroke="midnightblue" d="M403.461,-174.706C409.953,-155.396 424.055,-113.451 432.412,-88.5955"/>
<polygon fill="midnightblue" stroke="midnightblue" points="435.733,-89.6996 435.602,-79.1055 429.098,-87.4688 435.733,-89.6996"/>
</g>
<!-- Node17&#45;&gt;Node18 -->
<g id="edge38" class="edge"><title>Node17&#45;&gt;Node18</title>
<path fill="none" stroke="midnightblue" d="M214.174,-174.897C214.304,-167.339 214.487,-156.748 214.647,-147.446"/>
<polygon fill="midnightblue" stroke="midnightblue" points="218.148,-147.436 214.821,-137.378 211.149,-147.316 218.148,-147.436"/>
</g>
<!-- Node18&#45;&gt;Node3 -->
<g id="edge40" class="edge"><title>Node18&#45;&gt;Node3</title>
<path fill="none" stroke="midnightblue" d="M253.762,-116.963C293.556,-106.66 355.316,-90.6683 396.442,-80.0196"/>
<polygon fill="midnightblue" stroke="midnightblue" points="397.366,-83.3956 406.17,-77.5007 395.612,-76.6191 397.366,-83.3956"/>
</g>
<!-- Node19&#45;&gt;Node3 -->
<g id="edge44" class="edge"><title>Node19&#45;&gt;Node3</title>
<path fill="none" stroke="midnightblue" d="M688.988,-232.683C701.843,-209.032 728.679,-150.304 700,-116 672.74,-83.3924 549.051,-73.372 482.198,-70.3191"/>
<polygon fill="midnightblue" stroke="midnightblue" points="482.118,-66.8127 471.979,-69.8866 481.822,-73.8065 482.118,-66.8127"/>
</g>
<!-- Node20&#45;&gt;Node3 -->
<g id="edge50" class="edge"><title>Node20&#45;&gt;Node3</title>
<path fill="none" stroke="midnightblue" d="M504.626,-232.903C503.449,-210.669 498.623,-156.259 479,-116 473.664,-105.052 465.18,-94.5593 457.396,-86.2768"/>
<polygon fill="midnightblue" stroke="midnightblue" points="459.792,-83.722 450.273,-79.0701 454.813,-88.6428 459.792,-83.722"/>
</g>
<!-- Node21&#45;&gt;Node3 -->
<g id="edge54" class="edge"><title>Node21&#45;&gt;Node3</title>
<path fill="none" stroke="midnightblue" d="M285.337,-174.674C290.64,-159.784 302.341,-132.289 321,-116 342.462,-97.2634 372.317,-85.4678 396.626,-78.3794"/>
<polygon fill="midnightblue" stroke="midnightblue" points="397.608,-81.7393 406.321,-75.7118 395.751,-74.9901 397.608,-81.7393"/>
</g>
<!-- Node21&#45;&gt;Node18 -->
<g id="edge56" class="edge"><title>Node21&#45;&gt;Node18</title>
<path fill="none" stroke="midnightblue" d="M270.329,-174.897C260.555,-166.435 246.388,-154.172 234.837,-144.172"/>
<polygon fill="midnightblue" stroke="midnightblue" points="236.839,-141.276 226.988,-137.378 232.258,-146.569 236.839,-141.276"/>
</g>
<!-- Node22&#45;&gt;Node3 -->
<g id="edge62" class="edge"><title>Node22&#45;&gt;Node3</title>
<path fill="none" stroke="midnightblue" d="M408.195,-406.913C418.349,-373.832 449.047,-265.507 446,-174 445.016,-144.437 442.477,-110.271 440.743,-89.1475"/>
<polygon fill="midnightblue" stroke="midnightblue" points="444.226,-88.7964 439.9,-79.1249 437.251,-89.3831 444.226,-88.7964"/>
</g>
<!-- Node22&#45;&gt;Node14 -->
<g id="edge64" class="edge"><title>Node22&#45;&gt;Node14</title>
<path fill="none" stroke="midnightblue" d="M380.696,-406.962C341.374,-390.178 262.143,-354.084 202,-312 180.228,-296.765 158.188,-275.658 143.689,-260.811"/>
<polygon fill="midnightblue" stroke="midnightblue" points="145.91,-258.072 136.459,-253.285 140.862,-262.921 145.91,-258.072"/>
</g>
<!-- Node23 -->
<g id="node56" class="node"><title>Node23</title>
<a xlink:href="workunit_8h.html" target="_top" xlink:title="This file has the definition of the workunit.">
<polygon fill="white" stroke="black" points="475,-349 475,-369 535,-369 535,-349 475,-349"/>
<text text-anchor="middle" x="505" y="-356" font-family="FreeSans" font-size="10.00">workunit.h</text>
</a>
</g>
<!-- Node22&#45;&gt;Node23 -->
<g id="edge66" class="edge"><title>Node22&#45;&gt;Node23</title>
<path fill="none" stroke="midnightblue" d="M422.419,-406.897C437.953,-397.887 460.92,-384.567 478.692,-374.259"/>
<polygon fill="midnightblue" stroke="midnightblue" points="480.551,-377.227 487.445,-369.182 477.039,-371.171 480.551,-377.227"/>
</g>
<!-- Node23&#45;&gt;Node2 -->
<g id="edge70" class="edge"><title>Node23&#45;&gt;Node2</title>
<path fill="none" stroke="midnightblue" d="M479.743,-348.897C456.288,-339.515 421.148,-325.459 394.995,-314.998"/>
<polygon fill="midnightblue" stroke="midnightblue" points="396.039,-311.646 385.454,-311.182 393.439,-318.145 396.039,-311.646"/>
</g>
<!-- Node23&#45;&gt;Node3 -->
<g id="edge68" class="edge"><title>Node23&#45;&gt;Node3</title>
<path fill="none" stroke="midnightblue" d="M513.711,-348.79C530.693,-327.633 565.671,-277.201 555,-232 541.757,-175.901 533.097,-160.939 497,-116 487.428,-104.083 474.365,-93.171 463.06,-84.8672"/>
<polygon fill="midnightblue" stroke="midnightblue" points="465.029,-81.9727 454.845,-79.0522 460.985,-87.6863 465.029,-81.9727"/>
</g>
<!-- Node23&#45;&gt;Node15 -->
<g id="edge80" class="edge"><title>Node23&#45;&gt;Node15</title>
<path fill="none" stroke="midnightblue" d="M474.766,-354.949C425.868,-347.897 332.247,-332.172 306,-312 290.063,-299.752 280.192,-278.631 274.697,-262.974"/>
<polygon fill="midnightblue" stroke="midnightblue" points="277.947,-261.646 271.571,-253.184 271.278,-263.775 277.947,-261.646"/>
</g>
<!-- Node23&#45;&gt;Node17 -->
<g id="edge72" class="edge"><title>Node23&#45;&gt;Node17</title>
<path fill="none" stroke="midnightblue" d="M474.622,-354.952C422.089,-347.554 316.837,-330.864 285,-312 255.72,-294.651 251.42,-283.811 235,-254 226.61,-238.768 221.143,-219.757 217.897,-205.549"/>
<polygon fill="midnightblue" stroke="midnightblue" points="221.235,-204.416 215.756,-195.348 214.385,-205.854 221.235,-204.416"/>
</g>
<!-- Node23&#45;&gt;Node19 -->
<g id="edge82" class="edge"><title>Node23&#45;&gt;Node19</title>
<path fill="none" stroke="midnightblue" d="M535.189,-351.891C561.025,-344.779 598.32,-331.988 626,-312 644.777,-298.441 661.013,-277.278 671.301,-261.963"/>
<polygon fill="midnightblue" stroke="midnightblue" points="674.41,-263.6 676.907,-253.304 668.534,-259.796 674.41,-263.6"/>
</g>
<!-- Node23&#45;&gt;Node20 -->
<g id="edge74" class="edge"><title>Node23&#45;&gt;Node20</title>
<path fill="none" stroke="midnightblue" d="M505,-348.706C505,-329.568 505,-288.198 505,-263.265"/>
<polygon fill="midnightblue" stroke="midnightblue" points="508.5,-263.105 505,-253.106 501.5,-263.106 508.5,-263.105"/>
</g>
<!-- Node24 -->
<g id="node62" class="node"><title>Node24</title>
<a xlink:href="threadingenumerations_8h.html" target="_top" xlink:title="Any enumerations the threading library requires are all declared here.">
<polygon fill="white" stroke="black" points="569,-117 569,-137 691,-137 691,-117 569,-117"/>
<text text-anchor="middle" x="630" y="-124" font-family="FreeSans" font-size="10.00">threadingenumerations.h</text>
</a>
</g>
<!-- Node23&#45;&gt;Node24 -->
<g id="edge76" class="edge"><title>Node23&#45;&gt;Node24</title>
<path fill="none" stroke="midnightblue" d="M535.375,-348.947C553.297,-341.488 574.957,-329.541 588,-312 625.241,-261.919 630.362,-184.616 630.509,-147.831"/>
<polygon fill="midnightblue" stroke="midnightblue" points="634.005,-147.366 630.417,-137.397 627.006,-147.428 634.005,-147.366"/>
</g>
<!-- Node24&#45;&gt;Node3 -->
<g id="edge78" class="edge"><title>Node24&#45;&gt;Node3</title>
<path fill="none" stroke="midnightblue" d="M596.73,-116.897C564.726,-107.179 516.206,-92.4447 481.435,-81.8862"/>
<polygon fill="midnightblue" stroke="midnightblue" points="482.155,-78.447 471.57,-78.8903 480.121,-85.145 482.155,-78.447"/>
</g>
<!-- Node25&#45;&gt;Node3 -->
<g id="edge86" class="edge"><title>Node25&#45;&gt;Node3</title>
<path fill="none" stroke="midnightblue" d="M557.553,-406.973C624.381,-388.013 757,-344.863 757,-301 757,-301 757,-301 757,-185 757,-149.99 747.558,-136.252 719,-116 681.569,-89.4551 550.471,-76.6609 481.756,-71.657"/>
<polygon fill="midnightblue" stroke="midnightblue" points="481.91,-68.1593 471.688,-70.9472 481.417,-75.1419 481.91,-68.1593"/>
</g>
<!-- Node25&#45;&gt;Node19 -->
<g id="edge90" class="edge"><title>Node25&#45;&gt;Node19</title>
<path fill="none" stroke="midnightblue" d="M537.408,-406.772C564.718,-389.988 617.92,-354.213 651,-312 662.666,-297.113 671.295,-277.284 676.634,-262.704"/>
<polygon fill="midnightblue" stroke="midnightblue" points="679.973,-263.756 679.936,-253.161 673.358,-261.467 679.973,-263.756"/>
</g>
<!-- Node25&#45;&gt;Node23 -->
<g id="edge88" class="edge"><title>Node25&#45;&gt;Node23</title>
<path fill="none" stroke="midnightblue" d="M517.387,-406.897C515.411,-399.257 512.634,-388.517 510.209,-379.143"/>
<polygon fill="midnightblue" stroke="midnightblue" points="513.576,-378.183 507.684,-369.378 506.799,-379.935 513.576,-378.183"/>
</g>
</g>
</svg>
