<?xml version="1.0" encoding="UTF-8" standalone="no"?>
<!DOCTYPE svg PUBLIC "-//W3C//DTD SVG 1.1//EN"
 "http://www.w3.org/Graphics/SVG/1.1/DTD/svg11.dtd">
<!-- Generated by graphviz version 2.26.3 (20100126.1600)
 -->
<!-- Title: frameschedulerworkunits.cpp Pages: 1 -->
<svg width="721pt" height="494pt"
 viewBox="0.00 0.00 721.00 494.00" xmlns="http://www.w3.org/2000/svg" xmlns:xlink="http://www.w3.org/1999/xlink">
<g id="graph1" class="graph" transform="scale(1 1) rotate(0) translate(4 490)">
<title>frameschedulerworkunits.cpp</title>
<polygon fill="white" stroke="white" points="-4,5 -4,-490 718,-490 718,5 -4,5"/>
<!-- Node1 -->
<g id="node1" class="node"><title>Node1</title>
<polygon fill="#bfbfbf" stroke="black" points="473.5,-465 473.5,-485 614.5,-485 614.5,-465 473.5,-465"/>
<text text-anchor="middle" x="544" y="-472" font-family="FreeSans" font-size="10.00">frameschedulerworkunits.cpp</text>
</g>
<!-- Node2 -->
<g id="node3" class="node"><title>Node2</title>
<a xlink:href="frameschedulerworkunits_8h.html" target="_top" xlink:title="This defines a number of workunits that are required for doing some tasks that the Framescheduler req...">
<polygon fill="white" stroke="black" points="215.5,-407 215.5,-427 346.5,-427 346.5,-407 215.5,-407"/>
<text text-anchor="middle" x="281" y="-414" font-family="FreeSans" font-size="10.00">frameschedulerworkunits.h</text>
</a>
</g>
<!-- Node1&#45;&gt;Node2 -->
<g id="edge2" class="edge"><title>Node1&#45;&gt;Node2</title>
<path fill="none" stroke="midnightblue" d="M498.489,-464.963C453.469,-455.035 384.504,-439.826 336.34,-429.204"/>
<polygon fill="midnightblue" stroke="midnightblue" points="336.913,-425.747 326.394,-427.011 335.405,-432.582 336.913,-425.747"/>
</g>
<!-- Node16 -->
<g id="node33" class="node"><title>Node16</title>
<a xlink:href="doublebufferedresource_8h.html" target="_top" xlink:title="This file defines the template double buffered resources that can be attached to a thread...">
<polygon fill="white" stroke="black" points="562.5,-233 562.5,-253 685.5,-253 685.5,-233 562.5,-233"/>
<text text-anchor="middle" x="624" y="-240" font-family="FreeSans" font-size="10.00">doublebufferedresource.h</text>
</a>
</g>
<!-- Node1&#45;&gt;Node16 -->
<g id="edge84" class="edge"><title>Node1&#45;&gt;Node16</title>
<path fill="none" stroke="midnightblue" d="M547.541,-464.732C559.828,-429.098 600.772,-310.362 617.146,-262.876"/>
<polygon fill="midnightblue" stroke="midnightblue" points="620.549,-263.744 620.5,-253.15 613.931,-261.462 620.549,-263.744"/>
</g>
<!-- Node3 -->
<g id="node5" class="node"><title>Node3</title>
<a xlink:href="datatypes_8h.html" target="_top" xlink:title="This file declares a few typedefs to allow flexibility, in case a change is required/desired. ">
<polygon fill="white" stroke="black" points="320.5,-59 320.5,-79 385.5,-79 385.5,-59 320.5,-59"/>
<text text-anchor="middle" x="353" y="-66" font-family="FreeSans" font-size="10.00">datatypes.h</text>
</a>
</g>
<!-- Node2&#45;&gt;Node3 -->
<g id="edge4" class="edge"><title>Node2&#45;&gt;Node3</title>
<path fill="none" stroke="midnightblue" d="M244.18,-406.962C178.282,-387.901 47,-344.472 47,-301 47,-301 47,-301 47,-185 47,-129.37 226.064,-90.9698 310.236,-75.9924"/>
<polygon fill="midnightblue" stroke="midnightblue" points="311.005,-79.4111 320.253,-74.241 309.799,-72.5157 311.005,-79.4111"/>
</g>
<!-- Node14 -->
<g id="node27" class="node"><title>Node14</title>
<a xlink:href="workunit_8h.html" target="_top" xlink:title="This file has the definition of the workunit. ">
<polygon fill="white" stroke="black" points="307,-349 307,-369 367,-369 367,-349 307,-349"/>
<text text-anchor="middle" x="337" y="-356" font-family="FreeSans" font-size="10.00">workunit.h</text>
</a>
</g>
<!-- Node2&#45;&gt;Node14 -->
<g id="edge26" class="edge"><title>Node2&#45;&gt;Node14</title>
<path fill="none" stroke="midnightblue" d="M290.754,-406.897C298.766,-398.6 310.307,-386.646 319.855,-376.757"/>
<polygon fill="midnightblue" stroke="midnightblue" points="322.552,-379.003 326.98,-369.378 317.516,-374.141 322.552,-379.003"/>
</g>
<!-- Node21 -->
<g id="node46" class="node"><title>Node21</title>
<a xlink:href="workunitkey_8h.html" target="_top" xlink:title="This file defines the metadata used to sort workunits. ">
<polygon fill="white" stroke="black" points="112.5,-233 112.5,-253 187.5,-253 187.5,-233 112.5,-233"/>
<text text-anchor="middle" x="150" y="-240" font-family="FreeSans" font-size="10.00">workunitkey.h</text>
</a>
</g>
<!-- Node2&#45;&gt;Node21 -->
<g id="edge82" class="edge"><title>Node2&#45;&gt;Node21</title>
<path fill="none" stroke="midnightblue" d="M276.401,-406.697C265.99,-384.053 238.944,-328.875 206,-290 196.288,-278.539 183.586,-267.629 172.734,-259.211"/>
<polygon fill="midnightblue" stroke="midnightblue" points="174.616,-256.246 164.521,-253.03 170.407,-261.84 174.616,-256.246"/>
</g>
<!-- Node4 -->
<g id="node7" class="node"><title>Node4</title>
<a xlink:href="crossplatformexport_8h.html" target="_top" xlink:title="This file determines what features are offered by the compiler that this library can take advantage o...">
<polygon fill="white" stroke="black" points="0,-1 0,-21 108,-21 108,-1 0,-1"/>
<text text-anchor="middle" x="54" y="-8" font-family="FreeSans" font-size="10.00">crossplatformexport.h</text>
</a>
</g>
<!-- Node3&#45;&gt;Node4 -->
<g id="edge6" class="edge"><title>Node3&#45;&gt;Node4</title>
<path fill="none" stroke="midnightblue" d="M320.433,-62.6826C271.47,-53.1849 178.02,-35.0574 115.844,-22.9965"/>
<polygon fill="midnightblue" stroke="midnightblue" points="116.247,-19.5096 105.764,-21.0411 114.914,-26.3815 116.247,-19.5096"/>
</g>
<!-- Node5 -->
<g id="node9" class="node"><title>Node5</title>
<polygon fill="white" stroke="#bfbfbf" points="125.5,-1 125.5,-21 168.5,-21 168.5,-1 125.5,-1"/>
<text text-anchor="middle" x="147" y="-8" font-family="FreeSans" font-size="10.00">vector</text>
</g>
<!-- Node3&#45;&gt;Node5 -->
<g id="edge8" class="edge"><title>Node3&#45;&gt;Node5</title>
<path fill="none" stroke="midnightblue" d="M320.307,-61.2103C286.788,-53.0181 232.988,-39.3017 178.389,-22.2696"/>
<polygon fill="midnightblue" stroke="midnightblue" points="179.139,-18.8364 168.55,-19.1663 177.034,-25.5122 179.139,-18.8364"/>
</g>
<!-- Node6 -->
<g id="node11" class="node"><title>Node6</title>
<polygon fill="white" stroke="#bfbfbf" points="186,-1 186,-21 226,-21 226,-1 186,-1"/>
<text text-anchor="middle" x="206" y="-8" font-family="FreeSans" font-size="10.00">string</text>
</g>
<!-- Node3&#45;&gt;Node6 -->
<g id="edge10" class="edge"><title>Node3&#45;&gt;Node6</title>
<path fill="none" stroke="midnightblue" d="M327.395,-58.8972C301.865,-48.8245 262.682,-33.3644 235.778,-22.7491"/>
<polygon fill="midnightblue" stroke="midnightblue" points="236.709,-19.3538 226.122,-18.9393 234.139,-25.8653 236.709,-19.3538"/>
</g>
<!-- Node7 -->
<g id="node13" class="node"><title>Node7</title>
<polygon fill="white" stroke="#bfbfbf" points="243.5,-1 243.5,-21 294.5,-21 294.5,-1 243.5,-1"/>
<text text-anchor="middle" x="269" y="-8" font-family="FreeSans" font-size="10.00">ostream</text>
</g>
<!-- Node3&#45;&gt;Node7 -->
<g id="edge12" class="edge"><title>Node3&#45;&gt;Node7</title>
<path fill="none" stroke="midnightblue" d="M338.368,-58.8972C325.678,-50.1351 307.085,-37.2965 292.341,-27.1164"/>
<polygon fill="midnightblue" stroke="midnightblue" points="293.964,-23.9835 283.746,-21.1817 289.986,-29.7438 293.964,-23.9835"/>
</g>
<!-- Node8 -->
<g id="node15" class="node"><title>Node8</title>
<polygon fill="white" stroke="#bfbfbf" points="311.5,-1 311.5,-21 346.5,-21 346.5,-1 311.5,-1"/>
<text text-anchor="middle" x="329" y="-8" font-family="FreeSans" font-size="10.00">map</text>
</g>
<!-- Node3&#45;&gt;Node8 -->
<g id="edge14" class="edge"><title>Node3&#45;&gt;Node8</title>
<path fill="none" stroke="midnightblue" d="M348.82,-58.8972C345.624,-51.1747 341.118,-40.2857 337.21,-30.841"/>
<polygon fill="midnightblue" stroke="midnightblue" points="340.352,-29.2795 333.294,-21.3776 333.884,-31.956 340.352,-29.2795"/>
</g>
<!-- Node9 -->
<g id="node17" class="node"><title>Node9</title>
<polygon fill="white" stroke="#bfbfbf" points="363.5,-1 363.5,-21 392.5,-21 392.5,-1 363.5,-1"/>
<text text-anchor="middle" x="378" y="-8" font-family="FreeSans" font-size="10.00">set</text>
</g>
<!-- Node3&#45;&gt;Node9 -->
<g id="edge16" class="edge"><title>Node3&#45;&gt;Node9</title>
<path fill="none" stroke="midnightblue" d="M357.355,-58.8972C360.683,-51.1747 365.377,-40.2857 369.448,-30.841"/>
<polygon fill="midnightblue" stroke="midnightblue" points="372.783,-31.9463 373.527,-21.3776 366.354,-29.1754 372.783,-31.9463"/>
</g>
<!-- Node10 -->
<g id="node19" class="node"><title>Node10</title>
<polygon fill="white" stroke="#bfbfbf" points="410,-1 410,-21 460,-21 460,-1 410,-1"/>
<text text-anchor="middle" x="435" y="-8" font-family="FreeSans" font-size="10.00">sstream</text>
</g>
<!-- Node3&#45;&gt;Node10 -->
<g id="edge18" class="edge"><title>Node3&#45;&gt;Node10</title>
<path fill="none" stroke="midnightblue" d="M367.283,-58.8972C379.671,-50.1351 397.822,-37.2965 412.215,-27.1164"/>
<polygon fill="midnightblue" stroke="midnightblue" points="414.462,-29.8138 420.605,-21.1817 410.42,-24.0989 414.462,-29.8138"/>
</g>
<!-- Node11 -->
<g id="node21" class="node"><title>Node11</title>
<polygon fill="white" stroke="#bfbfbf" points="477.5,-1 477.5,-21 526.5,-21 526.5,-1 477.5,-1"/>
<text text-anchor="middle" x="502" y="-8" font-family="FreeSans" font-size="10.00">fstream</text>
</g>
<!-- Node3&#45;&gt;Node11 -->
<g id="edge20" class="edge"><title>Node3&#45;&gt;Node11</title>
<path fill="none" stroke="midnightblue" d="M378.954,-58.8972C403.608,-49.3004 440.824,-34.8134 467.871,-24.2852"/>
<polygon fill="midnightblue" stroke="midnightblue" points="469.284,-27.4911 477.333,-20.6019 466.744,-20.9679 469.284,-27.4911"/>
</g>
<!-- Node12 -->
<g id="node23" class="node"><title>Node12</title>
<polygon fill="white" stroke="#bfbfbf" points="544,-1 544,-21 600,-21 600,-1 544,-1"/>
<text text-anchor="middle" x="572" y="-8" font-family="FreeSans" font-size="10.00">algorithm</text>
</g>
<!-- Node3&#45;&gt;Node12 -->
<g id="edge22" class="edge"><title>Node3&#45;&gt;Node12</title>
<path fill="none" stroke="midnightblue" d="M385.643,-60.9493C420.145,-52.357 476.381,-38.1166 533.779,-22.2779"/>
<polygon fill="midnightblue" stroke="midnightblue" points="535.047,-25.5584 543.749,-19.5138 533.177,-18.8129 535.047,-25.5584"/>
</g>
<!-- Node13 -->
<g id="node25" class="node"><title>Node13</title>
<polygon fill="white" stroke="#bfbfbf" points="617.5,-1 617.5,-21 664.5,-21 664.5,-1 617.5,-1"/>
<text text-anchor="middle" x="641" y="-8" font-family="FreeSans" font-size="10.00">stdint.h</text>
</g>
<!-- Node3&#45;&gt;Node13 -->
<g id="edge24" class="edge"><title>Node3&#45;&gt;Node13</title>
<path fill="none" stroke="midnightblue" d="M385.671,-64.601C432.852,-57.9034 522.88,-43.832 607.588,-22.1141"/>
<polygon fill="midnightblue" stroke="midnightblue" points="608.561,-25.4775 617.355,-19.569 606.796,-18.7037 608.561,-25.4775"/>
</g>
<!-- Node14&#45;&gt;Node3 -->
<g id="edge28" class="edge"><title>Node14&#45;&gt;Node3</title>
<path fill="none" stroke="midnightblue" d="M367.134,-356.252C456.357,-347.292 713,-315.242 713,-243 713,-243 713,-243 713,-185 713,-119.018 491.145,-85.1445 395.758,-73.6298"/>
<polygon fill="midnightblue" stroke="midnightblue" points="395.924,-70.1251 385.583,-72.4286 395.103,-77.0768 395.924,-70.1251"/>
</g>
<!-- Node15 -->
<g id="node30" class="node"><title>Node15</title>
<a xlink:href="framescheduler_8h.html" target="_top" xlink:title="This file has the Declarations for the main FrameScheduler class. ">
<polygon fill="white" stroke="black" points="329,-291 329,-311 419,-311 419,-291 329,-291"/>
<text text-anchor="middle" x="374" y="-298" font-family="FreeSans" font-size="10.00">framescheduler.h</text>
</a>
</g>
<!-- Node14&#45;&gt;Node15 -->
<g id="edge30" class="edge"><title>Node14&#45;&gt;Node15</title>
<path fill="none" stroke="midnightblue" d="M343.445,-348.897C348.529,-340.928 355.763,-329.587 361.917,-319.941"/>
<polygon fill="midnightblue" stroke="midnightblue" points="364.952,-321.691 367.38,-311.378 359.051,-317.926 364.952,-321.691"/>
</g>
<!-- Node17 -->
<g id="node36" class="node"><title>Node17</title>
<a xlink:href="thread_8h.html" target="_top" xlink:title="This file defines a minimalistic cross&#45;platform thread that the scheduler uses to schedule tasks...">
<polygon fill="white" stroke="black" points="456.5,-233 456.5,-253 507.5,-253 507.5,-233 456.5,-233"/>
<text text-anchor="middle" x="482" y="-240" font-family="FreeSans" font-size="10.00">thread.h</text>
</a>
</g>
<!-- Node14&#45;&gt;Node17 -->
<g id="edge78" class="edge"><title>Node14&#45;&gt;Node17</title>
<path fill="none" stroke="midnightblue" d="M363.497,-348.922C382.683,-340.806 408.555,-328.106 428,-312 445.463,-297.536 460.897,-276.522 470.745,-261.49"/>
<polygon fill="midnightblue" stroke="midnightblue" points="473.72,-263.334 476.123,-253.015 467.81,-259.583 473.72,-263.334"/>
</g>
<!-- Node19 -->
<g id="node41" class="node"><title>Node19</title>
<a xlink:href="mutex_8h.html" target="_top" xlink:title="This file declares and defines a mutex that is a partial implementation. ">
<polygon fill="white" stroke="black" points="541,-175 541,-195 591,-195 591,-175 541,-175"/>
<text text-anchor="middle" x="566" y="-182" font-family="FreeSans" font-size="10.00">mutex.h</text>
</a>
</g>
<!-- Node14&#45;&gt;Node19 -->
<g id="edge70" class="edge"><title>Node14&#45;&gt;Node19</title>
<path fill="none" stroke="midnightblue" d="M367.201,-349.884C391.237,-341.887 425.173,-328.898 452,-312 484.481,-291.54 490.378,-282.585 516,-254 530.256,-238.096 544.335,-218.185 553.903,-203.844"/>
<polygon fill="midnightblue" stroke="midnightblue" points="556.934,-205.604 559.495,-195.323 551.082,-201.763 556.934,-205.604"/>
</g>
<!-- Node14&#45;&gt;Node21 -->
<g id="edge80" class="edge"><title>Node14&#45;&gt;Node21</title>
<path fill="none" stroke="midnightblue" d="M323.734,-348.84C305.231,-334.86 270.405,-309.24 239,-290 219.891,-278.293 197.591,-266.52 180.094,-257.685"/>
<polygon fill="midnightblue" stroke="midnightblue" points="181.428,-254.439 170.918,-253.098 178.298,-260.7 181.428,-254.439"/>
</g>
<!-- Node23 -->
<g id="node53" class="node"><title>Node23</title>
<a xlink:href="rollingaverage_8h.html" target="_top" xlink:title="This stores the implementation and the declaration of the RollingAverage, BufferedRollingAverage, WeightedRollingAverage and the DefaultRollingAverage. ">
<polygon fill="white" stroke="black" points="204.5,-233 204.5,-253 287.5,-253 287.5,-233 204.5,-233"/>
<text text-anchor="middle" x="246" y="-240" font-family="FreeSans" font-size="10.00">rollingaverage.h</text>
</a>
</g>
<!-- Node14&#45;&gt;Node23 -->
<g id="edge72" class="edge"><title>Node14&#45;&gt;Node23</title>
<path fill="none" stroke="midnightblue" d="M328.924,-348.706C313.506,-329.051 279.69,-285.945 260.341,-261.281"/>
<polygon fill="midnightblue" stroke="midnightblue" points="262.854,-258.813 253.928,-253.106 257.346,-263.134 262.854,-258.813"/>
</g>
<!-- Node25 -->
<g id="node62" class="node"><title>Node25</title>
<a xlink:href="threadingenumerations_8h.html" target="_top" xlink:title="Any enumerations the threading library requires are all declared here. ">
<polygon fill="white" stroke="black" points="75,-291 75,-311 197,-311 197,-291 75,-291"/>
<text text-anchor="middle" x="136" y="-298" font-family="FreeSans" font-size="10.00">threadingenumerations.h</text>
</a>
</g>
<!-- Node14&#45;&gt;Node25 -->
<g id="edge74" class="edge"><title>Node14&#45;&gt;Node25</title>
<path fill="none" stroke="midnightblue" d="M306.908,-350.317C273.431,-340.657 219.007,-324.952 180.582,-313.864"/>
<polygon fill="midnightblue" stroke="midnightblue" points="181.268,-310.42 170.69,-311.01 179.327,-317.145 181.268,-310.42"/>
</g>
<!-- Node15&#45;&gt;Node3 -->
<g id="edge32" class="edge"><title>Node15&#45;&gt;Node3</title>
<path fill="none" stroke="midnightblue" d="M368.818,-290.671C356.47,-265.41 325.555,-198.175 315,-138 313.311,-128.369 311.74,-125.218 315,-116 318.884,-105.019 326.544,-94.7247 333.975,-86.5857"/>
<polygon fill="midnightblue" stroke="midnightblue" points="336.69,-88.8153 341.182,-79.2197 331.687,-83.9199 336.69,-88.8153"/>
</g>
<!-- Node15&#45;&gt;Node16 -->
<g id="edge34" class="edge"><title>Node15&#45;&gt;Node16</title>
<path fill="none" stroke="midnightblue" d="M417.261,-290.963C459.967,-281.056 525.338,-265.89 571.108,-255.271"/>
<polygon fill="midnightblue" stroke="midnightblue" points="571.9,-258.68 580.85,-253.011 570.318,-251.861 571.9,-258.68"/>
</g>
<!-- Node15&#45;&gt;Node17 -->
<g id="edge38" class="edge"><title>Node15&#45;&gt;Node17</title>
<path fill="none" stroke="midnightblue" d="M392.812,-290.897C409.743,-281.804 434.849,-268.322 454.114,-257.976"/>
<polygon fill="midnightblue" stroke="midnightblue" points="455.887,-260.996 463.041,-253.182 452.575,-254.829 455.887,-260.996"/>
</g>
<!-- Node18 -->
<g id="node38" class="node"><title>Node18</title>
<a xlink:href="systemcalls_8h.html" target="_top" xlink:title="This file defines a minimalistic cross&#45;platform thread that the scheduler uses to schedule tasks...">
<polygon fill="white" stroke="black" points="449,-175 449,-195 523,-195 523,-175 449,-175"/>
<text text-anchor="middle" x="486" y="-182" font-family="FreeSans" font-size="10.00">systemcalls.h</text>
</a>
</g>
<!-- Node15&#45;&gt;Node18 -->
<g id="edge58" class="edge"><title>Node15&#45;&gt;Node18</title>
<path fill="none" stroke="midnightblue" d="M383.939,-290.706C403.166,-270.792 445.635,-226.807 469.28,-202.317"/>
<polygon fill="midnightblue" stroke="midnightblue" points="471.815,-204.731 476.243,-195.106 466.779,-199.868 471.815,-204.731"/>
</g>
<!-- Node15&#45;&gt;Node21 -->
<g id="edge50" class="edge"><title>Node15&#45;&gt;Node21</title>
<path fill="none" stroke="midnightblue" d="M335.238,-290.963C296.948,-281.049 238.321,-265.869 197.307,-255.249"/>
<polygon fill="midnightblue" stroke="midnightblue" points="198.1,-251.839 187.542,-252.721 196.346,-258.616 198.1,-251.839"/>
</g>
<!-- Node22 -->
<g id="node49" class="node"><title>Node22</title>
<a xlink:href="spinlock_8h.html" target="_top" xlink:title="Declares a Mutex, Mutex tools, and at least one MutexLike object. ">
<polygon fill="white" stroke="black" points="323.5,-117 323.5,-137 382.5,-137 382.5,-117 323.5,-117"/>
<text text-anchor="middle" x="353" y="-124" font-family="FreeSans" font-size="10.00">spinlock.h</text>
</a>
</g>
<!-- Node15&#45;&gt;Node22 -->
<g id="edge54" class="edge"><title>Node15&#45;&gt;Node22</title>
<path fill="none" stroke="midnightblue" d="M372.78,-290.893C369.417,-263.023 359.961,-184.675 355.452,-147.313"/>
<polygon fill="midnightblue" stroke="midnightblue" points="358.896,-146.644 354.223,-137.135 351.947,-147.482 358.896,-146.644"/>
</g>
<!-- Node15&#45;&gt;Node23 -->
<g id="edge60" class="edge"><title>Node15&#45;&gt;Node23</title>
<path fill="none" stroke="midnightblue" d="M351.704,-290.897C331.273,-281.639 300.797,-267.83 277.811,-257.415"/>
<polygon fill="midnightblue" stroke="midnightblue" points="279.023,-254.121 268.47,-253.182 276.134,-260.497 279.023,-254.121"/>
</g>
<!-- Node24 -->
<g id="node56" class="node"><title>Node24</title>
<a xlink:href="barrier_8h.html" target="_top" xlink:title="The declaration of the Mezzanine::Threading::Barrier Barrier synchronization primitive. ">
<polygon fill="white" stroke="black" points="380.5,-175 380.5,-195 431.5,-195 431.5,-175 380.5,-175"/>
<text text-anchor="middle" x="406" y="-182" font-family="FreeSans" font-size="10.00">barrier.h</text>
</a>
</g>
<!-- Node15&#45;&gt;Node24 -->
<g id="edge64" class="edge"><title>Node15&#45;&gt;Node24</title>
<path fill="none" stroke="midnightblue" d="M376.84,-290.706C382.143,-271.482 393.635,-229.825 400.502,-204.929"/>
<polygon fill="midnightblue" stroke="midnightblue" points="403.927,-205.676 403.212,-195.106 397.179,-203.815 403.927,-205.676"/>
</g>
<!-- Node16&#45;&gt;Node3 -->
<g id="edge36" class="edge"><title>Node16&#45;&gt;Node3</title>
<path fill="none" stroke="midnightblue" d="M622.385,-232.921C617.834,-208.172 602.425,-144.372 561,-116 534.512,-97.8584 448.444,-82.7256 395.684,-74.8517"/>
<polygon fill="midnightblue" stroke="midnightblue" points="396.005,-71.3615 385.604,-73.3749 394.991,-78.2875 396.005,-71.3615"/>
</g>
<!-- Node17&#45;&gt;Node18 -->
<g id="edge40" class="edge"><title>Node17&#45;&gt;Node18</title>
<path fill="none" stroke="midnightblue" d="M482.697,-232.897C483.218,-225.339 483.948,-214.748 484.59,-205.446"/>
<polygon fill="midnightblue" stroke="midnightblue" points="488.088,-205.595 485.284,-195.378 481.104,-205.113 488.088,-205.595"/>
</g>
<!-- Node17&#45;&gt;Node19 -->
<g id="edge44" class="edge"><title>Node17&#45;&gt;Node19</title>
<path fill="none" stroke="midnightblue" d="M496.632,-232.897C509.322,-224.135 527.915,-211.297 542.659,-201.116"/>
<polygon fill="midnightblue" stroke="midnightblue" points="545.014,-203.744 551.254,-195.182 541.036,-197.983 545.014,-203.744"/>
</g>
<!-- Node18&#45;&gt;Node3 -->
<g id="edge42" class="edge"><title>Node18&#45;&gt;Node3</title>
<path fill="none" stroke="midnightblue" d="M505.493,-174.938C528.59,-161.698 561.931,-137.575 545,-116 526.815,-92.8264 446.677,-79.5972 395.855,-73.3962"/>
<polygon fill="midnightblue" stroke="midnightblue" points="396.139,-69.9055 385.798,-72.2137 395.321,-76.8576 396.139,-69.9055"/>
</g>
<!-- Node20 -->
<g id="node43" class="node"><title>Node20</title>
<a xlink:href="atomicoperations_8h.html" target="_top" xlink:title="Simple thread safe ways to check and change a specified variable atomically. ">
<polygon fill="white" stroke="black" points="438,-117 438,-137 536,-137 536,-117 438,-117"/>
<text text-anchor="middle" x="487" y="-124" font-family="FreeSans" font-size="10.00">atomicoperations.h</text>
</a>
</g>
<!-- Node19&#45;&gt;Node20 -->
<g id="edge46" class="edge"><title>Node19&#45;&gt;Node20</title>
<path fill="none" stroke="midnightblue" d="M552.239,-174.897C540.305,-166.135 522.818,-153.297 508.952,-143.116"/>
<polygon fill="midnightblue" stroke="midnightblue" points="511,-140.278 500.868,-137.182 506.858,-145.921 511,-140.278"/>
</g>
<!-- Node20&#45;&gt;Node3 -->
<g id="edge48" class="edge"><title>Node20&#45;&gt;Node3</title>
<path fill="none" stroke="midnightblue" d="M463.659,-116.897C442.174,-107.598 410.081,-93.7066 385.981,-83.2752"/>
<polygon fill="midnightblue" stroke="midnightblue" points="387.091,-79.9419 376.523,-79.1817 384.31,-86.366 387.091,-79.9419"/>
</g>
<!-- Node21&#45;&gt;Node3 -->
<g id="edge52" class="edge"><title>Node21&#45;&gt;Node3</title>
<path fill="none" stroke="midnightblue" d="M157.369,-232.682C174.293,-209.528 218.104,-152.603 265,-116 281.704,-102.962 302.541,-91.6513 319.745,-83.3948"/>
<polygon fill="midnightblue" stroke="midnightblue" points="321.299,-86.532 328.88,-79.1305 318.338,-80.1891 321.299,-86.532"/>
</g>
<!-- Node22&#45;&gt;Node3 -->
<g id="edge56" class="edge"><title>Node22&#45;&gt;Node3</title>
<path fill="none" stroke="midnightblue" d="M353,-116.897C353,-109.339 353,-98.7476 353,-89.4458"/>
<polygon fill="midnightblue" stroke="midnightblue" points="356.5,-89.3776 353,-79.3776 349.5,-89.3776 356.5,-89.3776"/>
</g>
<!-- Node23&#45;&gt;Node3 -->
<g id="edge62" class="edge"><title>Node23&#45;&gt;Node3</title>
<path fill="none" stroke="midnightblue" d="M246.532,-232.74C248.195,-209.704 254.955,-153.005 282,-116 291.851,-102.521 306.829,-91.7877 320.492,-84.0006"/>
<polygon fill="midnightblue" stroke="midnightblue" points="322.504,-86.8934 329.662,-79.0828 319.196,-80.7245 322.504,-86.8934"/>
</g>
<!-- Node24&#45;&gt;Node3 -->
<g id="edge66" class="edge"><title>Node24&#45;&gt;Node3</title>
<path fill="none" stroke="midnightblue" d="M405.253,-174.697C403.919,-160.773 400.326,-135.456 391,-116 385.897,-105.355 377.941,-94.9894 370.624,-86.7134"/>
<polygon fill="midnightblue" stroke="midnightblue" points="373.019,-84.1486 363.651,-79.2009 367.889,-88.911 373.019,-84.1486"/>
</g>
<!-- Node24&#45;&gt;Node20 -->
<g id="edge68" class="edge"><title>Node24&#45;&gt;Node20</title>
<path fill="none" stroke="midnightblue" d="M420.109,-174.897C432.346,-166.135 450.276,-153.297 464.493,-143.116"/>
<polygon fill="midnightblue" stroke="midnightblue" points="466.688,-145.849 472.781,-137.182 462.613,-140.158 466.688,-145.849"/>
</g>
<!-- Node25&#45;&gt;Node3 -->
<g id="edge76" class="edge"><title>Node25&#45;&gt;Node3</title>
<path fill="none" stroke="midnightblue" d="M125.35,-290.746C112.741,-277.298 94.5678,-252.951 104,-232 142.276,-146.982 250.314,-100.83 310.745,-80.9953"/>
<polygon fill="midnightblue" stroke="midnightblue" points="311.911,-84.2974 320.375,-77.9251 309.785,-77.6281 311.911,-84.2974"/>
</g>
</g>
</svg>
