<?xml version="1.0" encoding="UTF-8" standalone="no"?>
<!DOCTYPE svg PUBLIC "-//W3C//DTD SVG 1.1//EN"
 "http://www.w3.org/Graphics/SVG/1.1/DTD/svg11.dtd">
<!-- Generated by graphviz version 2.26.3 (20100126.1600)
 -->
<!-- Title: G Pages: 1 -->
<!--zoomable 452 -->
<svg id="main" version="1.1" xmlns="http://www.w3.org/2000/svg" xmlns:xlink="http://www.w3.org/1999/xlink" xml:space="preserve" onload="init(evt)">
        <defs>
                <circle id="rim" cx="0" cy="0" r="7"/>
                <circle id="rim2" cx="0" cy="0" r="3.5"/>
                <g id="zoomPlus">
                        <use xlink:href="#rim" fill="#404040">
                                <set attributeName="fill" to="#808080" begin="zoomplus.mouseover" end="zoomplus.mouseout"/>
                        </use>
                        <path d="M-4,0h8M0,-4v8" fill="none" stroke="white" stroke-width="1.5" pointer-events="none"/>
                </g>
                <g id="zoomMin">
                        <use xlink:href="#rim" fill="#404040">
                                <set attributeName="fill" to="#808080" begin="zoomminus.mouseover" end="zoomminus.mouseout"/>
                        </use>
                        <path d="M-4,0h8" fill="none" stroke="white" stroke-width="1.5" pointer-events="none"/>
                </g>
                <g id="dirArrow">
                        <path fill="none" stroke="white" stroke-width="1.5" d="M0,-3.0v7 M-2.5,-0.5L0,-3.0L2.5,-0.5"/>
                </g>
               <g id="resetDef">
                       <use xlink:href="#rim2" fill="#404040">
                               <set attributeName="fill" to="#808080" begin="reset.mouseover" end="reset.mouseout"/>
                       </use>
               </g>
        </defs>

<script type="text/javascript">
var viewWidth = 799;
var viewHeight = 452;
var sectionId = 'dynsection-0';
</script>
<script xlink:href="svgpan.js"/>
<svg id="graph" class="graph">
<g id="viewport">
<title>G</title>
<polygon fill="white" stroke="white" points="-4,5 -4,-448 795.765,-448 795.765,5 -4,5"/>
<!-- Node1 -->
<g id="node1" class="node"><title>Node1</title>
<polygon fill="#bfbfbf" stroke="black" points="176,-421 176,-443 312,-443 312,-421 176,-421"/>
<text text-anchor="middle" x="244" y="-430" font-family="FreeSans" font-size="10.00">frameschedulerworkunits.h</text>
</g>
<!-- Node2 -->
<g id="node3" class="node"><title>Node2</title>
<a xlink:href="datatypes_8h.html" target="_top" xlink:title="This file declares a few typedefs to allow flexibility, in case a change is required/desired.">
<polygon fill="white" stroke="black" points="309,-121 309,-143 377,-143 377,-121 309,-121"/>
<text text-anchor="middle" x="343" y="-130" font-family="FreeSans" font-size="10.00">datatypes.h</text>
</a>
</g>
<!-- Node1&#45;&gt;Node2 -->
<g id="edge2" class="edge"><title>Node1&#45;&gt;Node2</title>
<path fill="none" stroke="midnightblue" d="M220.182,-420.869C165.603,-393.698 39.0872,-320.299 78,-240 96.7675,-201.272 115.409,-199.048 154,-180 200.538,-157.029 259.115,-144.357 298.623,-137.886"/>
<polygon fill="midnightblue" stroke="midnightblue" points="299.4,-141.307 308.736,-136.297 298.313,-134.392 299.4,-141.307"/>
</g>
<!-- Node10 -->
<g id="node19" class="node"><title>Node10</title>
<a xlink:href="workunit_8h.html" target="_top" xlink:title="This file has the defintion of the workunit.">
<polygon fill="white" stroke="black" points="436.5,-361 436.5,-383 497.5,-383 497.5,-361 436.5,-361"/>
<text text-anchor="middle" x="467" y="-370" font-family="FreeSans" font-size="10.00">workunit.h</text>
</a>
</g>
<!-- Node1&#45;&gt;Node10 -->
<g id="edge18" class="edge"><title>Node1&#45;&gt;Node10</title>
<path fill="none" stroke="midnightblue" d="M284.902,-420.995C325.24,-410.142 386.521,-393.653 426.663,-382.853"/>
<polygon fill="midnightblue" stroke="midnightblue" points="427.64,-386.215 436.388,-380.237 425.822,-379.455 427.64,-386.215"/>
</g>
<!-- Node3 -->
<g id="node5" class="node"><title>Node3</title>
<a xlink:href="compilerthreadcompat_8h.html" target="_top" xlink:title="This file determines what features are offered by the compiler that this library can take advantage o...">
<polygon fill="white" stroke="black" points="73,-61 73,-83 197,-83 197,-61 73,-61"/>
<text text-anchor="middle" x="135" y="-70" font-family="FreeSans" font-size="10.00">compilerthreadcompat.h</text>
</a>
</g>
<!-- Node2&#45;&gt;Node3 -->
<g id="edge4" class="edge"><title>Node2&#45;&gt;Node3</title>
<path fill="none" stroke="midnightblue" d="M308.653,-122.092C274.441,-112.223 221.616,-96.9854 183.21,-85.9067"/>
<polygon fill="midnightblue" stroke="midnightblue" points="183.861,-82.4519 173.283,-83.0431 181.921,-89.1777 183.861,-82.4519"/>
</g>
<!-- Node8 -->
<g id="node15" class="node"><title>Node8</title>
<polygon fill="white" stroke="#bfbfbf" points="238.5,-61 238.5,-83 279.5,-83 279.5,-61 238.5,-61"/>
<text text-anchor="middle" x="259" y="-70" font-family="FreeSans" font-size="10.00">string</text>
</g>
<!-- Node2&#45;&gt;Node8 -->
<g id="edge14" class="edge"><title>Node2&#45;&gt;Node8</title>
<path fill="none" stroke="midnightblue" d="M327.593,-120.995C315.12,-112.086 297.332,-99.3799 282.996,-89.1397"/>
<polygon fill="midnightblue" stroke="midnightblue" points="284.765,-86.1027 274.594,-83.1383 280.697,-91.7988 284.765,-86.1027"/>
</g>
<!-- Node9 -->
<g id="node17" class="node"><title>Node9</title>
<polygon fill="white" stroke="#bfbfbf" points="319.5,-61 319.5,-83 366.5,-83 366.5,-61 319.5,-61"/>
<text text-anchor="middle" x="343" y="-70" font-family="FreeSans" font-size="10.00">stdint.h</text>
</g>
<!-- Node2&#45;&gt;Node9 -->
<g id="edge16" class="edge"><title>Node2&#45;&gt;Node9</title>
<path fill="none" stroke="midnightblue" d="M343,-120.995C343,-113.311 343,-102.803 343,-93.4884"/>
<polygon fill="midnightblue" stroke="midnightblue" points="346.5,-93.3428 343,-83.3428 339.5,-93.3429 346.5,-93.3428"/>
</g>
<!-- Node4 -->
<g id="node7" class="node"><title>Node4</title>
<polygon fill="white" stroke="#bfbfbf" points="0,-1 0,-23 58,-23 58,-1 0,-1"/>
<text text-anchor="middle" x="29" y="-10" font-family="FreeSans" font-size="10.00">pthread.h</text>
</g>
<!-- Node3&#45;&gt;Node4 -->
<g id="edge6" class="edge"><title>Node3&#45;&gt;Node4</title>
<path fill="none" stroke="midnightblue" d="M115.558,-60.9951C99.2987,-51.7917 75.8814,-38.5366 57.5027,-28.1336"/>
<polygon fill="midnightblue" stroke="midnightblue" points="59.1044,-25.0185 48.6777,-23.1383 55.6562,-31.1103 59.1044,-25.0185"/>
</g>
<!-- Node5 -->
<g id="node9" class="node"><title>Node5</title>
<polygon fill="white" stroke="#bfbfbf" points="75.5,-1 75.5,-23 126.5,-23 126.5,-1 75.5,-1"/>
<text text-anchor="middle" x="101" y="-10" font-family="FreeSans" font-size="10.00">signal.h</text>
</g>
<!-- Node3&#45;&gt;Node5 -->
<g id="edge8" class="edge"><title>Node3&#45;&gt;Node5</title>
<path fill="none" stroke="midnightblue" d="M128.764,-60.9951C124.22,-52.9771 117.934,-41.884 112.492,-32.2806"/>
<polygon fill="midnightblue" stroke="midnightblue" points="115.403,-30.3175 107.428,-23.3428 109.313,-33.7686 115.403,-30.3175"/>
</g>
<!-- Node6 -->
<g id="node11" class="node"><title>Node6</title>
<polygon fill="white" stroke="#bfbfbf" points="144,-1 144,-23 196,-23 196,-1 144,-1"/>
<text text-anchor="middle" x="170" y="-10" font-family="FreeSans" font-size="10.00">sched.h</text>
</g>
<!-- Node3&#45;&gt;Node6 -->
<g id="edge10" class="edge"><title>Node3&#45;&gt;Node6</title>
<path fill="none" stroke="midnightblue" d="M141.42,-60.9951C146.145,-52.8936 152.703,-41.6525 158.344,-31.981"/>
<polygon fill="midnightblue" stroke="midnightblue" points="161.368,-33.7442 163.383,-23.3428 155.321,-30.2171 161.368,-33.7442"/>
</g>
<!-- Node7 -->
<g id="node13" class="node"><title>Node7</title>
<polygon fill="white" stroke="#bfbfbf" points="214,-1 214,-23 264,-23 264,-1 214,-1"/>
<text text-anchor="middle" x="239" y="-10" font-family="FreeSans" font-size="10.00">unistd.h</text>
</g>
<!-- Node3&#45;&gt;Node7 -->
<g id="edge12" class="edge"><title>Node3&#45;&gt;Node7</title>
<path fill="none" stroke="midnightblue" d="M154.075,-60.9951C169.955,-51.8337 192.793,-38.6576 210.788,-28.2763"/>
<polygon fill="midnightblue" stroke="midnightblue" points="212.781,-31.1673 219.694,-23.1383 209.283,-25.104 212.781,-31.1673"/>
</g>
<!-- Node10&#45;&gt;Node2 -->
<g id="edge20" class="edge"><title>Node10&#45;&gt;Node2</title>
<path fill="none" stroke="midnightblue" d="M497.658,-371.083C588.362,-367.15 845.11,-346.562 780,-240 738.784,-172.545 489.81,-144.257 387.175,-135.358"/>
<polygon fill="midnightblue" stroke="midnightblue" points="387.392,-131.864 377.133,-134.509 386.802,-138.839 387.392,-131.864"/>
</g>
<!-- Node11 -->
<g id="node22" class="node"><title>Node11</title>
<a xlink:href="framescheduler_8h.html" target="_top" xlink:title="This file has the Declarations for the main FrameScheduler class.">
<polygon fill="white" stroke="black" points="290,-301 290,-323 384,-323 384,-301 290,-301"/>
<text text-anchor="middle" x="337" y="-310" font-family="FreeSans" font-size="10.00">framescheduler.h</text>
</a>
</g>
<!-- Node10&#45;&gt;Node11 -->
<g id="edge22" class="edge"><title>Node10&#45;&gt;Node11</title>
<path fill="none" stroke="midnightblue" d="M443.156,-360.995C422.76,-351.582 393.18,-337.929 370.422,-327.426"/>
<polygon fill="midnightblue" stroke="midnightblue" points="371.679,-324.151 361.133,-323.138 368.746,-330.507 371.679,-324.151"/>
</g>
<!-- Node15 -->
<g id="node32" class="node"><title>Node15</title>
<polygon fill="white" stroke="#bfbfbf" points="555,-181 555,-203 599,-203 599,-181 555,-181"/>
<text text-anchor="middle" x="577" y="-190" font-family="FreeSans" font-size="10.00">vector</text>
</g>
<!-- Node10&#45;&gt;Node15 -->
<g id="edge80" class="edge"><title>Node10&#45;&gt;Node15</title>
<path fill="none" stroke="midnightblue" d="M492.025,-360.938C507.658,-352.822 527.026,-340.369 539,-324 563.625,-290.336 572.339,-241.056 575.389,-213.212"/>
<polygon fill="midnightblue" stroke="midnightblue" points="578.896,-213.307 576.354,-203.021 571.927,-212.647 578.896,-213.307"/>
</g>
<!-- Node16 -->
<g id="node34" class="node"><title>Node16</title>
<a xlink:href="thread_8h.html" target="_top" xlink:title="This file defines a minimalistic cross&#45;platform thread that the scheduler uses to schedule tasks...">
<polygon fill="white" stroke="black" points="86.5,-241 86.5,-263 139.5,-263 139.5,-241 86.5,-241"/>
<text text-anchor="middle" x="113" y="-250" font-family="FreeSans" font-size="10.00">thread.h</text>
</a>
</g>
<!-- Node10&#45;&gt;Node16 -->
<g id="edge76" class="edge"><title>Node10&#45;&gt;Node16</title>
<path fill="none" stroke="midnightblue" d="M436.297,-365.585C399.074,-357.464 334.659,-342.303 281,-324 232.48,-307.45 178.294,-283.115 144.916,-267.411"/>
<polygon fill="midnightblue" stroke="midnightblue" points="146.2,-264.147 135.665,-263.029 143.204,-270.473 146.2,-264.147"/>
</g>
<!-- Node18 -->
<g id="node40" class="node"><title>Node18</title>
<a xlink:href="mutex_8h.html" target="_top" xlink:title="This file declares and defines a mutex that is a partial implementation.">
<polygon fill="white" stroke="black" points="109.5,-121 109.5,-143 160.5,-143 160.5,-121 109.5,-121"/>
<text text-anchor="middle" x="135" y="-130" font-family="FreeSans" font-size="10.00">mutex.h</text>
</a>
</g>
<!-- Node10&#45;&gt;Node18 -->
<g id="edge66" class="edge"><title>Node10&#45;&gt;Node18</title>
<path fill="none" stroke="midnightblue" d="M436.228,-368.578C351.433,-358.415 118.03,-325.232 78,-264 53.6146,-226.699 90.9633,-177.226 115.801,-150.7"/>
<polygon fill="midnightblue" stroke="midnightblue" points="118.58,-152.861 123.025,-143.243 113.553,-147.99 118.58,-152.861"/>
</g>
<!-- Node20 -->
<g id="node47" class="node"><title>Node20</title>
<a xlink:href="workunitkey_8h.html" target="_top" xlink:title="This file defines the metadata used to sort workunits.">
<polygon fill="white" stroke="black" points="588.5,-241 588.5,-263 665.5,-263 665.5,-241 588.5,-241"/>
<text text-anchor="middle" x="627" y="-250" font-family="FreeSans" font-size="10.00">workunitkey.h</text>
</a>
</g>
<!-- Node10&#45;&gt;Node20 -->
<g id="edge78" class="edge"><title>Node10&#45;&gt;Node20</title>
<path fill="none" stroke="midnightblue" d="M497.754,-363.168C520.754,-355.479 552.058,-342.619 575,-324 592.648,-309.677 607.213,-287.977 616.394,-272.144"/>
<polygon fill="midnightblue" stroke="midnightblue" points="619.588,-273.602 621.395,-263.162 613.472,-270.197 619.588,-273.602"/>
</g>
<!-- Node24 -->
<g id="node58" class="node"><title>Node24</title>
<a xlink:href="rollingaverage_8h.html" target="_top" xlink:title="This Store the implementation and the declaration of the RollingAverage, BufferedRollingAverage, WeightedRollingAverage and the DefaultRollingAverage.">
<polygon fill="white" stroke="black" points="682.5,-241 682.5,-263 771.5,-263 771.5,-241 682.5,-241"/>
<text text-anchor="middle" x="727" y="-250" font-family="FreeSans" font-size="10.00">rollingaverage.h</text>
</a>
</g>
<!-- Node10&#45;&gt;Node24 -->
<g id="edge68" class="edge"><title>Node10&#45;&gt;Node24</title>
<path fill="none" stroke="midnightblue" d="M497.711,-362.418C524.834,-353.584 565.207,-339.522 599,-324 635.318,-307.318 675.15,-284.071 700.577,-268.553"/>
<polygon fill="midnightblue" stroke="midnightblue" points="702.576,-271.432 709.259,-263.212 698.908,-265.47 702.576,-271.432"/>
</g>
<!-- Node25 -->
<g id="node62" class="node"><title>Node25</title>
<a xlink:href="threadingenumerations_8h.html" target="_top" xlink:title="Any enumerations the threading library requires are all declared here.">
<polygon fill="white" stroke="black" points="403.5,-301 403.5,-323 530.5,-323 530.5,-301 403.5,-301"/>
<text text-anchor="middle" x="467" y="-310" font-family="FreeSans" font-size="10.00">threadingenumerations.h</text>
</a>
</g>
<!-- Node10&#45;&gt;Node25 -->
<g id="edge74" class="edge"><title>Node10&#45;&gt;Node25</title>
<path fill="none" stroke="midnightblue" d="M467,-360.995C467,-353.311 467,-342.803 467,-333.488"/>
<polygon fill="midnightblue" stroke="midnightblue" points="470.5,-333.343 467,-323.343 463.5,-333.343 470.5,-333.343"/>
</g>
<!-- Node11&#45;&gt;Node2 -->
<g id="edge24" class="edge"><title>Node11&#45;&gt;Node2</title>
<path fill="none" stroke="midnightblue" d="M337.375,-300.74C338.356,-271.319 341.008,-191.769 342.289,-153.345"/>
<polygon fill="midnightblue" stroke="midnightblue" points="345.79,-153.367 342.625,-143.256 338.794,-153.133 345.79,-153.367"/>
</g>
<!-- Node12 -->
<g id="node25" class="node"><title>Node12</title>
<a xlink:href="doublebufferedresource_8h.html" target="_top" xlink:title="This file defines the template double buffered resources that can be attached to a thread...">
<polygon fill="white" stroke="black" points="402.5,-241 402.5,-263 533.5,-263 533.5,-241 402.5,-241"/>
<text text-anchor="middle" x="468" y="-250" font-family="FreeSans" font-size="10.00">doublebufferedresource.h</text>
</a>
</g>
<!-- Node11&#45;&gt;Node12 -->
<g id="edge26" class="edge"><title>Node11&#45;&gt;Node12</title>
<path fill="none" stroke="midnightblue" d="M361.027,-300.995C381.58,-291.582 411.388,-277.929 434.321,-267.426"/>
<polygon fill="midnightblue" stroke="midnightblue" points="436.047,-270.485 443.681,-263.138 433.132,-264.12 436.047,-270.485"/>
</g>
<!-- Node11&#45;&gt;Node16 -->
<g id="edge36" class="edge"><title>Node11&#45;&gt;Node16</title>
<path fill="none" stroke="midnightblue" d="M289.717,-301.124C253.56,-292.552 202.297,-279.852 149.545,-264.329"/>
<polygon fill="midnightblue" stroke="midnightblue" points="150.263,-260.892 139.681,-261.398 148.27,-267.602 150.263,-260.892"/>
</g>
<!-- Node17 -->
<g id="node37" class="node"><title>Node17</title>
<a xlink:href="systemcalls_8h.html" target="_top" xlink:title="This file defines a minimalistic cross&#45;platform thread that the scheduler uses to schedule tasks...">
<polygon fill="white" stroke="black" points="238.5,-181 238.5,-203 315.5,-203 315.5,-181 238.5,-181"/>
<text text-anchor="middle" x="277" y="-190" font-family="FreeSans" font-size="10.00">systemcalls.h</text>
</a>
</g>
<!-- Node11&#45;&gt;Node17 -->
<g id="edge58" class="edge"><title>Node11&#45;&gt;Node17</title>
<path fill="none" stroke="midnightblue" d="M335.65,-300.956C333.521,-286.328 328.497,-260.041 318,-240 312.374,-229.258 303.953,-218.836 296.203,-210.463"/>
<polygon fill="midnightblue" stroke="midnightblue" points="298.563,-207.869 289.092,-203.12 293.535,-212.738 298.563,-207.869"/>
</g>
<!-- Node11&#45;&gt;Node20 -->
<g id="edge54" class="edge"><title>Node11&#45;&gt;Node20</title>
<path fill="none" stroke="midnightblue" d="M384.239,-302.226C437.615,-291.183 524.074,-273.295 578.118,-262.114"/>
<polygon fill="midnightblue" stroke="midnightblue" points="579.062,-265.492 588.146,-260.039 577.644,-258.638 579.062,-265.492"/>
</g>
<!-- Node21 -->
<g id="node51" class="node"><title>Node21</title>
<polygon fill="white" stroke="#bfbfbf" points="157,-241 157,-263 193,-263 193,-241 157,-241"/>
<text text-anchor="middle" x="175" y="-250" font-family="FreeSans" font-size="10.00">map</text>
</g>
<!-- Node11&#45;&gt;Node21 -->
<g id="edge60" class="edge"><title>Node11&#45;&gt;Node21</title>
<path fill="none" stroke="midnightblue" d="M303.725,-300.963C278.277,-292.347 242.164,-279.745 202.757,-264.136"/>
<polygon fill="midnightblue" stroke="midnightblue" points="203.804,-260.785 193.219,-260.324 201.206,-267.285 203.804,-260.785"/>
</g>
<!-- Node22 -->
<g id="node53" class="node"><title>Node22</title>
<polygon fill="white" stroke="#bfbfbf" points="211,-241 211,-263 241,-263 241,-241 211,-241"/>
<text text-anchor="middle" x="226" y="-250" font-family="FreeSans" font-size="10.00">set</text>
</g>
<!-- Node11&#45;&gt;Node22 -->
<g id="edge62" class="edge"><title>Node11&#45;&gt;Node22</title>
<path fill="none" stroke="midnightblue" d="M316.641,-300.995C297.923,-290.877 270.147,-275.863 250.28,-265.125"/>
<polygon fill="midnightblue" stroke="midnightblue" points="251.699,-261.913 241.238,-260.237 248.37,-268.071 251.699,-261.913"/>
</g>
<!-- Node23 -->
<g id="node55" class="node"><title>Node23</title>
<polygon fill="white" stroke="#bfbfbf" points="259,-241 259,-263 309,-263 309,-241 259,-241"/>
<text text-anchor="middle" x="284" y="-250" font-family="FreeSans" font-size="10.00">fstream</text>
</g>
<!-- Node11&#45;&gt;Node23 -->
<g id="edge64" class="edge"><title>Node11&#45;&gt;Node23</title>
<path fill="none" stroke="midnightblue" d="M327.279,-300.995C319.901,-292.643 309.576,-280.954 300.861,-271.088"/>
<polygon fill="midnightblue" stroke="midnightblue" points="303.263,-268.52 294.02,-263.343 298.017,-273.155 303.263,-268.52"/>
</g>
<!-- Node12&#45;&gt;Node2 -->
<g id="edge28" class="edge"><title>Node12&#45;&gt;Node2</title>
<path fill="none" stroke="midnightblue" d="M481.991,-240.948C498.814,-226.311 523.021,-200.014 508,-180 493.452,-160.616 430.908,-146.503 387.151,-138.777"/>
<polygon fill="midnightblue" stroke="midnightblue" points="387.471,-135.281 377.024,-137.043 386.289,-142.181 387.471,-135.281"/>
</g>
<!-- Node13 -->
<g id="node28" class="node"><title>Node13</title>
<polygon fill="white" stroke="#bfbfbf" points="441,-181 441,-203 499,-203 499,-181 441,-181"/>
<text text-anchor="middle" x="470" y="-190" font-family="FreeSans" font-size="10.00">algorithm</text>
</g>
<!-- Node12&#45;&gt;Node13 -->
<g id="edge30" class="edge"><title>Node12&#45;&gt;Node13</title>
<path fill="none" stroke="midnightblue" d="M468.367,-240.995C468.623,-233.311 468.973,-222.803 469.284,-213.488"/>
<polygon fill="midnightblue" stroke="midnightblue" points="472.787,-213.454 469.622,-203.343 465.791,-213.221 472.787,-213.454"/>
</g>
<!-- Node14 -->
<g id="node30" class="node"><title>Node14</title>
<polygon fill="white" stroke="#bfbfbf" points="370.5,-181 370.5,-203 423.5,-203 423.5,-181 370.5,-181"/>
<text text-anchor="middle" x="397" y="-190" font-family="FreeSans" font-size="10.00">sstream</text>
</g>
<!-- Node12&#45;&gt;Node14 -->
<g id="edge32" class="edge"><title>Node12&#45;&gt;Node14</title>
<path fill="none" stroke="midnightblue" d="M454.978,-240.995C444.699,-232.309 430.15,-220.014 418.198,-209.913"/>
<polygon fill="midnightblue" stroke="midnightblue" points="420.319,-207.124 410.422,-203.343 415.801,-212.471 420.319,-207.124"/>
</g>
<!-- Node12&#45;&gt;Node15 -->
<g id="edge34" class="edge"><title>Node12&#45;&gt;Node15</title>
<path fill="none" stroke="midnightblue" d="M487.992,-240.995C504.788,-231.75 529.012,-218.416 547.949,-207.991"/>
<polygon fill="midnightblue" stroke="midnightblue" points="549.693,-211.027 556.765,-203.138 546.317,-204.895 549.693,-211.027"/>
</g>
<!-- Node16&#45;&gt;Node3 -->
<g id="edge38" class="edge"><title>Node16&#45;&gt;Node3</title>
<path fill="none" stroke="midnightblue" d="M109.077,-240.728C101.622,-217.522 87.3208,-162.977 101,-120 104.356,-109.455 110.963,-99.2376 117.467,-90.959"/>
<polygon fill="midnightblue" stroke="midnightblue" points="120.315,-93.0098 124.067,-83.1015 114.955,-88.5074 120.315,-93.0098"/>
</g>
<!-- Node16&#45;&gt;Node15 -->
<g id="edge52" class="edge"><title>Node16&#45;&gt;Node15</title>
<path fill="none" stroke="midnightblue" d="M139.573,-242.182C142.393,-241.353 145.239,-240.603 148,-240 305.096,-205.697 348.685,-225.79 508,-204 519.99,-202.36 533.087,-200.181 544.618,-198.131"/>
<polygon fill="midnightblue" stroke="midnightblue" points="545.476,-201.532 554.69,-196.303 544.226,-194.645 545.476,-201.532"/>
</g>
<!-- Node16&#45;&gt;Node17 -->
<g id="edge40" class="edge"><title>Node16&#45;&gt;Node17</title>
<path fill="none" stroke="midnightblue" d="M139.714,-242.226C166.168,-232.548 206.991,-217.613 237.252,-206.542"/>
<polygon fill="midnightblue" stroke="midnightblue" points="238.485,-209.818 246.674,-203.095 236.08,-203.244 238.485,-209.818"/>
</g>
<!-- Node16&#45;&gt;Node18 -->
<g id="edge44" class="edge"><title>Node16&#45;&gt;Node18</title>
<path fill="none" stroke="midnightblue" d="M115.03,-240.926C118.681,-221.012 126.411,-178.851 131.11,-153.216"/>
<polygon fill="midnightblue" stroke="midnightblue" points="134.614,-153.515 132.975,-143.047 127.729,-152.252 134.614,-153.515"/>
</g>
<!-- Node19 -->
<g id="node44" class="node"><title>Node19</title>
<polygon fill="white" stroke="#bfbfbf" points="162.5,-181 162.5,-203 215.5,-203 215.5,-181 162.5,-181"/>
<text text-anchor="middle" x="189" y="-190" font-family="FreeSans" font-size="10.00">ostream</text>
</g>
<!-- Node16&#45;&gt;Node19 -->
<g id="edge50" class="edge"><title>Node16&#45;&gt;Node19</title>
<path fill="none" stroke="midnightblue" d="M126.94,-240.995C138.118,-232.17 154.016,-219.619 166.922,-209.43"/>
<polygon fill="midnightblue" stroke="midnightblue" points="169.211,-212.082 174.891,-203.138 164.874,-206.588 169.211,-212.082"/>
</g>
<!-- Node17&#45;&gt;Node2 -->
<g id="edge42" class="edge"><title>Node17&#45;&gt;Node2</title>
<path fill="none" stroke="midnightblue" d="M289.105,-180.995C298.568,-172.392 311.925,-160.25 322.974,-150.205"/>
<polygon fill="midnightblue" stroke="midnightblue" points="325.478,-152.659 330.523,-143.343 320.769,-147.48 325.478,-152.659"/>
</g>
<!-- Node18&#45;&gt;Node3 -->
<g id="edge46" class="edge"><title>Node18&#45;&gt;Node3</title>
<path fill="none" stroke="midnightblue" d="M135,-120.995C135,-113.311 135,-102.803 135,-93.4884"/>
<polygon fill="midnightblue" stroke="midnightblue" points="138.5,-93.3428 135,-83.3428 131.5,-93.3429 138.5,-93.3428"/>
</g>
<!-- Node18&#45;&gt;Node8 -->
<g id="edge48" class="edge"><title>Node18&#45;&gt;Node8</title>
<path fill="none" stroke="midnightblue" d="M157.744,-120.995C177.842,-111.27 207.29,-97.0208 229.254,-86.3931"/>
<polygon fill="midnightblue" stroke="midnightblue" points="230.982,-89.4456 238.459,-81.9393 227.933,-83.1444 230.982,-89.4456"/>
</g>
<!-- Node20&#45;&gt;Node2 -->
<g id="edge56" class="edge"><title>Node20&#45;&gt;Node2</title>
<path fill="none" stroke="midnightblue" d="M627.489,-240.907C627.541,-224.973 625.09,-195.793 608,-180 576.546,-150.933 454.4,-138.886 387.472,-134.386"/>
<polygon fill="midnightblue" stroke="midnightblue" points="387.431,-130.876 377.227,-133.727 386.982,-137.861 387.431,-130.876"/>
</g>
<!-- Node24&#45;&gt;Node2 -->
<g id="edge72" class="edge"><title>Node24&#45;&gt;Node2</title>
<path fill="none" stroke="midnightblue" d="M715.757,-240.913C698.613,-224.711 664.197,-194.879 629,-180 586.159,-161.889 456.179,-144.917 387.159,-136.875"/>
<polygon fill="midnightblue" stroke="midnightblue" points="387.366,-133.375 377.031,-135.708 386.565,-140.329 387.366,-133.375"/>
</g>
<!-- Node24&#45;&gt;Node15 -->
<g id="edge70" class="edge"><title>Node24&#45;&gt;Node15</title>
<path fill="none" stroke="midnightblue" d="M699.488,-240.995C673.877,-230.751 635.715,-215.486 608.807,-204.723"/>
<polygon fill="midnightblue" stroke="midnightblue" points="610.031,-201.443 599.446,-200.979 607.431,-207.942 610.031,-201.443"/>
</g>
</g>
</svg>
        <g id="navigator" transform="translate(0 0)" fill="#404254">
                <rect fill="#f2f5e9" fill-opacity="0.5" stroke="#606060" stroke-width=".5" x="0" y="0" width="60" height="60"/>
                <use id="zoomplus" xlink:href="#zoomPlus" x="17" y="9" onmousedown="handleZoom(evt,'in')"/>
                <use id="zoomminus" xlink:href="#zoomMin" x="42" y="9" onmousedown="handleZoom(evt,'out')"/>
                <use id="reset" xlink:href="#resetDef" x="30" y="36" onmousedown="handleReset()"/>
                <g id="arrowUp" xlink:href="#dirArrow" transform="translate(30 24)" onmousedown="handlePan(0,-1)">
                  <use xlink:href="#rim" fill="#404040">
                        <set attributeName="fill" to="#808080" begin="arrowUp.mouseover" end="arrowUp.mouseout"/>
                  </use>
                  <path fill="none" stroke="white" stroke-width="1.5" d="M0,-3.0v7 M-2.5,-0.5L0,-3.0L2.5,-0.5"/>
                </g>
                <g id="arrowRight" xlink:href="#dirArrow" transform="rotate(90) translate(36 -43)" onmousedown="handlePan(1,0)">
                  <use xlink:href="#rim" fill="#404040">
                        <set attributeName="fill" to="#808080" begin="arrowRight.mouseover" end="arrowRight.mouseout"/>
                  </use>
                  <path fill="none" stroke="white" stroke-width="1.5" d="M0,-3.0v7 M-2.5,-0.5L0,-3.0L2.5,-0.5"/>
                </g>
                <g id="arrowDown" xlink:href="#dirArrow" transform="rotate(180) translate(-30 -48)" onmousedown="handlePan(0,1)">
                  <use xlink:href="#rim" fill="#404040">
                        <set attributeName="fill" to="#808080" begin="arrowDown.mouseover" end="arrowDown.mouseout"/>
                  </use>
                  <path fill="none" stroke="white" stroke-width="1.5" d="M0,-3.0v7 M-2.5,-0.5L0,-3.0L2.5,-0.5"/>
                </g>
                <g id="arrowLeft" xlink:href="#dirArrow" transform="rotate(270) translate(-36 17)" onmousedown="handlePan(-1,0)">
                  <use xlink:href="#rim" fill="#404040">
                        <set attributeName="fill" to="#808080" begin="arrowLeft.mouseover" end="arrowLeft.mouseout"/>
                  </use>
                  <path fill="none" stroke="white" stroke-width="1.5" d="M0,-3.0v7 M-2.5,-0.5L0,-3.0L2.5,-0.5"/>
                </g>
        </g>
</svg>
