<?xml version="1.0" encoding="UTF-8" standalone="no"?>
<!DOCTYPE svg PUBLIC "-//W3C//DTD SVG 1.1//EN"
 "http://www.w3.org/Graphics/SVG/1.1/DTD/svg11.dtd">
<!-- Generated by graphviz version 2.26.3 (20100126.1600)
 -->
<!-- Title: frameschedulerworkunits.cpp Pages: 1 -->
<svg width="929pt" height="494pt"
 viewBox="0.00 0.00 928.85 494.00" xmlns="http://www.w3.org/2000/svg" xmlns:xlink="http://www.w3.org/1999/xlink">
<g id="graph1" class="graph" transform="scale(1 1) rotate(0) translate(4 490)">
<title>frameschedulerworkunits.cpp</title>
<polygon fill="white" stroke="white" points="-4,5 -4,-490 925.851,-490 925.851,5 -4,5"/>
<!-- Node1 -->
<g id="node1" class="node"><title>Node1</title>
<polygon fill="#bfbfbf" stroke="black" points="240.351,-465 240.351,-485 381.351,-485 381.351,-465 240.351,-465"/>
<text text-anchor="middle" x="310.851" y="-472" font-family="FreeSans" font-size="10.00">frameschedulerworkunits.cpp</text>
</g>
<!-- Node2 -->
<g id="node3" class="node"><title>Node2</title>
<a xlink:href="frameschedulerworkunits_8h.html" target="_top" xlink:title="This defines a number of workunits that are required for doing some tasks that the Framescheduler req...">
<polygon fill="white" stroke="black" points="455.351,-407 455.351,-427 586.351,-427 586.351,-407 455.351,-407"/>
<text text-anchor="middle" x="520.851" y="-414" font-family="FreeSans" font-size="10.00">frameschedulerworkunits.h</text>
</a>
</g>
<!-- Node1&#45;&gt;Node2 -->
<g id="edge2" class="edge"><title>Node1&#45;&gt;Node2</title>
<path fill="none" stroke="midnightblue" d="M347.43,-464.897C382.705,-455.155 436.227,-440.372 474.475,-429.809"/>
<polygon fill="midnightblue" stroke="midnightblue" points="475.632,-433.12 484.339,-427.084 473.769,-426.373 475.632,-433.12"/>
</g>
<!-- Node13 -->
<g id="node27" class="node"><title>Node13</title>
<a xlink:href="doublebufferedresource_8h.html" target="_top" xlink:title="This file defines the template double buffered resources that can be attached to a thread...">
<polygon fill="white" stroke="black" points="33.3512,-233 33.3512,-253 156.351,-253 156.351,-233 33.3512,-233"/>
<text text-anchor="middle" x="94.8512" y="-240" font-family="FreeSans" font-size="10.00">doublebufferedresource.h</text>
</a>
</g>
<!-- Node1&#45;&gt;Node13 -->
<g id="edge108" class="edge"><title>Node1&#45;&gt;Node13</title>
<path fill="none" stroke="midnightblue" d="M279.725,-464.929C239.624,-450.364 170.491,-419.593 131.851,-370 107.027,-338.139 98.8483,-290.114 96.1605,-263.172"/>
<polygon fill="midnightblue" stroke="midnightblue" points="99.6333,-262.699 95.3123,-253.025 92.6576,-263.282 99.6333,-262.699"/>
</g>
<!-- Node3 -->
<g id="node5" class="node"><title>Node3</title>
<a xlink:href="datatypes_8h.html" target="_top" xlink:title="This file declares a few typedefs to allow flexibility, in case a change is required/desired.">
<polygon fill="white" stroke="black" points="514.351,-117 514.351,-137 579.351,-137 579.351,-117 514.351,-117"/>
<text text-anchor="middle" x="546.851" y="-124" font-family="FreeSans" font-size="10.00">datatypes.h</text>
</a>
</g>
<!-- Node2&#45;&gt;Node3 -->
<g id="edge4" class="edge"><title>Node2&#45;&gt;Node3</title>
<path fill="none" stroke="midnightblue" d="M586.568,-411.087C697.715,-399.252 910.851,-367.843 910.851,-301 910.851,-301 910.851,-301 910.851,-243 910.851,-203.223 888.447,-193.631 853.851,-174 809.545,-148.859 663.388,-135.226 589.873,-129.809"/>
<polygon fill="midnightblue" stroke="midnightblue" points="589.8,-126.295 579.575,-129.069 589.298,-133.277 589.8,-126.295"/>
</g>
<!-- Node11 -->
<g id="node21" class="node"><title>Node11</title>
<a xlink:href="workunit_8h.html" target="_top" xlink:title="This file has the definition of the workunit.">
<polygon fill="white" stroke="black" points="490.851,-349 490.851,-369 550.851,-369 550.851,-349 490.851,-349"/>
<text text-anchor="middle" x="520.851" y="-356" font-family="FreeSans" font-size="10.00">workunit.h</text>
</a>
</g>
<!-- Node2&#45;&gt;Node11 -->
<g id="edge20" class="edge"><title>Node2&#45;&gt;Node11</title>
<path fill="none" stroke="midnightblue" d="M520.851,-406.897C520.851,-399.339 520.851,-388.748 520.851,-379.446"/>
<polygon fill="midnightblue" stroke="midnightblue" points="524.351,-379.378 520.851,-369.378 517.351,-379.378 524.351,-379.378"/>
</g>
<!-- Node16 -->
<g id="node34" class="node"><title>Node16</title>
<polygon fill="white" stroke="#bfbfbf" points="213.351,-175 213.351,-195 256.351,-195 256.351,-175 213.351,-175"/>
<text text-anchor="middle" x="234.851" y="-182" font-family="FreeSans" font-size="10.00">vector</text>
</g>
<!-- Node2&#45;&gt;Node16 -->
<g id="edge106" class="edge"><title>Node2&#45;&gt;Node16</title>
<path fill="none" stroke="midnightblue" d="M492.739,-406.941C448.633,-390.514 361.347,-355.371 294.851,-312 262.143,-290.666 244.949,-289.578 228.851,-254 221.899,-238.635 224.365,-219.396 228.017,-205.139"/>
<polygon fill="midnightblue" stroke="midnightblue" points="231.431,-205.936 230.904,-195.355 224.717,-203.955 231.431,-205.936"/>
</g>
<!-- Node22 -->
<g id="node55" class="node"><title>Node22</title>
<a xlink:href="workunitkey_8h.html" target="_top" xlink:title="This file defines the metadata used to sort workunits.">
<polygon fill="white" stroke="black" points="725.351,-233 725.351,-253 800.351,-253 800.351,-233 725.351,-233"/>
<text text-anchor="middle" x="762.851" y="-240" font-family="FreeSans" font-size="10.00">workunitkey.h</text>
</a>
</g>
<!-- Node2&#45;&gt;Node22 -->
<g id="edge104" class="edge"><title>Node2&#45;&gt;Node22</title>
<path fill="none" stroke="midnightblue" d="M581.808,-406.984C636.388,-394.598 713.935,-367.857 754.851,-312 765.073,-298.046 766.352,-278.067 765.5,-263.195"/>
<polygon fill="midnightblue" stroke="midnightblue" points="768.963,-262.633 764.546,-253.003 761.993,-263.286 768.963,-262.633"/>
</g>
<!-- Node4 -->
<g id="node7" class="node"><title>Node4</title>
<a xlink:href="crossplatformexport_8h.html" target="_top" xlink:title="This file determines what features are offered by the compiler that this library can take advantage o...">
<polygon fill="white" stroke="black" points="683.851,-59 683.851,-79 791.851,-79 791.851,-59 683.851,-59"/>
<text text-anchor="middle" x="737.851" y="-66" font-family="FreeSans" font-size="10.00">crossplatformexport.h</text>
</a>
</g>
<!-- Node3&#45;&gt;Node4 -->
<g id="edge6" class="edge"><title>Node3&#45;&gt;Node4</title>
<path fill="none" stroke="midnightblue" d="M579.685,-117.029C611.526,-107.36 660.008,-92.6382 694.9,-82.0428"/>
<polygon fill="midnightblue" stroke="midnightblue" points="696.255,-85.2892 704.806,-79.0345 694.221,-78.5913 696.255,-85.2892"/>
</g>
<!-- Node9 -->
<g id="node17" class="node"><title>Node9</title>
<polygon fill="white" stroke="#bfbfbf" points="587.851,-59 587.851,-79 627.851,-79 627.851,-59 587.851,-59"/>
<text text-anchor="middle" x="607.851" y="-66" font-family="FreeSans" font-size="10.00">string</text>
</g>
<!-- Node3&#45;&gt;Node9 -->
<g id="edge16" class="edge"><title>Node3&#45;&gt;Node9</title>
<path fill="none" stroke="midnightblue" d="M557.477,-116.897C566.29,-108.517 579.024,-96.4093 589.484,-86.4638"/>
<polygon fill="midnightblue" stroke="midnightblue" points="592.101,-88.8047 596.937,-79.3776 587.278,-83.7318 592.101,-88.8047"/>
</g>
<!-- Node10 -->
<g id="node19" class="node"><title>Node10</title>
<polygon fill="white" stroke="#bfbfbf" points="523.351,-59 523.351,-79 570.351,-79 570.351,-59 523.351,-59"/>
<text text-anchor="middle" x="546.851" y="-66" font-family="FreeSans" font-size="10.00">stdint.h</text>
</g>
<!-- Node3&#45;&gt;Node10 -->
<g id="edge18" class="edge"><title>Node3&#45;&gt;Node10</title>
<path fill="none" stroke="midnightblue" d="M546.851,-116.897C546.851,-109.339 546.851,-98.7476 546.851,-89.4458"/>
<polygon fill="midnightblue" stroke="midnightblue" points="550.351,-89.3776 546.851,-79.3776 543.351,-89.3776 550.351,-89.3776"/>
</g>
<!-- Node5 -->
<g id="node9" class="node"><title>Node5</title>
<polygon fill="white" stroke="#bfbfbf" points="864.851,-1 864.851,-21 920.851,-21 920.851,-1 864.851,-1"/>
<text text-anchor="middle" x="892.851" y="-8" font-family="FreeSans" font-size="10.00">pthread.h</text>
</g>
<!-- Node4&#45;&gt;Node5 -->
<g id="edge8" class="edge"><title>Node4&#45;&gt;Node5</title>
<path fill="none" stroke="midnightblue" d="M764.85,-58.8972C790.221,-49.4035 828.382,-35.124 856.437,-24.6258"/>
<polygon fill="midnightblue" stroke="midnightblue" points="857.763,-27.8669 865.902,-21.0842 855.31,-21.3108 857.763,-27.8669"/>
</g>
<!-- Node6 -->
<g id="node11" class="node"><title>Node6</title>
<polygon fill="white" stroke="#bfbfbf" points="638.351,-1 638.351,-21 687.351,-21 687.351,-1 638.351,-1"/>
<text text-anchor="middle" x="662.851" y="-8" font-family="FreeSans" font-size="10.00">signal.h</text>
</g>
<!-- Node4&#45;&gt;Node6 -->
<g id="edge10" class="edge"><title>Node4&#45;&gt;Node6</title>
<path fill="none" stroke="midnightblue" d="M724.787,-58.8972C713.564,-50.2178 697.168,-37.5384 684.065,-27.4053"/>
<polygon fill="midnightblue" stroke="midnightblue" points="686.069,-24.5305 676.017,-21.1817 681.787,-30.0679 686.069,-24.5305"/>
</g>
<!-- Node7 -->
<g id="node13" class="node"><title>Node7</title>
<polygon fill="white" stroke="#bfbfbf" points="714.851,-1 714.851,-21 764.851,-21 764.851,-1 714.851,-1"/>
<text text-anchor="middle" x="739.851" y="-8" font-family="FreeSans" font-size="10.00">sched.h</text>
</g>
<!-- Node4&#45;&gt;Node7 -->
<g id="edge12" class="edge"><title>Node4&#45;&gt;Node7</title>
<path fill="none" stroke="midnightblue" d="M738.2,-58.8972C738.46,-51.339 738.825,-40.7476 739.146,-31.4458"/>
<polygon fill="midnightblue" stroke="midnightblue" points="742.647,-31.4923 739.493,-21.3776 735.651,-31.251 742.647,-31.4923"/>
</g>
<!-- Node8 -->
<g id="node15" class="node"><title>Node8</title>
<polygon fill="white" stroke="#bfbfbf" points="787.851,-1 787.851,-21 837.851,-21 837.851,-1 787.851,-1"/>
<text text-anchor="middle" x="812.851" y="-8" font-family="FreeSans" font-size="10.00">unistd.h</text>
</g>
<!-- Node4&#45;&gt;Node8 -->
<g id="edge14" class="edge"><title>Node4&#45;&gt;Node8</title>
<path fill="none" stroke="midnightblue" d="M750.915,-58.8972C762.139,-50.2178 778.534,-37.5384 791.637,-27.4053"/>
<polygon fill="midnightblue" stroke="midnightblue" points="793.916,-30.0679 799.685,-21.1817 789.634,-24.5305 793.916,-30.0679"/>
</g>
<!-- Node11&#45;&gt;Node3 -->
<g id="edge22" class="edge"><title>Node11&#45;&gt;Node3</title>
<path fill="none" stroke="midnightblue" d="M490.506,-358.079C363.425,-353.254 -113.11,-324.941 24.8512,-174 56.9551,-138.876 385.137,-129.772 504.089,-127.617"/>
<polygon fill="midnightblue" stroke="midnightblue" points="504.336,-131.113 514.274,-127.44 504.215,-124.114 504.336,-131.113"/>
</g>
<!-- Node12 -->
<g id="node24" class="node"><title>Node12</title>
<a xlink:href="framescheduler_8h.html" target="_top" xlink:title="This file has the Declarations for the main FrameScheduler class.">
<polygon fill="white" stroke="black" points="439.851,-291 439.851,-311 529.851,-311 529.851,-291 439.851,-291"/>
<text text-anchor="middle" x="484.851" y="-298" font-family="FreeSans" font-size="10.00">framescheduler.h</text>
</a>
</g>
<!-- Node11&#45;&gt;Node12 -->
<g id="edge24" class="edge"><title>Node11&#45;&gt;Node12</title>
<path fill="none" stroke="midnightblue" d="M514.58,-348.897C509.634,-340.928 502.595,-329.587 496.608,-319.941"/>
<polygon fill="midnightblue" stroke="midnightblue" points="499.54,-318.028 491.292,-311.378 493.592,-321.72 499.54,-318.028"/>
</g>
<!-- Node11&#45;&gt;Node16 -->
<g id="edge102" class="edge"><title>Node11&#45;&gt;Node16</title>
<path fill="none" stroke="midnightblue" d="M490.436,-352.013C424.431,-336.188 271.513,-295.734 240.851,-254 230.639,-240.101 229.987,-220.115 231.388,-205.227"/>
<polygon fill="midnightblue" stroke="midnightblue" points="234.897,-205.393 232.735,-195.021 227.957,-204.477 234.897,-205.393"/>
</g>
<!-- Node17 -->
<g id="node36" class="node"><title>Node17</title>
<a xlink:href="thread_8h.html" target="_top" xlink:title="This file defines a minimalistic cross&#45;platform thread that the scheduler uses to schedule tasks...">
<polygon fill="white" stroke="black" points="657.351,-233 657.351,-253 708.351,-253 708.351,-233 657.351,-233"/>
<text text-anchor="middle" x="682.851" y="-240" font-family="FreeSans" font-size="10.00">thread.h</text>
</a>
</g>
<!-- Node11&#45;&gt;Node17 -->
<g id="edge98" class="edge"><title>Node11&#45;&gt;Node17</title>
<path fill="none" stroke="midnightblue" d="M527.689,-348.919C537.999,-334.334 558.787,-307.215 581.851,-290 601.83,-275.087 627.298,-263.276 647.66,-255.224"/>
<polygon fill="midnightblue" stroke="midnightblue" points="649.11,-258.417 657.2,-251.576 646.61,-251.878 649.11,-258.417"/>
</g>
<!-- Node20 -->
<g id="node48" class="node"><title>Node20</title>
<a xlink:href="mutex_8h.html" target="_top" xlink:title="This file declares and defines a mutex that is a partial implementation.">
<polygon fill="white" stroke="black" points="794.851,-175 794.851,-195 844.851,-195 844.851,-175 794.851,-175"/>
<text text-anchor="middle" x="819.851" y="-182" font-family="FreeSans" font-size="10.00">mutex.h</text>
</a>
</g>
<!-- Node11&#45;&gt;Node20 -->
<g id="edge86" class="edge"><title>Node11&#45;&gt;Node20</title>
<path fill="none" stroke="midnightblue" d="M551.171,-357.688C597.295,-354.665 686.899,-344.708 754.851,-312 790.949,-294.625 806.936,-290.316 823.851,-254 830.957,-238.745 829.076,-219.495 825.923,-205.206"/>
<polygon fill="midnightblue" stroke="midnightblue" points="829.279,-204.203 823.391,-195.395 822.501,-205.952 829.279,-204.203"/>
</g>
<!-- Node11&#45;&gt;Node22 -->
<g id="edge100" class="edge"><title>Node11&#45;&gt;Node22</title>
<path fill="none" stroke="midnightblue" d="M534.287,-348.761C558.15,-330.634 606.234,-294.381 614.851,-290 632.809,-280.87 680.239,-266.382 716.61,-255.904"/>
<polygon fill="midnightblue" stroke="midnightblue" points="717.89,-259.178 726.542,-253.062 715.965,-252.448 717.89,-259.178"/>
</g>
<!-- Node28 -->
<g id="node72" class="node"><title>Node28</title>
<a xlink:href="rollingaverage_8h.html" target="_top" xlink:title="This stores the implementation and the declaration of the RollingAverage, BufferedRollingAverage, WeightedRollingAverage and the DefaultRollingAverage.">
<polygon fill="white" stroke="black" points="249.351,-233 249.351,-253 332.351,-253 332.351,-233 249.351,-233"/>
<text text-anchor="middle" x="290.851" y="-240" font-family="FreeSans" font-size="10.00">rollingaverage.h</text>
</a>
</g>
<!-- Node11&#45;&gt;Node28 -->
<g id="edge88" class="edge"><title>Node11&#45;&gt;Node28</title>
<path fill="none" stroke="midnightblue" d="M500.843,-348.909C460.148,-328.384 367.583,-281.699 320.114,-257.759"/>
<polygon fill="midnightblue" stroke="midnightblue" points="321.482,-254.529 310.977,-253.151 318.33,-260.779 321.482,-254.529"/>
</g>
<!-- Node29 -->
<g id="node76" class="node"><title>Node29</title>
<a xlink:href="threadingenumerations_8h.html" target="_top" xlink:title="Any enumerations the threading library requires are all declared here.">
<polygon fill="white" stroke="black" points="623.851,-291 623.851,-311 745.851,-311 745.851,-291 623.851,-291"/>
<text text-anchor="middle" x="684.851" y="-298" font-family="FreeSans" font-size="10.00">threadingenumerations.h</text>
</a>
</g>
<!-- Node11&#45;&gt;Node29 -->
<g id="edge94" class="edge"><title>Node11&#45;&gt;Node29</title>
<path fill="none" stroke="midnightblue" d="M549.418,-348.897C576.379,-339.362 616.991,-324.999 646.711,-314.488"/>
<polygon fill="midnightblue" stroke="midnightblue" points="648.076,-317.718 656.337,-311.084 645.742,-311.119 648.076,-317.718"/>
</g>
<!-- Node12&#45;&gt;Node3 -->
<g id="edge26" class="edge"><title>Node12&#45;&gt;Node3</title>
<path fill="none" stroke="midnightblue" d="M458.91,-290.88C442.464,-283.165 422.06,-270.961 409.851,-254 388.763,-224.705 374.454,-203.07 395.851,-174 408.84,-156.354 464.327,-142.442 504.272,-134.467"/>
<polygon fill="midnightblue" stroke="midnightblue" points="505.16,-137.86 514.311,-132.521 503.828,-130.988 505.16,-137.86"/>
</g>
<!-- Node12&#45;&gt;Node13 -->
<g id="edge28" class="edge"><title>Node12&#45;&gt;Node13</title>
<path fill="none" stroke="midnightblue" d="M439.732,-294.29C372.721,-284.324 246.247,-265.515 166.489,-253.654"/>
<polygon fill="midnightblue" stroke="midnightblue" points="166.927,-250.18 156.52,-252.171 165.897,-257.104 166.927,-250.18"/>
</g>
<!-- Node12&#45;&gt;Node17 -->
<g id="edge38" class="edge"><title>Node12&#45;&gt;Node17</title>
<path fill="none" stroke="midnightblue" d="M521.108,-290.989C552.328,-282.284 598.815,-269.123 647.498,-254.356"/>
<polygon fill="midnightblue" stroke="midnightblue" points="648.715,-257.644 657.261,-251.382 646.675,-250.948 648.715,-257.644"/>
</g>
<!-- Node19 -->
<g id="node45" class="node"><title>Node19</title>
<a xlink:href="systemcalls_8h.html" target="_top" xlink:title="This file defines a minimalistic cross&#45;platform thread that the scheduler uses to schedule tasks...">
<polygon fill="white" stroke="black" points="404.851,-175 404.851,-195 478.851,-195 478.851,-175 404.851,-175"/>
<text text-anchor="middle" x="441.851" y="-182" font-family="FreeSans" font-size="10.00">systemcalls.h</text>
</a>
</g>
<!-- Node12&#45;&gt;Node19 -->
<g id="edge70" class="edge"><title>Node12&#45;&gt;Node19</title>
<path fill="none" stroke="midnightblue" d="M459.668,-290.925C444.267,-283.29 425.849,-271.158 416.851,-254 408.308,-237.709 417.352,-217.847 426.864,-203.624"/>
<polygon fill="midnightblue" stroke="midnightblue" points="429.95,-205.331 433.002,-195.185 424.289,-201.214 429.95,-205.331"/>
</g>
<!-- Node12&#45;&gt;Node22 -->
<g id="edge66" class="edge"><title>Node12&#45;&gt;Node22</title>
<path fill="none" stroke="midnightblue" d="M529.858,-292.364C574.569,-283.678 645.328,-269.641 715.348,-254.286"/>
<polygon fill="midnightblue" stroke="midnightblue" points="716.207,-257.681 725.22,-252.112 714.701,-250.845 716.207,-257.681"/>
</g>
<!-- Node23 -->
<g id="node59" class="node"><title>Node23</title>
<a xlink:href="barrier_8h.html" target="_top" xlink:title="The declaration of the Mezzanine::Threading::Barrier Barrier synchronization primitive.">
<polygon fill="white" stroke="black" points="537.351,-233 537.351,-253 588.351,-253 588.351,-233 537.351,-233"/>
<text text-anchor="middle" x="562.851" y="-240" font-family="FreeSans" font-size="10.00">barrier.h</text>
</a>
</g>
<!-- Node12&#45;&gt;Node23 -->
<g id="edge72" class="edge"><title>Node12&#45;&gt;Node23</title>
<path fill="none" stroke="midnightblue" d="M498.438,-290.897C510.11,-282.218 527.162,-269.538 540.789,-259.405"/>
<polygon fill="midnightblue" stroke="midnightblue" points="543.222,-261.957 549.159,-253.182 539.045,-256.34 543.222,-261.957"/>
</g>
<!-- Node25 -->
<g id="node65" class="node"><title>Node25</title>
<polygon fill="white" stroke="#bfbfbf" points="605.351,-233 605.351,-253 640.351,-253 640.351,-233 605.351,-233"/>
<text text-anchor="middle" x="622.851" y="-240" font-family="FreeSans" font-size="10.00">map</text>
</g>
<!-- Node12&#45;&gt;Node25 -->
<g id="edge80" class="edge"><title>Node12&#45;&gt;Node25</title>
<path fill="none" stroke="midnightblue" d="M508.892,-290.935C529.717,-282.212 560.884,-269.144 595.789,-254.441"/>
<polygon fill="midnightblue" stroke="midnightblue" points="597.376,-257.571 605.232,-250.462 594.658,-251.12 597.376,-257.571"/>
</g>
<!-- Node26 -->
<g id="node67" class="node"><title>Node26</title>
<polygon fill="white" stroke="#bfbfbf" points="425.351,-233 425.351,-253 454.351,-253 454.351,-233 425.351,-233"/>
<text text-anchor="middle" x="439.851" y="-240" font-family="FreeSans" font-size="10.00">set</text>
</g>
<!-- Node12&#45;&gt;Node26 -->
<g id="edge82" class="edge"><title>Node12&#45;&gt;Node26</title>
<path fill="none" stroke="midnightblue" d="M477.013,-290.897C470.703,-282.764 461.667,-271.118 454.086,-261.347"/>
<polygon fill="midnightblue" stroke="midnightblue" points="456.798,-259.133 447.903,-253.378 451.267,-263.424 456.798,-259.133"/>
</g>
<!-- Node27 -->
<g id="node69" class="node"><title>Node27</title>
<polygon fill="white" stroke="#bfbfbf" points="471.351,-233 471.351,-253 520.351,-253 520.351,-233 471.351,-233"/>
<text text-anchor="middle" x="495.851" y="-240" font-family="FreeSans" font-size="10.00">fstream</text>
</g>
<!-- Node12&#45;&gt;Node27 -->
<g id="edge84" class="edge"><title>Node12&#45;&gt;Node27</title>
<path fill="none" stroke="midnightblue" d="M486.767,-290.897C488.201,-283.339 490.209,-272.748 491.974,-263.446"/>
<polygon fill="midnightblue" stroke="midnightblue" points="495.458,-263.855 493.883,-253.378 488.581,-262.55 495.458,-263.855"/>
</g>
<!-- Node13&#45;&gt;Node3 -->
<g id="edge30" class="edge"><title>Node13&#45;&gt;Node3</title>
<path fill="none" stroke="midnightblue" d="M110.132,-232.911C137.891,-214.66 194.68,-177.694 204.851,-174 259.032,-154.32 424.892,-137.678 504.003,-130.621"/>
<polygon fill="midnightblue" stroke="midnightblue" points="504.462,-134.094 514.116,-129.729 503.847,-127.121 504.462,-134.094"/>
</g>
<!-- Node14 -->
<g id="node30" class="node"><title>Node14</title>
<polygon fill="white" stroke="#bfbfbf" points="101.851,-175 101.851,-195 157.851,-195 157.851,-175 101.851,-175"/>
<text text-anchor="middle" x="129.851" y="-182" font-family="FreeSans" font-size="10.00">algorithm</text>
</g>
<!-- Node13&#45;&gt;Node14 -->
<g id="edge32" class="edge"><title>Node13&#45;&gt;Node14</title>
<path fill="none" stroke="midnightblue" d="M100.948,-232.897C105.757,-224.928 112.6,-213.587 118.421,-203.941"/>
<polygon fill="midnightblue" stroke="midnightblue" points="121.419,-205.748 123.589,-195.378 115.425,-202.131 121.419,-205.748"/>
</g>
<!-- Node15 -->
<g id="node32" class="node"><title>Node15</title>
<polygon fill="white" stroke="#bfbfbf" points="33.8512,-175 33.8512,-195 83.8512,-195 83.8512,-175 33.8512,-175"/>
<text text-anchor="middle" x="58.8512" y="-182" font-family="FreeSans" font-size="10.00">sstream</text>
</g>
<!-- Node13&#45;&gt;Node15 -->
<g id="edge34" class="edge"><title>Node13&#45;&gt;Node15</title>
<path fill="none" stroke="midnightblue" d="M88.5805,-232.897C83.6342,-224.928 76.5951,-213.587 70.6078,-203.941"/>
<polygon fill="midnightblue" stroke="midnightblue" points="73.5399,-202.028 65.2924,-195.378 67.5924,-205.72 73.5399,-202.028"/>
</g>
<!-- Node13&#45;&gt;Node16 -->
<g id="edge36" class="edge"><title>Node13&#45;&gt;Node16</title>
<path fill="none" stroke="midnightblue" d="M119.237,-232.897C142.614,-223.213 178.011,-208.548 203.478,-197.997"/>
<polygon fill="midnightblue" stroke="midnightblue" points="205.144,-201.096 213.043,-194.035 202.465,-194.629 205.144,-201.096"/>
</g>
<!-- Node17&#45;&gt;Node16 -->
<g id="edge64" class="edge"><title>Node17&#45;&gt;Node16</title>
<path fill="none" stroke="midnightblue" d="M657.008,-234.05C654.275,-233.281 651.519,-232.577 648.851,-232 575.699,-216.181 350.308,-195.227 266.59,-187.775"/>
<polygon fill="midnightblue" stroke="midnightblue" points="266.692,-184.27 256.422,-186.874 266.074,-191.243 266.692,-184.27"/>
</g>
<!-- Node18 -->
<g id="node38" class="node"><title>Node18</title>
<a xlink:href="crossplatformincludes_8h.html" target="_top" xlink:title="This file determines what features are offered by the compiler that this library can take advantage o...">
<polygon fill="white" stroke="black" points="761.351,-117 761.351,-137 878.351,-137 878.351,-117 761.351,-117"/>
<text text-anchor="middle" x="819.851" y="-124" font-family="FreeSans" font-size="10.00">crossplatformincludes.h</text>
</a>
</g>
<!-- Node17&#45;&gt;Node18 -->
<g id="edge40" class="edge"><title>Node17&#45;&gt;Node18</title>
<path fill="none" stroke="midnightblue" d="M708.423,-234.557C711.26,-233.671 714.112,-232.802 716.851,-232 777.269,-214.304 815.405,-245.854 853.851,-196 866.099,-180.117 852.274,-159.122 838.753,-144.479"/>
<polygon fill="midnightblue" stroke="midnightblue" points="840.956,-141.729 831.44,-137.071 835.974,-146.646 840.956,-141.729"/>
</g>
<!-- Node17&#45;&gt;Node19 -->
<g id="edge52" class="edge"><title>Node17&#45;&gt;Node19</title>
<path fill="none" stroke="midnightblue" d="M657.308,-234.455C654.466,-233.588 651.604,-232.751 648.851,-232 581.155,-213.524 561.001,-212.577 489.016,-196.23"/>
<polygon fill="midnightblue" stroke="midnightblue" points="489.527,-192.757 478.997,-193.932 487.962,-199.579 489.527,-192.757"/>
</g>
<!-- Node17&#45;&gt;Node20 -->
<g id="edge56" class="edge"><title>Node17&#45;&gt;Node20</title>
<path fill="none" stroke="midnightblue" d="M706.715,-232.897C728.778,-223.556 761.784,-209.583 786.46,-199.136"/>
<polygon fill="midnightblue" stroke="midnightblue" points="787.957,-202.303 795.801,-195.182 785.228,-195.857 787.957,-202.303"/>
</g>
<!-- Node21 -->
<g id="node52" class="node"><title>Node21</title>
<polygon fill="white" stroke="#bfbfbf" points="650.351,-175 650.351,-195 701.351,-195 701.351,-175 650.351,-175"/>
<text text-anchor="middle" x="675.851" y="-182" font-family="FreeSans" font-size="10.00">ostream</text>
</g>
<!-- Node17&#45;&gt;Node21 -->
<g id="edge62" class="edge"><title>Node17&#45;&gt;Node21</title>
<path fill="none" stroke="midnightblue" d="M681.632,-232.897C680.72,-225.339 679.441,-214.748 678.319,-205.446"/>
<polygon fill="midnightblue" stroke="midnightblue" points="681.777,-204.886 677.104,-195.378 674.827,-205.725 681.777,-204.886"/>
</g>
<!-- Node18&#45;&gt;Node4 -->
<g id="edge42" class="edge"><title>Node18&#45;&gt;Node4</title>
<path fill="none" stroke="midnightblue" d="M805.568,-116.897C793.18,-108.135 775.029,-95.2965 760.636,-85.1164"/>
<polygon fill="midnightblue" stroke="midnightblue" points="762.431,-82.0989 752.246,-79.1817 758.389,-87.8138 762.431,-82.0989"/>
</g>
<!-- Node18&#45;&gt;Node5 -->
<g id="edge44" class="edge"><title>Node18&#45;&gt;Node5</title>
<path fill="none" stroke="midnightblue" d="M826.329,-116.706C838.644,-97.1373 865.588,-54.323 881.142,-29.6062"/>
<polygon fill="midnightblue" stroke="midnightblue" points="884.128,-31.4333 886.492,-21.1055 878.203,-27.7049 884.128,-31.4333"/>
</g>
<!-- Node18&#45;&gt;Node6 -->
<g id="edge46" class="edge"><title>Node18&#45;&gt;Node6</title>
<path fill="none" stroke="midnightblue" d="M771.432,-116.947C734.458,-108.278 687.73,-94.8397 674.851,-80 663.42,-66.8281 661.031,-46.7549 661.141,-31.6492"/>
<polygon fill="midnightblue" stroke="midnightblue" points="664.655,-31.4084 661.603,-21.2627 657.662,-31.0971 664.655,-31.4084"/>
</g>
<!-- Node18&#45;&gt;Node7 -->
<g id="edge48" class="edge"><title>Node18&#45;&gt;Node7</title>
<path fill="none" stroke="midnightblue" d="M819.069,-116.8C817.552,-102.546 813.184,-76.359 800.851,-58 792.356,-45.3537 779.337,-34.6533 767.505,-26.6722"/>
<polygon fill="midnightblue" stroke="midnightblue" points="769.097,-23.5362 758.783,-21.1118 765.334,-29.4388 769.097,-23.5362"/>
</g>
<!-- Node18&#45;&gt;Node8 -->
<g id="edge50" class="edge"><title>Node18&#45;&gt;Node8</title>
<path fill="none" stroke="midnightblue" d="M824.605,-116.7C830.225,-103.202 838.287,-78.8008 833.851,-58 831.788,-48.3252 827.583,-38.2301 823.474,-29.8869"/>
<polygon fill="midnightblue" stroke="midnightblue" points="826.572,-28.2587 818.829,-21.0276 820.373,-31.5093 826.572,-28.2587"/>
</g>
<!-- Node19&#45;&gt;Node3 -->
<g id="edge54" class="edge"><title>Node19&#45;&gt;Node3</title>
<path fill="none" stroke="midnightblue" d="M460.141,-174.897C476.527,-165.846 500.788,-152.444 519.484,-142.117"/>
<polygon fill="midnightblue" stroke="midnightblue" points="521.358,-145.081 528.419,-137.182 517.973,-138.953 521.358,-145.081"/>
</g>
<!-- Node20&#45;&gt;Node9 -->
<g id="edge60" class="edge"><title>Node20&#45;&gt;Node9</title>
<path fill="none" stroke="midnightblue" d="M801.408,-174.909C764.055,-154.47 679.289,-108.089 635.374,-84.0599"/>
<polygon fill="midnightblue" stroke="midnightblue" points="636.855,-80.8803 626.402,-79.1506 633.495,-87.0212 636.855,-80.8803"/>
</g>
<!-- Node20&#45;&gt;Node18 -->
<g id="edge58" class="edge"><title>Node20&#45;&gt;Node18</title>
<path fill="none" stroke="midnightblue" d="M819.851,-174.897C819.851,-167.339 819.851,-156.748 819.851,-147.446"/>
<polygon fill="midnightblue" stroke="midnightblue" points="823.351,-147.378 819.851,-137.378 816.351,-147.378 823.351,-147.378"/>
</g>
<!-- Node22&#45;&gt;Node3 -->
<g id="edge68" class="edge"><title>Node22&#45;&gt;Node3</title>
<path fill="none" stroke="midnightblue" d="M757.82,-232.918C749.772,-217.826 732.568,-189.483 709.851,-174 673.681,-149.347 624.569,-137.478 589.734,-131.858"/>
<polygon fill="midnightblue" stroke="midnightblue" points="589.82,-128.332 579.411,-130.307 588.78,-135.254 589.82,-128.332"/>
</g>
<!-- Node23&#45;&gt;Node3 -->
<g id="edge74" class="edge"><title>Node23&#45;&gt;Node3</title>
<path fill="none" stroke="midnightblue" d="M576.228,-232.82C591.794,-219.649 614.133,-195.804 603.851,-174 597.705,-160.965 585.973,-150.319 574.744,-142.475"/>
<polygon fill="midnightblue" stroke="midnightblue" points="576.648,-139.538 566.355,-137.03 572.837,-145.41 576.648,-139.538"/>
</g>
<!-- Node24 -->
<g id="node62" class="node"><title>Node24</title>
<a xlink:href="atomicoperations_8h.html" target="_top" xlink:title="Simple thread safe ways to check and change a specified variable atomically.">
<polygon fill="white" stroke="black" points="496.851,-175 496.851,-195 594.851,-195 594.851,-175 496.851,-175"/>
<text text-anchor="middle" x="545.851" y="-182" font-family="FreeSans" font-size="10.00">atomicoperations.h</text>
</a>
</g>
<!-- Node23&#45;&gt;Node24 -->
<g id="edge76" class="edge"><title>Node23&#45;&gt;Node24</title>
<path fill="none" stroke="midnightblue" d="M559.89,-232.897C557.651,-225.257 554.503,-214.517 551.755,-205.143"/>
<polygon fill="midnightblue" stroke="midnightblue" points="555.064,-203.989 548.893,-195.378 548.347,-205.958 555.064,-203.989"/>
</g>
<!-- Node24&#45;&gt;Node3 -->
<g id="edge78" class="edge"><title>Node24&#45;&gt;Node3</title>
<path fill="none" stroke="midnightblue" d="M546.025,-174.897C546.156,-167.339 546.338,-156.748 546.499,-147.446"/>
<polygon fill="midnightblue" stroke="midnightblue" points="549.999,-147.436 546.672,-137.378 543,-147.316 549.999,-147.436"/>
</g>
<!-- Node28&#45;&gt;Node3 -->
<g id="edge92" class="edge"><title>Node28&#45;&gt;Node3</title>
<path fill="none" stroke="midnightblue" d="M296.074,-232.772C304.428,-217.488 322.285,-188.899 345.851,-174 371.852,-157.562 453.371,-142.035 504.254,-133.589"/>
<polygon fill="midnightblue" stroke="midnightblue" points="505.002,-137.013 514.306,-131.946 503.873,-130.105 505.002,-137.013"/>
</g>
<!-- Node28&#45;&gt;Node16 -->
<g id="edge90" class="edge"><title>Node28&#45;&gt;Node16</title>
<path fill="none" stroke="midnightblue" d="M281.097,-232.897C273.085,-224.6 261.544,-212.646 251.996,-202.757"/>
<polygon fill="midnightblue" stroke="midnightblue" points="254.335,-200.141 244.871,-195.378 249.299,-205.003 254.335,-200.141"/>
</g>
<!-- Node29&#45;&gt;Node3 -->
<g id="edge96" class="edge"><title>Node29&#45;&gt;Node3</title>
<path fill="none" stroke="midnightblue" d="M745.422,-290.952C784.055,-281.369 824.216,-263.566 808.851,-232 790.562,-194.428 772.389,-192.359 734.851,-174 687.965,-151.069 628.864,-138.67 589.571,-132.46"/>
<polygon fill="midnightblue" stroke="midnightblue" points="589.946,-128.977 579.535,-130.94 588.898,-135.898 589.946,-128.977"/>
</g>
</g>
</svg>
