<?xml version="1.0" encoding="UTF-8" standalone="no"?>
<!DOCTYPE svg PUBLIC "-//W3C//DTD SVG 1.1//EN"
 "http://www.w3.org/Graphics/SVG/1.1/DTD/svg11.dtd">
<!-- Generated by graphviz version 2.26.3 (20100126.1600)
 -->
<!-- Title: G Pages: 1 -->
<svg width="437pt" height="332pt"
 viewBox="0.00 0.00 437.00 332.00" xmlns="http://www.w3.org/2000/svg" xmlns:xlink="http://www.w3.org/1999/xlink">
<g id="graph1" class="graph" transform="scale(1 1) rotate(0) translate(4 328)">
<title>G</title>
<polygon fill="white" stroke="white" points="-4,5 -4,-328 434,-328 434,5 -4,5"/>
<!-- Node1 -->
<g id="node1" class="node"><title>Node1</title>
<polygon fill="#bfbfbf" stroke="black" points="186,-301 186,-323 280,-323 280,-301 186,-301"/>
<text text-anchor="middle" x="233" y="-310" font-family="FreeSans" font-size="10.00">framescheduler.h</text>
</g>
<!-- Node2 -->
<g id="node3" class="node"><title>Node2</title>
<a xlink:href="datatypes_8h.html" target="_top" xlink:title="This file declares a few typedefs to allow flexibility, in case a change is required/desired.">
<polygon fill="white" stroke="black" points="97,-121 97,-143 165,-143 165,-121 97,-121"/>
<text text-anchor="middle" x="131" y="-130" font-family="FreeSans" font-size="10.00">datatypes.h</text>
</a>
</g>
<!-- Node1&#45;&gt;Node2 -->
<g id="edge2" class="edge"><title>Node1&#45;&gt;Node2</title>
<path fill="none" stroke="midnightblue" d="M214.546,-300.864C188.328,-283.819 141.435,-248.507 123,-204 116.261,-187.731 119.287,-167.72 123.412,-152.927"/>
<polygon fill="midnightblue" stroke="midnightblue" points="126.808,-153.796 126.486,-143.206 120.134,-151.685 126.808,-153.796"/>
</g>
<!-- Node10 -->
<g id="node19" class="node"><title>Node10</title>
<a xlink:href="thread_8h.html" target="_top" xlink:title="This file defines a minimalistic cross&#45;platform thread that the scheduler uses to schedule tasks...">
<polygon fill="white" stroke="black" points="206.5,-241 206.5,-263 259.5,-263 259.5,-241 206.5,-241"/>
<text text-anchor="middle" x="233" y="-250" font-family="FreeSans" font-size="10.00">thread.h</text>
</a>
</g>
<!-- Node1&#45;&gt;Node10 -->
<g id="edge18" class="edge"><title>Node1&#45;&gt;Node10</title>
<path fill="none" stroke="midnightblue" d="M233,-300.995C233,-293.311 233,-282.803 233,-273.488"/>
<polygon fill="midnightblue" stroke="midnightblue" points="236.5,-273.343 233,-263.343 229.5,-273.343 236.5,-273.343"/>
</g>
<!-- Node11 -->
<g id="node22" class="node"><title>Node11</title>
<a xlink:href="systemcalls_8h.html" target="_top" xlink:title="This file defines a minimalistic cross&#45;platform thread that the scheduler uses to schedule tasks...">
<polygon fill="white" stroke="black" points="131.5,-181 131.5,-203 208.5,-203 208.5,-181 131.5,-181"/>
<text text-anchor="middle" x="170" y="-190" font-family="FreeSans" font-size="10.00">systemcalls.h</text>
</a>
</g>
<!-- Node1&#45;&gt;Node11 -->
<g id="edge40" class="edge"><title>Node1&#45;&gt;Node11</title>
<path fill="none" stroke="midnightblue" d="M223.479,-300.73C215.878,-291.342 205.324,-277.392 198,-264 188.989,-247.524 181.459,-227.533 176.486,-212.8"/>
<polygon fill="midnightblue" stroke="midnightblue" points="179.759,-211.549 173.331,-203.127 173.104,-213.719 179.759,-211.549"/>
</g>
<!-- Node15 -->
<g id="node33" class="node"><title>Node15</title>
<a xlink:href="workunitkey_8h.html" target="_top" xlink:title="This file defines the metadata used to sort workunits.">
<polygon fill="white" stroke="black" points="-0.5,-181 -0.5,-203 76.5,-203 76.5,-181 -0.5,-181"/>
<text text-anchor="middle" x="38" y="-190" font-family="FreeSans" font-size="10.00">workunitkey.h</text>
</a>
</g>
<!-- Node1&#45;&gt;Node15 -->
<g id="edge36" class="edge"><title>Node1&#45;&gt;Node15</title>
<path fill="none" stroke="midnightblue" d="M185.778,-303.86C156.115,-296.98 118.26,-284.804 90,-264 71.5932,-250.45 57.068,-228.451 48.1007,-212.331"/>
<polygon fill="midnightblue" stroke="midnightblue" points="51.0268,-210.378 43.2506,-203.182 44.8421,-213.657 51.0268,-210.378"/>
</g>
<!-- Node16 -->
<g id="node37" class="node"><title>Node16</title>
<polygon fill="white" stroke="#bfbfbf" points="277,-241 277,-263 313,-263 313,-241 277,-241"/>
<text text-anchor="middle" x="295" y="-250" font-family="FreeSans" font-size="10.00">map</text>
</g>
<!-- Node1&#45;&gt;Node16 -->
<g id="edge42" class="edge"><title>Node1&#45;&gt;Node16</title>
<path fill="none" stroke="midnightblue" d="M244.372,-300.995C253.175,-292.476 265.565,-280.485 275.885,-270.499"/>
<polygon fill="midnightblue" stroke="midnightblue" points="278.527,-272.812 283.279,-263.343 273.659,-267.782 278.527,-272.812"/>
</g>
<!-- Node17 -->
<g id="node39" class="node"><title>Node17</title>
<polygon fill="white" stroke="#bfbfbf" points="331,-241 331,-263 361,-263 361,-241 331,-241"/>
<text text-anchor="middle" x="346" y="-250" font-family="FreeSans" font-size="10.00">set</text>
</g>
<!-- Node1&#45;&gt;Node17 -->
<g id="edge44" class="edge"><title>Node1&#45;&gt;Node17</title>
<path fill="none" stroke="midnightblue" d="M253.726,-300.995C272.977,-290.773 301.642,-275.553 321.905,-264.794"/>
<polygon fill="midnightblue" stroke="midnightblue" points="323.639,-267.836 330.83,-260.055 320.356,-261.653 323.639,-267.836"/>
</g>
<!-- Node18 -->
<g id="node41" class="node"><title>Node18</title>
<polygon fill="white" stroke="#bfbfbf" points="379,-241 379,-263 429,-263 429,-241 379,-241"/>
<text text-anchor="middle" x="404" y="-250" font-family="FreeSans" font-size="10.00">fstream</text>
</g>
<!-- Node1&#45;&gt;Node18 -->
<g id="edge46" class="edge"><title>Node1&#45;&gt;Node18</title>
<path fill="none" stroke="midnightblue" d="M264.567,-300.963C290.333,-291.949 327.932,-278.784 369.076,-264.321"/>
<polygon fill="midnightblue" stroke="midnightblue" points="370.479,-267.538 378.751,-260.919 368.156,-260.934 370.479,-267.538"/>
</g>
<!-- Node3 -->
<g id="node5" class="node"><title>Node3</title>
<a xlink:href="compilerthreadcompat_8h.html" target="_top" xlink:title="This file determines what features are offered by the compiler that this library can take advantage o...">
<polygon fill="white" stroke="black" points="202,-61 202,-83 326,-83 326,-61 202,-61"/>
<text text-anchor="middle" x="264" y="-70" font-family="FreeSans" font-size="10.00">compilerthreadcompat.h</text>
</a>
</g>
<!-- Node2&#45;&gt;Node3 -->
<g id="edge4" class="edge"><title>Node2&#45;&gt;Node3</title>
<path fill="none" stroke="midnightblue" d="M155.394,-120.995C176.354,-111.54 206.794,-97.8073 230.118,-87.2851"/>
<polygon fill="midnightblue" stroke="midnightblue" points="231.634,-90.441 239.31,-83.1383 228.755,-84.0602 231.634,-90.441"/>
</g>
<!-- Node8 -->
<g id="node15" class="node"><title>Node8</title>
<polygon fill="white" stroke="#bfbfbf" points="143.5,-61 143.5,-83 184.5,-83 184.5,-61 143.5,-61"/>
<text text-anchor="middle" x="164" y="-70" font-family="FreeSans" font-size="10.00">string</text>
</g>
<!-- Node2&#45;&gt;Node8 -->
<g id="edge14" class="edge"><title>Node2&#45;&gt;Node8</title>
<path fill="none" stroke="midnightblue" d="M137.053,-120.995C141.463,-112.977 147.564,-101.884 152.846,-92.2806"/>
<polygon fill="midnightblue" stroke="midnightblue" points="156.009,-93.7917 157.761,-83.3428 149.875,-90.4183 156.009,-93.7917"/>
</g>
<!-- Node9 -->
<g id="node17" class="node"><title>Node9</title>
<polygon fill="white" stroke="#bfbfbf" points="79.5,-61 79.5,-83 126.5,-83 126.5,-61 79.5,-61"/>
<text text-anchor="middle" x="103" y="-70" font-family="FreeSans" font-size="10.00">stdint.h</text>
</g>
<!-- Node2&#45;&gt;Node9 -->
<g id="edge16" class="edge"><title>Node2&#45;&gt;Node9</title>
<path fill="none" stroke="midnightblue" d="M125.864,-120.995C122.162,-113.061 117.054,-102.115 112.605,-92.5812"/>
<polygon fill="midnightblue" stroke="midnightblue" points="115.694,-90.9246 108.293,-83.3428 109.351,-93.8848 115.694,-90.9246"/>
</g>
<!-- Node4 -->
<g id="node7" class="node"><title>Node4</title>
<polygon fill="white" stroke="#bfbfbf" points="128,-1 128,-23 186,-23 186,-1 128,-1"/>
<text text-anchor="middle" x="157" y="-10" font-family="FreeSans" font-size="10.00">pthread.h</text>
</g>
<!-- Node3&#45;&gt;Node4 -->
<g id="edge6" class="edge"><title>Node3&#45;&gt;Node4</title>
<path fill="none" stroke="midnightblue" d="M244.375,-60.9951C227.962,-51.7917 204.324,-38.5366 185.772,-28.1336"/>
<polygon fill="midnightblue" stroke="midnightblue" points="187.298,-24.9766 176.863,-23.1383 183.874,-31.0822 187.298,-24.9766"/>
</g>
<!-- Node5 -->
<g id="node9" class="node"><title>Node5</title>
<polygon fill="white" stroke="#bfbfbf" points="203.5,-1 203.5,-23 254.5,-23 254.5,-1 203.5,-1"/>
<text text-anchor="middle" x="229" y="-10" font-family="FreeSans" font-size="10.00">signal.h</text>
</g>
<!-- Node3&#45;&gt;Node5 -->
<g id="edge8" class="edge"><title>Node3&#45;&gt;Node5</title>
<path fill="none" stroke="midnightblue" d="M257.58,-60.9951C252.855,-52.8936 246.297,-41.6525 240.656,-31.981"/>
<polygon fill="midnightblue" stroke="midnightblue" points="243.679,-30.2171 235.617,-23.3428 237.632,-33.7442 243.679,-30.2171"/>
</g>
<!-- Node6 -->
<g id="node11" class="node"><title>Node6</title>
<polygon fill="white" stroke="#bfbfbf" points="272,-1 272,-23 324,-23 324,-1 272,-1"/>
<text text-anchor="middle" x="298" y="-10" font-family="FreeSans" font-size="10.00">sched.h</text>
</g>
<!-- Node3&#45;&gt;Node6 -->
<g id="edge10" class="edge"><title>Node3&#45;&gt;Node6</title>
<path fill="none" stroke="midnightblue" d="M270.236,-60.9951C274.78,-52.9771 281.066,-41.884 286.508,-32.2806"/>
<polygon fill="midnightblue" stroke="midnightblue" points="289.687,-33.7686 291.572,-23.3428 283.597,-30.3175 289.687,-33.7686"/>
</g>
<!-- Node7 -->
<g id="node13" class="node"><title>Node7</title>
<polygon fill="white" stroke="#bfbfbf" points="342,-1 342,-23 392,-23 392,-1 342,-1"/>
<text text-anchor="middle" x="367" y="-10" font-family="FreeSans" font-size="10.00">unistd.h</text>
</g>
<!-- Node3&#45;&gt;Node7 -->
<g id="edge12" class="edge"><title>Node3&#45;&gt;Node7</title>
<path fill="none" stroke="midnightblue" d="M282.892,-60.9951C298.619,-51.8337 321.238,-38.6576 339.059,-28.2763"/>
<polygon fill="midnightblue" stroke="midnightblue" points="341,-31.1962 347.879,-23.1383 337.477,-25.1476 341,-31.1962"/>
</g>
<!-- Node10&#45;&gt;Node3 -->
<g id="edge20" class="edge"><title>Node10&#45;&gt;Node3</title>
<path fill="none" stroke="midnightblue" d="M259.719,-242.727C262.511,-241.792 265.31,-240.868 268,-240 320.588,-223.037 354.067,-248.37 387,-204 420.867,-158.372 344.973,-111.127 297.87,-87.4687"/>
<polygon fill="midnightblue" stroke="midnightblue" points="299.394,-84.3179 288.874,-83.0589 296.313,-90.6033 299.394,-84.3179"/>
</g>
<!-- Node10&#45;&gt;Node11 -->
<g id="edge22" class="edge"><title>Node10&#45;&gt;Node11</title>
<path fill="none" stroke="midnightblue" d="M221.445,-240.995C212.5,-232.476 199.91,-220.485 189.423,-210.499"/>
<polygon fill="midnightblue" stroke="midnightblue" points="191.565,-207.705 181.91,-203.343 186.738,-212.774 191.565,-207.705"/>
</g>
<!-- Node12 -->
<g id="node25" class="node"><title>Node12</title>
<a xlink:href="mutex_8h.html" target="_top" xlink:title="This file declares and defines a mutex that is a partial implementation.">
<polygon fill="white" stroke="black" points="210.5,-121 210.5,-143 261.5,-143 261.5,-121 210.5,-121"/>
<text text-anchor="middle" x="236" y="-130" font-family="FreeSans" font-size="10.00">mutex.h</text>
</a>
</g>
<!-- Node10&#45;&gt;Node12 -->
<g id="edge26" class="edge"><title>Node10&#45;&gt;Node12</title>
<path fill="none" stroke="midnightblue" d="M233.277,-240.926C233.775,-221.012 234.829,-178.851 235.47,-153.216"/>
<polygon fill="midnightblue" stroke="midnightblue" points="238.973,-153.132 235.724,-143.047 231.975,-152.957 238.973,-153.132"/>
</g>
<!-- Node13 -->
<g id="node29" class="node"><title>Node13</title>
<polygon fill="white" stroke="#bfbfbf" points="263.5,-181 263.5,-203 316.5,-203 316.5,-181 263.5,-181"/>
<text text-anchor="middle" x="290" y="-190" font-family="FreeSans" font-size="10.00">ostream</text>
</g>
<!-- Node10&#45;&gt;Node13 -->
<g id="edge32" class="edge"><title>Node10&#45;&gt;Node13</title>
<path fill="none" stroke="midnightblue" d="M243.455,-240.995C251.468,-232.56 262.716,-220.72 272.147,-210.793"/>
<polygon fill="midnightblue" stroke="midnightblue" points="274.874,-213.003 279.224,-203.343 269.799,-208.182 274.874,-213.003"/>
</g>
<!-- Node14 -->
<g id="node31" class="node"><title>Node14</title>
<polygon fill="white" stroke="#bfbfbf" points="334,-181 334,-203 378,-203 378,-181 334,-181"/>
<text text-anchor="middle" x="356" y="-190" font-family="FreeSans" font-size="10.00">vector</text>
</g>
<!-- Node10&#45;&gt;Node14 -->
<g id="edge34" class="edge"><title>Node10&#45;&gt;Node14</title>
<path fill="none" stroke="midnightblue" d="M255.56,-240.995C275.013,-231.506 303.297,-217.709 324.897,-207.172"/>
<polygon fill="midnightblue" stroke="midnightblue" points="326.544,-210.263 333.997,-202.733 323.475,-203.972 326.544,-210.263"/>
</g>
<!-- Node11&#45;&gt;Node2 -->
<g id="edge24" class="edge"><title>Node11&#45;&gt;Node2</title>
<path fill="none" stroke="midnightblue" d="M162.847,-180.995C157.581,-172.894 150.274,-161.653 143.988,-151.981"/>
<polygon fill="midnightblue" stroke="midnightblue" points="146.757,-149.82 138.373,-143.343 140.888,-153.635 146.757,-149.82"/>
</g>
<!-- Node12&#45;&gt;Node3 -->
<g id="edge28" class="edge"><title>Node12&#45;&gt;Node3</title>
<path fill="none" stroke="midnightblue" d="M241.136,-120.995C244.838,-113.061 249.946,-102.115 254.395,-92.5812"/>
<polygon fill="midnightblue" stroke="midnightblue" points="257.649,-93.8848 258.707,-83.3428 251.306,-90.9246 257.649,-93.8848"/>
</g>
<!-- Node12&#45;&gt;Node8 -->
<g id="edge30" class="edge"><title>Node12&#45;&gt;Node8</title>
<path fill="none" stroke="midnightblue" d="M222.794,-120.995C212.371,-112.309 197.617,-100.014 185.496,-89.9134"/>
<polygon fill="midnightblue" stroke="midnightblue" points="187.534,-87.0559 177.611,-83.3428 183.053,-92.4335 187.534,-87.0559"/>
</g>
<!-- Node15&#45;&gt;Node2 -->
<g id="edge38" class="edge"><title>Node15&#45;&gt;Node2</title>
<path fill="none" stroke="midnightblue" d="M55.0576,-180.995C69.1274,-171.918 89.3065,-158.899 105.328,-148.563"/>
<polygon fill="midnightblue" stroke="midnightblue" points="107.23,-151.501 113.736,-143.138 103.435,-145.619 107.23,-151.501"/>
</g>
</g>
</svg>
