<?xml version="1.0" encoding="UTF-8" standalone="no"?>
<!DOCTYPE svg PUBLIC "-//W3C//DTD SVG 1.1//EN"
 "http://www.w3.org/Graphics/SVG/1.1/DTD/svg11.dtd">
<!-- Generated by graphviz version 2.26.3 (20100126.1600)
 -->
<!-- Title: G Pages: 1 -->
<svg width="406pt" height="92pt"
 viewBox="0.00 0.00 406.00 92.00" xmlns="http://www.w3.org/2000/svg" xmlns:xlink="http://www.w3.org/1999/xlink">
<g id="graph1" class="graph" transform="scale(1 1) rotate(0) translate(4 88)">
<title>G</title>
<polygon fill="white" stroke="white" points="-4,5 -4,-88 403,-88 403,5 -4,5"/>
<!-- Node1 -->
<g id="node1" class="node"><title>Node1</title>
<polygon fill="#bfbfbf" stroke="black" points="114,-61 114,-83 250,-83 250,-61 114,-61"/>
<text text-anchor="middle" x="182" y="-70" font-family="FreeSans" font-size="10.00">frameschedulerworkunits.h</text>
</g>
<!-- Node2 -->
<g id="node3" class="node"><title>Node2</title>
<a xlink:href="dagframescheduler_8h.html" target="_top" xlink:title="This is the file that code using this library should include. It includes all the required components...">
<polygon fill="white" stroke="black" points="0,-1 0,-23 112,-23 112,-1 0,-1"/>
<text text-anchor="middle" x="56" y="-10" font-family="FreeSans" font-size="10.00">dagframescheduler.h</text>
</a>
</g>
<!-- Node1&#45;&gt;Node2 -->
<g id="edge2" class="edge"><title>Node1&#45;&gt;Node2</title>
<path fill="none" stroke="midnightblue" d="M149.623,-56.5823C127.667,-46.1271 99.1538,-32.5494 79.3905,-23.1383"/>
<polygon fill="midnightblue" stroke="midnightblue" points="148.356,-59.8557 158.89,-60.9951 151.366,-53.5357 148.356,-59.8557"/>
</g>
<!-- Node3 -->
<g id="node5" class="node"><title>Node3</title>
<a xlink:href="framescheduler_8cpp.html" target="_top" xlink:title="This is the core object implementation for this algorithm.">
<polygon fill="white" stroke="black" points="130,-1 130,-23 234,-23 234,-1 130,-1"/>
<text text-anchor="middle" x="182" y="-10" font-family="FreeSans" font-size="10.00">framescheduler.cpp</text>
</a>
</g>
<!-- Node1&#45;&gt;Node3 -->
<g id="edge4" class="edge"><title>Node1&#45;&gt;Node3</title>
<path fill="none" stroke="midnightblue" d="M182,-50.9183C182,-41.6393 182,-31.1082 182,-23.3428"/>
<polygon fill="midnightblue" stroke="midnightblue" points="178.5,-50.995 182,-60.9951 185.5,-50.9951 178.5,-50.995"/>
</g>
<!-- Node4 -->
<g id="node7" class="node"><title>Node4</title>
<a xlink:href="frameschedulerworkunits_8cpp.html" target="_top" xlink:title="The implementation of any workunits the framescheduler needs to work correctly.">
<polygon fill="white" stroke="black" points="252,-1 252,-23 398,-23 398,-1 252,-1"/>
<text text-anchor="middle" x="325" y="-10" font-family="FreeSans" font-size="10.00">frameschedulerworkunits.cpp</text>
</a>
</g>
<!-- Node1&#45;&gt;Node4 -->
<g id="edge6" class="edge"><title>Node1&#45;&gt;Node4</title>
<path fill="none" stroke="midnightblue" d="M217.744,-57.0025C242.791,-46.4931 275.722,-32.676 298.454,-23.1383"/>
<polygon fill="midnightblue" stroke="midnightblue" points="216.095,-53.8986 208.228,-60.9951 218.804,-60.3534 216.095,-53.8986"/>
</g>
</g>
</svg>
