<?xml version="1.0" encoding="UTF-8" standalone="no"?>
<!DOCTYPE svg PUBLIC "-//W3C//DTD SVG 1.1//EN"
 "http://www.w3.org/Graphics/SVG/1.1/DTD/svg11.dtd">
<!-- Generated by graphviz version 2.26.3 (20100126.1600)
 -->
<!-- Title: framescheduler.cpp Pages: 1 -->
<!--zoomable 494 -->
<svg id="main" version="1.1" xmlns="http://www.w3.org/2000/svg" xmlns:xlink="http://www.w3.org/1999/xlink" xml:space="preserve" onload="init(evt)">
        <defs>
                <circle id="rim" cx="0" cy="0" r="7"/>
                <circle id="rim2" cx="0" cy="0" r="3.5"/>
                <g id="zoomPlus">
                        <use xlink:href="#rim" fill="#404040">
                                <set attributeName="fill" to="#808080" begin="zoomplus.mouseover" end="zoomplus.mouseout"/>
                        </use>
                        <path d="M-4,0h8M0,-4v8" fill="none" stroke="white" stroke-width="1.5" pointer-events="none"/>
                </g>
                <g id="zoomMin">
                        <use xlink:href="#rim" fill="#404040">
                                <set attributeName="fill" to="#808080" begin="zoomminus.mouseover" end="zoomminus.mouseout"/>
                        </use>
                        <path d="M-4,0h8" fill="none" stroke="white" stroke-width="1.5" pointer-events="none"/>
                </g>
                <g id="dirArrow">
                        <path fill="none" stroke="white" stroke-width="1.5" d="M0,-3.0v7 M-2.5,-0.5L0,-3.0L2.5,-0.5"/>
                </g>
               <g id="resetDef">
                       <use xlink:href="#rim2" fill="#404040">
                               <set attributeName="fill" to="#808080" begin="reset.mouseover" end="reset.mouseout"/>
                       </use>
               </g>
        </defs>

<script type="text/javascript">
var viewWidth = 1180;
var viewHeight = 494;
var sectionId = 'dynsection-0';
</script>
<script xlink:href="svgpan.js"/>
<svg id="graph" class="graph">
<g id="viewport">
<title>framescheduler.cpp</title>
<polygon fill="white" stroke="white" points="-4,5 -4,-490 1177,-490 1177,5 -4,5"/>
<!-- Node1 -->
<g id="node1" class="node"><title>Node1</title>
<polygon fill="#bfbfbf" stroke="black" points="880.5,-465 880.5,-485 981.5,-485 981.5,-465 880.5,-465"/>
<text text-anchor="middle" x="931" y="-472" font-family="FreeSans" font-size="10.00">framescheduler.cpp</text>
</g>
<!-- Node2 -->
<g id="node3" class="node"><title>Node2</title>
<a xlink:href="framescheduler_8h.html" target="_top" xlink:title="This file has the Declarations for the main FrameScheduler class.">
<polygon fill="white" stroke="black" points="683,-291 683,-311 773,-311 773,-291 683,-291"/>
<text text-anchor="middle" x="728" y="-298" font-family="FreeSans" font-size="10.00">framescheduler.h</text>
</a>
</g>
<!-- Node1&#45;&gt;Node2 -->
<g id="edge2" class="edge"><title>Node1&#45;&gt;Node2</title>
<path fill="none" stroke="midnightblue" d="M941.103,-464.601C953.465,-450.57 971.318,-425.13 959,-406 920.382,-346.027 838.201,-319.914 783.015,-308.82"/>
<polygon fill="midnightblue" stroke="midnightblue" points="783.52,-305.354 773.041,-306.919 782.209,-312.23 783.52,-305.354"/>
</g>
<!-- Node11 -->
<g id="node21" class="node"><title>Node11</title>
<a xlink:href="doublebufferedresource_8h.html" target="_top" xlink:title="This file defines the template double buffered resources that can be attached to a thread...">
<polygon fill="white" stroke="black" points="69.5,-233 69.5,-253 192.5,-253 192.5,-233 69.5,-233"/>
<text text-anchor="middle" x="131" y="-240" font-family="FreeSans" font-size="10.00">doublebufferedresource.h</text>
</a>
</g>
<!-- Node1&#45;&gt;Node11 -->
<g id="edge78" class="edge"><title>Node1&#45;&gt;Node11</title>
<path fill="none" stroke="midnightblue" d="M880.325,-473.411C755.759,-469.121 437.314,-455.707 335,-428 245.288,-403.706 211.928,-389.748 161,-312 150.961,-296.675 142.918,-277.432 137.696,-263.163"/>
<polygon fill="midnightblue" stroke="midnightblue" points="140.875,-261.651 134.267,-253.369 134.269,-263.964 140.875,-261.651"/>
</g>
<!-- Node12 -->
<g id="node24" class="node"><title>Node12</title>
<polygon fill="white" stroke="#bfbfbf" points="0,-175 0,-195 56,-195 56,-175 0,-175"/>
<text text-anchor="middle" x="28" y="-182" font-family="FreeSans" font-size="10.00">algorithm</text>
</g>
<!-- Node1&#45;&gt;Node12 -->
<g id="edge126" class="edge"><title>Node1&#45;&gt;Node12</title>
<path fill="none" stroke="midnightblue" d="M880.26,-473.813C690.717,-468.716 35,-444.877 35,-359 35,-359 35,-359 35,-301 35,-267.364 32.0312,-228.34 29.9604,-205.212"/>
<polygon fill="midnightblue" stroke="midnightblue" points="33.443,-204.862 29.0329,-195.229 26.473,-205.51 33.443,-204.862"/>
</g>
<!-- Node22 -->
<g id="node56" class="node"><title>Node22</title>
<a xlink:href="atomicoperations_8h.html" target="_top" xlink:title="Simple thread safe ways to check and change a specified variable atomically.">
<polygon fill="white" stroke="black" points="854,-175 854,-195 952,-195 952,-175 854,-175"/>
<text text-anchor="middle" x="903" y="-182" font-family="FreeSans" font-size="10.00">atomicoperations.h</text>
</a>
</g>
<!-- Node1&#45;&gt;Node22 -->
<g id="edge120" class="edge"><title>Node1&#45;&gt;Node22</title>
<path fill="none" stroke="midnightblue" d="M945.806,-464.73C970.159,-446.495 1016,-405.938 1016,-359 1016,-359 1016,-359 1016,-301 1016,-269.192 1017.2,-256.574 997,-232 984.586,-216.895 966.095,-206.201 948.789,-198.871"/>
<polygon fill="midnightblue" stroke="midnightblue" points="949.93,-195.558 939.343,-195.138 947.357,-202.068 949.93,-195.558"/>
</g>
<!-- Node26 -->
<g id="node66" class="node"><title>Node26</title>
<a xlink:href="monopoly_8h.html" target="_top" xlink:title="Contains an interface for a kind of WorkUnit that consumes time on multiple thread.">
<polygon fill="white" stroke="black" points="343.5,-407 343.5,-427 408.5,-427 408.5,-407 343.5,-407"/>
<text text-anchor="middle" x="376" y="-414" font-family="FreeSans" font-size="10.00">monopoly.h</text>
</a>
</g>
<!-- Node1&#45;&gt;Node26 -->
<g id="edge80" class="edge"><title>Node1&#45;&gt;Node26</title>
<path fill="none" stroke="midnightblue" d="M880.276,-469.699C771.987,-458.382 519.851,-432.033 418.907,-421.484"/>
<polygon fill="midnightblue" stroke="midnightblue" points="419.081,-417.983 408.771,-420.425 418.353,-424.945 419.081,-417.983"/>
</g>
<!-- Node30 -->
<g id="node85" class="node"><title>Node30</title>
<a xlink:href="frameschedulerworkunits_8h.html" target="_top" xlink:title="This defines a number of workunits that are required for doing some tasks that the Framescheduler req...">
<polygon fill="white" stroke="black" points="819.5,-407 819.5,-427 950.5,-427 950.5,-407 819.5,-407"/>
<text text-anchor="middle" x="885" y="-414" font-family="FreeSans" font-size="10.00">frameschedulerworkunits.h</text>
</a>
</g>
<!-- Node1&#45;&gt;Node30 -->
<g id="edge110" class="edge"><title>Node1&#45;&gt;Node30</title>
<path fill="none" stroke="midnightblue" d="M922.987,-464.897C916.537,-456.764 907.301,-445.118 899.551,-435.347"/>
<polygon fill="midnightblue" stroke="midnightblue" points="902.187,-433.038 893.231,-427.378 896.702,-437.387 902.187,-433.038"/>
</g>
<!-- Node31 -->
<g id="node92" class="node"><title>Node31</title>
<polygon fill="white" stroke="#bfbfbf" points="1044,-407 1044,-427 1102,-427 1102,-407 1044,-407"/>
<text text-anchor="middle" x="1073" y="-414" font-family="FreeSans" font-size="10.00">exception</text>
</g>
<!-- Node1&#45;&gt;Node31 -->
<g id="edge122" class="edge"><title>Node1&#45;&gt;Node31</title>
<path fill="none" stroke="midnightblue" d="M955.735,-464.897C978.704,-455.515 1013.12,-441.459 1038.73,-430.998"/>
<polygon fill="midnightblue" stroke="midnightblue" points="1040.14,-434.203 1048.07,-427.182 1037.49,-427.723 1040.14,-434.203"/>
</g>
<!-- Node32 -->
<g id="node94" class="node"><title>Node32</title>
<polygon fill="white" stroke="#bfbfbf" points="1119.5,-407 1119.5,-427 1172.5,-427 1172.5,-407 1119.5,-407"/>
<text text-anchor="middle" x="1146" y="-414" font-family="FreeSans" font-size="10.00">iostream</text>
</g>
<!-- Node1&#45;&gt;Node32 -->
<g id="edge124" class="edge"><title>Node1&#45;&gt;Node32</title>
<path fill="none" stroke="midnightblue" d="M971.904,-464.928C1006.35,-456.312 1057.12,-443.292 1109.49,-428.355"/>
<polygon fill="midnightblue" stroke="midnightblue" points="1110.64,-431.667 1119.29,-425.544 1108.71,-424.938 1110.64,-431.667"/>
</g>
<!-- Node3 -->
<g id="node5" class="node"><title>Node3</title>
<a xlink:href="datatypes_8h.html" target="_top" xlink:title="This file declares a few typedefs to allow flexibility, in case a change is required/desired.">
<polygon fill="white" stroke="black" points="527.5,-117 527.5,-137 592.5,-137 592.5,-117 527.5,-117"/>
<text text-anchor="middle" x="560" y="-124" font-family="FreeSans" font-size="10.00">datatypes.h</text>
</a>
</g>
<!-- Node2&#45;&gt;Node3 -->
<g id="edge4" class="edge"><title>Node2&#45;&gt;Node3</title>
<path fill="none" stroke="midnightblue" d="M744.235,-290.775C762.744,-277.749 788.983,-254.249 777,-232 742.674,-168.265 655.669,-142.722 602.842,-132.858"/>
<polygon fill="midnightblue" stroke="midnightblue" points="603.213,-129.369 592.758,-131.087 602.002,-136.264 603.213,-129.369"/>
</g>
<!-- Node2&#45;&gt;Node11 -->
<g id="edge20" class="edge"><title>Node2&#45;&gt;Node11</title>
<path fill="none" stroke="midnightblue" d="M682.638,-296.593C579.683,-286.591 327.64,-262.104 203.083,-250.003"/>
<polygon fill="midnightblue" stroke="midnightblue" points="203.178,-246.496 192.886,-249.012 202.501,-253.463 203.178,-246.496"/>
</g>
<!-- Node15 -->
<g id="node30" class="node"><title>Node15</title>
<a xlink:href="thread_8h.html" target="_top" xlink:title="This file defines a minimalistic cross&#45;platform thread that the scheduler uses to schedule tasks...">
<polygon fill="white" stroke="black" points="537.5,-233 537.5,-253 588.5,-253 588.5,-233 537.5,-233"/>
<text text-anchor="middle" x="563" y="-240" font-family="FreeSans" font-size="10.00">thread.h</text>
</a>
</g>
<!-- Node2&#45;&gt;Node15 -->
<g id="edge30" class="edge"><title>Node2&#45;&gt;Node15</title>
<path fill="none" stroke="midnightblue" d="M699.259,-290.897C671.221,-281.041 628.509,-266.027 598.393,-255.441"/>
<polygon fill="midnightblue" stroke="midnightblue" points="599.297,-252.049 588.702,-252.035 596.975,-258.653 599.297,-252.049"/>
</g>
<!-- Node17 -->
<g id="node39" class="node"><title>Node17</title>
<a xlink:href="systemcalls_8h.html" target="_top" xlink:title="This file defines a minimalistic cross&#45;platform thread that the scheduler uses to schedule tasks...">
<polygon fill="white" stroke="black" points="606,-175 606,-195 680,-195 680,-175 606,-175"/>
<text text-anchor="middle" x="643" y="-182" font-family="FreeSans" font-size="10.00">systemcalls.h</text>
</a>
</g>
<!-- Node2&#45;&gt;Node17 -->
<g id="edge62" class="edge"><title>Node2&#45;&gt;Node17</title>
<path fill="none" stroke="midnightblue" d="M739.496,-290.663C753.6,-276.703 774.116,-251.343 761,-232 745.158,-208.637 715.655,-196.887 690.114,-190.978"/>
<polygon fill="midnightblue" stroke="midnightblue" points="690.696,-187.524 680.194,-188.92 689.274,-194.378 690.696,-187.524"/>
</g>
<!-- Node20 -->
<g id="node49" class="node"><title>Node20</title>
<a xlink:href="workunitkey_8h.html" target="_top" xlink:title="This file defines the metadata used to sort workunits.">
<polygon fill="white" stroke="black" points="913.5,-233 913.5,-253 988.5,-253 988.5,-233 913.5,-233"/>
<text text-anchor="middle" x="951" y="-240" font-family="FreeSans" font-size="10.00">workunitkey.h</text>
</a>
</g>
<!-- Node2&#45;&gt;Node20 -->
<g id="edge58" class="edge"><title>Node2&#45;&gt;Node20</title>
<path fill="none" stroke="midnightblue" d="M766.589,-290.963C804.593,-281.079 862.721,-265.96 903.534,-255.345"/>
<polygon fill="midnightblue" stroke="midnightblue" points="904.458,-258.722 913.255,-252.817 902.696,-251.947 904.458,-258.722"/>
</g>
<!-- Node21 -->
<g id="node53" class="node"><title>Node21</title>
<a xlink:href="barrier_8h.html" target="_top" xlink:title="The declaration of the Mezzanine::Threading::Barrier Barrier synchronization primitive.">
<polygon fill="white" stroke="black" points="845.5,-233 845.5,-253 896.5,-253 896.5,-233 845.5,-233"/>
<text text-anchor="middle" x="871" y="-240" font-family="FreeSans" font-size="10.00">barrier.h</text>
</a>
</g>
<!-- Node2&#45;&gt;Node21 -->
<g id="edge64" class="edge"><title>Node2&#45;&gt;Node21</title>
<path fill="none" stroke="midnightblue" d="M752.909,-290.897C776.04,-281.515 810.695,-267.459 836.488,-256.998"/>
<polygon fill="midnightblue" stroke="midnightblue" points="837.946,-260.184 845.897,-253.182 835.315,-253.697 837.946,-260.184"/>
</g>
<!-- Node23 -->
<g id="node59" class="node"><title>Node23</title>
<polygon fill="white" stroke="#bfbfbf" points="605.5,-233 605.5,-253 640.5,-253 640.5,-233 605.5,-233"/>
<text text-anchor="middle" x="623" y="-240" font-family="FreeSans" font-size="10.00">map</text>
</g>
<!-- Node2&#45;&gt;Node23 -->
<g id="edge72" class="edge"><title>Node2&#45;&gt;Node23</title>
<path fill="none" stroke="midnightblue" d="M709.71,-290.897C693.123,-281.735 668.466,-268.115 649.681,-257.738"/>
<polygon fill="midnightblue" stroke="midnightblue" points="651.176,-254.565 640.73,-252.794 647.791,-260.693 651.176,-254.565"/>
</g>
<!-- Node24 -->
<g id="node61" class="node"><title>Node24</title>
<polygon fill="white" stroke="#bfbfbf" points="657.5,-233 657.5,-253 686.5,-253 686.5,-233 657.5,-233"/>
<text text-anchor="middle" x="672" y="-240" font-family="FreeSans" font-size="10.00">set</text>
</g>
<!-- Node2&#45;&gt;Node24 -->
<g id="edge74" class="edge"><title>Node2&#45;&gt;Node24</title>
<path fill="none" stroke="midnightblue" d="M718.246,-290.897C710.234,-282.6 698.693,-270.646 689.145,-260.757"/>
<polygon fill="midnightblue" stroke="midnightblue" points="691.484,-258.141 682.02,-253.378 686.448,-263.003 691.484,-258.141"/>
</g>
<!-- Node25 -->
<g id="node63" class="node"><title>Node25</title>
<polygon fill="white" stroke="#bfbfbf" points="703.5,-233 703.5,-253 752.5,-253 752.5,-233 703.5,-233"/>
<text text-anchor="middle" x="728" y="-240" font-family="FreeSans" font-size="10.00">fstream</text>
</g>
<!-- Node2&#45;&gt;Node25 -->
<g id="edge76" class="edge"><title>Node2&#45;&gt;Node25</title>
<path fill="none" stroke="midnightblue" d="M728,-290.897C728,-283.339 728,-272.748 728,-263.446"/>
<polygon fill="midnightblue" stroke="midnightblue" points="731.5,-263.378 728,-253.378 724.5,-263.378 731.5,-263.378"/>
</g>
<!-- Node4 -->
<g id="node7" class="node"><title>Node4</title>
<a xlink:href="crossplatformexport_8h.html" target="_top" xlink:title="This file determines what features are offered by the compiler that this library can take advantage o...">
<polygon fill="white" stroke="black" points="346,-59 346,-79 454,-79 454,-59 346,-59"/>
<text text-anchor="middle" x="400" y="-66" font-family="FreeSans" font-size="10.00">crossplatformexport.h</text>
</a>
</g>
<!-- Node3&#45;&gt;Node4 -->
<g id="edge6" class="edge"><title>Node3&#45;&gt;Node4</title>
<path fill="none" stroke="midnightblue" d="M532.13,-116.897C505.941,-107.403 466.549,-93.124 437.588,-82.6258"/>
<polygon fill="midnightblue" stroke="midnightblue" points="438.413,-79.2018 427.818,-79.0842 436.027,-85.7827 438.413,-79.2018"/>
</g>
<!-- Node9 -->
<g id="node17" class="node"><title>Node9</title>
<polygon fill="white" stroke="#bfbfbf" points="510,-59 510,-79 550,-79 550,-59 510,-59"/>
<text text-anchor="middle" x="530" y="-66" font-family="FreeSans" font-size="10.00">string</text>
</g>
<!-- Node3&#45;&gt;Node9 -->
<g id="edge16" class="edge"><title>Node3&#45;&gt;Node9</title>
<path fill="none" stroke="midnightblue" d="M554.774,-116.897C550.738,-109.093 545.028,-98.0536 540.107,-88.5401"/>
<polygon fill="midnightblue" stroke="midnightblue" points="543.071,-86.6518 535.368,-79.3776 536.853,-89.8678 543.071,-86.6518"/>
</g>
<!-- Node10 -->
<g id="node19" class="node"><title>Node10</title>
<polygon fill="white" stroke="#bfbfbf" points="567.5,-59 567.5,-79 614.5,-79 614.5,-59 567.5,-59"/>
<text text-anchor="middle" x="591" y="-66" font-family="FreeSans" font-size="10.00">stdint.h</text>
</g>
<!-- Node3&#45;&gt;Node10 -->
<g id="edge18" class="edge"><title>Node3&#45;&gt;Node10</title>
<path fill="none" stroke="midnightblue" d="M565.4,-116.897C569.615,-109.01 575.596,-97.8209 580.716,-88.2401"/>
<polygon fill="midnightblue" stroke="midnightblue" points="583.826,-89.8468 585.453,-79.3776 577.653,-86.5471 583.826,-89.8468"/>
</g>
<!-- Node5 -->
<g id="node9" class="node"><title>Node5</title>
<polygon fill="white" stroke="#bfbfbf" points="447,-1 447,-21 503,-21 503,-1 447,-1"/>
<text text-anchor="middle" x="475" y="-8" font-family="FreeSans" font-size="10.00">pthread.h</text>
</g>
<!-- Node4&#45;&gt;Node5 -->
<g id="edge8" class="edge"><title>Node4&#45;&gt;Node5</title>
<path fill="none" stroke="midnightblue" d="M413.064,-58.8972C424.287,-50.2178 440.683,-37.5384 453.786,-27.4053"/>
<polygon fill="midnightblue" stroke="midnightblue" points="456.065,-30.0679 461.834,-21.1817 451.782,-24.5305 456.065,-30.0679"/>
</g>
<!-- Node6 -->
<g id="node11" class="node"><title>Node6</title>
<polygon fill="white" stroke="#bfbfbf" points="228.5,-1 228.5,-21 277.5,-21 277.5,-1 228.5,-1"/>
<text text-anchor="middle" x="253" y="-8" font-family="FreeSans" font-size="10.00">signal.h</text>
</g>
<!-- Node4&#45;&gt;Node6 -->
<g id="edge10" class="edge"><title>Node4&#45;&gt;Node6</title>
<path fill="none" stroke="midnightblue" d="M374.395,-58.8972C350.218,-49.3582 313.796,-34.9877 287.154,-24.4759"/>
<polygon fill="midnightblue" stroke="midnightblue" points="288.409,-21.2083 277.822,-20.7938 285.84,-27.7198 288.409,-21.2083"/>
</g>
<!-- Node7 -->
<g id="node13" class="node"><title>Node7</title>
<polygon fill="white" stroke="#bfbfbf" points="301,-1 301,-21 351,-21 351,-1 301,-1"/>
<text text-anchor="middle" x="326" y="-8" font-family="FreeSans" font-size="10.00">sched.h</text>
</g>
<!-- Node4&#45;&gt;Node7 -->
<g id="edge12" class="edge"><title>Node4&#45;&gt;Node7</title>
<path fill="none" stroke="midnightblue" d="M387.11,-58.8972C376.104,-50.271 360.058,-37.6938 347.169,-27.592"/>
<polygon fill="midnightblue" stroke="midnightblue" points="349.27,-24.7918 339.24,-21.3776 344.952,-30.3012 349.27,-24.7918"/>
</g>
<!-- Node8 -->
<g id="node15" class="node"><title>Node8</title>
<polygon fill="white" stroke="#bfbfbf" points="372,-1 372,-21 422,-21 422,-1 372,-1"/>
<text text-anchor="middle" x="397" y="-8" font-family="FreeSans" font-size="10.00">unistd.h</text>
</g>
<!-- Node4&#45;&gt;Node8 -->
<g id="edge14" class="edge"><title>Node4&#45;&gt;Node8</title>
<path fill="none" stroke="midnightblue" d="M399.477,-58.8972C399.087,-51.339 398.539,-40.7476 398.058,-31.4458"/>
<polygon fill="midnightblue" stroke="midnightblue" points="401.549,-31.1834 397.537,-21.3776 394.558,-31.5451 401.549,-31.1834"/>
</g>
<!-- Node11&#45;&gt;Node3 -->
<g id="edge22" class="edge"><title>Node11&#45;&gt;Node3</title>
<path fill="none" stroke="midnightblue" d="M133.742,-232.77C138.495,-217.213 149.844,-187.946 171,-174 199.466,-155.234 421.925,-137.035 517.069,-130.025"/>
<polygon fill="midnightblue" stroke="midnightblue" points="517.497,-133.503 527.216,-129.284 516.988,-126.521 517.497,-133.503"/>
</g>
<!-- Node11&#45;&gt;Node12 -->
<g id="edge24" class="edge"><title>Node11&#45;&gt;Node12</title>
<path fill="none" stroke="midnightblue" d="M113.059,-232.897C96.9848,-223.846 73.1854,-210.444 54.8456,-200.117"/>
<polygon fill="midnightblue" stroke="midnightblue" points="56.5121,-197.039 46.0812,-195.182 53.0774,-203.138 56.5121,-197.039"/>
</g>
<!-- Node13 -->
<g id="node26" class="node"><title>Node13</title>
<polygon fill="white" stroke="#bfbfbf" points="74,-175 74,-195 124,-195 124,-175 74,-175"/>
<text text-anchor="middle" x="99" y="-182" font-family="FreeSans" font-size="10.00">sstream</text>
</g>
<!-- Node11&#45;&gt;Node13 -->
<g id="edge26" class="edge"><title>Node11&#45;&gt;Node13</title>
<path fill="none" stroke="midnightblue" d="M125.426,-232.897C121.075,-225.01 114.901,-213.821 109.615,-204.24"/>
<polygon fill="midnightblue" stroke="midnightblue" points="112.621,-202.443 104.726,-195.378 106.492,-205.824 112.621,-202.443"/>
</g>
<!-- Node14 -->
<g id="node28" class="node"><title>Node14</title>
<polygon fill="white" stroke="#bfbfbf" points="439.5,-175 439.5,-195 482.5,-195 482.5,-175 439.5,-175"/>
<text text-anchor="middle" x="461" y="-182" font-family="FreeSans" font-size="10.00">vector</text>
</g>
<!-- Node11&#45;&gt;Node14 -->
<g id="edge28" class="edge"><title>Node11&#45;&gt;Node14</title>
<path fill="none" stroke="midnightblue" d="M188.105,-232.963C257.946,-220.688 373.715,-200.341 429.301,-190.571"/>
<polygon fill="midnightblue" stroke="midnightblue" points="430.026,-193.998 439.27,-188.819 428.815,-187.103 430.026,-193.998"/>
</g>
<!-- Node15&#45;&gt;Node14 -->
<g id="edge56" class="edge"><title>Node15&#45;&gt;Node14</title>
<path fill="none" stroke="midnightblue" d="M545.233,-232.897C529.388,-223.887 505.962,-210.567 487.834,-200.259"/>
<polygon fill="midnightblue" stroke="midnightblue" points="489.329,-197.082 478.906,-195.182 485.869,-203.167 489.329,-197.082"/>
</g>
<!-- Node16 -->
<g id="node32" class="node"><title>Node16</title>
<a xlink:href="crossplatformincludes_8h.html" target="_top" xlink:title="This file determines what features are offered by the compiler that this library can take advantage o...">
<polygon fill="white" stroke="black" points="259.5,-117 259.5,-137 376.5,-137 376.5,-117 259.5,-117"/>
<text text-anchor="middle" x="318" y="-124" font-family="FreeSans" font-size="10.00">crossplatformincludes.h</text>
</a>
</g>
<!-- Node15&#45;&gt;Node16 -->
<g id="edge32" class="edge"><title>Node15&#45;&gt;Node16</title>
<path fill="none" stroke="midnightblue" d="M555.305,-232.925C543.248,-217.842 518.428,-189.512 491,-174 459.083,-155.95 419.904,-144.559 386.905,-137.521"/>
<polygon fill="midnightblue" stroke="midnightblue" points="387.376,-134.045 376.878,-135.474 385.976,-140.904 387.376,-134.045"/>
</g>
<!-- Node15&#45;&gt;Node17 -->
<g id="edge44" class="edge"><title>Node15&#45;&gt;Node17</title>
<path fill="none" stroke="midnightblue" d="M576.935,-232.897C589.021,-224.135 606.729,-211.297 620.77,-201.116"/>
<polygon fill="midnightblue" stroke="midnightblue" points="622.915,-203.885 628.956,-195.182 618.806,-198.218 622.915,-203.885"/>
</g>
<!-- Node18 -->
<g id="node42" class="node"><title>Node18</title>
<a xlink:href="mutex_8h.html" target="_top" xlink:title="This file declares and defines a mutex that is a partial implementation.">
<polygon fill="white" stroke="black" points="180,-175 180,-195 230,-195 230,-175 180,-175"/>
<text text-anchor="middle" x="205" y="-182" font-family="FreeSans" font-size="10.00">mutex.h</text>
</a>
</g>
<!-- Node15&#45;&gt;Node18 -->
<g id="edge48" class="edge"><title>Node15&#45;&gt;Node18</title>
<path fill="none" stroke="midnightblue" d="M537.254,-238.829C474.143,-228.604 311.68,-202.283 239.94,-190.661"/>
<polygon fill="midnightblue" stroke="midnightblue" points="240.467,-187.201 230.036,-189.056 239.348,-194.11 240.467,-187.201"/>
</g>
<!-- Node19 -->
<g id="node46" class="node"><title>Node19</title>
<polygon fill="white" stroke="#bfbfbf" points="537.5,-175 537.5,-195 588.5,-195 588.5,-175 537.5,-175"/>
<text text-anchor="middle" x="563" y="-182" font-family="FreeSans" font-size="10.00">ostream</text>
</g>
<!-- Node15&#45;&gt;Node19 -->
<g id="edge54" class="edge"><title>Node15&#45;&gt;Node19</title>
<path fill="none" stroke="midnightblue" d="M563,-232.897C563,-225.339 563,-214.748 563,-205.446"/>
<polygon fill="midnightblue" stroke="midnightblue" points="566.5,-205.378 563,-195.378 559.5,-205.378 566.5,-205.378"/>
</g>
<!-- Node16&#45;&gt;Node4 -->
<g id="edge34" class="edge"><title>Node16&#45;&gt;Node4</title>
<path fill="none" stroke="midnightblue" d="M332.283,-116.897C344.671,-108.135 362.822,-95.2965 377.215,-85.1164"/>
<polygon fill="midnightblue" stroke="midnightblue" points="379.462,-87.8138 385.605,-79.1817 375.42,-82.0989 379.462,-87.8138"/>
</g>
<!-- Node16&#45;&gt;Node5 -->
<g id="edge36" class="edge"><title>Node16&#45;&gt;Node5</title>
<path fill="none" stroke="midnightblue" d="M366.419,-116.947C403.393,-108.278 450.121,-94.8397 463,-80 474.431,-66.8281 476.82,-46.7549 476.71,-31.6492"/>
<polygon fill="midnightblue" stroke="midnightblue" points="480.189,-31.0971 476.248,-21.2627 473.196,-31.4084 480.189,-31.0971"/>
</g>
<!-- Node16&#45;&gt;Node6 -->
<g id="edge38" class="edge"><title>Node16&#45;&gt;Node6</title>
<path fill="none" stroke="midnightblue" d="M312.232,-116.706C301.315,-97.2235 277.487,-54.6998 263.61,-29.9339"/>
<polygon fill="midnightblue" stroke="midnightblue" points="266.604,-28.1184 258.663,-21.1055 260.498,-31.5402 266.604,-28.1184"/>
</g>
<!-- Node16&#45;&gt;Node7 -->
<g id="edge40" class="edge"><title>Node16&#45;&gt;Node7</title>
<path fill="none" stroke="midnightblue" d="M313.189,-116.687C307.509,-103.176 299.382,-78.761 304,-58 306.137,-48.3921 310.457,-38.425 314.707,-30.155"/>
<polygon fill="midnightblue" stroke="midnightblue" points="317.796,-31.8016 319.53,-21.3496 311.657,-28.4391 317.796,-31.8016"/>
</g>
<!-- Node16&#45;&gt;Node8 -->
<g id="edge42" class="edge"><title>Node16&#45;&gt;Node8</title>
<path fill="none" stroke="midnightblue" d="M318.803,-116.813C320.344,-102.576 324.741,-76.4082 337,-58 345.416,-45.3621 358.343,-34.6106 370.045,-26.5936"/>
<polygon fill="midnightblue" stroke="midnightblue" points="372.172,-29.3858 378.66,-21.01 368.365,-23.5116 372.172,-29.3858"/>
</g>
<!-- Node17&#45;&gt;Node3 -->
<g id="edge46" class="edge"><title>Node17&#45;&gt;Node3</title>
<path fill="none" stroke="midnightblue" d="M628.543,-174.897C616.004,-166.135 597.631,-153.297 583.063,-143.116"/>
<polygon fill="midnightblue" stroke="midnightblue" points="584.772,-140.041 574.57,-137.182 580.762,-145.779 584.772,-140.041"/>
</g>
<!-- Node18&#45;&gt;Node9 -->
<g id="edge52" class="edge"><title>Node18&#45;&gt;Node9</title>
<path fill="none" stroke="midnightblue" d="M230.15,-177.807C234.752,-176.519 239.516,-175.205 244,-174 306.462,-157.22 324.179,-159.999 385,-138 427.397,-122.665 474.092,-99.1693 502.736,-83.943"/>
<polygon fill="midnightblue" stroke="midnightblue" points="504.569,-86.9319 511.726,-79.1201 501.26,-80.7635 504.569,-86.9319"/>
</g>
<!-- Node18&#45;&gt;Node16 -->
<g id="edge50" class="edge"><title>Node18&#45;&gt;Node16</title>
<path fill="none" stroke="midnightblue" d="M224.683,-174.897C242.479,-165.763 268.905,-152.199 289.098,-141.835"/>
<polygon fill="midnightblue" stroke="midnightblue" points="290.865,-144.862 298.163,-137.182 287.669,-138.634 290.865,-144.862"/>
</g>
<!-- Node20&#45;&gt;Node3 -->
<g id="edge60" class="edge"><title>Node20&#45;&gt;Node3</title>
<path fill="none" stroke="midnightblue" d="M956.95,-232.671C964.655,-217.778 975.482,-190.278 961,-174 937.484,-147.567 701.652,-133.594 603.015,-128.869"/>
<polygon fill="midnightblue" stroke="midnightblue" points="602.949,-125.362 592.796,-128.389 602.621,-132.354 602.949,-125.362"/>
</g>
<!-- Node21&#45;&gt;Node3 -->
<g id="edge66" class="edge"><title>Node21&#45;&gt;Node3</title>
<path fill="none" stroke="midnightblue" d="M864.046,-232.918C852.871,-217.559 829.374,-188.552 802,-174 768.132,-155.996 663.059,-140.163 603.091,-132.287"/>
<polygon fill="midnightblue" stroke="midnightblue" points="603.169,-128.768 592.803,-130.955 602.271,-135.71 603.169,-128.768"/>
</g>
<!-- Node21&#45;&gt;Node22 -->
<g id="edge68" class="edge"><title>Node21&#45;&gt;Node22</title>
<path fill="none" stroke="midnightblue" d="M876.574,-232.897C880.925,-225.01 887.099,-213.821 892.385,-204.24"/>
<polygon fill="midnightblue" stroke="midnightblue" points="895.508,-205.824 897.274,-195.378 889.379,-202.443 895.508,-205.824"/>
</g>
<!-- Node22&#45;&gt;Node3 -->
<g id="edge70" class="edge"><title>Node22&#45;&gt;Node3</title>
<path fill="none" stroke="midnightblue" d="M853.825,-176.382C849.153,-175.573 844.487,-174.768 840,-174 756.018,-159.62 657.788,-143.23 602.842,-134.102"/>
<polygon fill="midnightblue" stroke="midnightblue" points="603.211,-130.615 592.773,-132.43 602.065,-137.521 603.211,-130.615"/>
</g>
<!-- Node26&#45;&gt;Node3 -->
<g id="edge82" class="edge"><title>Node26&#45;&gt;Node3</title>
<path fill="none" stroke="midnightblue" d="M352.687,-406.906C318.298,-390.258 258,-353.571 258,-301 258,-301 258,-301 258,-243 258,-192.597 302.315,-195.292 348,-174 403.202,-148.273 473.157,-136.299 517.263,-130.966"/>
<polygon fill="midnightblue" stroke="midnightblue" points="517.815,-134.426 527.351,-129.808 517.017,-127.472 517.815,-134.426"/>
</g>
<!-- Node26&#45;&gt;Node11 -->
<g id="edge84" class="edge"><title>Node26&#45;&gt;Node11</title>
<path fill="none" stroke="midnightblue" d="M343.25,-410.193C315.183,-403.272 274.565,-390.592 244,-370 199.772,-340.203 161.682,-289.197 143.1,-261.768"/>
<polygon fill="midnightblue" stroke="midnightblue" points="145.809,-259.519 137.363,-253.122 139.976,-263.39 145.809,-259.519"/>
</g>
<!-- Node27 -->
<g id="node70" class="node"><title>Node27</title>
<a xlink:href="workunit_8h.html" target="_top" xlink:title="This file has the definition of the workunit.">
<polygon fill="white" stroke="black" points="463,-349 463,-369 523,-369 523,-349 463,-349"/>
<text text-anchor="middle" x="493" y="-356" font-family="FreeSans" font-size="10.00">workunit.h</text>
</a>
</g>
<!-- Node26&#45;&gt;Node27 -->
<g id="edge86" class="edge"><title>Node26&#45;&gt;Node27</title>
<path fill="none" stroke="midnightblue" d="M396.38,-406.897C414.889,-397.722 442.415,-384.076 463.358,-373.694"/>
<polygon fill="midnightblue" stroke="midnightblue" points="465.056,-376.759 472.461,-369.182 461.947,-370.487 465.056,-376.759"/>
</g>
<!-- Node27&#45;&gt;Node2 -->
<g id="edge90" class="edge"><title>Node27&#45;&gt;Node2</title>
<path fill="none" stroke="midnightblue" d="M523.241,-351.536C562.161,-341.93 630.344,-325.102 677.265,-313.522"/>
<polygon fill="midnightblue" stroke="midnightblue" points="678.361,-316.856 687.231,-311.062 676.683,-310.06 678.361,-316.856"/>
</g>
<!-- Node27&#45;&gt;Node3 -->
<g id="edge88" class="edge"><title>Node27&#45;&gt;Node3</title>
<path fill="none" stroke="midnightblue" d="M462.938,-355.466C417.048,-349.384 332.943,-335.296 315,-312 309.034,-304.254 312.688,-299.501 315,-290 328.722,-233.602 329.544,-210.095 375,-174 396.82,-156.673 469.8,-141.829 517.312,-133.683"/>
<polygon fill="midnightblue" stroke="midnightblue" points="518.048,-137.109 527.329,-132 516.888,-130.205 518.048,-137.109"/>
</g>
<!-- Node27&#45;&gt;Node14 -->
<g id="edge108" class="edge"><title>Node27&#45;&gt;Node14</title>
<path fill="none" stroke="midnightblue" d="M491.141,-348.893C486.016,-321.023 471.607,-242.675 464.736,-205.313"/>
<polygon fill="midnightblue" stroke="midnightblue" points="468.115,-204.337 462.864,-195.135 461.23,-205.603 468.115,-204.337"/>
</g>
<!-- Node27&#45;&gt;Node15 -->
<g id="edge104" class="edge"><title>Node27&#45;&gt;Node15</title>
<path fill="none" stroke="midnightblue" d="M500.706,-348.787C507.64,-339.425 517.946,-325.072 526,-312 536.098,-295.61 546.347,-276.237 553.49,-262.198"/>
<polygon fill="midnightblue" stroke="midnightblue" points="556.731,-263.543 558.095,-253.036 550.476,-260.399 556.731,-263.543"/>
</g>
<!-- Node27&#45;&gt;Node18 -->
<g id="edge92" class="edge"><title>Node27&#45;&gt;Node18</title>
<path fill="none" stroke="midnightblue" d="M462.722,-355.222C411.554,-348.358 310.738,-332.623 282,-312 244.292,-284.939 221.543,-233.144 211.359,-204.777"/>
<polygon fill="midnightblue" stroke="midnightblue" points="214.615,-203.481 208.066,-195.152 207.992,-205.747 214.615,-203.481"/>
</g>
<!-- Node27&#45;&gt;Node20 -->
<g id="edge106" class="edge"><title>Node27&#45;&gt;Node20</title>
<path fill="none" stroke="midnightblue" d="M523.021,-356.377C576.071,-351.246 689.521,-338.035 782,-312 832.532,-297.774 888.428,-273.068 921.589,-257.402"/>
<polygon fill="midnightblue" stroke="midnightblue" points="923.2,-260.511 930.718,-253.045 920.185,-254.193 923.2,-260.511"/>
</g>
<!-- Node28 -->
<g id="node75" class="node"><title>Node28</title>
<a xlink:href="rollingaverage_8h.html" target="_top" xlink:title="This stores the implementation and the declaration of the RollingAverage, BufferedRollingAverage, WeightedRollingAverage and the DefaultRollingAverage.">
<polygon fill="white" stroke="black" points="361.5,-233 361.5,-253 444.5,-253 444.5,-233 361.5,-233"/>
<text text-anchor="middle" x="403" y="-240" font-family="FreeSans" font-size="10.00">rollingaverage.h</text>
</a>
</g>
<!-- Node27&#45;&gt;Node28 -->
<g id="edge94" class="edge"><title>Node27&#45;&gt;Node28</title>
<path fill="none" stroke="midnightblue" d="M488.563,-348.525C482.298,-334.408 469.94,-308.871 455,-290 446.149,-278.819 434.504,-268.026 424.479,-259.608"/>
<polygon fill="midnightblue" stroke="midnightblue" points="426.5,-256.74 416.535,-253.14 422.08,-262.168 426.5,-256.74"/>
</g>
<!-- Node29 -->
<g id="node79" class="node"><title>Node29</title>
<a xlink:href="threadingenumerations_8h.html" target="_top" xlink:title="Any enumerations the threading library requires are all declared here.">
<polygon fill="white" stroke="black" points="324,-291 324,-311 446,-311 446,-291 324,-291"/>
<text text-anchor="middle" x="385" y="-298" font-family="FreeSans" font-size="10.00">threadingenumerations.h</text>
</a>
</g>
<!-- Node27&#45;&gt;Node29 -->
<g id="edge100" class="edge"><title>Node27&#45;&gt;Node29</title>
<path fill="none" stroke="midnightblue" d="M474.188,-348.897C457.257,-339.804 432.151,-326.322 412.886,-315.976"/>
<polygon fill="midnightblue" stroke="midnightblue" points="414.425,-312.829 403.959,-311.182 411.113,-318.996 414.425,-312.829"/>
</g>
<!-- Node28&#45;&gt;Node3 -->
<g id="edge98" class="edge"><title>Node28&#45;&gt;Node3</title>
<path fill="none" stroke="midnightblue" d="M404.51,-232.638C407.213,-217.705 414.251,-190.155 431,-174 454.531,-151.304 489.876,-139.436 517.622,-133.309"/>
<polygon fill="midnightblue" stroke="midnightblue" points="518.366,-136.729 527.465,-131.302 516.967,-129.871 518.366,-136.729"/>
</g>
<!-- Node28&#45;&gt;Node14 -->
<g id="edge96" class="edge"><title>Node28&#45;&gt;Node14</title>
<path fill="none" stroke="midnightblue" d="M413.103,-232.897C421.483,-224.517 433.591,-212.409 443.536,-202.464"/>
<polygon fill="midnightblue" stroke="midnightblue" points="446.026,-204.924 450.622,-195.378 441.076,-199.974 446.026,-204.924"/>
</g>
<!-- Node29&#45;&gt;Node3 -->
<g id="edge102" class="edge"><title>Node29&#45;&gt;Node3</title>
<path fill="none" stroke="midnightblue" d="M374.492,-290.808C362.035,-277.427 344.028,-253.152 353,-232 367.483,-197.856 381.168,-193.036 413,-174 445.436,-154.603 486.757,-142.312 517.323,-135.186"/>
<polygon fill="midnightblue" stroke="midnightblue" points="518.255,-138.564 527.249,-132.964 516.726,-131.733 518.255,-138.564"/>
</g>
<!-- Node30&#45;&gt;Node3 -->
<g id="edge112" class="edge"><title>Node30&#45;&gt;Node3</title>
<path fill="none" stroke="midnightblue" d="M895.33,-406.895C932.678,-369.275 1054.55,-236.299 978,-174 949.28,-150.628 703.69,-134.788 602.899,-129.216"/>
<polygon fill="midnightblue" stroke="midnightblue" points="602.934,-125.713 592.758,-128.663 602.553,-132.702 602.934,-125.713"/>
</g>
<!-- Node30&#45;&gt;Node14 -->
<g id="edge118" class="edge"><title>Node30&#45;&gt;Node14</title>
<path fill="none" stroke="midnightblue" d="M853.483,-406.932C788.833,-385.378 638.125,-330.438 529,-254 508.272,-239.481 488.419,-218.192 475.572,-203.107"/>
<polygon fill="midnightblue" stroke="midnightblue" points="477.95,-200.492 468.865,-195.041 472.567,-204.968 477.95,-200.492"/>
</g>
<!-- Node30&#45;&gt;Node20 -->
<g id="edge116" class="edge"><title>Node30&#45;&gt;Node20</title>
<path fill="none" stroke="midnightblue" d="M888.834,-406.893C899.451,-378.903 929.38,-299.999 943.477,-262.832"/>
<polygon fill="midnightblue" stroke="midnightblue" points="946.882,-263.726 947.156,-253.135 940.337,-261.244 946.882,-263.726"/>
</g>
<!-- Node30&#45;&gt;Node27 -->
<g id="edge114" class="edge"><title>Node30&#45;&gt;Node27</title>
<path fill="none" stroke="midnightblue" d="M819.388,-407.292C737.875,-395.231 601.296,-375.023 533.59,-365.006"/>
<polygon fill="midnightblue" stroke="midnightblue" points="533.739,-361.49 523.334,-363.488 532.714,-368.414 533.739,-361.49"/>
</g>
</g>
</svg>
        <g id="navigator" transform="translate(0 0)" fill="#404254">
                <rect fill="#f2f5e9" fill-opacity="0.5" stroke="#606060" stroke-width=".5" x="0" y="0" width="60" height="60"/>
                <use id="zoomplus" xlink:href="#zoomPlus" x="17" y="9" onmousedown="handleZoom(evt,'in')"/>
                <use id="zoomminus" xlink:href="#zoomMin" x="42" y="9" onmousedown="handleZoom(evt,'out')"/>
                <use id="reset" xlink:href="#resetDef" x="30" y="36" onmousedown="handleReset()"/>
                <g id="arrowUp" xlink:href="#dirArrow" transform="translate(30 24)" onmousedown="handlePan(0,-1)">
                  <use xlink:href="#rim" fill="#404040">
                        <set attributeName="fill" to="#808080" begin="arrowUp.mouseover" end="arrowUp.mouseout"/>
                  </use>
                  <path fill="none" stroke="white" stroke-width="1.5" d="M0,-3.0v7 M-2.5,-0.5L0,-3.0L2.5,-0.5"/>
                </g>
                <g id="arrowRight" xlink:href="#dirArrow" transform="rotate(90) translate(36 -43)" onmousedown="handlePan(1,0)">
                  <use xlink:href="#rim" fill="#404040">
                        <set attributeName="fill" to="#808080" begin="arrowRight.mouseover" end="arrowRight.mouseout"/>
                  </use>
                  <path fill="none" stroke="white" stroke-width="1.5" d="M0,-3.0v7 M-2.5,-0.5L0,-3.0L2.5,-0.5"/>
                </g>
                <g id="arrowDown" xlink:href="#dirArrow" transform="rotate(180) translate(-30 -48)" onmousedown="handlePan(0,1)">
                  <use xlink:href="#rim" fill="#404040">
                        <set attributeName="fill" to="#808080" begin="arrowDown.mouseover" end="arrowDown.mouseout"/>
                  </use>
                  <path fill="none" stroke="white" stroke-width="1.5" d="M0,-3.0v7 M-2.5,-0.5L0,-3.0L2.5,-0.5"/>
                </g>
                <g id="arrowLeft" xlink:href="#dirArrow" transform="rotate(270) translate(-36 17)" onmousedown="handlePan(-1,0)">
                  <use xlink:href="#rim" fill="#404040">
                        <set attributeName="fill" to="#808080" begin="arrowLeft.mouseover" end="arrowLeft.mouseout"/>
                  </use>
                  <path fill="none" stroke="white" stroke-width="1.5" d="M0,-3.0v7 M-2.5,-0.5L0,-3.0L2.5,-0.5"/>
                </g>
        </g>
        <svg viewBox="0 0 15 15" width="100%" height="30px" preserveAspectRatio="xMaxYMin meet">
         <g id="arrow_out" transform="scale(0.3 0.3)">
          <a xlink:href="framescheduler_8cpp__incl_org.svg" target="_base">
           <rect id="button" ry="5" rx="5" y="6" x="6" height="38" width="38"
                fill="#f2f5e9" fill-opacity="0.5" stroke="#606060" stroke-width="1.0"/>
           <path id="arrow"
             d="M 11.500037,31.436501 C 11.940474,20.09759 22.043105,11.32322 32.158766,21.979434 L 37.068811,17.246167 C 37.068811,17.246167 37.088388,32 37.088388,32 L 22.160133,31.978069 C 22.160133,31.978069 26.997745,27.140456 26.997745,27.140456 C 18.528582,18.264221 13.291696,25.230495 11.500037,31.436501 z"
             style="fill:#404040;"/>
          </a>
         </g>
        </svg>
</svg>
