<?xml version="1.0" encoding="UTF-8" standalone="no"?>
<!DOCTYPE svg PUBLIC "-//W3C//DTD SVG 1.1//EN"
 "http://www.w3.org/Graphics/SVG/1.1/DTD/svg11.dtd">
<!-- Generated by graphviz version 2.26.3 (20100126.1600)
 -->
<!-- Title: framescheduler.h Pages: 1 -->
<!--zoomable 262 -->
<svg id="main" version="1.1" xmlns="http://www.w3.org/2000/svg" xmlns:xlink="http://www.w3.org/1999/xlink" xml:space="preserve" onload="init(evt)">
<style type="text/css"><![CDATA[
.edge:hover path { stroke: red; }
.edge:hover polygon { stroke: red; fill: red; }
]]></style>
<script type="text/javascript"><![CDATA[
var edges = document.getElementsByTagName('g');
if (edges && edges.length) {
  for (var i=0;i<edges.length;i++) {
    if (edges[i].id.substr(0,4)=='edge') {
      edges[i].setAttribute('class','edge');
    }
  }
}
]]></script>
        <defs>
                <circle id="rim" cx="0" cy="0" r="7"/>
                <circle id="rim2" cx="0" cy="0" r="3.5"/>
                <g id="zoomPlus">
                        <use xlink:href="#rim" fill="#404040">
                                <set attributeName="fill" to="#808080" begin="zoomplus.mouseover" end="zoomplus.mouseout"/>
                        </use>
                        <path d="M-4,0h8M0,-4v8" fill="none" stroke="white" stroke-width="1.5" pointer-events="none"/>
                </g>
                <g id="zoomMin">
                        <use xlink:href="#rim" fill="#404040">
                                <set attributeName="fill" to="#808080" begin="zoomminus.mouseover" end="zoomminus.mouseout"/>
                        </use>
                        <path d="M-4,0h8" fill="none" stroke="white" stroke-width="1.5" pointer-events="none"/>
                </g>
                <g id="dirArrow">
                        <path fill="none" stroke="white" stroke-width="1.5" d="M0,-3.0v7 M-2.5,-0.5L0,-3.0L2.5,-0.5"/>
                </g>
               <g id="resetDef">
                       <use xlink:href="#rim2" fill="#404040">
                               <set attributeName="fill" to="#808080" begin="reset.mouseover" end="reset.mouseout"/>
                       </use>
               </g>
        </defs>

<script type="text/javascript">
var viewWidth = 813;
var viewHeight = 262;
var sectionId = 'dynsection-1';
</script>
<script xlink:href="svgpan.js"/>
<svg id="graph" class="graph">
<g id="viewport">
<title>framescheduler.h</title>
<polygon fill="white" stroke="white" points="-4,5 -4,-258 810.479,-258 810.479,5 -4,5"/>
<!-- Node1 -->
<g id="node1" class="node"><title>Node1</title>
<polygon fill="#bfbfbf" stroke="black" points="2.47938,-233 2.47938,-253 92.4794,-253 92.4794,-233 2.47938,-233"/>
<text text-anchor="middle" x="47.4794" y="-240" font-family="FreeSans" font-size="10.00">framescheduler.h</text>
</g>
<!-- Node2 -->
<g id="node3" class="node"><title>Node2</title>
<a xlink:href="workunit_8h.html" target="_top" xlink:title="This file has the definition of the workunit. ">
<polygon fill="white" stroke="black" points="84.4794,-175 84.4794,-195 144.479,-195 144.479,-175 84.4794,-175"/>
<text text-anchor="middle" x="114.479" y="-182" font-family="FreeSans" font-size="10.00">workunit.h</text>
</a>
</g>
<!-- Node1&#45;&gt;Node2 -->
<g id="edge2" class="edge"><title>Node1&#45;&gt;Node2</title>
<path fill="none" stroke="midnightblue" d="M66.9435,-226.15C78.4376,-216.2 92.6228,-203.921 102.491,-195.378"/>
<polygon fill="midnightblue" stroke="midnightblue" points="64.4198,-223.706 59.1499,-232.897 69.0013,-228.998 64.4198,-223.706"/>
</g>
<!-- Node6 -->
<g id="node11" class="node"><title>Node6</title>
<a xlink:href="dagframescheduler_8h.html" target="_top" xlink:title="This is the file that code using this library should include. It includes all the required components...">
<polygon fill="white" stroke="black" points="123.479,-1 123.479,-21 229.479,-21 229.479,-1 123.479,-1"/>
<text text-anchor="middle" x="176.479" y="-8" font-family="FreeSans" font-size="10.00">dagframescheduler.h</text>
</a>
</g>
<!-- Node1&#45;&gt;Node6 -->
<g id="edge36" class="edge"><title>Node1&#45;&gt;Node6</title>
<path fill="none" stroke="midnightblue" d="M35.8862,-223.97C15.5112,-187.806 -21.1577,-108.283 16.4794,-58 29.4475,-40.6746 81.8353,-27.5559 123.179,-19.6393"/>
<polygon fill="midnightblue" stroke="midnightblue" points="33.0664,-226.083 41.1257,-232.96 39.1143,-222.558 33.0664,-226.083"/>
</g>
<!-- Node9 -->
<g id="node19" class="node"><title>Node9</title>
<a xlink:href="framescheduler_8cpp.html" target="_top" xlink:title="This is the core object implementation for this algorithm. ">
<polygon fill="white" stroke="black" points="204.979,-59 204.979,-79 305.979,-79 305.979,-59 204.979,-59"/>
<text text-anchor="middle" x="255.479" y="-66" font-family="FreeSans" font-size="10.00">framescheduler.cpp</text>
</a>
</g>
<!-- Node1&#45;&gt;Node9 -->
<g id="edge40" class="edge"><title>Node1&#45;&gt;Node9</title>
<path fill="none" stroke="midnightblue" d="M38.9658,-223.086C28.7631,-195.749 15.9084,-146.523 40.4794,-116 45.683,-109.536 142.863,-90.1959 204.771,-78.4356"/>
<polygon fill="midnightblue" stroke="midnightblue" points="35.8488,-224.72 42.7948,-232.72 42.3539,-222.135 35.8488,-224.72"/>
</g>
<!-- Node14 -->
<g id="node33" class="node"><title>Node14</title>
<a xlink:href="doublebufferedresource_8cpp.html" target="_top" xlink:title="This file defines the template double buffered resources that can be attached to a thread...">
<polygon fill="white" stroke="black" points="162.479,-175 162.479,-195 296.479,-195 296.479,-175 162.479,-175"/>
<text text-anchor="middle" x="229.479" y="-182" font-family="FreeSans" font-size="10.00">doublebufferedresource.cpp</text>
</a>
</g>
<!-- Node1&#45;&gt;Node14 -->
<g id="edge38" class="edge"><title>Node1&#45;&gt;Node14</title>
<path fill="none" stroke="midnightblue" d="M89.0117,-229.764C122.082,-219.225 167.675,-204.696 197.836,-195.084"/>
<polygon fill="midnightblue" stroke="midnightblue" points="87.6465,-226.526 79.1814,-232.897 89.772,-233.196 87.6465,-226.526"/>
</g>
<!-- Node3 -->
<g id="node5" class="node"><title>Node3</title>
<a xlink:href="asynchronousworkunit_8h.html" target="_top" xlink:title="Contains an interface for a kind of WorkUnit that loads or does other work even when the frame schedu...">
<polygon fill="white" stroke="black" points="451.979,-117 451.979,-137 570.979,-137 570.979,-117 451.979,-117"/>
<text text-anchor="middle" x="511.479" y="-124" font-family="FreeSans" font-size="10.00">asynchronousworkunit.h</text>
</a>
</g>
<!-- Node2&#45;&gt;Node3 -->
<g id="edge4" class="edge"><title>Node2&#45;&gt;Node3</title>
<path fill="none" stroke="midnightblue" d="M154.546,-174.007C264.565,-151.844 382.485,-138.78 451.813,-132.175"/>
<polygon fill="midnightblue" stroke="midnightblue" points="153.704,-170.606 144.607,-176.038 155.106,-177.464 153.704,-170.606"/>
</g>
<!-- Node2&#45;&gt;Node6 -->
<g id="edge32" class="edge"><title>Node2&#45;&gt;Node6</title>
<path fill="none" stroke="midnightblue" d="M79.0697,-170.323C64.9341,-162.711 49.8262,-152.025 40.4794,-138 20.6081,-108.183 9.37834,-86.9603 30.4794,-58 41.8481,-42.397 87.1773,-29.3909 124.349,-21.0456"/>
<polygon fill="midnightblue" stroke="midnightblue" points="77.6412,-173.522 88.1481,-174.885 80.7843,-167.267 77.6412,-173.522"/>
</g>
<!-- Node8 -->
<g id="node16" class="node"><title>Node8</title>
<a xlink:href="frameschedulerworkunits_8h.html" target="_top" xlink:title="This defines a number of workunits that are required for doing some tasks that the Framescheduler req...">
<polygon fill="white" stroke="black" points="48.9794,-117 48.9794,-137 179.979,-137 179.979,-117 48.9794,-117"/>
<text text-anchor="middle" x="114.479" y="-124" font-family="FreeSans" font-size="10.00">frameschedulerworkunits.h</text>
</a>
</g>
<!-- Node2&#45;&gt;Node8 -->
<g id="edge16" class="edge"><title>Node2&#45;&gt;Node8</title>
<path fill="none" stroke="midnightblue" d="M114.479,-164.89C114.479,-155.62 114.479,-145.008 114.479,-137.378"/>
<polygon fill="midnightblue" stroke="midnightblue" points="110.979,-164.897 114.479,-174.897 117.979,-164.897 110.979,-164.897"/>
</g>
<!-- Node11 -->
<g id="node23" class="node"><title>Node11</title>
<a xlink:href="monopoly_8h.html" target="_top" xlink:title="Contains an interface for a kind of WorkUnit that consumes time on multiple thread. ">
<polygon fill="white" stroke="black" points="292.979,-117 292.979,-137 357.979,-137 357.979,-117 292.979,-117"/>
<text text-anchor="middle" x="325.479" y="-124" font-family="FreeSans" font-size="10.00">monopoly.h</text>
</a>
</g>
<!-- Node2&#45;&gt;Node11 -->
<g id="edge24" class="edge"><title>Node2&#45;&gt;Node11</title>
<path fill="none" stroke="midnightblue" d="M154.42,-173.752C208.251,-158.827 260.149,-144.7 292.804,-135.844"/>
<polygon fill="midnightblue" stroke="midnightblue" points="153.406,-170.401 144.706,-176.448 155.278,-177.146 153.406,-170.401"/>
</g>
<!-- Node13 -->
<g id="node30" class="node"><title>Node13</title>
<a xlink:href="workunit_8cpp.html" target="_top" xlink:title="This file has the implementation of the Mezzanine::Threading::DefaultWorkUnit. ">
<polygon fill="white" stroke="black" points="196.979,-117 196.979,-137 267.979,-137 267.979,-117 196.979,-117"/>
<text text-anchor="middle" x="232.479" y="-124" font-family="FreeSans" font-size="10.00">workunit.cpp</text>
</a>
</g>
<!-- Node2&#45;&gt;Node13 -->
<g id="edge34" class="edge"><title>Node2&#45;&gt;Node13</title>
<path fill="none" stroke="midnightblue" d="M144.194,-170.395C165.277,-160.031 193.046,-146.383 211.765,-137.182"/>
<polygon fill="midnightblue" stroke="midnightblue" points="142.464,-167.345 135.033,-174.897 145.552,-173.627 142.464,-167.345"/>
</g>
<!-- Node4 -->
<g id="node7" class="node"><title>Node4</title>
<a xlink:href="asynchronousfileloadingworkunit_8h.html" target="_top" xlink:title="The declaration of the AsynchronousFileLoadWorkUnit a workunit that loads a listing of files asynchro...">
<polygon fill="white" stroke="black" points="638.979,-59 638.979,-79 799.979,-79 799.979,-59 638.979,-59"/>
<text text-anchor="middle" x="719.479" y="-66" font-family="FreeSans" font-size="10.00">asynchronousfileloadingworkunit.h</text>
</a>
</g>
<!-- Node3&#45;&gt;Node4 -->
<g id="edge6" class="edge"><title>Node3&#45;&gt;Node4</title>
<path fill="none" stroke="midnightblue" d="M557.486,-114.171C595.39,-103.602 648.4,-88.8202 683.315,-79.0842"/>
<polygon fill="midnightblue" stroke="midnightblue" points="556.403,-110.84 547.71,-116.897 558.283,-117.582 556.403,-110.84"/>
</g>
<!-- Node3&#45;&gt;Node6 -->
<g id="edge14" class="edge"><title>Node3&#45;&gt;Node6</title>
<path fill="none" stroke="midnightblue" d="M499.142,-108.267C487.533,-92.243 468.648,-69.9326 446.479,-58 409.873,-38.2957 297.432,-23.592 229.746,-16.2434"/>
<polygon fill="midnightblue" stroke="midnightblue" points="496.526,-110.636 505.107,-116.85 502.274,-106.641 496.526,-110.636"/>
</g>
<!-- Node7 -->
<g id="node13" class="node"><title>Node7</title>
<a xlink:href="asynchronousworkunit_8cpp.html" target="_top" xlink:title="Contains very little actually. ">
<polygon fill="white" stroke="black" points="492.979,-59 492.979,-79 621.979,-79 621.979,-59 492.979,-59"/>
<text text-anchor="middle" x="557.479" y="-66" font-family="FreeSans" font-size="10.00">asynchronousworkunit.cpp</text>
</a>
</g>
<!-- Node3&#45;&gt;Node7 -->
<g id="edge12" class="edge"><title>Node3&#45;&gt;Node7</title>
<path fill="none" stroke="midnightblue" d="M525.77,-108.981C533.486,-99.2522 542.736,-87.5889 549.249,-79.3776"/>
<polygon fill="midnightblue" stroke="midnightblue" points="522.964,-106.887 519.492,-116.897 528.448,-111.237 522.964,-106.887"/>
</g>
<!-- Node5 -->
<g id="node9" class="node"><title>Node5</title>
<a xlink:href="asynchronousfileloadingworkunit_8cpp.html" target="_top" xlink:title="The implementation of the AsynchronousFileLoadWorkUnit a workunit that loads a listing of files async...">
<polygon fill="white" stroke="black" points="633.479,-1 633.479,-21 805.479,-21 805.479,-1 633.479,-1"/>
<text text-anchor="middle" x="719.479" y="-8" font-family="FreeSans" font-size="10.00">asynchronousfileloadingworkunit.cpp</text>
</a>
</g>
<!-- Node4&#45;&gt;Node5 -->
<g id="edge8" class="edge"><title>Node4&#45;&gt;Node5</title>
<path fill="none" stroke="midnightblue" d="M719.479,-48.8902C719.479,-39.6201 719.479,-29.0083 719.479,-21.3776"/>
<polygon fill="midnightblue" stroke="midnightblue" points="715.979,-48.8971 719.479,-58.8972 722.979,-48.8972 715.979,-48.8971"/>
</g>
<!-- Node4&#45;&gt;Node6 -->
<g id="edge10" class="edge"><title>Node4&#45;&gt;Node6</title>
<path fill="none" stroke="midnightblue" d="M628.599,-57.8018C477.962,-40.787 312.547,-24.28 229.636,-16.1584"/>
<polygon fill="midnightblue" stroke="midnightblue" points="628.627,-61.3273 638.958,-58.9753 629.415,-54.3718 628.627,-61.3273"/>
</g>
<!-- Node8&#45;&gt;Node6 -->
<g id="edge18" class="edge"><title>Node8&#45;&gt;Node6</title>
<path fill="none" stroke="midnightblue" d="M78.7993,-112.787C52.1403,-100.003 22.7977,-79.907 38.4794,-58 49.3074,-42.8734 93.2025,-29.6216 128.619,-21.0791"/>
<polygon fill="midnightblue" stroke="midnightblue" points="77.4875,-116.035 88.0388,-116.995 80.3888,-109.665 77.4875,-116.035"/>
</g>
<!-- Node8&#45;&gt;Node9 -->
<g id="edge20" class="edge"><title>Node8&#45;&gt;Node9</title>
<path fill="none" stroke="midnightblue" d="M148.296,-113.09C173.679,-102.649 207.856,-88.5898 230.727,-79.1817"/>
<polygon fill="midnightblue" stroke="midnightblue" points="146.956,-109.856 139.04,-116.897 149.619,-116.33 146.956,-109.856"/>
</g>
<!-- Node10 -->
<g id="node21" class="node"><title>Node10</title>
<a xlink:href="frameschedulerworkunits_8cpp.html" target="_top" xlink:title="The implementation of any workunits the framescheduler needs to work correctly. ">
<polygon fill="white" stroke="black" points="46.9794,-59 46.9794,-79 187.979,-79 187.979,-59 46.9794,-59"/>
<text text-anchor="middle" x="117.479" y="-66" font-family="FreeSans" font-size="10.00">frameschedulerworkunits.cpp</text>
</a>
</g>
<!-- Node8&#45;&gt;Node10 -->
<g id="edge22" class="edge"><title>Node8&#45;&gt;Node10</title>
<path fill="none" stroke="midnightblue" d="M115.52,-106.89C115.999,-97.6201 116.548,-87.0083 116.943,-79.3776"/>
<polygon fill="midnightblue" stroke="midnightblue" points="112.023,-106.73 115.002,-116.897 119.014,-107.091 112.023,-106.73"/>
</g>
<!-- Node11&#45;&gt;Node6 -->
<g id="edge26" class="edge"><title>Node11&#45;&gt;Node6</title>
<path fill="none" stroke="midnightblue" d="M327.473,-106.428C327.794,-91.3616 325.693,-71.3044 314.479,-58 302.246,-43.4854 256.97,-29.8439 221.573,-21.0356"/>
<polygon fill="midnightblue" stroke="midnightblue" points="323.958,-106.594 326.867,-116.781 330.946,-107.003 323.958,-106.594"/>
</g>
<!-- Node11&#45;&gt;Node9 -->
<g id="edge28" class="edge"><title>Node11&#45;&gt;Node9</title>
<path fill="none" stroke="midnightblue" d="M305.493,-110.44C293.423,-100.439 278.415,-88.0036 268.004,-79.3776"/>
<polygon fill="midnightblue" stroke="midnightblue" points="303.353,-113.212 313.286,-116.897 307.819,-107.822 303.353,-113.212"/>
</g>
<!-- Node12 -->
<g id="node27" class="node"><title>Node12</title>
<a xlink:href="monopoly_8cpp.html" target="_top" xlink:title="Contains the minimal implementation for the monopoly base class. ">
<polygon fill="white" stroke="black" points="361.479,-59 361.479,-79 437.479,-79 437.479,-59 361.479,-59"/>
<text text-anchor="middle" x="399.479" y="-66" font-family="FreeSans" font-size="10.00">monopoly.cpp</text>
</a>
</g>
<!-- Node11&#45;&gt;Node12 -->
<g id="edge30" class="edge"><title>Node11&#45;&gt;Node12</title>
<path fill="none" stroke="midnightblue" d="M346.241,-110.727C359.062,-100.679 375.128,-88.0865 386.239,-79.3776"/>
<polygon fill="midnightblue" stroke="midnightblue" points="344.081,-107.974 338.369,-116.897 348.399,-113.483 344.081,-107.974"/>
</g>
</g>
</svg>
        <g id="navigator" transform="translate(0 0)" fill="#404254">
                <rect fill="#f2f5e9" fill-opacity="0.5" stroke="#606060" stroke-width=".5" x="0" y="0" width="60" height="60"/>
                <use id="zoomplus" xlink:href="#zoomPlus" x="17" y="9" onmousedown="handleZoom(evt,'in')"/>
                <use id="zoomminus" xlink:href="#zoomMin" x="42" y="9" onmousedown="handleZoom(evt,'out')"/>
                <use id="reset" xlink:href="#resetDef" x="30" y="36" onmousedown="handleReset()"/>
                <g id="arrowUp" xlink:href="#dirArrow" transform="translate(30 24)" onmousedown="handlePan(0,-1)">
                  <use xlink:href="#rim" fill="#404040">
                        <set attributeName="fill" to="#808080" begin="arrowUp.mouseover" end="arrowUp.mouseout"/>
                  </use>
                  <path fill="none" stroke="white" stroke-width="1.5" d="M0,-3.0v7 M-2.5,-0.5L0,-3.0L2.5,-0.5"/>
                </g>
                <g id="arrowRight" xlink:href="#dirArrow" transform="rotate(90) translate(36 -43)" onmousedown="handlePan(1,0)">
                  <use xlink:href="#rim" fill="#404040">
                        <set attributeName="fill" to="#808080" begin="arrowRight.mouseover" end="arrowRight.mouseout"/>
                  </use>
                  <path fill="none" stroke="white" stroke-width="1.5" d="M0,-3.0v7 M-2.5,-0.5L0,-3.0L2.5,-0.5"/>
                </g>
                <g id="arrowDown" xlink:href="#dirArrow" transform="rotate(180) translate(-30 -48)" onmousedown="handlePan(0,1)">
                  <use xlink:href="#rim" fill="#404040">
                        <set attributeName="fill" to="#808080" begin="arrowDown.mouseover" end="arrowDown.mouseout"/>
                  </use>
                  <path fill="none" stroke="white" stroke-width="1.5" d="M0,-3.0v7 M-2.5,-0.5L0,-3.0L2.5,-0.5"/>
                </g>
                <g id="arrowLeft" xlink:href="#dirArrow" transform="rotate(270) translate(-36 17)" onmousedown="handlePan(-1,0)">
                  <use xlink:href="#rim" fill="#404040">
                        <set attributeName="fill" to="#808080" begin="arrowLeft.mouseover" end="arrowLeft.mouseout"/>
                  </use>
                  <path fill="none" stroke="white" stroke-width="1.5" d="M0,-3.0v7 M-2.5,-0.5L0,-3.0L2.5,-0.5"/>
                </g>
        </g>
        <svg viewBox="0 0 15 15" width="100%" height="30px" preserveAspectRatio="xMaxYMin meet">
         <g id="arrow_out" transform="scale(0.3 0.3)">
          <a xlink:href="framescheduler_8h__dep__incl_org.svg" target="_base">
           <rect id="button" ry="5" rx="5" y="6" x="6" height="38" width="38"
                fill="#f2f5e9" fill-opacity="0.5" stroke="#606060" stroke-width="1.0"/>
           <path id="arrow"
             d="M 11.500037,31.436501 C 11.940474,20.09759 22.043105,11.32322 32.158766,21.979434 L 37.068811,17.246167 C 37.068811,17.246167 37.088388,32 37.088388,32 L 22.160133,31.978069 C 22.160133,31.978069 26.997745,27.140456 26.997745,27.140456 C 18.528582,18.264221 13.291696,25.230495 11.500037,31.436501 z"
             style="fill:#404040;"/>
          </a>
         </g>
        </svg>
</svg>
