<?xml version="1.0" encoding="UTF-8" standalone="no"?>
<!DOCTYPE svg PUBLIC "-//W3C//DTD SVG 1.1//EN"
 "http://www.w3.org/Graphics/SVG/1.1/DTD/svg11.dtd">
<!-- Generated by graphviz version 2.26.3 (20100126.1600)
 -->
<!-- Title: G Pages: 1 -->
<!--zoomable 512 -->
<svg id="main" version="1.1" xmlns="http://www.w3.org/2000/svg" xmlns:xlink="http://www.w3.org/1999/xlink" xml:space="preserve" onload="init(evt)">
        <defs>
                <circle id="rim" cx="0" cy="0" r="7"/>
                <circle id="rim2" cx="0" cy="0" r="3.5"/>
                <g id="zoomPlus">
                        <use xlink:href="#rim" fill="#404040">
                                <set attributeName="fill" to="#808080" begin="zoomplus.mouseover" end="zoomplus.mouseout"/>
                        </use>
                        <path d="M-4,0h8M0,-4v8" fill="none" stroke="white" stroke-width="1.5" pointer-events="none"/>
                </g>
                <g id="zoomMin">
                        <use xlink:href="#rim" fill="#404040">
                                <set attributeName="fill" to="#808080" begin="zoomminus.mouseover" end="zoomminus.mouseout"/>
                        </use>
                        <path d="M-4,0h8" fill="none" stroke="white" stroke-width="1.5" pointer-events="none"/>
                </g>
                <g id="dirArrow">
                        <path fill="none" stroke="white" stroke-width="1.5" d="M0,-3.0v7 M-2.5,-0.5L0,-3.0L2.5,-0.5"/>
                </g>
               <g id="resetDef">
                       <use xlink:href="#rim2" fill="#404040">
                               <set attributeName="fill" to="#808080" begin="reset.mouseover" end="reset.mouseout"/>
                       </use>
               </g>
        </defs>

<script type="text/javascript">
var viewWidth = 848;
var viewHeight = 512;
var sectionId = 'dynsection-0';
</script>
<script xlink:href="svgpan.js"/>
<svg id="graph" class="graph">
<g id="viewport">
<title>G</title>
<polygon fill="white" stroke="white" points="-4,5 -4,-508 844.658,-508 844.658,5 -4,5"/>
<!-- Node1 -->
<g id="node1" class="node"><title>Node1</title>
<polygon fill="#bfbfbf" stroke="black" points="346,-481 346,-503 450,-503 450,-481 346,-481"/>
<text text-anchor="middle" x="398" y="-490" font-family="FreeSans" font-size="10.00">framescheduler.cpp</text>
</g>
<!-- Node2 -->
<g id="node3" class="node"><title>Node2</title>
<a xlink:href="framescheduler_8h.html" target="_top" xlink:title="This file has the Declarations for the main FrameScheduler class.">
<polygon fill="white" stroke="black" points="567,-301 567,-323 661,-323 661,-301 567,-301"/>
<text text-anchor="middle" x="614" y="-310" font-family="FreeSans" font-size="10.00">framescheduler.h</text>
</a>
</g>
<!-- Node1&#45;&gt;Node2 -->
<g id="edge2" class="edge"><title>Node1&#45;&gt;Node2</title>
<path fill="none" stroke="midnightblue" d="M411.512,-480.74C448.041,-450.3 548.964,-366.197 592.997,-329.503"/>
<polygon fill="midnightblue" stroke="midnightblue" points="595.328,-332.116 600.769,-323.026 590.846,-326.739 595.328,-332.116"/>
</g>
<!-- Node11 -->
<g id="node21" class="node"><title>Node11</title>
<a xlink:href="doublebufferedresource_8h.html" target="_top" xlink:title="This file defines the template double buffered resources that can be attached to a thread...">
<polygon fill="white" stroke="black" points="46.5,-241 46.5,-263 177.5,-263 177.5,-241 46.5,-241"/>
<text text-anchor="middle" x="112" y="-250" font-family="FreeSans" font-size="10.00">doublebufferedresource.h</text>
</a>
</g>
<!-- Node1&#45;&gt;Node11 -->
<g id="edge60" class="edge"><title>Node1&#45;&gt;Node11</title>
<path fill="none" stroke="midnightblue" d="M352.272,-480.921C300.925,-466.404 217.884,-436.414 165,-384 134.031,-353.307 120.57,-302.161 115.197,-273.376"/>
<polygon fill="midnightblue" stroke="midnightblue" points="118.592,-272.465 113.463,-263.195 111.692,-273.64 118.592,-272.465"/>
</g>
<!-- Node12 -->
<g id="node24" class="node"><title>Node12</title>
<polygon fill="white" stroke="#bfbfbf" points="0,-181 0,-203 58,-203 58,-181 0,-181"/>
<text text-anchor="middle" x="29" y="-190" font-family="FreeSans" font-size="10.00">algorithm</text>
</g>
<!-- Node1&#45;&gt;Node12 -->
<g id="edge94" class="edge"><title>Node1&#45;&gt;Node12</title>
<path fill="none" stroke="midnightblue" d="M345.7,-486.508C241.73,-474.135 19,-439.724 19,-372 19,-372 19,-372 19,-312 19,-277.349 23.1921,-237.264 26.1478,-213.307"/>
<polygon fill="midnightblue" stroke="midnightblue" points="29.6404,-213.587 27.4375,-203.224 22.6969,-212.699 29.6404,-213.587"/>
</g>
<!-- Node23 -->
<g id="node54" class="node"><title>Node23</title>
<a xlink:href="monopoly_8h.html" target="_top" xlink:title="Contains an interface for a kind of WorkUnit that consumes time on multiple thread.">
<polygon fill="white" stroke="black" points="279,-421 279,-443 347,-443 347,-421 279,-421"/>
<text text-anchor="middle" x="313" y="-430" font-family="FreeSans" font-size="10.00">monopoly.h</text>
</a>
</g>
<!-- Node1&#45;&gt;Node23 -->
<g id="edge62" class="edge"><title>Node1&#45;&gt;Node23</title>
<path fill="none" stroke="midnightblue" d="M382.41,-480.995C369.788,-472.086 351.788,-459.38 337.281,-449.14"/>
<polygon fill="midnightblue" stroke="midnightblue" points="338.967,-446.046 328.779,-443.138 334.931,-451.765 338.967,-446.046"/>
</g>
<!-- Node27 -->
<g id="node72" class="node"><title>Node27</title>
<polygon fill="white" stroke="#bfbfbf" points="511,-421 511,-443 571,-443 571,-421 511,-421"/>
<text text-anchor="middle" x="541" y="-430" font-family="FreeSans" font-size="10.00">exception</text>
</g>
<!-- Node1&#45;&gt;Node27 -->
<g id="edge90" class="edge"><title>Node1&#45;&gt;Node27</title>
<path fill="none" stroke="midnightblue" d="M424.228,-480.995C446.864,-471.498 479.784,-457.685 504.904,-447.145"/>
<polygon fill="midnightblue" stroke="midnightblue" points="506.587,-450.235 514.454,-443.138 503.878,-443.78 506.587,-450.235"/>
</g>
<!-- Node28 -->
<g id="node74" class="node"><title>Node28</title>
<polygon fill="white" stroke="#bfbfbf" points="589,-421 589,-443 645,-443 645,-421 589,-421"/>
<text text-anchor="middle" x="617" y="-430" font-family="FreeSans" font-size="10.00">iostream</text>
</g>
<!-- Node1&#45;&gt;Node28 -->
<g id="edge92" class="edge"><title>Node1&#45;&gt;Node28</title>
<path fill="none" stroke="midnightblue" d="M442.696,-480.952C477.491,-472.185 527.196,-459.298 579.062,-444.183"/>
<polygon fill="midnightblue" stroke="midnightblue" points="580.158,-447.509 588.769,-441.335 578.188,-440.792 580.158,-447.509"/>
</g>
<!-- Node3 -->
<g id="node5" class="node"><title>Node3</title>
<a xlink:href="datatypes_8h.html" target="_top" xlink:title="This file declares a few typedefs to allow flexibility, in case a change is required/desired.">
<polygon fill="white" stroke="black" points="347,-121 347,-143 415,-143 415,-121 347,-121"/>
<text text-anchor="middle" x="381" y="-130" font-family="FreeSans" font-size="10.00">datatypes.h</text>
</a>
</g>
<!-- Node2&#45;&gt;Node3 -->
<g id="edge4" class="edge"><title>Node2&#45;&gt;Node3</title>
<path fill="none" stroke="midnightblue" d="M618.189,-300.818C622.957,-286.263 629.103,-260.295 621,-240 607.361,-205.841 595.665,-198.714 564,-180 520.782,-154.458 463.938,-142.305 425.144,-136.659"/>
<polygon fill="midnightblue" stroke="midnightblue" points="425.582,-133.186 415.199,-135.296 424.631,-140.121 425.582,-133.186"/>
</g>
<!-- Node2&#45;&gt;Node11 -->
<g id="edge20" class="edge"><title>Node2&#45;&gt;Node11</title>
<path fill="none" stroke="midnightblue" d="M566.773,-306.355C479.612,-295.938 292.801,-273.61 187.749,-261.054"/>
<polygon fill="midnightblue" stroke="midnightblue" points="187.878,-257.544 177.533,-259.833 187.047,-264.495 187.878,-257.544"/>
</g>
<!-- Node15 -->
<g id="node30" class="node"><title>Node15</title>
<a xlink:href="thread_8h.html" target="_top" xlink:title="This file defines a minimalistic cross&#45;platform thread that the scheduler uses to schedule tasks...">
<polygon fill="white" stroke="black" points="559.5,-241 559.5,-263 612.5,-263 612.5,-241 559.5,-241"/>
<text text-anchor="middle" x="586" y="-250" font-family="FreeSans" font-size="10.00">thread.h</text>
</a>
</g>
<!-- Node2&#45;&gt;Node15 -->
<g id="edge30" class="edge"><title>Node2&#45;&gt;Node15</title>
<path fill="none" stroke="midnightblue" d="M608.864,-300.995C605.162,-293.061 600.054,-282.115 595.605,-272.581"/>
<polygon fill="midnightblue" stroke="midnightblue" points="598.694,-270.925 591.293,-263.343 592.351,-273.885 598.694,-270.925"/>
</g>
<!-- Node16 -->
<g id="node33" class="node"><title>Node16</title>
<a xlink:href="systemcalls_8h.html" target="_top" xlink:title="This file defines a minimalistic cross&#45;platform thread that the scheduler uses to schedule tasks...">
<polygon fill="white" stroke="black" points="408.5,-181 408.5,-203 485.5,-203 485.5,-181 408.5,-181"/>
<text text-anchor="middle" x="447" y="-190" font-family="FreeSans" font-size="10.00">systemcalls.h</text>
</a>
</g>
<!-- Node2&#45;&gt;Node16 -->
<g id="edge52" class="edge"><title>Node2&#45;&gt;Node16</title>
<path fill="none" stroke="midnightblue" d="M598.588,-300.926C569.26,-279.851 505.254,-233.859 470.532,-208.909"/>
<polygon fill="midnightblue" stroke="midnightblue" points="472.538,-206.041 462.374,-203.047 468.453,-211.725 472.538,-206.041"/>
</g>
<!-- Node19 -->
<g id="node43" class="node"><title>Node19</title>
<a xlink:href="workunitkey_8h.html" target="_top" xlink:title="This file defines the metadata used to sort workunits.">
<polygon fill="white" stroke="black" points="427.5,-241 427.5,-263 504.5,-263 504.5,-241 427.5,-241"/>
<text text-anchor="middle" x="466" y="-250" font-family="FreeSans" font-size="10.00">workunitkey.h</text>
</a>
</g>
<!-- Node2&#45;&gt;Node19 -->
<g id="edge48" class="edge"><title>Node2&#45;&gt;Node19</title>
<path fill="none" stroke="midnightblue" d="M586.855,-300.995C563.25,-291.426 528.839,-277.475 502.768,-266.906"/>
<polygon fill="midnightblue" stroke="midnightblue" points="503.806,-263.55 493.224,-263.037 501.176,-270.037 503.806,-263.55"/>
</g>
<!-- Node20 -->
<g id="node47" class="node"><title>Node20</title>
<polygon fill="white" stroke="#bfbfbf" points="668,-241 668,-263 704,-263 704,-241 668,-241"/>
<text text-anchor="middle" x="686" y="-250" font-family="FreeSans" font-size="10.00">map</text>
</g>
<!-- Node2&#45;&gt;Node20 -->
<g id="edge54" class="edge"><title>Node2&#45;&gt;Node20</title>
<path fill="none" stroke="midnightblue" d="M627.206,-300.995C637.629,-292.309 652.383,-280.014 664.504,-269.913"/>
<polygon fill="midnightblue" stroke="midnightblue" points="666.947,-272.434 672.389,-263.343 662.466,-267.056 666.947,-272.434"/>
</g>
<!-- Node21 -->
<g id="node49" class="node"><title>Node21</title>
<polygon fill="white" stroke="#bfbfbf" points="722,-241 722,-263 752,-263 752,-241 722,-241"/>
<text text-anchor="middle" x="737" y="-250" font-family="FreeSans" font-size="10.00">set</text>
</g>
<!-- Node2&#45;&gt;Node21 -->
<g id="edge56" class="edge"><title>Node2&#45;&gt;Node21</title>
<path fill="none" stroke="midnightblue" d="M637.243,-300.829C655.525,-292.021 681.849,-279.293 712.559,-264.187"/>
<polygon fill="midnightblue" stroke="midnightblue" points="714.354,-267.204 721.778,-259.646 711.261,-260.925 714.354,-267.204"/>
</g>
<!-- Node22 -->
<g id="node51" class="node"><title>Node22</title>
<polygon fill="white" stroke="#bfbfbf" points="770,-241 770,-263 820,-263 820,-241 770,-241"/>
<text text-anchor="middle" x="795" y="-250" font-family="FreeSans" font-size="10.00">fstream</text>
</g>
<!-- Node2&#45;&gt;Node22 -->
<g id="edge58" class="edge"><title>Node2&#45;&gt;Node22</title>
<path fill="none" stroke="midnightblue" d="M648.53,-300.98C676.329,-292.051 716.633,-278.979 760.146,-264.247"/>
<polygon fill="midnightblue" stroke="midnightblue" points="761.428,-267.508 769.772,-260.979 759.178,-260.88 761.428,-267.508"/>
</g>
<!-- Node4 -->
<g id="node7" class="node"><title>Node4</title>
<a xlink:href="compilerthreadcompat_8h.html" target="_top" xlink:title="This file determines what features are offered by the compiler that this library can take advantage o...">
<polygon fill="white" stroke="black" points="506,-61 506,-83 630,-83 630,-61 506,-61"/>
<text text-anchor="middle" x="568" y="-70" font-family="FreeSans" font-size="10.00">compilerthreadcompat.h</text>
</a>
</g>
<!-- Node3&#45;&gt;Node4 -->
<g id="edge6" class="edge"><title>Node3&#45;&gt;Node4</title>
<path fill="none" stroke="midnightblue" d="M415.299,-120.995C445.781,-111.215 490.524,-96.8587 523.705,-86.2124"/>
<polygon fill="midnightblue" stroke="midnightblue" points="525.15,-89.4245 533.603,-83.0366 523.011,-82.7591 525.15,-89.4245"/>
</g>
<!-- Node9 -->
<g id="node17" class="node"><title>Node9</title>
<polygon fill="white" stroke="#bfbfbf" points="434.5,-61 434.5,-83 475.5,-83 475.5,-61 434.5,-61"/>
<text text-anchor="middle" x="455" y="-70" font-family="FreeSans" font-size="10.00">string</text>
</g>
<!-- Node3&#45;&gt;Node9 -->
<g id="edge16" class="edge"><title>Node3&#45;&gt;Node9</title>
<path fill="none" stroke="midnightblue" d="M394.573,-120.995C405.353,-112.254 420.642,-99.858 433.143,-89.7219"/>
<polygon fill="midnightblue" stroke="midnightblue" points="435.699,-92.1551 441.263,-83.1383 431.291,-86.7178 435.699,-92.1551"/>
</g>
<!-- Node10 -->
<g id="node19" class="node"><title>Node10</title>
<polygon fill="white" stroke="#bfbfbf" points="357.5,-61 357.5,-83 404.5,-83 404.5,-61 357.5,-61"/>
<text text-anchor="middle" x="381" y="-70" font-family="FreeSans" font-size="10.00">stdint.h</text>
</g>
<!-- Node3&#45;&gt;Node10 -->
<g id="edge18" class="edge"><title>Node3&#45;&gt;Node10</title>
<path fill="none" stroke="midnightblue" d="M381,-120.995C381,-113.311 381,-102.803 381,-93.4884"/>
<polygon fill="midnightblue" stroke="midnightblue" points="384.5,-93.3428 381,-83.3428 377.5,-93.3429 384.5,-93.3428"/>
</g>
<!-- Node5 -->
<g id="node9" class="node"><title>Node5</title>
<polygon fill="white" stroke="#bfbfbf" points="432,-1 432,-23 490,-23 490,-1 432,-1"/>
<text text-anchor="middle" x="461" y="-10" font-family="FreeSans" font-size="10.00">pthread.h</text>
</g>
<!-- Node4&#45;&gt;Node5 -->
<g id="edge8" class="edge"><title>Node4&#45;&gt;Node5</title>
<path fill="none" stroke="midnightblue" d="M548.375,-60.9951C531.962,-51.7917 508.324,-38.5366 489.772,-28.1336"/>
<polygon fill="midnightblue" stroke="midnightblue" points="491.298,-24.9766 480.863,-23.1383 487.874,-31.0822 491.298,-24.9766"/>
</g>
<!-- Node6 -->
<g id="node11" class="node"><title>Node6</title>
<polygon fill="white" stroke="#bfbfbf" points="507.5,-1 507.5,-23 558.5,-23 558.5,-1 507.5,-1"/>
<text text-anchor="middle" x="533" y="-10" font-family="FreeSans" font-size="10.00">signal.h</text>
</g>
<!-- Node4&#45;&gt;Node6 -->
<g id="edge10" class="edge"><title>Node4&#45;&gt;Node6</title>
<path fill="none" stroke="midnightblue" d="M561.58,-60.9951C556.855,-52.8936 550.297,-41.6525 544.656,-31.981"/>
<polygon fill="midnightblue" stroke="midnightblue" points="547.679,-30.2171 539.617,-23.3428 541.632,-33.7442 547.679,-30.2171"/>
</g>
<!-- Node7 -->
<g id="node13" class="node"><title>Node7</title>
<polygon fill="white" stroke="#bfbfbf" points="576,-1 576,-23 628,-23 628,-1 576,-1"/>
<text text-anchor="middle" x="602" y="-10" font-family="FreeSans" font-size="10.00">sched.h</text>
</g>
<!-- Node4&#45;&gt;Node7 -->
<g id="edge12" class="edge"><title>Node4&#45;&gt;Node7</title>
<path fill="none" stroke="midnightblue" d="M574.236,-60.9951C578.78,-52.9771 585.066,-41.884 590.508,-32.2806"/>
<polygon fill="midnightblue" stroke="midnightblue" points="593.687,-33.7686 595.572,-23.3428 587.597,-30.3175 593.687,-33.7686"/>
</g>
<!-- Node8 -->
<g id="node15" class="node"><title>Node8</title>
<polygon fill="white" stroke="#bfbfbf" points="646,-1 646,-23 696,-23 696,-1 646,-1"/>
<text text-anchor="middle" x="671" y="-10" font-family="FreeSans" font-size="10.00">unistd.h</text>
</g>
<!-- Node4&#45;&gt;Node8 -->
<g id="edge14" class="edge"><title>Node4&#45;&gt;Node8</title>
<path fill="none" stroke="midnightblue" d="M586.892,-60.9951C602.619,-51.8337 625.238,-38.6576 643.059,-28.2763"/>
<polygon fill="midnightblue" stroke="midnightblue" points="645,-31.1962 651.879,-23.1383 641.477,-25.1476 645,-31.1962"/>
</g>
<!-- Node11&#45;&gt;Node3 -->
<g id="edge22" class="edge"><title>Node11&#45;&gt;Node3</title>
<path fill="none" stroke="midnightblue" d="M120.975,-240.913C134.475,-224.987 161.579,-195.816 191,-180 237.313,-155.103 296.953,-142.773 336.951,-136.91"/>
<polygon fill="midnightblue" stroke="midnightblue" points="337.506,-140.367 346.928,-135.522 336.541,-133.434 337.506,-140.367"/>
</g>
<!-- Node11&#45;&gt;Node12 -->
<g id="edge24" class="edge"><title>Node11&#45;&gt;Node12</title>
<path fill="none" stroke="midnightblue" d="M96.7765,-240.995C84.4521,-232.086 66.8755,-219.38 52.7099,-209.14"/>
<polygon fill="midnightblue" stroke="midnightblue" points="54.5628,-206.16 44.408,-203.138 50.4618,-211.833 54.5628,-206.16"/>
</g>
<!-- Node13 -->
<g id="node26" class="node"><title>Node13</title>
<polygon fill="white" stroke="#bfbfbf" points="85.5,-181 85.5,-203 138.5,-203 138.5,-181 85.5,-181"/>
<text text-anchor="middle" x="112" y="-190" font-family="FreeSans" font-size="10.00">sstream</text>
</g>
<!-- Node11&#45;&gt;Node13 -->
<g id="edge26" class="edge"><title>Node11&#45;&gt;Node13</title>
<path fill="none" stroke="midnightblue" d="M112,-240.995C112,-233.311 112,-222.803 112,-213.488"/>
<polygon fill="midnightblue" stroke="midnightblue" points="115.5,-213.343 112,-203.343 108.5,-213.343 115.5,-213.343"/>
</g>
<!-- Node14 -->
<g id="node28" class="node"><title>Node14</title>
<polygon fill="white" stroke="#bfbfbf" points="309,-181 309,-203 353,-203 353,-181 309,-181"/>
<text text-anchor="middle" x="331" y="-190" font-family="FreeSans" font-size="10.00">vector</text>
</g>
<!-- Node11&#45;&gt;Node14 -->
<g id="edge28" class="edge"><title>Node11&#45;&gt;Node14</title>
<path fill="none" stroke="midnightblue" d="M152.168,-240.995C194.449,-229.411 260.158,-211.409 299.051,-200.753"/>
<polygon fill="midnightblue" stroke="midnightblue" points="300.079,-204.1 308.799,-198.082 298.23,-197.349 300.079,-204.1"/>
</g>
<!-- Node15&#45;&gt;Node4 -->
<g id="edge32" class="edge"><title>Node15&#45;&gt;Node4</title>
<path fill="none" stroke="midnightblue" d="M590.486,-240.751C599.054,-217.586 615.723,-163.114 602,-120 598.644,-109.455 592.037,-99.2376 585.533,-90.959"/>
<polygon fill="midnightblue" stroke="midnightblue" points="588.045,-88.5074 578.933,-83.1015 582.685,-93.0098 588.045,-88.5074"/>
</g>
<!-- Node15&#45;&gt;Node14 -->
<g id="edge46" class="edge"><title>Node15&#45;&gt;Node14</title>
<path fill="none" stroke="midnightblue" d="M559.192,-245.692C511.819,-234.546 413.527,-211.418 362.808,-199.484"/>
<polygon fill="midnightblue" stroke="midnightblue" points="363.57,-196.068 353.034,-197.185 361.967,-202.882 363.57,-196.068"/>
</g>
<!-- Node15&#45;&gt;Node16 -->
<g id="edge34" class="edge"><title>Node15&#45;&gt;Node16</title>
<path fill="none" stroke="midnightblue" d="M560.505,-240.995C538.503,-231.498 506.504,-217.685 482.086,-207.145"/>
<polygon fill="midnightblue" stroke="midnightblue" points="483.372,-203.888 472.804,-203.138 480.598,-210.315 483.372,-203.888"/>
</g>
<!-- Node17 -->
<g id="node36" class="node"><title>Node17</title>
<a xlink:href="mutex_8h.html" target="_top" xlink:title="This file declares and defines a mutex that is a partial implementation.">
<polygon fill="white" stroke="black" points="542.5,-121 542.5,-143 593.5,-143 593.5,-121 542.5,-121"/>
<text text-anchor="middle" x="568" y="-130" font-family="FreeSans" font-size="10.00">mutex.h</text>
</a>
</g>
<!-- Node15&#45;&gt;Node17 -->
<g id="edge38" class="edge"><title>Node15&#45;&gt;Node17</title>
<path fill="none" stroke="midnightblue" d="M584.339,-240.926C581.352,-221.012 575.028,-178.851 571.182,-153.216"/>
<polygon fill="midnightblue" stroke="midnightblue" points="574.602,-152.418 569.657,-143.047 567.679,-153.456 574.602,-152.418"/>
</g>
<!-- Node18 -->
<g id="node40" class="node"><title>Node18</title>
<polygon fill="white" stroke="#bfbfbf" points="502.5,-181 502.5,-203 555.5,-203 555.5,-181 502.5,-181"/>
<text text-anchor="middle" x="529" y="-190" font-family="FreeSans" font-size="10.00">ostream</text>
</g>
<!-- Node15&#45;&gt;Node18 -->
<g id="edge44" class="edge"><title>Node15&#45;&gt;Node18</title>
<path fill="none" stroke="midnightblue" d="M575.545,-240.995C567.532,-232.56 556.284,-220.72 546.853,-210.793"/>
<polygon fill="midnightblue" stroke="midnightblue" points="549.201,-208.182 539.776,-203.343 544.126,-213.003 549.201,-208.182"/>
</g>
<!-- Node16&#45;&gt;Node3 -->
<g id="edge36" class="edge"><title>Node16&#45;&gt;Node3</title>
<path fill="none" stroke="midnightblue" d="M434.895,-180.995C425.432,-172.392 412.075,-160.25 401.026,-150.205"/>
<polygon fill="midnightblue" stroke="midnightblue" points="403.231,-147.48 393.477,-143.343 398.522,-152.659 403.231,-147.48"/>
</g>
<!-- Node17&#45;&gt;Node4 -->
<g id="edge40" class="edge"><title>Node17&#45;&gt;Node4</title>
<path fill="none" stroke="midnightblue" d="M568,-120.995C568,-113.311 568,-102.803 568,-93.4884"/>
<polygon fill="midnightblue" stroke="midnightblue" points="571.5,-93.3428 568,-83.3428 564.5,-93.3429 571.5,-93.3428"/>
</g>
<!-- Node17&#45;&gt;Node9 -->
<g id="edge42" class="edge"><title>Node17&#45;&gt;Node9</title>
<path fill="none" stroke="midnightblue" d="M547.274,-120.995C529.673,-111.649 504.203,-98.1253 484.479,-87.6526"/>
<polygon fill="midnightblue" stroke="midnightblue" points="486.068,-84.5336 475.595,-82.9352 482.785,-90.7161 486.068,-84.5336"/>
</g>
<!-- Node19&#45;&gt;Node3 -->
<g id="edge50" class="edge"><title>Node19&#45;&gt;Node3</title>
<path fill="none" stroke="midnightblue" d="M443.579,-240.912C429.091,-232.64 410.96,-220.02 400,-204 389.662,-188.889 384.947,-168.461 382.798,-153.225"/>
<polygon fill="midnightblue" stroke="midnightblue" points="386.264,-152.731 381.643,-143.198 379.31,-153.532 386.264,-152.731"/>
</g>
<!-- Node23&#45;&gt;Node3 -->
<g id="edge64" class="edge"><title>Node23&#45;&gt;Node3</title>
<path fill="none" stroke="midnightblue" d="M291.92,-420.953C260.49,-402.787 205,-363.432 205,-312 205,-312 205,-312 205,-252 205,-188.247 284.81,-155.94 336.942,-141.638"/>
<polygon fill="midnightblue" stroke="midnightblue" points="337.862,-145.015 346.648,-139.094 336.087,-138.244 337.862,-145.015"/>
</g>
<!-- Node23&#45;&gt;Node11 -->
<g id="edge66" class="edge"><title>Node23&#45;&gt;Node11</title>
<path fill="none" stroke="midnightblue" d="M278.823,-424.931C252.465,-418.079 216.349,-405.488 191,-384 154.712,-353.238 130.675,-301.378 119.41,-272.673"/>
<polygon fill="midnightblue" stroke="midnightblue" points="122.649,-271.343 115.838,-263.227 116.101,-273.819 122.649,-271.343"/>
</g>
<!-- Node24 -->
<g id="node58" class="node"><title>Node24</title>
<a xlink:href="workunit_8h.html" target="_top" xlink:title="This file has the defintion of the workunit.">
<polygon fill="white" stroke="black" points="394.5,-361 394.5,-383 455.5,-383 455.5,-361 394.5,-361"/>
<text text-anchor="middle" x="425" y="-370" font-family="FreeSans" font-size="10.00">workunit.h</text>
</a>
</g>
<!-- Node23&#45;&gt;Node24 -->
<g id="edge68" class="edge"><title>Node23&#45;&gt;Node24</title>
<path fill="none" stroke="midnightblue" d="M333.543,-420.995C350.801,-411.75 375.691,-398.416 395.15,-387.991"/>
<polygon fill="midnightblue" stroke="midnightblue" points="397.046,-390.946 404.208,-383.138 393.741,-384.775 397.046,-390.946"/>
</g>
<!-- Node24&#45;&gt;Node2 -->
<g id="edge72" class="edge"><title>Node24&#45;&gt;Node2</title>
<path fill="none" stroke="midnightblue" d="M455.787,-362.226C486.537,-352.464 534.135,-337.354 569.096,-326.255"/>
<polygon fill="midnightblue" stroke="midnightblue" points="570.579,-329.457 579.051,-323.095 568.461,-322.785 570.579,-329.457"/>
</g>
<!-- Node24&#45;&gt;Node3 -->
<g id="edge70" class="edge"><title>Node24&#45;&gt;Node3</title>
<path fill="none" stroke="midnightblue" d="M394.281,-367.383C351.615,-360.27 277.858,-345.202 262,-324 222.843,-271.65 251.09,-230.991 292,-180 303.663,-165.463 320.959,-154.728 337.21,-147.142"/>
<polygon fill="midnightblue" stroke="midnightblue" points="338.846,-150.246 346.607,-143.034 336.042,-143.832 338.846,-150.246"/>
</g>
<!-- Node24&#45;&gt;Node14 -->
<g id="edge88" class="edge"><title>Node24&#45;&gt;Node14</title>
<path fill="none" stroke="midnightblue" d="M427.083,-360.933C429.335,-346.504 431.767,-320.671 425,-300 412.464,-261.708 378.117,-228.608 354.606,-209.478"/>
<polygon fill="midnightblue" stroke="midnightblue" points="356.513,-206.524 346.494,-203.078 352.177,-212.02 356.513,-206.524"/>
</g>
<!-- Node24&#45;&gt;Node15 -->
<g id="edge84" class="edge"><title>Node24&#45;&gt;Node15</title>
<path fill="none" stroke="midnightblue" d="M440.806,-360.891C454.448,-351.251 474.639,-336.863 492,-324 516.78,-305.641 544.799,-284.073 563.75,-269.362"/>
<polygon fill="midnightblue" stroke="midnightblue" points="566.029,-272.023 571.775,-263.121 561.732,-266.497 566.029,-272.023"/>
</g>
<!-- Node24&#45;&gt;Node17 -->
<g id="edge74" class="edge"><title>Node24&#45;&gt;Node17</title>
<path fill="none" stroke="midnightblue" d="M455.554,-368.831C542.143,-359.131 785.695,-326.627 829,-264 887.783,-178.989 688.092,-145.714 603.788,-135.647"/>
<polygon fill="midnightblue" stroke="midnightblue" points="603.968,-132.145 593.634,-134.481 603.169,-139.099 603.968,-132.145"/>
</g>
<!-- Node24&#45;&gt;Node19 -->
<g id="edge86" class="edge"><title>Node24&#45;&gt;Node19</title>
<path fill="none" stroke="midnightblue" d="M443.365,-360.889C455.409,-352.451 470.151,-339.644 477,-324 484.101,-307.781 480.144,-287.766 475.101,-272.958"/>
<polygon fill="midnightblue" stroke="midnightblue" points="478.22,-271.316 471.379,-263.225 471.681,-273.816 478.22,-271.316"/>
</g>
<!-- Node25 -->
<g id="node63" class="node"><title>Node25</title>
<a xlink:href="rollingaverage_8h.html" target="_top" xlink:title="This Store the implementation and the declaration of the RollingAverage, BufferedRollingAverage, WeightedRollingAverage and the DefaultRollingAverage.">
<polygon fill="white" stroke="black" points="283.5,-241 283.5,-263 372.5,-263 372.5,-241 283.5,-241"/>
<text text-anchor="middle" x="328" y="-250" font-family="FreeSans" font-size="10.00">rollingaverage.h</text>
</a>
</g>
<!-- Node24&#45;&gt;Node25 -->
<g id="edge76" class="edge"><title>Node24&#45;&gt;Node25</title>
<path fill="none" stroke="midnightblue" d="M424.585,-360.911C423.501,-345.759 419.639,-318.373 406,-300 395.738,-286.176 380.202,-275.458 365.69,-267.693"/>
<polygon fill="midnightblue" stroke="midnightblue" points="366.875,-264.372 356.367,-263.014 363.734,-270.628 366.875,-264.372"/>
</g>
<!-- Node26 -->
<g id="node67" class="node"><title>Node26</title>
<a xlink:href="threadingenumerations_8h.html" target="_top" xlink:title="Any enumerations the threading library requires are all declared here.">
<polygon fill="white" stroke="black" points="270.5,-301 270.5,-323 397.5,-323 397.5,-301 270.5,-301"/>
<text text-anchor="middle" x="334" y="-310" font-family="FreeSans" font-size="10.00">threadingenumerations.h</text>
</a>
</g>
<!-- Node24&#45;&gt;Node26 -->
<g id="edge82" class="edge"><title>Node24&#45;&gt;Node26</title>
<path fill="none" stroke="midnightblue" d="M408.309,-360.995C394.669,-352.002 375.162,-339.14 359.557,-328.851"/>
<polygon fill="midnightblue" stroke="midnightblue" points="361.168,-325.721 350.893,-323.138 357.315,-331.565 361.168,-325.721"/>
</g>
<!-- Node25&#45;&gt;Node3 -->
<g id="edge80" class="edge"><title>Node25&#45;&gt;Node3</title>
<path fill="none" stroke="midnightblue" d="M317.666,-240.812C305.534,-226.252 288.447,-200.276 300,-180 308.232,-165.553 322.71,-155.009 337.171,-147.547"/>
<polygon fill="midnightblue" stroke="midnightblue" points="339.067,-150.522 346.606,-143.078 336.07,-144.196 339.067,-150.522"/>
</g>
<!-- Node25&#45;&gt;Node14 -->
<g id="edge78" class="edge"><title>Node25&#45;&gt;Node14</title>
<path fill="none" stroke="midnightblue" d="M328.55,-240.995C328.934,-233.311 329.46,-222.803 329.926,-213.488"/>
<polygon fill="midnightblue" stroke="midnightblue" points="333.429,-213.505 330.433,-203.343 326.438,-213.156 333.429,-213.505"/>
</g>
</g>
</svg>
        <g id="navigator" transform="translate(0 0)" fill="#404254">
                <rect fill="#f2f5e9" fill-opacity="0.5" stroke="#606060" stroke-width=".5" x="0" y="0" width="60" height="60"/>
                <use id="zoomplus" xlink:href="#zoomPlus" x="17" y="9" onmousedown="handleZoom(evt,'in')"/>
                <use id="zoomminus" xlink:href="#zoomMin" x="42" y="9" onmousedown="handleZoom(evt,'out')"/>
                <use id="reset" xlink:href="#resetDef" x="30" y="36" onmousedown="handleReset()"/>
                <g id="arrowUp" xlink:href="#dirArrow" transform="translate(30 24)" onmousedown="handlePan(0,-1)">
                  <use xlink:href="#rim" fill="#404040">
                        <set attributeName="fill" to="#808080" begin="arrowUp.mouseover" end="arrowUp.mouseout"/>
                  </use>
                  <path fill="none" stroke="white" stroke-width="1.5" d="M0,-3.0v7 M-2.5,-0.5L0,-3.0L2.5,-0.5"/>
                </g>
                <g id="arrowRight" xlink:href="#dirArrow" transform="rotate(90) translate(36 -43)" onmousedown="handlePan(1,0)">
                  <use xlink:href="#rim" fill="#404040">
                        <set attributeName="fill" to="#808080" begin="arrowRight.mouseover" end="arrowRight.mouseout"/>
                  </use>
                  <path fill="none" stroke="white" stroke-width="1.5" d="M0,-3.0v7 M-2.5,-0.5L0,-3.0L2.5,-0.5"/>
                </g>
                <g id="arrowDown" xlink:href="#dirArrow" transform="rotate(180) translate(-30 -48)" onmousedown="handlePan(0,1)">
                  <use xlink:href="#rim" fill="#404040">
                        <set attributeName="fill" to="#808080" begin="arrowDown.mouseover" end="arrowDown.mouseout"/>
                  </use>
                  <path fill="none" stroke="white" stroke-width="1.5" d="M0,-3.0v7 M-2.5,-0.5L0,-3.0L2.5,-0.5"/>
                </g>
                <g id="arrowLeft" xlink:href="#dirArrow" transform="rotate(270) translate(-36 17)" onmousedown="handlePan(-1,0)">
                  <use xlink:href="#rim" fill="#404040">
                        <set attributeName="fill" to="#808080" begin="arrowLeft.mouseover" end="arrowLeft.mouseout"/>
                  </use>
                  <path fill="none" stroke="white" stroke-width="1.5" d="M0,-3.0v7 M-2.5,-0.5L0,-3.0L2.5,-0.5"/>
                </g>
        </g>
</svg>
