<?xml version="1.0" encoding="UTF-8" standalone="no"?>
<!DOCTYPE svg PUBLIC "-//W3C//DTD SVG 1.1//EN"
 "http://www.w3.org/Graphics/SVG/1.1/DTD/svg11.dtd">
<!-- Generated by graphviz version 2.26.3 (20100126.1600)
 -->
<!-- Title: G Pages: 1 -->
<svg width="516pt" height="174pt"
 viewBox="0.00 0.00 516.00 174.00" xmlns="http://www.w3.org/2000/svg" xmlns:xlink="http://www.w3.org/1999/xlink">
<g id="graph1" class="graph" transform="scale(1 1) rotate(0) translate(4 170)">
<title>G</title>
<polygon fill="white" stroke="white" points="-4,5 -4,-170 513,-170 513,5 -4,5"/>
<!-- Node9 -->
<g id="node1" class="node"><title>Node9</title>
<polygon fill="#bfbfbf" stroke="black" points="297,-22 243,-22 243,-1.06581e-14 297,-3.55271e-15 297,-22"/>
<text text-anchor="middle" x="270" y="-9" font-family="FreeSans" font-size="10.00">Inherited</text>
</g>
<!-- Node10 -->
<g id="node2" class="node"><title>Node10</title>
<a xlink:href="$classPublicBase.html" xlink:title="PublicBase">
<polygon fill="none" stroke="black" points="66,-94 2.84217e-14,-94 0,-72 66,-72 66,-94"/>
<text text-anchor="middle" x="33" y="-81" font-family="FreeSans" font-size="10.00">PublicBase</text>
</a>
</g>
<!-- Node10&#45;&gt;Node9 -->
<g id="edge2" class="edge"><title>Node10&#45;&gt;Node9</title>
<path fill="none" stroke="midnightblue" d="M75.8005,-69.9973C124.348,-55.2486 202.054,-31.6418 242.898,-19.2334"/>
<polygon fill="midnightblue" stroke="midnightblue" points="74.7542,-66.6572 66.2034,-72.9129 76.789,-73.3549 74.7542,-66.6572"/>
</g>
<!-- Node11 -->
<g id="node4" class="node"><title>Node11</title>
<a xlink:href="$classTruncated.html" xlink:title="Truncated">
<polygon fill="none" stroke="red" points="64,-166 2,-166 2,-144 64,-144 64,-166"/>
<text text-anchor="middle" x="33" y="-153" font-family="FreeSans" font-size="10.00">Truncated</text>
</a>
</g>
<!-- Node11&#45;&gt;Node10 -->
<g id="edge4" class="edge"><title>Node11&#45;&gt;Node10</title>
<path fill="none" stroke="midnightblue" d="M33,-133.442C33,-120.618 33,-104.863 33,-94.4086"/>
<polygon fill="midnightblue" stroke="midnightblue" points="29.5001,-133.75 33,-143.75 36.5001,-133.75 29.5001,-133.75"/>
</g>
<!-- Node13 -->
<g id="node6" class="node"><title>Node13</title>
<a xlink:href="$classProtectedBase.html" xlink:title="ProtectedBase">
<polygon fill="none" stroke="black" points="168,-94 84,-94 84,-72 168,-72 168,-94"/>
<text text-anchor="middle" x="126" y="-81" font-family="FreeSans" font-size="10.00">ProtectedBase</text>
</a>
</g>
<!-- Node13&#45;&gt;Node9 -->
<g id="edge6" class="edge"><title>Node13&#45;&gt;Node9</title>
<path fill="none" stroke="darkgreen" d="M157.29,-67.3552C184.516,-53.7418 223.312,-34.3441 247.553,-22.2234"/>
<polygon fill="darkgreen" stroke="darkgreen" points="155.563,-64.3051 148.184,-71.9078 158.694,-70.5661 155.563,-64.3051"/>
</g>
<!-- Node14 -->
<g id="node8" class="node"><title>Node14</title>
<a xlink:href="$classPrivateBase.html" xlink:title="PrivateBase">
<polygon fill="none" stroke="black" points="258,-94 186,-94 186,-72 258,-72 258,-94"/>
<text text-anchor="middle" x="222" y="-81" font-family="FreeSans" font-size="10.00">PrivateBase</text>
</a>
</g>
<!-- Node14&#45;&gt;Node9 -->
<g id="edge8" class="edge"><title>Node14&#45;&gt;Node9</title>
<path fill="none" stroke="#8b1a1a" d="M235.092,-63.3614C243.851,-50.2228 255.073,-33.3912 262.394,-22.4086"/>
<polygon fill="#8b1a1a" stroke="#8b1a1a" points="232.135,-61.488 229.5,-71.75 237.959,-65.3709 232.135,-61.488"/>
</g>
<!-- Node15 -->
<g id="node10" class="node"><title>Node15</title>
<polygon fill="none" stroke="#bfbfbf" points="360,-94 276,-94 276,-72 360,-72 360,-94"/>
<text text-anchor="middle" x="318" y="-81" font-family="FreeSans" font-size="10.00">Undocumented</text>
</g>
<!-- Node15&#45;&gt;Node9 -->
<g id="edge10" class="edge"><title>Node15&#45;&gt;Node9</title>
<path fill="none" stroke="midnightblue" d="M304.908,-63.3614C296.149,-50.2228 284.927,-33.3912 277.606,-22.4086"/>
<polygon fill="midnightblue" stroke="midnightblue" points="302.041,-65.3709 310.5,-71.75 307.865,-61.488 302.041,-65.3709"/>
</g>
<!-- Node16 -->
<g id="node12" class="node"><title>Node16</title>
<a xlink:href="$classTempl.html" xlink:title="Templ&lt; int &gt;">
<polygon fill="none" stroke="black" points="450,-94 378,-94 378,-72 450,-72 450,-94"/>
<text text-anchor="middle" x="414" y="-81" font-family="FreeSans" font-size="10.00">Templ&lt; int &gt;</text>
</a>
</g>
<!-- Node16&#45;&gt;Node9 -->
<g id="edge12" class="edge"><title>Node16&#45;&gt;Node9</title>
<path fill="none" stroke="midnightblue" d="M382.71,-67.3552C355.484,-53.7418 316.688,-34.3441 292.447,-22.2234"/>
<polygon fill="midnightblue" stroke="midnightblue" points="381.306,-70.5661 391.816,-71.9078 384.437,-64.3051 381.306,-70.5661"/>
</g>
<!-- Node17 -->
<g id="node14" class="node"><title>Node17</title>
<a xlink:href="$classTempl.html" xlink:title="Templ&lt; T &gt;">
<polygon fill="none" stroke="black" points="449,-166 379,-166 379,-144 449,-144 449,-166"/>
<text text-anchor="middle" x="414" y="-153" font-family="FreeSans" font-size="10.00">Templ&lt; T &gt;</text>
</a>
</g>
<!-- Node17&#45;&gt;Node16 -->
<g id="edge14" class="edge"><title>Node17&#45;&gt;Node16</title>
<path fill="none" stroke="orange" stroke-dasharray="5,2" d="M414,-133.442C414,-120.618 414,-104.863 414,-94.4086"/>
<polygon fill="orange" stroke="orange" points="410.5,-133.75 414,-143.75 417.5,-133.75 410.5,-133.75"/>
<text text-anchor="middle" x="428" y="-117" font-family="FreeSans" font-size="10.00">&lt; int &gt;</text>
</g>
<!-- Node18 -->
<g id="node16" class="node"><title>Node18</title>
<a xlink:href="$classUsed.html" xlink:title="Used">
<polygon fill="none" stroke="black" points="508,-94 468,-94 468,-72 508,-72 508,-94"/>
<text text-anchor="middle" x="488" y="-81" font-family="FreeSans" font-size="10.00">Used</text>
</a>
</g>
<!-- Node18&#45;&gt;Node9 -->
<g id="edge16" class="edge"><title>Node18&#45;&gt;Node9</title>
<path fill="none" stroke="#9a32cd" stroke-dasharray="5,2" d="M458.085,-71.7838C395.185,-49.8571 332.081,-30.0596 297.059,-19.2632"/>
<polygon fill="#9a32cd" stroke="#9a32cd" points="457.171,-75.1723 467.766,-75.1765 459.486,-68.5662 457.171,-75.1723"/>
<text text-anchor="middle" x="433.5" y="-45" font-family="FreeSans" font-size="10.00">m_usedClass</text>
</g>
</g>
</svg>
