<?xml version="1.0" encoding="UTF-8" standalone="no"?>
<!DOCTYPE svg PUBLIC "-//W3C//DTD SVG 1.1//EN"
 "http://www.w3.org/Graphics/SVG/1.1/DTD/svg11.dtd">
<!-- Generated by graphviz version 2.26.3 (20100126.1600)
 -->
<!-- Title: G Pages: 1 -->
<svg width="574pt" height="70pt"
 viewBox="0.00 0.00 574.00 70.00" xmlns="http://www.w3.org/2000/svg" xmlns:xlink="http://www.w3.org/1999/xlink">
<g id="graph1" class="graph" transform="scale(1 1) rotate(0) translate(4 66)">
<title>G</title>
<polygon fill="white" stroke="white" points="-4,5 -4,-66 571,-66 571,5 -4,5"/>
<!-- Node1 -->
<g id="node1" class="node"><title>Node1</title>
<a xlink:href="classMezzanine_1_1RollingAverage.html" target="_top" xlink:title="The interface for rolling averages used in the mezzanine, and threading library.">
<polygon fill="white" stroke="black" points="0.5,-20 0.5,-42 217.5,-42 217.5,-20 0.5,-20"/>
<text text-anchor="middle" x="109" y="-29" font-family="FreeSans" font-size="10.00">Mezzanine::RollingAverage&lt; RecordType &gt;</text>
</a>
</g>
<!-- Node2 -->
<g id="node3" class="node"><title>Node2</title>
<a xlink:href="classMezzanine_1_1BufferedRollingAverage.html" target="_top" xlink:title="A RollingAverage that stores a copy of each record. and does the math when queried.">
<polygon fill="white" stroke="black" points="283,-40 283,-62 537,-62 537,-40 283,-40"/>
<text text-anchor="middle" x="410" y="-49" font-family="FreeSans" font-size="10.00">Mezzanine::BufferedRollingAverage&lt; RecordType &gt;</text>
</a>
</g>
<!-- Node1&#45;&gt;Node2 -->
<g id="edge2" class="edge"><title>Node1&#45;&gt;Node2</title>
<path fill="none" stroke="midnightblue" d="M227.655,-38.884C245.763,-40.0872 264.516,-41.3333 282.799,-42.5481"/>
<polygon fill="midnightblue" stroke="midnightblue" points="227.878,-35.3912 217.668,-38.2205 227.414,-42.3758 227.878,-35.3912"/>
</g>
<!-- Node3 -->
<g id="node5" class="node"><title>Node3</title>
<a xlink:href="classMezzanine_1_1WeightedRollingAverage.html" target="_top" xlink:title="A weighted average that does math with every insertion and stores nothing.">
<polygon fill="white" stroke="black" points="254.5,-0 254.5,-22 565.5,-22 565.5,-0 254.5,-0"/>
<text text-anchor="middle" x="410" y="-9" font-family="FreeSans" font-size="10.00">Mezzanine::WeightedRollingAverage&lt; RecordType, MathType &gt;</text>
</a>
</g>
<!-- Node1&#45;&gt;Node3 -->
<g id="edge4" class="edge"><title>Node1&#45;&gt;Node3</title>
<path fill="none" stroke="midnightblue" d="M227.839,-23.1037C236.568,-22.5237 245.446,-21.9338 254.348,-21.3423"/>
<polygon fill="midnightblue" stroke="midnightblue" points="227.414,-19.6242 217.668,-23.7795 227.878,-26.6088 227.414,-19.6242"/>
</g>
</g>
</svg>
