<?xml version="1.0" encoding="UTF-8" standalone="no"?>
<!DOCTYPE svg PUBLIC "-//W3C//DTD SVG 1.1//EN"
 "http://www.w3.org/Graphics/SVG/1.1/DTD/svg11.dtd">
<!-- Generated by graphviz version 2.26.3 (20100126.1600)
 -->
<!-- Title: Graphical Class Hierarchy Pages: 1 -->
<svg width="618pt" height="190pt"
 viewBox="0.00 0.00 618.00 190.00" xmlns="http://www.w3.org/2000/svg" xmlns:xlink="http://www.w3.org/1999/xlink">
<g id="graph1" class="graph" transform="scale(1 1) rotate(0) translate(4 186)">
<title>Graphical Class Hierarchy</title>
<polygon fill="white" stroke="white" points="-4,5 -4,-186 615,-186 615,5 -4,5"/>
<!-- Node1 -->
<g id="node1" class="node"><title>Node1</title>
<a xlink:href="classMezzanine_1_1Threading_1_1iWorkUnit.html" target="_top" xlink:title="Interface of a WorkUnit. This represents on piece of work through time. ">
<polygon fill="white" stroke="black" points="0,-75 0,-107 110,-107 110,-75 0,-75"/>
<text text-anchor="start" x="8" y="-94" font-family="FreeSans" font-size="10.00">Mezzanine::Threading</text>
<text text-anchor="middle" x="55" y="-82" font-family="FreeSans" font-size="10.00">::iWorkUnit</text>
</a>
</g>
<!-- Node2 -->
<g id="node3" class="node"><title>Node2</title>
<a xlink:href="classMezzanine_1_1Threading_1_1DefaultWorkUnit.html" target="_top" xlink:title="Default implementation of WorkUnit. This represents on piece of work through time. ">
<polygon fill="white" stroke="black" points="146,-75 146,-107 256,-107 256,-75 146,-75"/>
<text text-anchor="start" x="154" y="-94" font-family="FreeSans" font-size="10.00">Mezzanine::Threading</text>
<text text-anchor="middle" x="201" y="-82" font-family="FreeSans" font-size="10.00">::DefaultWorkUnit</text>
</a>
</g>
<!-- Node1&#45;&gt;Node2 -->
<g id="edge2" class="edge"><title>Node1&#45;&gt;Node2</title>
<path fill="none" stroke="midnightblue" d="M120.41,-91C128.865,-91 137.457,-91 145.726,-91"/>
<polygon fill="midnightblue" stroke="midnightblue" points="120.196,-87.5001 110.196,-91 120.196,-94.5001 120.196,-87.5001"/>
</g>
<!-- Node3 -->
<g id="node5" class="node"><title>Node3</title>
<a xlink:href="classMezzanine_1_1Threading_1_1iAsynchronousWorkUnit.html" target="_top" xlink:title="The interface for a WorkUnit that will keep running when the rest of the scheduler is paused...">
<polygon fill="white" stroke="black" points="292.5,-150 292.5,-182 415.5,-182 415.5,-150 292.5,-150"/>
<text text-anchor="start" x="300.5" y="-169" font-family="FreeSans" font-size="10.00">Mezzanine::Threading</text>
<text text-anchor="middle" x="354" y="-157" font-family="FreeSans" font-size="10.00">::iAsynchronousWorkUnit</text>
</a>
</g>
<!-- Node2&#45;&gt;Node3 -->
<g id="edge4" class="edge"><title>Node2&#45;&gt;Node3</title>
<path fill="none" stroke="midnightblue" d="M237.206,-112.188C253.686,-121.494 273.585,-132.266 292,-141 298.397,-144.034 305.265,-147.041 312.017,-149.863"/>
<polygon fill="midnightblue" stroke="midnightblue" points="238.854,-109.099 228.433,-107.191 235.39,-115.182 238.854,-109.099"/>
</g>
<!-- Node5 -->
<g id="node9" class="node"><title>Node5</title>
<a xlink:href="classMezzanine_1_1Threading_1_1LogAggregator.html" target="_top" xlink:title="Gather all the thread specific logs and commit them to the main log. ">
<polygon fill="white" stroke="black" points="299,-100 299,-132 409,-132 409,-100 299,-100"/>
<text text-anchor="start" x="307" y="-119" font-family="FreeSans" font-size="10.00">Mezzanine::Threading</text>
<text text-anchor="middle" x="354" y="-107" font-family="FreeSans" font-size="10.00">::LogAggregator</text>
</a>
</g>
<!-- Node2&#45;&gt;Node5 -->
<g id="edge8" class="edge"><title>Node2&#45;&gt;Node5</title>
<path fill="none" stroke="midnightblue" d="M266.127,-101.642C277.022,-103.422 288.231,-105.253 298.845,-106.988"/>
<polygon fill="midnightblue" stroke="midnightblue" points="266.67,-98.1841 256.237,-100.026 265.541,-105.092 266.67,-98.1841"/>
</g>
<!-- Node6 -->
<g id="node11" class="node"><title>Node6</title>
<a xlink:href="classMezzanine_1_1Threading_1_1MonopolyWorkUnit.html" target="_top" xlink:title="A kind of workunit given exclusive runtime so it can consume time on multiple threads. ">
<polygon fill="white" stroke="black" points="299,-50 299,-82 409,-82 409,-50 299,-50"/>
<text text-anchor="start" x="307" y="-69" font-family="FreeSans" font-size="10.00">Mezzanine::Threading</text>
<text text-anchor="middle" x="354" y="-57" font-family="FreeSans" font-size="10.00">::MonopolyWorkUnit</text>
</a>
</g>
<!-- Node2&#45;&gt;Node6 -->
<g id="edge10" class="edge"><title>Node2&#45;&gt;Node6</title>
<path fill="none" stroke="midnightblue" d="M266.127,-80.3583C277.022,-78.5782 288.231,-76.7466 298.845,-75.0123"/>
<polygon fill="midnightblue" stroke="midnightblue" points="265.541,-76.9075 256.237,-81.9744 266.67,-83.8159 265.541,-76.9075"/>
</g>
<!-- Node7 -->
<g id="node13" class="node"><title>Node7</title>
<a xlink:href="classMezzanine_1_1Threading_1_1WorkSorter.html" target="_top" xlink:title="Sorts all of the WorkUnits in the FrameScheduler. ">
<polygon fill="white" stroke="black" points="299,-0 299,-32 409,-32 409,-0 299,-0"/>
<text text-anchor="start" x="307" y="-19" font-family="FreeSans" font-size="10.00">Mezzanine::Threading</text>
<text text-anchor="middle" x="354" y="-7" font-family="FreeSans" font-size="10.00">::WorkSorter</text>
</a>
</g>
<!-- Node2&#45;&gt;Node7 -->
<g id="edge12" class="edge"><title>Node2&#45;&gt;Node7</title>
<path fill="none" stroke="midnightblue" d="M237.206,-69.8119C253.686,-60.5056 273.585,-49.7336 292,-41 298.397,-37.9662 305.265,-34.9588 312.017,-32.1374"/>
<polygon fill="midnightblue" stroke="midnightblue" points="235.39,-66.8183 228.433,-74.809 238.854,-72.9007 235.39,-66.8183"/>
</g>
<!-- Node4 -->
<g id="node7" class="node"><title>Node4</title>
<a xlink:href="classMezzanine_1_1Threading_1_1AsynchronousFileLoadWorkUnit.html" target="_top" xlink:title="This is intended to load files asynchronously and continue doing so whether or not other the FrameSch...">
<polygon fill="white" stroke="black" points="452,-150 452,-182 610,-182 610,-150 452,-150"/>
<text text-anchor="start" x="460" y="-169" font-family="FreeSans" font-size="10.00">Mezzanine::Threading</text>
<text text-anchor="middle" x="531" y="-157" font-family="FreeSans" font-size="10.00">::AsynchronousFileLoadWorkUnit</text>
</a>
</g>
<!-- Node3&#45;&gt;Node4 -->
<g id="edge6" class="edge"><title>Node3&#45;&gt;Node4</title>
<path fill="none" stroke="midnightblue" d="M426.08,-166C434.523,-166 443.172,-166 451.706,-166"/>
<polygon fill="midnightblue" stroke="midnightblue" points="425.906,-162.5 415.906,-166 425.906,-169.5 425.906,-162.5"/>
</g>
</g>
</svg>
