<?xml version="1.0" encoding="UTF-8" standalone="no"?>
<!DOCTYPE svg PUBLIC "-//W3C//DTD SVG 1.1//EN"
 "http://www.w3.org/Graphics/SVG/1.1/DTD/svg11.dtd">
<!-- Generated by graphviz version 2.26.3 (20100126.1600)
 -->
<!-- Title: G Pages: 1 -->
<svg width="438pt" height="150pt"
 viewBox="0.00 0.00 438.00 150.00" xmlns="http://www.w3.org/2000/svg" xmlns:xlink="http://www.w3.org/1999/xlink">
<g id="graph1" class="graph" transform="scale(1 1) rotate(0) translate(4 146)">
<title>G</title>
<polygon fill="white" stroke="white" points="-4,5 -4,-146 435,-146 435,5 -4,5"/>
<!-- Node1 -->
<g id="node1" class="node"><title>Node1</title>
<a xlink:href="classMezzanine_1_1Threading_1_1WorkUnit.html" target="_top" xlink:title="Default implementation of WorkUnit. This represents on piece of work through time.">
<polygon fill="white" stroke="black" points="0.5,-60 0.5,-82 165.5,-82 165.5,-60 0.5,-60"/>
<text text-anchor="middle" x="83" y="-69" font-family="FreeSans" font-size="10.00">Mezzanine::Threading::WorkUnit</text>
</a>
</g>
<!-- Node2 -->
<g id="node3" class="node"><title>Node2</title>
<a xlink:href="classMezzanine_1_1Threading_1_1AsynchronousWorkUnit.html" target="_top" xlink:title="Mezzanine::Threading::AsynchronousWorkUnit">
<polygon fill="white" stroke="black" points="202,-120 202,-142 430,-142 430,-120 202,-120"/>
<text text-anchor="middle" x="316" y="-129" font-family="FreeSans" font-size="10.00">Mezzanine::Threading::AsynchronousWorkUnit</text>
</a>
</g>
<!-- Node1&#45;&gt;Node2 -->
<g id="edge2" class="edge"><title>Node1&#45;&gt;Node2</title>
<path fill="none" stroke="midnightblue" d="M121.416,-85.5538C144.514,-93.8909 174.645,-104.045 202,-111 215.34,-114.392 229.703,-117.4 243.587,-119.988"/>
<polygon fill="midnightblue" stroke="midnightblue" points="122.57,-82.2491 111.976,-82.1067 120.169,-88.8245 122.57,-82.2491"/>
</g>
<!-- Node3 -->
<g id="node5" class="node"><title>Node3</title>
<a xlink:href="classMezzanine_1_1Threading_1_1LogAggregator.html" target="_top" xlink:title="Gather all the thread specific logs and commit them to the main log.">
<polygon fill="white" stroke="black" points="219,-80 219,-102 413,-102 413,-80 219,-80"/>
<text text-anchor="middle" x="316" y="-89" font-family="FreeSans" font-size="10.00">Mezzanine::Threading::LogAggregator</text>
</a>
</g>
<!-- Node1&#45;&gt;Node3 -->
<g id="edge4" class="edge"><title>Node1&#45;&gt;Node3</title>
<path fill="none" stroke="midnightblue" d="M175.953,-78.9788C190.024,-80.1866 204.574,-81.4356 218.735,-82.651"/>
<polygon fill="midnightblue" stroke="midnightblue" points="176.066,-75.4757 165.803,-78.1076 175.467,-82.4501 176.066,-75.4757"/>
</g>
<!-- Node4 -->
<g id="node7" class="node"><title>Node4</title>
<a xlink:href="classMezzanine_1_1Threading_1_1LogBufferSwapper.html" target="_top" xlink:title="Swaps all of the Logs so the Usable logs can be commited, and the usable commitable.">
<polygon fill="white" stroke="black" points="212,-40 212,-62 420,-62 420,-40 212,-40"/>
<text text-anchor="middle" x="316" y="-49" font-family="FreeSans" font-size="10.00">Mezzanine::Threading::LogBufferSwapper</text>
</a>
</g>
<!-- Node1&#45;&gt;Node4 -->
<g id="edge6" class="edge"><title>Node1&#45;&gt;Node4</title>
<path fill="none" stroke="midnightblue" d="M176.05,-63.0129C187.822,-62.0024 199.927,-60.9634 211.857,-59.9393"/>
<polygon fill="midnightblue" stroke="midnightblue" points="175.467,-59.5499 165.803,-63.8924 176.066,-66.5243 175.467,-59.5499"/>
</g>
<!-- Node5 -->
<g id="node9" class="node"><title>Node5</title>
<a xlink:href="classMezzanine_1_1Threading_1_1MonopolyWorkUnit.html" target="_top" xlink:title="A kind of workunit given exclusive runtime so it can consume time on multiple threads.">
<polygon fill="white" stroke="black" points="211.5,-0 211.5,-22 420.5,-22 420.5,-0 211.5,-0"/>
<text text-anchor="middle" x="316" y="-9" font-family="FreeSans" font-size="10.00">Mezzanine::Threading::MonopolyWorkUnit</text>
</a>
</g>
<!-- Node1&#45;&gt;Node5 -->
<g id="edge8" class="edge"><title>Node1&#45;&gt;Node5</title>
<path fill="none" stroke="midnightblue" d="M121.416,-56.4462C144.514,-48.1091 174.645,-37.9549 202,-31 215.34,-27.6084 229.703,-24.5998 243.587,-22.0122"/>
<polygon fill="midnightblue" stroke="midnightblue" points="120.169,-53.1755 111.976,-59.8933 122.57,-59.7509 120.169,-53.1755"/>
</g>
</g>
</svg>
