<?xml version="1.0" encoding="UTF-8" standalone="no"?>
<!DOCTYPE svg PUBLIC "-//W3C//DTD SVG 1.1//EN"
 "http://www.w3.org/Graphics/SVG/1.1/DTD/svg11.dtd">
<!-- Generated by graphviz version 2.26.3 (20100126.1600)
 -->
<!-- Title: logtools.h Pages: 1 -->
<svg width="672pt" height="204pt"
 viewBox="0.00 0.00 672.00 204.00" xmlns="http://www.w3.org/2000/svg" xmlns:xlink="http://www.w3.org/1999/xlink">
<g id="graph1" class="graph" transform="scale(1 1) rotate(0) translate(4 200)">
<title>logtools.h</title>
<polygon fill="white" stroke="white" points="-4,5 -4,-200 669,-200 669,5 -4,5"/>
<!-- Node1 -->
<g id="node1" class="node"><title>Node1</title>
<polygon fill="#bfbfbf" stroke="black" points="357.5,-175 357.5,-195 414.5,-195 414.5,-175 357.5,-175"/>
<text text-anchor="middle" x="386" y="-182" font-family="FreeSans" font-size="10.00">logtools.h</text>
</g>
<!-- Node2 -->
<g id="node3" class="node"><title>Node2</title>
<a xlink:href="datatypes_8h.html" target="_top" xlink:title="This file declares a few typedefs to allow flexibility, in case a change is required/desired. ">
<polygon fill="white" stroke="black" points="320.5,-59 320.5,-79 385.5,-79 385.5,-59 320.5,-59"/>
<text text-anchor="middle" x="353" y="-66" font-family="FreeSans" font-size="10.00">datatypes.h</text>
</a>
</g>
<!-- Node1&#45;&gt;Node2 -->
<g id="edge2" class="edge"><title>Node1&#45;&gt;Node2</title>
<path fill="none" stroke="midnightblue" d="M371.307,-174.974C360.373,-166.551 346.296,-153.435 340,-138 333.479,-122.015 338.152,-102.599 343.629,-88.4399"/>
<polygon fill="midnightblue" stroke="midnightblue" points="346.874,-89.7528 347.611,-79.1836 340.444,-86.9867 346.874,-89.7528"/>
</g>
<!-- Node13 -->
<g id="node25" class="node"><title>Node13</title>
<a xlink:href="systemcalls_8h.html" target="_top" xlink:title="This file defines a minimalistic cross&#45;platform thread that the scheduler uses to schedule tasks...">
<polygon fill="white" stroke="black" points="349,-117 349,-137 423,-137 423,-117 349,-117"/>
<text text-anchor="middle" x="386" y="-124" font-family="FreeSans" font-size="10.00">systemcalls.h</text>
</a>
</g>
<!-- Node1&#45;&gt;Node13 -->
<g id="edge24" class="edge"><title>Node1&#45;&gt;Node13</title>
<path fill="none" stroke="midnightblue" d="M386,-174.897C386,-167.339 386,-156.748 386,-147.446"/>
<polygon fill="midnightblue" stroke="midnightblue" points="389.5,-147.378 386,-137.378 382.5,-147.378 389.5,-147.378"/>
</g>
<!-- Node14 -->
<g id="node28" class="node"><title>Node14</title>
<polygon fill="white" stroke="#bfbfbf" points="440.5,-117 440.5,-137 493.5,-137 493.5,-117 440.5,-117"/>
<text text-anchor="middle" x="467" y="-124" font-family="FreeSans" font-size="10.00">iostream</text>
</g>
<!-- Node1&#45;&gt;Node14 -->
<g id="edge28" class="edge"><title>Node1&#45;&gt;Node14</title>
<path fill="none" stroke="midnightblue" d="M400.109,-174.897C412.346,-166.135 430.276,-153.297 444.493,-143.116"/>
<polygon fill="midnightblue" stroke="midnightblue" points="446.688,-145.849 452.781,-137.182 442.613,-140.158 446.688,-145.849"/>
</g>
<!-- Node3 -->
<g id="node5" class="node"><title>Node3</title>
<a xlink:href="crossplatformexport_8h.html" target="_top" xlink:title="This file determines what features are offered by the compiler that this library can take advantage o...">
<polygon fill="white" stroke="black" points="0,-1 0,-21 108,-21 108,-1 0,-1"/>
<text text-anchor="middle" x="54" y="-8" font-family="FreeSans" font-size="10.00">crossplatformexport.h</text>
</a>
</g>
<!-- Node2&#45;&gt;Node3 -->
<g id="edge4" class="edge"><title>Node2&#45;&gt;Node3</title>
<path fill="none" stroke="midnightblue" d="M320.433,-62.6826C271.47,-53.1849 178.02,-35.0574 115.844,-22.9965"/>
<polygon fill="midnightblue" stroke="midnightblue" points="116.247,-19.5096 105.764,-21.0411 114.914,-26.3815 116.247,-19.5096"/>
</g>
<!-- Node4 -->
<g id="node7" class="node"><title>Node4</title>
<polygon fill="white" stroke="#bfbfbf" points="125.5,-1 125.5,-21 168.5,-21 168.5,-1 125.5,-1"/>
<text text-anchor="middle" x="147" y="-8" font-family="FreeSans" font-size="10.00">vector</text>
</g>
<!-- Node2&#45;&gt;Node4 -->
<g id="edge6" class="edge"><title>Node2&#45;&gt;Node4</title>
<path fill="none" stroke="midnightblue" d="M320.307,-61.2103C286.788,-53.0181 232.988,-39.3017 178.389,-22.2696"/>
<polygon fill="midnightblue" stroke="midnightblue" points="179.139,-18.8364 168.55,-19.1663 177.034,-25.5122 179.139,-18.8364"/>
</g>
<!-- Node5 -->
<g id="node9" class="node"><title>Node5</title>
<polygon fill="white" stroke="#bfbfbf" points="186,-1 186,-21 226,-21 226,-1 186,-1"/>
<text text-anchor="middle" x="206" y="-8" font-family="FreeSans" font-size="10.00">string</text>
</g>
<!-- Node2&#45;&gt;Node5 -->
<g id="edge8" class="edge"><title>Node2&#45;&gt;Node5</title>
<path fill="none" stroke="midnightblue" d="M327.395,-58.8972C301.865,-48.8245 262.682,-33.3644 235.778,-22.7491"/>
<polygon fill="midnightblue" stroke="midnightblue" points="236.709,-19.3538 226.122,-18.9393 234.139,-25.8653 236.709,-19.3538"/>
</g>
<!-- Node6 -->
<g id="node11" class="node"><title>Node6</title>
<polygon fill="white" stroke="#bfbfbf" points="243.5,-1 243.5,-21 294.5,-21 294.5,-1 243.5,-1"/>
<text text-anchor="middle" x="269" y="-8" font-family="FreeSans" font-size="10.00">ostream</text>
</g>
<!-- Node2&#45;&gt;Node6 -->
<g id="edge10" class="edge"><title>Node2&#45;&gt;Node6</title>
<path fill="none" stroke="midnightblue" d="M338.368,-58.8972C325.678,-50.1351 307.085,-37.2965 292.341,-27.1164"/>
<polygon fill="midnightblue" stroke="midnightblue" points="293.964,-23.9835 283.746,-21.1817 289.986,-29.7438 293.964,-23.9835"/>
</g>
<!-- Node7 -->
<g id="node13" class="node"><title>Node7</title>
<polygon fill="white" stroke="#bfbfbf" points="311.5,-1 311.5,-21 346.5,-21 346.5,-1 311.5,-1"/>
<text text-anchor="middle" x="329" y="-8" font-family="FreeSans" font-size="10.00">map</text>
</g>
<!-- Node2&#45;&gt;Node7 -->
<g id="edge12" class="edge"><title>Node2&#45;&gt;Node7</title>
<path fill="none" stroke="midnightblue" d="M348.82,-58.8972C345.624,-51.1747 341.118,-40.2857 337.21,-30.841"/>
<polygon fill="midnightblue" stroke="midnightblue" points="340.352,-29.2795 333.294,-21.3776 333.884,-31.956 340.352,-29.2795"/>
</g>
<!-- Node8 -->
<g id="node15" class="node"><title>Node8</title>
<polygon fill="white" stroke="#bfbfbf" points="363.5,-1 363.5,-21 392.5,-21 392.5,-1 363.5,-1"/>
<text text-anchor="middle" x="378" y="-8" font-family="FreeSans" font-size="10.00">set</text>
</g>
<!-- Node2&#45;&gt;Node8 -->
<g id="edge14" class="edge"><title>Node2&#45;&gt;Node8</title>
<path fill="none" stroke="midnightblue" d="M357.355,-58.8972C360.683,-51.1747 365.377,-40.2857 369.448,-30.841"/>
<polygon fill="midnightblue" stroke="midnightblue" points="372.783,-31.9463 373.527,-21.3776 366.354,-29.1754 372.783,-31.9463"/>
</g>
<!-- Node9 -->
<g id="node17" class="node"><title>Node9</title>
<polygon fill="white" stroke="#bfbfbf" points="410,-1 410,-21 460,-21 460,-1 410,-1"/>
<text text-anchor="middle" x="435" y="-8" font-family="FreeSans" font-size="10.00">sstream</text>
</g>
<!-- Node2&#45;&gt;Node9 -->
<g id="edge16" class="edge"><title>Node2&#45;&gt;Node9</title>
<path fill="none" stroke="midnightblue" d="M367.283,-58.8972C379.671,-50.1351 397.822,-37.2965 412.215,-27.1164"/>
<polygon fill="midnightblue" stroke="midnightblue" points="414.462,-29.8138 420.605,-21.1817 410.42,-24.0989 414.462,-29.8138"/>
</g>
<!-- Node10 -->
<g id="node19" class="node"><title>Node10</title>
<polygon fill="white" stroke="#bfbfbf" points="477.5,-1 477.5,-21 526.5,-21 526.5,-1 477.5,-1"/>
<text text-anchor="middle" x="502" y="-8" font-family="FreeSans" font-size="10.00">fstream</text>
</g>
<!-- Node2&#45;&gt;Node10 -->
<g id="edge18" class="edge"><title>Node2&#45;&gt;Node10</title>
<path fill="none" stroke="midnightblue" d="M378.954,-58.8972C403.608,-49.3004 440.824,-34.8134 467.871,-24.2852"/>
<polygon fill="midnightblue" stroke="midnightblue" points="469.284,-27.4911 477.333,-20.6019 466.744,-20.9679 469.284,-27.4911"/>
</g>
<!-- Node11 -->
<g id="node21" class="node"><title>Node11</title>
<polygon fill="white" stroke="#bfbfbf" points="544,-1 544,-21 600,-21 600,-1 544,-1"/>
<text text-anchor="middle" x="572" y="-8" font-family="FreeSans" font-size="10.00">algorithm</text>
</g>
<!-- Node2&#45;&gt;Node11 -->
<g id="edge20" class="edge"><title>Node2&#45;&gt;Node11</title>
<path fill="none" stroke="midnightblue" d="M385.643,-60.9493C420.145,-52.357 476.381,-38.1166 533.779,-22.2779"/>
<polygon fill="midnightblue" stroke="midnightblue" points="535.047,-25.5584 543.749,-19.5138 533.177,-18.8129 535.047,-25.5584"/>
</g>
<!-- Node12 -->
<g id="node23" class="node"><title>Node12</title>
<polygon fill="white" stroke="#bfbfbf" points="617.5,-1 617.5,-21 664.5,-21 664.5,-1 617.5,-1"/>
<text text-anchor="middle" x="641" y="-8" font-family="FreeSans" font-size="10.00">stdint.h</text>
</g>
<!-- Node2&#45;&gt;Node12 -->
<g id="edge22" class="edge"><title>Node2&#45;&gt;Node12</title>
<path fill="none" stroke="midnightblue" d="M385.671,-64.601C432.852,-57.9034 522.88,-43.832 607.588,-22.1141"/>
<polygon fill="midnightblue" stroke="midnightblue" points="608.561,-25.4775 617.355,-19.569 606.796,-18.7037 608.561,-25.4775"/>
</g>
<!-- Node13&#45;&gt;Node2 -->
<g id="edge26" class="edge"><title>Node13&#45;&gt;Node2</title>
<path fill="none" stroke="midnightblue" d="M380.252,-116.897C375.765,-109.01 369.398,-97.8209 363.947,-88.2401"/>
<polygon fill="midnightblue" stroke="midnightblue" points="366.892,-86.3384 358.904,-79.3776 360.808,-89.8001 366.892,-86.3384"/>
</g>
</g>
</svg>
