<?xml version="1.0" encoding="UTF-8" standalone="no"?>
<!DOCTYPE svg PUBLIC "-//W3C//DTD SVG 1.1//EN"
 "http://www.w3.org/Graphics/SVG/1.1/DTD/svg11.dtd">
<!-- Generated by graphviz version 2.26.3 (20100126.1600)
 -->
<!-- Title: logtools.h Pages: 1 -->
<svg width="200pt" height="88pt"
 viewBox="0.00 0.00 200.00 88.00" xmlns="http://www.w3.org/2000/svg" xmlns:xlink="http://www.w3.org/1999/xlink">
<g id="graph1" class="graph" transform="scale(1 1) rotate(0) translate(4 84)">
<title>logtools.h</title>
<polygon fill="white" stroke="white" points="-4,5 -4,-84 197,-84 197,5 -4,5"/>
<!-- Node1 -->
<g id="node1" class="node"><title>Node1</title>
<polygon fill="#bfbfbf" stroke="black" points="76.5,-59 76.5,-79 133.5,-79 133.5,-59 76.5,-59"/>
<text text-anchor="middle" x="105" y="-66" font-family="FreeSans" font-size="10.00">logtools.h</text>
</g>
<!-- Node2 -->
<g id="node3" class="node"><title>Node2</title>
<a xlink:href="dagframescheduler_8h.html" target="_top" xlink:title="This is the file that code using this library should include. It includes all the required components...">
<polygon fill="white" stroke="black" points="0,-1 0,-21 106,-21 106,-1 0,-1"/>
<text text-anchor="middle" x="53" y="-8" font-family="FreeSans" font-size="10.00">dagframescheduler.h</text>
</a>
</g>
<!-- Node1&#45;&gt;Node2 -->
<g id="edge2" class="edge"><title>Node1&#45;&gt;Node2</title>
<path fill="none" stroke="midnightblue" d="M89.1088,-51.2752C80.3342,-41.4882 69.7403,-29.6718 62.3041,-21.3776"/>
<polygon fill="midnightblue" stroke="midnightblue" points="86.6608,-53.7879 95.9423,-58.8972 91.8728,-49.115 86.6608,-53.7879"/>
</g>
<!-- Node3 -->
<g id="node5" class="node"><title>Node3</title>
<a xlink:href="logtools_8cpp.html" target="_top" xlink:title="Tools that make logging specific data a little bit easier. ">
<polygon fill="white" stroke="black" points="124,-1 124,-21 192,-21 192,-1 124,-1"/>
<text text-anchor="middle" x="158" y="-8" font-family="FreeSans" font-size="10.00">logtools.cpp</text>
</a>
</g>
<!-- Node1&#45;&gt;Node3 -->
<g id="edge4" class="edge"><title>Node1&#45;&gt;Node3</title>
<path fill="none" stroke="midnightblue" d="M121.197,-51.2752C130.14,-41.4882 140.938,-29.6718 148.517,-21.3776"/>
<polygon fill="midnightblue" stroke="midnightblue" points="118.394,-49.154 114.232,-58.8972 123.561,-53.8761 118.394,-49.154"/>
</g>
</g>
</svg>
