<?xml version="1.0" encoding="UTF-8" standalone="no"?>
<!DOCTYPE svg PUBLIC "-//W3C//DTD SVG 1.1//EN"
 "http://www.w3.org/Graphics/SVG/1.1/DTD/svg11.dtd">
<!-- Generated by graphviz version 2.26.3 (20100126.1600)
 -->
<!-- Title: G Pages: 1 -->
<!--zoomable 452 -->
<svg id="main" version="1.1" xmlns="http://www.w3.org/2000/svg" xmlns:xlink="http://www.w3.org/1999/xlink" xml:space="preserve" onload="init(evt)">
        <defs>
                <circle id="rim" cx="0" cy="0" r="7"/>
                <circle id="rim2" cx="0" cy="0" r="3.5"/>
                <g id="zoomPlus">
                        <use xlink:href="#rim" fill="#404040">
                                <set attributeName="fill" to="#808080" begin="zoomplus.mouseover" end="zoomplus.mouseout"/>
                        </use>
                        <path d="M-4,0h8M0,-4v8" fill="none" stroke="white" stroke-width="1.5" pointer-events="none"/>
                </g>
                <g id="zoomMin">
                        <use xlink:href="#rim" fill="#404040">
                                <set attributeName="fill" to="#808080" begin="zoomminus.mouseover" end="zoomminus.mouseout"/>
                        </use>
                        <path d="M-4,0h8" fill="none" stroke="white" stroke-width="1.5" pointer-events="none"/>
                </g>
                <g id="dirArrow">
                        <path fill="none" stroke="white" stroke-width="1.5" d="M0,-3.0v7 M-2.5,-0.5L0,-3.0L2.5,-0.5"/>
                </g>
               <g id="resetDef">
                       <use xlink:href="#rim2" fill="#404040">
                               <set attributeName="fill" to="#808080" begin="reset.mouseover" end="reset.mouseout"/>
                       </use>
               </g>
        </defs>

<script type="text/javascript">
var viewWidth = 916;
var viewHeight = 452;
var sectionId = 'dynsection-0';
</script>
<script xlink:href="svgpan.js"/>
<svg id="graph" class="graph">
<g id="viewport">
<title>G</title>
<polygon fill="white" stroke="white" points="-4,5 -4,-448 913.125,-448 913.125,5 -4,5"/>
<!-- Node1 -->
<g id="node1" class="node"><title>Node1</title>
<polygon fill="#bfbfbf" stroke="black" points="365.125,-421 365.125,-443 433.125,-443 433.125,-421 365.125,-421"/>
<text text-anchor="middle" x="399.125" y="-430" font-family="FreeSans" font-size="10.00">monopoly.h</text>
</g>
<!-- Node2 -->
<g id="node3" class="node"><title>Node2</title>
<a xlink:href="datatypes_8h.html" target="_top" xlink:title="This file declares a few typedefs to allow flexibility, in case a change is required/desired.">
<polygon fill="white" stroke="black" points="518.125,-121 518.125,-143 586.125,-143 586.125,-121 518.125,-121"/>
<text text-anchor="middle" x="552.125" y="-130" font-family="FreeSans" font-size="10.00">datatypes.h</text>
</a>
</g>
<!-- Node1&#45;&gt;Node2 -->
<g id="edge2" class="edge"><title>Node1&#45;&gt;Node2</title>
<path fill="none" stroke="midnightblue" d="M433.312,-431.285C547.436,-427.988 908.125,-409.827 908.125,-312 908.125,-312 908.125,-312 908.125,-252 908.125,-200.775 864.758,-201.197 818.125,-180 779.297,-162.351 661.496,-145.565 596.45,-137.314"/>
<polygon fill="midnightblue" stroke="midnightblue" points="596.841,-133.836 586.483,-136.065 595.97,-140.782 596.841,-133.836"/>
</g>
<!-- Node10 -->
<g id="node19" class="node"><title>Node10</title>
<a xlink:href="doublebufferedresource_8h.html" target="_top" xlink:title="This file defines the template double buffered resources that can be attached to a thread...">
<polygon fill="white" stroke="black" points="49.6246,-241 49.6246,-263 180.625,-263 180.625,-241 49.6246,-241"/>
<text text-anchor="middle" x="115.125" y="-250" font-family="FreeSans" font-size="10.00">doublebufferedresource.h</text>
</a>
</g>
<!-- Node1&#45;&gt;Node10 -->
<g id="edge18" class="edge"><title>Node1&#45;&gt;Node10</title>
<path fill="none" stroke="midnightblue" d="M381.359,-420.74C332.931,-390.046 198.422,-304.794 141.311,-268.597"/>
<polygon fill="midnightblue" stroke="midnightblue" points="142.841,-265.423 132.521,-263.026 139.093,-271.335 142.841,-265.423"/>
</g>
<!-- Node14 -->
<g id="node28" class="node"><title>Node14</title>
<a xlink:href="workunit_8h.html" target="_top" xlink:title="This file has the definition of the workunit.">
<polygon fill="white" stroke="black" points="368.625,-361 368.625,-383 429.625,-383 429.625,-361 368.625,-361"/>
<text text-anchor="middle" x="399.125" y="-370" font-family="FreeSans" font-size="10.00">workunit.h</text>
</a>
</g>
<!-- Node1&#45;&gt;Node14 -->
<g id="edge28" class="edge"><title>Node1&#45;&gt;Node14</title>
<path fill="none" stroke="midnightblue" d="M399.125,-420.995C399.125,-413.311 399.125,-402.803 399.125,-393.488"/>
<polygon fill="midnightblue" stroke="midnightblue" points="402.625,-393.343 399.125,-383.343 395.625,-393.343 402.625,-393.343"/>
</g>
<!-- Node3 -->
<g id="node5" class="node"><title>Node3</title>
<a xlink:href="compilerthreadcompat_8h.html" target="_top" xlink:title="This file determines what features are offered by the compiler that this library can take advantage o...">
<polygon fill="white" stroke="black" points="292.125,-61 292.125,-83 416.125,-83 416.125,-61 292.125,-61"/>
<text text-anchor="middle" x="354.125" y="-70" font-family="FreeSans" font-size="10.00">compilerthreadcompat.h</text>
</a>
</g>
<!-- Node2&#45;&gt;Node3 -->
<g id="edge4" class="edge"><title>Node2&#45;&gt;Node3</title>
<path fill="none" stroke="midnightblue" d="M518.087,-121.686C485.645,-111.855 436.539,-96.9739 400.522,-86.0599"/>
<polygon fill="midnightblue" stroke="midnightblue" points="401.321,-82.6448 390.736,-83.0943 399.291,-89.344 401.321,-82.6448"/>
</g>
<!-- Node8 -->
<g id="node15" class="node"><title>Node8</title>
<polygon fill="white" stroke="#bfbfbf" points="233.625,-61 233.625,-83 274.625,-83 274.625,-61 233.625,-61"/>
<text text-anchor="middle" x="254.125" y="-70" font-family="FreeSans" font-size="10.00">string</text>
</g>
<!-- Node2&#45;&gt;Node8 -->
<g id="edge14" class="edge"><title>Node2&#45;&gt;Node8</title>
<path fill="none" stroke="midnightblue" d="M518.036,-128.31C468.254,-122.407 372.784,-109.14 284.464,-83.997"/>
<polygon fill="midnightblue" stroke="midnightblue" points="285.42,-80.6301 274.84,-81.201 283.467,-87.3521 285.42,-80.6301"/>
</g>
<!-- Node9 -->
<g id="node17" class="node"><title>Node9</title>
<polygon fill="white" stroke="#bfbfbf" points="528.625,-61 528.625,-83 575.625,-83 575.625,-61 528.625,-61"/>
<text text-anchor="middle" x="552.125" y="-70" font-family="FreeSans" font-size="10.00">stdint.h</text>
</g>
<!-- Node2&#45;&gt;Node9 -->
<g id="edge16" class="edge"><title>Node2&#45;&gt;Node9</title>
<path fill="none" stroke="midnightblue" d="M552.125,-120.995C552.125,-113.311 552.125,-102.803 552.125,-93.4884"/>
<polygon fill="midnightblue" stroke="midnightblue" points="555.625,-93.3428 552.125,-83.3428 548.625,-93.3429 555.625,-93.3428"/>
</g>
<!-- Node4 -->
<g id="node7" class="node"><title>Node4</title>
<polygon fill="white" stroke="#bfbfbf" points="219.125,-1 219.125,-23 277.125,-23 277.125,-1 219.125,-1"/>
<text text-anchor="middle" x="248.125" y="-10" font-family="FreeSans" font-size="10.00">pthread.h</text>
</g>
<!-- Node3&#45;&gt;Node4 -->
<g id="edge6" class="edge"><title>Node3&#45;&gt;Node4</title>
<path fill="none" stroke="midnightblue" d="M334.683,-60.9951C318.423,-51.7917 295.006,-38.5366 276.627,-28.1336"/>
<polygon fill="midnightblue" stroke="midnightblue" points="278.229,-25.0185 267.802,-23.1383 274.781,-31.1103 278.229,-25.0185"/>
</g>
<!-- Node5 -->
<g id="node9" class="node"><title>Node5</title>
<polygon fill="white" stroke="#bfbfbf" points="294.625,-1 294.625,-23 345.625,-23 345.625,-1 294.625,-1"/>
<text text-anchor="middle" x="320.125" y="-10" font-family="FreeSans" font-size="10.00">signal.h</text>
</g>
<!-- Node3&#45;&gt;Node5 -->
<g id="edge8" class="edge"><title>Node3&#45;&gt;Node5</title>
<path fill="none" stroke="midnightblue" d="M347.888,-60.9951C343.345,-52.9771 337.059,-41.884 331.617,-32.2806"/>
<polygon fill="midnightblue" stroke="midnightblue" points="334.527,-30.3175 326.552,-23.3428 328.437,-33.7686 334.527,-30.3175"/>
</g>
<!-- Node6 -->
<g id="node11" class="node"><title>Node6</title>
<polygon fill="white" stroke="#bfbfbf" points="363.125,-1 363.125,-23 415.125,-23 415.125,-1 363.125,-1"/>
<text text-anchor="middle" x="389.125" y="-10" font-family="FreeSans" font-size="10.00">sched.h</text>
</g>
<!-- Node3&#45;&gt;Node6 -->
<g id="edge10" class="edge"><title>Node3&#45;&gt;Node6</title>
<path fill="none" stroke="midnightblue" d="M360.544,-60.9951C365.27,-52.8936 371.827,-41.6525 377.469,-31.981"/>
<polygon fill="midnightblue" stroke="midnightblue" points="380.492,-33.7442 382.508,-23.3428 374.446,-30.2171 380.492,-33.7442"/>
</g>
<!-- Node7 -->
<g id="node13" class="node"><title>Node7</title>
<polygon fill="white" stroke="#bfbfbf" points="433.125,-1 433.125,-23 483.125,-23 483.125,-1 433.125,-1"/>
<text text-anchor="middle" x="458.125" y="-10" font-family="FreeSans" font-size="10.00">unistd.h</text>
</g>
<!-- Node3&#45;&gt;Node7 -->
<g id="edge12" class="edge"><title>Node3&#45;&gt;Node7</title>
<path fill="none" stroke="midnightblue" d="M373.2,-60.9951C389.079,-51.8337 411.918,-38.6576 429.912,-28.2763"/>
<polygon fill="midnightblue" stroke="midnightblue" points="431.905,-31.1673 438.818,-23.1383 428.407,-25.104 431.905,-31.1673"/>
</g>
<!-- Node10&#45;&gt;Node2 -->
<g id="edge20" class="edge"><title>Node10&#45;&gt;Node2</title>
<path fill="none" stroke="midnightblue" d="M122.602,-240.997C134.402,-224.619 159.02,-194.232 188.125,-180 243.643,-152.851 423.903,-139.291 508.075,-134.31"/>
<polygon fill="midnightblue" stroke="midnightblue" points="508.308,-137.802 518.089,-133.731 507.904,-130.814 508.308,-137.802"/>
</g>
<!-- Node11 -->
<g id="node22" class="node"><title>Node11</title>
<polygon fill="white" stroke="#bfbfbf" points="83.1246,-181 83.1246,-203 141.125,-203 141.125,-181 83.1246,-181"/>
<text text-anchor="middle" x="112.125" y="-190" font-family="FreeSans" font-size="10.00">algorithm</text>
</g>
<!-- Node10&#45;&gt;Node11 -->
<g id="edge22" class="edge"><title>Node10&#45;&gt;Node11</title>
<path fill="none" stroke="midnightblue" d="M114.574,-240.995C114.19,-233.311 113.665,-222.803 113.199,-213.488"/>
<polygon fill="midnightblue" stroke="midnightblue" points="116.687,-213.156 112.692,-203.343 109.696,-213.505 116.687,-213.156"/>
</g>
<!-- Node12 -->
<g id="node24" class="node"><title>Node12</title>
<polygon fill="white" stroke="#bfbfbf" points="12.6246,-181 12.6246,-203 65.6246,-203 65.6246,-181 12.6246,-181"/>
<text text-anchor="middle" x="39.1246" y="-190" font-family="FreeSans" font-size="10.00">sstream</text>
</g>
<!-- Node10&#45;&gt;Node12 -->
<g id="edge24" class="edge"><title>Node10&#45;&gt;Node12</title>
<path fill="none" stroke="midnightblue" d="M101.185,-240.995C90.0065,-232.17 74.109,-219.619 61.2028,-209.43"/>
<polygon fill="midnightblue" stroke="midnightblue" points="63.2508,-206.588 53.2332,-203.138 58.9132,-212.082 63.2508,-206.588"/>
</g>
<!-- Node13 -->
<g id="node26" class="node"><title>Node13</title>
<polygon fill="white" stroke="#bfbfbf" points="197.125,-181 197.125,-203 241.125,-203 241.125,-181 197.125,-181"/>
<text text-anchor="middle" x="219.125" y="-190" font-family="FreeSans" font-size="10.00">vector</text>
</g>
<!-- Node10&#45;&gt;Node13 -->
<g id="edge26" class="edge"><title>Node10&#45;&gt;Node13</title>
<path fill="none" stroke="midnightblue" d="M134.2,-240.995C150.079,-231.834 172.918,-218.658 190.912,-208.276"/>
<polygon fill="midnightblue" stroke="midnightblue" points="192.905,-211.167 199.818,-203.138 189.407,-205.104 192.905,-211.167"/>
</g>
<!-- Node14&#45;&gt;Node2 -->
<g id="edge30" class="edge"><title>Node14&#45;&gt;Node2</title>
<path fill="none" stroke="midnightblue" d="M400.385,-360.92C404.585,-328.824 420.879,-234.609 472.125,-180 484.607,-166.698 501.591,-155.81 516.699,-147.786"/>
<polygon fill="midnightblue" stroke="midnightblue" points="518.472,-150.811 525.806,-143.165 515.305,-144.569 518.472,-150.811"/>
</g>
<!-- Node14&#45;&gt;Node13 -->
<g id="edge92" class="edge"><title>Node14&#45;&gt;Node13</title>
<path fill="none" stroke="midnightblue" d="M368.555,-362.228C328.645,-347.722 260.015,-316.416 227.125,-264 217.657,-248.912 216.217,-228.482 216.819,-213.239"/>
<polygon fill="midnightblue" stroke="midnightblue" points="220.314,-213.429 217.533,-203.206 213.332,-212.932 220.314,-213.429"/>
</g>
<!-- Node15 -->
<g id="node31" class="node"><title>Node15</title>
<a xlink:href="framescheduler_8h.html" target="_top" xlink:title="This file has the Declarations for the main FrameScheduler class.">
<polygon fill="white" stroke="black" points="488.125,-301 488.125,-323 582.125,-323 582.125,-301 488.125,-301"/>
<text text-anchor="middle" x="535.125" y="-310" font-family="FreeSans" font-size="10.00">framescheduler.h</text>
</a>
</g>
<!-- Node14&#45;&gt;Node15 -->
<g id="edge32" class="edge"><title>Node14&#45;&gt;Node15</title>
<path fill="none" stroke="midnightblue" d="M424.069,-360.995C445.502,-351.54 476.628,-337.807 500.478,-327.285"/>
<polygon fill="midnightblue" stroke="midnightblue" points="502.141,-330.377 509.878,-323.138 499.316,-323.973 502.141,-330.377"/>
</g>
<!-- Node16 -->
<g id="node35" class="node"><title>Node16</title>
<a xlink:href="thread_8h.html" target="_top" xlink:title="This file defines a minimalistic cross&#45;platform thread that the scheduler uses to schedule tasks...">
<polygon fill="white" stroke="black" points="341.625,-241 341.625,-263 394.625,-263 394.625,-241 341.625,-241"/>
<text text-anchor="middle" x="368.125" y="-250" font-family="FreeSans" font-size="10.00">thread.h</text>
</a>
</g>
<!-- Node14&#45;&gt;Node16 -->
<g id="edge88" class="edge"><title>Node14&#45;&gt;Node16</title>
<path fill="none" stroke="midnightblue" d="M396.264,-360.926C391.096,-340.923 380.13,-298.472 373.517,-272.872"/>
<polygon fill="midnightblue" stroke="midnightblue" points="376.869,-271.854 370.979,-263.047 370.091,-273.605 376.869,-271.854"/>
</g>
<!-- Node18 -->
<g id="node41" class="node"><title>Node18</title>
<a xlink:href="mutex_8h.html" target="_top" xlink:title="This file declares and defines a mutex that is a partial implementation.">
<polygon fill="white" stroke="black" points="228.625,-121 228.625,-143 279.625,-143 279.625,-121 228.625,-121"/>
<text text-anchor="middle" x="254.125" y="-130" font-family="FreeSans" font-size="10.00">mutex.h</text>
</a>
</g>
<!-- Node14&#45;&gt;Node18 -->
<g id="edge76" class="edge"><title>Node14&#45;&gt;Node18</title>
<path fill="none" stroke="midnightblue" d="M368.515,-369.992C302.252,-364.224 143.273,-342.561 41.1246,-264 16.2904,-244.9 12.6709,-234.141 4.12458,-204 1.21481,-193.738 -2.6697,-188.223 4.12458,-180 30.8691,-147.632 155.635,-136.87 218.183,-133.472"/>
<polygon fill="midnightblue" stroke="midnightblue" points="218.573,-136.957 228.382,-132.953 218.217,-129.966 218.573,-136.957"/>
</g>
<!-- Node20 -->
<g id="node48" class="node"><title>Node20</title>
<a xlink:href="workunitkey_8h.html" target="_top" xlink:title="This file defines the metadata used to sort workunits.">
<polygon fill="white" stroke="black" points="803.625,-241 803.625,-263 880.625,-263 880.625,-241 803.625,-241"/>
<text text-anchor="middle" x="842.125" y="-250" font-family="FreeSans" font-size="10.00">workunitkey.h</text>
</a>
</g>
<!-- Node14&#45;&gt;Node20 -->
<g id="edge90" class="edge"><title>Node14&#45;&gt;Node20</title>
<path fill="none" stroke="midnightblue" d="M429.891,-369.794C504.034,-364.157 690.689,-347.956 748.125,-324 777.904,-311.579 806.503,-287.323 824.175,-270.414"/>
<polygon fill="midnightblue" stroke="midnightblue" points="826.807,-272.734 831.49,-263.23 821.903,-267.739 826.807,-272.734"/>
</g>
<!-- Node26 -->
<g id="node65" class="node"><title>Node26</title>
<a xlink:href="rollingaverage_8h.html" target="_top" xlink:title="This stores the implementation and the declaration of the RollingAverage, BufferedRollingAverage, WeightedRollingAverage and the DefaultRollingAverage.">
<polygon fill="white" stroke="black" points="235.625,-241 235.625,-263 324.625,-263 324.625,-241 235.625,-241"/>
<text text-anchor="middle" x="280.125" y="-250" font-family="FreeSans" font-size="10.00">rollingaverage.h</text>
</a>
</g>
<!-- Node14&#45;&gt;Node26 -->
<g id="edge78" class="edge"><title>Node14&#45;&gt;Node26</title>
<path fill="none" stroke="midnightblue" d="M388.143,-360.926C367.598,-340.208 323.174,-295.411 298.169,-270.196"/>
<polygon fill="midnightblue" stroke="midnightblue" points="300.607,-267.684 291.08,-263.047 295.636,-272.613 300.607,-267.684"/>
</g>
<!-- Node27 -->
<g id="node69" class="node"><title>Node27</title>
<a xlink:href="threadingenumerations_8h.html" target="_top" xlink:title="Any enumerations the threading library requires are all declared here.">
<polygon fill="white" stroke="black" points="612.625,-301 612.625,-323 739.625,-323 739.625,-301 612.625,-301"/>
<text text-anchor="middle" x="676.125" y="-310" font-family="FreeSans" font-size="10.00">threadingenumerations.h</text>
</a>
</g>
<!-- Node14&#45;&gt;Node27 -->
<g id="edge84" class="edge"><title>Node14&#45;&gt;Node27</title>
<path fill="none" stroke="midnightblue" d="M429.827,-365.35C474.342,-355.707 557.739,-337.643 615.06,-325.227"/>
<polygon fill="midnightblue" stroke="midnightblue" points="616.057,-328.592 625.089,-323.055 614.575,-321.751 616.057,-328.592"/>
</g>
<!-- Node15&#45;&gt;Node2 -->
<g id="edge34" class="edge"><title>Node15&#45;&gt;Node2</title>
<path fill="none" stroke="midnightblue" d="M576.456,-300.927C595.055,-293.657 615.239,-282.048 626.125,-264 631.633,-254.866 629.28,-250.189 626.125,-240 623.075,-230.155 587.203,-180.05 566.547,-151.673"/>
<polygon fill="midnightblue" stroke="midnightblue" points="569.159,-149.316 560.436,-143.302 563.505,-153.443 569.159,-149.316"/>
</g>
<!-- Node15&#45;&gt;Node10 -->
<g id="edge36" class="edge"><title>Node15&#45;&gt;Node10</title>
<path fill="none" stroke="midnightblue" d="M487.762,-305.234C415.535,-294.916 277.173,-275.15 190.881,-262.822"/>
<polygon fill="midnightblue" stroke="midnightblue" points="191.278,-259.344 180.883,-261.394 190.287,-266.273 191.278,-259.344"/>
</g>
<!-- Node15&#45;&gt;Node16 -->
<g id="edge38" class="edge"><title>Node15&#45;&gt;Node16</title>
<path fill="none" stroke="midnightblue" d="M504.494,-300.995C476.238,-290.843 434.26,-275.761 404.351,-265.015"/>
<polygon fill="midnightblue" stroke="midnightblue" points="405.302,-261.638 394.707,-261.551 402.935,-268.226 405.302,-261.638"/>
</g>
<!-- Node17 -->
<g id="node38" class="node"><title>Node17</title>
<a xlink:href="systemcalls_8h.html" target="_top" xlink:title="This file defines a minimalistic cross&#45;platform thread that the scheduler uses to schedule tasks...">
<polygon fill="white" stroke="black" points="480.625,-181 480.625,-203 557.625,-203 557.625,-181 480.625,-181"/>
<text text-anchor="middle" x="519.125" y="-190" font-family="FreeSans" font-size="10.00">systemcalls.h</text>
</a>
</g>
<!-- Node15&#45;&gt;Node17 -->
<g id="edge60" class="edge"><title>Node15&#45;&gt;Node17</title>
<path fill="none" stroke="midnightblue" d="M563,-300.896C590.605,-288.143 626.67,-265.645 611.125,-240 601.354,-223.882 584.203,-212.921 567.336,-205.594"/>
<polygon fill="midnightblue" stroke="midnightblue" points="568.629,-202.341 558.044,-201.888 566.036,-208.843 568.629,-202.341"/>
</g>
<!-- Node15&#45;&gt;Node20 -->
<g id="edge56" class="edge"><title>Node15&#45;&gt;Node20</title>
<path fill="none" stroke="midnightblue" d="M582.421,-302.756C639.7,-291.562 735.678,-272.804 793.534,-261.497"/>
<polygon fill="midnightblue" stroke="midnightblue" points="794.383,-264.897 803.526,-259.544 793.04,-258.027 794.383,-264.897"/>
</g>
<!-- Node21 -->
<g id="node52" class="node"><title>Node21</title>
<a xlink:href="barrier_8h.html" target="_top" xlink:title="The declaration of the Mezzanine::Threading::Barrier Barrier synchronization primitive.">
<polygon fill="white" stroke="black" points="695.625,-241 695.625,-263 748.625,-263 748.625,-241 695.625,-241"/>
<text text-anchor="middle" x="722.125" y="-250" font-family="FreeSans" font-size="10.00">barrier.h</text>
</a>
</g>
<!-- Node15&#45;&gt;Node21 -->
<g id="edge62" class="edge"><title>Node15&#45;&gt;Node21</title>
<path fill="none" stroke="midnightblue" d="M569.423,-300.995C602.39,-290.418 652.036,-274.488 685.698,-263.688"/>
<polygon fill="midnightblue" stroke="midnightblue" points="687.143,-266.9 695.596,-260.512 685.004,-260.235 687.143,-266.9"/>
</g>
<!-- Node23 -->
<g id="node58" class="node"><title>Node23</title>
<polygon fill="white" stroke="#bfbfbf" points="566.125,-241 566.125,-263 602.125,-263 602.125,-241 566.125,-241"/>
<text text-anchor="middle" x="584.125" y="-250" font-family="FreeSans" font-size="10.00">map</text>
</g>
<!-- Node15&#45;&gt;Node23 -->
<g id="edge70" class="edge"><title>Node15&#45;&gt;Node23</title>
<path fill="none" stroke="midnightblue" d="M544.112,-300.995C550.933,-292.643 560.479,-280.954 568.536,-271.088"/>
<polygon fill="midnightblue" stroke="midnightblue" points="571.247,-273.302 574.861,-263.343 565.825,-268.874 571.247,-273.302"/>
</g>
<!-- Node24 -->
<g id="node60" class="node"><title>Node24</title>
<polygon fill="white" stroke="#bfbfbf" points="450.125,-241 450.125,-263 480.125,-263 480.125,-241 450.125,-241"/>
<text text-anchor="middle" x="465.125" y="-250" font-family="FreeSans" font-size="10.00">set</text>
</g>
<!-- Node15&#45;&gt;Node24 -->
<g id="edge72" class="edge"><title>Node15&#45;&gt;Node24</title>
<path fill="none" stroke="midnightblue" d="M522.285,-300.995C512.152,-292.309 497.807,-280.014 486.024,-269.913"/>
<polygon fill="midnightblue" stroke="midnightblue" points="488.228,-267.193 478.358,-263.343 483.673,-272.508 488.228,-267.193"/>
</g>
<!-- Node25 -->
<g id="node62" class="node"><title>Node25</title>
<polygon fill="white" stroke="#bfbfbf" points="498.125,-241 498.125,-263 548.125,-263 548.125,-241 498.125,-241"/>
<text text-anchor="middle" x="523.125" y="-250" font-family="FreeSans" font-size="10.00">fstream</text>
</g>
<!-- Node15&#45;&gt;Node25 -->
<g id="edge74" class="edge"><title>Node15&#45;&gt;Node25</title>
<path fill="none" stroke="midnightblue" d="M532.924,-300.995C531.37,-293.228 529.239,-282.574 527.362,-273.185"/>
<polygon fill="midnightblue" stroke="midnightblue" points="530.786,-272.462 525.393,-263.343 523.922,-273.835 530.786,-272.462"/>
</g>
<!-- Node16&#45;&gt;Node3 -->
<g id="edge40" class="edge"><title>Node16&#45;&gt;Node3</title>
<path fill="none" stroke="midnightblue" d="M367.179,-240.944C366.354,-231.217 365.132,-216.671 364.125,-204 361.029,-165.084 357.639,-119.696 355.708,-93.5586"/>
<polygon fill="midnightblue" stroke="midnightblue" points="359.178,-93.0185 354.952,-83.3028 352.196,-93.533 359.178,-93.0185"/>
</g>
<!-- Node16&#45;&gt;Node13 -->
<g id="edge54" class="edge"><title>Node16&#45;&gt;Node13</title>
<path fill="none" stroke="midnightblue" d="M341.486,-241.273C315.99,-231.006 277.524,-215.516 250.543,-204.652"/>
<polygon fill="midnightblue" stroke="midnightblue" points="251.751,-201.365 241.168,-200.876 249.136,-207.858 251.751,-201.365"/>
</g>
<!-- Node16&#45;&gt;Node17 -->
<g id="edge42" class="edge"><title>Node16&#45;&gt;Node17</title>
<path fill="none" stroke="midnightblue" d="M394.773,-241.411C418.903,-231.823 454.699,-217.599 481.698,-206.871"/>
<polygon fill="midnightblue" stroke="midnightblue" points="483.208,-210.038 491.209,-203.092 480.623,-203.532 483.208,-210.038"/>
</g>
<!-- Node16&#45;&gt;Node18 -->
<g id="edge46" class="edge"><title>Node16&#45;&gt;Node18</title>
<path fill="none" stroke="midnightblue" d="M344.615,-240.948C328.609,-232.537 307.755,-219.738 293.125,-204 279.205,-189.027 268.616,-168.154 262.01,-152.736"/>
<polygon fill="midnightblue" stroke="midnightblue" points="265.089,-151.018 258.08,-143.073 258.605,-153.655 265.089,-151.018"/>
</g>
<!-- Node19 -->
<g id="node45" class="node"><title>Node19</title>
<polygon fill="white" stroke="#bfbfbf" points="372.625,-181 372.625,-203 425.625,-203 425.625,-181 372.625,-181"/>
<text text-anchor="middle" x="399.125" y="-190" font-family="FreeSans" font-size="10.00">ostream</text>
</g>
<!-- Node16&#45;&gt;Node19 -->
<g id="edge52" class="edge"><title>Node16&#45;&gt;Node19</title>
<path fill="none" stroke="midnightblue" d="M373.81,-240.995C377.953,-232.977 383.685,-221.884 388.646,-212.281"/>
<polygon fill="midnightblue" stroke="midnightblue" points="391.783,-213.834 393.264,-203.343 385.564,-210.621 391.783,-213.834"/>
</g>
<!-- Node17&#45;&gt;Node2 -->
<g id="edge44" class="edge"><title>Node17&#45;&gt;Node2</title>
<path fill="none" stroke="midnightblue" d="M525.177,-180.995C529.587,-172.977 535.688,-161.884 540.97,-152.281"/>
<polygon fill="midnightblue" stroke="midnightblue" points="544.134,-153.792 545.886,-143.343 538,-150.418 544.134,-153.792"/>
</g>
<!-- Node18&#45;&gt;Node3 -->
<g id="edge48" class="edge"><title>Node18&#45;&gt;Node3</title>
<path fill="none" stroke="midnightblue" d="M272.466,-120.995C287.595,-111.918 309.293,-98.899 326.52,-88.5627"/>
<polygon fill="midnightblue" stroke="midnightblue" points="328.786,-91.2846 335.561,-83.1383 325.185,-85.2821 328.786,-91.2846"/>
</g>
<!-- Node18&#45;&gt;Node8 -->
<g id="edge50" class="edge"><title>Node18&#45;&gt;Node8</title>
<path fill="none" stroke="midnightblue" d="M254.125,-120.995C254.125,-113.311 254.125,-102.803 254.125,-93.4884"/>
<polygon fill="midnightblue" stroke="midnightblue" points="257.625,-93.3428 254.125,-83.3428 250.625,-93.3429 257.625,-93.3428"/>
</g>
<!-- Node20&#45;&gt;Node2 -->
<g id="edge58" class="edge"><title>Node20&#45;&gt;Node2</title>
<path fill="none" stroke="midnightblue" d="M837.847,-240.972C830.989,-224.846 815.942,-195.11 793.125,-180 761.433,-159.013 657.096,-143.987 596.599,-136.791"/>
<polygon fill="midnightblue" stroke="midnightblue" points="596.9,-133.302 586.562,-135.621 596.089,-140.255 596.9,-133.302"/>
</g>
<!-- Node21&#45;&gt;Node2 -->
<g id="edge64" class="edge"><title>Node21&#45;&gt;Node2</title>
<path fill="none" stroke="midnightblue" d="M725.864,-240.962C730.306,-225.621 735.551,-197.742 722.125,-180 706.973,-159.978 641.653,-145.931 596.542,-138.408"/>
<polygon fill="midnightblue" stroke="midnightblue" points="596.831,-134.909 586.401,-136.768 595.714,-141.819 596.831,-134.909"/>
</g>
<!-- Node22 -->
<g id="node55" class="node"><title>Node22</title>
<a xlink:href="atomicoperations_8h.html" target="_top" xlink:title="Simple thread safe ways to check and change a specified variable atomically.">
<polygon fill="white" stroke="black" points="612.625,-181 612.625,-203 713.625,-203 713.625,-181 612.625,-181"/>
<text text-anchor="middle" x="663.125" y="-190" font-family="FreeSans" font-size="10.00">atomicoperations.h</text>
</a>
</g>
<!-- Node21&#45;&gt;Node22 -->
<g id="edge66" class="edge"><title>Node21&#45;&gt;Node22</title>
<path fill="none" stroke="midnightblue" d="M711.303,-240.995C702.926,-232.476 691.135,-220.485 681.315,-210.499"/>
<polygon fill="midnightblue" stroke="midnightblue" points="683.785,-208.019 674.278,-203.343 678.794,-212.927 683.785,-208.019"/>
</g>
<!-- Node22&#45;&gt;Node2 -->
<g id="edge68" class="edge"><title>Node22&#45;&gt;Node2</title>
<path fill="none" stroke="midnightblue" d="M642.765,-180.995C625.661,-171.75 600.993,-158.416 581.708,-147.991"/>
<polygon fill="midnightblue" stroke="midnightblue" points="583.192,-144.815 572.731,-143.138 579.863,-150.973 583.192,-144.815"/>
</g>
<!-- Node26&#45;&gt;Node2 -->
<g id="edge82" class="edge"><title>Node26&#45;&gt;Node2</title>
<path fill="none" stroke="midnightblue" d="M289.828,-240.946C304.382,-225.062 333.447,-195.944 364.125,-180 409.946,-156.185 468.306,-143.68 507.755,-137.479"/>
<polygon fill="midnightblue" stroke="midnightblue" points="508.485,-140.909 517.856,-135.964 507.447,-133.986 508.485,-140.909"/>
</g>
<!-- Node26&#45;&gt;Node13 -->
<g id="edge80" class="edge"><title>Node26&#45;&gt;Node13</title>
<path fill="none" stroke="midnightblue" d="M268.936,-240.995C260.275,-232.476 248.085,-220.485 237.931,-210.499"/>
<polygon fill="midnightblue" stroke="midnightblue" points="240.24,-207.86 230.656,-203.343 235.331,-212.851 240.24,-207.86"/>
</g>
<!-- Node27&#45;&gt;Node2 -->
<g id="edge86" class="edge"><title>Node27&#45;&gt;Node2</title>
<path fill="none" stroke="midnightblue" d="M710.519,-300.922C727.772,-293.423 747.09,-281.611 757.125,-264 769.79,-241.772 747.461,-187.147 740.125,-180 719.851,-160.249 645.184,-145.745 596.271,-138.11"/>
<polygon fill="midnightblue" stroke="midnightblue" points="596.666,-134.63 586.253,-136.586 595.612,-141.55 596.666,-134.63"/>
</g>
</g>
</svg>
        <g id="navigator" transform="translate(0 0)" fill="#404254">
                <rect fill="#f2f5e9" fill-opacity="0.5" stroke="#606060" stroke-width=".5" x="0" y="0" width="60" height="60"/>
                <use id="zoomplus" xlink:href="#zoomPlus" x="17" y="9" onmousedown="handleZoom(evt,'in')"/>
                <use id="zoomminus" xlink:href="#zoomMin" x="42" y="9" onmousedown="handleZoom(evt,'out')"/>
                <use id="reset" xlink:href="#resetDef" x="30" y="36" onmousedown="handleReset()"/>
                <g id="arrowUp" xlink:href="#dirArrow" transform="translate(30 24)" onmousedown="handlePan(0,-1)">
                  <use xlink:href="#rim" fill="#404040">
                        <set attributeName="fill" to="#808080" begin="arrowUp.mouseover" end="arrowUp.mouseout"/>
                  </use>
                  <path fill="none" stroke="white" stroke-width="1.5" d="M0,-3.0v7 M-2.5,-0.5L0,-3.0L2.5,-0.5"/>
                </g>
                <g id="arrowRight" xlink:href="#dirArrow" transform="rotate(90) translate(36 -43)" onmousedown="handlePan(1,0)">
                  <use xlink:href="#rim" fill="#404040">
                        <set attributeName="fill" to="#808080" begin="arrowRight.mouseover" end="arrowRight.mouseout"/>
                  </use>
                  <path fill="none" stroke="white" stroke-width="1.5" d="M0,-3.0v7 M-2.5,-0.5L0,-3.0L2.5,-0.5"/>
                </g>
                <g id="arrowDown" xlink:href="#dirArrow" transform="rotate(180) translate(-30 -48)" onmousedown="handlePan(0,1)">
                  <use xlink:href="#rim" fill="#404040">
                        <set attributeName="fill" to="#808080" begin="arrowDown.mouseover" end="arrowDown.mouseout"/>
                  </use>
                  <path fill="none" stroke="white" stroke-width="1.5" d="M0,-3.0v7 M-2.5,-0.5L0,-3.0L2.5,-0.5"/>
                </g>
                <g id="arrowLeft" xlink:href="#dirArrow" transform="rotate(270) translate(-36 17)" onmousedown="handlePan(-1,0)">
                  <use xlink:href="#rim" fill="#404040">
                        <set attributeName="fill" to="#808080" begin="arrowLeft.mouseover" end="arrowLeft.mouseout"/>
                  </use>
                  <path fill="none" stroke="white" stroke-width="1.5" d="M0,-3.0v7 M-2.5,-0.5L0,-3.0L2.5,-0.5"/>
                </g>
        </g>
</svg>
