<?xml version="1.0" encoding="UTF-8" standalone="no"?>
<!DOCTYPE svg PUBLIC "-//W3C//DTD SVG 1.1//EN"
 "http://www.w3.org/Graphics/SVG/1.1/DTD/svg11.dtd">
<!-- Generated by graphviz version 2.26.3 (20100126.1600)
 -->
<!-- Title: monopoly.h Pages: 1 -->
<!--zoomable 436 -->
<svg id="main" version="1.1" xmlns="http://www.w3.org/2000/svg" xmlns:xlink="http://www.w3.org/1999/xlink" xml:space="preserve" onload="init(evt)">
<style type="text/css"><![CDATA[
.edge:hover path { stroke: red; }
.edge:hover polygon { stroke: red; fill: red; }
]]></style>
<script type="text/javascript"><![CDATA[
var edges = document.getElementsByTagName('g');
if (edges && edges.length) {
  for (var i=0;i<edges.length;i++) {
    if (edges[i].id.substr(0,4)=='edge') {
      edges[i].setAttribute('class','edge');
    }
  }
}
]]></script>
        <defs>
                <circle id="rim" cx="0" cy="0" r="7"/>
                <circle id="rim2" cx="0" cy="0" r="3.5"/>
                <g id="zoomPlus">
                        <use xlink:href="#rim" fill="#404040">
                                <set attributeName="fill" to="#808080" begin="zoomplus.mouseover" end="zoomplus.mouseout"/>
                        </use>
                        <path d="M-4,0h8M0,-4v8" fill="none" stroke="white" stroke-width="1.5" pointer-events="none"/>
                </g>
                <g id="zoomMin">
                        <use xlink:href="#rim" fill="#404040">
                                <set attributeName="fill" to="#808080" begin="zoomminus.mouseover" end="zoomminus.mouseout"/>
                        </use>
                        <path d="M-4,0h8" fill="none" stroke="white" stroke-width="1.5" pointer-events="none"/>
                </g>
                <g id="dirArrow">
                        <path fill="none" stroke="white" stroke-width="1.5" d="M0,-3.0v7 M-2.5,-0.5L0,-3.0L2.5,-0.5"/>
                </g>
               <g id="resetDef">
                       <use xlink:href="#rim2" fill="#404040">
                               <set attributeName="fill" to="#808080" begin="reset.mouseover" end="reset.mouseout"/>
                       </use>
               </g>
        </defs>

<script type="text/javascript">
var viewWidth = 739;
var viewHeight = 436;
var sectionId = 'dynsection-0';
</script>
<script xlink:href="svgpan.js"/>
<svg id="graph" class="graph">
<g id="viewport">
<title>monopoly.h</title>
<polygon fill="white" stroke="white" points="-4,5 -4,-432 736.241,-432 736.241,5 -4,5"/>
<!-- Node1 -->
<g id="node1" class="node"><title>Node1</title>
<polygon fill="#bfbfbf" stroke="black" points="56.5,-407 56.5,-427 121.5,-427 121.5,-407 56.5,-407"/>
<text text-anchor="middle" x="89" y="-414" font-family="FreeSans" font-size="10.00">monopoly.h</text>
</g>
<!-- Node2 -->
<g id="node3" class="node"><title>Node2</title>
<a xlink:href="datatypes_8h.html" target="_top" xlink:title="This file declares a few typedefs to allow flexibility, in case a change is required/desired. ">
<polygon fill="white" stroke="black" points="327.5,-59 327.5,-79 392.5,-79 392.5,-59 327.5,-59"/>
<text text-anchor="middle" x="360" y="-66" font-family="FreeSans" font-size="10.00">datatypes.h</text>
</a>
</g>
<!-- Node1&#45;&gt;Node2 -->
<g id="edge2" class="edge"><title>Node1&#45;&gt;Node2</title>
<path fill="none" stroke="midnightblue" d="M73.4974,-406.895C47.9983,-388.911 0,-348.721 0,-301 0,-301 0,-301 0,-185 0,-119.018 221.855,-85.1445 317.242,-73.6298"/>
<polygon fill="midnightblue" stroke="midnightblue" points="317.897,-77.0768 327.417,-72.4286 317.076,-70.1251 317.897,-77.0768"/>
</g>
<!-- Node13 -->
<g id="node25" class="node"><title>Node13</title>
<a xlink:href="doublebufferedresource_8h.html" target="_top" xlink:title="This file defines the template double buffered resources that can be attached to a thread...">
<polygon fill="white" stroke="black" points="27.5,-233 27.5,-253 150.5,-253 150.5,-233 27.5,-233"/>
<text text-anchor="middle" x="89" y="-240" font-family="FreeSans" font-size="10.00">doublebufferedresource.h</text>
</a>
</g>
<!-- Node1&#45;&gt;Node13 -->
<g id="edge24" class="edge"><title>Node1&#45;&gt;Node13</title>
<path fill="none" stroke="midnightblue" d="M89,-406.893C89,-379.023 89,-300.675 89,-263.313"/>
<polygon fill="midnightblue" stroke="midnightblue" points="92.5001,-263.135 89,-253.135 85.5001,-263.135 92.5001,-263.135"/>
</g>
<!-- Node14 -->
<g id="node28" class="node"><title>Node14</title>
<a xlink:href="workunit_8h.html" target="_top" xlink:title="This file has the definition of the workunit. ">
<polygon fill="white" stroke="black" points="437,-349 437,-369 497,-369 497,-349 437,-349"/>
<text text-anchor="middle" x="467" y="-356" font-family="FreeSans" font-size="10.00">workunit.h</text>
</a>
</g>
<!-- Node1&#45;&gt;Node14 -->
<g id="edge28" class="edge"><title>Node1&#45;&gt;Node14</title>
<path fill="none" stroke="midnightblue" d="M121.555,-412.005C190.568,-401.415 351.397,-376.738 426.727,-365.179"/>
<polygon fill="midnightblue" stroke="midnightblue" points="427.417,-368.615 436.771,-363.638 426.355,-361.696 427.417,-368.615"/>
</g>
<!-- Node3 -->
<g id="node5" class="node"><title>Node3</title>
<a xlink:href="crossplatformexport_8h.html" target="_top" xlink:title="This file determines what features are offered by the compiler that this library can take advantage o...">
<polygon fill="white" stroke="black" points="7,-1 7,-21 115,-21 115,-1 7,-1"/>
<text text-anchor="middle" x="61" y="-8" font-family="FreeSans" font-size="10.00">crossplatformexport.h</text>
</a>
</g>
<!-- Node2&#45;&gt;Node3 -->
<g id="edge4" class="edge"><title>Node2&#45;&gt;Node3</title>
<path fill="none" stroke="midnightblue" d="M327.433,-62.6826C278.47,-53.1849 185.02,-35.0574 122.844,-22.9965"/>
<polygon fill="midnightblue" stroke="midnightblue" points="123.247,-19.5096 112.764,-21.0411 121.914,-26.3815 123.247,-19.5096"/>
</g>
<!-- Node4 -->
<g id="node7" class="node"><title>Node4</title>
<polygon fill="white" stroke="#bfbfbf" points="132.5,-1 132.5,-21 175.5,-21 175.5,-1 132.5,-1"/>
<text text-anchor="middle" x="154" y="-8" font-family="FreeSans" font-size="10.00">vector</text>
</g>
<!-- Node2&#45;&gt;Node4 -->
<g id="edge6" class="edge"><title>Node2&#45;&gt;Node4</title>
<path fill="none" stroke="midnightblue" d="M327.307,-61.2103C293.788,-53.0181 239.988,-39.3017 185.389,-22.2696"/>
<polygon fill="midnightblue" stroke="midnightblue" points="186.139,-18.8364 175.55,-19.1663 184.034,-25.5122 186.139,-18.8364"/>
</g>
<!-- Node5 -->
<g id="node9" class="node"><title>Node5</title>
<polygon fill="white" stroke="#bfbfbf" points="193,-1 193,-21 233,-21 233,-1 193,-1"/>
<text text-anchor="middle" x="213" y="-8" font-family="FreeSans" font-size="10.00">string</text>
</g>
<!-- Node2&#45;&gt;Node5 -->
<g id="edge8" class="edge"><title>Node2&#45;&gt;Node5</title>
<path fill="none" stroke="midnightblue" d="M334.395,-58.8972C308.865,-48.8245 269.682,-33.3644 242.778,-22.7491"/>
<polygon fill="midnightblue" stroke="midnightblue" points="243.709,-19.3538 233.122,-18.9393 241.139,-25.8653 243.709,-19.3538"/>
</g>
<!-- Node6 -->
<g id="node11" class="node"><title>Node6</title>
<polygon fill="white" stroke="#bfbfbf" points="250.5,-1 250.5,-21 301.5,-21 301.5,-1 250.5,-1"/>
<text text-anchor="middle" x="276" y="-8" font-family="FreeSans" font-size="10.00">ostream</text>
</g>
<!-- Node2&#45;&gt;Node6 -->
<g id="edge10" class="edge"><title>Node2&#45;&gt;Node6</title>
<path fill="none" stroke="midnightblue" d="M345.368,-58.8972C332.678,-50.1351 314.085,-37.2965 299.341,-27.1164"/>
<polygon fill="midnightblue" stroke="midnightblue" points="300.964,-23.9835 290.746,-21.1817 296.986,-29.7438 300.964,-23.9835"/>
</g>
<!-- Node7 -->
<g id="node13" class="node"><title>Node7</title>
<polygon fill="white" stroke="#bfbfbf" points="318.5,-1 318.5,-21 353.5,-21 353.5,-1 318.5,-1"/>
<text text-anchor="middle" x="336" y="-8" font-family="FreeSans" font-size="10.00">map</text>
</g>
<!-- Node2&#45;&gt;Node7 -->
<g id="edge12" class="edge"><title>Node2&#45;&gt;Node7</title>
<path fill="none" stroke="midnightblue" d="M355.82,-58.8972C352.624,-51.1747 348.118,-40.2857 344.21,-30.841"/>
<polygon fill="midnightblue" stroke="midnightblue" points="347.352,-29.2795 340.294,-21.3776 340.884,-31.956 347.352,-29.2795"/>
</g>
<!-- Node8 -->
<g id="node15" class="node"><title>Node8</title>
<polygon fill="white" stroke="#bfbfbf" points="370.5,-1 370.5,-21 399.5,-21 399.5,-1 370.5,-1"/>
<text text-anchor="middle" x="385" y="-8" font-family="FreeSans" font-size="10.00">set</text>
</g>
<!-- Node2&#45;&gt;Node8 -->
<g id="edge14" class="edge"><title>Node2&#45;&gt;Node8</title>
<path fill="none" stroke="midnightblue" d="M364.355,-58.8972C367.683,-51.1747 372.377,-40.2857 376.448,-30.841"/>
<polygon fill="midnightblue" stroke="midnightblue" points="379.783,-31.9463 380.527,-21.3776 373.354,-29.1754 379.783,-31.9463"/>
</g>
<!-- Node9 -->
<g id="node17" class="node"><title>Node9</title>
<polygon fill="white" stroke="#bfbfbf" points="417,-1 417,-21 467,-21 467,-1 417,-1"/>
<text text-anchor="middle" x="442" y="-8" font-family="FreeSans" font-size="10.00">sstream</text>
</g>
<!-- Node2&#45;&gt;Node9 -->
<g id="edge16" class="edge"><title>Node2&#45;&gt;Node9</title>
<path fill="none" stroke="midnightblue" d="M374.283,-58.8972C386.671,-50.1351 404.822,-37.2965 419.215,-27.1164"/>
<polygon fill="midnightblue" stroke="midnightblue" points="421.462,-29.8138 427.605,-21.1817 417.42,-24.0989 421.462,-29.8138"/>
</g>
<!-- Node10 -->
<g id="node19" class="node"><title>Node10</title>
<polygon fill="white" stroke="#bfbfbf" points="484.5,-1 484.5,-21 533.5,-21 533.5,-1 484.5,-1"/>
<text text-anchor="middle" x="509" y="-8" font-family="FreeSans" font-size="10.00">fstream</text>
</g>
<!-- Node2&#45;&gt;Node10 -->
<g id="edge18" class="edge"><title>Node2&#45;&gt;Node10</title>
<path fill="none" stroke="midnightblue" d="M385.954,-58.8972C410.608,-49.3004 447.824,-34.8134 474.871,-24.2852"/>
<polygon fill="midnightblue" stroke="midnightblue" points="476.284,-27.4911 484.333,-20.6019 473.744,-20.9679 476.284,-27.4911"/>
</g>
<!-- Node11 -->
<g id="node21" class="node"><title>Node11</title>
<polygon fill="white" stroke="#bfbfbf" points="551,-1 551,-21 607,-21 607,-1 551,-1"/>
<text text-anchor="middle" x="579" y="-8" font-family="FreeSans" font-size="10.00">algorithm</text>
</g>
<!-- Node2&#45;&gt;Node11 -->
<g id="edge20" class="edge"><title>Node2&#45;&gt;Node11</title>
<path fill="none" stroke="midnightblue" d="M392.643,-60.9493C427.145,-52.357 483.381,-38.1166 540.779,-22.2779"/>
<polygon fill="midnightblue" stroke="midnightblue" points="542.047,-25.5584 550.749,-19.5138 540.177,-18.8129 542.047,-25.5584"/>
</g>
<!-- Node12 -->
<g id="node23" class="node"><title>Node12</title>
<polygon fill="white" stroke="#bfbfbf" points="624.5,-1 624.5,-21 671.5,-21 671.5,-1 624.5,-1"/>
<text text-anchor="middle" x="648" y="-8" font-family="FreeSans" font-size="10.00">stdint.h</text>
</g>
<!-- Node2&#45;&gt;Node12 -->
<g id="edge22" class="edge"><title>Node2&#45;&gt;Node12</title>
<path fill="none" stroke="midnightblue" d="M392.671,-64.601C439.852,-57.9034 529.88,-43.832 614.588,-22.1141"/>
<polygon fill="midnightblue" stroke="midnightblue" points="615.561,-25.4775 624.355,-19.569 613.796,-18.7037 615.561,-25.4775"/>
</g>
<!-- Node13&#45;&gt;Node2 -->
<g id="edge26" class="edge"><title>Node13&#45;&gt;Node2</title>
<path fill="none" stroke="midnightblue" d="M96.3203,-232.819C114.005,-208.939 161.559,-148.868 215,-116 246.694,-96.5072 287.314,-84.2486 317.494,-77.1579"/>
<polygon fill="midnightblue" stroke="midnightblue" points="318.315,-80.5608 327.301,-74.9483 316.776,-73.732 318.315,-80.5608"/>
</g>
<!-- Node14&#45;&gt;Node2 -->
<g id="edge30" class="edge"><title>Node14&#45;&gt;Node2</title>
<path fill="none" stroke="midnightblue" d="M497.169,-352.421C566.251,-336.488 730,-293.403 730,-243 730,-243 730,-243 730,-185 730,-153.192 734.964,-136.916 711,-116 688.105,-96.0167 491.213,-78.8661 402.741,-72.0921"/>
<polygon fill="midnightblue" stroke="midnightblue" points="402.744,-68.5824 392.508,-71.318 402.216,-75.5625 402.744,-68.5824"/>
</g>
<!-- Node15 -->
<g id="node31" class="node"><title>Node15</title>
<a xlink:href="framescheduler_8h.html" target="_top" xlink:title="This file has the Declarations for the main FrameScheduler class. ">
<polygon fill="white" stroke="black" points="301,-291 301,-311 391,-311 391,-291 301,-291"/>
<text text-anchor="middle" x="346" y="-298" font-family="FreeSans" font-size="10.00">framescheduler.h</text>
</a>
</g>
<!-- Node14&#45;&gt;Node15 -->
<g id="edge32" class="edge"><title>Node14&#45;&gt;Node15</title>
<path fill="none" stroke="midnightblue" d="M445.923,-348.897C426.695,-339.68 398.058,-325.953 376.363,-315.554"/>
<polygon fill="midnightblue" stroke="midnightblue" points="377.771,-312.348 367.241,-311.182 374.746,-318.66 377.771,-312.348"/>
</g>
<!-- Node16 -->
<g id="node35" class="node"><title>Node16</title>
<a xlink:href="thread_8h.html" target="_top" xlink:title="This file defines a minimalistic cross&#45;platform thread that the scheduler uses to schedule tasks...">
<polygon fill="white" stroke="black" points="411.5,-233 411.5,-253 462.5,-253 462.5,-233 411.5,-233"/>
<text text-anchor="middle" x="437" y="-240" font-family="FreeSans" font-size="10.00">thread.h</text>
</a>
</g>
<!-- Node14&#45;&gt;Node16 -->
<g id="edge78" class="edge"><title>Node14&#45;&gt;Node16</title>
<path fill="none" stroke="midnightblue" d="M464.338,-348.706C459.366,-329.482 448.593,-287.825 442.154,-262.929"/>
<polygon fill="midnightblue" stroke="midnightblue" points="445.506,-261.911 439.613,-253.106 438.729,-263.663 445.506,-261.911"/>
</g>
<!-- Node18 -->
<g id="node40" class="node"><title>Node18</title>
<a xlink:href="mutex_8h.html" target="_top" xlink:title="This file declares and defines a mutex that is a partial implementation. ">
<polygon fill="white" stroke="black" points="481,-175 481,-195 531,-195 531,-175 481,-175"/>
<text text-anchor="middle" x="506" y="-182" font-family="FreeSans" font-size="10.00">mutex.h</text>
</a>
</g>
<!-- Node14&#45;&gt;Node18 -->
<g id="edge70" class="edge"><title>Node14&#45;&gt;Node18</title>
<path fill="none" stroke="midnightblue" d="M469.265,-348.893C475.512,-321.023 493.073,-242.675 501.447,-205.313"/>
<polygon fill="midnightblue" stroke="midnightblue" points="504.956,-205.658 503.728,-195.135 498.126,-204.127 504.956,-205.658"/>
</g>
<!-- Node20 -->
<g id="node45" class="node"><title>Node20</title>
<a xlink:href="workunitkey_8h.html" target="_top" xlink:title="This file defines the metadata used to sort workunits. ">
<polygon fill="white" stroke="black" points="167.5,-233 167.5,-253 242.5,-253 242.5,-233 167.5,-233"/>
<text text-anchor="middle" x="205" y="-240" font-family="FreeSans" font-size="10.00">workunitkey.h</text>
</a>
</g>
<!-- Node14&#45;&gt;Node20 -->
<g id="edge80" class="edge"><title>Node14&#45;&gt;Node20</title>
<path fill="none" stroke="midnightblue" d="M436.875,-354.742C400.903,-348.81 339.626,-335.98 292,-312 265.069,-298.44 238.571,-275.693 222.029,-260.047"/>
<polygon fill="midnightblue" stroke="midnightblue" points="224.372,-257.444 214.75,-253.008 219.506,-262.476 224.372,-257.444"/>
</g>
<!-- Node22 -->
<g id="node52" class="node"><title>Node22</title>
<a xlink:href="rollingaverage_8h.html" target="_top" xlink:title="This stores the implementation and the declaration of the RollingAverage, BufferedRollingAverage, WeightedRollingAverage and the DefaultRollingAverage. ">
<polygon fill="white" stroke="black" points="517.5,-233 517.5,-253 600.5,-253 600.5,-233 517.5,-233"/>
<text text-anchor="middle" x="559" y="-240" font-family="FreeSans" font-size="10.00">rollingaverage.h</text>
</a>
</g>
<!-- Node14&#45;&gt;Node22 -->
<g id="edge72" class="edge"><title>Node14&#45;&gt;Node22</title>
<path fill="none" stroke="midnightblue" d="M475.164,-348.706C490.821,-328.965 525.24,-285.567 544.758,-260.957"/>
<polygon fill="midnightblue" stroke="midnightblue" points="547.514,-263.115 550.985,-253.106 542.029,-258.766 547.514,-263.115"/>
</g>
<!-- Node24 -->
<g id="node61" class="node"><title>Node24</title>
<a xlink:href="threadingenumerations_8h.html" target="_top" xlink:title="Any enumerations the threading library requires are all declared here. ">
<polygon fill="white" stroke="black" points="580,-117 580,-137 702,-137 702,-117 580,-117"/>
<text text-anchor="middle" x="641" y="-124" font-family="FreeSans" font-size="10.00">threadingenumerations.h</text>
</a>
</g>
<!-- Node14&#45;&gt;Node24 -->
<g id="edge74" class="edge"><title>Node14&#45;&gt;Node24</title>
<path fill="none" stroke="midnightblue" d="M488.728,-348.984C520.233,-333.315 578.189,-299.972 609,-254 631.153,-220.946 637.973,-173.736 640.07,-147.17"/>
<polygon fill="midnightblue" stroke="midnightblue" points="643.565,-147.353 640.711,-137.15 636.58,-146.906 643.565,-147.353"/>
</g>
<!-- Node15&#45;&gt;Node2 -->
<g id="edge34" class="edge"><title>Node15&#45;&gt;Node2</title>
<path fill="none" stroke="midnightblue" d="M334.903,-290.878C304.794,-262.165 226.344,-178.253 265,-116 276.543,-97.4114 297.859,-85.9509 317.379,-79.0072"/>
<polygon fill="midnightblue" stroke="midnightblue" points="318.633,-82.2799 327.063,-75.8619 316.471,-75.6222 318.633,-82.2799"/>
</g>
<!-- Node15&#45;&gt;Node13 -->
<g id="edge36" class="edge"><title>Node15&#45;&gt;Node13</title>
<path fill="none" stroke="midnightblue" d="M301.527,-290.963C257.626,-281.056 190.424,-265.89 143.373,-255.271"/>
<polygon fill="midnightblue" stroke="midnightblue" points="143.883,-251.798 133.358,-253.011 142.342,-258.626 143.883,-251.798"/>
</g>
<!-- Node15&#45;&gt;Node16 -->
<g id="edge38" class="edge"><title>Node15&#45;&gt;Node16</title>
<path fill="none" stroke="midnightblue" d="M361.851,-290.897C375.728,-282.052 396.122,-269.054 412.165,-258.829"/>
<polygon fill="midnightblue" stroke="midnightblue" points="414.474,-261.508 421.025,-253.182 410.711,-255.605 414.474,-261.508"/>
</g>
<!-- Node17 -->
<g id="node37" class="node"><title>Node17</title>
<a xlink:href="systemcalls_8h.html" target="_top" xlink:title="This file defines a minimalistic cross&#45;platform thread that the scheduler uses to schedule tasks...">
<polygon fill="white" stroke="black" points="389,-175 389,-195 463,-195 463,-175 389,-175"/>
<text text-anchor="middle" x="426" y="-182" font-family="FreeSans" font-size="10.00">systemcalls.h</text>
</a>
</g>
<!-- Node15&#45;&gt;Node17 -->
<g id="edge58" class="edge"><title>Node15&#45;&gt;Node17</title>
<path fill="none" stroke="midnightblue" d="M353.099,-290.706C366.595,-271.137 396.122,-228.323 413.168,-203.606"/>
<polygon fill="midnightblue" stroke="midnightblue" points="416.235,-205.325 419.031,-195.106 410.472,-201.351 416.235,-205.325"/>
</g>
<!-- Node15&#45;&gt;Node20 -->
<g id="edge50" class="edge"><title>Node15&#45;&gt;Node20</title>
<path fill="none" stroke="midnightblue" d="M321.44,-290.897C298.632,-281.515 264.461,-267.459 239.029,-256.998"/>
<polygon fill="midnightblue" stroke="midnightblue" points="240.332,-253.749 229.752,-253.182 237.669,-260.223 240.332,-253.749"/>
</g>
<!-- Node21 -->
<g id="node48" class="node"><title>Node21</title>
<a xlink:href="spinlock_8h.html" target="_top" xlink:title="Declares a Mutex, Mutex tools, and at least one MutexLike object. ">
<polygon fill="white" stroke="black" points="273.5,-117 273.5,-137 332.5,-137 332.5,-117 273.5,-117"/>
<text text-anchor="middle" x="303" y="-124" font-family="FreeSans" font-size="10.00">spinlock.h</text>
</a>
</g>
<!-- Node15&#45;&gt;Node21 -->
<g id="edge54" class="edge"><title>Node15&#45;&gt;Node21</title>
<path fill="none" stroke="midnightblue" d="M341.98,-290.744C334.851,-272.152 319.996,-231.517 312,-196 308.393,-179.979 306.079,-161.517 304.702,-147.723"/>
<polygon fill="midnightblue" stroke="midnightblue" points="308.153,-147.031 303.758,-137.391 301.182,-147.668 308.153,-147.031"/>
</g>
<!-- Node15&#45;&gt;Node22 -->
<g id="edge60" class="edge"><title>Node15&#45;&gt;Node22</title>
<path fill="none" stroke="midnightblue" d="M383.102,-290.897C418.88,-281.155 473.167,-266.372 511.962,-255.809"/>
<polygon fill="midnightblue" stroke="midnightblue" points="513.238,-259.089 521.967,-253.084 511.398,-252.335 513.238,-259.089"/>
</g>
<!-- Node23 -->
<g id="node55" class="node"><title>Node23</title>
<a xlink:href="barrier_8h.html" target="_top" xlink:title="The declaration of the Mezzanine::Threading::Barrier Barrier synchronization primitive. ">
<polygon fill="white" stroke="black" points="320.5,-175 320.5,-195 371.5,-195 371.5,-175 320.5,-175"/>
<text text-anchor="middle" x="346" y="-182" font-family="FreeSans" font-size="10.00">barrier.h</text>
</a>
</g>
<!-- Node15&#45;&gt;Node23 -->
<g id="edge64" class="edge"><title>Node15&#45;&gt;Node23</title>
<path fill="none" stroke="midnightblue" d="M346,-290.706C346,-271.568 346,-230.198 346,-205.265"/>
<polygon fill="midnightblue" stroke="midnightblue" points="349.5,-205.105 346,-195.106 342.5,-205.106 349.5,-205.105"/>
</g>
<!-- Node16&#45;&gt;Node17 -->
<g id="edge40" class="edge"><title>Node16&#45;&gt;Node17</title>
<path fill="none" stroke="midnightblue" d="M435.084,-232.897C433.651,-225.339 431.642,-214.748 429.878,-205.446"/>
<polygon fill="midnightblue" stroke="midnightblue" points="433.27,-204.55 427.968,-195.378 426.393,-205.855 433.27,-204.55"/>
</g>
<!-- Node16&#45;&gt;Node18 -->
<g id="edge44" class="edge"><title>Node16&#45;&gt;Node18</title>
<path fill="none" stroke="midnightblue" d="M449.019,-232.897C459.183,-224.353 473.959,-211.933 485.917,-201.881"/>
<polygon fill="midnightblue" stroke="midnightblue" points="488.251,-204.491 493.654,-195.378 483.747,-199.133 488.251,-204.491"/>
</g>
<!-- Node17&#45;&gt;Node2 -->
<g id="edge42" class="edge"><title>Node17&#45;&gt;Node2</title>
<path fill="none" stroke="midnightblue" d="M449.778,-174.819C475.782,-162.2 511.684,-139.475 495,-116 484.008,-100.535 437.985,-86.7763 402.7,-78.2033"/>
<polygon fill="midnightblue" stroke="midnightblue" points="403.145,-74.7122 392.608,-75.8194 401.536,-81.5247 403.145,-74.7122"/>
</g>
<!-- Node19 -->
<g id="node42" class="node"><title>Node19</title>
<a xlink:href="atomicoperations_8h.html" target="_top" xlink:title="Simple thread safe ways to check and change a specified variable atomically. ">
<polygon fill="white" stroke="black" points="388,-117 388,-137 486,-137 486,-117 388,-117"/>
<text text-anchor="middle" x="437" y="-124" font-family="FreeSans" font-size="10.00">atomicoperations.h</text>
</a>
</g>
<!-- Node18&#45;&gt;Node19 -->
<g id="edge46" class="edge"><title>Node18&#45;&gt;Node19</title>
<path fill="none" stroke="midnightblue" d="M493.981,-174.897C483.817,-166.353 469.041,-153.933 457.083,-143.881"/>
<polygon fill="midnightblue" stroke="midnightblue" points="459.253,-141.133 449.346,-137.378 454.749,-146.491 459.253,-141.133"/>
</g>
<!-- Node19&#45;&gt;Node2 -->
<g id="edge48" class="edge"><title>Node19&#45;&gt;Node2</title>
<path fill="none" stroke="midnightblue" d="M423.588,-116.897C412.065,-108.218 395.232,-95.5384 381.779,-85.4053"/>
<polygon fill="midnightblue" stroke="midnightblue" points="383.61,-82.4026 373.517,-79.1817 379.399,-87.9939 383.61,-82.4026"/>
</g>
<!-- Node20&#45;&gt;Node2 -->
<g id="edge52" class="edge"><title>Node20&#45;&gt;Node2</title>
<path fill="none" stroke="midnightblue" d="M204.094,-232.674C202.603,-209.003 202.323,-150.236 232,-116 253.474,-91.2266 289.175,-79.5021 317.425,-73.9582"/>
<polygon fill="midnightblue" stroke="midnightblue" points="318.219,-77.3722 327.456,-72.1826 316.999,-70.4793 318.219,-77.3722"/>
</g>
<!-- Node21&#45;&gt;Node2 -->
<g id="edge56" class="edge"><title>Node21&#45;&gt;Node2</title>
<path fill="none" stroke="midnightblue" d="M312.929,-116.897C321.083,-108.6 332.83,-96.6463 342.549,-86.7569"/>
<polygon fill="midnightblue" stroke="midnightblue" points="345.288,-88.9632 349.801,-79.3776 340.296,-84.0566 345.288,-88.9632"/>
</g>
<!-- Node22&#45;&gt;Node2 -->
<g id="edge62" class="edge"><title>Node22&#45;&gt;Node2</title>
<path fill="none" stroke="midnightblue" d="M558.368,-232.908C556.279,-208.688 547.459,-146.988 511,-116 480.513,-90.0883 435.804,-78.4469 402.945,-73.2257"/>
<polygon fill="midnightblue" stroke="midnightblue" points="403.124,-69.7152 392.725,-71.7461 402.121,-76.6429 403.124,-69.7152"/>
</g>
<!-- Node23&#45;&gt;Node2 -->
<g id="edge66" class="edge"><title>Node23&#45;&gt;Node2</title>
<path fill="none" stroke="midnightblue" d="M347.242,-174.706C349.552,-155.568 354.545,-114.198 357.554,-89.2654"/>
<polygon fill="midnightblue" stroke="midnightblue" points="361.057,-89.4529 358.78,-79.1055 354.107,-88.6141 361.057,-89.4529"/>
</g>
<!-- Node23&#45;&gt;Node19 -->
<g id="edge68" class="edge"><title>Node23&#45;&gt;Node19</title>
<path fill="none" stroke="midnightblue" d="M361.851,-174.897C375.728,-166.052 396.122,-153.054 412.165,-142.829"/>
<polygon fill="midnightblue" stroke="midnightblue" points="414.474,-145.508 421.025,-137.182 410.711,-139.605 414.474,-145.508"/>
</g>
<!-- Node24&#45;&gt;Node2 -->
<g id="edge76" class="edge"><title>Node24&#45;&gt;Node2</title>
<path fill="none" stroke="midnightblue" d="M592.374,-116.963C538.882,-105.922 453.749,-88.3504 402.729,-77.8196"/>
<polygon fill="midnightblue" stroke="midnightblue" points="403.193,-74.3415 392.692,-75.7477 401.778,-81.197 403.193,-74.3415"/>
</g>
</g>
</svg>
        <g id="navigator" transform="translate(0 0)" fill="#404254">
                <rect fill="#f2f5e9" fill-opacity="0.5" stroke="#606060" stroke-width=".5" x="0" y="0" width="60" height="60"/>
                <use id="zoomplus" xlink:href="#zoomPlus" x="17" y="9" onmousedown="handleZoom(evt,'in')"/>
                <use id="zoomminus" xlink:href="#zoomMin" x="42" y="9" onmousedown="handleZoom(evt,'out')"/>
                <use id="reset" xlink:href="#resetDef" x="30" y="36" onmousedown="handleReset()"/>
                <g id="arrowUp" xlink:href="#dirArrow" transform="translate(30 24)" onmousedown="handlePan(0,-1)">
                  <use xlink:href="#rim" fill="#404040">
                        <set attributeName="fill" to="#808080" begin="arrowUp.mouseover" end="arrowUp.mouseout"/>
                  </use>
                  <path fill="none" stroke="white" stroke-width="1.5" d="M0,-3.0v7 M-2.5,-0.5L0,-3.0L2.5,-0.5"/>
                </g>
                <g id="arrowRight" xlink:href="#dirArrow" transform="rotate(90) translate(36 -43)" onmousedown="handlePan(1,0)">
                  <use xlink:href="#rim" fill="#404040">
                        <set attributeName="fill" to="#808080" begin="arrowRight.mouseover" end="arrowRight.mouseout"/>
                  </use>
                  <path fill="none" stroke="white" stroke-width="1.5" d="M0,-3.0v7 M-2.5,-0.5L0,-3.0L2.5,-0.5"/>
                </g>
                <g id="arrowDown" xlink:href="#dirArrow" transform="rotate(180) translate(-30 -48)" onmousedown="handlePan(0,1)">
                  <use xlink:href="#rim" fill="#404040">
                        <set attributeName="fill" to="#808080" begin="arrowDown.mouseover" end="arrowDown.mouseout"/>
                  </use>
                  <path fill="none" stroke="white" stroke-width="1.5" d="M0,-3.0v7 M-2.5,-0.5L0,-3.0L2.5,-0.5"/>
                </g>
                <g id="arrowLeft" xlink:href="#dirArrow" transform="rotate(270) translate(-36 17)" onmousedown="handlePan(-1,0)">
                  <use xlink:href="#rim" fill="#404040">
                        <set attributeName="fill" to="#808080" begin="arrowLeft.mouseover" end="arrowLeft.mouseout"/>
                  </use>
                  <path fill="none" stroke="white" stroke-width="1.5" d="M0,-3.0v7 M-2.5,-0.5L0,-3.0L2.5,-0.5"/>
                </g>
        </g>
        <svg viewBox="0 0 15 15" width="100%" height="30px" preserveAspectRatio="xMaxYMin meet">
         <g id="arrow_out" transform="scale(0.3 0.3)">
          <a xlink:href="monopoly_8h__incl_org.svg" target="_base">
           <rect id="button" ry="5" rx="5" y="6" x="6" height="38" width="38"
                fill="#f2f5e9" fill-opacity="0.5" stroke="#606060" stroke-width="1.0"/>
           <path id="arrow"
             d="M 11.500037,31.436501 C 11.940474,20.09759 22.043105,11.32322 32.158766,21.979434 L 37.068811,17.246167 C 37.068811,17.246167 37.088388,32 37.088388,32 L 22.160133,31.978069 C 22.160133,31.978069 26.997745,27.140456 26.997745,27.140456 C 18.528582,18.264221 13.291696,25.230495 11.500037,31.436501 z"
             style="fill:#404040;"/>
          </a>
         </g>
        </svg>
</svg>
