<?xml version="1.0" encoding="UTF-8" standalone="no"?>
<!DOCTYPE svg PUBLIC "-//W3C//DTD SVG 1.1//EN"
 "http://www.w3.org/Graphics/SVG/1.1/DTD/svg11.dtd">
<!-- Generated by graphviz version 2.26.3 (20100126.1600)
 -->
<!-- Title: G Pages: 1 -->
<!--zoomable 512 -->
<svg id="main" version="1.1" xmlns="http://www.w3.org/2000/svg" xmlns:xlink="http://www.w3.org/1999/xlink" xml:space="preserve" onload="init(evt)">
        <defs>
                <circle id="rim" cx="0" cy="0" r="7"/>
                <circle id="rim2" cx="0" cy="0" r="3.5"/>
                <g id="zoomPlus">
                        <use xlink:href="#rim" fill="#404040">
                                <set attributeName="fill" to="#808080" begin="zoomplus.mouseover" end="zoomplus.mouseout"/>
                        </use>
                        <path d="M-4,0h8M0,-4v8" fill="none" stroke="white" stroke-width="1.5" pointer-events="none"/>
                </g>
                <g id="zoomMin">
                        <use xlink:href="#rim" fill="#404040">
                                <set attributeName="fill" to="#808080" begin="zoomminus.mouseover" end="zoomminus.mouseout"/>
                        </use>
                        <path d="M-4,0h8" fill="none" stroke="white" stroke-width="1.5" pointer-events="none"/>
                </g>
                <g id="dirArrow">
                        <path fill="none" stroke="white" stroke-width="1.5" d="M0,-3.0v7 M-2.5,-0.5L0,-3.0L2.5,-0.5"/>
                </g>
               <g id="resetDef">
                       <use xlink:href="#rim2" fill="#404040">
                               <set attributeName="fill" to="#808080" begin="reset.mouseover" end="reset.mouseout"/>
                       </use>
               </g>
        </defs>

<script type="text/javascript">
var viewWidth = 651;
var viewHeight = 512;
var sectionId = 'dynsection-0';
</script>
<script xlink:href="svgpan.js"/>
<svg id="graph" class="graph">
<g id="viewport">
<title>G</title>
<polygon fill="white" stroke="white" points="-4,5 -4,-508 647.557,-508 647.557,5 -4,5"/>
<!-- Node1 -->
<g id="node1" class="node"><title>Node1</title>
<polygon fill="#bfbfbf" stroke="black" points="167.5,-481 167.5,-503 246.5,-503 246.5,-481 167.5,-481"/>
<text text-anchor="middle" x="207" y="-490" font-family="FreeSans" font-size="10.00">monopoly.cpp</text>
</g>
<!-- Node2 -->
<g id="node3" class="node"><title>Node2</title>
<a xlink:href="monopoly_8h.html" target="_top" xlink:title="Contains an interface for a kind of WorkUnit that consumes time on multiple thread.">
<polygon fill="white" stroke="black" points="173,-421 173,-443 241,-443 241,-421 173,-421"/>
<text text-anchor="middle" x="207" y="-430" font-family="FreeSans" font-size="10.00">monopoly.h</text>
</a>
</g>
<!-- Node1&#45;&gt;Node2 -->
<g id="edge2" class="edge"><title>Node1&#45;&gt;Node2</title>
<path fill="none" stroke="midnightblue" d="M207,-480.995C207,-473.311 207,-462.803 207,-453.488"/>
<polygon fill="midnightblue" stroke="midnightblue" points="210.5,-453.343 207,-443.343 203.5,-453.343 210.5,-453.343"/>
</g>
<!-- Node3 -->
<g id="node5" class="node"><title>Node3</title>
<a xlink:href="datatypes_8h.html" target="_top" xlink:title="This file declares a few typedefs to allow flexibility, in case a change is required/desired.">
<polygon fill="white" stroke="black" points="308,-121 308,-143 376,-143 376,-121 308,-121"/>
<text text-anchor="middle" x="342" y="-130" font-family="FreeSans" font-size="10.00">datatypes.h</text>
</a>
</g>
<!-- Node2&#45;&gt;Node3 -->
<g id="edge4" class="edge"><title>Node2&#45;&gt;Node3</title>
<path fill="none" stroke="midnightblue" d="M189.406,-420.997C146.417,-392.638 42.0988,-314.084 78,-240 96.7675,-201.272 115.421,-199.072 154,-180 200.293,-157.114 258.559,-144.425 297.858,-137.927"/>
<polygon fill="midnightblue" stroke="midnightblue" points="298.589,-141.355 307.917,-136.331 297.492,-134.442 298.589,-141.355"/>
</g>
<!-- Node11 -->
<g id="node21" class="node"><title>Node11</title>
<a xlink:href="workunit_8h.html" target="_top" xlink:title="This file has the defintion of the workunit.">
<polygon fill="white" stroke="black" points="362.5,-361 362.5,-383 423.5,-383 423.5,-361 362.5,-361"/>
<text text-anchor="middle" x="393" y="-370" font-family="FreeSans" font-size="10.00">workunit.h</text>
</a>
</g>
<!-- Node2&#45;&gt;Node11 -->
<g id="edge20" class="edge"><title>Node2&#45;&gt;Node11</title>
<path fill="none" stroke="midnightblue" d="M241.115,-420.995C272.575,-410.847 319.306,-395.772 352.616,-385.027"/>
<polygon fill="midnightblue" stroke="midnightblue" points="354.048,-388.243 362.491,-381.842 351.899,-381.581 354.048,-388.243"/>
</g>
<!-- Node4 -->
<g id="node7" class="node"><title>Node4</title>
<a xlink:href="compilerthreadcompat_8h.html" target="_top" xlink:title="This file determines what features are offered by the compiler that this library can take advantage o...">
<polygon fill="white" stroke="black" points="73,-61 73,-83 197,-83 197,-61 73,-61"/>
<text text-anchor="middle" x="135" y="-70" font-family="FreeSans" font-size="10.00">compilerthreadcompat.h</text>
</a>
</g>
<!-- Node3&#45;&gt;Node4 -->
<g id="edge6" class="edge"><title>Node3&#45;&gt;Node4</title>
<path fill="none" stroke="midnightblue" d="M307.818,-122.092C273.77,-112.223 221.2,-96.9854 182.978,-85.9067"/>
<polygon fill="midnightblue" stroke="midnightblue" points="183.678,-82.4655 173.099,-83.0431 181.729,-89.1888 183.678,-82.4655"/>
</g>
<!-- Node9 -->
<g id="node17" class="node"><title>Node9</title>
<polygon fill="white" stroke="#bfbfbf" points="237.5,-61 237.5,-83 278.5,-83 278.5,-61 237.5,-61"/>
<text text-anchor="middle" x="258" y="-70" font-family="FreeSans" font-size="10.00">string</text>
</g>
<!-- Node3&#45;&gt;Node9 -->
<g id="edge16" class="edge"><title>Node3&#45;&gt;Node9</title>
<path fill="none" stroke="midnightblue" d="M326.593,-120.995C314.12,-112.086 296.332,-99.3799 281.996,-89.1397"/>
<polygon fill="midnightblue" stroke="midnightblue" points="283.765,-86.1027 273.594,-83.1383 279.697,-91.7988 283.765,-86.1027"/>
</g>
<!-- Node10 -->
<g id="node19" class="node"><title>Node10</title>
<polygon fill="white" stroke="#bfbfbf" points="318.5,-61 318.5,-83 365.5,-83 365.5,-61 318.5,-61"/>
<text text-anchor="middle" x="342" y="-70" font-family="FreeSans" font-size="10.00">stdint.h</text>
</g>
<!-- Node3&#45;&gt;Node10 -->
<g id="edge18" class="edge"><title>Node3&#45;&gt;Node10</title>
<path fill="none" stroke="midnightblue" d="M342,-120.995C342,-113.311 342,-102.803 342,-93.4884"/>
<polygon fill="midnightblue" stroke="midnightblue" points="345.5,-93.3428 342,-83.3428 338.5,-93.3429 345.5,-93.3428"/>
</g>
<!-- Node5 -->
<g id="node9" class="node"><title>Node5</title>
<polygon fill="white" stroke="#bfbfbf" points="0,-1 0,-23 58,-23 58,-1 0,-1"/>
<text text-anchor="middle" x="29" y="-10" font-family="FreeSans" font-size="10.00">pthread.h</text>
</g>
<!-- Node4&#45;&gt;Node5 -->
<g id="edge8" class="edge"><title>Node4&#45;&gt;Node5</title>
<path fill="none" stroke="midnightblue" d="M115.558,-60.9951C99.2987,-51.7917 75.8814,-38.5366 57.5027,-28.1336"/>
<polygon fill="midnightblue" stroke="midnightblue" points="59.1044,-25.0185 48.6777,-23.1383 55.6562,-31.1103 59.1044,-25.0185"/>
</g>
<!-- Node6 -->
<g id="node11" class="node"><title>Node6</title>
<polygon fill="white" stroke="#bfbfbf" points="75.5,-1 75.5,-23 126.5,-23 126.5,-1 75.5,-1"/>
<text text-anchor="middle" x="101" y="-10" font-family="FreeSans" font-size="10.00">signal.h</text>
</g>
<!-- Node4&#45;&gt;Node6 -->
<g id="edge10" class="edge"><title>Node4&#45;&gt;Node6</title>
<path fill="none" stroke="midnightblue" d="M128.764,-60.9951C124.22,-52.9771 117.934,-41.884 112.492,-32.2806"/>
<polygon fill="midnightblue" stroke="midnightblue" points="115.403,-30.3175 107.428,-23.3428 109.313,-33.7686 115.403,-30.3175"/>
</g>
<!-- Node7 -->
<g id="node13" class="node"><title>Node7</title>
<polygon fill="white" stroke="#bfbfbf" points="144,-1 144,-23 196,-23 196,-1 144,-1"/>
<text text-anchor="middle" x="170" y="-10" font-family="FreeSans" font-size="10.00">sched.h</text>
</g>
<!-- Node4&#45;&gt;Node7 -->
<g id="edge12" class="edge"><title>Node4&#45;&gt;Node7</title>
<path fill="none" stroke="midnightblue" d="M141.42,-60.9951C146.145,-52.8936 152.703,-41.6525 158.344,-31.981"/>
<polygon fill="midnightblue" stroke="midnightblue" points="161.368,-33.7442 163.383,-23.3428 155.321,-30.2171 161.368,-33.7442"/>
</g>
<!-- Node8 -->
<g id="node15" class="node"><title>Node8</title>
<polygon fill="white" stroke="#bfbfbf" points="214,-1 214,-23 264,-23 264,-1 214,-1"/>
<text text-anchor="middle" x="239" y="-10" font-family="FreeSans" font-size="10.00">unistd.h</text>
</g>
<!-- Node4&#45;&gt;Node8 -->
<g id="edge14" class="edge"><title>Node4&#45;&gt;Node8</title>
<path fill="none" stroke="midnightblue" d="M154.075,-60.9951C169.955,-51.8337 192.793,-38.6576 210.788,-28.2763"/>
<polygon fill="midnightblue" stroke="midnightblue" points="212.781,-31.1673 219.694,-23.1383 209.283,-25.104 212.781,-31.1673"/>
</g>
<!-- Node11&#45;&gt;Node3 -->
<g id="edge22" class="edge"><title>Node11&#45;&gt;Node3</title>
<path fill="none" stroke="midnightblue" d="M423.505,-368.944C476.713,-363.035 583.454,-348.426 611,-324 639.793,-298.469 652.286,-272.701 632,-240 605.29,-196.941 460.496,-158.701 386.134,-141.556"/>
<polygon fill="midnightblue" stroke="midnightblue" points="386.656,-138.086 376.129,-139.279 385.102,-144.911 386.656,-138.086"/>
</g>
<!-- Node12 -->
<g id="node24" class="node"><title>Node12</title>
<a xlink:href="framescheduler_8h.html" target="_top" xlink:title="This file has the Declarations for the main FrameScheduler class.">
<polygon fill="white" stroke="black" points="254,-301 254,-323 348,-323 348,-301 254,-301"/>
<text text-anchor="middle" x="301" y="-310" font-family="FreeSans" font-size="10.00">framescheduler.h</text>
</a>
</g>
<!-- Node11&#45;&gt;Node12 -->
<g id="edge24" class="edge"><title>Node11&#45;&gt;Node12</title>
<path fill="none" stroke="midnightblue" d="M376.126,-360.995C362.336,-352.002 342.614,-339.14 326.837,-328.851"/>
<polygon fill="midnightblue" stroke="midnightblue" points="328.367,-325.669 318.079,-323.138 324.543,-331.533 328.367,-325.669"/>
</g>
<!-- Node13 -->
<g id="node27" class="node"><title>Node13</title>
<a xlink:href="thread_8h.html" target="_top" xlink:title="This file defines a minimalistic cross&#45;platform thread that the scheduler uses to schedule tasks...">
<polygon fill="white" stroke="black" points="86.5,-241 86.5,-263 139.5,-263 139.5,-241 86.5,-241"/>
<text text-anchor="middle" x="113" y="-250" font-family="FreeSans" font-size="10.00">thread.h</text>
</a>
</g>
<!-- Node11&#45;&gt;Node13 -->
<g id="edge68" class="edge"><title>Node11&#45;&gt;Node13</title>
<path fill="none" stroke="midnightblue" d="M362.348,-363.862C331.987,-355.385 284.449,-340.981 245,-324 207.037,-307.658 165.54,-283.989 139.402,-268.307"/>
<polygon fill="midnightblue" stroke="midnightblue" points="141.196,-265.302 130.828,-263.119 137.572,-271.291 141.196,-265.302"/>
</g>
<!-- Node15 -->
<g id="node33" class="node"><title>Node15</title>
<a xlink:href="mutex_8h.html" target="_top" xlink:title="This file declares and defines a mutex that is a partial implementation.">
<polygon fill="white" stroke="black" points="109.5,-121 109.5,-143 160.5,-143 160.5,-121 109.5,-121"/>
<text text-anchor="middle" x="135" y="-130" font-family="FreeSans" font-size="10.00">mutex.h</text>
</a>
</g>
<!-- Node11&#45;&gt;Node15 -->
<g id="edge58" class="edge"><title>Node11&#45;&gt;Node15</title>
<path fill="none" stroke="midnightblue" d="M362.256,-366.54C289.074,-352.805 108.366,-314.296 78,-264 54.9669,-225.849 91.7817,-176.712 116.172,-150.467"/>
<polygon fill="midnightblue" stroke="midnightblue" points="118.854,-152.728 123.263,-143.094 113.808,-147.875 118.854,-152.728"/>
</g>
<!-- Node17 -->
<g id="node39" class="node"><title>Node17</title>
<polygon fill="white" stroke="#bfbfbf" points="403,-181 403,-203 447,-203 447,-181 403,-181"/>
<text text-anchor="middle" x="425" y="-190" font-family="FreeSans" font-size="10.00">vector</text>
</g>
<!-- Node11&#45;&gt;Node17 -->
<g id="edge72" class="edge"><title>Node11&#45;&gt;Node17</title>
<path fill="none" stroke="midnightblue" d="M395.002,-360.74C400.232,-331.319 414.374,-251.769 421.205,-213.345"/>
<polygon fill="midnightblue" stroke="midnightblue" points="424.695,-213.714 422.999,-203.256 417.803,-212.489 424.695,-213.714"/>
</g>
<!-- Node18 -->
<g id="node41" class="node"><title>Node18</title>
<a xlink:href="workunitkey_8h.html" target="_top" xlink:title="This file defines the metadata used to sort workunits.">
<polygon fill="white" stroke="black" points="546.5,-241 546.5,-263 623.5,-263 623.5,-241 546.5,-241"/>
<text text-anchor="middle" x="585" y="-250" font-family="FreeSans" font-size="10.00">workunitkey.h</text>
</a>
</g>
<!-- Node11&#45;&gt;Node18 -->
<g id="edge70" class="edge"><title>Node11&#45;&gt;Node18</title>
<path fill="none" stroke="midnightblue" d="M423.589,-369.242C474.499,-363.95 573.105,-350.472 594,-324 605.396,-309.562 600.864,-288.17 594.867,-272.455"/>
<polygon fill="midnightblue" stroke="midnightblue" points="598.01,-270.902 590.867,-263.077 591.571,-273.649 598.01,-270.902"/>
</g>
<!-- Node22 -->
<g id="node52" class="node"><title>Node22</title>
<a xlink:href="rollingaverage_8h.html" target="_top" xlink:title="This Store the implementation and the declaration of the RollingAverage, BufferedRollingAverage, WeightedRollingAverage and the DefaultRollingAverage.">
<polygon fill="white" stroke="black" points="440.5,-241 440.5,-263 529.5,-263 529.5,-241 440.5,-241"/>
<text text-anchor="middle" x="485" y="-250" font-family="FreeSans" font-size="10.00">rollingaverage.h</text>
</a>
</g>
<!-- Node11&#45;&gt;Node22 -->
<g id="edge60" class="edge"><title>Node11&#45;&gt;Node22</title>
<path fill="none" stroke="midnightblue" d="M401.49,-360.926C417.168,-340.476 450.833,-296.566 470.292,-271.184"/>
<polygon fill="midnightblue" stroke="midnightblue" points="473.224,-273.113 476.53,-263.047 467.668,-268.854 473.224,-273.113"/>
</g>
<!-- Node23 -->
<g id="node56" class="node"><title>Node23</title>
<a xlink:href="threadingenumerations_8h.html" target="_top" xlink:title="Any enumerations the threading library requires are all declared here.">
<polygon fill="white" stroke="black" points="458.5,-301 458.5,-323 585.5,-323 585.5,-301 458.5,-301"/>
<text text-anchor="middle" x="522" y="-310" font-family="FreeSans" font-size="10.00">threadingenumerations.h</text>
</a>
</g>
<!-- Node11&#45;&gt;Node23 -->
<g id="edge66" class="edge"><title>Node11&#45;&gt;Node23</title>
<path fill="none" stroke="midnightblue" d="M416.661,-360.995C436.9,-351.582 466.252,-337.929 488.835,-327.426"/>
<polygon fill="midnightblue" stroke="midnightblue" points="490.461,-330.529 498.053,-323.138 487.509,-324.182 490.461,-330.529"/>
</g>
<!-- Node12&#45;&gt;Node3 -->
<g id="edge26" class="edge"><title>Node12&#45;&gt;Node3</title>
<path fill="none" stroke="midnightblue" d="M309.428,-300.811C322.918,-282.029 348.599,-242.431 356,-204 359.333,-186.693 354.97,-167.055 350.258,-152.664"/>
<polygon fill="midnightblue" stroke="midnightblue" points="353.542,-151.453 346.871,-143.222 346.953,-153.816 353.542,-151.453"/>
</g>
<!-- Node12&#45;&gt;Node13 -->
<g id="edge28" class="edge"><title>Node12&#45;&gt;Node13</title>
<path fill="none" stroke="midnightblue" d="M264.746,-300.92C235.752,-291.994 193.836,-278.944 149.274,-264.376"/>
<polygon fill="midnightblue" stroke="midnightblue" points="150.321,-261.036 139.729,-261.245 148.14,-267.687 150.321,-261.036"/>
</g>
<!-- Node14 -->
<g id="node30" class="node"><title>Node14</title>
<a xlink:href="systemcalls_8h.html" target="_top" xlink:title="This file defines a minimalistic cross&#45;platform thread that the scheduler uses to schedule tasks...">
<polygon fill="white" stroke="black" points="270.5,-181 270.5,-203 347.5,-203 347.5,-181 270.5,-181"/>
<text text-anchor="middle" x="309" y="-190" font-family="FreeSans" font-size="10.00">systemcalls.h</text>
</a>
</g>
<!-- Node12&#45;&gt;Node14 -->
<g id="edge50" class="edge"><title>Node12&#45;&gt;Node14</title>
<path fill="none" stroke="midnightblue" d="M306.175,-300.849C310.304,-291.302 315.754,-277.069 318,-264 320.924,-246.983 318.137,-227.549 314.917,-213.164"/>
<polygon fill="midnightblue" stroke="midnightblue" points="318.266,-212.131 312.456,-203.271 311.473,-213.82 318.266,-212.131"/>
</g>
<!-- Node12&#45;&gt;Node18 -->
<g id="edge46" class="edge"><title>Node12&#45;&gt;Node18</title>
<path fill="none" stroke="midnightblue" d="M348.365,-303.132C394.159,-294.396 465.732,-280.316 536.353,-264.313"/>
<polygon fill="midnightblue" stroke="midnightblue" points="537.337,-267.678 546.309,-262.042 535.781,-260.854 537.337,-267.678"/>
</g>
<!-- Node19 -->
<g id="node45" class="node"><title>Node19</title>
<polygon fill="white" stroke="#bfbfbf" points="157,-241 157,-263 193,-263 193,-241 157,-241"/>
<text text-anchor="middle" x="175" y="-250" font-family="FreeSans" font-size="10.00">map</text>
</g>
<!-- Node12&#45;&gt;Node19 -->
<g id="edge52" class="edge"><title>Node12&#45;&gt;Node19</title>
<path fill="none" stroke="midnightblue" d="M277.89,-300.995C256.505,-290.812 224.704,-275.668 202.124,-264.916"/>
<polygon fill="midnightblue" stroke="midnightblue" points="203.603,-261.744 193.069,-260.605 200.593,-268.064 203.603,-261.744"/>
</g>
<!-- Node20 -->
<g id="node47" class="node"><title>Node20</title>
<polygon fill="white" stroke="#bfbfbf" points="211,-241 211,-263 241,-263 241,-241 211,-241"/>
<text text-anchor="middle" x="226" y="-250" font-family="FreeSans" font-size="10.00">set</text>
</g>
<!-- Node12&#45;&gt;Node20 -->
<g id="edge54" class="edge"><title>Node12&#45;&gt;Node20</title>
<path fill="none" stroke="midnightblue" d="M287.244,-300.995C276.212,-292.17 260.524,-279.619 247.788,-269.43"/>
<polygon fill="midnightblue" stroke="midnightblue" points="249.918,-266.652 239.923,-263.138 245.545,-272.118 249.918,-266.652"/>
</g>
<!-- Node21 -->
<g id="node49" class="node"><title>Node21</title>
<polygon fill="white" stroke="#bfbfbf" points="259,-241 259,-263 309,-263 309,-241 259,-241"/>
<text text-anchor="middle" x="284" y="-250" font-family="FreeSans" font-size="10.00">fstream</text>
</g>
<!-- Node12&#45;&gt;Node21 -->
<g id="edge56" class="edge"><title>Node12&#45;&gt;Node21</title>
<path fill="none" stroke="midnightblue" d="M297.882,-300.995C295.681,-293.228 292.663,-282.574 290.002,-273.185"/>
<polygon fill="midnightblue" stroke="midnightblue" points="293.307,-272.01 287.214,-263.343 286.572,-273.918 293.307,-272.01"/>
</g>
<!-- Node13&#45;&gt;Node4 -->
<g id="edge30" class="edge"><title>Node13&#45;&gt;Node4</title>
<path fill="none" stroke="midnightblue" d="M109.077,-240.728C101.622,-217.522 87.3208,-162.977 101,-120 104.356,-109.455 110.963,-99.2376 117.467,-90.959"/>
<polygon fill="midnightblue" stroke="midnightblue" points="120.315,-93.0098 124.067,-83.1015 114.955,-88.5074 120.315,-93.0098"/>
</g>
<!-- Node13&#45;&gt;Node14 -->
<g id="edge32" class="edge"><title>Node13&#45;&gt;Node14</title>
<path fill="none" stroke="midnightblue" d="M139.716,-242.716C142.508,-241.783 145.308,-240.862 148,-240 185.596,-227.956 228.443,-215.23 260.479,-205.909"/>
<polygon fill="midnightblue" stroke="midnightblue" points="261.851,-209.156 270.48,-203.008 259.9,-202.433 261.851,-209.156"/>
</g>
<!-- Node13&#45;&gt;Node15 -->
<g id="edge36" class="edge"><title>Node13&#45;&gt;Node15</title>
<path fill="none" stroke="midnightblue" d="M115.03,-240.926C118.681,-221.012 126.411,-178.851 131.11,-153.216"/>
<polygon fill="midnightblue" stroke="midnightblue" points="134.614,-153.515 132.975,-143.047 127.729,-152.252 134.614,-153.515"/>
</g>
<!-- Node16 -->
<g id="node37" class="node"><title>Node16</title>
<polygon fill="white" stroke="#bfbfbf" points="162.5,-181 162.5,-203 215.5,-203 215.5,-181 162.5,-181"/>
<text text-anchor="middle" x="189" y="-190" font-family="FreeSans" font-size="10.00">ostream</text>
</g>
<!-- Node13&#45;&gt;Node16 -->
<g id="edge42" class="edge"><title>Node13&#45;&gt;Node16</title>
<path fill="none" stroke="midnightblue" d="M126.94,-240.995C138.118,-232.17 154.016,-219.619 166.922,-209.43"/>
<polygon fill="midnightblue" stroke="midnightblue" points="169.211,-212.082 174.891,-203.138 164.874,-206.588 169.211,-212.082"/>
</g>
<!-- Node13&#45;&gt;Node17 -->
<g id="edge44" class="edge"><title>Node13&#45;&gt;Node17</title>
<path fill="none" stroke="midnightblue" d="M139.621,-242.385C142.431,-241.516 145.262,-240.702 148,-240 238.883,-216.713 263.562,-220.038 356,-204 368.016,-201.915 381.207,-199.622 392.809,-197.604"/>
<polygon fill="midnightblue" stroke="midnightblue" points="393.686,-201.004 402.938,-195.842 392.486,-194.108 393.686,-201.004"/>
</g>
<!-- Node14&#45;&gt;Node3 -->
<g id="edge34" class="edge"><title>Node14&#45;&gt;Node3</title>
<path fill="none" stroke="midnightblue" d="M315.053,-180.995C319.463,-172.977 325.564,-161.884 330.846,-152.281"/>
<polygon fill="midnightblue" stroke="midnightblue" points="334.009,-153.792 335.761,-143.343 327.875,-150.418 334.009,-153.792"/>
</g>
<!-- Node15&#45;&gt;Node4 -->
<g id="edge38" class="edge"><title>Node15&#45;&gt;Node4</title>
<path fill="none" stroke="midnightblue" d="M135,-120.995C135,-113.311 135,-102.803 135,-93.4884"/>
<polygon fill="midnightblue" stroke="midnightblue" points="138.5,-93.3428 135,-83.3428 131.5,-93.3429 138.5,-93.3428"/>
</g>
<!-- Node15&#45;&gt;Node9 -->
<g id="edge40" class="edge"><title>Node15&#45;&gt;Node9</title>
<path fill="none" stroke="midnightblue" d="M157.56,-120.995C177.376,-111.329 206.354,-97.1933 228.097,-86.5867"/>
<polygon fill="midnightblue" stroke="midnightblue" points="229.769,-89.6657 237.222,-82.1358 226.699,-83.3744 229.769,-89.6657"/>
</g>
<!-- Node18&#45;&gt;Node3 -->
<g id="edge48" class="edge"><title>Node18&#45;&gt;Node3</title>
<path fill="none" stroke="midnightblue" d="M570.679,-240.77C550.634,-225.454 512.655,-197.879 477,-180 447.819,-165.367 413.079,-153.123 386.148,-144.663"/>
<polygon fill="midnightblue" stroke="midnightblue" points="386.824,-141.209 376.237,-141.61 384.763,-147.899 386.824,-141.209"/>
</g>
<!-- Node22&#45;&gt;Node3 -->
<g id="edge64" class="edge"><title>Node22&#45;&gt;Node3</title>
<path fill="none" stroke="midnightblue" d="M483.251,-240.781C480.275,-225.225 472.828,-197.093 456,-180 437.083,-160.785 409.298,-148.872 385.895,-141.72"/>
<polygon fill="midnightblue" stroke="midnightblue" points="386.749,-138.324 376.172,-138.939 384.824,-145.054 386.749,-138.324"/>
</g>
<!-- Node22&#45;&gt;Node17 -->
<g id="edge62" class="edge"><title>Node22&#45;&gt;Node17</title>
<path fill="none" stroke="midnightblue" d="M473.995,-240.995C465.476,-232.476 453.485,-220.485 443.499,-210.499"/>
<polygon fill="midnightblue" stroke="midnightblue" points="445.889,-207.939 436.343,-203.343 440.939,-212.889 445.889,-207.939"/>
</g>
</g>
</svg>
        <g id="navigator" transform="translate(0 0)" fill="#404254">
                <rect fill="#f2f5e9" fill-opacity="0.5" stroke="#606060" stroke-width=".5" x="0" y="0" width="60" height="60"/>
                <use id="zoomplus" xlink:href="#zoomPlus" x="17" y="9" onmousedown="handleZoom(evt,'in')"/>
                <use id="zoomminus" xlink:href="#zoomMin" x="42" y="9" onmousedown="handleZoom(evt,'out')"/>
                <use id="reset" xlink:href="#resetDef" x="30" y="36" onmousedown="handleReset()"/>
                <g id="arrowUp" xlink:href="#dirArrow" transform="translate(30 24)" onmousedown="handlePan(0,-1)">
                  <use xlink:href="#rim" fill="#404040">
                        <set attributeName="fill" to="#808080" begin="arrowUp.mouseover" end="arrowUp.mouseout"/>
                  </use>
                  <path fill="none" stroke="white" stroke-width="1.5" d="M0,-3.0v7 M-2.5,-0.5L0,-3.0L2.5,-0.5"/>
                </g>
                <g id="arrowRight" xlink:href="#dirArrow" transform="rotate(90) translate(36 -43)" onmousedown="handlePan(1,0)">
                  <use xlink:href="#rim" fill="#404040">
                        <set attributeName="fill" to="#808080" begin="arrowRight.mouseover" end="arrowRight.mouseout"/>
                  </use>
                  <path fill="none" stroke="white" stroke-width="1.5" d="M0,-3.0v7 M-2.5,-0.5L0,-3.0L2.5,-0.5"/>
                </g>
                <g id="arrowDown" xlink:href="#dirArrow" transform="rotate(180) translate(-30 -48)" onmousedown="handlePan(0,1)">
                  <use xlink:href="#rim" fill="#404040">
                        <set attributeName="fill" to="#808080" begin="arrowDown.mouseover" end="arrowDown.mouseout"/>
                  </use>
                  <path fill="none" stroke="white" stroke-width="1.5" d="M0,-3.0v7 M-2.5,-0.5L0,-3.0L2.5,-0.5"/>
                </g>
                <g id="arrowLeft" xlink:href="#dirArrow" transform="rotate(270) translate(-36 17)" onmousedown="handlePan(-1,0)">
                  <use xlink:href="#rim" fill="#404040">
                        <set attributeName="fill" to="#808080" begin="arrowLeft.mouseover" end="arrowLeft.mouseout"/>
                  </use>
                  <path fill="none" stroke="white" stroke-width="1.5" d="M0,-3.0v7 M-2.5,-0.5L0,-3.0L2.5,-0.5"/>
                </g>
        </g>
</svg>
