<?xml version="1.0" encoding="UTF-8" standalone="no"?>
<!DOCTYPE svg PUBLIC "-//W3C//DTD SVG 1.1//EN"
 "http://www.w3.org/Graphics/SVG/1.1/DTD/svg11.dtd">
<!-- Generated by graphviz version 2.26.3 (20100126.1600)
 -->
<!-- Title: monopoly.h Pages: 1 -->
<!--zoomable 436 -->
<svg id="main" version="1.1" xmlns="http://www.w3.org/2000/svg" xmlns:xlink="http://www.w3.org/1999/xlink" xml:space="preserve" onload="init(evt)">
        <defs>
                <circle id="rim" cx="0" cy="0" r="7"/>
                <circle id="rim2" cx="0" cy="0" r="3.5"/>
                <g id="zoomPlus">
                        <use xlink:href="#rim" fill="#404040">
                                <set attributeName="fill" to="#808080" begin="zoomplus.mouseover" end="zoomplus.mouseout"/>
                        </use>
                        <path d="M-4,0h8M0,-4v8" fill="none" stroke="white" stroke-width="1.5" pointer-events="none"/>
                </g>
                <g id="zoomMin">
                        <use xlink:href="#rim" fill="#404040">
                                <set attributeName="fill" to="#808080" begin="zoomminus.mouseover" end="zoomminus.mouseout"/>
                        </use>
                        <path d="M-4,0h8" fill="none" stroke="white" stroke-width="1.5" pointer-events="none"/>
                </g>
                <g id="dirArrow">
                        <path fill="none" stroke="white" stroke-width="1.5" d="M0,-3.0v7 M-2.5,-0.5L0,-3.0L2.5,-0.5"/>
                </g>
               <g id="resetDef">
                       <use xlink:href="#rim2" fill="#404040">
                               <set attributeName="fill" to="#808080" begin="reset.mouseover" end="reset.mouseout"/>
                       </use>
               </g>
        </defs>

<script type="text/javascript">
var viewWidth = 879;
var viewHeight = 436;
var sectionId = 'dynsection-0';
</script>
<script xlink:href="svgpan.js"/>
<svg id="graph" class="graph">
<g id="viewport">
<title>monopoly.h</title>
<polygon fill="white" stroke="white" points="-4,5 -4,-432 876,-432 876,5 -4,5"/>
<!-- Node1 -->
<g id="node1" class="node"><title>Node1</title>
<polygon fill="#bfbfbf" stroke="black" points="644.5,-407 644.5,-427 709.5,-427 709.5,-407 644.5,-407"/>
<text text-anchor="middle" x="677" y="-414" font-family="FreeSans" font-size="10.00">monopoly.h</text>
</g>
<!-- Node2 -->
<g id="node3" class="node"><title>Node2</title>
<a xlink:href="datatypes_8h.html" target="_top" xlink:title="This file declares a few typedefs to allow flexibility, in case a change is required/desired.">
<polygon fill="white" stroke="black" points="476.5,-59 476.5,-79 541.5,-79 541.5,-59 476.5,-59"/>
<text text-anchor="middle" x="509" y="-66" font-family="FreeSans" font-size="10.00">datatypes.h</text>
</a>
</g>
<!-- Node1&#45;&gt;Node2 -->
<g id="edge2" class="edge"><title>Node1&#45;&gt;Node2</title>
<path fill="none" stroke="midnightblue" d="M709.909,-412.563C765.259,-403.049 871,-375.168 871,-301 871,-301 871,-301 871,-185 871,-133.175 824.665,-136.344 777,-116 737.101,-98.9702 616.496,-82.1831 551.534,-74.0569"/>
<polygon fill="midnightblue" stroke="midnightblue" points="551.96,-70.5831 541.606,-72.8283 551.1,-77.5301 551.96,-70.5831"/>
</g>
<!-- Node6 -->
<g id="node11" class="node"><title>Node6</title>
<a xlink:href="doublebufferedresource_8h.html" target="_top" xlink:title="This file defines the template double buffered resources that can be attached to a thread...">
<polygon fill="white" stroke="black" points="30.5,-233 30.5,-253 153.5,-253 153.5,-233 30.5,-233"/>
<text text-anchor="middle" x="92" y="-240" font-family="FreeSans" font-size="10.00">doublebufferedresource.h</text>
</a>
</g>
<!-- Node1&#45;&gt;Node6 -->
<g id="edge10" class="edge"><title>Node1&#45;&gt;Node6</title>
<path fill="none" stroke="midnightblue" d="M644.442,-408.309C579.473,-390.861 429.213,-349.984 304,-312 243.478,-293.64 173.846,-270.607 131.391,-256.346"/>
<polygon fill="midnightblue" stroke="midnightblue" points="132.317,-252.965 121.723,-253.092 130.084,-259.599 132.317,-252.965"/>
</g>
<!-- Node10 -->
<g id="node20" class="node"><title>Node10</title>
<a xlink:href="workunit_8h.html" target="_top" xlink:title="This file has the definition of the workunit.">
<polygon fill="white" stroke="black" points="647,-349 647,-369 707,-369 707,-349 647,-349"/>
<text text-anchor="middle" x="677" y="-356" font-family="FreeSans" font-size="10.00">workunit.h</text>
</a>
</g>
<!-- Node1&#45;&gt;Node10 -->
<g id="edge20" class="edge"><title>Node1&#45;&gt;Node10</title>
<path fill="none" stroke="midnightblue" d="M677,-406.897C677,-399.339 677,-388.748 677,-379.446"/>
<polygon fill="midnightblue" stroke="midnightblue" points="680.5,-379.378 677,-369.378 673.5,-379.378 680.5,-379.378"/>
</g>
<!-- Node3 -->
<g id="node5" class="node"><title>Node3</title>
<a xlink:href="crossplatformexport_8h.html" target="_top" xlink:title="This file determines what features are offered by the compiler that this library can take advantage o...">
<polygon fill="white" stroke="black" points="408,-1 408,-21 516,-21 516,-1 408,-1"/>
<text text-anchor="middle" x="462" y="-8" font-family="FreeSans" font-size="10.00">crossplatformexport.h</text>
</a>
</g>
<!-- Node2&#45;&gt;Node3 -->
<g id="edge4" class="edge"><title>Node2&#45;&gt;Node3</title>
<path fill="none" stroke="midnightblue" d="M500.813,-58.8972C494.223,-50.7639 484.786,-39.1183 476.867,-29.3468"/>
<polygon fill="midnightblue" stroke="midnightblue" points="479.425,-26.9434 470.409,-21.3776 473.986,-31.3505 479.425,-26.9434"/>
</g>
<!-- Node4 -->
<g id="node7" class="node"><title>Node4</title>
<polygon fill="white" stroke="#bfbfbf" points="729,-1 729,-21 769,-21 769,-1 729,-1"/>
<text text-anchor="middle" x="749" y="-8" font-family="FreeSans" font-size="10.00">string</text>
</g>
<!-- Node2&#45;&gt;Node4 -->
<g id="edge6" class="edge"><title>Node2&#45;&gt;Node4</title>
<path fill="none" stroke="midnightblue" d="M541.617,-61.1175C588.346,-49.8247 673.686,-29.2008 718.951,-18.2618"/>
<polygon fill="midnightblue" stroke="midnightblue" points="719.864,-21.6421 728.762,-15.8909 718.22,-14.8379 719.864,-21.6421"/>
</g>
<!-- Node5 -->
<g id="node9" class="node"><title>Node5</title>
<polygon fill="white" stroke="#bfbfbf" points="533.5,-1 533.5,-21 580.5,-21 580.5,-1 533.5,-1"/>
<text text-anchor="middle" x="557" y="-8" font-family="FreeSans" font-size="10.00">stdint.h</text>
</g>
<!-- Node2&#45;&gt;Node5 -->
<g id="edge8" class="edge"><title>Node2&#45;&gt;Node5</title>
<path fill="none" stroke="midnightblue" d="M517.361,-58.8972C524.092,-50.7639 533.73,-39.1183 541.816,-29.3468"/>
<polygon fill="midnightblue" stroke="midnightblue" points="544.732,-31.3131 548.412,-21.3776 539.34,-26.8501 544.732,-31.3131"/>
</g>
<!-- Node6&#45;&gt;Node2 -->
<g id="edge12" class="edge"><title>Node6&#45;&gt;Node2</title>
<path fill="none" stroke="midnightblue" d="M103.653,-232.939C132.266,-208.789 209.122,-147.231 284,-116 344.435,-90.7928 419.836,-78.5901 466.188,-73.0771"/>
<polygon fill="midnightblue" stroke="midnightblue" points="466.648,-76.5474 476.188,-71.9383 465.856,-69.5924 466.648,-76.5474"/>
</g>
<!-- Node7 -->
<g id="node14" class="node"><title>Node7</title>
<polygon fill="white" stroke="#bfbfbf" points="0,-175 0,-195 56,-195 56,-175 0,-175"/>
<text text-anchor="middle" x="28" y="-182" font-family="FreeSans" font-size="10.00">algorithm</text>
</g>
<!-- Node6&#45;&gt;Node7 -->
<g id="edge14" class="edge"><title>Node6&#45;&gt;Node7</title>
<path fill="none" stroke="midnightblue" d="M80.8521,-232.897C71.5148,-224.435 57.9824,-212.172 46.9483,-202.172"/>
<polygon fill="midnightblue" stroke="midnightblue" points="49.2114,-199.499 39.4511,-195.378 44.5107,-204.686 49.2114,-199.499"/>
</g>
<!-- Node8 -->
<g id="node16" class="node"><title>Node8</title>
<polygon fill="white" stroke="#bfbfbf" points="74,-175 74,-195 124,-195 124,-175 74,-175"/>
<text text-anchor="middle" x="99" y="-182" font-family="FreeSans" font-size="10.00">sstream</text>
</g>
<!-- Node6&#45;&gt;Node8 -->
<g id="edge16" class="edge"><title>Node6&#45;&gt;Node8</title>
<path fill="none" stroke="midnightblue" d="M93.2193,-232.897C94.1315,-225.339 95.4098,-214.748 96.5324,-205.446"/>
<polygon fill="midnightblue" stroke="midnightblue" points="100.024,-205.725 97.7475,-195.378 93.0745,-204.886 100.024,-205.725"/>
</g>
<!-- Node9 -->
<g id="node18" class="node"><title>Node9</title>
<polygon fill="white" stroke="#bfbfbf" points="302.5,-175 302.5,-195 345.5,-195 345.5,-175 302.5,-175"/>
<text text-anchor="middle" x="324" y="-182" font-family="FreeSans" font-size="10.00">vector</text>
</g>
<!-- Node6&#45;&gt;Node9 -->
<g id="edge18" class="edge"><title>Node6&#45;&gt;Node9</title>
<path fill="none" stroke="midnightblue" d="M132.146,-232.963C177.698,-221.575 251.039,-203.24 292.606,-192.849"/>
<polygon fill="midnightblue" stroke="midnightblue" points="293.6,-196.208 302.453,-190.387 291.902,-189.417 293.6,-196.208"/>
</g>
<!-- Node10&#45;&gt;Node2 -->
<g id="edge22" class="edge"><title>Node10&#45;&gt;Node2</title>
<path fill="none" stroke="midnightblue" d="M692.659,-348.714C704.618,-340.149 720.739,-326.966 731,-312 780.626,-239.616 815.432,-179.641 755,-116 727.702,-87.2525 614.48,-75.6123 551.591,-71.2939"/>
<polygon fill="midnightblue" stroke="midnightblue" points="551.786,-67.7993 541.579,-70.6391 551.329,-74.7844 551.786,-67.7993"/>
</g>
<!-- Node10&#45;&gt;Node9 -->
<g id="edge84" class="edge"><title>Node10&#45;&gt;Node9</title>
<path fill="none" stroke="midnightblue" d="M670.547,-348.768C654.491,-324.236 610.112,-261.895 556,-232 521.869,-213.144 410.854,-196.416 355.697,-189.023"/>
<polygon fill="midnightblue" stroke="midnightblue" points="356.136,-185.551 345.764,-187.712 355.22,-192.491 356.136,-185.551"/>
</g>
<!-- Node11 -->
<g id="node23" class="node"><title>Node11</title>
<a xlink:href="framescheduler_8h.html" target="_top" xlink:title="This file has the Declarations for the main FrameScheduler class.">
<polygon fill="white" stroke="black" points="422,-291 422,-311 512,-311 512,-291 422,-291"/>
<text text-anchor="middle" x="467" y="-298" font-family="FreeSans" font-size="10.00">framescheduler.h</text>
</a>
</g>
<!-- Node10&#45;&gt;Node11 -->
<g id="edge24" class="edge"><title>Node10&#45;&gt;Node11</title>
<path fill="none" stroke="midnightblue" d="M646.912,-350.69C611.918,-341.025 553.76,-324.962 513.067,-313.723"/>
<polygon fill="midnightblue" stroke="midnightblue" points="513.952,-310.337 503.381,-311.048 512.088,-317.084 513.952,-310.337"/>
</g>
<!-- Node12 -->
<g id="node27" class="node"><title>Node12</title>
<a xlink:href="thread_8h.html" target="_top" xlink:title="This file defines a minimalistic cross&#45;platform thread that the scheduler uses to schedule tasks...">
<polygon fill="white" stroke="black" points="678.5,-233 678.5,-253 729.5,-253 729.5,-233 678.5,-233"/>
<text text-anchor="middle" x="704" y="-240" font-family="FreeSans" font-size="10.00">thread.h</text>
</a>
</g>
<!-- Node10&#45;&gt;Node12 -->
<g id="edge80" class="edge"><title>Node10&#45;&gt;Node12</title>
<path fill="none" stroke="midnightblue" d="M679.396,-348.706C683.871,-329.482 693.567,-287.825 699.361,-262.929"/>
<polygon fill="midnightblue" stroke="midnightblue" points="702.79,-263.639 701.648,-253.106 695.972,-262.052 702.79,-263.639"/>
</g>
<!-- Node14 -->
<g id="node32" class="node"><title>Node14</title>
<a xlink:href="mutex_8h.html" target="_top" xlink:title="This file declares and defines a mutex that is a partial implementation.">
<polygon fill="white" stroke="black" points="689,-175 689,-195 739,-195 739,-175 689,-175"/>
<text text-anchor="middle" x="714" y="-182" font-family="FreeSans" font-size="10.00">mutex.h</text>
</a>
</g>
<!-- Node10&#45;&gt;Node14 -->
<g id="edge72" class="edge"><title>Node10&#45;&gt;Node14</title>
<path fill="none" stroke="midnightblue" d="M685.443,-348.811C699.625,-330.958 727.69,-292.27 738,-254 742.664,-236.686 734.857,-217.452 726.931,-203.699"/>
<polygon fill="midnightblue" stroke="midnightblue" points="729.849,-201.764 721.577,-195.144 723.915,-205.478 729.849,-201.764"/>
</g>
<!-- Node17 -->
<g id="node41" class="node"><title>Node17</title>
<a xlink:href="workunitkey_8h.html" target="_top" xlink:title="This file defines the metadata used to sort workunits.">
<polygon fill="white" stroke="black" points="170.5,-233 170.5,-253 245.5,-253 245.5,-233 170.5,-233"/>
<text text-anchor="middle" x="208" y="-240" font-family="FreeSans" font-size="10.00">workunitkey.h</text>
</a>
</g>
<!-- Node10&#45;&gt;Node17 -->
<g id="edge82" class="edge"><title>Node10&#45;&gt;Node17</title>
<path fill="none" stroke="midnightblue" d="M646.959,-357.038C590.951,-352.814 467.184,-340.803 367,-312 319.3,-298.286 267.063,-273.601 235.936,-257.775"/>
<polygon fill="midnightblue" stroke="midnightblue" points="237.476,-254.631 226.982,-253.17 234.274,-260.856 237.476,-254.631"/>
</g>
<!-- Node18 -->
<g id="node45" class="node"><title>Node18</title>
<a xlink:href="rollingaverage_8h.html" target="_top" xlink:title="This stores the implementation and the declaration of the RollingAverage, BufferedRollingAverage, WeightedRollingAverage and the DefaultRollingAverage.">
<polygon fill="white" stroke="black" points="262.5,-233 262.5,-253 345.5,-253 345.5,-233 262.5,-233"/>
<text text-anchor="middle" x="304" y="-240" font-family="FreeSans" font-size="10.00">rollingaverage.h</text>
</a>
</g>
<!-- Node10&#45;&gt;Node18 -->
<g id="edge74" class="edge"><title>Node10&#45;&gt;Node18</title>
<path fill="none" stroke="midnightblue" d="M646.685,-357.408C596.509,-353.947 493.722,-343.334 413,-312 379.568,-299.023 345.314,-275.284 324.346,-259.324"/>
<polygon fill="midnightblue" stroke="midnightblue" points="326.261,-256.38 316.214,-253.014 321.969,-261.91 326.261,-256.38"/>
</g>
<!-- Node23 -->
<g id="node61" class="node"><title>Node23</title>
<a xlink:href="threadingenumerations_8h.html" target="_top" xlink:title="Any enumerations the threading library requires are all declared here.">
<polygon fill="white" stroke="black" points="624,-117 624,-137 746,-137 746,-117 624,-117"/>
<text text-anchor="middle" x="685" y="-124" font-family="FreeSans" font-size="10.00">threadingenumerations.h</text>
</a>
</g>
<!-- Node10&#45;&gt;Node23 -->
<g id="edge76" class="edge"><title>Node10&#45;&gt;Node23</title>
<path fill="none" stroke="midnightblue" d="M684.552,-348.884C697.629,-330.834 724.393,-291.45 738,-254 746.933,-229.414 745.77,-222.063 748,-196 748.834,-186.258 752.384,-182.74 748,-174 741.206,-160.455 728.452,-149.817 716.187,-142.114"/>
<polygon fill="midnightblue" stroke="midnightblue" points="717.838,-139.025 707.435,-137.023 714.319,-145.076 717.838,-139.025"/>
</g>
<!-- Node11&#45;&gt;Node2 -->
<g id="edge26" class="edge"><title>Node11&#45;&gt;Node2</title>
<path fill="none" stroke="midnightblue" d="M437.79,-290.923C421.159,-283.507 401.748,-271.612 392,-254 387.265,-245.445 389.955,-241.562 392,-232 403.817,-176.751 408.339,-159.822 444,-116 454.256,-103.397 468.666,-92.519 481.312,-84.4114"/>
<polygon fill="midnightblue" stroke="midnightblue" points="483.426,-87.221 490.125,-79.0125 479.77,-81.2521 483.426,-87.221"/>
</g>
<!-- Node11&#45;&gt;Node6 -->
<g id="edge28" class="edge"><title>Node11&#45;&gt;Node6</title>
<path fill="none" stroke="midnightblue" d="M421.777,-294.074C364.2,-285.247 261.363,-269.449 163.86,-254.287"/>
<polygon fill="midnightblue" stroke="midnightblue" points="164.254,-250.806 153.835,-252.727 163.178,-257.723 164.254,-250.806"/>
</g>
<!-- Node11&#45;&gt;Node12 -->
<g id="edge30" class="edge"><title>Node11&#45;&gt;Node12</title>
<path fill="none" stroke="midnightblue" d="M508.012,-290.963C553.393,-279.857 625.775,-262.144 668.717,-251.635"/>
<polygon fill="midnightblue" stroke="midnightblue" points="669.566,-255.03 678.448,-249.253 667.902,-248.231 669.566,-255.03"/>
</g>
<!-- Node13 -->
<g id="node29" class="node"><title>Node13</title>
<a xlink:href="systemcalls_8h.html" target="_top" xlink:title="This file defines a minimalistic cross&#45;platform thread that the scheduler uses to schedule tasks...">
<polygon fill="white" stroke="black" points="529,-175 529,-195 603,-195 603,-175 529,-175"/>
<text text-anchor="middle" x="566" y="-182" font-family="FreeSans" font-size="10.00">systemcalls.h</text>
</a>
</g>
<!-- Node11&#45;&gt;Node13 -->
<g id="edge52" class="edge"><title>Node11&#45;&gt;Node13</title>
<path fill="none" stroke="midnightblue" d="M512.146,-292.461C533.855,-285.84 557.945,-274.226 571,-254 580.329,-239.546 577.654,-219.666 573.486,-204.956"/>
<polygon fill="midnightblue" stroke="midnightblue" points="576.768,-203.731 570.339,-195.311 570.114,-205.903 576.768,-203.731"/>
</g>
<!-- Node11&#45;&gt;Node17 -->
<g id="edge48" class="edge"><title>Node11&#45;&gt;Node17</title>
<path fill="none" stroke="midnightblue" d="M421.657,-291.236C380.692,-282.361 318.476,-268.747 255.717,-254.372"/>
<polygon fill="midnightblue" stroke="midnightblue" points="256.173,-250.885 245.643,-252.058 254.606,-257.708 256.173,-250.885"/>
</g>
<!-- Node11&#45;&gt;Node18 -->
<g id="edge54" class="edge"><title>Node11&#45;&gt;Node18</title>
<path fill="none" stroke="midnightblue" d="M438.608,-290.897C411.81,-281.362 371.446,-266.999 341.907,-256.488"/>
<polygon fill="midnightblue" stroke="midnightblue" points="342.935,-253.139 332.34,-253.084 340.588,-259.734 342.935,-253.139"/>
</g>
<!-- Node19 -->
<g id="node49" class="node"><title>Node19</title>
<a xlink:href="barrier_8h.html" target="_top" xlink:title="The declaration of the Mezzanine::Threading::Barrier Barrier synchronization primitive.">
<polygon fill="white" stroke="black" points="460.5,-175 460.5,-195 511.5,-195 511.5,-175 460.5,-175"/>
<text text-anchor="middle" x="486" y="-182" font-family="FreeSans" font-size="10.00">barrier.h</text>
</a>
</g>
<!-- Node11&#45;&gt;Node19 -->
<g id="edge60" class="edge"><title>Node11&#45;&gt;Node19</title>
<path fill="none" stroke="midnightblue" d="M505.581,-290.856C524.266,-283.787 544.995,-272.257 556,-254 569.123,-232.229 543.27,-212.431 519.358,-199.681"/>
<polygon fill="midnightblue" stroke="midnightblue" points="520.879,-196.529 510.374,-195.151 517.727,-202.779 520.879,-196.529"/>
</g>
<!-- Node20 -->
<g id="node53" class="node"><title>Node20</title>
<polygon fill="white" stroke="#bfbfbf" points="400.5,-233 400.5,-253 435.5,-253 435.5,-233 400.5,-233"/>
<text text-anchor="middle" x="418" y="-240" font-family="FreeSans" font-size="10.00">map</text>
</g>
<!-- Node11&#45;&gt;Node20 -->
<g id="edge66" class="edge"><title>Node11&#45;&gt;Node20</title>
<path fill="none" stroke="midnightblue" d="M458.465,-290.897C451.524,-282.682 441.556,-270.883 433.25,-261.051"/>
<polygon fill="midnightblue" stroke="midnightblue" points="435.894,-258.758 426.767,-253.378 430.547,-263.275 435.894,-258.758"/>
</g>
<!-- Node21 -->
<g id="node55" class="node"><title>Node21</title>
<polygon fill="white" stroke="#bfbfbf" points="452.5,-233 452.5,-253 481.5,-253 481.5,-233 452.5,-233"/>
<text text-anchor="middle" x="467" y="-240" font-family="FreeSans" font-size="10.00">set</text>
</g>
<!-- Node11&#45;&gt;Node21 -->
<g id="edge68" class="edge"><title>Node11&#45;&gt;Node21</title>
<path fill="none" stroke="midnightblue" d="M467,-290.897C467,-283.339 467,-272.748 467,-263.446"/>
<polygon fill="midnightblue" stroke="midnightblue" points="470.5,-263.378 467,-253.378 463.5,-263.378 470.5,-263.378"/>
</g>
<!-- Node22 -->
<g id="node57" class="node"><title>Node22</title>
<polygon fill="white" stroke="#bfbfbf" points="498.5,-233 498.5,-253 547.5,-253 547.5,-233 498.5,-233"/>
<text text-anchor="middle" x="523" y="-240" font-family="FreeSans" font-size="10.00">fstream</text>
</g>
<!-- Node11&#45;&gt;Node22 -->
<g id="edge70" class="edge"><title>Node11&#45;&gt;Node22</title>
<path fill="none" stroke="midnightblue" d="M476.754,-290.897C484.766,-282.6 496.307,-270.646 505.855,-260.757"/>
<polygon fill="midnightblue" stroke="midnightblue" points="508.552,-263.003 512.98,-253.378 503.516,-258.141 508.552,-263.003"/>
</g>
<!-- Node12&#45;&gt;Node9 -->
<g id="edge46" class="edge"><title>Node12&#45;&gt;Node9</title>
<path fill="none" stroke="midnightblue" d="M678.11,-235.16C673.759,-233.997 669.27,-232.892 665,-232 552.423,-208.483 416.4,-193.763 355.8,-187.904"/>
<polygon fill="midnightblue" stroke="midnightblue" points="356.008,-184.408 345.722,-186.944 355.345,-191.376 356.008,-184.408"/>
</g>
<!-- Node12&#45;&gt;Node13 -->
<g id="edge32" class="edge"><title>Node12&#45;&gt;Node13</title>
<path fill="none" stroke="midnightblue" d="M679.962,-232.897C657.738,-223.556 624.491,-209.583 599.635,-199.136"/>
<polygon fill="midnightblue" stroke="midnightblue" points="600.8,-195.83 590.225,-195.182 598.088,-202.283 600.8,-195.83"/>
</g>
<!-- Node12&#45;&gt;Node14 -->
<g id="edge36" class="edge"><title>Node12&#45;&gt;Node14</title>
<path fill="none" stroke="midnightblue" d="M705.742,-232.897C707.045,-225.339 708.871,-214.748 710.475,-205.446"/>
<polygon fill="midnightblue" stroke="midnightblue" points="713.961,-205.827 712.211,-195.378 707.062,-204.638 713.961,-205.827"/>
</g>
<!-- Node16 -->
<g id="node38" class="node"><title>Node16</title>
<polygon fill="white" stroke="#bfbfbf" points="620.5,-175 620.5,-195 671.5,-195 671.5,-175 620.5,-175"/>
<text text-anchor="middle" x="646" y="-182" font-family="FreeSans" font-size="10.00">ostream</text>
</g>
<!-- Node12&#45;&gt;Node16 -->
<g id="edge44" class="edge"><title>Node12&#45;&gt;Node16</title>
<path fill="none" stroke="midnightblue" d="M693.897,-232.897C685.517,-224.517 673.409,-212.409 663.464,-202.464"/>
<polygon fill="midnightblue" stroke="midnightblue" points="665.924,-199.974 656.378,-195.378 660.974,-204.924 665.924,-199.974"/>
</g>
<!-- Node13&#45;&gt;Node2 -->
<g id="edge34" class="edge"><title>Node13&#45;&gt;Node2</title>
<path fill="none" stroke="midnightblue" d="M568.89,-174.573C572.199,-160.509 576.074,-135.033 567,-116 560.777,-102.948 548.963,-92.3464 537.613,-84.5376"/>
<polygon fill="midnightblue" stroke="midnightblue" points="539.436,-81.5489 529.124,-79.1164 535.668,-87.4485 539.436,-81.5489"/>
</g>
<!-- Node14&#45;&gt;Node4 -->
<g id="edge42" class="edge"><title>Node14&#45;&gt;Node4</title>
<path fill="none" stroke="midnightblue" d="M726.731,-174.975C736.55,-166.37 749.375,-153.006 755,-138 768.424,-102.192 760.93,-56.6843 754.683,-31.006"/>
<polygon fill="midnightblue" stroke="midnightblue" points="758.062,-30.0911 752.147,-21.3011 751.289,-31.8612 758.062,-30.0911"/>
</g>
<!-- Node15 -->
<g id="node34" class="node"><title>Node15</title>
<a xlink:href="atomicoperations_8h.html" target="_top" xlink:title="Simple thread safe ways to check and change a specified variable atomically.">
<polygon fill="white" stroke="black" points="460,-117 460,-137 558,-137 558,-117 460,-117"/>
<text text-anchor="middle" x="509" y="-124" font-family="FreeSans" font-size="10.00">atomicoperations.h</text>
</a>
</g>
<!-- Node14&#45;&gt;Node15 -->
<g id="edge38" class="edge"><title>Node14&#45;&gt;Node15</title>
<path fill="none" stroke="midnightblue" d="M688.788,-176.705C685.832,-175.773 682.853,-174.853 680,-174 638.789,-161.677 591.63,-148.806 557.289,-139.656"/>
<polygon fill="midnightblue" stroke="midnightblue" points="558.075,-136.243 547.512,-137.059 556.278,-143.009 558.075,-136.243"/>
</g>
<!-- Node15&#45;&gt;Node2 -->
<g id="edge40" class="edge"><title>Node15&#45;&gt;Node2</title>
<path fill="none" stroke="midnightblue" d="M509,-116.897C509,-109.339 509,-98.7476 509,-89.4458"/>
<polygon fill="midnightblue" stroke="midnightblue" points="512.5,-89.3776 509,-79.3776 505.5,-89.3776 512.5,-89.3776"/>
</g>
<!-- Node17&#45;&gt;Node2 -->
<g id="edge50" class="edge"><title>Node17&#45;&gt;Node2</title>
<path fill="none" stroke="midnightblue" d="M213.619,-232.893C227.65,-208.64 266.74,-146.87 317,-116 363.134,-87.6641 425.327,-76.4033 466.263,-71.9334"/>
<polygon fill="midnightblue" stroke="midnightblue" points="466.844,-75.3929 476.445,-70.9138 466.146,-68.4277 466.844,-75.3929"/>
</g>
<!-- Node18&#45;&gt;Node2 -->
<g id="edge58" class="edge"><title>Node18&#45;&gt;Node2</title>
<path fill="none" stroke="midnightblue" d="M299.129,-232.693C293.284,-218.765 285.291,-193.442 294,-174 309.827,-138.665 325.325,-135.107 359,-116 392.693,-96.8827 435.142,-84.5153 466.276,-77.2902"/>
<polygon fill="midnightblue" stroke="midnightblue" points="467.375,-80.6309 476.372,-75.0348 465.849,-73.7994 467.375,-80.6309"/>
</g>
<!-- Node18&#45;&gt;Node9 -->
<g id="edge56" class="edge"><title>Node18&#45;&gt;Node9</title>
<path fill="none" stroke="midnightblue" d="M307.484,-232.897C310.147,-225.175 313.901,-214.286 317.158,-204.841"/>
<polygon fill="midnightblue" stroke="midnightblue" points="320.47,-205.972 320.422,-195.378 313.853,-203.69 320.47,-205.972"/>
</g>
<!-- Node19&#45;&gt;Node2 -->
<g id="edge62" class="edge"><title>Node19&#45;&gt;Node2</title>
<path fill="none" stroke="midnightblue" d="M474.432,-174.791C460.726,-161.391 440.942,-137.097 451,-116 457.223,-102.948 469.037,-92.3464 480.387,-84.5376"/>
<polygon fill="midnightblue" stroke="midnightblue" points="482.332,-87.4485 488.876,-79.1164 478.564,-81.5489 482.332,-87.4485"/>
</g>
<!-- Node19&#45;&gt;Node15 -->
<g id="edge64" class="edge"><title>Node19&#45;&gt;Node15</title>
<path fill="none" stroke="midnightblue" d="M490.006,-174.897C493.069,-167.175 497.387,-156.286 501.132,-146.841"/>
<polygon fill="midnightblue" stroke="midnightblue" points="504.452,-147.964 504.885,-137.378 497.945,-145.383 504.452,-147.964"/>
</g>
<!-- Node23&#45;&gt;Node2 -->
<g id="edge78" class="edge"><title>Node23&#45;&gt;Node2</title>
<path fill="none" stroke="midnightblue" d="M654.343,-116.897C625.157,-107.279 581.066,-92.749 549.101,-82.2152"/>
<polygon fill="midnightblue" stroke="midnightblue" points="550.193,-78.89 539.6,-79.0842 548.002,-85.5383 550.193,-78.89"/>
</g>
</g>
</svg>
        <g id="navigator" transform="translate(0 0)" fill="#404254">
                <rect fill="#f2f5e9" fill-opacity="0.5" stroke="#606060" stroke-width=".5" x="0" y="0" width="60" height="60"/>
                <use id="zoomplus" xlink:href="#zoomPlus" x="17" y="9" onmousedown="handleZoom(evt,'in')"/>
                <use id="zoomminus" xlink:href="#zoomMin" x="42" y="9" onmousedown="handleZoom(evt,'out')"/>
                <use id="reset" xlink:href="#resetDef" x="30" y="36" onmousedown="handleReset()"/>
                <g id="arrowUp" xlink:href="#dirArrow" transform="translate(30 24)" onmousedown="handlePan(0,-1)">
                  <use xlink:href="#rim" fill="#404040">
                        <set attributeName="fill" to="#808080" begin="arrowUp.mouseover" end="arrowUp.mouseout"/>
                  </use>
                  <path fill="none" stroke="white" stroke-width="1.5" d="M0,-3.0v7 M-2.5,-0.5L0,-3.0L2.5,-0.5"/>
                </g>
                <g id="arrowRight" xlink:href="#dirArrow" transform="rotate(90) translate(36 -43)" onmousedown="handlePan(1,0)">
                  <use xlink:href="#rim" fill="#404040">
                        <set attributeName="fill" to="#808080" begin="arrowRight.mouseover" end="arrowRight.mouseout"/>
                  </use>
                  <path fill="none" stroke="white" stroke-width="1.5" d="M0,-3.0v7 M-2.5,-0.5L0,-3.0L2.5,-0.5"/>
                </g>
                <g id="arrowDown" xlink:href="#dirArrow" transform="rotate(180) translate(-30 -48)" onmousedown="handlePan(0,1)">
                  <use xlink:href="#rim" fill="#404040">
                        <set attributeName="fill" to="#808080" begin="arrowDown.mouseover" end="arrowDown.mouseout"/>
                  </use>
                  <path fill="none" stroke="white" stroke-width="1.5" d="M0,-3.0v7 M-2.5,-0.5L0,-3.0L2.5,-0.5"/>
                </g>
                <g id="arrowLeft" xlink:href="#dirArrow" transform="rotate(270) translate(-36 17)" onmousedown="handlePan(-1,0)">
                  <use xlink:href="#rim" fill="#404040">
                        <set attributeName="fill" to="#808080" begin="arrowLeft.mouseover" end="arrowLeft.mouseout"/>
                  </use>
                  <path fill="none" stroke="white" stroke-width="1.5" d="M0,-3.0v7 M-2.5,-0.5L0,-3.0L2.5,-0.5"/>
                </g>
        </g>
        <svg viewBox="0 0 15 15" width="100%" height="30px" preserveAspectRatio="xMaxYMin meet">
         <g id="arrow_out" transform="scale(0.3 0.3)">
          <a xlink:href="monopoly_8h__incl_org.svg" target="_base">
           <rect id="button" ry="5" rx="5" y="6" x="6" height="38" width="38"
                fill="#f2f5e9" fill-opacity="0.5" stroke="#606060" stroke-width="1.0"/>
           <path id="arrow"
             d="M 11.500037,31.436501 C 11.940474,20.09759 22.043105,11.32322 32.158766,21.979434 L 37.068811,17.246167 C 37.068811,17.246167 37.088388,32 37.088388,32 L 22.160133,31.978069 C 22.160133,31.978069 26.997745,27.140456 26.997745,27.140456 C 18.528582,18.264221 13.291696,25.230495 11.500037,31.436501 z"
             style="fill:#404040;"/>
          </a>
         </g>
        </svg>
</svg>
