<?xml version="1.0" encoding="UTF-8" standalone="no"?>
<!DOCTYPE svg PUBLIC "-//W3C//DTD SVG 1.1//EN"
 "http://www.w3.org/Graphics/SVG/1.1/DTD/svg11.dtd">
<!-- Generated by graphviz version 2.26.3 (20100126.1600)
 -->
<!-- Title: monopoly.h Pages: 1 -->
<svg width="893pt" height="436pt"
 viewBox="0.00 0.00 893.00 436.00" xmlns="http://www.w3.org/2000/svg" xmlns:xlink="http://www.w3.org/1999/xlink">
<g id="graph1" class="graph" transform="scale(1 1) rotate(0) translate(4 432)">
<title>monopoly.h</title>
<polygon fill="white" stroke="white" points="-4,5 -4,-432 890,-432 890,5 -4,5"/>
<!-- Node1 -->
<g id="node1" class="node"><title>Node1</title>
<polygon fill="#bfbfbf" stroke="black" points="752.5,-407 752.5,-427 817.5,-427 817.5,-407 752.5,-407"/>
<text text-anchor="middle" x="785" y="-414" font-family="FreeSans" font-size="10.00">monopoly.h</text>
</g>
<!-- Node2 -->
<g id="node3" class="node"><title>Node2</title>
<a xlink:href="datatypes_8h.html" target="_top" xlink:title="This file declares a few typedefs to allow flexibility, in case a change is required/desired.">
<polygon fill="white" stroke="black" points="413.5,-117 413.5,-137 478.5,-137 478.5,-117 413.5,-117"/>
<text text-anchor="middle" x="446" y="-124" font-family="FreeSans" font-size="10.00">datatypes.h</text>
</a>
</g>
<!-- Node1&#45;&gt;Node2 -->
<g id="edge2" class="edge"><title>Node1&#45;&gt;Node2</title>
<path fill="none" stroke="midnightblue" d="M803.342,-406.817C832.211,-389.282 885,-350.456 885,-301 885,-301 885,-301 885,-243 885,-208.203 876.769,-193.576 848,-174 818.713,-154.072 586.133,-136.376 488.701,-129.761"/>
<polygon fill="midnightblue" stroke="midnightblue" points="488.818,-126.261 478.605,-129.082 488.348,-133.245 488.818,-126.261"/>
</g>
<!-- Node10 -->
<g id="node19" class="node"><title>Node10</title>
<a xlink:href="doublebufferedresource_8h.html" target="_top" xlink:title="This file defines the template double buffered resources that can be attached to a thread...">
<polygon fill="white" stroke="black" points="696.5,-233 696.5,-253 819.5,-253 819.5,-233 696.5,-233"/>
<text text-anchor="middle" x="758" y="-240" font-family="FreeSans" font-size="10.00">doublebufferedresource.h</text>
</a>
</g>
<!-- Node1&#45;&gt;Node10 -->
<g id="edge18" class="edge"><title>Node1&#45;&gt;Node10</title>
<path fill="none" stroke="midnightblue" d="M783.543,-406.783C780.448,-385.197 772.934,-333.368 766,-290 764.582,-281.135 762.93,-271.344 761.496,-263.004"/>
<polygon fill="midnightblue" stroke="midnightblue" points="764.932,-262.331 759.775,-253.075 758.035,-263.526 764.932,-262.331"/>
</g>
<!-- Node14 -->
<g id="node28" class="node"><title>Node14</title>
<a xlink:href="workunit_8h.html" target="_top" xlink:title="This file has the definition of the workunit.">
<polygon fill="white" stroke="black" points="501,-349 501,-369 561,-369 561,-349 501,-349"/>
<text text-anchor="middle" x="531" y="-356" font-family="FreeSans" font-size="10.00">workunit.h</text>
</a>
</g>
<!-- Node1&#45;&gt;Node14 -->
<g id="edge28" class="edge"><title>Node1&#45;&gt;Node14</title>
<path fill="none" stroke="midnightblue" d="M752.314,-409.536C705.934,-398.946 621.108,-379.576 571.021,-368.139"/>
<polygon fill="midnightblue" stroke="midnightblue" points="571.716,-364.707 561.188,-365.893 570.157,-371.532 571.716,-364.707"/>
</g>
<!-- Node3 -->
<g id="node5" class="node"><title>Node3</title>
<a xlink:href="crossplatformexport_8h.html" target="_top" xlink:title="This file determines what features are offered by the compiler that this library can take advantage o...">
<polygon fill="white" stroke="black" points="125,-59 125,-79 233,-79 233,-59 125,-59"/>
<text text-anchor="middle" x="179" y="-66" font-family="FreeSans" font-size="10.00">crossplatformexport.h</text>
</a>
</g>
<!-- Node2&#45;&gt;Node3 -->
<g id="edge4" class="edge"><title>Node2&#45;&gt;Node3</title>
<path fill="none" stroke="midnightblue" d="M413.261,-119.888C369.043,-110.283 289.568,-93.0186 235.575,-81.2898"/>
<polygon fill="midnightblue" stroke="midnightblue" points="235.985,-77.7972 225.47,-79.0945 234.499,-84.6376 235.985,-77.7972"/>
</g>
<!-- Node8 -->
<g id="node15" class="node"><title>Node8</title>
<polygon fill="white" stroke="#bfbfbf" points="331,-59 331,-79 371,-79 371,-59 331,-59"/>
<text text-anchor="middle" x="351" y="-66" font-family="FreeSans" font-size="10.00">string</text>
</g>
<!-- Node2&#45;&gt;Node8 -->
<g id="edge14" class="edge"><title>Node2&#45;&gt;Node8</title>
<path fill="none" stroke="midnightblue" d="M429.452,-116.897C414.83,-107.97 393.276,-94.8106 376.459,-84.5431"/>
<polygon fill="midnightblue" stroke="midnightblue" points="378.036,-81.4053 367.677,-79.1817 374.388,-87.3798 378.036,-81.4053"/>
</g>
<!-- Node9 -->
<g id="node17" class="node"><title>Node9</title>
<polygon fill="white" stroke="#bfbfbf" points="422.5,-59 422.5,-79 469.5,-79 469.5,-59 422.5,-59"/>
<text text-anchor="middle" x="446" y="-66" font-family="FreeSans" font-size="10.00">stdint.h</text>
</g>
<!-- Node2&#45;&gt;Node9 -->
<g id="edge16" class="edge"><title>Node2&#45;&gt;Node9</title>
<path fill="none" stroke="midnightblue" d="M446,-116.897C446,-109.339 446,-98.7476 446,-89.4458"/>
<polygon fill="midnightblue" stroke="midnightblue" points="449.5,-89.3776 446,-79.3776 442.5,-89.3776 449.5,-89.3776"/>
</g>
<!-- Node4 -->
<g id="node7" class="node"><title>Node4</title>
<polygon fill="white" stroke="#bfbfbf" points="76,-1 76,-21 132,-21 132,-1 76,-1"/>
<text text-anchor="middle" x="104" y="-8" font-family="FreeSans" font-size="10.00">pthread.h</text>
</g>
<!-- Node3&#45;&gt;Node4 -->
<g id="edge6" class="edge"><title>Node3&#45;&gt;Node4</title>
<path fill="none" stroke="midnightblue" d="M165.936,-58.8972C154.713,-50.2178 138.317,-37.5384 125.214,-27.4053"/>
<polygon fill="midnightblue" stroke="midnightblue" points="127.218,-24.5305 117.166,-21.1817 122.935,-30.0679 127.218,-24.5305"/>
</g>
<!-- Node5 -->
<g id="node9" class="node"><title>Node5</title>
<polygon fill="white" stroke="#bfbfbf" points="151.5,-1 151.5,-21 200.5,-21 200.5,-1 151.5,-1"/>
<text text-anchor="middle" x="176" y="-8" font-family="FreeSans" font-size="10.00">signal.h</text>
</g>
<!-- Node3&#45;&gt;Node5 -->
<g id="edge8" class="edge"><title>Node3&#45;&gt;Node5</title>
<path fill="none" stroke="midnightblue" d="M178.477,-58.8972C178.087,-51.339 177.539,-40.7476 177.058,-31.4458"/>
<polygon fill="midnightblue" stroke="midnightblue" points="180.549,-31.1834 176.537,-21.3776 173.558,-31.5451 180.549,-31.1834"/>
</g>
<!-- Node6 -->
<g id="node11" class="node"><title>Node6</title>
<polygon fill="white" stroke="#bfbfbf" points="4,-1 4,-21 54,-21 54,-1 4,-1"/>
<text text-anchor="middle" x="29" y="-8" font-family="FreeSans" font-size="10.00">sched.h</text>
</g>
<!-- Node3&#45;&gt;Node6 -->
<g id="edge10" class="edge"><title>Node3&#45;&gt;Node6</title>
<path fill="none" stroke="midnightblue" d="M152.872,-58.8972C128.202,-49.3582 91.0372,-34.9877 63.8515,-24.4759"/>
<polygon fill="midnightblue" stroke="midnightblue" points="64.9181,-21.1359 54.3288,-20.7938 62.3936,-27.6648 64.9181,-21.1359"/>
</g>
<!-- Node7 -->
<g id="node13" class="node"><title>Node7</title>
<polygon fill="white" stroke="#bfbfbf" points="227,-1 227,-21 277,-21 277,-1 227,-1"/>
<text text-anchor="middle" x="252" y="-8" font-family="FreeSans" font-size="10.00">unistd.h</text>
</g>
<!-- Node3&#45;&gt;Node7 -->
<g id="edge12" class="edge"><title>Node3&#45;&gt;Node7</title>
<path fill="none" stroke="midnightblue" d="M191.716,-58.8972C202.469,-50.3532 218.102,-37.933 230.753,-27.8813"/>
<polygon fill="midnightblue" stroke="midnightblue" points="233.286,-30.3388 238.939,-21.3776 228.932,-24.858 233.286,-30.3388"/>
</g>
<!-- Node10&#45;&gt;Node2 -->
<g id="edge20" class="edge"><title>Node10&#45;&gt;Node2</title>
<path fill="none" stroke="midnightblue" d="M742.575,-232.967C719.266,-218.196 673.291,-190.561 631,-174 583.757,-155.5 526.851,-142.317 488.739,-134.709"/>
<polygon fill="midnightblue" stroke="midnightblue" points="488.997,-131.193 478.511,-132.711 487.654,-138.063 488.997,-131.193"/>
</g>
<!-- Node11 -->
<g id="node22" class="node"><title>Node11</title>
<polygon fill="white" stroke="#bfbfbf" points="763,-175 763,-195 819,-195 819,-175 763,-175"/>
<text text-anchor="middle" x="791" y="-182" font-family="FreeSans" font-size="10.00">algorithm</text>
</g>
<!-- Node10&#45;&gt;Node11 -->
<g id="edge22" class="edge"><title>Node10&#45;&gt;Node11</title>
<path fill="none" stroke="midnightblue" d="M763.748,-232.897C768.235,-225.01 774.602,-213.821 780.053,-204.24"/>
<polygon fill="midnightblue" stroke="midnightblue" points="783.192,-205.8 785.096,-195.378 777.108,-202.338 783.192,-205.8"/>
</g>
<!-- Node12 -->
<g id="node24" class="node"><title>Node12</title>
<polygon fill="white" stroke="#bfbfbf" points="695,-175 695,-195 745,-195 745,-175 695,-175"/>
<text text-anchor="middle" x="720" y="-182" font-family="FreeSans" font-size="10.00">sstream</text>
</g>
<!-- Node10&#45;&gt;Node12 -->
<g id="edge24" class="edge"><title>Node10&#45;&gt;Node12</title>
<path fill="none" stroke="midnightblue" d="M751.381,-232.897C746.16,-224.928 738.73,-213.587 732.41,-203.941"/>
<polygon fill="midnightblue" stroke="midnightblue" points="735.207,-201.824 726.799,-195.378 729.352,-205.66 735.207,-201.824"/>
</g>
<!-- Node13 -->
<g id="node26" class="node"><title>Node13</title>
<polygon fill="white" stroke="#bfbfbf" points="558.5,-175 558.5,-195 601.5,-195 601.5,-175 558.5,-175"/>
<text text-anchor="middle" x="580" y="-182" font-family="FreeSans" font-size="10.00">vector</text>
</g>
<!-- Node10&#45;&gt;Node13 -->
<g id="edge26" class="edge"><title>Node10&#45;&gt;Node13</title>
<path fill="none" stroke="midnightblue" d="M726.995,-232.897C694.638,-222.354 644.168,-205.909 611.594,-195.295"/>
<polygon fill="midnightblue" stroke="midnightblue" points="612.285,-191.839 601.693,-192.068 610.116,-198.494 612.285,-191.839"/>
</g>
<!-- Node14&#45;&gt;Node2 -->
<g id="edge30" class="edge"><title>Node14&#45;&gt;Node2</title>
<path fill="none" stroke="midnightblue" d="M530.609,-348.864C529.523,-327.003 525.589,-273.998 512,-232 503.066,-204.387 497.551,-198.504 482,-174 475.639,-163.977 467.69,-153.431 460.88,-144.874"/>
<polygon fill="midnightblue" stroke="midnightblue" points="463.57,-142.634 454.552,-137.073 458.134,-147.044 463.57,-142.634"/>
</g>
<!-- Node14&#45;&gt;Node13 -->
<g id="edge102" class="edge"><title>Node14&#45;&gt;Node13</title>
<path fill="none" stroke="midnightblue" d="M534.064,-348.932C536.942,-339.428 541.34,-324.768 545,-312 555.816,-274.273 567.859,-230.058 574.623,-205.006"/>
<polygon fill="midnightblue" stroke="midnightblue" points="578.036,-205.793 577.258,-195.226 571.277,-203.971 578.036,-205.793"/>
</g>
<!-- Node15 -->
<g id="node31" class="node"><title>Node15</title>
<a xlink:href="framescheduler_8h.html" target="_top" xlink:title="This file has the Declarations for the main FrameScheduler class.">
<polygon fill="white" stroke="black" points="311,-291 311,-311 401,-311 401,-291 311,-291"/>
<text text-anchor="middle" x="356" y="-298" font-family="FreeSans" font-size="10.00">framescheduler.h</text>
</a>
</g>
<!-- Node14&#45;&gt;Node15 -->
<g id="edge32" class="edge"><title>Node14&#45;&gt;Node15</title>
<path fill="none" stroke="midnightblue" d="M500.916,-349.029C471.993,-339.443 428.084,-324.891 396.179,-314.317"/>
<polygon fill="midnightblue" stroke="midnightblue" points="396.87,-310.858 386.277,-311.035 394.668,-317.503 396.87,-310.858"/>
</g>
<!-- Node16 -->
<g id="node35" class="node"><title>Node16</title>
<a xlink:href="thread_8h.html" target="_top" xlink:title="This file defines a minimalistic cross&#45;platform thread that the scheduler uses to schedule tasks...">
<polygon fill="white" stroke="black" points="52.5,-233 52.5,-253 103.5,-253 103.5,-233 52.5,-233"/>
<text text-anchor="middle" x="78" y="-240" font-family="FreeSans" font-size="10.00">thread.h</text>
</a>
</g>
<!-- Node14&#45;&gt;Node16 -->
<g id="edge98" class="edge"><title>Node14&#45;&gt;Node16</title>
<path fill="none" stroke="midnightblue" d="M500.973,-356.304C448.475,-351.094 336.936,-337.812 246,-312 195.755,-297.738 140.193,-273.043 107.232,-257.388"/>
<polygon fill="midnightblue" stroke="midnightblue" points="108.689,-254.205 98.1589,-253.035 105.661,-260.516 108.689,-254.205"/>
</g>
<!-- Node19 -->
<g id="node47" class="node"><title>Node19</title>
<a xlink:href="mutex_8h.html" target="_top" xlink:title="This file declares and defines a mutex that is a partial implementation.">
<polygon fill="white" stroke="black" points="0,-175 0,-195 50,-195 50,-175 0,-175"/>
<text text-anchor="middle" x="25" y="-182" font-family="FreeSans" font-size="10.00">mutex.h</text>
</a>
</g>
<!-- Node14&#45;&gt;Node19 -->
<g id="edge86" class="edge"><title>Node14&#45;&gt;Node19</title>
<path fill="none" stroke="midnightblue" d="M500.967,-357.664C439.763,-354.356 296.613,-343.622 181,-312 117.222,-294.556 87.5746,-303.731 44,-254 32.2549,-240.595 27.7066,-220.55 25.9775,-205.514"/>
<polygon fill="midnightblue" stroke="midnightblue" points="29.4363,-204.867 25.1324,-195.185 22.4597,-205.438 29.4363,-204.867"/>
</g>
<!-- Node21 -->
<g id="node54" class="node"><title>Node21</title>
<a xlink:href="workunitkey_8h.html" target="_top" xlink:title="This file defines the metadata used to sort workunits.">
<polygon fill="white" stroke="black" points="120.5,-233 120.5,-253 195.5,-253 195.5,-233 120.5,-233"/>
<text text-anchor="middle" x="158" y="-240" font-family="FreeSans" font-size="10.00">workunitkey.h</text>
</a>
</g>
<!-- Node14&#45;&gt;Node21 -->
<g id="edge100" class="edge"><title>Node14&#45;&gt;Node21</title>
<path fill="none" stroke="midnightblue" d="M500.742,-355.194C456.324,-349.071 371.238,-335.302 302,-312 259.274,-297.621 212.724,-273.668 184.448,-258.106"/>
<polygon fill="midnightblue" stroke="midnightblue" points="186.032,-254.981 175.592,-253.176 182.627,-261.098 186.032,-254.981"/>
</g>
<!-- Node27 -->
<g id="node71" class="node"><title>Node27</title>
<a xlink:href="rollingaverage_8h.html" target="_top" xlink:title="This stores the implementation and the declaration of the RollingAverage, BufferedRollingAverage, WeightedRollingAverage and the DefaultRollingAverage.">
<polygon fill="white" stroke="black" points="596.5,-233 596.5,-253 679.5,-253 679.5,-233 596.5,-233"/>
<text text-anchor="middle" x="638" y="-240" font-family="FreeSans" font-size="10.00">rollingaverage.h</text>
</a>
</g>
<!-- Node14&#45;&gt;Node27 -->
<g id="edge88" class="edge"><title>Node14&#45;&gt;Node27</title>
<path fill="none" stroke="midnightblue" d="M543.501,-348.705C554.375,-339.52 570.332,-325.478 583,-312 598.291,-295.73 613.999,-275.621 624.692,-261.317"/>
<polygon fill="midnightblue" stroke="midnightblue" points="627.526,-263.371 630.653,-253.248 621.896,-259.211 627.526,-263.371"/>
</g>
<!-- Node28 -->
<g id="node75" class="node"><title>Node28</title>
<a xlink:href="threadingenumerations_8h.html" target="_top" xlink:title="Any enumerations the threading library requires are all declared here.">
<polygon fill="white" stroke="black" points="635,-291 635,-311 757,-311 757,-291 635,-291"/>
<text text-anchor="middle" x="696" y="-298" font-family="FreeSans" font-size="10.00">threadingenumerations.h</text>
</a>
</g>
<!-- Node14&#45;&gt;Node28 -->
<g id="edge94" class="edge"><title>Node14&#45;&gt;Node28</title>
<path fill="none" stroke="midnightblue" d="M559.741,-348.897C586.867,-339.362 627.726,-324.999 657.628,-314.488"/>
<polygon fill="midnightblue" stroke="midnightblue" points="659.039,-317.702 667.312,-311.084 656.717,-311.099 659.039,-317.702"/>
</g>
<!-- Node15&#45;&gt;Node2 -->
<g id="edge34" class="edge"><title>Node15&#45;&gt;Node2</title>
<path fill="none" stroke="midnightblue" d="M310.798,-292.292C271.364,-282.421 223.18,-263.47 242,-232 251.691,-215.795 358.943,-165.991 413.916,-141.251"/>
<polygon fill="midnightblue" stroke="midnightblue" points="415.528,-144.364 423.22,-137.078 412.663,-137.977 415.528,-144.364"/>
</g>
<!-- Node15&#45;&gt;Node10 -->
<g id="edge36" class="edge"><title>Node15&#45;&gt;Node10</title>
<path fill="none" stroke="midnightblue" d="M401.14,-294.832C463.106,-286.315 578.274,-270.312 686.096,-254.271"/>
<polygon fill="midnightblue" stroke="midnightblue" points="686.797,-257.705 696.171,-252.768 685.765,-250.781 686.797,-257.705"/>
</g>
<!-- Node15&#45;&gt;Node16 -->
<g id="edge38" class="edge"><title>Node15&#45;&gt;Node16</title>
<path fill="none" stroke="midnightblue" d="M310.661,-293.977C263.505,-286.293 187.413,-272.833 113.466,-254.173"/>
<polygon fill="midnightblue" stroke="midnightblue" points="114.077,-250.716 103.521,-251.628 112.341,-257.498 114.077,-250.716"/>
</g>
<!-- Node18 -->
<g id="node44" class="node"><title>Node18</title>
<a xlink:href="systemcalls_8h.html" target="_top" xlink:title="This file defines a minimalistic cross&#45;platform thread that the scheduler uses to schedule tasks...">
<polygon fill="white" stroke="black" points="212,-175 212,-195 286,-195 286,-175 212,-175"/>
<text text-anchor="middle" x="249" y="-182" font-family="FreeSans" font-size="10.00">systemcalls.h</text>
</a>
</g>
<!-- Node15&#45;&gt;Node18 -->
<g id="edge70" class="edge"><title>Node15&#45;&gt;Node18</title>
<path fill="none" stroke="midnightblue" d="M372.493,-290.885C392.418,-277.385 421.46,-252.766 406,-232 392.737,-214.184 337.256,-200.618 295.986,-192.744"/>
<polygon fill="midnightblue" stroke="midnightblue" points="296.569,-189.293 286.099,-190.913 295.294,-196.176 296.569,-189.293"/>
</g>
<!-- Node15&#45;&gt;Node21 -->
<g id="edge66" class="edge"><title>Node15&#45;&gt;Node21</title>
<path fill="none" stroke="midnightblue" d="M321.511,-290.897C288.394,-281.196 238.218,-266.498 202.187,-255.944"/>
<polygon fill="midnightblue" stroke="midnightblue" points="203.006,-252.537 192.425,-253.084 201.038,-259.254 203.006,-252.537"/>
</g>
<!-- Node22 -->
<g id="node58" class="node"><title>Node22</title>
<a xlink:href="barrier_8h.html" target="_top" xlink:title="The declaration of the Mezzanine::Threading::Barrier Barrier synchronization primitive.">
<polygon fill="white" stroke="black" points="452.5,-233 452.5,-253 503.5,-253 503.5,-233 452.5,-233"/>
<text text-anchor="middle" x="478" y="-240" font-family="FreeSans" font-size="10.00">barrier.h</text>
</a>
</g>
<!-- Node15&#45;&gt;Node22 -->
<g id="edge72" class="edge"><title>Node15&#45;&gt;Node22</title>
<path fill="none" stroke="midnightblue" d="M377.251,-290.897C396.638,-281.68 425.512,-267.953 447.386,-257.554"/>
<polygon fill="midnightblue" stroke="midnightblue" points="449.055,-260.636 456.583,-253.182 446.049,-254.314 449.055,-260.636"/>
</g>
<!-- Node24 -->
<g id="node64" class="node"><title>Node24</title>
<polygon fill="white" stroke="#bfbfbf" points="362.5,-233 362.5,-253 397.5,-253 397.5,-233 362.5,-233"/>
<text text-anchor="middle" x="380" y="-240" font-family="FreeSans" font-size="10.00">map</text>
</g>
<!-- Node15&#45;&gt;Node24 -->
<g id="edge80" class="edge"><title>Node15&#45;&gt;Node24</title>
<path fill="none" stroke="midnightblue" d="M360.18,-290.897C363.376,-283.175 367.882,-272.286 371.79,-262.841"/>
<polygon fill="midnightblue" stroke="midnightblue" points="375.116,-263.956 375.706,-253.378 368.648,-261.28 375.116,-263.956"/>
</g>
<!-- Node25 -->
<g id="node66" class="node"><title>Node25</title>
<polygon fill="white" stroke="#bfbfbf" points="250.5,-233 250.5,-253 279.5,-253 279.5,-233 250.5,-233"/>
<text text-anchor="middle" x="265" y="-240" font-family="FreeSans" font-size="10.00">set</text>
</g>
<!-- Node15&#45;&gt;Node25 -->
<g id="edge82" class="edge"><title>Node15&#45;&gt;Node25</title>
<path fill="none" stroke="midnightblue" d="M340.149,-290.897C325.799,-281.751 304.479,-268.162 288.209,-257.793"/>
<polygon fill="midnightblue" stroke="midnightblue" points="290.08,-254.835 279.766,-252.411 286.318,-260.738 290.08,-254.835"/>
</g>
<!-- Node26 -->
<g id="node68" class="node"><title>Node26</title>
<polygon fill="white" stroke="#bfbfbf" points="296.5,-233 296.5,-253 345.5,-253 345.5,-233 296.5,-233"/>
<text text-anchor="middle" x="321" y="-240" font-family="FreeSans" font-size="10.00">fstream</text>
</g>
<!-- Node15&#45;&gt;Node26 -->
<g id="edge84" class="edge"><title>Node15&#45;&gt;Node26</title>
<path fill="none" stroke="midnightblue" d="M349.903,-290.897C345.095,-282.928 338.251,-271.587 332.43,-261.941"/>
<polygon fill="midnightblue" stroke="midnightblue" points="335.426,-260.131 327.262,-253.378 329.432,-263.748 335.426,-260.131"/>
</g>
<!-- Node16&#45;&gt;Node13 -->
<g id="edge64" class="edge"><title>Node16&#45;&gt;Node13</title>
<path fill="none" stroke="midnightblue" d="M103.835,-234.015C106.57,-233.252 109.328,-232.56 112,-232 122.722,-229.754 444.499,-198.23 548.159,-188.106"/>
<polygon fill="midnightblue" stroke="midnightblue" points="548.709,-191.569 558.321,-187.114 548.028,-184.602 548.709,-191.569"/>
</g>
<!-- Node17 -->
<g id="node37" class="node"><title>Node17</title>
<a xlink:href="crossplatformincludes_8h.html" target="_top" xlink:title="This file determines what features are offered by the compiler that this library can take advantage o...">
<polygon fill="white" stroke="black" points="19.5,-117 19.5,-137 136.5,-137 136.5,-117 19.5,-117"/>
<text text-anchor="middle" x="78" y="-124" font-family="FreeSans" font-size="10.00">crossplatformincludes.h</text>
</a>
</g>
<!-- Node16&#45;&gt;Node17 -->
<g id="edge40" class="edge"><title>Node16&#45;&gt;Node17</title>
<path fill="none" stroke="midnightblue" d="M78,-232.706C78,-213.568 78,-172.198 78,-147.265"/>
<polygon fill="midnightblue" stroke="midnightblue" points="81.5001,-147.105 78,-137.106 74.5001,-147.106 81.5001,-147.105"/>
</g>
<!-- Node16&#45;&gt;Node18 -->
<g id="edge52" class="edge"><title>Node16&#45;&gt;Node18</title>
<path fill="none" stroke="midnightblue" d="M103.6,-234.317C131.718,-224.78 177.203,-209.352 209.814,-198.291"/>
<polygon fill="midnightblue" stroke="midnightblue" points="211.142,-201.537 219.488,-195.01 208.893,-194.908 211.142,-201.537"/>
</g>
<!-- Node16&#45;&gt;Node19 -->
<g id="edge56" class="edge"><title>Node16&#45;&gt;Node19</title>
<path fill="none" stroke="midnightblue" d="M68.7681,-232.897C61.2609,-224.682 50.479,-212.883 41.4951,-203.051"/>
<polygon fill="midnightblue" stroke="midnightblue" points="43.8125,-200.399 34.483,-195.378 38.645,-205.121 43.8125,-200.399"/>
</g>
<!-- Node20 -->
<g id="node51" class="node"><title>Node20</title>
<polygon fill="white" stroke="#bfbfbf" points="105.5,-175 105.5,-195 156.5,-195 156.5,-175 105.5,-175"/>
<text text-anchor="middle" x="131" y="-182" font-family="FreeSans" font-size="10.00">ostream</text>
</g>
<!-- Node16&#45;&gt;Node20 -->
<g id="edge62" class="edge"><title>Node16&#45;&gt;Node20</title>
<path fill="none" stroke="midnightblue" d="M87.2319,-232.897C94.7391,-224.682 105.521,-212.883 114.505,-203.051"/>
<polygon fill="midnightblue" stroke="midnightblue" points="117.355,-205.121 121.517,-195.378 112.188,-200.399 117.355,-205.121"/>
</g>
<!-- Node17&#45;&gt;Node3 -->
<g id="edge42" class="edge"><title>Node17&#45;&gt;Node3</title>
<path fill="none" stroke="midnightblue" d="M95.5929,-116.897C111.283,-107.887 134.479,-94.5665 152.429,-84.2586"/>
<polygon fill="midnightblue" stroke="midnightblue" points="154.341,-87.1967 161.27,-79.1817 150.855,-81.1264 154.341,-87.1967"/>
</g>
<!-- Node17&#45;&gt;Node4 -->
<g id="edge44" class="edge"><title>Node17&#45;&gt;Node4</title>
<path fill="none" stroke="midnightblue" d="M77.6422,-116.535C77.4263,-102.86 77.9053,-78.2679 83,-58 85.3854,-48.5104 89.5714,-38.5412 93.5817,-30.2383"/>
<polygon fill="midnightblue" stroke="midnightblue" points="96.8265,-31.5796 98.2532,-21.0812 90.591,-28.3985 96.8265,-31.5796"/>
</g>
<!-- Node17&#45;&gt;Node5 -->
<g id="edge46" class="edge"><title>Node17&#45;&gt;Node5</title>
<path fill="none" stroke="midnightblue" d="M82.0408,-116.851C88.0174,-102.658 100.228,-76.542 116,-58 126.111,-46.1131 139.64,-35.2034 151.292,-26.8934"/>
<polygon fill="midnightblue" stroke="midnightblue" points="153.496,-29.6254 159.749,-21.0723 149.527,-23.8594 153.496,-29.6254"/>
</g>
<!-- Node17&#45;&gt;Node6 -->
<g id="edge48" class="edge"><title>Node17&#45;&gt;Node6</title>
<path fill="none" stroke="midnightblue" d="M73.6516,-116.706C65.4948,-97.3959 47.7766,-55.4506 37.2774,-30.5955"/>
<polygon fill="midnightblue" stroke="midnightblue" points="40.3841,-28.9555 33.2687,-21.1055 33.9358,-31.6793 40.3841,-28.9555"/>
</g>
<!-- Node17&#45;&gt;Node7 -->
<g id="edge50" class="edge"><title>Node17&#45;&gt;Node7</title>
<path fill="none" stroke="midnightblue" d="M136.651,-117.107C177.836,-108.926 227.974,-96.0632 242,-80 253.532,-66.7938 255.215,-46.443 254.504,-31.26"/>
<polygon fill="midnightblue" stroke="midnightblue" points="257.991,-30.9666 253.668,-21.2938 251.016,-31.5512 257.991,-30.9666"/>
</g>
<!-- Node18&#45;&gt;Node2 -->
<g id="edge54" class="edge"><title>Node18&#45;&gt;Node2</title>
<path fill="none" stroke="midnightblue" d="M283.315,-174.897C316.769,-165.048 367.718,-150.047 403.671,-139.462"/>
<polygon fill="midnightblue" stroke="midnightblue" points="404.782,-142.784 413.387,-136.602 402.805,-136.069 404.782,-142.784"/>
</g>
<!-- Node19&#45;&gt;Node8 -->
<g id="edge60" class="edge"><title>Node19&#45;&gt;Node8</title>
<path fill="none" stroke="midnightblue" d="M50.0394,-176.09C109.197,-155.04 257.407,-102.303 321.12,-79.6321"/>
<polygon fill="midnightblue" stroke="midnightblue" points="322.346,-82.911 330.594,-76.2611 319.999,-76.3161 322.346,-82.911"/>
</g>
<!-- Node19&#45;&gt;Node17 -->
<g id="edge58" class="edge"><title>Node19&#45;&gt;Node17</title>
<path fill="none" stroke="midnightblue" d="M34.2319,-174.897C41.7391,-166.682 52.521,-154.883 61.5049,-145.051"/>
<polygon fill="midnightblue" stroke="midnightblue" points="64.355,-147.121 68.517,-137.378 59.1875,-142.399 64.355,-147.121"/>
</g>
<!-- Node21&#45;&gt;Node2 -->
<g id="edge68" class="edge"><title>Node21&#45;&gt;Node2</title>
<path fill="none" stroke="midnightblue" d="M161.592,-232.93C167.619,-217.588 181.281,-188.604 203,-174 235.107,-152.411 342.288,-137.938 403.034,-131.253"/>
<polygon fill="midnightblue" stroke="midnightblue" points="403.519,-134.721 413.087,-130.171 402.77,-127.761 403.519,-134.721"/>
</g>
<!-- Node22&#45;&gt;Node2 -->
<g id="edge74" class="edge"><title>Node22&#45;&gt;Node2</title>
<path fill="none" stroke="midnightblue" d="M476.94,-232.542C475.384,-218.874 471.994,-194.29 466,-174 463.249,-164.689 459.193,-154.746 455.452,-146.414"/>
<polygon fill="midnightblue" stroke="midnightblue" points="458.553,-144.783 451.152,-137.201 452.21,-147.743 458.553,-144.783"/>
</g>
<!-- Node23 -->
<g id="node61" class="node"><title>Node23</title>
<a xlink:href="atomicoperations_8h.html" target="_top" xlink:title="Simple thread safe ways to check and change a specified variable atomically.">
<polygon fill="white" stroke="black" points="359,-175 359,-195 457,-195 457,-175 359,-175"/>
<text text-anchor="middle" x="408" y="-182" font-family="FreeSans" font-size="10.00">atomicoperations.h</text>
</a>
</g>
<!-- Node22&#45;&gt;Node23 -->
<g id="edge76" class="edge"><title>Node22&#45;&gt;Node23</title>
<path fill="none" stroke="midnightblue" d="M465.807,-232.897C455.495,-224.353 440.505,-211.933 428.374,-201.881"/>
<polygon fill="midnightblue" stroke="midnightblue" points="430.458,-199.063 420.525,-195.378 425.992,-204.453 430.458,-199.063"/>
</g>
<!-- Node23&#45;&gt;Node2 -->
<g id="edge78" class="edge"><title>Node23&#45;&gt;Node2</title>
<path fill="none" stroke="midnightblue" d="M414.619,-174.897C419.84,-166.928 427.27,-155.587 433.59,-145.941"/>
<polygon fill="midnightblue" stroke="midnightblue" points="436.648,-147.66 439.201,-137.378 430.793,-143.824 436.648,-147.66"/>
</g>
<!-- Node27&#45;&gt;Node2 -->
<g id="edge92" class="edge"><title>Node27&#45;&gt;Node2</title>
<path fill="none" stroke="midnightblue" d="M636.72,-232.98C634.268,-217.968 627.498,-189.729 610,-174 592.143,-157.949 531.124,-143.377 488.776,-134.849"/>
<polygon fill="midnightblue" stroke="midnightblue" points="489.205,-131.366 478.717,-132.865 487.851,-138.234 489.205,-131.366"/>
</g>
<!-- Node27&#45;&gt;Node13 -->
<g id="edge90" class="edge"><title>Node27&#45;&gt;Node13</title>
<path fill="none" stroke="midnightblue" d="M627.897,-232.897C619.517,-224.517 607.409,-212.409 597.464,-202.464"/>
<polygon fill="midnightblue" stroke="midnightblue" points="599.924,-199.974 590.378,-195.378 594.974,-204.924 599.924,-199.974"/>
</g>
<!-- Node28&#45;&gt;Node2 -->
<g id="edge96" class="edge"><title>Node28&#45;&gt;Node2</title>
<path fill="none" stroke="midnightblue" d="M740.428,-290.993C774.551,-282.301 817.553,-268.809 828,-254 848.496,-224.946 851.557,-200.632 828,-174 805.785,-148.884 583.558,-134.259 488.629,-129.114"/>
<polygon fill="midnightblue" stroke="midnightblue" points="488.679,-125.612 478.507,-128.576 488.307,-132.602 488.679,-125.612"/>
</g>
</g>
</svg>
