<?xml version="1.0" encoding="UTF-8" standalone="no"?>
<!DOCTYPE svg PUBLIC "-//W3C//DTD SVG 1.1//EN"
 "http://www.w3.org/Graphics/SVG/1.1/DTD/svg11.dtd">
<!-- Generated by graphviz version 2.26.3 (20100126.1600)
 -->
<!-- Title: mutex.h Pages: 1 -->
<svg width="296pt" height="204pt"
 viewBox="0.00 0.00 296.00 204.00" xmlns="http://www.w3.org/2000/svg" xmlns:xlink="http://www.w3.org/1999/xlink">
<g id="graph1" class="graph" transform="scale(1 1) rotate(0) translate(4 200)">
<title>mutex.h</title>
<polygon fill="white" stroke="white" points="-4,5 -4,-200 293,-200 293,5 -4,5"/>
<!-- Node1 -->
<g id="node1" class="node"><title>Node1</title>
<polygon fill="#bfbfbf" stroke="black" points="169,-175 169,-195 219,-195 219,-175 169,-175"/>
<text text-anchor="middle" x="194" y="-182" font-family="FreeSans" font-size="10.00">mutex.h</text>
</g>
<!-- Node2 -->
<g id="node3" class="node"><title>Node2</title>
<a xlink:href="crossplatformincludes_8h.html" target="_top" xlink:title="This file determines what features are offered by the compiler that this library can take advantage o...">
<polygon fill="white" stroke="black" points="87.5,-117 87.5,-137 204.5,-137 204.5,-117 87.5,-117"/>
<text text-anchor="middle" x="146" y="-124" font-family="FreeSans" font-size="10.00">crossplatformincludes.h</text>
</a>
</g>
<!-- Node1&#45;&gt;Node2 -->
<g id="edge2" class="edge"><title>Node1&#45;&gt;Node2</title>
<path fill="none" stroke="midnightblue" d="M185.639,-174.897C178.908,-166.764 169.27,-155.118 161.184,-145.347"/>
<polygon fill="midnightblue" stroke="midnightblue" points="163.66,-142.85 154.588,-137.378 158.268,-147.313 163.66,-142.85"/>
</g>
<!-- Node8 -->
<g id="node19" class="node"><title>Node8</title>
<polygon fill="white" stroke="#bfbfbf" points="222,-117 222,-137 262,-137 262,-117 222,-117"/>
<text text-anchor="middle" x="242" y="-124" font-family="FreeSans" font-size="10.00">string</text>
</g>
<!-- Node1&#45;&gt;Node8 -->
<g id="edge22" class="edge"><title>Node1&#45;&gt;Node8</title>
<path fill="none" stroke="midnightblue" d="M202.361,-174.897C209.092,-166.764 218.73,-155.118 226.816,-145.347"/>
<polygon fill="midnightblue" stroke="midnightblue" points="229.732,-147.313 233.412,-137.378 224.34,-142.85 229.732,-147.313"/>
</g>
<!-- Node3 -->
<g id="node5" class="node"><title>Node3</title>
<a xlink:href="crossplatformexport_8h.html" target="_top" xlink:title="This file determines what features are offered by the compiler that this library can take advantage o...">
<polygon fill="white" stroke="black" points="92,-59 92,-79 200,-79 200,-59 92,-59"/>
<text text-anchor="middle" x="146" y="-66" font-family="FreeSans" font-size="10.00">crossplatformexport.h</text>
</a>
</g>
<!-- Node2&#45;&gt;Node3 -->
<g id="edge4" class="edge"><title>Node2&#45;&gt;Node3</title>
<path fill="none" stroke="midnightblue" d="M146,-116.897C146,-109.339 146,-98.7476 146,-89.4458"/>
<polygon fill="midnightblue" stroke="midnightblue" points="149.5,-89.3776 146,-79.3776 142.5,-89.3776 149.5,-89.3776"/>
</g>
<!-- Node4 -->
<g id="node7" class="node"><title>Node4</title>
<polygon fill="white" stroke="#bfbfbf" points="0,-1 0,-21 56,-21 56,-1 0,-1"/>
<text text-anchor="middle" x="28" y="-8" font-family="FreeSans" font-size="10.00">pthread.h</text>
</g>
<!-- Node2&#45;&gt;Node4 -->
<g id="edge14" class="edge"><title>Node2&#45;&gt;Node4</title>
<path fill="none" stroke="midnightblue" d="M126.758,-116.995C111.582,-108.495 90.4668,-95.2636 75,-80 59.9363,-65.1342 46.7662,-44.779 38.2301,-30.0327"/>
<polygon fill="midnightblue" stroke="midnightblue" points="41.2591,-28.2782 33.3166,-21.2663 35.1528,-31.7008 41.2591,-28.2782"/>
</g>
<!-- Node5 -->
<g id="node9" class="node"><title>Node5</title>
<polygon fill="white" stroke="#bfbfbf" points="77.5,-1 77.5,-21 126.5,-21 126.5,-1 77.5,-1"/>
<text text-anchor="middle" x="102" y="-8" font-family="FreeSans" font-size="10.00">signal.h</text>
</g>
<!-- Node2&#45;&gt;Node5 -->
<g id="edge16" class="edge"><title>Node2&#45;&gt;Node5</title>
<path fill="none" stroke="midnightblue" d="M123.565,-116.977C109.09,-109.175 91.443,-96.8325 83,-80 75.0338,-64.1181 81.8958,-44.4494 89.5059,-30.1801"/>
<polygon fill="midnightblue" stroke="midnightblue" points="92.6867,-31.6745 94.7208,-21.2768 86.6466,-28.1366 92.6867,-31.6745"/>
</g>
<!-- Node6 -->
<g id="node11" class="node"><title>Node6</title>
<polygon fill="white" stroke="#bfbfbf" points="153,-1 153,-21 203,-21 203,-1 153,-1"/>
<text text-anchor="middle" x="178" y="-8" font-family="FreeSans" font-size="10.00">sched.h</text>
</g>
<!-- Node2&#45;&gt;Node6 -->
<g id="edge18" class="edge"><title>Node2&#45;&gt;Node6</title>
<path fill="none" stroke="midnightblue" d="M168.435,-116.977C182.91,-109.175 200.557,-96.8325 209,-80 217.484,-63.0853 206.596,-43.3515 195.456,-29.3311"/>
<polygon fill="midnightblue" stroke="midnightblue" points="197.828,-26.7217 188.658,-21.4161 192.518,-31.2826 197.828,-26.7217"/>
</g>
<!-- Node7 -->
<g id="node13" class="node"><title>Node7</title>
<polygon fill="white" stroke="#bfbfbf" points="238,-1 238,-21 288,-21 288,-1 238,-1"/>
<text text-anchor="middle" x="263" y="-8" font-family="FreeSans" font-size="10.00">unistd.h</text>
</g>
<!-- Node2&#45;&gt;Node7 -->
<g id="edge20" class="edge"><title>Node2&#45;&gt;Node7</title>
<path fill="none" stroke="midnightblue" d="M169.315,-116.915C186.061,-108.795 208.348,-96.0943 224,-80 237.875,-65.7334 248.52,-45.5645 255.156,-30.7154"/>
<polygon fill="midnightblue" stroke="midnightblue" points="258.415,-31.9958 259.1,-21.4231 251.971,-29.2606 258.415,-31.9958"/>
</g>
<!-- Node3&#45;&gt;Node4 -->
<g id="edge6" class="edge"><title>Node3&#45;&gt;Node4</title>
<path fill="none" stroke="midnightblue" d="M125.446,-58.8972C106.779,-49.7218 79.0172,-36.0762 57.8953,-25.6943"/>
<polygon fill="midnightblue" stroke="midnightblue" points="59.2328,-22.4518 48.7144,-21.1817 56.145,-28.734 59.2328,-22.4518"/>
</g>
<!-- Node3&#45;&gt;Node5 -->
<g id="edge8" class="edge"><title>Node3&#45;&gt;Node5</title>
<path fill="none" stroke="midnightblue" d="M138.336,-58.8972C132.166,-50.7639 123.331,-39.1183 115.918,-29.3468"/>
<polygon fill="midnightblue" stroke="midnightblue" points="118.705,-27.2292 109.873,-21.3776 113.128,-31.4599 118.705,-27.2292"/>
</g>
<!-- Node3&#45;&gt;Node6 -->
<g id="edge10" class="edge"><title>Node3&#45;&gt;Node6</title>
<path fill="none" stroke="midnightblue" d="M151.574,-58.8972C155.925,-51.0104 162.099,-39.8209 167.385,-30.2401"/>
<polygon fill="midnightblue" stroke="midnightblue" points="170.508,-31.8242 172.274,-21.3776 164.379,-28.4426 170.508,-31.8242"/>
</g>
<!-- Node3&#45;&gt;Node7 -->
<g id="edge12" class="edge"><title>Node3&#45;&gt;Node7</title>
<path fill="none" stroke="midnightblue" d="M166.38,-58.8972C184.889,-49.7218 212.415,-36.0762 233.358,-25.6943"/>
<polygon fill="midnightblue" stroke="midnightblue" points="235.056,-28.759 242.461,-21.1817 231.947,-22.4874 235.056,-28.759"/>
</g>
</g>
</svg>
