<?xml version="1.0" encoding="UTF-8" standalone="no"?>
<!DOCTYPE svg PUBLIC "-//W3C//DTD SVG 1.1//EN"
 "http://www.w3.org/Graphics/SVG/1.1/DTD/svg11.dtd">
<!-- Generated by graphviz version 2.26.3 (20100126.1600)
 -->
<!-- Title: G Pages: 1 -->
<!--zoomable 392 -->
<svg id="main" version="1.1" xmlns="http://www.w3.org/2000/svg" xmlns:xlink="http://www.w3.org/1999/xlink" xml:space="preserve" onload="init(evt)">
        <defs>
                <circle id="rim" cx="0" cy="0" r="7"/>
                <circle id="rim2" cx="0" cy="0" r="3.5"/>
                <g id="zoomPlus">
                        <use xlink:href="#rim" fill="#404040">
                                <set attributeName="fill" to="#808080" begin="zoomplus.mouseover" end="zoomplus.mouseout"/>
                        </use>
                        <path d="M-4,0h8M0,-4v8" fill="none" stroke="white" stroke-width="1.5" pointer-events="none"/>
                </g>
                <g id="zoomMin">
                        <use xlink:href="#rim" fill="#404040">
                                <set attributeName="fill" to="#808080" begin="zoomminus.mouseover" end="zoomminus.mouseout"/>
                        </use>
                        <path d="M-4,0h8" fill="none" stroke="white" stroke-width="1.5" pointer-events="none"/>
                </g>
                <g id="dirArrow">
                        <path fill="none" stroke="white" stroke-width="1.5" d="M0,-3.0v7 M-2.5,-0.5L0,-3.0L2.5,-0.5"/>
                </g>
               <g id="resetDef">
                       <use xlink:href="#rim2" fill="#404040">
                               <set attributeName="fill" to="#808080" begin="reset.mouseover" end="reset.mouseout"/>
                       </use>
               </g>
        </defs>

<script type="text/javascript">
var viewWidth = 1048;
var viewHeight = 392;
var sectionId = 'dynsection-1';
</script>
<script xlink:href="svgpan.js"/>
<svg id="graph" class="graph">
<g id="viewport">
<title>G</title>
<polygon fill="white" stroke="white" points="-4,5 -4,-388 1045,-388 1045,5 -4,5"/>
<!-- Node1 -->
<g id="node1" class="node"><title>Node1</title>
<polygon fill="#bfbfbf" stroke="black" points="808.5,-361 808.5,-383 859.5,-383 859.5,-361 808.5,-361"/>
<text text-anchor="middle" x="834" y="-370" font-family="FreeSans" font-size="10.00">mutex.h</text>
</g>
<!-- Node2 -->
<g id="node3" class="node"><title>Node2</title>
<a xlink:href="thread_8h.html" target="_top" xlink:title="This file defines a minimalistic cross&#45;platform thread that the scheduler uses to schedule tasks...">
<polygon fill="white" stroke="black" points="322.5,-301 322.5,-323 375.5,-323 375.5,-301 322.5,-301"/>
<text text-anchor="middle" x="349" y="-310" font-family="FreeSans" font-size="10.00">thread.h</text>
</a>
</g>
<!-- Node1&#45;&gt;Node2 -->
<g id="edge2" class="edge"><title>Node1&#45;&gt;Node2</title>
<path fill="none" stroke="midnightblue" d="M798.22,-367.574C705.193,-356.065 457.3,-325.398 375.558,-315.286"/>
<polygon fill="midnightblue" stroke="midnightblue" points="797.913,-371.062 808.267,-368.817 798.772,-364.115 797.913,-371.062"/>
</g>
<!-- Node4 -->
<g id="node7" class="node"><title>Node4</title>
<a xlink:href="workunit_8h.html" target="_top" xlink:title="This file has the definition of the workunit.">
<polygon fill="white" stroke="black" points="320.5,-181 320.5,-203 381.5,-203 381.5,-181 320.5,-181"/>
<text text-anchor="middle" x="351" y="-190" font-family="FreeSans" font-size="10.00">workunit.h</text>
</a>
</g>
<!-- Node1&#45;&gt;Node4 -->
<g id="edge54" class="edge"><title>Node1&#45;&gt;Node4</title>
<path fill="none" stroke="midnightblue" d="M798.782,-358.875C707.696,-324.93 465.552,-234.69 380.8,-203.105"/>
<polygon fill="midnightblue" stroke="midnightblue" points="797.78,-362.237 808.373,-362.45 800.225,-355.678 797.78,-362.237"/>
</g>
<!-- Node8 -->
<g id="node15" class="node"><title>Node8</title>
<a xlink:href="dagframescheduler_8h.html" target="_top" xlink:title="This is the file that code using this library should include. It includes all the required components...">
<polygon fill="white" stroke="black" points="295,-1 295,-23 407,-23 407,-1 295,-1"/>
<text text-anchor="middle" x="351" y="-10" font-family="FreeSans" font-size="10.00">dagframescheduler.h</text>
</a>
</g>
<!-- Node1&#45;&gt;Node8 -->
<g id="edge50" class="edge"><title>Node1&#45;&gt;Node8</title>
<path fill="none" stroke="midnightblue" d="M866.269,-356.144C900.594,-336.743 950,-300.41 950,-252 950,-252 950,-252 950,-132 950,-98.9046 956.362,-81.2619 931,-60 891.414,-26.814 544.96,-16.0178 407.168,-13.017"/>
<polygon fill="midnightblue" stroke="midnightblue" points="864.581,-353.078 857.474,-360.936 867.93,-359.224 864.581,-353.078"/>
</g>
<!-- Node17 -->
<g id="node43" class="node"><title>Node17</title>
<a xlink:href="mutex_8cpp.html" target="_top" xlink:title="Contains the implementation for the Mezzanine::Threading::Mutex Mutex synchronization object...">
<polygon fill="white" stroke="black" points="978,-301 978,-323 1040,-323 1040,-301 978,-301"/>
<text text-anchor="middle" x="1009" y="-310" font-family="FreeSans" font-size="10.00">mutex.cpp</text>
</a>
</g>
<!-- Node1&#45;&gt;Node17 -->
<g id="edge52" class="edge"><title>Node1&#45;&gt;Node17</title>
<path fill="none" stroke="midnightblue" d="M869.592,-359.797C901.346,-348.91 947.385,-333.125 977.745,-322.716"/>
<polygon fill="midnightblue" stroke="midnightblue" points="868.146,-356.593 859.822,-363.147 870.416,-363.214 868.146,-356.593"/>
</g>
<!-- Node3 -->
<g id="node5" class="node"><title>Node3</title>
<a xlink:href="framescheduler_8h.html" target="_top" xlink:title="This file has the Declarations for the main FrameScheduler class.">
<polygon fill="white" stroke="black" points="226,-241 226,-263 320,-263 320,-241 226,-241"/>
<text text-anchor="middle" x="273" y="-250" font-family="FreeSans" font-size="10.00">framescheduler.h</text>
</a>
</g>
<!-- Node2&#45;&gt;Node3 -->
<g id="edge4" class="edge"><title>Node2&#45;&gt;Node3</title>
<path fill="none" stroke="midnightblue" d="M327.116,-294.723C314.24,-284.558 298.334,-272.001 287.109,-263.138"/>
<polygon fill="midnightblue" stroke="midnightblue" points="325.043,-297.546 335.06,-300.995 329.38,-292.051 325.043,-297.546"/>
</g>
<!-- Node2&#45;&gt;Node4 -->
<g id="edge48" class="edge"><title>Node2&#45;&gt;Node4</title>
<path fill="none" stroke="midnightblue" d="M349.354,-290.749C349.782,-265.1 350.484,-222.941 350.816,-203.047"/>
<polygon fill="midnightblue" stroke="midnightblue" points="345.852,-290.869 349.185,-300.926 352.851,-290.986 345.852,-290.869"/>
</g>
<!-- Node2&#45;&gt;Node8 -->
<g id="edge44" class="edge"><title>Node2&#45;&gt;Node8</title>
<path fill="none" stroke="midnightblue" d="M312.504,-307.365C223.027,-294.988 0,-257.561 0,-192 0,-192 0,-192 0,-132 0,-95.1754 10.6779,-80.8954 41,-60 81.1916,-32.3034 217.084,-19.8597 294.954,-14.8878"/>
<polygon fill="midnightblue" stroke="midnightblue" points="312.102,-310.843 322.482,-308.718 313.043,-303.906 312.102,-310.843"/>
</g>
<!-- Node16 -->
<g id="node39" class="node"><title>Node16</title>
<a xlink:href="thread_8cpp.html" target="_top" xlink:title="This file implements a minimalistic cross&#45;platform thread that the scheduler uses to schedule tasks...">
<polygon fill="white" stroke="black" points="376.5,-241 376.5,-263 439.5,-263 439.5,-241 376.5,-241"/>
<text text-anchor="middle" x="408" y="-250" font-family="FreeSans" font-size="10.00">thread.cpp</text>
</a>
</g>
<!-- Node2&#45;&gt;Node16 -->
<g id="edge46" class="edge"><title>Node2&#45;&gt;Node16</title>
<path fill="none" stroke="midnightblue" d="M367.092,-293.602C376.803,-283.726 388.463,-271.868 396.846,-263.343"/>
<polygon fill="midnightblue" stroke="midnightblue" points="364.337,-291.411 359.822,-300.995 369.329,-296.319 364.337,-291.411"/>
</g>
<!-- Node3&#45;&gt;Node4 -->
<g id="edge6" class="edge"><title>Node3&#45;&gt;Node4</title>
<path fill="none" stroke="midnightblue" d="M295.46,-234.723C308.674,-224.558 324.999,-212.001 336.52,-203.138"/>
<polygon fill="midnightblue" stroke="midnightblue" points="293.099,-232.124 287.306,-240.995 297.367,-237.672 293.099,-232.124"/>
</g>
<!-- Node3&#45;&gt;Node8 -->
<g id="edge40" class="edge"><title>Node3&#45;&gt;Node8</title>
<path fill="none" stroke="midnightblue" d="M231.446,-237.26C152.379,-207.042 -6.41333,-134.606 57,-60 72.2189,-42.0949 214.017,-25.4195 294.991,-17.2527"/>
<polygon fill="midnightblue" stroke="midnightblue" points="230.538,-240.658 241.13,-240.903 233.002,-234.106 230.538,-240.658"/>
</g>
<!-- Node11 -->
<g id="node23" class="node"><title>Node11</title>
<a xlink:href="framescheduler_8cpp.html" target="_top" xlink:title="This is the core object implementation for this algorithm.">
<polygon fill="white" stroke="black" points="200,-61 200,-83 304,-83 304,-61 200,-61"/>
<text text-anchor="middle" x="252" y="-70" font-family="FreeSans" font-size="10.00">framescheduler.cpp</text>
</a>
</g>
<!-- Node3&#45;&gt;Node11 -->
<g id="edge42" class="edge"><title>Node3&#45;&gt;Node11</title>
<path fill="none" stroke="midnightblue" d="M270.509,-230.65C266.026,-192.221 256.745,-112.672 253.313,-83.2556"/>
<polygon fill="midnightblue" stroke="midnightblue" points="267.051,-231.213 271.686,-240.74 274.004,-230.402 267.051,-231.213"/>
</g>
<!-- Node5 -->
<g id="node9" class="node"><title>Node5</title>
<a xlink:href="asynchronousworkunit_8h.html" target="_top" xlink:title="Contains an interface for a kind of WorkUnit that loads or does other work even when the frame schedu...">
<polygon fill="white" stroke="black" points="632.5,-121 632.5,-143 755.5,-143 755.5,-121 632.5,-121"/>
<text text-anchor="middle" x="694" y="-130" font-family="FreeSans" font-size="10.00">asynchronousworkunit.h</text>
</a>
</g>
<!-- Node4&#45;&gt;Node5 -->
<g id="edge8" class="edge"><title>Node4&#45;&gt;Node5</title>
<path fill="none" stroke="midnightblue" d="M391.894,-184.846C451.47,-174.425 562.588,-154.987 632.185,-142.813"/>
<polygon fill="midnightblue" stroke="midnightblue" points="390.988,-181.452 381.741,-186.623 392.194,-188.347 390.988,-181.452"/>
</g>
<!-- Node4&#45;&gt;Node8 -->
<g id="edge36" class="edge"><title>Node4&#45;&gt;Node8</title>
<path fill="none" stroke="midnightblue" d="M350.465,-170.899C350.278,-162.525 350.092,-152.809 350,-144 349.535,-99.3136 350.358,-46.1157 350.777,-23.3008"/>
<polygon fill="midnightblue" stroke="midnightblue" points="346.967,-171.029 350.704,-180.943 353.966,-170.863 346.967,-171.029"/>
</g>
<!-- Node10 -->
<g id="node20" class="node"><title>Node10</title>
<a xlink:href="frameschedulerworkunits_8h.html" target="_top" xlink:title="This defines a number of workunits that are required for doing some tasks that the Framescheduler req...">
<polygon fill="white" stroke="black" points="447,-121 447,-143 583,-143 583,-121 447,-121"/>
<text text-anchor="middle" x="515" y="-130" font-family="FreeSans" font-size="10.00">frameschedulerworkunits.h</text>
</a>
</g>
<!-- Node4&#45;&gt;Node10 -->
<g id="edge20" class="edge"><title>Node4&#45;&gt;Node10</title>
<path fill="none" stroke="midnightblue" d="M390.507,-177.546C419.507,-166.937 458.304,-152.742 484.833,-143.037"/>
<polygon fill="midnightblue" stroke="midnightblue" points="389.269,-174.272 381.08,-180.995 391.674,-180.846 389.269,-174.272"/>
</g>
<!-- Node13 -->
<g id="node27" class="node"><title>Node13</title>
<a xlink:href="monopoly_8h.html" target="_top" xlink:title="Contains an interface for a kind of WorkUnit that consumes time on multiple thread.">
<polygon fill="white" stroke="black" points="148,-121 148,-143 216,-143 216,-121 148,-121"/>
<text text-anchor="middle" x="182" y="-130" font-family="FreeSans" font-size="10.00">monopoly.h</text>
</a>
</g>
<!-- Node4&#45;&gt;Node13 -->
<g id="edge28" class="edge"><title>Node4&#45;&gt;Node13</title>
<path fill="none" stroke="midnightblue" d="M310.691,-177.689C280.818,-167.083 240.692,-152.838 213.235,-143.089"/>
<polygon fill="midnightblue" stroke="midnightblue" points="309.801,-181.087 320.395,-181.134 312.143,-174.49 309.801,-181.087"/>
</g>
<!-- Node15 -->
<g id="node34" class="node"><title>Node15</title>
<a xlink:href="workunit_8cpp.html" target="_top" xlink:title="This file has the implementation of the Mezzanine::Threading::DefaultWorkUnit.">
<polygon fill="white" stroke="black" points="358.5,-121 358.5,-143 429.5,-143 429.5,-121 358.5,-121"/>
<text text-anchor="middle" x="394" y="-130" font-family="FreeSans" font-size="10.00">workunit.cpp</text>
</a>
</g>
<!-- Node4&#45;&gt;Node15 -->
<g id="edge38" class="edge"><title>Node4&#45;&gt;Node15</title>
<path fill="none" stroke="midnightblue" d="M364.82,-172.717C371.766,-163.025 379.943,-151.615 385.871,-143.343"/>
<polygon fill="midnightblue" stroke="midnightblue" points="361.867,-170.828 358.887,-180.995 367.557,-174.906 361.867,-170.828"/>
</g>
<!-- Node6 -->
<g id="node11" class="node"><title>Node6</title>
<a xlink:href="asynchronousfileloadingworkunit_8h.html" target="_top" xlink:title="The declaration of the AsynchronousFileLoadWorkUnit a workunit that loads a listing of files asynchro...">
<polygon fill="white" stroke="black" points="752,-61 752,-83 922,-83 922,-61 752,-61"/>
<text text-anchor="middle" x="837" y="-70" font-family="FreeSans" font-size="10.00">asynchronousfileloadingworkunit.h</text>
</a>
</g>
<!-- Node5&#45;&gt;Node6 -->
<g id="edge10" class="edge"><title>Node5&#45;&gt;Node6</title>
<path fill="none" stroke="midnightblue" d="M729.744,-117.003C754.791,-106.493 787.722,-92.676 810.454,-83.1383"/>
<polygon fill="midnightblue" stroke="midnightblue" points="728.095,-113.899 720.228,-120.995 730.804,-120.353 728.095,-113.899"/>
</g>
<!-- Node5&#45;&gt;Node8 -->
<g id="edge18" class="edge"><title>Node5&#45;&gt;Node8</title>
<path fill="none" stroke="midnightblue" d="M704.879,-111.702C711.757,-95.7812 717.263,-74.0377 705,-60 685.721,-37.9301 501.958,-22.285 407.09,-15.6074"/>
<polygon fill="midnightblue" stroke="midnightblue" points="701.713,-110.209 700.565,-120.742 708.031,-113.224 701.713,-110.209"/>
</g>
<!-- Node9 -->
<g id="node17" class="node"><title>Node9</title>
<a xlink:href="asynchronousworkunit_8cpp.html" target="_top" xlink:title="Contains very little actually.">
<polygon fill="white" stroke="black" points="562,-61 562,-83 696,-83 696,-61 562,-61"/>
<text text-anchor="middle" x="629" y="-70" font-family="FreeSans" font-size="10.00">asynchronousworkunit.cpp</text>
</a>
</g>
<!-- Node5&#45;&gt;Node9 -->
<g id="edge16" class="edge"><title>Node5&#45;&gt;Node9</title>
<path fill="none" stroke="midnightblue" d="M674.702,-114.186C663.88,-104.197 650.706,-92.0367 641.288,-83.3428"/>
<polygon fill="midnightblue" stroke="midnightblue" points="672.356,-116.784 682.078,-120.995 677.104,-111.64 672.356,-116.784"/>
</g>
<!-- Node7 -->
<g id="node13" class="node"><title>Node7</title>
<a xlink:href="asynchronousfileloadingworkunit_8cpp.html" target="_top" xlink:title="The implemtation of the AsynchronousFileLoadWorkUnit a workunit that loads a listing of files asynchr...">
<polygon fill="white" stroke="black" points="747,-1 747,-23 927,-23 927,-1 747,-1"/>
<text text-anchor="middle" x="837" y="-10" font-family="FreeSans" font-size="10.00">asynchronousfileloadingworkunit.cpp</text>
</a>
</g>
<!-- Node6&#45;&gt;Node7 -->
<g id="edge12" class="edge"><title>Node6&#45;&gt;Node7</title>
<path fill="none" stroke="midnightblue" d="M837,-50.9183C837,-41.6393 837,-31.1082 837,-23.3428"/>
<polygon fill="midnightblue" stroke="midnightblue" points="833.5,-50.995 837,-60.9951 840.5,-50.9951 833.5,-50.995"/>
</g>
<!-- Node6&#45;&gt;Node8 -->
<g id="edge14" class="edge"><title>Node6&#45;&gt;Node8</title>
<path fill="none" stroke="midnightblue" d="M741.72,-60.237C642.105,-47.9388 489.119,-29.0517 407.266,-18.9464"/>
<polygon fill="midnightblue" stroke="midnightblue" points="741.436,-63.7284 751.789,-61.4801 742.293,-56.7812 741.436,-63.7284"/>
</g>
<!-- Node10&#45;&gt;Node8 -->
<g id="edge22" class="edge"><title>Node10&#45;&gt;Node8</title>
<path fill="none" stroke="midnightblue" d="M452.425,-117.952C430.475,-110.643 406.864,-99.8132 389,-84 370.056,-67.2306 359.025,-38.7109 354.104,-23.0716"/>
<polygon fill="midnightblue" stroke="midnightblue" points="451.447,-121.313 462.037,-120.969 453.544,-114.634 451.447,-121.313"/>
</g>
<!-- Node10&#45;&gt;Node11 -->
<g id="edge24" class="edge"><title>Node10&#45;&gt;Node11</title>
<path fill="none" stroke="midnightblue" d="M456.734,-118.707C409.764,-107.992 344.493,-93.1011 300.377,-83.0366"/>
<polygon fill="midnightblue" stroke="midnightblue" points="456.234,-122.183 466.762,-120.995 457.791,-115.358 456.234,-122.183"/>
</g>
<!-- Node12 -->
<g id="node25" class="node"><title>Node12</title>
<a xlink:href="frameschedulerworkunits_8cpp.html" target="_top" xlink:title="The implementation of any workunits the framescheduler needs to work correctly.">
<polygon fill="white" stroke="black" points="398,-61 398,-83 544,-83 544,-61 398,-61"/>
<text text-anchor="middle" x="471" y="-70" font-family="FreeSans" font-size="10.00">frameschedulerworkunits.cpp</text>
</a>
</g>
<!-- Node10&#45;&gt;Node12 -->
<g id="edge26" class="edge"><title>Node10&#45;&gt;Node12</title>
<path fill="none" stroke="midnightblue" d="M500.859,-112.717C493.751,-103.025 485.384,-91.6147 479.318,-83.3428"/>
<polygon fill="midnightblue" stroke="midnightblue" points="498.194,-115.001 506.93,-120.995 503.838,-110.861 498.194,-115.001"/>
</g>
<!-- Node13&#45;&gt;Node8 -->
<g id="edge30" class="edge"><title>Node13&#45;&gt;Node8</title>
<path fill="none" stroke="midnightblue" d="M178.919,-110.417C177.92,-94.6787 179.35,-73.779 191,-60 204.622,-43.8884 254.444,-30.5856 294.918,-22.1034"/>
<polygon fill="midnightblue" stroke="midnightblue" points="175.48,-111.192 179.965,-120.79 182.444,-110.489 175.48,-111.192"/>
</g>
<!-- Node13&#45;&gt;Node11 -->
<g id="edge32" class="edge"><title>Node13&#45;&gt;Node11</title>
<path fill="none" stroke="midnightblue" d="M202.444,-114.476C214.161,-104.434 228.525,-92.1211 238.767,-83.3428"/>
<polygon fill="midnightblue" stroke="midnightblue" points="200.154,-111.83 194.839,-120.995 204.709,-117.145 200.154,-111.83"/>
</g>
<!-- Node14 -->
<g id="node31" class="node"><title>Node14</title>
<a xlink:href="monopoly_8cpp.html" target="_top" xlink:title="Contains the minimal implementation for the monopoly base class.">
<polygon fill="white" stroke="black" points="65.5,-61 65.5,-83 144.5,-83 144.5,-61 65.5,-61"/>
<text text-anchor="middle" x="105" y="-70" font-family="FreeSans" font-size="10.00">monopoly.cpp</text>
</a>
</g>
<!-- Node13&#45;&gt;Node14 -->
<g id="edge34" class="edge"><title>Node13&#45;&gt;Node14</title>
<path fill="none" stroke="midnightblue" d="M159.828,-114.723C146.783,-104.558 130.668,-92.0008 119.294,-83.1383"/>
<polygon fill="midnightblue" stroke="midnightblue" points="157.838,-117.609 167.877,-120.995 162.14,-112.088 157.838,-117.609"/>
</g>
</g>
</svg>
        <g id="navigator" transform="translate(0 0)" fill="#404254">
                <rect fill="#f2f5e9" fill-opacity="0.5" stroke="#606060" stroke-width=".5" x="0" y="0" width="60" height="60"/>
                <use id="zoomplus" xlink:href="#zoomPlus" x="17" y="9" onmousedown="handleZoom(evt,'in')"/>
                <use id="zoomminus" xlink:href="#zoomMin" x="42" y="9" onmousedown="handleZoom(evt,'out')"/>
                <use id="reset" xlink:href="#resetDef" x="30" y="36" onmousedown="handleReset()"/>
                <g id="arrowUp" xlink:href="#dirArrow" transform="translate(30 24)" onmousedown="handlePan(0,-1)">
                  <use xlink:href="#rim" fill="#404040">
                        <set attributeName="fill" to="#808080" begin="arrowUp.mouseover" end="arrowUp.mouseout"/>
                  </use>
                  <path fill="none" stroke="white" stroke-width="1.5" d="M0,-3.0v7 M-2.5,-0.5L0,-3.0L2.5,-0.5"/>
                </g>
                <g id="arrowRight" xlink:href="#dirArrow" transform="rotate(90) translate(36 -43)" onmousedown="handlePan(1,0)">
                  <use xlink:href="#rim" fill="#404040">
                        <set attributeName="fill" to="#808080" begin="arrowRight.mouseover" end="arrowRight.mouseout"/>
                  </use>
                  <path fill="none" stroke="white" stroke-width="1.5" d="M0,-3.0v7 M-2.5,-0.5L0,-3.0L2.5,-0.5"/>
                </g>
                <g id="arrowDown" xlink:href="#dirArrow" transform="rotate(180) translate(-30 -48)" onmousedown="handlePan(0,1)">
                  <use xlink:href="#rim" fill="#404040">
                        <set attributeName="fill" to="#808080" begin="arrowDown.mouseover" end="arrowDown.mouseout"/>
                  </use>
                  <path fill="none" stroke="white" stroke-width="1.5" d="M0,-3.0v7 M-2.5,-0.5L0,-3.0L2.5,-0.5"/>
                </g>
                <g id="arrowLeft" xlink:href="#dirArrow" transform="rotate(270) translate(-36 17)" onmousedown="handlePan(-1,0)">
                  <use xlink:href="#rim" fill="#404040">
                        <set attributeName="fill" to="#808080" begin="arrowLeft.mouseover" end="arrowLeft.mouseout"/>
                  </use>
                  <path fill="none" stroke="white" stroke-width="1.5" d="M0,-3.0v7 M-2.5,-0.5L0,-3.0L2.5,-0.5"/>
                </g>
        </g>
</svg>
