<?xml version="1.0" encoding="UTF-8" standalone="no"?>
<!DOCTYPE svg PUBLIC "-//W3C//DTD SVG 1.1//EN"
 "http://www.w3.org/Graphics/SVG/1.1/DTD/svg11.dtd">
<!-- Generated by graphviz version 2.26.3 (20100126.1600)
 -->
<!-- Title: mutex.h Pages: 1 -->
<svg width="242pt" height="204pt"
 viewBox="0.00 0.00 242.00 204.00" xmlns="http://www.w3.org/2000/svg" xmlns:xlink="http://www.w3.org/1999/xlink">
<g id="graph1" class="graph" transform="scale(1 1) rotate(0) translate(4 200)">
<title>mutex.h</title>
<polygon fill="white" stroke="white" points="-4,5 -4,-200 239,-200 239,5 -4,5"/>
<!-- Node1 -->
<g id="node1" class="node"><title>Node1</title>
<polygon fill="#bfbfbf" stroke="black" points="152,-175 152,-195 202,-195 202,-175 152,-175"/>
<text text-anchor="middle" x="177" y="-182" font-family="FreeSans" font-size="10.00">mutex.h</text>
</g>
<!-- Node2 -->
<g id="node3" class="node"><title>Node2</title>
<a xlink:href="atomicoperations_8h.html" target="_top" xlink:title="Simple thread safe ways to check and change a specified variable atomically.">
<polygon fill="white" stroke="black" points="90,-117 90,-137 188,-137 188,-117 90,-117"/>
<text text-anchor="middle" x="139" y="-124" font-family="FreeSans" font-size="10.00">atomicoperations.h</text>
</a>
</g>
<!-- Node1&#45;&gt;Node2 -->
<g id="edge2" class="edge"><title>Node1&#45;&gt;Node2</title>
<path fill="none" stroke="midnightblue" d="M170.381,-174.897C165.16,-166.928 157.73,-155.587 151.41,-145.941"/>
<polygon fill="midnightblue" stroke="midnightblue" points="154.207,-143.824 145.799,-137.378 148.352,-147.66 154.207,-143.824"/>
</g>
<!-- Node5 -->
<g id="node9" class="node"><title>Node5</title>
<polygon fill="white" stroke="#bfbfbf" points="194,-1 194,-21 234,-21 234,-1 194,-1"/>
<text text-anchor="middle" x="214" y="-8" font-family="FreeSans" font-size="10.00">string</text>
</g>
<!-- Node1&#45;&gt;Node5 -->
<g id="edge12" class="edge"><title>Node1&#45;&gt;Node5</title>
<path fill="none" stroke="midnightblue" d="M182.275,-174.834C186.884,-165.503 193.388,-151.17 197,-138 207.103,-101.165 211.301,-56.6092 212.97,-31.2604"/>
<polygon fill="midnightblue" stroke="midnightblue" points="216.477,-31.2506 213.572,-21.0619 209.489,-30.8386 216.477,-31.2506"/>
</g>
<!-- Node3 -->
<g id="node5" class="node"><title>Node3</title>
<a xlink:href="datatypes_8h.html" target="_top" xlink:title="This file declares a few typedefs to allow flexibility, in case a change is required/desired.">
<polygon fill="white" stroke="black" points="114.5,-59 114.5,-79 179.5,-79 179.5,-59 114.5,-59"/>
<text text-anchor="middle" x="147" y="-66" font-family="FreeSans" font-size="10.00">datatypes.h</text>
</a>
</g>
<!-- Node2&#45;&gt;Node3 -->
<g id="edge4" class="edge"><title>Node2&#45;&gt;Node3</title>
<path fill="none" stroke="midnightblue" d="M140.393,-116.897C141.436,-109.339 142.897,-98.7476 144.18,-89.4458"/>
<polygon fill="midnightblue" stroke="midnightblue" points="147.669,-89.7621 145.569,-79.3776 140.735,-88.8056 147.669,-89.7621"/>
</g>
<!-- Node4 -->
<g id="node7" class="node"><title>Node4</title>
<a xlink:href="crossplatformexport_8h.html" target="_top" xlink:title="This file determines what features are offered by the compiler that this library can take advantage o...">
<polygon fill="white" stroke="black" points="0,-1 0,-21 108,-21 108,-1 0,-1"/>
<text text-anchor="middle" x="54" y="-8" font-family="FreeSans" font-size="10.00">crossplatformexport.h</text>
</a>
</g>
<!-- Node3&#45;&gt;Node4 -->
<g id="edge6" class="edge"><title>Node3&#45;&gt;Node4</title>
<path fill="none" stroke="midnightblue" d="M130.801,-58.8972C116.486,-49.9698 95.3859,-36.8106 78.9225,-26.5431"/>
<polygon fill="midnightblue" stroke="midnightblue" points="80.663,-23.5037 70.3258,-21.1817 76.9587,-29.4433 80.663,-23.5037"/>
</g>
<!-- Node3&#45;&gt;Node5 -->
<g id="edge8" class="edge"><title>Node3&#45;&gt;Node5</title>
<path fill="none" stroke="midnightblue" d="M158.671,-58.8972C168.445,-50.4353 182.612,-38.1715 194.163,-28.1719"/>
<polygon fill="midnightblue" stroke="midnightblue" points="196.742,-30.5689 202.012,-21.3776 192.161,-25.2764 196.742,-30.5689"/>
</g>
<!-- Node6 -->
<g id="node11" class="node"><title>Node6</title>
<polygon fill="white" stroke="#bfbfbf" points="125.5,-1 125.5,-21 172.5,-21 172.5,-1 125.5,-1"/>
<text text-anchor="middle" x="149" y="-8" font-family="FreeSans" font-size="10.00">stdint.h</text>
</g>
<!-- Node3&#45;&gt;Node6 -->
<g id="edge10" class="edge"><title>Node3&#45;&gt;Node6</title>
<path fill="none" stroke="midnightblue" d="M147.348,-58.8972C147.609,-51.339 147.974,-40.7476 148.295,-31.4458"/>
<polygon fill="midnightblue" stroke="midnightblue" points="151.795,-31.4923 148.642,-21.3776 144.8,-31.251 151.795,-31.4923"/>
</g>
</g>
</svg>
