<?xml version="1.0" encoding="UTF-8" standalone="no"?>
<!DOCTYPE svg PUBLIC "-//W3C//DTD SVG 1.1//EN"
 "http://www.w3.org/Graphics/SVG/1.1/DTD/svg11.dtd">
<!-- Generated by graphviz version 2.26.3 (20100126.1600)
 -->
<!-- Title: mutex.h Pages: 1 -->
<!--zoomable 378 -->
<svg id="main" version="1.1" xmlns="http://www.w3.org/2000/svg" xmlns:xlink="http://www.w3.org/1999/xlink" xml:space="preserve" onload="init(evt)">
        <defs>
                <circle id="rim" cx="0" cy="0" r="7"/>
                <circle id="rim2" cx="0" cy="0" r="3.5"/>
                <g id="zoomPlus">
                        <use xlink:href="#rim" fill="#404040">
                                <set attributeName="fill" to="#808080" begin="zoomplus.mouseover" end="zoomplus.mouseout"/>
                        </use>
                        <path d="M-4,0h8M0,-4v8" fill="none" stroke="white" stroke-width="1.5" pointer-events="none"/>
                </g>
                <g id="zoomMin">
                        <use xlink:href="#rim" fill="#404040">
                                <set attributeName="fill" to="#808080" begin="zoomminus.mouseover" end="zoomminus.mouseout"/>
                        </use>
                        <path d="M-4,0h8" fill="none" stroke="white" stroke-width="1.5" pointer-events="none"/>
                </g>
                <g id="dirArrow">
                        <path fill="none" stroke="white" stroke-width="1.5" d="M0,-3.0v7 M-2.5,-0.5L0,-3.0L2.5,-0.5"/>
                </g>
               <g id="resetDef">
                       <use xlink:href="#rim2" fill="#404040">
                               <set attributeName="fill" to="#808080" begin="reset.mouseover" end="reset.mouseout"/>
                       </use>
               </g>
        </defs>

<script type="text/javascript">
var viewWidth = 1018;
var viewHeight = 378;
var sectionId = 'dynsection-1';
</script>
<script xlink:href="svgpan.js"/>
<svg id="graph" class="graph">
<g id="viewport">
<title>mutex.h</title>
<polygon fill="white" stroke="white" points="-4,5 -4,-374 1015,-374 1015,5 -4,5"/>
<!-- Node1 -->
<g id="node1" class="node"><title>Node1</title>
<polygon fill="#bfbfbf" stroke="black" points="786,-349 786,-369 836,-369 836,-349 786,-349"/>
<text text-anchor="middle" x="811" y="-356" font-family="FreeSans" font-size="10.00">mutex.h</text>
</g>
<!-- Node2 -->
<g id="node3" class="node"><title>Node2</title>
<a xlink:href="thread_8h.html" target="_top" xlink:title="This file defines a minimalistic cross&#45;platform thread that the scheduler uses to schedule tasks...">
<polygon fill="white" stroke="black" points="316.5,-291 316.5,-311 367.5,-311 367.5,-291 316.5,-291"/>
<text text-anchor="middle" x="342" y="-298" font-family="FreeSans" font-size="10.00">thread.h</text>
</a>
</g>
<!-- Node1&#45;&gt;Node2 -->
<g id="edge2" class="edge"><title>Node1&#45;&gt;Node2</title>
<path fill="none" stroke="midnightblue" d="M775.755,-354.641C685.281,-343.453 446.428,-313.914 367.627,-304.169"/>
<polygon fill="midnightblue" stroke="midnightblue" points="775.431,-358.128 785.785,-355.882 776.29,-351.181 775.431,-358.128"/>
</g>
<!-- Node4 -->
<g id="node7" class="node"><title>Node4</title>
<a xlink:href="workunit_8h.html" target="_top" xlink:title="This file has the definition of the workunit.">
<polygon fill="white" stroke="black" points="314,-175 314,-195 374,-195 374,-175 314,-175"/>
<text text-anchor="middle" x="344" y="-182" font-family="FreeSans" font-size="10.00">workunit.h</text>
</a>
</g>
<!-- Node1&#45;&gt;Node4 -->
<g id="edge54" class="edge"><title>Node1&#45;&gt;Node4</title>
<path fill="none" stroke="midnightblue" d="M776.511,-346.15C687.432,-312.96 451.05,-224.886 370.966,-195.047"/>
<polygon fill="midnightblue" stroke="midnightblue" points="775.299,-349.433 785.892,-349.645 777.743,-342.874 775.299,-349.433"/>
</g>
<!-- Node8 -->
<g id="node15" class="node"><title>Node8</title>
<a xlink:href="dagframescheduler_8h.html" target="_top" xlink:title="This is the file that code using this library should include. It includes all the required components...">
<polygon fill="white" stroke="black" points="292,-1 292,-21 398,-21 398,-1 292,-1"/>
<text text-anchor="middle" x="345" y="-8" font-family="FreeSans" font-size="10.00">dagframescheduler.h</text>
</a>
</g>
<!-- Node1&#45;&gt;Node8 -->
<g id="edge50" class="edge"><title>Node1&#45;&gt;Node8</title>
<path fill="none" stroke="midnightblue" d="M840.954,-344.118C873.829,-325.422 922,-290.007 922,-243 922,-243 922,-243 922,-127 922,-95.1919 927.47,-78.322 903,-58 864.671,-26.1675 529.91,-15.178 398.05,-12.0627"/>
<polygon fill="midnightblue" stroke="midnightblue" points="839.23,-341.071 832.14,-348.943 842.592,-347.211 839.23,-341.071"/>
</g>
<!-- Node17 -->
<g id="node43" class="node"><title>Node17</title>
<a xlink:href="mutex_8cpp.html" target="_top" xlink:title="Contains the implementation for the Mezzanine::Threading::Mutex Mutex synchronization object...">
<polygon fill="white" stroke="black" points="949.5,-291 949.5,-311 1010.5,-311 1010.5,-291 949.5,-291"/>
<text text-anchor="middle" x="980" y="-298" font-family="FreeSans" font-size="10.00">mutex.cpp</text>
</a>
</g>
<!-- Node1&#45;&gt;Node17 -->
<g id="edge52" class="edge"><title>Node1&#45;&gt;Node17</title>
<path fill="none" stroke="midnightblue" d="M845.845,-347.041C876.851,-336.4 921.682,-321.015 950.833,-311.01"/>
<polygon fill="midnightblue" stroke="midnightblue" points="844.623,-343.76 836.301,-350.317 846.896,-350.381 844.623,-343.76"/>
</g>
<!-- Node3 -->
<g id="node5" class="node"><title>Node3</title>
<a xlink:href="framescheduler_8h.html" target="_top" xlink:title="This file has the Declarations for the main FrameScheduler class.">
<polygon fill="white" stroke="black" points="223,-233 223,-253 313,-253 313,-233 223,-233"/>
<text text-anchor="middle" x="268" y="-240" font-family="FreeSans" font-size="10.00">framescheduler.h</text>
</a>
</g>
<!-- Node2&#45;&gt;Node3 -->
<g id="edge4" class="edge"><title>Node2&#45;&gt;Node3</title>
<path fill="none" stroke="midnightblue" d="M321.238,-284.727C308.418,-274.679 292.352,-262.087 281.24,-253.378"/>
<polygon fill="midnightblue" stroke="midnightblue" points="319.081,-287.483 329.11,-290.897 323.399,-281.974 319.081,-287.483"/>
</g>
<!-- Node2&#45;&gt;Node4 -->
<g id="edge48" class="edge"><title>Node2&#45;&gt;Node4</title>
<path fill="none" stroke="midnightblue" d="M342.354,-280.487C342.785,-255.447 343.498,-214.096 343.826,-195.106"/>
<polygon fill="midnightblue" stroke="midnightblue" points="338.85,-280.647 342.177,-290.706 345.849,-280.768 338.85,-280.647"/>
</g>
<!-- Node2&#45;&gt;Node8 -->
<g id="edge44" class="edge"><title>Node2&#45;&gt;Node8</title>
<path fill="none" stroke="midnightblue" d="M306.278,-296.62C218.623,-284.879 0,-249.164 0,-185 0,-185 0,-185 0,-127 0,-91.0989 12.1473,-77.9426 42,-58 81.949,-31.3127 216.196,-18.8933 291.905,-13.8891"/>
<polygon fill="midnightblue" stroke="midnightblue" points="305.924,-300.103 316.294,-297.933 306.834,-293.163 305.924,-300.103"/>
</g>
<!-- Node16 -->
<g id="node39" class="node"><title>Node16</title>
<a xlink:href="thread_8cpp.html" target="_top" xlink:title="This file implements a minimalistic cross&#45;platform thread that the scheduler uses to schedule tasks...">
<polygon fill="white" stroke="black" points="370,-233 370,-253 432,-253 432,-233 370,-233"/>
<text text-anchor="middle" x="401" y="-240" font-family="FreeSans" font-size="10.00">thread.cpp</text>
</a>
</g>
<!-- Node2&#45;&gt;Node16 -->
<g id="edge46" class="edge"><title>Node2&#45;&gt;Node16</title>
<path fill="none" stroke="midnightblue" d="M359.436,-283.86C369.504,-273.962 381.838,-261.838 390.443,-253.378"/>
<polygon fill="midnightblue" stroke="midnightblue" points="356.955,-281.391 352.277,-290.897 361.862,-286.383 356.955,-281.391"/>
</g>
<!-- Node3&#45;&gt;Node4 -->
<g id="edge6" class="edge"><title>Node3&#45;&gt;Node4</title>
<path fill="none" stroke="midnightblue" d="M289.376,-226.687C302.634,-216.569 319.254,-203.885 330.659,-195.182"/>
<polygon fill="midnightblue" stroke="midnightblue" points="287.064,-224.048 281.238,-232.897 291.311,-229.613 287.064,-224.048"/>
</g>
<!-- Node3&#45;&gt;Node8 -->
<g id="edge40" class="edge"><title>Node3&#45;&gt;Node8</title>
<path fill="none" stroke="midnightblue" d="M228.694,-229.35C152.001,-200.684 -4.90436,-130.826 57,-58 72.0113,-40.3404 212.73,-23.9114 291.762,-15.9778"/>
<polygon fill="midnightblue" stroke="midnightblue" points="227.919,-232.794 238.512,-232.959 230.334,-226.224 227.919,-232.794"/>
</g>
<!-- Node11 -->
<g id="node23" class="node"><title>Node11</title>
<a xlink:href="framescheduler_8cpp.html" target="_top" xlink:title="This is the core object implementation for this algorithm.">
<polygon fill="white" stroke="black" points="197.5,-59 197.5,-79 298.5,-79 298.5,-59 197.5,-59"/>
<text text-anchor="middle" x="248" y="-66" font-family="FreeSans" font-size="10.00">framescheduler.cpp</text>
</a>
</g>
<!-- Node3&#45;&gt;Node11 -->
<g id="edge42" class="edge"><title>Node3&#45;&gt;Node11</title>
<path fill="none" stroke="midnightblue" d="M265.669,-222.724C261.378,-185.389 252.372,-107.039 249.165,-79.135"/>
<polygon fill="midnightblue" stroke="midnightblue" points="262.219,-223.358 266.838,-232.893 269.173,-222.559 262.219,-223.358"/>
</g>
<!-- Node5 -->
<g id="node9" class="node"><title>Node5</title>
<a xlink:href="asynchronousworkunit_8h.html" target="_top" xlink:title="Contains an interface for a kind of WorkUnit that loads or does other work even when the frame schedu...">
<polygon fill="white" stroke="black" points="618.5,-117 618.5,-137 737.5,-137 737.5,-117 618.5,-117"/>
<text text-anchor="middle" x="678" y="-124" font-family="FreeSans" font-size="10.00">asynchronousworkunit.h</text>
</a>
</g>
<!-- Node4&#45;&gt;Node5 -->
<g id="edge8" class="edge"><title>Node4&#45;&gt;Node5</title>
<path fill="none" stroke="midnightblue" d="M384.247,-178.011C443.03,-167.803 552.688,-148.761 620.122,-137.051"/>
<polygon fill="midnightblue" stroke="midnightblue" points="383.483,-174.591 374.229,-179.751 384.681,-181.488 383.483,-174.591"/>
</g>
<!-- Node4&#45;&gt;Node8 -->
<g id="edge36" class="edge"><title>Node4&#45;&gt;Node8</title>
<path fill="none" stroke="midnightblue" d="M343.949,-164.45C343.927,-150.73 343.922,-132.284 344,-116 344.166,-81.1811 344.641,-39.8697 344.871,-21.1359"/>
<polygon fill="midnightblue" stroke="midnightblue" points="340.449,-164.72 343.969,-174.713 347.449,-164.706 340.449,-164.72"/>
</g>
<!-- Node10 -->
<g id="node20" class="node"><title>Node10</title>
<a xlink:href="frameschedulerworkunits_8h.html" target="_top" xlink:title="This defines a number of workunits that are required for doing some tasks that the Framescheduler req...">
<polygon fill="white" stroke="black" points="440.5,-117 440.5,-137 571.5,-137 571.5,-117 440.5,-117"/>
<text text-anchor="middle" x="506" y="-124" font-family="FreeSans" font-size="10.00">frameschedulerworkunits.h</text>
</a>
</g>
<!-- Node4&#45;&gt;Node10 -->
<g id="edge20" class="edge"><title>Node4&#45;&gt;Node10</title>
<path fill="none" stroke="midnightblue" d="M381.732,-171.491C411.104,-160.975 451.219,-146.613 477.834,-137.084"/>
<polygon fill="midnightblue" stroke="midnightblue" points="380.453,-168.231 372.218,-174.897 382.813,-174.822 380.453,-168.231"/>
</g>
<!-- Node13 -->
<g id="node27" class="node"><title>Node13</title>
<a xlink:href="monopoly_8h.html" target="_top" xlink:title="Contains an interface for a kind of WorkUnit that consumes time on multiple thread.">
<polygon fill="white" stroke="black" points="147.5,-117 147.5,-137 212.5,-137 212.5,-117 147.5,-117"/>
<text text-anchor="middle" x="180" y="-124" font-family="FreeSans" font-size="10.00">monopoly.h</text>
</a>
</g>
<!-- Node4&#45;&gt;Node13 -->
<g id="edge28" class="edge"><title>Node4&#45;&gt;Node13</title>
<path fill="none" stroke="midnightblue" d="M305.802,-171.491C276.068,-160.975 235.458,-146.613 208.514,-137.084"/>
<polygon fill="midnightblue" stroke="midnightblue" points="304.839,-174.863 315.433,-174.897 307.173,-168.263 304.839,-174.863"/>
</g>
<!-- Node15 -->
<g id="node34" class="node"><title>Node15</title>
<a xlink:href="workunit_8cpp.html" target="_top" xlink:title="This file has the implementation of the Mezzanine::Threading::DefaultWorkUnit.">
<polygon fill="white" stroke="black" points="352.5,-117 352.5,-137 423.5,-137 423.5,-117 352.5,-117"/>
<text text-anchor="middle" x="388" y="-124" font-family="FreeSans" font-size="10.00">workunit.cpp</text>
</a>
</g>
<!-- Node4&#45;&gt;Node15 -->
<g id="edge38" class="edge"><title>Node4&#45;&gt;Node15</title>
<path fill="none" stroke="midnightblue" d="M357.894,-166.686C365.229,-157.017 373.961,-145.506 380.127,-137.378"/>
<polygon fill="midnightblue" stroke="midnightblue" points="354.92,-164.815 351.664,-174.897 360.497,-169.046 354.92,-164.815"/>
</g>
<!-- Node6 -->
<g id="node11" class="node"><title>Node6</title>
<a xlink:href="asynchronousfileloadingworkunit_8h.html" target="_top" xlink:title="The declaration of the AsynchronousFileLoadWorkUnit a workunit that loads a listing of files asynchro...">
<polygon fill="white" stroke="black" points="733.5,-59 733.5,-79 894.5,-79 894.5,-59 733.5,-59"/>
<text text-anchor="middle" x="814" y="-66" font-family="FreeSans" font-size="10.00">asynchronousfileloadingworkunit.h</text>
</a>
</g>
<!-- Node5&#45;&gt;Node6 -->
<g id="edge10" class="edge"><title>Node5&#45;&gt;Node6</title>
<path fill="none" stroke="midnightblue" d="M710.941,-112.952C735.39,-102.525 768.163,-88.5483 790.126,-79.1817"/>
<polygon fill="midnightblue" stroke="midnightblue" points="709.515,-109.755 701.689,-116.897 712.261,-116.194 709.515,-109.755"/>
</g>
<!-- Node5&#45;&gt;Node8 -->
<g id="edge18" class="edge"><title>Node5&#45;&gt;Node8</title>
<path fill="none" stroke="midnightblue" d="M687.946,-107.171C694.019,-91.9374 698.612,-71.3164 687,-58 668.315,-36.5716 489.436,-21.0876 398.104,-14.5086"/>
<polygon fill="midnightblue" stroke="midnightblue" points="684.572,-106.143 683.687,-116.7 690.963,-108.999 684.572,-106.143"/>
</g>
<!-- Node9 -->
<g id="node17" class="node"><title>Node9</title>
<a xlink:href="asynchronousworkunit_8cpp.html" target="_top" xlink:title="Contains very little actually.">
<polygon fill="white" stroke="black" points="549.5,-59 549.5,-79 678.5,-79 678.5,-59 549.5,-59"/>
<text text-anchor="middle" x="614" y="-66" font-family="FreeSans" font-size="10.00">asynchronousworkunit.cpp</text>
</a>
</g>
<!-- Node5&#45;&gt;Node9 -->
<g id="edge16" class="edge"><title>Node5&#45;&gt;Node9</title>
<path fill="none" stroke="midnightblue" d="M659.407,-110.15C648.428,-100.2 634.878,-87.9207 625.451,-79.3776"/>
<polygon fill="midnightblue" stroke="midnightblue" points="657.092,-112.775 666.852,-116.897 661.792,-107.588 657.092,-112.775"/>
</g>
<!-- Node7 -->
<g id="node13" class="node"><title>Node7</title>
<a xlink:href="asynchronousfileloadingworkunit_8cpp.html" target="_top" xlink:title="The implemtation of the AsynchronousFileLoadWorkUnit a workunit that loads a listing of files asynchr...">
<polygon fill="white" stroke="black" points="728,-1 728,-21 900,-21 900,-1 728,-1"/>
<text text-anchor="middle" x="814" y="-8" font-family="FreeSans" font-size="10.00">asynchronousfileloadingworkunit.cpp</text>
</a>
</g>
<!-- Node6&#45;&gt;Node7 -->
<g id="edge12" class="edge"><title>Node6&#45;&gt;Node7</title>
<path fill="none" stroke="midnightblue" d="M814,-48.8902C814,-39.6201 814,-29.0083 814,-21.3776"/>
<polygon fill="midnightblue" stroke="midnightblue" points="810.5,-48.8971 814,-58.8972 817.5,-48.8972 810.5,-48.8971"/>
</g>
<!-- Node6&#45;&gt;Node8 -->
<g id="edge14" class="edge"><title>Node6&#45;&gt;Node8</title>
<path fill="none" stroke="midnightblue" d="M723.323,-57.7862C626.706,-45.8378 477.021,-27.3267 398.012,-17.5559"/>
<polygon fill="midnightblue" stroke="midnightblue" points="723.022,-61.2756 733.376,-59.0294 723.881,-54.3285 723.022,-61.2756"/>
</g>
<!-- Node10&#45;&gt;Node8 -->
<g id="edge22" class="edge"><title>Node10&#45;&gt;Node8</title>
<path fill="none" stroke="midnightblue" d="M448.07,-114.03C425.832,-106.845 401.4,-96.0149 383,-80 364.432,-63.839 353.188,-36.2919 348.149,-21.3601"/>
<polygon fill="midnightblue" stroke="midnightblue" points="447.186,-117.419 457.772,-116.985 449.226,-110.723 447.186,-117.419"/>
</g>
<!-- Node10&#45;&gt;Node11 -->
<g id="edge24" class="edge"><title>Node10&#45;&gt;Node11</title>
<path fill="none" stroke="midnightblue" d="M451.589,-114.768C404.306,-104.138 336.654,-88.93 292.531,-79.0108"/>
<polygon fill="midnightblue" stroke="midnightblue" points="450.83,-118.185 461.354,-116.963 452.366,-111.355 450.83,-118.185"/>
</g>
<!-- Node12 -->
<g id="node25" class="node"><title>Node12</title>
<a xlink:href="frameschedulerworkunits_8cpp.html" target="_top" xlink:title="The implementation of any workunits the framescheduler needs to work correctly.">
<polygon fill="white" stroke="black" points="391.5,-59 391.5,-79 532.5,-79 532.5,-59 391.5,-59"/>
<text text-anchor="middle" x="462" y="-66" font-family="FreeSans" font-size="10.00">frameschedulerworkunits.cpp</text>
</a>
</g>
<!-- Node10&#45;&gt;Node12 -->
<g id="edge26" class="edge"><title>Node10&#45;&gt;Node12</title>
<path fill="none" stroke="midnightblue" d="M492.106,-108.686C484.771,-99.0169 476.039,-87.5059 469.873,-79.3776"/>
<polygon fill="midnightblue" stroke="midnightblue" points="489.503,-111.046 498.336,-116.897 495.08,-106.815 489.503,-111.046"/>
</g>
<!-- Node13&#45;&gt;Node8 -->
<g id="edge30" class="edge"><title>Node13&#45;&gt;Node8</title>
<path fill="none" stroke="midnightblue" d="M177.185,-106.372C176.312,-91.278 177.785,-71.2093 189,-58 202.502,-42.0978 252.233,-28.9176 291.962,-20.6019"/>
<polygon fill="midnightblue" stroke="midnightblue" points="173.742,-107.133 178.187,-116.75 180.71,-106.46 173.742,-107.133"/>
</g>
<!-- Node13&#45;&gt;Node11 -->
<g id="edge32" class="edge"><title>Node13&#45;&gt;Node11</title>
<path fill="none" stroke="midnightblue" d="M199.755,-110.15C211.42,-100.2 225.817,-87.9207 235.833,-79.3776"/>
<polygon fill="midnightblue" stroke="midnightblue" points="197.182,-107.745 191.845,-116.897 201.724,-113.071 197.182,-107.745"/>
</g>
<!-- Node14 -->
<g id="node31" class="node"><title>Node14</title>
<a xlink:href="monopoly_8cpp.html" target="_top" xlink:title="Contains the minimal implementation for the monopoly base class.">
<polygon fill="white" stroke="black" points="66,-59 66,-79 142,-79 142,-59 66,-59"/>
<text text-anchor="middle" x="104" y="-66" font-family="FreeSans" font-size="10.00">monopoly.cpp</text>
</a>
</g>
<!-- Node13&#45;&gt;Node14 -->
<g id="edge34" class="edge"><title>Node13&#45;&gt;Node14</title>
<path fill="none" stroke="midnightblue" d="M158.624,-110.687C145.366,-100.569 128.746,-87.8852 117.341,-79.1817"/>
<polygon fill="midnightblue" stroke="midnightblue" points="156.689,-113.613 166.762,-116.897 160.936,-108.048 156.689,-113.613"/>
</g>
</g>
</svg>
        <g id="navigator" transform="translate(0 0)" fill="#404254">
                <rect fill="#f2f5e9" fill-opacity="0.5" stroke="#606060" stroke-width=".5" x="0" y="0" width="60" height="60"/>
                <use id="zoomplus" xlink:href="#zoomPlus" x="17" y="9" onmousedown="handleZoom(evt,'in')"/>
                <use id="zoomminus" xlink:href="#zoomMin" x="42" y="9" onmousedown="handleZoom(evt,'out')"/>
                <use id="reset" xlink:href="#resetDef" x="30" y="36" onmousedown="handleReset()"/>
                <g id="arrowUp" xlink:href="#dirArrow" transform="translate(30 24)" onmousedown="handlePan(0,-1)">
                  <use xlink:href="#rim" fill="#404040">
                        <set attributeName="fill" to="#808080" begin="arrowUp.mouseover" end="arrowUp.mouseout"/>
                  </use>
                  <path fill="none" stroke="white" stroke-width="1.5" d="M0,-3.0v7 M-2.5,-0.5L0,-3.0L2.5,-0.5"/>
                </g>
                <g id="arrowRight" xlink:href="#dirArrow" transform="rotate(90) translate(36 -43)" onmousedown="handlePan(1,0)">
                  <use xlink:href="#rim" fill="#404040">
                        <set attributeName="fill" to="#808080" begin="arrowRight.mouseover" end="arrowRight.mouseout"/>
                  </use>
                  <path fill="none" stroke="white" stroke-width="1.5" d="M0,-3.0v7 M-2.5,-0.5L0,-3.0L2.5,-0.5"/>
                </g>
                <g id="arrowDown" xlink:href="#dirArrow" transform="rotate(180) translate(-30 -48)" onmousedown="handlePan(0,1)">
                  <use xlink:href="#rim" fill="#404040">
                        <set attributeName="fill" to="#808080" begin="arrowDown.mouseover" end="arrowDown.mouseout"/>
                  </use>
                  <path fill="none" stroke="white" stroke-width="1.5" d="M0,-3.0v7 M-2.5,-0.5L0,-3.0L2.5,-0.5"/>
                </g>
                <g id="arrowLeft" xlink:href="#dirArrow" transform="rotate(270) translate(-36 17)" onmousedown="handlePan(-1,0)">
                  <use xlink:href="#rim" fill="#404040">
                        <set attributeName="fill" to="#808080" begin="arrowLeft.mouseover" end="arrowLeft.mouseout"/>
                  </use>
                  <path fill="none" stroke="white" stroke-width="1.5" d="M0,-3.0v7 M-2.5,-0.5L0,-3.0L2.5,-0.5"/>
                </g>
        </g>
        <svg viewBox="0 0 15 15" width="100%" height="30px" preserveAspectRatio="xMaxYMin meet">
         <g id="arrow_out" transform="scale(0.3 0.3)">
          <a xlink:href="mutex_8h__dep__incl_org.svg" target="_base">
           <rect id="button" ry="5" rx="5" y="6" x="6" height="38" width="38"
                fill="#f2f5e9" fill-opacity="0.5" stroke="#606060" stroke-width="1.0"/>
           <path id="arrow"
             d="M 11.500037,31.436501 C 11.940474,20.09759 22.043105,11.32322 32.158766,21.979434 L 37.068811,17.246167 C 37.068811,17.246167 37.088388,32 37.088388,32 L 22.160133,31.978069 C 22.160133,31.978069 26.997745,27.140456 26.997745,27.140456 C 18.528582,18.264221 13.291696,25.230495 11.500037,31.436501 z"
             style="fill:#404040;"/>
          </a>
         </g>
        </svg>
</svg>
