<?xml version="1.0" encoding="UTF-8" standalone="no"?>
<!DOCTYPE svg PUBLIC "-//W3C//DTD SVG 1.1//EN"
 "http://www.w3.org/Graphics/SVG/1.1/DTD/svg11.dtd">
<!-- Generated by graphviz version 2.26.3 (20100126.1600)
 -->
<!-- Title: mutex.cpp Pages: 1 -->
<svg width="281pt" height="262pt"
 viewBox="0.00 0.00 281.00 262.00" xmlns="http://www.w3.org/2000/svg" xmlns:xlink="http://www.w3.org/1999/xlink">
<g id="graph1" class="graph" transform="scale(1 1) rotate(0) translate(4 258)">
<title>mutex.cpp</title>
<polygon fill="white" stroke="white" points="-4,5 -4,-258 278,-258 278,5 -4,5"/>
<!-- Node1 -->
<g id="node1" class="node"><title>Node1</title>
<polygon fill="#bfbfbf" stroke="black" points="126.5,-233 126.5,-253 187.5,-253 187.5,-233 126.5,-233"/>
<text text-anchor="middle" x="157" y="-240" font-family="FreeSans" font-size="10.00">mutex.cpp</text>
</g>
<!-- Node2 -->
<g id="node3" class="node"><title>Node2</title>
<a xlink:href="mutex_8h.html" target="_top" xlink:title="This file declares and defines a mutex that is a partial implementation.">
<polygon fill="white" stroke="black" points="159,-175 159,-195 209,-195 209,-175 159,-175"/>
<text text-anchor="middle" x="184" y="-182" font-family="FreeSans" font-size="10.00">mutex.h</text>
</a>
</g>
<!-- Node1&#45;&gt;Node2 -->
<g id="edge2" class="edge"><title>Node1&#45;&gt;Node2</title>
<path fill="none" stroke="midnightblue" d="M161.703,-232.897C165.336,-225.093 170.475,-214.054 174.904,-204.54"/>
<polygon fill="midnightblue" stroke="midnightblue" points="178.122,-205.921 179.169,-195.378 171.776,-202.966 178.122,-205.921"/>
</g>
<!-- Node3 -->
<g id="node5" class="node"><title>Node3</title>
<a xlink:href="crossplatformincludes_8h.html" target="_top" xlink:title="This file determines what features are offered by the compiler that this library can take advantage o...">
<polygon fill="white" stroke="black" points="72.5,-117 72.5,-137 189.5,-137 189.5,-117 72.5,-117"/>
<text text-anchor="middle" x="131" y="-124" font-family="FreeSans" font-size="10.00">crossplatformincludes.h</text>
</a>
</g>
<!-- Node1&#45;&gt;Node3 -->
<g id="edge26" class="edge"><title>Node1&#45;&gt;Node3</title>
<path fill="none" stroke="midnightblue" d="M154.693,-232.706C150.384,-213.482 141.047,-171.825 135.467,-146.929"/>
<polygon fill="midnightblue" stroke="midnightblue" points="138.867,-146.098 133.265,-137.106 132.037,-147.629 138.867,-146.098"/>
</g>
<!-- Node2&#45;&gt;Node3 -->
<g id="edge4" class="edge"><title>Node2&#45;&gt;Node3</title>
<path fill="none" stroke="midnightblue" d="M174.768,-174.897C167.261,-166.682 156.479,-154.883 147.495,-145.051"/>
<polygon fill="midnightblue" stroke="midnightblue" points="149.812,-142.399 140.483,-137.378 144.645,-147.121 149.812,-142.399"/>
</g>
<!-- Node9 -->
<g id="node21" class="node"><title>Node9</title>
<polygon fill="white" stroke="#bfbfbf" points="207,-117 207,-137 247,-137 247,-117 207,-117"/>
<text text-anchor="middle" x="227" y="-124" font-family="FreeSans" font-size="10.00">string</text>
</g>
<!-- Node2&#45;&gt;Node9 -->
<g id="edge24" class="edge"><title>Node2&#45;&gt;Node9</title>
<path fill="none" stroke="midnightblue" d="M191.49,-174.897C197.459,-166.846 205.98,-155.353 213.178,-145.643"/>
<polygon fill="midnightblue" stroke="midnightblue" points="216.162,-147.495 219.306,-137.378 210.539,-143.326 216.162,-147.495"/>
</g>
<!-- Node4 -->
<g id="node7" class="node"><title>Node4</title>
<a xlink:href="crossplatformexport_8h.html" target="_top" xlink:title="This file determines what features are offered by the compiler that this library can take advantage o...">
<polygon fill="white" stroke="black" points="77,-59 77,-79 185,-79 185,-59 77,-59"/>
<text text-anchor="middle" x="131" y="-66" font-family="FreeSans" font-size="10.00">crossplatformexport.h</text>
</a>
</g>
<!-- Node3&#45;&gt;Node4 -->
<g id="edge6" class="edge"><title>Node3&#45;&gt;Node4</title>
<path fill="none" stroke="midnightblue" d="M131,-116.897C131,-109.339 131,-98.7476 131,-89.4458"/>
<polygon fill="midnightblue" stroke="midnightblue" points="134.5,-89.3776 131,-79.3776 127.5,-89.3776 134.5,-89.3776"/>
</g>
<!-- Node5 -->
<g id="node9" class="node"><title>Node5</title>
<polygon fill="white" stroke="#bfbfbf" points="0,-1 0,-21 56,-21 56,-1 0,-1"/>
<text text-anchor="middle" x="28" y="-8" font-family="FreeSans" font-size="10.00">pthread.h</text>
</g>
<!-- Node3&#45;&gt;Node5 -->
<g id="edge16" class="edge"><title>Node3&#45;&gt;Node5</title>
<path fill="none" stroke="midnightblue" d="M110.796,-116.93C95.8099,-108.657 75.689,-95.7555 62,-80 49.4544,-65.5605 40.3038,-45.6786 34.6766,-30.9647"/>
<polygon fill="midnightblue" stroke="midnightblue" points="37.8835,-29.5395 31.2037,-21.3158 31.2972,-31.9102 37.8835,-29.5395"/>
</g>
<!-- Node6 -->
<g id="node11" class="node"><title>Node6</title>
<polygon fill="white" stroke="#bfbfbf" points="82.5,-1 82.5,-21 131.5,-21 131.5,-1 82.5,-1"/>
<text text-anchor="middle" x="107" y="-8" font-family="FreeSans" font-size="10.00">signal.h</text>
</g>
<!-- Node3&#45;&gt;Node6 -->
<g id="edge18" class="edge"><title>Node3&#45;&gt;Node6</title>
<path fill="none" stroke="midnightblue" d="M108.565,-116.977C94.0905,-109.175 76.443,-96.8325 68,-80 58.9425,-61.9425 73.1003,-41.9033 86.8249,-28.0942"/>
<polygon fill="midnightblue" stroke="midnightblue" points="89.3621,-30.5129 94.255,-21.1156 84.5698,-25.4106 89.3621,-30.5129"/>
</g>
<!-- Node7 -->
<g id="node13" class="node"><title>Node7</title>
<polygon fill="white" stroke="#bfbfbf" points="153,-1 153,-21 203,-21 203,-1 153,-1"/>
<text text-anchor="middle" x="178" y="-8" font-family="FreeSans" font-size="10.00">sched.h</text>
</g>
<!-- Node3&#45;&gt;Node7 -->
<g id="edge20" class="edge"><title>Node3&#45;&gt;Node7</title>
<path fill="none" stroke="midnightblue" d="M153.435,-116.977C167.91,-109.175 185.557,-96.8325 194,-80 201.884,-64.2818 195.968,-44.5939 189.209,-30.2757"/>
<polygon fill="midnightblue" stroke="midnightblue" points="192.276,-28.5891 184.554,-21.3358 186.068,-31.8219 192.276,-28.5891"/>
</g>
<!-- Node8 -->
<g id="node15" class="node"><title>Node8</title>
<polygon fill="white" stroke="#bfbfbf" points="223,-1 223,-21 273,-21 273,-1 223,-1"/>
<text text-anchor="middle" x="248" y="-8" font-family="FreeSans" font-size="10.00">unistd.h</text>
</g>
<!-- Node3&#45;&gt;Node8 -->
<g id="edge22" class="edge"><title>Node3&#45;&gt;Node8</title>
<path fill="none" stroke="midnightblue" d="M154.315,-116.915C171.061,-108.795 193.348,-96.0943 209,-80 222.875,-65.7334 233.52,-45.5645 240.156,-30.7154"/>
<polygon fill="midnightblue" stroke="midnightblue" points="243.415,-31.9958 244.1,-21.4231 236.971,-29.2606 243.415,-31.9958"/>
</g>
<!-- Node4&#45;&gt;Node5 -->
<g id="edge8" class="edge"><title>Node4&#45;&gt;Node5</title>
<path fill="none" stroke="midnightblue" d="M113.059,-58.8972C96.9848,-49.8458 73.1854,-36.4442 54.8456,-26.117"/>
<polygon fill="midnightblue" stroke="midnightblue" points="56.5121,-23.0386 46.0812,-21.1817 53.0774,-29.1381 56.5121,-23.0386"/>
</g>
<!-- Node4&#45;&gt;Node6 -->
<g id="edge10" class="edge"><title>Node4&#45;&gt;Node6</title>
<path fill="none" stroke="midnightblue" d="M126.82,-58.8972C123.624,-51.1747 119.118,-40.2857 115.21,-30.841"/>
<polygon fill="midnightblue" stroke="midnightblue" points="118.352,-29.2795 111.294,-21.3776 111.884,-31.956 118.352,-29.2795"/>
</g>
<!-- Node4&#45;&gt;Node7 -->
<g id="edge12" class="edge"><title>Node4&#45;&gt;Node7</title>
<path fill="none" stroke="midnightblue" d="M139.187,-58.8972C145.777,-50.7639 155.214,-39.1183 163.133,-29.3468"/>
<polygon fill="midnightblue" stroke="midnightblue" points="166.014,-31.3505 169.591,-21.3776 160.575,-26.9434 166.014,-31.3505"/>
</g>
<!-- Node4&#45;&gt;Node8 -->
<g id="edge14" class="edge"><title>Node4&#45;&gt;Node8</title>
<path fill="none" stroke="midnightblue" d="M151.38,-58.8972C169.889,-49.7218 197.415,-36.0762 218.358,-25.6943"/>
<polygon fill="midnightblue" stroke="midnightblue" points="220.056,-28.759 227.461,-21.1817 216.947,-22.4874 220.056,-28.759"/>
</g>
</g>
</svg>
