<?xml version="1.0" encoding="UTF-8" standalone="no"?>
<!DOCTYPE svg PUBLIC "-//W3C//DTD SVG 1.1//EN"
 "http://www.w3.org/Graphics/SVG/1.1/DTD/svg11.dtd">
<!-- Generated by graphviz version 2.26.3 (20100126.1600)
 -->
<!-- Title: mutex.cpp Pages: 1 -->
<svg width="469pt" height="262pt"
 viewBox="0.00 0.00 469.00 262.00" xmlns="http://www.w3.org/2000/svg" xmlns:xlink="http://www.w3.org/1999/xlink">
<g id="graph1" class="graph" transform="scale(1 1) rotate(0) translate(4 258)">
<title>mutex.cpp</title>
<polygon fill="white" stroke="white" points="-4,5 -4,-258 466,-258 466,5 -4,5"/>
<!-- Node1 -->
<g id="node1" class="node"><title>Node1</title>
<polygon fill="#bfbfbf" stroke="black" points="150.5,-233 150.5,-253 211.5,-253 211.5,-233 150.5,-233"/>
<text text-anchor="middle" x="181" y="-240" font-family="FreeSans" font-size="10.00">mutex.cpp</text>
</g>
<!-- Node2 -->
<g id="node3" class="node"><title>Node2</title>
<a xlink:href="mutex_8h.html" target="_top" xlink:title="This file declares and defines a mutex that is a partial implementation.">
<polygon fill="white" stroke="black" points="72,-175 72,-195 122,-195 122,-175 72,-175"/>
<text text-anchor="middle" x="97" y="-182" font-family="FreeSans" font-size="10.00">mutex.h</text>
</a>
</g>
<!-- Node1&#45;&gt;Node2 -->
<g id="edge2" class="edge"><title>Node1&#45;&gt;Node2</title>
<path fill="none" stroke="midnightblue" d="M166.368,-232.897C153.678,-224.135 135.085,-211.297 120.341,-201.116"/>
<polygon fill="midnightblue" stroke="midnightblue" points="121.964,-197.983 111.746,-195.182 117.986,-203.744 121.964,-197.983"/>
</g>
<!-- Node8 -->
<g id="node16" class="node"><title>Node8</title>
<a xlink:href="crossplatformincludes_8h.html" target="_top" xlink:title="This file determines what features are offered by the compiler that this library can take advantage o...">
<polygon fill="white" stroke="black" points="207.5,-175 207.5,-195 324.5,-195 324.5,-175 207.5,-175"/>
<text text-anchor="middle" x="266" y="-182" font-family="FreeSans" font-size="10.00">crossplatformincludes.h</text>
</a>
</g>
<!-- Node1&#45;&gt;Node8 -->
<g id="edge16" class="edge"><title>Node1&#45;&gt;Node8</title>
<path fill="none" stroke="midnightblue" d="M195.806,-232.897C208.768,-224.052 227.818,-211.054 242.802,-200.829"/>
<polygon fill="midnightblue" stroke="midnightblue" points="244.791,-203.709 251.079,-195.182 240.846,-197.927 244.791,-203.709"/>
</g>
<!-- Node3 -->
<g id="node5" class="node"><title>Node3</title>
<a xlink:href="atomicoperations_8h.html" target="_top" xlink:title="Simple thread safe ways to check and change a specified variable atomically.">
<polygon fill="white" stroke="black" points="48,-117 48,-137 146,-137 146,-117 48,-117"/>
<text text-anchor="middle" x="97" y="-124" font-family="FreeSans" font-size="10.00">atomicoperations.h</text>
</a>
</g>
<!-- Node2&#45;&gt;Node3 -->
<g id="edge4" class="edge"><title>Node2&#45;&gt;Node3</title>
<path fill="none" stroke="midnightblue" d="M97,-174.897C97,-167.339 97,-156.748 97,-147.446"/>
<polygon fill="midnightblue" stroke="midnightblue" points="100.5,-147.378 97,-137.378 93.5001,-147.378 100.5,-147.378"/>
</g>
<!-- Node6 -->
<g id="node11" class="node"><title>Node6</title>
<polygon fill="white" stroke="#bfbfbf" points="0,-1 0,-21 40,-21 40,-1 0,-1"/>
<text text-anchor="middle" x="20" y="-8" font-family="FreeSans" font-size="10.00">string</text>
</g>
<!-- Node2&#45;&gt;Node6 -->
<g id="edge14" class="edge"><title>Node2&#45;&gt;Node6</title>
<path fill="none" stroke="midnightblue" d="M78.1709,-174.846C64.9775,-166.692 48.1308,-153.979 39,-138 19.7299,-104.277 17.8884,-57.6354 18.6785,-31.2769"/>
<polygon fill="midnightblue" stroke="midnightblue" points="22.1872,-31.1666 19.1541,-21.0152 15.1947,-30.8424 22.1872,-31.1666"/>
</g>
<!-- Node4 -->
<g id="node7" class="node"><title>Node4</title>
<a xlink:href="datatypes_8h.html" target="_top" xlink:title="This file declares a few typedefs to allow flexibility, in case a change is required/desired.">
<polygon fill="white" stroke="black" points="56.5,-59 56.5,-79 121.5,-79 121.5,-59 56.5,-59"/>
<text text-anchor="middle" x="89" y="-66" font-family="FreeSans" font-size="10.00">datatypes.h</text>
</a>
</g>
<!-- Node3&#45;&gt;Node4 -->
<g id="edge6" class="edge"><title>Node3&#45;&gt;Node4</title>
<path fill="none" stroke="midnightblue" d="M95.6065,-116.897C94.564,-109.339 93.1031,-98.7476 91.8201,-89.4458"/>
<polygon fill="midnightblue" stroke="midnightblue" points="95.265,-88.8056 90.4314,-79.3776 88.3307,-89.7621 95.265,-88.8056"/>
</g>
<!-- Node5 -->
<g id="node9" class="node"><title>Node5</title>
<a xlink:href="crossplatformexport_8h.html" target="_top" xlink:title="This file determines what features are offered by the compiler that this library can take advantage o...">
<polygon fill="white" stroke="black" points="122,-1 122,-21 230,-21 230,-1 122,-1"/>
<text text-anchor="middle" x="176" y="-8" font-family="FreeSans" font-size="10.00">crossplatformexport.h</text>
</a>
</g>
<!-- Node4&#45;&gt;Node5 -->
<g id="edge8" class="edge"><title>Node4&#45;&gt;Node5</title>
<path fill="none" stroke="midnightblue" d="M104.154,-58.8972C117.421,-50.0524 136.919,-37.0539 152.256,-26.829"/>
<polygon fill="midnightblue" stroke="midnightblue" points="154.348,-29.6409 160.728,-21.1817 150.466,-23.8165 154.348,-29.6409"/>
</g>
<!-- Node4&#45;&gt;Node6 -->
<g id="edge10" class="edge"><title>Node4&#45;&gt;Node6</title>
<path fill="none" stroke="midnightblue" d="M76.9811,-58.8972C66.8167,-50.3532 52.041,-37.933 40.083,-27.8813"/>
<polygon fill="midnightblue" stroke="midnightblue" points="42.2527,-25.133 32.3458,-21.3776 37.7486,-30.4914 42.2527,-25.133"/>
</g>
<!-- Node7 -->
<g id="node13" class="node"><title>Node7</title>
<polygon fill="white" stroke="#bfbfbf" points="57.5,-1 57.5,-21 104.5,-21 104.5,-1 57.5,-1"/>
<text text-anchor="middle" x="81" y="-8" font-family="FreeSans" font-size="10.00">stdint.h</text>
</g>
<!-- Node4&#45;&gt;Node7 -->
<g id="edge12" class="edge"><title>Node4&#45;&gt;Node7</title>
<path fill="none" stroke="midnightblue" d="M87.6065,-58.8972C86.564,-51.339 85.1031,-40.7476 83.8201,-31.4458"/>
<polygon fill="midnightblue" stroke="midnightblue" points="87.265,-30.8056 82.4314,-21.3776 80.3307,-31.7621 87.265,-30.8056"/>
</g>
<!-- Node8&#45;&gt;Node5 -->
<g id="edge18" class="edge"><title>Node8&#45;&gt;Node5</title>
<path fill="none" stroke="midnightblue" d="M240.554,-174.991C224.537,-167.323 204.898,-155.129 194,-138 173.081,-105.12 172.351,-57.8459 173.983,-31.2221"/>
<polygon fill="midnightblue" stroke="midnightblue" points="177.478,-31.4226 174.775,-21.1783 170.5,-30.8721 177.478,-31.4226"/>
</g>
<!-- Node9 -->
<g id="node19" class="node"><title>Node9</title>
<polygon fill="white" stroke="#bfbfbf" points="203,-117 203,-137 259,-137 259,-117 203,-117"/>
<text text-anchor="middle" x="231" y="-124" font-family="FreeSans" font-size="10.00">pthread.h</text>
</g>
<!-- Node8&#45;&gt;Node9 -->
<g id="edge20" class="edge"><title>Node8&#45;&gt;Node9</title>
<path fill="none" stroke="midnightblue" d="M259.903,-174.897C255.095,-166.928 248.251,-155.587 242.43,-145.941"/>
<polygon fill="midnightblue" stroke="midnightblue" points="245.426,-144.131 237.262,-137.378 239.432,-147.748 245.426,-144.131"/>
</g>
<!-- Node10 -->
<g id="node21" class="node"><title>Node10</title>
<polygon fill="white" stroke="#bfbfbf" points="276.5,-117 276.5,-137 325.5,-137 325.5,-117 276.5,-117"/>
<text text-anchor="middle" x="301" y="-124" font-family="FreeSans" font-size="10.00">signal.h</text>
</g>
<!-- Node8&#45;&gt;Node10 -->
<g id="edge22" class="edge"><title>Node8&#45;&gt;Node10</title>
<path fill="none" stroke="midnightblue" d="M272.097,-174.897C276.905,-166.928 283.749,-155.587 289.57,-145.941"/>
<polygon fill="midnightblue" stroke="midnightblue" points="292.568,-147.748 294.738,-137.378 286.574,-144.131 292.568,-147.748"/>
</g>
<!-- Node11 -->
<g id="node23" class="node"><title>Node11</title>
<polygon fill="white" stroke="#bfbfbf" points="343,-117 343,-137 393,-137 393,-117 343,-117"/>
<text text-anchor="middle" x="368" y="-124" font-family="FreeSans" font-size="10.00">sched.h</text>
</g>
<!-- Node8&#45;&gt;Node11 -->
<g id="edge24" class="edge"><title>Node8&#45;&gt;Node11</title>
<path fill="none" stroke="midnightblue" d="M283.767,-174.897C299.612,-165.887 323.038,-152.567 341.166,-142.259"/>
<polygon fill="midnightblue" stroke="midnightblue" points="343.131,-145.167 350.094,-137.182 339.671,-139.082 343.131,-145.167"/>
</g>
<!-- Node12 -->
<g id="node25" class="node"><title>Node12</title>
<polygon fill="white" stroke="#bfbfbf" points="411,-117 411,-137 461,-137 461,-117 411,-117"/>
<text text-anchor="middle" x="436" y="-124" font-family="FreeSans" font-size="10.00">unistd.h</text>
</g>
<!-- Node8&#45;&gt;Node12 -->
<g id="edge26" class="edge"><title>Node8&#45;&gt;Node12</title>
<path fill="none" stroke="midnightblue" d="M295.612,-174.897C325.055,-164.852 370.202,-149.449 401.308,-138.836"/>
<polygon fill="midnightblue" stroke="midnightblue" points="402.542,-142.113 410.876,-135.572 400.281,-135.488 402.542,-142.113"/>
</g>
</g>
</svg>
