<?xml version="1.0" encoding="UTF-8" standalone="no"?>
<!DOCTYPE svg PUBLIC "-//W3C//DTD SVG 1.1//EN"
 "http://www.w3.org/Graphics/SVG/1.1/DTD/svg11.dtd">
<!-- Generated by graphviz version 2.26.3 (20100126.1600)
 -->
<!-- Title: G Pages: 1 -->
<!--zoomable 332 -->
<svg id="main" version="1.1" xmlns="http://www.w3.org/2000/svg" xmlns:xlink="http://www.w3.org/1999/xlink" xml:space="preserve" onload="init(evt)">
        <defs>
                <circle id="rim" cx="0" cy="0" r="7"/>
                <circle id="rim2" cx="0" cy="0" r="3.5"/>
                <g id="zoomPlus">
                        <use xlink:href="#rim" fill="#404040">
                                <set attributeName="fill" to="#808080" begin="zoomplus.mouseover" end="zoomplus.mouseout"/>
                        </use>
                        <path d="M-4,0h8M0,-4v8" fill="none" stroke="white" stroke-width="1.5" pointer-events="none"/>
                </g>
                <g id="zoomMin">
                        <use xlink:href="#rim" fill="#404040">
                                <set attributeName="fill" to="#808080" begin="zoomminus.mouseover" end="zoomminus.mouseout"/>
                        </use>
                        <path d="M-4,0h8" fill="none" stroke="white" stroke-width="1.5" pointer-events="none"/>
                </g>
                <g id="dirArrow">
                        <path fill="none" stroke="white" stroke-width="1.5" d="M0,-3.0v7 M-2.5,-0.5L0,-3.0L2.5,-0.5"/>
                </g>
               <g id="resetDef">
                       <use xlink:href="#rim2" fill="#404040">
                               <set attributeName="fill" to="#808080" begin="reset.mouseover" end="reset.mouseout"/>
                       </use>
               </g>
        </defs>

<script type="text/javascript">
var viewWidth = 812;
var viewHeight = 332;
var sectionId = 'dynsection-1';
</script>
<script xlink:href="svgpan.js"/>
<svg id="graph" class="graph">
<g id="viewport">
<title>G</title>
<polygon fill="white" stroke="white" points="-4,5 -4,-328 809,-328 809,5 -4,5"/>
<!-- Node1 -->
<g id="node1" class="node"><title>Node1</title>
<polygon fill="#bfbfbf" stroke="black" points="12.5,-301 12.5,-323 63.5,-323 63.5,-301 12.5,-301"/>
<text text-anchor="middle" x="38" y="-310" font-family="FreeSans" font-size="10.00">mutex.h</text>
</g>
<!-- Node2 -->
<g id="node3" class="node"><title>Node2</title>
<a xlink:href="thread_8h.html" target="_top" xlink:title="This file defines a minimalistic cross&#45;platform thread that the scheduler uses to schedule tasks...">
<polygon fill="white" stroke="black" points="136.5,-241 136.5,-263 189.5,-263 189.5,-241 136.5,-241"/>
<text text-anchor="middle" x="163" y="-250" font-family="FreeSans" font-size="10.00">thread.h</text>
</a>
</g>
<!-- Node1&#45;&gt;Node2 -->
<g id="edge2" class="edge"><title>Node1&#45;&gt;Node2</title>
<path fill="none" stroke="midnightblue" d="M70.1203,-296.582C91.9019,-286.127 120.189,-272.549 139.795,-263.138"/>
<polygon fill="midnightblue" stroke="midnightblue" points="68.4276,-293.512 60.9269,-300.995 71.4567,-299.823 68.4276,-293.512"/>
</g>
<!-- Node4 -->
<g id="node7" class="node"><title>Node4</title>
<a xlink:href="workunit_8h.html" target="_top" xlink:title="This file has the defintion of the workunit.">
<polygon fill="white" stroke="black" points="250.5,-121 250.5,-143 311.5,-143 311.5,-121 250.5,-121"/>
<text text-anchor="middle" x="281" y="-130" font-family="FreeSans" font-size="10.00">workunit.h</text>
</a>
</g>
<!-- Node1&#45;&gt;Node4 -->
<g id="edge44" class="edge"><title>Node1&#45;&gt;Node4</title>
<path fill="none" stroke="midnightblue" d="M45.8734,-291.346C58.0167,-262.233 84.0619,-209.406 123,-180 160.977,-151.32 216.137,-139.652 250.228,-134.992"/>
<polygon fill="midnightblue" stroke="midnightblue" points="42.5106,-290.328 42.0303,-300.911 49.006,-292.937 42.5106,-290.328"/>
</g>
<!-- Node7 -->
<g id="node13" class="node"><title>Node7</title>
<a xlink:href="dagframescheduler_8h.html" target="_top" xlink:title="This is the file that code using this library should include. It includes all the required components...">
<polygon fill="white" stroke="black" points="158,-1 158,-23 270,-23 270,-1 158,-1"/>
<text text-anchor="middle" x="214" y="-10" font-family="FreeSans" font-size="10.00">dagframescheduler.h</text>
</a>
</g>
<!-- Node1&#45;&gt;Node7 -->
<g id="edge42" class="edge"><title>Node1&#45;&gt;Node7</title>
<path fill="none" stroke="midnightblue" d="M27.2892,-291.545C16.0509,-268.144 0,-228.359 0,-192 0,-192 0,-192 0,-132 0,-59.588 94.3695,-30.4307 157.774,-19.0127"/>
<polygon fill="midnightblue" stroke="midnightblue" points="24.3038,-293.401 31.8946,-300.792 30.5698,-290.281 24.3038,-293.401"/>
</g>
<!-- Node3 -->
<g id="node5" class="node"><title>Node3</title>
<a xlink:href="framescheduler_8h.html" target="_top" xlink:title="This file has the Declarations for the main FrameScheduler class.">
<polygon fill="white" stroke="black" points="361,-181 361,-203 455,-203 455,-181 361,-181"/>
<text text-anchor="middle" x="408" y="-190" font-family="FreeSans" font-size="10.00">framescheduler.h</text>
</a>
</g>
<!-- Node2&#45;&gt;Node3 -->
<g id="edge4" class="edge"><title>Node2&#45;&gt;Node3</title>
<path fill="none" stroke="midnightblue" d="M199.554,-243.048C243.038,-232.399 315.642,-214.618 362.663,-203.103"/>
<polygon fill="midnightblue" stroke="midnightblue" points="198.566,-239.686 189.686,-245.465 200.231,-246.486 198.566,-239.686"/>
</g>
<!-- Node2&#45;&gt;Node4 -->
<g id="edge40" class="edge"><title>Node2&#45;&gt;Node4</title>
<path fill="none" stroke="midnightblue" d="M180.925,-233.772C205.736,-208.539 249.785,-163.744 270.137,-143.047"/>
<polygon fill="midnightblue" stroke="midnightblue" points="178.405,-231.342 173.89,-240.926 183.397,-236.25 178.405,-231.342"/>
</g>
<!-- Node2&#45;&gt;Node7 -->
<g id="edge36" class="edge"><title>Node2&#45;&gt;Node7</title>
<path fill="none" stroke="midnightblue" d="M141.558,-234.305C101.547,-199.137 23.2683,-118.782 66,-60 77.1976,-44.5965 120.958,-31.5997 158.014,-23.0312"/>
<polygon fill="midnightblue" stroke="midnightblue" points="139.368,-237.038 149.231,-240.908 143.934,-231.732 139.368,-237.038"/>
</g>
<!-- Node14 -->
<g id="node33" class="node"><title>Node14</title>
<a xlink:href="thread_8cpp.html" target="_top" xlink:title="This file implements a minimalistic cross&#45;platform thread that the scheduler uses to schedule tasks...">
<polygon fill="white" stroke="black" points="131.5,-181 131.5,-203 194.5,-203 194.5,-181 131.5,-181"/>
<text text-anchor="middle" x="163" y="-190" font-family="FreeSans" font-size="10.00">thread.cpp</text>
</a>
</g>
<!-- Node2&#45;&gt;Node14 -->
<g id="edge38" class="edge"><title>Node2&#45;&gt;Node14</title>
<path fill="none" stroke="midnightblue" d="M163,-230.918C163,-221.639 163,-211.108 163,-203.343"/>
<polygon fill="midnightblue" stroke="midnightblue" points="159.5,-230.995 163,-240.995 166.5,-230.995 159.5,-230.995"/>
</g>
<!-- Node3&#45;&gt;Node4 -->
<g id="edge6" class="edge"><title>Node3&#45;&gt;Node4</title>
<path fill="none" stroke="midnightblue" d="M375.663,-176.723C353.494,-166.249 324.586,-152.592 304.576,-143.138"/>
<polygon fill="midnightblue" stroke="midnightblue" points="374.169,-179.888 384.706,-180.995 377.16,-173.559 374.169,-179.888"/>
</g>
<!-- Node3&#45;&gt;Node7 -->
<g id="edge32" class="edge"><title>Node3&#45;&gt;Node7</title>
<path fill="none" stroke="midnightblue" d="M431.313,-174.812C464.297,-148.449 517.275,-97.1834 486,-60 455.946,-24.2682 324.958,-32.2384 279,-24 276.063,-23.4736 273.052,-22.9303 270.013,-22.379"/>
<polygon fill="midnightblue" stroke="midnightblue" points="429.163,-172.05 423.421,-180.954 433.463,-177.574 429.163,-172.05"/>
</g>
<!-- Node8 -->
<g id="node15" class="node"><title>Node8</title>
<a xlink:href="framescheduler_8cpp.html" target="_top" xlink:title="This is the core object implementation for this algorithm.">
<polygon fill="white" stroke="black" points="700,-1 700,-23 804,-23 804,-1 700,-1"/>
<text text-anchor="middle" x="752" y="-10" font-family="FreeSans" font-size="10.00">framescheduler.cpp</text>
</a>
</g>
<!-- Node3&#45;&gt;Node8 -->
<g id="edge34" class="edge"><title>Node3&#45;&gt;Node8</title>
<path fill="none" stroke="midnightblue" d="M438.256,-176.168C506.727,-140.341 672.155,-53.7794 730.883,-23.0497"/>
<polygon fill="midnightblue" stroke="midnightblue" points="436.497,-173.139 429.259,-180.876 439.742,-179.341 436.497,-173.139"/>
</g>
<!-- Node5 -->
<g id="node9" class="node"><title>Node5</title>
<a xlink:href="monopoly_8h.html" target="_top" xlink:title="Contains an interface for a kind of WorkUnit that consumes time on multiple thread.">
<polygon fill="white" stroke="black" points="533,-61 533,-83 601,-83 601,-61 533,-61"/>
<text text-anchor="middle" x="567" y="-70" font-family="FreeSans" font-size="10.00">monopoly.h</text>
</a>
</g>
<!-- Node4&#45;&gt;Node5 -->
<g id="edge8" class="edge"><title>Node4&#45;&gt;Node5</title>
<path fill="none" stroke="midnightblue" d="M321.622,-123.478C378.175,-111.614 479.636,-90.3281 532.635,-79.2094"/>
<polygon fill="midnightblue" stroke="midnightblue" points="320.675,-120.1 311.607,-125.579 322.113,-126.951 320.675,-120.1"/>
</g>
<!-- Node4&#45;&gt;Node7 -->
<g id="edge28" class="edge"><title>Node4&#45;&gt;Node7</title>
<path fill="none" stroke="midnightblue" d="M291.7,-111.28C297.902,-96.1859 302.899,-75.7165 294,-60 284.025,-42.3816 264.717,-30.5246 247.57,-23.0032"/>
<polygon fill="midnightblue" stroke="midnightblue" points="288.347,-110.197 287.37,-120.747 294.713,-113.109 288.347,-110.197"/>
</g>
<!-- Node10 -->
<g id="node19" class="node"><title>Node10</title>
<a xlink:href="asynchronousworkunit_8h.html" target="_top" xlink:title="Contains an interface for a kind of WorkUnit that loads or writes a.">
<polygon fill="white" stroke="black" points="74.5,-61 74.5,-83 197.5,-83 197.5,-61 74.5,-61"/>
<text text-anchor="middle" x="136" y="-70" font-family="FreeSans" font-size="10.00">asynchronousworkunit.h</text>
</a>
</g>
<!-- Node4&#45;&gt;Node10 -->
<g id="edge18" class="edge"><title>Node4&#45;&gt;Node10</title>
<path fill="none" stroke="midnightblue" d="M245.093,-117.142C219.654,-106.616 186.069,-92.7182 162.918,-83.1383"/>
<polygon fill="midnightblue" stroke="midnightblue" points="243.826,-120.406 254.405,-120.995 246.503,-113.937 243.826,-120.406"/>
</g>
<!-- Node11 -->
<g id="node22" class="node"><title>Node11</title>
<a xlink:href="frameschedulerworkunits_8h.html" target="_top" xlink:title="This defines a number of workunits that are required for doing some tasks that the Framescheduler req...">
<polygon fill="white" stroke="black" points="341,-61 341,-83 477,-83 477,-61 341,-61"/>
<text text-anchor="middle" x="409" y="-70" font-family="FreeSans" font-size="10.00">frameschedulerworkunits.h</text>
</a>
</g>
<!-- Node4&#45;&gt;Node11 -->
<g id="edge22" class="edge"><title>Node4&#45;&gt;Node11</title>
<path fill="none" stroke="midnightblue" d="M313.591,-116.723C335.936,-106.249 365.071,-92.5916 385.238,-83.1383"/>
<polygon fill="midnightblue" stroke="midnightblue" points="312.046,-113.582 304.477,-120.995 315.017,-119.92 312.046,-113.582"/>
</g>
<!-- Node13 -->
<g id="node28" class="node"><title>Node13</title>
<a xlink:href="workunit_8cpp.html" target="_top" xlink:title="This file has the implementation of the workunit.">
<polygon fill="white" stroke="black" points="214.5,-61 214.5,-83 285.5,-83 285.5,-61 214.5,-61"/>
<text text-anchor="middle" x="250" y="-70" font-family="FreeSans" font-size="10.00">workunit.cpp</text>
</a>
</g>
<!-- Node4&#45;&gt;Node13 -->
<g id="edge30" class="edge"><title>Node4&#45;&gt;Node13</title>
<path fill="none" stroke="midnightblue" d="M270.575,-111.822C265.67,-102.329 260.003,-91.3614 255.86,-83.3428"/>
<polygon fill="midnightblue" stroke="midnightblue" points="267.614,-113.717 275.314,-120.995 273.833,-110.504 267.614,-113.717"/>
</g>
<!-- Node6 -->
<g id="node11" class="node"><title>Node6</title>
<a xlink:href="asynchronousworkunit_8cpp.html" target="_top" xlink:title="Contains the minimal implementation for the monopoly base class.">
<polygon fill="white" stroke="black" points="548,-1 548,-23 682,-23 682,-1 548,-1"/>
<text text-anchor="middle" x="615" y="-10" font-family="FreeSans" font-size="10.00">asynchronousworkunit.cpp</text>
</a>
</g>
<!-- Node5&#45;&gt;Node6 -->
<g id="edge10" class="edge"><title>Node5&#45;&gt;Node6</title>
<path fill="none" stroke="midnightblue" d="M582.19,-53.0128C589.994,-43.2579 599.241,-31.6991 605.926,-23.3428"/>
<polygon fill="midnightblue" stroke="midnightblue" points="579.318,-50.9999 575.804,-60.9951 584.784,-55.3728 579.318,-50.9999"/>
</g>
<!-- Node5&#45;&gt;Node7 -->
<g id="edge12" class="edge"><title>Node5&#45;&gt;Node7</title>
<path fill="none" stroke="midnightblue" d="M522.81,-60.7839C521.528,-60.5126 520.256,-60.2505 519,-60 413.225,-38.8957 385.382,-41.7934 279,-24 276.17,-23.5267 273.274,-23.0315 270.35,-22.523"/>
<polygon fill="midnightblue" stroke="midnightblue" points="522.219,-64.2381 532.742,-63.0104 523.75,-57.4076 522.219,-64.2381"/>
</g>
<!-- Node5&#45;&gt;Node8 -->
<g id="edge14" class="edge"><title>Node5&#45;&gt;Node8</title>
<path fill="none" stroke="midnightblue" d="M610.715,-57.8221C643.517,-47.1837 687.784,-32.8268 717.971,-23.0366"/>
<polygon fill="midnightblue" stroke="midnightblue" points="609.364,-54.5807 600.932,-60.9951 611.524,-61.2392 609.364,-54.5807"/>
</g>
<!-- Node9 -->
<g id="node17" class="node"><title>Node9</title>
<a xlink:href="monopoly_8cpp.html" target="_top" xlink:title="Contains the minimal implementation for the monopoly base class.">
<polygon fill="white" stroke="black" points="451.5,-1 451.5,-23 530.5,-23 530.5,-1 451.5,-1"/>
<text text-anchor="middle" x="491" y="-10" font-family="FreeSans" font-size="10.00">monopoly.cpp</text>
</a>
</g>
<!-- Node5&#45;&gt;Node9 -->
<g id="edge16" class="edge"><title>Node5&#45;&gt;Node9</title>
<path fill="none" stroke="midnightblue" d="M545.116,-54.7234C532.24,-44.5582 516.334,-32.0008 505.109,-23.1383"/>
<polygon fill="midnightblue" stroke="midnightblue" points="543.043,-57.5457 553.06,-60.9951 547.38,-52.0515 543.043,-57.5457"/>
</g>
<!-- Node10&#45;&gt;Node7 -->
<g id="edge20" class="edge"><title>Node10&#45;&gt;Node7</title>
<path fill="none" stroke="midnightblue" d="M158.46,-54.7234C171.674,-44.5582 187.999,-32.0008 199.52,-23.1383"/>
<polygon fill="midnightblue" stroke="midnightblue" points="156.099,-52.1237 150.306,-60.9951 160.367,-57.6721 156.099,-52.1237"/>
</g>
<!-- Node11&#45;&gt;Node7 -->
<g id="edge24" class="edge"><title>Node11&#45;&gt;Node7</title>
<path fill="none" stroke="midnightblue" d="M363.368,-57.9594C328.75,-47.3076 281.824,-32.869 249.869,-23.0366"/>
<polygon fill="midnightblue" stroke="midnightblue" points="362.647,-61.3994 373.234,-60.9951 364.706,-54.7089 362.647,-61.3994"/>
</g>
<!-- Node12 -->
<g id="node25" class="node"><title>Node12</title>
<a xlink:href="frameschedulerworkunits_8cpp.html" target="_top" xlink:title="The implementation of any workunits the framescheduler needs to work correctly.">
<polygon fill="white" stroke="black" points="288,-1 288,-23 434,-23 434,-1 288,-1"/>
<text text-anchor="middle" x="361" y="-10" font-family="FreeSans" font-size="10.00">frameschedulerworkunits.cpp</text>
</a>
</g>
<!-- Node11&#45;&gt;Node12 -->
<g id="edge26" class="edge"><title>Node11&#45;&gt;Node12</title>
<path fill="none" stroke="midnightblue" d="M393.81,-53.0128C386.006,-43.2579 376.759,-31.6991 370.074,-23.3428"/>
<polygon fill="midnightblue" stroke="midnightblue" points="391.216,-55.3728 400.196,-60.9951 396.682,-50.9999 391.216,-55.3728"/>
</g>
</g>
</svg>
        <g id="navigator" transform="translate(0 0)" fill="#404254">
                <rect fill="#f2f5e9" fill-opacity="0.5" stroke="#606060" stroke-width=".5" x="0" y="0" width="60" height="60"/>
                <use id="zoomplus" xlink:href="#zoomPlus" x="17" y="9" onmousedown="handleZoom(evt,'in')"/>
                <use id="zoomminus" xlink:href="#zoomMin" x="42" y="9" onmousedown="handleZoom(evt,'out')"/>
                <use id="reset" xlink:href="#resetDef" x="30" y="36" onmousedown="handleReset()"/>
                <g id="arrowUp" xlink:href="#dirArrow" transform="translate(30 24)" onmousedown="handlePan(0,-1)">
                  <use xlink:href="#rim" fill="#404040">
                        <set attributeName="fill" to="#808080" begin="arrowUp.mouseover" end="arrowUp.mouseout"/>
                  </use>
                  <path fill="none" stroke="white" stroke-width="1.5" d="M0,-3.0v7 M-2.5,-0.5L0,-3.0L2.5,-0.5"/>
                </g>
                <g id="arrowRight" xlink:href="#dirArrow" transform="rotate(90) translate(36 -43)" onmousedown="handlePan(1,0)">
                  <use xlink:href="#rim" fill="#404040">
                        <set attributeName="fill" to="#808080" begin="arrowRight.mouseover" end="arrowRight.mouseout"/>
                  </use>
                  <path fill="none" stroke="white" stroke-width="1.5" d="M0,-3.0v7 M-2.5,-0.5L0,-3.0L2.5,-0.5"/>
                </g>
                <g id="arrowDown" xlink:href="#dirArrow" transform="rotate(180) translate(-30 -48)" onmousedown="handlePan(0,1)">
                  <use xlink:href="#rim" fill="#404040">
                        <set attributeName="fill" to="#808080" begin="arrowDown.mouseover" end="arrowDown.mouseout"/>
                  </use>
                  <path fill="none" stroke="white" stroke-width="1.5" d="M0,-3.0v7 M-2.5,-0.5L0,-3.0L2.5,-0.5"/>
                </g>
                <g id="arrowLeft" xlink:href="#dirArrow" transform="rotate(270) translate(-36 17)" onmousedown="handlePan(-1,0)">
                  <use xlink:href="#rim" fill="#404040">
                        <set attributeName="fill" to="#808080" begin="arrowLeft.mouseover" end="arrowLeft.mouseout"/>
                  </use>
                  <path fill="none" stroke="white" stroke-width="1.5" d="M0,-3.0v7 M-2.5,-0.5L0,-3.0L2.5,-0.5"/>
                </g>
        </g>
</svg>
