<?xml version="1.0" encoding="UTF-8" standalone="no"?>
<!DOCTYPE svg PUBLIC "-//W3C//DTD SVG 1.1//EN"
 "http://www.w3.org/Graphics/SVG/1.1/DTD/svg11.dtd">
<!-- Generated by graphviz version 2.26.3 (20100126.1600)
 -->
<!-- Title: G Pages: 1 -->
<!--zoomable 392 -->
<svg id="main" version="1.1" xmlns="http://www.w3.org/2000/svg" xmlns:xlink="http://www.w3.org/1999/xlink" xml:space="preserve" onload="init(evt)">
        <defs>
                <circle id="rim" cx="0" cy="0" r="7"/>
                <circle id="rim2" cx="0" cy="0" r="3.5"/>
                <g id="zoomPlus">
                        <use xlink:href="#rim" fill="#404040">
                                <set attributeName="fill" to="#808080" begin="zoomplus.mouseover" end="zoomplus.mouseout"/>
                        </use>
                        <path d="M-4,0h8M0,-4v8" fill="none" stroke="white" stroke-width="1.5" pointer-events="none"/>
                </g>
                <g id="zoomMin">
                        <use xlink:href="#rim" fill="#404040">
                                <set attributeName="fill" to="#808080" begin="zoomminus.mouseover" end="zoomminus.mouseout"/>
                        </use>
                        <path d="M-4,0h8" fill="none" stroke="white" stroke-width="1.5" pointer-events="none"/>
                </g>
                <g id="dirArrow">
                        <path fill="none" stroke="white" stroke-width="1.5" d="M0,-3.0v7 M-2.5,-0.5L0,-3.0L2.5,-0.5"/>
                </g>
               <g id="resetDef">
                       <use xlink:href="#rim2" fill="#404040">
                               <set attributeName="fill" to="#808080" begin="reset.mouseover" end="reset.mouseout"/>
                       </use>
               </g>
        </defs>

<script type="text/javascript">
var viewWidth = 973;
var viewHeight = 392;
var sectionId = 'dynsection-1';
</script>
<script xlink:href="svgpan.js"/>
<svg id="graph" class="graph">
<g id="viewport">
<title>G</title>
<polygon fill="white" stroke="white" points="-4,5 -4,-388 970,-388 970,5 -4,5"/>
<!-- Node1 -->
<g id="node1" class="node"><title>Node1</title>
<polygon fill="#bfbfbf" stroke="black" points="198.5,-361 198.5,-383 249.5,-383 249.5,-361 198.5,-361"/>
<text text-anchor="middle" x="224" y="-370" font-family="FreeSans" font-size="10.00">mutex.h</text>
</g>
<!-- Node2 -->
<g id="node3" class="node"><title>Node2</title>
<a xlink:href="thread_8h.html" target="_top" xlink:title="This file defines a minimalistic cross&#45;platform thread that the scheduler uses to schedule tasks...">
<polygon fill="white" stroke="black" points="197.5,-301 197.5,-323 250.5,-323 250.5,-301 197.5,-301"/>
<text text-anchor="middle" x="224" y="-310" font-family="FreeSans" font-size="10.00">thread.h</text>
</a>
</g>
<!-- Node1&#45;&gt;Node2 -->
<g id="edge2" class="edge"><title>Node1&#45;&gt;Node2</title>
<path fill="none" stroke="midnightblue" d="M224,-350.918C224,-341.639 224,-331.108 224,-323.343"/>
<polygon fill="midnightblue" stroke="midnightblue" points="220.5,-350.995 224,-360.995 227.5,-350.995 220.5,-350.995"/>
</g>
<!-- Node4 -->
<g id="node7" class="node"><title>Node4</title>
<a xlink:href="workunit_8h.html" target="_top" xlink:title="This file has the defintion of the workunit.">
<polygon fill="white" stroke="black" points="338.5,-181 338.5,-203 399.5,-203 399.5,-181 338.5,-181"/>
<text text-anchor="middle" x="369" y="-190" font-family="FreeSans" font-size="10.00">workunit.h</text>
</a>
</g>
<!-- Node1&#45;&gt;Node4 -->
<g id="edge50" class="edge"><title>Node1&#45;&gt;Node4</title>
<path fill="none" stroke="midnightblue" d="M247.101,-354.498C271.934,-334.732 311.298,-300.531 337,-264 350.775,-244.422 360.67,-217.965 365.553,-203.183"/>
<polygon fill="midnightblue" stroke="midnightblue" points="244.683,-351.946 238.969,-360.867 249,-357.456 244.683,-351.946"/>
</g>
<!-- Node8 -->
<g id="node15" class="node"><title>Node8</title>
<a xlink:href="dagframescheduler_8h.html" target="_top" xlink:title="This is the file that code using this library should include. It includes all the required components...">
<polygon fill="white" stroke="black" points="159,-1 159,-23 271,-23 271,-1 159,-1"/>
<text text-anchor="middle" x="215" y="-10" font-family="FreeSans" font-size="10.00">dagframescheduler.h</text>
</a>
</g>
<!-- Node1&#45;&gt;Node8 -->
<g id="edge48" class="edge"><title>Node1&#45;&gt;Node8</title>
<path fill="none" stroke="midnightblue" d="M188.356,-369.058C125.145,-361.681 0,-336.418 0,-252 0,-252 0,-252 0,-132 0,-59.2236 95.0895,-30.1723 158.792,-18.8756"/>
<polygon fill="midnightblue" stroke="midnightblue" points="187.987,-372.538 198.304,-370.13 188.737,-365.578 187.987,-372.538"/>
</g>
<!-- Node3 -->
<g id="node5" class="node"><title>Node3</title>
<a xlink:href="framescheduler_8h.html" target="_top" xlink:title="This file has the Declarations for the main FrameScheduler class.">
<polygon fill="white" stroke="black" points="129,-241 129,-263 223,-263 223,-241 129,-241"/>
<text text-anchor="middle" x="176" y="-250" font-family="FreeSans" font-size="10.00">framescheduler.h</text>
</a>
</g>
<!-- Node2&#45;&gt;Node3 -->
<g id="edge4" class="edge"><title>Node2&#45;&gt;Node3</title>
<path fill="none" stroke="midnightblue" d="M208.81,-293.013C201.006,-283.258 191.759,-271.699 185.074,-263.343"/>
<polygon fill="midnightblue" stroke="midnightblue" points="206.216,-295.373 215.196,-300.995 211.682,-291 206.216,-295.373"/>
</g>
<!-- Node2&#45;&gt;Node4 -->
<g id="edge46" class="edge"><title>Node2&#45;&gt;Node4</title>
<path fill="none" stroke="midnightblue" d="M260.235,-296.348C276.982,-288.121 296.537,-277.031 312,-264 333.579,-245.815 352.566,-218.358 362.231,-203.143"/>
<polygon fill="midnightblue" stroke="midnightblue" points="258.281,-293.401 250.751,-300.854 261.285,-299.724 258.281,-293.401"/>
</g>
<!-- Node2&#45;&gt;Node8 -->
<g id="edge42" class="edge"><title>Node2&#45;&gt;Node8</title>
<path fill="none" stroke="midnightblue" d="M187.424,-305.485C133.247,-293.493 38,-262.399 38,-192 38,-192 38,-192 38,-132 38,-70.1859 112.872,-38.0175 165.225,-23.08"/>
<polygon fill="midnightblue" stroke="midnightblue" points="186.845,-308.94 197.351,-307.571 188.284,-302.089 186.845,-308.94"/>
</g>
<!-- Node16 -->
<g id="node38" class="node"><title>Node16</title>
<a xlink:href="thread_8cpp.html" target="_top" xlink:title="This file implements a minimalistic cross&#45;platform thread that the scheduler uses to schedule tasks...">
<polygon fill="white" stroke="black" points="240.5,-241 240.5,-263 303.5,-263 303.5,-241 240.5,-241"/>
<text text-anchor="middle" x="272" y="-250" font-family="FreeSans" font-size="10.00">thread.cpp</text>
</a>
</g>
<!-- Node2&#45;&gt;Node16 -->
<g id="edge44" class="edge"><title>Node2&#45;&gt;Node16</title>
<path fill="none" stroke="midnightblue" d="M239.19,-293.013C246.994,-283.258 256.241,-271.699 262.926,-263.343"/>
<polygon fill="midnightblue" stroke="midnightblue" points="236.318,-291 232.804,-300.995 241.784,-295.373 236.318,-291"/>
</g>
<!-- Node3&#45;&gt;Node4 -->
<g id="edge6" class="edge"><title>Node3&#45;&gt;Node4</title>
<path fill="none" stroke="midnightblue" d="M221.179,-237.955C257.211,-226.753 306.707,-211.366 338.279,-201.551"/>
<polygon fill="midnightblue" stroke="midnightblue" points="219.909,-234.684 211.399,-240.995 221.987,-241.369 219.909,-234.684"/>
</g>
<!-- Node3&#45;&gt;Node8 -->
<g id="edge38" class="edge"><title>Node3&#45;&gt;Node8</title>
<path fill="none" stroke="midnightblue" d="M160.407,-232.506C133.384,-196.188 83.9475,-116.716 119,-60 130.266,-41.7714 150.783,-30.2338 169.965,-23.0542"/>
<polygon fill="midnightblue" stroke="midnightblue" points="157.873,-234.954 166.73,-240.77 163.433,-230.701 157.873,-234.954"/>
</g>
<!-- Node13 -->
<g id="node28" class="node"><title>Node13</title>
<a xlink:href="framescheduler_8cpp.html" target="_top" xlink:title="This is the core object implementation for this algorithm.">
<polygon fill="white" stroke="black" points="344,-61 344,-83 448,-83 448,-61 344,-61"/>
<text text-anchor="middle" x="396" y="-70" font-family="FreeSans" font-size="10.00">framescheduler.cpp</text>
</a>
</g>
<!-- Node3&#45;&gt;Node13 -->
<g id="edge40" class="edge"><title>Node3&#45;&gt;Node13</title>
<path fill="none" stroke="midnightblue" d="M196.29,-233.699C225.336,-207.711 280.712,-158.945 330,-120 346.675,-106.824 366.468,-92.6092 380.001,-83.0965"/>
<polygon fill="midnightblue" stroke="midnightblue" points="193.595,-231.414 188.489,-240.698 198.269,-236.624 193.595,-231.414"/>
</g>
<!-- Node5 -->
<g id="node9" class="node"><title>Node5</title>
<a xlink:href="asynchronousworkunit_8h.html" target="_top" xlink:title="Contains an interface for a kind of WorkUnit that loads or does other work even when the frame schedu...">
<polygon fill="white" stroke="black" points="652.5,-121 652.5,-143 775.5,-143 775.5,-121 652.5,-121"/>
<text text-anchor="middle" x="714" y="-130" font-family="FreeSans" font-size="10.00">asynchronousworkunit.h</text>
</a>
</g>
<!-- Node4&#45;&gt;Node5 -->
<g id="edge8" class="edge"><title>Node4&#45;&gt;Node5</title>
<path fill="none" stroke="midnightblue" d="M409.836,-184.898C469.834,-174.464 582.26,-154.911 652.343,-142.723"/>
<polygon fill="midnightblue" stroke="midnightblue" points="408.869,-181.514 399.616,-186.675 410.068,-188.41 408.869,-181.514"/>
</g>
<!-- Node4&#45;&gt;Node8 -->
<g id="edge34" class="edge"><title>Node4&#45;&gt;Node8</title>
<path fill="none" stroke="midnightblue" d="M328.051,-189.25C268.566,-184.342 162.65,-171.85 138,-144 113.212,-115.995 114.397,-92.4447 133,-60 143.092,-42.3982 162.416,-30.6298 179.771,-23.1527"/>
<polygon fill="midnightblue" stroke="midnightblue" points="327.991,-192.757 338.236,-190.054 328.542,-185.778 327.991,-192.757"/>
</g>
<!-- Node10 -->
<g id="node20" class="node"><title>Node10</title>
<a xlink:href="frameschedulerworkunits_8h.html" target="_top" xlink:title="This defines a number of workunits that are required for doing some tasks that the Framescheduler req...">
<polygon fill="white" stroke="black" points="147,-121 147,-143 283,-143 283,-121 147,-121"/>
<text text-anchor="middle" x="215" y="-130" font-family="FreeSans" font-size="10.00">frameschedulerworkunits.h</text>
</a>
</g>
<!-- Node4&#45;&gt;Node10 -->
<g id="edge20" class="edge"><title>Node4&#45;&gt;Node10</title>
<path fill="none" stroke="midnightblue" d="M331.189,-177.269C304.038,-166.69 268.022,-152.658 243.327,-143.037"/>
<polygon fill="midnightblue" stroke="midnightblue" points="330.166,-180.626 340.754,-180.995 332.707,-174.103 330.166,-180.626"/>
</g>
<!-- Node12 -->
<g id="node25" class="node"><title>Node12</title>
<a xlink:href="monopoly_8h.html" target="_top" xlink:title="Contains an interface for a kind of WorkUnit that consumes time on multiple thread.">
<polygon fill="white" stroke="black" points="449,-121 449,-143 517,-143 517,-121 449,-121"/>
<text text-anchor="middle" x="483" y="-130" font-family="FreeSans" font-size="10.00">monopoly.h</text>
</a>
</g>
<!-- Node4&#45;&gt;Node12 -->
<g id="edge26" class="edge"><title>Node4&#45;&gt;Node12</title>
<path fill="none" stroke="midnightblue" d="M398.83,-176.3C418.621,-165.884 444.116,-152.465 461.837,-143.138"/>
<polygon fill="midnightblue" stroke="midnightblue" points="397.128,-173.24 389.909,-180.995 400.389,-179.435 397.128,-173.24"/>
</g>
<!-- Node15 -->
<g id="node33" class="node"><title>Node15</title>
<a xlink:href="workunit_8cpp.html" target="_top" xlink:title="This file has the implementation of the workunit.">
<polygon fill="white" stroke="black" points="338.5,-121 338.5,-143 409.5,-143 409.5,-121 338.5,-121"/>
<text text-anchor="middle" x="374" y="-130" font-family="FreeSans" font-size="10.00">workunit.cpp</text>
</a>
</g>
<!-- Node4&#45;&gt;Node15 -->
<g id="edge36" class="edge"><title>Node4&#45;&gt;Node15</title>
<path fill="none" stroke="midnightblue" d="M370.757,-170.918C371.53,-161.639 372.408,-151.108 373.055,-143.343"/>
<polygon fill="midnightblue" stroke="midnightblue" points="367.26,-170.739 369.917,-180.995 374.236,-171.32 367.26,-170.739"/>
</g>
<!-- Node6 -->
<g id="node11" class="node"><title>Node6</title>
<a xlink:href="asynchronousfileloadingworkunit_8h.html" target="_top" xlink:title="The declaration of the AsynchronousFileLoadWorkUnit a workunit that loads a listing of files asynchro...">
<polygon fill="white" stroke="black" points="790,-61 790,-83 960,-83 960,-61 790,-61"/>
<text text-anchor="middle" x="875" y="-70" font-family="FreeSans" font-size="10.00">asynchronousfileloadingworkunit.h</text>
</a>
</g>
<!-- Node5&#45;&gt;Node6 -->
<g id="edge10" class="edge"><title>Node5&#45;&gt;Node6</title>
<path fill="none" stroke="midnightblue" d="M753.156,-117.408C781.585,-106.813 819.454,-92.7002 845.385,-83.0366"/>
<polygon fill="midnightblue" stroke="midnightblue" points="751.678,-114.223 743.53,-120.995 754.123,-120.783 751.678,-114.223"/>
</g>
<!-- Node5&#45;&gt;Node8 -->
<g id="edge18" class="edge"><title>Node5&#45;&gt;Node8</title>
<path fill="none" stroke="midnightblue" d="M731.763,-112.926C744.301,-97.1355 756.648,-74.945 743,-60 711.655,-25.6762 401.033,-15.6339 271.384,-12.9245"/>
<polygon fill="midnightblue" stroke="midnightblue" points="728.749,-111.067 724.941,-120.954 734.084,-115.6 728.749,-111.067"/>
</g>
<!-- Node9 -->
<g id="node17" class="node"><title>Node9</title>
<a xlink:href="asynchronousworkunit_8cpp.html" target="_top" xlink:title="Contains very little actually.">
<polygon fill="white" stroke="black" points="600,-61 600,-83 734,-83 734,-61 600,-61"/>
<text text-anchor="middle" x="667" y="-70" font-family="FreeSans" font-size="10.00">asynchronousworkunit.cpp</text>
</a>
</g>
<!-- Node5&#45;&gt;Node9 -->
<g id="edge16" class="edge"><title>Node5&#45;&gt;Node9</title>
<path fill="none" stroke="midnightblue" d="M699.127,-113.013C691.485,-103.258 682.431,-91.6991 675.885,-83.3428"/>
<polygon fill="midnightblue" stroke="midnightblue" points="696.458,-115.281 705.379,-120.995 701.968,-110.964 696.458,-115.281"/>
</g>
<!-- Node7 -->
<g id="node13" class="node"><title>Node7</title>
<a xlink:href="asynchronousfileloadingworkunit_8cpp.html" target="_top" xlink:title="The implemtation of the AsynchronousFileLoadWorkUnit a workunit that loads a listing of files asynchr...">
<polygon fill="white" stroke="black" points="785,-1 785,-23 965,-23 965,-1 785,-1"/>
<text text-anchor="middle" x="875" y="-10" font-family="FreeSans" font-size="10.00">asynchronousfileloadingworkunit.cpp</text>
</a>
</g>
<!-- Node6&#45;&gt;Node7 -->
<g id="edge12" class="edge"><title>Node6&#45;&gt;Node7</title>
<path fill="none" stroke="midnightblue" d="M875,-50.9183C875,-41.6393 875,-31.1082 875,-23.3428"/>
<polygon fill="midnightblue" stroke="midnightblue" points="871.5,-50.995 875,-60.9951 878.5,-50.9951 871.5,-50.995"/>
</g>
<!-- Node6&#45;&gt;Node8 -->
<g id="edge14" class="edge"><title>Node6&#45;&gt;Node8</title>
<path fill="none" stroke="midnightblue" d="M779.877,-60.4051C778.576,-60.2678 777.284,-60.1327 776,-60 591.499,-40.931 372.296,-23.7594 271.198,-16.1489"/>
<polygon fill="midnightblue" stroke="midnightblue" points="779.648,-63.9007 789.966,-61.4964 780.401,-56.9412 779.648,-63.9007"/>
</g>
<!-- Node10&#45;&gt;Node8 -->
<g id="edge22" class="edge"><title>Node10&#45;&gt;Node8</title>
<path fill="none" stroke="midnightblue" d="M259.295,-116.604C273.954,-109.152 288.642,-98.5765 297,-84 312.313,-57.2927 275.146,-35.4804 245.953,-23.1098"/>
<polygon fill="midnightblue" stroke="midnightblue" points="257.802,-113.438 250.229,-120.847 260.77,-119.778 257.802,-113.438"/>
</g>
<!-- Node11 -->
<g id="node23" class="node"><title>Node11</title>
<a xlink:href="frameschedulerworkunits_8cpp.html" target="_top" xlink:title="The implementation of any workunits the framescheduler needs to work correctly.">
<polygon fill="white" stroke="black" points="142,-61 142,-83 288,-83 288,-61 142,-61"/>
<text text-anchor="middle" x="215" y="-70" font-family="FreeSans" font-size="10.00">frameschedulerworkunits.cpp</text>
</a>
</g>
<!-- Node10&#45;&gt;Node11 -->
<g id="edge24" class="edge"><title>Node10&#45;&gt;Node11</title>
<path fill="none" stroke="midnightblue" d="M215,-110.918C215,-101.639 215,-91.1082 215,-83.3428"/>
<polygon fill="midnightblue" stroke="midnightblue" points="211.5,-110.995 215,-120.995 218.5,-110.995 211.5,-110.995"/>
</g>
<!-- Node12&#45;&gt;Node8 -->
<g id="edge28" class="edge"><title>Node12&#45;&gt;Node8</title>
<path fill="none" stroke="midnightblue" d="M516.386,-116.185C542.08,-101.917 570.481,-80.139 553,-60 534.812,-39.0471 362.397,-23.0654 271.103,-15.9927"/>
<polygon fill="midnightblue" stroke="midnightblue" points="514.684,-113.126 507.49,-120.904 517.964,-119.31 514.684,-113.126"/>
</g>
<!-- Node12&#45;&gt;Node13 -->
<g id="edge30" class="edge"><title>Node12&#45;&gt;Node13</title>
<path fill="none" stroke="midnightblue" d="M458.787,-115.302C443.905,-105.038 425.246,-92.1696 412.151,-83.1383"/>
<polygon fill="midnightblue" stroke="midnightblue" points="456.824,-118.199 467.043,-120.995 460.798,-112.436 456.824,-118.199"/>
</g>
<!-- Node14 -->
<g id="node30" class="node"><title>Node14</title>
<a xlink:href="monopoly_8cpp.html" target="_top" xlink:title="Contains the minimal implementation for the monopoly base class.">
<polygon fill="white" stroke="black" points="465.5,-61 465.5,-83 544.5,-83 544.5,-61 465.5,-61"/>
<text text-anchor="middle" x="505" y="-70" font-family="FreeSans" font-size="10.00">monopoly.cpp</text>
</a>
</g>
<!-- Node12&#45;&gt;Node14 -->
<g id="edge32" class="edge"><title>Node12&#45;&gt;Node14</title>
<path fill="none" stroke="midnightblue" d="M490.509,-111.522C493.964,-102.098 497.932,-91.277 500.841,-83.3428"/>
<polygon fill="midnightblue" stroke="midnightblue" points="487.192,-110.401 487.035,-120.995 493.764,-112.811 487.192,-110.401"/>
</g>
</g>
</svg>
        <g id="navigator" transform="translate(0 0)" fill="#404254">
                <rect fill="#f2f5e9" fill-opacity="0.5" stroke="#606060" stroke-width=".5" x="0" y="0" width="60" height="60"/>
                <use id="zoomplus" xlink:href="#zoomPlus" x="17" y="9" onmousedown="handleZoom(evt,'in')"/>
                <use id="zoomminus" xlink:href="#zoomMin" x="42" y="9" onmousedown="handleZoom(evt,'out')"/>
                <use id="reset" xlink:href="#resetDef" x="30" y="36" onmousedown="handleReset()"/>
                <g id="arrowUp" xlink:href="#dirArrow" transform="translate(30 24)" onmousedown="handlePan(0,-1)">
                  <use xlink:href="#rim" fill="#404040">
                        <set attributeName="fill" to="#808080" begin="arrowUp.mouseover" end="arrowUp.mouseout"/>
                  </use>
                  <path fill="none" stroke="white" stroke-width="1.5" d="M0,-3.0v7 M-2.5,-0.5L0,-3.0L2.5,-0.5"/>
                </g>
                <g id="arrowRight" xlink:href="#dirArrow" transform="rotate(90) translate(36 -43)" onmousedown="handlePan(1,0)">
                  <use xlink:href="#rim" fill="#404040">
                        <set attributeName="fill" to="#808080" begin="arrowRight.mouseover" end="arrowRight.mouseout"/>
                  </use>
                  <path fill="none" stroke="white" stroke-width="1.5" d="M0,-3.0v7 M-2.5,-0.5L0,-3.0L2.5,-0.5"/>
                </g>
                <g id="arrowDown" xlink:href="#dirArrow" transform="rotate(180) translate(-30 -48)" onmousedown="handlePan(0,1)">
                  <use xlink:href="#rim" fill="#404040">
                        <set attributeName="fill" to="#808080" begin="arrowDown.mouseover" end="arrowDown.mouseout"/>
                  </use>
                  <path fill="none" stroke="white" stroke-width="1.5" d="M0,-3.0v7 M-2.5,-0.5L0,-3.0L2.5,-0.5"/>
                </g>
                <g id="arrowLeft" xlink:href="#dirArrow" transform="rotate(270) translate(-36 17)" onmousedown="handlePan(-1,0)">
                  <use xlink:href="#rim" fill="#404040">
                        <set attributeName="fill" to="#808080" begin="arrowLeft.mouseover" end="arrowLeft.mouseout"/>
                  </use>
                  <path fill="none" stroke="white" stroke-width="1.5" d="M0,-3.0v7 M-2.5,-0.5L0,-3.0L2.5,-0.5"/>
                </g>
        </g>
</svg>
