<?xml version="1.0" encoding="UTF-8" standalone="no"?>
<!DOCTYPE svg PUBLIC "-//W3C//DTD SVG 1.1//EN"
 "http://www.w3.org/Graphics/SVG/1.1/DTD/svg11.dtd">
<!-- Generated by graphviz version 2.26.3 (20100126.1600)
 -->
<!-- Title: readwritespinlock.h Pages: 1 -->
<svg width="240pt" height="88pt"
 viewBox="0.00 0.00 240.00 88.00" xmlns="http://www.w3.org/2000/svg" xmlns:xlink="http://www.w3.org/1999/xlink">
<g id="graph1" class="graph" transform="scale(1 1) rotate(0) translate(4 84)">
<title>readwritespinlock.h</title>
<polygon fill="white" stroke="white" points="-4,5 -4,-84 237,-84 237,5 -4,5"/>
<!-- Node1 -->
<g id="node1" class="node"><title>Node1</title>
<polygon fill="#bfbfbf" stroke="black" points="66,-59 66,-79 164,-79 164,-59 66,-59"/>
<text text-anchor="middle" x="115" y="-66" font-family="FreeSans" font-size="10.00">readwritespinlock.h</text>
</g>
<!-- Node2 -->
<g id="node3" class="node"><title>Node2</title>
<a xlink:href="dagframescheduler_8h.html" target="_top" xlink:title="This is the file that code using this library should include. It includes all the required components...">
<polygon fill="white" stroke="black" points="0,-1 0,-21 106,-21 106,-1 0,-1"/>
<text text-anchor="middle" x="53" y="-8" font-family="FreeSans" font-size="10.00">dagframescheduler.h</text>
</a>
</g>
<!-- Node1&#45;&gt;Node2 -->
<g id="edge2" class="edge"><title>Node1&#45;&gt;Node2</title>
<path fill="none" stroke="midnightblue" d="M96.6779,-51.86C86.0976,-41.9622 73.1369,-29.8377 64.0933,-21.3776"/>
<polygon fill="midnightblue" stroke="midnightblue" points="94.5066,-54.6215 104.2,-58.8972 99.2887,-49.5096 94.5066,-54.6215"/>
</g>
<!-- Node3 -->
<g id="node5" class="node"><title>Node3</title>
<a xlink:href="readwritespinlock_8cpp.html" target="_top" xlink:title="Contains the implementation for the Mezzanine::Threading::Mutex Mutex synchronization object...">
<polygon fill="white" stroke="black" points="123.5,-1 123.5,-21 232.5,-21 232.5,-1 123.5,-1"/>
<text text-anchor="middle" x="178" y="-8" font-family="FreeSans" font-size="10.00">readwritespinlock.cpp</text>
</a>
</g>
<!-- Node1&#45;&gt;Node3 -->
<g id="edge4" class="edge"><title>Node1&#45;&gt;Node3</title>
<path fill="none" stroke="midnightblue" d="M133.618,-51.86C144.369,-41.9622 157.538,-29.8377 166.728,-21.3776"/>
<polygon fill="midnightblue" stroke="midnightblue" points="130.96,-49.5491 125.974,-58.8972 135.701,-54.699 130.96,-49.5491"/>
</g>
</g>
</svg>
