<?xml version="1.0" encoding="UTF-8" standalone="no"?>
<!DOCTYPE svg PUBLIC "-//W3C//DTD SVG 1.1//EN"
 "http://www.w3.org/Graphics/SVG/1.1/DTD/svg11.dtd">
<!-- Generated by graphviz version 2.26.3 (20100126.1600)
 -->
<!-- Title: readwritespinlock.cpp Pages: 1 -->
<!--zoomable 262 -->
<svg id="main" version="1.1" xmlns="http://www.w3.org/2000/svg" xmlns:xlink="http://www.w3.org/1999/xlink" xml:space="preserve" onload="init(evt)">
<style type="text/css"><![CDATA[
.edge:hover path { stroke: red; }
.edge:hover polygon { stroke: red; fill: red; }
]]></style>
<script type="text/javascript"><![CDATA[
var edges = document.getElementsByTagName('g');
if (edges && edges.length) {
  for (var i=0;i<edges.length;i++) {
    if (edges[i].id.substr(0,4)=='edge') {
      edges[i].setAttribute('class','edge');
    }
  }
}
]]></script>
        <defs>
                <circle id="rim" cx="0" cy="0" r="7"/>
                <circle id="rim2" cx="0" cy="0" r="3.5"/>
                <g id="zoomPlus">
                        <use xlink:href="#rim" fill="#404040">
                                <set attributeName="fill" to="#808080" begin="zoomplus.mouseover" end="zoomplus.mouseout"/>
                        </use>
                        <path d="M-4,0h8M0,-4v8" fill="none" stroke="white" stroke-width="1.5" pointer-events="none"/>
                </g>
                <g id="zoomMin">
                        <use xlink:href="#rim" fill="#404040">
                                <set attributeName="fill" to="#808080" begin="zoomminus.mouseover" end="zoomminus.mouseout"/>
                        </use>
                        <path d="M-4,0h8" fill="none" stroke="white" stroke-width="1.5" pointer-events="none"/>
                </g>
                <g id="dirArrow">
                        <path fill="none" stroke="white" stroke-width="1.5" d="M0,-3.0v7 M-2.5,-0.5L0,-3.0L2.5,-0.5"/>
                </g>
               <g id="resetDef">
                       <use xlink:href="#rim2" fill="#404040">
                               <set attributeName="fill" to="#808080" begin="reset.mouseover" end="reset.mouseout"/>
                       </use>
               </g>
        </defs>

<script type="text/javascript">
var viewWidth = 819;
var viewHeight = 262;
var sectionId = 'dynsection-0';
</script>
<script xlink:href="svgpan.js"/>
<svg id="graph" class="graph">
<g id="viewport">
<title>readwritespinlock.cpp</title>
<polygon fill="white" stroke="white" points="-4,5 -4,-258 816,-258 816,5 -4,5"/>
<!-- Node1 -->
<g id="node1" class="node"><title>Node1</title>
<polygon fill="#bfbfbf" stroke="black" points="538.5,-233 538.5,-253 647.5,-253 647.5,-233 538.5,-233"/>
<text text-anchor="middle" x="593" y="-240" font-family="FreeSans" font-size="10.00">readwritespinlock.cpp</text>
</g>
<!-- Node2 -->
<g id="node3" class="node"><title>Node2</title>
<a xlink:href="atomicoperations_8h.html" target="_top" xlink:title="Simple thread safe ways to check and change a specified variable atomically. ">
<polygon fill="white" stroke="black" points="256,-175 256,-195 354,-195 354,-175 256,-175"/>
<text text-anchor="middle" x="305" y="-182" font-family="FreeSans" font-size="10.00">atomicoperations.h</text>
</a>
</g>
<!-- Node1&#45;&gt;Node2 -->
<g id="edge2" class="edge"><title>Node1&#45;&gt;Node2</title>
<path fill="none" stroke="midnightblue" d="M543.163,-232.963C493.403,-222.942 416.929,-207.541 364.128,-196.908"/>
<polygon fill="midnightblue" stroke="midnightblue" points="364.721,-193.457 354.227,-194.914 363.339,-200.319 364.721,-193.457"/>
</g>
<!-- Node14 -->
<g id="node27" class="node"><title>Node14</title>
<a xlink:href="readwritespinlock_8h.html" target="_top" xlink:title="Declares a Mutex, Mutex tools, and at least one MutexLike object. ">
<polygon fill="white" stroke="black" points="403,-175 403,-195 501,-195 501,-175 403,-175"/>
<text text-anchor="middle" x="452" y="-182" font-family="FreeSans" font-size="10.00">readwritespinlock.h</text>
</a>
</g>
<!-- Node1&#45;&gt;Node14 -->
<g id="edge26" class="edge"><title>Node1&#45;&gt;Node14</title>
<path fill="none" stroke="midnightblue" d="M568.44,-232.897C545.632,-223.515 511.461,-209.459 486.029,-198.998"/>
<polygon fill="midnightblue" stroke="midnightblue" points="487.332,-195.749 476.752,-195.182 484.669,-202.223 487.332,-195.749"/>
</g>
<!-- Node17 -->
<g id="node35" class="node"><title>Node17</title>
<a xlink:href="crossplatformincludes_8h.html" target="_top" xlink:title="This file determines what features are offered by the compiler that this library can take advantage o...">
<polygon fill="white" stroke="black" points="534.5,-175 534.5,-195 651.5,-195 651.5,-175 534.5,-175"/>
<text text-anchor="middle" x="593" y="-182" font-family="FreeSans" font-size="10.00">crossplatformincludes.h</text>
</a>
</g>
<!-- Node1&#45;&gt;Node17 -->
<g id="edge36" class="edge"><title>Node1&#45;&gt;Node17</title>
<path fill="none" stroke="midnightblue" d="M593,-232.897C593,-225.339 593,-214.748 593,-205.446"/>
<polygon fill="midnightblue" stroke="midnightblue" points="596.5,-205.378 593,-195.378 589.5,-205.378 596.5,-205.378"/>
</g>
<!-- Node22 -->
<g id="node46" class="node"><title>Node22</title>
<polygon fill="white" stroke="#bfbfbf" points="668.5,-175 668.5,-195 707.5,-195 707.5,-175 668.5,-175"/>
<text text-anchor="middle" x="688" y="-182" font-family="FreeSans" font-size="10.00">limits</text>
</g>
<!-- Node1&#45;&gt;Node22 -->
<g id="edge48" class="edge"><title>Node1&#45;&gt;Node22</title>
<path fill="none" stroke="midnightblue" d="M609.548,-232.897C624.17,-223.97 645.724,-210.811 662.541,-200.543"/>
<polygon fill="midnightblue" stroke="midnightblue" points="664.612,-203.38 671.323,-195.182 660.964,-197.405 664.612,-203.38"/>
</g>
<!-- Node23 -->
<g id="node48" class="node"><title>Node23</title>
<polygon fill="white" stroke="#bfbfbf" points="724.5,-175 724.5,-195 771.5,-195 771.5,-175 724.5,-175"/>
<text text-anchor="middle" x="748" y="-182" font-family="FreeSans" font-size="10.00">cassert</text>
</g>
<!-- Node1&#45;&gt;Node23 -->
<g id="edge50" class="edge"><title>Node1&#45;&gt;Node23</title>
<path fill="none" stroke="midnightblue" d="M619.999,-232.897C646.379,-223.026 686.585,-207.981 714.883,-197.392"/>
<polygon fill="midnightblue" stroke="midnightblue" points="716.214,-200.631 724.353,-193.848 713.761,-194.075 716.214,-200.631"/>
</g>
<!-- Node3 -->
<g id="node5" class="node"><title>Node3</title>
<a xlink:href="datatypes_8h.html" target="_top" xlink:title="This file declares a few typedefs to allow flexibility, in case a change is required/desired. ">
<polygon fill="white" stroke="black" points="276.5,-59 276.5,-79 341.5,-79 341.5,-59 276.5,-59"/>
<text text-anchor="middle" x="309" y="-66" font-family="FreeSans" font-size="10.00">datatypes.h</text>
</a>
</g>
<!-- Node2&#45;&gt;Node3 -->
<g id="edge4" class="edge"><title>Node2&#45;&gt;Node3</title>
<path fill="none" stroke="midnightblue" d="M305.355,-174.706C306.015,-155.568 307.441,-114.198 308.301,-89.2654"/>
<polygon fill="midnightblue" stroke="midnightblue" points="311.805,-89.2202 308.652,-79.1055 304.809,-88.9789 311.805,-89.2202"/>
</g>
<!-- Node4 -->
<g id="node7" class="node"><title>Node4</title>
<a xlink:href="crossplatformexport_8h.html" target="_top" xlink:title="This file determines what features are offered by the compiler that this library can take advantage o...">
<polygon fill="white" stroke="black" points="556,-1 556,-21 664,-21 664,-1 556,-1"/>
<text text-anchor="middle" x="610" y="-8" font-family="FreeSans" font-size="10.00">crossplatformexport.h</text>
</a>
</g>
<!-- Node3&#45;&gt;Node4 -->
<g id="edge6" class="edge"><title>Node3&#45;&gt;Node4</title>
<path fill="none" stroke="midnightblue" d="M341.785,-62.6826C391.075,-53.1849 485.15,-35.0574 547.742,-22.9965"/>
<polygon fill="midnightblue" stroke="midnightblue" points="548.733,-26.3701 557.89,-21.0411 547.408,-19.4965 548.733,-26.3701"/>
</g>
<!-- Node5 -->
<g id="node9" class="node"><title>Node5</title>
<polygon fill="white" stroke="#bfbfbf" points="-0.5,-1 -0.5,-21 42.5,-21 42.5,-1 -0.5,-1"/>
<text text-anchor="middle" x="21" y="-8" font-family="FreeSans" font-size="10.00">vector</text>
</g>
<!-- Node3&#45;&gt;Node5 -->
<g id="edge8" class="edge"><title>Node3&#45;&gt;Node5</title>
<path fill="none" stroke="midnightblue" d="M276.425,-64.8908C228.923,-58.5059 137.819,-44.7773 52.6347,-22.146"/>
<polygon fill="midnightblue" stroke="midnightblue" points="53.382,-18.7224 42.8149,-19.4896 51.554,-25.4795 53.382,-18.7224"/>
</g>
<!-- Node6 -->
<g id="node11" class="node"><title>Node6</title>
<polygon fill="white" stroke="#bfbfbf" points="60,-1 60,-21 100,-21 100,-1 60,-1"/>
<text text-anchor="middle" x="80" y="-8" font-family="FreeSans" font-size="10.00">string</text>
</g>
<!-- Node3&#45;&gt;Node6 -->
<g id="edge10" class="edge"><title>Node3&#45;&gt;Node6</title>
<path fill="none" stroke="midnightblue" d="M276.436,-62.7234C238.51,-55.1143 173.865,-41.2216 109.991,-22.0338"/>
<polygon fill="midnightblue" stroke="midnightblue" points="110.75,-18.6062 100.164,-19.037 108.708,-25.3018 110.75,-18.6062"/>
</g>
<!-- Node7 -->
<g id="node13" class="node"><title>Node7</title>
<polygon fill="white" stroke="#bfbfbf" points="117.5,-1 117.5,-21 168.5,-21 168.5,-1 117.5,-1"/>
<text text-anchor="middle" x="143" y="-8" font-family="FreeSans" font-size="10.00">ostream</text>
</g>
<!-- Node3&#45;&gt;Node7 -->
<g id="edge12" class="edge"><title>Node3&#45;&gt;Node7</title>
<path fill="none" stroke="midnightblue" d="M280.085,-58.8972C251.793,-49.0121 208.652,-33.9385 178.339,-23.3473"/>
<polygon fill="midnightblue" stroke="midnightblue" points="179.186,-19.9357 168.591,-19.9413 176.877,-26.544 179.186,-19.9357"/>
</g>
<!-- Node8 -->
<g id="node15" class="node"><title>Node8</title>
<polygon fill="white" stroke="#bfbfbf" points="185.5,-1 185.5,-21 220.5,-21 220.5,-1 185.5,-1"/>
<text text-anchor="middle" x="203" y="-8" font-family="FreeSans" font-size="10.00">map</text>
</g>
<!-- Node3&#45;&gt;Node8 -->
<g id="edge14" class="edge"><title>Node3&#45;&gt;Node8</title>
<path fill="none" stroke="midnightblue" d="M290.536,-58.8972C273.613,-49.6371 248.368,-35.824 229.331,-25.4077"/>
<polygon fill="midnightblue" stroke="midnightblue" points="231.001,-22.3317 220.548,-20.6019 227.641,-28.4725 231.001,-22.3317"/>
</g>
<!-- Node9 -->
<g id="node17" class="node"><title>Node9</title>
<polygon fill="white" stroke="#bfbfbf" points="237.5,-1 237.5,-21 266.5,-21 266.5,-1 237.5,-1"/>
<text text-anchor="middle" x="252" y="-8" font-family="FreeSans" font-size="10.00">set</text>
</g>
<!-- Node3&#45;&gt;Node9 -->
<g id="edge16" class="edge"><title>Node3&#45;&gt;Node9</title>
<path fill="none" stroke="midnightblue" d="M299.071,-58.8972C290.917,-50.5996 279.17,-38.6463 269.451,-28.7569"/>
<polygon fill="midnightblue" stroke="midnightblue" points="271.704,-26.0566 262.199,-21.3776 266.712,-30.9632 271.704,-26.0566"/>
</g>
<!-- Node10 -->
<g id="node19" class="node"><title>Node10</title>
<polygon fill="white" stroke="#bfbfbf" points="284,-1 284,-21 334,-21 334,-1 284,-1"/>
<text text-anchor="middle" x="309" y="-8" font-family="FreeSans" font-size="10.00">sstream</text>
</g>
<!-- Node3&#45;&gt;Node10 -->
<g id="edge18" class="edge"><title>Node3&#45;&gt;Node10</title>
<path fill="none" stroke="midnightblue" d="M309,-58.8972C309,-51.339 309,-40.7476 309,-31.4458"/>
<polygon fill="midnightblue" stroke="midnightblue" points="312.5,-31.3776 309,-21.3776 305.5,-31.3776 312.5,-31.3776"/>
</g>
<!-- Node11 -->
<g id="node21" class="node"><title>Node11</title>
<polygon fill="white" stroke="#bfbfbf" points="351.5,-1 351.5,-21 400.5,-21 400.5,-1 351.5,-1"/>
<text text-anchor="middle" x="376" y="-8" font-family="FreeSans" font-size="10.00">fstream</text>
</g>
<!-- Node3&#45;&gt;Node11 -->
<g id="edge20" class="edge"><title>Node3&#45;&gt;Node11</title>
<path fill="none" stroke="midnightblue" d="M320.671,-58.8972C330.445,-50.4353 344.612,-38.1715 356.163,-28.1719"/>
<polygon fill="midnightblue" stroke="midnightblue" points="358.742,-30.5689 364.012,-21.3776 354.161,-25.2764 358.742,-30.5689"/>
</g>
<!-- Node12 -->
<g id="node23" class="node"><title>Node12</title>
<polygon fill="white" stroke="#bfbfbf" points="418,-1 418,-21 474,-21 474,-1 418,-1"/>
<text text-anchor="middle" x="446" y="-8" font-family="FreeSans" font-size="10.00">algorithm</text>
</g>
<!-- Node3&#45;&gt;Node12 -->
<g id="edge22" class="edge"><title>Node3&#45;&gt;Node12</title>
<path fill="none" stroke="midnightblue" d="M332.864,-58.8972C354.927,-49.5565 387.933,-35.5831 412.609,-25.1363"/>
<polygon fill="midnightblue" stroke="midnightblue" points="414.106,-28.3034 421.95,-21.1817 411.377,-21.8573 414.106,-28.3034"/>
</g>
<!-- Node13 -->
<g id="node25" class="node"><title>Node13</title>
<polygon fill="white" stroke="#bfbfbf" points="491.5,-1 491.5,-21 538.5,-21 538.5,-1 491.5,-1"/>
<text text-anchor="middle" x="515" y="-8" font-family="FreeSans" font-size="10.00">stdint.h</text>
</g>
<!-- Node3&#45;&gt;Node13 -->
<g id="edge24" class="edge"><title>Node3&#45;&gt;Node13</title>
<path fill="none" stroke="midnightblue" d="M341.576,-60.8987C374.689,-52.511 427.654,-38.6757 481.574,-22.3206"/>
<polygon fill="midnightblue" stroke="midnightblue" points="482.754,-25.62 491.292,-19.3481 480.706,-18.9261 482.754,-25.62"/>
</g>
<!-- Node14&#45;&gt;Node3 -->
<g id="edge28" class="edge"><title>Node14&#45;&gt;Node3</title>
<path fill="none" stroke="midnightblue" d="M414.184,-174.986C392.219,-167.641 365.184,-155.799 346,-138 331.427,-124.479 321.429,-103.887 315.535,-88.7164"/>
<polygon fill="midnightblue" stroke="midnightblue" points="318.797,-87.4461 312.104,-79.2331 312.215,-89.8274 318.797,-87.4461"/>
</g>
<!-- Node15 -->
<g id="node30" class="node"><title>Node15</title>
<a xlink:href="lockguard_8h.html" target="_top" xlink:title="Declares a tool for automatically unlocking a mutex in an exception safe way. ">
<polygon fill="white" stroke="black" points="355,-117 355,-137 421,-137 421,-117 355,-117"/>
<text text-anchor="middle" x="388" y="-124" font-family="FreeSans" font-size="10.00">lockguard.h</text>
</a>
</g>
<!-- Node14&#45;&gt;Node15 -->
<g id="edge30" class="edge"><title>Node14&#45;&gt;Node15</title>
<path fill="none" stroke="midnightblue" d="M440.852,-174.897C431.515,-166.435 417.982,-154.172 406.948,-144.172"/>
<polygon fill="midnightblue" stroke="midnightblue" points="409.211,-141.499 399.451,-137.378 404.511,-146.686 409.211,-141.499"/>
</g>
<!-- Node16 -->
<g id="node32" class="node"><title>Node16</title>
<a xlink:href="spinlock_8h.html" target="_top" xlink:title="Declares a Mutex, Mutex tools, and at least one MutexLike object. ">
<polygon fill="white" stroke="black" points="438.5,-117 438.5,-137 497.5,-137 497.5,-117 438.5,-117"/>
<text text-anchor="middle" x="468" y="-124" font-family="FreeSans" font-size="10.00">spinlock.h</text>
</a>
</g>
<!-- Node14&#45;&gt;Node16 -->
<g id="edge32" class="edge"><title>Node14&#45;&gt;Node16</title>
<path fill="none" stroke="midnightblue" d="M454.787,-174.897C456.895,-167.257 459.857,-156.517 462.443,-147.143"/>
<polygon fill="midnightblue" stroke="midnightblue" points="465.852,-147.948 465.137,-137.378 459.104,-146.087 465.852,-147.948"/>
</g>
<!-- Node16&#45;&gt;Node3 -->
<g id="edge34" class="edge"><title>Node16&#45;&gt;Node3</title>
<path fill="none" stroke="midnightblue" d="M440.304,-116.897C414.278,-107.403 375.133,-93.124 346.353,-82.6258"/>
<polygon fill="midnightblue" stroke="midnightblue" points="347.239,-79.2231 336.645,-79.0842 344.84,-85.7992 347.239,-79.2231"/>
</g>
<!-- Node17&#45;&gt;Node4 -->
<g id="edge38" class="edge"><title>Node17&#45;&gt;Node4</title>
<path fill="none" stroke="midnightblue" d="M593.987,-174.893C596.71,-147.023 604.365,-68.6753 608.015,-31.3131"/>
<polygon fill="midnightblue" stroke="midnightblue" points="611.521,-31.4279 609.01,-21.135 604.554,-30.7472 611.521,-31.4279"/>
</g>
<!-- Node18 -->
<g id="node38" class="node"><title>Node18</title>
<polygon fill="white" stroke="#bfbfbf" points="621,-117 621,-137 677,-137 677,-117 621,-117"/>
<text text-anchor="middle" x="649" y="-124" font-family="FreeSans" font-size="10.00">pthread.h</text>
</g>
<!-- Node17&#45;&gt;Node18 -->
<g id="edge40" class="edge"><title>Node17&#45;&gt;Node18</title>
<path fill="none" stroke="midnightblue" d="M602.754,-174.897C610.766,-166.6 622.307,-154.646 631.855,-144.757"/>
<polygon fill="midnightblue" stroke="midnightblue" points="634.552,-147.003 638.98,-137.378 629.516,-142.141 634.552,-147.003"/>
</g>
<!-- Node19 -->
<g id="node40" class="node"><title>Node19</title>
<polygon fill="white" stroke="#bfbfbf" points="694.5,-117 694.5,-137 743.5,-137 743.5,-117 694.5,-117"/>
<text text-anchor="middle" x="719" y="-124" font-family="FreeSans" font-size="10.00">signal.h</text>
</g>
<!-- Node17&#45;&gt;Node19 -->
<g id="edge42" class="edge"><title>Node17&#45;&gt;Node19</title>
<path fill="none" stroke="midnightblue" d="M614.948,-174.897C635.06,-165.639 665.059,-151.83 687.686,-141.415"/>
<polygon fill="midnightblue" stroke="midnightblue" points="689.261,-144.542 696.881,-137.182 686.334,-138.184 689.261,-144.542"/>
</g>
<!-- Node20 -->
<g id="node42" class="node"><title>Node20</title>
<polygon fill="white" stroke="#bfbfbf" points="761,-117 761,-137 811,-137 811,-117 761,-117"/>
<text text-anchor="middle" x="786" y="-124" font-family="FreeSans" font-size="10.00">sched.h</text>
</g>
<!-- Node17&#45;&gt;Node20 -->
<g id="edge44" class="edge"><title>Node17&#45;&gt;Node20</title>
<path fill="none" stroke="midnightblue" d="M627.816,-174.985C658.064,-166.223 703.283,-152.978 751.164,-138.213"/>
<polygon fill="midnightblue" stroke="midnightblue" points="752.253,-141.54 760.772,-135.241 750.184,-134.853 752.253,-141.54"/>
</g>
<!-- Node21 -->
<g id="node44" class="node"><title>Node21</title>
<polygon fill="white" stroke="#bfbfbf" points="515,-117 515,-137 565,-137 565,-117 515,-117"/>
<text text-anchor="middle" x="540" y="-124" font-family="FreeSans" font-size="10.00">unistd.h</text>
</g>
<!-- Node17&#45;&gt;Node21 -->
<g id="edge46" class="edge"><title>Node17&#45;&gt;Node21</title>
<path fill="none" stroke="midnightblue" d="M583.768,-174.897C576.261,-166.682 565.479,-154.883 556.495,-145.051"/>
<polygon fill="midnightblue" stroke="midnightblue" points="558.812,-142.399 549.483,-137.378 553.645,-147.121 558.812,-142.399"/>
</g>
</g>
</svg>
        <g id="navigator" transform="translate(0 0)" fill="#404254">
                <rect fill="#f2f5e9" fill-opacity="0.5" stroke="#606060" stroke-width=".5" x="0" y="0" width="60" height="60"/>
                <use id="zoomplus" xlink:href="#zoomPlus" x="17" y="9" onmousedown="handleZoom(evt,'in')"/>
                <use id="zoomminus" xlink:href="#zoomMin" x="42" y="9" onmousedown="handleZoom(evt,'out')"/>
                <use id="reset" xlink:href="#resetDef" x="30" y="36" onmousedown="handleReset()"/>
                <g id="arrowUp" xlink:href="#dirArrow" transform="translate(30 24)" onmousedown="handlePan(0,-1)">
                  <use xlink:href="#rim" fill="#404040">
                        <set attributeName="fill" to="#808080" begin="arrowUp.mouseover" end="arrowUp.mouseout"/>
                  </use>
                  <path fill="none" stroke="white" stroke-width="1.5" d="M0,-3.0v7 M-2.5,-0.5L0,-3.0L2.5,-0.5"/>
                </g>
                <g id="arrowRight" xlink:href="#dirArrow" transform="rotate(90) translate(36 -43)" onmousedown="handlePan(1,0)">
                  <use xlink:href="#rim" fill="#404040">
                        <set attributeName="fill" to="#808080" begin="arrowRight.mouseover" end="arrowRight.mouseout"/>
                  </use>
                  <path fill="none" stroke="white" stroke-width="1.5" d="M0,-3.0v7 M-2.5,-0.5L0,-3.0L2.5,-0.5"/>
                </g>
                <g id="arrowDown" xlink:href="#dirArrow" transform="rotate(180) translate(-30 -48)" onmousedown="handlePan(0,1)">
                  <use xlink:href="#rim" fill="#404040">
                        <set attributeName="fill" to="#808080" begin="arrowDown.mouseover" end="arrowDown.mouseout"/>
                  </use>
                  <path fill="none" stroke="white" stroke-width="1.5" d="M0,-3.0v7 M-2.5,-0.5L0,-3.0L2.5,-0.5"/>
                </g>
                <g id="arrowLeft" xlink:href="#dirArrow" transform="rotate(270) translate(-36 17)" onmousedown="handlePan(-1,0)">
                  <use xlink:href="#rim" fill="#404040">
                        <set attributeName="fill" to="#808080" begin="arrowLeft.mouseover" end="arrowLeft.mouseout"/>
                  </use>
                  <path fill="none" stroke="white" stroke-width="1.5" d="M0,-3.0v7 M-2.5,-0.5L0,-3.0L2.5,-0.5"/>
                </g>
        </g>
        <svg viewBox="0 0 15 15" width="100%" height="30px" preserveAspectRatio="xMaxYMin meet">
         <g id="arrow_out" transform="scale(0.3 0.3)">
          <a xlink:href="readwritespinlock_8cpp__incl_org.svg" target="_base">
           <rect id="button" ry="5" rx="5" y="6" x="6" height="38" width="38"
                fill="#f2f5e9" fill-opacity="0.5" stroke="#606060" stroke-width="1.0"/>
           <path id="arrow"
             d="M 11.500037,31.436501 C 11.940474,20.09759 22.043105,11.32322 32.158766,21.979434 L 37.068811,17.246167 C 37.068811,17.246167 37.088388,32 37.088388,32 L 22.160133,31.978069 C 22.160133,31.978069 26.997745,27.140456 26.997745,27.140456 C 18.528582,18.264221 13.291696,25.230495 11.500037,31.436501 z"
             style="fill:#404040;"/>
          </a>
         </g>
        </svg>
</svg>
