<?xml version="1.0" encoding="UTF-8" standalone="no"?>
<!DOCTYPE svg PUBLIC "-//W3C//DTD SVG 1.1//EN"
 "http://www.w3.org/Graphics/SVG/1.1/DTD/svg11.dtd">
<!-- Generated by graphviz version 2.26.3 (20100126.1600)
 -->
<!-- Title: rollingaverage.h Pages: 1 -->
<!--zoomable 320 -->
<svg id="main" version="1.1" xmlns="http://www.w3.org/2000/svg" xmlns:xlink="http://www.w3.org/1999/xlink" xml:space="preserve" onload="init(evt)">
<style type="text/css"><![CDATA[
.edge:hover path { stroke: red; }
.edge:hover polygon { stroke: red; fill: red; }
]]></style>
<script type="text/javascript"><![CDATA[
var edges = document.getElementsByTagName('g');
if (edges && edges.length) {
  for (var i=0;i<edges.length;i++) {
    if (edges[i].id.substr(0,4)=='edge') {
      edges[i].setAttribute('class','edge');
    }
  }
}
]]></script>
        <defs>
                <circle id="rim" cx="0" cy="0" r="7"/>
                <circle id="rim2" cx="0" cy="0" r="3.5"/>
                <g id="zoomPlus">
                        <use xlink:href="#rim" fill="#404040">
                                <set attributeName="fill" to="#808080" begin="zoomplus.mouseover" end="zoomplus.mouseout"/>
                        </use>
                        <path d="M-4,0h8M0,-4v8" fill="none" stroke="white" stroke-width="1.5" pointer-events="none"/>
                </g>
                <g id="zoomMin">
                        <use xlink:href="#rim" fill="#404040">
                                <set attributeName="fill" to="#808080" begin="zoomminus.mouseover" end="zoomminus.mouseout"/>
                        </use>
                        <path d="M-4,0h8" fill="none" stroke="white" stroke-width="1.5" pointer-events="none"/>
                </g>
                <g id="dirArrow">
                        <path fill="none" stroke="white" stroke-width="1.5" d="M0,-3.0v7 M-2.5,-0.5L0,-3.0L2.5,-0.5"/>
                </g>
               <g id="resetDef">
                       <use xlink:href="#rim2" fill="#404040">
                               <set attributeName="fill" to="#808080" begin="reset.mouseover" end="reset.mouseout"/>
                       </use>
               </g>
        </defs>

<script type="text/javascript">
var viewWidth = 908;
var viewHeight = 320;
var sectionId = 'dynsection-1';
</script>
<script xlink:href="svgpan.js"/>
<svg id="graph" class="graph">
<g id="viewport">
<title>rollingaverage.h</title>
<polygon fill="white" stroke="white" points="-4,5 -4,-316 905,-316 905,5 -4,5"/>
<!-- Node1 -->
<g id="node1" class="node"><title>Node1</title>
<polygon fill="#bfbfbf" stroke="black" points="196.5,-291 196.5,-311 279.5,-311 279.5,-291 196.5,-291"/>
<text text-anchor="middle" x="238" y="-298" font-family="FreeSans" font-size="10.00">rollingaverage.h</text>
</g>
<!-- Node2 -->
<g id="node3" class="node"><title>Node2</title>
<a xlink:href="framescheduler_8h.html" target="_top" xlink:title="This file has the Declarations for the main FrameScheduler class. ">
<polygon fill="white" stroke="black" points="193,-233 193,-253 283,-253 283,-233 193,-233"/>
<text text-anchor="middle" x="238" y="-240" font-family="FreeSans" font-size="10.00">framescheduler.h</text>
</a>
</g>
<!-- Node1&#45;&gt;Node2 -->
<g id="edge2" class="edge"><title>Node1&#45;&gt;Node2</title>
<path fill="none" stroke="midnightblue" d="M238,-280.89C238,-271.62 238,-261.008 238,-253.378"/>
<polygon fill="midnightblue" stroke="midnightblue" points="234.5,-280.897 238,-290.897 241.5,-280.897 234.5,-280.897"/>
</g>
<!-- Node3 -->
<g id="node5" class="node"><title>Node3</title>
<a xlink:href="workunit_8h.html" target="_top" xlink:title="This file has the definition of the workunit. ">
<polygon fill="white" stroke="black" points="345,-175 345,-195 405,-195 405,-175 345,-175"/>
<text text-anchor="middle" x="375" y="-182" font-family="FreeSans" font-size="10.00">workunit.h</text>
</a>
</g>
<!-- Node1&#45;&gt;Node3 -->
<g id="edge44" class="edge"><title>Node1&#45;&gt;Node3</title>
<path fill="none" stroke="midnightblue" d="M257.978,-284.085C286.895,-259.6 339.525,-215.037 363.065,-195.106"/>
<polygon fill="midnightblue" stroke="midnightblue" points="255.528,-281.573 250.158,-290.706 260.051,-286.915 255.528,-281.573"/>
</g>
<!-- Node7 -->
<g id="node13" class="node"><title>Node7</title>
<a xlink:href="dagframescheduler_8h.html" target="_top" xlink:title="This is the file that code using this library should include. It includes all the required components...">
<polygon fill="white" stroke="black" points="431,-1 431,-21 537,-21 537,-1 431,-1"/>
<text text-anchor="middle" x="484" y="-8" font-family="FreeSans" font-size="10.00">dagframescheduler.h</text>
</a>
</g>
<!-- Node1&#45;&gt;Node7 -->
<g id="edge46" class="edge"><title>Node1&#45;&gt;Node7</title>
<path fill="none" stroke="midnightblue" d="M190.164,-288.106C120.67,-267.941 0,-226.895 0,-185 0,-185 0,-185 0,-127 0,-91.328 10.971,-77.255 41,-58 73.187,-37.3612 319.984,-20.563 430.629,-13.9871"/>
<polygon fill="midnightblue" stroke="midnightblue" points="189.448,-291.541 200.025,-290.927 191.373,-284.811 189.448,-291.541"/>
</g>
<!-- Node2&#45;&gt;Node3 -->
<g id="edge4" class="edge"><title>Node2&#45;&gt;Node3</title>
<path fill="none" stroke="midnightblue" d="M271.183,-228.952C295.812,-218.525 328.826,-204.548 350.95,-195.182"/>
<polygon fill="midnightblue" stroke="midnightblue" points="269.708,-225.775 261.864,-232.897 272.437,-232.222 269.708,-225.775"/>
</g>
<!-- Node2&#45;&gt;Node7 -->
<g id="edge38" class="edge"><title>Node2&#45;&gt;Node7</title>
<path fill="none" stroke="midnightblue" d="M204.48,-228.694C137.377,-198.165 -2.15804,-124.027 57,-58 81.5415,-30.609 321.767,-17.5249 430.734,-12.9621"/>
<polygon fill="midnightblue" stroke="midnightblue" points="203.266,-231.984 213.823,-232.875 206.126,-225.595 203.266,-231.984"/>
</g>
<!-- Node10 -->
<g id="node21" class="node"><title>Node10</title>
<a xlink:href="framescheduler_8cpp.html" target="_top" xlink:title="This is the core object implementation for this algorithm. ">
<polygon fill="white" stroke="black" points="261.5,-59 261.5,-79 362.5,-79 362.5,-59 261.5,-59"/>
<text text-anchor="middle" x="312" y="-66" font-family="FreeSans" font-size="10.00">framescheduler.cpp</text>
</a>
</g>
<!-- Node2&#45;&gt;Node10 -->
<g id="edge42" class="edge"><title>Node2&#45;&gt;Node10</title>
<path fill="none" stroke="midnightblue" d="M263.694,-227.141C274.47,-219.143 286.082,-208.483 293,-196 314.506,-157.196 314.058,-101.979 312.792,-79.3134"/>
<polygon fill="midnightblue" stroke="midnightblue" points="261.538,-224.377 255.336,-232.967 265.541,-230.119 261.538,-224.377"/>
</g>
<!-- Node15 -->
<g id="node35" class="node"><title>Node15</title>
<a xlink:href="doublebufferedresource_8cpp.html" target="_top" xlink:title="This file defines the template double buffered resources that can be attached to a thread...">
<polygon fill="white" stroke="black" points="150,-175 150,-195 284,-195 284,-175 150,-175"/>
<text text-anchor="middle" x="217" y="-182" font-family="FreeSans" font-size="10.00">doublebufferedresource.cpp</text>
</a>
</g>
<!-- Node2&#45;&gt;Node15 -->
<g id="edge40" class="edge"><title>Node2&#45;&gt;Node15</title>
<path fill="none" stroke="midnightblue" d="M230.937,-223.493C227.53,-214.083 223.58,-203.174 220.757,-195.378"/>
<polygon fill="midnightblue" stroke="midnightblue" points="227.647,-224.686 234.342,-232.897 234.229,-222.303 227.647,-224.686"/>
</g>
<!-- Node4 -->
<g id="node7" class="node"><title>Node4</title>
<a xlink:href="asynchronousworkunit_8h.html" target="_top" xlink:title="Contains an interface for a kind of WorkUnit that loads or does other work even when the frame schedu...">
<polygon fill="white" stroke="black" points="600.5,-117 600.5,-137 719.5,-137 719.5,-117 600.5,-117"/>
<text text-anchor="middle" x="660" y="-124" font-family="FreeSans" font-size="10.00">asynchronousworkunit.h</text>
</a>
</g>
<!-- Node3&#45;&gt;Node4 -->
<g id="edge6" class="edge"><title>Node3&#45;&gt;Node4</title>
<path fill="none" stroke="midnightblue" d="M415.297,-176.799C466.696,-166.339 555.535,-148.26 610.854,-137.002"/>
<polygon fill="midnightblue" stroke="midnightblue" points="414.331,-173.424 405.23,-178.848 415.727,-180.283 414.331,-173.424"/>
</g>
<!-- Node3&#45;&gt;Node7 -->
<g id="edge34" class="edge"><title>Node3&#45;&gt;Node7</title>
<path fill="none" stroke="midnightblue" d="M415.023,-175.371C447.964,-166.54 490.834,-152.643 501,-138 526.373,-101.454 501.725,-44.4965 489.727,-21.3264"/>
<polygon fill="midnightblue" stroke="midnightblue" points="413.957,-172.032 405.166,-177.944 415.726,-178.805 413.957,-172.032"/>
</g>
<!-- Node9 -->
<g id="node18" class="node"><title>Node9</title>
<a xlink:href="frameschedulerworkunits_8h.html" target="_top" xlink:title="This defines a number of workunits that are required for doing some tasks that the Framescheduler req...">
<polygon fill="white" stroke="black" points="153.5,-117 153.5,-137 284.5,-137 284.5,-117 153.5,-117"/>
<text text-anchor="middle" x="219" y="-124" font-family="FreeSans" font-size="10.00">frameschedulerworkunits.h</text>
</a>
</g>
<!-- Node3&#45;&gt;Node9 -->
<g id="edge18" class="edge"><title>Node3&#45;&gt;Node9</title>
<path fill="none" stroke="midnightblue" d="M338.296,-171.354C310.046,-160.85 271.641,-146.572 246.123,-137.084"/>
<polygon fill="midnightblue" stroke="midnightblue" points="337.234,-174.693 347.827,-174.897 339.673,-168.132 337.234,-174.693"/>
</g>
<!-- Node12 -->
<g id="node25" class="node"><title>Node12</title>
<a xlink:href="monopoly_8h.html" target="_top" xlink:title="Contains an interface for a kind of WorkUnit that consumes time on multiple thread. ">
<polygon fill="white" stroke="black" points="427.5,-117 427.5,-137 492.5,-137 492.5,-117 427.5,-117"/>
<text text-anchor="middle" x="460" y="-124" font-family="FreeSans" font-size="10.00">monopoly.h</text>
</a>
</g>
<!-- Node3&#45;&gt;Node12 -->
<g id="edge26" class="edge"><title>Node3&#45;&gt;Node12</title>
<path fill="none" stroke="midnightblue" d="M398.485,-168.975C413.381,-158.811 432.202,-145.968 445.079,-137.182"/>
<polygon fill="midnightblue" stroke="midnightblue" points="396.093,-166.37 389.806,-174.897 400.039,-172.152 396.093,-166.37"/>
</g>
<!-- Node14 -->
<g id="node32" class="node"><title>Node14</title>
<a xlink:href="workunit_8cpp.html" target="_top" xlink:title="This file has the implementation of the Mezzanine::Threading::DefaultWorkUnit. ">
<polygon fill="white" stroke="black" points="339.5,-117 339.5,-137 410.5,-137 410.5,-117 339.5,-117"/>
<text text-anchor="middle" x="375" y="-124" font-family="FreeSans" font-size="10.00">workunit.cpp</text>
</a>
</g>
<!-- Node3&#45;&gt;Node14 -->
<g id="edge36" class="edge"><title>Node3&#45;&gt;Node14</title>
<path fill="none" stroke="midnightblue" d="M375,-164.89C375,-155.62 375,-145.008 375,-137.378"/>
<polygon fill="midnightblue" stroke="midnightblue" points="371.5,-164.897 375,-174.897 378.5,-164.897 371.5,-164.897"/>
</g>
<!-- Node5 -->
<g id="node9" class="node"><title>Node5</title>
<a xlink:href="asynchronousfileloadingworkunit_8h.html" target="_top" xlink:title="The declaration of the AsynchronousFileLoadWorkUnit a workunit that loads a listing of files asynchro...">
<polygon fill="white" stroke="black" points="733.5,-59 733.5,-79 894.5,-79 894.5,-59 733.5,-59"/>
<text text-anchor="middle" x="814" y="-66" font-family="FreeSans" font-size="10.00">asynchronousfileloadingworkunit.h</text>
</a>
</g>
<!-- Node4&#45;&gt;Node5 -->
<g id="edge8" class="edge"><title>Node4&#45;&gt;Node5</title>
<path fill="none" stroke="midnightblue" d="M696.234,-113.354C724.121,-102.85 762.034,-88.5716 787.225,-79.0842"/>
<polygon fill="midnightblue" stroke="midnightblue" points="694.949,-110.097 686.825,-116.897 697.417,-116.648 694.949,-110.097"/>
</g>
<!-- Node4&#45;&gt;Node7 -->
<g id="edge16" class="edge"><title>Node4&#45;&gt;Node7</title>
<path fill="none" stroke="midnightblue" d="M676.505,-108.717C687.854,-93.8597 698.911,-72.9834 687,-58 668.597,-34.8499 590.897,-22.0991 537.149,-15.907"/>
<polygon fill="midnightblue" stroke="midnightblue" points="673.606,-106.731 669.96,-116.679 679.014,-111.176 673.606,-106.731"/>
</g>
<!-- Node8 -->
<g id="node15" class="node"><title>Node8</title>
<a xlink:href="asynchronousworkunit_8cpp.html" target="_top" xlink:title="Contains very little actually. ">
<polygon fill="white" stroke="black" points="549.5,-59 549.5,-79 678.5,-79 678.5,-59 549.5,-59"/>
<text text-anchor="middle" x="614" y="-66" font-family="FreeSans" font-size="10.00">asynchronousworkunit.cpp</text>
</a>
</g>
<!-- Node4&#45;&gt;Node8 -->
<g id="edge14" class="edge"><title>Node4&#45;&gt;Node8</title>
<path fill="none" stroke="midnightblue" d="M645.709,-108.981C637.993,-99.2522 628.743,-87.5889 622.231,-79.3776"/>
<polygon fill="midnightblue" stroke="midnightblue" points="643.031,-111.237 651.987,-116.897 648.516,-106.887 643.031,-111.237"/>
</g>
<!-- Node6 -->
<g id="node11" class="node"><title>Node6</title>
<a xlink:href="asynchronousfileloadingworkunit_8cpp.html" target="_top" xlink:title="The implementation of the AsynchronousFileLoadWorkUnit a workunit that loads a listing of files async...">
<polygon fill="white" stroke="black" points="728,-1 728,-21 900,-21 900,-1 728,-1"/>
<text text-anchor="middle" x="814" y="-8" font-family="FreeSans" font-size="10.00">asynchronousfileloadingworkunit.cpp</text>
</a>
</g>
<!-- Node5&#45;&gt;Node6 -->
<g id="edge10" class="edge"><title>Node5&#45;&gt;Node6</title>
<path fill="none" stroke="midnightblue" d="M814,-48.8902C814,-39.6201 814,-29.0083 814,-21.3776"/>
<polygon fill="midnightblue" stroke="midnightblue" points="810.5,-48.8971 814,-58.8972 817.5,-48.8972 810.5,-48.8971"/>
</g>
<!-- Node5&#45;&gt;Node7 -->
<g id="edge12" class="edge"><title>Node5&#45;&gt;Node7</title>
<path fill="none" stroke="midnightblue" d="M746.829,-57.1942C684.891,-46.3081 594.165,-30.3623 537.135,-20.339"/>
<polygon fill="midnightblue" stroke="midnightblue" points="746.44,-60.6794 756.895,-58.9634 747.652,-53.7851 746.44,-60.6794"/>
</g>
<!-- Node9&#45;&gt;Node7 -->
<g id="edge20" class="edge"><title>Node9&#45;&gt;Node7</title>
<path fill="none" stroke="midnightblue" d="M223.703,-106.924C228.445,-91.209 237.361,-70.0585 253,-58 280.265,-36.9771 371.471,-23.2863 430.794,-16.3707"/>
<polygon fill="midnightblue" stroke="midnightblue" points="220.276,-106.191 221.056,-116.757 227.035,-108.011 220.276,-106.191"/>
</g>
<!-- Node9&#45;&gt;Node10 -->
<g id="edge22" class="edge"><title>Node9&#45;&gt;Node10</title>
<path fill="none" stroke="midnightblue" d="M243.777,-111.547C260.214,-101.297 281.32,-88.1339 295.674,-79.1817"/>
<polygon fill="midnightblue" stroke="midnightblue" points="241.832,-108.636 235.199,-116.897 245.537,-114.575 241.832,-108.636"/>
</g>
<!-- Node11 -->
<g id="node23" class="node"><title>Node11</title>
<a xlink:href="frameschedulerworkunits_8cpp.html" target="_top" xlink:title="The implementation of any workunits the framescheduler needs to work correctly. ">
<polygon fill="white" stroke="black" points="65.5,-59 65.5,-79 206.5,-79 206.5,-59 65.5,-59"/>
<text text-anchor="middle" x="136" y="-66" font-family="FreeSans" font-size="10.00">frameschedulerworkunits.cpp</text>
</a>
</g>
<!-- Node9&#45;&gt;Node11 -->
<g id="edge24" class="edge"><title>Node9&#45;&gt;Node11</title>
<path fill="none" stroke="midnightblue" d="M196.068,-110.975C181.522,-100.811 163.144,-87.9681 150.57,-79.1817"/>
<polygon fill="midnightblue" stroke="midnightblue" points="194.341,-114.038 204.543,-116.897 198.35,-108.3 194.341,-114.038"/>
</g>
<!-- Node12&#45;&gt;Node7 -->
<g id="edge28" class="edge"><title>Node12&#45;&gt;Node7</title>
<path fill="none" stroke="midnightblue" d="M464.174,-106.825C469.348,-81.8198 477.962,-40.1814 481.909,-21.1055"/>
<polygon fill="midnightblue" stroke="midnightblue" points="460.729,-106.204 462.13,-116.706 467.583,-107.622 460.729,-106.204"/>
</g>
<!-- Node12&#45;&gt;Node10 -->
<g id="edge30" class="edge"><title>Node12&#45;&gt;Node10</title>
<path fill="none" stroke="midnightblue" d="M424.857,-113.228C398.178,-102.773 362.093,-88.6312 337.981,-79.1817"/>
<polygon fill="midnightblue" stroke="midnightblue" points="423.633,-116.507 434.22,-116.897 426.187,-109.99 423.633,-116.507"/>
</g>
<!-- Node13 -->
<g id="node29" class="node"><title>Node13</title>
<a xlink:href="monopoly_8cpp.html" target="_top" xlink:title="Contains the minimal implementation for the monopoly base class. ">
<polygon fill="white" stroke="black" points="380,-59 380,-79 456,-79 456,-59 380,-59"/>
<text text-anchor="middle" x="418" y="-66" font-family="FreeSans" font-size="10.00">monopoly.cpp</text>
</a>
</g>
<!-- Node12&#45;&gt;Node13 -->
<g id="edge32" class="edge"><title>Node12&#45;&gt;Node13</title>
<path fill="none" stroke="midnightblue" d="M446.738,-108.686C439.736,-99.0169 431.401,-87.5059 425.515,-79.3776"/>
<polygon fill="midnightblue" stroke="midnightblue" points="443.984,-110.851 452.684,-116.897 449.654,-106.745 443.984,-110.851"/>
</g>
</g>
</svg>
        <g id="navigator" transform="translate(0 0)" fill="#404254">
                <rect fill="#f2f5e9" fill-opacity="0.5" stroke="#606060" stroke-width=".5" x="0" y="0" width="60" height="60"/>
                <use id="zoomplus" xlink:href="#zoomPlus" x="17" y="9" onmousedown="handleZoom(evt,'in')"/>
                <use id="zoomminus" xlink:href="#zoomMin" x="42" y="9" onmousedown="handleZoom(evt,'out')"/>
                <use id="reset" xlink:href="#resetDef" x="30" y="36" onmousedown="handleReset()"/>
                <g id="arrowUp" xlink:href="#dirArrow" transform="translate(30 24)" onmousedown="handlePan(0,-1)">
                  <use xlink:href="#rim" fill="#404040">
                        <set attributeName="fill" to="#808080" begin="arrowUp.mouseover" end="arrowUp.mouseout"/>
                  </use>
                  <path fill="none" stroke="white" stroke-width="1.5" d="M0,-3.0v7 M-2.5,-0.5L0,-3.0L2.5,-0.5"/>
                </g>
                <g id="arrowRight" xlink:href="#dirArrow" transform="rotate(90) translate(36 -43)" onmousedown="handlePan(1,0)">
                  <use xlink:href="#rim" fill="#404040">
                        <set attributeName="fill" to="#808080" begin="arrowRight.mouseover" end="arrowRight.mouseout"/>
                  </use>
                  <path fill="none" stroke="white" stroke-width="1.5" d="M0,-3.0v7 M-2.5,-0.5L0,-3.0L2.5,-0.5"/>
                </g>
                <g id="arrowDown" xlink:href="#dirArrow" transform="rotate(180) translate(-30 -48)" onmousedown="handlePan(0,1)">
                  <use xlink:href="#rim" fill="#404040">
                        <set attributeName="fill" to="#808080" begin="arrowDown.mouseover" end="arrowDown.mouseout"/>
                  </use>
                  <path fill="none" stroke="white" stroke-width="1.5" d="M0,-3.0v7 M-2.5,-0.5L0,-3.0L2.5,-0.5"/>
                </g>
                <g id="arrowLeft" xlink:href="#dirArrow" transform="rotate(270) translate(-36 17)" onmousedown="handlePan(-1,0)">
                  <use xlink:href="#rim" fill="#404040">
                        <set attributeName="fill" to="#808080" begin="arrowLeft.mouseover" end="arrowLeft.mouseout"/>
                  </use>
                  <path fill="none" stroke="white" stroke-width="1.5" d="M0,-3.0v7 M-2.5,-0.5L0,-3.0L2.5,-0.5"/>
                </g>
        </g>
        <svg viewBox="0 0 15 15" width="100%" height="30px" preserveAspectRatio="xMaxYMin meet">
         <g id="arrow_out" transform="scale(0.3 0.3)">
          <a xlink:href="rollingaverage_8h__dep__incl_org.svg" target="_base">
           <rect id="button" ry="5" rx="5" y="6" x="6" height="38" width="38"
                fill="#f2f5e9" fill-opacity="0.5" stroke="#606060" stroke-width="1.0"/>
           <path id="arrow"
             d="M 11.500037,31.436501 C 11.940474,20.09759 22.043105,11.32322 32.158766,21.979434 L 37.068811,17.246167 C 37.068811,17.246167 37.088388,32 37.088388,32 L 22.160133,31.978069 C 22.160133,31.978069 26.997745,27.140456 26.997745,27.140456 C 18.528582,18.264221 13.291696,25.230495 11.500037,31.436501 z"
             style="fill:#404040;"/>
          </a>
         </g>
        </svg>
</svg>
