<?xml version="1.0" encoding="UTF-8" standalone="no"?>
<!DOCTYPE svg PUBLIC "-//W3C//DTD SVG 1.1//EN"
 "http://www.w3.org/Graphics/SVG/1.1/DTD/svg11.dtd">
<!-- Generated by graphviz version 2.26.3 (20100126.1600)
 -->
<!-- Title: G Pages: 1 -->
<!--zoomable 272 -->
<svg id="main" version="1.1" xmlns="http://www.w3.org/2000/svg" xmlns:xlink="http://www.w3.org/1999/xlink" xml:space="preserve" onload="init(evt)">
        <defs>
                <circle id="rim" cx="0" cy="0" r="7"/>
                <circle id="rim2" cx="0" cy="0" r="3.5"/>
                <g id="zoomPlus">
                        <use xlink:href="#rim" fill="#404040">
                                <set attributeName="fill" to="#808080" begin="zoomplus.mouseover" end="zoomplus.mouseout"/>
                        </use>
                        <path d="M-4,0h8M0,-4v8" fill="none" stroke="white" stroke-width="1.5" pointer-events="none"/>
                </g>
                <g id="zoomMin">
                        <use xlink:href="#rim" fill="#404040">
                                <set attributeName="fill" to="#808080" begin="zoomminus.mouseover" end="zoomminus.mouseout"/>
                        </use>
                        <path d="M-4,0h8" fill="none" stroke="white" stroke-width="1.5" pointer-events="none"/>
                </g>
                <g id="dirArrow">
                        <path fill="none" stroke="white" stroke-width="1.5" d="M0,-3.0v7 M-2.5,-0.5L0,-3.0L2.5,-0.5"/>
                </g>
               <g id="resetDef">
                       <use xlink:href="#rim2" fill="#404040">
                               <set attributeName="fill" to="#808080" begin="reset.mouseover" end="reset.mouseout"/>
                       </use>
               </g>
        </defs>

<script type="text/javascript">
var viewWidth = 864;
var viewHeight = 272;
var sectionId = 'dynsection-1';
</script>
<script xlink:href="svgpan.js"/>
<svg id="graph" class="graph">
<g id="viewport">
<title>G</title>
<polygon fill="white" stroke="white" points="-4,5 -4,-268 861.319,-268 861.319,5 -4,5"/>
<!-- Node1 -->
<g id="node1" class="node"><title>Node1</title>
<polygon fill="#bfbfbf" stroke="black" points="116.819,-241 116.819,-263 205.819,-263 205.819,-241 116.819,-241"/>
<text text-anchor="middle" x="161.319" y="-250" font-family="FreeSans" font-size="10.00">rollingaverage.h</text>
</g>
<!-- Node2 -->
<g id="node3" class="node"><title>Node2</title>
<a xlink:href="dagframescheduler_8h.html" target="_top" xlink:title="This is the file that code using this library should include. It includes all the required components...">
<polygon fill="white" stroke="black" points="340.319,-1 340.319,-23 452.319,-23 452.319,-1 340.319,-1"/>
<text text-anchor="middle" x="396.319" y="-10" font-family="FreeSans" font-size="10.00">dagframescheduler.h</text>
</a>
</g>
<!-- Node1&#45;&gt;Node2 -->
<g id="edge2" class="edge"><title>Node1&#45;&gt;Node2</title>
<path fill="none" stroke="midnightblue" d="M132.393,-235.761C75.6271,-201.924 -40.2715,-121.879 14.3188,-60 35.5164,-35.9721 239.275,-21.0094 340.217,-15.0123"/>
<polygon fill="midnightblue" stroke="midnightblue" points="130.887,-238.935 141.284,-240.971 134.426,-232.895 130.887,-238.935"/>
</g>
<!-- Node3 -->
<g id="node5" class="node"><title>Node3</title>
<a xlink:href="workunit_8h.html" target="_top" xlink:title="This file has the definition of the workunit.">
<polygon fill="white" stroke="black" points="325.819,-181 325.819,-203 386.819,-203 386.819,-181 325.819,-181"/>
<text text-anchor="middle" x="356.319" y="-190" font-family="FreeSans" font-size="10.00">workunit.h</text>
</a>
</g>
<!-- Node1&#45;&gt;Node3 -->
<g id="edge4" class="edge"><title>Node1&#45;&gt;Node3</title>
<path fill="none" stroke="midnightblue" d="M206.997,-237.945C243.519,-226.708 293.717,-211.262 325.592,-201.454"/>
<polygon fill="midnightblue" stroke="midnightblue" points="205.613,-234.709 197.085,-240.995 207.672,-241.399 205.613,-234.709"/>
</g>
<!-- Node3&#45;&gt;Node2 -->
<g id="edge34" class="edge"><title>Node3&#45;&gt;Node2</title>
<path fill="none" stroke="midnightblue" d="M396.655,-180.452C414.558,-173.095 433.9,-161.551 444.319,-144 463.376,-111.897 458.606,-94.4915 444.319,-60 438.005,-44.7568 424.241,-31.8303 413.064,-23.2456"/>
<polygon fill="midnightblue" stroke="midnightblue" points="395.046,-177.318 386.923,-184.121 397.515,-183.868 395.046,-177.318"/>
</g>
<!-- Node4 -->
<g id="node7" class="node"><title>Node4</title>
<a xlink:href="asynchronousworkunit_8h.html" target="_top" xlink:title="Contains an interface for a kind of WorkUnit that loads or does other work even when the frame schedu...">
<polygon fill="white" stroke="black" points="512.819,-121 512.819,-143 635.819,-143 635.819,-121 512.819,-121"/>
<text text-anchor="middle" x="574.319" y="-130" font-family="FreeSans" font-size="10.00">asynchronousworkunit.h</text>
</a>
</g>
<!-- Node3&#45;&gt;Node4 -->
<g id="edge6" class="edge"><title>Node3&#45;&gt;Node4</title>
<path fill="none" stroke="midnightblue" d="M396.842,-180.847C436.008,-170.067 495,-153.831 534.072,-143.077"/>
<polygon fill="midnightblue" stroke="midnightblue" points="395.803,-177.503 387.09,-183.531 397.661,-184.252 395.803,-177.503"/>
</g>
<!-- Node8 -->
<g id="node17" class="node"><title>Node8</title>
<a xlink:href="frameschedulerworkunits_8h.html" target="_top" xlink:title="This defines a number of workunits that are required for doing some tasks that the Framescheduler req...">
<polygon fill="white" stroke="black" points="82.3188,-121 82.3188,-143 218.319,-143 218.319,-121 82.3188,-121"/>
<text text-anchor="middle" x="150.319" y="-130" font-family="FreeSans" font-size="10.00">frameschedulerworkunits.h</text>
</a>
</g>
<!-- Node3&#45;&gt;Node8 -->
<g id="edge18" class="edge"><title>Node3&#45;&gt;Node8</title>
<path fill="none" stroke="midnightblue" d="M315.533,-180.121C278.562,-169.352 224.487,-153.603 188.386,-143.087"/>
<polygon fill="midnightblue" stroke="midnightblue" points="314.899,-183.581 325.479,-183.017 316.856,-176.861 314.899,-183.581"/>
</g>
<!-- Node11 -->
<g id="node24" class="node"><title>Node11</title>
<a xlink:href="monopoly_8h.html" target="_top" xlink:title="Contains an interface for a kind of WorkUnit that consumes time on multiple thread.">
<polygon fill="white" stroke="black" points="279.319,-121 279.319,-143 347.319,-143 347.319,-121 279.319,-121"/>
<text text-anchor="middle" x="313.319" y="-130" font-family="FreeSans" font-size="10.00">monopoly.h</text>
</a>
</g>
<!-- Node3&#45;&gt;Node11 -->
<g id="edge26" class="edge"><title>Node3&#45;&gt;Node11</title>
<path fill="none" stroke="midnightblue" d="M342.499,-172.717C335.553,-163.025 327.376,-151.615 321.448,-143.343"/>
<polygon fill="midnightblue" stroke="midnightblue" points="339.762,-174.906 348.432,-180.995 345.452,-170.828 339.762,-174.906"/>
</g>
<!-- Node13 -->
<g id="node31" class="node"><title>Node13</title>
<a xlink:href="workunit_8cpp.html" target="_top" xlink:title="This file has the implementation of the Mezzanine::Threading::DefaultWorkUnit.">
<polygon fill="white" stroke="black" points="364.819,-121 364.819,-143 435.819,-143 435.819,-121 364.819,-121"/>
<text text-anchor="middle" x="400.319" y="-130" font-family="FreeSans" font-size="10.00">workunit.cpp</text>
</a>
</g>
<!-- Node3&#45;&gt;Node13 -->
<g id="edge36" class="edge"><title>Node3&#45;&gt;Node13</title>
<path fill="none" stroke="midnightblue" d="M370.46,-172.717C377.567,-163.025 385.935,-151.615 392.001,-143.343"/>
<polygon fill="midnightblue" stroke="midnightblue" points="367.48,-170.861 364.389,-180.995 373.125,-175.001 367.48,-170.861"/>
</g>
<!-- Node4&#45;&gt;Node2 -->
<g id="edge16" class="edge"><title>Node4&#45;&gt;Node2</title>
<path fill="none" stroke="midnightblue" d="M552.279,-114.617C532.919,-99.5982 503.79,-77.5996 477.319,-60 457.037,-46.5153 432.924,-32.4671 416.312,-23.0795"/>
<polygon fill="midnightblue" stroke="midnightblue" points="550.154,-117.399 560.191,-120.79 554.459,-111.879 550.154,-117.399"/>
</g>
<!-- Node5 -->
<g id="node9" class="node"><title>Node5</title>
<a xlink:href="asynchronousfileloadingworkunit_8h.html" target="_top" xlink:title="The declaration of the AsynchronousFileLoadWorkUnit a workunit that loads a listing of files asynchro...">
<polygon fill="white" stroke="black" points="681.319,-61 681.319,-83 851.319,-83 851.319,-61 681.319,-61"/>
<text text-anchor="middle" x="766.319" y="-70" font-family="FreeSans" font-size="10.00">asynchronousfileloadingworkunit.h</text>
</a>
</g>
<!-- Node4&#45;&gt;Node5 -->
<g id="edge8" class="edge"><title>Node4&#45;&gt;Node5</title>
<path fill="none" stroke="midnightblue" d="M619.249,-117.959C653.335,-107.308 699.538,-92.869 731.002,-83.0366"/>
<polygon fill="midnightblue" stroke="midnightblue" points="618.035,-114.672 609.535,-120.995 620.123,-121.353 618.035,-114.672"/>
</g>
<!-- Node7 -->
<g id="node14" class="node"><title>Node7</title>
<a xlink:href="asynchronousworkunit_8cpp.html" target="_top" xlink:title="Contains very little actually.">
<polygon fill="white" stroke="black" points="529.319,-61 529.319,-83 663.319,-83 663.319,-61 529.319,-61"/>
<text text-anchor="middle" x="596.319" y="-70" font-family="FreeSans" font-size="10.00">asynchronousworkunit.cpp</text>
</a>
</g>
<!-- Node4&#45;&gt;Node7 -->
<g id="edge14" class="edge"><title>Node4&#45;&gt;Node7</title>
<path fill="none" stroke="midnightblue" d="M581.828,-111.522C585.283,-102.098 589.251,-91.277 592.16,-83.3428"/>
<polygon fill="midnightblue" stroke="midnightblue" points="578.51,-110.401 578.354,-120.995 585.083,-112.811 578.51,-110.401"/>
</g>
<!-- Node5&#45;&gt;Node2 -->
<g id="edge12" class="edge"><title>Node5&#45;&gt;Node2</title>
<path fill="none" stroke="midnightblue" d="M688.278,-59.3447C617.684,-47.897 515.439,-31.3167 452.561,-21.1204"/>
<polygon fill="midnightblue" stroke="midnightblue" points="688.024,-62.8492 698.455,-60.9951 689.144,-55.9394 688.024,-62.8492"/>
</g>
<!-- Node6 -->
<g id="node11" class="node"><title>Node6</title>
<a xlink:href="asynchronousfileloadingworkunit_8cpp.html" target="_top" xlink:title="The implemtation of the AsynchronousFileLoadWorkUnit a workunit that loads a listing of files asynchr...">
<polygon fill="white" stroke="black" points="676.319,-1 676.319,-23 856.319,-23 856.319,-1 676.319,-1"/>
<text text-anchor="middle" x="766.319" y="-10" font-family="FreeSans" font-size="10.00">asynchronousfileloadingworkunit.cpp</text>
</a>
</g>
<!-- Node5&#45;&gt;Node6 -->
<g id="edge10" class="edge"><title>Node5&#45;&gt;Node6</title>
<path fill="none" stroke="midnightblue" d="M766.319,-50.9183C766.319,-41.6393 766.319,-31.1082 766.319,-23.3428"/>
<polygon fill="midnightblue" stroke="midnightblue" points="762.819,-50.995 766.319,-60.9951 769.819,-50.9951 762.819,-50.995"/>
</g>
<!-- Node8&#45;&gt;Node2 -->
<g id="edge20" class="edge"><title>Node8&#45;&gt;Node2</title>
<path fill="none" stroke="midnightblue" d="M85.1372,-118.311C43.1046,-106.567 0.395964,-87.208 24.3188,-60 44.8238,-36.6791 241.306,-21.4622 340.133,-15.2202"/>
<polygon fill="midnightblue" stroke="midnightblue" points="84.3514,-121.723 94.9154,-120.917 86.1539,-114.959 84.3514,-121.723"/>
</g>
<!-- Node9 -->
<g id="node20" class="node"><title>Node9</title>
<a xlink:href="framescheduler_8cpp.html" target="_top" xlink:title="This is the core object implementation for this algorithm.">
<polygon fill="white" stroke="black" points="197.319,-61 197.319,-83 301.319,-83 301.319,-61 197.319,-61"/>
<text text-anchor="middle" x="249.319" y="-70" font-family="FreeSans" font-size="10.00">framescheduler.cpp</text>
</a>
</g>
<!-- Node8&#45;&gt;Node9 -->
<g id="edge22" class="edge"><title>Node8&#45;&gt;Node9</title>
<path fill="none" stroke="midnightblue" d="M177.397,-115.589C194.409,-105.279 215.9,-92.254 230.941,-83.1383"/>
<polygon fill="midnightblue" stroke="midnightblue" points="175.215,-112.819 168.477,-120.995 178.843,-118.805 175.215,-112.819"/>
</g>
<!-- Node10 -->
<g id="node22" class="node"><title>Node10</title>
<a xlink:href="frameschedulerworkunits_8cpp.html" target="_top" xlink:title="The implementation of any workunits the framescheduler needs to work correctly.">
<polygon fill="white" stroke="black" points="33.3188,-61 33.3188,-83 179.319,-83 179.319,-61 33.3188,-61"/>
<text text-anchor="middle" x="106.319" y="-70" font-family="FreeSans" font-size="10.00">frameschedulerworkunits.cpp</text>
</a>
</g>
<!-- Node8&#45;&gt;Node10 -->
<g id="edge24" class="edge"><title>Node8&#45;&gt;Node10</title>
<path fill="none" stroke="midnightblue" d="M136.178,-112.717C129.07,-103.025 120.703,-91.6147 114.637,-83.3428"/>
<polygon fill="midnightblue" stroke="midnightblue" points="133.512,-115.001 142.249,-120.995 139.157,-110.861 133.512,-115.001"/>
</g>
<!-- Node11&#45;&gt;Node2 -->
<g id="edge28" class="edge"><title>Node11&#45;&gt;Node2</title>
<path fill="none" stroke="midnightblue" d="M321.123,-111.505C327.327,-96.5235 336.853,-76.0962 348.319,-60 358.301,-45.9856 372.51,-32.344 382.877,-23.2084"/>
<polygon fill="midnightblue" stroke="midnightblue" points="317.834,-110.302 317.375,-120.887 324.335,-112.899 317.834,-110.302"/>
</g>
<!-- Node11&#45;&gt;Node9 -->
<g id="edge30" class="edge"><title>Node11&#45;&gt;Node9</title>
<path fill="none" stroke="midnightblue" d="M294.006,-113.894C283.411,-103.961 270.601,-91.9523 261.418,-83.3428"/>
<polygon fill="midnightblue" stroke="midnightblue" points="291.891,-116.709 301.58,-120.995 296.679,-111.602 291.891,-116.709"/>
</g>
<!-- Node12 -->
<g id="node28" class="node"><title>Node12</title>
<a xlink:href="monopoly_8cpp.html" target="_top" xlink:title="Contains the minimal implementation for the monopoly base class.">
<polygon fill="white" stroke="black" points="356.819,-61 356.819,-83 435.819,-83 435.819,-61 356.819,-61"/>
<text text-anchor="middle" x="396.319" y="-70" font-family="FreeSans" font-size="10.00">monopoly.cpp</text>
</a>
</g>
<!-- Node11&#45;&gt;Node12 -->
<g id="edge32" class="edge"><title>Node11&#45;&gt;Node12</title>
<path fill="none" stroke="midnightblue" d="M336.817,-115.013C350.949,-104.798 368.534,-92.0852 380.911,-83.1383"/>
<polygon fill="midnightblue" stroke="midnightblue" points="334.596,-112.3 328.542,-120.995 338.697,-117.973 334.596,-112.3"/>
</g>
</g>
</svg>
        <g id="navigator" transform="translate(0 0)" fill="#404254">
                <rect fill="#f2f5e9" fill-opacity="0.5" stroke="#606060" stroke-width=".5" x="0" y="0" width="60" height="60"/>
                <use id="zoomplus" xlink:href="#zoomPlus" x="17" y="9" onmousedown="handleZoom(evt,'in')"/>
                <use id="zoomminus" xlink:href="#zoomMin" x="42" y="9" onmousedown="handleZoom(evt,'out')"/>
                <use id="reset" xlink:href="#resetDef" x="30" y="36" onmousedown="handleReset()"/>
                <g id="arrowUp" xlink:href="#dirArrow" transform="translate(30 24)" onmousedown="handlePan(0,-1)">
                  <use xlink:href="#rim" fill="#404040">
                        <set attributeName="fill" to="#808080" begin="arrowUp.mouseover" end="arrowUp.mouseout"/>
                  </use>
                  <path fill="none" stroke="white" stroke-width="1.5" d="M0,-3.0v7 M-2.5,-0.5L0,-3.0L2.5,-0.5"/>
                </g>
                <g id="arrowRight" xlink:href="#dirArrow" transform="rotate(90) translate(36 -43)" onmousedown="handlePan(1,0)">
                  <use xlink:href="#rim" fill="#404040">
                        <set attributeName="fill" to="#808080" begin="arrowRight.mouseover" end="arrowRight.mouseout"/>
                  </use>
                  <path fill="none" stroke="white" stroke-width="1.5" d="M0,-3.0v7 M-2.5,-0.5L0,-3.0L2.5,-0.5"/>
                </g>
                <g id="arrowDown" xlink:href="#dirArrow" transform="rotate(180) translate(-30 -48)" onmousedown="handlePan(0,1)">
                  <use xlink:href="#rim" fill="#404040">
                        <set attributeName="fill" to="#808080" begin="arrowDown.mouseover" end="arrowDown.mouseout"/>
                  </use>
                  <path fill="none" stroke="white" stroke-width="1.5" d="M0,-3.0v7 M-2.5,-0.5L0,-3.0L2.5,-0.5"/>
                </g>
                <g id="arrowLeft" xlink:href="#dirArrow" transform="rotate(270) translate(-36 17)" onmousedown="handlePan(-1,0)">
                  <use xlink:href="#rim" fill="#404040">
                        <set attributeName="fill" to="#808080" begin="arrowLeft.mouseover" end="arrowLeft.mouseout"/>
                  </use>
                  <path fill="none" stroke="white" stroke-width="1.5" d="M0,-3.0v7 M-2.5,-0.5L0,-3.0L2.5,-0.5"/>
                </g>
        </g>
</svg>
