<?xml version="1.0" encoding="UTF-8" standalone="no"?>
<!DOCTYPE svg PUBLIC "-//W3C//DTD SVG 1.1//EN"
 "http://www.w3.org/Graphics/SVG/1.1/DTD/svg11.dtd">
<!-- Generated by graphviz version 2.26.3 (20100126.1600)
 -->
<!-- Title: rollingaverage.h Pages: 1 -->
<svg width="837pt" height="262pt"
 viewBox="0.00 0.00 836.79 262.00" xmlns="http://www.w3.org/2000/svg" xmlns:xlink="http://www.w3.org/1999/xlink">
<g id="graph1" class="graph" transform="scale(1 1) rotate(0) translate(4 258)">
<title>rollingaverage.h</title>
<polygon fill="white" stroke="white" points="-4,5 -4,-258 833.794,-258 833.794,5 -4,5"/>
<!-- Node1 -->
<g id="node1" class="node"><title>Node1</title>
<polygon fill="#bfbfbf" stroke="black" points="114.294,-233 114.294,-253 197.294,-253 197.294,-233 114.294,-233"/>
<text text-anchor="middle" x="155.794" y="-240" font-family="FreeSans" font-size="10.00">rollingaverage.h</text>
</g>
<!-- Node2 -->
<g id="node3" class="node"><title>Node2</title>
<a xlink:href="dagframescheduler_8h.html" target="_top" xlink:title="This is the file that code using this library should include. It includes all the required components...">
<polygon fill="white" stroke="black" points="331.794,-1 331.794,-21 437.794,-21 437.794,-1 331.794,-1"/>
<text text-anchor="middle" x="384.794" y="-8" font-family="FreeSans" font-size="10.00">dagframescheduler.h</text>
</a>
</g>
<!-- Node1&#45;&gt;Node2 -->
<g id="edge2" class="edge"><title>Node1&#45;&gt;Node2</title>
<path fill="none" stroke="midnightblue" d="M128.321,-227.634C73.6864,-195.212 -38.9695,-117.87 13.7942,-58 34.4527,-34.5592 233.819,-19.7958 331.452,-13.914"/>
<polygon fill="midnightblue" stroke="midnightblue" points="126.776,-230.784 137.177,-232.797 130.301,-224.737 126.776,-230.784"/>
</g>
<!-- Node3 -->
<g id="node5" class="node"><title>Node3</title>
<a xlink:href="workunit_8h.html" target="_top" xlink:title="This file has the definition of the workunit.">
<polygon fill="white" stroke="black" points="314.794,-175 314.794,-195 374.794,-195 374.794,-175 314.794,-175"/>
<text text-anchor="middle" x="344.794" y="-182" font-family="FreeSans" font-size="10.00">workunit.h</text>
</a>
</g>
<!-- Node1&#45;&gt;Node3 -->
<g id="edge4" class="edge"><title>Node1&#45;&gt;Node3</title>
<path fill="none" stroke="midnightblue" d="M198.306,-229.954C233.735,-219.082 283.318,-203.866 314.742,-194.222"/>
<polygon fill="midnightblue" stroke="midnightblue" points="197.249,-226.617 188.715,-232.897 199.302,-233.309 197.249,-226.617"/>
</g>
<!-- Node3&#45;&gt;Node2 -->
<g id="edge34" class="edge"><title>Node3&#45;&gt;Node2</title>
<path fill="none" stroke="midnightblue" d="M384.661,-173.787C402.358,-166.605 421.482,-155.292 431.794,-138 450.006,-107.463 445.401,-90.8491 431.794,-58 425.435,-42.6479 411.359,-29.6958 400.259,-21.3012"/>
<polygon fill="midnightblue" stroke="midnightblue" points="383.195,-170.599 375.042,-177.365 385.634,-177.16 383.195,-170.599"/>
</g>
<!-- Node4 -->
<g id="node7" class="node"><title>Node4</title>
<a xlink:href="asynchronousworkunit_8h.html" target="_top" xlink:title="Contains an interface for a kind of WorkUnit that loads or does other work even when the frame schedu...">
<polygon fill="white" stroke="black" points="499.294,-117 499.294,-137 618.294,-137 618.294,-117 499.294,-117"/>
<text text-anchor="middle" x="558.794" y="-124" font-family="FreeSans" font-size="10.00">asynchronousworkunit.h</text>
</a>
</g>
<!-- Node3&#45;&gt;Node4 -->
<g id="edge6" class="edge"><title>Node3&#45;&gt;Node4</title>
<path fill="none" stroke="midnightblue" d="M384.757,-174.169C423.971,-163.541 483.301,-147.461 521.551,-137.094"/>
<polygon fill="midnightblue" stroke="midnightblue" points="383.737,-170.819 375.001,-176.813 385.569,-177.575 383.737,-170.819"/>
</g>
<!-- Node8 -->
<g id="node17" class="node"><title>Node8</title>
<a xlink:href="frameschedulerworkunits_8h.html" target="_top" xlink:title="This defines a number of workunits that are required for doing some tasks that the Framescheduler req...">
<polygon fill="white" stroke="black" points="80.2942,-117 80.2942,-137 211.294,-137 211.294,-117 80.2942,-117"/>
<text text-anchor="middle" x="145.794" y="-124" font-family="FreeSans" font-size="10.00">frameschedulerworkunits.h</text>
</a>
</g>
<!-- Node3&#45;&gt;Node8 -->
<g id="edge18" class="edge"><title>Node3&#45;&gt;Node8</title>
<path fill="none" stroke="midnightblue" d="M304.758,-173.331C268.282,-162.7 214.966,-147.161 180.322,-137.063"/>
<polygon fill="midnightblue" stroke="midnightblue" points="303.99,-176.753 314.57,-176.191 305.949,-170.033 303.99,-176.753"/>
</g>
<!-- Node11 -->
<g id="node24" class="node"><title>Node11</title>
<a xlink:href="monopoly_8h.html" target="_top" xlink:title="Contains an interface for a kind of WorkUnit that consumes time on multiple thread.">
<polygon fill="white" stroke="black" points="270.294,-117 270.294,-137 335.294,-137 335.294,-117 270.294,-117"/>
<text text-anchor="middle" x="302.794" y="-124" font-family="FreeSans" font-size="10.00">monopoly.h</text>
</a>
</g>
<!-- Node3&#45;&gt;Node11 -->
<g id="edge26" class="edge"><title>Node3&#45;&gt;Node11</title>
<path fill="none" stroke="midnightblue" d="M331.532,-166.686C324.531,-157.017 316.195,-145.506 310.309,-137.378"/>
<polygon fill="midnightblue" stroke="midnightblue" points="328.778,-168.851 337.478,-174.897 334.448,-164.745 328.778,-168.851"/>
</g>
<!-- Node13 -->
<g id="node31" class="node"><title>Node13</title>
<a xlink:href="workunit_8cpp.html" target="_top" xlink:title="This file has the implementation of the Mezzanine::Threading::DefaultWorkUnit.">
<polygon fill="white" stroke="black" points="352.294,-117 352.294,-137 423.294,-137 423.294,-117 352.294,-117"/>
<text text-anchor="middle" x="387.794" y="-124" font-family="FreeSans" font-size="10.00">workunit.cpp</text>
</a>
</g>
<!-- Node3&#45;&gt;Node13 -->
<g id="edge36" class="edge"><title>Node3&#45;&gt;Node13</title>
<path fill="none" stroke="midnightblue" d="M358.372,-166.686C365.54,-157.017 374.074,-145.506 380.1,-137.378"/>
<polygon fill="midnightblue" stroke="midnightblue" points="355.428,-164.78 352.284,-174.897 361.051,-168.949 355.428,-164.78"/>
</g>
<!-- Node4&#45;&gt;Node2 -->
<g id="edge16" class="edge"><title>Node4&#45;&gt;Node2</title>
<path fill="none" stroke="midnightblue" d="M537.879,-110.694C519.114,-96.2955 490.631,-75.0088 464.794,-58 444.208,-44.4482 419.654,-30.307 403.227,-21.1215"/>
<polygon fill="midnightblue" stroke="midnightblue" points="535.959,-113.633 546.015,-116.972 540.236,-108.091 535.959,-113.633"/>
</g>
<!-- Node5 -->
<g id="node9" class="node"><title>Node5</title>
<a xlink:href="asynchronousfileloadingworkunit_8h.html" target="_top" xlink:title="The declaration of the AsynchronousFileLoadWorkUnit a workunit that loads a listing of files asynchro...">
<polygon fill="white" stroke="black" points="662.294,-59 662.294,-79 823.294,-79 823.294,-59 662.294,-59"/>
<text text-anchor="middle" x="742.794" y="-66" font-family="FreeSans" font-size="10.00">asynchronousfileloadingworkunit.h</text>
</a>
</g>
<!-- Node4&#45;&gt;Node5 -->
<g id="edge8" class="edge"><title>Node4&#45;&gt;Node5</title>
<path fill="none" stroke="midnightblue" d="M600.783,-113.764C634.217,-103.225 680.311,-88.6959 710.803,-79.0842"/>
<polygon fill="midnightblue" stroke="midnightblue" points="599.33,-110.553 590.845,-116.897 601.434,-117.229 599.33,-110.553"/>
</g>
<!-- Node7 -->
<g id="node14" class="node"><title>Node7</title>
<a xlink:href="asynchronousworkunit_8cpp.html" target="_top" xlink:title="Contains very little actually.">
<polygon fill="white" stroke="black" points="516.294,-59 516.294,-79 645.294,-79 645.294,-59 516.294,-59"/>
<text text-anchor="middle" x="580.794" y="-66" font-family="FreeSans" font-size="10.00">asynchronousworkunit.cpp</text>
</a>
</g>
<!-- Node4&#45;&gt;Node7 -->
<g id="edge14" class="edge"><title>Node4&#45;&gt;Node7</title>
<path fill="none" stroke="midnightblue" d="M566.193,-107.493C569.763,-98.0829 573.901,-87.1742 576.858,-79.3776"/>
<polygon fill="midnightblue" stroke="midnightblue" points="562.9,-106.306 562.626,-116.897 569.445,-108.789 562.9,-106.306"/>
</g>
<!-- Node5&#45;&gt;Node2 -->
<g id="edge12" class="edge"><title>Node5&#45;&gt;Node2</title>
<path fill="none" stroke="midnightblue" d="M670.93,-57.3573C602.03,-46.1946 499.624,-29.6037 437.83,-19.5924"/>
<polygon fill="midnightblue" stroke="midnightblue" points="670.413,-60.819 680.844,-58.9634 671.533,-53.9091 670.413,-60.819"/>
</g>
<!-- Node6 -->
<g id="node11" class="node"><title>Node6</title>
<a xlink:href="asynchronousfileloadingworkunit_8cpp.html" target="_top" xlink:title="The implemtation of the AsynchronousFileLoadWorkUnit a workunit that loads a listing of files asynchr...">
<polygon fill="white" stroke="black" points="656.794,-1 656.794,-21 828.794,-21 828.794,-1 656.794,-1"/>
<text text-anchor="middle" x="742.794" y="-8" font-family="FreeSans" font-size="10.00">asynchronousfileloadingworkunit.cpp</text>
</a>
</g>
<!-- Node5&#45;&gt;Node6 -->
<g id="edge10" class="edge"><title>Node5&#45;&gt;Node6</title>
<path fill="none" stroke="midnightblue" d="M742.794,-48.8902C742.794,-39.6201 742.794,-29.0083 742.794,-21.3776"/>
<polygon fill="midnightblue" stroke="midnightblue" points="739.294,-48.8971 742.794,-58.8972 746.294,-48.8972 739.294,-48.8971"/>
</g>
<!-- Node8&#45;&gt;Node2 -->
<g id="edge20" class="edge"><title>Node8&#45;&gt;Node2</title>
<path fill="none" stroke="midnightblue" d="M84.0381,-114.365C42.9459,-103.215 0.455305,-84.5744 23.7942,-58 43.7872,-35.2353 236.364,-20.2045 331.769,-14.0937"/>
<polygon fill="midnightblue" stroke="midnightblue" points="83.3018,-117.79 93.8594,-116.903 85.0528,-111.012 83.3018,-117.79"/>
</g>
<!-- Node9 -->
<g id="node20" class="node"><title>Node9</title>
<a xlink:href="framescheduler_8cpp.html" target="_top" xlink:title="This is the core object implementation for this algorithm.">
<polygon fill="white" stroke="black" points="190.294,-59 190.294,-79 291.294,-79 291.294,-59 190.294,-59"/>
<text text-anchor="middle" x="240.794" y="-66" font-family="FreeSans" font-size="10.00">framescheduler.cpp</text>
</a>
</g>
<!-- Node8&#45;&gt;Node9 -->
<g id="edge22" class="edge"><title>Node8&#45;&gt;Node9</title>
<path fill="none" stroke="midnightblue" d="M171.104,-111.547C187.894,-101.297 209.454,-88.1339 224.117,-79.1817"/>
<polygon fill="midnightblue" stroke="midnightblue" points="169.053,-108.699 162.342,-116.897 172.701,-114.674 169.053,-108.699"/>
</g>
<!-- Node10 -->
<g id="node22" class="node"><title>Node10</title>
<a xlink:href="frameschedulerworkunits_8cpp.html" target="_top" xlink:title="The implementation of any workunits the framescheduler needs to work correctly.">
<polygon fill="white" stroke="black" points="32.2942,-59 32.2942,-79 173.294,-79 173.294,-59 32.2942,-59"/>
<text text-anchor="middle" x="102.794" y="-66" font-family="FreeSans" font-size="10.00">frameschedulerworkunits.cpp</text>
</a>
</g>
<!-- Node8&#45;&gt;Node10 -->
<g id="edge24" class="edge"><title>Node8&#45;&gt;Node10</title>
<path fill="none" stroke="midnightblue" d="M132.216,-108.686C125.048,-99.0169 116.514,-87.5059 110.488,-79.3776"/>
<polygon fill="midnightblue" stroke="midnightblue" points="129.537,-110.949 138.304,-116.897 135.16,-106.78 129.537,-110.949"/>
</g>
<!-- Node11&#45;&gt;Node2 -->
<g id="edge28" class="edge"><title>Node11&#45;&gt;Node2</title>
<path fill="none" stroke="midnightblue" d="M310.823,-107.21C317.103,-92.8788 326.626,-73.4003 337.794,-58 347.956,-43.9872 362.345,-30.2595 372.52,-21.2937"/>
<polygon fill="midnightblue" stroke="midnightblue" points="307.522,-106.03 306.846,-116.603 313.968,-108.759 307.522,-106.03"/>
</g>
<!-- Node11&#45;&gt;Node9 -->
<g id="edge30" class="edge"><title>Node11&#45;&gt;Node9</title>
<path fill="none" stroke="midnightblue" d="M284.472,-109.86C273.892,-99.9622 260.931,-87.8377 251.887,-79.3776"/>
<polygon fill="midnightblue" stroke="midnightblue" points="282.301,-112.622 291.995,-116.897 287.083,-107.51 282.301,-112.622"/>
</g>
<!-- Node12 -->
<g id="node28" class="node"><title>Node12</title>
<a xlink:href="monopoly_8cpp.html" target="_top" xlink:title="Contains the minimal implementation for the monopoly base class.">
<polygon fill="white" stroke="black" points="346.794,-59 346.794,-79 422.794,-79 422.794,-59 346.794,-59"/>
<text text-anchor="middle" x="384.794" y="-66" font-family="FreeSans" font-size="10.00">monopoly.cpp</text>
</a>
</g>
<!-- Node11&#45;&gt;Node12 -->
<g id="edge32" class="edge"><title>Node11&#45;&gt;Node12</title>
<path fill="none" stroke="midnightblue" d="M325.45,-110.975C339.82,-100.811 357.977,-87.9681 370.399,-79.1817"/>
<polygon fill="midnightblue" stroke="midnightblue" points="323.221,-108.265 317.077,-116.897 327.263,-113.98 323.221,-108.265"/>
</g>
</g>
</svg>
