<?xml version="1.0" encoding="UTF-8" standalone="no"?>
<!DOCTYPE svg PUBLIC "-//W3C//DTD SVG 1.1//EN"
 "http://www.w3.org/Graphics/SVG/1.1/DTD/svg11.dtd">
<!-- Generated by graphviz version 2.26.3 (20100126.1600)
 -->
<!-- Title: G Pages: 1 -->
<!--zoomable 212 -->
<svg id="main" version="1.1" xmlns="http://www.w3.org/2000/svg" xmlns:xlink="http://www.w3.org/1999/xlink" xml:space="preserve" onload="init(evt)">
        <defs>
                <circle id="rim" cx="0" cy="0" r="7"/>
                <circle id="rim2" cx="0" cy="0" r="3.5"/>
                <g id="zoomPlus">
                        <use xlink:href="#rim" fill="#404040">
                                <set attributeName="fill" to="#808080" begin="zoomplus.mouseover" end="zoomplus.mouseout"/>
                        </use>
                        <path d="M-4,0h8M0,-4v8" fill="none" stroke="white" stroke-width="1.5" pointer-events="none"/>
                </g>
                <g id="zoomMin">
                        <use xlink:href="#rim" fill="#404040">
                                <set attributeName="fill" to="#808080" begin="zoomminus.mouseover" end="zoomminus.mouseout"/>
                        </use>
                        <path d="M-4,0h8" fill="none" stroke="white" stroke-width="1.5" pointer-events="none"/>
                </g>
                <g id="dirArrow">
                        <path fill="none" stroke="white" stroke-width="1.5" d="M0,-3.0v7 M-2.5,-0.5L0,-3.0L2.5,-0.5"/>
                </g>
               <g id="resetDef">
                       <use xlink:href="#rim2" fill="#404040">
                               <set attributeName="fill" to="#808080" begin="reset.mouseover" end="reset.mouseout"/>
                       </use>
               </g>
        </defs>

<script type="text/javascript">
var viewWidth = 688;
var viewHeight = 212;
var sectionId = 'dynsection-1';
</script>
<script xlink:href="svgpan.js"/>
<svg id="graph" class="graph">
<g id="viewport">
<title>G</title>
<polygon fill="white" stroke="white" points="-4,5 -4,-208 684.524,-208 684.524,5 -4,5"/>
<!-- Node1 -->
<g id="node1" class="node"><title>Node1</title>
<polygon fill="#bfbfbf" stroke="black" points="70.0237,-181 70.0237,-203 159.024,-203 159.024,-181 70.0237,-181"/>
<text text-anchor="middle" x="114.524" y="-190" font-family="FreeSans" font-size="10.00">rollingaverage.h</text>
</g>
<!-- Node2 -->
<g id="node3" class="node"><title>Node2</title>
<a xlink:href="dagframescheduler_8h.html" target="_top" xlink:title="This is the file that code using this library should include. It includes all the required components...">
<polygon fill="white" stroke="black" points="197.524,-1 197.524,-23 309.524,-23 309.524,-1 197.524,-1"/>
<text text-anchor="middle" x="253.524" y="-10" font-family="FreeSans" font-size="10.00">dagframescheduler.h</text>
</a>
</g>
<!-- Node1&#45;&gt;Node2 -->
<g id="edge2" class="edge"><title>Node1&#45;&gt;Node2</title>
<path fill="none" stroke="midnightblue" d="M85.2027,-175.854C43.4691,-150.84 -24.4413,-101.298 9.52368,-60 15.5226,-52.7059 127.341,-32.9538 197.501,-21.1846"/>
<polygon fill="midnightblue" stroke="midnightblue" points="83.517,-178.923 93.9159,-180.951 87.0516,-172.881 83.517,-178.923"/>
</g>
<!-- Node3 -->
<g id="node5" class="node"><title>Node3</title>
<a xlink:href="workunit_8h.html" target="_top" xlink:title="This file has the defintion of the workunit.">
<polygon fill="white" stroke="black" points="208.024,-121 208.024,-143 269.024,-143 269.024,-121 208.024,-121"/>
<text text-anchor="middle" x="238.524" y="-130" font-family="FreeSans" font-size="10.00">workunit.h</text>
</a>
</g>
<!-- Node1&#45;&gt;Node3 -->
<g id="edge4" class="edge"><title>Node1&#45;&gt;Node3</title>
<path fill="none" stroke="midnightblue" d="M146.387,-176.582C167.994,-166.127 196.055,-152.549 215.504,-143.138"/>
<polygon fill="midnightblue" stroke="midnightblue" points="144.744,-173.489 137.267,-180.995 147.793,-179.79 144.744,-173.489"/>
</g>
<!-- Node3&#45;&gt;Node2 -->
<g id="edge26" class="edge"><title>Node3&#45;&gt;Node2</title>
<path fill="none" stroke="midnightblue" d="M245.347,-111.073C247.758,-102.742 250.198,-93.0087 251.524,-84 254.656,-62.7209 254.482,-37.5337 254.031,-23.2955"/>
<polygon fill="midnightblue" stroke="midnightblue" points="241.975,-110.13 242.395,-120.716 248.669,-112.179 241.975,-110.13"/>
</g>
<!-- Node4 -->
<g id="node7" class="node"><title>Node4</title>
<a xlink:href="monopoly_8h.html" target="_top" xlink:title="Contains an interface for a kind of WorkUnit that consumes time on multiple thread.">
<polygon fill="white" stroke="black" points="438.524,-61 438.524,-83 506.524,-83 506.524,-61 438.524,-61"/>
<text text-anchor="middle" x="472.524" y="-70" font-family="FreeSans" font-size="10.00">monopoly.h</text>
</a>
</g>
<!-- Node3&#45;&gt;Node4 -->
<g id="edge6" class="edge"><title>Node3&#45;&gt;Node4</title>
<path fill="none" stroke="midnightblue" d="M279.205,-122.101C317.927,-112.601 377.798,-97.7147 429.524,-84 432.371,-83.2452 435.32,-82.4501 438.278,-81.6432"/>
<polygon fill="midnightblue" stroke="midnightblue" points="278.232,-118.735 269.352,-124.513 279.897,-125.534 278.232,-118.735"/>
</g>
<!-- Node8 -->
<g id="node16" class="node"><title>Node8</title>
<a xlink:href="asynchronousworkunit_8h.html" target="_top" xlink:title="Contains an interface for a kind of WorkUnit that.">
<polygon fill="white" stroke="black" points="298.024,-61 298.024,-83 421.024,-83 421.024,-61 298.024,-61"/>
<text text-anchor="middle" x="359.524" y="-70" font-family="FreeSans" font-size="10.00">asynchronousworkunit.h</text>
</a>
</g>
<!-- Node3&#45;&gt;Node8 -->
<g id="edge16" class="edge"><title>Node3&#45;&gt;Node8</title>
<path fill="none" stroke="midnightblue" d="M269.9,-116.441C290.946,-106.005 318.167,-92.5072 337.061,-83.1383"/>
<polygon fill="midnightblue" stroke="midnightblue" points="268.121,-113.417 260.717,-120.995 271.231,-119.688 268.121,-113.417"/>
</g>
<!-- Node9 -->
<g id="node19" class="node"><title>Node9</title>
<a xlink:href="frameschedulerworkunits_8h.html" target="_top" xlink:title="This defines a number of workunits that are required for doing some tasks that the Framescheduler req...">
<polygon fill="white" stroke="black" points="18.5237,-61 18.5237,-83 154.524,-83 154.524,-61 18.5237,-61"/>
<text text-anchor="middle" x="86.5237" y="-70" font-family="FreeSans" font-size="10.00">frameschedulerworkunits.h</text>
</a>
</g>
<!-- Node3&#45;&gt;Node9 -->
<g id="edge20" class="edge"><title>Node3&#45;&gt;Node9</title>
<path fill="none" stroke="midnightblue" d="M201.204,-117.269C174.405,-106.69 138.857,-92.658 114.483,-83.0366"/>
<polygon fill="midnightblue" stroke="midnightblue" points="200.058,-120.579 210.645,-120.995 202.628,-114.068 200.058,-120.579"/>
</g>
<!-- Node11 -->
<g id="node25" class="node"><title>Node11</title>
<a xlink:href="workunit_8cpp.html" target="_top" xlink:title="This file has the implementation of the workunit.">
<polygon fill="white" stroke="black" points="172.024,-61 172.024,-83 243.024,-83 243.024,-61 172.024,-61"/>
<text text-anchor="middle" x="207.524" y="-70" font-family="FreeSans" font-size="10.00">workunit.cpp</text>
</a>
</g>
<!-- Node3&#45;&gt;Node11 -->
<g id="edge28" class="edge"><title>Node3&#45;&gt;Node11</title>
<path fill="none" stroke="midnightblue" d="M228.098,-111.822C223.194,-102.329 217.527,-91.3614 213.384,-83.3428"/>
<polygon fill="midnightblue" stroke="midnightblue" points="225.138,-113.717 232.838,-120.995 231.357,-110.504 225.138,-113.717"/>
</g>
<!-- Node4&#45;&gt;Node2 -->
<g id="edge10" class="edge"><title>Node4&#45;&gt;Node2</title>
<path fill="none" stroke="midnightblue" d="M428.617,-59.7585C377.101,-45.5596 328.031,-32.2033 294.44,-23.0856"/>
<polygon fill="midnightblue" stroke="midnightblue" points="427.691,-63.1337 438.261,-62.4188 429.552,-56.3857 427.691,-63.1337"/>
</g>
<!-- Node5 -->
<g id="node9" class="node"><title>Node5</title>
<a xlink:href="asynchronousworkunit_8cpp.html" target="_top" xlink:title="Contains the minimal implementation for the monopoly base class.">
<polygon fill="white" stroke="black" points="545.524,-1 545.524,-23 679.524,-23 679.524,-1 545.524,-1"/>
<text text-anchor="middle" x="612.524" y="-10" font-family="FreeSans" font-size="10.00">asynchronousworkunit.cpp</text>
</a>
</g>
<!-- Node4&#45;&gt;Node5 -->
<g id="edge8" class="edge"><title>Node4&#45;&gt;Node5</title>
<path fill="none" stroke="midnightblue" d="M507.518,-57.0025C532.04,-46.4931 564.28,-32.676 586.534,-23.1383"/>
<polygon fill="midnightblue" stroke="midnightblue" points="506.015,-53.8388 498.202,-60.9951 508.772,-60.2728 506.015,-53.8388"/>
</g>
<!-- Node6 -->
<g id="node12" class="node"><title>Node6</title>
<a xlink:href="framescheduler_8cpp.html" target="_top" xlink:title="This is the core object implementation for this algorithm.">
<polygon fill="white" stroke="black" points="327.524,-1 327.524,-23 431.524,-23 431.524,-1 327.524,-1"/>
<text text-anchor="middle" x="379.524" y="-10" font-family="FreeSans" font-size="10.00">framescheduler.cpp</text>
</a>
</g>
<!-- Node4&#45;&gt;Node6 -->
<g id="edge12" class="edge"><title>Node4&#45;&gt;Node6</title>
<path fill="none" stroke="midnightblue" d="M446.641,-55.3016C430.732,-45.0379 410.787,-32.1696 396.788,-23.1383"/>
<polygon fill="midnightblue" stroke="midnightblue" points="445.166,-58.5148 455.466,-60.9951 448.961,-52.6327 445.166,-58.5148"/>
</g>
<!-- Node7 -->
<g id="node14" class="node"><title>Node7</title>
<a xlink:href="monopoly_8cpp.html" target="_top" xlink:title="Contains the minimal implementation for the monopoly base class.">
<polygon fill="white" stroke="black" points="449.024,-1 449.024,-23 528.024,-23 528.024,-1 449.024,-1"/>
<text text-anchor="middle" x="488.524" y="-10" font-family="FreeSans" font-size="10.00">monopoly.cpp</text>
</a>
</g>
<!-- Node4&#45;&gt;Node7 -->
<g id="edge14" class="edge"><title>Node4&#45;&gt;Node7</title>
<path fill="none" stroke="midnightblue" d="M478.065,-51.2204C480.559,-41.8686 483.406,-31.1926 485.499,-23.3428"/>
<polygon fill="midnightblue" stroke="midnightblue" points="474.653,-50.4309 475.458,-60.9951 481.417,-52.2346 474.653,-50.4309"/>
</g>
<!-- Node8&#45;&gt;Node2 -->
<g id="edge18" class="edge"><title>Node8&#45;&gt;Node2</title>
<path fill="none" stroke="midnightblue" d="M331.287,-56.0167C312.957,-45.6413 289.529,-32.3806 273.201,-23.1383"/>
<polygon fill="midnightblue" stroke="midnightblue" points="329.655,-59.1149 340.082,-60.9951 333.103,-53.0231 329.655,-59.1149"/>
</g>
<!-- Node9&#45;&gt;Node2 -->
<g id="edge22" class="edge"><title>Node9&#45;&gt;Node2</title>
<path fill="none" stroke="midnightblue" d="M126.754,-57.5461C156.284,-46.9365 195.791,-32.7424 222.805,-23.0366"/>
<polygon fill="midnightblue" stroke="midnightblue" points="125.382,-54.3199 117.154,-60.9951 127.749,-60.9077 125.382,-54.3199"/>
</g>
<!-- Node10 -->
<g id="node22" class="node"><title>Node10</title>
<a xlink:href="frameschedulerworkunits_8cpp.html" target="_top" xlink:title="The implementation of any workunits the framescheduler needs to work correctly.">
<polygon fill="white" stroke="black" points="13.5237,-1 13.5237,-23 159.524,-23 159.524,-1 13.5237,-1"/>
<text text-anchor="middle" x="86.5237" y="-10" font-family="FreeSans" font-size="10.00">frameschedulerworkunits.cpp</text>
</a>
</g>
<!-- Node9&#45;&gt;Node10 -->
<g id="edge24" class="edge"><title>Node9&#45;&gt;Node10</title>
<path fill="none" stroke="midnightblue" d="M86.5237,-50.9183C86.5237,-41.6393 86.5237,-31.1082 86.5237,-23.3428"/>
<polygon fill="midnightblue" stroke="midnightblue" points="83.0238,-50.995 86.5237,-60.9951 90.0238,-50.9951 83.0238,-50.995"/>
</g>
</g>
</svg>
        <g id="navigator" transform="translate(0 0)" fill="#404254">
                <rect fill="#f2f5e9" fill-opacity="0.5" stroke="#606060" stroke-width=".5" x="0" y="0" width="60" height="60"/>
                <use id="zoomplus" xlink:href="#zoomPlus" x="17" y="9" onmousedown="handleZoom(evt,'in')"/>
                <use id="zoomminus" xlink:href="#zoomMin" x="42" y="9" onmousedown="handleZoom(evt,'out')"/>
                <use id="reset" xlink:href="#resetDef" x="30" y="36" onmousedown="handleReset()"/>
                <g id="arrowUp" xlink:href="#dirArrow" transform="translate(30 24)" onmousedown="handlePan(0,-1)">
                  <use xlink:href="#rim" fill="#404040">
                        <set attributeName="fill" to="#808080" begin="arrowUp.mouseover" end="arrowUp.mouseout"/>
                  </use>
                  <path fill="none" stroke="white" stroke-width="1.5" d="M0,-3.0v7 M-2.5,-0.5L0,-3.0L2.5,-0.5"/>
                </g>
                <g id="arrowRight" xlink:href="#dirArrow" transform="rotate(90) translate(36 -43)" onmousedown="handlePan(1,0)">
                  <use xlink:href="#rim" fill="#404040">
                        <set attributeName="fill" to="#808080" begin="arrowRight.mouseover" end="arrowRight.mouseout"/>
                  </use>
                  <path fill="none" stroke="white" stroke-width="1.5" d="M0,-3.0v7 M-2.5,-0.5L0,-3.0L2.5,-0.5"/>
                </g>
                <g id="arrowDown" xlink:href="#dirArrow" transform="rotate(180) translate(-30 -48)" onmousedown="handlePan(0,1)">
                  <use xlink:href="#rim" fill="#404040">
                        <set attributeName="fill" to="#808080" begin="arrowDown.mouseover" end="arrowDown.mouseout"/>
                  </use>
                  <path fill="none" stroke="white" stroke-width="1.5" d="M0,-3.0v7 M-2.5,-0.5L0,-3.0L2.5,-0.5"/>
                </g>
                <g id="arrowLeft" xlink:href="#dirArrow" transform="rotate(270) translate(-36 17)" onmousedown="handlePan(-1,0)">
                  <use xlink:href="#rim" fill="#404040">
                        <set attributeName="fill" to="#808080" begin="arrowLeft.mouseover" end="arrowLeft.mouseout"/>
                  </use>
                  <path fill="none" stroke="white" stroke-width="1.5" d="M0,-3.0v7 M-2.5,-0.5L0,-3.0L2.5,-0.5"/>
                </g>
        </g>
</svg>
