<?xml version="1.0" encoding="UTF-8" standalone="no"?>
<!DOCTYPE svg PUBLIC "-//W3C//DTD SVG 1.1//EN"
 "http://www.w3.org/Graphics/SVG/1.1/DTD/svg11.dtd">
<!-- Generated by graphviz version 2.26.3 (20100126.1600)
 -->
<!-- Title: spinlock.h Pages: 1 -->
<!--zoomable 320 -->
<svg id="main" version="1.1" xmlns="http://www.w3.org/2000/svg" xmlns:xlink="http://www.w3.org/1999/xlink" xml:space="preserve" onload="init(evt)">
<style type="text/css"><![CDATA[
.edge:hover path { stroke: red; }
.edge:hover polygon { stroke: red; fill: red; }
]]></style>
<script type="text/javascript"><![CDATA[
var edges = document.getElementsByTagName('g');
if (edges && edges.length) {
  for (var i=0;i<edges.length;i++) {
    if (edges[i].id.substr(0,4)=='edge') {
      edges[i].setAttribute('class','edge');
    }
  }
}
]]></script>
        <defs>
                <circle id="rim" cx="0" cy="0" r="7"/>
                <circle id="rim2" cx="0" cy="0" r="3.5"/>
                <g id="zoomPlus">
                        <use xlink:href="#rim" fill="#404040">
                                <set attributeName="fill" to="#808080" begin="zoomplus.mouseover" end="zoomplus.mouseout"/>
                        </use>
                        <path d="M-4,0h8M0,-4v8" fill="none" stroke="white" stroke-width="1.5" pointer-events="none"/>
                </g>
                <g id="zoomMin">
                        <use xlink:href="#rim" fill="#404040">
                                <set attributeName="fill" to="#808080" begin="zoomminus.mouseover" end="zoomminus.mouseout"/>
                        </use>
                        <path d="M-4,0h8" fill="none" stroke="white" stroke-width="1.5" pointer-events="none"/>
                </g>
                <g id="dirArrow">
                        <path fill="none" stroke="white" stroke-width="1.5" d="M0,-3.0v7 M-2.5,-0.5L0,-3.0L2.5,-0.5"/>
                </g>
               <g id="resetDef">
                       <use xlink:href="#rim2" fill="#404040">
                               <set attributeName="fill" to="#808080" begin="reset.mouseover" end="reset.mouseout"/>
                       </use>
               </g>
        </defs>

<script type="text/javascript">
var viewWidth = 1139;
var viewHeight = 320;
var sectionId = 'dynsection-1';
</script>
<script xlink:href="svgpan.js"/>
<svg id="graph" class="graph">
<g id="viewport">
<title>spinlock.h</title>
<polygon fill="white" stroke="white" points="-4,5 -4,-316 1135.53,-316 1135.53,5 -4,5"/>
<!-- Node1 -->
<g id="node1" class="node"><title>Node1</title>
<polygon fill="#bfbfbf" stroke="black" points="756.028,-291 756.028,-311 815.028,-311 815.028,-291 756.028,-291"/>
<text text-anchor="middle" x="785.528" y="-298" font-family="FreeSans" font-size="10.00">spinlock.h</text>
</g>
<!-- Node2 -->
<g id="node3" class="node"><title>Node2</title>
<a xlink:href="framescheduler_8h.html" target="_top" xlink:title="This file has the Declarations for the main FrameScheduler class. ">
<polygon fill="white" stroke="black" points="460.528,-233 460.528,-253 550.528,-253 550.528,-233 460.528,-233"/>
<text text-anchor="middle" x="505.528" y="-240" font-family="FreeSans" font-size="10.00">framescheduler.h</text>
</a>
</g>
<!-- Node1&#45;&gt;Node2 -->
<g id="edge2" class="edge"><title>Node1&#45;&gt;Node2</title>
<path fill="none" stroke="midnightblue" d="M745.74,-292.758C694.186,-282.079 604.535,-263.509 550.546,-252.325"/>
<polygon fill="midnightblue" stroke="midnightblue" points="745.326,-296.247 755.828,-294.848 746.746,-289.392 745.326,-296.247"/>
</g>
<!-- Node7 -->
<g id="node13" class="node"><title>Node7</title>
<a xlink:href="dagframescheduler_8h.html" target="_top" xlink:title="This is the file that code using this library should include. It includes all the required components...">
<polygon fill="white" stroke="black" points="560.528,-1 560.528,-21 666.528,-21 666.528,-1 560.528,-1"/>
<text text-anchor="middle" x="613.528" y="-8" font-family="FreeSans" font-size="10.00">dagframescheduler.h</text>
</a>
</g>
<!-- Node1&#45;&gt;Node7 -->
<g id="edge50" class="edge"><title>Node1&#45;&gt;Node7</title>
<path fill="none" stroke="midnightblue" d="M825.102,-291.143C894.888,-272.592 1032.53,-230.268 1032.53,-185 1032.53,-185 1032.53,-185 1032.53,-127 1032.53,-95.1919 1037.66,-78.7222 1013.53,-58 987.701,-35.8216 769.678,-20.187 666.829,-13.9752"/>
<polygon fill="midnightblue" stroke="midnightblue" points="824.109,-287.784 815.322,-293.704 825.883,-294.556 824.109,-287.784"/>
</g>
<!-- Node16 -->
<g id="node38" class="node"><title>Node16</title>
<a xlink:href="readwritespinlock_8h.html" target="_top" xlink:title="Declares a Mutex, Mutex tools, and at least one MutexLike object. ">
<polygon fill="white" stroke="black" points="17.5282,-233 17.5282,-253 115.528,-253 115.528,-233 17.5282,-233"/>
<text text-anchor="middle" x="66.5282" y="-240" font-family="FreeSans" font-size="10.00">readwritespinlock.h</text>
</a>
</g>
<!-- Node1&#45;&gt;Node16 -->
<g id="edge44" class="edge"><title>Node1&#45;&gt;Node16</title>
<path fill="none" stroke="midnightblue" d="M745.932,-297.806C623.323,-287.915 250.108,-257.809 115.549,-246.954"/>
<polygon fill="midnightblue" stroke="midnightblue" points="745.753,-301.303 756.002,-298.618 746.316,-294.325 745.753,-301.303"/>
</g>
<!-- Node18 -->
<g id="node44" class="node"><title>Node18</title>
<a xlink:href="spinlock_8cpp.html" target="_top" xlink:title="Contains the implementation for the Mezzanine::Threading::SpinLock synchronization object...">
<polygon fill="white" stroke="black" points="1060.53,-233 1060.53,-253 1130.53,-253 1130.53,-233 1060.53,-233"/>
<text text-anchor="middle" x="1095.53" y="-240" font-family="FreeSans" font-size="10.00">spinlock.cpp</text>
</a>
</g>
<!-- Node1&#45;&gt;Node18 -->
<g id="edge52" class="edge"><title>Node1&#45;&gt;Node18</title>
<path fill="none" stroke="midnightblue" d="M825.357,-294.371C876.629,-285.714 968.422,-269.792 1046.53,-254 1051.06,-253.084 1055.81,-252.076 1060.5,-251.053"/>
<polygon fill="midnightblue" stroke="midnightblue" points="824.635,-290.944 815.355,-296.055 825.797,-297.846 824.635,-290.944"/>
</g>
<!-- Node3 -->
<g id="node5" class="node"><title>Node3</title>
<a xlink:href="workunit_8h.html" target="_top" xlink:title="This file has the definition of the workunit. ">
<polygon fill="white" stroke="black" points="590.528,-175 590.528,-195 650.528,-195 650.528,-175 590.528,-175"/>
<text text-anchor="middle" x="620.528" y="-182" font-family="FreeSans" font-size="10.00">workunit.h</text>
</a>
</g>
<!-- Node2&#45;&gt;Node3 -->
<g id="edge4" class="edge"><title>Node2&#45;&gt;Node3</title>
<path fill="none" stroke="midnightblue" d="M534.765,-228.254C555.278,-217.909 582.18,-204.341 600.34,-195.182"/>
<polygon fill="midnightblue" stroke="midnightblue" points="532.912,-225.269 525.56,-232.897 536.065,-231.519 532.912,-225.269"/>
</g>
<!-- Node2&#45;&gt;Node7 -->
<g id="edge38" class="edge"><title>Node2&#45;&gt;Node7</title>
<path fill="none" stroke="midnightblue" d="M450.366,-232.668C340.839,-209.896 113.305,-149.986 195.528,-58 219.436,-31.2533 452.917,-17.8757 560.158,-13.102"/>
<polygon fill="midnightblue" stroke="midnightblue" points="449.767,-236.118 460.266,-234.692 451.169,-229.26 449.767,-236.118"/>
</g>
<!-- Node10 -->
<g id="node21" class="node"><title>Node10</title>
<a xlink:href="framescheduler_8cpp.html" target="_top" xlink:title="This is the core object implementation for this algorithm. ">
<polygon fill="white" stroke="black" points="372.028,-59 372.028,-79 473.028,-79 473.028,-59 372.028,-59"/>
<text text-anchor="middle" x="422.528" y="-66" font-family="FreeSans" font-size="10.00">framescheduler.cpp</text>
</a>
</g>
<!-- Node2&#45;&gt;Node10 -->
<g id="edge42" class="edge"><title>Node2&#45;&gt;Node10</title>
<path fill="none" stroke="midnightblue" d="M467.386,-228.539C453.026,-221.076 438.107,-210.443 429.528,-196 406.973,-158.03 415.388,-101.873 420.149,-79.1219"/>
<polygon fill="midnightblue" stroke="midnightblue" points="466.14,-231.823 476.67,-232.993 469.168,-225.512 466.14,-231.823"/>
</g>
<!-- Node15 -->
<g id="node35" class="node"><title>Node15</title>
<a xlink:href="doublebufferedresource_8cpp.html" target="_top" xlink:title="This file defines the template double buffered resources that can be attached to a thread...">
<polygon fill="white" stroke="black" points="438.528,-175 438.528,-195 572.528,-195 572.528,-175 438.528,-175"/>
<text text-anchor="middle" x="505.528" y="-182" font-family="FreeSans" font-size="10.00">doublebufferedresource.cpp</text>
</a>
</g>
<!-- Node2&#45;&gt;Node15 -->
<g id="edge40" class="edge"><title>Node2&#45;&gt;Node15</title>
<path fill="none" stroke="midnightblue" d="M505.528,-222.89C505.528,-213.62 505.528,-203.008 505.528,-195.378"/>
<polygon fill="midnightblue" stroke="midnightblue" points="502.028,-222.897 505.528,-232.897 509.028,-222.897 502.028,-222.897"/>
</g>
<!-- Node4 -->
<g id="node7" class="node"><title>Node4</title>
<a xlink:href="asynchronousworkunit_8h.html" target="_top" xlink:title="Contains an interface for a kind of WorkUnit that loads or does other work even when the frame schedu...">
<polygon fill="white" stroke="black" points="682.028,-117 682.028,-137 801.028,-137 801.028,-117 682.028,-117"/>
<text text-anchor="middle" x="741.528" y="-124" font-family="FreeSans" font-size="10.00">asynchronousworkunit.h</text>
</a>
</g>
<!-- Node3&#45;&gt;Node4 -->
<g id="edge6" class="edge"><title>Node3&#45;&gt;Node4</title>
<path fill="none" stroke="midnightblue" d="M650.706,-170.535C672.361,-160.155 701.006,-146.424 720.287,-137.182"/>
<polygon fill="midnightblue" stroke="midnightblue" points="649.109,-167.419 641.605,-174.897 652.135,-173.731 649.109,-167.419"/>
</g>
<!-- Node3&#45;&gt;Node7 -->
<g id="edge34" class="edge"><title>Node3&#45;&gt;Node7</title>
<path fill="none" stroke="midnightblue" d="M619.713,-164.724C618.211,-127.389 615.059,-49.0387 613.936,-21.135"/>
<polygon fill="midnightblue" stroke="midnightblue" points="616.222,-165.042 620.122,-174.893 623.217,-164.76 616.222,-165.042"/>
</g>
<!-- Node9 -->
<g id="node18" class="node"><title>Node9</title>
<a xlink:href="frameschedulerworkunits_8h.html" target="_top" xlink:title="This defines a number of workunits that are required for doing some tasks that the Framescheduler req...">
<polygon fill="white" stroke="black" points="230.028,-117 230.028,-137 361.028,-137 361.028,-117 230.028,-117"/>
<text text-anchor="middle" x="295.528" y="-124" font-family="FreeSans" font-size="10.00">frameschedulerworkunits.h</text>
</a>
</g>
<!-- Node3&#45;&gt;Node9 -->
<g id="edge18" class="edge"><title>Node3&#45;&gt;Node9</title>
<path fill="none" stroke="midnightblue" d="M580.551,-173.957C499.858,-156.291 417.195,-143.528 361.242,-135.664"/>
<polygon fill="midnightblue" stroke="midnightblue" points="579.859,-177.389 590.379,-176.136 581.374,-170.555 579.859,-177.389"/>
</g>
<!-- Node12 -->
<g id="node25" class="node"><title>Node12</title>
<a xlink:href="monopoly_8h.html" target="_top" xlink:title="Contains an interface for a kind of WorkUnit that consumes time on multiple thread. ">
<polygon fill="white" stroke="black" points="452.028,-117 452.028,-137 517.028,-137 517.028,-117 452.028,-117"/>
<text text-anchor="middle" x="484.528" y="-124" font-family="FreeSans" font-size="10.00">monopoly.h</text>
</a>
</g>
<!-- Node3&#45;&gt;Node12 -->
<g id="edge26" class="edge"><title>Node3&#45;&gt;Node12</title>
<path fill="none" stroke="midnightblue" d="M587.587,-170.952C563.138,-160.525 530.366,-146.548 508.402,-137.182"/>
<polygon fill="midnightblue" stroke="midnightblue" points="586.267,-174.194 596.839,-174.897 589.013,-167.755 586.267,-174.194"/>
</g>
<!-- Node14 -->
<g id="node32" class="node"><title>Node14</title>
<a xlink:href="workunit_8cpp.html" target="_top" xlink:title="This file has the implementation of the Mezzanine::Threading::DefaultWorkUnit. ">
<polygon fill="white" stroke="black" points="534.028,-117 534.028,-137 605.028,-137 605.028,-117 534.028,-117"/>
<text text-anchor="middle" x="569.528" y="-124" font-family="FreeSans" font-size="10.00">workunit.cpp</text>
</a>
</g>
<!-- Node3&#45;&gt;Node14 -->
<g id="edge36" class="edge"><title>Node3&#45;&gt;Node14</title>
<path fill="none" stroke="midnightblue" d="M604.943,-167.275C596.337,-157.488 585.947,-145.672 578.653,-137.378"/>
<polygon fill="midnightblue" stroke="midnightblue" points="602.413,-169.699 611.645,-174.897 607.67,-165.076 602.413,-169.699"/>
</g>
<!-- Node5 -->
<g id="node9" class="node"><title>Node5</title>
<a xlink:href="asynchronousfileloadingworkunit_8h.html" target="_top" xlink:title="The declaration of the AsynchronousFileLoadWorkUnit a workunit that loads a listing of files asynchro...">
<polygon fill="white" stroke="black" points="844.028,-59 844.028,-79 1005.03,-79 1005.03,-59 844.028,-59"/>
<text text-anchor="middle" x="924.528" y="-66" font-family="FreeSans" font-size="10.00">asynchronousfileloadingworkunit.h</text>
</a>
</g>
<!-- Node4&#45;&gt;Node5 -->
<g id="edge8" class="edge"><title>Node4&#45;&gt;Node5</title>
<path fill="none" stroke="midnightblue" d="M783.289,-113.764C816.541,-103.225 862.384,-88.6959 892.711,-79.0842"/>
<polygon fill="midnightblue" stroke="midnightblue" points="781.88,-110.539 773.404,-116.897 783.995,-117.212 781.88,-110.539"/>
</g>
<!-- Node4&#45;&gt;Node7 -->
<g id="edge16" class="edge"><title>Node4&#45;&gt;Node7</title>
<path fill="none" stroke="midnightblue" d="M722.715,-110.014C712.831,-101.086 700.52,-89.9569 689.528,-80 666.415,-59.0621 639.387,-34.5065 624.597,-21.0636"/>
<polygon fill="midnightblue" stroke="midnightblue" points="720.597,-112.817 730.364,-116.922 725.288,-107.622 720.597,-112.817"/>
</g>
<!-- Node8 -->
<g id="node15" class="node"><title>Node8</title>
<a xlink:href="asynchronousworkunit_8cpp.html" target="_top" xlink:title="Contains very little actually. ">
<polygon fill="white" stroke="black" points="698.028,-59 698.028,-79 827.028,-79 827.028,-59 698.028,-59"/>
<text text-anchor="middle" x="762.528" y="-66" font-family="FreeSans" font-size="10.00">asynchronousworkunit.cpp</text>
</a>
</g>
<!-- Node4&#45;&gt;Node8 -->
<g id="edge14" class="edge"><title>Node4&#45;&gt;Node8</title>
<path fill="none" stroke="midnightblue" d="M748.591,-107.493C751.998,-98.0829 755.948,-87.1742 758.771,-79.3776"/>
<polygon fill="midnightblue" stroke="midnightblue" points="745.3,-106.303 745.186,-116.897 751.882,-108.686 745.3,-106.303"/>
</g>
<!-- Node6 -->
<g id="node11" class="node"><title>Node6</title>
<a xlink:href="asynchronousfileloadingworkunit_8cpp.html" target="_top" xlink:title="The implementation of the AsynchronousFileLoadWorkUnit a workunit that loads a listing of files async...">
<polygon fill="white" stroke="black" points="838.528,-1 838.528,-21 1010.53,-21 1010.53,-1 838.528,-1"/>
<text text-anchor="middle" x="924.528" y="-8" font-family="FreeSans" font-size="10.00">asynchronousfileloadingworkunit.cpp</text>
</a>
</g>
<!-- Node5&#45;&gt;Node6 -->
<g id="edge10" class="edge"><title>Node5&#45;&gt;Node6</title>
<path fill="none" stroke="midnightblue" d="M924.528,-48.8902C924.528,-39.6201 924.528,-29.0083 924.528,-21.3776"/>
<polygon fill="midnightblue" stroke="midnightblue" points="921.028,-48.8971 924.528,-58.8972 928.028,-48.8972 921.028,-48.8971"/>
</g>
<!-- Node5&#45;&gt;Node7 -->
<g id="edge12" class="edge"><title>Node5&#45;&gt;Node7</title>
<path fill="none" stroke="midnightblue" d="M860.689,-57.0944C803.438,-46.4172 720.406,-30.9322 666.687,-20.9138"/>
<polygon fill="midnightblue" stroke="midnightblue" points="860.239,-60.5706 870.711,-58.9634 861.522,-53.6893 860.239,-60.5706"/>
</g>
<!-- Node9&#45;&gt;Node7 -->
<g id="edge20" class="edge"><title>Node9&#45;&gt;Node7</title>
<path fill="none" stroke="midnightblue" d="M253.75,-113.376C221.502,-100.716 185.496,-80.4726 205.528,-58 228.747,-31.9531 455.01,-18.2594 560.226,-13.2564"/>
<polygon fill="midnightblue" stroke="midnightblue" points="252.541,-116.66 263.133,-116.898 255.001,-110.107 252.541,-116.66"/>
</g>
<!-- Node9&#45;&gt;Node10 -->
<g id="edge22" class="edge"><title>Node9&#45;&gt;Node10</title>
<path fill="none" stroke="midnightblue" d="M326.897,-112.674C349.661,-102.278 379.906,-88.4654 400.234,-79.1817"/>
<polygon fill="midnightblue" stroke="midnightblue" points="325.292,-109.559 317.65,-116.897 328.2,-115.927 325.292,-109.559"/>
</g>
<!-- Node11 -->
<g id="node23" class="node"><title>Node11</title>
<a xlink:href="frameschedulerworkunits_8cpp.html" target="_top" xlink:title="The implementation of any workunits the framescheduler needs to work correctly. ">
<polygon fill="white" stroke="black" points="214.028,-59 214.028,-79 355.028,-79 355.028,-59 214.028,-59"/>
<text text-anchor="middle" x="284.528" y="-66" font-family="FreeSans" font-size="10.00">frameschedulerworkunits.cpp</text>
</a>
</g>
<!-- Node9&#45;&gt;Node11 -->
<g id="edge24" class="edge"><title>Node9&#45;&gt;Node11</title>
<path fill="none" stroke="midnightblue" d="M291.714,-106.89C289.956,-97.6201 287.944,-87.0083 286.496,-79.3776"/>
<polygon fill="midnightblue" stroke="midnightblue" points="288.31,-107.724 293.612,-116.897 295.187,-106.42 288.31,-107.724"/>
</g>
<!-- Node12&#45;&gt;Node7 -->
<g id="edge28" class="edge"><title>Node12&#45;&gt;Node7</title>
<path fill="none" stroke="midnightblue" d="M523.333,-113.034C540.821,-105.311 560.802,-94.339 575.528,-80 593.165,-62.8272 604.787,-35.6911 610.133,-21.0926"/>
<polygon fill="midnightblue" stroke="midnightblue" points="521.785,-109.888 513.923,-116.991 524.498,-116.341 521.785,-109.888"/>
</g>
<!-- Node12&#45;&gt;Node10 -->
<g id="edge30" class="edge"><title>Node12&#45;&gt;Node10</title>
<path fill="none" stroke="midnightblue" d="M466.206,-109.86C455.626,-99.9622 442.665,-87.8377 433.622,-79.3776"/>
<polygon fill="midnightblue" stroke="midnightblue" points="464.035,-112.622 473.729,-116.897 468.817,-107.51 464.035,-112.622"/>
</g>
<!-- Node13 -->
<g id="node29" class="node"><title>Node13</title>
<a xlink:href="monopoly_8cpp.html" target="_top" xlink:title="Contains the minimal implementation for the monopoly base class. ">
<polygon fill="white" stroke="black" points="490.528,-59 490.528,-79 566.528,-79 566.528,-59 490.528,-59"/>
<text text-anchor="middle" x="528.528" y="-66" font-family="FreeSans" font-size="10.00">monopoly.cpp</text>
</a>
</g>
<!-- Node12&#45;&gt;Node13 -->
<g id="edge32" class="edge"><title>Node12&#45;&gt;Node13</title>
<path fill="none" stroke="midnightblue" d="M498.422,-108.686C505.757,-99.0169 514.489,-87.5059 520.656,-79.3776"/>
<polygon fill="midnightblue" stroke="midnightblue" points="495.448,-106.815 492.192,-116.897 501.025,-111.046 495.448,-106.815"/>
</g>
<!-- Node16&#45;&gt;Node7 -->
<g id="edge46" class="edge"><title>Node16&#45;&gt;Node7</title>
<path fill="none" stroke="midnightblue" d="M36.2486,-227.789C14.988,-214.888 -7.79033,-195.149 3.52822,-174 47.3842,-92.0544 90.1467,-89.6685 177.528,-58 246.69,-32.9347 459.887,-18.9293 560.249,-13.5693"/>
<polygon fill="midnightblue" stroke="midnightblue" points="34.7446,-230.961 45.1635,-232.884 38.2178,-224.883 34.7446,-230.961"/>
</g>
<!-- Node17 -->
<g id="node41" class="node"><title>Node17</title>
<a xlink:href="readwritespinlock_8cpp.html" target="_top" xlink:title="Contains the implementation for the Mezzanine::Threading::Mutex Mutex synchronization object...">
<polygon fill="white" stroke="black" points="12.0282,-175 12.0282,-195 121.028,-195 121.028,-175 12.0282,-175"/>
<text text-anchor="middle" x="66.5282" y="-182" font-family="FreeSans" font-size="10.00">readwritespinlock.cpp</text>
</a>
</g>
<!-- Node16&#45;&gt;Node17 -->
<g id="edge48" class="edge"><title>Node16&#45;&gt;Node17</title>
<path fill="none" stroke="midnightblue" d="M66.5282,-222.89C66.5282,-213.62 66.5282,-203.008 66.5282,-195.378"/>
<polygon fill="midnightblue" stroke="midnightblue" points="63.0283,-222.897 66.5282,-232.897 70.0283,-222.897 63.0283,-222.897"/>
</g>
</g>
</svg>
        <g id="navigator" transform="translate(0 0)" fill="#404254">
                <rect fill="#f2f5e9" fill-opacity="0.5" stroke="#606060" stroke-width=".5" x="0" y="0" width="60" height="60"/>
                <use id="zoomplus" xlink:href="#zoomPlus" x="17" y="9" onmousedown="handleZoom(evt,'in')"/>
                <use id="zoomminus" xlink:href="#zoomMin" x="42" y="9" onmousedown="handleZoom(evt,'out')"/>
                <use id="reset" xlink:href="#resetDef" x="30" y="36" onmousedown="handleReset()"/>
                <g id="arrowUp" xlink:href="#dirArrow" transform="translate(30 24)" onmousedown="handlePan(0,-1)">
                  <use xlink:href="#rim" fill="#404040">
                        <set attributeName="fill" to="#808080" begin="arrowUp.mouseover" end="arrowUp.mouseout"/>
                  </use>
                  <path fill="none" stroke="white" stroke-width="1.5" d="M0,-3.0v7 M-2.5,-0.5L0,-3.0L2.5,-0.5"/>
                </g>
                <g id="arrowRight" xlink:href="#dirArrow" transform="rotate(90) translate(36 -43)" onmousedown="handlePan(1,0)">
                  <use xlink:href="#rim" fill="#404040">
                        <set attributeName="fill" to="#808080" begin="arrowRight.mouseover" end="arrowRight.mouseout"/>
                  </use>
                  <path fill="none" stroke="white" stroke-width="1.5" d="M0,-3.0v7 M-2.5,-0.5L0,-3.0L2.5,-0.5"/>
                </g>
                <g id="arrowDown" xlink:href="#dirArrow" transform="rotate(180) translate(-30 -48)" onmousedown="handlePan(0,1)">
                  <use xlink:href="#rim" fill="#404040">
                        <set attributeName="fill" to="#808080" begin="arrowDown.mouseover" end="arrowDown.mouseout"/>
                  </use>
                  <path fill="none" stroke="white" stroke-width="1.5" d="M0,-3.0v7 M-2.5,-0.5L0,-3.0L2.5,-0.5"/>
                </g>
                <g id="arrowLeft" xlink:href="#dirArrow" transform="rotate(270) translate(-36 17)" onmousedown="handlePan(-1,0)">
                  <use xlink:href="#rim" fill="#404040">
                        <set attributeName="fill" to="#808080" begin="arrowLeft.mouseover" end="arrowLeft.mouseout"/>
                  </use>
                  <path fill="none" stroke="white" stroke-width="1.5" d="M0,-3.0v7 M-2.5,-0.5L0,-3.0L2.5,-0.5"/>
                </g>
        </g>
        <svg viewBox="0 0 15 15" width="100%" height="30px" preserveAspectRatio="xMaxYMin meet">
         <g id="arrow_out" transform="scale(0.3 0.3)">
          <a xlink:href="spinlock_8h__dep__incl_org.svg" target="_base">
           <rect id="button" ry="5" rx="5" y="6" x="6" height="38" width="38"
                fill="#f2f5e9" fill-opacity="0.5" stroke="#606060" stroke-width="1.0"/>
           <path id="arrow"
             d="M 11.500037,31.436501 C 11.940474,20.09759 22.043105,11.32322 32.158766,21.979434 L 37.068811,17.246167 C 37.068811,17.246167 37.088388,32 37.088388,32 L 22.160133,31.978069 C 22.160133,31.978069 26.997745,27.140456 26.997745,27.140456 C 18.528582,18.264221 13.291696,25.230495 11.500037,31.436501 z"
             style="fill:#404040;"/>
          </a>
         </g>
        </svg>
</svg>
