<?xml version="1.0" encoding="UTF-8" standalone="no"?>
<!DOCTYPE svg PUBLIC "-//W3C//DTD SVG 1.1//EN"
 "http://www.w3.org/Graphics/SVG/1.1/DTD/svg11.dtd">
<!-- Generated by graphviz version 2.26.3 (20100126.1600)
 -->
<!-- Title: spinlock.cpp Pages: 1 -->
<!--zoomable 204 -->
<svg id="main" version="1.1" xmlns="http://www.w3.org/2000/svg" xmlns:xlink="http://www.w3.org/1999/xlink" xml:space="preserve" onload="init(evt)">
<style type="text/css"><![CDATA[
.edge:hover path { stroke: red; }
.edge:hover polygon { stroke: red; fill: red; }
]]></style>
<script type="text/javascript"><![CDATA[
var edges = document.getElementsByTagName('g');
if (edges && edges.length) {
  for (var i=0;i<edges.length;i++) {
    if (edges[i].id.substr(0,4)=='edge') {
      edges[i].setAttribute('class','edge');
    }
  }
}
]]></script>
        <defs>
                <circle id="rim" cx="0" cy="0" r="7"/>
                <circle id="rim2" cx="0" cy="0" r="3.5"/>
                <g id="zoomPlus">
                        <use xlink:href="#rim" fill="#404040">
                                <set attributeName="fill" to="#808080" begin="zoomplus.mouseover" end="zoomplus.mouseout"/>
                        </use>
                        <path d="M-4,0h8M0,-4v8" fill="none" stroke="white" stroke-width="1.5" pointer-events="none"/>
                </g>
                <g id="zoomMin">
                        <use xlink:href="#rim" fill="#404040">
                                <set attributeName="fill" to="#808080" begin="zoomminus.mouseover" end="zoomminus.mouseout"/>
                        </use>
                        <path d="M-4,0h8" fill="none" stroke="white" stroke-width="1.5" pointer-events="none"/>
                </g>
                <g id="dirArrow">
                        <path fill="none" stroke="white" stroke-width="1.5" d="M0,-3.0v7 M-2.5,-0.5L0,-3.0L2.5,-0.5"/>
                </g>
               <g id="resetDef">
                       <use xlink:href="#rim2" fill="#404040">
                               <set attributeName="fill" to="#808080" begin="reset.mouseover" end="reset.mouseout"/>
                       </use>
               </g>
        </defs>

<script type="text/javascript">
var viewWidth = 672;
var viewHeight = 204;
var sectionId = 'dynsection-0';
</script>
<script xlink:href="svgpan.js"/>
<svg id="graph" class="graph">
<g id="viewport">
<title>spinlock.cpp</title>
<polygon fill="white" stroke="white" points="-4,5 -4,-200 669,-200 669,5 -4,5"/>
<!-- Node1 -->
<g id="node1" class="node"><title>Node1</title>
<polygon fill="#bfbfbf" stroke="black" points="329,-175 329,-195 399,-195 399,-175 329,-175"/>
<text text-anchor="middle" x="364" y="-182" font-family="FreeSans" font-size="10.00">spinlock.cpp</text>
</g>
<!-- Node2 -->
<g id="node3" class="node"><title>Node2</title>
<a xlink:href="spinlock_8h.html" target="_top" xlink:title="Declares a Mutex, Mutex tools, and at least one MutexLike object. ">
<polygon fill="white" stroke="black" points="238.5,-117 238.5,-137 297.5,-137 297.5,-117 238.5,-117"/>
<text text-anchor="middle" x="268" y="-124" font-family="FreeSans" font-size="10.00">spinlock.h</text>
</a>
</g>
<!-- Node1&#45;&gt;Node2 -->
<g id="edge2" class="edge"><title>Node1&#45;&gt;Node2</title>
<path fill="none" stroke="midnightblue" d="M347.278,-174.897C332.502,-165.97 310.721,-152.811 293.726,-142.543"/>
<polygon fill="midnightblue" stroke="midnightblue" points="295.221,-139.357 284.852,-137.182 291.602,-145.349 295.221,-139.357"/>
</g>
<!-- Node14 -->
<g id="node27" class="node"><title>Node14</title>
<a xlink:href="atomicoperations_8h.html" target="_top" xlink:title="Simple thread safe ways to check and change a specified variable atomically. ">
<polygon fill="white" stroke="black" points="315,-117 315,-137 413,-137 413,-117 315,-117"/>
<text text-anchor="middle" x="364" y="-124" font-family="FreeSans" font-size="10.00">atomicoperations.h</text>
</a>
</g>
<!-- Node1&#45;&gt;Node14 -->
<g id="edge26" class="edge"><title>Node1&#45;&gt;Node14</title>
<path fill="none" stroke="midnightblue" d="M364,-174.897C364,-167.339 364,-156.748 364,-147.446"/>
<polygon fill="midnightblue" stroke="midnightblue" points="367.5,-147.378 364,-137.378 360.5,-147.378 367.5,-147.378"/>
</g>
<!-- Node15 -->
<g id="node30" class="node"><title>Node15</title>
<a xlink:href="crossplatformincludes_8h.html" target="_top" xlink:title="This file determines what features are offered by the compiler that this library can take advantage o...">
<polygon fill="white" stroke="black" points="430.5,-117 430.5,-137 547.5,-137 547.5,-117 430.5,-117"/>
<text text-anchor="middle" x="489" y="-124" font-family="FreeSans" font-size="10.00">crossplatformincludes.h</text>
</a>
</g>
<!-- Node1&#45;&gt;Node15 -->
<g id="edge30" class="edge"><title>Node1&#45;&gt;Node15</title>
<path fill="none" stroke="midnightblue" d="M385.773,-174.897C405.726,-165.639 435.487,-151.83 457.934,-141.415"/>
<polygon fill="midnightblue" stroke="midnightblue" points="459.459,-144.566 467.057,-137.182 456.513,-138.216 459.459,-144.566"/>
</g>
<!-- Node3 -->
<g id="node5" class="node"><title>Node3</title>
<a xlink:href="datatypes_8h.html" target="_top" xlink:title="This file declares a few typedefs to allow flexibility, in case a change is required/desired. ">
<polygon fill="white" stroke="black" points="238.5,-59 238.5,-79 303.5,-79 303.5,-59 238.5,-59"/>
<text text-anchor="middle" x="271" y="-66" font-family="FreeSans" font-size="10.00">datatypes.h</text>
</a>
</g>
<!-- Node2&#45;&gt;Node3 -->
<g id="edge4" class="edge"><title>Node2&#45;&gt;Node3</title>
<path fill="none" stroke="midnightblue" d="M268.523,-116.897C268.913,-109.339 269.461,-98.7476 269.942,-89.4458"/>
<polygon fill="midnightblue" stroke="midnightblue" points="273.442,-89.5451 270.463,-79.3776 266.451,-89.1834 273.442,-89.5451"/>
</g>
<!-- Node4 -->
<g id="node7" class="node"><title>Node4</title>
<a xlink:href="crossplatformexport_8h.html" target="_top" xlink:title="This file determines what features are offered by the compiler that this library can take advantage o...">
<polygon fill="white" stroke="black" points="556,-1 556,-21 664,-21 664,-1 556,-1"/>
<text text-anchor="middle" x="610" y="-8" font-family="FreeSans" font-size="10.00">crossplatformexport.h</text>
</a>
</g>
<!-- Node3&#45;&gt;Node4 -->
<g id="edge6" class="edge"><title>Node3&#45;&gt;Node4</title>
<path fill="none" stroke="midnightblue" d="M303.603,-60.4983C307.433,-59.6036 311.295,-58.7489 315,-58 414.18,-37.9508 442.355,-38.8951 545.802,-22.1652"/>
<polygon fill="midnightblue" stroke="midnightblue" points="546.41,-25.6123 555.715,-20.5455 545.281,-18.7039 546.41,-25.6123"/>
</g>
<!-- Node5 -->
<g id="node9" class="node"><title>Node5</title>
<polygon fill="white" stroke="#bfbfbf" points="-0.5,-1 -0.5,-21 42.5,-21 42.5,-1 -0.5,-1"/>
<text text-anchor="middle" x="21" y="-8" font-family="FreeSans" font-size="10.00">vector</text>
</g>
<!-- Node3&#45;&gt;Node5 -->
<g id="edge8" class="edge"><title>Node3&#45;&gt;Node5</title>
<path fill="none" stroke="midnightblue" d="M238.215,-63.4882C196.858,-56.2123 123.457,-42.2277 52.5018,-22.1696"/>
<polygon fill="midnightblue" stroke="midnightblue" points="53.0873,-18.6963 42.5096,-19.2991 51.1545,-25.4242 53.0873,-18.6963"/>
</g>
<!-- Node6 -->
<g id="node11" class="node"><title>Node6</title>
<polygon fill="white" stroke="#bfbfbf" points="60,-1 60,-21 100,-21 100,-1 60,-1"/>
<text text-anchor="middle" x="80" y="-8" font-family="FreeSans" font-size="10.00">string</text>
</g>
<!-- Node3&#45;&gt;Node6 -->
<g id="edge10" class="edge"><title>Node3&#45;&gt;Node6</title>
<path fill="none" stroke="midnightblue" d="M238.491,-60.3931C207.602,-52.0344 159.688,-38.6011 109.861,-22.1245"/>
<polygon fill="midnightblue" stroke="midnightblue" points="110.801,-18.7485 100.207,-18.9014 108.584,-25.3882 110.801,-18.7485"/>
</g>
<!-- Node7 -->
<g id="node13" class="node"><title>Node7</title>
<polygon fill="white" stroke="#bfbfbf" points="117.5,-1 117.5,-21 168.5,-21 168.5,-1 117.5,-1"/>
<text text-anchor="middle" x="143" y="-8" font-family="FreeSans" font-size="10.00">ostream</text>
</g>
<!-- Node3&#45;&gt;Node7 -->
<g id="edge12" class="edge"><title>Node3&#45;&gt;Node7</title>
<path fill="none" stroke="midnightblue" d="M248.704,-58.8972C228.273,-49.6391 197.797,-35.83 174.811,-25.4145"/>
<polygon fill="midnightblue" stroke="midnightblue" points="176.023,-22.121 165.47,-21.1817 173.134,-28.497 176.023,-22.121"/>
</g>
<!-- Node8 -->
<g id="node15" class="node"><title>Node8</title>
<polygon fill="white" stroke="#bfbfbf" points="185.5,-1 185.5,-21 220.5,-21 220.5,-1 185.5,-1"/>
<text text-anchor="middle" x="203" y="-8" font-family="FreeSans" font-size="10.00">map</text>
</g>
<!-- Node3&#45;&gt;Node8 -->
<g id="edge14" class="edge"><title>Node3&#45;&gt;Node8</title>
<path fill="none" stroke="midnightblue" d="M259.155,-58.8972C249.138,-50.3532 234.577,-37.933 222.792,-27.8813"/>
<polygon fill="midnightblue" stroke="midnightblue" points="225.047,-25.2042 215.167,-21.3776 220.504,-30.53 225.047,-25.2042"/>
</g>
<!-- Node9 -->
<g id="node17" class="node"><title>Node9</title>
<polygon fill="white" stroke="#bfbfbf" points="237.5,-1 237.5,-21 266.5,-21 266.5,-1 237.5,-1"/>
<text text-anchor="middle" x="252" y="-8" font-family="FreeSans" font-size="10.00">set</text>
</g>
<!-- Node3&#45;&gt;Node9 -->
<g id="edge16" class="edge"><title>Node3&#45;&gt;Node9</title>
<path fill="none" stroke="midnightblue" d="M267.69,-58.8972C265.188,-51.2569 261.669,-40.517 258.599,-31.1429"/>
<polygon fill="midnightblue" stroke="midnightblue" points="261.839,-29.7911 255.4,-21.3776 255.187,-31.9703 261.839,-29.7911"/>
</g>
<!-- Node10 -->
<g id="node19" class="node"><title>Node10</title>
<polygon fill="white" stroke="#bfbfbf" points="284,-1 284,-21 334,-21 334,-1 284,-1"/>
<text text-anchor="middle" x="309" y="-8" font-family="FreeSans" font-size="10.00">sstream</text>
</g>
<!-- Node3&#45;&gt;Node10 -->
<g id="edge18" class="edge"><title>Node3&#45;&gt;Node10</title>
<path fill="none" stroke="midnightblue" d="M277.619,-58.8972C282.84,-50.9283 290.27,-39.5874 296.59,-29.9413"/>
<polygon fill="midnightblue" stroke="midnightblue" points="299.648,-31.6603 302.201,-21.3776 293.793,-27.8241 299.648,-31.6603"/>
</g>
<!-- Node11 -->
<g id="node21" class="node"><title>Node11</title>
<polygon fill="white" stroke="#bfbfbf" points="351.5,-1 351.5,-21 400.5,-21 400.5,-1 351.5,-1"/>
<text text-anchor="middle" x="376" y="-8" font-family="FreeSans" font-size="10.00">fstream</text>
</g>
<!-- Node3&#45;&gt;Node11 -->
<g id="edge20" class="edge"><title>Node3&#45;&gt;Node11</title>
<path fill="none" stroke="midnightblue" d="M289.29,-58.8972C305.676,-49.8458 329.937,-36.4442 348.633,-26.117"/>
<polygon fill="midnightblue" stroke="midnightblue" points="350.507,-29.0806 357.568,-21.1817 347.122,-22.9532 350.507,-29.0806"/>
</g>
<!-- Node12 -->
<g id="node23" class="node"><title>Node12</title>
<polygon fill="white" stroke="#bfbfbf" points="418,-1 418,-21 474,-21 474,-1 418,-1"/>
<text text-anchor="middle" x="446" y="-8" font-family="FreeSans" font-size="10.00">algorithm</text>
</g>
<!-- Node3&#45;&gt;Node12 -->
<g id="edge22" class="edge"><title>Node3&#45;&gt;Node12</title>
<path fill="none" stroke="midnightblue" d="M301.483,-58.8972C331.085,-49.0863 376.107,-34.1644 408.024,-23.5865"/>
<polygon fill="midnightblue" stroke="midnightblue" points="409.498,-26.785 417.889,-20.3167 407.296,-20.1405 409.498,-26.785"/>
</g>
<!-- Node13 -->
<g id="node25" class="node"><title>Node13</title>
<polygon fill="white" stroke="#bfbfbf" points="491.5,-1 491.5,-21 538.5,-21 538.5,-1 491.5,-1"/>
<text text-anchor="middle" x="515" y="-8" font-family="FreeSans" font-size="10.00">stdint.h</text>
</g>
<!-- Node3&#45;&gt;Node13 -->
<g id="edge24" class="edge"><title>Node3&#45;&gt;Node13</title>
<path fill="none" stroke="midnightblue" d="M303.648,-60.7073C307.47,-59.7751 311.318,-58.8544 315,-58 386.334,-41.4453 407.692,-42.3402 481.56,-22.193"/>
<polygon fill="midnightblue" stroke="midnightblue" points="482.629,-25.5287 491.334,-19.4894 480.763,-18.7821 482.629,-25.5287"/>
</g>
<!-- Node14&#45;&gt;Node3 -->
<g id="edge28" class="edge"><title>Node14&#45;&gt;Node3</title>
<path fill="none" stroke="midnightblue" d="M347.801,-116.897C333.486,-107.97 312.386,-94.8106 295.923,-84.5431"/>
<polygon fill="midnightblue" stroke="midnightblue" points="297.663,-81.5037 287.326,-79.1817 293.959,-87.4433 297.663,-81.5037"/>
</g>
<!-- Node15&#45;&gt;Node4 -->
<g id="edge32" class="edge"><title>Node15&#45;&gt;Node4</title>
<path fill="none" stroke="midnightblue" d="M530.419,-116.928C551.327,-109.847 575.48,-98.283 591,-80 602.534,-66.4133 607.108,-46.3901 608.9,-31.4086"/>
<polygon fill="midnightblue" stroke="midnightblue" points="612.415,-31.3915 609.798,-21.125 605.441,-30.7828 612.415,-31.3915"/>
</g>
<!-- Node16 -->
<g id="node33" class="node"><title>Node16</title>
<polygon fill="white" stroke="#bfbfbf" points="324,-59 324,-79 380,-79 380,-59 324,-59"/>
<text text-anchor="middle" x="352" y="-66" font-family="FreeSans" font-size="10.00">pthread.h</text>
</g>
<!-- Node15&#45;&gt;Node16 -->
<g id="edge34" class="edge"><title>Node15&#45;&gt;Node16</title>
<path fill="none" stroke="midnightblue" d="M465.136,-116.897C443.073,-107.556 410.067,-93.5831 385.391,-83.1363"/>
<polygon fill="midnightblue" stroke="midnightblue" points="386.623,-79.8573 376.05,-79.1817 383.894,-86.3034 386.623,-79.8573"/>
</g>
<!-- Node17 -->
<g id="node35" class="node"><title>Node17</title>
<polygon fill="white" stroke="#bfbfbf" points="397.5,-59 397.5,-79 446.5,-79 446.5,-59 397.5,-59"/>
<text text-anchor="middle" x="422" y="-66" font-family="FreeSans" font-size="10.00">signal.h</text>
</g>
<!-- Node15&#45;&gt;Node17 -->
<g id="edge36" class="edge"><title>Node15&#45;&gt;Node17</title>
<path fill="none" stroke="midnightblue" d="M477.329,-116.897C467.555,-108.435 453.388,-96.1715 441.837,-86.1719"/>
<polygon fill="midnightblue" stroke="midnightblue" points="443.839,-83.2764 433.988,-79.3776 439.258,-88.5689 443.839,-83.2764"/>
</g>
<!-- Node18 -->
<g id="node37" class="node"><title>Node18</title>
<polygon fill="white" stroke="#bfbfbf" points="464,-59 464,-79 514,-79 514,-59 464,-59"/>
<text text-anchor="middle" x="489" y="-66" font-family="FreeSans" font-size="10.00">sched.h</text>
</g>
<!-- Node15&#45;&gt;Node18 -->
<g id="edge38" class="edge"><title>Node15&#45;&gt;Node18</title>
<path fill="none" stroke="midnightblue" d="M489,-116.897C489,-109.339 489,-98.7476 489,-89.4458"/>
<polygon fill="midnightblue" stroke="midnightblue" points="492.5,-89.3776 489,-79.3776 485.5,-89.3776 492.5,-89.3776"/>
</g>
<!-- Node19 -->
<g id="node39" class="node"><title>Node19</title>
<polygon fill="white" stroke="#bfbfbf" points="532,-59 532,-79 582,-79 582,-59 532,-59"/>
<text text-anchor="middle" x="557" y="-66" font-family="FreeSans" font-size="10.00">unistd.h</text>
</g>
<!-- Node15&#45;&gt;Node19 -->
<g id="edge40" class="edge"><title>Node15&#45;&gt;Node19</title>
<path fill="none" stroke="midnightblue" d="M500.845,-116.897C510.862,-108.353 525.423,-95.933 537.208,-85.8813"/>
<polygon fill="midnightblue" stroke="midnightblue" points="539.496,-88.53 544.833,-79.3776 534.953,-83.2042 539.496,-88.53"/>
</g>
</g>
</svg>
        <g id="navigator" transform="translate(0 0)" fill="#404254">
                <rect fill="#f2f5e9" fill-opacity="0.5" stroke="#606060" stroke-width=".5" x="0" y="0" width="60" height="60"/>
                <use id="zoomplus" xlink:href="#zoomPlus" x="17" y="9" onmousedown="handleZoom(evt,'in')"/>
                <use id="zoomminus" xlink:href="#zoomMin" x="42" y="9" onmousedown="handleZoom(evt,'out')"/>
                <use id="reset" xlink:href="#resetDef" x="30" y="36" onmousedown="handleReset()"/>
                <g id="arrowUp" xlink:href="#dirArrow" transform="translate(30 24)" onmousedown="handlePan(0,-1)">
                  <use xlink:href="#rim" fill="#404040">
                        <set attributeName="fill" to="#808080" begin="arrowUp.mouseover" end="arrowUp.mouseout"/>
                  </use>
                  <path fill="none" stroke="white" stroke-width="1.5" d="M0,-3.0v7 M-2.5,-0.5L0,-3.0L2.5,-0.5"/>
                </g>
                <g id="arrowRight" xlink:href="#dirArrow" transform="rotate(90) translate(36 -43)" onmousedown="handlePan(1,0)">
                  <use xlink:href="#rim" fill="#404040">
                        <set attributeName="fill" to="#808080" begin="arrowRight.mouseover" end="arrowRight.mouseout"/>
                  </use>
                  <path fill="none" stroke="white" stroke-width="1.5" d="M0,-3.0v7 M-2.5,-0.5L0,-3.0L2.5,-0.5"/>
                </g>
                <g id="arrowDown" xlink:href="#dirArrow" transform="rotate(180) translate(-30 -48)" onmousedown="handlePan(0,1)">
                  <use xlink:href="#rim" fill="#404040">
                        <set attributeName="fill" to="#808080" begin="arrowDown.mouseover" end="arrowDown.mouseout"/>
                  </use>
                  <path fill="none" stroke="white" stroke-width="1.5" d="M0,-3.0v7 M-2.5,-0.5L0,-3.0L2.5,-0.5"/>
                </g>
                <g id="arrowLeft" xlink:href="#dirArrow" transform="rotate(270) translate(-36 17)" onmousedown="handlePan(-1,0)">
                  <use xlink:href="#rim" fill="#404040">
                        <set attributeName="fill" to="#808080" begin="arrowLeft.mouseover" end="arrowLeft.mouseout"/>
                  </use>
                  <path fill="none" stroke="white" stroke-width="1.5" d="M0,-3.0v7 M-2.5,-0.5L0,-3.0L2.5,-0.5"/>
                </g>
        </g>
        <svg viewBox="0 0 15 15" width="100%" height="30px" preserveAspectRatio="xMaxYMin meet">
         <g id="arrow_out" transform="scale(0.3 0.3)">
          <a xlink:href="spinlock_8cpp__incl_org.svg" target="_base">
           <rect id="button" ry="5" rx="5" y="6" x="6" height="38" width="38"
                fill="#f2f5e9" fill-opacity="0.5" stroke="#606060" stroke-width="1.0"/>
           <path id="arrow"
             d="M 11.500037,31.436501 C 11.940474,20.09759 22.043105,11.32322 32.158766,21.979434 L 37.068811,17.246167 C 37.068811,17.246167 37.088388,32 37.088388,32 L 22.160133,31.978069 C 22.160133,31.978069 26.997745,27.140456 26.997745,27.140456 C 18.528582,18.264221 13.291696,25.230495 11.500037,31.436501 z"
             style="fill:#404040;"/>
          </a>
         </g>
        </svg>
</svg>
