<?xml version="1.0" encoding="UTF-8" standalone="no"?>
<!DOCTYPE svg PUBLIC "-//W3C//DTD SVG 1.1//EN"
 "http://www.w3.org/Graphics/SVG/1.1/DTD/svg11.dtd">
<!-- Generated by graphviz version 2.26.3 (20100126.1600)
 -->
<!-- Title: spinlock.h Pages: 1 -->
<!--zoomable 320 -->
<svg id="main" version="1.1" xmlns="http://www.w3.org/2000/svg" xmlns:xlink="http://www.w3.org/1999/xlink" xml:space="preserve" onload="init(evt)">
<style type="text/css"><![CDATA[
.edge:hover path { stroke: red; }
.edge:hover polygon { stroke: red; fill: red; }
]]></style>
<script type="text/javascript"><![CDATA[
var edges = document.getElementsByTagName('g');
if (edges && edges.length) {
  for (var i=0;i<edges.length;i++) {
    if (edges[i].id.substr(0,4)=='edge') {
      edges[i].setAttribute('class','edge');
    }
  }
}
]]></script>
        <defs>
                <circle id="rim" cx="0" cy="0" r="7"/>
                <circle id="rim2" cx="0" cy="0" r="3.5"/>
                <g id="zoomPlus">
                        <use xlink:href="#rim" fill="#404040">
                                <set attributeName="fill" to="#808080" begin="zoomplus.mouseover" end="zoomplus.mouseout"/>
                        </use>
                        <path d="M-4,0h8M0,-4v8" fill="none" stroke="white" stroke-width="1.5" pointer-events="none"/>
                </g>
                <g id="zoomMin">
                        <use xlink:href="#rim" fill="#404040">
                                <set attributeName="fill" to="#808080" begin="zoomminus.mouseover" end="zoomminus.mouseout"/>
                        </use>
                        <path d="M-4,0h8" fill="none" stroke="white" stroke-width="1.5" pointer-events="none"/>
                </g>
                <g id="dirArrow">
                        <path fill="none" stroke="white" stroke-width="1.5" d="M0,-3.0v7 M-2.5,-0.5L0,-3.0L2.5,-0.5"/>
                </g>
               <g id="resetDef">
                       <use xlink:href="#rim2" fill="#404040">
                               <set attributeName="fill" to="#808080" begin="reset.mouseover" end="reset.mouseout"/>
                       </use>
               </g>
        </defs>

<script type="text/javascript">
var viewWidth = 1067;
var viewHeight = 320;
var sectionId = 'dynsection-1';
</script>
<script xlink:href="svgpan.js"/>
<svg id="graph" class="graph">
<g id="viewport">
<title>spinlock.h</title>
<polygon fill="white" stroke="white" points="-4,5 -4,-316 1064.37,-316 1064.37,5 -4,5"/>
<!-- Node1 -->
<g id="node1" class="node"><title>Node1</title>
<polygon fill="#bfbfbf" stroke="black" points="774.867,-291 774.867,-311 833.867,-311 833.867,-291 774.867,-291"/>
<text text-anchor="middle" x="804.367" y="-298" font-family="FreeSans" font-size="10.00">spinlock.h</text>
</g>
<!-- Node2 -->
<g id="node3" class="node"><title>Node2</title>
<a xlink:href="framescheduler_8h.html" target="_top" xlink:title="This file has the Declarations for the main FrameScheduler class. ">
<polygon fill="white" stroke="black" points="669.367,-233 669.367,-253 759.367,-253 759.367,-233 669.367,-233"/>
<text text-anchor="middle" x="714.367" y="-240" font-family="FreeSans" font-size="10.00">framescheduler.h</text>
</a>
</g>
<!-- Node1&#45;&gt;Node2 -->
<g id="edge2" class="edge"><title>Node1&#45;&gt;Node2</title>
<path fill="none" stroke="midnightblue" d="M779.946,-285.262C764.106,-275.054 743.929,-262.051 730.167,-253.182"/>
<polygon fill="midnightblue" stroke="midnightblue" points="778.389,-288.422 788.691,-290.897 782.181,-282.538 778.389,-288.422"/>
</g>
<!-- Node7 -->
<g id="node13" class="node"><title>Node7</title>
<a xlink:href="dagframescheduler_8h.html" target="_top" xlink:title="This is the file that code using this library should include. It includes all the required components...">
<polygon fill="white" stroke="black" points="525.367,-1 525.367,-21 631.367,-21 631.367,-1 525.367,-1"/>
<text text-anchor="middle" x="578.367" y="-8" font-family="FreeSans" font-size="10.00">dagframescheduler.h</text>
</a>
</g>
<!-- Node1&#45;&gt;Node7 -->
<g id="edge48" class="edge"><title>Node1&#45;&gt;Node7</title>
<path fill="none" stroke="midnightblue" d="M764.84,-299.509C603.244,-292.9 1.36743,-263.047 1.36743,-185 1.36743,-185 1.36743,-185 1.36743,-127 1.36743,-95.1919 -4.1023,-78.322 20.3674,-58 58.6969,-26.1675 393.457,-15.178 525.317,-12.0627"/>
<polygon fill="midnightblue" stroke="midnightblue" points="764.703,-303.007 774.836,-299.911 764.985,-296.012 764.703,-303.007"/>
</g>
<!-- Node15 -->
<g id="node36" class="node"><title>Node15</title>
<a xlink:href="readwritespinlock_8h.html" target="_top" xlink:title="Declares a Mutex, Mutex tools, and at least one MutexLike object. ">
<polygon fill="white" stroke="black" points="845.367,-233 845.367,-253 943.367,-253 943.367,-233 845.367,-233"/>
<text text-anchor="middle" x="894.367" y="-240" font-family="FreeSans" font-size="10.00">readwritespinlock.h</text>
</a>
</g>
<!-- Node1&#45;&gt;Node15 -->
<g id="edge42" class="edge"><title>Node1&#45;&gt;Node15</title>
<path fill="none" stroke="midnightblue" d="M828.789,-285.262C844.629,-275.054 864.806,-262.051 878.568,-253.182"/>
<polygon fill="midnightblue" stroke="midnightblue" points="826.554,-282.538 820.044,-290.897 830.346,-288.422 826.554,-282.538"/>
</g>
<!-- Node17 -->
<g id="node42" class="node"><title>Node17</title>
<a xlink:href="spinlock_8cpp.html" target="_top" xlink:title="Contains the implementation for the Mezzanine::Threading::SpinLock synchronization object...">
<polygon fill="white" stroke="black" points="961.367,-233 961.367,-253 1031.37,-253 1031.37,-233 961.367,-233"/>
<text text-anchor="middle" x="996.367" y="-240" font-family="FreeSans" font-size="10.00">spinlock.cpp</text>
</a>
</g>
<!-- Node1&#45;&gt;Node17 -->
<g id="edge50" class="edge"><title>Node1&#45;&gt;Node17</title>
<path fill="none" stroke="midnightblue" d="M843.884,-289.063C879.105,-278.423 930.067,-263.028 963.208,-253.017"/>
<polygon fill="midnightblue" stroke="midnightblue" points="842.507,-285.822 833.947,-292.065 844.532,-292.523 842.507,-285.822"/>
</g>
<!-- Node3 -->
<g id="node5" class="node"><title>Node3</title>
<a xlink:href="workunit_8h.html" target="_top" xlink:title="This file has the definition of the workunit. ">
<polygon fill="white" stroke="black" points="521.367,-175 521.367,-195 581.367,-195 581.367,-175 521.367,-175"/>
<text text-anchor="middle" x="551.367" y="-182" font-family="FreeSans" font-size="10.00">workunit.h</text>
</a>
</g>
<!-- Node2&#45;&gt;Node3 -->
<g id="edge4" class="edge"><title>Node2&#45;&gt;Node3</title>
<path fill="none" stroke="midnightblue" d="M676.402,-229.491C646.85,-218.975 606.487,-204.613 579.707,-195.084"/>
<polygon fill="midnightblue" stroke="midnightblue" points="675.38,-232.842 685.975,-232.897 677.727,-226.247 675.38,-232.842"/>
</g>
<!-- Node2&#45;&gt;Node7 -->
<g id="edge38" class="edge"><title>Node2&#45;&gt;Node7</title>
<path fill="none" stroke="midnightblue" d="M739.695,-227.572C790.121,-194.991 894.106,-117.297 844.367,-58 817.733,-26.2472 701.077,-15.9359 631.402,-12.5949"/>
<polygon fill="midnightblue" stroke="midnightblue" points="737.804,-224.626 731.236,-232.939 741.555,-230.537 737.804,-224.626"/>
</g>
<!-- Node10 -->
<g id="node21" class="node"><title>Node10</title>
<a xlink:href="framescheduler_8cpp.html" target="_top" xlink:title="This is the core object implementation for this algorithm. ">
<polygon fill="white" stroke="black" points="624.867,-59 624.867,-79 725.867,-79 725.867,-59 624.867,-59"/>
<text text-anchor="middle" x="675.367" y="-66" font-family="FreeSans" font-size="10.00">framescheduler.cpp</text>
</a>
</g>
<!-- Node2&#45;&gt;Node10 -->
<g id="edge40" class="edge"><title>Node2&#45;&gt;Node10</title>
<path fill="none" stroke="midnightblue" d="M709.823,-222.724C701.455,-185.389 683.893,-107.039 677.639,-79.135"/>
<polygon fill="midnightblue" stroke="midnightblue" points="706.5,-223.901 712.102,-232.893 713.33,-222.37 706.5,-223.901"/>
</g>
<!-- Node4 -->
<g id="node7" class="node"><title>Node4</title>
<a xlink:href="asynchronousworkunit_8h.html" target="_top" xlink:title="Contains an interface for a kind of WorkUnit that loads or does other work even when the frame schedu...">
<polygon fill="white" stroke="black" points="302.867,-117 302.867,-137 421.867,-137 421.867,-117 302.867,-117"/>
<text text-anchor="middle" x="362.367" y="-124" font-family="FreeSans" font-size="10.00">asynchronousworkunit.h</text>
</a>
</g>
<!-- Node3&#45;&gt;Node4 -->
<g id="edge6" class="edge"><title>Node3&#45;&gt;Node4</title>
<path fill="none" stroke="midnightblue" d="M511.23,-172.683C476.68,-162.08 427.438,-146.969 395.198,-137.075"/>
<polygon fill="midnightblue" stroke="midnightblue" points="510.414,-176.093 521.001,-175.681 512.468,-169.401 510.414,-176.093"/>
</g>
<!-- Node3&#45;&gt;Node7 -->
<g id="edge34" class="edge"><title>Node3&#45;&gt;Node7</title>
<path fill="none" stroke="midnightblue" d="M565.03,-166.433C570.296,-158.166 575.689,-148.041 578.367,-138 589.621,-95.8191 583.467,-42.9147 580.1,-21.1075"/>
<polygon fill="midnightblue" stroke="midnightblue" points="562.019,-164.637 559.29,-174.875 567.807,-168.574 562.019,-164.637"/>
</g>
<!-- Node9 -->
<g id="node18" class="node"><title>Node9</title>
<a xlink:href="frameschedulerworkunits_8h.html" target="_top" xlink:title="This defines a number of workunits that are required for doing some tasks that the Framescheduler req...">
<polygon fill="white" stroke="black" points="438.867,-117 438.867,-137 569.867,-137 569.867,-117 438.867,-117"/>
<text text-anchor="middle" x="504.367" y="-124" font-family="FreeSans" font-size="10.00">frameschedulerworkunits.h</text>
</a>
</g>
<!-- Node3&#45;&gt;Node9 -->
<g id="edge18" class="edge"><title>Node3&#45;&gt;Node9</title>
<path fill="none" stroke="midnightblue" d="M536.766,-166.981C528.882,-157.252 519.431,-145.589 512.777,-137.378"/>
<polygon fill="midnightblue" stroke="midnightblue" points="534.166,-169.331 543.181,-174.897 539.604,-164.924 534.166,-169.331"/>
</g>
<!-- Node12 -->
<g id="node25" class="node"><title>Node12</title>
<a xlink:href="monopoly_8h.html" target="_top" xlink:title="Contains an interface for a kind of WorkUnit that consumes time on multiple thread. ">
<polygon fill="white" stroke="black" points="725.867,-117 725.867,-137 790.867,-137 790.867,-117 725.867,-117"/>
<text text-anchor="middle" x="758.367" y="-124" font-family="FreeSans" font-size="10.00">monopoly.h</text>
</a>
</g>
<!-- Node3&#45;&gt;Node12 -->
<g id="edge26" class="edge"><title>Node3&#45;&gt;Node12</title>
<path fill="none" stroke="midnightblue" d="M591.215,-173.835C630.378,-162.862 689.42,-146.319 725.841,-136.114"/>
<polygon fill="midnightblue" stroke="midnightblue" points="590.152,-170.498 581.467,-176.566 592.041,-177.238 590.152,-170.498"/>
</g>
<!-- Node14 -->
<g id="node32" class="node"><title>Node14</title>
<a xlink:href="workunit_8cpp.html" target="_top" xlink:title="This file has the implementation of the Mezzanine::Threading::DefaultWorkUnit. ">
<polygon fill="white" stroke="black" points="214.867,-117 214.867,-137 285.867,-137 285.867,-117 214.867,-117"/>
<text text-anchor="middle" x="250.367" y="-124" font-family="FreeSans" font-size="10.00">workunit.cpp</text>
</a>
</g>
<!-- Node3&#45;&gt;Node14 -->
<g id="edge36" class="edge"><title>Node3&#45;&gt;Node14</title>
<path fill="none" stroke="midnightblue" d="M511.27,-178.486C460.57,-170.061 370.684,-154.5 294.367,-138 291.751,-137.434 289.053,-136.825 286.342,-136.193"/>
<polygon fill="midnightblue" stroke="midnightblue" points="510.736,-181.945 521.173,-180.123 511.878,-175.039 510.736,-181.945"/>
</g>
<!-- Node5 -->
<g id="node9" class="node"><title>Node5</title>
<a xlink:href="asynchronousfileloadingworkunit_8h.html" target="_top" xlink:title="The declaration of the AsynchronousFileLoadWorkUnit a workunit that loads a listing of files asynchro...">
<polygon fill="white" stroke="black" points="28.8674,-59 28.8674,-79 189.867,-79 189.867,-59 28.8674,-59"/>
<text text-anchor="middle" x="109.367" y="-66" font-family="FreeSans" font-size="10.00">asynchronousfileloadingworkunit.h</text>
</a>
</g>
<!-- Node4&#45;&gt;Node5 -->
<g id="edge8" class="edge"><title>Node4&#45;&gt;Node5</title>
<path fill="none" stroke="midnightblue" d="M308.72,-114.701C262.366,-104.075 196.213,-88.9093 153.035,-79.0108"/>
<polygon fill="midnightblue" stroke="midnightblue" points="308.058,-118.14 318.587,-116.963 309.622,-111.317 308.058,-118.14"/>
</g>
<!-- Node4&#45;&gt;Node7 -->
<g id="edge16" class="edge"><title>Node4&#45;&gt;Node7</title>
<path fill="none" stroke="midnightblue" d="M362.961,-106.836C364.512,-91.3747 369.153,-70.6104 382.367,-58 402.62,-38.6736 474.119,-25.1458 524.896,-17.7178"/>
<polygon fill="midnightblue" stroke="midnightblue" points="359.458,-106.758 362.298,-116.965 366.443,-107.215 359.458,-106.758"/>
</g>
<!-- Node8 -->
<g id="node15" class="node"><title>Node8</title>
<a xlink:href="asynchronousworkunit_8cpp.html" target="_top" xlink:title="Contains very little actually. ">
<polygon fill="white" stroke="black" points="206.867,-59 206.867,-79 335.867,-79 335.867,-59 206.867,-59"/>
<text text-anchor="middle" x="271.367" y="-66" font-family="FreeSans" font-size="10.00">asynchronousworkunit.cpp</text>
</a>
</g>
<!-- Node4&#45;&gt;Node8 -->
<g id="edge14" class="edge"><title>Node4&#45;&gt;Node8</title>
<path fill="none" stroke="midnightblue" d="M337.675,-111.262C321.658,-101.054 301.258,-88.051 287.342,-79.1817"/>
<polygon fill="midnightblue" stroke="midnightblue" points="336.202,-114.474 346.516,-116.897 339.965,-108.571 336.202,-114.474"/>
</g>
<!-- Node6 -->
<g id="node11" class="node"><title>Node6</title>
<a xlink:href="asynchronousfileloadingworkunit_8cpp.html" target="_top" xlink:title="The implementation of the AsynchronousFileLoadWorkUnit a workunit that loads a listing of files async...">
<polygon fill="white" stroke="black" points="23.3674,-1 23.3674,-21 195.367,-21 195.367,-1 23.3674,-1"/>
<text text-anchor="middle" x="109.367" y="-8" font-family="FreeSans" font-size="10.00">asynchronousfileloadingworkunit.cpp</text>
</a>
</g>
<!-- Node5&#45;&gt;Node6 -->
<g id="edge10" class="edge"><title>Node5&#45;&gt;Node6</title>
<path fill="none" stroke="midnightblue" d="M109.367,-48.8902C109.367,-39.6201 109.367,-29.0083 109.367,-21.3776"/>
<polygon fill="midnightblue" stroke="midnightblue" points="105.868,-48.8971 109.367,-58.8972 112.868,-48.8972 105.868,-48.8971"/>
</g>
<!-- Node5&#45;&gt;Node7 -->
<g id="edge12" class="edge"><title>Node5&#45;&gt;Node7</title>
<path fill="none" stroke="midnightblue" d="M200.044,-57.7862C296.662,-45.8378 446.346,-27.3267 525.355,-17.5559"/>
<polygon fill="midnightblue" stroke="midnightblue" points="199.486,-54.3285 189.991,-59.0294 200.345,-61.2756 199.486,-54.3285"/>
</g>
<!-- Node9&#45;&gt;Node7 -->
<g id="edge20" class="edge"><title>Node9&#45;&gt;Node7</title>
<path fill="none" stroke="midnightblue" d="M519.13,-109.05C525.914,-100.477 533.876,-89.9397 540.367,-80 553.528,-59.8475 566.554,-34.7914 573.41,-21.0994"/>
<polygon fill="midnightblue" stroke="midnightblue" points="516.378,-106.888 512.837,-116.873 521.832,-111.276 516.378,-106.888"/>
</g>
<!-- Node9&#45;&gt;Node10 -->
<g id="edge22" class="edge"><title>Node9&#45;&gt;Node10</title>
<path fill="none" stroke="midnightblue" d="M543.792,-113.628C574.831,-103.1 617.421,-88.6545 645.636,-79.0842"/>
<polygon fill="midnightblue" stroke="midnightblue" points="542.499,-110.37 534.153,-116.897 544.748,-117 542.499,-110.37"/>
</g>
<!-- Node11 -->
<g id="node23" class="node"><title>Node11</title>
<a xlink:href="frameschedulerworkunits_8cpp.html" target="_top" xlink:title="The implementation of any workunits the framescheduler needs to work correctly. ">
<polygon fill="white" stroke="black" points="390.867,-59 390.867,-79 531.867,-79 531.867,-59 390.867,-59"/>
<text text-anchor="middle" x="461.367" y="-66" font-family="FreeSans" font-size="10.00">frameschedulerworkunits.cpp</text>
</a>
</g>
<!-- Node9&#45;&gt;Node11 -->
<g id="edge24" class="edge"><title>Node9&#45;&gt;Node11</title>
<path fill="none" stroke="midnightblue" d="M490.79,-108.686C483.621,-99.0169 475.087,-87.5059 469.061,-79.3776"/>
<polygon fill="midnightblue" stroke="midnightblue" points="488.11,-110.949 496.877,-116.897 493.733,-106.78 488.11,-110.949"/>
</g>
<!-- Node12&#45;&gt;Node7 -->
<g id="edge28" class="edge"><title>Node12&#45;&gt;Node7</title>
<path fill="none" stroke="midnightblue" d="M791.246,-112.287C816.708,-98.867 845.057,-78.1193 828.367,-58 803.872,-28.4705 697.465,-17.3745 631.619,-13.2927"/>
<polygon fill="midnightblue" stroke="midnightblue" points="789.452,-109.271 782.084,-116.885 792.592,-115.527 789.452,-109.271"/>
</g>
<!-- Node12&#45;&gt;Node10 -->
<g id="edge30" class="edge"><title>Node12&#45;&gt;Node10</title>
<path fill="none" stroke="midnightblue" d="M735.435,-110.975C720.89,-100.811 702.511,-87.9681 689.938,-79.1817"/>
<polygon fill="midnightblue" stroke="midnightblue" points="733.708,-114.038 743.91,-116.897 737.718,-108.3 733.708,-114.038"/>
</g>
<!-- Node13 -->
<g id="node29" class="node"><title>Node13</title>
<a xlink:href="monopoly_8cpp.html" target="_top" xlink:title="Contains the minimal implementation for the monopoly base class. ">
<polygon fill="white" stroke="black" points="743.367,-59 743.367,-79 819.367,-79 819.367,-59 743.367,-59"/>
<text text-anchor="middle" x="781.367" y="-66" font-family="FreeSans" font-size="10.00">monopoly.cpp</text>
</a>
</g>
<!-- Node12&#45;&gt;Node13 -->
<g id="edge32" class="edge"><title>Node12&#45;&gt;Node13</title>
<path fill="none" stroke="midnightblue" d="M766.103,-107.493C769.835,-98.0829 774.16,-87.1742 777.252,-79.3776"/>
<polygon fill="midnightblue" stroke="midnightblue" points="762.807,-106.311 762.374,-116.897 769.314,-108.892 762.807,-106.311"/>
</g>
<!-- Node15&#45;&gt;Node7 -->
<g id="edge44" class="edge"><title>Node15&#45;&gt;Node7</title>
<path fill="none" stroke="midnightblue" d="M897.814,-222.448C902.934,-184.247 907.666,-102.184 863.367,-58 831.59,-26.3047 704.913,-15.9547 631.584,-12.5959"/>
<polygon fill="midnightblue" stroke="midnightblue" points="894.283,-222.397 896.267,-232.804 901.206,-223.431 894.283,-222.397"/>
</g>
<!-- Node16 -->
<g id="node39" class="node"><title>Node16</title>
<a xlink:href="readwritespinlock_8cpp.html" target="_top" xlink:title="Contains the implementation for the Mezzanine::Threading::Mutex Mutex synchronization object...">
<polygon fill="white" stroke="black" points="950.867,-175 950.867,-195 1059.87,-195 1059.87,-175 950.867,-175"/>
<text text-anchor="middle" x="1005.37" y="-182" font-family="FreeSans" font-size="10.00">readwritespinlock.cpp</text>
</a>
</g>
<!-- Node15&#45;&gt;Node16 -->
<g id="edge46" class="edge"><title>Node15&#45;&gt;Node16</title>
<path fill="none" stroke="midnightblue" d="M922.587,-228.254C942.387,-217.909 968.353,-204.341 985.882,-195.182"/>
<polygon fill="midnightblue" stroke="midnightblue" points="920.944,-225.164 913.702,-232.897 924.186,-231.368 920.944,-225.164"/>
</g>
</g>
</svg>
        <g id="navigator" transform="translate(0 0)" fill="#404254">
                <rect fill="#f2f5e9" fill-opacity="0.5" stroke="#606060" stroke-width=".5" x="0" y="0" width="60" height="60"/>
                <use id="zoomplus" xlink:href="#zoomPlus" x="17" y="9" onmousedown="handleZoom(evt,'in')"/>
                <use id="zoomminus" xlink:href="#zoomMin" x="42" y="9" onmousedown="handleZoom(evt,'out')"/>
                <use id="reset" xlink:href="#resetDef" x="30" y="36" onmousedown="handleReset()"/>
                <g id="arrowUp" xlink:href="#dirArrow" transform="translate(30 24)" onmousedown="handlePan(0,-1)">
                  <use xlink:href="#rim" fill="#404040">
                        <set attributeName="fill" to="#808080" begin="arrowUp.mouseover" end="arrowUp.mouseout"/>
                  </use>
                  <path fill="none" stroke="white" stroke-width="1.5" d="M0,-3.0v7 M-2.5,-0.5L0,-3.0L2.5,-0.5"/>
                </g>
                <g id="arrowRight" xlink:href="#dirArrow" transform="rotate(90) translate(36 -43)" onmousedown="handlePan(1,0)">
                  <use xlink:href="#rim" fill="#404040">
                        <set attributeName="fill" to="#808080" begin="arrowRight.mouseover" end="arrowRight.mouseout"/>
                  </use>
                  <path fill="none" stroke="white" stroke-width="1.5" d="M0,-3.0v7 M-2.5,-0.5L0,-3.0L2.5,-0.5"/>
                </g>
                <g id="arrowDown" xlink:href="#dirArrow" transform="rotate(180) translate(-30 -48)" onmousedown="handlePan(0,1)">
                  <use xlink:href="#rim" fill="#404040">
                        <set attributeName="fill" to="#808080" begin="arrowDown.mouseover" end="arrowDown.mouseout"/>
                  </use>
                  <path fill="none" stroke="white" stroke-width="1.5" d="M0,-3.0v7 M-2.5,-0.5L0,-3.0L2.5,-0.5"/>
                </g>
                <g id="arrowLeft" xlink:href="#dirArrow" transform="rotate(270) translate(-36 17)" onmousedown="handlePan(-1,0)">
                  <use xlink:href="#rim" fill="#404040">
                        <set attributeName="fill" to="#808080" begin="arrowLeft.mouseover" end="arrowLeft.mouseout"/>
                  </use>
                  <path fill="none" stroke="white" stroke-width="1.5" d="M0,-3.0v7 M-2.5,-0.5L0,-3.0L2.5,-0.5"/>
                </g>
        </g>
        <svg viewBox="0 0 15 15" width="100%" height="30px" preserveAspectRatio="xMaxYMin meet">
         <g id="arrow_out" transform="scale(0.3 0.3)">
          <a xlink:href="spinlock_8h__dep__incl_org.svg" target="_base">
           <rect id="button" ry="5" rx="5" y="6" x="6" height="38" width="38"
                fill="#f2f5e9" fill-opacity="0.5" stroke="#606060" stroke-width="1.0"/>
           <path id="arrow"
             d="M 11.500037,31.436501 C 11.940474,20.09759 22.043105,11.32322 32.158766,21.979434 L 37.068811,17.246167 C 37.068811,17.246167 37.088388,32 37.088388,32 L 22.160133,31.978069 C 22.160133,31.978069 26.997745,27.140456 26.997745,27.140456 C 18.528582,18.264221 13.291696,25.230495 11.500037,31.436501 z"
             style="fill:#404040;"/>
          </a>
         </g>
        </svg>
</svg>
