<?xml version="1.0" encoding="UTF-8" standalone="no"?>
<!DOCTYPE svg PUBLIC "-//W3C//DTD SVG 1.1//EN"
 "http://www.w3.org/Graphics/SVG/1.1/DTD/svg11.dtd">
<!-- Generated by graphviz version 2.26.3 (20100126.1600)
 -->
<!-- Title: systemcalls.cpp Pages: 1 -->
<svg width="463pt" height="204pt"
 viewBox="0.00 0.00 463.00 204.00" xmlns="http://www.w3.org/2000/svg" xmlns:xlink="http://www.w3.org/1999/xlink">
<g id="graph1" class="graph" transform="scale(1 1) rotate(0) translate(4 200)">
<title>systemcalls.cpp</title>
<polygon fill="white" stroke="white" points="-4,5 -4,-200 460,-200 460,5 -4,5"/>
<!-- Node1 -->
<g id="node1" class="node"><title>Node1</title>
<polygon fill="#bfbfbf" stroke="black" points="241,-175 241,-195 325,-195 325,-175 241,-175"/>
<text text-anchor="middle" x="283" y="-182" font-family="FreeSans" font-size="10.00">systemcalls.cpp</text>
</g>
<!-- Node2 -->
<g id="node3" class="node"><title>Node2</title>
<a xlink:href="datatypes_8h.html" target="_top" xlink:title="This file declares a few typedefs to allow flexibility, in case a change is required/desired.">
<polygon fill="white" stroke="black" points="65.5,-59 65.5,-79 130.5,-79 130.5,-59 65.5,-59"/>
<text text-anchor="middle" x="98" y="-66" font-family="FreeSans" font-size="10.00">datatypes.h</text>
</a>
</g>
<!-- Node1&#45;&gt;Node2 -->
<g id="edge2" class="edge"><title>Node1&#45;&gt;Node2</title>
<path fill="none" stroke="midnightblue" d="M240.653,-177.06C199.254,-168.526 140.035,-154.012 123,-138 109.553,-125.36 103.319,-104.935 100.441,-89.5805"/>
<polygon fill="midnightblue" stroke="midnightblue" points="103.867,-88.8296 98.8834,-79.48 96.9487,-89.8967 103.867,-88.8296"/>
</g>
<!-- Node6 -->
<g id="node11" class="node"><title>Node6</title>
<a xlink:href="systemcalls_8h.html" target="_top" xlink:title="This file defines a minimalistic cross&#45;platform thread that the scheduler uses to schedule tasks...">
<polygon fill="white" stroke="black" points="132,-117 132,-137 206,-137 206,-117 132,-117"/>
<text text-anchor="middle" x="169" y="-124" font-family="FreeSans" font-size="10.00">systemcalls.h</text>
</a>
</g>
<!-- Node1&#45;&gt;Node6 -->
<g id="edge10" class="edge"><title>Node1&#45;&gt;Node6</title>
<path fill="none" stroke="midnightblue" d="M263.143,-174.897C245.19,-165.763 218.529,-152.199 198.158,-141.835"/>
<polygon fill="midnightblue" stroke="midnightblue" points="199.512,-138.597 189.012,-137.182 196.338,-144.836 199.512,-138.597"/>
</g>
<!-- Node7 -->
<g id="node14" class="node"><title>Node7</title>
<a xlink:href="crossplatformincludes_8h.html" target="_top" xlink:title="This file determines what features are offered by the compiler that this library can take advantage o...">
<polygon fill="white" stroke="black" points="224.5,-117 224.5,-137 341.5,-137 341.5,-117 224.5,-117"/>
<text text-anchor="middle" x="283" y="-124" font-family="FreeSans" font-size="10.00">crossplatformincludes.h</text>
</a>
</g>
<!-- Node1&#45;&gt;Node7 -->
<g id="edge14" class="edge"><title>Node1&#45;&gt;Node7</title>
<path fill="none" stroke="midnightblue" d="M283,-174.897C283,-167.339 283,-156.748 283,-147.446"/>
<polygon fill="midnightblue" stroke="midnightblue" points="286.5,-147.378 283,-137.378 279.5,-147.378 286.5,-147.378"/>
</g>
<!-- Node11 -->
<g id="node23" class="node"><title>Node11</title>
<polygon fill="white" stroke="#bfbfbf" points="394,-59 394,-79 444,-79 444,-59 394,-59"/>
<text text-anchor="middle" x="419" y="-66" font-family="FreeSans" font-size="10.00">unistd.h</text>
</g>
<!-- Node1&#45;&gt;Node11 -->
<g id="edge28" class="edge"><title>Node1&#45;&gt;Node11</title>
<path fill="none" stroke="midnightblue" d="M299,-174.909C312.943,-165.854 333.462,-151.889 350,-138 369.086,-121.971 389.025,-101.576 402.531,-87.1274"/>
<polygon fill="midnightblue" stroke="midnightblue" points="405.469,-89.1053 409.686,-79.3856 400.328,-84.3544 405.469,-89.1053"/>
</g>
<!-- Node12 -->
<g id="node25" class="node"><title>Node12</title>
<polygon fill="white" stroke="#bfbfbf" points="396.5,-117 396.5,-137 455.5,-137 455.5,-117 396.5,-117"/>
<text text-anchor="middle" x="426" y="-124" font-family="FreeSans" font-size="10.00">sys/time.h</text>
</g>
<!-- Node1&#45;&gt;Node12 -->
<g id="edge26" class="edge"><title>Node1&#45;&gt;Node12</title>
<path fill="none" stroke="midnightblue" d="M307.909,-174.897C331.04,-165.515 365.695,-151.459 391.488,-140.998"/>
<polygon fill="midnightblue" stroke="midnightblue" points="392.946,-144.184 400.897,-137.182 390.315,-137.697 392.946,-144.184"/>
</g>
<!-- Node3 -->
<g id="node5" class="node"><title>Node3</title>
<a xlink:href="crossplatformexport_8h.html" target="_top" xlink:title="This file determines what features are offered by the compiler that this library can take advantage o...">
<polygon fill="white" stroke="black" points="122,-1 122,-21 230,-21 230,-1 122,-1"/>
<text text-anchor="middle" x="176" y="-8" font-family="FreeSans" font-size="10.00">crossplatformexport.h</text>
</a>
</g>
<!-- Node2&#45;&gt;Node3 -->
<g id="edge4" class="edge"><title>Node2&#45;&gt;Node3</title>
<path fill="none" stroke="midnightblue" d="M111.587,-58.8972C123.259,-50.2178 140.31,-37.5384 153.938,-27.4053"/>
<polygon fill="midnightblue" stroke="midnightblue" points="156.371,-29.9574 162.307,-21.1817 152.194,-24.3401 156.371,-29.9574"/>
</g>
<!-- Node4 -->
<g id="node7" class="node"><title>Node4</title>
<polygon fill="white" stroke="#bfbfbf" points="0,-1 0,-21 40,-21 40,-1 0,-1"/>
<text text-anchor="middle" x="20" y="-8" font-family="FreeSans" font-size="10.00">string</text>
</g>
<!-- Node2&#45;&gt;Node4 -->
<g id="edge6" class="edge"><title>Node2&#45;&gt;Node4</title>
<path fill="none" stroke="midnightblue" d="M84.4134,-58.8972C72.7411,-50.2178 55.6895,-37.5384 42.0622,-27.4053"/>
<polygon fill="midnightblue" stroke="midnightblue" points="43.8057,-24.3401 33.6926,-21.1817 39.6287,-29.9574 43.8057,-24.3401"/>
</g>
<!-- Node5 -->
<g id="node9" class="node"><title>Node5</title>
<polygon fill="white" stroke="#bfbfbf" points="57.5,-1 57.5,-21 104.5,-21 104.5,-1 57.5,-1"/>
<text text-anchor="middle" x="81" y="-8" font-family="FreeSans" font-size="10.00">stdint.h</text>
</g>
<!-- Node2&#45;&gt;Node5 -->
<g id="edge8" class="edge"><title>Node2&#45;&gt;Node5</title>
<path fill="none" stroke="midnightblue" d="M95.0388,-58.8972C92.7994,-51.2569 89.6515,-40.517 86.904,-31.1429"/>
<polygon fill="midnightblue" stroke="midnightblue" points="90.2132,-29.9894 84.0417,-21.3776 83.4958,-31.9584 90.2132,-29.9894"/>
</g>
<!-- Node6&#45;&gt;Node2 -->
<g id="edge12" class="edge"><title>Node6&#45;&gt;Node2</title>
<path fill="none" stroke="midnightblue" d="M156.633,-116.897C146.174,-108.353 130.97,-95.933 118.665,-85.8813"/>
<polygon fill="midnightblue" stroke="midnightblue" points="120.662,-82.9935 110.704,-79.3776 116.234,-88.4146 120.662,-82.9935"/>
</g>
<!-- Node7&#45;&gt;Node3 -->
<g id="edge16" class="edge"><title>Node7&#45;&gt;Node3</title>
<path fill="none" stroke="midnightblue" d="M231.914,-116.971C211.274,-110.157 189.431,-98.81 177,-80 167.631,-65.8227 168.337,-46.1729 170.83,-31.4675"/>
<polygon fill="midnightblue" stroke="midnightblue" points="174.323,-31.8636 172.947,-21.3584 167.472,-30.4285 174.323,-31.8636"/>
</g>
<!-- Node8 -->
<g id="node17" class="node"><title>Node8</title>
<polygon fill="white" stroke="#bfbfbf" points="186,-59 186,-79 242,-79 242,-59 186,-59"/>
<text text-anchor="middle" x="214" y="-66" font-family="FreeSans" font-size="10.00">pthread.h</text>
</g>
<!-- Node7&#45;&gt;Node8 -->
<g id="edge18" class="edge"><title>Node7&#45;&gt;Node8</title>
<path fill="none" stroke="midnightblue" d="M270.981,-116.897C260.817,-108.353 246.041,-95.933 234.083,-85.8813"/>
<polygon fill="midnightblue" stroke="midnightblue" points="236.253,-83.133 226.346,-79.3776 231.749,-88.4914 236.253,-83.133"/>
</g>
<!-- Node9 -->
<g id="node19" class="node"><title>Node9</title>
<polygon fill="white" stroke="#bfbfbf" points="259.5,-59 259.5,-79 308.5,-79 308.5,-59 259.5,-59"/>
<text text-anchor="middle" x="284" y="-66" font-family="FreeSans" font-size="10.00">signal.h</text>
</g>
<!-- Node7&#45;&gt;Node9 -->
<g id="edge20" class="edge"><title>Node7&#45;&gt;Node9</title>
<path fill="none" stroke="midnightblue" d="M283.174,-116.897C283.304,-109.339 283.487,-98.7476 283.647,-89.4458"/>
<polygon fill="midnightblue" stroke="midnightblue" points="287.148,-89.4365 283.821,-79.3776 280.149,-89.3157 287.148,-89.4365"/>
</g>
<!-- Node10 -->
<g id="node21" class="node"><title>Node10</title>
<polygon fill="white" stroke="#bfbfbf" points="326,-59 326,-79 376,-79 376,-59 326,-59"/>
<text text-anchor="middle" x="351" y="-66" font-family="FreeSans" font-size="10.00">sched.h</text>
</g>
<!-- Node7&#45;&gt;Node10 -->
<g id="edge22" class="edge"><title>Node7&#45;&gt;Node10</title>
<path fill="none" stroke="midnightblue" d="M294.845,-116.897C304.862,-108.353 319.423,-95.933 331.208,-85.8813"/>
<polygon fill="midnightblue" stroke="midnightblue" points="333.496,-88.53 338.833,-79.3776 328.953,-83.2042 333.496,-88.53"/>
</g>
<!-- Node7&#45;&gt;Node11 -->
<g id="edge24" class="edge"><title>Node7&#45;&gt;Node11</title>
<path fill="none" stroke="midnightblue" d="M306.689,-116.897C328.592,-107.556 361.357,-93.5831 385.853,-83.1363"/>
<polygon fill="midnightblue" stroke="midnightblue" points="387.3,-86.324 395.126,-79.1817 384.554,-79.8851 387.3,-86.324"/>
</g>
</g>
</svg>
