<?xml version="1.0" encoding="UTF-8" standalone="no"?>
<!DOCTYPE svg PUBLIC "-//W3C//DTD SVG 1.1//EN"
 "http://www.w3.org/Graphics/SVG/1.1/DTD/svg11.dtd">
<!-- Generated by graphviz version 2.26.3 (20100126.1600)
 -->
<!-- Title: systemcalls.cpp Pages: 1 -->
<!--zoomable 204 -->
<svg id="main" version="1.1" xmlns="http://www.w3.org/2000/svg" xmlns:xlink="http://www.w3.org/1999/xlink" xml:space="preserve" onload="init(evt)">
<style type="text/css"><![CDATA[
.edge:hover path { stroke: red; }
.edge:hover polygon { stroke: red; fill: red; }
]]></style>
<script type="text/javascript"><![CDATA[
var edges = document.getElementsByTagName('g');
if (edges && edges.length) {
  for (var i=0;i<edges.length;i++) {
    if (edges[i].id.substr(0,4)=='edge') {
      edges[i].setAttribute('class','edge');
    }
  }
}
]]></script>
        <defs>
                <circle id="rim" cx="0" cy="0" r="7"/>
                <circle id="rim2" cx="0" cy="0" r="3.5"/>
                <g id="zoomPlus">
                        <use xlink:href="#rim" fill="#404040">
                                <set attributeName="fill" to="#808080" begin="zoomplus.mouseover" end="zoomplus.mouseout"/>
                        </use>
                        <path d="M-4,0h8M0,-4v8" fill="none" stroke="white" stroke-width="1.5" pointer-events="none"/>
                </g>
                <g id="zoomMin">
                        <use xlink:href="#rim" fill="#404040">
                                <set attributeName="fill" to="#808080" begin="zoomminus.mouseover" end="zoomminus.mouseout"/>
                        </use>
                        <path d="M-4,0h8" fill="none" stroke="white" stroke-width="1.5" pointer-events="none"/>
                </g>
                <g id="dirArrow">
                        <path fill="none" stroke="white" stroke-width="1.5" d="M0,-3.0v7 M-2.5,-0.5L0,-3.0L2.5,-0.5"/>
                </g>
               <g id="resetDef">
                       <use xlink:href="#rim2" fill="#404040">
                               <set attributeName="fill" to="#808080" begin="reset.mouseover" end="reset.mouseout"/>
                       </use>
               </g>
        </defs>

<script type="text/javascript">
var viewWidth = 681;
var viewHeight = 204;
var sectionId = 'dynsection-0';
</script>
<script xlink:href="svgpan.js"/>
<svg id="graph" class="graph">
<g id="viewport">
<title>systemcalls.cpp</title>
<polygon fill="white" stroke="white" points="-4,5 -4,-200 678,-200 678,5 -4,5"/>
<!-- Node1 -->
<g id="node1" class="node"><title>Node1</title>
<polygon fill="#bfbfbf" stroke="black" points="459,-175 459,-195 543,-195 543,-175 459,-175"/>
<text text-anchor="middle" x="501" y="-182" font-family="FreeSans" font-size="10.00">systemcalls.cpp</text>
</g>
<!-- Node2 -->
<g id="node3" class="node"><title>Node2</title>
<a xlink:href="datatypes_8h.html" target="_top" xlink:title="This file declares a few typedefs to allow flexibility, in case a change is required/desired. ">
<polygon fill="white" stroke="black" points="276.5,-59 276.5,-79 341.5,-79 341.5,-59 276.5,-59"/>
<text text-anchor="middle" x="309" y="-66" font-family="FreeSans" font-size="10.00">datatypes.h</text>
</a>
</g>
<!-- Node1&#45;&gt;Node2 -->
<g id="edge2" class="edge"><title>Node1&#45;&gt;Node2</title>
<path fill="none" stroke="midnightblue" d="M458.631,-176.826C417.168,-168.103 357.734,-153.438 340,-138 325.493,-125.372 317.439,-104.61 313.202,-89.1539"/>
<polygon fill="midnightblue" stroke="midnightblue" points="316.507,-87.9266 310.754,-79.0293 309.703,-89.5718 316.507,-87.9266"/>
</g>
<!-- Node13 -->
<g id="node25" class="node"><title>Node13</title>
<a xlink:href="systemcalls_8h.html" target="_top" xlink:title="This file defines a minimalistic cross&#45;platform thread that the scheduler uses to schedule tasks...">
<polygon fill="white" stroke="black" points="349,-117 349,-137 423,-137 423,-117 349,-117"/>
<text text-anchor="middle" x="386" y="-124" font-family="FreeSans" font-size="10.00">systemcalls.h</text>
</a>
</g>
<!-- Node1&#45;&gt;Node13 -->
<g id="edge24" class="edge"><title>Node1&#45;&gt;Node13</title>
<path fill="none" stroke="midnightblue" d="M480.969,-174.897C462.776,-165.722 435.72,-152.076 415.135,-141.694"/>
<polygon fill="midnightblue" stroke="midnightblue" points="416.693,-138.56 406.188,-137.182 413.54,-144.81 416.693,-138.56"/>
</g>
<!-- Node14 -->
<g id="node28" class="node"><title>Node14</title>
<a xlink:href="crossplatformincludes_8h.html" target="_top" xlink:title="This file determines what features are offered by the compiler that this library can take advantage o...">
<polygon fill="white" stroke="black" points="442.5,-117 442.5,-137 559.5,-137 559.5,-117 442.5,-117"/>
<text text-anchor="middle" x="501" y="-124" font-family="FreeSans" font-size="10.00">crossplatformincludes.h</text>
</a>
</g>
<!-- Node1&#45;&gt;Node14 -->
<g id="edge28" class="edge"><title>Node1&#45;&gt;Node14</title>
<path fill="none" stroke="midnightblue" d="M501,-174.897C501,-167.339 501,-156.748 501,-147.446"/>
<polygon fill="midnightblue" stroke="midnightblue" points="504.5,-147.378 501,-137.378 497.5,-147.378 504.5,-147.378"/>
</g>
<!-- Node18 -->
<g id="node37" class="node"><title>Node18</title>
<polygon fill="white" stroke="#bfbfbf" points="605,-59 605,-79 655,-79 655,-59 605,-59"/>
<text text-anchor="middle" x="630" y="-66" font-family="FreeSans" font-size="10.00">unistd.h</text>
</g>
<!-- Node1&#45;&gt;Node18 -->
<g id="edge42" class="edge"><title>Node1&#45;&gt;Node18</title>
<path fill="none" stroke="midnightblue" d="M517.465,-174.948C531.519,-166.026 551.945,-152.232 568,-138 585.932,-122.105 603.965,-101.376 615.923,-86.8035"/>
<polygon fill="midnightblue" stroke="midnightblue" points="618.651,-88.9953 622.215,-79.0175 613.207,-84.5955 618.651,-88.9953"/>
</g>
<!-- Node19 -->
<g id="node39" class="node"><title>Node19</title>
<polygon fill="white" stroke="#bfbfbf" points="614.5,-117 614.5,-137 673.5,-137 673.5,-117 614.5,-117"/>
<text text-anchor="middle" x="644" y="-124" font-family="FreeSans" font-size="10.00">sys/time.h</text>
</g>
<!-- Node1&#45;&gt;Node19 -->
<g id="edge40" class="edge"><title>Node1&#45;&gt;Node19</title>
<path fill="none" stroke="midnightblue" d="M525.909,-174.897C549.04,-165.515 583.695,-151.459 609.488,-140.998"/>
<polygon fill="midnightblue" stroke="midnightblue" points="610.946,-144.184 618.897,-137.182 608.315,-137.697 610.946,-144.184"/>
</g>
<!-- Node3 -->
<g id="node5" class="node"><title>Node3</title>
<a xlink:href="crossplatformexport_8h.html" target="_top" xlink:title="This file determines what features are offered by the compiler that this library can take advantage o...">
<polygon fill="white" stroke="black" points="556,-1 556,-21 664,-21 664,-1 556,-1"/>
<text text-anchor="middle" x="610" y="-8" font-family="FreeSans" font-size="10.00">crossplatformexport.h</text>
</a>
</g>
<!-- Node2&#45;&gt;Node3 -->
<g id="edge4" class="edge"><title>Node2&#45;&gt;Node3</title>
<path fill="none" stroke="midnightblue" d="M341.613,-59.9876C344.442,-59.2855 347.267,-58.6125 350,-58 368.798,-53.787 474.882,-34.8648 545.603,-22.352"/>
<polygon fill="midnightblue" stroke="midnightblue" points="546.529,-25.7427 555.766,-20.5549 545.31,-18.8497 546.529,-25.7427"/>
</g>
<!-- Node4 -->
<g id="node7" class="node"><title>Node4</title>
<polygon fill="white" stroke="#bfbfbf" points="-0.5,-1 -0.5,-21 42.5,-21 42.5,-1 -0.5,-1"/>
<text text-anchor="middle" x="21" y="-8" font-family="FreeSans" font-size="10.00">vector</text>
</g>
<!-- Node2&#45;&gt;Node4 -->
<g id="edge6" class="edge"><title>Node2&#45;&gt;Node4</title>
<path fill="none" stroke="midnightblue" d="M276.425,-64.8908C228.923,-58.5059 137.819,-44.7773 52.6347,-22.146"/>
<polygon fill="midnightblue" stroke="midnightblue" points="53.382,-18.7224 42.8149,-19.4896 51.554,-25.4795 53.382,-18.7224"/>
</g>
<!-- Node5 -->
<g id="node9" class="node"><title>Node5</title>
<polygon fill="white" stroke="#bfbfbf" points="60,-1 60,-21 100,-21 100,-1 60,-1"/>
<text text-anchor="middle" x="80" y="-8" font-family="FreeSans" font-size="10.00">string</text>
</g>
<!-- Node2&#45;&gt;Node5 -->
<g id="edge8" class="edge"><title>Node2&#45;&gt;Node5</title>
<path fill="none" stroke="midnightblue" d="M276.436,-62.7234C238.51,-55.1143 173.865,-41.2216 109.991,-22.0338"/>
<polygon fill="midnightblue" stroke="midnightblue" points="110.75,-18.6062 100.164,-19.037 108.708,-25.3018 110.75,-18.6062"/>
</g>
<!-- Node6 -->
<g id="node11" class="node"><title>Node6</title>
<polygon fill="white" stroke="#bfbfbf" points="117.5,-1 117.5,-21 168.5,-21 168.5,-1 117.5,-1"/>
<text text-anchor="middle" x="143" y="-8" font-family="FreeSans" font-size="10.00">ostream</text>
</g>
<!-- Node2&#45;&gt;Node6 -->
<g id="edge10" class="edge"><title>Node2&#45;&gt;Node6</title>
<path fill="none" stroke="midnightblue" d="M280.085,-58.8972C251.793,-49.0121 208.652,-33.9385 178.339,-23.3473"/>
<polygon fill="midnightblue" stroke="midnightblue" points="179.186,-19.9357 168.591,-19.9413 176.877,-26.544 179.186,-19.9357"/>
</g>
<!-- Node7 -->
<g id="node13" class="node"><title>Node7</title>
<polygon fill="white" stroke="#bfbfbf" points="185.5,-1 185.5,-21 220.5,-21 220.5,-1 185.5,-1"/>
<text text-anchor="middle" x="203" y="-8" font-family="FreeSans" font-size="10.00">map</text>
</g>
<!-- Node2&#45;&gt;Node7 -->
<g id="edge12" class="edge"><title>Node2&#45;&gt;Node7</title>
<path fill="none" stroke="midnightblue" d="M290.536,-58.8972C273.613,-49.6371 248.368,-35.824 229.331,-25.4077"/>
<polygon fill="midnightblue" stroke="midnightblue" points="231.001,-22.3317 220.548,-20.6019 227.641,-28.4725 231.001,-22.3317"/>
</g>
<!-- Node8 -->
<g id="node15" class="node"><title>Node8</title>
<polygon fill="white" stroke="#bfbfbf" points="237.5,-1 237.5,-21 266.5,-21 266.5,-1 237.5,-1"/>
<text text-anchor="middle" x="252" y="-8" font-family="FreeSans" font-size="10.00">set</text>
</g>
<!-- Node2&#45;&gt;Node8 -->
<g id="edge14" class="edge"><title>Node2&#45;&gt;Node8</title>
<path fill="none" stroke="midnightblue" d="M299.071,-58.8972C290.917,-50.5996 279.17,-38.6463 269.451,-28.7569"/>
<polygon fill="midnightblue" stroke="midnightblue" points="271.704,-26.0566 262.199,-21.3776 266.712,-30.9632 271.704,-26.0566"/>
</g>
<!-- Node9 -->
<g id="node17" class="node"><title>Node9</title>
<polygon fill="white" stroke="#bfbfbf" points="284,-1 284,-21 334,-21 334,-1 284,-1"/>
<text text-anchor="middle" x="309" y="-8" font-family="FreeSans" font-size="10.00">sstream</text>
</g>
<!-- Node2&#45;&gt;Node9 -->
<g id="edge16" class="edge"><title>Node2&#45;&gt;Node9</title>
<path fill="none" stroke="midnightblue" d="M309,-58.8972C309,-51.339 309,-40.7476 309,-31.4458"/>
<polygon fill="midnightblue" stroke="midnightblue" points="312.5,-31.3776 309,-21.3776 305.5,-31.3776 312.5,-31.3776"/>
</g>
<!-- Node10 -->
<g id="node19" class="node"><title>Node10</title>
<polygon fill="white" stroke="#bfbfbf" points="351.5,-1 351.5,-21 400.5,-21 400.5,-1 351.5,-1"/>
<text text-anchor="middle" x="376" y="-8" font-family="FreeSans" font-size="10.00">fstream</text>
</g>
<!-- Node2&#45;&gt;Node10 -->
<g id="edge18" class="edge"><title>Node2&#45;&gt;Node10</title>
<path fill="none" stroke="midnightblue" d="M320.671,-58.8972C330.445,-50.4353 344.612,-38.1715 356.163,-28.1719"/>
<polygon fill="midnightblue" stroke="midnightblue" points="358.742,-30.5689 364.012,-21.3776 354.161,-25.2764 358.742,-30.5689"/>
</g>
<!-- Node11 -->
<g id="node21" class="node"><title>Node11</title>
<polygon fill="white" stroke="#bfbfbf" points="418,-1 418,-21 474,-21 474,-1 418,-1"/>
<text text-anchor="middle" x="446" y="-8" font-family="FreeSans" font-size="10.00">algorithm</text>
</g>
<!-- Node2&#45;&gt;Node11 -->
<g id="edge20" class="edge"><title>Node2&#45;&gt;Node11</title>
<path fill="none" stroke="midnightblue" d="M332.864,-58.8972C354.927,-49.5565 387.933,-35.5831 412.609,-25.1363"/>
<polygon fill="midnightblue" stroke="midnightblue" points="414.106,-28.3034 421.95,-21.1817 411.377,-21.8573 414.106,-28.3034"/>
</g>
<!-- Node12 -->
<g id="node23" class="node"><title>Node12</title>
<polygon fill="white" stroke="#bfbfbf" points="491.5,-1 491.5,-21 538.5,-21 538.5,-1 491.5,-1"/>
<text text-anchor="middle" x="515" y="-8" font-family="FreeSans" font-size="10.00">stdint.h</text>
</g>
<!-- Node2&#45;&gt;Node12 -->
<g id="edge22" class="edge"><title>Node2&#45;&gt;Node12</title>
<path fill="none" stroke="midnightblue" d="M341.707,-60.2261C383.555,-48.9926 453.349,-30.2297 481.389,-22.2534"/>
<polygon fill="midnightblue" stroke="midnightblue" points="482.682,-25.5216 491.292,-19.3481 480.712,-18.8046 482.682,-25.5216"/>
</g>
<!-- Node13&#45;&gt;Node2 -->
<g id="edge26" class="edge"><title>Node13&#45;&gt;Node2</title>
<path fill="none" stroke="midnightblue" d="M372.588,-116.897C361.065,-108.218 344.232,-95.5384 330.779,-85.4053"/>
<polygon fill="midnightblue" stroke="midnightblue" points="332.61,-82.4026 322.517,-79.1817 328.399,-87.9939 332.61,-82.4026"/>
</g>
<!-- Node14&#45;&gt;Node3 -->
<g id="edge30" class="edge"><title>Node14&#45;&gt;Node3</title>
<path fill="none" stroke="midnightblue" d="M501.67,-116.971C503.122,-102.452 507.691,-75.414 522,-58 534.042,-43.3458 551.884,-32.6285 568.361,-25.1614"/>
<polygon fill="midnightblue" stroke="midnightblue" points="570.011,-28.2632 577.85,-21.1353 567.277,-21.8192 570.011,-28.2632"/>
</g>
<!-- Node15 -->
<g id="node31" class="node"><title>Node15</title>
<polygon fill="white" stroke="#bfbfbf" points="531,-59 531,-79 587,-79 587,-59 531,-59"/>
<text text-anchor="middle" x="559" y="-66" font-family="FreeSans" font-size="10.00">pthread.h</text>
</g>
<!-- Node14&#45;&gt;Node15 -->
<g id="edge32" class="edge"><title>Node14&#45;&gt;Node15</title>
<path fill="none" stroke="midnightblue" d="M511.103,-116.897C519.483,-108.517 531.591,-96.4093 541.536,-86.4638"/>
<polygon fill="midnightblue" stroke="midnightblue" points="544.026,-88.9236 548.622,-79.3776 539.076,-83.9738 544.026,-88.9236"/>
</g>
<!-- Node16 -->
<g id="node33" class="node"><title>Node16</title>
<polygon fill="white" stroke="#bfbfbf" points="358.5,-59 358.5,-79 407.5,-79 407.5,-59 358.5,-59"/>
<text text-anchor="middle" x="383" y="-66" font-family="FreeSans" font-size="10.00">signal.h</text>
</g>
<!-- Node14&#45;&gt;Node16 -->
<g id="edge34" class="edge"><title>Node14&#45;&gt;Node16</title>
<path fill="none" stroke="midnightblue" d="M480.446,-116.897C461.779,-107.722 434.017,-94.0762 412.895,-83.6943"/>
<polygon fill="midnightblue" stroke="midnightblue" points="414.233,-80.4518 403.714,-79.1817 411.145,-86.734 414.233,-80.4518"/>
</g>
<!-- Node17 -->
<g id="node35" class="node"><title>Node17</title>
<polygon fill="white" stroke="#bfbfbf" points="425,-59 425,-79 475,-79 475,-59 425,-59"/>
<text text-anchor="middle" x="450" y="-66" font-family="FreeSans" font-size="10.00">sched.h</text>
</g>
<!-- Node14&#45;&gt;Node17 -->
<g id="edge36" class="edge"><title>Node14&#45;&gt;Node17</title>
<path fill="none" stroke="midnightblue" d="M492.116,-116.897C484.893,-108.682 474.518,-96.8827 465.873,-87.0513"/>
<polygon fill="midnightblue" stroke="midnightblue" points="468.357,-84.5761 459.125,-79.3776 463.1,-89.1985 468.357,-84.5761"/>
</g>
<!-- Node14&#45;&gt;Node18 -->
<g id="edge38" class="edge"><title>Node14&#45;&gt;Node18</title>
<path fill="none" stroke="midnightblue" d="M523.47,-116.897C544.061,-107.639 574.775,-93.83 597.94,-83.4145"/>
<polygon fill="midnightblue" stroke="midnightblue" points="599.669,-86.4746 607.355,-79.1817 596.799,-80.0902 599.669,-86.4746"/>
</g>
</g>
</svg>
        <g id="navigator" transform="translate(0 0)" fill="#404254">
                <rect fill="#f2f5e9" fill-opacity="0.5" stroke="#606060" stroke-width=".5" x="0" y="0" width="60" height="60"/>
                <use id="zoomplus" xlink:href="#zoomPlus" x="17" y="9" onmousedown="handleZoom(evt,'in')"/>
                <use id="zoomminus" xlink:href="#zoomMin" x="42" y="9" onmousedown="handleZoom(evt,'out')"/>
                <use id="reset" xlink:href="#resetDef" x="30" y="36" onmousedown="handleReset()"/>
                <g id="arrowUp" xlink:href="#dirArrow" transform="translate(30 24)" onmousedown="handlePan(0,-1)">
                  <use xlink:href="#rim" fill="#404040">
                        <set attributeName="fill" to="#808080" begin="arrowUp.mouseover" end="arrowUp.mouseout"/>
                  </use>
                  <path fill="none" stroke="white" stroke-width="1.5" d="M0,-3.0v7 M-2.5,-0.5L0,-3.0L2.5,-0.5"/>
                </g>
                <g id="arrowRight" xlink:href="#dirArrow" transform="rotate(90) translate(36 -43)" onmousedown="handlePan(1,0)">
                  <use xlink:href="#rim" fill="#404040">
                        <set attributeName="fill" to="#808080" begin="arrowRight.mouseover" end="arrowRight.mouseout"/>
                  </use>
                  <path fill="none" stroke="white" stroke-width="1.5" d="M0,-3.0v7 M-2.5,-0.5L0,-3.0L2.5,-0.5"/>
                </g>
                <g id="arrowDown" xlink:href="#dirArrow" transform="rotate(180) translate(-30 -48)" onmousedown="handlePan(0,1)">
                  <use xlink:href="#rim" fill="#404040">
                        <set attributeName="fill" to="#808080" begin="arrowDown.mouseover" end="arrowDown.mouseout"/>
                  </use>
                  <path fill="none" stroke="white" stroke-width="1.5" d="M0,-3.0v7 M-2.5,-0.5L0,-3.0L2.5,-0.5"/>
                </g>
                <g id="arrowLeft" xlink:href="#dirArrow" transform="rotate(270) translate(-36 17)" onmousedown="handlePan(-1,0)">
                  <use xlink:href="#rim" fill="#404040">
                        <set attributeName="fill" to="#808080" begin="arrowLeft.mouseover" end="arrowLeft.mouseout"/>
                  </use>
                  <path fill="none" stroke="white" stroke-width="1.5" d="M0,-3.0v7 M-2.5,-0.5L0,-3.0L2.5,-0.5"/>
                </g>
        </g>
        <svg viewBox="0 0 15 15" width="100%" height="30px" preserveAspectRatio="xMaxYMin meet">
         <g id="arrow_out" transform="scale(0.3 0.3)">
          <a xlink:href="systemcalls_8cpp__incl_org.svg" target="_base">
           <rect id="button" ry="5" rx="5" y="6" x="6" height="38" width="38"
                fill="#f2f5e9" fill-opacity="0.5" stroke="#606060" stroke-width="1.0"/>
           <path id="arrow"
             d="M 11.500037,31.436501 C 11.940474,20.09759 22.043105,11.32322 32.158766,21.979434 L 37.068811,17.246167 C 37.068811,17.246167 37.088388,32 37.088388,32 L 22.160133,31.978069 C 22.160133,31.978069 26.997745,27.140456 26.997745,27.140456 C 18.528582,18.264221 13.291696,25.230495 11.500037,31.436501 z"
             style="fill:#404040;"/>
          </a>
         </g>
        </svg>
</svg>
