<?xml version="1.0" encoding="UTF-8" standalone="no"?>
<!DOCTYPE svg PUBLIC "-//W3C//DTD SVG 1.1//EN"
 "http://www.w3.org/Graphics/SVG/1.1/DTD/svg11.dtd">
<!-- Generated by graphviz version 2.26.3 (20100126.1600)
 -->
<!-- Title: systemcalls.h Pages: 1 -->
<!--zoomable 378 -->
<svg id="main" version="1.1" xmlns="http://www.w3.org/2000/svg" xmlns:xlink="http://www.w3.org/1999/xlink" xml:space="preserve" onload="init(evt)">
<style type="text/css"><![CDATA[
.edge:hover path { stroke: red; }
.edge:hover polygon { stroke: red; fill: red; }
]]></style>
<script type="text/javascript"><![CDATA[
var edges = document.getElementsByTagName('g');
if (edges && edges.length) {
  for (var i=0;i<edges.length;i++) {
    if (edges[i].id.substr(0,4)=='edge') {
      edges[i].setAttribute('class','edge');
    }
  }
}
]]></script>
        <defs>
                <circle id="rim" cx="0" cy="0" r="7"/>
                <circle id="rim2" cx="0" cy="0" r="3.5"/>
                <g id="zoomPlus">
                        <use xlink:href="#rim" fill="#404040">
                                <set attributeName="fill" to="#808080" begin="zoomplus.mouseover" end="zoomplus.mouseout"/>
                        </use>
                        <path d="M-4,0h8M0,-4v8" fill="none" stroke="white" stroke-width="1.5" pointer-events="none"/>
                </g>
                <g id="zoomMin">
                        <use xlink:href="#rim" fill="#404040">
                                <set attributeName="fill" to="#808080" begin="zoomminus.mouseover" end="zoomminus.mouseout"/>
                        </use>
                        <path d="M-4,0h8" fill="none" stroke="white" stroke-width="1.5" pointer-events="none"/>
                </g>
                <g id="dirArrow">
                        <path fill="none" stroke="white" stroke-width="1.5" d="M0,-3.0v7 M-2.5,-0.5L0,-3.0L2.5,-0.5"/>
                </g>
               <g id="resetDef">
                       <use xlink:href="#rim2" fill="#404040">
                               <set attributeName="fill" to="#808080" begin="reset.mouseover" end="reset.mouseout"/>
                       </use>
               </g>
        </defs>

<script type="text/javascript">
var viewWidth = 984;
var viewHeight = 378;
var sectionId = 'dynsection-1';
</script>
<script xlink:href="svgpan.js"/>
<svg id="graph" class="graph">
<g id="viewport">
<title>systemcalls.h</title>
<polygon fill="white" stroke="white" points="-4,5 -4,-374 981,-374 981,5 -4,5"/>
<!-- Node1 -->
<g id="node1" class="node"><title>Node1</title>
<polygon fill="#bfbfbf" stroke="black" points="201,-349 201,-369 275,-369 275,-349 201,-349"/>
<text text-anchor="middle" x="238" y="-356" font-family="FreeSans" font-size="10.00">systemcalls.h</text>
</g>
<!-- Node2 -->
<g id="node3" class="node"><title>Node2</title>
<a xlink:href="thread_8h.html" target="_top" xlink:title="This file defines a minimalistic cross&#45;platform thread that the scheduler uses to schedule tasks...">
<polygon fill="white" stroke="black" points="244.5,-291 244.5,-311 295.5,-311 295.5,-291 244.5,-291"/>
<text text-anchor="middle" x="270" y="-298" font-family="FreeSans" font-size="10.00">thread.h</text>
</a>
</g>
<!-- Node1&#45;&gt;Node2 -->
<g id="edge2" class="edge"><title>Node1&#45;&gt;Node2</title>
<path fill="none" stroke="midnightblue" d="M248.432,-340.091C253.697,-330.549 259.881,-319.34 264.274,-311.378"/>
<polygon fill="midnightblue" stroke="midnightblue" points="245.34,-338.451 243.574,-348.897 251.469,-341.832 245.34,-338.451"/>
</g>
<!-- Node3 -->
<g id="node5" class="node"><title>Node3</title>
<a xlink:href="framescheduler_8h.html" target="_top" xlink:title="This file has the Declarations for the main FrameScheduler class. ">
<polygon fill="white" stroke="black" points="152,-233 152,-253 242,-253 242,-233 152,-233"/>
<text text-anchor="middle" x="197" y="-240" font-family="FreeSans" font-size="10.00">framescheduler.h</text>
</a>
</g>
<!-- Node1&#45;&gt;Node3 -->
<g id="edge50" class="edge"><title>Node1&#45;&gt;Node3</title>
<path fill="none" stroke="midnightblue" d="M230.988,-339.16C222.163,-314.194 207.344,-272.267 200.572,-253.106"/>
<polygon fill="midnightblue" stroke="midnightblue" points="227.729,-340.444 234.362,-348.706 234.329,-338.111 227.729,-340.444"/>
</g>
<!-- Node8 -->
<g id="node15" class="node"><title>Node8</title>
<a xlink:href="dagframescheduler_8h.html" target="_top" xlink:title="This is the file that code using this library should include. It includes all the required components...">
<polygon fill="white" stroke="black" points="99,-1 99,-21 205,-21 205,-1 99,-1"/>
<text text-anchor="middle" x="152" y="-8" font-family="FreeSans" font-size="10.00">dagframescheduler.h</text>
</a>
</g>
<!-- Node1&#45;&gt;Node8 -->
<g id="edge58" class="edge"><title>Node1&#45;&gt;Node8</title>
<path fill="none" stroke="midnightblue" d="M190.758,-353.678C153.816,-347.844 102.305,-335.914 63,-312 27.5241,-290.415 0,-284.526 0,-243 0,-243 0,-243 0,-127 0,-68.9077 71.0297,-36.0316 115.978,-21.043"/>
<polygon fill="midnightblue" stroke="midnightblue" points="190.363,-357.157 200.77,-355.166 191.393,-350.234 190.363,-357.157"/>
</g>
<!-- Node15 -->
<g id="node34" class="node"><title>Node15</title>
<a xlink:href="workunit_8cpp.html" target="_top" xlink:title="This file has the implementation of the Mezzanine::Threading::DefaultWorkUnit. ">
<polygon fill="white" stroke="black" points="696.5,-117 696.5,-137 767.5,-137 767.5,-117 696.5,-117"/>
<text text-anchor="middle" x="732" y="-124" font-family="FreeSans" font-size="10.00">workunit.cpp</text>
</a>
</g>
<!-- Node1&#45;&gt;Node15 -->
<g id="edge62" class="edge"><title>Node1&#45;&gt;Node15</title>
<path fill="none" stroke="midnightblue" d="M268.603,-344.628C360.455,-301.491 632.243,-173.849 710.621,-137.04"/>
<polygon fill="midnightblue" stroke="midnightblue" points="267.108,-341.463 259.544,-348.882 270.084,-347.799 267.108,-341.463"/>
</g>
<!-- Node17 -->
<g id="node43" class="node"><title>Node17</title>
<a xlink:href="logtools_8h.html" target="_top" xlink:title="The definitions of the logging tools. ">
<polygon fill="white" stroke="black" points="71.5,-291 71.5,-311 128.5,-311 128.5,-291 71.5,-291"/>
<text text-anchor="middle" x="100" y="-298" font-family="FreeSans" font-size="10.00">logtools.h</text>
</a>
</g>
<!-- Node1&#45;&gt;Node17 -->
<g id="edge52" class="edge"><title>Node1&#45;&gt;Node17</title>
<path fill="none" stroke="midnightblue" d="M204.575,-344.952C179.766,-334.525 146.512,-320.548 124.225,-311.182"/>
<polygon fill="midnightblue" stroke="midnightblue" points="203.387,-348.249 213.962,-348.897 206.099,-341.796 203.387,-348.249"/>
</g>
<!-- Node19 -->
<g id="node49" class="node"><title>Node19</title>
<a xlink:href="systemcalls_8cpp.html" target="_top" xlink:title="This file defines some platform specifc functions. ">
<polygon fill="white" stroke="black" points="464,-291 464,-311 548,-311 548,-291 464,-291"/>
<text text-anchor="middle" x="506" y="-298" font-family="FreeSans" font-size="10.00">systemcalls.cpp</text>
</a>
</g>
<!-- Node1&#45;&gt;Node19 -->
<g id="edge60" class="edge"><title>Node1&#45;&gt;Node19</title>
<path fill="none" stroke="midnightblue" d="M285.281,-348.768C335.828,-337.828 415.234,-320.643 463.756,-310.142"/>
<polygon fill="midnightblue" stroke="midnightblue" points="284.298,-345.399 275.264,-350.935 285.778,-352.241 284.298,-345.399"/>
</g>
<!-- Node2&#45;&gt;Node3 -->
<g id="edge4" class="edge"><title>Node2&#45;&gt;Node3</title>
<path fill="none" stroke="midnightblue" d="M249.157,-284.44C236.57,-274.439 220.918,-262.004 210.061,-253.378"/>
<polygon fill="midnightblue" stroke="midnightblue" points="247.278,-287.417 257.284,-290.897 251.632,-281.936 247.278,-287.417"/>
</g>
<!-- Node4 -->
<g id="node7" class="node"><title>Node4</title>
<a xlink:href="workunit_8h.html" target="_top" xlink:title="This file has the definition of the workunit. ">
<polygon fill="white" stroke="black" points="348,-175 348,-195 408,-195 408,-175 348,-175"/>
<text text-anchor="middle" x="378" y="-182" font-family="FreeSans" font-size="10.00">workunit.h</text>
</a>
</g>
<!-- Node2&#45;&gt;Node4 -->
<g id="edge44" class="edge"><title>Node2&#45;&gt;Node4</title>
<path fill="none" stroke="midnightblue" d="M305.184,-293.391C327.08,-286.759 353.865,-274.818 369,-254 381.645,-236.607 381.057,-210.043 379.524,-195.469"/>
<polygon fill="midnightblue" stroke="midnightblue" points="304.223,-290.025 295.527,-296.077 306.1,-296.769 304.223,-290.025"/>
</g>
<!-- Node2&#45;&gt;Node8 -->
<g id="edge46" class="edge"><title>Node2&#45;&gt;Node8</title>
<path fill="none" stroke="midnightblue" d="M267.342,-280.681C264.784,-266.302 259.934,-246.991 251,-232 220.102,-180.156 181.767,-191.056 153,-138 135.893,-106.449 138.245,-93.6931 142,-58 143.344,-45.2233 146.69,-30.8103 149.143,-21.3533"/>
<polygon fill="midnightblue" stroke="midnightblue" points="263.948,-281.631 268.937,-290.978 270.865,-280.56 263.948,-281.631"/>
</g>
<!-- Node16 -->
<g id="node40" class="node"><title>Node16</title>
<a xlink:href="thread_8cpp.html" target="_top" xlink:title="This file implements a minimalistic cross&#45;platform thread that the scheduler uses to schedule tasks...">
<polygon fill="white" stroke="black" points="298,-233 298,-253 360,-253 360,-233 298,-233"/>
<text text-anchor="middle" x="329" y="-240" font-family="FreeSans" font-size="10.00">thread.cpp</text>
</a>
</g>
<!-- Node2&#45;&gt;Node16 -->
<g id="edge48" class="edge"><title>Node2&#45;&gt;Node16</title>
<path fill="none" stroke="midnightblue" d="M287.436,-283.86C297.504,-273.962 309.838,-261.838 318.443,-253.378"/>
<polygon fill="midnightblue" stroke="midnightblue" points="284.955,-281.391 280.277,-290.897 289.862,-286.383 284.955,-281.391"/>
</g>
<!-- Node3&#45;&gt;Node4 -->
<g id="edge6" class="edge"><title>Node3&#45;&gt;Node4</title>
<path fill="none" stroke="midnightblue" d="M238.429,-229.724C271.752,-219.046 317.799,-204.291 347.737,-194.698"/>
<polygon fill="midnightblue" stroke="midnightblue" points="236.983,-226.512 228.528,-232.897 239.119,-233.179 236.983,-226.512"/>
</g>
<!-- Node3&#45;&gt;Node8 -->
<g id="edge40" class="edge"><title>Node3&#45;&gt;Node8</title>
<path fill="none" stroke="midnightblue" d="M174.112,-226.708C150.412,-208.285 114.817,-175.874 100,-138 87.0462,-104.888 85.5691,-90.4953 100,-58 107.063,-42.0962 122.46,-29.2947 134.678,-21.092"/>
<polygon fill="midnightblue" stroke="midnightblue" points="172.155,-229.616 182.245,-232.846 176.372,-224.028 172.155,-229.616"/>
</g>
<!-- Node11 -->
<g id="node23" class="node"><title>Node11</title>
<a xlink:href="framescheduler_8cpp.html" target="_top" xlink:title="This is the core object implementation for this algorithm. ">
<polygon fill="white" stroke="black" points="311.5,-59 311.5,-79 412.5,-79 412.5,-59 311.5,-59"/>
<text text-anchor="middle" x="362" y="-66" font-family="FreeSans" font-size="10.00">framescheduler.cpp</text>
</a>
</g>
<!-- Node3&#45;&gt;Node11 -->
<g id="edge42" class="edge"><title>Node3&#45;&gt;Node11</title>
<path fill="none" stroke="midnightblue" d="M213.56,-225.537C247.756,-189.476 325.245,-107.76 352.389,-79.135"/>
<polygon fill="midnightblue" stroke="midnightblue" points="210.926,-223.228 206.584,-232.893 216.005,-228.045 210.926,-223.228"/>
</g>
<!-- Node5 -->
<g id="node9" class="node"><title>Node5</title>
<a xlink:href="asynchronousworkunit_8h.html" target="_top" xlink:title="Contains an interface for a kind of WorkUnit that loads or does other work even when the frame schedu...">
<polygon fill="white" stroke="black" points="560.5,-117 560.5,-137 679.5,-137 679.5,-117 560.5,-117"/>
<text text-anchor="middle" x="620" y="-124" font-family="FreeSans" font-size="10.00">asynchronousworkunit.h</text>
</a>
</g>
<!-- Node4&#45;&gt;Node5 -->
<g id="edge8" class="edge"><title>Node4&#45;&gt;Node5</title>
<path fill="none" stroke="midnightblue" d="M418.205,-174.928C419.485,-174.614 420.752,-174.304 422,-174 475.377,-160.993 536.963,-146.447 577.092,-137.03"/>
<polygon fill="midnightblue" stroke="midnightblue" points="417.154,-171.582 408.285,-177.378 418.832,-178.378 417.154,-171.582"/>
</g>
<!-- Node4&#45;&gt;Node8 -->
<g id="edge36" class="edge"><title>Node4&#45;&gt;Node8</title>
<path fill="none" stroke="midnightblue" d="M337.794,-178.369C280.851,-168.607 182.327,-150.207 171,-138 140.369,-104.988 146.248,-45.0005 150.091,-21.162"/>
<polygon fill="midnightblue" stroke="midnightblue" points="337.467,-181.863 347.912,-180.088 338.64,-174.962 337.467,-181.863"/>
</g>
<!-- Node10 -->
<g id="node20" class="node"><title>Node10</title>
<a xlink:href="frameschedulerworkunits_8h.html" target="_top" xlink:title="This defines a number of workunits that are required for doing some tasks that the Framescheduler req...">
<polygon fill="white" stroke="black" points="343.5,-117 343.5,-137 474.5,-137 474.5,-117 343.5,-117"/>
<text text-anchor="middle" x="409" y="-124" font-family="FreeSans" font-size="10.00">frameschedulerworkunits.h</text>
</a>
</g>
<!-- Node4&#45;&gt;Node10 -->
<g id="edge20" class="edge"><title>Node4&#45;&gt;Node10</title>
<path fill="none" stroke="midnightblue" d="M388.266,-165.793C393.331,-156.315 399.242,-145.257 403.453,-137.378"/>
<polygon fill="midnightblue" stroke="midnightblue" points="385.027,-164.428 383.4,-174.897 391.2,-167.728 385.027,-164.428"/>
</g>
<!-- Node13 -->
<g id="node27" class="node"><title>Node13</title>
<a xlink:href="monopoly_8h.html" target="_top" xlink:title="Contains an interface for a kind of WorkUnit that consumes time on multiple thread. ">
<polygon fill="white" stroke="black" points="179.5,-117 179.5,-137 244.5,-137 244.5,-117 179.5,-117"/>
<text text-anchor="middle" x="212" y="-124" font-family="FreeSans" font-size="10.00">monopoly.h</text>
</a>
</g>
<!-- Node4&#45;&gt;Node13 -->
<g id="edge28" class="edge"><title>Node4&#45;&gt;Node13</title>
<path fill="none" stroke="midnightblue" d="M339.336,-171.491C309.24,-160.975 268.134,-146.613 240.862,-137.084"/>
<polygon fill="midnightblue" stroke="midnightblue" points="338.49,-174.903 349.085,-174.897 340.799,-168.295 338.49,-174.903"/>
</g>
<!-- Node4&#45;&gt;Node15 -->
<g id="edge38" class="edge"><title>Node4&#45;&gt;Node15</title>
<path fill="none" stroke="midnightblue" d="M418.17,-174.765C419.459,-174.498 420.739,-174.242 422,-174 539.159,-151.498 570.841,-160.502 688,-138 690.629,-137.495 693.336,-136.93 696.054,-136.33"/>
<polygon fill="midnightblue" stroke="midnightblue" points="417.2,-171.395 408.199,-176.984 418.721,-178.228 417.2,-171.395"/>
</g>
<!-- Node6 -->
<g id="node11" class="node"><title>Node6</title>
<a xlink:href="asynchronousfileloadingworkunit_8h.html" target="_top" xlink:title="The declaration of the AsynchronousFileLoadWorkUnit a workunit that loads a listing of files asynchro...">
<polygon fill="white" stroke="black" points="809.5,-59 809.5,-79 970.5,-79 970.5,-59 809.5,-59"/>
<text text-anchor="middle" x="890" y="-66" font-family="FreeSans" font-size="10.00">asynchronousfileloadingworkunit.h</text>
</a>
</g>
<!-- Node5&#45;&gt;Node6 -->
<g id="edge10" class="edge"><title>Node5&#45;&gt;Node6</title>
<path fill="none" stroke="midnightblue" d="M676.631,-114.835C726.128,-104.202 797.126,-88.9508 843.398,-79.0108"/>
<polygon fill="midnightblue" stroke="midnightblue" points="675.764,-111.441 666.722,-116.963 677.234,-118.285 675.764,-111.441"/>
</g>
<!-- Node5&#45;&gt;Node8 -->
<g id="edge18" class="edge"><title>Node5&#45;&gt;Node8</title>
<path fill="none" stroke="midnightblue" d="M680.346,-114.603C714.677,-106.191 752.818,-94.0643 763,-80 768.734,-72.0799 769.644,-65.1742 763,-58 744.149,-37.6433 350.24,-19.2515 205.093,-13.1416"/>
<polygon fill="midnightblue" stroke="midnightblue" points="679.242,-111.268 670.321,-116.983 680.859,-118.078 679.242,-111.268"/>
</g>
<!-- Node9 -->
<g id="node17" class="node"><title>Node9</title>
<a xlink:href="asynchronousworkunit_8cpp.html" target="_top" xlink:title="Contains very little actually. ">
<polygon fill="white" stroke="black" points="625.5,-59 625.5,-79 754.5,-79 754.5,-59 625.5,-59"/>
<text text-anchor="middle" x="690" y="-66" font-family="FreeSans" font-size="10.00">asynchronousworkunit.cpp</text>
</a>
</g>
<!-- Node5&#45;&gt;Node9 -->
<g id="edge16" class="edge"><title>Node5&#45;&gt;Node9</title>
<path fill="none" stroke="midnightblue" d="M639.987,-110.44C652.056,-100.439 667.065,-88.0036 677.475,-79.3776"/>
<polygon fill="midnightblue" stroke="midnightblue" points="637.66,-107.822 632.193,-116.897 642.126,-113.212 637.66,-107.822"/>
</g>
<!-- Node7 -->
<g id="node13" class="node"><title>Node7</title>
<a xlink:href="asynchronousfileloadingworkunit_8cpp.html" target="_top" xlink:title="The implementation of the AsynchronousFileLoadWorkUnit a workunit that loads a listing of files async...">
<polygon fill="white" stroke="black" points="804,-1 804,-21 976,-21 976,-1 804,-1"/>
<text text-anchor="middle" x="890" y="-8" font-family="FreeSans" font-size="10.00">asynchronousfileloadingworkunit.cpp</text>
</a>
</g>
<!-- Node6&#45;&gt;Node7 -->
<g id="edge12" class="edge"><title>Node6&#45;&gt;Node7</title>
<path fill="none" stroke="midnightblue" d="M890,-48.8902C890,-39.6201 890,-29.0083 890,-21.3776"/>
<polygon fill="midnightblue" stroke="midnightblue" points="886.5,-48.8971 890,-58.8972 893.5,-48.8972 886.5,-48.8971"/>
</g>
<!-- Node6&#45;&gt;Node8 -->
<g id="edge14" class="edge"><title>Node6&#45;&gt;Node8</title>
<path fill="none" stroke="midnightblue" d="M799.271,-58.3146C798.174,-58.2078 797.084,-58.1029 796,-58 576.983,-37.2031 315.299,-20.6712 205.077,-14.0871"/>
<polygon fill="midnightblue" stroke="midnightblue" points="798.964,-61.8014 809.264,-59.3216 799.666,-54.8366 798.964,-61.8014"/>
</g>
<!-- Node10&#45;&gt;Node8 -->
<g id="edge22" class="edge"><title>Node10&#45;&gt;Node8</title>
<path fill="none" stroke="midnightblue" d="M419.836,-107.77C426.785,-92.5883 432.551,-71.7442 421,-58 393.968,-25.8348 275.412,-15.6794 205.03,-12.4751"/>
<polygon fill="midnightblue" stroke="midnightblue" points="416.66,-106.294 415.268,-116.797 422.906,-109.454 416.66,-106.294"/>
</g>
<!-- Node10&#45;&gt;Node11 -->
<g id="edge24" class="edge"><title>Node10&#45;&gt;Node11</title>
<path fill="none" stroke="midnightblue" d="M394.398,-108.981C386.515,-99.2522 377.063,-87.5889 370.409,-79.3776"/>
<polygon fill="midnightblue" stroke="midnightblue" points="391.798,-111.331 400.813,-116.897 397.237,-106.924 391.798,-111.331"/>
</g>
<!-- Node12 -->
<g id="node25" class="node"><title>Node12</title>
<a xlink:href="frameschedulerworkunits_8cpp.html" target="_top" xlink:title="The implementation of any workunits the framescheduler needs to work correctly. ">
<polygon fill="white" stroke="black" points="467.5,-59 467.5,-79 608.5,-79 608.5,-59 467.5,-59"/>
<text text-anchor="middle" x="538" y="-66" font-family="FreeSans" font-size="10.00">frameschedulerworkunits.cpp</text>
</a>
</g>
<!-- Node10&#45;&gt;Node12 -->
<g id="edge26" class="edge"><title>Node10&#45;&gt;Node12</title>
<path fill="none" stroke="midnightblue" d="M440.863,-112.674C463.986,-102.278 494.706,-88.4654 515.355,-79.1817"/>
<polygon fill="midnightblue" stroke="midnightblue" points="439.155,-109.604 431.47,-116.897 442.026,-115.989 439.155,-109.604"/>
</g>
<!-- Node13&#45;&gt;Node8 -->
<g id="edge30" class="edge"><title>Node13&#45;&gt;Node8</title>
<path fill="none" stroke="midnightblue" d="M201.91,-107.493C189.018,-82.5685 167.182,-40.3525 157.227,-21.1055"/>
<polygon fill="midnightblue" stroke="midnightblue" points="198.972,-109.432 206.675,-116.706 205.19,-106.216 198.972,-109.432"/>
</g>
<!-- Node13&#45;&gt;Node11 -->
<g id="edge32" class="edge"><title>Node13&#45;&gt;Node11</title>
<path fill="none" stroke="midnightblue" d="M247.649,-113.216C274.778,-102.726 311.491,-88.5302 335.92,-79.0842"/>
<polygon fill="midnightblue" stroke="midnightblue" points="246.193,-110.026 238.128,-116.897 248.717,-116.555 246.193,-110.026"/>
</g>
<!-- Node14 -->
<g id="node31" class="node"><title>Node14</title>
<a xlink:href="monopoly_8cpp.html" target="_top" xlink:title="Contains the minimal implementation for the monopoly base class. ">
<polygon fill="white" stroke="black" points="218,-59 218,-79 294,-79 294,-59 218,-59"/>
<text text-anchor="middle" x="256" y="-66" font-family="FreeSans" font-size="10.00">monopoly.cpp</text>
</a>
</g>
<!-- Node13&#45;&gt;Node14 -->
<g id="edge34" class="edge"><title>Node13&#45;&gt;Node14</title>
<path fill="none" stroke="midnightblue" d="M225.894,-108.686C233.229,-99.0169 241.961,-87.5059 248.127,-79.3776"/>
<polygon fill="midnightblue" stroke="midnightblue" points="222.92,-106.815 219.664,-116.897 228.497,-111.046 222.92,-106.815"/>
</g>
<!-- Node17&#45;&gt;Node8 -->
<g id="edge54" class="edge"><title>Node17&#45;&gt;Node8</title>
<path fill="none" stroke="midnightblue" d="M80.8001,-284.029C72.4283,-275.718 63.1431,-265.117 57,-254 41.6154,-226.16 38,-216.808 38,-185 38,-185 38,-185 38,-127 38,-75.0453 96.8926,-37.8497 130.02,-21.0369"/>
<polygon fill="midnightblue" stroke="midnightblue" points="78.451,-286.625 88.1153,-290.967 83.2681,-281.546 78.451,-286.625"/>
</g>
<!-- Node18 -->
<g id="node46" class="node"><title>Node18</title>
<a xlink:href="logtools_8cpp.html" target="_top" xlink:title="Tools that make logging specific data a little bit easier. ">
<polygon fill="white" stroke="black" points="66,-233 66,-253 134,-253 134,-233 66,-233"/>
<text text-anchor="middle" x="100" y="-240" font-family="FreeSans" font-size="10.00">logtools.cpp</text>
</a>
</g>
<!-- Node17&#45;&gt;Node18 -->
<g id="edge56" class="edge"><title>Node17&#45;&gt;Node18</title>
<path fill="none" stroke="midnightblue" d="M100,-280.89C100,-271.62 100,-261.008 100,-253.378"/>
<polygon fill="midnightblue" stroke="midnightblue" points="96.5001,-280.897 100,-290.897 103.5,-280.897 96.5001,-280.897"/>
</g>
</g>
</svg>
        <g id="navigator" transform="translate(0 0)" fill="#404254">
                <rect fill="#f2f5e9" fill-opacity="0.5" stroke="#606060" stroke-width=".5" x="0" y="0" width="60" height="60"/>
                <use id="zoomplus" xlink:href="#zoomPlus" x="17" y="9" onmousedown="handleZoom(evt,'in')"/>
                <use id="zoomminus" xlink:href="#zoomMin" x="42" y="9" onmousedown="handleZoom(evt,'out')"/>
                <use id="reset" xlink:href="#resetDef" x="30" y="36" onmousedown="handleReset()"/>
                <g id="arrowUp" xlink:href="#dirArrow" transform="translate(30 24)" onmousedown="handlePan(0,-1)">
                  <use xlink:href="#rim" fill="#404040">
                        <set attributeName="fill" to="#808080" begin="arrowUp.mouseover" end="arrowUp.mouseout"/>
                  </use>
                  <path fill="none" stroke="white" stroke-width="1.5" d="M0,-3.0v7 M-2.5,-0.5L0,-3.0L2.5,-0.5"/>
                </g>
                <g id="arrowRight" xlink:href="#dirArrow" transform="rotate(90) translate(36 -43)" onmousedown="handlePan(1,0)">
                  <use xlink:href="#rim" fill="#404040">
                        <set attributeName="fill" to="#808080" begin="arrowRight.mouseover" end="arrowRight.mouseout"/>
                  </use>
                  <path fill="none" stroke="white" stroke-width="1.5" d="M0,-3.0v7 M-2.5,-0.5L0,-3.0L2.5,-0.5"/>
                </g>
                <g id="arrowDown" xlink:href="#dirArrow" transform="rotate(180) translate(-30 -48)" onmousedown="handlePan(0,1)">
                  <use xlink:href="#rim" fill="#404040">
                        <set attributeName="fill" to="#808080" begin="arrowDown.mouseover" end="arrowDown.mouseout"/>
                  </use>
                  <path fill="none" stroke="white" stroke-width="1.5" d="M0,-3.0v7 M-2.5,-0.5L0,-3.0L2.5,-0.5"/>
                </g>
                <g id="arrowLeft" xlink:href="#dirArrow" transform="rotate(270) translate(-36 17)" onmousedown="handlePan(-1,0)">
                  <use xlink:href="#rim" fill="#404040">
                        <set attributeName="fill" to="#808080" begin="arrowLeft.mouseover" end="arrowLeft.mouseout"/>
                  </use>
                  <path fill="none" stroke="white" stroke-width="1.5" d="M0,-3.0v7 M-2.5,-0.5L0,-3.0L2.5,-0.5"/>
                </g>
        </g>
        <svg viewBox="0 0 15 15" width="100%" height="30px" preserveAspectRatio="xMaxYMin meet">
         <g id="arrow_out" transform="scale(0.3 0.3)">
          <a xlink:href="systemcalls_8h__dep__incl_org.svg" target="_base">
           <rect id="button" ry="5" rx="5" y="6" x="6" height="38" width="38"
                fill="#f2f5e9" fill-opacity="0.5" stroke="#606060" stroke-width="1.0"/>
           <path id="arrow"
             d="M 11.500037,31.436501 C 11.940474,20.09759 22.043105,11.32322 32.158766,21.979434 L 37.068811,17.246167 C 37.068811,17.246167 37.088388,32 37.088388,32 L 22.160133,31.978069 C 22.160133,31.978069 26.997745,27.140456 26.997745,27.140456 C 18.528582,18.264221 13.291696,25.230495 11.500037,31.436501 z"
             style="fill:#404040;"/>
          </a>
         </g>
        </svg>
</svg>
