<?xml version="1.0" encoding="UTF-8" standalone="no"?>
<!DOCTYPE svg PUBLIC "-//W3C//DTD SVG 1.1//EN"
 "http://www.w3.org/Graphics/SVG/1.1/DTD/svg11.dtd">
<!-- Generated by graphviz version 2.26.3 (20100126.1600)
 -->
<!-- Title: systemcalls.cpp Pages: 1 -->
<svg width="516pt" height="262pt"
 viewBox="0.00 0.00 516.00 262.00" xmlns="http://www.w3.org/2000/svg" xmlns:xlink="http://www.w3.org/1999/xlink">
<g id="graph1" class="graph" transform="scale(1 1) rotate(0) translate(4 258)">
<title>systemcalls.cpp</title>
<polygon fill="white" stroke="white" points="-4,5 -4,-258 513,-258 513,5 -4,5"/>
<!-- Node1 -->
<g id="node1" class="node"><title>Node1</title>
<polygon fill="#bfbfbf" stroke="black" points="337,-233 337,-253 421,-253 421,-233 337,-233"/>
<text text-anchor="middle" x="379" y="-240" font-family="FreeSans" font-size="10.00">systemcalls.cpp</text>
</g>
<!-- Node2 -->
<g id="node3" class="node"><title>Node2</title>
<a xlink:href="datatypes_8h.html" target="_top" xlink:title="This file declares a few typedefs to allow flexibility, in case a change is required/desired.">
<polygon fill="white" stroke="black" points="281.5,-117 281.5,-137 346.5,-137 346.5,-117 281.5,-117"/>
<text text-anchor="middle" x="314" y="-124" font-family="FreeSans" font-size="10.00">datatypes.h</text>
</a>
</g>
<!-- Node1&#45;&gt;Node2 -->
<g id="edge2" class="edge"><title>Node1&#45;&gt;Node2</title>
<path fill="none" stroke="midnightblue" d="M377.786,-232.551C375.791,-218.463 370.898,-192.959 360,-174 353.553,-162.783 343.801,-152.288 334.933,-144.073"/>
<polygon fill="midnightblue" stroke="midnightblue" points="336.972,-141.205 327.157,-137.215 332.341,-146.455 336.972,-141.205"/>
</g>
<!-- Node7 -->
<g id="node13" class="node"><title>Node7</title>
<polygon fill="white" stroke="#bfbfbf" points="237,-1 237,-21 287,-21 287,-1 237,-1"/>
<text text-anchor="middle" x="262" y="-8" font-family="FreeSans" font-size="10.00">unistd.h</text>
</g>
<!-- Node1&#45;&gt;Node7 -->
<g id="edge36" class="edge"><title>Node1&#45;&gt;Node7</title>
<path fill="none" stroke="midnightblue" d="M384.668,-233C400.743,-203.167 442.957,-113.438 403,-58 390.45,-40.5882 334.668,-25.9584 297.141,-17.8478"/>
<polygon fill="midnightblue" stroke="midnightblue" points="297.598,-14.3674 287.092,-15.7362 296.158,-21.2178 297.598,-14.3674"/>
</g>
<!-- Node10 -->
<g id="node19" class="node"><title>Node10</title>
<a xlink:href="systemcalls_8h.html" target="_top" xlink:title="This file defines a minimalistic cross&#45;platform thread that the scheduler uses to schedule tasks...">
<polygon fill="white" stroke="black" points="277,-175 277,-195 351,-195 351,-175 277,-175"/>
<text text-anchor="middle" x="314" y="-182" font-family="FreeSans" font-size="10.00">systemcalls.h</text>
</a>
</g>
<!-- Node1&#45;&gt;Node10 -->
<g id="edge18" class="edge"><title>Node1&#45;&gt;Node10</title>
<path fill="none" stroke="midnightblue" d="M367.678,-232.897C358.195,-224.435 344.451,-212.172 333.244,-202.172"/>
<polygon fill="midnightblue" stroke="midnightblue" points="335.422,-199.424 325.63,-195.378 330.761,-204.647 335.422,-199.424"/>
</g>
<!-- Node11 -->
<g id="node22" class="node"><title>Node11</title>
<a xlink:href="crossplatformincludes_8h.html" target="_top" xlink:title="This file determines what features are offered by the compiler that this library can take advantage o...">
<polygon fill="white" stroke="black" points="80.5,-117 80.5,-137 197.5,-137 197.5,-117 80.5,-117"/>
<text text-anchor="middle" x="139" y="-124" font-family="FreeSans" font-size="10.00">crossplatformincludes.h</text>
</a>
</g>
<!-- Node1&#45;&gt;Node11 -->
<g id="edge22" class="edge"><title>Node1&#45;&gt;Node11</title>
<path fill="none" stroke="midnightblue" d="M353.136,-232.823C330.45,-223.714 296.7,-209.717 268,-196 231.876,-178.735 191.326,-156.569 165.498,-142.084"/>
<polygon fill="midnightblue" stroke="midnightblue" points="167.115,-138.978 156.684,-137.119 163.679,-145.077 167.115,-138.978"/>
</g>
<!-- Node12 -->
<g id="node29" class="node"><title>Node12</title>
<polygon fill="white" stroke="#bfbfbf" points="449.5,-175 449.5,-195 508.5,-195 508.5,-175 449.5,-175"/>
<text text-anchor="middle" x="479" y="-182" font-family="FreeSans" font-size="10.00">sys/time.h</text>
</g>
<!-- Node1&#45;&gt;Node12 -->
<g id="edge34" class="edge"><title>Node1&#45;&gt;Node12</title>
<path fill="none" stroke="midnightblue" d="M396.419,-232.897C411.953,-223.887 434.92,-210.567 452.692,-200.259"/>
<polygon fill="midnightblue" stroke="midnightblue" points="454.551,-203.227 461.445,-195.182 451.039,-197.171 454.551,-203.227"/>
</g>
<!-- Node3 -->
<g id="node5" class="node"><title>Node3</title>
<a xlink:href="crossplatformexport_8h.html" target="_top" xlink:title="This file determines what features are offered by the compiler that this library can take advantage o...">
<polygon fill="white" stroke="black" points="126,-59 126,-79 234,-79 234,-59 126,-59"/>
<text text-anchor="middle" x="180" y="-66" font-family="FreeSans" font-size="10.00">crossplatformexport.h</text>
</a>
</g>
<!-- Node2&#45;&gt;Node3 -->
<g id="edge4" class="edge"><title>Node2&#45;&gt;Node3</title>
<path fill="none" stroke="midnightblue" d="M290.659,-116.897C269.174,-107.598 237.081,-93.7066 212.981,-83.2752"/>
<polygon fill="midnightblue" stroke="midnightblue" points="214.091,-79.9419 203.523,-79.1817 211.31,-86.366 214.091,-79.9419"/>
</g>
<!-- Node8 -->
<g id="node15" class="node"><title>Node8</title>
<polygon fill="white" stroke="#bfbfbf" points="290,-59 290,-79 330,-79 330,-59 290,-59"/>
<text text-anchor="middle" x="310" y="-66" font-family="FreeSans" font-size="10.00">string</text>
</g>
<!-- Node2&#45;&gt;Node8 -->
<g id="edge14" class="edge"><title>Node2&#45;&gt;Node8</title>
<path fill="none" stroke="midnightblue" d="M313.303,-116.897C312.782,-109.339 312.052,-98.7476 311.41,-89.4458"/>
<polygon fill="midnightblue" stroke="midnightblue" points="314.896,-89.1131 310.716,-79.3776 307.912,-89.5947 314.896,-89.1131"/>
</g>
<!-- Node9 -->
<g id="node17" class="node"><title>Node9</title>
<polygon fill="white" stroke="#bfbfbf" points="347.5,-59 347.5,-79 394.5,-79 394.5,-59 347.5,-59"/>
<text text-anchor="middle" x="371" y="-66" font-family="FreeSans" font-size="10.00">stdint.h</text>
</g>
<!-- Node2&#45;&gt;Node9 -->
<g id="edge16" class="edge"><title>Node2&#45;&gt;Node9</title>
<path fill="none" stroke="midnightblue" d="M323.929,-116.897C332.083,-108.6 343.83,-96.6463 353.549,-86.7569"/>
<polygon fill="midnightblue" stroke="midnightblue" points="356.288,-88.9632 360.801,-79.3776 351.296,-84.0566 356.288,-88.9632"/>
</g>
<!-- Node4 -->
<g id="node7" class="node"><title>Node4</title>
<polygon fill="white" stroke="#bfbfbf" points="142,-1 142,-21 198,-21 198,-1 142,-1"/>
<text text-anchor="middle" x="170" y="-8" font-family="FreeSans" font-size="10.00">pthread.h</text>
</g>
<!-- Node3&#45;&gt;Node4 -->
<g id="edge6" class="edge"><title>Node3&#45;&gt;Node4</title>
<path fill="none" stroke="midnightblue" d="M178.258,-58.8972C176.955,-51.339 175.129,-40.7476 173.525,-31.4458"/>
<polygon fill="midnightblue" stroke="midnightblue" points="176.938,-30.6375 171.789,-21.3776 170.039,-31.8269 176.938,-30.6375"/>
</g>
<!-- Node5 -->
<g id="node9" class="node"><title>Node5</title>
<polygon fill="white" stroke="#bfbfbf" points="72.5,-1 72.5,-21 121.5,-21 121.5,-1 72.5,-1"/>
<text text-anchor="middle" x="97" y="-8" font-family="FreeSans" font-size="10.00">signal.h</text>
</g>
<!-- Node3&#45;&gt;Node5 -->
<g id="edge8" class="edge"><title>Node3&#45;&gt;Node5</title>
<path fill="none" stroke="midnightblue" d="M165.543,-58.8972C153.004,-50.1351 134.631,-37.2965 120.063,-27.1164"/>
<polygon fill="midnightblue" stroke="midnightblue" points="121.772,-24.0408 111.57,-21.1817 117.762,-29.7786 121.772,-24.0408"/>
</g>
<!-- Node6 -->
<g id="node11" class="node"><title>Node6</title>
<polygon fill="white" stroke="#bfbfbf" points="0,-1 0,-21 50,-21 50,-1 0,-1"/>
<text text-anchor="middle" x="25" y="-8" font-family="FreeSans" font-size="10.00">sched.h</text>
</g>
<!-- Node3&#45;&gt;Node6 -->
<g id="edge10" class="edge"><title>Node3&#45;&gt;Node6</title>
<path fill="none" stroke="midnightblue" d="M153.001,-58.8972C127.087,-49.2002 87.8296,-34.5104 59.6261,-23.9569"/>
<polygon fill="midnightblue" stroke="midnightblue" points="60.7436,-20.6381 50.1512,-20.4114 58.2903,-27.1941 60.7436,-20.6381"/>
</g>
<!-- Node3&#45;&gt;Node7 -->
<g id="edge12" class="edge"><title>Node3&#45;&gt;Node7</title>
<path fill="none" stroke="midnightblue" d="M194.283,-58.8972C206.671,-50.1351 224.822,-37.2965 239.215,-27.1164"/>
<polygon fill="midnightblue" stroke="midnightblue" points="241.462,-29.8138 247.605,-21.1817 237.42,-24.0989 241.462,-29.8138"/>
</g>
<!-- Node10&#45;&gt;Node2 -->
<g id="edge20" class="edge"><title>Node10&#45;&gt;Node2</title>
<path fill="none" stroke="midnightblue" d="M314,-174.897C314,-167.339 314,-156.748 314,-147.446"/>
<polygon fill="midnightblue" stroke="midnightblue" points="317.5,-147.378 314,-137.378 310.5,-147.378 317.5,-147.378"/>
</g>
<!-- Node11&#45;&gt;Node3 -->
<g id="edge24" class="edge"><title>Node11&#45;&gt;Node3</title>
<path fill="none" stroke="midnightblue" d="M146.142,-116.897C151.833,-108.846 159.957,-97.3532 166.821,-87.6435"/>
<polygon fill="midnightblue" stroke="midnightblue" points="169.75,-89.5637 172.664,-79.3776 164.034,-85.5231 169.75,-89.5637"/>
</g>
<!-- Node11&#45;&gt;Node4 -->
<g id="edge26" class="edge"><title>Node11&#45;&gt;Node4</title>
<path fill="none" stroke="midnightblue" d="M131.238,-116.909C121.725,-103.227 107.923,-78.1817 117,-58 122.692,-45.3443 133.663,-34.7141 144.153,-26.7826"/>
<polygon fill="midnightblue" stroke="midnightblue" points="146.189,-29.6299 152.353,-21.013 142.161,-23.905 146.189,-29.6299"/>
</g>
<!-- Node11&#45;&gt;Node5 -->
<g id="edge28" class="edge"><title>Node11&#45;&gt;Node5</title>
<path fill="none" stroke="midnightblue" d="M131.468,-116.699C125.099,-107.511 116.204,-93.4665 111,-80 104.882,-64.1659 101.281,-45.2055 99.2679,-31.1705"/>
<polygon fill="midnightblue" stroke="midnightblue" points="102.723,-30.596 97.9754,-21.1244 95.7801,-31.4893 102.723,-30.596"/>
</g>
<!-- Node11&#45;&gt;Node6 -->
<g id="edge30" class="edge"><title>Node11&#45;&gt;Node6</title>
<path fill="none" stroke="midnightblue" d="M128.883,-116.706C109.313,-96.7925 66.0861,-52.8069 42.0181,-28.3167"/>
<polygon fill="midnightblue" stroke="midnightblue" points="44.4369,-25.7846 34.9313,-21.1055 39.4443,-30.6911 44.4369,-25.7846"/>
</g>
<!-- Node11&#45;&gt;Node7 -->
<g id="edge32" class="edge"><title>Node11&#45;&gt;Node7</title>
<path fill="none" stroke="midnightblue" d="M181.74,-116.949C202.933,-109.906 227.289,-98.3707 243,-80 254.584,-66.4556 259.151,-46.4274 260.929,-31.4332"/>
<polygon fill="midnightblue" stroke="midnightblue" points="264.444,-31.4022 261.814,-21.1391 257.47,-30.8024 264.444,-31.4022"/>
</g>
</g>
</svg>
