<?xml version="1.0" encoding="UTF-8" standalone="no"?>
<!DOCTYPE svg PUBLIC "-//W3C//DTD SVG 1.1//EN"
 "http://www.w3.org/Graphics/SVG/1.1/DTD/svg11.dtd">
<!-- Generated by graphviz version 2.26.3 (20100126.1600)
 -->
<!-- Title: G Pages: 1 -->
<svg width="411pt" height="272pt"
 viewBox="0.00 0.00 411.00 272.00" xmlns="http://www.w3.org/2000/svg" xmlns:xlink="http://www.w3.org/1999/xlink">
<g id="graph1" class="graph" transform="scale(1 1) rotate(0) translate(4 268)">
<title>G</title>
<polygon fill="white" stroke="white" points="-4,5 -4,-268 408,-268 408,5 -4,5"/>
<!-- Node1 -->
<g id="node1" class="node"><title>Node1</title>
<polygon fill="#bfbfbf" stroke="black" points="236,-241 236,-263 324,-263 324,-241 236,-241"/>
<text text-anchor="middle" x="280" y="-250" font-family="FreeSans" font-size="10.00">systemcalls.cpp</text>
</g>
<!-- Node2 -->
<g id="node3" class="node"><title>Node2</title>
<a xlink:href="datatypes_8h.html" target="_top" xlink:title="This file declares a few typedefs to allow flexibility, in case a change is required/desired.">
<polygon fill="white" stroke="black" points="167,-121 167,-143 235,-143 235,-121 167,-121"/>
<text text-anchor="middle" x="201" y="-130" font-family="FreeSans" font-size="10.00">datatypes.h</text>
</a>
</g>
<!-- Node1&#45;&gt;Node2 -->
<g id="edge2" class="edge"><title>Node1&#45;&gt;Node2</title>
<path fill="none" stroke="midnightblue" d="M246.43,-240.997C229.283,-233.475 209.975,-221.618 200,-204 191.277,-188.593 192.511,-168.197 195.356,-153.048"/>
<polygon fill="midnightblue" stroke="midnightblue" points="198.816,-153.614 197.592,-143.09 191.986,-152.08 198.816,-153.614"/>
</g>
<!-- Node7 -->
<g id="node13" class="node"><title>Node7</title>
<polygon fill="white" stroke="#bfbfbf" points="251,-1 251,-23 301,-23 301,-1 251,-1"/>
<text text-anchor="middle" x="276" y="-10" font-family="FreeSans" font-size="10.00">unistd.h</text>
</g>
<!-- Node1&#45;&gt;Node7 -->
<g id="edge24" class="edge"><title>Node1&#45;&gt;Node7</title>
<path fill="none" stroke="midnightblue" d="M284.266,-240.756C287.669,-231.154 292.159,-216.89 294,-204 303.051,-140.643 305.419,-122.973 294,-60 292.307,-50.6613 288.901,-40.7737 285.503,-32.415"/>
<polygon fill="midnightblue" stroke="midnightblue" points="288.662,-30.9036 281.477,-23.1171 282.238,-33.6846 288.662,-30.9036"/>
</g>
<!-- Node10 -->
<g id="node19" class="node"><title>Node10</title>
<a xlink:href="systemcalls_8h.html" target="_top" xlink:title="This file defines a minimalistic cross&#45;platform thread that the scheduler uses to schedule tasks...">
<polygon fill="white" stroke="black" points="208.5,-181 208.5,-203 285.5,-203 285.5,-181 208.5,-181"/>
<text text-anchor="middle" x="247" y="-190" font-family="FreeSans" font-size="10.00">systemcalls.h</text>
</a>
</g>
<!-- Node1&#45;&gt;Node10 -->
<g id="edge18" class="edge"><title>Node1&#45;&gt;Node10</title>
<path fill="none" stroke="midnightblue" d="M273.947,-240.995C269.537,-232.977 263.436,-221.884 258.154,-212.281"/>
<polygon fill="midnightblue" stroke="midnightblue" points="261.125,-210.418 253.239,-203.343 254.991,-213.792 261.125,-210.418"/>
</g>
<!-- Node11 -->
<g id="node22" class="node"><title>Node11</title>
<polygon fill="white" stroke="#bfbfbf" points="341,-181 341,-203 403,-203 403,-181 341,-181"/>
<text text-anchor="middle" x="372" y="-190" font-family="FreeSans" font-size="10.00">sys/time.h</text>
</g>
<!-- Node1&#45;&gt;Node11 -->
<g id="edge22" class="edge"><title>Node1&#45;&gt;Node11</title>
<path fill="none" stroke="midnightblue" d="M296.874,-240.995C310.664,-232.002 330.386,-219.14 346.163,-208.851"/>
<polygon fill="midnightblue" stroke="midnightblue" points="348.457,-211.533 354.921,-203.138 344.633,-205.669 348.457,-211.533"/>
</g>
<!-- Node3 -->
<g id="node5" class="node"><title>Node3</title>
<a xlink:href="compilerthreadcompat_8h.html" target="_top" xlink:title="This file determines what features are offered by the compiler that this library can take advantage o...">
<polygon fill="white" stroke="black" points="39,-61 39,-83 163,-83 163,-61 39,-61"/>
<text text-anchor="middle" x="101" y="-70" font-family="FreeSans" font-size="10.00">compilerthreadcompat.h</text>
</a>
</g>
<!-- Node2&#45;&gt;Node3 -->
<g id="edge4" class="edge"><title>Node2&#45;&gt;Node3</title>
<path fill="none" stroke="midnightblue" d="M182.658,-120.995C167.53,-111.918 145.832,-98.899 128.605,-88.5627"/>
<polygon fill="midnightblue" stroke="midnightblue" points="129.94,-85.2821 119.564,-83.1383 126.338,-91.2846 129.94,-85.2821"/>
</g>
<!-- Node8 -->
<g id="node15" class="node"><title>Node8</title>
<polygon fill="white" stroke="#bfbfbf" points="180.5,-61 180.5,-83 221.5,-83 221.5,-61 180.5,-61"/>
<text text-anchor="middle" x="201" y="-70" font-family="FreeSans" font-size="10.00">string</text>
</g>
<!-- Node2&#45;&gt;Node8 -->
<g id="edge14" class="edge"><title>Node2&#45;&gt;Node8</title>
<path fill="none" stroke="midnightblue" d="M201,-120.995C201,-113.311 201,-102.803 201,-93.4884"/>
<polygon fill="midnightblue" stroke="midnightblue" points="204.5,-93.3428 201,-83.3428 197.5,-93.3429 204.5,-93.3428"/>
</g>
<!-- Node9 -->
<g id="node17" class="node"><title>Node9</title>
<polygon fill="white" stroke="#bfbfbf" points="238.5,-61 238.5,-83 285.5,-83 285.5,-61 238.5,-61"/>
<text text-anchor="middle" x="262" y="-70" font-family="FreeSans" font-size="10.00">stdint.h</text>
</g>
<!-- Node2&#45;&gt;Node9 -->
<g id="edge16" class="edge"><title>Node2&#45;&gt;Node9</title>
<path fill="none" stroke="midnightblue" d="M212.188,-120.995C220.849,-112.476 233.04,-100.485 243.193,-90.4985"/>
<polygon fill="midnightblue" stroke="midnightblue" points="245.793,-92.8505 250.468,-83.3428 240.884,-87.86 245.793,-92.8505"/>
</g>
<!-- Node4 -->
<g id="node7" class="node"><title>Node4</title>
<polygon fill="white" stroke="#bfbfbf" points="0,-1 0,-23 58,-23 58,-1 0,-1"/>
<text text-anchor="middle" x="29" y="-10" font-family="FreeSans" font-size="10.00">pthread.h</text>
</g>
<!-- Node3&#45;&gt;Node4 -->
<g id="edge6" class="edge"><title>Node3&#45;&gt;Node4</title>
<path fill="none" stroke="midnightblue" d="M87.7941,-60.9951C77.3707,-52.309 62.6165,-40.0138 50.4961,-29.9134"/>
<polygon fill="midnightblue" stroke="midnightblue" points="52.5343,-27.0559 42.6114,-23.3428 48.053,-32.4335 52.5343,-27.0559"/>
</g>
<!-- Node5 -->
<g id="node9" class="node"><title>Node5</title>
<polygon fill="white" stroke="#bfbfbf" points="75.5,-1 75.5,-23 126.5,-23 126.5,-1 75.5,-1"/>
<text text-anchor="middle" x="101" y="-10" font-family="FreeSans" font-size="10.00">signal.h</text>
</g>
<!-- Node3&#45;&gt;Node5 -->
<g id="edge8" class="edge"><title>Node3&#45;&gt;Node5</title>
<path fill="none" stroke="midnightblue" d="M101,-60.9951C101,-53.3112 101,-42.8031 101,-33.4884"/>
<polygon fill="midnightblue" stroke="midnightblue" points="104.5,-33.3428 101,-23.3428 97.5001,-33.3429 104.5,-33.3428"/>
</g>
<!-- Node6 -->
<g id="node11" class="node"><title>Node6</title>
<polygon fill="white" stroke="#bfbfbf" points="144,-1 144,-23 196,-23 196,-1 144,-1"/>
<text text-anchor="middle" x="170" y="-10" font-family="FreeSans" font-size="10.00">sched.h</text>
</g>
<!-- Node3&#45;&gt;Node6 -->
<g id="edge10" class="edge"><title>Node3&#45;&gt;Node6</title>
<path fill="none" stroke="midnightblue" d="M113.656,-60.9951C123.645,-52.309 137.784,-40.0138 149.4,-29.9134"/>
<polygon fill="midnightblue" stroke="midnightblue" points="151.706,-32.5458 156.956,-23.3428 147.113,-27.2635 151.706,-32.5458"/>
</g>
<!-- Node3&#45;&gt;Node7 -->
<g id="edge12" class="edge"><title>Node3&#45;&gt;Node7</title>
<path fill="none" stroke="midnightblue" d="M133.098,-60.9951C163.727,-50.4937 209.742,-34.7172 241.229,-23.9216"/>
<polygon fill="midnightblue" stroke="midnightblue" points="242.579,-27.1586 250.903,-20.6045 240.309,-20.537 242.579,-27.1586"/>
</g>
<!-- Node10&#45;&gt;Node2 -->
<g id="edge20" class="edge"><title>Node10&#45;&gt;Node2</title>
<path fill="none" stroke="midnightblue" d="M238.563,-180.995C232.224,-172.727 223.377,-161.188 215.862,-151.385"/>
<polygon fill="midnightblue" stroke="midnightblue" points="218.558,-149.149 209.696,-143.343 213.003,-153.408 218.558,-149.149"/>
</g>
</g>
</svg>
