<?xml version="1.0" encoding="UTF-8" standalone="no"?>
<!DOCTYPE svg PUBLIC "-//W3C//DTD SVG 1.1//EN"
 "http://www.w3.org/Graphics/SVG/1.1/DTD/svg11.dtd">
<!-- Generated by graphviz version 2.26.3 (20100126.1600)
 -->
<!-- Title: G Pages: 1 -->
<!--zoomable 332 -->
<svg id="main" version="1.1" xmlns="http://www.w3.org/2000/svg" xmlns:xlink="http://www.w3.org/1999/xlink" xml:space="preserve" onload="init(evt)">
        <defs>
                <circle id="rim" cx="0" cy="0" r="7"/>
                <circle id="rim2" cx="0" cy="0" r="3.5"/>
                <g id="zoomPlus">
                        <use xlink:href="#rim" fill="#404040">
                                <set attributeName="fill" to="#808080" begin="zoomplus.mouseover" end="zoomplus.mouseout"/>
                        </use>
                        <path d="M-4,0h8M0,-4v8" fill="none" stroke="white" stroke-width="1.5" pointer-events="none"/>
                </g>
                <g id="zoomMin">
                        <use xlink:href="#rim" fill="#404040">
                                <set attributeName="fill" to="#808080" begin="zoomminus.mouseover" end="zoomminus.mouseout"/>
                        </use>
                        <path d="M-4,0h8" fill="none" stroke="white" stroke-width="1.5" pointer-events="none"/>
                </g>
                <g id="dirArrow">
                        <path fill="none" stroke="white" stroke-width="1.5" d="M0,-3.0v7 M-2.5,-0.5L0,-3.0L2.5,-0.5"/>
                </g>
               <g id="resetDef">
                       <use xlink:href="#rim2" fill="#404040">
                               <set attributeName="fill" to="#808080" begin="reset.mouseover" end="reset.mouseout"/>
                       </use>
               </g>
        </defs>

<script type="text/javascript">
var viewWidth = 742;
var viewHeight = 332;
var sectionId = 'dynsection-1';
</script>
<script xlink:href="svgpan.js"/>
<svg id="graph" class="graph">
<g id="viewport">
<title>G</title>
<polygon fill="white" stroke="white" points="-4,5 -4,-328 739,-328 739,5 -4,5"/>
<!-- Node1 -->
<g id="node1" class="node"><title>Node1</title>
<polygon fill="#bfbfbf" stroke="black" points="271.5,-301 271.5,-323 348.5,-323 348.5,-301 271.5,-301"/>
<text text-anchor="middle" x="310" y="-310" font-family="FreeSans" font-size="10.00">systemcalls.h</text>
</g>
<!-- Node2 -->
<g id="node3" class="node"><title>Node2</title>
<a xlink:href="thread_8h.html" target="_top" xlink:title="This file defines a minimalistic cross&#45;platform thread that the scheduler uses to schedule tasks...">
<polygon fill="white" stroke="black" points="208.5,-241 208.5,-263 261.5,-263 261.5,-241 208.5,-241"/>
<text text-anchor="middle" x="235" y="-250" font-family="FreeSans" font-size="10.00">thread.h</text>
</a>
</g>
<!-- Node1&#45;&gt;Node2 -->
<g id="edge2" class="edge"><title>Node1&#45;&gt;Node2</title>
<path fill="none" stroke="midnightblue" d="M288.404,-294.723C275.698,-284.558 260.001,-272.001 248.923,-263.138"/>
<polygon fill="midnightblue" stroke="midnightblue" points="286.249,-297.481 296.244,-300.995 290.622,-292.015 286.249,-297.481"/>
</g>
<!-- Node3 -->
<g id="node5" class="node"><title>Node3</title>
<a xlink:href="framescheduler_8h.html" target="_top" xlink:title="This file has the Declarations for the main FrameScheduler class.">
<polygon fill="white" stroke="black" points="263,-181 263,-203 357,-203 357,-181 263,-181"/>
<text text-anchor="middle" x="310" y="-190" font-family="FreeSans" font-size="10.00">framescheduler.h</text>
</a>
</g>
<!-- Node1&#45;&gt;Node3 -->
<g id="edge44" class="edge"><title>Node1&#45;&gt;Node3</title>
<path fill="none" stroke="midnightblue" d="M310,-290.749C310,-265.1 310,-222.941 310,-203.047"/>
<polygon fill="midnightblue" stroke="midnightblue" points="306.5,-290.926 310,-300.926 313.5,-290.926 306.5,-290.926"/>
</g>
<!-- Node7 -->
<g id="node13" class="node"><title>Node7</title>
<a xlink:href="dagframescheduler_8h.html" target="_top" xlink:title="This is the file that code using this library should include. It includes all the required components...">
<polygon fill="white" stroke="black" points="88,-1 88,-23 200,-23 200,-1 88,-1"/>
<text text-anchor="middle" x="144" y="-10" font-family="FreeSans" font-size="10.00">dagframescheduler.h</text>
</a>
</g>
<!-- Node1&#45;&gt;Node7 -->
<g id="edge42" class="edge"><title>Node1&#45;&gt;Node7</title>
<path fill="none" stroke="midnightblue" d="M261.429,-303.613C174.197,-287.161 0,-247.374 0,-192 0,-192 0,-192 0,-132 0,-74.7248 68.0625,-39.4843 110.602,-23.0522"/>
<polygon fill="midnightblue" stroke="midnightblue" points="260.894,-307.073 271.365,-305.457 262.172,-300.191 260.894,-307.073"/>
</g>
<!-- Node13 -->
<g id="node28" class="node"><title>Node13</title>
<a xlink:href="workunit_8cpp.html" target="_top" xlink:title="This file has the implementation of the workunit.">
<polygon fill="white" stroke="black" points="521.5,-61 521.5,-83 592.5,-83 592.5,-61 521.5,-61"/>
<text text-anchor="middle" x="557" y="-70" font-family="FreeSans" font-size="10.00">workunit.cpp</text>
</a>
</g>
<!-- Node1&#45;&gt;Node13 -->
<g id="edge48" class="edge"><title>Node1&#45;&gt;Node13</title>
<path fill="none" stroke="midnightblue" d="M328.946,-293.591C377.657,-246.26 506.18,-121.38 545.443,-83.2294"/>
<polygon fill="midnightblue" stroke="midnightblue" points="326.315,-291.267 321.582,-300.746 331.193,-296.288 326.315,-291.267"/>
</g>
<!-- Node15 -->
<g id="node38" class="node"><title>Node15</title>
<a xlink:href="systemcalls_8cpp.html" target="_top" xlink:title="This file defines some time&#45;tracking functions.">
<polygon fill="white" stroke="black" points="413,-241 413,-263 501,-263 501,-241 413,-241"/>
<text text-anchor="middle" x="457" y="-250" font-family="FreeSans" font-size="10.00">systemcalls.cpp</text>
</a>
</g>
<!-- Node1&#45;&gt;Node15 -->
<g id="edge46" class="edge"><title>Node1&#45;&gt;Node15</title>
<path fill="none" stroke="midnightblue" d="M346.434,-297.129C372.311,-286.567 406.491,-272.616 429.96,-263.037"/>
<polygon fill="midnightblue" stroke="midnightblue" points="344.898,-293.976 336.962,-300.995 347.543,-300.457 344.898,-293.976"/>
</g>
<!-- Node2&#45;&gt;Node3 -->
<g id="edge4" class="edge"><title>Node2&#45;&gt;Node3</title>
<path fill="none" stroke="midnightblue" d="M256.596,-234.723C269.302,-224.558 284.999,-212.001 296.077,-203.138"/>
<polygon fill="midnightblue" stroke="midnightblue" points="254.378,-232.015 248.756,-240.995 258.751,-237.481 254.378,-232.015"/>
</g>
<!-- Node4 -->
<g id="node7" class="node"><title>Node4</title>
<a xlink:href="workunit_8h.html" target="_top" xlink:title="This file has the defintion of the workunit.">
<polygon fill="white" stroke="black" points="279.5,-121 279.5,-143 340.5,-143 340.5,-121 279.5,-121"/>
<text text-anchor="middle" x="310" y="-130" font-family="FreeSans" font-size="10.00">workunit.h</text>
</a>
</g>
<!-- Node2&#45;&gt;Node4 -->
<g id="edge40" class="edge"><title>Node2&#45;&gt;Node4</title>
<path fill="none" stroke="midnightblue" d="M237.164,-231.015C239.493,-215.896 244.273,-195.512 254,-180 263.592,-164.704 279.606,-151.696 292.058,-143.096"/>
<polygon fill="midnightblue" stroke="midnightblue" points="233.691,-230.579 235.865,-240.948 240.632,-231.486 233.691,-230.579"/>
</g>
<!-- Node2&#45;&gt;Node7 -->
<g id="edge36" class="edge"><title>Node2&#45;&gt;Node7</title>
<path fill="none" stroke="midnightblue" d="M198.789,-242.139C177.864,-234.751 152.498,-222.649 136,-204 91.9081,-154.161 69.2183,-121.346 95,-60 101.459,-44.6303 115.508,-31.7157 126.914,-23.1676"/>
<polygon fill="midnightblue" stroke="midnightblue" points="197.75,-245.482 208.343,-245.302 199.95,-238.837 197.75,-245.482"/>
</g>
<!-- Node14 -->
<g id="node33" class="node"><title>Node14</title>
<a xlink:href="thread_8cpp.html" target="_top" xlink:title="This file implements a minimalistic cross&#45;platform thread that the scheduler uses to schedule tasks...">
<polygon fill="white" stroke="black" points="144.5,-181 144.5,-203 207.5,-203 207.5,-181 144.5,-181"/>
<text text-anchor="middle" x="176" y="-190" font-family="FreeSans" font-size="10.00">thread.cpp</text>
</a>
</g>
<!-- Node2&#45;&gt;Node14 -->
<g id="edge38" class="edge"><title>Node2&#45;&gt;Node14</title>
<path fill="none" stroke="midnightblue" d="M216.908,-233.602C207.197,-223.726 195.537,-211.868 187.154,-203.343"/>
<polygon fill="midnightblue" stroke="midnightblue" points="214.671,-236.319 224.178,-240.995 219.663,-231.411 214.671,-236.319"/>
</g>
<!-- Node3&#45;&gt;Node4 -->
<g id="edge6" class="edge"><title>Node3&#45;&gt;Node4</title>
<path fill="none" stroke="midnightblue" d="M310,-170.918C310,-161.639 310,-151.108 310,-143.343"/>
<polygon fill="midnightblue" stroke="midnightblue" points="306.5,-170.995 310,-180.995 313.5,-170.995 306.5,-170.995"/>
</g>
<!-- Node3&#45;&gt;Node7 -->
<g id="edge32" class="edge"><title>Node3&#45;&gt;Node7</title>
<path fill="none" stroke="midnightblue" d="M252.962,-180.849C201.649,-167.468 129.227,-139.496 95,-84 81.3481,-61.8648 108.16,-36.9718 127.226,-23.019"/>
<polygon fill="midnightblue" stroke="midnightblue" points="252.376,-184.31 262.925,-183.334 254.07,-177.518 252.376,-184.31"/>
</g>
<!-- Node8 -->
<g id="node15" class="node"><title>Node8</title>
<a xlink:href="framescheduler_8cpp.html" target="_top" xlink:title="This is the core object implementation for this algorithm.">
<polygon fill="white" stroke="black" points="630,-1 630,-23 734,-23 734,-1 630,-1"/>
<text text-anchor="middle" x="682" y="-10" font-family="FreeSans" font-size="10.00">framescheduler.cpp</text>
</a>
</g>
<!-- Node3&#45;&gt;Node8 -->
<g id="edge34" class="edge"><title>Node3&#45;&gt;Node8</title>
<path fill="none" stroke="midnightblue" d="M364.429,-178.354C425.002,-161.716 524.426,-130.006 601,-84 629.708,-66.7522 657.654,-38.6806 672.019,-23.1756"/>
<polygon fill="midnightblue" stroke="midnightblue" points="363.422,-175 354.685,-180.992 365.252,-181.757 363.422,-175"/>
</g>
<!-- Node5 -->
<g id="node9" class="node"><title>Node5</title>
<a xlink:href="monopoly_8h.html" target="_top" xlink:title="Contains an interface for a kind of WorkUnit that consumes time on multiple thread.">
<polygon fill="white" stroke="black" points="436,-61 436,-83 504,-83 504,-61 436,-61"/>
<text text-anchor="middle" x="470" y="-70" font-family="FreeSans" font-size="10.00">monopoly.h</text>
</a>
</g>
<!-- Node4&#45;&gt;Node5 -->
<g id="edge8" class="edge"><title>Node4&#45;&gt;Node5</title>
<path fill="none" stroke="midnightblue" d="M348.913,-117.408C377.165,-106.813 414.799,-92.7002 440.569,-83.0366"/>
<polygon fill="midnightblue" stroke="midnightblue" points="347.481,-114.207 339.346,-120.995 349.939,-120.761 347.481,-114.207"/>
</g>
<!-- Node4&#45;&gt;Node7 -->
<g id="edge28" class="edge"><title>Node4&#45;&gt;Node7</title>
<path fill="none" stroke="midnightblue" d="M293.328,-113.301C278.893,-97.8045 256.935,-75.8322 235,-60 214.289,-45.0514 188.322,-31.8259 169.433,-23.0628"/>
<polygon fill="midnightblue" stroke="midnightblue" points="290.815,-115.739 300.151,-120.748 295.976,-111.01 290.815,-115.739"/>
</g>
<!-- Node10 -->
<g id="node19" class="node"><title>Node10</title>
<a xlink:href="asynchronousworkunit_8h.html" target="_top" xlink:title="Contains an interface for a kind of WorkUnit that loads or writes a.">
<polygon fill="white" stroke="black" points="103.5,-61 103.5,-83 226.5,-83 226.5,-61 103.5,-61"/>
<text text-anchor="middle" x="165" y="-70" font-family="FreeSans" font-size="10.00">asynchronousworkunit.h</text>
</a>
</g>
<!-- Node4&#45;&gt;Node10 -->
<g id="edge18" class="edge"><title>Node4&#45;&gt;Node10</title>
<path fill="none" stroke="midnightblue" d="M274.093,-117.142C248.654,-106.616 215.069,-92.7182 191.918,-83.1383"/>
<polygon fill="midnightblue" stroke="midnightblue" points="272.826,-120.406 283.405,-120.995 275.503,-113.937 272.826,-120.406"/>
</g>
<!-- Node11 -->
<g id="node22" class="node"><title>Node11</title>
<a xlink:href="frameschedulerworkunits_8h.html" target="_top" xlink:title="This defines a number of workunits that are required for doing some tasks that the Framescheduler req...">
<polygon fill="white" stroke="black" points="282,-61 282,-83 418,-83 418,-61 282,-61"/>
<text text-anchor="middle" x="350" y="-70" font-family="FreeSans" font-size="10.00">frameschedulerworkunits.h</text>
</a>
</g>
<!-- Node4&#45;&gt;Node11 -->
<g id="edge22" class="edge"><title>Node4&#45;&gt;Node11</title>
<path fill="none" stroke="midnightblue" d="M323.054,-112.419C329.472,-102.792 336.98,-91.5303 342.438,-83.3428"/>
<polygon fill="midnightblue" stroke="midnightblue" points="319.971,-110.733 317.337,-120.995 325.796,-114.616 319.971,-110.733"/>
</g>
<!-- Node4&#45;&gt;Node13 -->
<g id="edge30" class="edge"><title>Node4&#45;&gt;Node13</title>
<path fill="none" stroke="midnightblue" d="M350.583,-122.832C391.633,-113.458 456.866,-98.2869 513,-84 515.762,-83.2969 518.618,-82.5543 521.486,-81.7972"/>
<polygon fill="midnightblue" stroke="midnightblue" points="349.66,-119.453 340.688,-125.086 351.215,-126.278 349.66,-119.453"/>
</g>
<!-- Node6 -->
<g id="node11" class="node"><title>Node6</title>
<a xlink:href="asynchronousworkunit_8cpp.html" target="_top" xlink:title="Contains the minimal implementation for the monopoly base class.">
<polygon fill="white" stroke="black" points="478,-1 478,-23 612,-23 612,-1 478,-1"/>
<text text-anchor="middle" x="545" y="-10" font-family="FreeSans" font-size="10.00">asynchronousworkunit.cpp</text>
</a>
</g>
<!-- Node5&#45;&gt;Node6 -->
<g id="edge10" class="edge"><title>Node5&#45;&gt;Node6</title>
<path fill="none" stroke="midnightblue" d="M491.596,-54.7234C504.302,-44.5582 519.999,-32.0008 531.077,-23.1383"/>
<polygon fill="midnightblue" stroke="midnightblue" points="489.378,-52.015 483.756,-60.9951 493.751,-57.4811 489.378,-52.015"/>
</g>
<!-- Node5&#45;&gt;Node7 -->
<g id="edge12" class="edge"><title>Node5&#45;&gt;Node7</title>
<path fill="none" stroke="midnightblue" d="M425.937,-59.9223C329.411,-38.889 302.616,-40.3697 209,-24 206.061,-23.4861 203.048,-22.9528 200.008,-22.4093"/>
<polygon fill="midnightblue" stroke="midnightblue" points="425.298,-63.3653 435.817,-62.0998 426.805,-56.5294 425.298,-63.3653"/>
</g>
<!-- Node5&#45;&gt;Node8 -->
<g id="edge14" class="edge"><title>Node5&#45;&gt;Node8</title>
<path fill="none" stroke="midnightblue" d="M513.839,-59.5927C551.878,-48.8269 606.433,-33.3868 642.985,-23.0421"/>
<polygon fill="midnightblue" stroke="midnightblue" points="512.73,-56.2689 504.061,-62.36 514.637,-63.0044 512.73,-56.2689"/>
</g>
<!-- Node9 -->
<g id="node17" class="node"><title>Node9</title>
<a xlink:href="monopoly_8cpp.html" target="_top" xlink:title="Contains the minimal implementation for the monopoly base class.">
<polygon fill="white" stroke="black" points="381.5,-1 381.5,-23 460.5,-23 460.5,-1 381.5,-1"/>
<text text-anchor="middle" x="421" y="-10" font-family="FreeSans" font-size="10.00">monopoly.cpp</text>
</a>
</g>
<!-- Node5&#45;&gt;Node9 -->
<g id="edge16" class="edge"><title>Node5&#45;&gt;Node9</title>
<path fill="none" stroke="midnightblue" d="M454.494,-53.0128C446.527,-43.2579 437.088,-31.6991 430.263,-23.3428"/>
<polygon fill="midnightblue" stroke="midnightblue" points="451.976,-55.4636 461.013,-60.9951 457.398,-51.0358 451.976,-55.4636"/>
</g>
<!-- Node10&#45;&gt;Node7 -->
<g id="edge20" class="edge"><title>Node10&#45;&gt;Node7</title>
<path fill="none" stroke="midnightblue" d="M157.833,-51.5216C154.534,-42.0985 150.747,-31.277 147.97,-23.3428"/>
<polygon fill="midnightblue" stroke="midnightblue" points="154.541,-52.7127 161.148,-60.9951 161.148,-50.4002 154.541,-52.7127"/>
</g>
<!-- Node11&#45;&gt;Node7 -->
<g id="edge24" class="edge"><title>Node11&#45;&gt;Node7</title>
<path fill="none" stroke="midnightblue" d="M302.264,-58.0964C265.648,-47.4316 215.795,-32.9112 181.892,-23.0366"/>
<polygon fill="midnightblue" stroke="midnightblue" points="301.637,-61.559 312.216,-60.9951 303.594,-54.8382 301.637,-61.559"/>
</g>
<!-- Node12 -->
<g id="node25" class="node"><title>Node12</title>
<a xlink:href="frameschedulerworkunits_8cpp.html" target="_top" xlink:title="The implementation of any workunits the framescheduler needs to work correctly.">
<polygon fill="white" stroke="black" points="218,-1 218,-23 364,-23 364,-1 218,-1"/>
<text text-anchor="middle" x="291" y="-10" font-family="FreeSans" font-size="10.00">frameschedulerworkunits.cpp</text>
</a>
</g>
<!-- Node11&#45;&gt;Node12 -->
<g id="edge26" class="edge"><title>Node11&#45;&gt;Node12</title>
<path fill="none" stroke="midnightblue" d="M331.908,-53.6017C322.197,-43.7262 310.537,-31.8679 302.154,-23.3428"/>
<polygon fill="midnightblue" stroke="midnightblue" points="329.671,-56.3188 339.178,-60.9951 334.663,-51.4108 329.671,-56.3188"/>
</g>
</g>
</svg>
        <g id="navigator" transform="translate(0 0)" fill="#404254">
                <rect fill="#f2f5e9" fill-opacity="0.5" stroke="#606060" stroke-width=".5" x="0" y="0" width="60" height="60"/>
                <use id="zoomplus" xlink:href="#zoomPlus" x="17" y="9" onmousedown="handleZoom(evt,'in')"/>
                <use id="zoomminus" xlink:href="#zoomMin" x="42" y="9" onmousedown="handleZoom(evt,'out')"/>
                <use id="reset" xlink:href="#resetDef" x="30" y="36" onmousedown="handleReset()"/>
                <g id="arrowUp" xlink:href="#dirArrow" transform="translate(30 24)" onmousedown="handlePan(0,-1)">
                  <use xlink:href="#rim" fill="#404040">
                        <set attributeName="fill" to="#808080" begin="arrowUp.mouseover" end="arrowUp.mouseout"/>
                  </use>
                  <path fill="none" stroke="white" stroke-width="1.5" d="M0,-3.0v7 M-2.5,-0.5L0,-3.0L2.5,-0.5"/>
                </g>
                <g id="arrowRight" xlink:href="#dirArrow" transform="rotate(90) translate(36 -43)" onmousedown="handlePan(1,0)">
                  <use xlink:href="#rim" fill="#404040">
                        <set attributeName="fill" to="#808080" begin="arrowRight.mouseover" end="arrowRight.mouseout"/>
                  </use>
                  <path fill="none" stroke="white" stroke-width="1.5" d="M0,-3.0v7 M-2.5,-0.5L0,-3.0L2.5,-0.5"/>
                </g>
                <g id="arrowDown" xlink:href="#dirArrow" transform="rotate(180) translate(-30 -48)" onmousedown="handlePan(0,1)">
                  <use xlink:href="#rim" fill="#404040">
                        <set attributeName="fill" to="#808080" begin="arrowDown.mouseover" end="arrowDown.mouseout"/>
                  </use>
                  <path fill="none" stroke="white" stroke-width="1.5" d="M0,-3.0v7 M-2.5,-0.5L0,-3.0L2.5,-0.5"/>
                </g>
                <g id="arrowLeft" xlink:href="#dirArrow" transform="rotate(270) translate(-36 17)" onmousedown="handlePan(-1,0)">
                  <use xlink:href="#rim" fill="#404040">
                        <set attributeName="fill" to="#808080" begin="arrowLeft.mouseover" end="arrowLeft.mouseout"/>
                  </use>
                  <path fill="none" stroke="white" stroke-width="1.5" d="M0,-3.0v7 M-2.5,-0.5L0,-3.0L2.5,-0.5"/>
                </g>
        </g>
</svg>
