<?xml version="1.0" encoding="UTF-8" standalone="no"?>
<!DOCTYPE svg PUBLIC "-//W3C//DTD SVG 1.1//EN"
 "http://www.w3.org/Graphics/SVG/1.1/DTD/svg11.dtd">
<!-- Generated by graphviz version 2.26.3 (20100126.1600)
 -->
<!-- Title: thread.h Pages: 1 -->
<svg width="306pt" height="262pt"
 viewBox="0.00 0.00 306.00 262.00" xmlns="http://www.w3.org/2000/svg" xmlns:xlink="http://www.w3.org/1999/xlink">
<g id="graph1" class="graph" transform="scale(1 1) rotate(0) translate(4 258)">
<title>thread.h</title>
<polygon fill="white" stroke="white" points="-4,5 -4,-258 303,-258 303,5 -4,5"/>
<!-- Node1 -->
<g id="node1" class="node"><title>Node1</title>
<polygon fill="#bfbfbf" stroke="black" points="153.5,-233 153.5,-253 204.5,-253 204.5,-233 153.5,-233"/>
<text text-anchor="middle" x="179" y="-240" font-family="FreeSans" font-size="10.00">thread.h</text>
</g>
<!-- Node2 -->
<g id="node3" class="node"><title>Node2</title>
<a xlink:href="systemcalls_8h.html" target="_top" xlink:title="This file defines a minimalistic cross&#45;platform thread that the scheduler uses to schedule tasks...">
<polygon fill="white" stroke="black" points="4,-117 4,-137 78,-137 78,-117 4,-117"/>
<text text-anchor="middle" x="41" y="-124" font-family="FreeSans" font-size="10.00">systemcalls.h</text>
</a>
</g>
<!-- Node1&#45;&gt;Node2 -->
<g id="edge2" class="edge"><title>Node1&#45;&gt;Node2</title>
<path fill="none" stroke="midnightblue" d="M162.77,-232.919C148.625,-223.871 127.803,-209.91 111,-196 91.4803,-179.841 71.0522,-159.211 57.3377,-144.734"/>
<polygon fill="midnightblue" stroke="midnightblue" points="59.8495,-142.296 50.4577,-137.393 54.7416,-147.083 59.8495,-142.296"/>
</g>
<!-- Node7 -->
<g id="node13" class="node"><title>Node7</title>
<a xlink:href="mutex_8h.html" target="_top" xlink:title="This file declares and defines a mutex that is a partial implementation.">
<polygon fill="white" stroke="black" points="120,-175 120,-195 170,-195 170,-175 120,-175"/>
<text text-anchor="middle" x="145" y="-182" font-family="FreeSans" font-size="10.00">mutex.h</text>
</a>
</g>
<!-- Node1&#45;&gt;Node7 -->
<g id="edge12" class="edge"><title>Node1&#45;&gt;Node7</title>
<path fill="none" stroke="midnightblue" d="M173.078,-232.897C168.454,-225.01 161.895,-213.821 156.279,-204.24"/>
<polygon fill="midnightblue" stroke="midnightblue" points="159.16,-202.235 151.083,-195.378 153.121,-205.775 159.16,-202.235"/>
</g>
<!-- Node9 -->
<g id="node19" class="node"><title>Node9</title>
<polygon fill="white" stroke="#bfbfbf" points="187.5,-175 187.5,-195 238.5,-195 238.5,-175 187.5,-175"/>
<text text-anchor="middle" x="213" y="-182" font-family="FreeSans" font-size="10.00">ostream</text>
</g>
<!-- Node1&#45;&gt;Node9 -->
<g id="edge20" class="edge"><title>Node1&#45;&gt;Node9</title>
<path fill="none" stroke="midnightblue" d="M184.922,-232.897C189.546,-225.01 196.105,-213.821 201.721,-204.24"/>
<polygon fill="midnightblue" stroke="midnightblue" points="204.879,-205.775 206.917,-195.378 198.84,-202.235 204.879,-205.775"/>
</g>
<!-- Node10 -->
<g id="node21" class="node"><title>Node10</title>
<polygon fill="white" stroke="#bfbfbf" points="255.5,-175 255.5,-195 298.5,-195 298.5,-175 255.5,-175"/>
<text text-anchor="middle" x="277" y="-182" font-family="FreeSans" font-size="10.00">vector</text>
</g>
<!-- Node1&#45;&gt;Node10 -->
<g id="edge22" class="edge"><title>Node1&#45;&gt;Node10</title>
<path fill="none" stroke="midnightblue" d="M196.07,-232.897C211.154,-223.97 233.389,-210.811 250.738,-200.543"/>
<polygon fill="midnightblue" stroke="midnightblue" points="252.973,-203.287 259.797,-195.182 249.408,-197.263 252.973,-203.287"/>
</g>
<!-- Node3 -->
<g id="node5" class="node"><title>Node3</title>
<a xlink:href="datatypes_8h.html" target="_top" xlink:title="This file declares a few typedefs to allow flexibility, in case a change is required/desired.">
<polygon fill="white" stroke="black" points="112.5,-59 112.5,-79 177.5,-79 177.5,-59 112.5,-59"/>
<text text-anchor="middle" x="145" y="-66" font-family="FreeSans" font-size="10.00">datatypes.h</text>
</a>
</g>
<!-- Node2&#45;&gt;Node3 -->
<g id="edge4" class="edge"><title>Node2&#45;&gt;Node3</title>
<path fill="none" stroke="midnightblue" d="M59.1154,-116.897C75.3455,-107.846 99.3759,-94.4442 117.894,-84.117"/>
<polygon fill="midnightblue" stroke="midnightblue" points="119.714,-87.1092 126.743,-79.1817 116.305,-80.9956 119.714,-87.1092"/>
</g>
<!-- Node4 -->
<g id="node7" class="node"><title>Node4</title>
<a xlink:href="crossplatformexport_8h.html" target="_top" xlink:title="This file determines what features are offered by the compiler that this library can take advantage o...">
<polygon fill="white" stroke="black" points="0,-1 0,-21 108,-21 108,-1 0,-1"/>
<text text-anchor="middle" x="54" y="-8" font-family="FreeSans" font-size="10.00">crossplatformexport.h</text>
</a>
</g>
<!-- Node3&#45;&gt;Node4 -->
<g id="edge6" class="edge"><title>Node3&#45;&gt;Node4</title>
<path fill="none" stroke="midnightblue" d="M129.149,-58.8972C115.272,-50.0524 94.8777,-37.0539 78.8352,-26.829"/>
<polygon fill="midnightblue" stroke="midnightblue" points="80.2887,-23.605 69.9747,-21.1817 76.5263,-29.5079 80.2887,-23.605"/>
</g>
<!-- Node5 -->
<g id="node9" class="node"><title>Node5</title>
<polygon fill="white" stroke="#bfbfbf" points="194,-1 194,-21 234,-21 234,-1 194,-1"/>
<text text-anchor="middle" x="214" y="-8" font-family="FreeSans" font-size="10.00">string</text>
</g>
<!-- Node3&#45;&gt;Node5 -->
<g id="edge8" class="edge"><title>Node3&#45;&gt;Node5</title>
<path fill="none" stroke="midnightblue" d="M157.019,-58.8972C167.183,-50.3532 181.959,-37.933 193.917,-27.8813"/>
<polygon fill="midnightblue" stroke="midnightblue" points="196.251,-30.4914 201.654,-21.3776 191.747,-25.133 196.251,-30.4914"/>
</g>
<!-- Node6 -->
<g id="node11" class="node"><title>Node6</title>
<polygon fill="white" stroke="#bfbfbf" points="125.5,-1 125.5,-21 172.5,-21 172.5,-1 125.5,-1"/>
<text text-anchor="middle" x="149" y="-8" font-family="FreeSans" font-size="10.00">stdint.h</text>
</g>
<!-- Node3&#45;&gt;Node6 -->
<g id="edge10" class="edge"><title>Node3&#45;&gt;Node6</title>
<path fill="none" stroke="midnightblue" d="M145.697,-58.8972C146.218,-51.339 146.948,-40.7476 147.59,-31.4458"/>
<polygon fill="midnightblue" stroke="midnightblue" points="151.088,-31.5947 148.284,-21.3776 144.104,-31.1131 151.088,-31.5947"/>
</g>
<!-- Node7&#45;&gt;Node5 -->
<g id="edge18" class="edge"><title>Node7&#45;&gt;Node5</title>
<path fill="none" stroke="midnightblue" d="M164.409,-174.839C177.706,-166.759 194.43,-154.14 203,-138 220.99,-104.116 219.66,-57.8886 216.926,-31.5706"/>
<polygon fill="midnightblue" stroke="midnightblue" points="220.359,-30.8042 215.678,-21.2994 213.41,-31.6486 220.359,-30.8042"/>
</g>
<!-- Node8 -->
<g id="node15" class="node"><title>Node8</title>
<a xlink:href="atomicoperations_8h.html" target="_top" xlink:title="Simple thread safe ways to check and change a specified variable atomically.">
<polygon fill="white" stroke="black" points="96,-117 96,-137 194,-137 194,-117 96,-117"/>
<text text-anchor="middle" x="145" y="-124" font-family="FreeSans" font-size="10.00">atomicoperations.h</text>
</a>
</g>
<!-- Node7&#45;&gt;Node8 -->
<g id="edge14" class="edge"><title>Node7&#45;&gt;Node8</title>
<path fill="none" stroke="midnightblue" d="M145,-174.897C145,-167.339 145,-156.748 145,-147.446"/>
<polygon fill="midnightblue" stroke="midnightblue" points="148.5,-147.378 145,-137.378 141.5,-147.378 148.5,-147.378"/>
</g>
<!-- Node8&#45;&gt;Node3 -->
<g id="edge16" class="edge"><title>Node8&#45;&gt;Node3</title>
<path fill="none" stroke="midnightblue" d="M145,-116.897C145,-109.339 145,-98.7476 145,-89.4458"/>
<polygon fill="midnightblue" stroke="midnightblue" points="148.5,-89.3776 145,-79.3776 141.5,-89.3776 148.5,-89.3776"/>
</g>
</g>
</svg>
