<?xml version="1.0" encoding="UTF-8" standalone="no"?>
<!DOCTYPE svg PUBLIC "-//W3C//DTD SVG 1.1//EN"
 "http://www.w3.org/Graphics/SVG/1.1/DTD/svg11.dtd">
<!-- Generated by graphviz version 2.26.3 (20100126.1600)
 -->
<!-- Title: thread.h Pages: 1 -->
<svg width="479pt" height="262pt"
 viewBox="0.00 0.00 479.00 262.00" xmlns="http://www.w3.org/2000/svg" xmlns:xlink="http://www.w3.org/1999/xlink">
<g id="graph1" class="graph" transform="scale(1 1) rotate(0) translate(4 258)">
<title>thread.h</title>
<polygon fill="white" stroke="white" points="-4,5 -4,-258 476,-258 476,5 -4,5"/>
<!-- Node1 -->
<g id="node1" class="node"><title>Node1</title>
<polygon fill="#bfbfbf" stroke="black" points="280.5,-233 280.5,-253 331.5,-253 331.5,-233 280.5,-233"/>
<text text-anchor="middle" x="306" y="-240" font-family="FreeSans" font-size="10.00">thread.h</text>
</g>
<!-- Node2 -->
<g id="node3" class="node"><title>Node2</title>
<a xlink:href="crossplatformincludes_8h.html" target="_top" xlink:title="This file determines what features are offered by the compiler that this library can take advantage o...">
<polygon fill="white" stroke="black" points="114.5,-117 114.5,-137 231.5,-137 231.5,-117 114.5,-117"/>
<text text-anchor="middle" x="173" y="-124" font-family="FreeSans" font-size="10.00">crossplatformincludes.h</text>
</a>
</g>
<!-- Node1&#45;&gt;Node2 -->
<g id="edge2" class="edge"><title>Node1&#45;&gt;Node2</title>
<path fill="none" stroke="midnightblue" d="M280.471,-239.15C254.526,-233.897 214.978,-221.976 192,-196 180.192,-182.651 175.651,-162.599 173.941,-147.546"/>
<polygon fill="midnightblue" stroke="midnightblue" points="177.4,-146.892 173.111,-137.204 170.422,-147.452 177.4,-146.892"/>
</g>
<!-- Node8 -->
<g id="node19" class="node"><title>Node8</title>
<a xlink:href="systemcalls_8h.html" target="_top" xlink:title="This file defines a minimalistic cross&#45;platform thread that the scheduler uses to schedule tasks...">
<polygon fill="white" stroke="black" points="269,-175 269,-195 343,-195 343,-175 269,-175"/>
<text text-anchor="middle" x="306" y="-182" font-family="FreeSans" font-size="10.00">systemcalls.h</text>
</a>
</g>
<!-- Node1&#45;&gt;Node8 -->
<g id="edge22" class="edge"><title>Node1&#45;&gt;Node8</title>
<path fill="none" stroke="midnightblue" d="M306,-232.897C306,-225.339 306,-214.748 306,-205.446"/>
<polygon fill="midnightblue" stroke="midnightblue" points="309.5,-205.378 306,-195.378 302.5,-205.378 309.5,-205.378"/>
</g>
<!-- Node12 -->
<g id="node28" class="node"><title>Node12</title>
<a xlink:href="mutex_8h.html" target="_top" xlink:title="This file declares and defines a mutex that is a partial implementation.">
<polygon fill="white" stroke="black" points="201,-175 201,-195 251,-195 251,-175 201,-175"/>
<text text-anchor="middle" x="226" y="-182" font-family="FreeSans" font-size="10.00">mutex.h</text>
</a>
</g>
<!-- Node1&#45;&gt;Node12 -->
<g id="edge32" class="edge"><title>Node1&#45;&gt;Node12</title>
<path fill="none" stroke="midnightblue" d="M292.065,-232.897C279.979,-224.135 262.271,-211.297 248.23,-201.116"/>
<polygon fill="midnightblue" stroke="midnightblue" points="250.194,-198.218 240.044,-195.182 246.085,-203.885 250.194,-198.218"/>
</g>
<!-- Node13 -->
<g id="node32" class="node"><title>Node13</title>
<polygon fill="white" stroke="#bfbfbf" points="360.5,-175 360.5,-195 411.5,-195 411.5,-175 360.5,-175"/>
<text text-anchor="middle" x="386" y="-182" font-family="FreeSans" font-size="10.00">ostream</text>
</g>
<!-- Node1&#45;&gt;Node13 -->
<g id="edge38" class="edge"><title>Node1&#45;&gt;Node13</title>
<path fill="none" stroke="midnightblue" d="M319.935,-232.897C332.021,-224.135 349.729,-211.297 363.77,-201.116"/>
<polygon fill="midnightblue" stroke="midnightblue" points="365.915,-203.885 371.956,-195.182 361.806,-198.218 365.915,-203.885"/>
</g>
<!-- Node14 -->
<g id="node34" class="node"><title>Node14</title>
<polygon fill="white" stroke="#bfbfbf" points="428.5,-175 428.5,-195 471.5,-195 471.5,-175 428.5,-175"/>
<text text-anchor="middle" x="450" y="-182" font-family="FreeSans" font-size="10.00">vector</text>
</g>
<!-- Node1&#45;&gt;Node14 -->
<g id="edge40" class="edge"><title>Node1&#45;&gt;Node14</title>
<path fill="none" stroke="midnightblue" d="M331.083,-232.897C355.519,-223.055 392.727,-208.068 419.004,-197.484"/>
<polygon fill="midnightblue" stroke="midnightblue" points="420.522,-200.646 428.49,-193.664 417.907,-194.153 420.522,-200.646"/>
</g>
<!-- Node3 -->
<g id="node5" class="node"><title>Node3</title>
<a xlink:href="crossplatformexport_8h.html" target="_top" xlink:title="This file determines what features are offered by the compiler that this library can take advantage o...">
<polygon fill="white" stroke="black" points="119,-59 119,-79 227,-79 227,-59 119,-59"/>
<text text-anchor="middle" x="173" y="-66" font-family="FreeSans" font-size="10.00">crossplatformexport.h</text>
</a>
</g>
<!-- Node2&#45;&gt;Node3 -->
<g id="edge4" class="edge"><title>Node2&#45;&gt;Node3</title>
<path fill="none" stroke="midnightblue" d="M173,-116.897C173,-109.339 173,-98.7476 173,-89.4458"/>
<polygon fill="midnightblue" stroke="midnightblue" points="176.5,-89.3776 173,-79.3776 169.5,-89.3776 176.5,-89.3776"/>
</g>
<!-- Node4 -->
<g id="node7" class="node"><title>Node4</title>
<polygon fill="white" stroke="#bfbfbf" points="142,-1 142,-21 198,-21 198,-1 142,-1"/>
<text text-anchor="middle" x="170" y="-8" font-family="FreeSans" font-size="10.00">pthread.h</text>
</g>
<!-- Node2&#45;&gt;Node4 -->
<g id="edge14" class="edge"><title>Node2&#45;&gt;Node4</title>
<path fill="none" stroke="midnightblue" d="M150.565,-116.977C136.09,-109.175 118.443,-96.8325 110,-80 99.522,-59.1106 120.936,-39.4287 141.028,-26.4735"/>
<polygon fill="midnightblue" stroke="midnightblue" points="143.018,-29.3602 149.753,-21.1819 139.388,-23.3749 143.018,-29.3602"/>
</g>
<!-- Node5 -->
<g id="node9" class="node"><title>Node5</title>
<polygon fill="white" stroke="#bfbfbf" points="72.5,-1 72.5,-21 121.5,-21 121.5,-1 72.5,-1"/>
<text text-anchor="middle" x="97" y="-8" font-family="FreeSans" font-size="10.00">signal.h</text>
</g>
<!-- Node2&#45;&gt;Node5 -->
<g id="edge16" class="edge"><title>Node2&#45;&gt;Node5</title>
<path fill="none" stroke="midnightblue" d="M148.377,-116.865C132.927,-109.144 114.083,-96.9379 104,-80 95.2636,-65.3247 94.0595,-45.7288 94.7228,-31.1704"/>
<polygon fill="midnightblue" stroke="midnightblue" points="98.2134,-31.4259 95.5002,-21.1844 91.2345,-30.8825 98.2134,-31.4259"/>
</g>
<!-- Node6 -->
<g id="node11" class="node"><title>Node6</title>
<polygon fill="white" stroke="#bfbfbf" points="0,-1 0,-21 50,-21 50,-1 0,-1"/>
<text text-anchor="middle" x="25" y="-8" font-family="FreeSans" font-size="10.00">sched.h</text>
</g>
<!-- Node2&#45;&gt;Node6 -->
<g id="edge18" class="edge"><title>Node2&#45;&gt;Node6</title>
<path fill="none" stroke="midnightblue" d="M152.678,-116.963C135.927,-108.254 111.933,-94.7525 93,-80 73.2596,-64.618 53.494,-43.8064 40.4015,-29.0736"/>
<polygon fill="midnightblue" stroke="midnightblue" points="42.729,-26.4179 33.5146,-21.1886 37.4568,-31.0227 42.729,-26.4179"/>
</g>
<!-- Node7 -->
<g id="node13" class="node"><title>Node7</title>
<polygon fill="white" stroke="#bfbfbf" points="223,-1 223,-21 273,-21 273,-1 223,-1"/>
<text text-anchor="middle" x="248" y="-8" font-family="FreeSans" font-size="10.00">unistd.h</text>
</g>
<!-- Node2&#45;&gt;Node7 -->
<g id="edge20" class="edge"><title>Node2&#45;&gt;Node7</title>
<path fill="none" stroke="midnightblue" d="M193.619,-116.992C207.838,-108.986 225.926,-96.3929 236,-80 244.941,-65.4499 247.683,-46.0957 248.337,-31.5887"/>
<polygon fill="midnightblue" stroke="midnightblue" points="251.843,-31.2289 248.493,-21.1778 244.844,-31.1245 251.843,-31.2289"/>
</g>
<!-- Node3&#45;&gt;Node4 -->
<g id="edge6" class="edge"><title>Node3&#45;&gt;Node4</title>
<path fill="none" stroke="midnightblue" d="M172.477,-58.8972C172.087,-51.339 171.539,-40.7476 171.058,-31.4458"/>
<polygon fill="midnightblue" stroke="midnightblue" points="174.549,-31.1834 170.537,-21.3776 167.558,-31.5451 174.549,-31.1834"/>
</g>
<!-- Node3&#45;&gt;Node5 -->
<g id="edge8" class="edge"><title>Node3&#45;&gt;Node5</title>
<path fill="none" stroke="midnightblue" d="M159.762,-58.8972C148.389,-50.2178 131.774,-37.5384 118.497,-27.4053"/>
<polygon fill="midnightblue" stroke="midnightblue" points="120.414,-24.4661 110.341,-21.1817 116.168,-30.0308 120.414,-24.4661"/>
</g>
<!-- Node3&#45;&gt;Node6 -->
<g id="edge10" class="edge"><title>Node3&#45;&gt;Node6</title>
<path fill="none" stroke="midnightblue" d="M147.22,-58.8972C123.027,-49.416 86.6541,-35.1617 59.8756,-24.6674"/>
<polygon fill="midnightblue" stroke="midnightblue" points="61.0719,-21.3772 50.4842,-20.9871 58.5177,-27.8946 61.0719,-21.3772"/>
</g>
<!-- Node3&#45;&gt;Node7 -->
<g id="edge12" class="edge"><title>Node3&#45;&gt;Node7</title>
<path fill="none" stroke="midnightblue" d="M186.064,-58.8972C197.287,-50.2178 213.683,-37.5384 226.786,-27.4053"/>
<polygon fill="midnightblue" stroke="midnightblue" points="229.065,-30.0679 234.834,-21.1817 224.782,-24.5305 229.065,-30.0679"/>
</g>
<!-- Node9 -->
<g id="node21" class="node"><title>Node9</title>
<a xlink:href="datatypes_8h.html" target="_top" xlink:title="This file declares a few typedefs to allow flexibility, in case a change is required/desired.">
<polygon fill="white" stroke="black" points="273.5,-117 273.5,-137 338.5,-137 338.5,-117 273.5,-117"/>
<text text-anchor="middle" x="306" y="-124" font-family="FreeSans" font-size="10.00">datatypes.h</text>
</a>
</g>
<!-- Node8&#45;&gt;Node9 -->
<g id="edge24" class="edge"><title>Node8&#45;&gt;Node9</title>
<path fill="none" stroke="midnightblue" d="M306,-174.897C306,-167.339 306,-156.748 306,-147.446"/>
<polygon fill="midnightblue" stroke="midnightblue" points="309.5,-147.378 306,-137.378 302.5,-147.378 309.5,-147.378"/>
</g>
<!-- Node9&#45;&gt;Node3 -->
<g id="edge26" class="edge"><title>Node9&#45;&gt;Node3</title>
<path fill="none" stroke="midnightblue" d="M282.833,-116.897C261.509,-107.598 229.655,-93.7066 205.735,-83.2752"/>
<polygon fill="midnightblue" stroke="midnightblue" points="206.913,-79.9708 196.348,-79.1817 204.115,-86.3873 206.913,-79.9708"/>
</g>
<!-- Node10 -->
<g id="node24" class="node"><title>Node10</title>
<polygon fill="white" stroke="#bfbfbf" points="347,-59 347,-79 387,-79 387,-59 347,-59"/>
<text text-anchor="middle" x="367" y="-66" font-family="FreeSans" font-size="10.00">string</text>
</g>
<!-- Node9&#45;&gt;Node10 -->
<g id="edge28" class="edge"><title>Node9&#45;&gt;Node10</title>
<path fill="none" stroke="midnightblue" d="M316.625,-116.897C325.439,-108.517 338.173,-96.4093 348.633,-86.4638"/>
<polygon fill="midnightblue" stroke="midnightblue" points="351.25,-88.8047 356.086,-79.3776 346.427,-83.7318 351.25,-88.8047"/>
</g>
<!-- Node11 -->
<g id="node26" class="node"><title>Node11</title>
<polygon fill="white" stroke="#bfbfbf" points="282.5,-59 282.5,-79 329.5,-79 329.5,-59 282.5,-59"/>
<text text-anchor="middle" x="306" y="-66" font-family="FreeSans" font-size="10.00">stdint.h</text>
</g>
<!-- Node9&#45;&gt;Node11 -->
<g id="edge30" class="edge"><title>Node9&#45;&gt;Node11</title>
<path fill="none" stroke="midnightblue" d="M306,-116.897C306,-109.339 306,-98.7476 306,-89.4458"/>
<polygon fill="midnightblue" stroke="midnightblue" points="309.5,-89.3776 306,-79.3776 302.5,-89.3776 309.5,-89.3776"/>
</g>
<!-- Node12&#45;&gt;Node2 -->
<g id="edge34" class="edge"><title>Node12&#45;&gt;Node2</title>
<path fill="none" stroke="midnightblue" d="M216.768,-174.897C209.261,-166.682 198.479,-154.883 189.495,-145.051"/>
<polygon fill="midnightblue" stroke="midnightblue" points="191.812,-142.399 182.483,-137.378 186.645,-147.121 191.812,-142.399"/>
</g>
<!-- Node12&#45;&gt;Node10 -->
<g id="edge36" class="edge"><title>Node12&#45;&gt;Node10</title>
<path fill="none" stroke="midnightblue" d="M251.25,-176.533C284.689,-165.119 340.248,-145.377 347,-138 359.079,-124.804 363.901,-104.733 365.806,-89.635"/>
<polygon fill="midnightblue" stroke="midnightblue" points="369.33,-89.5344 366.766,-79.2545 362.36,-88.8896 369.33,-89.5344"/>
</g>
</g>
</svg>
