<?xml version="1.0" encoding="UTF-8" standalone="no"?>
<!DOCTYPE svg PUBLIC "-//W3C//DTD SVG 1.1//EN"
 "http://www.w3.org/Graphics/SVG/1.1/DTD/svg11.dtd">
<!-- Generated by graphviz version 2.26.3 (20100126.1600)
 -->
<!-- Title: thread.cpp Pages: 1 -->
<svg width="522pt" height="320pt"
 viewBox="0.00 0.00 521.88 320.00" xmlns="http://www.w3.org/2000/svg" xmlns:xlink="http://www.w3.org/1999/xlink">
<g id="graph1" class="graph" transform="scale(1 1) rotate(0) translate(4 316)">
<title>thread.cpp</title>
<polygon fill="white" stroke="white" points="-4,5 -4,-316 518.88,-316 518.88,5 -4,5"/>
<!-- Node1 -->
<g id="node1" class="node"><title>Node1</title>
<polygon fill="#bfbfbf" stroke="black" points="329.88,-291 329.88,-311 391.88,-311 391.88,-291 329.88,-291"/>
<text text-anchor="middle" x="360.88" y="-298" font-family="FreeSans" font-size="10.00">thread.cpp</text>
</g>
<!-- Node2 -->
<g id="node3" class="node"><title>Node2</title>
<a xlink:href="crossplatformincludes_8h.html" target="_top" xlink:title="This file determines what features are offered by the compiler that this library can take advantage o...">
<polygon fill="white" stroke="black" points="95.3798,-233 95.3798,-253 212.38,-253 212.38,-233 95.3798,-233"/>
<text text-anchor="middle" x="153.88" y="-240" font-family="FreeSans" font-size="10.00">crossplatformincludes.h</text>
</a>
</g>
<!-- Node1&#45;&gt;Node2 -->
<g id="edge2" class="edge"><title>Node1&#45;&gt;Node2</title>
<path fill="none" stroke="midnightblue" d="M329.441,-292.191C294.825,-282.492 238.86,-266.811 199.439,-255.765"/>
<polygon fill="midnightblue" stroke="midnightblue" points="200.37,-252.391 189.796,-253.063 198.481,-259.132 200.37,-252.391"/>
</g>
<!-- Node8 -->
<g id="node15" class="node"><title>Node8</title>
<a xlink:href="thread_8h.html" target="_top" xlink:title="This file defines a minimalistic cross&#45;platform thread that the scheduler uses to schedule tasks...">
<polygon fill="white" stroke="black" points="335.38,-233 335.38,-253 386.38,-253 386.38,-233 335.38,-233"/>
<text text-anchor="middle" x="360.88" y="-240" font-family="FreeSans" font-size="10.00">thread.h</text>
</a>
</g>
<!-- Node1&#45;&gt;Node8 -->
<g id="edge14" class="edge"><title>Node1&#45;&gt;Node8</title>
<path fill="none" stroke="midnightblue" d="M360.88,-290.897C360.88,-283.339 360.88,-272.748 360.88,-263.446"/>
<polygon fill="midnightblue" stroke="midnightblue" points="364.38,-263.378 360.88,-253.378 357.38,-263.378 364.38,-263.378"/>
</g>
<!-- Node17 -->
<g id="node36" class="node"><title>Node17</title>
<polygon fill="white" stroke="#bfbfbf" points="403.38,-233 403.38,-253 438.38,-253 438.38,-233 403.38,-233"/>
<text text-anchor="middle" x="420.88" y="-240" font-family="FreeSans" font-size="10.00">map</text>
</g>
<!-- Node1&#45;&gt;Node17 -->
<g id="edge38" class="edge"><title>Node1&#45;&gt;Node17</title>
<path fill="none" stroke="midnightblue" d="M371.331,-290.897C380,-282.517 392.525,-270.409 402.814,-260.464"/>
<polygon fill="midnightblue" stroke="midnightblue" points="405.387,-262.844 410.144,-253.378 400.522,-257.811 405.387,-262.844"/>
</g>
<!-- Node3 -->
<g id="node5" class="node"><title>Node3</title>
<a xlink:href="crossplatformexport_8h.html" target="_top" xlink:title="This file determines what features are offered by the compiler that this library can take advantage o...">
<polygon fill="white" stroke="black" points="30.8798,-1 30.8798,-21 138.88,-21 138.88,-1 30.8798,-1"/>
<text text-anchor="middle" x="84.8798" y="-8" font-family="FreeSans" font-size="10.00">crossplatformexport.h</text>
</a>
</g>
<!-- Node2&#45;&gt;Node3 -->
<g id="edge4" class="edge"><title>Node2&#45;&gt;Node3</title>
<path fill="none" stroke="midnightblue" d="M104.623,-232.975C68.5098,-224.509 23.9313,-211.333 12.8798,-196 -26.2983,-141.643 35.5544,-63.151 67.5817,-28.5311"/>
<polygon fill="midnightblue" stroke="midnightblue" points="70.3007,-30.7503 74.642,-21.0857 65.2213,-25.9337 70.3007,-30.7503"/>
</g>
<!-- Node4 -->
<g id="node7" class="node"><title>Node4</title>
<polygon fill="white" stroke="#bfbfbf" points="21.8798,-175 21.8798,-195 77.8798,-195 77.8798,-175 21.8798,-175"/>
<text text-anchor="middle" x="49.8798" y="-182" font-family="FreeSans" font-size="10.00">pthread.h</text>
</g>
<!-- Node2&#45;&gt;Node4 -->
<g id="edge6" class="edge"><title>Node2&#45;&gt;Node4</title>
<path fill="none" stroke="midnightblue" d="M135.764,-232.897C119.534,-223.846 95.5039,-210.444 76.9861,-200.117"/>
<polygon fill="midnightblue" stroke="midnightblue" points="78.575,-196.996 68.1366,-195.182 75.1654,-203.109 78.575,-196.996"/>
</g>
<!-- Node5 -->
<g id="node9" class="node"><title>Node5</title>
<polygon fill="white" stroke="#bfbfbf" points="95.3798,-175 95.3798,-195 144.38,-195 144.38,-175 95.3798,-175"/>
<text text-anchor="middle" x="119.88" y="-182" font-family="FreeSans" font-size="10.00">signal.h</text>
</g>
<!-- Node2&#45;&gt;Node5 -->
<g id="edge8" class="edge"><title>Node2&#45;&gt;Node5</title>
<path fill="none" stroke="midnightblue" d="M147.957,-232.897C143.334,-225.01 136.775,-213.821 131.158,-204.24"/>
<polygon fill="midnightblue" stroke="midnightblue" points="134.04,-202.235 125.963,-195.378 128.001,-205.775 134.04,-202.235"/>
</g>
<!-- Node6 -->
<g id="node11" class="node"><title>Node6</title>
<polygon fill="white" stroke="#bfbfbf" points="161.88,-175 161.88,-195 211.88,-195 211.88,-175 161.88,-175"/>
<text text-anchor="middle" x="186.88" y="-182" font-family="FreeSans" font-size="10.00">sched.h</text>
</g>
<!-- Node2&#45;&gt;Node6 -->
<g id="edge10" class="edge"><title>Node2&#45;&gt;Node6</title>
<path fill="none" stroke="midnightblue" d="M159.628,-232.897C164.115,-225.01 170.482,-213.821 175.933,-204.24"/>
<polygon fill="midnightblue" stroke="midnightblue" points="179.072,-205.8 180.975,-195.378 172.988,-202.338 179.072,-205.8"/>
</g>
<!-- Node7 -->
<g id="node13" class="node"><title>Node7</title>
<polygon fill="white" stroke="#bfbfbf" points="229.88,-175 229.88,-195 279.88,-195 279.88,-175 229.88,-175"/>
<text text-anchor="middle" x="254.88" y="-182" font-family="FreeSans" font-size="10.00">unistd.h</text>
</g>
<!-- Node2&#45;&gt;Node7 -->
<g id="edge12" class="edge"><title>Node2&#45;&gt;Node7</title>
<path fill="none" stroke="midnightblue" d="M171.473,-232.897C187.163,-223.887 210.359,-210.567 228.309,-200.259"/>
<polygon fill="midnightblue" stroke="midnightblue" points="230.221,-203.197 237.15,-195.182 226.735,-197.126 230.221,-203.197"/>
</g>
<!-- Node9 -->
<g id="node17" class="node"><title>Node9</title>
<a xlink:href="systemcalls_8h.html" target="_top" xlink:title="This file defines a minimalistic cross&#45;platform thread that the scheduler uses to schedule tasks...">
<polygon fill="white" stroke="black" points="180.88,-117 180.88,-137 254.88,-137 254.88,-117 180.88,-117"/>
<text text-anchor="middle" x="217.88" y="-124" font-family="FreeSans" font-size="10.00">systemcalls.h</text>
</a>
</g>
<!-- Node8&#45;&gt;Node9 -->
<g id="edge16" class="edge"><title>Node8&#45;&gt;Node9</title>
<path fill="none" stroke="midnightblue" d="M351.153,-232.571C337.786,-218.506 312.68,-193.028 288.88,-174 274.483,-162.49 257.268,-151.043 243.394,-142.327"/>
<polygon fill="midnightblue" stroke="midnightblue" points="245.168,-139.309 234.823,-137.021 241.483,-145.261 245.168,-139.309"/>
</g>
<!-- Node13 -->
<g id="node26" class="node"><title>Node13</title>
<a xlink:href="mutex_8h.html" target="_top" xlink:title="This file declares and defines a mutex that is a partial implementation.">
<polygon fill="white" stroke="black" points="335.88,-175 335.88,-195 385.88,-195 385.88,-175 335.88,-175"/>
<text text-anchor="middle" x="360.88" y="-182" font-family="FreeSans" font-size="10.00">mutex.h</text>
</a>
</g>
<!-- Node8&#45;&gt;Node13 -->
<g id="edge26" class="edge"><title>Node8&#45;&gt;Node13</title>
<path fill="none" stroke="midnightblue" d="M360.88,-232.897C360.88,-225.339 360.88,-214.748 360.88,-205.446"/>
<polygon fill="midnightblue" stroke="midnightblue" points="364.38,-205.378 360.88,-195.378 357.38,-205.378 364.38,-205.378"/>
</g>
<!-- Node15 -->
<g id="node32" class="node"><title>Node15</title>
<polygon fill="white" stroke="#bfbfbf" points="403.38,-175 403.38,-195 454.38,-195 454.38,-175 403.38,-175"/>
<text text-anchor="middle" x="428.88" y="-182" font-family="FreeSans" font-size="10.00">ostream</text>
</g>
<!-- Node8&#45;&gt;Node15 -->
<g id="edge34" class="edge"><title>Node8&#45;&gt;Node15</title>
<path fill="none" stroke="midnightblue" d="M372.724,-232.897C382.742,-224.353 397.303,-211.933 409.088,-201.881"/>
<polygon fill="midnightblue" stroke="midnightblue" points="411.376,-204.53 416.713,-195.378 406.833,-199.204 411.376,-204.53"/>
</g>
<!-- Node16 -->
<g id="node34" class="node"><title>Node16</title>
<polygon fill="white" stroke="#bfbfbf" points="471.38,-175 471.38,-195 514.38,-195 514.38,-175 471.38,-175"/>
<text text-anchor="middle" x="492.88" y="-182" font-family="FreeSans" font-size="10.00">vector</text>
</g>
<!-- Node8&#45;&gt;Node16 -->
<g id="edge36" class="edge"><title>Node8&#45;&gt;Node16</title>
<path fill="none" stroke="midnightblue" d="M383.872,-232.897C405.426,-223.427 437.818,-209.194 461.694,-198.703"/>
<polygon fill="midnightblue" stroke="midnightblue" points="463.28,-201.829 471.027,-194.602 460.464,-195.42 463.28,-201.829"/>
</g>
<!-- Node10 -->
<g id="node19" class="node"><title>Node10</title>
<a xlink:href="datatypes_8h.html" target="_top" xlink:title="This file declares a few typedefs to allow flexibility, in case a change is required/desired.">
<polygon fill="white" stroke="black" points="237.38,-59 237.38,-79 302.38,-79 302.38,-59 237.38,-59"/>
<text text-anchor="middle" x="269.88" y="-66" font-family="FreeSans" font-size="10.00">datatypes.h</text>
</a>
</g>
<!-- Node9&#45;&gt;Node10 -->
<g id="edge18" class="edge"><title>Node9&#45;&gt;Node10</title>
<path fill="none" stroke="midnightblue" d="M226.937,-116.897C234.303,-108.682 244.882,-96.8827 253.696,-87.0513"/>
<polygon fill="midnightblue" stroke="midnightblue" points="256.506,-89.1597 260.576,-79.3776 251.294,-84.4869 256.506,-89.1597"/>
</g>
<!-- Node10&#45;&gt;Node3 -->
<g id="edge20" class="edge"><title>Node10&#45;&gt;Node3</title>
<path fill="none" stroke="midnightblue" d="M237.655,-58.8972C206.845,-49.2376 160.231,-34.6237 126.598,-24.0792"/>
<polygon fill="midnightblue" stroke="midnightblue" points="127.634,-20.7361 117.045,-21.0842 125.54,-27.4155 127.634,-20.7361"/>
</g>
<!-- Node11 -->
<g id="node22" class="node"><title>Node11</title>
<polygon fill="white" stroke="#bfbfbf" points="344.88,-1 344.88,-21 384.88,-21 384.88,-1 344.88,-1"/>
<text text-anchor="middle" x="364.88" y="-8" font-family="FreeSans" font-size="10.00">string</text>
</g>
<!-- Node10&#45;&gt;Node11 -->
<g id="edge22" class="edge"><title>Node10&#45;&gt;Node11</title>
<path fill="none" stroke="midnightblue" d="M286.428,-58.8972C301.05,-49.9698 322.604,-36.8106 339.421,-26.5431"/>
<polygon fill="midnightblue" stroke="midnightblue" points="341.492,-29.3798 348.203,-21.1817 337.844,-23.4053 341.492,-29.3798"/>
</g>
<!-- Node12 -->
<g id="node24" class="node"><title>Node12</title>
<polygon fill="white" stroke="#bfbfbf" points="246.38,-1 246.38,-21 293.38,-21 293.38,-1 246.38,-1"/>
<text text-anchor="middle" x="269.88" y="-8" font-family="FreeSans" font-size="10.00">stdint.h</text>
</g>
<!-- Node10&#45;&gt;Node12 -->
<g id="edge24" class="edge"><title>Node10&#45;&gt;Node12</title>
<path fill="none" stroke="midnightblue" d="M269.88,-58.8972C269.88,-51.339 269.88,-40.7476 269.88,-31.4458"/>
<polygon fill="midnightblue" stroke="midnightblue" points="273.38,-31.3776 269.88,-21.3776 266.38,-31.3776 273.38,-31.3776"/>
</g>
<!-- Node13&#45;&gt;Node11 -->
<g id="edge32" class="edge"><title>Node13&#45;&gt;Node11</title>
<path fill="none" stroke="midnightblue" d="M366.293,-174.898C370.942,-165.61 377.292,-151.305 379.88,-138 387.153,-100.601 377.935,-56.2746 371.067,-31.1132"/>
<polygon fill="midnightblue" stroke="midnightblue" points="374.367,-29.9252 368.233,-21.2865 367.641,-31.8647 374.367,-29.9252"/>
</g>
<!-- Node14 -->
<g id="node28" class="node"><title>Node14</title>
<a xlink:href="atomicoperations_8h.html" target="_top" xlink:title="Simple thread safe ways to check and change a specified variable atomically.">
<polygon fill="white" stroke="black" points="272.88,-117 272.88,-137 370.88,-137 370.88,-117 272.88,-117"/>
<text text-anchor="middle" x="321.88" y="-124" font-family="FreeSans" font-size="10.00">atomicoperations.h</text>
</a>
</g>
<!-- Node13&#45;&gt;Node14 -->
<g id="edge28" class="edge"><title>Node13&#45;&gt;Node14</title>
<path fill="none" stroke="midnightblue" d="M354.086,-174.897C348.728,-166.928 341.102,-155.587 334.616,-145.941"/>
<polygon fill="midnightblue" stroke="midnightblue" points="337.342,-143.723 328.858,-137.378 331.533,-147.629 337.342,-143.723"/>
</g>
<!-- Node14&#45;&gt;Node10 -->
<g id="edge30" class="edge"><title>Node14&#45;&gt;Node10</title>
<path fill="none" stroke="midnightblue" d="M312.822,-116.897C305.457,-108.682 294.878,-96.8827 286.064,-87.0513"/>
<polygon fill="midnightblue" stroke="midnightblue" points="288.465,-84.4869 279.184,-79.3776 283.253,-89.1597 288.465,-84.4869"/>
</g>
</g>
</svg>
