<?xml version="1.0" encoding="UTF-8" standalone="no"?>
<!DOCTYPE svg PUBLIC "-//W3C//DTD SVG 1.1//EN"
 "http://www.w3.org/Graphics/SVG/1.1/DTD/svg11.dtd">
<!-- Generated by graphviz version 2.26.3 (20100126.1600)
 -->
<!-- Title: thread.h Pages: 1 -->
<svg width="908pt" height="320pt"
 viewBox="0.00 0.00 908.00 320.00" xmlns="http://www.w3.org/2000/svg" xmlns:xlink="http://www.w3.org/1999/xlink">
<g id="graph1" class="graph" transform="scale(1 1) rotate(0) translate(4 316)">
<title>thread.h</title>
<polygon fill="white" stroke="white" points="-4,5 -4,-316 905,-316 905,5 -4,5"/>
<!-- Node1 -->
<g id="node1" class="node"><title>Node1</title>
<polygon fill="#bfbfbf" stroke="black" points="269.5,-291 269.5,-311 320.5,-311 320.5,-291 269.5,-291"/>
<text text-anchor="middle" x="295" y="-298" font-family="FreeSans" font-size="10.00">thread.h</text>
</g>
<!-- Node2 -->
<g id="node3" class="node"><title>Node2</title>
<a xlink:href="framescheduler_8h.html" target="_top" xlink:title="This file has the Declarations for the main FrameScheduler class. ">
<polygon fill="white" stroke="black" points="214,-233 214,-253 304,-253 304,-233 214,-233"/>
<text text-anchor="middle" x="259" y="-240" font-family="FreeSans" font-size="10.00">framescheduler.h</text>
</a>
</g>
<!-- Node1&#45;&gt;Node2 -->
<g id="edge2" class="edge"><title>Node1&#45;&gt;Node2</title>
<path fill="none" stroke="midnightblue" d="M283.448,-282.389C277.486,-272.782 270.435,-261.423 265.441,-253.378"/>
<polygon fill="midnightblue" stroke="midnightblue" points="280.482,-284.247 288.729,-290.897 286.429,-280.555 280.482,-284.247"/>
</g>
<!-- Node3 -->
<g id="node5" class="node"><title>Node3</title>
<a xlink:href="workunit_8h.html" target="_top" xlink:title="This file has the definition of the workunit. ">
<polygon fill="white" stroke="black" points="345,-175 345,-195 405,-195 405,-175 345,-175"/>
<text text-anchor="middle" x="375" y="-182" font-family="FreeSans" font-size="10.00">workunit.h</text>
</a>
</g>
<!-- Node1&#45;&gt;Node3 -->
<g id="edge44" class="edge"><title>Node1&#45;&gt;Node3</title>
<path fill="none" stroke="midnightblue" d="M307.997,-282.154C325.124,-257.321 354.639,-214.524 368.031,-195.106"/>
<polygon fill="midnightblue" stroke="midnightblue" points="304.896,-280.487 302.099,-290.706 310.658,-284.461 304.896,-280.487"/>
</g>
<!-- Node7 -->
<g id="node13" class="node"><title>Node7</title>
<a xlink:href="dagframescheduler_8h.html" target="_top" xlink:title="This is the file that code using this library should include. It includes all the required components...">
<polygon fill="white" stroke="black" points="431,-1 431,-21 537,-21 537,-1 431,-1"/>
<text text-anchor="middle" x="484" y="-8" font-family="FreeSans" font-size="10.00">dagframescheduler.h</text>
</a>
</g>
<!-- Node1&#45;&gt;Node7 -->
<g id="edge46" class="edge"><title>Node1&#45;&gt;Node7</title>
<path fill="none" stroke="midnightblue" d="M259.414,-294.786C180.952,-280.076 0,-240.17 0,-185 0,-185 0,-185 0,-127 0,-91.328 10.971,-77.255 41,-58 73.187,-37.3612 319.984,-20.563 430.629,-13.9871"/>
<polygon fill="midnightblue" stroke="midnightblue" points="258.868,-298.245 269.337,-296.615 260.136,-291.361 258.868,-298.245"/>
</g>
<!-- Node16 -->
<g id="node40" class="node"><title>Node16</title>
<a xlink:href="thread_8cpp.html" target="_top" xlink:title="This file implements a minimalistic cross&#45;platform thread that the scheduler uses to schedule tasks...">
<polygon fill="white" stroke="black" points="360,-233 360,-253 422,-253 422,-233 360,-233"/>
<text text-anchor="middle" x="391" y="-240" font-family="FreeSans" font-size="10.00">thread.cpp</text>
</a>
</g>
<!-- Node1&#45;&gt;Node16 -->
<g id="edge48" class="edge"><title>Node1&#45;&gt;Node16</title>
<path fill="none" stroke="midnightblue" d="M320.577,-285.547C337.543,-275.297 359.33,-262.134 374.148,-253.182"/>
<polygon fill="midnightblue" stroke="midnightblue" points="318.471,-282.73 311.722,-290.897 322.091,-288.722 318.471,-282.73"/>
</g>
<!-- Node2&#45;&gt;Node3 -->
<g id="edge4" class="edge"><title>Node2&#45;&gt;Node3</title>
<path fill="none" stroke="midnightblue" d="M288.211,-228.395C308.937,-218.031 336.235,-204.383 354.637,-195.182"/>
<polygon fill="midnightblue" stroke="midnightblue" points="286.585,-225.294 279.206,-232.897 289.715,-231.555 286.585,-225.294"/>
</g>
<!-- Node2&#45;&gt;Node7 -->
<g id="edge38" class="edge"><title>Node2&#45;&gt;Node7</title>
<path fill="none" stroke="midnightblue" d="M208.479,-229.852C186.26,-222.391 160.779,-211.4 141,-196 84.3451,-151.889 9.08607,-111.477 57,-58 81.5415,-30.609 321.767,-17.5249 430.734,-12.9621"/>
<polygon fill="midnightblue" stroke="midnightblue" points="207.508,-233.216 218.099,-232.935 209.645,-226.55 207.508,-233.216"/>
</g>
<!-- Node10 -->
<g id="node21" class="node"><title>Node10</title>
<a xlink:href="framescheduler_8cpp.html" target="_top" xlink:title="This is the core object implementation for this algorithm. ">
<polygon fill="white" stroke="black" points="261.5,-59 261.5,-79 362.5,-79 362.5,-59 261.5,-59"/>
<text text-anchor="middle" x="312" y="-66" font-family="FreeSans" font-size="10.00">framescheduler.cpp</text>
</a>
</g>
<!-- Node2&#45;&gt;Node10 -->
<g id="edge42" class="edge"><title>Node2&#45;&gt;Node10</title>
<path fill="none" stroke="midnightblue" d="M275.245,-224.881C281.783,-216.622 288.765,-206.381 293,-196 309.675,-155.129 311.922,-101.508 312.084,-79.3092"/>
<polygon fill="midnightblue" stroke="midnightblue" points="272.445,-222.773 268.725,-232.693 277.82,-227.258 272.445,-222.773"/>
</g>
<!-- Node15 -->
<g id="node35" class="node"><title>Node15</title>
<a xlink:href="doublebufferedresource_8cpp.html" target="_top" xlink:title="This file defines the template double buffered resources that can be attached to a thread...">
<polygon fill="white" stroke="black" points="150,-175 150,-195 284,-195 284,-175 150,-175"/>
<text text-anchor="middle" x="217" y="-182" font-family="FreeSans" font-size="10.00">doublebufferedresource.cpp</text>
</a>
</g>
<!-- Node2&#45;&gt;Node15 -->
<g id="edge40" class="edge"><title>Node2&#45;&gt;Node15</title>
<path fill="none" stroke="midnightblue" d="M245.738,-224.686C238.736,-215.017 230.401,-203.506 224.515,-195.378"/>
<polygon fill="midnightblue" stroke="midnightblue" points="242.984,-226.851 251.684,-232.897 248.654,-222.745 242.984,-226.851"/>
</g>
<!-- Node4 -->
<g id="node7" class="node"><title>Node4</title>
<a xlink:href="asynchronousworkunit_8h.html" target="_top" xlink:title="Contains an interface for a kind of WorkUnit that loads or does other work even when the frame schedu...">
<polygon fill="white" stroke="black" points="600.5,-117 600.5,-137 719.5,-137 719.5,-117 600.5,-117"/>
<text text-anchor="middle" x="660" y="-124" font-family="FreeSans" font-size="10.00">asynchronousworkunit.h</text>
</a>
</g>
<!-- Node3&#45;&gt;Node4 -->
<g id="edge6" class="edge"><title>Node3&#45;&gt;Node4</title>
<path fill="none" stroke="midnightblue" d="M415.297,-176.799C466.696,-166.339 555.535,-148.26 610.854,-137.002"/>
<polygon fill="midnightblue" stroke="midnightblue" points="414.331,-173.424 405.23,-178.848 415.727,-180.283 414.331,-173.424"/>
</g>
<!-- Node3&#45;&gt;Node7 -->
<g id="edge34" class="edge"><title>Node3&#45;&gt;Node7</title>
<path fill="none" stroke="midnightblue" d="M415.023,-175.371C447.964,-166.54 490.834,-152.643 501,-138 526.373,-101.454 501.725,-44.4965 489.727,-21.3264"/>
<polygon fill="midnightblue" stroke="midnightblue" points="413.957,-172.032 405.166,-177.944 415.726,-178.805 413.957,-172.032"/>
</g>
<!-- Node9 -->
<g id="node18" class="node"><title>Node9</title>
<a xlink:href="frameschedulerworkunits_8h.html" target="_top" xlink:title="This defines a number of workunits that are required for doing some tasks that the Framescheduler req...">
<polygon fill="white" stroke="black" points="153.5,-117 153.5,-137 284.5,-137 284.5,-117 153.5,-117"/>
<text text-anchor="middle" x="219" y="-124" font-family="FreeSans" font-size="10.00">frameschedulerworkunits.h</text>
</a>
</g>
<!-- Node3&#45;&gt;Node9 -->
<g id="edge18" class="edge"><title>Node3&#45;&gt;Node9</title>
<path fill="none" stroke="midnightblue" d="M338.296,-171.354C310.046,-160.85 271.641,-146.572 246.123,-137.084"/>
<polygon fill="midnightblue" stroke="midnightblue" points="337.234,-174.693 347.827,-174.897 339.673,-168.132 337.234,-174.693"/>
</g>
<!-- Node12 -->
<g id="node25" class="node"><title>Node12</title>
<a xlink:href="monopoly_8h.html" target="_top" xlink:title="Contains an interface for a kind of WorkUnit that consumes time on multiple thread. ">
<polygon fill="white" stroke="black" points="427.5,-117 427.5,-137 492.5,-137 492.5,-117 427.5,-117"/>
<text text-anchor="middle" x="460" y="-124" font-family="FreeSans" font-size="10.00">monopoly.h</text>
</a>
</g>
<!-- Node3&#45;&gt;Node12 -->
<g id="edge26" class="edge"><title>Node3&#45;&gt;Node12</title>
<path fill="none" stroke="midnightblue" d="M398.485,-168.975C413.381,-158.811 432.202,-145.968 445.079,-137.182"/>
<polygon fill="midnightblue" stroke="midnightblue" points="396.093,-166.37 389.806,-174.897 400.039,-172.152 396.093,-166.37"/>
</g>
<!-- Node14 -->
<g id="node32" class="node"><title>Node14</title>
<a xlink:href="workunit_8cpp.html" target="_top" xlink:title="This file has the implementation of the Mezzanine::Threading::DefaultWorkUnit. ">
<polygon fill="white" stroke="black" points="339.5,-117 339.5,-137 410.5,-137 410.5,-117 339.5,-117"/>
<text text-anchor="middle" x="375" y="-124" font-family="FreeSans" font-size="10.00">workunit.cpp</text>
</a>
</g>
<!-- Node3&#45;&gt;Node14 -->
<g id="edge36" class="edge"><title>Node3&#45;&gt;Node14</title>
<path fill="none" stroke="midnightblue" d="M375,-164.89C375,-155.62 375,-145.008 375,-137.378"/>
<polygon fill="midnightblue" stroke="midnightblue" points="371.5,-164.897 375,-174.897 378.5,-164.897 371.5,-164.897"/>
</g>
<!-- Node5 -->
<g id="node9" class="node"><title>Node5</title>
<a xlink:href="asynchronousfileloadingworkunit_8h.html" target="_top" xlink:title="The declaration of the AsynchronousFileLoadWorkUnit a workunit that loads a listing of files asynchro...">
<polygon fill="white" stroke="black" points="733.5,-59 733.5,-79 894.5,-79 894.5,-59 733.5,-59"/>
<text text-anchor="middle" x="814" y="-66" font-family="FreeSans" font-size="10.00">asynchronousfileloadingworkunit.h</text>
</a>
</g>
<!-- Node4&#45;&gt;Node5 -->
<g id="edge8" class="edge"><title>Node4&#45;&gt;Node5</title>
<path fill="none" stroke="midnightblue" d="M696.234,-113.354C724.121,-102.85 762.034,-88.5716 787.225,-79.0842"/>
<polygon fill="midnightblue" stroke="midnightblue" points="694.949,-110.097 686.825,-116.897 697.417,-116.648 694.949,-110.097"/>
</g>
<!-- Node4&#45;&gt;Node7 -->
<g id="edge16" class="edge"><title>Node4&#45;&gt;Node7</title>
<path fill="none" stroke="midnightblue" d="M676.505,-108.717C687.854,-93.8597 698.911,-72.9834 687,-58 668.597,-34.8499 590.897,-22.0991 537.149,-15.907"/>
<polygon fill="midnightblue" stroke="midnightblue" points="673.606,-106.731 669.96,-116.679 679.014,-111.176 673.606,-106.731"/>
</g>
<!-- Node8 -->
<g id="node15" class="node"><title>Node8</title>
<a xlink:href="asynchronousworkunit_8cpp.html" target="_top" xlink:title="Contains very little actually. ">
<polygon fill="white" stroke="black" points="549.5,-59 549.5,-79 678.5,-79 678.5,-59 549.5,-59"/>
<text text-anchor="middle" x="614" y="-66" font-family="FreeSans" font-size="10.00">asynchronousworkunit.cpp</text>
</a>
</g>
<!-- Node4&#45;&gt;Node8 -->
<g id="edge14" class="edge"><title>Node4&#45;&gt;Node8</title>
<path fill="none" stroke="midnightblue" d="M645.709,-108.981C637.993,-99.2522 628.743,-87.5889 622.231,-79.3776"/>
<polygon fill="midnightblue" stroke="midnightblue" points="643.031,-111.237 651.987,-116.897 648.516,-106.887 643.031,-111.237"/>
</g>
<!-- Node6 -->
<g id="node11" class="node"><title>Node6</title>
<a xlink:href="asynchronousfileloadingworkunit_8cpp.html" target="_top" xlink:title="The implementation of the AsynchronousFileLoadWorkUnit a workunit that loads a listing of files async...">
<polygon fill="white" stroke="black" points="728,-1 728,-21 900,-21 900,-1 728,-1"/>
<text text-anchor="middle" x="814" y="-8" font-family="FreeSans" font-size="10.00">asynchronousfileloadingworkunit.cpp</text>
</a>
</g>
<!-- Node5&#45;&gt;Node6 -->
<g id="edge10" class="edge"><title>Node5&#45;&gt;Node6</title>
<path fill="none" stroke="midnightblue" d="M814,-48.8902C814,-39.6201 814,-29.0083 814,-21.3776"/>
<polygon fill="midnightblue" stroke="midnightblue" points="810.5,-48.8971 814,-58.8972 817.5,-48.8972 810.5,-48.8971"/>
</g>
<!-- Node5&#45;&gt;Node7 -->
<g id="edge12" class="edge"><title>Node5&#45;&gt;Node7</title>
<path fill="none" stroke="midnightblue" d="M746.829,-57.1942C684.891,-46.3081 594.165,-30.3623 537.135,-20.339"/>
<polygon fill="midnightblue" stroke="midnightblue" points="746.44,-60.6794 756.895,-58.9634 747.652,-53.7851 746.44,-60.6794"/>
</g>
<!-- Node9&#45;&gt;Node7 -->
<g id="edge20" class="edge"><title>Node9&#45;&gt;Node7</title>
<path fill="none" stroke="midnightblue" d="M223.703,-106.924C228.445,-91.209 237.361,-70.0585 253,-58 280.265,-36.9771 371.471,-23.2863 430.794,-16.3707"/>
<polygon fill="midnightblue" stroke="midnightblue" points="220.276,-106.191 221.056,-116.757 227.035,-108.011 220.276,-106.191"/>
</g>
<!-- Node9&#45;&gt;Node10 -->
<g id="edge22" class="edge"><title>Node9&#45;&gt;Node10</title>
<path fill="none" stroke="midnightblue" d="M243.777,-111.547C260.214,-101.297 281.32,-88.1339 295.674,-79.1817"/>
<polygon fill="midnightblue" stroke="midnightblue" points="241.832,-108.636 235.199,-116.897 245.537,-114.575 241.832,-108.636"/>
</g>
<!-- Node11 -->
<g id="node23" class="node"><title>Node11</title>
<a xlink:href="frameschedulerworkunits_8cpp.html" target="_top" xlink:title="The implementation of any workunits the framescheduler needs to work correctly. ">
<polygon fill="white" stroke="black" points="65.5,-59 65.5,-79 206.5,-79 206.5,-59 65.5,-59"/>
<text text-anchor="middle" x="136" y="-66" font-family="FreeSans" font-size="10.00">frameschedulerworkunits.cpp</text>
</a>
</g>
<!-- Node9&#45;&gt;Node11 -->
<g id="edge24" class="edge"><title>Node9&#45;&gt;Node11</title>
<path fill="none" stroke="midnightblue" d="M196.068,-110.975C181.522,-100.811 163.144,-87.9681 150.57,-79.1817"/>
<polygon fill="midnightblue" stroke="midnightblue" points="194.341,-114.038 204.543,-116.897 198.35,-108.3 194.341,-114.038"/>
</g>
<!-- Node12&#45;&gt;Node7 -->
<g id="edge28" class="edge"><title>Node12&#45;&gt;Node7</title>
<path fill="none" stroke="midnightblue" d="M464.174,-106.825C469.348,-81.8198 477.962,-40.1814 481.909,-21.1055"/>
<polygon fill="midnightblue" stroke="midnightblue" points="460.729,-106.204 462.13,-116.706 467.583,-107.622 460.729,-106.204"/>
</g>
<!-- Node12&#45;&gt;Node10 -->
<g id="edge30" class="edge"><title>Node12&#45;&gt;Node10</title>
<path fill="none" stroke="midnightblue" d="M424.857,-113.228C398.178,-102.773 362.093,-88.6312 337.981,-79.1817"/>
<polygon fill="midnightblue" stroke="midnightblue" points="423.633,-116.507 434.22,-116.897 426.187,-109.99 423.633,-116.507"/>
</g>
<!-- Node13 -->
<g id="node29" class="node"><title>Node13</title>
<a xlink:href="monopoly_8cpp.html" target="_top" xlink:title="Contains the minimal implementation for the monopoly base class. ">
<polygon fill="white" stroke="black" points="380,-59 380,-79 456,-79 456,-59 380,-59"/>
<text text-anchor="middle" x="418" y="-66" font-family="FreeSans" font-size="10.00">monopoly.cpp</text>
</a>
</g>
<!-- Node12&#45;&gt;Node13 -->
<g id="edge32" class="edge"><title>Node12&#45;&gt;Node13</title>
<path fill="none" stroke="midnightblue" d="M446.738,-108.686C439.736,-99.0169 431.401,-87.5059 425.515,-79.3776"/>
<polygon fill="midnightblue" stroke="midnightblue" points="443.984,-110.851 452.684,-116.897 449.654,-106.745 443.984,-110.851"/>
</g>
</g>
</svg>
