<?xml version="1.0" encoding="UTF-8" standalone="no"?>
<!DOCTYPE svg PUBLIC "-//W3C//DTD SVG 1.1//EN"
 "http://www.w3.org/Graphics/SVG/1.1/DTD/svg11.dtd">
<!-- Generated by graphviz version 2.26.3 (20100126.1600)
 -->
<!-- Title: G Pages: 1 -->
<!--zoomable 272 -->
<svg id="main" version="1.1" xmlns="http://www.w3.org/2000/svg" xmlns:xlink="http://www.w3.org/1999/xlink" xml:space="preserve" onload="init(evt)">
        <defs>
                <circle id="rim" cx="0" cy="0" r="7"/>
                <circle id="rim2" cx="0" cy="0" r="3.5"/>
                <g id="zoomPlus">
                        <use xlink:href="#rim" fill="#404040">
                                <set attributeName="fill" to="#808080" begin="zoomplus.mouseover" end="zoomplus.mouseout"/>
                        </use>
                        <path d="M-4,0h8M0,-4v8" fill="none" stroke="white" stroke-width="1.5" pointer-events="none"/>
                </g>
                <g id="zoomMin">
                        <use xlink:href="#rim" fill="#404040">
                                <set attributeName="fill" to="#808080" begin="zoomminus.mouseover" end="zoomminus.mouseout"/>
                        </use>
                        <path d="M-4,0h8" fill="none" stroke="white" stroke-width="1.5" pointer-events="none"/>
                </g>
                <g id="dirArrow">
                        <path fill="none" stroke="white" stroke-width="1.5" d="M0,-3.0v7 M-2.5,-0.5L0,-3.0L2.5,-0.5"/>
                </g>
               <g id="resetDef">
                       <use xlink:href="#rim2" fill="#404040">
                               <set attributeName="fill" to="#808080" begin="reset.mouseover" end="reset.mouseout"/>
                       </use>
               </g>
        </defs>

<script type="text/javascript">
var viewWidth = 863;
var viewHeight = 272;
var sectionId = 'dynsection-0';
</script>
<script xlink:href="svgpan.js"/>
<svg id="graph" class="graph">
<g id="viewport">
<title>G</title>
<polygon fill="white" stroke="white" points="-4,5 -4,-268 860.47,-268 860.47,5 -4,5"/>
<!-- Node1 -->
<g id="node1" class="node"><title>Node1</title>
<polygon fill="#bfbfbf" stroke="black" points="96.9704,-241 96.9704,-263 223.97,-263 223.97,-241 96.9704,-241"/>
<text text-anchor="middle" x="160.47" y="-250" font-family="FreeSans" font-size="10.00">threadingenumerations.h</text>
</g>
<!-- Node2 -->
<g id="node3" class="node"><title>Node2</title>
<a xlink:href="dagframescheduler_8h.html" target="_top" xlink:title="This is the file that code using this library should include. It includes all the required components...">
<polygon fill="white" stroke="black" points="387.47,-1 387.47,-23 499.47,-23 499.47,-1 387.47,-1"/>
<text text-anchor="middle" x="443.47" y="-10" font-family="FreeSans" font-size="10.00">dagframescheduler.h</text>
</a>
</g>
<!-- Node1&#45;&gt;Node2 -->
<g id="edge2" class="edge"><title>Node1&#45;&gt;Node2</title>
<path fill="none" stroke="midnightblue" d="M131.636,-235.676C75.0588,-201.68 -40.4006,-121.353 14.4704,-60 38.9197,-32.6625 276.81,-19.0672 387.431,-14.182"/>
<polygon fill="midnightblue" stroke="midnightblue" points="130.108,-238.838 140.498,-240.911 133.668,-232.811 130.108,-238.838"/>
</g>
<!-- Node3 -->
<g id="node5" class="node"><title>Node3</title>
<a xlink:href="workunit_8h.html" target="_top" xlink:title="This file has the definition of the workunit.">
<polygon fill="white" stroke="black" points="324.97,-181 324.97,-203 385.97,-203 385.97,-181 324.97,-181"/>
<text text-anchor="middle" x="355.47" y="-190" font-family="FreeSans" font-size="10.00">workunit.h</text>
</a>
</g>
<!-- Node1&#45;&gt;Node3 -->
<g id="edge4" class="edge"><title>Node1&#45;&gt;Node3</title>
<path fill="none" stroke="midnightblue" d="M206.148,-237.945C242.671,-226.708 292.869,-211.262 324.743,-201.454"/>
<polygon fill="midnightblue" stroke="midnightblue" points="204.765,-234.709 196.236,-240.995 206.823,-241.399 204.765,-234.709"/>
</g>
<!-- Node3&#45;&gt;Node2 -->
<g id="edge32" class="edge"><title>Node3&#45;&gt;Node2</title>
<path fill="none" stroke="midnightblue" d="M395.807,-180.452C413.71,-173.095 433.052,-161.551 443.47,-144 466.633,-104.982 453.966,-47.3569 447.037,-23.2483"/>
<polygon fill="midnightblue" stroke="midnightblue" points="394.198,-177.318 386.075,-184.121 396.667,-183.868 394.198,-177.318"/>
</g>
<!-- Node4 -->
<g id="node7" class="node"><title>Node4</title>
<a xlink:href="asynchronousworkunit_8h.html" target="_top" xlink:title="Contains an interface for a kind of WorkUnit that loads or does other work even when the frame schedu...">
<polygon fill="white" stroke="black" points="511.97,-121 511.97,-143 634.97,-143 634.97,-121 511.97,-121"/>
<text text-anchor="middle" x="573.47" y="-130" font-family="FreeSans" font-size="10.00">asynchronousworkunit.h</text>
</a>
</g>
<!-- Node3&#45;&gt;Node4 -->
<g id="edge6" class="edge"><title>Node3&#45;&gt;Node4</title>
<path fill="none" stroke="midnightblue" d="M395.993,-180.847C435.16,-170.067 494.151,-153.831 533.224,-143.077"/>
<polygon fill="midnightblue" stroke="midnightblue" points="394.955,-177.503 386.242,-183.531 396.812,-184.252 394.955,-177.503"/>
</g>
<!-- Node8 -->
<g id="node17" class="node"><title>Node8</title>
<a xlink:href="frameschedulerworkunits_8h.html" target="_top" xlink:title="This defines a number of workunits that are required for doing some tasks that the Framescheduler req...">
<polygon fill="white" stroke="black" points="37.4704,-121 37.4704,-143 173.47,-143 173.47,-121 37.4704,-121"/>
<text text-anchor="middle" x="105.47" y="-130" font-family="FreeSans" font-size="10.00">frameschedulerworkunits.h</text>
</a>
</g>
<!-- Node3&#45;&gt;Node8 -->
<g id="edge18" class="edge"><title>Node3&#45;&gt;Node8</title>
<path fill="none" stroke="midnightblue" d="M314.89,-182.261C270.206,-171.537 198.504,-154.328 151.688,-143.092"/>
<polygon fill="midnightblue" stroke="midnightblue" points="314.275,-185.712 324.815,-184.643 315.908,-178.906 314.275,-185.712"/>
</g>
<!-- Node10 -->
<g id="node22" class="node"><title>Node10</title>
<a xlink:href="monopoly_8h.html" target="_top" xlink:title="Contains an interface for a kind of WorkUnit that consumes time on multiple thread.">
<polygon fill="white" stroke="black" points="278.47,-121 278.47,-143 346.47,-143 346.47,-121 278.47,-121"/>
<text text-anchor="middle" x="312.47" y="-130" font-family="FreeSans" font-size="10.00">monopoly.h</text>
</a>
</g>
<!-- Node3&#45;&gt;Node10 -->
<g id="edge24" class="edge"><title>Node3&#45;&gt;Node10</title>
<path fill="none" stroke="midnightblue" d="M341.651,-172.717C334.705,-163.025 326.528,-151.615 320.599,-143.343"/>
<polygon fill="midnightblue" stroke="midnightblue" points="338.913,-174.906 347.583,-180.995 344.603,-170.828 338.913,-174.906"/>
</g>
<!-- Node13 -->
<g id="node30" class="node"><title>Node13</title>
<a xlink:href="workunit_8cpp.html" target="_top" xlink:title="This file has the implementation of the Mezzanine::Threading::DefaultWorkUnit.">
<polygon fill="white" stroke="black" points="363.97,-121 363.97,-143 434.97,-143 434.97,-121 363.97,-121"/>
<text text-anchor="middle" x="399.47" y="-130" font-family="FreeSans" font-size="10.00">workunit.cpp</text>
</a>
</g>
<!-- Node3&#45;&gt;Node13 -->
<g id="edge34" class="edge"><title>Node3&#45;&gt;Node13</title>
<path fill="none" stroke="midnightblue" d="M369.612,-172.717C376.719,-163.025 385.086,-151.615 391.152,-143.343"/>
<polygon fill="midnightblue" stroke="midnightblue" points="366.632,-170.861 363.541,-180.995 372.277,-175.001 366.632,-170.861"/>
</g>
<!-- Node4&#45;&gt;Node2 -->
<g id="edge16" class="edge"><title>Node4&#45;&gt;Node2</title>
<path fill="none" stroke="midnightblue" d="M552.912,-113.999C542.776,-105.055 530.409,-94.0381 519.47,-84 496.304,-62.7399 469.741,-37.3332 454.951,-23.0933"/>
<polygon fill="midnightblue" stroke="midnightblue" points="550.673,-116.691 560.493,-120.67 555.297,-111.436 550.673,-116.691"/>
</g>
<!-- Node5 -->
<g id="node9" class="node"><title>Node5</title>
<a xlink:href="asynchronousfileloadingworkunit_8h.html" target="_top" xlink:title="The declaration of the AsynchronousFileLoadWorkUnit a workunit that loads a listing of files asynchro...">
<polygon fill="white" stroke="black" points="680.47,-61 680.47,-83 850.47,-83 850.47,-61 680.47,-61"/>
<text text-anchor="middle" x="765.47" y="-70" font-family="FreeSans" font-size="10.00">asynchronousfileloadingworkunit.h</text>
</a>
</g>
<!-- Node4&#45;&gt;Node5 -->
<g id="edge8" class="edge"><title>Node4&#45;&gt;Node5</title>
<path fill="none" stroke="midnightblue" d="M618.4,-117.959C652.486,-107.308 698.69,-92.869 730.153,-83.0366"/>
<polygon fill="midnightblue" stroke="midnightblue" points="617.187,-114.672 608.686,-120.995 619.275,-121.353 617.187,-114.672"/>
</g>
<!-- Node7 -->
<g id="node14" class="node"><title>Node7</title>
<a xlink:href="asynchronousworkunit_8cpp.html" target="_top" xlink:title="Contains very little actually.">
<polygon fill="white" stroke="black" points="528.47,-61 528.47,-83 662.47,-83 662.47,-61 528.47,-61"/>
<text text-anchor="middle" x="595.47" y="-70" font-family="FreeSans" font-size="10.00">asynchronousworkunit.cpp</text>
</a>
</g>
<!-- Node4&#45;&gt;Node7 -->
<g id="edge14" class="edge"><title>Node4&#45;&gt;Node7</title>
<path fill="none" stroke="midnightblue" d="M580.979,-111.522C584.434,-102.098 588.402,-91.277 591.311,-83.3428"/>
<polygon fill="midnightblue" stroke="midnightblue" points="577.662,-110.401 577.505,-120.995 584.234,-112.811 577.662,-110.401"/>
</g>
<!-- Node5&#45;&gt;Node2 -->
<g id="edge12" class="edge"><title>Node5&#45;&gt;Node2</title>
<path fill="none" stroke="midnightblue" d="M696.477,-59.1442C637.762,-48.2034 554.472,-32.6835 499.728,-22.4828"/>
<polygon fill="midnightblue" stroke="midnightblue" points="695.939,-62.6039 706.411,-60.9951 697.221,-55.7224 695.939,-62.6039"/>
</g>
<!-- Node6 -->
<g id="node11" class="node"><title>Node6</title>
<a xlink:href="asynchronousfileloadingworkunit_8cpp.html" target="_top" xlink:title="The implemtation of the AsynchronousFileLoadWorkUnit a workunit that loads a listing of files asynchr...">
<polygon fill="white" stroke="black" points="675.47,-1 675.47,-23 855.47,-23 855.47,-1 675.47,-1"/>
<text text-anchor="middle" x="765.47" y="-10" font-family="FreeSans" font-size="10.00">asynchronousfileloadingworkunit.cpp</text>
</a>
</g>
<!-- Node5&#45;&gt;Node6 -->
<g id="edge10" class="edge"><title>Node5&#45;&gt;Node6</title>
<path fill="none" stroke="midnightblue" d="M765.47,-50.9183C765.47,-41.6393 765.47,-31.1082 765.47,-23.3428"/>
<polygon fill="midnightblue" stroke="midnightblue" points="761.97,-50.995 765.47,-60.9951 768.97,-50.9951 761.97,-50.995"/>
</g>
<!-- Node8&#45;&gt;Node2 -->
<g id="edge20" class="edge"><title>Node8&#45;&gt;Node2</title>
<path fill="none" stroke="midnightblue" d="M66.6639,-116.78C37.0145,-102.981 4.2364,-81.5573 23.4704,-60 47.2898,-33.3032 278.512,-19.427 387.352,-14.3299"/>
<polygon fill="midnightblue" stroke="midnightblue" points="65.5511,-120.116 76.1104,-120.983 68.3967,-113.72 65.5511,-120.116"/>
</g>
<!-- Node9 -->
<g id="node20" class="node"><title>Node9</title>
<a xlink:href="frameschedulerworkunits_8cpp.html" target="_top" xlink:title="The implementation of any workunits the framescheduler needs to work correctly.">
<polygon fill="white" stroke="black" points="32.4704,-61 32.4704,-83 178.47,-83 178.47,-61 32.4704,-61"/>
<text text-anchor="middle" x="105.47" y="-70" font-family="FreeSans" font-size="10.00">frameschedulerworkunits.cpp</text>
</a>
</g>
<!-- Node8&#45;&gt;Node9 -->
<g id="edge22" class="edge"><title>Node8&#45;&gt;Node9</title>
<path fill="none" stroke="midnightblue" d="M105.47,-110.918C105.47,-101.639 105.47,-91.1082 105.47,-83.3428"/>
<polygon fill="midnightblue" stroke="midnightblue" points="101.97,-110.995 105.47,-120.995 108.97,-110.995 101.97,-110.995"/>
</g>
<!-- Node10&#45;&gt;Node2 -->
<g id="edge26" class="edge"><title>Node10&#45;&gt;Node2</title>
<path fill="none" stroke="midnightblue" d="M354.611,-116.81C371.921,-109.013 391.205,-98.1357 405.47,-84 423.342,-66.2917 434.732,-38.3999 440.014,-23.0473"/>
<polygon fill="midnightblue" stroke="midnightblue" points="353.055,-113.67 345.243,-120.827 355.813,-120.103 353.055,-113.67"/>
</g>
<!-- Node11 -->
<g id="node25" class="node"><title>Node11</title>
<a xlink:href="framescheduler_8cpp.html" target="_top" xlink:title="This is the core object implementation for this algorithm.">
<polygon fill="white" stroke="black" points="196.47,-61 196.47,-83 300.47,-83 300.47,-61 196.47,-61"/>
<text text-anchor="middle" x="248.47" y="-70" font-family="FreeSans" font-size="10.00">framescheduler.cpp</text>
</a>
</g>
<!-- Node10&#45;&gt;Node11 -->
<g id="edge28" class="edge"><title>Node10&#45;&gt;Node11</title>
<path fill="none" stroke="midnightblue" d="M293.158,-113.894C282.562,-103.961 269.753,-91.9523 260.569,-83.3428"/>
<polygon fill="midnightblue" stroke="midnightblue" points="291.043,-116.709 300.732,-120.995 295.83,-111.602 291.043,-116.709"/>
</g>
<!-- Node12 -->
<g id="node27" class="node"><title>Node12</title>
<a xlink:href="monopoly_8cpp.html" target="_top" xlink:title="Contains the minimal implementation for the monopoly base class.">
<polygon fill="white" stroke="black" points="317.97,-61 317.97,-83 396.97,-83 396.97,-61 317.97,-61"/>
<text text-anchor="middle" x="357.47" y="-70" font-family="FreeSans" font-size="10.00">monopoly.cpp</text>
</a>
</g>
<!-- Node10&#45;&gt;Node12 -->
<g id="edge30" class="edge"><title>Node10&#45;&gt;Node12</title>
<path fill="none" stroke="midnightblue" d="M326.933,-112.717C334.202,-103.025 342.759,-91.6147 348.963,-83.3428"/>
<polygon fill="midnightblue" stroke="midnightblue" points="323.924,-110.895 320.724,-120.995 329.524,-115.095 323.924,-110.895"/>
</g>
</g>
</svg>
        <g id="navigator" transform="translate(0 0)" fill="#404254">
                <rect fill="#f2f5e9" fill-opacity="0.5" stroke="#606060" stroke-width=".5" x="0" y="0" width="60" height="60"/>
                <use id="zoomplus" xlink:href="#zoomPlus" x="17" y="9" onmousedown="handleZoom(evt,'in')"/>
                <use id="zoomminus" xlink:href="#zoomMin" x="42" y="9" onmousedown="handleZoom(evt,'out')"/>
                <use id="reset" xlink:href="#resetDef" x="30" y="36" onmousedown="handleReset()"/>
                <g id="arrowUp" xlink:href="#dirArrow" transform="translate(30 24)" onmousedown="handlePan(0,-1)">
                  <use xlink:href="#rim" fill="#404040">
                        <set attributeName="fill" to="#808080" begin="arrowUp.mouseover" end="arrowUp.mouseout"/>
                  </use>
                  <path fill="none" stroke="white" stroke-width="1.5" d="M0,-3.0v7 M-2.5,-0.5L0,-3.0L2.5,-0.5"/>
                </g>
                <g id="arrowRight" xlink:href="#dirArrow" transform="rotate(90) translate(36 -43)" onmousedown="handlePan(1,0)">
                  <use xlink:href="#rim" fill="#404040">
                        <set attributeName="fill" to="#808080" begin="arrowRight.mouseover" end="arrowRight.mouseout"/>
                  </use>
                  <path fill="none" stroke="white" stroke-width="1.5" d="M0,-3.0v7 M-2.5,-0.5L0,-3.0L2.5,-0.5"/>
                </g>
                <g id="arrowDown" xlink:href="#dirArrow" transform="rotate(180) translate(-30 -48)" onmousedown="handlePan(0,1)">
                  <use xlink:href="#rim" fill="#404040">
                        <set attributeName="fill" to="#808080" begin="arrowDown.mouseover" end="arrowDown.mouseout"/>
                  </use>
                  <path fill="none" stroke="white" stroke-width="1.5" d="M0,-3.0v7 M-2.5,-0.5L0,-3.0L2.5,-0.5"/>
                </g>
                <g id="arrowLeft" xlink:href="#dirArrow" transform="rotate(270) translate(-36 17)" onmousedown="handlePan(-1,0)">
                  <use xlink:href="#rim" fill="#404040">
                        <set attributeName="fill" to="#808080" begin="arrowLeft.mouseover" end="arrowLeft.mouseout"/>
                  </use>
                  <path fill="none" stroke="white" stroke-width="1.5" d="M0,-3.0v7 M-2.5,-0.5L0,-3.0L2.5,-0.5"/>
                </g>
        </g>
</svg>
