<?xml version="1.0" encoding="UTF-8" standalone="no"?>
<!DOCTYPE svg PUBLIC "-//W3C//DTD SVG 1.1//EN"
 "http://www.w3.org/Graphics/SVG/1.1/DTD/svg11.dtd">
<!-- Generated by graphviz version 2.26.3 (20100126.1600)
 -->
<!-- Title: G Pages: 1 -->
<!--zoomable 332 -->
<svg id="main" version="1.1" xmlns="http://www.w3.org/2000/svg" xmlns:xlink="http://www.w3.org/1999/xlink" xml:space="preserve" onload="init(evt)">
        <defs>
                <circle id="rim" cx="0" cy="0" r="7"/>
                <circle id="rim2" cx="0" cy="0" r="3.5"/>
                <g id="zoomPlus">
                        <use xlink:href="#rim" fill="#404040">
                                <set attributeName="fill" to="#808080" begin="zoomplus.mouseover" end="zoomplus.mouseout"/>
                        </use>
                        <path d="M-4,0h8M0,-4v8" fill="none" stroke="white" stroke-width="1.5" pointer-events="none"/>
                </g>
                <g id="zoomMin">
                        <use xlink:href="#rim" fill="#404040">
                                <set attributeName="fill" to="#808080" begin="zoomminus.mouseover" end="zoomminus.mouseout"/>
                        </use>
                        <path d="M-4,0h8" fill="none" stroke="white" stroke-width="1.5" pointer-events="none"/>
                </g>
                <g id="dirArrow">
                        <path fill="none" stroke="white" stroke-width="1.5" d="M0,-3.0v7 M-2.5,-0.5L0,-3.0L2.5,-0.5"/>
                </g>
               <g id="resetDef">
                       <use xlink:href="#rim2" fill="#404040">
                               <set attributeName="fill" to="#808080" begin="reset.mouseover" end="reset.mouseout"/>
                       </use>
               </g>
        </defs>

<script type="text/javascript">
var viewWidth = 935;
var viewHeight = 332;
var sectionId = 'dynsection-1';
</script>
<script xlink:href="svgpan.js"/>
<svg id="graph" class="graph">
<g id="viewport">
<title>G</title>
<polygon fill="white" stroke="white" points="-4,5 -4,-328 932,-328 932,5 -4,5"/>
<!-- Node1 -->
<g id="node1" class="node"><title>Node1</title>
<polygon fill="#bfbfbf" stroke="black" points="324.5,-301 324.5,-323 377.5,-323 377.5,-301 324.5,-301"/>
<text text-anchor="middle" x="351" y="-310" font-family="FreeSans" font-size="10.00">thread.h</text>
</g>
<!-- Node2 -->
<g id="node3" class="node"><title>Node2</title>
<a xlink:href="framescheduler_8h.html" target="_top" xlink:title="This file has the Declarations for the main FrameScheduler class.">
<polygon fill="white" stroke="black" points="267,-241 267,-263 361,-263 361,-241 267,-241"/>
<text text-anchor="middle" x="314" y="-250" font-family="FreeSans" font-size="10.00">framescheduler.h</text>
</a>
</g>
<!-- Node1&#45;&gt;Node2 -->
<g id="edge2" class="edge"><title>Node1&#45;&gt;Node2</title>
<path fill="none" stroke="midnightblue" d="M338.925,-292.419C332.988,-282.792 326.044,-271.53 320.995,-263.343"/>
<polygon fill="midnightblue" stroke="midnightblue" points="335.986,-294.32 344.214,-300.995 341.944,-290.646 335.986,-294.32"/>
</g>
<!-- Node3 -->
<g id="node5" class="node"><title>Node3</title>
<a xlink:href="workunit_8h.html" target="_top" xlink:title="This file has the definition of the workunit.">
<polygon fill="white" stroke="black" points="358.5,-181 358.5,-203 419.5,-203 419.5,-181 358.5,-181"/>
<text text-anchor="middle" x="389" y="-190" font-family="FreeSans" font-size="10.00">workunit.h</text>
</a>
</g>
<!-- Node1&#45;&gt;Node3 -->
<g id="edge46" class="edge"><title>Node1&#45;&gt;Node3</title>
<path fill="none" stroke="midnightblue" d="M359.809,-291.321C363.222,-282.924 367.017,-273.08 370,-264 376.941,-242.875 383.132,-217.635 386.447,-203.345"/>
<polygon fill="midnightblue" stroke="midnightblue" points="356.519,-290.118 355.916,-300.696 362.984,-292.802 356.519,-290.118"/>
</g>
<!-- Node7 -->
<g id="node13" class="node"><title>Node7</title>
<a xlink:href="dagframescheduler_8h.html" target="_top" xlink:title="This is the file that code using this library should include. It includes all the required components...">
<polygon fill="white" stroke="black" points="440,-1 440,-23 552,-23 552,-1 440,-1"/>
<text text-anchor="middle" x="496" y="-10" font-family="FreeSans" font-size="10.00">dagframescheduler.h</text>
</a>
</g>
<!-- Node1&#45;&gt;Node7 -->
<g id="edge42" class="edge"><title>Node1&#45;&gt;Node7</title>
<path fill="none" stroke="midnightblue" d="M314.295,-307.406C224.305,-295.123 0,-257.897 0,-192 0,-192 0,-192 0,-132 0,-95.3933 9.46617,-80.1924 40,-60 72.7011,-38.3743 325.106,-21.6074 439.713,-15.0275"/>
<polygon fill="midnightblue" stroke="midnightblue" points="313.954,-310.892 324.33,-308.748 314.882,-303.953 313.954,-310.892"/>
</g>
<!-- Node15 -->
<g id="node37" class="node"><title>Node15</title>
<a xlink:href="thread_8cpp.html" target="_top" xlink:title="This file implements a minimalistic cross&#45;platform thread that the scheduler uses to schedule tasks...">
<polygon fill="white" stroke="black" points="416.5,-241 416.5,-263 479.5,-263 479.5,-241 416.5,-241"/>
<text text-anchor="middle" x="448" y="-250" font-family="FreeSans" font-size="10.00">thread.cpp</text>
</a>
</g>
<!-- Node1&#45;&gt;Node15 -->
<g id="edge44" class="edge"><title>Node1&#45;&gt;Node15</title>
<path fill="none" stroke="midnightblue" d="M377.532,-295.589C394.199,-285.279 415.256,-272.254 429.993,-263.138"/>
<polygon fill="midnightblue" stroke="midnightblue" points="375.455,-292.758 368.791,-300.995 379.137,-298.711 375.455,-292.758"/>
</g>
<!-- Node2&#45;&gt;Node3 -->
<g id="edge4" class="edge"><title>Node2&#45;&gt;Node3</title>
<path fill="none" stroke="midnightblue" d="M335.596,-234.723C348.302,-224.558 363.999,-212.001 375.077,-203.138"/>
<polygon fill="midnightblue" stroke="midnightblue" points="333.378,-232.015 327.756,-240.995 337.751,-237.481 333.378,-232.015"/>
</g>
<!-- Node2&#45;&gt;Node7 -->
<g id="edge38" class="edge"><title>Node2&#45;&gt;Node7</title>
<path fill="none" stroke="midnightblue" d="M263.988,-238.009C170.446,-209.523 -15.2842,-140.619 57,-60 82.1434,-31.9576 327.336,-18.6842 439.954,-14.029"/>
<polygon fill="midnightblue" stroke="midnightblue" points="263.245,-241.44 273.829,-240.96 265.256,-234.735 263.245,-241.44"/>
</g>
<!-- Node10 -->
<g id="node21" class="node"><title>Node10</title>
<a xlink:href="framescheduler_8cpp.html" target="_top" xlink:title="This is the core object implementation for this algorithm.">
<polygon fill="white" stroke="black" points="268,-61 268,-83 372,-83 372,-61 268,-61"/>
<text text-anchor="middle" x="320" y="-70" font-family="FreeSans" font-size="10.00">framescheduler.cpp</text>
</a>
</g>
<!-- Node2&#45;&gt;Node10 -->
<g id="edge40" class="edge"><title>Node2&#45;&gt;Node10</title>
<path fill="none" stroke="midnightblue" d="M314.712,-230.65C315.993,-192.221 318.644,-112.672 319.625,-83.2556"/>
<polygon fill="midnightblue" stroke="midnightblue" points="311.211,-230.629 314.375,-240.74 318.207,-230.862 311.211,-230.629"/>
</g>
<!-- Node4 -->
<g id="node7" class="node"><title>Node4</title>
<a xlink:href="asynchronousworkunit_8h.html" target="_top" xlink:title="Contains an interface for a kind of WorkUnit that loads or does other work even when the frame schedu...">
<polygon fill="white" stroke="black" points="614.5,-121 614.5,-143 737.5,-143 737.5,-121 614.5,-121"/>
<text text-anchor="middle" x="676" y="-130" font-family="FreeSans" font-size="10.00">asynchronousworkunit.h</text>
</a>
</g>
<!-- Node3&#45;&gt;Node4 -->
<g id="edge6" class="edge"><title>Node3&#45;&gt;Node4</title>
<path fill="none" stroke="midnightblue" d="M429.668,-183.498C480.425,-172.887 567.339,-154.717 623.193,-143.04"/>
<polygon fill="midnightblue" stroke="midnightblue" points="428.786,-180.107 419.714,-185.579 430.219,-186.958 428.786,-180.107"/>
</g>
<!-- Node3&#45;&gt;Node7 -->
<g id="edge34" class="edge"><title>Node3&#45;&gt;Node7</title>
<path fill="none" stroke="midnightblue" d="M429.277,-181.718C461.589,-172.558 503.126,-158.41 513,-144 538.99,-106.069 514.301,-47.3463 502.019,-23.0766"/>
<polygon fill="midnightblue" stroke="midnightblue" points="428.297,-178.357 419.59,-184.395 430.161,-185.104 428.297,-178.357"/>
</g>
<!-- Node9 -->
<g id="node18" class="node"><title>Node9</title>
<a xlink:href="frameschedulerworkunits_8h.html" target="_top" xlink:title="This defines a number of workunits that are required for doing some tasks that the Framescheduler req...">
<polygon fill="white" stroke="black" points="156,-121 156,-143 292,-143 292,-121 156,-121"/>
<text text-anchor="middle" x="224" y="-130" font-family="FreeSans" font-size="10.00">frameschedulerworkunits.h</text>
</a>
</g>
<!-- Node3&#45;&gt;Node9 -->
<g id="edge18" class="edge"><title>Node3&#45;&gt;Node9</title>
<path fill="none" stroke="midnightblue" d="M349.252,-177.546C320.075,-166.937 281.042,-152.742 254.351,-143.037"/>
<polygon fill="midnightblue" stroke="midnightblue" points="348.142,-180.867 358.736,-180.995 350.535,-174.288 348.142,-180.867"/>
</g>
<!-- Node12 -->
<g id="node25" class="node"><title>Node12</title>
<a xlink:href="monopoly_8h.html" target="_top" xlink:title="Contains an interface for a kind of WorkUnit that consumes time on multiple thread.">
<polygon fill="white" stroke="black" points="436,-121 436,-143 504,-143 504,-121 436,-121"/>
<text text-anchor="middle" x="470" y="-130" font-family="FreeSans" font-size="10.00">monopoly.h</text>
</a>
</g>
<!-- Node3&#45;&gt;Node12 -->
<g id="edge26" class="edge"><title>Node3&#45;&gt;Node12</title>
<path fill="none" stroke="midnightblue" d="M411.932,-175.013C425.723,-164.798 442.885,-152.085 454.963,-143.138"/>
<polygon fill="midnightblue" stroke="midnightblue" points="409.809,-172.23 403.857,-180.995 413.976,-177.855 409.809,-172.23"/>
</g>
<!-- Node14 -->
<g id="node32" class="node"><title>Node14</title>
<a xlink:href="workunit_8cpp.html" target="_top" xlink:title="This file has the implementation of the Mezzanine::Threading::DefaultWorkUnit.">
<polygon fill="white" stroke="black" points="347.5,-121 347.5,-143 418.5,-143 418.5,-121 347.5,-121"/>
<text text-anchor="middle" x="383" y="-130" font-family="FreeSans" font-size="10.00">workunit.cpp</text>
</a>
</g>
<!-- Node3&#45;&gt;Node14 -->
<g id="edge36" class="edge"><title>Node3&#45;&gt;Node14</title>
<path fill="none" stroke="midnightblue" d="M386.892,-170.918C385.964,-161.639 384.911,-151.108 384.134,-143.343"/>
<polygon fill="midnightblue" stroke="midnightblue" points="383.422,-171.393 387.9,-180.995 390.387,-170.696 383.422,-171.393"/>
</g>
<!-- Node5 -->
<g id="node9" class="node"><title>Node5</title>
<a xlink:href="asynchronousfileloadingworkunit_8h.html" target="_top" xlink:title="The declaration of the AsynchronousFileLoadWorkUnit a workunit that loads a listing of files asynchro...">
<polygon fill="white" stroke="black" points="752,-61 752,-83 922,-83 922,-61 752,-61"/>
<text text-anchor="middle" x="837" y="-70" font-family="FreeSans" font-size="10.00">asynchronousfileloadingworkunit.h</text>
</a>
</g>
<!-- Node4&#45;&gt;Node5 -->
<g id="edge8" class="edge"><title>Node4&#45;&gt;Node5</title>
<path fill="none" stroke="midnightblue" d="M715.156,-117.408C743.585,-106.813 781.454,-92.7002 807.385,-83.0366"/>
<polygon fill="midnightblue" stroke="midnightblue" points="713.678,-114.223 705.53,-120.995 716.123,-120.783 713.678,-114.223"/>
</g>
<!-- Node4&#45;&gt;Node7 -->
<g id="edge16" class="edge"><title>Node4&#45;&gt;Node7</title>
<path fill="none" stroke="midnightblue" d="M693.435,-113.119C705.577,-97.6214 717.537,-75.7431 705,-60 686.214,-36.4106 607.51,-23.4548 552.244,-17.1209"/>
<polygon fill="midnightblue" stroke="midnightblue" points="690.575,-111.083 686.826,-120.993 695.936,-115.584 690.575,-111.083"/>
</g>
<!-- Node8 -->
<g id="node15" class="node"><title>Node8</title>
<a xlink:href="asynchronousworkunit_8cpp.html" target="_top" xlink:title="Contains very little actually.">
<polygon fill="white" stroke="black" points="562,-61 562,-83 696,-83 696,-61 562,-61"/>
<text text-anchor="middle" x="629" y="-70" font-family="FreeSans" font-size="10.00">asynchronousworkunit.cpp</text>
</a>
</g>
<!-- Node4&#45;&gt;Node8 -->
<g id="edge14" class="edge"><title>Node4&#45;&gt;Node8</title>
<path fill="none" stroke="midnightblue" d="M661.127,-113.013C653.485,-103.258 644.431,-91.6991 637.885,-83.3428"/>
<polygon fill="midnightblue" stroke="midnightblue" points="658.458,-115.281 667.379,-120.995 663.968,-110.964 658.458,-115.281"/>
</g>
<!-- Node6 -->
<g id="node11" class="node"><title>Node6</title>
<a xlink:href="asynchronousfileloadingworkunit_8cpp.html" target="_top" xlink:title="The implemtation of the AsynchronousFileLoadWorkUnit a workunit that loads a listing of files asynchr...">
<polygon fill="white" stroke="black" points="747,-1 747,-23 927,-23 927,-1 747,-1"/>
<text text-anchor="middle" x="837" y="-10" font-family="FreeSans" font-size="10.00">asynchronousfileloadingworkunit.cpp</text>
</a>
</g>
<!-- Node5&#45;&gt;Node6 -->
<g id="edge10" class="edge"><title>Node5&#45;&gt;Node6</title>
<path fill="none" stroke="midnightblue" d="M837,-50.9183C837,-41.6393 837,-31.1082 837,-23.3428"/>
<polygon fill="midnightblue" stroke="midnightblue" points="833.5,-50.995 837,-60.9951 840.5,-50.9951 833.5,-50.995"/>
</g>
<!-- Node5&#45;&gt;Node7 -->
<g id="edge12" class="edge"><title>Node5&#45;&gt;Node7</title>
<path fill="none" stroke="midnightblue" d="M764.521,-59.2471C701.097,-48.0875 610.269,-32.106 552.211,-21.8904"/>
<polygon fill="midnightblue" stroke="midnightblue" points="764,-62.7091 774.455,-60.9951 765.213,-55.815 764,-62.7091"/>
</g>
<!-- Node9&#45;&gt;Node7 -->
<g id="edge20" class="edge"><title>Node9&#45;&gt;Node7</title>
<path fill="none" stroke="midnightblue" d="M228.783,-110.98C233.624,-94.5904 242.776,-72.5675 259,-60 286.671,-38.5654 378.848,-24.689 439.757,-17.6187"/>
<polygon fill="midnightblue" stroke="midnightblue" points="225.364,-110.219 226.193,-120.781 232.132,-112.007 225.364,-110.219"/>
</g>
<!-- Node9&#45;&gt;Node10 -->
<g id="edge22" class="edge"><title>Node9&#45;&gt;Node10</title>
<path fill="none" stroke="midnightblue" d="M250.258,-115.589C266.754,-105.279 287.594,-92.254 302.179,-83.1383"/>
<polygon fill="midnightblue" stroke="midnightblue" points="248.233,-112.727 241.608,-120.995 251.943,-118.663 248.233,-112.727"/>
</g>
<!-- Node11 -->
<g id="node23" class="node"><title>Node11</title>
<a xlink:href="frameschedulerworkunits_8cpp.html" target="_top" xlink:title="The implementation of any workunits the framescheduler needs to work correctly.">
<polygon fill="white" stroke="black" points="66,-61 66,-83 212,-83 212,-61 66,-61"/>
<text text-anchor="middle" x="139" y="-70" font-family="FreeSans" font-size="10.00">frameschedulerworkunits.cpp</text>
</a>
</g>
<!-- Node9&#45;&gt;Node11 -->
<g id="edge24" class="edge"><title>Node9&#45;&gt;Node11</title>
<path fill="none" stroke="midnightblue" d="M199.935,-115.013C185.463,-104.798 167.454,-92.0852 154.779,-83.1383"/>
<polygon fill="midnightblue" stroke="midnightblue" points="198.222,-118.088 208.41,-120.995 202.258,-112.369 198.222,-118.088"/>
</g>
<!-- Node12&#45;&gt;Node7 -->
<g id="edge28" class="edge"><title>Node12&#45;&gt;Node7</title>
<path fill="none" stroke="midnightblue" d="M474.53,-111.093C480.08,-85.4787 489.277,-43.0303 493.606,-23.0475"/>
<polygon fill="midnightblue" stroke="midnightblue" points="471.096,-110.411 472.399,-120.926 477.938,-111.894 471.096,-110.411"/>
</g>
<!-- Node12&#45;&gt;Node10 -->
<g id="edge30" class="edge"><title>Node12&#45;&gt;Node10</title>
<path fill="none" stroke="midnightblue" d="M433.171,-117.269C406.725,-106.69 371.645,-92.658 347.591,-83.0366"/>
<polygon fill="midnightblue" stroke="midnightblue" points="431.903,-120.531 442.488,-120.995 434.503,-114.031 431.903,-120.531"/>
</g>
<!-- Node13 -->
<g id="node29" class="node"><title>Node13</title>
<a xlink:href="monopoly_8cpp.html" target="_top" xlink:title="Contains the minimal implementation for the monopoly base class.">
<polygon fill="white" stroke="black" points="389.5,-61 389.5,-83 468.5,-83 468.5,-61 389.5,-61"/>
<text text-anchor="middle" x="429" y="-70" font-family="FreeSans" font-size="10.00">monopoly.cpp</text>
</a>
</g>
<!-- Node12&#45;&gt;Node13 -->
<g id="edge32" class="edge"><title>Node12&#45;&gt;Node13</title>
<path fill="none" stroke="midnightblue" d="M456.823,-112.717C450.2,-103.025 442.403,-91.6147 436.751,-83.3428"/>
<polygon fill="midnightblue" stroke="midnightblue" points="453.948,-114.713 462.48,-120.995 459.728,-110.764 453.948,-114.713"/>
</g>
</g>
</svg>
        <g id="navigator" transform="translate(0 0)" fill="#404254">
                <rect fill="#f2f5e9" fill-opacity="0.5" stroke="#606060" stroke-width=".5" x="0" y="0" width="60" height="60"/>
                <use id="zoomplus" xlink:href="#zoomPlus" x="17" y="9" onmousedown="handleZoom(evt,'in')"/>
                <use id="zoomminus" xlink:href="#zoomMin" x="42" y="9" onmousedown="handleZoom(evt,'out')"/>
                <use id="reset" xlink:href="#resetDef" x="30" y="36" onmousedown="handleReset()"/>
                <g id="arrowUp" xlink:href="#dirArrow" transform="translate(30 24)" onmousedown="handlePan(0,-1)">
                  <use xlink:href="#rim" fill="#404040">
                        <set attributeName="fill" to="#808080" begin="arrowUp.mouseover" end="arrowUp.mouseout"/>
                  </use>
                  <path fill="none" stroke="white" stroke-width="1.5" d="M0,-3.0v7 M-2.5,-0.5L0,-3.0L2.5,-0.5"/>
                </g>
                <g id="arrowRight" xlink:href="#dirArrow" transform="rotate(90) translate(36 -43)" onmousedown="handlePan(1,0)">
                  <use xlink:href="#rim" fill="#404040">
                        <set attributeName="fill" to="#808080" begin="arrowRight.mouseover" end="arrowRight.mouseout"/>
                  </use>
                  <path fill="none" stroke="white" stroke-width="1.5" d="M0,-3.0v7 M-2.5,-0.5L0,-3.0L2.5,-0.5"/>
                </g>
                <g id="arrowDown" xlink:href="#dirArrow" transform="rotate(180) translate(-30 -48)" onmousedown="handlePan(0,1)">
                  <use xlink:href="#rim" fill="#404040">
                        <set attributeName="fill" to="#808080" begin="arrowDown.mouseover" end="arrowDown.mouseout"/>
                  </use>
                  <path fill="none" stroke="white" stroke-width="1.5" d="M0,-3.0v7 M-2.5,-0.5L0,-3.0L2.5,-0.5"/>
                </g>
                <g id="arrowLeft" xlink:href="#dirArrow" transform="rotate(270) translate(-36 17)" onmousedown="handlePan(-1,0)">
                  <use xlink:href="#rim" fill="#404040">
                        <set attributeName="fill" to="#808080" begin="arrowLeft.mouseover" end="arrowLeft.mouseout"/>
                  </use>
                  <path fill="none" stroke="white" stroke-width="1.5" d="M0,-3.0v7 M-2.5,-0.5L0,-3.0L2.5,-0.5"/>
                </g>
        </g>
</svg>
