<?xml version="1.0" encoding="UTF-8" standalone="no"?>
<!DOCTYPE svg PUBLIC "-//W3C//DTD SVG 1.1//EN"
 "http://www.w3.org/Graphics/SVG/1.1/DTD/svg11.dtd">
<!-- Generated by graphviz version 2.26.3 (20100126.1600)
 -->
<!-- Title: thread.cpp Pages: 1 -->
<svg width="672pt" height="320pt"
 viewBox="0.00 0.00 672.00 320.00" xmlns="http://www.w3.org/2000/svg" xmlns:xlink="http://www.w3.org/1999/xlink">
<g id="graph1" class="graph" transform="scale(1 1) rotate(0) translate(4 316)">
<title>thread.cpp</title>
<polygon fill="white" stroke="white" points="-4,5 -4,-316 669,-316 669,5 -4,5"/>
<!-- Node1 -->
<g id="node1" class="node"><title>Node1</title>
<polygon fill="#bfbfbf" stroke="black" points="436,-291 436,-311 498,-311 498,-291 436,-291"/>
<text text-anchor="middle" x="467" y="-298" font-family="FreeSans" font-size="10.00">thread.cpp</text>
</g>
<!-- Node2 -->
<g id="node3" class="node"><title>Node2</title>
<a xlink:href="crossplatformincludes_8h.html" target="_top" xlink:title="This file determines what features are offered by the compiler that this library can take advantage o...">
<polygon fill="white" stroke="black" points="160.5,-233 160.5,-253 277.5,-253 277.5,-233 160.5,-233"/>
<text text-anchor="middle" x="219" y="-240" font-family="FreeSans" font-size="10.00">crossplatformincludes.h</text>
</a>
</g>
<!-- Node1&#45;&gt;Node2 -->
<g id="edge2" class="edge"><title>Node1&#45;&gt;Node2</title>
<path fill="none" stroke="midnightblue" d="M435.842,-293.713C394.704,-284.092 321.669,-267.011 271.827,-255.355"/>
<polygon fill="midnightblue" stroke="midnightblue" points="272.409,-251.896 261.874,-253.027 270.814,-258.712 272.409,-251.896"/>
</g>
<!-- Node8 -->
<g id="node15" class="node"><title>Node8</title>
<a xlink:href="thread_8h.html" target="_top" xlink:title="This file defines a minimalistic cross&#45;platform thread that the scheduler uses to schedule tasks...">
<polygon fill="white" stroke="black" points="403.5,-233 403.5,-253 454.5,-253 454.5,-233 403.5,-233"/>
<text text-anchor="middle" x="429" y="-240" font-family="FreeSans" font-size="10.00">thread.h</text>
</a>
</g>
<!-- Node1&#45;&gt;Node8 -->
<g id="edge14" class="edge"><title>Node1&#45;&gt;Node8</title>
<path fill="none" stroke="midnightblue" d="M460.381,-290.897C455.16,-282.928 447.73,-271.587 441.41,-261.941"/>
<polygon fill="midnightblue" stroke="midnightblue" points="444.207,-259.824 435.799,-253.378 438.352,-263.66 444.207,-259.824"/>
</g>
<!-- Node14 -->
<g id="node28" class="node"><title>Node14</title>
<polygon fill="white" stroke="#bfbfbf" points="629.5,-1 629.5,-21 664.5,-21 664.5,-1 629.5,-1"/>
<text text-anchor="middle" x="647" y="-8" font-family="FreeSans" font-size="10.00">map</text>
</g>
<!-- Node1&#45;&gt;Node14 -->
<g id="edge48" class="edge"><title>Node1&#45;&gt;Node14</title>
<path fill="none" stroke="midnightblue" d="M472.923,-290.832C483.833,-271.114 506,-226.006 506,-185 506,-185 506,-185 506,-127 506,-97.6656 579.701,-50.1143 620.534,-26.0201"/>
<polygon fill="midnightblue" stroke="midnightblue" points="622.55,-28.896 629.427,-20.8364 619.025,-22.8484 622.55,-28.896"/>
</g>
<!-- Node22 -->
<g id="node45" class="node"><title>Node22</title>
<a xlink:href="lockguard_8h.html" target="_top" xlink:title="Declares a tool for automatically unlocking a mutex in an exception safe way. ">
<polygon fill="white" stroke="black" points="534,-233 534,-253 600,-253 600,-233 534,-233"/>
<text text-anchor="middle" x="567" y="-240" font-family="FreeSans" font-size="10.00">lockguard.h</text>
</a>
</g>
<!-- Node1&#45;&gt;Node22 -->
<g id="edge46" class="edge"><title>Node1&#45;&gt;Node22</title>
<path fill="none" stroke="midnightblue" d="M484.419,-290.897C499.953,-281.887 522.92,-268.567 540.692,-258.259"/>
<polygon fill="midnightblue" stroke="midnightblue" points="542.551,-261.227 549.445,-253.182 539.039,-255.171 542.551,-261.227"/>
</g>
<!-- Node3 -->
<g id="node5" class="node"><title>Node3</title>
<a xlink:href="crossplatformexport_8h.html" target="_top" xlink:title="This file determines what features are offered by the compiler that this library can take advantage o...">
<polygon fill="white" stroke="black" points="0,-1 0,-21 108,-21 108,-1 0,-1"/>
<text text-anchor="middle" x="54" y="-8" font-family="FreeSans" font-size="10.00">crossplatformexport.h</text>
</a>
</g>
<!-- Node2&#45;&gt;Node3 -->
<g id="edge4" class="edge"><title>Node2&#45;&gt;Node3</title>
<path fill="none" stroke="midnightblue" d="M171.736,-232.92C135.675,-224.235 90.181,-210.788 78,-196 38.6255,-148.198 44.6821,-68.5899 50.2687,-31.361"/>
<polygon fill="midnightblue" stroke="midnightblue" points="53.7622,-31.6862 51.9365,-21.2498 46.8556,-30.5468 53.7622,-31.6862"/>
</g>
<!-- Node4 -->
<g id="node7" class="node"><title>Node4</title>
<polygon fill="white" stroke="#bfbfbf" points="87,-175 87,-195 143,-195 143,-175 87,-175"/>
<text text-anchor="middle" x="115" y="-182" font-family="FreeSans" font-size="10.00">pthread.h</text>
</g>
<!-- Node2&#45;&gt;Node4 -->
<g id="edge6" class="edge"><title>Node2&#45;&gt;Node4</title>
<path fill="none" stroke="midnightblue" d="M200.885,-232.897C184.655,-223.846 160.624,-210.444 142.106,-200.117"/>
<polygon fill="midnightblue" stroke="midnightblue" points="143.695,-196.996 133.257,-195.182 140.286,-203.109 143.695,-196.996"/>
</g>
<!-- Node5 -->
<g id="node9" class="node"><title>Node5</title>
<polygon fill="white" stroke="#bfbfbf" points="160.5,-175 160.5,-195 209.5,-195 209.5,-175 160.5,-175"/>
<text text-anchor="middle" x="185" y="-182" font-family="FreeSans" font-size="10.00">signal.h</text>
</g>
<!-- Node2&#45;&gt;Node5 -->
<g id="edge8" class="edge"><title>Node2&#45;&gt;Node5</title>
<path fill="none" stroke="midnightblue" d="M213.078,-232.897C208.454,-225.01 201.895,-213.821 196.279,-204.24"/>
<polygon fill="midnightblue" stroke="midnightblue" points="199.16,-202.235 191.083,-195.378 193.121,-205.775 199.16,-202.235"/>
</g>
<!-- Node6 -->
<g id="node11" class="node"><title>Node6</title>
<polygon fill="white" stroke="#bfbfbf" points="227,-175 227,-195 277,-195 277,-175 227,-175"/>
<text text-anchor="middle" x="252" y="-182" font-family="FreeSans" font-size="10.00">sched.h</text>
</g>
<!-- Node2&#45;&gt;Node6 -->
<g id="edge10" class="edge"><title>Node2&#45;&gt;Node6</title>
<path fill="none" stroke="midnightblue" d="M224.748,-232.897C229.235,-225.01 235.602,-213.821 241.053,-204.24"/>
<polygon fill="midnightblue" stroke="midnightblue" points="244.192,-205.8 246.096,-195.378 238.108,-202.338 244.192,-205.8"/>
</g>
<!-- Node7 -->
<g id="node13" class="node"><title>Node7</title>
<polygon fill="white" stroke="#bfbfbf" points="295,-175 295,-195 345,-195 345,-175 295,-175"/>
<text text-anchor="middle" x="320" y="-182" font-family="FreeSans" font-size="10.00">unistd.h</text>
</g>
<!-- Node2&#45;&gt;Node7 -->
<g id="edge12" class="edge"><title>Node2&#45;&gt;Node7</title>
<path fill="none" stroke="midnightblue" d="M236.593,-232.897C252.283,-223.887 275.479,-210.567 293.429,-200.259"/>
<polygon fill="midnightblue" stroke="midnightblue" points="295.341,-203.197 302.27,-195.182 291.855,-197.126 295.341,-203.197"/>
</g>
<!-- Node9 -->
<g id="node17" class="node"><title>Node9</title>
<a xlink:href="systemcalls_8h.html" target="_top" xlink:title="This file defines a minimalistic cross&#45;platform thread that the scheduler uses to schedule tasks...">
<polygon fill="white" stroke="black" points="288,-117 288,-137 362,-137 362,-117 288,-117"/>
<text text-anchor="middle" x="325" y="-124" font-family="FreeSans" font-size="10.00">systemcalls.h</text>
</a>
</g>
<!-- Node8&#45;&gt;Node9 -->
<g id="edge16" class="edge"><title>Node8&#45;&gt;Node9</title>
<path fill="none" stroke="midnightblue" d="M419.771,-232.706C401.995,-212.879 362.823,-169.187 340.811,-144.636"/>
<polygon fill="midnightblue" stroke="midnightblue" points="343.342,-142.215 334.06,-137.106 338.13,-146.888 343.342,-142.215"/>
</g>
<!-- Node20 -->
<g id="node40" class="node"><title>Node20</title>
<a xlink:href="mutex_8h.html" target="_top" xlink:title="This file declares and defines a mutex that is a partial implementation. ">
<polygon fill="white" stroke="black" points="404,-175 404,-195 454,-195 454,-175 404,-175"/>
<text text-anchor="middle" x="429" y="-182" font-family="FreeSans" font-size="10.00">mutex.h</text>
</a>
</g>
<!-- Node8&#45;&gt;Node20 -->
<g id="edge40" class="edge"><title>Node8&#45;&gt;Node20</title>
<path fill="none" stroke="midnightblue" d="M429,-232.897C429,-225.339 429,-214.748 429,-205.446"/>
<polygon fill="midnightblue" stroke="midnightblue" points="432.5,-205.378 429,-195.378 425.5,-205.378 432.5,-205.378"/>
</g>
<!-- Node10 -->
<g id="node19" class="node"><title>Node10</title>
<a xlink:href="datatypes_8h.html" target="_top" xlink:title="This file declares a few typedefs to allow flexibility, in case a change is required/desired. ">
<polygon fill="white" stroke="black" points="321.5,-59 321.5,-79 386.5,-79 386.5,-59 321.5,-59"/>
<text text-anchor="middle" x="354" y="-66" font-family="FreeSans" font-size="10.00">datatypes.h</text>
</a>
</g>
<!-- Node9&#45;&gt;Node10 -->
<g id="edge18" class="edge"><title>Node9&#45;&gt;Node10</title>
<path fill="none" stroke="midnightblue" d="M330.051,-116.897C333.954,-109.093 339.473,-98.0536 344.23,-88.5401"/>
<polygon fill="midnightblue" stroke="midnightblue" points="347.47,-89.8872 348.811,-79.3776 341.209,-86.7566 347.47,-89.8872"/>
</g>
<!-- Node10&#45;&gt;Node3 -->
<g id="edge20" class="edge"><title>Node10&#45;&gt;Node3</title>
<path fill="none" stroke="midnightblue" d="M321.324,-62.6826C272.198,-53.1849 178.435,-35.0574 116.051,-22.9965"/>
<polygon fill="midnightblue" stroke="midnightblue" points="116.419,-19.503 105.937,-21.0411 115.091,-26.3758 116.419,-19.503"/>
</g>
<!-- Node11 -->
<g id="node22" class="node"><title>Node11</title>
<polygon fill="white" stroke="#bfbfbf" points="125.5,-1 125.5,-21 168.5,-21 168.5,-1 125.5,-1"/>
<text text-anchor="middle" x="147" y="-8" font-family="FreeSans" font-size="10.00">vector</text>
</g>
<!-- Node10&#45;&gt;Node11 -->
<g id="edge22" class="edge"><title>Node10&#45;&gt;Node11</title>
<path fill="none" stroke="midnightblue" d="M321.445,-61.308C287.693,-53.1248 233.248,-39.3437 178.119,-22.182"/>
<polygon fill="midnightblue" stroke="midnightblue" points="179.138,-18.8334 168.549,-19.17 177.037,-25.5106 179.138,-18.8334"/>
</g>
<!-- Node12 -->
<g id="node24" class="node"><title>Node12</title>
<polygon fill="white" stroke="#bfbfbf" points="186,-1 186,-21 226,-21 226,-1 186,-1"/>
<text text-anchor="middle" x="206" y="-8" font-family="FreeSans" font-size="10.00">string</text>
</g>
<!-- Node10&#45;&gt;Node12 -->
<g id="edge24" class="edge"><title>Node10&#45;&gt;Node12</title>
<path fill="none" stroke="midnightblue" d="M328.22,-58.8972C302.404,-48.7801 262.72,-33.2281 235.623,-22.6091"/>
<polygon fill="midnightblue" stroke="midnightblue" points="236.846,-19.3293 226.259,-18.9393 234.292,-25.8468 236.846,-19.3293"/>
</g>
<!-- Node13 -->
<g id="node26" class="node"><title>Node13</title>
<polygon fill="white" stroke="#bfbfbf" points="243.5,-1 243.5,-21 294.5,-21 294.5,-1 243.5,-1"/>
<text text-anchor="middle" x="269" y="-8" font-family="FreeSans" font-size="10.00">ostream</text>
</g>
<!-- Node10&#45;&gt;Node13 -->
<g id="edge26" class="edge"><title>Node10&#45;&gt;Node13</title>
<path fill="none" stroke="midnightblue" d="M339.194,-58.8972C326.232,-50.0524 307.182,-37.0539 292.198,-26.829"/>
<polygon fill="midnightblue" stroke="midnightblue" points="294.154,-23.927 283.921,-21.1817 290.209,-29.7092 294.154,-23.927"/>
</g>
<!-- Node10&#45;&gt;Node14 -->
<g id="edge28" class="edge"><title>Node10&#45;&gt;Node14</title>
<path fill="none" stroke="midnightblue" d="M386.6,-65.667C435.665,-60.1354 531.361,-47.3439 619.67,-21.9436"/>
<polygon fill="midnightblue" stroke="midnightblue" points="620.684,-25.2939 629.292,-19.1166 618.711,-18.5778 620.684,-25.2939"/>
</g>
<!-- Node15 -->
<g id="node30" class="node"><title>Node15</title>
<polygon fill="white" stroke="#bfbfbf" points="311.5,-1 311.5,-21 340.5,-21 340.5,-1 311.5,-1"/>
<text text-anchor="middle" x="326" y="-8" font-family="FreeSans" font-size="10.00">set</text>
</g>
<!-- Node10&#45;&gt;Node15 -->
<g id="edge30" class="edge"><title>Node10&#45;&gt;Node15</title>
<path fill="none" stroke="midnightblue" d="M349.123,-58.8972C345.355,-51.0926 340.026,-40.0536 335.433,-30.5401"/>
<polygon fill="midnightblue" stroke="midnightblue" points="338.509,-28.8615 331.01,-21.3776 332.205,-31.9048 338.509,-28.8615"/>
</g>
<!-- Node16 -->
<g id="node32" class="node"><title>Node16</title>
<polygon fill="white" stroke="#bfbfbf" points="358,-1 358,-21 408,-21 408,-1 358,-1"/>
<text text-anchor="middle" x="383" y="-8" font-family="FreeSans" font-size="10.00">sstream</text>
</g>
<!-- Node10&#45;&gt;Node16 -->
<g id="edge32" class="edge"><title>Node10&#45;&gt;Node16</title>
<path fill="none" stroke="midnightblue" d="M359.051,-58.8972C362.954,-51.0926 368.473,-40.0536 373.23,-30.5401"/>
<polygon fill="midnightblue" stroke="midnightblue" points="376.47,-31.8872 377.811,-21.3776 370.209,-28.7566 376.47,-31.8872"/>
</g>
<!-- Node17 -->
<g id="node34" class="node"><title>Node17</title>
<polygon fill="white" stroke="#bfbfbf" points="425.5,-1 425.5,-21 474.5,-21 474.5,-1 425.5,-1"/>
<text text-anchor="middle" x="450" y="-8" font-family="FreeSans" font-size="10.00">fstream</text>
</g>
<!-- Node10&#45;&gt;Node17 -->
<g id="edge34" class="edge"><title>Node10&#45;&gt;Node17</title>
<path fill="none" stroke="midnightblue" d="M370.722,-58.8972C385.498,-49.9698 407.279,-36.8106 424.274,-26.5431"/>
<polygon fill="midnightblue" stroke="midnightblue" points="426.398,-29.3486 433.148,-21.1817 422.779,-23.3572 426.398,-29.3486"/>
</g>
<!-- Node18 -->
<g id="node36" class="node"><title>Node18</title>
<polygon fill="white" stroke="#bfbfbf" points="492,-1 492,-21 548,-21 548,-1 492,-1"/>
<text text-anchor="middle" x="520" y="-8" font-family="FreeSans" font-size="10.00">algorithm</text>
</g>
<!-- Node10&#45;&gt;Node18 -->
<g id="edge36" class="edge"><title>Node10&#45;&gt;Node18</title>
<path fill="none" stroke="midnightblue" d="M382.915,-58.8972C410.456,-49.2745 452.068,-34.7352 482.22,-24.2002"/>
<polygon fill="midnightblue" stroke="midnightblue" points="483.684,-27.3964 491.969,-20.7938 481.375,-20.7882 483.684,-27.3964"/>
</g>
<!-- Node19 -->
<g id="node38" class="node"><title>Node19</title>
<polygon fill="white" stroke="#bfbfbf" points="565.5,-1 565.5,-21 612.5,-21 612.5,-1 565.5,-1"/>
<text text-anchor="middle" x="589" y="-8" font-family="FreeSans" font-size="10.00">stdint.h</text>
</g>
<!-- Node10&#45;&gt;Node19 -->
<g id="edge38" class="edge"><title>Node10&#45;&gt;Node19</title>
<path fill="none" stroke="midnightblue" d="M386.611,-62.5367C424.969,-54.698 490.715,-40.5258 555.376,-22.2861"/>
<polygon fill="midnightblue" stroke="midnightblue" points="556.667,-25.5573 565.321,-19.4453 554.745,-18.8265 556.667,-25.5573"/>
</g>
<!-- Node21 -->
<g id="node42" class="node"><title>Node21</title>
<a xlink:href="atomicoperations_8h.html" target="_top" xlink:title="Simple thread safe ways to check and change a specified variable atomically. ">
<polygon fill="white" stroke="black" points="380,-117 380,-137 478,-137 478,-117 380,-117"/>
<text text-anchor="middle" x="429" y="-124" font-family="FreeSans" font-size="10.00">atomicoperations.h</text>
</a>
</g>
<!-- Node20&#45;&gt;Node21 -->
<g id="edge42" class="edge"><title>Node20&#45;&gt;Node21</title>
<path fill="none" stroke="midnightblue" d="M429,-174.897C429,-167.339 429,-156.748 429,-147.446"/>
<polygon fill="midnightblue" stroke="midnightblue" points="432.5,-147.378 429,-137.378 425.5,-147.378 432.5,-147.378"/>
</g>
<!-- Node21&#45;&gt;Node10 -->
<g id="edge44" class="edge"><title>Node21&#45;&gt;Node10</title>
<path fill="none" stroke="midnightblue" d="M415.936,-116.897C404.713,-108.218 388.317,-95.5384 375.214,-85.4053"/>
<polygon fill="midnightblue" stroke="midnightblue" points="377.218,-82.5305 367.166,-79.1817 372.935,-88.0679 377.218,-82.5305"/>
</g>
</g>
</svg>
