<?xml version="1.0" encoding="UTF-8" standalone="no"?>
<!DOCTYPE svg PUBLIC "-//W3C//DTD SVG 1.1//EN"
 "http://www.w3.org/Graphics/SVG/1.1/DTD/svg11.dtd">
<!-- Generated by graphviz version 2.26.3 (20100126.1600)
 -->
<!-- Title: G Pages: 1 -->
<!--zoomable 272 -->
<svg id="main" version="1.1" xmlns="http://www.w3.org/2000/svg" xmlns:xlink="http://www.w3.org/1999/xlink" xml:space="preserve" onload="init(evt)">
        <defs>
                <circle id="rim" cx="0" cy="0" r="7"/>
                <circle id="rim2" cx="0" cy="0" r="3.5"/>
                <g id="zoomPlus">
                        <use xlink:href="#rim" fill="#404040">
                                <set attributeName="fill" to="#808080" begin="zoomplus.mouseover" end="zoomplus.mouseout"/>
                        </use>
                        <path d="M-4,0h8M0,-4v8" fill="none" stroke="white" stroke-width="1.5" pointer-events="none"/>
                </g>
                <g id="zoomMin">
                        <use xlink:href="#rim" fill="#404040">
                                <set attributeName="fill" to="#808080" begin="zoomminus.mouseover" end="zoomminus.mouseout"/>
                        </use>
                        <path d="M-4,0h8" fill="none" stroke="white" stroke-width="1.5" pointer-events="none"/>
                </g>
                <g id="dirArrow">
                        <path fill="none" stroke="white" stroke-width="1.5" d="M0,-3.0v7 M-2.5,-0.5L0,-3.0L2.5,-0.5"/>
                </g>
               <g id="resetDef">
                       <use xlink:href="#rim2" fill="#404040">
                               <set attributeName="fill" to="#808080" begin="reset.mouseover" end="reset.mouseout"/>
                       </use>
               </g>
        </defs>

<script type="text/javascript">
var viewWidth = 676;
var viewHeight = 272;
var sectionId = 'dynsection-1';
</script>
<script xlink:href="svgpan.js"/>
<svg id="graph" class="graph">
<g id="viewport">
<title>G</title>
<polygon fill="white" stroke="white" points="-4,5 -4,-268 673,-268 673,5 -4,5"/>
<!-- Node1 -->
<g id="node1" class="node"><title>Node1</title>
<polygon fill="#bfbfbf" stroke="black" points="116.5,-241 116.5,-263 169.5,-263 169.5,-241 116.5,-241"/>
<text text-anchor="middle" x="143" y="-250" font-family="FreeSans" font-size="10.00">thread.h</text>
</g>
<!-- Node2 -->
<g id="node3" class="node"><title>Node2</title>
<a xlink:href="framescheduler_8h.html" target="_top" xlink:title="This file has the Declarations for the main FrameScheduler class.">
<polygon fill="white" stroke="black" points="59,-181 59,-203 153,-203 153,-181 59,-181"/>
<text text-anchor="middle" x="106" y="-190" font-family="FreeSans" font-size="10.00">framescheduler.h</text>
</a>
</g>
<!-- Node1&#45;&gt;Node2 -->
<g id="edge2" class="edge"><title>Node1&#45;&gt;Node2</title>
<path fill="none" stroke="midnightblue" d="M130.925,-232.419C124.988,-222.792 118.044,-211.53 112.995,-203.343"/>
<polygon fill="midnightblue" stroke="midnightblue" points="127.986,-234.32 136.214,-240.995 133.944,-230.646 127.986,-234.32"/>
</g>
<!-- Node3 -->
<g id="node5" class="node"><title>Node3</title>
<a xlink:href="workunit_8h.html" target="_top" xlink:title="This file has the defintion of the workunit.">
<polygon fill="white" stroke="black" points="150.5,-121 150.5,-143 211.5,-143 211.5,-121 150.5,-121"/>
<text text-anchor="middle" x="181" y="-130" font-family="FreeSans" font-size="10.00">workunit.h</text>
</a>
</g>
<!-- Node1&#45;&gt;Node3 -->
<g id="edge38" class="edge"><title>Node1&#45;&gt;Node3</title>
<path fill="none" stroke="midnightblue" d="M151.809,-231.321C155.222,-222.924 159.017,-213.08 162,-204 168.941,-182.875 175.132,-157.635 178.447,-143.345"/>
<polygon fill="midnightblue" stroke="midnightblue" points="148.519,-230.118 147.916,-240.696 154.984,-232.802 148.519,-230.118"/>
</g>
<!-- Node6 -->
<g id="node11" class="node"><title>Node6</title>
<a xlink:href="dagframescheduler_8h.html" target="_top" xlink:title="This is the file that code using this library should include. It includes all the required components...">
<polygon fill="white" stroke="black" points="0,-1 0,-23 112,-23 112,-1 0,-1"/>
<text text-anchor="middle" x="56" y="-10" font-family="FreeSans" font-size="10.00">dagframescheduler.h</text>
</a>
</g>
<!-- Node1&#45;&gt;Node6 -->
<g id="edge34" class="edge"><title>Node1&#45;&gt;Node6</title>
<path fill="none" stroke="midnightblue" d="M106.73,-242.578C86.654,-235.404 63.1668,-223.37 50,-204 13.8969,-150.887 26.5412,-123.191 38,-60 40.382,-46.8642 46.1524,-32.6424 50.5226,-23.1171"/>
<polygon fill="midnightblue" stroke="midnightblue" points="105.658,-245.909 116.251,-245.72 107.851,-239.262 105.658,-245.909"/>
</g>
<!-- Node13 -->
<g id="node31" class="node"><title>Node13</title>
<a xlink:href="thread_8cpp.html" target="_top" xlink:title="This file implements a minimalistic cross&#45;platform thread that the scheduler uses to schedule tasks...">
<polygon fill="white" stroke="black" points="208.5,-181 208.5,-203 271.5,-203 271.5,-181 208.5,-181"/>
<text text-anchor="middle" x="240" y="-190" font-family="FreeSans" font-size="10.00">thread.cpp</text>
</a>
</g>
<!-- Node1&#45;&gt;Node13 -->
<g id="edge36" class="edge"><title>Node1&#45;&gt;Node13</title>
<path fill="none" stroke="midnightblue" d="M169.532,-235.589C186.199,-225.279 207.256,-212.254 221.993,-203.138"/>
<polygon fill="midnightblue" stroke="midnightblue" points="167.455,-232.758 160.791,-240.995 171.137,-238.711 167.455,-232.758"/>
</g>
<!-- Node2&#45;&gt;Node3 -->
<g id="edge4" class="edge"><title>Node2&#45;&gt;Node3</title>
<path fill="none" stroke="midnightblue" d="M127.596,-174.723C140.302,-164.558 155.999,-152.001 167.077,-143.138"/>
<polygon fill="midnightblue" stroke="midnightblue" points="125.378,-172.015 119.756,-180.995 129.751,-177.481 125.378,-172.015"/>
</g>
<!-- Node2&#45;&gt;Node6 -->
<g id="edge30" class="edge"><title>Node2&#45;&gt;Node6</title>
<path fill="none" stroke="midnightblue" d="M90.6825,-173.025C75.1794,-152.495 52.2199,-118.104 43,-84 37.2982,-62.9095 45.1266,-37.6574 50.8779,-23.3565"/>
<polygon fill="midnightblue" stroke="midnightblue" points="87.9176,-175.171 96.8083,-180.934 93.4516,-170.884 87.9176,-175.171"/>
</g>
<!-- Node7 -->
<g id="node13" class="node"><title>Node7</title>
<a xlink:href="framescheduler_8cpp.html" target="_top" xlink:title="This is the core object implementation for this algorithm.">
<polygon fill="white" stroke="black" points="564,-1 564,-23 668,-23 668,-1 564,-1"/>
<text text-anchor="middle" x="616" y="-10" font-family="FreeSans" font-size="10.00">framescheduler.cpp</text>
</a>
</g>
<!-- Node2&#45;&gt;Node7 -->
<g id="edge32" class="edge"><title>Node2&#45;&gt;Node7</title>
<path fill="none" stroke="midnightblue" d="M162.976,-184.564C245.509,-172.195 401.612,-142.722 522,-84 555.072,-67.8684 587.852,-39.0945 604.579,-23.2447"/>
<polygon fill="midnightblue" stroke="midnightblue" points="162.426,-181.107 153.041,-186.024 163.443,-188.033 162.426,-181.107"/>
</g>
<!-- Node4 -->
<g id="node7" class="node"><title>Node4</title>
<a xlink:href="monopoly_8h.html" target="_top" xlink:title="Contains an interface for a kind of WorkUnit that consumes time on multiple thread.">
<polygon fill="white" stroke="black" points="445,-61 445,-83 513,-83 513,-61 445,-61"/>
<text text-anchor="middle" x="479" y="-70" font-family="FreeSans" font-size="10.00">monopoly.h</text>
</a>
</g>
<!-- Node3&#45;&gt;Node4 -->
<g id="edge6" class="edge"><title>Node3&#45;&gt;Node4</title>
<path fill="none" stroke="midnightblue" d="M221.676,-125.455C272.193,-117.071 360.89,-101.515 436,-84 438.868,-83.3311 441.832,-82.5964 444.801,-81.8302"/>
<polygon fill="midnightblue" stroke="midnightblue" points="221.093,-122.004 211.795,-127.084 222.231,-128.91 221.093,-122.004"/>
</g>
<!-- Node3&#45;&gt;Node6 -->
<g id="edge26" class="edge"><title>Node3&#45;&gt;Node6</title>
<path fill="none" stroke="midnightblue" d="M140.356,-122.012C107.189,-112.942 64.2013,-98.7613 54,-84 41.4164,-65.7916 47.1896,-38.3429 51.9512,-23.1359"/>
<polygon fill="midnightblue" stroke="midnightblue" points="139.723,-125.466 150.287,-124.658 141.525,-118.701 139.723,-125.466"/>
</g>
<!-- Node9 -->
<g id="node17" class="node"><title>Node9</title>
<a xlink:href="asynchronousworkunit_8h.html" target="_top" xlink:title="Contains an interface for a kind of WorkUnit that loads or writes a.">
<polygon fill="white" stroke="black" points="62.5,-61 62.5,-83 185.5,-83 185.5,-61 62.5,-61"/>
<text text-anchor="middle" x="124" y="-70" font-family="FreeSans" font-size="10.00">asynchronousworkunit.h</text>
</a>
</g>
<!-- Node3&#45;&gt;Node9 -->
<g id="edge16" class="edge"><title>Node3&#45;&gt;Node9</title>
<path fill="none" stroke="midnightblue" d="M163.522,-113.602C154.14,-103.726 142.874,-91.8679 134.776,-83.3428"/>
<polygon fill="midnightblue" stroke="midnightblue" points="161.12,-116.156 170.545,-120.995 166.195,-111.334 161.12,-116.156"/>
</g>
<!-- Node10 -->
<g id="node20" class="node"><title>Node10</title>
<a xlink:href="frameschedulerworkunits_8h.html" target="_top" xlink:title="This defines a number of workunits that are required for doing some tasks that the Framescheduler req...">
<polygon fill="white" stroke="black" points="291,-61 291,-83 427,-83 427,-61 291,-61"/>
<text text-anchor="middle" x="359" y="-70" font-family="FreeSans" font-size="10.00">frameschedulerworkunits.h</text>
</a>
</g>
<!-- Node3&#45;&gt;Node10 -->
<g id="edge20" class="edge"><title>Node3&#45;&gt;Node10</title>
<path fill="none" stroke="midnightblue" d="M221.428,-118.373C253.078,-107.704 296.542,-93.0534 326.087,-83.0943"/>
<polygon fill="midnightblue" stroke="midnightblue" points="219.957,-115.175 211.599,-121.686 222.193,-121.808 219.957,-115.175"/>
</g>
<!-- Node12 -->
<g id="node26" class="node"><title>Node12</title>
<a xlink:href="workunit_8cpp.html" target="_top" xlink:title="This file has the implementation of the workunit.">
<polygon fill="white" stroke="black" points="202.5,-61 202.5,-83 273.5,-83 273.5,-61 202.5,-61"/>
<text text-anchor="middle" x="238" y="-70" font-family="FreeSans" font-size="10.00">workunit.cpp</text>
</a>
</g>
<!-- Node3&#45;&gt;Node12 -->
<g id="edge28" class="edge"><title>Node3&#45;&gt;Node12</title>
<path fill="none" stroke="midnightblue" d="M198.478,-113.602C207.86,-103.726 219.126,-91.8679 227.224,-83.3428"/>
<polygon fill="midnightblue" stroke="midnightblue" points="195.805,-111.334 191.455,-120.995 200.88,-116.156 195.805,-111.334"/>
</g>
<!-- Node5 -->
<g id="node9" class="node"><title>Node5</title>
<a xlink:href="asynchronousworkunit_8cpp.html" target="_top" xlink:title="Contains the minimal implementation for the monopoly base class.">
<polygon fill="white" stroke="black" points="412,-1 412,-23 546,-23 546,-1 412,-1"/>
<text text-anchor="middle" x="479" y="-10" font-family="FreeSans" font-size="10.00">asynchronousworkunit.cpp</text>
</a>
</g>
<!-- Node4&#45;&gt;Node5 -->
<g id="edge8" class="edge"><title>Node4&#45;&gt;Node5</title>
<path fill="none" stroke="midnightblue" d="M479,-50.9183C479,-41.6393 479,-31.1082 479,-23.3428"/>
<polygon fill="midnightblue" stroke="midnightblue" points="475.5,-50.995 479,-60.9951 482.5,-50.9951 475.5,-50.995"/>
</g>
<!-- Node4&#45;&gt;Node6 -->
<g id="edge10" class="edge"><title>Node4&#45;&gt;Node6</title>
<path fill="none" stroke="midnightblue" d="M434.955,-60.0036C305.612,-34.606 269.924,-40.5498 143,-24 133.021,-22.6989 122.405,-21.271 112.144,-19.8683"/>
<polygon fill="midnightblue" stroke="midnightblue" points="434.353,-63.4525 444.844,-61.97 435.719,-56.5869 434.353,-63.4525"/>
</g>
<!-- Node4&#45;&gt;Node7 -->
<g id="edge12" class="edge"><title>Node4&#45;&gt;Node7</title>
<path fill="none" stroke="midnightblue" d="M513.563,-56.8628C537.52,-46.371 568.886,-32.6338 590.567,-23.1383"/>
<polygon fill="midnightblue" stroke="midnightblue" points="511.884,-53.7773 504.128,-60.9951 514.692,-60.1893 511.884,-53.7773"/>
</g>
<!-- Node8 -->
<g id="node15" class="node"><title>Node8</title>
<a xlink:href="monopoly_8cpp.html" target="_top" xlink:title="Contains the minimal implementation for the monopoly base class.">
<polygon fill="white" stroke="black" points="315.5,-1 315.5,-23 394.5,-23 394.5,-1 315.5,-1"/>
<text text-anchor="middle" x="355" y="-10" font-family="FreeSans" font-size="10.00">monopoly.cpp</text>
</a>
</g>
<!-- Node4&#45;&gt;Node8 -->
<g id="edge14" class="edge"><title>Node4&#45;&gt;Node8</title>
<path fill="none" stroke="midnightblue" d="M447.137,-56.5823C425.529,-46.1271 397.469,-32.5494 378.019,-23.1383"/>
<polygon fill="midnightblue" stroke="midnightblue" points="445.73,-59.79 456.256,-60.9951 448.779,-53.4888 445.73,-59.79"/>
</g>
<!-- Node9&#45;&gt;Node6 -->
<g id="edge18" class="edge"><title>Node9&#45;&gt;Node6</title>
<path fill="none" stroke="midnightblue" d="M103.811,-54.186C92.4901,-44.1971 78.7083,-32.0367 68.8552,-23.3428"/>
<polygon fill="midnightblue" stroke="midnightblue" points="101.714,-57.0033 111.528,-60.9951 106.345,-51.7544 101.714,-57.0033"/>
</g>
<!-- Node10&#45;&gt;Node6 -->
<g id="edge22" class="edge"><title>Node10&#45;&gt;Node6</title>
<path fill="none" stroke="midnightblue" d="M293.567,-59.0429C239.338,-48.3045 163.093,-33.2066 111.735,-23.0366"/>
<polygon fill="midnightblue" stroke="midnightblue" points="292.936,-62.4858 303.425,-60.9951 294.295,-55.6192 292.936,-62.4858"/>
</g>
<!-- Node11 -->
<g id="node23" class="node"><title>Node11</title>
<a xlink:href="frameschedulerworkunits_8cpp.html" target="_top" xlink:title="The implementation of any workunits the framescheduler needs to work correctly.">
<polygon fill="white" stroke="black" points="152,-1 152,-23 298,-23 298,-1 152,-1"/>
<text text-anchor="middle" x="225" y="-10" font-family="FreeSans" font-size="10.00">frameschedulerworkunits.cpp</text>
</a>
</g>
<!-- Node10&#45;&gt;Node11 -->
<g id="edge24" class="edge"><title>Node10&#45;&gt;Node11</title>
<path fill="none" stroke="midnightblue" d="M325.194,-56.8628C301.762,-46.371 271.082,-32.6338 249.876,-23.1383"/>
<polygon fill="midnightblue" stroke="midnightblue" points="323.865,-60.1028 334.422,-60.9951 326.726,-53.714 323.865,-60.1028"/>
</g>
</g>
</svg>
        <g id="navigator" transform="translate(0 0)" fill="#404254">
                <rect fill="#f2f5e9" fill-opacity="0.5" stroke="#606060" stroke-width=".5" x="0" y="0" width="60" height="60"/>
                <use id="zoomplus" xlink:href="#zoomPlus" x="17" y="9" onmousedown="handleZoom(evt,'in')"/>
                <use id="zoomminus" xlink:href="#zoomMin" x="42" y="9" onmousedown="handleZoom(evt,'out')"/>
                <use id="reset" xlink:href="#resetDef" x="30" y="36" onmousedown="handleReset()"/>
                <g id="arrowUp" xlink:href="#dirArrow" transform="translate(30 24)" onmousedown="handlePan(0,-1)">
                  <use xlink:href="#rim" fill="#404040">
                        <set attributeName="fill" to="#808080" begin="arrowUp.mouseover" end="arrowUp.mouseout"/>
                  </use>
                  <path fill="none" stroke="white" stroke-width="1.5" d="M0,-3.0v7 M-2.5,-0.5L0,-3.0L2.5,-0.5"/>
                </g>
                <g id="arrowRight" xlink:href="#dirArrow" transform="rotate(90) translate(36 -43)" onmousedown="handlePan(1,0)">
                  <use xlink:href="#rim" fill="#404040">
                        <set attributeName="fill" to="#808080" begin="arrowRight.mouseover" end="arrowRight.mouseout"/>
                  </use>
                  <path fill="none" stroke="white" stroke-width="1.5" d="M0,-3.0v7 M-2.5,-0.5L0,-3.0L2.5,-0.5"/>
                </g>
                <g id="arrowDown" xlink:href="#dirArrow" transform="rotate(180) translate(-30 -48)" onmousedown="handlePan(0,1)">
                  <use xlink:href="#rim" fill="#404040">
                        <set attributeName="fill" to="#808080" begin="arrowDown.mouseover" end="arrowDown.mouseout"/>
                  </use>
                  <path fill="none" stroke="white" stroke-width="1.5" d="M0,-3.0v7 M-2.5,-0.5L0,-3.0L2.5,-0.5"/>
                </g>
                <g id="arrowLeft" xlink:href="#dirArrow" transform="rotate(270) translate(-36 17)" onmousedown="handlePan(-1,0)">
                  <use xlink:href="#rim" fill="#404040">
                        <set attributeName="fill" to="#808080" begin="arrowLeft.mouseover" end="arrowLeft.mouseout"/>
                  </use>
                  <path fill="none" stroke="white" stroke-width="1.5" d="M0,-3.0v7 M-2.5,-0.5L0,-3.0L2.5,-0.5"/>
                </g>
        </g>
</svg>
