<?xml version="1.0" encoding="UTF-8" standalone="no"?>
<!DOCTYPE svg PUBLIC "-//W3C//DTD SVG 1.1//EN"
 "http://www.w3.org/Graphics/SVG/1.1/DTD/svg11.dtd">
<!-- Generated by graphviz version 2.26.3 (20100126.1600)
 -->
<!-- Title: threadingenumerations.h Pages: 1 -->
<svg width="866pt" height="262pt"
 viewBox="0.00 0.00 866.08 262.00" xmlns="http://www.w3.org/2000/svg" xmlns:xlink="http://www.w3.org/1999/xlink">
<g id="graph1" class="graph" transform="scale(1 1) rotate(0) translate(4 258)">
<title>threadingenumerations.h</title>
<polygon fill="white" stroke="white" points="-4,5 -4,-258 863.078,-258 863.078,5 -4,5"/>
<!-- Node1 -->
<g id="node1" class="node"><title>Node1</title>
<polygon fill="#bfbfbf" stroke="black" points="696,-233 696,-253 818,-253 818,-233 696,-233"/>
<text text-anchor="middle" x="757" y="-240" font-family="FreeSans" font-size="10.00">threadingenumerations.h</text>
</g>
<!-- Node2 -->
<g id="node3" class="node"><title>Node2</title>
<a xlink:href="workunit_8h.html" target="_top" xlink:title="This file has the definition of the workunit.">
<polygon fill="white" stroke="black" points="559,-175 559,-195 619,-195 619,-175 559,-175"/>
<text text-anchor="middle" x="589" y="-182" font-family="FreeSans" font-size="10.00">workunit.h</text>
</a>
</g>
<!-- Node1&#45;&gt;Node2 -->
<g id="edge2" class="edge"><title>Node1&#45;&gt;Node2</title>
<path fill="none" stroke="midnightblue" d="M718.267,-229.628C687.773,-219.1 645.93,-204.654 618.209,-195.084"/>
<polygon fill="midnightblue" stroke="midnightblue" points="717.142,-232.942 727.737,-232.897 719.426,-226.325 717.142,-232.942"/>
</g>
<!-- Node6 -->
<g id="node11" class="node"><title>Node6</title>
<a xlink:href="dagframescheduler_8h.html" target="_top" xlink:title="This is the file that code using this library should include. It includes all the required components...">
<polygon fill="white" stroke="black" points="344,-1 344,-21 450,-21 450,-1 344,-1"/>
<text text-anchor="middle" x="397" y="-8" font-family="FreeSans" font-size="10.00">dagframescheduler.h</text>
</a>
</g>
<!-- Node1&#45;&gt;Node6 -->
<g id="edge36" class="edge"><title>Node1&#45;&gt;Node6</title>
<path fill="none" stroke="midnightblue" d="M776.58,-225.809C814.317,-190.674 889.457,-109.61 843,-58 817.118,-29.2469 562.599,-16.8107 450.056,-12.6864"/>
<polygon fill="midnightblue" stroke="midnightblue" points="774.183,-223.258 769.152,-232.582 778.9,-228.43 774.183,-223.258"/>
</g>
<!-- Node3 -->
<g id="node5" class="node"><title>Node3</title>
<a xlink:href="asynchronousworkunit_8h.html" target="_top" xlink:title="Contains an interface for a kind of WorkUnit that loads or does other work even when the frame schedu...">
<polygon fill="white" stroke="black" points="180.5,-117 180.5,-137 299.5,-137 299.5,-117 180.5,-117"/>
<text text-anchor="middle" x="240" y="-124" font-family="FreeSans" font-size="10.00">asynchronousworkunit.h</text>
</a>
</g>
<!-- Node2&#45;&gt;Node3 -->
<g id="edge4" class="edge"><title>Node2&#45;&gt;Node3</title>
<path fill="none" stroke="midnightblue" d="M548.917,-178.339C487.816,-168.184 370.985,-148.768 299.821,-136.942"/>
<polygon fill="midnightblue" stroke="midnightblue" points="548.504,-181.818 558.942,-180.005 549.652,-174.913 548.504,-181.818"/>
</g>
<!-- Node2&#45;&gt;Node6 -->
<g id="edge32" class="edge"><title>Node2&#45;&gt;Node6</title>
<path fill="none" stroke="midnightblue" d="M548.961,-178.366C519.751,-171.939 480.46,-159.845 452,-138 413.308,-108.301 401.395,-45.8453 398.121,-21.2576"/>
<polygon fill="midnightblue" stroke="midnightblue" points="548.336,-181.811 558.838,-180.41 549.754,-174.956 548.336,-181.811"/>
</g>
<!-- Node8 -->
<g id="node16" class="node"><title>Node8</title>
<a xlink:href="frameschedulerworkunits_8h.html" target="_top" xlink:title="This defines a number of workunits that are required for doing some tasks that the Framescheduler req...">
<polygon fill="white" stroke="black" points="460.5,-117 460.5,-137 591.5,-137 591.5,-117 460.5,-117"/>
<text text-anchor="middle" x="526" y="-124" font-family="FreeSans" font-size="10.00">frameschedulerworkunits.h</text>
</a>
</g>
<!-- Node2&#45;&gt;Node8 -->
<g id="edge16" class="edge"><title>Node2&#45;&gt;Node8</title>
<path fill="none" stroke="midnightblue" d="M570.382,-167.86C559.631,-157.962 546.462,-145.838 537.272,-137.378"/>
<polygon fill="midnightblue" stroke="midnightblue" points="568.299,-170.699 578.026,-174.897 573.04,-165.549 568.299,-170.699"/>
</g>
<!-- Node11 -->
<g id="node23" class="node"><title>Node11</title>
<a xlink:href="monopoly_8h.html" target="_top" xlink:title="Contains an interface for a kind of WorkUnit that consumes time on multiple thread.">
<polygon fill="white" stroke="black" points="619.5,-117 619.5,-137 684.5,-137 684.5,-117 619.5,-117"/>
<text text-anchor="middle" x="652" y="-124" font-family="FreeSans" font-size="10.00">monopoly.h</text>
</a>
</g>
<!-- Node2&#45;&gt;Node11 -->
<g id="edge24" class="edge"><title>Node2&#45;&gt;Node11</title>
<path fill="none" stroke="midnightblue" d="M607.618,-167.86C618.369,-157.962 631.538,-145.838 640.728,-137.378"/>
<polygon fill="midnightblue" stroke="midnightblue" points="604.96,-165.549 599.974,-174.897 609.701,-170.699 604.96,-165.549"/>
</g>
<!-- Node13 -->
<g id="node30" class="node"><title>Node13</title>
<a xlink:href="workunit_8cpp.html" target="_top" xlink:title="This file has the implementation of the Mezzanine::Threading::DefaultWorkUnit.">
<polygon fill="white" stroke="black" points="701.5,-117 701.5,-137 772.5,-137 772.5,-117 701.5,-117"/>
<text text-anchor="middle" x="737" y="-124" font-family="FreeSans" font-size="10.00">workunit.cpp</text>
</a>
</g>
<!-- Node2&#45;&gt;Node13 -->
<g id="edge34" class="edge"><title>Node2&#45;&gt;Node13</title>
<path fill="none" stroke="midnightblue" d="M624.143,-171.228C650.822,-160.773 686.907,-146.631 711.019,-137.182"/>
<polygon fill="midnightblue" stroke="midnightblue" points="622.813,-167.99 614.78,-174.897 625.367,-174.507 622.813,-167.99"/>
</g>
<!-- Node4 -->
<g id="node7" class="node"><title>Node4</title>
<a xlink:href="asynchronousfileloadingworkunit_8h.html" target="_top" xlink:title="The declaration of the AsynchronousFileLoadWorkUnit a workunit that loads a listing of files asynchro...">
<polygon fill="white" stroke="black" points="5.5,-59 5.5,-79 166.5,-79 166.5,-59 5.5,-59"/>
<text text-anchor="middle" x="86" y="-66" font-family="FreeSans" font-size="10.00">asynchronousfileloadingworkunit.h</text>
</a>
</g>
<!-- Node3&#45;&gt;Node4 -->
<g id="edge6" class="edge"><title>Node3&#45;&gt;Node4</title>
<path fill="none" stroke="midnightblue" d="M203.766,-113.354C175.879,-102.85 137.966,-88.5716 112.775,-79.0842"/>
<polygon fill="midnightblue" stroke="midnightblue" points="202.583,-116.648 213.175,-116.897 205.051,-110.097 202.583,-116.648"/>
</g>
<!-- Node3&#45;&gt;Node6 -->
<g id="edge14" class="edge"><title>Node3&#45;&gt;Node6</title>
<path fill="none" stroke="midnightblue" d="M223.584,-108.787C212.288,-93.9715 201.259,-73.1168 213,-58 228.977,-37.4292 295.322,-24.3472 343.775,-17.3459"/>
<polygon fill="midnightblue" stroke="midnightblue" points="221.047,-111.212 230.096,-116.723 226.459,-106.772 221.047,-111.212"/>
</g>
<!-- Node7 -->
<g id="node13" class="node"><title>Node7</title>
<a xlink:href="asynchronousworkunit_8cpp.html" target="_top" xlink:title="Contains very little actually.">
<polygon fill="white" stroke="black" points="221.5,-59 221.5,-79 350.5,-79 350.5,-59 221.5,-59"/>
<text text-anchor="middle" x="286" y="-66" font-family="FreeSans" font-size="10.00">asynchronousworkunit.cpp</text>
</a>
</g>
<!-- Node3&#45;&gt;Node7 -->
<g id="edge12" class="edge"><title>Node3&#45;&gt;Node7</title>
<path fill="none" stroke="midnightblue" d="M254.291,-108.981C262.007,-99.2522 271.257,-87.5889 277.769,-79.3776"/>
<polygon fill="midnightblue" stroke="midnightblue" points="251.484,-106.887 248.013,-116.897 256.969,-111.237 251.484,-106.887"/>
</g>
<!-- Node5 -->
<g id="node9" class="node"><title>Node5</title>
<a xlink:href="asynchronousfileloadingworkunit_8cpp.html" target="_top" xlink:title="The implementation of the AsynchronousFileLoadWorkUnit a workunit that loads a listing of files async...">
<polygon fill="white" stroke="black" points="0,-1 0,-21 172,-21 172,-1 0,-1"/>
<text text-anchor="middle" x="86" y="-8" font-family="FreeSans" font-size="10.00">asynchronousfileloadingworkunit.cpp</text>
</a>
</g>
<!-- Node4&#45;&gt;Node5 -->
<g id="edge8" class="edge"><title>Node4&#45;&gt;Node5</title>
<path fill="none" stroke="midnightblue" d="M86,-48.8902C86,-39.6201 86,-29.0083 86,-21.3776"/>
<polygon fill="midnightblue" stroke="midnightblue" points="82.5001,-48.8971 86,-58.8972 89.5001,-48.8972 82.5001,-48.8971"/>
</g>
<!-- Node4&#45;&gt;Node6 -->
<g id="edge10" class="edge"><title>Node4&#45;&gt;Node6</title>
<path fill="none" stroke="midnightblue" d="M149.839,-57.0944C207.091,-46.4172 290.122,-30.9322 343.842,-20.9138"/>
<polygon fill="midnightblue" stroke="midnightblue" points="149.006,-53.6893 139.817,-58.9634 150.289,-60.5706 149.006,-53.6893"/>
</g>
<!-- Node8&#45;&gt;Node6 -->
<g id="edge18" class="edge"><title>Node8&#45;&gt;Node6</title>
<path fill="none" stroke="midnightblue" d="M487.195,-113.034C469.707,-105.311 449.726,-94.339 435,-80 417.363,-62.8272 405.742,-35.6911 400.396,-21.0926"/>
<polygon fill="midnightblue" stroke="midnightblue" points="486.03,-116.341 496.605,-116.991 488.743,-109.888 486.03,-116.341"/>
</g>
<!-- Node9 -->
<g id="node19" class="node"><title>Node9</title>
<a xlink:href="framescheduler_8cpp.html" target="_top" xlink:title="This is the core object implementation for this algorithm.">
<polygon fill="white" stroke="black" points="601.5,-59 601.5,-79 702.5,-79 702.5,-59 601.5,-59"/>
<text text-anchor="middle" x="652" y="-66" font-family="FreeSans" font-size="10.00">framescheduler.cpp</text>
</a>
</g>
<!-- Node8&#45;&gt;Node9 -->
<g id="edge20" class="edge"><title>Node8&#45;&gt;Node9</title>
<path fill="none" stroke="midnightblue" d="M557.122,-112.674C579.707,-102.278 609.713,-88.4654 629.881,-79.1817"/>
<polygon fill="midnightblue" stroke="midnightblue" points="555.568,-109.536 547.948,-116.897 558.495,-115.895 555.568,-109.536"/>
</g>
<!-- Node10 -->
<g id="node21" class="node"><title>Node10</title>
<a xlink:href="frameschedulerworkunits_8cpp.html" target="_top" xlink:title="The implementation of any workunits the framescheduler needs to work correctly.">
<polygon fill="white" stroke="black" points="443.5,-59 443.5,-79 584.5,-79 584.5,-59 443.5,-59"/>
<text text-anchor="middle" x="514" y="-66" font-family="FreeSans" font-size="10.00">frameschedulerworkunits.cpp</text>
</a>
</g>
<!-- Node8&#45;&gt;Node10 -->
<g id="edge22" class="edge"><title>Node8&#45;&gt;Node10</title>
<path fill="none" stroke="midnightblue" d="M521.839,-106.89C519.921,-97.6201 517.726,-87.0083 516.147,-79.3776"/>
<polygon fill="midnightblue" stroke="midnightblue" points="518.456,-107.814 523.91,-116.897 525.311,-106.395 518.456,-107.814"/>
</g>
<!-- Node11&#45;&gt;Node6 -->
<g id="edge26" class="edge"><title>Node11&#45;&gt;Node6</title>
<path fill="none" stroke="midnightblue" d="M679.968,-111.759C702.116,-97.7597 726.893,-76.4486 711,-58 694.226,-38.5285 535.242,-22.483 450.154,-15.206"/>
<polygon fill="midnightblue" stroke="midnightblue" points="678.151,-108.768 671.389,-116.924 681.762,-114.765 678.151,-108.768"/>
</g>
<!-- Node11&#45;&gt;Node9 -->
<g id="edge28" class="edge"><title>Node11&#45;&gt;Node9</title>
<path fill="none" stroke="midnightblue" d="M652,-106.89C652,-97.6201 652,-87.0083 652,-79.3776"/>
<polygon fill="midnightblue" stroke="midnightblue" points="648.5,-106.897 652,-116.897 655.5,-106.897 648.5,-106.897"/>
</g>
<!-- Node12 -->
<g id="node27" class="node"><title>Node12</title>
<a xlink:href="monopoly_8cpp.html" target="_top" xlink:title="Contains the minimal implementation for the monopoly base class.">
<polygon fill="white" stroke="black" points="758,-59 758,-79 834,-79 834,-59 758,-59"/>
<text text-anchor="middle" x="796" y="-66" font-family="FreeSans" font-size="10.00">monopoly.cpp</text>
</a>
</g>
<!-- Node11&#45;&gt;Node12 -->
<g id="edge30" class="edge"><title>Node11&#45;&gt;Node12</title>
<path fill="none" stroke="midnightblue" d="M686.536,-113.09C712.459,-102.649 747.363,-88.5898 770.721,-79.1817"/>
<polygon fill="midnightblue" stroke="midnightblue" points="685.051,-109.914 677.083,-116.897 687.666,-116.408 685.051,-109.914"/>
</g>
</g>
</svg>
