<?xml version="1.0" encoding="UTF-8" standalone="no"?>
<!DOCTYPE svg PUBLIC "-//W3C//DTD SVG 1.1//EN"
 "http://www.w3.org/Graphics/SVG/1.1/DTD/svg11.dtd">
<!-- Generated by graphviz version 2.26.3 (20100126.1600)
 -->
<!-- Title: thread.cpp Pages: 1 -->
<svg width="538pt" height="320pt"
 viewBox="0.00 0.00 538.00 320.00" xmlns="http://www.w3.org/2000/svg" xmlns:xlink="http://www.w3.org/1999/xlink">
<g id="graph1" class="graph" transform="scale(1 1) rotate(0) translate(4 316)">
<title>thread.cpp</title>
<polygon fill="white" stroke="white" points="-4,5 -4,-316 535,-316 535,5 -4,5"/>
<!-- Node1 -->
<g id="node1" class="node"><title>Node1</title>
<polygon fill="#bfbfbf" stroke="black" points="309,-291 309,-311 371,-311 371,-291 309,-291"/>
<text text-anchor="middle" x="340" y="-298" font-family="FreeSans" font-size="10.00">thread.cpp</text>
</g>
<!-- Node2 -->
<g id="node3" class="node"><title>Node2</title>
<a xlink:href="thread_8h.html" target="_top" xlink:title="This file defines a minimalistic cross&#45;platform thread that the scheduler uses to schedule tasks...">
<polygon fill="white" stroke="black" points="131.5,-233 131.5,-253 182.5,-253 182.5,-233 131.5,-233"/>
<text text-anchor="middle" x="157" y="-240" font-family="FreeSans" font-size="10.00">thread.h</text>
</a>
</g>
<!-- Node1&#45;&gt;Node2 -->
<g id="edge2" class="edge"><title>Node1&#45;&gt;Node2</title>
<path fill="none" stroke="midnightblue" d="M308.957,-291.161C276.704,-280.939 226.312,-264.968 192.499,-254.251"/>
<polygon fill="midnightblue" stroke="midnightblue" points="193.166,-250.791 182.576,-251.106 191.051,-257.464 193.166,-250.791"/>
</g>
<!-- Node12 -->
<g id="node25" class="node"><title>Node12</title>
<a xlink:href="crossplatformincludes_8h.html" target="_top" xlink:title="This file determines what features are offered by the compiler that this library can take advantage o...">
<polygon fill="white" stroke="black" points="281.5,-233 281.5,-253 398.5,-253 398.5,-233 281.5,-233"/>
<text text-anchor="middle" x="340" y="-240" font-family="FreeSans" font-size="10.00">crossplatformincludes.h</text>
</a>
</g>
<!-- Node1&#45;&gt;Node12 -->
<g id="edge26" class="edge"><title>Node1&#45;&gt;Node12</title>
<path fill="none" stroke="midnightblue" d="M340,-290.897C340,-283.339 340,-272.748 340,-263.446"/>
<polygon fill="midnightblue" stroke="midnightblue" points="343.5,-263.378 340,-253.378 336.5,-263.378 343.5,-263.378"/>
</g>
<!-- Node17 -->
<g id="node36" class="node"><title>Node17</title>
<polygon fill="white" stroke="#bfbfbf" points="415.5,-233 415.5,-253 450.5,-253 450.5,-233 415.5,-233"/>
<text text-anchor="middle" x="433" y="-240" font-family="FreeSans" font-size="10.00">map</text>
</g>
<!-- Node1&#45;&gt;Node17 -->
<g id="edge38" class="edge"><title>Node1&#45;&gt;Node17</title>
<path fill="none" stroke="midnightblue" d="M356.199,-290.897C370.514,-281.97 391.614,-268.811 408.077,-258.543"/>
<polygon fill="midnightblue" stroke="midnightblue" points="410.041,-261.443 416.674,-253.182 406.337,-255.504 410.041,-261.443"/>
</g>
<!-- Node3 -->
<g id="node5" class="node"><title>Node3</title>
<a xlink:href="systemcalls_8h.html" target="_top" xlink:title="This file defines a minimalistic cross&#45;platform thread that the scheduler uses to schedule tasks...">
<polygon fill="white" stroke="black" points="169,-117 169,-137 243,-137 243,-117 169,-117"/>
<text text-anchor="middle" x="206" y="-124" font-family="FreeSans" font-size="10.00">systemcalls.h</text>
</a>
</g>
<!-- Node2&#45;&gt;Node3 -->
<g id="edge4" class="edge"><title>Node2&#45;&gt;Node3</title>
<path fill="none" stroke="midnightblue" d="M164.871,-232.689C171.566,-223.493 181.022,-209.445 187,-196 194.011,-180.233 199.007,-161.267 202.11,-147.213"/>
<polygon fill="midnightblue" stroke="midnightblue" points="205.594,-147.652 204.196,-137.149 198.739,-146.231 205.594,-147.652"/>
</g>
<!-- Node8 -->
<g id="node15" class="node"><title>Node8</title>
<a xlink:href="mutex_8h.html" target="_top" xlink:title="This file declares and defines a mutex that is a partial implementation.">
<polygon fill="white" stroke="black" points="0,-175 0,-195 50,-195 50,-175 0,-175"/>
<text text-anchor="middle" x="25" y="-182" font-family="FreeSans" font-size="10.00">mutex.h</text>
</a>
</g>
<!-- Node2&#45;&gt;Node8 -->
<g id="edge14" class="edge"><title>Node2&#45;&gt;Node8</title>
<path fill="none" stroke="midnightblue" d="M134.007,-232.897C112.843,-223.598 81.2289,-209.707 57.4884,-199.275"/>
<polygon fill="midnightblue" stroke="midnightblue" points="58.7352,-196 48.1721,-195.182 55.9193,-202.409 58.7352,-196"/>
</g>
<!-- Node10 -->
<g id="node21" class="node"><title>Node10</title>
<polygon fill="white" stroke="#bfbfbf" points="67.5,-175 67.5,-195 118.5,-195 118.5,-175 67.5,-175"/>
<text text-anchor="middle" x="93" y="-182" font-family="FreeSans" font-size="10.00">ostream</text>
</g>
<!-- Node2&#45;&gt;Node10 -->
<g id="edge22" class="edge"><title>Node2&#45;&gt;Node10</title>
<path fill="none" stroke="midnightblue" d="M145.852,-232.897C136.515,-224.435 122.982,-212.172 111.948,-202.172"/>
<polygon fill="midnightblue" stroke="midnightblue" points="114.211,-199.499 104.451,-195.378 109.511,-204.686 114.211,-199.499"/>
</g>
<!-- Node11 -->
<g id="node23" class="node"><title>Node11</title>
<polygon fill="white" stroke="#bfbfbf" points="135.5,-175 135.5,-195 178.5,-195 178.5,-175 135.5,-175"/>
<text text-anchor="middle" x="157" y="-182" font-family="FreeSans" font-size="10.00">vector</text>
</g>
<!-- Node2&#45;&gt;Node11 -->
<g id="edge24" class="edge"><title>Node2&#45;&gt;Node11</title>
<path fill="none" stroke="midnightblue" d="M157,-232.897C157,-225.339 157,-214.748 157,-205.446"/>
<polygon fill="midnightblue" stroke="midnightblue" points="160.5,-205.378 157,-195.378 153.5,-205.378 160.5,-205.378"/>
</g>
<!-- Node4 -->
<g id="node7" class="node"><title>Node4</title>
<a xlink:href="datatypes_8h.html" target="_top" xlink:title="This file declares a few typedefs to allow flexibility, in case a change is required/desired.">
<polygon fill="white" stroke="black" points="143.5,-59 143.5,-79 208.5,-79 208.5,-59 143.5,-59"/>
<text text-anchor="middle" x="176" y="-66" font-family="FreeSans" font-size="10.00">datatypes.h</text>
</a>
</g>
<!-- Node3&#45;&gt;Node4 -->
<g id="edge6" class="edge"><title>Node3&#45;&gt;Node4</title>
<path fill="none" stroke="midnightblue" d="M200.774,-116.897C196.738,-109.093 191.028,-98.0536 186.107,-88.5401"/>
<polygon fill="midnightblue" stroke="midnightblue" points="189.071,-86.6518 181.368,-79.3776 182.853,-89.8678 189.071,-86.6518"/>
</g>
<!-- Node5 -->
<g id="node9" class="node"><title>Node5</title>
<a xlink:href="crossplatformexport_8h.html" target="_top" xlink:title="This file determines what features are offered by the compiler that this library can take advantage o...">
<polygon fill="white" stroke="black" points="222,-1 222,-21 330,-21 330,-1 222,-1"/>
<text text-anchor="middle" x="276" y="-8" font-family="FreeSans" font-size="10.00">crossplatformexport.h</text>
</a>
</g>
<!-- Node4&#45;&gt;Node5 -->
<g id="edge8" class="edge"><title>Node4&#45;&gt;Node5</title>
<path fill="none" stroke="midnightblue" d="M193.419,-58.8972C208.953,-49.8871 231.92,-36.5665 249.692,-26.2586"/>
<polygon fill="midnightblue" stroke="midnightblue" points="251.551,-29.2265 258.445,-21.1817 248.039,-23.1713 251.551,-29.2265"/>
</g>
<!-- Node6 -->
<g id="node11" class="node"><title>Node6</title>
<polygon fill="white" stroke="#bfbfbf" points="35,-1 35,-21 75,-21 75,-1 35,-1"/>
<text text-anchor="middle" x="55" y="-8" font-family="FreeSans" font-size="10.00">string</text>
</g>
<!-- Node4&#45;&gt;Node6 -->
<g id="edge10" class="edge"><title>Node4&#45;&gt;Node6</title>
<path fill="none" stroke="midnightblue" d="M154.923,-58.8972C135.342,-49.5108 106,-35.4464 84.1724,-24.9835"/>
<polygon fill="midnightblue" stroke="midnightblue" points="85.562,-21.7683 75.0316,-20.6019 82.5363,-28.0806 85.562,-21.7683"/>
</g>
<!-- Node7 -->
<g id="node13" class="node"><title>Node7</title>
<polygon fill="white" stroke="#bfbfbf" points="152.5,-1 152.5,-21 199.5,-21 199.5,-1 152.5,-1"/>
<text text-anchor="middle" x="176" y="-8" font-family="FreeSans" font-size="10.00">stdint.h</text>
</g>
<!-- Node4&#45;&gt;Node7 -->
<g id="edge12" class="edge"><title>Node4&#45;&gt;Node7</title>
<path fill="none" stroke="midnightblue" d="M176,-58.8972C176,-51.339 176,-40.7476 176,-31.4458"/>
<polygon fill="midnightblue" stroke="midnightblue" points="179.5,-31.3776 176,-21.3776 172.5,-31.3776 179.5,-31.3776"/>
</g>
<!-- Node8&#45;&gt;Node6 -->
<g id="edge20" class="edge"><title>Node8&#45;&gt;Node6</title>
<path fill="none" stroke="midnightblue" d="M26.7426,-174.893C31.5478,-147.023 45.056,-68.6753 51.4977,-31.3131"/>
<polygon fill="midnightblue" stroke="midnightblue" points="55.0026,-31.5843 53.2526,-21.135 48.1043,-30.3949 55.0026,-31.5843"/>
</g>
<!-- Node9 -->
<g id="node17" class="node"><title>Node9</title>
<a xlink:href="atomicoperations_8h.html" target="_top" xlink:title="Simple thread safe ways to check and change a specified variable atomically.">
<polygon fill="white" stroke="black" points="53,-117 53,-137 151,-137 151,-117 53,-117"/>
<text text-anchor="middle" x="102" y="-124" font-family="FreeSans" font-size="10.00">atomicoperations.h</text>
</a>
</g>
<!-- Node8&#45;&gt;Node9 -->
<g id="edge16" class="edge"><title>Node8&#45;&gt;Node9</title>
<path fill="none" stroke="midnightblue" d="M38.4124,-174.897C49.935,-166.218 66.768,-153.538 80.2206,-143.405"/>
<polygon fill="midnightblue" stroke="midnightblue" points="82.6012,-145.994 88.483,-137.182 78.3896,-140.403 82.6012,-145.994"/>
</g>
<!-- Node9&#45;&gt;Node4 -->
<g id="edge18" class="edge"><title>Node9&#45;&gt;Node4</title>
<path fill="none" stroke="midnightblue" d="M114.89,-116.897C125.896,-108.271 141.942,-95.6938 154.831,-85.592"/>
<polygon fill="midnightblue" stroke="midnightblue" points="157.048,-88.3012 162.76,-79.3776 152.73,-82.7918 157.048,-88.3012"/>
</g>
<!-- Node12&#45;&gt;Node5 -->
<g id="edge28" class="edge"><title>Node12&#45;&gt;Node5</title>
<path fill="none" stroke="midnightblue" d="M337.167,-232.732C327.337,-197.098 294.583,-78.3618 281.483,-30.8762"/>
<polygon fill="midnightblue" stroke="midnightblue" points="284.833,-29.8587 278.8,-21.1495 278.085,-31.7202 284.833,-29.8587"/>
</g>
<!-- Node13 -->
<g id="node28" class="node"><title>Node13</title>
<polygon fill="white" stroke="#bfbfbf" points="340,-175 340,-195 396,-195 396,-175 340,-175"/>
<text text-anchor="middle" x="368" y="-182" font-family="FreeSans" font-size="10.00">pthread.h</text>
</g>
<!-- Node12&#45;&gt;Node13 -->
<g id="edge30" class="edge"><title>Node12&#45;&gt;Node13</title>
<path fill="none" stroke="midnightblue" d="M344.877,-232.897C348.645,-225.093 353.974,-214.054 358.567,-204.54"/>
<polygon fill="midnightblue" stroke="midnightblue" points="361.795,-205.905 362.99,-195.378 355.491,-202.861 361.795,-205.905"/>
</g>
<!-- Node14 -->
<g id="node30" class="node"><title>Node14</title>
<polygon fill="white" stroke="#bfbfbf" points="413.5,-175 413.5,-195 462.5,-195 462.5,-175 413.5,-175"/>
<text text-anchor="middle" x="438" y="-182" font-family="FreeSans" font-size="10.00">signal.h</text>
</g>
<!-- Node12&#45;&gt;Node14 -->
<g id="edge32" class="edge"><title>Node12&#45;&gt;Node14</title>
<path fill="none" stroke="midnightblue" d="M357.07,-232.897C372.154,-223.97 394.389,-210.811 411.738,-200.543"/>
<polygon fill="midnightblue" stroke="midnightblue" points="413.973,-203.287 420.797,-195.182 410.408,-197.263 413.973,-203.287"/>
</g>
<!-- Node15 -->
<g id="node32" class="node"><title>Node15</title>
<polygon fill="white" stroke="#bfbfbf" points="480,-175 480,-195 530,-195 530,-175 480,-175"/>
<text text-anchor="middle" x="505" y="-182" font-family="FreeSans" font-size="10.00">sched.h</text>
</g>
<!-- Node12&#45;&gt;Node15 -->
<g id="edge34" class="edge"><title>Node12&#45;&gt;Node15</title>
<path fill="none" stroke="midnightblue" d="M368.741,-232.897C396.945,-222.983 439.997,-207.85 470.14,-197.254"/>
<polygon fill="midnightblue" stroke="midnightblue" points="471.554,-200.467 479.828,-193.848 469.233,-193.863 471.554,-200.467"/>
</g>
<!-- Node16 -->
<g id="node34" class="node"><title>Node16</title>
<polygon fill="white" stroke="#bfbfbf" points="234,-175 234,-195 284,-195 284,-175 234,-175"/>
<text text-anchor="middle" x="259" y="-182" font-family="FreeSans" font-size="10.00">unistd.h</text>
</g>
<!-- Node12&#45;&gt;Node16 -->
<g id="edge36" class="edge"><title>Node12&#45;&gt;Node16</title>
<path fill="none" stroke="midnightblue" d="M325.891,-232.897C313.654,-224.135 295.724,-211.297 281.507,-201.116"/>
<polygon fill="midnightblue" stroke="midnightblue" points="283.387,-198.158 273.219,-195.182 279.312,-203.849 283.387,-198.158"/>
</g>
</g>
</svg>
