<?xml version="1.0" encoding="UTF-8" standalone="no"?>
<!DOCTYPE svg PUBLIC "-//W3C//DTD SVG 1.1//EN"
 "http://www.w3.org/Graphics/SVG/1.1/DTD/svg11.dtd">
<!-- Generated by graphviz version 2.26.3 (20100126.1600)
 -->
<!-- Title: G Pages: 1 -->
<!--zoomable 392 -->
<svg id="main" version="1.1" xmlns="http://www.w3.org/2000/svg" xmlns:xlink="http://www.w3.org/1999/xlink" xml:space="preserve" onload="init(evt)">
        <defs>
                <circle id="rim" cx="0" cy="0" r="7"/>
                <circle id="rim2" cx="0" cy="0" r="3.5"/>
                <g id="zoomPlus">
                        <use xlink:href="#rim" fill="#404040">
                                <set attributeName="fill" to="#808080" begin="zoomplus.mouseover" end="zoomplus.mouseout"/>
                        </use>
                        <path d="M-4,0h8M0,-4v8" fill="none" stroke="white" stroke-width="1.5" pointer-events="none"/>
                </g>
                <g id="zoomMin">
                        <use xlink:href="#rim" fill="#404040">
                                <set attributeName="fill" to="#808080" begin="zoomminus.mouseover" end="zoomminus.mouseout"/>
                        </use>
                        <path d="M-4,0h8" fill="none" stroke="white" stroke-width="1.5" pointer-events="none"/>
                </g>
                <g id="dirArrow">
                        <path fill="none" stroke="white" stroke-width="1.5" d="M0,-3.0v7 M-2.5,-0.5L0,-3.0L2.5,-0.5"/>
                </g>
               <g id="resetDef">
                       <use xlink:href="#rim2" fill="#404040">
                               <set attributeName="fill" to="#808080" begin="reset.mouseover" end="reset.mouseout"/>
                       </use>
               </g>
        </defs>

<script type="text/javascript">
var viewWidth = 948;
var viewHeight = 392;
var sectionId = 'dynsection-0';
</script>
<script xlink:href="svgpan.js"/>
<svg id="graph" class="graph">
<g id="viewport">
<title>G</title>
<polygon fill="white" stroke="white" points="-4,5 -4,-388 945,-388 945,5 -4,5"/>
<!-- Node1 -->
<g id="node1" class="node"><title>Node1</title>
<polygon fill="#bfbfbf" stroke="black" points="351.5,-361 351.5,-383 412.5,-383 412.5,-361 351.5,-361"/>
<text text-anchor="middle" x="382" y="-370" font-family="FreeSans" font-size="10.00">workunit.h</text>
</g>
<!-- Node2 -->
<g id="node3" class="node"><title>Node2</title>
<a xlink:href="datatypes_8h.html" target="_top" xlink:title="This file declares a few typedefs to allow flexibility, in case a change is required/desired.">
<polygon fill="white" stroke="black" points="482,-121 482,-143 550,-143 550,-121 482,-121"/>
<text text-anchor="middle" x="516" y="-130" font-family="FreeSans" font-size="10.00">datatypes.h</text>
</a>
</g>
<!-- Node1&#45;&gt;Node2 -->
<g id="edge2" class="edge"><title>Node1&#45;&gt;Node2</title>
<path fill="none" stroke="midnightblue" d="M363.454,-360.917C315.125,-330.705 192.717,-244.827 247,-180 275.136,-146.399 402.782,-136.297 471.642,-133.276"/>
<polygon fill="midnightblue" stroke="midnightblue" points="471.911,-136.768 481.76,-132.865 471.626,-129.774 471.911,-136.768"/>
</g>
<!-- Node10 -->
<g id="node19" class="node"><title>Node10</title>
<a xlink:href="framescheduler_8h.html" target="_top" xlink:title="This file has the Declarations for the main FrameScheduler class.">
<polygon fill="white" stroke="black" points="464,-301 464,-323 558,-323 558,-301 464,-301"/>
<text text-anchor="middle" x="511" y="-310" font-family="FreeSans" font-size="10.00">framescheduler.h</text>
</a>
</g>
<!-- Node1&#45;&gt;Node10 -->
<g id="edge18" class="edge"><title>Node1&#45;&gt;Node10</title>
<path fill="none" stroke="midnightblue" d="M405.661,-360.995C425.9,-351.582 455.252,-337.929 477.835,-327.426"/>
<polygon fill="midnightblue" stroke="midnightblue" points="479.461,-330.529 487.053,-323.138 476.509,-324.182 479.461,-330.529"/>
</g>
<!-- Node14 -->
<g id="node29" class="node"><title>Node14</title>
<polygon fill="white" stroke="#bfbfbf" points="388,-181 388,-203 432,-203 432,-181 388,-181"/>
<text text-anchor="middle" x="410" y="-190" font-family="FreeSans" font-size="10.00">vector</text>
</g>
<!-- Node1&#45;&gt;Node14 -->
<g id="edge84" class="edge"><title>Node1&#45;&gt;Node14</title>
<path fill="none" stroke="midnightblue" d="M383.752,-360.74C388.328,-331.319 400.703,-251.769 406.68,-213.345"/>
<polygon fill="midnightblue" stroke="midnightblue" points="410.17,-213.675 408.249,-203.256 403.254,-212.599 410.17,-213.675"/>
</g>
<!-- Node15 -->
<g id="node31" class="node"><title>Node15</title>
<a xlink:href="thread_8h.html" target="_top" xlink:title="This file defines a minimalistic cross&#45;platform thread that the scheduler uses to schedule tasks...">
<polygon fill="white" stroke="black" points="147.5,-241 147.5,-263 200.5,-263 200.5,-241 147.5,-241"/>
<text text-anchor="middle" x="174" y="-250" font-family="FreeSans" font-size="10.00">thread.h</text>
</a>
</g>
<!-- Node1&#45;&gt;Node15 -->
<g id="edge80" class="edge"><title>Node1&#45;&gt;Node15</title>
<path fill="none" stroke="midnightblue" d="M351.317,-366.166C308.927,-357.622 235.263,-340.88 214,-324 197.463,-310.872 186.696,-288.935 180.544,-272.718"/>
<polygon fill="midnightblue" stroke="midnightblue" points="183.762,-271.319 177.153,-263.038 177.155,-273.633 183.762,-271.319"/>
</g>
<!-- Node17 -->
<g id="node37" class="node"><title>Node17</title>
<a xlink:href="mutex_8h.html" target="_top" xlink:title="This file declares and defines a mutex that is a partial implementation.">
<polygon fill="white" stroke="black" points="109.5,-121 109.5,-143 160.5,-143 160.5,-121 109.5,-121"/>
<text text-anchor="middle" x="135" y="-130" font-family="FreeSans" font-size="10.00">mutex.h</text>
</a>
</g>
<!-- Node1&#45;&gt;Node17 -->
<g id="edge70" class="edge"><title>Node1&#45;&gt;Node17</title>
<path fill="none" stroke="midnightblue" d="M351.294,-370.233C311.179,-366.677 240.051,-356 189,-324 138.644,-292.436 134.42,-263.266 130,-204 128.735,-187.041 130.217,-167.828 131.888,-153.516"/>
<polygon fill="midnightblue" stroke="midnightblue" points="135.407,-153.593 133.221,-143.227 128.465,-152.694 135.407,-153.593"/>
</g>
<!-- Node19 -->
<g id="node44" class="node"><title>Node19</title>
<a xlink:href="workunitkey_8h.html" target="_top" xlink:title="This file defines the metadata used to sort workunits.">
<polygon fill="white" stroke="black" points="863.5,-241 863.5,-263 940.5,-263 940.5,-241 863.5,-241"/>
<text text-anchor="middle" x="902" y="-250" font-family="FreeSans" font-size="10.00">workunitkey.h</text>
</a>
</g>
<!-- Node1&#45;&gt;Node19 -->
<g id="edge82" class="edge"><title>Node1&#45;&gt;Node19</title>
<path fill="none" stroke="midnightblue" d="M412.75,-367.036C450.259,-360.306 515.083,-346.478 567,-324 585.331,-316.064 586.258,-306.909 605,-300 707.346,-262.273 742.888,-284.566 853.481,-264.118"/>
<polygon fill="midnightblue" stroke="midnightblue" points="854.188,-267.546 863.346,-262.218 852.865,-260.672 854.188,-267.546"/>
</g>
<!-- Node25 -->
<g id="node61" class="node"><title>Node25</title>
<a xlink:href="rollingaverage_8h.html" target="_top" xlink:title="This stores the implementation and the declaration of the RollingAverage, BufferedRollingAverage, WeightedRollingAverage and the DefaultRollingAverage.">
<polygon fill="white" stroke="black" points="293.5,-241 293.5,-263 382.5,-263 382.5,-241 293.5,-241"/>
<text text-anchor="middle" x="338" y="-250" font-family="FreeSans" font-size="10.00">rollingaverage.h</text>
</a>
</g>
<!-- Node1&#45;&gt;Node25 -->
<g id="edge72" class="edge"><title>Node1&#45;&gt;Node25</title>
<path fill="none" stroke="midnightblue" d="M377.939,-360.926C370.572,-340.834 354.901,-298.093 345.528,-272.531"/>
<polygon fill="midnightblue" stroke="midnightblue" points="348.779,-271.231 342.051,-263.047 342.207,-273.641 348.779,-271.231"/>
</g>
<!-- Node26 -->
<g id="node65" class="node"><title>Node26</title>
<a xlink:href="threadingenumerations_8h.html" target="_top" xlink:title="Any enumerations the threading library requires are all declared here.">
<polygon fill="white" stroke="black" points="613.5,-301 613.5,-323 740.5,-323 740.5,-301 613.5,-301"/>
<text text-anchor="middle" x="677" y="-310" font-family="FreeSans" font-size="10.00">threadingenumerations.h</text>
</a>
</g>
<!-- Node1&#45;&gt;Node26 -->
<g id="edge78" class="edge"><title>Node1&#45;&gt;Node26</title>
<path fill="none" stroke="midnightblue" d="M412.735,-365.749C459.845,-356.167 550.94,-337.639 612.859,-325.046"/>
<polygon fill="midnightblue" stroke="midnightblue" points="613.814,-328.423 622.916,-323 612.419,-321.564 613.814,-328.423"/>
</g>
<!-- Node3 -->
<g id="node5" class="node"><title>Node3</title>
<a xlink:href="compilerthreadcompat_8h.html" target="_top" xlink:title="This file determines what features are offered by the compiler that this library can take advantage o...">
<polygon fill="white" stroke="black" points="73,-61 73,-83 197,-83 197,-61 73,-61"/>
<text text-anchor="middle" x="135" y="-70" font-family="FreeSans" font-size="10.00">compilerthreadcompat.h</text>
</a>
</g>
<!-- Node2&#45;&gt;Node3 -->
<g id="edge4" class="edge"><title>Node2&#45;&gt;Node3</title>
<path fill="none" stroke="midnightblue" d="M481.853,-126.623C420.31,-116.931 289.55,-96.3386 207.33,-83.3906"/>
<polygon fill="midnightblue" stroke="midnightblue" points="207.727,-79.91 197.304,-81.8116 206.638,-86.8248 207.727,-79.91"/>
</g>
<!-- Node8 -->
<g id="node15" class="node"><title>Node8</title>
<polygon fill="white" stroke="#bfbfbf" points="324.5,-61 324.5,-83 365.5,-83 365.5,-61 324.5,-61"/>
<text text-anchor="middle" x="345" y="-70" font-family="FreeSans" font-size="10.00">string</text>
</g>
<!-- Node2&#45;&gt;Node8 -->
<g id="edge14" class="edge"><title>Node2&#45;&gt;Node8</title>
<path fill="none" stroke="midnightblue" d="M484.636,-120.995C453.624,-110.114 406.47,-93.5683 375.693,-82.7695"/>
<polygon fill="midnightblue" stroke="midnightblue" points="376.525,-79.3524 365.931,-79.344 374.208,-85.9576 376.525,-79.3524"/>
</g>
<!-- Node9 -->
<g id="node17" class="node"><title>Node9</title>
<polygon fill="white" stroke="#bfbfbf" points="492.5,-61 492.5,-83 539.5,-83 539.5,-61 492.5,-61"/>
<text text-anchor="middle" x="516" y="-70" font-family="FreeSans" font-size="10.00">stdint.h</text>
</g>
<!-- Node2&#45;&gt;Node9 -->
<g id="edge16" class="edge"><title>Node2&#45;&gt;Node9</title>
<path fill="none" stroke="midnightblue" d="M516,-120.995C516,-113.311 516,-102.803 516,-93.4884"/>
<polygon fill="midnightblue" stroke="midnightblue" points="519.5,-93.3428 516,-83.3428 512.5,-93.3429 519.5,-93.3428"/>
</g>
<!-- Node4 -->
<g id="node7" class="node"><title>Node4</title>
<polygon fill="white" stroke="#bfbfbf" points="0,-1 0,-23 58,-23 58,-1 0,-1"/>
<text text-anchor="middle" x="29" y="-10" font-family="FreeSans" font-size="10.00">pthread.h</text>
</g>
<!-- Node3&#45;&gt;Node4 -->
<g id="edge6" class="edge"><title>Node3&#45;&gt;Node4</title>
<path fill="none" stroke="midnightblue" d="M115.558,-60.9951C99.2987,-51.7917 75.8814,-38.5366 57.5027,-28.1336"/>
<polygon fill="midnightblue" stroke="midnightblue" points="59.1044,-25.0185 48.6777,-23.1383 55.6562,-31.1103 59.1044,-25.0185"/>
</g>
<!-- Node5 -->
<g id="node9" class="node"><title>Node5</title>
<polygon fill="white" stroke="#bfbfbf" points="75.5,-1 75.5,-23 126.5,-23 126.5,-1 75.5,-1"/>
<text text-anchor="middle" x="101" y="-10" font-family="FreeSans" font-size="10.00">signal.h</text>
</g>
<!-- Node3&#45;&gt;Node5 -->
<g id="edge8" class="edge"><title>Node3&#45;&gt;Node5</title>
<path fill="none" stroke="midnightblue" d="M128.764,-60.9951C124.22,-52.9771 117.934,-41.884 112.492,-32.2806"/>
<polygon fill="midnightblue" stroke="midnightblue" points="115.403,-30.3175 107.428,-23.3428 109.313,-33.7686 115.403,-30.3175"/>
</g>
<!-- Node6 -->
<g id="node11" class="node"><title>Node6</title>
<polygon fill="white" stroke="#bfbfbf" points="144,-1 144,-23 196,-23 196,-1 144,-1"/>
<text text-anchor="middle" x="170" y="-10" font-family="FreeSans" font-size="10.00">sched.h</text>
</g>
<!-- Node3&#45;&gt;Node6 -->
<g id="edge10" class="edge"><title>Node3&#45;&gt;Node6</title>
<path fill="none" stroke="midnightblue" d="M141.42,-60.9951C146.145,-52.8936 152.703,-41.6525 158.344,-31.981"/>
<polygon fill="midnightblue" stroke="midnightblue" points="161.368,-33.7442 163.383,-23.3428 155.321,-30.2171 161.368,-33.7442"/>
</g>
<!-- Node7 -->
<g id="node13" class="node"><title>Node7</title>
<polygon fill="white" stroke="#bfbfbf" points="214,-1 214,-23 264,-23 264,-1 214,-1"/>
<text text-anchor="middle" x="239" y="-10" font-family="FreeSans" font-size="10.00">unistd.h</text>
</g>
<!-- Node3&#45;&gt;Node7 -->
<g id="edge12" class="edge"><title>Node3&#45;&gt;Node7</title>
<path fill="none" stroke="midnightblue" d="M154.075,-60.9951C169.955,-51.8337 192.793,-38.6576 210.788,-28.2763"/>
<polygon fill="midnightblue" stroke="midnightblue" points="212.781,-31.1673 219.694,-23.1383 209.283,-25.104 212.781,-31.1673"/>
</g>
<!-- Node10&#45;&gt;Node2 -->
<g id="edge20" class="edge"><title>Node10&#45;&gt;Node2</title>
<path fill="none" stroke="midnightblue" d="M558.036,-301.071C559.71,-300.706 561.369,-300.348 563,-300 644.498,-282.629 694.036,-328.331 747,-264 784.895,-217.973 717.626,-203.351 674,-180 637.965,-160.712 593.062,-148.02 560.345,-140.56"/>
<polygon fill="midnightblue" stroke="midnightblue" points="560.697,-137.053 550.178,-138.32 559.191,-143.889 560.697,-137.053"/>
</g>
<!-- Node11 -->
<g id="node22" class="node"><title>Node11</title>
<a xlink:href="doublebufferedresource_8h.html" target="_top" xlink:title="This file defines the template double buffered resources that can be attached to a thread...">
<polygon fill="white" stroke="black" points="607.5,-241 607.5,-263 738.5,-263 738.5,-241 607.5,-241"/>
<text text-anchor="middle" x="673" y="-250" font-family="FreeSans" font-size="10.00">doublebufferedresource.h</text>
</a>
</g>
<!-- Node10&#45;&gt;Node11 -->
<g id="edge22" class="edge"><title>Node10&#45;&gt;Node11</title>
<path fill="none" stroke="midnightblue" d="M540.713,-300.995C566.779,-291.341 604.881,-277.229 633.507,-266.627"/>
<polygon fill="midnightblue" stroke="midnightblue" points="635.039,-269.792 643.201,-263.037 632.608,-263.228 635.039,-269.792"/>
</g>
<!-- Node10&#45;&gt;Node15 -->
<g id="edge32" class="edge"><title>Node10&#45;&gt;Node15</title>
<path fill="none" stroke="midnightblue" d="M463.787,-303.594C395.976,-291.521 272.413,-269.522 210.873,-258.565"/>
<polygon fill="midnightblue" stroke="midnightblue" points="211.297,-255.085 200.838,-256.778 210.07,-261.977 211.297,-255.085"/>
</g>
<!-- Node16 -->
<g id="node34" class="node"><title>Node16</title>
<a xlink:href="systemcalls_8h.html" target="_top" xlink:title="This file defines a minimalistic cross&#45;platform thread that the scheduler uses to schedule tasks...">
<polygon fill="white" stroke="black" points="255.5,-181 255.5,-203 332.5,-203 332.5,-181 255.5,-181"/>
<text text-anchor="middle" x="294" y="-190" font-family="FreeSans" font-size="10.00">systemcalls.h</text>
</a>
</g>
<!-- Node10&#45;&gt;Node16 -->
<g id="edge54" class="edge"><title>Node10&#45;&gt;Node16</title>
<path fill="none" stroke="midnightblue" d="M463.82,-308.794C404.31,-303.654 307.058,-291.235 285,-264 273.423,-249.706 277.98,-228.294 284.033,-212.535"/>
<polygon fill="midnightblue" stroke="midnightblue" points="287.344,-213.696 288.072,-203.126 280.911,-210.935 287.344,-213.696"/>
</g>
<!-- Node10&#45;&gt;Node19 -->
<g id="edge50" class="edge"><title>Node10&#45;&gt;Node19</title>
<path fill="none" stroke="midnightblue" d="M558.232,-302.381C562.876,-301.533 567.525,-300.724 572,-300 693.986,-280.266 728.699,-287.341 853.422,-264.145"/>
<polygon fill="midnightblue" stroke="midnightblue" points="854.179,-267.564 863.356,-262.269 852.88,-260.685 854.179,-267.564"/>
</g>
<!-- Node20 -->
<g id="node48" class="node"><title>Node20</title>
<a xlink:href="barrier_8h.html" target="_top" xlink:title="The declaration of the Mezzanine::Threading::Barrier Barrier synchronization primitive.">
<polygon fill="white" stroke="black" points="793.5,-241 793.5,-263 846.5,-263 846.5,-241 793.5,-241"/>
<text text-anchor="middle" x="820" y="-250" font-family="FreeSans" font-size="10.00">barrier.h</text>
</a>
</g>
<!-- Node10&#45;&gt;Node20 -->
<g id="edge56" class="edge"><title>Node10&#45;&gt;Node20</title>
<path fill="none" stroke="midnightblue" d="M558.268,-302.591C562.905,-301.701 567.542,-300.824 572,-300 664.256,-282.944 688.682,-285.518 780,-264 781.231,-263.71 782.479,-263.404 783.737,-263.085"/>
<polygon fill="midnightblue" stroke="midnightblue" points="784.705,-266.449 793.44,-260.453 782.873,-259.693 784.705,-266.449"/>
</g>
<!-- Node22 -->
<g id="node54" class="node"><title>Node22</title>
<polygon fill="white" stroke="#bfbfbf" points="554,-241 554,-263 590,-263 590,-241 554,-241"/>
<text text-anchor="middle" x="572" y="-250" font-family="FreeSans" font-size="10.00">map</text>
</g>
<!-- Node10&#45;&gt;Node22 -->
<g id="edge64" class="edge"><title>Node10&#45;&gt;Node22</title>
<path fill="none" stroke="midnightblue" d="M522.188,-300.995C530.849,-292.476 543.04,-280.485 553.193,-270.499"/>
<polygon fill="midnightblue" stroke="midnightblue" points="555.793,-272.851 560.468,-263.343 550.884,-267.86 555.793,-272.851"/>
</g>
<!-- Node23 -->
<g id="node56" class="node"><title>Node23</title>
<polygon fill="white" stroke="#bfbfbf" points="438,-241 438,-263 468,-263 468,-241 438,-241"/>
<text text-anchor="middle" x="453" y="-250" font-family="FreeSans" font-size="10.00">set</text>
</g>
<!-- Node10&#45;&gt;Node23 -->
<g id="edge66" class="edge"><title>Node10&#45;&gt;Node23</title>
<path fill="none" stroke="midnightblue" d="M500.362,-300.995C492.208,-292.56 480.763,-280.72 471.166,-270.793"/>
<polygon fill="midnightblue" stroke="midnightblue" points="473.431,-268.1 463.965,-263.343 468.399,-272.965 473.431,-268.1"/>
</g>
<!-- Node24 -->
<g id="node58" class="node"><title>Node24</title>
<polygon fill="white" stroke="#bfbfbf" points="486,-241 486,-263 536,-263 536,-241 486,-241"/>
<text text-anchor="middle" x="511" y="-250" font-family="FreeSans" font-size="10.00">fstream</text>
</g>
<!-- Node10&#45;&gt;Node24 -->
<g id="edge68" class="edge"><title>Node10&#45;&gt;Node24</title>
<path fill="none" stroke="midnightblue" d="M511,-300.995C511,-293.311 511,-282.803 511,-273.488"/>
<polygon fill="midnightblue" stroke="midnightblue" points="514.5,-273.343 511,-263.343 507.5,-273.343 514.5,-273.343"/>
</g>
<!-- Node11&#45;&gt;Node2 -->
<g id="edge24" class="edge"><title>Node11&#45;&gt;Node2</title>
<path fill="none" stroke="midnightblue" d="M673.145,-240.985C672.748,-225.415 669.723,-196.979 654,-180 629.766,-153.831 590.523,-141.929 560.068,-136.515"/>
<polygon fill="midnightblue" stroke="midnightblue" points="560.54,-133.046 550.112,-134.917 559.43,-139.957 560.54,-133.046"/>
</g>
<!-- Node12 -->
<g id="node25" class="node"><title>Node12</title>
<polygon fill="white" stroke="#bfbfbf" points="587,-181 587,-203 645,-203 645,-181 587,-181"/>
<text text-anchor="middle" x="616" y="-190" font-family="FreeSans" font-size="10.00">algorithm</text>
</g>
<!-- Node11&#45;&gt;Node12 -->
<g id="edge26" class="edge"><title>Node11&#45;&gt;Node12</title>
<path fill="none" stroke="midnightblue" d="M662.545,-240.995C654.532,-232.56 643.284,-220.72 633.853,-210.793"/>
<polygon fill="midnightblue" stroke="midnightblue" points="636.201,-208.182 626.776,-203.343 631.126,-213.003 636.201,-208.182"/>
</g>
<!-- Node13 -->
<g id="node27" class="node"><title>Node13</title>
<polygon fill="white" stroke="#bfbfbf" points="516.5,-181 516.5,-203 569.5,-203 569.5,-181 516.5,-181"/>
<text text-anchor="middle" x="543" y="-190" font-family="FreeSans" font-size="10.00">sstream</text>
</g>
<!-- Node11&#45;&gt;Node13 -->
<g id="edge28" class="edge"><title>Node11&#45;&gt;Node13</title>
<path fill="none" stroke="midnightblue" d="M649.156,-240.995C628.76,-231.582 599.18,-217.929 576.422,-207.426"/>
<polygon fill="midnightblue" stroke="midnightblue" points="577.679,-204.151 567.133,-203.138 574.746,-210.507 577.679,-204.151"/>
</g>
<!-- Node11&#45;&gt;Node14 -->
<g id="edge30" class="edge"><title>Node11&#45;&gt;Node14</title>
<path fill="none" stroke="midnightblue" d="M624.762,-240.995C571.657,-228.88 487.778,-209.744 442.151,-199.335"/>
<polygon fill="midnightblue" stroke="midnightblue" points="442.746,-195.881 432.218,-197.069 441.189,-202.705 442.746,-195.881"/>
</g>
<!-- Node15&#45;&gt;Node3 -->
<g id="edge34" class="edge"><title>Node15&#45;&gt;Node3</title>
<path fill="none" stroke="midnightblue" d="M162.13,-240.972C152.631,-231.725 139.393,-217.846 130,-204 113.372,-179.49 107.611,-172.871 101,-144 98.619,-133.602 97.7649,-130.164 101,-120 104.356,-109.455 110.963,-99.2376 117.467,-90.959"/>
<polygon fill="midnightblue" stroke="midnightblue" points="120.315,-93.0098 124.067,-83.1015 114.955,-88.5074 120.315,-93.0098"/>
</g>
<!-- Node15&#45;&gt;Node14 -->
<g id="edge48" class="edge"><title>Node15&#45;&gt;Node14</title>
<path fill="none" stroke="midnightblue" d="M200.613,-245.234C244.209,-234.15 330.685,-212.165 377.714,-200.208"/>
<polygon fill="midnightblue" stroke="midnightblue" points="378.843,-203.533 387.672,-197.677 377.118,-196.749 378.843,-203.533"/>
</g>
<!-- Node15&#45;&gt;Node16 -->
<g id="edge36" class="edge"><title>Node15&#45;&gt;Node16</title>
<path fill="none" stroke="midnightblue" d="M196.01,-240.995C214.669,-231.666 241.655,-218.173 262.585,-207.708"/>
<polygon fill="midnightblue" stroke="midnightblue" points="264.344,-210.741 271.723,-203.138 261.214,-204.48 264.344,-210.741"/>
</g>
<!-- Node15&#45;&gt;Node17 -->
<g id="edge40" class="edge"><title>Node15&#45;&gt;Node17</title>
<path fill="none" stroke="midnightblue" d="M162.97,-240.884C154.733,-231.8 144.061,-218.182 139,-204 133.166,-187.651 132.478,-167.89 133.073,-153.21"/>
<polygon fill="midnightblue" stroke="midnightblue" points="136.574,-153.316 133.715,-143.114 129.588,-152.872 136.574,-153.316"/>
</g>
<!-- Node18 -->
<g id="node41" class="node"><title>Node18</title>
<polygon fill="white" stroke="#bfbfbf" points="147.5,-181 147.5,-203 200.5,-203 200.5,-181 147.5,-181"/>
<text text-anchor="middle" x="174" y="-190" font-family="FreeSans" font-size="10.00">ostream</text>
</g>
<!-- Node15&#45;&gt;Node18 -->
<g id="edge46" class="edge"><title>Node15&#45;&gt;Node18</title>
<path fill="none" stroke="midnightblue" d="M174,-240.995C174,-233.311 174,-222.803 174,-213.488"/>
<polygon fill="midnightblue" stroke="midnightblue" points="177.5,-213.343 174,-203.343 170.5,-213.343 177.5,-213.343"/>
</g>
<!-- Node16&#45;&gt;Node2 -->
<g id="edge38" class="edge"><title>Node16&#45;&gt;Node2</title>
<path fill="none" stroke="midnightblue" d="M332.669,-181.549C371.492,-171.056 431.225,-154.912 471.876,-143.925"/>
<polygon fill="midnightblue" stroke="midnightblue" points="473.036,-147.238 481.776,-141.25 471.209,-140.48 473.036,-147.238"/>
</g>
<!-- Node17&#45;&gt;Node3 -->
<g id="edge42" class="edge"><title>Node17&#45;&gt;Node3</title>
<path fill="none" stroke="midnightblue" d="M135,-120.995C135,-113.311 135,-102.803 135,-93.4884"/>
<polygon fill="midnightblue" stroke="midnightblue" points="138.5,-93.3428 135,-83.3428 131.5,-93.3429 138.5,-93.3428"/>
</g>
<!-- Node17&#45;&gt;Node8 -->
<g id="edge44" class="edge"><title>Node17&#45;&gt;Node8</title>
<path fill="none" stroke="midnightblue" d="M160.75,-124.643C199.622,-113.536 273.14,-92.5314 314.591,-80.6883"/>
<polygon fill="midnightblue" stroke="midnightblue" points="315.744,-83.9989 324.398,-77.8863 313.821,-77.2683 315.744,-83.9989"/>
</g>
<!-- Node19&#45;&gt;Node2 -->
<g id="edge52" class="edge"><title>Node19&#45;&gt;Node2</title>
<path fill="none" stroke="midnightblue" d="M899.521,-240.861C895.273,-224.593 884.952,-194.679 864,-180 815.799,-146.231 642.489,-136.098 560.102,-133.155"/>
<polygon fill="midnightblue" stroke="midnightblue" points="560.159,-129.655 550.046,-132.816 559.923,-136.651 560.159,-129.655"/>
</g>
<!-- Node20&#45;&gt;Node2 -->
<g id="edge58" class="edge"><title>Node20&#45;&gt;Node2</title>
<path fill="none" stroke="midnightblue" d="M830.793,-240.789C844.205,-225.496 863.539,-197.947 848,-180 829.387,-158.502 645.929,-141.868 559.991,-135.189"/>
<polygon fill="midnightblue" stroke="midnightblue" points="560.25,-131.699 550.012,-134.425 559.716,-138.678 560.25,-131.699"/>
</g>
<!-- Node21 -->
<g id="node51" class="node"><title>Node21</title>
<a xlink:href="atomicoperations_8h.html" target="_top" xlink:title="Simple thread safe ways to check and change a specified variable atomically.">
<polygon fill="white" stroke="black" points="738.5,-181 738.5,-203 839.5,-203 839.5,-181 738.5,-181"/>
<text text-anchor="middle" x="789" y="-190" font-family="FreeSans" font-size="10.00">atomicoperations.h</text>
</a>
</g>
<!-- Node20&#45;&gt;Node21 -->
<g id="edge60" class="edge"><title>Node20&#45;&gt;Node21</title>
<path fill="none" stroke="midnightblue" d="M814.314,-240.995C810.172,-232.977 804.44,-221.884 799.478,-212.281"/>
<polygon fill="midnightblue" stroke="midnightblue" points="802.56,-210.621 794.86,-203.343 796.341,-213.834 802.56,-210.621"/>
</g>
<!-- Node21&#45;&gt;Node2 -->
<g id="edge62" class="edge"><title>Node21&#45;&gt;Node2</title>
<path fill="none" stroke="midnightblue" d="M738.928,-180.995C687.767,-169.751 609.09,-152.459 560.178,-141.709"/>
<polygon fill="midnightblue" stroke="midnightblue" points="560.731,-138.248 550.213,-139.519 559.229,-145.084 560.731,-138.248"/>
</g>
<!-- Node25&#45;&gt;Node2 -->
<g id="edge76" class="edge"><title>Node25&#45;&gt;Node2</title>
<path fill="none" stroke="midnightblue" d="M341.529,-240.853C347.059,-225.121 359.225,-196.49 379,-180 405.577,-157.837 443.058,-145.64 472.099,-139.094"/>
<polygon fill="midnightblue" stroke="midnightblue" points="472.926,-142.497 481.988,-137.007 471.481,-135.648 472.926,-142.497"/>
</g>
<!-- Node25&#45;&gt;Node14 -->
<g id="edge74" class="edge"><title>Node25&#45;&gt;Node14</title>
<path fill="none" stroke="midnightblue" d="M351.206,-240.995C361.629,-232.309 376.383,-220.014 388.504,-209.913"/>
<polygon fill="midnightblue" stroke="midnightblue" points="390.947,-212.434 396.389,-203.343 386.466,-207.056 390.947,-212.434"/>
</g>
</g>
</svg>
        <g id="navigator" transform="translate(0 0)" fill="#404254">
                <rect fill="#f2f5e9" fill-opacity="0.5" stroke="#606060" stroke-width=".5" x="0" y="0" width="60" height="60"/>
                <use id="zoomplus" xlink:href="#zoomPlus" x="17" y="9" onmousedown="handleZoom(evt,'in')"/>
                <use id="zoomminus" xlink:href="#zoomMin" x="42" y="9" onmousedown="handleZoom(evt,'out')"/>
                <use id="reset" xlink:href="#resetDef" x="30" y="36" onmousedown="handleReset()"/>
                <g id="arrowUp" xlink:href="#dirArrow" transform="translate(30 24)" onmousedown="handlePan(0,-1)">
                  <use xlink:href="#rim" fill="#404040">
                        <set attributeName="fill" to="#808080" begin="arrowUp.mouseover" end="arrowUp.mouseout"/>
                  </use>
                  <path fill="none" stroke="white" stroke-width="1.5" d="M0,-3.0v7 M-2.5,-0.5L0,-3.0L2.5,-0.5"/>
                </g>
                <g id="arrowRight" xlink:href="#dirArrow" transform="rotate(90) translate(36 -43)" onmousedown="handlePan(1,0)">
                  <use xlink:href="#rim" fill="#404040">
                        <set attributeName="fill" to="#808080" begin="arrowRight.mouseover" end="arrowRight.mouseout"/>
                  </use>
                  <path fill="none" stroke="white" stroke-width="1.5" d="M0,-3.0v7 M-2.5,-0.5L0,-3.0L2.5,-0.5"/>
                </g>
                <g id="arrowDown" xlink:href="#dirArrow" transform="rotate(180) translate(-30 -48)" onmousedown="handlePan(0,1)">
                  <use xlink:href="#rim" fill="#404040">
                        <set attributeName="fill" to="#808080" begin="arrowDown.mouseover" end="arrowDown.mouseout"/>
                  </use>
                  <path fill="none" stroke="white" stroke-width="1.5" d="M0,-3.0v7 M-2.5,-0.5L0,-3.0L2.5,-0.5"/>
                </g>
                <g id="arrowLeft" xlink:href="#dirArrow" transform="rotate(270) translate(-36 17)" onmousedown="handlePan(-1,0)">
                  <use xlink:href="#rim" fill="#404040">
                        <set attributeName="fill" to="#808080" begin="arrowLeft.mouseover" end="arrowLeft.mouseout"/>
                  </use>
                  <path fill="none" stroke="white" stroke-width="1.5" d="M0,-3.0v7 M-2.5,-0.5L0,-3.0L2.5,-0.5"/>
                </g>
        </g>
</svg>
