<?xml version="1.0" encoding="UTF-8" standalone="no"?>
<!DOCTYPE svg PUBLIC "-//W3C//DTD SVG 1.1//EN"
 "http://www.w3.org/Graphics/SVG/1.1/DTD/svg11.dtd">
<!-- Generated by graphviz version 2.26.3 (20100126.1600)
 -->
<!-- Title: workunit.cpp Pages: 1 -->
<!--zoomable 436 -->
<svg id="main" version="1.1" xmlns="http://www.w3.org/2000/svg" xmlns:xlink="http://www.w3.org/1999/xlink" xml:space="preserve" onload="init(evt)">
        <defs>
                <circle id="rim" cx="0" cy="0" r="7"/>
                <circle id="rim2" cx="0" cy="0" r="3.5"/>
                <g id="zoomPlus">
                        <use xlink:href="#rim" fill="#404040">
                                <set attributeName="fill" to="#808080" begin="zoomplus.mouseover" end="zoomplus.mouseout"/>
                        </use>
                        <path d="M-4,0h8M0,-4v8" fill="none" stroke="white" stroke-width="1.5" pointer-events="none"/>
                </g>
                <g id="zoomMin">
                        <use xlink:href="#rim" fill="#404040">
                                <set attributeName="fill" to="#808080" begin="zoomminus.mouseover" end="zoomminus.mouseout"/>
                        </use>
                        <path d="M-4,0h8" fill="none" stroke="white" stroke-width="1.5" pointer-events="none"/>
                </g>
                <g id="dirArrow">
                        <path fill="none" stroke="white" stroke-width="1.5" d="M0,-3.0v7 M-2.5,-0.5L0,-3.0L2.5,-0.5"/>
                </g>
               <g id="resetDef">
                       <use xlink:href="#rim2" fill="#404040">
                               <set attributeName="fill" to="#808080" begin="reset.mouseover" end="reset.mouseout"/>
                       </use>
               </g>
        </defs>

<script type="text/javascript">
var viewWidth = 1025;
var viewHeight = 436;
var sectionId = 'dynsection-0';
</script>
<script xlink:href="svgpan.js"/>
<svg id="graph" class="graph">
<g id="viewport">
<title>workunit.cpp</title>
<polygon fill="white" stroke="white" points="-4,5 -4,-432 1022,-432 1022,5 -4,5"/>
<!-- Node1 -->
<g id="node1" class="node"><title>Node1</title>
<polygon fill="#bfbfbf" stroke="black" points="793.5,-407 793.5,-427 864.5,-427 864.5,-407 793.5,-407"/>
<text text-anchor="middle" x="829" y="-414" font-family="FreeSans" font-size="10.00">workunit.cpp</text>
</g>
<!-- Node2 -->
<g id="node3" class="node"><title>Node2</title>
<a xlink:href="workunit_8h.html" target="_top" xlink:title="This file has the definition of the workunit.">
<polygon fill="white" stroke="black" points="426,-349 426,-369 486,-369 486,-349 426,-349"/>
<text text-anchor="middle" x="456" y="-356" font-family="FreeSans" font-size="10.00">workunit.h</text>
</a>
</g>
<!-- Node1&#45;&gt;Node2 -->
<g id="edge2" class="edge"><title>Node1&#45;&gt;Node2</title>
<path fill="none" stroke="midnightblue" d="M793.235,-411.439C723.457,-400.588 569.594,-376.663 496.32,-365.27"/>
<polygon fill="midnightblue" stroke="midnightblue" points="496.532,-361.761 486.113,-363.683 495.457,-368.678 496.532,-361.761"/>
</g>
<!-- Node12 -->
<g id="node24" class="node"><title>Node12</title>
<a xlink:href="doublebufferedresource_8h.html" target="_top" xlink:title="This file defines the template double buffered resources that can be attached to a thread...">
<polygon fill="white" stroke="black" points="34.5,-233 34.5,-253 157.5,-253 157.5,-233 34.5,-233"/>
<text text-anchor="middle" x="96" y="-240" font-family="FreeSans" font-size="10.00">doublebufferedresource.h</text>
</a>
</g>
<!-- Node1&#45;&gt;Node12 -->
<g id="edge104" class="edge"><title>Node1&#45;&gt;Node12</title>
<path fill="none" stroke="midnightblue" d="M793.3,-415.512C721.321,-411.948 553.964,-400.799 417,-370 339.113,-352.486 321.175,-341.515 247,-312 203.986,-294.884 155.507,-272.084 125.352,-257.47"/>
<polygon fill="midnightblue" stroke="midnightblue" points="126.759,-254.262 116.236,-253.031 123.694,-260.556 126.759,-254.262"/>
</g>
<!-- Node18 -->
<g id="node42" class="node"><title>Node18</title>
<a xlink:href="systemcalls_8h.html" target="_top" xlink:title="This file defines a minimalistic cross&#45;platform thread that the scheduler uses to schedule tasks...">
<polygon fill="white" stroke="black" points="587,-175 587,-195 661,-195 661,-175 587,-175"/>
<text text-anchor="middle" x="624" y="-182" font-family="FreeSans" font-size="10.00">systemcalls.h</text>
</a>
</g>
<!-- Node1&#45;&gt;Node18 -->
<g id="edge100" class="edge"><title>Node1&#45;&gt;Node18</title>
<path fill="none" stroke="midnightblue" d="M830.018,-406.985C832.545,-376.333 835.788,-282.796 788,-232 783.843,-227.582 717.828,-209.567 670.839,-197.169"/>
<polygon fill="midnightblue" stroke="midnightblue" points="671.691,-193.774 661.13,-194.616 669.911,-200.544 671.691,-193.774"/>
</g>
<!-- Node23 -->
<g id="node59" class="node"><title>Node23</title>
<a xlink:href="atomicoperations_8h.html" target="_top" xlink:title="Simple thread safe ways to check and change a specified variable atomically.">
<polygon fill="white" stroke="black" points="679,-175 679,-195 777,-195 777,-175 679,-175"/>
<text text-anchor="middle" x="728" y="-182" font-family="FreeSans" font-size="10.00">atomicoperations.h</text>
</a>
</g>
<!-- Node1&#45;&gt;Node23 -->
<g id="edge102" class="edge"><title>Node1&#45;&gt;Node23</title>
<path fill="none" stroke="midnightblue" d="M833.847,-406.666C847.132,-376.669 880.712,-288.152 843,-232 830.226,-212.979 808.251,-201.651 786.911,-194.907"/>
<polygon fill="midnightblue" stroke="midnightblue" points="787.763,-191.51 777.186,-192.119 785.834,-198.239 787.763,-191.51"/>
</g>
<!-- Node29 -->
<g id="node82" class="node"><title>Node29</title>
<polygon fill="white" stroke="#bfbfbf" points="894.5,-349 894.5,-369 941.5,-369 941.5,-349 894.5,-349"/>
<text text-anchor="middle" x="918" y="-356" font-family="FreeSans" font-size="10.00">cassert</text>
</g>
<!-- Node1&#45;&gt;Node29 -->
<g id="edge106" class="edge"><title>Node1&#45;&gt;Node29</title>
<path fill="none" stroke="midnightblue" d="M844.503,-406.897C858.075,-398.052 878.021,-385.054 893.711,-374.829"/>
<polygon fill="midnightblue" stroke="midnightblue" points="895.909,-377.574 902.376,-369.182 892.087,-371.709 895.909,-377.574"/>
</g>
<!-- Node3 -->
<g id="node5" class="node"><title>Node3</title>
<a xlink:href="datatypes_8h.html" target="_top" xlink:title="This file declares a few typedefs to allow flexibility, in case a change is required/desired.">
<polygon fill="white" stroke="black" points="507.5,-117 507.5,-137 572.5,-137 572.5,-117 507.5,-117"/>
<text text-anchor="middle" x="540" y="-124" font-family="FreeSans" font-size="10.00">datatypes.h</text>
</a>
</g>
<!-- Node2&#45;&gt;Node3 -->
<g id="edge4" class="edge"><title>Node2&#45;&gt;Node3</title>
<path fill="none" stroke="midnightblue" d="M486.195,-354.064C560.986,-341.161 751.442,-303.937 788,-254 797.25,-241.365 807.398,-198.983 786,-174 760.212,-143.891 646.348,-132.829 582.966,-128.956"/>
<polygon fill="midnightblue" stroke="midnightblue" points="583.058,-125.455 572.873,-128.374 582.655,-132.444 583.058,-125.455"/>
</g>
<!-- Node11 -->
<g id="node21" class="node"><title>Node11</title>
<a xlink:href="framescheduler_8h.html" target="_top" xlink:title="This file has the Declarations for the main FrameScheduler class.">
<polygon fill="white" stroke="black" points="506,-291 506,-311 596,-311 596,-291 506,-291"/>
<text text-anchor="middle" x="551" y="-298" font-family="FreeSans" font-size="10.00">framescheduler.h</text>
</a>
</g>
<!-- Node2&#45;&gt;Node11 -->
<g id="edge20" class="edge"><title>Node2&#45;&gt;Node11</title>
<path fill="none" stroke="midnightblue" d="M472.548,-348.897C487.17,-339.97 508.724,-326.811 525.541,-316.543"/>
<polygon fill="midnightblue" stroke="midnightblue" points="527.612,-319.38 534.323,-311.182 523.964,-313.405 527.612,-319.38"/>
</g>
<!-- Node15 -->
<g id="node31" class="node"><title>Node15</title>
<polygon fill="white" stroke="#bfbfbf" points="196.5,-175 196.5,-195 239.5,-195 239.5,-175 196.5,-175"/>
<text text-anchor="middle" x="218" y="-182" font-family="FreeSans" font-size="10.00">vector</text>
</g>
<!-- Node2&#45;&gt;Node15 -->
<g id="edge98" class="edge"><title>Node2&#45;&gt;Node15</title>
<path fill="none" stroke="midnightblue" d="M425.793,-354.148C379.947,-346.323 295.531,-329.963 271,-312 236.285,-286.58 224.184,-234.073 220.059,-205.171"/>
<polygon fill="midnightblue" stroke="midnightblue" points="223.506,-204.522 218.805,-195.027 216.559,-205.381 223.506,-204.522"/>
</g>
<!-- Node16 -->
<g id="node33" class="node"><title>Node16</title>
<a xlink:href="thread_8h.html" target="_top" xlink:title="This file defines a minimalistic cross&#45;platform thread that the scheduler uses to schedule tasks...">
<polygon fill="white" stroke="black" points="350.5,-233 350.5,-253 401.5,-253 401.5,-233 350.5,-233"/>
<text text-anchor="middle" x="376" y="-240" font-family="FreeSans" font-size="10.00">thread.h</text>
</a>
</g>
<!-- Node2&#45;&gt;Node16 -->
<g id="edge94" class="edge"><title>Node2&#45;&gt;Node16</title>
<path fill="none" stroke="midnightblue" d="M448.901,-348.706C435.405,-329.137 405.878,-286.323 388.832,-261.606"/>
<polygon fill="midnightblue" stroke="midnightblue" points="391.528,-259.351 382.969,-253.106 385.765,-263.325 391.528,-259.351"/>
</g>
<!-- Node19 -->
<g id="node45" class="node"><title>Node19</title>
<a xlink:href="mutex_8h.html" target="_top" xlink:title="This file declares and defines a mutex that is a partial implementation.">
<polygon fill="white" stroke="black" points="260,-175 260,-195 310,-195 310,-175 260,-175"/>
<text text-anchor="middle" x="285" y="-182" font-family="FreeSans" font-size="10.00">mutex.h</text>
</a>
</g>
<!-- Node2&#45;&gt;Node19 -->
<g id="edge82" class="edge"><title>Node2&#45;&gt;Node19</title>
<path fill="none" stroke="midnightblue" d="M425.775,-354.46C376.975,-345.314 282.239,-319.619 242,-254 231.004,-236.068 247.381,-215.632 262.989,-201.683"/>
<polygon fill="midnightblue" stroke="midnightblue" points="265.515,-204.133 270.931,-195.028 261.019,-198.768 265.515,-204.133"/>
</g>
<!-- Node21 -->
<g id="node52" class="node"><title>Node21</title>
<a xlink:href="workunitkey_8h.html" target="_top" xlink:title="This file defines the metadata used to sort workunits.">
<polygon fill="white" stroke="black" points="418.5,-233 418.5,-253 493.5,-253 493.5,-233 418.5,-233"/>
<text text-anchor="middle" x="456" y="-240" font-family="FreeSans" font-size="10.00">workunitkey.h</text>
</a>
</g>
<!-- Node2&#45;&gt;Node21 -->
<g id="edge96" class="edge"><title>Node2&#45;&gt;Node21</title>
<path fill="none" stroke="midnightblue" d="M456,-348.706C456,-329.568 456,-288.198 456,-263.265"/>
<polygon fill="midnightblue" stroke="midnightblue" points="459.5,-263.105 456,-253.106 452.5,-263.106 459.5,-263.105"/>
</g>
<!-- Node27 -->
<g id="node69" class="node"><title>Node27</title>
<a xlink:href="rollingaverage_8h.html" target="_top" xlink:title="This stores the implementation and the declaration of the RollingAverage, BufferedRollingAverage, WeightedRollingAverage and the DefaultRollingAverage.">
<polygon fill="white" stroke="black" points="250.5,-233 250.5,-253 333.5,-253 333.5,-233 250.5,-233"/>
<text text-anchor="middle" x="292" y="-240" font-family="FreeSans" font-size="10.00">rollingaverage.h</text>
</a>
</g>
<!-- Node2&#45;&gt;Node27 -->
<g id="edge84" class="edge"><title>Node2&#45;&gt;Node27</title>
<path fill="none" stroke="midnightblue" d="M441.733,-348.909C413.261,-328.77 349.18,-283.444 314.807,-259.132"/>
<polygon fill="midnightblue" stroke="midnightblue" points="316.536,-256.068 306.351,-253.151 312.494,-261.783 316.536,-256.068"/>
</g>
<!-- Node28 -->
<g id="node73" class="node"><title>Node28</title>
<a xlink:href="threadingenumerations_8h.html" target="_top" xlink:title="Any enumerations the threading library requires are all declared here.">
<polygon fill="white" stroke="black" points="895,-291 895,-311 1017,-311 1017,-291 895,-291"/>
<text text-anchor="middle" x="956" y="-298" font-family="FreeSans" font-size="10.00">threadingenumerations.h</text>
</a>
</g>
<!-- Node2&#45;&gt;Node28 -->
<g id="edge90" class="edge"><title>Node2&#45;&gt;Node28</title>
<path fill="none" stroke="midnightblue" d="M486.151,-355.502C564.056,-346.466 773.694,-322.147 884.734,-309.267"/>
<polygon fill="midnightblue" stroke="midnightblue" points="885.308,-312.724 894.838,-308.095 884.502,-305.77 885.308,-312.724"/>
</g>
<!-- Node4 -->
<g id="node7" class="node"><title>Node4</title>
<a xlink:href="crossplatformexport_8h.html" target="_top" xlink:title="This file determines what features are offered by the compiler that this library can take advantage o...">
<polygon fill="white" stroke="black" points="288,-59 288,-79 396,-79 396,-59 288,-59"/>
<text text-anchor="middle" x="342" y="-66" font-family="FreeSans" font-size="10.00">crossplatformexport.h</text>
</a>
</g>
<!-- Node3&#45;&gt;Node4 -->
<g id="edge6" class="edge"><title>Node3&#45;&gt;Node4</title>
<path fill="none" stroke="midnightblue" d="M507.304,-117.422C474.273,-107.747 423.016,-92.7319 386.339,-81.9881"/>
<polygon fill="midnightblue" stroke="midnightblue" points="386.988,-78.5314 376.408,-79.079 385.02,-85.2491 386.988,-78.5314"/>
</g>
<!-- Node9 -->
<g id="node17" class="node"><title>Node9</title>
<polygon fill="white" stroke="#bfbfbf" points="490,-59 490,-79 530,-79 530,-59 490,-59"/>
<text text-anchor="middle" x="510" y="-66" font-family="FreeSans" font-size="10.00">string</text>
</g>
<!-- Node3&#45;&gt;Node9 -->
<g id="edge16" class="edge"><title>Node3&#45;&gt;Node9</title>
<path fill="none" stroke="midnightblue" d="M534.774,-116.897C530.738,-109.093 525.028,-98.0536 520.107,-88.5401"/>
<polygon fill="midnightblue" stroke="midnightblue" points="523.071,-86.6518 515.368,-79.3776 516.853,-89.8678 523.071,-86.6518"/>
</g>
<!-- Node10 -->
<g id="node19" class="node"><title>Node10</title>
<polygon fill="white" stroke="#bfbfbf" points="547.5,-59 547.5,-79 594.5,-79 594.5,-59 547.5,-59"/>
<text text-anchor="middle" x="571" y="-66" font-family="FreeSans" font-size="10.00">stdint.h</text>
</g>
<!-- Node3&#45;&gt;Node10 -->
<g id="edge18" class="edge"><title>Node3&#45;&gt;Node10</title>
<path fill="none" stroke="midnightblue" d="M545.4,-116.897C549.615,-109.01 555.596,-97.8209 560.716,-88.2401"/>
<polygon fill="midnightblue" stroke="midnightblue" points="563.826,-89.8468 565.453,-79.3776 557.653,-86.5471 563.826,-89.8468"/>
</g>
<!-- Node5 -->
<g id="node9" class="node"><title>Node5</title>
<polygon fill="white" stroke="#bfbfbf" points="211,-1 211,-21 267,-21 267,-1 211,-1"/>
<text text-anchor="middle" x="239" y="-8" font-family="FreeSans" font-size="10.00">pthread.h</text>
</g>
<!-- Node4&#45;&gt;Node5 -->
<g id="edge8" class="edge"><title>Node4&#45;&gt;Node5</title>
<path fill="none" stroke="midnightblue" d="M324.059,-58.8972C307.985,-49.8458 284.185,-36.4442 265.846,-26.117"/>
<polygon fill="midnightblue" stroke="midnightblue" points="267.512,-23.0386 257.081,-21.1817 264.077,-29.1381 267.512,-23.0386"/>
</g>
<!-- Node6 -->
<g id="node11" class="node"><title>Node6</title>
<polygon fill="white" stroke="#bfbfbf" points="365.5,-1 365.5,-21 414.5,-21 414.5,-1 365.5,-1"/>
<text text-anchor="middle" x="390" y="-8" font-family="FreeSans" font-size="10.00">signal.h</text>
</g>
<!-- Node4&#45;&gt;Node6 -->
<g id="edge10" class="edge"><title>Node4&#45;&gt;Node6</title>
<path fill="none" stroke="midnightblue" d="M350.361,-58.8972C357.092,-50.7639 366.73,-39.1183 374.816,-29.3468"/>
<polygon fill="midnightblue" stroke="midnightblue" points="377.732,-31.3131 381.412,-21.3776 372.34,-26.8501 377.732,-31.3131"/>
</g>
<!-- Node7 -->
<g id="node13" class="node"><title>Node7</title>
<polygon fill="white" stroke="#bfbfbf" points="294,-1 294,-21 344,-21 344,-1 294,-1"/>
<text text-anchor="middle" x="319" y="-8" font-family="FreeSans" font-size="10.00">sched.h</text>
</g>
<!-- Node4&#45;&gt;Node7 -->
<g id="edge12" class="edge"><title>Node4&#45;&gt;Node7</title>
<path fill="none" stroke="midnightblue" d="M337.994,-58.8972C334.931,-51.1747 330.613,-40.2857 326.868,-30.841"/>
<polygon fill="midnightblue" stroke="midnightblue" points="330.055,-29.3832 323.115,-21.3776 323.548,-31.9636 330.055,-29.3832"/>
</g>
<!-- Node8 -->
<g id="node15" class="node"><title>Node8</title>
<polygon fill="white" stroke="#bfbfbf" points="434,-1 434,-21 484,-21 484,-1 434,-1"/>
<text text-anchor="middle" x="459" y="-8" font-family="FreeSans" font-size="10.00">unistd.h</text>
</g>
<!-- Node4&#45;&gt;Node8 -->
<g id="edge14" class="edge"><title>Node4&#45;&gt;Node8</title>
<path fill="none" stroke="midnightblue" d="M362.38,-58.8972C380.889,-49.7218 408.415,-36.0762 429.358,-25.6943"/>
<polygon fill="midnightblue" stroke="midnightblue" points="431.056,-28.759 438.461,-21.1817 427.947,-22.4874 431.056,-28.759"/>
</g>
<!-- Node11&#45;&gt;Node3 -->
<g id="edge22" class="edge"><title>Node11&#45;&gt;Node3</title>
<path fill="none" stroke="midnightblue" d="M547.858,-290.667C545.16,-281.224 541.48,-266.82 540,-254 535.68,-216.582 537.125,-172.547 538.566,-147.391"/>
<polygon fill="midnightblue" stroke="midnightblue" points="542.069,-147.453 539.206,-137.252 535.082,-147.011 542.069,-147.453"/>
</g>
<!-- Node11&#45;&gt;Node12 -->
<g id="edge24" class="edge"><title>Node11&#45;&gt;Node12</title>
<path fill="none" stroke="midnightblue" d="M505.709,-295.227C426.549,-285.136 262.45,-264.218 167.709,-252.141"/>
<polygon fill="midnightblue" stroke="midnightblue" points="167.999,-248.65 157.637,-250.857 167.114,-255.593 167.999,-248.65"/>
</g>
<!-- Node11&#45;&gt;Node16 -->
<g id="edge34" class="edge"><title>Node11&#45;&gt;Node16</title>
<path fill="none" stroke="midnightblue" d="M520.517,-290.897C490.12,-280.823 443.462,-265.359 411.433,-254.744"/>
<polygon fill="midnightblue" stroke="midnightblue" points="412.18,-251.304 401.587,-251.48 409.978,-257.949 412.18,-251.304"/>
</g>
<!-- Node11&#45;&gt;Node18 -->
<g id="edge66" class="edge"><title>Node11&#45;&gt;Node18</title>
<path fill="none" stroke="midnightblue" d="M596.389,-297.916C654.513,-292.913 750.34,-280.751 772,-254 778.153,-246.401 777.774,-239.891 772,-232 765.787,-223.508 712.105,-207.893 671.164,-197.001"/>
<polygon fill="midnightblue" stroke="midnightblue" points="671.893,-193.574 661.331,-194.41 670.109,-200.343 671.893,-193.574"/>
</g>
<!-- Node11&#45;&gt;Node21 -->
<g id="edge62" class="edge"><title>Node11&#45;&gt;Node21</title>
<path fill="none" stroke="midnightblue" d="M534.452,-290.897C519.83,-281.97 498.276,-268.811 481.459,-258.543"/>
<polygon fill="midnightblue" stroke="midnightblue" points="483.036,-255.405 472.677,-253.182 479.388,-261.38 483.036,-255.405"/>
</g>
<!-- Node22 -->
<g id="node56" class="node"><title>Node22</title>
<a xlink:href="barrier_8h.html" target="_top" xlink:title="The declaration of the Mezzanine::Threading::Barrier Barrier synchronization primitive.">
<polygon fill="white" stroke="black" points="548.5,-233 548.5,-253 599.5,-253 599.5,-233 548.5,-233"/>
<text text-anchor="middle" x="574" y="-240" font-family="FreeSans" font-size="10.00">barrier.h</text>
</a>
</g>
<!-- Node11&#45;&gt;Node22 -->
<g id="edge68" class="edge"><title>Node11&#45;&gt;Node22</title>
<path fill="none" stroke="midnightblue" d="M555.006,-290.897C558.069,-283.175 562.387,-272.286 566.132,-262.841"/>
<polygon fill="midnightblue" stroke="midnightblue" points="569.452,-263.964 569.885,-253.378 562.945,-261.383 569.452,-263.964"/>
</g>
<!-- Node24 -->
<g id="node62" class="node"><title>Node24</title>
<polygon fill="white" stroke="#bfbfbf" points="682.5,-233 682.5,-253 717.5,-253 717.5,-233 682.5,-233"/>
<text text-anchor="middle" x="700" y="-240" font-family="FreeSans" font-size="10.00">map</text>
</g>
<!-- Node11&#45;&gt;Node24 -->
<g id="edge76" class="edge"><title>Node11&#45;&gt;Node24</title>
<path fill="none" stroke="midnightblue" d="M578.465,-290.821C601.511,-282.212 635.501,-269.353 672.85,-254.388"/>
<polygon fill="midnightblue" stroke="midnightblue" points="674.443,-257.52 682.413,-250.54 671.829,-251.026 674.443,-257.52"/>
</g>
<!-- Node25 -->
<g id="node64" class="node"><title>Node25</title>
<polygon fill="white" stroke="#bfbfbf" points="734.5,-233 734.5,-253 763.5,-253 763.5,-233 734.5,-233"/>
<text text-anchor="middle" x="749" y="-240" font-family="FreeSans" font-size="10.00">set</text>
</g>
<!-- Node11&#45;&gt;Node25 -->
<g id="edge78" class="edge"><title>Node11&#45;&gt;Node25</title>
<path fill="none" stroke="midnightblue" d="M596.304,-291.249C629.825,-283.496 676.623,-271.544 724.493,-254.17"/>
<polygon fill="midnightblue" stroke="midnightblue" points="725.914,-257.377 734.077,-250.623 723.484,-250.812 725.914,-257.377"/>
</g>
<!-- Node26 -->
<g id="node66" class="node"><title>Node26</title>
<polygon fill="white" stroke="#bfbfbf" points="616.5,-233 616.5,-253 665.5,-253 665.5,-233 616.5,-233"/>
<text text-anchor="middle" x="641" y="-240" font-family="FreeSans" font-size="10.00">fstream</text>
</g>
<!-- Node11&#45;&gt;Node26 -->
<g id="edge80" class="edge"><title>Node11&#45;&gt;Node26</title>
<path fill="none" stroke="midnightblue" d="M566.677,-290.897C580.401,-282.052 600.572,-269.054 616.438,-258.829"/>
<polygon fill="midnightblue" stroke="midnightblue" points="618.691,-261.541 625.201,-253.182 614.899,-255.657 618.691,-261.541"/>
</g>
<!-- Node12&#45;&gt;Node3 -->
<g id="edge26" class="edge"><title>Node12&#45;&gt;Node3</title>
<path fill="none" stroke="midnightblue" d="M105.669,-232.995C121.346,-217.466 153.996,-187.903 188,-174 216.139,-162.495 409.858,-140.82 497.316,-131.474"/>
<polygon fill="midnightblue" stroke="midnightblue" points="497.863,-134.936 507.436,-130.397 497.122,-127.975 497.863,-134.936"/>
</g>
<!-- Node13 -->
<g id="node27" class="node"><title>Node13</title>
<polygon fill="white" stroke="#bfbfbf" points="0,-175 0,-195 56,-195 56,-175 0,-175"/>
<text text-anchor="middle" x="28" y="-182" font-family="FreeSans" font-size="10.00">algorithm</text>
</g>
<!-- Node12&#45;&gt;Node13 -->
<g id="edge28" class="edge"><title>Node12&#45;&gt;Node13</title>
<path fill="none" stroke="midnightblue" d="M84.1553,-232.897C74.1382,-224.353 59.5766,-211.933 47.7919,-201.881"/>
<polygon fill="midnightblue" stroke="midnightblue" points="50.0465,-199.204 40.1668,-195.378 45.5039,-204.53 50.0465,-199.204"/>
</g>
<!-- Node14 -->
<g id="node29" class="node"><title>Node14</title>
<polygon fill="white" stroke="#bfbfbf" points="74,-175 74,-195 124,-195 124,-175 74,-175"/>
<text text-anchor="middle" x="99" y="-182" font-family="FreeSans" font-size="10.00">sstream</text>
</g>
<!-- Node12&#45;&gt;Node14 -->
<g id="edge30" class="edge"><title>Node12&#45;&gt;Node14</title>
<path fill="none" stroke="midnightblue" d="M96.5226,-232.897C96.9135,-225.339 97.4613,-214.748 97.9425,-205.446"/>
<polygon fill="midnightblue" stroke="midnightblue" points="101.442,-205.545 98.4632,-195.378 94.4513,-205.183 101.442,-205.545"/>
</g>
<!-- Node12&#45;&gt;Node15 -->
<g id="edge32" class="edge"><title>Node12&#45;&gt;Node15</title>
<path fill="none" stroke="midnightblue" d="M117.251,-232.897C136.638,-223.68 165.512,-209.953 187.386,-199.554"/>
<polygon fill="midnightblue" stroke="midnightblue" points="189.055,-202.636 196.583,-195.182 186.049,-196.314 189.055,-202.636"/>
</g>
<!-- Node16&#45;&gt;Node15 -->
<g id="edge60" class="edge"><title>Node16&#45;&gt;Node15</title>
<path fill="none" stroke="midnightblue" d="M350.263,-233.552C322.609,-223.401 278.656,-207.266 249.09,-196.413"/>
<polygon fill="midnightblue" stroke="midnightblue" points="250.252,-193.111 239.659,-192.951 247.84,-199.682 250.252,-193.111"/>
</g>
<!-- Node17 -->
<g id="node35" class="node"><title>Node17</title>
<a xlink:href="crossplatformincludes_8h.html" target="_top" xlink:title="This file determines what features are offered by the compiler that this library can take advantage o...">
<polygon fill="white" stroke="black" points="283.5,-117 283.5,-137 400.5,-137 400.5,-117 283.5,-117"/>
<text text-anchor="middle" x="342" y="-124" font-family="FreeSans" font-size="10.00">crossplatformincludes.h</text>
</a>
</g>
<!-- Node16&#45;&gt;Node17 -->
<g id="edge36" class="edge"><title>Node16&#45;&gt;Node17</title>
<path fill="none" stroke="midnightblue" d="M372.983,-232.706C367.348,-213.482 355.138,-171.825 347.841,-146.929"/>
<polygon fill="midnightblue" stroke="midnightblue" points="351.133,-145.717 344.962,-137.106 344.416,-147.686 351.133,-145.717"/>
</g>
<!-- Node16&#45;&gt;Node18 -->
<g id="edge48" class="edge"><title>Node16&#45;&gt;Node18</title>
<path fill="none" stroke="midnightblue" d="M401.54,-234.444C404.383,-233.579 407.245,-232.746 410,-232 466.763,-216.623 533.017,-202.677 576.594,-194.042"/>
<polygon fill="midnightblue" stroke="midnightblue" points="577.485,-197.434 586.621,-192.07 576.134,-190.566 577.485,-197.434"/>
</g>
<!-- Node16&#45;&gt;Node19 -->
<g id="edge52" class="edge"><title>Node16&#45;&gt;Node19</title>
<path fill="none" stroke="midnightblue" d="M360.149,-232.897C346.272,-224.052 325.878,-211.054 309.835,-200.829"/>
<polygon fill="midnightblue" stroke="midnightblue" points="311.289,-197.605 300.975,-195.182 307.526,-203.508 311.289,-197.605"/>
</g>
<!-- Node20 -->
<g id="node49" class="node"><title>Node20</title>
<polygon fill="white" stroke="#bfbfbf" points="403.5,-175 403.5,-195 454.5,-195 454.5,-175 403.5,-175"/>
<text text-anchor="middle" x="429" y="-182" font-family="FreeSans" font-size="10.00">ostream</text>
</g>
<!-- Node16&#45;&gt;Node20 -->
<g id="edge58" class="edge"><title>Node16&#45;&gt;Node20</title>
<path fill="none" stroke="midnightblue" d="M385.232,-232.897C392.739,-224.682 403.521,-212.883 412.505,-203.051"/>
<polygon fill="midnightblue" stroke="midnightblue" points="415.355,-205.121 419.517,-195.378 410.188,-200.399 415.355,-205.121"/>
</g>
<!-- Node17&#45;&gt;Node4 -->
<g id="edge38" class="edge"><title>Node17&#45;&gt;Node4</title>
<path fill="none" stroke="midnightblue" d="M342,-116.897C342,-109.339 342,-98.7476 342,-89.4458"/>
<polygon fill="midnightblue" stroke="midnightblue" points="345.5,-89.3776 342,-79.3776 338.5,-89.3776 345.5,-89.3776"/>
</g>
<!-- Node17&#45;&gt;Node5 -->
<g id="edge40" class="edge"><title>Node17&#45;&gt;Node5</title>
<path fill="none" stroke="midnightblue" d="M321.796,-116.93C306.81,-108.657 286.689,-95.7555 273,-80 260.454,-65.5605 251.304,-45.6786 245.677,-30.9647"/>
<polygon fill="midnightblue" stroke="midnightblue" points="248.884,-29.5395 242.204,-21.3158 242.297,-31.9102 248.884,-29.5395"/>
</g>
<!-- Node17&#45;&gt;Node6 -->
<g id="edge42" class="edge"><title>Node17&#45;&gt;Node6</title>
<path fill="none" stroke="midnightblue" d="M364.435,-116.977C378.91,-109.175 396.557,-96.8325 405,-80 412.86,-64.3304 407.258,-44.6368 400.782,-30.3041"/>
<polygon fill="midnightblue" stroke="midnightblue" points="403.911,-28.7368 396.313,-21.3533 397.649,-31.8637 403.911,-28.7368"/>
</g>
<!-- Node17&#45;&gt;Node7 -->
<g id="edge44" class="edge"><title>Node17&#45;&gt;Node7</title>
<path fill="none" stroke="midnightblue" d="M319.565,-116.977C305.09,-109.175 287.443,-96.8325 279,-80 269.886,-61.8293 284.381,-41.8067 298.403,-28.0324"/>
<polygon fill="midnightblue" stroke="midnightblue" points="300.987,-30.4122 305.992,-21.0743 296.256,-25.2527 300.987,-30.4122"/>
</g>
<!-- Node17&#45;&gt;Node8 -->
<g id="edge46" class="edge"><title>Node17&#45;&gt;Node8</title>
<path fill="none" stroke="midnightblue" d="M366.032,-116.859C382.979,-108.789 405.356,-96.1741 421,-80 434.751,-65.7837 445.093,-45.6082 451.489,-30.744"/>
<polygon fill="midnightblue" stroke="midnightblue" points="454.748,-32.0218 455.28,-21.4404 448.265,-29.3803 454.748,-32.0218"/>
</g>
<!-- Node18&#45;&gt;Node3 -->
<g id="edge50" class="edge"><title>Node18&#45;&gt;Node3</title>
<path fill="none" stroke="midnightblue" d="M609.368,-174.897C596.678,-166.135 578.085,-153.297 563.341,-143.116"/>
<polygon fill="midnightblue" stroke="midnightblue" points="564.964,-139.983 554.746,-137.182 560.986,-145.744 564.964,-139.983"/>
</g>
<!-- Node19&#45;&gt;Node9 -->
<g id="edge56" class="edge"><title>Node19&#45;&gt;Node9</title>
<path fill="none" stroke="midnightblue" d="M310.456,-177.316C336.068,-169.137 376.341,-155.037 409,-138 438.358,-122.685 469.422,-100.429 489.223,-85.3679"/>
<polygon fill="midnightblue" stroke="midnightblue" points="491.444,-88.075 497.232,-79.2003 487.173,-82.529 491.444,-88.075"/>
</g>
<!-- Node19&#45;&gt;Node17 -->
<g id="edge54" class="edge"><title>Node19&#45;&gt;Node17</title>
<path fill="none" stroke="midnightblue" d="M294.929,-174.897C303.083,-166.6 314.83,-154.646 324.549,-144.757"/>
<polygon fill="midnightblue" stroke="midnightblue" points="327.288,-146.963 331.801,-137.378 322.296,-142.057 327.288,-146.963"/>
</g>
<!-- Node21&#45;&gt;Node3 -->
<g id="edge64" class="edge"><title>Node21&#45;&gt;Node3</title>
<path fill="none" stroke="midnightblue" d="M463.454,-232.706C477.687,-213.051 508.902,-169.945 526.762,-145.281"/>
<polygon fill="midnightblue" stroke="midnightblue" points="529.652,-147.258 532.682,-137.106 523.982,-143.152 529.652,-147.258"/>
</g>
<!-- Node22&#45;&gt;Node3 -->
<g id="edge70" class="edge"><title>Node22&#45;&gt;Node3</title>
<path fill="none" stroke="midnightblue" d="M570.983,-232.706C565.348,-213.482 553.138,-171.825 545.841,-146.929"/>
<polygon fill="midnightblue" stroke="midnightblue" points="549.133,-145.717 542.962,-137.106 542.416,-147.686 549.133,-145.717"/>
</g>
<!-- Node22&#45;&gt;Node23 -->
<g id="edge72" class="edge"><title>Node22&#45;&gt;Node23</title>
<path fill="none" stroke="midnightblue" d="M599.776,-233.292C624.976,-223.801 663.571,-209.265 691.836,-198.62"/>
<polygon fill="midnightblue" stroke="midnightblue" points="693.239,-201.832 701.364,-195.032 690.772,-195.281 693.239,-201.832"/>
</g>
<!-- Node23&#45;&gt;Node3 -->
<g id="edge74" class="edge"><title>Node23&#45;&gt;Node3</title>
<path fill="none" stroke="midnightblue" d="M695.253,-174.897C663.943,-165.238 616.573,-150.624 582.395,-140.079"/>
<polygon fill="midnightblue" stroke="midnightblue" points="583.274,-136.688 572.687,-137.084 581.21,-143.377 583.274,-136.688"/>
</g>
<!-- Node27&#45;&gt;Node3 -->
<g id="edge88" class="edge"><title>Node27&#45;&gt;Node3</title>
<path fill="none" stroke="midnightblue" d="M304.628,-232.84C323.384,-218.156 360.146,-190.916 395,-174 428.009,-157.979 467.797,-145.526 497.337,-137.474"/>
<polygon fill="midnightblue" stroke="midnightblue" points="498.569,-140.768 507.331,-134.812 496.767,-134.004 498.569,-140.768"/>
</g>
<!-- Node27&#45;&gt;Node15 -->
<g id="edge86" class="edge"><title>Node27&#45;&gt;Node15</title>
<path fill="none" stroke="midnightblue" d="M279.11,-232.897C268.104,-224.271 252.058,-211.694 239.169,-201.592"/>
<polygon fill="midnightblue" stroke="midnightblue" points="241.27,-198.792 231.24,-195.378 236.952,-204.301 241.27,-198.792"/>
</g>
<!-- Node28&#45;&gt;Node3 -->
<g id="edge92" class="edge"><title>Node28&#45;&gt;Node3</title>
<path fill="none" stroke="midnightblue" d="M956.463,-290.81C956.963,-266.372 954.496,-204.223 919,-174 893.728,-152.482 676.105,-135.87 582.507,-129.655"/>
<polygon fill="midnightblue" stroke="midnightblue" points="582.728,-126.162 572.521,-129 582.27,-133.147 582.728,-126.162"/>
</g>
</g>
</svg>
        <g id="navigator" transform="translate(0 0)" fill="#404254">
                <rect fill="#f2f5e9" fill-opacity="0.5" stroke="#606060" stroke-width=".5" x="0" y="0" width="60" height="60"/>
                <use id="zoomplus" xlink:href="#zoomPlus" x="17" y="9" onmousedown="handleZoom(evt,'in')"/>
                <use id="zoomminus" xlink:href="#zoomMin" x="42" y="9" onmousedown="handleZoom(evt,'out')"/>
                <use id="reset" xlink:href="#resetDef" x="30" y="36" onmousedown="handleReset()"/>
                <g id="arrowUp" xlink:href="#dirArrow" transform="translate(30 24)" onmousedown="handlePan(0,-1)">
                  <use xlink:href="#rim" fill="#404040">
                        <set attributeName="fill" to="#808080" begin="arrowUp.mouseover" end="arrowUp.mouseout"/>
                  </use>
                  <path fill="none" stroke="white" stroke-width="1.5" d="M0,-3.0v7 M-2.5,-0.5L0,-3.0L2.5,-0.5"/>
                </g>
                <g id="arrowRight" xlink:href="#dirArrow" transform="rotate(90) translate(36 -43)" onmousedown="handlePan(1,0)">
                  <use xlink:href="#rim" fill="#404040">
                        <set attributeName="fill" to="#808080" begin="arrowRight.mouseover" end="arrowRight.mouseout"/>
                  </use>
                  <path fill="none" stroke="white" stroke-width="1.5" d="M0,-3.0v7 M-2.5,-0.5L0,-3.0L2.5,-0.5"/>
                </g>
                <g id="arrowDown" xlink:href="#dirArrow" transform="rotate(180) translate(-30 -48)" onmousedown="handlePan(0,1)">
                  <use xlink:href="#rim" fill="#404040">
                        <set attributeName="fill" to="#808080" begin="arrowDown.mouseover" end="arrowDown.mouseout"/>
                  </use>
                  <path fill="none" stroke="white" stroke-width="1.5" d="M0,-3.0v7 M-2.5,-0.5L0,-3.0L2.5,-0.5"/>
                </g>
                <g id="arrowLeft" xlink:href="#dirArrow" transform="rotate(270) translate(-36 17)" onmousedown="handlePan(-1,0)">
                  <use xlink:href="#rim" fill="#404040">
                        <set attributeName="fill" to="#808080" begin="arrowLeft.mouseover" end="arrowLeft.mouseout"/>
                  </use>
                  <path fill="none" stroke="white" stroke-width="1.5" d="M0,-3.0v7 M-2.5,-0.5L0,-3.0L2.5,-0.5"/>
                </g>
        </g>
        <svg viewBox="0 0 15 15" width="100%" height="30px" preserveAspectRatio="xMaxYMin meet">
         <g id="arrow_out" transform="scale(0.3 0.3)">
          <a xlink:href="workunit_8cpp__incl_org.svg" target="_base">
           <rect id="button" ry="5" rx="5" y="6" x="6" height="38" width="38"
                fill="#f2f5e9" fill-opacity="0.5" stroke="#606060" stroke-width="1.0"/>
           <path id="arrow"
             d="M 11.500037,31.436501 C 11.940474,20.09759 22.043105,11.32322 32.158766,21.979434 L 37.068811,17.246167 C 37.068811,17.246167 37.088388,32 37.088388,32 L 22.160133,31.978069 C 22.160133,31.978069 26.997745,27.140456 26.997745,27.140456 C 18.528582,18.264221 13.291696,25.230495 11.500037,31.436501 z"
             style="fill:#404040;"/>
          </a>
         </g>
        </svg>
</svg>
