<?xml version="1.0" encoding="UTF-8" standalone="no"?>
<!DOCTYPE svg PUBLIC "-//W3C//DTD SVG 1.1//EN"
 "http://www.w3.org/Graphics/SVG/1.1/DTD/svg11.dtd">
<!-- Generated by graphviz version 2.26.3 (20100126.1600)
 -->
<!-- Title: workunit.cpp Pages: 1 -->
<!--zoomable 436 -->
<svg id="main" version="1.1" xmlns="http://www.w3.org/2000/svg" xmlns:xlink="http://www.w3.org/1999/xlink" xml:space="preserve" onload="init(evt)">
<style type="text/css"><![CDATA[
.edge:hover path { stroke: red; }
.edge:hover polygon { stroke: red; fill: red; }
]]></style>
<script type="text/javascript"><![CDATA[
var edges = document.getElementsByTagName('g');
if (edges && edges.length) {
  for (var i=0;i<edges.length;i++) {
    if (edges[i].id.substr(0,4)=='edge') {
      edges[i].setAttribute('class','edge');
    }
  }
}
]]></script>
        <defs>
                <circle id="rim" cx="0" cy="0" r="7"/>
                <circle id="rim2" cx="0" cy="0" r="3.5"/>
                <g id="zoomPlus">
                        <use xlink:href="#rim" fill="#404040">
                                <set attributeName="fill" to="#808080" begin="zoomplus.mouseover" end="zoomplus.mouseout"/>
                        </use>
                        <path d="M-4,0h8M0,-4v8" fill="none" stroke="white" stroke-width="1.5" pointer-events="none"/>
                </g>
                <g id="zoomMin">
                        <use xlink:href="#rim" fill="#404040">
                                <set attributeName="fill" to="#808080" begin="zoomminus.mouseover" end="zoomminus.mouseout"/>
                        </use>
                        <path d="M-4,0h8" fill="none" stroke="white" stroke-width="1.5" pointer-events="none"/>
                </g>
                <g id="dirArrow">
                        <path fill="none" stroke="white" stroke-width="1.5" d="M0,-3.0v7 M-2.5,-0.5L0,-3.0L2.5,-0.5"/>
                </g>
               <g id="resetDef">
                       <use xlink:href="#rim2" fill="#404040">
                               <set attributeName="fill" to="#808080" begin="reset.mouseover" end="reset.mouseout"/>
                       </use>
               </g>
        </defs>

<script type="text/javascript">
var viewWidth = 776;
var viewHeight = 436;
var sectionId = 'dynsection-0';
</script>
<script xlink:href="svgpan.js"/>
<svg id="graph" class="graph">
<g id="viewport">
<title>workunit.cpp</title>
<polygon fill="white" stroke="white" points="-4,5 -4,-432 773,-432 773,5 -4,5"/>
<!-- Node1 -->
<g id="node1" class="node"><title>Node1</title>
<polygon fill="#bfbfbf" stroke="black" points="342.5,-407 342.5,-427 413.5,-427 413.5,-407 342.5,-407"/>
<text text-anchor="middle" x="378" y="-414" font-family="FreeSans" font-size="10.00">workunit.cpp</text>
</g>
<!-- Node2 -->
<g id="node3" class="node"><title>Node2</title>
<a xlink:href="workunit_8h.html" target="_top" xlink:title="This file has the definition of the workunit. ">
<polygon fill="white" stroke="black" points="348,-349 348,-369 408,-369 408,-349 348,-349"/>
<text text-anchor="middle" x="378" y="-356" font-family="FreeSans" font-size="10.00">workunit.h</text>
</a>
</g>
<!-- Node1&#45;&gt;Node2 -->
<g id="edge2" class="edge"><title>Node1&#45;&gt;Node2</title>
<path fill="none" stroke="midnightblue" d="M378,-406.897C378,-399.339 378,-388.748 378,-379.446"/>
<polygon fill="midnightblue" stroke="midnightblue" points="381.5,-379.378 378,-369.378 374.5,-379.378 381.5,-379.378"/>
</g>
<!-- Node15 -->
<g id="node30" class="node"><title>Node15</title>
<a xlink:href="doublebufferedresource_8h.html" target="_top" xlink:title="This file defines the template double buffered resources that can be attached to a thread...">
<polygon fill="white" stroke="black" points="528.5,-233 528.5,-253 651.5,-253 651.5,-233 528.5,-233"/>
<text text-anchor="middle" x="590" y="-240" font-family="FreeSans" font-size="10.00">doublebufferedresource.h</text>
</a>
</g>
<!-- Node1&#45;&gt;Node15 -->
<g id="edge82" class="edge"><title>Node1&#45;&gt;Node15</title>
<path fill="none" stroke="midnightblue" d="M390.314,-406.893C425.442,-378.062 526.385,-295.212 569.777,-259.598"/>
<polygon fill="midnightblue" stroke="midnightblue" points="572.142,-262.185 577.652,-253.135 567.701,-256.774 572.142,-262.185"/>
</g>
<!-- Node17 -->
<g id="node35" class="node"><title>Node17</title>
<a xlink:href="systemcalls_8h.html" target="_top" xlink:title="This file defines a minimalistic cross&#45;platform thread that the scheduler uses to schedule tasks...">
<polygon fill="white" stroke="black" points="107,-175 107,-195 181,-195 181,-175 107,-175"/>
<text text-anchor="middle" x="144" y="-182" font-family="FreeSans" font-size="10.00">systemcalls.h</text>
</a>
</g>
<!-- Node1&#45;&gt;Node17 -->
<g id="edge78" class="edge"><title>Node1&#45;&gt;Node17</title>
<path fill="none" stroke="midnightblue" d="M342.166,-407.726C281.141,-389.775 158.731,-343.885 108,-254 98.1939,-236.626 111.676,-216.339 124.844,-202.28"/>
<polygon fill="midnightblue" stroke="midnightblue" points="127.367,-204.707 131.978,-195.167 122.425,-199.749 127.367,-204.707"/>
</g>
<!-- Node19 -->
<g id="node40" class="node"><title>Node19</title>
<a xlink:href="atomicoperations_8h.html" target="_top" xlink:title="Simple thread safe ways to check and change a specified variable atomically. ">
<polygon fill="white" stroke="black" points="26,-117 26,-137 124,-137 124,-117 26,-117"/>
<text text-anchor="middle" x="75" y="-124" font-family="FreeSans" font-size="10.00">atomicoperations.h</text>
</a>
</g>
<!-- Node1&#45;&gt;Node19 -->
<g id="edge80" class="edge"><title>Node1&#45;&gt;Node19</title>
<path fill="none" stroke="midnightblue" d="M342.477,-413.442C250.374,-403.239 11,-370.077 11,-301 11,-301 11,-301 11,-243 11,-211.192 14.3007,-201.664 30,-174 36.3179,-162.867 45.8592,-152.382 54.5326,-144.151"/>
<polygon fill="midnightblue" stroke="midnightblue" points="57.0683,-146.577 62.1365,-137.273 52.3725,-141.386 57.0683,-146.577"/>
</g>
<!-- Node25 -->
<g id="node67" class="node"><title>Node25</title>
<polygon fill="white" stroke="#bfbfbf" points="626.5,-349 626.5,-369 673.5,-369 673.5,-349 626.5,-349"/>
<text text-anchor="middle" x="650" y="-356" font-family="FreeSans" font-size="10.00">cassert</text>
</g>
<!-- Node1&#45;&gt;Node25 -->
<g id="edge84" class="edge"><title>Node1&#45;&gt;Node25</title>
<path fill="none" stroke="midnightblue" d="M413.658,-410.918C459.901,-402.792 542.937,-387.382 613,-370 614.073,-369.734 615.162,-369.456 616.259,-369.17"/>
<polygon fill="midnightblue" stroke="midnightblue" points="617.496,-372.459 626.204,-366.424 615.633,-365.712 617.496,-372.459"/>
</g>
<!-- Node3 -->
<g id="node5" class="node"><title>Node3</title>
<a xlink:href="datatypes_8h.html" target="_top" xlink:title="This file declares a few typedefs to allow flexibility, in case a change is required/desired. ">
<polygon fill="white" stroke="black" points="320.5,-59 320.5,-79 385.5,-79 385.5,-59 320.5,-59"/>
<text text-anchor="middle" x="353" y="-66" font-family="FreeSans" font-size="10.00">datatypes.h</text>
</a>
</g>
<!-- Node2&#45;&gt;Node3 -->
<g id="edge4" class="edge"><title>Node2&#45;&gt;Node3</title>
<path fill="none" stroke="midnightblue" d="M408.3,-352.284C474.84,-336.858 630.193,-296.904 660,-254 665.579,-245.97 665.01,-240.396 660,-232 602.233,-135.193 465.293,-92.8734 395.493,-77.0693"/>
<polygon fill="midnightblue" stroke="midnightblue" points="396.216,-73.6448 385.699,-74.9266 394.72,-80.4831 396.216,-73.6448"/>
</g>
<!-- Node14 -->
<g id="node27" class="node"><title>Node14</title>
<a xlink:href="framescheduler_8h.html" target="_top" xlink:title="This file has the Declarations for the main FrameScheduler class. ">
<polygon fill="white" stroke="black" points="260,-291 260,-311 350,-311 350,-291 260,-291"/>
<text text-anchor="middle" x="305" y="-298" font-family="FreeSans" font-size="10.00">framescheduler.h</text>
</a>
</g>
<!-- Node2&#45;&gt;Node14 -->
<g id="edge26" class="edge"><title>Node2&#45;&gt;Node14</title>
<path fill="none" stroke="midnightblue" d="M365.284,-348.897C354.531,-340.353 338.898,-327.933 326.247,-317.881"/>
<polygon fill="midnightblue" stroke="midnightblue" points="328.068,-314.858 318.061,-311.378 323.714,-320.339 328.068,-314.858"/>
</g>
<!-- Node16 -->
<g id="node33" class="node"><title>Node16</title>
<a xlink:href="thread_8h.html" target="_top" xlink:title="This file defines a minimalistic cross&#45;platform thread that the scheduler uses to schedule tasks...">
<polygon fill="white" stroke="black" points="116.5,-233 116.5,-253 167.5,-253 167.5,-233 116.5,-233"/>
<text text-anchor="middle" x="142" y="-240" font-family="FreeSans" font-size="10.00">thread.h</text>
</a>
</g>
<!-- Node2&#45;&gt;Node16 -->
<g id="edge74" class="edge"><title>Node2&#45;&gt;Node16</title>
<path fill="none" stroke="midnightblue" d="M347.75,-349.794C321.542,-341.354 282.925,-327.793 251,-312 219.558,-296.446 185.789,-274.096 164.309,-259.089"/>
<polygon fill="midnightblue" stroke="midnightblue" points="166.086,-256.058 155.899,-253.147 162.047,-261.776 166.086,-256.058"/>
</g>
<!-- Node18 -->
<g id="node38" class="node"><title>Node18</title>
<a xlink:href="mutex_8h.html" target="_top" xlink:title="This file declares and defines a mutex that is a partial implementation. ">
<polygon fill="white" stroke="black" points="39,-175 39,-195 89,-195 89,-175 39,-175"/>
<text text-anchor="middle" x="64" y="-182" font-family="FreeSans" font-size="10.00">mutex.h</text>
</a>
</g>
<!-- Node2&#45;&gt;Node18 -->
<g id="edge66" class="edge"><title>Node2&#45;&gt;Node18</title>
<path fill="none" stroke="midnightblue" d="M347.657,-354.861C293.046,-345.923 177.442,-320.012 108,-254 93.1075,-239.843 80.9988,-219.66 73.2816,-204.778"/>
<polygon fill="midnightblue" stroke="midnightblue" points="76.2393,-202.864 68.6603,-195.461 69.9684,-205.975 76.2393,-202.864"/>
</g>
<!-- Node20 -->
<g id="node43" class="node"><title>Node20</title>
<a xlink:href="workunitkey_8h.html" target="_top" xlink:title="This file defines the metadata used to sort workunits. ">
<polygon fill="white" stroke="black" points="336.5,-233 336.5,-253 411.5,-253 411.5,-233 336.5,-233"/>
<text text-anchor="middle" x="374" y="-240" font-family="FreeSans" font-size="10.00">workunitkey.h</text>
</a>
</g>
<!-- Node2&#45;&gt;Node20 -->
<g id="edge76" class="edge"><title>Node2&#45;&gt;Node20</title>
<path fill="none" stroke="midnightblue" d="M377.645,-348.706C376.985,-329.568 375.559,-288.198 374.699,-263.265"/>
<polygon fill="midnightblue" stroke="midnightblue" points="378.191,-262.979 374.348,-253.106 371.195,-263.22 378.191,-262.979"/>
</g>
<!-- Node22 -->
<g id="node50" class="node"><title>Node22</title>
<a xlink:href="rollingaverage_8h.html" target="_top" xlink:title="This stores the implementation and the declaration of the RollingAverage, BufferedRollingAverage, WeightedRollingAverage and the DefaultRollingAverage. ">
<polygon fill="white" stroke="black" points="428.5,-233 428.5,-253 511.5,-253 511.5,-233 428.5,-233"/>
<text text-anchor="middle" x="470" y="-240" font-family="FreeSans" font-size="10.00">rollingaverage.h</text>
</a>
</g>
<!-- Node2&#45;&gt;Node22 -->
<g id="edge68" class="edge"><title>Node2&#45;&gt;Node22</title>
<path fill="none" stroke="midnightblue" d="M386.164,-348.706C401.821,-328.965 436.24,-285.567 455.758,-260.957"/>
<polygon fill="midnightblue" stroke="midnightblue" points="458.514,-263.115 461.985,-253.106 453.029,-258.766 458.514,-263.115"/>
</g>
<!-- Node24 -->
<g id="node59" class="node"><title>Node24</title>
<a xlink:href="threadingenumerations_8h.html" target="_top" xlink:title="Any enumerations the threading library requires are all declared here. ">
<polygon fill="white" stroke="black" points="646,-291 646,-311 768,-311 768,-291 646,-291"/>
<text text-anchor="middle" x="707" y="-298" font-family="FreeSans" font-size="10.00">threadingenumerations.h</text>
</a>
</g>
<!-- Node2&#45;&gt;Node24 -->
<g id="edge70" class="edge"><title>Node2&#45;&gt;Node24</title>
<path fill="none" stroke="midnightblue" d="M408.069,-353.699C460.306,-344.49 569.007,-325.327 639.931,-312.824"/>
<polygon fill="midnightblue" stroke="midnightblue" points="640.87,-316.212 650.11,-311.029 639.654,-309.319 640.87,-316.212"/>
</g>
<!-- Node4 -->
<g id="node7" class="node"><title>Node4</title>
<a xlink:href="crossplatformexport_8h.html" target="_top" xlink:title="This file determines what features are offered by the compiler that this library can take advantage o...">
<polygon fill="white" stroke="black" points="0,-1 0,-21 108,-21 108,-1 0,-1"/>
<text text-anchor="middle" x="54" y="-8" font-family="FreeSans" font-size="10.00">crossplatformexport.h</text>
</a>
</g>
<!-- Node3&#45;&gt;Node4 -->
<g id="edge6" class="edge"><title>Node3&#45;&gt;Node4</title>
<path fill="none" stroke="midnightblue" d="M320.433,-62.6826C271.47,-53.1849 178.02,-35.0574 115.844,-22.9965"/>
<polygon fill="midnightblue" stroke="midnightblue" points="116.247,-19.5096 105.764,-21.0411 114.914,-26.3815 116.247,-19.5096"/>
</g>
<!-- Node5 -->
<g id="node9" class="node"><title>Node5</title>
<polygon fill="white" stroke="#bfbfbf" points="125.5,-1 125.5,-21 168.5,-21 168.5,-1 125.5,-1"/>
<text text-anchor="middle" x="147" y="-8" font-family="FreeSans" font-size="10.00">vector</text>
</g>
<!-- Node3&#45;&gt;Node5 -->
<g id="edge8" class="edge"><title>Node3&#45;&gt;Node5</title>
<path fill="none" stroke="midnightblue" d="M320.307,-61.2103C286.788,-53.0181 232.988,-39.3017 178.389,-22.2696"/>
<polygon fill="midnightblue" stroke="midnightblue" points="179.139,-18.8364 168.55,-19.1663 177.034,-25.5122 179.139,-18.8364"/>
</g>
<!-- Node6 -->
<g id="node11" class="node"><title>Node6</title>
<polygon fill="white" stroke="#bfbfbf" points="186,-1 186,-21 226,-21 226,-1 186,-1"/>
<text text-anchor="middle" x="206" y="-8" font-family="FreeSans" font-size="10.00">string</text>
</g>
<!-- Node3&#45;&gt;Node6 -->
<g id="edge10" class="edge"><title>Node3&#45;&gt;Node6</title>
<path fill="none" stroke="midnightblue" d="M327.395,-58.8972C301.865,-48.8245 262.682,-33.3644 235.778,-22.7491"/>
<polygon fill="midnightblue" stroke="midnightblue" points="236.709,-19.3538 226.122,-18.9393 234.139,-25.8653 236.709,-19.3538"/>
</g>
<!-- Node7 -->
<g id="node13" class="node"><title>Node7</title>
<polygon fill="white" stroke="#bfbfbf" points="243.5,-1 243.5,-21 294.5,-21 294.5,-1 243.5,-1"/>
<text text-anchor="middle" x="269" y="-8" font-family="FreeSans" font-size="10.00">ostream</text>
</g>
<!-- Node3&#45;&gt;Node7 -->
<g id="edge12" class="edge"><title>Node3&#45;&gt;Node7</title>
<path fill="none" stroke="midnightblue" d="M338.368,-58.8972C325.678,-50.1351 307.085,-37.2965 292.341,-27.1164"/>
<polygon fill="midnightblue" stroke="midnightblue" points="293.964,-23.9835 283.746,-21.1817 289.986,-29.7438 293.964,-23.9835"/>
</g>
<!-- Node8 -->
<g id="node15" class="node"><title>Node8</title>
<polygon fill="white" stroke="#bfbfbf" points="311.5,-1 311.5,-21 346.5,-21 346.5,-1 311.5,-1"/>
<text text-anchor="middle" x="329" y="-8" font-family="FreeSans" font-size="10.00">map</text>
</g>
<!-- Node3&#45;&gt;Node8 -->
<g id="edge14" class="edge"><title>Node3&#45;&gt;Node8</title>
<path fill="none" stroke="midnightblue" d="M348.82,-58.8972C345.624,-51.1747 341.118,-40.2857 337.21,-30.841"/>
<polygon fill="midnightblue" stroke="midnightblue" points="340.352,-29.2795 333.294,-21.3776 333.884,-31.956 340.352,-29.2795"/>
</g>
<!-- Node9 -->
<g id="node17" class="node"><title>Node9</title>
<polygon fill="white" stroke="#bfbfbf" points="363.5,-1 363.5,-21 392.5,-21 392.5,-1 363.5,-1"/>
<text text-anchor="middle" x="378" y="-8" font-family="FreeSans" font-size="10.00">set</text>
</g>
<!-- Node3&#45;&gt;Node9 -->
<g id="edge16" class="edge"><title>Node3&#45;&gt;Node9</title>
<path fill="none" stroke="midnightblue" d="M357.355,-58.8972C360.683,-51.1747 365.377,-40.2857 369.448,-30.841"/>
<polygon fill="midnightblue" stroke="midnightblue" points="372.783,-31.9463 373.527,-21.3776 366.354,-29.1754 372.783,-31.9463"/>
</g>
<!-- Node10 -->
<g id="node19" class="node"><title>Node10</title>
<polygon fill="white" stroke="#bfbfbf" points="410,-1 410,-21 460,-21 460,-1 410,-1"/>
<text text-anchor="middle" x="435" y="-8" font-family="FreeSans" font-size="10.00">sstream</text>
</g>
<!-- Node3&#45;&gt;Node10 -->
<g id="edge18" class="edge"><title>Node3&#45;&gt;Node10</title>
<path fill="none" stroke="midnightblue" d="M367.283,-58.8972C379.671,-50.1351 397.822,-37.2965 412.215,-27.1164"/>
<polygon fill="midnightblue" stroke="midnightblue" points="414.462,-29.8138 420.605,-21.1817 410.42,-24.0989 414.462,-29.8138"/>
</g>
<!-- Node11 -->
<g id="node21" class="node"><title>Node11</title>
<polygon fill="white" stroke="#bfbfbf" points="477.5,-1 477.5,-21 526.5,-21 526.5,-1 477.5,-1"/>
<text text-anchor="middle" x="502" y="-8" font-family="FreeSans" font-size="10.00">fstream</text>
</g>
<!-- Node3&#45;&gt;Node11 -->
<g id="edge20" class="edge"><title>Node3&#45;&gt;Node11</title>
<path fill="none" stroke="midnightblue" d="M378.954,-58.8972C403.608,-49.3004 440.824,-34.8134 467.871,-24.2852"/>
<polygon fill="midnightblue" stroke="midnightblue" points="469.284,-27.4911 477.333,-20.6019 466.744,-20.9679 469.284,-27.4911"/>
</g>
<!-- Node12 -->
<g id="node23" class="node"><title>Node12</title>
<polygon fill="white" stroke="#bfbfbf" points="544,-1 544,-21 600,-21 600,-1 544,-1"/>
<text text-anchor="middle" x="572" y="-8" font-family="FreeSans" font-size="10.00">algorithm</text>
</g>
<!-- Node3&#45;&gt;Node12 -->
<g id="edge22" class="edge"><title>Node3&#45;&gt;Node12</title>
<path fill="none" stroke="midnightblue" d="M385.643,-60.9493C420.145,-52.357 476.381,-38.1166 533.779,-22.2779"/>
<polygon fill="midnightblue" stroke="midnightblue" points="535.047,-25.5584 543.749,-19.5138 533.177,-18.8129 535.047,-25.5584"/>
</g>
<!-- Node13 -->
<g id="node25" class="node"><title>Node13</title>
<polygon fill="white" stroke="#bfbfbf" points="617.5,-1 617.5,-21 664.5,-21 664.5,-1 617.5,-1"/>
<text text-anchor="middle" x="641" y="-8" font-family="FreeSans" font-size="10.00">stdint.h</text>
</g>
<!-- Node3&#45;&gt;Node13 -->
<g id="edge24" class="edge"><title>Node3&#45;&gt;Node13</title>
<path fill="none" stroke="midnightblue" d="M385.671,-64.601C432.852,-57.9034 522.88,-43.832 607.588,-22.1141"/>
<polygon fill="midnightblue" stroke="midnightblue" points="608.561,-25.4775 617.355,-19.569 606.796,-18.7037 608.561,-25.4775"/>
</g>
<!-- Node14&#45;&gt;Node3 -->
<g id="edge28" class="edge"><title>Node14&#45;&gt;Node3</title>
<path fill="none" stroke="midnightblue" d="M307.124,-290.732C314.481,-255.173 338.96,-136.861 348.825,-89.1771"/>
<polygon fill="midnightblue" stroke="midnightblue" points="352.301,-89.6513 350.9,-79.1495 345.447,-88.233 352.301,-89.6513"/>
</g>
<!-- Node14&#45;&gt;Node15 -->
<g id="edge30" class="edge"><title>Node14&#45;&gt;Node15</title>
<path fill="none" stroke="midnightblue" d="M350.159,-291.81C398.966,-281.877 476.957,-266.005 530.679,-255.072"/>
<polygon fill="midnightblue" stroke="midnightblue" points="531.648,-258.447 540.749,-253.023 530.252,-251.588 531.648,-258.447"/>
</g>
<!-- Node14&#45;&gt;Node16 -->
<g id="edge34" class="edge"><title>Node14&#45;&gt;Node16</title>
<path fill="none" stroke="midnightblue" d="M276.608,-290.897C248.991,-281.07 206.965,-266.116 177.228,-255.535"/>
<polygon fill="midnightblue" stroke="midnightblue" points="178.248,-252.183 167.654,-252.128 175.902,-258.778 178.248,-252.183"/>
</g>
<!-- Node14&#45;&gt;Node17 -->
<g id="edge54" class="edge"><title>Node14&#45;&gt;Node17</title>
<path fill="none" stroke="midnightblue" d="M290.994,-290.909C263.043,-270.77 200.134,-225.444 166.39,-201.132"/>
<polygon fill="midnightblue" stroke="midnightblue" points="168.248,-198.157 158.088,-195.151 164.156,-203.836 168.248,-198.157"/>
</g>
<!-- Node14&#45;&gt;Node20 -->
<g id="edge46" class="edge"><title>Node14&#45;&gt;Node20</title>
<path fill="none" stroke="midnightblue" d="M317.019,-290.897C327.183,-282.353 341.959,-269.933 353.917,-259.881"/>
<polygon fill="midnightblue" stroke="midnightblue" points="356.251,-262.491 361.654,-253.378 351.747,-257.133 356.251,-262.491"/>
</g>
<!-- Node21 -->
<g id="node46" class="node"><title>Node21</title>
<a xlink:href="spinlock_8h.html" target="_top" xlink:title="Declares a Mutex, Mutex tools, and at least one MutexLike object. ">
<polygon fill="white" stroke="black" points="247.5,-117 247.5,-137 306.5,-137 306.5,-117 247.5,-117"/>
<text text-anchor="middle" x="277" y="-124" font-family="FreeSans" font-size="10.00">spinlock.h</text>
</a>
</g>
<!-- Node14&#45;&gt;Node21 -->
<g id="edge50" class="edge"><title>Node14&#45;&gt;Node21</title>
<path fill="none" stroke="midnightblue" d="M302.653,-290.954C300.486,-281.464 297.269,-266.815 295,-254 288.368,-216.539 282.572,-172.519 279.449,-147.377"/>
<polygon fill="midnightblue" stroke="midnightblue" points="282.898,-146.745 278.209,-137.244 275.95,-147.595 282.898,-146.745"/>
</g>
<!-- Node14&#45;&gt;Node22 -->
<g id="edge56" class="edge"><title>Node14&#45;&gt;Node22</title>
<path fill="none" stroke="midnightblue" d="M333.741,-290.897C360.867,-281.362 401.726,-266.999 431.628,-256.488"/>
<polygon fill="midnightblue" stroke="midnightblue" points="433.039,-259.702 441.312,-253.084 430.717,-253.099 433.039,-259.702"/>
</g>
<!-- Node23 -->
<g id="node53" class="node"><title>Node23</title>
<a xlink:href="barrier_8h.html" target="_top" xlink:title="The declaration of the Mezzanine::Threading::Barrier Barrier synchronization primitive. ">
<polygon fill="white" stroke="black" points="198.5,-175 198.5,-195 249.5,-195 249.5,-175 198.5,-175"/>
<text text-anchor="middle" x="224" y="-182" font-family="FreeSans" font-size="10.00">barrier.h</text>
</a>
</g>
<!-- Node14&#45;&gt;Node23 -->
<g id="edge60" class="edge"><title>Node14&#45;&gt;Node23</title>
<path fill="none" stroke="midnightblue" d="M292.362,-290.817C281.909,-281.919 267.179,-268.228 257,-254 246.058,-238.705 237.122,-219.216 231.323,-204.853"/>
<polygon fill="midnightblue" stroke="midnightblue" points="234.549,-203.493 227.67,-195.435 228.023,-206.024 234.549,-203.493"/>
</g>
<!-- Node15&#45;&gt;Node3 -->
<g id="edge32" class="edge"><title>Node15&#45;&gt;Node3</title>
<path fill="none" stroke="midnightblue" d="M576.233,-232.893C536.8,-203.942 423.175,-120.521 375.005,-85.1553"/>
<polygon fill="midnightblue" stroke="midnightblue" points="376.937,-82.2318 366.805,-79.135 372.794,-87.8744 376.937,-82.2318"/>
</g>
<!-- Node16&#45;&gt;Node17 -->
<g id="edge36" class="edge"><title>Node16&#45;&gt;Node17</title>
<path fill="none" stroke="midnightblue" d="M142.348,-232.897C142.609,-225.339 142.974,-214.748 143.295,-205.446"/>
<polygon fill="midnightblue" stroke="midnightblue" points="146.795,-205.492 143.642,-195.378 139.8,-205.251 146.795,-205.492"/>
</g>
<!-- Node16&#45;&gt;Node18 -->
<g id="edge40" class="edge"><title>Node16&#45;&gt;Node18</title>
<path fill="none" stroke="midnightblue" d="M128.413,-232.897C116.741,-224.218 99.6895,-211.538 86.0622,-201.405"/>
<polygon fill="midnightblue" stroke="midnightblue" points="87.8057,-198.34 77.6926,-195.182 83.6287,-203.957 87.8057,-198.34"/>
</g>
<!-- Node17&#45;&gt;Node3 -->
<g id="edge38" class="edge"><title>Node17&#45;&gt;Node3</title>
<path fill="none" stroke="midnightblue" d="M153.437,-174.784C167.542,-160.031 195.524,-132.705 224,-116 251.043,-100.135 284.354,-88.1647 310.351,-80.2756"/>
<polygon fill="midnightblue" stroke="midnightblue" points="311.681,-83.5325 320.285,-77.3501 309.704,-76.8176 311.681,-83.5325"/>
</g>
<!-- Node18&#45;&gt;Node19 -->
<g id="edge42" class="edge"><title>Node18&#45;&gt;Node19</title>
<path fill="none" stroke="midnightblue" d="M65.9161,-174.897C67.3495,-167.339 69.3582,-156.748 71.1224,-147.446"/>
<polygon fill="midnightblue" stroke="midnightblue" points="74.6071,-147.855 73.0318,-137.378 67.7297,-146.55 74.6071,-147.855"/>
</g>
<!-- Node19&#45;&gt;Node3 -->
<g id="edge44" class="edge"><title>Node19&#45;&gt;Node3</title>
<path fill="none" stroke="midnightblue" d="M123.107,-116.963C175.883,-105.953 259.789,-88.4469 310.31,-77.9065"/>
<polygon fill="midnightblue" stroke="midnightblue" points="311.181,-81.3003 320.255,-75.8316 309.751,-74.4478 311.181,-81.3003"/>
</g>
<!-- Node20&#45;&gt;Node3 -->
<g id="edge48" class="edge"><title>Node20&#45;&gt;Node3</title>
<path fill="none" stroke="midnightblue" d="M372.78,-232.893C369.417,-205.023 359.961,-126.675 355.452,-89.3131"/>
<polygon fill="midnightblue" stroke="midnightblue" points="358.896,-88.6435 354.223,-79.135 351.947,-89.4823 358.896,-88.6435"/>
</g>
<!-- Node21&#45;&gt;Node3 -->
<g id="edge52" class="edge"><title>Node21&#45;&gt;Node3</title>
<path fill="none" stroke="midnightblue" d="M290.238,-116.897C301.611,-108.218 318.226,-95.5384 331.503,-85.4053"/>
<polygon fill="midnightblue" stroke="midnightblue" points="333.832,-88.0308 339.659,-79.1817 329.586,-82.4661 333.832,-88.0308"/>
</g>
<!-- Node22&#45;&gt;Node3 -->
<g id="edge58" class="edge"><title>Node22&#45;&gt;Node3</title>
<path fill="none" stroke="midnightblue" d="M463.204,-232.893C444.221,-204.663 390.414,-124.641 365.698,-87.8844"/>
<polygon fill="midnightblue" stroke="midnightblue" points="368.299,-85.4804 359.815,-79.135 362.49,-89.3864 368.299,-85.4804"/>
</g>
<!-- Node23&#45;&gt;Node3 -->
<g id="edge62" class="edge"><title>Node23&#45;&gt;Node3</title>
<path fill="none" stroke="midnightblue" d="M223.436,-174.841C223.175,-160.159 224.837,-132.921 239,-116 256.934,-94.574 286.213,-82.7787 310.608,-76.3632"/>
<polygon fill="midnightblue" stroke="midnightblue" points="311.471,-79.7555 320.37,-74.0067 309.828,-72.9509 311.471,-79.7555"/>
</g>
<!-- Node23&#45;&gt;Node19 -->
<g id="edge64" class="edge"><title>Node23&#45;&gt;Node19</title>
<path fill="none" stroke="midnightblue" d="M198.386,-175.029C174.08,-165.568 137.343,-151.268 110.273,-140.731"/>
<polygon fill="midnightblue" stroke="midnightblue" points="111.367,-137.4 100.778,-137.035 108.828,-143.924 111.367,-137.4"/>
</g>
<!-- Node24&#45;&gt;Node3 -->
<g id="edge72" class="edge"><title>Node24&#45;&gt;Node3</title>
<path fill="none" stroke="midnightblue" d="M710.046,-290.893C718.678,-259.974 739.769,-165.754 693,-116 672.9,-94.6174 482.409,-78.3125 395.661,-71.932"/>
<polygon fill="midnightblue" stroke="midnightblue" points="395.842,-68.436 385.615,-71.2034 395.336,-75.4177 395.842,-68.436"/>
</g>
</g>
</svg>
        <g id="navigator" transform="translate(0 0)" fill="#404254">
                <rect fill="#f2f5e9" fill-opacity="0.5" stroke="#606060" stroke-width=".5" x="0" y="0" width="60" height="60"/>
                <use id="zoomplus" xlink:href="#zoomPlus" x="17" y="9" onmousedown="handleZoom(evt,'in')"/>
                <use id="zoomminus" xlink:href="#zoomMin" x="42" y="9" onmousedown="handleZoom(evt,'out')"/>
                <use id="reset" xlink:href="#resetDef" x="30" y="36" onmousedown="handleReset()"/>
                <g id="arrowUp" xlink:href="#dirArrow" transform="translate(30 24)" onmousedown="handlePan(0,-1)">
                  <use xlink:href="#rim" fill="#404040">
                        <set attributeName="fill" to="#808080" begin="arrowUp.mouseover" end="arrowUp.mouseout"/>
                  </use>
                  <path fill="none" stroke="white" stroke-width="1.5" d="M0,-3.0v7 M-2.5,-0.5L0,-3.0L2.5,-0.5"/>
                </g>
                <g id="arrowRight" xlink:href="#dirArrow" transform="rotate(90) translate(36 -43)" onmousedown="handlePan(1,0)">
                  <use xlink:href="#rim" fill="#404040">
                        <set attributeName="fill" to="#808080" begin="arrowRight.mouseover" end="arrowRight.mouseout"/>
                  </use>
                  <path fill="none" stroke="white" stroke-width="1.5" d="M0,-3.0v7 M-2.5,-0.5L0,-3.0L2.5,-0.5"/>
                </g>
                <g id="arrowDown" xlink:href="#dirArrow" transform="rotate(180) translate(-30 -48)" onmousedown="handlePan(0,1)">
                  <use xlink:href="#rim" fill="#404040">
                        <set attributeName="fill" to="#808080" begin="arrowDown.mouseover" end="arrowDown.mouseout"/>
                  </use>
                  <path fill="none" stroke="white" stroke-width="1.5" d="M0,-3.0v7 M-2.5,-0.5L0,-3.0L2.5,-0.5"/>
                </g>
                <g id="arrowLeft" xlink:href="#dirArrow" transform="rotate(270) translate(-36 17)" onmousedown="handlePan(-1,0)">
                  <use xlink:href="#rim" fill="#404040">
                        <set attributeName="fill" to="#808080" begin="arrowLeft.mouseover" end="arrowLeft.mouseout"/>
                  </use>
                  <path fill="none" stroke="white" stroke-width="1.5" d="M0,-3.0v7 M-2.5,-0.5L0,-3.0L2.5,-0.5"/>
                </g>
        </g>
        <svg viewBox="0 0 15 15" width="100%" height="30px" preserveAspectRatio="xMaxYMin meet">
         <g id="arrow_out" transform="scale(0.3 0.3)">
          <a xlink:href="workunit_8cpp__incl_org.svg" target="_base">
           <rect id="button" ry="5" rx="5" y="6" x="6" height="38" width="38"
                fill="#f2f5e9" fill-opacity="0.5" stroke="#606060" stroke-width="1.0"/>
           <path id="arrow"
             d="M 11.500037,31.436501 C 11.940474,20.09759 22.043105,11.32322 32.158766,21.979434 L 37.068811,17.246167 C 37.068811,17.246167 37.088388,32 37.088388,32 L 22.160133,31.978069 C 22.160133,31.978069 26.997745,27.140456 26.997745,27.140456 C 18.528582,18.264221 13.291696,25.230495 11.500037,31.436501 z"
             style="fill:#404040;"/>
          </a>
         </g>
        </svg>
</svg>
