<?xml version="1.0" encoding="UTF-8" standalone="no"?>
<!DOCTYPE svg PUBLIC "-//W3C//DTD SVG 1.1//EN"
 "http://www.w3.org/Graphics/SVG/1.1/DTD/svg11.dtd">
<!-- Generated by graphviz version 2.26.3 (20100126.1600)
 -->
<!-- Title: G Pages: 1 -->
<!--zoomable 452 -->
<svg id="main" version="1.1" xmlns="http://www.w3.org/2000/svg" xmlns:xlink="http://www.w3.org/1999/xlink" xml:space="preserve" onload="init(evt)">
        <defs>
                <circle id="rim" cx="0" cy="0" r="7"/>
                <circle id="rim2" cx="0" cy="0" r="3.5"/>
                <g id="zoomPlus">
                        <use xlink:href="#rim" fill="#404040">
                                <set attributeName="fill" to="#808080" begin="zoomplus.mouseover" end="zoomplus.mouseout"/>
                        </use>
                        <path d="M-4,0h8M0,-4v8" fill="none" stroke="white" stroke-width="1.5" pointer-events="none"/>
                </g>
                <g id="zoomMin">
                        <use xlink:href="#rim" fill="#404040">
                                <set attributeName="fill" to="#808080" begin="zoomminus.mouseover" end="zoomminus.mouseout"/>
                        </use>
                        <path d="M-4,0h8" fill="none" stroke="white" stroke-width="1.5" pointer-events="none"/>
                </g>
                <g id="dirArrow">
                        <path fill="none" stroke="white" stroke-width="1.5" d="M0,-3.0v7 M-2.5,-0.5L0,-3.0L2.5,-0.5"/>
                </g>
               <g id="resetDef">
                       <use xlink:href="#rim2" fill="#404040">
                               <set attributeName="fill" to="#808080" begin="reset.mouseover" end="reset.mouseout"/>
                       </use>
               </g>
        </defs>

<script type="text/javascript">
var viewWidth = 894;
var viewHeight = 452;
var sectionId = 'dynsection-0';
</script>
<script xlink:href="svgpan.js"/>
<svg id="graph" class="graph">
<g id="viewport">
<title>G</title>
<polygon fill="white" stroke="white" points="-4,5 -4,-448 891,-448 891,5 -4,5"/>
<!-- Node1 -->
<g id="node1" class="node"><title>Node1</title>
<polygon fill="#bfbfbf" stroke="black" points="305.5,-421 305.5,-443 376.5,-443 376.5,-421 305.5,-421"/>
<text text-anchor="middle" x="341" y="-430" font-family="FreeSans" font-size="10.00">workunit.cpp</text>
</g>
<!-- Node2 -->
<g id="node3" class="node"><title>Node2</title>
<a xlink:href="workunit_8h.html" target="_top" xlink:title="This file has the defintion of the workunit.">
<polygon fill="white" stroke="black" points="431.5,-361 431.5,-383 492.5,-383 492.5,-361 431.5,-361"/>
<text text-anchor="middle" x="462" y="-370" font-family="FreeSans" font-size="10.00">workunit.h</text>
</a>
</g>
<!-- Node1&#45;&gt;Node2 -->
<g id="edge2" class="edge"><title>Node1&#45;&gt;Node2</title>
<path fill="none" stroke="midnightblue" d="M363.193,-420.995C382.008,-411.666 409.218,-398.173 430.323,-387.708"/>
<polygon fill="midnightblue" stroke="midnightblue" points="432.134,-390.717 439.538,-383.138 429.024,-384.445 432.134,-390.717"/>
</g>
<!-- Node12 -->
<g id="node24" class="node"><title>Node12</title>
<a xlink:href="doublebufferedresource_8h.html" target="_top" xlink:title="This file defines the template double buffered resources that can be attached to a thread...">
<polygon fill="white" stroke="black" points="38.5,-241 38.5,-263 169.5,-263 169.5,-241 38.5,-241"/>
<text text-anchor="middle" x="104" y="-250" font-family="FreeSans" font-size="10.00">doublebufferedresource.h</text>
</a>
</g>
<!-- Node1&#45;&gt;Node12 -->
<g id="edge86" class="edge"><title>Node1&#45;&gt;Node12</title>
<path fill="none" stroke="midnightblue" d="M326.175,-420.74C286.011,-390.236 174.899,-305.847 126.745,-269.274"/>
<polygon fill="midnightblue" stroke="midnightblue" points="128.598,-266.287 118.517,-263.026 124.364,-271.861 128.598,-266.287"/>
</g>
<!-- Node17 -->
<g id="node36" class="node"><title>Node17</title>
<a xlink:href="systemcalls_8h.html" target="_top" xlink:title="This file defines a minimalistic cross&#45;platform thread that the scheduler uses to schedule tasks...">
<polygon fill="white" stroke="black" points="500.5,-181 500.5,-203 577.5,-203 577.5,-181 500.5,-181"/>
<text text-anchor="middle" x="539" y="-190" font-family="FreeSans" font-size="10.00">systemcalls.h</text>
</a>
</g>
<!-- Node1&#45;&gt;Node17 -->
<g id="edge80" class="edge"><title>Node1&#45;&gt;Node17</title>
<path fill="none" stroke="midnightblue" d="M338.211,-420.825C330.858,-388.473 314.485,-293.631 360,-240 376.777,-220.231 443.381,-206.329 490.42,-198.742"/>
<polygon fill="midnightblue" stroke="midnightblue" points="491.094,-202.179 500.432,-197.174 490.011,-195.263 491.094,-202.179"/>
</g>
<!-- Node26 -->
<g id="node67" class="node"><title>Node26</title>
<a xlink:href="atomiccas_8h.html" target="_top" xlink:title="Simple thread safe ways to check and change a specified variable atomically.">
<polygon fill="white" stroke="black" points="-0.5,-301 -0.5,-323 70.5,-323 70.5,-301 -0.5,-301"/>
<text text-anchor="middle" x="35" y="-310" font-family="FreeSans" font-size="10.00">atomiccas.h</text>
</a>
</g>
<!-- Node1&#45;&gt;Node26 -->
<g id="edge82" class="edge"><title>Node1&#45;&gt;Node26</title>
<path fill="none" stroke="midnightblue" d="M305.319,-423.357C272.086,-414.856 221.43,-400.743 179,-384 137.654,-367.685 92.1098,-343.856 63.5371,-328.144"/>
<polygon fill="midnightblue" stroke="midnightblue" points="64.9714,-324.938 54.5285,-323.15 61.5772,-331.06 64.9714,-324.938"/>
</g>
<!-- Node27 -->
<g id="node71" class="node"><title>Node27</title>
<polygon fill="white" stroke="#bfbfbf" points="510,-361 510,-383 560,-383 560,-361 510,-361"/>
<text text-anchor="middle" x="535" y="-370" font-family="FreeSans" font-size="10.00">cassert</text>
</g>
<!-- Node1&#45;&gt;Node27 -->
<g id="edge88" class="edge"><title>Node1&#45;&gt;Node27</title>
<path fill="none" stroke="midnightblue" d="M376.739,-421.809C407.232,-412.997 452.447,-399.652 500.212,-384.171"/>
<polygon fill="midnightblue" stroke="midnightblue" points="501.372,-387.474 509.795,-381.047 499.202,-380.819 501.372,-387.474"/>
</g>
<!-- Node3 -->
<g id="node5" class="node"><title>Node3</title>
<a xlink:href="datatypes_8h.html" target="_top" xlink:title="This file declares a few typedefs to allow flexibility, in case a change is required/desired.">
<polygon fill="white" stroke="black" points="439,-121 439,-143 507,-143 507,-121 439,-121"/>
<text text-anchor="middle" x="473" y="-130" font-family="FreeSans" font-size="10.00">datatypes.h</text>
</a>
</g>
<!-- Node2&#45;&gt;Node3 -->
<g id="edge4" class="edge"><title>Node2&#45;&gt;Node3</title>
<path fill="none" stroke="midnightblue" d="M492.562,-362.224C495.403,-361.428 498.247,-360.673 501,-360 587.462,-338.876 639.87,-391.4 698,-324 722.39,-295.721 719.301,-271.969 700,-240 661.115,-175.592 571.664,-148.954 517.382,-138.425"/>
<polygon fill="midnightblue" stroke="midnightblue" points="517.815,-134.946 507.348,-136.584 516.552,-141.831 517.815,-134.946"/>
</g>
<!-- Node11 -->
<g id="node21" class="node"><title>Node11</title>
<a xlink:href="framescheduler_8h.html" target="_top" xlink:title="This file has the Declarations for the main FrameScheduler class.">
<polygon fill="white" stroke="black" points="451,-301 451,-323 545,-323 545,-301 451,-301"/>
<text text-anchor="middle" x="498" y="-310" font-family="FreeSans" font-size="10.00">framescheduler.h</text>
</a>
</g>
<!-- Node2&#45;&gt;Node11 -->
<g id="edge20" class="edge"><title>Node2&#45;&gt;Node11</title>
<path fill="none" stroke="midnightblue" d="M468.603,-360.995C473.464,-352.894 480.208,-341.653 486.011,-331.981"/>
<polygon fill="midnightblue" stroke="midnightblue" points="489.051,-333.719 491.194,-323.343 483.048,-330.117 489.051,-333.719"/>
</g>
<!-- Node15 -->
<g id="node31" class="node"><title>Node15</title>
<polygon fill="white" stroke="#bfbfbf" points="271,-181 271,-203 315,-203 315,-181 271,-181"/>
<text text-anchor="middle" x="293" y="-190" font-family="FreeSans" font-size="10.00">vector</text>
</g>
<!-- Node2&#45;&gt;Node15 -->
<g id="edge78" class="edge"><title>Node2&#45;&gt;Node15</title>
<path fill="none" stroke="midnightblue" d="M451.548,-360.987C433.046,-341.48 393.338,-299.561 360,-264 343.052,-245.922 323.788,-225.202 310.28,-210.645"/>
<polygon fill="midnightblue" stroke="midnightblue" points="312.786,-208.2 303.419,-203.248 307.653,-212.96 312.786,-208.2"/>
</g>
<!-- Node16 -->
<g id="node33" class="node"><title>Node16</title>
<a xlink:href="thread_8h.html" target="_top" xlink:title="This file defines a minimalistic cross&#45;platform thread that the scheduler uses to schedule tasks...">
<polygon fill="white" stroke="black" points="746.5,-241 746.5,-263 799.5,-263 799.5,-241 746.5,-241"/>
<text text-anchor="middle" x="773" y="-250" font-family="FreeSans" font-size="10.00">thread.h</text>
</a>
</g>
<!-- Node2&#45;&gt;Node16 -->
<g id="edge74" class="edge"><title>Node2&#45;&gt;Node16</title>
<path fill="none" stroke="midnightblue" d="M492.543,-362.145C495.388,-361.366 498.239,-360.636 501,-360 602.686,-336.596 647.403,-383.675 733,-324 750.417,-311.858 761.086,-289.581 766.976,-273.009"/>
<polygon fill="midnightblue" stroke="midnightblue" points="770.431,-273.699 770.179,-263.107 763.771,-271.544 770.431,-273.699"/>
</g>
<!-- Node18 -->
<g id="node39" class="node"><title>Node18</title>
<a xlink:href="mutex_8h.html" target="_top" xlink:title="This file declares and defines a mutex that is a partial implementation.">
<polygon fill="white" stroke="black" points="732.5,-121 732.5,-143 783.5,-143 783.5,-121 732.5,-121"/>
<text text-anchor="middle" x="758" y="-130" font-family="FreeSans" font-size="10.00">mutex.h</text>
</a>
</g>
<!-- Node2&#45;&gt;Node18 -->
<g id="edge64" class="edge"><title>Node2&#45;&gt;Node18</title>
<path fill="none" stroke="midnightblue" d="M492.534,-362.103C495.38,-361.332 498.234,-360.616 501,-360 613.15,-335.026 656.334,-379.387 757,-324 795.266,-302.946 817.394,-282.653 808,-240 800.793,-207.278 782.653,-172.675 770.324,-151.705"/>
<polygon fill="midnightblue" stroke="midnightblue" points="773.288,-149.842 765.128,-143.085 767.293,-153.456 773.288,-149.842"/>
</g>
<!-- Node20 -->
<g id="node46" class="node"><title>Node20</title>
<a xlink:href="workunitkey_8h.html" target="_top" xlink:title="This file defines the metadata used to sort workunits.">
<polygon fill="white" stroke="black" points="368.5,-241 368.5,-263 445.5,-263 445.5,-241 368.5,-241"/>
<text text-anchor="middle" x="407" y="-250" font-family="FreeSans" font-size="10.00">workunitkey.h</text>
</a>
</g>
<!-- Node2&#45;&gt;Node20 -->
<g id="edge76" class="edge"><title>Node2&#45;&gt;Node20</title>
<path fill="none" stroke="midnightblue" d="M456.924,-360.926C447.674,-340.744 427.951,-297.712 416.254,-272.191"/>
<polygon fill="midnightblue" stroke="midnightblue" points="419.412,-270.68 412.063,-263.047 413.048,-273.596 419.412,-270.68"/>
</g>
<!-- Node24 -->
<g id="node57" class="node"><title>Node24</title>
<a xlink:href="rollingaverage_8h.html" target="_top" xlink:title="This Store the implementation and the declaration of the RollingAverage, BufferedRollingAverage, WeightedRollingAverage and the DefaultRollingAverage.">
<polygon fill="white" stroke="black" points="186.5,-241 186.5,-263 275.5,-263 275.5,-241 186.5,-241"/>
<text text-anchor="middle" x="231" y="-250" font-family="FreeSans" font-size="10.00">rollingaverage.h</text>
</a>
</g>
<!-- Node2&#45;&gt;Node24 -->
<g id="edge66" class="edge"><title>Node2&#45;&gt;Node24</title>
<path fill="none" stroke="midnightblue" d="M439.157,-360.964C419.431,-351.371 390.214,-337.008 365,-324 328.679,-305.262 287.303,-282.868 260.256,-268.085"/>
<polygon fill="midnightblue" stroke="midnightblue" points="261.771,-264.924 251.319,-263.192 258.41,-271.064 261.771,-264.924"/>
</g>
<!-- Node25 -->
<g id="node61" class="node"><title>Node25</title>
<a xlink:href="threadingenumerations_8h.html" target="_top" xlink:title="Any enumerations the threading library requires are all declared here.">
<polygon fill="white" stroke="black" points="562.5,-301 562.5,-323 689.5,-323 689.5,-301 562.5,-301"/>
<text text-anchor="middle" x="626" y="-310" font-family="FreeSans" font-size="10.00">threadingenumerations.h</text>
</a>
</g>
<!-- Node2&#45;&gt;Node25 -->
<g id="edge72" class="edge"><title>Node2&#45;&gt;Node25</title>
<path fill="none" stroke="midnightblue" d="M492.08,-360.995C518.583,-351.299 557.377,-337.106 586.398,-326.489"/>
<polygon fill="midnightblue" stroke="midnightblue" points="587.645,-329.759 595.833,-323.037 585.24,-323.186 587.645,-329.759"/>
</g>
<!-- Node4 -->
<g id="node7" class="node"><title>Node4</title>
<a xlink:href="compilerthreadcompat_8h.html" target="_top" xlink:title="This file determines what features are offered by the compiler that this library can take advantage o...">
<polygon fill="white" stroke="black" points="696,-61 696,-83 820,-83 820,-61 696,-61"/>
<text text-anchor="middle" x="758" y="-70" font-family="FreeSans" font-size="10.00">compilerthreadcompat.h</text>
</a>
</g>
<!-- Node3&#45;&gt;Node4 -->
<g id="edge6" class="edge"><title>Node3&#45;&gt;Node4</title>
<path fill="none" stroke="midnightblue" d="M507.095,-124.822C553.578,-115.036 637.672,-97.3322 695.604,-85.1359"/>
<polygon fill="midnightblue" stroke="midnightblue" points="696.678,-88.4867 705.742,-83.0016 695.236,-81.6368 696.678,-88.4867"/>
</g>
<!-- Node9 -->
<g id="node17" class="node"><title>Node9</title>
<polygon fill="white" stroke="#bfbfbf" points="575.5,-61 575.5,-83 616.5,-83 616.5,-61 575.5,-61"/>
<text text-anchor="middle" x="596" y="-70" font-family="FreeSans" font-size="10.00">string</text>
</g>
<!-- Node3&#45;&gt;Node9 -->
<g id="edge16" class="edge"><title>Node3&#45;&gt;Node9</title>
<path fill="none" stroke="midnightblue" d="M495.56,-120.995C515.376,-111.329 544.354,-97.1933 566.097,-86.5867"/>
<polygon fill="midnightblue" stroke="midnightblue" points="567.769,-89.6657 575.222,-82.1358 564.699,-83.3744 567.769,-89.6657"/>
</g>
<!-- Node10 -->
<g id="node19" class="node"><title>Node10</title>
<polygon fill="white" stroke="#bfbfbf" points="449.5,-61 449.5,-83 496.5,-83 496.5,-61 449.5,-61"/>
<text text-anchor="middle" x="473" y="-70" font-family="FreeSans" font-size="10.00">stdint.h</text>
</g>
<!-- Node3&#45;&gt;Node10 -->
<g id="edge18" class="edge"><title>Node3&#45;&gt;Node10</title>
<path fill="none" stroke="midnightblue" d="M473,-120.995C473,-113.311 473,-102.803 473,-93.4884"/>
<polygon fill="midnightblue" stroke="midnightblue" points="476.5,-93.3428 473,-83.3428 469.5,-93.3429 476.5,-93.3428"/>
</g>
<!-- Node5 -->
<g id="node9" class="node"><title>Node5</title>
<polygon fill="white" stroke="#bfbfbf" points="622,-1 622,-23 680,-23 680,-1 622,-1"/>
<text text-anchor="middle" x="651" y="-10" font-family="FreeSans" font-size="10.00">pthread.h</text>
</g>
<!-- Node4&#45;&gt;Node5 -->
<g id="edge8" class="edge"><title>Node4&#45;&gt;Node5</title>
<path fill="none" stroke="midnightblue" d="M738.375,-60.9951C721.962,-51.7917 698.324,-38.5366 679.772,-28.1336"/>
<polygon fill="midnightblue" stroke="midnightblue" points="681.298,-24.9766 670.863,-23.1383 677.874,-31.0822 681.298,-24.9766"/>
</g>
<!-- Node6 -->
<g id="node11" class="node"><title>Node6</title>
<polygon fill="white" stroke="#bfbfbf" points="697.5,-1 697.5,-23 748.5,-23 748.5,-1 697.5,-1"/>
<text text-anchor="middle" x="723" y="-10" font-family="FreeSans" font-size="10.00">signal.h</text>
</g>
<!-- Node4&#45;&gt;Node6 -->
<g id="edge10" class="edge"><title>Node4&#45;&gt;Node6</title>
<path fill="none" stroke="midnightblue" d="M751.58,-60.9951C746.855,-52.8936 740.297,-41.6525 734.656,-31.981"/>
<polygon fill="midnightblue" stroke="midnightblue" points="737.679,-30.2171 729.617,-23.3428 731.632,-33.7442 737.679,-30.2171"/>
</g>
<!-- Node7 -->
<g id="node13" class="node"><title>Node7</title>
<polygon fill="white" stroke="#bfbfbf" points="766,-1 766,-23 818,-23 818,-1 766,-1"/>
<text text-anchor="middle" x="792" y="-10" font-family="FreeSans" font-size="10.00">sched.h</text>
</g>
<!-- Node4&#45;&gt;Node7 -->
<g id="edge12" class="edge"><title>Node4&#45;&gt;Node7</title>
<path fill="none" stroke="midnightblue" d="M764.236,-60.9951C768.78,-52.9771 775.066,-41.884 780.508,-32.2806"/>
<polygon fill="midnightblue" stroke="midnightblue" points="783.687,-33.7686 785.572,-23.3428 777.597,-30.3175 783.687,-33.7686"/>
</g>
<!-- Node8 -->
<g id="node15" class="node"><title>Node8</title>
<polygon fill="white" stroke="#bfbfbf" points="836,-1 836,-23 886,-23 886,-1 836,-1"/>
<text text-anchor="middle" x="861" y="-10" font-family="FreeSans" font-size="10.00">unistd.h</text>
</g>
<!-- Node4&#45;&gt;Node8 -->
<g id="edge14" class="edge"><title>Node4&#45;&gt;Node8</title>
<path fill="none" stroke="midnightblue" d="M776.892,-60.9951C792.619,-51.8337 815.238,-38.6576 833.059,-28.2763"/>
<polygon fill="midnightblue" stroke="midnightblue" points="835,-31.1962 841.879,-23.1383 831.477,-25.1476 835,-31.1962"/>
</g>
<!-- Node11&#45;&gt;Node3 -->
<g id="edge22" class="edge"><title>Node11&#45;&gt;Node3</title>
<path fill="none" stroke="midnightblue" d="M496.436,-300.74C492.35,-271.319 481.301,-191.769 475.965,-153.345"/>
<polygon fill="midnightblue" stroke="midnightblue" points="479.406,-152.679 474.563,-143.256 472.472,-153.642 479.406,-152.679"/>
</g>
<!-- Node11&#45;&gt;Node12 -->
<g id="edge24" class="edge"><title>Node11&#45;&gt;Node12</title>
<path fill="none" stroke="midnightblue" d="M450.802,-305.099C390.366,-296.223 282.119,-280.192 179.946,-264.293"/>
<polygon fill="midnightblue" stroke="midnightblue" points="180.181,-260.788 169.761,-262.706 179.103,-267.704 180.181,-260.788"/>
</g>
<!-- Node11&#45;&gt;Node16 -->
<g id="edge34" class="edge"><title>Node11&#45;&gt;Node16</title>
<path fill="none" stroke="midnightblue" d="M545.274,-301.686C599.468,-289.862 687.141,-270.733 736.396,-259.986"/>
<polygon fill="midnightblue" stroke="midnightblue" points="737.274,-263.377 746.298,-257.826 735.782,-256.538 737.274,-263.377"/>
</g>
<!-- Node11&#45;&gt;Node17 -->
<g id="edge56" class="edge"><title>Node11&#45;&gt;Node17</title>
<path fill="none" stroke="midnightblue" d="M501.784,-300.926C508.649,-280.834 523.252,-238.093 531.985,-212.531"/>
<polygon fill="midnightblue" stroke="midnightblue" points="535.304,-213.642 535.225,-203.047 528.68,-211.379 535.304,-213.642"/>
</g>
<!-- Node11&#45;&gt;Node20 -->
<g id="edge52" class="edge"><title>Node11&#45;&gt;Node20</title>
<path fill="none" stroke="midnightblue" d="M481.309,-300.995C467.669,-292.002 448.162,-279.14 432.557,-268.851"/>
<polygon fill="midnightblue" stroke="midnightblue" points="434.168,-265.721 423.893,-263.138 430.315,-271.565 434.168,-265.721"/>
</g>
<!-- Node21 -->
<g id="node50" class="node"><title>Node21</title>
<polygon fill="white" stroke="#bfbfbf" points="607,-241 607,-263 643,-263 643,-241 607,-241"/>
<text text-anchor="middle" x="625" y="-250" font-family="FreeSans" font-size="10.00">map</text>
</g>
<!-- Node11&#45;&gt;Node21 -->
<g id="edge58" class="edge"><title>Node11&#45;&gt;Node21</title>
<path fill="none" stroke="midnightblue" d="M521.294,-300.995C542.848,-290.812 574.902,-275.668 597.66,-264.916"/>
<polygon fill="midnightblue" stroke="midnightblue" points="599.24,-268.041 606.787,-260.605 596.25,-261.712 599.24,-268.041"/>
</g>
<!-- Node22 -->
<g id="node52" class="node"><title>Node22</title>
<polygon fill="white" stroke="#bfbfbf" points="661,-241 661,-263 691,-263 691,-241 661,-241"/>
<text text-anchor="middle" x="676" y="-250" font-family="FreeSans" font-size="10.00">set</text>
</g>
<!-- Node11&#45;&gt;Node22 -->
<g id="edge60" class="edge"><title>Node11&#45;&gt;Node22</title>
<path fill="none" stroke="midnightblue" d="M539.814,-300.945C569.012,-292.785 608.936,-280.749 651.521,-263.805"/>
<polygon fill="midnightblue" stroke="midnightblue" points="652.978,-266.991 660.935,-259.995 650.352,-260.502 652.978,-266.991"/>
</g>
<!-- Node23 -->
<g id="node54" class="node"><title>Node23</title>
<polygon fill="white" stroke="#bfbfbf" points="539,-241 539,-263 589,-263 589,-241 539,-241"/>
<text text-anchor="middle" x="564" y="-250" font-family="FreeSans" font-size="10.00">fstream</text>
</g>
<!-- Node11&#45;&gt;Node23 -->
<g id="edge62" class="edge"><title>Node11&#45;&gt;Node23</title>
<path fill="none" stroke="midnightblue" d="M510.105,-300.995C519.568,-292.392 532.925,-280.25 543.974,-270.205"/>
<polygon fill="midnightblue" stroke="midnightblue" points="546.478,-272.659 551.523,-263.343 541.769,-267.48 546.478,-272.659"/>
</g>
<!-- Node12&#45;&gt;Node3 -->
<g id="edge26" class="edge"><title>Node12&#45;&gt;Node3</title>
<path fill="none" stroke="midnightblue" d="M91.8958,-240.862C76.8033,-225.653 54.8427,-198.201 71,-180 94.4628,-153.569 329.204,-139.041 428.75,-134.027"/>
<polygon fill="midnightblue" stroke="midnightblue" points="428.98,-137.52 438.795,-133.531 428.634,-130.529 428.98,-137.52"/>
</g>
<!-- Node13 -->
<g id="node27" class="node"><title>Node13</title>
<polygon fill="white" stroke="#bfbfbf" points="80,-181 80,-203 138,-203 138,-181 80,-181"/>
<text text-anchor="middle" x="109" y="-190" font-family="FreeSans" font-size="10.00">algorithm</text>
</g>
<!-- Node12&#45;&gt;Node13 -->
<g id="edge28" class="edge"><title>Node12&#45;&gt;Node13</title>
<path fill="none" stroke="midnightblue" d="M104.917,-240.995C105.557,-233.311 106.433,-222.803 107.209,-213.488"/>
<polygon fill="midnightblue" stroke="midnightblue" points="110.712,-213.599 108.055,-203.343 103.736,-213.018 110.712,-213.599"/>
</g>
<!-- Node14 -->
<g id="node29" class="node"><title>Node14</title>
<polygon fill="white" stroke="#bfbfbf" points="155.5,-181 155.5,-203 208.5,-203 208.5,-181 155.5,-181"/>
<text text-anchor="middle" x="182" y="-190" font-family="FreeSans" font-size="10.00">sstream</text>
</g>
<!-- Node12&#45;&gt;Node14 -->
<g id="edge30" class="edge"><title>Node12&#45;&gt;Node14</title>
<path fill="none" stroke="midnightblue" d="M118.306,-240.995C129.779,-232.17 146.095,-219.619 159.341,-209.43"/>
<polygon fill="midnightblue" stroke="midnightblue" points="161.728,-212.01 167.52,-203.138 157.46,-206.461 161.728,-212.01"/>
</g>
<!-- Node12&#45;&gt;Node15 -->
<g id="edge32" class="edge"><title>Node12&#45;&gt;Node15</title>
<path fill="none" stroke="midnightblue" d="M138.666,-240.995C173.626,-229.896 227.148,-212.905 261.092,-202.13"/>
<polygon fill="midnightblue" stroke="midnightblue" points="262.483,-205.36 270.955,-198.998 260.365,-198.688 262.483,-205.36"/>
</g>
<!-- Node16&#45;&gt;Node4 -->
<g id="edge36" class="edge"><title>Node16&#45;&gt;Node4</title>
<path fill="none" stroke="midnightblue" d="M777.91,-240.772C787.314,-217.646 805.763,-163.242 792,-120 788.644,-109.455 782.037,-99.2376 775.533,-90.959"/>
<polygon fill="midnightblue" stroke="midnightblue" points="778.045,-88.5074 768.933,-83.1015 772.685,-93.0098 778.045,-88.5074"/>
</g>
<!-- Node16&#45;&gt;Node15 -->
<g id="edge50" class="edge"><title>Node16&#45;&gt;Node15</title>
<path fill="none" stroke="midnightblue" d="M746.347,-247.32C732.539,-244.971 715.388,-242.171 700,-240 560.902,-220.375 394.272,-202.47 325.314,-195.305"/>
<polygon fill="midnightblue" stroke="midnightblue" points="325.412,-191.797 315.105,-194.249 324.691,-198.76 325.412,-191.797"/>
</g>
<!-- Node16&#45;&gt;Node17 -->
<g id="edge38" class="edge"><title>Node16&#45;&gt;Node17</title>
<path fill="none" stroke="midnightblue" d="M746.157,-245.117C707.491,-235.203 635.492,-216.742 587.4,-204.41"/>
<polygon fill="midnightblue" stroke="midnightblue" points="588.078,-200.971 577.522,-201.877 586.339,-207.751 588.078,-200.971"/>
</g>
<!-- Node16&#45;&gt;Node18 -->
<g id="edge42" class="edge"><title>Node16&#45;&gt;Node18</title>
<path fill="none" stroke="midnightblue" d="M771.616,-240.926C769.127,-221.012 763.856,-178.851 760.652,-153.216"/>
<polygon fill="midnightblue" stroke="midnightblue" points="764.094,-152.536 759.381,-143.047 757.148,-153.404 764.094,-152.536"/>
</g>
<!-- Node19 -->
<g id="node43" class="node"><title>Node19</title>
<polygon fill="white" stroke="#bfbfbf" points="692.5,-181 692.5,-203 745.5,-203 745.5,-181 692.5,-181"/>
<text text-anchor="middle" x="719" y="-190" font-family="FreeSans" font-size="10.00">ostream</text>
</g>
<!-- Node16&#45;&gt;Node19 -->
<g id="edge48" class="edge"><title>Node16&#45;&gt;Node19</title>
<path fill="none" stroke="midnightblue" d="M763.096,-240.995C755.504,-232.56 744.848,-220.72 735.914,-210.793"/>
<polygon fill="midnightblue" stroke="midnightblue" points="738.5,-208.434 729.209,-203.343 733.297,-213.117 738.5,-208.434"/>
</g>
<!-- Node17&#45;&gt;Node3 -->
<g id="edge40" class="edge"><title>Node17&#45;&gt;Node3</title>
<path fill="none" stroke="midnightblue" d="M526.895,-180.995C517.432,-172.392 504.075,-160.25 493.026,-150.205"/>
<polygon fill="midnightblue" stroke="midnightblue" points="495.231,-147.48 485.477,-143.343 490.522,-152.659 495.231,-147.48"/>
</g>
<!-- Node18&#45;&gt;Node4 -->
<g id="edge44" class="edge"><title>Node18&#45;&gt;Node4</title>
<path fill="none" stroke="midnightblue" d="M758,-120.995C758,-113.311 758,-102.803 758,-93.4884"/>
<polygon fill="midnightblue" stroke="midnightblue" points="761.5,-93.3428 758,-83.3428 754.5,-93.3429 761.5,-93.3428"/>
</g>
<!-- Node18&#45;&gt;Node9 -->
<g id="edge46" class="edge"><title>Node18&#45;&gt;Node9</title>
<path fill="none" stroke="midnightblue" d="M732.331,-122.493C703.634,-111.865 657.191,-94.6633 626.622,-83.3416"/>
<polygon fill="midnightblue" stroke="midnightblue" points="627.506,-79.9366 616.913,-79.7455 625.075,-86.5009 627.506,-79.9366"/>
</g>
<!-- Node20&#45;&gt;Node3 -->
<g id="edge54" class="edge"><title>Node20&#45;&gt;Node3</title>
<path fill="none" stroke="midnightblue" d="M413.091,-240.926C424.24,-220.655 448.068,-177.331 462.081,-151.853"/>
<polygon fill="midnightblue" stroke="midnightblue" points="465.171,-153.496 466.924,-143.047 459.038,-150.123 465.171,-153.496"/>
</g>
<!-- Node24&#45;&gt;Node3 -->
<g id="edge70" class="edge"><title>Node24&#45;&gt;Node3</title>
<path fill="none" stroke="midnightblue" d="M232.595,-240.873C235.493,-224.898 243.169,-195.668 262,-180 286.96,-159.233 374.416,-144.626 428.588,-137.329"/>
<polygon fill="midnightblue" stroke="midnightblue" points="429.164,-140.783 438.622,-136.009 428.251,-133.843 429.164,-140.783"/>
</g>
<!-- Node24&#45;&gt;Node15 -->
<g id="edge68" class="edge"><title>Node24&#45;&gt;Node15</title>
<path fill="none" stroke="midnightblue" d="M242.372,-240.995C251.175,-232.476 263.565,-220.485 273.885,-210.499"/>
<polygon fill="midnightblue" stroke="midnightblue" points="276.527,-212.812 281.279,-203.343 271.659,-207.782 276.527,-212.812"/>
</g>
<!-- Node26&#45;&gt;Node3 -->
<g id="edge84" class="edge"><title>Node26&#45;&gt;Node3</title>
<path fill="none" stroke="midnightblue" d="M33.522,-300.968C32.2994,-291.255 30.6606,-276.718 30,-264 27.9357,-224.259 28.2676,-202.632 61,-180 90.8194,-159.382 328.657,-141.5 428.801,-134.808"/>
<polygon fill="midnightblue" stroke="midnightblue" points="429.153,-138.292 438.9,-134.14 428.691,-131.307 429.153,-138.292"/>
</g>
</g>
</svg>
        <g id="navigator" transform="translate(0 0)" fill="#404254">
                <rect fill="#f2f5e9" fill-opacity="0.5" stroke="#606060" stroke-width=".5" x="0" y="0" width="60" height="60"/>
                <use id="zoomplus" xlink:href="#zoomPlus" x="17" y="9" onmousedown="handleZoom(evt,'in')"/>
                <use id="zoomminus" xlink:href="#zoomMin" x="42" y="9" onmousedown="handleZoom(evt,'out')"/>
                <use id="reset" xlink:href="#resetDef" x="30" y="36" onmousedown="handleReset()"/>
                <g id="arrowUp" xlink:href="#dirArrow" transform="translate(30 24)" onmousedown="handlePan(0,-1)">
                  <use xlink:href="#rim" fill="#404040">
                        <set attributeName="fill" to="#808080" begin="arrowUp.mouseover" end="arrowUp.mouseout"/>
                  </use>
                  <path fill="none" stroke="white" stroke-width="1.5" d="M0,-3.0v7 M-2.5,-0.5L0,-3.0L2.5,-0.5"/>
                </g>
                <g id="arrowRight" xlink:href="#dirArrow" transform="rotate(90) translate(36 -43)" onmousedown="handlePan(1,0)">
                  <use xlink:href="#rim" fill="#404040">
                        <set attributeName="fill" to="#808080" begin="arrowRight.mouseover" end="arrowRight.mouseout"/>
                  </use>
                  <path fill="none" stroke="white" stroke-width="1.5" d="M0,-3.0v7 M-2.5,-0.5L0,-3.0L2.5,-0.5"/>
                </g>
                <g id="arrowDown" xlink:href="#dirArrow" transform="rotate(180) translate(-30 -48)" onmousedown="handlePan(0,1)">
                  <use xlink:href="#rim" fill="#404040">
                        <set attributeName="fill" to="#808080" begin="arrowDown.mouseover" end="arrowDown.mouseout"/>
                  </use>
                  <path fill="none" stroke="white" stroke-width="1.5" d="M0,-3.0v7 M-2.5,-0.5L0,-3.0L2.5,-0.5"/>
                </g>
                <g id="arrowLeft" xlink:href="#dirArrow" transform="rotate(270) translate(-36 17)" onmousedown="handlePan(-1,0)">
                  <use xlink:href="#rim" fill="#404040">
                        <set attributeName="fill" to="#808080" begin="arrowLeft.mouseover" end="arrowLeft.mouseout"/>
                  </use>
                  <path fill="none" stroke="white" stroke-width="1.5" d="M0,-3.0v7 M-2.5,-0.5L0,-3.0L2.5,-0.5"/>
                </g>
        </g>
</svg>
