<?xml version="1.0" encoding="UTF-8" standalone="no"?>
<!DOCTYPE svg PUBLIC "-//W3C//DTD SVG 1.1//EN"
 "http://www.w3.org/Graphics/SVG/1.1/DTD/svg11.dtd">
<!-- Generated by graphviz version 2.26.3 (20100126.1600)
 -->
<!-- Title: G Pages: 1 -->
<!--zoomable 392 -->
<svg id="main" version="1.1" xmlns="http://www.w3.org/2000/svg" xmlns:xlink="http://www.w3.org/1999/xlink" xml:space="preserve" onload="init(evt)">
        <defs>
                <circle id="rim" cx="0" cy="0" r="7"/>
                <circle id="rim2" cx="0" cy="0" r="3.5"/>
                <g id="zoomPlus">
                        <use xlink:href="#rim" fill="#404040">
                                <set attributeName="fill" to="#808080" begin="zoomplus.mouseover" end="zoomplus.mouseout"/>
                        </use>
                        <path d="M-4,0h8M0,-4v8" fill="none" stroke="white" stroke-width="1.5" pointer-events="none"/>
                </g>
                <g id="zoomMin">
                        <use xlink:href="#rim" fill="#404040">
                                <set attributeName="fill" to="#808080" begin="zoomminus.mouseover" end="zoomminus.mouseout"/>
                        </use>
                        <path d="M-4,0h8" fill="none" stroke="white" stroke-width="1.5" pointer-events="none"/>
                </g>
                <g id="dirArrow">
                        <path fill="none" stroke="white" stroke-width="1.5" d="M0,-3.0v7 M-2.5,-0.5L0,-3.0L2.5,-0.5"/>
                </g>
               <g id="resetDef">
                       <use xlink:href="#rim2" fill="#404040">
                               <set attributeName="fill" to="#808080" begin="reset.mouseover" end="reset.mouseout"/>
                       </use>
               </g>
        </defs>

<script type="text/javascript">
var viewWidth = 1041;
var viewHeight = 392;
var sectionId = 'dynsection-0';
</script>
<script xlink:href="svgpan.js"/>
<svg id="graph" class="graph">
<g id="viewport">
<title>G</title>
<polygon fill="white" stroke="white" points="-4,5 -4,-388 1038,-388 1038,5 -4,5"/>
<!-- Node1 -->
<g id="node1" class="node"><title>Node1</title>
<polygon fill="#bfbfbf" stroke="black" points="521.5,-361 521.5,-383 582.5,-383 582.5,-361 521.5,-361"/>
<text text-anchor="middle" x="552" y="-370" font-family="FreeSans" font-size="10.00">workunit.h</text>
</g>
<!-- Node2 -->
<g id="node3" class="node"><title>Node2</title>
<a xlink:href="datatypes_8h.html" target="_top" xlink:title="This file declares a few typedefs to allow flexibility, in case a change is required/desired.">
<polygon fill="white" stroke="black" points="429,-121 429,-143 497,-143 497,-121 429,-121"/>
<text text-anchor="middle" x="463" y="-130" font-family="FreeSans" font-size="10.00">datatypes.h</text>
</a>
</g>
<!-- Node1&#45;&gt;Node2 -->
<g id="edge2" class="edge"><title>Node1&#45;&gt;Node2</title>
<path fill="none" stroke="midnightblue" d="M521.358,-368.16C438.611,-357.079 214.097,-322.086 173,-264 108.958,-173.483 322.998,-143.788 418.91,-135.163"/>
<polygon fill="midnightblue" stroke="midnightblue" points="419.242,-138.647 428.904,-134.302 418.641,-131.673 419.242,-138.647"/>
</g>
<!-- Node10 -->
<g id="node19" class="node"><title>Node10</title>
<a xlink:href="framescheduler_8h.html" target="_top" xlink:title="This file has the Declarations for the main FrameScheduler class.">
<polygon fill="white" stroke="black" points="608,-301 608,-323 702,-323 702,-301 608,-301"/>
<text text-anchor="middle" x="655" y="-310" font-family="FreeSans" font-size="10.00">framescheduler.h</text>
</a>
</g>
<!-- Node1&#45;&gt;Node10 -->
<g id="edge18" class="edge"><title>Node1&#45;&gt;Node10</title>
<path fill="none" stroke="midnightblue" d="M570.892,-360.995C586.619,-351.834 609.238,-338.658 627.059,-328.276"/>
<polygon fill="midnightblue" stroke="midnightblue" points="629,-331.196 635.879,-323.138 625.477,-325.148 629,-331.196"/>
</g>
<!-- Node14 -->
<g id="node29" class="node"><title>Node14</title>
<polygon fill="white" stroke="#bfbfbf" points="683,-181 683,-203 727,-203 727,-181 683,-181"/>
<text text-anchor="middle" x="705" y="-190" font-family="FreeSans" font-size="10.00">vector</text>
</g>
<!-- Node1&#45;&gt;Node14 -->
<g id="edge86" class="edge"><title>Node1&#45;&gt;Node14</title>
<path fill="none" stroke="midnightblue" d="M582.643,-368.119C616.41,-362.682 671.204,-350.337 711,-324 747.231,-300.023 779.154,-279.472 761,-240 755.216,-227.424 744.331,-216.91 733.685,-208.959"/>
<polygon fill="midnightblue" stroke="midnightblue" points="735.511,-205.966 725.3,-203.141 731.521,-211.718 735.511,-205.966"/>
</g>
<!-- Node15 -->
<g id="node31" class="node"><title>Node15</title>
<a xlink:href="thread_8h.html" target="_top" xlink:title="This file defines a minimalistic cross&#45;platform thread that the scheduler uses to schedule tasks...">
<polygon fill="white" stroke="black" points="883.5,-241 883.5,-263 936.5,-263 936.5,-241 883.5,-241"/>
<text text-anchor="middle" x="910" y="-250" font-family="FreeSans" font-size="10.00">thread.h</text>
</a>
</g>
<!-- Node1&#45;&gt;Node15 -->
<g id="edge82" class="edge"><title>Node1&#45;&gt;Node15</title>
<path fill="none" stroke="midnightblue" d="M582.817,-368.947C646.101,-362.317 788.418,-345.463 832,-324 857.483,-311.451 880.555,-287.913 894.882,-271.167"/>
<polygon fill="midnightblue" stroke="midnightblue" points="897.861,-273.058 901.544,-263.124 892.47,-268.593 897.861,-273.058"/>
</g>
<!-- Node17 -->
<g id="node37" class="node"><title>Node17</title>
<a xlink:href="mutex_8h.html" target="_top" xlink:title="This file declares and defines a mutex that is a partial implementation.">
<polygon fill="white" stroke="black" points="982.5,-121 982.5,-143 1033.5,-143 1033.5,-121 982.5,-121"/>
<text text-anchor="middle" x="1008" y="-130" font-family="FreeSans" font-size="10.00">mutex.h</text>
</a>
</g>
<!-- Node1&#45;&gt;Node17 -->
<g id="edge70" class="edge"><title>Node1&#45;&gt;Node17</title>
<path fill="none" stroke="midnightblue" d="M582.526,-369.11C650.349,-362.395 811.561,-344.72 862,-324 940.331,-291.822 976.036,-281.573 1010,-204 1016.99,-188.026 1015.77,-168.09 1013.21,-153.248"/>
<polygon fill="midnightblue" stroke="midnightblue" points="1016.56,-152.129 1011.11,-143.042 1009.7,-153.543 1016.56,-152.129"/>
</g>
<!-- Node19 -->
<g id="node44" class="node"><title>Node19</title>
<a xlink:href="workunitkey_8h.html" target="_top" xlink:title="This file defines the metadata used to sort workunits.">
<polygon fill="white" stroke="black" points="181.5,-241 181.5,-263 258.5,-263 258.5,-241 181.5,-241"/>
<text text-anchor="middle" x="220" y="-250" font-family="FreeSans" font-size="10.00">workunitkey.h</text>
</a>
</g>
<!-- Node1&#45;&gt;Node19 -->
<g id="edge84" class="edge"><title>Node1&#45;&gt;Node19</title>
<path fill="none" stroke="midnightblue" d="M521.37,-361.891C492.742,-352.367 448.85,-337.573 411,-324 357.719,-304.894 296.571,-281.601 258.114,-266.783"/>
<polygon fill="midnightblue" stroke="midnightblue" points="258.96,-263.358 248.37,-263.023 256.44,-269.888 258.96,-263.358"/>
</g>
<!-- Node25 -->
<g id="node61" class="node"><title>Node25</title>
<a xlink:href="rollingaverage_8h.html" target="_top" xlink:title="This stores the implementation and the declaration of the RollingAverage, BufferedRollingAverage, WeightedRollingAverage and the DefaultRollingAverage.">
<polygon fill="white" stroke="black" points="275.5,-241 275.5,-263 364.5,-263 364.5,-241 275.5,-241"/>
<text text-anchor="middle" x="320" y="-250" font-family="FreeSans" font-size="10.00">rollingaverage.h</text>
</a>
</g>
<!-- Node1&#45;&gt;Node25 -->
<g id="edge72" class="edge"><title>Node1&#45;&gt;Node25</title>
<path fill="none" stroke="midnightblue" d="M530.59,-360.926C489.155,-339.494 397.9,-292.293 350.274,-267.659"/>
<polygon fill="midnightblue" stroke="midnightblue" points="351.849,-264.533 341.358,-263.047 348.633,-270.751 351.849,-264.533"/>
</g>
<!-- Node26 -->
<g id="node65" class="node"><title>Node26</title>
<a xlink:href="threadingenumerations_8h.html" target="_top" xlink:title="Any enumerations the threading library requires are all declared here.">
<polygon fill="white" stroke="black" points="-0.5,-301 -0.5,-323 126.5,-323 126.5,-301 -0.5,-301"/>
<text text-anchor="middle" x="63" y="-310" font-family="FreeSans" font-size="10.00">threadingenumerations.h</text>
</a>
</g>
<!-- Node1&#45;&gt;Node26 -->
<g id="edge78" class="edge"><title>Node1&#45;&gt;Node26</title>
<path fill="none" stroke="midnightblue" d="M521.455,-368.849C453.043,-361.704 282.35,-343.377 140,-324 138.928,-323.854 137.847,-323.705 136.76,-323.555"/>
<polygon fill="midnightblue" stroke="midnightblue" points="137.231,-320.087 126.838,-322.143 136.245,-327.017 137.231,-320.087"/>
</g>
<!-- Node3 -->
<g id="node5" class="node"><title>Node3</title>
<a xlink:href="compilerthreadcompat_8h.html" target="_top" xlink:title="This file determines what features are offered by the compiler that this library can take advantage o...">
<polygon fill="white" stroke="black" points="840,-61 840,-83 964,-83 964,-61 840,-61"/>
<text text-anchor="middle" x="902" y="-70" font-family="FreeSans" font-size="10.00">compilerthreadcompat.h</text>
</a>
</g>
<!-- Node2&#45;&gt;Node3 -->
<g id="edge4" class="edge"><title>Node2&#45;&gt;Node3</title>
<path fill="none" stroke="midnightblue" d="M497.082,-127.342C568.295,-117.609 734.186,-94.9358 830.078,-81.83"/>
<polygon fill="midnightblue" stroke="midnightblue" points="830.554,-85.2975 839.988,-80.4755 829.606,-78.362 830.554,-85.2975"/>
</g>
<!-- Node8 -->
<g id="node15" class="node"><title>Node8</title>
<polygon fill="white" stroke="#bfbfbf" points="983.5,-61 983.5,-83 1024.5,-83 1024.5,-61 983.5,-61"/>
<text text-anchor="middle" x="1004" y="-70" font-family="FreeSans" font-size="10.00">string</text>
</g>
<!-- Node2&#45;&gt;Node8 -->
<g id="edge14" class="edge"><title>Node2&#45;&gt;Node8</title>
<path fill="none" stroke="midnightblue" d="M497.324,-130.005C596.473,-124.046 882.005,-105.458 973,-84 973.211,-83.9503 973.422,-83.8995 973.633,-83.8477"/>
<polygon fill="midnightblue" stroke="midnightblue" points="974.684,-87.1865 983.237,-80.9338 972.652,-80.488 974.684,-87.1865"/>
</g>
<!-- Node9 -->
<g id="node17" class="node"><title>Node9</title>
<polygon fill="white" stroke="#bfbfbf" points="439.5,-61 439.5,-83 486.5,-83 486.5,-61 439.5,-61"/>
<text text-anchor="middle" x="463" y="-70" font-family="FreeSans" font-size="10.00">stdint.h</text>
</g>
<!-- Node2&#45;&gt;Node9 -->
<g id="edge16" class="edge"><title>Node2&#45;&gt;Node9</title>
<path fill="none" stroke="midnightblue" d="M463,-120.995C463,-113.311 463,-102.803 463,-93.4884"/>
<polygon fill="midnightblue" stroke="midnightblue" points="466.5,-93.3428 463,-83.3428 459.5,-93.3429 466.5,-93.3428"/>
</g>
<!-- Node4 -->
<g id="node7" class="node"><title>Node4</title>
<polygon fill="white" stroke="#bfbfbf" points="767,-1 767,-23 825,-23 825,-1 767,-1"/>
<text text-anchor="middle" x="796" y="-10" font-family="FreeSans" font-size="10.00">pthread.h</text>
</g>
<!-- Node3&#45;&gt;Node4 -->
<g id="edge6" class="edge"><title>Node3&#45;&gt;Node4</title>
<path fill="none" stroke="midnightblue" d="M882.558,-60.9951C866.299,-51.7917 842.881,-38.5366 824.503,-28.1336"/>
<polygon fill="midnightblue" stroke="midnightblue" points="826.104,-25.0185 815.678,-23.1383 822.656,-31.1103 826.104,-25.0185"/>
</g>
<!-- Node5 -->
<g id="node9" class="node"><title>Node5</title>
<polygon fill="white" stroke="#bfbfbf" points="842.5,-1 842.5,-23 893.5,-23 893.5,-1 842.5,-1"/>
<text text-anchor="middle" x="868" y="-10" font-family="FreeSans" font-size="10.00">signal.h</text>
</g>
<!-- Node3&#45;&gt;Node5 -->
<g id="edge8" class="edge"><title>Node3&#45;&gt;Node5</title>
<path fill="none" stroke="midnightblue" d="M895.764,-60.9951C891.22,-52.9771 884.934,-41.884 879.492,-32.2806"/>
<polygon fill="midnightblue" stroke="midnightblue" points="882.403,-30.3175 874.428,-23.3428 876.313,-33.7686 882.403,-30.3175"/>
</g>
<!-- Node6 -->
<g id="node11" class="node"><title>Node6</title>
<polygon fill="white" stroke="#bfbfbf" points="911,-1 911,-23 963,-23 963,-1 911,-1"/>
<text text-anchor="middle" x="937" y="-10" font-family="FreeSans" font-size="10.00">sched.h</text>
</g>
<!-- Node3&#45;&gt;Node6 -->
<g id="edge10" class="edge"><title>Node3&#45;&gt;Node6</title>
<path fill="none" stroke="midnightblue" d="M908.42,-60.9951C913.145,-52.8936 919.703,-41.6525 925.344,-31.981"/>
<polygon fill="midnightblue" stroke="midnightblue" points="928.368,-33.7442 930.383,-23.3428 922.321,-30.2171 928.368,-33.7442"/>
</g>
<!-- Node7 -->
<g id="node13" class="node"><title>Node7</title>
<polygon fill="white" stroke="#bfbfbf" points="981,-1 981,-23 1031,-23 1031,-1 981,-1"/>
<text text-anchor="middle" x="1006" y="-10" font-family="FreeSans" font-size="10.00">unistd.h</text>
</g>
<!-- Node3&#45;&gt;Node7 -->
<g id="edge12" class="edge"><title>Node3&#45;&gt;Node7</title>
<path fill="none" stroke="midnightblue" d="M921.075,-60.9951C936.955,-51.8337 959.793,-38.6576 977.788,-28.2763"/>
<polygon fill="midnightblue" stroke="midnightblue" points="979.781,-31.1673 986.694,-23.1383 976.283,-25.104 979.781,-31.1673"/>
</g>
<!-- Node10&#45;&gt;Node2 -->
<g id="edge20" class="edge"><title>Node10&#45;&gt;Node2</title>
<path fill="none" stroke="midnightblue" d="M702.112,-302.917C723.95,-296.094 747.916,-284.288 761,-264 777.495,-238.424 743.237,-185.793 736,-180 701.382,-152.289 575.129,-139.601 507.114,-134.666"/>
<polygon fill="midnightblue" stroke="midnightblue" points="507.34,-131.173 497.12,-133.966 506.851,-138.156 507.34,-131.173"/>
</g>
<!-- Node11 -->
<g id="node22" class="node"><title>Node11</title>
<a xlink:href="doublebufferedresource_8h.html" target="_top" xlink:title="This file defines the template double buffered resources that can be attached to a thread...">
<polygon fill="white" stroke="black" points="451.5,-241 451.5,-263 582.5,-263 582.5,-241 451.5,-241"/>
<text text-anchor="middle" x="517" y="-250" font-family="FreeSans" font-size="10.00">doublebufferedresource.h</text>
</a>
</g>
<!-- Node10&#45;&gt;Node11 -->
<g id="edge22" class="edge"><title>Node10&#45;&gt;Node11</title>
<path fill="none" stroke="midnightblue" d="M629.689,-300.995C607.844,-291.498 576.076,-277.685 551.834,-267.145"/>
<polygon fill="midnightblue" stroke="midnightblue" points="553.184,-263.916 542.618,-263.138 550.393,-270.335 553.184,-263.916"/>
</g>
<!-- Node10&#45;&gt;Node15 -->
<g id="edge32" class="edge"><title>Node10&#45;&gt;Node15</title>
<path fill="none" stroke="midnightblue" d="M702.208,-302.479C745.926,-293.421 812.645,-278.985 870,-264 871.223,-263.68 872.465,-263.349 873.718,-263.008"/>
<polygon fill="midnightblue" stroke="midnightblue" points="874.725,-266.361 883.395,-260.272 872.82,-259.625 874.725,-266.361"/>
</g>
<!-- Node16 -->
<g id="node34" class="node"><title>Node16</title>
<a xlink:href="systemcalls_8h.html" target="_top" xlink:title="This file defines a minimalistic cross&#45;platform thread that the scheduler uses to schedule tasks...">
<polygon fill="white" stroke="black" points="797.5,-181 797.5,-203 874.5,-203 874.5,-181 797.5,-181"/>
<text text-anchor="middle" x="836" y="-190" font-family="FreeSans" font-size="10.00">systemcalls.h</text>
</a>
</g>
<!-- Node10&#45;&gt;Node16 -->
<g id="edge54" class="edge"><title>Node10&#45;&gt;Node16</title>
<path fill="none" stroke="midnightblue" d="M702.258,-304.331C731.268,-297.665 767.761,-285.551 794,-264 810.421,-250.513 821.822,-228.811 828.559,-212.754"/>
<polygon fill="midnightblue" stroke="midnightblue" points="831.929,-213.748 832.32,-203.161 825.412,-211.194 831.929,-213.748"/>
</g>
<!-- Node10&#45;&gt;Node19 -->
<g id="edge50" class="edge"><title>Node10&#45;&gt;Node19</title>
<path fill="none" stroke="midnightblue" d="M607.818,-308.109C536.342,-301.79 396.236,-287.741 268.591,-264.144"/>
<polygon fill="midnightblue" stroke="midnightblue" points="269.115,-260.681 258.642,-262.28 267.826,-267.561 269.115,-260.681"/>
</g>
<!-- Node20 -->
<g id="node48" class="node"><title>Node20</title>
<a xlink:href="barrier_8h.html" target="_top" xlink:title="The declaration of the Mezzanine::Threading::Barrier Barrier synchronization primitive.">
<polygon fill="white" stroke="black" points="381.5,-241 381.5,-263 434.5,-263 434.5,-241 381.5,-241"/>
<text text-anchor="middle" x="408" y="-250" font-family="FreeSans" font-size="10.00">barrier.h</text>
</a>
</g>
<!-- Node10&#45;&gt;Node20 -->
<g id="edge56" class="edge"><title>Node10&#45;&gt;Node20</title>
<path fill="none" stroke="midnightblue" d="M607.9,-302.852C566.888,-294.548 505.695,-281.342 444.481,-264.248"/>
<polygon fill="midnightblue" stroke="midnightblue" points="445.235,-260.824 434.66,-261.471 443.33,-267.56 445.235,-260.824"/>
</g>
<!-- Node22 -->
<g id="node54" class="node"><title>Node22</title>
<polygon fill="white" stroke="#bfbfbf" points="668,-241 668,-263 704,-263 704,-241 668,-241"/>
<text text-anchor="middle" x="686" y="-250" font-family="FreeSans" font-size="10.00">map</text>
</g>
<!-- Node10&#45;&gt;Node22 -->
<g id="edge64" class="edge"><title>Node10&#45;&gt;Node22</title>
<path fill="none" stroke="midnightblue" d="M660.686,-300.995C664.828,-292.977 670.56,-281.884 675.522,-272.281"/>
<polygon fill="midnightblue" stroke="midnightblue" points="678.659,-273.834 680.14,-263.343 672.44,-270.621 678.659,-273.834"/>
</g>
<!-- Node23 -->
<g id="node56" class="node"><title>Node23</title>
<polygon fill="white" stroke="#bfbfbf" points="722,-241 722,-263 752,-263 752,-241 722,-241"/>
<text text-anchor="middle" x="737" y="-250" font-family="FreeSans" font-size="10.00">set</text>
</g>
<!-- Node10&#45;&gt;Node23 -->
<g id="edge66" class="edge"><title>Node10&#45;&gt;Node23</title>
<path fill="none" stroke="midnightblue" d="M670.04,-300.995C682.216,-292.086 699.581,-279.38 713.576,-269.14"/>
<polygon fill="midnightblue" stroke="midnightblue" points="715.774,-271.868 721.778,-263.138 711.64,-266.219 715.774,-271.868"/>
</g>
<!-- Node24 -->
<g id="node58" class="node"><title>Node24</title>
<polygon fill="white" stroke="#bfbfbf" points="600,-241 600,-263 650,-263 650,-241 600,-241"/>
<text text-anchor="middle" x="625" y="-250" font-family="FreeSans" font-size="10.00">fstream</text>
</g>
<!-- Node10&#45;&gt;Node24 -->
<g id="edge68" class="edge"><title>Node10&#45;&gt;Node24</title>
<path fill="none" stroke="midnightblue" d="M649.498,-300.995C645.53,-293.061 640.057,-282.115 635.291,-272.581"/>
<polygon fill="midnightblue" stroke="midnightblue" points="638.274,-270.722 630.671,-263.343 632.013,-273.852 638.274,-270.722"/>
</g>
<!-- Node11&#45;&gt;Node2 -->
<g id="edge24" class="edge"><title>Node11&#45;&gt;Node2</title>
<path fill="none" stroke="midnightblue" d="M563.674,-240.965C602.994,-229.388 649.648,-208.843 628,-180 613.452,-160.616 550.908,-146.503 507.151,-138.777"/>
<polygon fill="midnightblue" stroke="midnightblue" points="507.471,-135.281 497.024,-137.043 506.289,-142.181 507.471,-135.281"/>
</g>
<!-- Node12 -->
<g id="node25" class="node"><title>Node12</title>
<polygon fill="white" stroke="#bfbfbf" points="561,-181 561,-203 619,-203 619,-181 561,-181"/>
<text text-anchor="middle" x="590" y="-190" font-family="FreeSans" font-size="10.00">algorithm</text>
</g>
<!-- Node11&#45;&gt;Node12 -->
<g id="edge26" class="edge"><title>Node11&#45;&gt;Node12</title>
<path fill="none" stroke="midnightblue" d="M530.389,-240.995C541.024,-232.254 556.106,-219.858 568.438,-209.722"/>
<polygon fill="midnightblue" stroke="midnightblue" points="570.945,-212.192 576.448,-203.138 566.501,-206.784 570.945,-212.192"/>
</g>
<!-- Node13 -->
<g id="node27" class="node"><title>Node13</title>
<polygon fill="white" stroke="#bfbfbf" points="490.5,-181 490.5,-203 543.5,-203 543.5,-181 490.5,-181"/>
<text text-anchor="middle" x="517" y="-190" font-family="FreeSans" font-size="10.00">sstream</text>
</g>
<!-- Node11&#45;&gt;Node13 -->
<g id="edge28" class="edge"><title>Node11&#45;&gt;Node13</title>
<path fill="none" stroke="midnightblue" d="M517,-240.995C517,-233.311 517,-222.803 517,-213.488"/>
<polygon fill="midnightblue" stroke="midnightblue" points="520.5,-213.343 517,-203.343 513.5,-213.343 520.5,-213.343"/>
</g>
<!-- Node11&#45;&gt;Node14 -->
<g id="edge30" class="edge"><title>Node11&#45;&gt;Node14</title>
<path fill="none" stroke="midnightblue" d="M551.482,-240.995C586.162,-229.927 639.203,-212.999 672.98,-202.219"/>
<polygon fill="midnightblue" stroke="midnightblue" points="674.341,-205.459 682.803,-199.084 672.212,-198.79 674.341,-205.459"/>
</g>
<!-- Node15&#45;&gt;Node3 -->
<g id="edge34" class="edge"><title>Node15&#45;&gt;Node3</title>
<path fill="none" stroke="midnightblue" d="M909.5,-240.74C908.192,-211.319 904.656,-131.769 902.949,-93.3446"/>
<polygon fill="midnightblue" stroke="midnightblue" points="906.441,-93.0903 902.5,-83.2556 899.448,-93.4011 906.441,-93.0903"/>
</g>
<!-- Node15&#45;&gt;Node14 -->
<g id="edge48" class="edge"><title>Node15&#45;&gt;Node14</title>
<path fill="none" stroke="midnightblue" d="M883.2,-244.156C845.56,-233.14 777.15,-213.117 736.925,-201.344"/>
<polygon fill="midnightblue" stroke="midnightblue" points="737.68,-197.918 727.1,-198.468 735.714,-204.636 737.68,-197.918"/>
</g>
<!-- Node15&#45;&gt;Node16 -->
<g id="edge36" class="edge"><title>Node15&#45;&gt;Node16</title>
<path fill="none" stroke="midnightblue" d="M896.427,-240.995C885.647,-232.254 870.358,-219.858 857.857,-209.722"/>
<polygon fill="midnightblue" stroke="midnightblue" points="859.709,-206.718 849.737,-203.138 855.301,-212.155 859.709,-206.718"/>
</g>
<!-- Node15&#45;&gt;Node17 -->
<g id="edge40" class="edge"><title>Node15&#45;&gt;Node17</title>
<path fill="none" stroke="midnightblue" d="M936.86,-242.558C954.82,-234.885 977.543,-222.308 991,-204 1001.83,-189.26 1005.88,-168.635 1007.33,-153.235"/>
<polygon fill="midnightblue" stroke="midnightblue" points="1010.83,-153.311 1007.99,-143.105 1003.85,-152.856 1010.83,-153.311"/>
</g>
<!-- Node18 -->
<g id="node41" class="node"><title>Node18</title>
<polygon fill="white" stroke="#bfbfbf" points="929.5,-181 929.5,-203 982.5,-203 982.5,-181 929.5,-181"/>
<text text-anchor="middle" x="956" y="-190" font-family="FreeSans" font-size="10.00">ostream</text>
</g>
<!-- Node15&#45;&gt;Node18 -->
<g id="edge46" class="edge"><title>Node15&#45;&gt;Node18</title>
<path fill="none" stroke="midnightblue" d="M918.437,-240.995C924.776,-232.727 933.623,-221.188 941.138,-211.385"/>
<polygon fill="midnightblue" stroke="midnightblue" points="943.997,-213.408 947.304,-203.343 938.442,-209.149 943.997,-213.408"/>
</g>
<!-- Node16&#45;&gt;Node2 -->
<g id="edge38" class="edge"><title>Node16&#45;&gt;Node2</title>
<path fill="none" stroke="midnightblue" d="M797.452,-182.75C792.928,-181.77 788.369,-180.829 784,-180 685.877,-161.371 569.749,-145.529 507.587,-137.544"/>
<polygon fill="midnightblue" stroke="midnightblue" points="507.716,-134.032 497.354,-136.238 506.83,-140.976 507.716,-134.032"/>
</g>
<!-- Node17&#45;&gt;Node3 -->
<g id="edge42" class="edge"><title>Node17&#45;&gt;Node3</title>
<path fill="none" stroke="midnightblue" d="M988.558,-120.995C972.299,-111.792 948.881,-98.5366 930.503,-88.1336"/>
<polygon fill="midnightblue" stroke="midnightblue" points="932.104,-85.0185 921.678,-83.1383 928.656,-91.1103 932.104,-85.0185"/>
</g>
<!-- Node17&#45;&gt;Node8 -->
<g id="edge44" class="edge"><title>Node17&#45;&gt;Node8</title>
<path fill="none" stroke="midnightblue" d="M1007.27,-120.995C1006.75,-113.311 1006.05,-102.803 1005.43,-93.4884"/>
<polygon fill="midnightblue" stroke="midnightblue" points="1008.91,-93.0878 1004.76,-83.3428 1001.93,-93.5535 1008.91,-93.0878"/>
</g>
<!-- Node19&#45;&gt;Node2 -->
<g id="edge52" class="edge"><title>Node19&#45;&gt;Node2</title>
<path fill="none" stroke="midnightblue" d="M231.25,-240.979C247.709,-225.401 279.897,-196.955 312,-180 345.982,-162.052 387.845,-149.398 418.867,-141.606"/>
<polygon fill="midnightblue" stroke="midnightblue" points="420.058,-144.918 428.945,-139.148 418.4,-138.117 420.058,-144.918"/>
</g>
<!-- Node20&#45;&gt;Node2 -->
<g id="edge58" class="edge"><title>Node20&#45;&gt;Node2</title>
<path fill="none" stroke="midnightblue" d="M418.23,-240.989C426.301,-231.752 437.284,-217.877 444,-204 451.809,-187.865 456.733,-168.086 459.606,-153.345"/>
<polygon fill="midnightblue" stroke="midnightblue" points="463.105,-153.656 461.417,-143.197 456.214,-152.426 463.105,-153.656"/>
</g>
<!-- Node21 -->
<g id="node51" class="node"><title>Node21</title>
<a xlink:href="atomicoperations_8h.html" target="_top" xlink:title="Simple thread safe ways to check and change a specified variable atomically.">
<polygon fill="white" stroke="black" points="334.5,-181 334.5,-203 435.5,-203 435.5,-181 334.5,-181"/>
<text text-anchor="middle" x="385" y="-190" font-family="FreeSans" font-size="10.00">atomicoperations.h</text>
</a>
</g>
<!-- Node20&#45;&gt;Node21 -->
<g id="edge60" class="edge"><title>Node20&#45;&gt;Node21</title>
<path fill="none" stroke="midnightblue" d="M403.781,-240.995C400.772,-233.144 396.632,-222.345 393.005,-212.883"/>
<polygon fill="midnightblue" stroke="midnightblue" points="396.196,-211.428 389.348,-203.343 389.659,-213.933 396.196,-211.428"/>
</g>
<!-- Node21&#45;&gt;Node2 -->
<g id="edge62" class="edge"><title>Node21&#45;&gt;Node2</title>
<path fill="none" stroke="midnightblue" d="M399.306,-180.995C410.779,-172.17 427.095,-159.619 440.341,-149.43"/>
<polygon fill="midnightblue" stroke="midnightblue" points="442.728,-152.01 448.52,-143.138 438.46,-146.461 442.728,-152.01"/>
</g>
<!-- Node25&#45;&gt;Node2 -->
<g id="edge76" class="edge"><title>Node25&#45;&gt;Node2</title>
<path fill="none" stroke="midnightblue" d="M317.527,-240.939C314.774,-225.57 312.338,-197.659 326,-180 337.65,-164.942 383.267,-150.939 418.701,-141.99"/>
<polygon fill="midnightblue" stroke="midnightblue" points="419.98,-145.28 428.854,-139.492 418.307,-138.483 419.98,-145.28"/>
</g>
<!-- Node25&#45;&gt;Node14 -->
<g id="edge74" class="edge"><title>Node25&#45;&gt;Node14</title>
<path fill="none" stroke="midnightblue" d="M364.766,-241.592C367.548,-241.03 370.309,-240.494 373,-240 485.578,-219.345 514.784,-220.813 628,-204 642.717,-201.815 658.998,-199.292 672.785,-197.126"/>
<polygon fill="midnightblue" stroke="midnightblue" points="673.441,-200.566 682.774,-195.55 672.351,-193.651 673.441,-200.566"/>
</g>
<!-- Node26&#45;&gt;Node2 -->
<g id="edge80" class="edge"><title>Node26&#45;&gt;Node2</title>
<path fill="none" stroke="midnightblue" d="M65.9091,-300.868C73.3361,-274.861 95.6216,-210.044 140,-180 184.556,-149.835 340.625,-138.013 418.337,-133.917"/>
<polygon fill="midnightblue" stroke="midnightblue" points="418.953,-137.391 428.763,-133.389 418.599,-130.4 418.953,-137.391"/>
</g>
</g>
</svg>
        <g id="navigator" transform="translate(0 0)" fill="#404254">
                <rect fill="#f2f5e9" fill-opacity="0.5" stroke="#606060" stroke-width=".5" x="0" y="0" width="60" height="60"/>
                <use id="zoomplus" xlink:href="#zoomPlus" x="17" y="9" onmousedown="handleZoom(evt,'in')"/>
                <use id="zoomminus" xlink:href="#zoomMin" x="42" y="9" onmousedown="handleZoom(evt,'out')"/>
                <use id="reset" xlink:href="#resetDef" x="30" y="36" onmousedown="handleReset()"/>
                <g id="arrowUp" xlink:href="#dirArrow" transform="translate(30 24)" onmousedown="handlePan(0,-1)">
                  <use xlink:href="#rim" fill="#404040">
                        <set attributeName="fill" to="#808080" begin="arrowUp.mouseover" end="arrowUp.mouseout"/>
                  </use>
                  <path fill="none" stroke="white" stroke-width="1.5" d="M0,-3.0v7 M-2.5,-0.5L0,-3.0L2.5,-0.5"/>
                </g>
                <g id="arrowRight" xlink:href="#dirArrow" transform="rotate(90) translate(36 -43)" onmousedown="handlePan(1,0)">
                  <use xlink:href="#rim" fill="#404040">
                        <set attributeName="fill" to="#808080" begin="arrowRight.mouseover" end="arrowRight.mouseout"/>
                  </use>
                  <path fill="none" stroke="white" stroke-width="1.5" d="M0,-3.0v7 M-2.5,-0.5L0,-3.0L2.5,-0.5"/>
                </g>
                <g id="arrowDown" xlink:href="#dirArrow" transform="rotate(180) translate(-30 -48)" onmousedown="handlePan(0,1)">
                  <use xlink:href="#rim" fill="#404040">
                        <set attributeName="fill" to="#808080" begin="arrowDown.mouseover" end="arrowDown.mouseout"/>
                  </use>
                  <path fill="none" stroke="white" stroke-width="1.5" d="M0,-3.0v7 M-2.5,-0.5L0,-3.0L2.5,-0.5"/>
                </g>
                <g id="arrowLeft" xlink:href="#dirArrow" transform="rotate(270) translate(-36 17)" onmousedown="handlePan(-1,0)">
                  <use xlink:href="#rim" fill="#404040">
                        <set attributeName="fill" to="#808080" begin="arrowLeft.mouseover" end="arrowLeft.mouseout"/>
                  </use>
                  <path fill="none" stroke="white" stroke-width="1.5" d="M0,-3.0v7 M-2.5,-0.5L0,-3.0L2.5,-0.5"/>
                </g>
        </g>
</svg>
