<?xml version="1.0" encoding="UTF-8" standalone="no"?>
<!DOCTYPE svg PUBLIC "-//W3C//DTD SVG 1.1//EN"
 "http://www.w3.org/Graphics/SVG/1.1/DTD/svg11.dtd">
<!-- Generated by graphviz version 2.26.3 (20100126.1600)
 -->
<!-- Title: workunitkey.h Pages: 1 -->
<!--zoomable 320 -->
<svg id="main" version="1.1" xmlns="http://www.w3.org/2000/svg" xmlns:xlink="http://www.w3.org/1999/xlink" xml:space="preserve" onload="init(evt)">
<style type="text/css"><![CDATA[
.edge:hover path { stroke: red; }
.edge:hover polygon { stroke: red; fill: red; }
]]></style>
<script type="text/javascript"><![CDATA[
var edges = document.getElementsByTagName('g');
if (edges && edges.length) {
  for (var i=0;i<edges.length;i++) {
    if (edges[i].id.substr(0,4)=='edge') {
      edges[i].setAttribute('class','edge');
    }
  }
}
]]></script>
        <defs>
                <circle id="rim" cx="0" cy="0" r="7"/>
                <circle id="rim2" cx="0" cy="0" r="3.5"/>
                <g id="zoomPlus">
                        <use xlink:href="#rim" fill="#404040">
                                <set attributeName="fill" to="#808080" begin="zoomplus.mouseover" end="zoomplus.mouseout"/>
                        </use>
                        <path d="M-4,0h8M0,-4v8" fill="none" stroke="white" stroke-width="1.5" pointer-events="none"/>
                </g>
                <g id="zoomMin">
                        <use xlink:href="#rim" fill="#404040">
                                <set attributeName="fill" to="#808080" begin="zoomminus.mouseover" end="zoomminus.mouseout"/>
                        </use>
                        <path d="M-4,0h8" fill="none" stroke="white" stroke-width="1.5" pointer-events="none"/>
                </g>
                <g id="dirArrow">
                        <path fill="none" stroke="white" stroke-width="1.5" d="M0,-3.0v7 M-2.5,-0.5L0,-3.0L2.5,-0.5"/>
                </g>
               <g id="resetDef">
                       <use xlink:href="#rim2" fill="#404040">
                               <set attributeName="fill" to="#808080" begin="reset.mouseover" end="reset.mouseout"/>
                       </use>
               </g>
        </defs>

<script type="text/javascript">
var viewWidth = 978;
var viewHeight = 320;
var sectionId = 'dynsection-1';
</script>
<script xlink:href="svgpan.js"/>
<svg id="graph" class="graph">
<g id="viewport">
<title>workunitkey.h</title>
<polygon fill="white" stroke="white" points="-4,5 -4,-316 975.268,-316 975.268,5 -4,5"/>
<!-- Node1 -->
<g id="node1" class="node"><title>Node1</title>
<polygon fill="#bfbfbf" stroke="black" points="612.768,-291 612.768,-311 687.768,-311 687.768,-291 612.768,-291"/>
<text text-anchor="middle" x="650.268" y="-298" font-family="FreeSans" font-size="10.00">workunitkey.h</text>
</g>
<!-- Node2 -->
<g id="node3" class="node"><title>Node2</title>
<a xlink:href="framescheduler_8h.html" target="_top" xlink:title="This file has the Declarations for the main FrameScheduler class. ">
<polygon fill="white" stroke="black" points="605.268,-233 605.268,-253 695.268,-253 695.268,-233 605.268,-233"/>
<text text-anchor="middle" x="650.268" y="-240" font-family="FreeSans" font-size="10.00">framescheduler.h</text>
</a>
</g>
<!-- Node1&#45;&gt;Node2 -->
<g id="edge2" class="edge"><title>Node1&#45;&gt;Node2</title>
<path fill="none" stroke="midnightblue" d="M650.268,-280.89C650.268,-271.62 650.268,-261.008 650.268,-253.378"/>
<polygon fill="midnightblue" stroke="midnightblue" points="646.768,-280.897 650.268,-290.897 653.768,-280.897 646.768,-280.897"/>
</g>
<!-- Node3 -->
<g id="node5" class="node"><title>Node3</title>
<a xlink:href="workunit_8h.html" target="_top" xlink:title="This file has the definition of the workunit. ">
<polygon fill="white" stroke="black" points="475.268,-175 475.268,-195 535.268,-195 535.268,-175 475.268,-175"/>
<text text-anchor="middle" x="505.268" y="-182" font-family="FreeSans" font-size="10.00">workunit.h</text>
</a>
</g>
<!-- Node1&#45;&gt;Node3 -->
<g id="edge44" class="edge"><title>Node1&#45;&gt;Node3</title>
<path fill="none" stroke="midnightblue" d="M629.803,-284.628C599.372,-260.283 543.084,-215.253 517.956,-195.151"/>
<polygon fill="midnightblue" stroke="midnightblue" points="627.659,-287.395 637.654,-290.909 632.032,-281.929 627.659,-287.395"/>
</g>
<!-- Node7 -->
<g id="node13" class="node"><title>Node7</title>
<a xlink:href="dagframescheduler_8h.html" target="_top" xlink:title="This is the file that code using this library should include. It includes all the required components...">
<polygon fill="white" stroke="black" points="348.268,-1 348.268,-21 454.268,-21 454.268,-1 348.268,-1"/>
<text text-anchor="middle" x="401.268" y="-8" font-family="FreeSans" font-size="10.00">dagframescheduler.h</text>
</a>
</g>
<!-- Node1&#45;&gt;Node7 -->
<g id="edge48" class="edge"><title>Node1&#45;&gt;Node7</title>
<path fill="none" stroke="midnightblue" d="M602.29,-297.502C452.155,-285.921 1.26796,-246.058 1.26796,-185 1.26796,-185 1.26796,-185 1.26796,-127 1.26796,-95.1919 -3.80389,-78.7918 20.268,-58 44.6356,-36.9527 249.326,-20.899 348.208,-14.2935"/>
<polygon fill="midnightblue" stroke="midnightblue" points="602.332,-301.015 612.57,-298.287 602.865,-294.036 602.332,-301.015"/>
</g>
<!-- Node9 -->
<g id="node18" class="node"><title>Node9</title>
<a xlink:href="frameschedulerworkunits_8h.html" target="_top" xlink:title="This defines a number of workunits that are required for doing some tasks that the Framescheduler req...">
<polygon fill="white" stroke="black" points="630.768,-117 630.768,-137 761.768,-137 761.768,-117 630.768,-117"/>
<text text-anchor="middle" x="696.268" y="-124" font-family="FreeSans" font-size="10.00">frameschedulerworkunits.h</text>
</a>
</g>
<!-- Node1&#45;&gt;Node9 -->
<g id="edge46" class="edge"><title>Node1&#45;&gt;Node9</title>
<path fill="none" stroke="midnightblue" d="M679.746,-286.052C709.877,-268.925 754.914,-237.748 774.268,-196 786.663,-169.263 751.651,-148.601 724.578,-137.117"/>
<polygon fill="midnightblue" stroke="midnightblue" points="677.991,-283.023 670.919,-290.912 681.367,-289.155 677.991,-283.023"/>
</g>
<!-- Node16 -->
<g id="node41" class="node"><title>Node16</title>
<a xlink:href="workunitkey_8cpp.html" target="_top" xlink:title="This file declares the functionality of the metadata used to sort the iWorkUnits. ...">
<polygon fill="white" stroke="black" points="884.268,-233 884.268,-253 970.268,-253 970.268,-233 884.268,-233"/>
<text text-anchor="middle" x="927.268" y="-240" font-family="FreeSans" font-size="10.00">workunitkey.cpp</text>
</a>
</g>
<!-- Node1&#45;&gt;Node16 -->
<g id="edge50" class="edge"><title>Node1&#45;&gt;Node16</title>
<path fill="none" stroke="midnightblue" d="M697.962,-291.014C750.363,-280.041 833.775,-262.576 884.242,-252.009"/>
<polygon fill="midnightblue" stroke="midnightblue" points="696.984,-287.642 687.914,-293.118 698.419,-294.494 696.984,-287.642"/>
</g>
<!-- Node2&#45;&gt;Node3 -->
<g id="edge4" class="edge"><title>Node2&#45;&gt;Node3</title>
<path fill="none" stroke="midnightblue" d="M615.493,-229.09C589.389,-218.649 554.242,-204.59 530.722,-195.182"/>
<polygon fill="midnightblue" stroke="midnightblue" points="614.426,-232.433 625.011,-232.897 617.026,-225.934 614.426,-232.433"/>
</g>
<!-- Node2&#45;&gt;Node7 -->
<g id="edge38" class="edge"><title>Node2&#45;&gt;Node7</title>
<path fill="none" stroke="midnightblue" d="M702.728,-229.994C726.085,-222.54 753.046,-211.515 774.268,-196 833.775,-152.495 915.701,-112.681 866.268,-58 839.061,-27.9046 570.551,-16.1467 454.38,-12.4428"/>
<polygon fill="midnightblue" stroke="midnightblue" points="701.509,-226.707 692.965,-232.973 703.551,-233.402 701.509,-226.707"/>
</g>
<!-- Node10 -->
<g id="node21" class="node"><title>Node10</title>
<a xlink:href="framescheduler_8cpp.html" target="_top" xlink:title="This is the core object implementation for this algorithm. ">
<polygon fill="white" stroke="black" points="560.768,-59 560.768,-79 661.768,-79 661.768,-59 560.768,-59"/>
<text text-anchor="middle" x="611.268" y="-66" font-family="FreeSans" font-size="10.00">framescheduler.cpp</text>
</a>
</g>
<!-- Node2&#45;&gt;Node10 -->
<g id="edge42" class="edge"><title>Node2&#45;&gt;Node10</title>
<path fill="none" stroke="midnightblue" d="M636.526,-224.377C631.139,-216.1 625.486,-205.983 622.268,-196 608.824,-154.294 609.596,-101.13 610.636,-79.1806"/>
<polygon fill="midnightblue" stroke="midnightblue" points="633.797,-226.585 642.352,-232.835 639.562,-222.614 633.797,-226.585"/>
</g>
<!-- Node15 -->
<g id="node35" class="node"><title>Node15</title>
<a xlink:href="doublebufferedresource_8cpp.html" target="_top" xlink:title="This file defines the template double buffered resources that can be attached to a thread...">
<polygon fill="white" stroke="black" points="631.268,-175 631.268,-195 765.268,-195 765.268,-175 631.268,-175"/>
<text text-anchor="middle" x="698.268" y="-182" font-family="FreeSans" font-size="10.00">doublebufferedresource.cpp</text>
</a>
</g>
<!-- Node2&#45;&gt;Node15 -->
<g id="edge40" class="edge"><title>Node2&#45;&gt;Node15</title>
<path fill="none" stroke="midnightblue" d="M665.18,-224.981C673.232,-215.252 682.884,-203.589 689.68,-195.378"/>
<polygon fill="midnightblue" stroke="midnightblue" points="662.308,-222.962 658.629,-232.897 667.701,-227.425 662.308,-222.962"/>
</g>
<!-- Node4 -->
<g id="node7" class="node"><title>Node4</title>
<a xlink:href="asynchronousworkunit_8h.html" target="_top" xlink:title="Contains an interface for a kind of WorkUnit that loads or does other work even when the frame schedu...">
<polygon fill="white" stroke="black" points="249.768,-117 249.768,-137 368.768,-137 368.768,-117 249.768,-117"/>
<text text-anchor="middle" x="309.268" y="-124" font-family="FreeSans" font-size="10.00">asynchronousworkunit.h</text>
</a>
</g>
<!-- Node3&#45;&gt;Node4 -->
<g id="edge6" class="edge"><title>Node3&#45;&gt;Node4</title>
<path fill="none" stroke="midnightblue" d="M465.39,-173.199C429.421,-162.555 377.095,-147.071 343.118,-137.017"/>
<polygon fill="midnightblue" stroke="midnightblue" points="464.49,-176.583 475.073,-176.065 466.477,-169.871 464.49,-176.583"/>
</g>
<!-- Node3&#45;&gt;Node7 -->
<g id="edge34" class="edge"><title>Node3&#45;&gt;Node7</title>
<path fill="none" stroke="midnightblue" d="M487.988,-167.397C480.19,-158.925 471.196,-148.372 464.268,-138 437.063,-97.2719 414.084,-43.1218 405.201,-21.0272"/>
<polygon fill="midnightblue" stroke="midnightblue" points="485.58,-169.944 494.992,-174.808 490.667,-165.136 485.58,-169.944"/>
</g>
<!-- Node3&#45;&gt;Node9 -->
<g id="edge18" class="edge"><title>Node3&#45;&gt;Node9</title>
<path fill="none" stroke="midnightblue" d="M545.422,-172.807C580.418,-162.179 630.556,-146.954 663.261,-137.023"/>
<polygon fill="midnightblue" stroke="midnightblue" points="544.084,-169.555 535.532,-175.81 546.118,-176.253 544.084,-169.555"/>
</g>
<!-- Node12 -->
<g id="node25" class="node"><title>Node12</title>
<a xlink:href="monopoly_8h.html" target="_top" xlink:title="Contains an interface for a kind of WorkUnit that consumes time on multiple thread. ">
<polygon fill="white" stroke="black" points="472.768,-117 472.768,-137 537.768,-137 537.768,-117 472.768,-117"/>
<text text-anchor="middle" x="505.268" y="-124" font-family="FreeSans" font-size="10.00">monopoly.h</text>
</a>
</g>
<!-- Node3&#45;&gt;Node12 -->
<g id="edge26" class="edge"><title>Node3&#45;&gt;Node12</title>
<path fill="none" stroke="midnightblue" d="M505.268,-164.89C505.268,-155.62 505.268,-145.008 505.268,-137.378"/>
<polygon fill="midnightblue" stroke="midnightblue" points="501.768,-164.897 505.268,-174.897 508.768,-164.897 501.768,-164.897"/>
</g>
<!-- Node14 -->
<g id="node32" class="node"><title>Node14</title>
<a xlink:href="workunit_8cpp.html" target="_top" xlink:title="This file has the implementation of the Mezzanine::Threading::DefaultWorkUnit. ">
<polygon fill="white" stroke="black" points="161.768,-117 161.768,-137 232.768,-137 232.768,-117 161.768,-117"/>
<text text-anchor="middle" x="197.268" y="-124" font-family="FreeSans" font-size="10.00">workunit.cpp</text>
</a>
</g>
<!-- Node3&#45;&gt;Node14 -->
<g id="edge36" class="edge"><title>Node3&#45;&gt;Node14</title>
<path fill="none" stroke="midnightblue" d="M464.915,-178.702C412.984,-170.394 320.062,-154.842 241.268,-138 238.65,-137.44 235.951,-136.835 233.239,-136.207"/>
<polygon fill="midnightblue" stroke="midnightblue" points="464.621,-182.199 475.047,-180.314 465.721,-175.286 464.621,-182.199"/>
</g>
<!-- Node5 -->
<g id="node9" class="node"><title>Node5</title>
<a xlink:href="asynchronousfileloadingworkunit_8h.html" target="_top" xlink:title="The declaration of the AsynchronousFileLoadWorkUnit a workunit that loads a listing of files asynchro...">
<polygon fill="white" stroke="black" points="28.768,-59 28.768,-79 189.768,-79 189.768,-59 28.768,-59"/>
<text text-anchor="middle" x="109.268" y="-66" font-family="FreeSans" font-size="10.00">asynchronousfileloadingworkunit.h</text>
</a>
</g>
<!-- Node4&#45;&gt;Node5 -->
<g id="edge8" class="edge"><title>Node4&#45;&gt;Node5</title>
<path fill="none" stroke="midnightblue" d="M264.565,-114.036C228.152,-103.476 177.471,-88.7788 144.041,-79.0842"/>
<polygon fill="midnightblue" stroke="midnightblue" points="263.851,-117.473 274.431,-116.897 265.801,-110.75 263.851,-117.473"/>
</g>
<!-- Node4&#45;&gt;Node7 -->
<g id="edge16" class="edge"><title>Node4&#45;&gt;Node7</title>
<path fill="none" stroke="midnightblue" d="M274.701,-112.411C248.803,-99.3552 220.359,-79.0731 236.268,-58 249.862,-39.9928 305.153,-26.8383 348.028,-19.0994"/>
<polygon fill="midnightblue" stroke="midnightblue" points="273.51,-115.721 284.041,-116.882 276.532,-109.407 273.51,-115.721"/>
</g>
<!-- Node8 -->
<g id="node15" class="node"><title>Node8</title>
<a xlink:href="asynchronousworkunit_8cpp.html" target="_top" xlink:title="Contains very little actually. ">
<polygon fill="white" stroke="black" points="244.768,-59 244.768,-79 373.768,-79 373.768,-59 244.768,-59"/>
<text text-anchor="middle" x="309.268" y="-66" font-family="FreeSans" font-size="10.00">asynchronousworkunit.cpp</text>
</a>
</g>
<!-- Node4&#45;&gt;Node8 -->
<g id="edge14" class="edge"><title>Node4&#45;&gt;Node8</title>
<path fill="none" stroke="midnightblue" d="M309.268,-106.89C309.268,-97.6201 309.268,-87.0083 309.268,-79.3776"/>
<polygon fill="midnightblue" stroke="midnightblue" points="305.768,-106.897 309.268,-116.897 312.768,-106.897 305.768,-106.897"/>
</g>
<!-- Node6 -->
<g id="node11" class="node"><title>Node6</title>
<a xlink:href="asynchronousfileloadingworkunit_8cpp.html" target="_top" xlink:title="The implementation of the AsynchronousFileLoadWorkUnit a workunit that loads a listing of files async...">
<polygon fill="white" stroke="black" points="23.268,-1 23.268,-21 195.268,-21 195.268,-1 23.268,-1"/>
<text text-anchor="middle" x="109.268" y="-8" font-family="FreeSans" font-size="10.00">asynchronousfileloadingworkunit.cpp</text>
</a>
</g>
<!-- Node5&#45;&gt;Node6 -->
<g id="edge10" class="edge"><title>Node5&#45;&gt;Node6</title>
<path fill="none" stroke="midnightblue" d="M109.268,-48.8902C109.268,-39.6201 109.268,-29.0083 109.268,-21.3776"/>
<polygon fill="midnightblue" stroke="midnightblue" points="105.768,-48.8971 109.268,-58.8972 112.768,-48.8972 105.768,-48.8971"/>
</g>
<!-- Node5&#45;&gt;Node7 -->
<g id="edge12" class="edge"><title>Node5&#45;&gt;Node7</title>
<path fill="none" stroke="midnightblue" d="M169.844,-56.9678C223.402,-46.3296 300.617,-30.9923 350.869,-21.0108"/>
<polygon fill="midnightblue" stroke="midnightblue" points="168.924,-53.5821 159.797,-58.9634 170.287,-60.448 168.924,-53.5821"/>
</g>
<!-- Node9&#45;&gt;Node7 -->
<g id="edge20" class="edge"><title>Node9&#45;&gt;Node7</title>
<path fill="none" stroke="midnightblue" d="M693.992,-106.478C691.135,-90.8167 684.707,-69.9585 670.268,-58 638.183,-31.4267 523.368,-19.188 454.538,-14.1262"/>
<polygon fill="midnightblue" stroke="midnightblue" points="690.586,-107.378 695.504,-116.762 697.512,-106.359 690.586,-107.378"/>
</g>
<!-- Node9&#45;&gt;Node10 -->
<g id="edge22" class="edge"><title>Node9&#45;&gt;Node10</title>
<path fill="none" stroke="midnightblue" d="M672.783,-110.975C657.887,-100.811 639.066,-87.9681 626.189,-79.1817"/>
<polygon fill="midnightblue" stroke="midnightblue" points="671.229,-114.152 681.462,-116.897 675.175,-108.37 671.229,-114.152"/>
</g>
<!-- Node11 -->
<g id="node23" class="node"><title>Node11</title>
<a xlink:href="frameschedulerworkunits_8cpp.html" target="_top" xlink:title="The implementation of any workunits the framescheduler needs to work correctly. ">
<polygon fill="white" stroke="black" points="716.768,-59 716.768,-79 857.768,-79 857.768,-59 716.768,-59"/>
<text text-anchor="middle" x="787.268" y="-66" font-family="FreeSans" font-size="10.00">frameschedulerworkunits.cpp</text>
</a>
</g>
<!-- Node9&#45;&gt;Node11 -->
<g id="edge24" class="edge"><title>Node9&#45;&gt;Node11</title>
<path fill="none" stroke="midnightblue" d="M720.96,-111.262C736.977,-101.054 757.378,-88.051 771.293,-79.1817"/>
<polygon fill="midnightblue" stroke="midnightblue" points="718.671,-108.571 712.119,-116.897 722.433,-114.474 718.671,-108.571"/>
</g>
<!-- Node12&#45;&gt;Node7 -->
<g id="edge28" class="edge"><title>Node12&#45;&gt;Node7</title>
<path fill="none" stroke="midnightblue" d="M487.255,-109.779C478.331,-101.05 467.515,-90.1693 458.268,-80 439.87,-59.767 419.828,-34.7411 409.098,-21.0758"/>
<polygon fill="midnightblue" stroke="midnightblue" points="484.907,-112.377 494.524,-116.824 489.779,-107.35 484.907,-112.377"/>
</g>
<!-- Node12&#45;&gt;Node10 -->
<g id="edge30" class="edge"><title>Node12&#45;&gt;Node10</title>
<path fill="none" stroke="midnightblue" d="M532.732,-111.973C551.573,-101.663 576.072,-88.2582 592.66,-79.1817"/>
<polygon fill="midnightblue" stroke="midnightblue" points="530.824,-109.027 523.732,-116.897 534.184,-115.167 530.824,-109.027"/>
</g>
<!-- Node13 -->
<g id="node29" class="node"><title>Node13</title>
<a xlink:href="monopoly_8cpp.html" target="_top" xlink:title="Contains the minimal implementation for the monopoly base class. ">
<polygon fill="white" stroke="black" points="467.268,-59 467.268,-79 543.268,-79 543.268,-59 467.268,-59"/>
<text text-anchor="middle" x="505.268" y="-66" font-family="FreeSans" font-size="10.00">monopoly.cpp</text>
</a>
</g>
<!-- Node12&#45;&gt;Node13 -->
<g id="edge32" class="edge"><title>Node12&#45;&gt;Node13</title>
<path fill="none" stroke="midnightblue" d="M505.268,-106.89C505.268,-97.6201 505.268,-87.0083 505.268,-79.3776"/>
<polygon fill="midnightblue" stroke="midnightblue" points="501.768,-106.897 505.268,-116.897 508.768,-106.897 501.768,-106.897"/>
</g>
</g>
</svg>
        <g id="navigator" transform="translate(0 0)" fill="#404254">
                <rect fill="#f2f5e9" fill-opacity="0.5" stroke="#606060" stroke-width=".5" x="0" y="0" width="60" height="60"/>
                <use id="zoomplus" xlink:href="#zoomPlus" x="17" y="9" onmousedown="handleZoom(evt,'in')"/>
                <use id="zoomminus" xlink:href="#zoomMin" x="42" y="9" onmousedown="handleZoom(evt,'out')"/>
                <use id="reset" xlink:href="#resetDef" x="30" y="36" onmousedown="handleReset()"/>
                <g id="arrowUp" xlink:href="#dirArrow" transform="translate(30 24)" onmousedown="handlePan(0,-1)">
                  <use xlink:href="#rim" fill="#404040">
                        <set attributeName="fill" to="#808080" begin="arrowUp.mouseover" end="arrowUp.mouseout"/>
                  </use>
                  <path fill="none" stroke="white" stroke-width="1.5" d="M0,-3.0v7 M-2.5,-0.5L0,-3.0L2.5,-0.5"/>
                </g>
                <g id="arrowRight" xlink:href="#dirArrow" transform="rotate(90) translate(36 -43)" onmousedown="handlePan(1,0)">
                  <use xlink:href="#rim" fill="#404040">
                        <set attributeName="fill" to="#808080" begin="arrowRight.mouseover" end="arrowRight.mouseout"/>
                  </use>
                  <path fill="none" stroke="white" stroke-width="1.5" d="M0,-3.0v7 M-2.5,-0.5L0,-3.0L2.5,-0.5"/>
                </g>
                <g id="arrowDown" xlink:href="#dirArrow" transform="rotate(180) translate(-30 -48)" onmousedown="handlePan(0,1)">
                  <use xlink:href="#rim" fill="#404040">
                        <set attributeName="fill" to="#808080" begin="arrowDown.mouseover" end="arrowDown.mouseout"/>
                  </use>
                  <path fill="none" stroke="white" stroke-width="1.5" d="M0,-3.0v7 M-2.5,-0.5L0,-3.0L2.5,-0.5"/>
                </g>
                <g id="arrowLeft" xlink:href="#dirArrow" transform="rotate(270) translate(-36 17)" onmousedown="handlePan(-1,0)">
                  <use xlink:href="#rim" fill="#404040">
                        <set attributeName="fill" to="#808080" begin="arrowLeft.mouseover" end="arrowLeft.mouseout"/>
                  </use>
                  <path fill="none" stroke="white" stroke-width="1.5" d="M0,-3.0v7 M-2.5,-0.5L0,-3.0L2.5,-0.5"/>
                </g>
        </g>
        <svg viewBox="0 0 15 15" width="100%" height="30px" preserveAspectRatio="xMaxYMin meet">
         <g id="arrow_out" transform="scale(0.3 0.3)">
          <a xlink:href="workunitkey_8h__dep__incl_org.svg" target="_base">
           <rect id="button" ry="5" rx="5" y="6" x="6" height="38" width="38"
                fill="#f2f5e9" fill-opacity="0.5" stroke="#606060" stroke-width="1.0"/>
           <path id="arrow"
             d="M 11.500037,31.436501 C 11.940474,20.09759 22.043105,11.32322 32.158766,21.979434 L 37.068811,17.246167 C 37.068811,17.246167 37.088388,32 37.088388,32 L 22.160133,31.978069 C 22.160133,31.978069 26.997745,27.140456 26.997745,27.140456 C 18.528582,18.264221 13.291696,25.230495 11.500037,31.436501 z"
             style="fill:#404040;"/>
          </a>
         </g>
        </svg>
</svg>
