<?xml version="1.0" encoding="UTF-8" standalone="no"?>
<!DOCTYPE svg PUBLIC "-//W3C//DTD SVG 1.1//EN"
 "http://www.w3.org/Graphics/SVG/1.1/DTD/svg11.dtd">
<!-- Generated by graphviz version 2.26.3 (20100126.1600)
 -->
<!-- Title: G Pages: 1 -->
<!--zoomable 392 -->
<svg id="main" version="1.1" xmlns="http://www.w3.org/2000/svg" xmlns:xlink="http://www.w3.org/1999/xlink" xml:space="preserve" onload="init(evt)">
        <defs>
                <circle id="rim" cx="0" cy="0" r="7"/>
                <circle id="rim2" cx="0" cy="0" r="3.5"/>
                <g id="zoomPlus">
                        <use xlink:href="#rim" fill="#404040">
                                <set attributeName="fill" to="#808080" begin="zoomplus.mouseover" end="zoomplus.mouseout"/>
                        </use>
                        <path d="M-4,0h8M0,-4v8" fill="none" stroke="white" stroke-width="1.5" pointer-events="none"/>
                </g>
                <g id="zoomMin">
                        <use xlink:href="#rim" fill="#404040">
                                <set attributeName="fill" to="#808080" begin="zoomminus.mouseover" end="zoomminus.mouseout"/>
                        </use>
                        <path d="M-4,0h8" fill="none" stroke="white" stroke-width="1.5" pointer-events="none"/>
                </g>
                <g id="dirArrow">
                        <path fill="none" stroke="white" stroke-width="1.5" d="M0,-3.0v7 M-2.5,-0.5L0,-3.0L2.5,-0.5"/>
                </g>
               <g id="resetDef">
                       <use xlink:href="#rim2" fill="#404040">
                               <set attributeName="fill" to="#808080" begin="reset.mouseover" end="reset.mouseout"/>
                       </use>
               </g>
        </defs>

<script type="text/javascript">
var viewWidth = 677;
var viewHeight = 392;
var sectionId = 'dynsection-0';
</script>
<script xlink:href="svgpan.js"/>
<svg id="graph" class="graph">
<g id="viewport">
<title>G</title>
<polygon fill="white" stroke="white" points="-4,5 -4,-388 673.643,-388 673.643,5 -4,5"/>
<!-- Node1 -->
<g id="node1" class="node"><title>Node1</title>
<polygon fill="#bfbfbf" stroke="black" points="382.143,-361 382.143,-383 443.143,-383 443.143,-361 382.143,-361"/>
<text text-anchor="middle" x="412.643" y="-370" font-family="FreeSans" font-size="10.00">workunit.h</text>
</g>
<!-- Node2 -->
<g id="node3" class="node"><title>Node2</title>
<a xlink:href="datatypes_8h.html" target="_top" xlink:title="This file declares a few typedefs to allow flexibility, in case a change is required/desired.">
<polygon fill="white" stroke="black" points="272.643,-121 272.643,-143 340.643,-143 340.643,-121 272.643,-121"/>
<text text-anchor="middle" x="306.643" y="-130" font-family="FreeSans" font-size="10.00">datatypes.h</text>
</a>
</g>
<!-- Node1&#45;&gt;Node2 -->
<g id="edge2" class="edge"><title>Node1&#45;&gt;Node2</title>
<path fill="none" stroke="midnightblue" d="M416.419,-360.822C423.69,-337.329 437.415,-281.57 419.643,-240 402.316,-199.472 361.489,-166.896 333.956,-148.496"/>
<polygon fill="midnightblue" stroke="midnightblue" points="335.824,-145.536 325.531,-143.028 332.014,-151.408 335.824,-145.536"/>
</g>
<!-- Node10 -->
<g id="node19" class="node"><title>Node10</title>
<a xlink:href="framescheduler_8h.html" target="_top" xlink:title="This file has the Declarations for the main FrameScheduler class.">
<polygon fill="white" stroke="black" points="195.643,-301 195.643,-323 289.643,-323 289.643,-301 195.643,-301"/>
<text text-anchor="middle" x="242.643" y="-310" font-family="FreeSans" font-size="10.00">framescheduler.h</text>
</a>
</g>
<!-- Node1&#45;&gt;Node10 -->
<g id="edge18" class="edge"><title>Node1&#45;&gt;Node10</title>
<path fill="none" stroke="midnightblue" d="M381.858,-361.134C354.435,-351.456 314.091,-337.217 283.885,-326.556"/>
<polygon fill="midnightblue" stroke="midnightblue" points="284.658,-323.117 274.063,-323.089 282.328,-329.718 284.658,-323.117"/>
</g>
<!-- Node11 -->
<g id="node22" class="node"><title>Node11</title>
<a xlink:href="thread_8h.html" target="_top" xlink:title="This file defines a minimalistic cross&#45;platform thread that the scheduler uses to schedule tasks...">
<polygon fill="white" stroke="black" points="18.1433,-241 18.1433,-263 71.1433,-263 71.1433,-241 18.1433,-241"/>
<text text-anchor="middle" x="44.6433" y="-250" font-family="FreeSans" font-size="10.00">thread.h</text>
</a>
</g>
<!-- Node1&#45;&gt;Node11 -->
<g id="edge62" class="edge"><title>Node1&#45;&gt;Node11</title>
<path fill="none" stroke="midnightblue" d="M381.981,-368.07C337.866,-361.842 254.35,-347.895 186.643,-324 144.725,-309.206 99.4345,-284.585 71.551,-268.323"/>
<polygon fill="midnightblue" stroke="midnightblue" points="73.1833,-265.222 62.7922,-263.154 69.6258,-271.25 73.1833,-265.222"/>
</g>
<!-- Node13 -->
<g id="node28" class="node"><title>Node13</title>
<a xlink:href="mutex_8h.html" target="_top" xlink:title="This file declares and defines a mutex that is a partial implementation.">
<polygon fill="white" stroke="black" points="13.1433,-121 13.1433,-143 64.1433,-143 64.1433,-121 13.1433,-121"/>
<text text-anchor="middle" x="38.6433" y="-130" font-family="FreeSans" font-size="10.00">mutex.h</text>
</a>
</g>
<!-- Node1&#45;&gt;Node13 -->
<g id="edge52" class="edge"><title>Node1&#45;&gt;Node13</title>
<path fill="none" stroke="midnightblue" d="M381.846,-369.026C294.612,-359.851 49.5806,-328.62 9.64331,-264 -12.2047,-228.649 10.0606,-179.029 25.8565,-151.806"/>
<polygon fill="midnightblue" stroke="midnightblue" points="28.9001,-153.537 31.091,-143.171 22.914,-149.908 28.9001,-153.537"/>
</g>
<!-- Node15 -->
<g id="node34" class="node"><title>Node15</title>
<polygon fill="white" stroke="#bfbfbf" points="466.643,-181 466.643,-203 510.643,-203 510.643,-181 466.643,-181"/>
<text text-anchor="middle" x="488.643" y="-190" font-family="FreeSans" font-size="10.00">vector</text>
</g>
<!-- Node1&#45;&gt;Node15 -->
<g id="edge66" class="edge"><title>Node1&#45;&gt;Node15</title>
<path fill="none" stroke="midnightblue" d="M424.398,-360.808C433.342,-351.681 445.323,-338.044 452.643,-324 471.569,-287.691 481.33,-240.432 485.687,-213.43"/>
<polygon fill="midnightblue" stroke="midnightblue" points="489.201,-213.601 487.235,-203.19 482.28,-212.555 489.201,-213.601"/>
</g>
<!-- Node16 -->
<g id="node36" class="node"><title>Node16</title>
<a xlink:href="workunitkey_8h.html" target="_top" xlink:title="This file defines the metadata used to sort workunits.">
<polygon fill="white" stroke="black" points="334.143,-241 334.143,-263 411.143,-263 411.143,-241 334.143,-241"/>
<text text-anchor="middle" x="372.643" y="-250" font-family="FreeSans" font-size="10.00">workunitkey.h</text>
</a>
</g>
<!-- Node1&#45;&gt;Node16 -->
<g id="edge64" class="edge"><title>Node1&#45;&gt;Node16</title>
<path fill="none" stroke="midnightblue" d="M408.952,-360.926C402.284,-340.923 388.134,-298.472 379.601,-272.872"/>
<polygon fill="midnightblue" stroke="midnightblue" points="382.809,-271.427 376.326,-263.047 376.168,-273.641 382.809,-271.427"/>
</g>
<!-- Node20 -->
<g id="node47" class="node"><title>Node20</title>
<a xlink:href="rollingaverage_8h.html" target="_top" xlink:title="This Store the implementation and the declaration of the RollingAverage, BufferedRollingAverage, WeightedRollingAverage and the DefaultRollingAverage.">
<polygon fill="white" stroke="black" points="504.143,-241 504.143,-263 593.143,-263 593.143,-241 504.143,-241"/>
<text text-anchor="middle" x="548.643" y="-250" font-family="FreeSans" font-size="10.00">rollingaverage.h</text>
</a>
</g>
<!-- Node1&#45;&gt;Node20 -->
<g id="edge54" class="edge"><title>Node1&#45;&gt;Node20</title>
<path fill="none" stroke="midnightblue" d="M434.846,-360.985C451.243,-352.246 473.582,-339.03 490.643,-324 508.364,-308.39 524.873,-286.942 535.71,-271.521"/>
<polygon fill="midnightblue" stroke="midnightblue" points="538.629,-273.454 541.402,-263.228 532.857,-269.493 538.629,-273.454"/>
</g>
<!-- Node21 -->
<g id="node51" class="node"><title>Node21</title>
<a xlink:href="threadingenumerations_8h.html" target="_top" xlink:title="Any enumerations the threading library requires are all declared here.">
<polygon fill="white" stroke="black" points="542.143,-301 542.143,-323 669.143,-323 669.143,-301 542.143,-301"/>
<text text-anchor="middle" x="605.643" y="-310" font-family="FreeSans" font-size="10.00">threadingenumerations.h</text>
</a>
</g>
<!-- Node1&#45;&gt;Node21 -->
<g id="edge60" class="edge"><title>Node1&#45;&gt;Node21</title>
<path fill="none" stroke="midnightblue" d="M443.225,-362.493C474.703,-352.707 524.108,-337.348 560.168,-326.137"/>
<polygon fill="midnightblue" stroke="midnightblue" points="561.449,-329.404 569.959,-323.093 559.371,-322.72 561.449,-329.404"/>
</g>
<!-- Node3 -->
<g id="node5" class="node"><title>Node3</title>
<a xlink:href="compilerthreadcompat_8h.html" target="_top" xlink:title="This file determines what features are offered by the compiler that this library can take advantage o...">
<polygon fill="white" stroke="black" points="82.6433,-61 82.6433,-83 206.643,-83 206.643,-61 82.6433,-61"/>
<text text-anchor="middle" x="144.643" y="-70" font-family="FreeSans" font-size="10.00">compilerthreadcompat.h</text>
</a>
</g>
<!-- Node2&#45;&gt;Node3 -->
<g id="edge4" class="edge"><title>Node2&#45;&gt;Node3</title>
<path fill="none" stroke="midnightblue" d="M276.93,-120.995C250.865,-111.341 212.762,-97.2293 184.137,-86.6272"/>
<polygon fill="midnightblue" stroke="midnightblue" points="185.035,-83.2277 174.442,-83.0366 182.604,-89.7919 185.035,-83.2277"/>
</g>
<!-- Node8 -->
<g id="node15" class="node"><title>Node8</title>
<polygon fill="white" stroke="#bfbfbf" points="22.1433,-61 22.1433,-83 63.1433,-83 63.1433,-61 22.1433,-61"/>
<text text-anchor="middle" x="42.6433" y="-70" font-family="FreeSans" font-size="10.00">string</text>
</g>
<!-- Node2&#45;&gt;Node8 -->
<g id="edge14" class="edge"><title>Node2&#45;&gt;Node8</title>
<path fill="none" stroke="midnightblue" d="M272.642,-126.817C226.877,-119.43 143.177,-104.466 73.6433,-84 73.3215,-83.9053 72.9983,-83.8087 72.674,-83.7103"/>
<polygon fill="midnightblue" stroke="midnightblue" points="73.7498,-80.3795 63.1555,-80.4888 71.5056,-87.01 73.7498,-80.3795"/>
</g>
<!-- Node9 -->
<g id="node17" class="node"><title>Node9</title>
<polygon fill="white" stroke="#bfbfbf" points="283.143,-61 283.143,-83 330.143,-83 330.143,-61 283.143,-61"/>
<text text-anchor="middle" x="306.643" y="-70" font-family="FreeSans" font-size="10.00">stdint.h</text>
</g>
<!-- Node2&#45;&gt;Node9 -->
<g id="edge16" class="edge"><title>Node2&#45;&gt;Node9</title>
<path fill="none" stroke="midnightblue" d="M306.643,-120.995C306.643,-113.311 306.643,-102.803 306.643,-93.4884"/>
<polygon fill="midnightblue" stroke="midnightblue" points="310.143,-93.3428 306.643,-83.3428 303.143,-93.3429 310.143,-93.3428"/>
</g>
<!-- Node4 -->
<g id="node7" class="node"><title>Node4</title>
<polygon fill="white" stroke="#bfbfbf" points="9.64331,-1 9.64331,-23 67.6433,-23 67.6433,-1 9.64331,-1"/>
<text text-anchor="middle" x="38.6433" y="-10" font-family="FreeSans" font-size="10.00">pthread.h</text>
</g>
<!-- Node3&#45;&gt;Node4 -->
<g id="edge6" class="edge"><title>Node3&#45;&gt;Node4</title>
<path fill="none" stroke="midnightblue" d="M125.201,-60.9951C108.942,-51.7917 85.5247,-38.5366 67.146,-28.1336"/>
<polygon fill="midnightblue" stroke="midnightblue" points="68.7477,-25.0185 58.3211,-23.1383 65.2995,-31.1103 68.7477,-25.0185"/>
</g>
<!-- Node5 -->
<g id="node9" class="node"><title>Node5</title>
<polygon fill="white" stroke="#bfbfbf" points="85.1433,-1 85.1433,-23 136.143,-23 136.143,-1 85.1433,-1"/>
<text text-anchor="middle" x="110.643" y="-10" font-family="FreeSans" font-size="10.00">signal.h</text>
</g>
<!-- Node3&#45;&gt;Node5 -->
<g id="edge8" class="edge"><title>Node3&#45;&gt;Node5</title>
<path fill="none" stroke="midnightblue" d="M138.407,-60.9951C133.864,-52.9771 127.578,-41.884 122.136,-32.2806"/>
<polygon fill="midnightblue" stroke="midnightblue" points="125.046,-30.3175 117.071,-23.3428 118.956,-33.7686 125.046,-30.3175"/>
</g>
<!-- Node6 -->
<g id="node11" class="node"><title>Node6</title>
<polygon fill="white" stroke="#bfbfbf" points="153.643,-1 153.643,-23 205.643,-23 205.643,-1 153.643,-1"/>
<text text-anchor="middle" x="179.643" y="-10" font-family="FreeSans" font-size="10.00">sched.h</text>
</g>
<!-- Node3&#45;&gt;Node6 -->
<g id="edge10" class="edge"><title>Node3&#45;&gt;Node6</title>
<path fill="none" stroke="midnightblue" d="M151.063,-60.9951C155.789,-52.8936 162.346,-41.6525 167.988,-31.981"/>
<polygon fill="midnightblue" stroke="midnightblue" points="171.011,-33.7442 173.027,-23.3428 164.965,-30.2171 171.011,-33.7442"/>
</g>
<!-- Node7 -->
<g id="node13" class="node"><title>Node7</title>
<polygon fill="white" stroke="#bfbfbf" points="223.643,-1 223.643,-23 273.643,-23 273.643,-1 223.643,-1"/>
<text text-anchor="middle" x="248.643" y="-10" font-family="FreeSans" font-size="10.00">unistd.h</text>
</g>
<!-- Node3&#45;&gt;Node7 -->
<g id="edge12" class="edge"><title>Node3&#45;&gt;Node7</title>
<path fill="none" stroke="midnightblue" d="M163.719,-60.9951C179.598,-51.8337 202.437,-38.6576 220.431,-28.2763"/>
<polygon fill="midnightblue" stroke="midnightblue" points="222.424,-31.1673 229.337,-23.1383 218.926,-25.104 222.424,-31.1673"/>
</g>
<!-- Node10&#45;&gt;Node2 -->
<g id="edge20" class="edge"><title>Node10&#45;&gt;Node2</title>
<path fill="none" stroke="midnightblue" d="M247.581,-300.985C251.902,-291.284 258.304,-276.753 263.643,-264 274.734,-237.507 278.629,-231.27 287.643,-204 293.205,-187.176 298.257,-167.728 301.752,-153.289"/>
<polygon fill="midnightblue" stroke="midnightblue" points="305.207,-153.887 304.103,-143.349 298.395,-152.275 305.207,-153.887"/>
</g>
<!-- Node10&#45;&gt;Node11 -->
<g id="edge22" class="edge"><title>Node10&#45;&gt;Node11</title>
<path fill="none" stroke="midnightblue" d="M203.303,-300.939C172.33,-292.114 127.858,-279.185 81.0583,-264.38"/>
<polygon fill="midnightblue" stroke="midnightblue" points="81.9467,-260.99 71.3562,-261.294 79.8249,-267.66 81.9467,-260.99"/>
</g>
<!-- Node12 -->
<g id="node25" class="node"><title>Node12</title>
<a xlink:href="systemcalls_8h.html" target="_top" xlink:title="This file defines a minimalistic cross&#45;platform thread that the scheduler uses to schedule tasks...">
<polygon fill="white" stroke="black" points="202.143,-181 202.143,-203 279.143,-203 279.143,-181 202.143,-181"/>
<text text-anchor="middle" x="240.643" y="-190" font-family="FreeSans" font-size="10.00">systemcalls.h</text>
</a>
</g>
<!-- Node10&#45;&gt;Node12 -->
<g id="edge44" class="edge"><title>Node10&#45;&gt;Node12</title>
<path fill="none" stroke="midnightblue" d="M245.055,-300.779C247.795,-286.617 251.642,-261.509 249.643,-240 248.825,-231.195 247.18,-221.597 245.517,-213.314"/>
<polygon fill="midnightblue" stroke="midnightblue" points="248.902,-212.408 243.389,-203.36 242.057,-213.871 248.902,-212.408"/>
</g>
<!-- Node10&#45;&gt;Node16 -->
<g id="edge40" class="edge"><title>Node10&#45;&gt;Node16</title>
<path fill="none" stroke="midnightblue" d="M266.487,-300.995C286.883,-291.582 316.463,-277.929 339.221,-267.426"/>
<polygon fill="midnightblue" stroke="midnightblue" points="340.897,-270.507 348.51,-263.138 337.964,-264.151 340.897,-270.507"/>
</g>
<!-- Node17 -->
<g id="node40" class="node"><title>Node17</title>
<polygon fill="white" stroke="#bfbfbf" points="88.6433,-241 88.6433,-263 124.643,-263 124.643,-241 88.6433,-241"/>
<text text-anchor="middle" x="106.643" y="-250" font-family="FreeSans" font-size="10.00">map</text>
</g>
<!-- Node10&#45;&gt;Node17 -->
<g id="edge46" class="edge"><title>Node10&#45;&gt;Node17</title>
<path fill="none" stroke="midnightblue" d="M217.523,-300.967C197.236,-292.05 167.732,-279.068 133.837,-264.078"/>
<polygon fill="midnightblue" stroke="midnightblue" points="135.21,-260.858 124.649,-260.013 132.377,-267.259 135.21,-260.858"/>
</g>
<!-- Node18 -->
<g id="node42" class="node"><title>Node18</title>
<polygon fill="white" stroke="#bfbfbf" points="142.643,-241 142.643,-263 172.643,-263 172.643,-241 142.643,-241"/>
<text text-anchor="middle" x="157.643" y="-250" font-family="FreeSans" font-size="10.00">set</text>
</g>
<!-- Node10&#45;&gt;Node18 -->
<g id="edge48" class="edge"><title>Node10&#45;&gt;Node18</title>
<path fill="none" stroke="midnightblue" d="M227.053,-300.995C214.273,-291.974 195.978,-279.06 181.379,-268.754"/>
<polygon fill="midnightblue" stroke="midnightblue" points="183.037,-265.641 172.849,-262.733 179,-271.36 183.037,-265.641"/>
</g>
<!-- Node19 -->
<g id="node44" class="node"><title>Node19</title>
<polygon fill="white" stroke="#bfbfbf" points="190.643,-241 190.643,-263 240.643,-263 240.643,-241 190.643,-241"/>
<text text-anchor="middle" x="215.643" y="-250" font-family="FreeSans" font-size="10.00">fstream</text>
</g>
<!-- Node10&#45;&gt;Node19 -->
<g id="edge50" class="edge"><title>Node10&#45;&gt;Node19</title>
<path fill="none" stroke="midnightblue" d="M237.691,-300.995C234.121,-293.061 229.195,-282.115 224.905,-272.581"/>
<polygon fill="midnightblue" stroke="midnightblue" points="228.043,-271.026 220.748,-263.343 221.66,-273.898 228.043,-271.026"/>
</g>
<!-- Node11&#45;&gt;Node3 -->
<g id="edge24" class="edge"><title>Node11&#45;&gt;Node3</title>
<path fill="none" stroke="midnightblue" d="M71.2386,-243.243C89.5607,-235.775 112.832,-223.159 125.643,-204 148.153,-170.338 148.774,-121.058 146.908,-93.213"/>
<polygon fill="midnightblue" stroke="midnightblue" points="150.376,-92.691 146.046,-83.0216 143.401,-93.281 150.376,-92.691"/>
</g>
<!-- Node11&#45;&gt;Node12 -->
<g id="edge26" class="edge"><title>Node11&#45;&gt;Node12</title>
<path fill="none" stroke="midnightblue" d="M71.3592,-242.716C74.1513,-241.783 76.9517,-240.862 79.6433,-240 117.239,-227.956 160.086,-215.23 192.122,-205.909"/>
<polygon fill="midnightblue" stroke="midnightblue" points="193.494,-209.156 202.123,-203.008 191.544,-202.433 193.494,-209.156"/>
</g>
<!-- Node11&#45;&gt;Node13 -->
<g id="edge30" class="edge"><title>Node11&#45;&gt;Node13</title>
<path fill="none" stroke="midnightblue" d="M44.0896,-240.926C43.0939,-221.012 40.9858,-178.851 39.7041,-153.216"/>
<polygon fill="midnightblue" stroke="midnightblue" points="43.1908,-152.86 39.1957,-143.047 36.1995,-153.21 43.1908,-152.86"/>
</g>
<!-- Node14 -->
<g id="node32" class="node"><title>Node14</title>
<polygon fill="white" stroke="#bfbfbf" points="64.1433,-181 64.1433,-203 117.143,-203 117.143,-181 64.1433,-181"/>
<text text-anchor="middle" x="90.6433" y="-190" font-family="FreeSans" font-size="10.00">ostream</text>
</g>
<!-- Node11&#45;&gt;Node14 -->
<g id="edge36" class="edge"><title>Node11&#45;&gt;Node14</title>
<path fill="none" stroke="midnightblue" d="M53.0804,-240.995C59.4196,-232.727 68.2661,-221.188 75.7817,-211.385"/>
<polygon fill="midnightblue" stroke="midnightblue" points="78.6404,-213.408 81.9471,-203.343 73.0851,-209.149 78.6404,-213.408"/>
</g>
<!-- Node11&#45;&gt;Node15 -->
<g id="edge38" class="edge"><title>Node11&#45;&gt;Node15</title>
<path fill="none" stroke="midnightblue" d="M71.2267,-242.231C74.0447,-241.392 76.8873,-240.627 79.6433,-240 217.618,-208.63 386.707,-197.075 456.337,-193.447"/>
<polygon fill="midnightblue" stroke="midnightblue" points="456.826,-196.927 466.639,-192.931 456.476,-189.936 456.826,-196.927"/>
</g>
<!-- Node12&#45;&gt;Node2 -->
<g id="edge28" class="edge"><title>Node12&#45;&gt;Node2</title>
<path fill="none" stroke="midnightblue" d="M252.749,-180.995C262.212,-172.392 275.568,-160.25 286.617,-150.205"/>
<polygon fill="midnightblue" stroke="midnightblue" points="289.121,-152.659 294.166,-143.343 284.412,-147.48 289.121,-152.659"/>
</g>
<!-- Node13&#45;&gt;Node3 -->
<g id="edge32" class="edge"><title>Node13&#45;&gt;Node3</title>
<path fill="none" stroke="midnightblue" d="M58.0853,-120.995C74.3446,-111.792 97.7619,-98.5366 116.141,-88.1336"/>
<polygon fill="midnightblue" stroke="midnightblue" points="117.987,-91.1103 124.966,-83.1383 114.539,-85.0185 117.987,-91.1103"/>
</g>
<!-- Node13&#45;&gt;Node8 -->
<g id="edge34" class="edge"><title>Node13&#45;&gt;Node8</title>
<path fill="none" stroke="midnightblue" d="M39.377,-120.995C39.8892,-113.311 40.5898,-102.803 41.2107,-93.4884"/>
<polygon fill="midnightblue" stroke="midnightblue" points="44.7141,-93.5535 41.8871,-83.3428 37.7296,-93.0878 44.7141,-93.5535"/>
</g>
<!-- Node16&#45;&gt;Node2 -->
<g id="edge42" class="edge"><title>Node16&#45;&gt;Node2</title>
<path fill="none" stroke="midnightblue" d="M366.552,-240.926C355.404,-220.655 331.575,-177.331 317.562,-151.853"/>
<polygon fill="midnightblue" stroke="midnightblue" points="320.605,-150.123 312.719,-143.047 314.472,-153.496 320.605,-150.123"/>
</g>
<!-- Node20&#45;&gt;Node2 -->
<g id="edge58" class="edge"><title>Node20&#45;&gt;Node2</title>
<path fill="none" stroke="midnightblue" d="M547.379,-240.886C544.952,-224.926 538.121,-195.715 519.643,-180 494.618,-158.717 405.837,-144.25 351.106,-137.126"/>
<polygon fill="midnightblue" stroke="midnightblue" points="351.336,-133.627 340.975,-135.84 350.454,-140.571 351.336,-133.627"/>
</g>
<!-- Node20&#45;&gt;Node15 -->
<g id="edge56" class="edge"><title>Node20&#45;&gt;Node15</title>
<path fill="none" stroke="midnightblue" d="M537.638,-240.995C529.119,-232.476 517.129,-220.485 507.142,-210.499"/>
<polygon fill="midnightblue" stroke="midnightblue" points="509.532,-207.939 499.986,-203.343 504.582,-212.889 509.532,-207.939"/>
</g>
</g>
</svg>
        <g id="navigator" transform="translate(0 0)" fill="#404254">
                <rect fill="#f2f5e9" fill-opacity="0.5" stroke="#606060" stroke-width=".5" x="0" y="0" width="60" height="60"/>
                <use id="zoomplus" xlink:href="#zoomPlus" x="17" y="9" onmousedown="handleZoom(evt,'in')"/>
                <use id="zoomminus" xlink:href="#zoomMin" x="42" y="9" onmousedown="handleZoom(evt,'out')"/>
                <use id="reset" xlink:href="#resetDef" x="30" y="36" onmousedown="handleReset()"/>
                <g id="arrowUp" xlink:href="#dirArrow" transform="translate(30 24)" onmousedown="handlePan(0,-1)">
                  <use xlink:href="#rim" fill="#404040">
                        <set attributeName="fill" to="#808080" begin="arrowUp.mouseover" end="arrowUp.mouseout"/>
                  </use>
                  <path fill="none" stroke="white" stroke-width="1.5" d="M0,-3.0v7 M-2.5,-0.5L0,-3.0L2.5,-0.5"/>
                </g>
                <g id="arrowRight" xlink:href="#dirArrow" transform="rotate(90) translate(36 -43)" onmousedown="handlePan(1,0)">
                  <use xlink:href="#rim" fill="#404040">
                        <set attributeName="fill" to="#808080" begin="arrowRight.mouseover" end="arrowRight.mouseout"/>
                  </use>
                  <path fill="none" stroke="white" stroke-width="1.5" d="M0,-3.0v7 M-2.5,-0.5L0,-3.0L2.5,-0.5"/>
                </g>
                <g id="arrowDown" xlink:href="#dirArrow" transform="rotate(180) translate(-30 -48)" onmousedown="handlePan(0,1)">
                  <use xlink:href="#rim" fill="#404040">
                        <set attributeName="fill" to="#808080" begin="arrowDown.mouseover" end="arrowDown.mouseout"/>
                  </use>
                  <path fill="none" stroke="white" stroke-width="1.5" d="M0,-3.0v7 M-2.5,-0.5L0,-3.0L2.5,-0.5"/>
                </g>
                <g id="arrowLeft" xlink:href="#dirArrow" transform="rotate(270) translate(-36 17)" onmousedown="handlePan(-1,0)">
                  <use xlink:href="#rim" fill="#404040">
                        <set attributeName="fill" to="#808080" begin="arrowLeft.mouseover" end="arrowLeft.mouseout"/>
                  </use>
                  <path fill="none" stroke="white" stroke-width="1.5" d="M0,-3.0v7 M-2.5,-0.5L0,-3.0L2.5,-0.5"/>
                </g>
        </g>
</svg>
