<?xml version="1.0" encoding="UTF-8" standalone="no"?>
<!DOCTYPE svg PUBLIC "-//W3C//DTD SVG 1.1//EN"
 "http://www.w3.org/Graphics/SVG/1.1/DTD/svg11.dtd">
<!-- Generated by graphviz version 2.26.3 (20100126.1600)
 -->
<!-- Title: G Pages: 1 -->
<!--zoomable 452 -->
<svg id="main" version="1.1" xmlns="http://www.w3.org/2000/svg" xmlns:xlink="http://www.w3.org/1999/xlink" xml:space="preserve" onload="init(evt)">
        <defs>
                <circle id="rim" cx="0" cy="0" r="7"/>
                <circle id="rim2" cx="0" cy="0" r="3.5"/>
                <g id="zoomPlus">
                        <use xlink:href="#rim" fill="#404040">
                                <set attributeName="fill" to="#808080" begin="zoomplus.mouseover" end="zoomplus.mouseout"/>
                        </use>
                        <path d="M-4,0h8M0,-4v8" fill="none" stroke="white" stroke-width="1.5" pointer-events="none"/>
                </g>
                <g id="zoomMin">
                        <use xlink:href="#rim" fill="#404040">
                                <set attributeName="fill" to="#808080" begin="zoomminus.mouseover" end="zoomminus.mouseout"/>
                        </use>
                        <path d="M-4,0h8" fill="none" stroke="white" stroke-width="1.5" pointer-events="none"/>
                </g>
                <g id="dirArrow">
                        <path fill="none" stroke="white" stroke-width="1.5" d="M0,-3.0v7 M-2.5,-0.5L0,-3.0L2.5,-0.5"/>
                </g>
               <g id="resetDef">
                       <use xlink:href="#rim2" fill="#404040">
                               <set attributeName="fill" to="#808080" begin="reset.mouseover" end="reset.mouseout"/>
                       </use>
               </g>
        </defs>

<script type="text/javascript">
var viewWidth = 1040;
var viewHeight = 452;
var sectionId = 'dynsection-0';
</script>
<script xlink:href="svgpan.js"/>
<svg id="graph" class="graph">
<g id="viewport">
<title>G</title>
<polygon fill="white" stroke="white" points="-4,5 -4,-448 1036.78,-448 1036.78,5 -4,5"/>
<!-- Node1 -->
<g id="node1" class="node"><title>Node1</title>
<polygon fill="#bfbfbf" stroke="black" points="743.278,-421 743.278,-443 814.278,-443 814.278,-421 743.278,-421"/>
<text text-anchor="middle" x="778.778" y="-430" font-family="FreeSans" font-size="10.00">workunit.cpp</text>
</g>
<!-- Node2 -->
<g id="node3" class="node"><title>Node2</title>
<a xlink:href="workunit_8h.html" target="_top" xlink:title="This file has the definition of the workunit.">
<polygon fill="white" stroke="black" points="404.278,-361 404.278,-383 465.278,-383 465.278,-361 404.278,-361"/>
<text text-anchor="middle" x="434.778" y="-370" font-family="FreeSans" font-size="10.00">workunit.h</text>
</a>
</g>
<!-- Node1&#45;&gt;Node2 -->
<g id="edge2" class="edge"><title>Node1&#45;&gt;Node2</title>
<path fill="none" stroke="midnightblue" d="M743.259,-425.805C678.927,-414.584 543.499,-390.963 475.52,-379.106"/>
<polygon fill="midnightblue" stroke="midnightblue" points="476.056,-375.647 465.603,-377.377 474.853,-382.543 476.056,-375.647"/>
</g>
<!-- Node12 -->
<g id="node24" class="node"><title>Node12</title>
<a xlink:href="doublebufferedresource_8h.html" target="_top" xlink:title="This file defines the template double buffered resources that can be attached to a thread...">
<polygon fill="white" stroke="black" points="66.2777,-241 66.2777,-263 197.278,-263 197.278,-241 66.2777,-241"/>
<text text-anchor="middle" x="131.778" y="-250" font-family="FreeSans" font-size="10.00">doublebufferedresource.h</text>
</a>
</g>
<!-- Node1&#45;&gt;Node12 -->
<g id="edge94" class="edge"><title>Node1&#45;&gt;Node12</title>
<path fill="none" stroke="midnightblue" d="M742.983,-431.018C622.699,-426.962 235.815,-407.533 150.778,-324 137.365,-310.824 133.06,-289.381 131.843,-273.316"/>
<polygon fill="midnightblue" stroke="midnightblue" points="135.336,-273.066 131.42,-263.222 128.342,-273.359 135.336,-273.066"/>
</g>
<!-- Node17 -->
<g id="node36" class="node"><title>Node17</title>
<a xlink:href="systemcalls_8h.html" target="_top" xlink:title="This file defines a minimalistic cross&#45;platform thread that the scheduler uses to schedule tasks...">
<polygon fill="white" stroke="black" points="799.278,-181 799.278,-203 876.278,-203 876.278,-181 799.278,-181"/>
<text text-anchor="middle" x="837.778" y="-190" font-family="FreeSans" font-size="10.00">systemcalls.h</text>
</a>
</g>
<!-- Node1&#45;&gt;Node17 -->
<g id="edge90" class="edge"><title>Node1&#45;&gt;Node17</title>
<path fill="none" stroke="midnightblue" d="M791.421,-420.982C818.732,-396.235 882.638,-332.982 905.778,-264 909.17,-253.887 910.685,-249.471 905.778,-240 898.77,-226.475 886.003,-215.95 873.409,-208.247"/>
<polygon fill="midnightblue" stroke="midnightblue" points="874.782,-205.003 864.353,-203.135 871.341,-211.099 874.782,-205.003"/>
</g>
<!-- Node22 -->
<g id="node53" class="node"><title>Node22</title>
<a xlink:href="atomicoperations_8h.html" target="_top" xlink:title="Simple thread safe ways to check and change a specified variable atomically.">
<polygon fill="white" stroke="black" points="566.278,-181 566.278,-203 667.278,-203 667.278,-181 566.278,-181"/>
<text text-anchor="middle" x="616.778" y="-190" font-family="FreeSans" font-size="10.00">atomicoperations.h</text>
</a>
</g>
<!-- Node1&#45;&gt;Node22 -->
<g id="edge92" class="edge"><title>Node1&#45;&gt;Node22</title>
<path fill="none" stroke="midnightblue" d="M781.404,-420.959C788.316,-388.97 803.613,-295.013 759.778,-240 749.009,-226.485 711.34,-214.148 677.367,-205.366"/>
<polygon fill="midnightblue" stroke="midnightblue" points="677.996,-201.916 667.444,-202.872 676.289,-208.704 677.996,-201.916"/>
</g>
<!-- Node28 -->
<g id="node76" class="node"><title>Node28</title>
<polygon fill="white" stroke="#bfbfbf" points="952.778,-361 952.778,-383 1002.78,-383 1002.78,-361 952.778,-361"/>
<text text-anchor="middle" x="977.778" y="-370" font-family="FreeSans" font-size="10.00">cassert</text>
</g>
<!-- Node1&#45;&gt;Node28 -->
<g id="edge96" class="edge"><title>Node1&#45;&gt;Node28</title>
<path fill="none" stroke="midnightblue" d="M814.386,-421.396C846.825,-411.717 896.045,-396.984 938.778,-384 940.176,-383.575 941.602,-383.141 943.042,-382.702"/>
<polygon fill="midnightblue" stroke="midnightblue" points="944.073,-386.046 952.61,-379.772 942.024,-379.353 944.073,-386.046"/>
</g>
<!-- Node3 -->
<g id="node5" class="node"><title>Node3</title>
<a xlink:href="datatypes_8h.html" target="_top" xlink:title="This file declares a few typedefs to allow flexibility, in case a change is required/desired.">
<polygon fill="white" stroke="black" points="466.778,-121 466.778,-143 534.778,-143 534.778,-121 466.778,-121"/>
<text text-anchor="middle" x="500.778" y="-130" font-family="FreeSans" font-size="10.00">datatypes.h</text>
</a>
</g>
<!-- Node2&#45;&gt;Node3 -->
<g id="edge4" class="edge"><title>Node2&#45;&gt;Node3</title>
<path fill="none" stroke="midnightblue" d="M404.109,-369.174C290.438,-357.628 -94.4038,-308.406 21.7777,-180 50.665,-148.073 343.411,-136.444 456.513,-133.122"/>
<polygon fill="midnightblue" stroke="midnightblue" points="456.671,-136.619 466.567,-132.835 456.471,-129.622 456.671,-136.619"/>
</g>
<!-- Node11 -->
<g id="node21" class="node"><title>Node11</title>
<a xlink:href="framescheduler_8h.html" target="_top" xlink:title="This file has the Declarations for the main FrameScheduler class.">
<polygon fill="white" stroke="black" points="542.778,-301 542.778,-323 636.778,-323 636.778,-301 542.778,-301"/>
<text text-anchor="middle" x="589.778" y="-310" font-family="FreeSans" font-size="10.00">framescheduler.h</text>
</a>
</g>
<!-- Node2&#45;&gt;Node11 -->
<g id="edge20" class="edge"><title>Node2&#45;&gt;Node11</title>
<path fill="none" stroke="midnightblue" d="M463.207,-360.995C488.037,-351.383 524.284,-337.352 551.631,-326.766"/>
<polygon fill="midnightblue" stroke="midnightblue" points="553.204,-329.911 561.267,-323.037 550.677,-323.383 553.204,-329.911"/>
</g>
<!-- Node15 -->
<g id="node31" class="node"><title>Node15</title>
<polygon fill="white" stroke="#bfbfbf" points="282.778,-181 282.778,-203 326.778,-203 326.778,-181 282.778,-181"/>
<text text-anchor="middle" x="304.778" y="-190" font-family="FreeSans" font-size="10.00">vector</text>
</g>
<!-- Node2&#45;&gt;Node15 -->
<g id="edge88" class="edge"><title>Node2&#45;&gt;Node15</title>
<path fill="none" stroke="midnightblue" d="M404.799,-360.919C368.079,-345.522 307.581,-313.798 281.778,-264 273.079,-247.211 281.459,-226.511 290.448,-211.622"/>
<polygon fill="midnightblue" stroke="midnightblue" points="293.421,-213.471 295.977,-203.189 287.567,-209.633 293.421,-213.471"/>
</g>
<!-- Node16 -->
<g id="node33" class="node"><title>Node16</title>
<a xlink:href="thread_8h.html" target="_top" xlink:title="This file defines a minimalistic cross&#45;platform thread that the scheduler uses to schedule tasks...">
<polygon fill="white" stroke="black" points="844.278,-241 844.278,-263 897.278,-263 897.278,-241 844.278,-241"/>
<text text-anchor="middle" x="870.778" y="-250" font-family="FreeSans" font-size="10.00">thread.h</text>
</a>
</g>
<!-- Node2&#45;&gt;Node16 -->
<g id="edge84" class="edge"><title>Node2&#45;&gt;Node16</title>
<path fill="none" stroke="midnightblue" d="M465.381,-365.901C506.614,-357.486 582.177,-341.376 645.778,-324 712.947,-305.649 789.983,-279.972 834.257,-264.756"/>
<polygon fill="midnightblue" stroke="midnightblue" points="835.675,-267.97 843.987,-261.4 833.392,-261.352 835.675,-267.97"/>
</g>
<!-- Node18 -->
<g id="node39" class="node"><title>Node18</title>
<a xlink:href="mutex_8h.html" target="_top" xlink:title="This file declares and defines a mutex that is a partial implementation.">
<polygon fill="white" stroke="black" points="878.278,-121 878.278,-143 929.278,-143 929.278,-121 878.278,-121"/>
<text text-anchor="middle" x="903.778" y="-130" font-family="FreeSans" font-size="10.00">mutex.h</text>
</a>
</g>
<!-- Node2&#45;&gt;Node18 -->
<g id="edge72" class="edge"><title>Node2&#45;&gt;Node18</title>
<path fill="none" stroke="midnightblue" d="M465.303,-369.957C561.02,-362.838 852.094,-335.551 905.778,-264 930.049,-231.65 919.911,-181.182 911.267,-152.942"/>
<polygon fill="midnightblue" stroke="midnightblue" points="914.544,-151.703 908.102,-143.292 907.892,-153.885 914.544,-151.703"/>
</g>
<!-- Node20 -->
<g id="node46" class="node"><title>Node20</title>
<a xlink:href="workunitkey_8h.html" target="_top" xlink:title="This file defines the metadata used to sort workunits.">
<polygon fill="white" stroke="black" points="396.278,-241 396.278,-263 473.278,-263 473.278,-241 396.278,-241"/>
<text text-anchor="middle" x="434.778" y="-250" font-family="FreeSans" font-size="10.00">workunitkey.h</text>
</a>
</g>
<!-- Node2&#45;&gt;Node20 -->
<g id="edge86" class="edge"><title>Node2&#45;&gt;Node20</title>
<path fill="none" stroke="midnightblue" d="M434.778,-360.926C434.778,-341.012 434.778,-298.851 434.778,-273.216"/>
<polygon fill="midnightblue" stroke="midnightblue" points="438.278,-273.047 434.778,-263.047 431.278,-273.047 438.278,-273.047"/>
</g>
<!-- Node26 -->
<g id="node63" class="node"><title>Node26</title>
<a xlink:href="rollingaverage_8h.html" target="_top" xlink:title="This stores the implementation and the declaration of the RollingAverage, BufferedRollingAverage, WeightedRollingAverage and the DefaultRollingAverage.">
<polygon fill="white" stroke="black" points="290.278,-241 290.278,-263 379.278,-263 379.278,-241 290.278,-241"/>
<text text-anchor="middle" x="334.778" y="-250" font-family="FreeSans" font-size="10.00">rollingaverage.h</text>
</a>
</g>
<!-- Node2&#45;&gt;Node26 -->
<g id="edge74" class="edge"><title>Node2&#45;&gt;Node26</title>
<path fill="none" stroke="midnightblue" d="M425.549,-360.926C408.434,-340.387 371.596,-296.182 350.488,-270.852"/>
<polygon fill="midnightblue" stroke="midnightblue" points="353.075,-268.489 343.984,-263.047 347.697,-272.97 353.075,-268.489"/>
</g>
<!-- Node27 -->
<g id="node67" class="node"><title>Node27</title>
<a xlink:href="threadingenumerations_8h.html" target="_top" xlink:title="Any enumerations the threading library requires are all declared here.">
<polygon fill="white" stroke="black" points="159.278,-301 159.278,-323 286.278,-323 286.278,-301 159.278,-301"/>
<text text-anchor="middle" x="222.778" y="-310" font-family="FreeSans" font-size="10.00">threadingenumerations.h</text>
</a>
</g>
<!-- Node2&#45;&gt;Node27 -->
<g id="edge80" class="edge"><title>Node2&#45;&gt;Node27</title>
<path fill="none" stroke="midnightblue" d="M403.951,-363.275C369.259,-353.457 312.434,-337.374 271.671,-325.838"/>
<polygon fill="midnightblue" stroke="midnightblue" points="272.512,-322.438 261.937,-323.083 270.606,-329.174 272.512,-322.438"/>
</g>
<!-- Node4 -->
<g id="node7" class="node"><title>Node4</title>
<a xlink:href="compilerthreadcompat_8h.html" target="_top" xlink:title="This file determines what features are offered by the compiler that this library can take advantage o...">
<polygon fill="white" stroke="black" points="841.778,-61 841.778,-83 965.778,-83 965.778,-61 841.778,-61"/>
<text text-anchor="middle" x="903.778" y="-70" font-family="FreeSans" font-size="10.00">compilerthreadcompat.h</text>
</a>
</g>
<!-- Node3&#45;&gt;Node4 -->
<g id="edge6" class="edge"><title>Node3&#45;&gt;Node4</title>
<path fill="none" stroke="midnightblue" d="M534.79,-126.936C599.955,-117.234 743.696,-95.8335 831.295,-82.7915"/>
<polygon fill="midnightblue" stroke="midnightblue" points="832.052,-86.2174 841.428,-81.2829 831.021,-79.2937 832.052,-86.2174"/>
</g>
<!-- Node9 -->
<g id="node17" class="node"><title>Node9</title>
<polygon fill="white" stroke="#bfbfbf" points="673.278,-61 673.278,-83 714.278,-83 714.278,-61 673.278,-61"/>
<text text-anchor="middle" x="693.778" y="-70" font-family="FreeSans" font-size="10.00">string</text>
</g>
<!-- Node3&#45;&gt;Node9 -->
<g id="edge16" class="edge"><title>Node3&#45;&gt;Node9</title>
<path fill="none" stroke="midnightblue" d="M534.838,-121.411C571.28,-110.082 628.543,-92.2802 663.472,-81.4213"/>
<polygon fill="midnightblue" stroke="midnightblue" points="664.612,-84.7324 673.122,-78.4215 662.534,-78.048 664.612,-84.7324"/>
</g>
<!-- Node10 -->
<g id="node19" class="node"><title>Node10</title>
<polygon fill="white" stroke="#bfbfbf" points="477.278,-61 477.278,-83 524.278,-83 524.278,-61 477.278,-61"/>
<text text-anchor="middle" x="500.778" y="-70" font-family="FreeSans" font-size="10.00">stdint.h</text>
</g>
<!-- Node3&#45;&gt;Node10 -->
<g id="edge18" class="edge"><title>Node3&#45;&gt;Node10</title>
<path fill="none" stroke="midnightblue" d="M500.778,-120.995C500.778,-113.311 500.778,-102.803 500.778,-93.4884"/>
<polygon fill="midnightblue" stroke="midnightblue" points="504.278,-93.3428 500.778,-83.3428 497.278,-93.3429 504.278,-93.3428"/>
</g>
<!-- Node5 -->
<g id="node9" class="node"><title>Node5</title>
<polygon fill="white" stroke="#bfbfbf" points="767.778,-1 767.778,-23 825.778,-23 825.778,-1 767.778,-1"/>
<text text-anchor="middle" x="796.778" y="-10" font-family="FreeSans" font-size="10.00">pthread.h</text>
</g>
<!-- Node4&#45;&gt;Node5 -->
<g id="edge8" class="edge"><title>Node4&#45;&gt;Node5</title>
<path fill="none" stroke="midnightblue" d="M884.152,-60.9951C867.74,-51.7917 844.101,-38.5366 825.549,-28.1336"/>
<polygon fill="midnightblue" stroke="midnightblue" points="827.075,-24.9766 816.641,-23.1383 823.652,-31.0822 827.075,-24.9766"/>
</g>
<!-- Node6 -->
<g id="node11" class="node"><title>Node6</title>
<polygon fill="white" stroke="#bfbfbf" points="843.278,-1 843.278,-23 894.278,-23 894.278,-1 843.278,-1"/>
<text text-anchor="middle" x="868.778" y="-10" font-family="FreeSans" font-size="10.00">signal.h</text>
</g>
<!-- Node4&#45;&gt;Node6 -->
<g id="edge10" class="edge"><title>Node4&#45;&gt;Node6</title>
<path fill="none" stroke="midnightblue" d="M897.358,-60.9951C892.632,-52.8936 886.075,-41.6525 880.433,-31.981"/>
<polygon fill="midnightblue" stroke="midnightblue" points="883.456,-30.2171 875.394,-23.3428 877.41,-33.7442 883.456,-30.2171"/>
</g>
<!-- Node7 -->
<g id="node13" class="node"><title>Node7</title>
<polygon fill="white" stroke="#bfbfbf" points="911.778,-1 911.778,-23 963.778,-23 963.778,-1 911.778,-1"/>
<text text-anchor="middle" x="937.778" y="-10" font-family="FreeSans" font-size="10.00">sched.h</text>
</g>
<!-- Node4&#45;&gt;Node7 -->
<g id="edge12" class="edge"><title>Node4&#45;&gt;Node7</title>
<path fill="none" stroke="midnightblue" d="M910.014,-60.9951C914.557,-52.9771 920.843,-41.884 926.285,-32.2806"/>
<polygon fill="midnightblue" stroke="midnightblue" points="929.465,-33.7686 931.35,-23.3428 923.375,-30.3175 929.465,-33.7686"/>
</g>
<!-- Node8 -->
<g id="node15" class="node"><title>Node8</title>
<polygon fill="white" stroke="#bfbfbf" points="981.778,-1 981.778,-23 1031.78,-23 1031.78,-1 981.778,-1"/>
<text text-anchor="middle" x="1006.78" y="-10" font-family="FreeSans" font-size="10.00">unistd.h</text>
</g>
<!-- Node4&#45;&gt;Node8 -->
<g id="edge14" class="edge"><title>Node4&#45;&gt;Node8</title>
<path fill="none" stroke="midnightblue" d="M922.669,-60.9951C938.396,-51.8337 961.015,-38.6576 978.837,-28.2763"/>
<polygon fill="midnightblue" stroke="midnightblue" points="980.778,-31.1962 987.657,-23.1383 977.254,-25.1476 980.778,-31.1962"/>
</g>
<!-- Node11&#45;&gt;Node3 -->
<g id="edge22" class="edge"><title>Node11&#45;&gt;Node3</title>
<path fill="none" stroke="midnightblue" d="M563.995,-300.931C548.617,-292.948 530.127,-280.643 519.778,-264 498.501,-229.785 497.371,-181.09 498.829,-153.412"/>
<polygon fill="midnightblue" stroke="midnightblue" points="502.333,-153.48 499.534,-143.262 495.35,-152.996 502.333,-153.48"/>
</g>
<!-- Node11&#45;&gt;Node12 -->
<g id="edge24" class="edge"><title>Node11&#45;&gt;Node12</title>
<path fill="none" stroke="midnightblue" d="M542.489,-305.805C463.213,-295.419 302.852,-274.411 207.654,-261.94"/>
<polygon fill="midnightblue" stroke="midnightblue" points="207.884,-258.44 197.514,-260.612 206.975,-265.381 207.884,-258.44"/>
</g>
<!-- Node11&#45;&gt;Node16 -->
<g id="edge34" class="edge"><title>Node11&#45;&gt;Node16</title>
<path fill="none" stroke="midnightblue" d="M637.175,-303.932C685.989,-295.302 764.127,-280.595 830.778,-264 832.005,-263.695 833.25,-263.375 834.505,-263.045"/>
<polygon fill="midnightblue" stroke="midnightblue" points="835.493,-266.403 844.195,-260.358 833.623,-259.657 835.493,-266.403"/>
</g>
<!-- Node11&#45;&gt;Node17 -->
<g id="edge56" class="edge"><title>Node11&#45;&gt;Node17</title>
<path fill="none" stroke="midnightblue" d="M636.796,-304.863C672.27,-298.062 721.242,-285.57 759.778,-264 784.29,-250.279 807.265,-227.371 821.844,-211.081"/>
<polygon fill="midnightblue" stroke="midnightblue" points="824.736,-213.089 828.665,-203.25 819.458,-208.491 824.736,-213.089"/>
</g>
<!-- Node11&#45;&gt;Node20 -->
<g id="edge52" class="edge"><title>Node11&#45;&gt;Node20</title>
<path fill="none" stroke="midnightblue" d="M561.348,-300.995C536.518,-291.383 500.271,-277.352 472.924,-266.766"/>
<polygon fill="midnightblue" stroke="midnightblue" points="473.878,-263.383 463.289,-263.037 471.351,-269.911 473.878,-263.383"/>
</g>
<!-- Node21 -->
<g id="node50" class="node"><title>Node21</title>
<a xlink:href="barrier_8h.html" target="_top" xlink:title="The declaration of the Mezzanine::Threading::Barrier Barrier synchronization primitive.">
<polygon fill="white" stroke="black" points="528.278,-241 528.278,-263 581.278,-263 581.278,-241 528.278,-241"/>
<text text-anchor="middle" x="554.778" y="-250" font-family="FreeSans" font-size="10.00">barrier.h</text>
</a>
</g>
<!-- Node11&#45;&gt;Node21 -->
<g id="edge58" class="edge"><title>Node11&#45;&gt;Node21</title>
<path fill="none" stroke="midnightblue" d="M583.358,-300.995C578.632,-292.894 572.075,-281.653 566.433,-271.981"/>
<polygon fill="midnightblue" stroke="midnightblue" points="569.456,-270.217 561.394,-263.343 563.41,-273.744 569.456,-270.217"/>
</g>
<!-- Node23 -->
<g id="node56" class="node"><title>Node23</title>
<polygon fill="white" stroke="#bfbfbf" points="666.778,-241 666.778,-263 702.778,-263 702.778,-241 666.778,-241"/>
<text text-anchor="middle" x="684.778" y="-250" font-family="FreeSans" font-size="10.00">map</text>
</g>
<!-- Node11&#45;&gt;Node23 -->
<g id="edge66" class="edge"><title>Node11&#45;&gt;Node23</title>
<path fill="none" stroke="midnightblue" d="M607.202,-300.995C621.575,-291.918 642.188,-278.899 658.553,-268.563"/>
<polygon fill="midnightblue" stroke="midnightblue" points="660.556,-271.438 667.142,-263.138 656.818,-265.519 660.556,-271.438"/>
</g>
<!-- Node24 -->
<g id="node58" class="node"><title>Node24</title>
<polygon fill="white" stroke="#bfbfbf" points="720.778,-241 720.778,-263 750.778,-263 750.778,-241 720.778,-241"/>
<text text-anchor="middle" x="735.778" y="-250" font-family="FreeSans" font-size="10.00">set</text>
</g>
<!-- Node11&#45;&gt;Node24 -->
<g id="edge68" class="edge"><title>Node11&#45;&gt;Node24</title>
<path fill="none" stroke="midnightblue" d="M620.169,-300.901C643.097,-292.339 675.457,-279.856 711.422,-263.943"/>
<polygon fill="midnightblue" stroke="midnightblue" points="712.938,-267.099 720.64,-259.823 710.082,-260.708 712.938,-267.099"/>
</g>
<!-- Node25 -->
<g id="node60" class="node"><title>Node25</title>
<polygon fill="white" stroke="#bfbfbf" points="598.778,-241 598.778,-263 648.778,-263 648.778,-241 598.778,-241"/>
<text text-anchor="middle" x="623.778" y="-250" font-family="FreeSans" font-size="10.00">fstream</text>
</g>
<!-- Node11&#45;&gt;Node25 -->
<g id="edge70" class="edge"><title>Node11&#45;&gt;Node25</title>
<path fill="none" stroke="midnightblue" d="M596.014,-300.995C600.557,-292.977 606.843,-281.884 612.285,-272.281"/>
<polygon fill="midnightblue" stroke="midnightblue" points="615.465,-273.769 617.35,-263.343 609.375,-270.318 615.465,-273.769"/>
</g>
<!-- Node12&#45;&gt;Node3 -->
<g id="edge26" class="edge"><title>Node12&#45;&gt;Node3</title>
<path fill="none" stroke="midnightblue" d="M140.365,-240.855C153.578,-224.58 180.556,-194.657 210.778,-180 253.306,-159.375 386.13,-143.466 456.306,-136.247"/>
<polygon fill="midnightblue" stroke="midnightblue" points="457.001,-139.695 466.597,-135.204 456.296,-132.73 457.001,-139.695"/>
</g>
<!-- Node13 -->
<g id="node27" class="node"><title>Node13</title>
<polygon fill="white" stroke="#bfbfbf" points="30.7777,-181 30.7777,-203 88.7777,-203 88.7777,-181 30.7777,-181"/>
<text text-anchor="middle" x="59.7777" y="-190" font-family="FreeSans" font-size="10.00">algorithm</text>
</g>
<!-- Node12&#45;&gt;Node13 -->
<g id="edge28" class="edge"><title>Node12&#45;&gt;Node13</title>
<path fill="none" stroke="midnightblue" d="M118.572,-240.995C108.148,-232.309 93.3942,-220.014 81.2738,-209.913"/>
<polygon fill="midnightblue" stroke="midnightblue" points="83.312,-207.056 73.3891,-203.343 78.8307,-212.434 83.312,-207.056"/>
</g>
<!-- Node14 -->
<g id="node29" class="node"><title>Node14</title>
<polygon fill="white" stroke="#bfbfbf" points="106.278,-181 106.278,-203 159.278,-203 159.278,-181 106.278,-181"/>
<text text-anchor="middle" x="132.778" y="-190" font-family="FreeSans" font-size="10.00">sstream</text>
</g>
<!-- Node12&#45;&gt;Node14 -->
<g id="edge30" class="edge"><title>Node12&#45;&gt;Node14</title>
<path fill="none" stroke="midnightblue" d="M131.961,-240.995C132.089,-233.311 132.264,-222.803 132.42,-213.488"/>
<polygon fill="midnightblue" stroke="midnightblue" points="135.921,-213.4 132.589,-203.343 128.922,-213.283 135.921,-213.4"/>
</g>
<!-- Node12&#45;&gt;Node15 -->
<g id="edge32" class="edge"><title>Node12&#45;&gt;Node15</title>
<path fill="none" stroke="midnightblue" d="M163.509,-240.995C194.668,-230.188 241.934,-213.795 273.081,-202.993"/>
<polygon fill="midnightblue" stroke="midnightblue" points="274.286,-206.28 282.587,-199.696 271.992,-199.666 274.286,-206.28"/>
</g>
<!-- Node16&#45;&gt;Node4 -->
<g id="edge36" class="edge"><title>Node16&#45;&gt;Node4</title>
<path fill="none" stroke="midnightblue" d="M880.865,-240.764C896.744,-222.222 926.881,-183.339 937.778,-144 940.625,-133.72 941.013,-130.164 937.778,-120 934.422,-109.455 927.815,-99.2376 921.311,-90.959"/>
<polygon fill="midnightblue" stroke="midnightblue" points="923.823,-88.5074 914.711,-83.1015 918.463,-93.0098 923.823,-88.5074"/>
</g>
<!-- Node16&#45;&gt;Node15 -->
<g id="edge50" class="edge"><title>Node16&#45;&gt;Node15</title>
<path fill="none" stroke="midnightblue" d="M843.864,-249.071C821.386,-246.629 788.495,-243.067 759.778,-240 601.313,-223.076 411.763,-203.197 337.184,-195.39"/>
<polygon fill="midnightblue" stroke="midnightblue" points="337.342,-191.887 327.032,-194.327 336.613,-198.849 337.342,-191.887"/>
</g>
<!-- Node16&#45;&gt;Node17 -->
<g id="edge38" class="edge"><title>Node16&#45;&gt;Node17</title>
<path fill="none" stroke="midnightblue" d="M864.725,-240.995C860.315,-232.977 854.214,-221.884 848.932,-212.281"/>
<polygon fill="midnightblue" stroke="midnightblue" points="851.902,-210.418 844.016,-203.343 845.769,-213.792 851.902,-210.418"/>
</g>
<!-- Node16&#45;&gt;Node18 -->
<g id="edge42" class="edge"><title>Node16&#45;&gt;Node18</title>
<path fill="none" stroke="midnightblue" d="M874.084,-240.965C876.973,-231.251 881.247,-216.713 884.778,-204 889.519,-186.927 894.63,-167.497 898.355,-153.127"/>
<polygon fill="midnightblue" stroke="midnightblue" points="901.795,-153.806 900.905,-143.248 895.017,-152.056 901.795,-153.806"/>
</g>
<!-- Node19 -->
<g id="node43" class="node"><title>Node19</title>
<polygon fill="white" stroke="#bfbfbf" points="729.278,-181 729.278,-203 782.278,-203 782.278,-181 729.278,-181"/>
<text text-anchor="middle" x="755.778" y="-190" font-family="FreeSans" font-size="10.00">ostream</text>
</g>
<!-- Node16&#45;&gt;Node19 -->
<g id="edge48" class="edge"><title>Node16&#45;&gt;Node19</title>
<path fill="none" stroke="midnightblue" d="M849.685,-240.995C831.884,-231.708 806.175,-218.294 786.156,-207.849"/>
<polygon fill="midnightblue" stroke="midnightblue" points="787.611,-204.661 777.126,-203.138 784.373,-210.867 787.611,-204.661"/>
</g>
<!-- Node17&#45;&gt;Node3 -->
<g id="edge40" class="edge"><title>Node17&#45;&gt;Node3</title>
<path fill="none" stroke="midnightblue" d="M799.111,-181.847C796.297,-181.195 793.497,-180.571 790.778,-180 704.268,-161.832 602.057,-146.274 545,-138.112"/>
<polygon fill="midnightblue" stroke="midnightblue" points="545.279,-134.617 534.886,-136.675 544.294,-141.547 545.279,-134.617"/>
</g>
<!-- Node18&#45;&gt;Node4 -->
<g id="edge44" class="edge"><title>Node18&#45;&gt;Node4</title>
<path fill="none" stroke="midnightblue" d="M903.778,-120.995C903.778,-113.311 903.778,-102.803 903.778,-93.4884"/>
<polygon fill="midnightblue" stroke="midnightblue" points="907.278,-93.3428 903.778,-83.3428 900.278,-93.3429 907.278,-93.3428"/>
</g>
<!-- Node18&#45;&gt;Node9 -->
<g id="edge46" class="edge"><title>Node18&#45;&gt;Node9</title>
<path fill="none" stroke="midnightblue" d="M878.028,-124.643C839.155,-113.536 765.637,-92.5314 724.187,-80.6883"/>
<polygon fill="midnightblue" stroke="midnightblue" points="724.957,-77.2683 714.38,-77.8863 723.033,-83.9989 724.957,-77.2683"/>
</g>
<!-- Node20&#45;&gt;Node3 -->
<g id="edge54" class="edge"><title>Node20&#45;&gt;Node3</title>
<path fill="none" stroke="midnightblue" d="M440.869,-240.926C452.017,-220.655 475.846,-177.331 489.859,-151.853"/>
<polygon fill="midnightblue" stroke="midnightblue" points="492.949,-153.496 494.702,-143.047 486.816,-150.123 492.949,-153.496"/>
</g>
<!-- Node21&#45;&gt;Node3 -->
<g id="edge60" class="edge"><title>Node21&#45;&gt;Node3</title>
<path fill="none" stroke="midnightblue" d="M549.794,-240.926C540.713,-220.744 521.348,-177.712 509.864,-152.191"/>
<polygon fill="midnightblue" stroke="midnightblue" points="513.044,-150.73 505.749,-143.047 506.661,-153.603 513.044,-150.73"/>
</g>
<!-- Node21&#45;&gt;Node22 -->
<g id="edge62" class="edge"><title>Node21&#45;&gt;Node22</title>
<path fill="none" stroke="midnightblue" d="M566.149,-240.995C574.953,-232.476 587.343,-220.485 597.663,-210.499"/>
<polygon fill="midnightblue" stroke="midnightblue" points="600.305,-212.812 605.057,-203.343 595.437,-207.782 600.305,-212.812"/>
</g>
<!-- Node22&#45;&gt;Node3 -->
<g id="edge64" class="edge"><title>Node22&#45;&gt;Node3</title>
<path fill="none" stroke="midnightblue" d="M595.502,-180.995C577.546,-171.708 551.613,-158.294 531.42,-147.849"/>
<polygon fill="midnightblue" stroke="midnightblue" points="532.802,-144.624 522.312,-143.138 529.586,-150.841 532.802,-144.624"/>
</g>
<!-- Node26&#45;&gt;Node3 -->
<g id="edge78" class="edge"><title>Node26&#45;&gt;Node3</title>
<path fill="none" stroke="midnightblue" d="M350.097,-240.926C379.25,-219.851 442.872,-173.859 477.386,-148.909"/>
<polygon fill="midnightblue" stroke="midnightblue" points="479.442,-151.742 485.495,-143.047 475.341,-146.069 479.442,-151.742"/>
</g>
<!-- Node26&#45;&gt;Node15 -->
<g id="edge76" class="edge"><title>Node26&#45;&gt;Node15</title>
<path fill="none" stroke="midnightblue" d="M329.275,-240.995C325.308,-233.061 319.835,-222.115 315.068,-212.581"/>
<polygon fill="midnightblue" stroke="midnightblue" points="318.052,-210.722 310.449,-203.343 311.791,-213.852 318.052,-210.722"/>
</g>
<!-- Node27&#45;&gt;Node3 -->
<g id="edge82" class="edge"><title>Node27&#45;&gt;Node3</title>
<path fill="none" stroke="midnightblue" d="M223.622,-300.772C226.181,-275.128 236.176,-212.01 273.778,-180 300.832,-156.969 398.392,-142.886 456.44,-136.356"/>
<polygon fill="midnightblue" stroke="midnightblue" points="456.885,-139.828 466.445,-135.261 456.123,-132.869 456.885,-139.828"/>
</g>
</g>
</svg>
        <g id="navigator" transform="translate(0 0)" fill="#404254">
                <rect fill="#f2f5e9" fill-opacity="0.5" stroke="#606060" stroke-width=".5" x="0" y="0" width="60" height="60"/>
                <use id="zoomplus" xlink:href="#zoomPlus" x="17" y="9" onmousedown="handleZoom(evt,'in')"/>
                <use id="zoomminus" xlink:href="#zoomMin" x="42" y="9" onmousedown="handleZoom(evt,'out')"/>
                <use id="reset" xlink:href="#resetDef" x="30" y="36" onmousedown="handleReset()"/>
                <g id="arrowUp" xlink:href="#dirArrow" transform="translate(30 24)" onmousedown="handlePan(0,-1)">
                  <use xlink:href="#rim" fill="#404040">
                        <set attributeName="fill" to="#808080" begin="arrowUp.mouseover" end="arrowUp.mouseout"/>
                  </use>
                  <path fill="none" stroke="white" stroke-width="1.5" d="M0,-3.0v7 M-2.5,-0.5L0,-3.0L2.5,-0.5"/>
                </g>
                <g id="arrowRight" xlink:href="#dirArrow" transform="rotate(90) translate(36 -43)" onmousedown="handlePan(1,0)">
                  <use xlink:href="#rim" fill="#404040">
                        <set attributeName="fill" to="#808080" begin="arrowRight.mouseover" end="arrowRight.mouseout"/>
                  </use>
                  <path fill="none" stroke="white" stroke-width="1.5" d="M0,-3.0v7 M-2.5,-0.5L0,-3.0L2.5,-0.5"/>
                </g>
                <g id="arrowDown" xlink:href="#dirArrow" transform="rotate(180) translate(-30 -48)" onmousedown="handlePan(0,1)">
                  <use xlink:href="#rim" fill="#404040">
                        <set attributeName="fill" to="#808080" begin="arrowDown.mouseover" end="arrowDown.mouseout"/>
                  </use>
                  <path fill="none" stroke="white" stroke-width="1.5" d="M0,-3.0v7 M-2.5,-0.5L0,-3.0L2.5,-0.5"/>
                </g>
                <g id="arrowLeft" xlink:href="#dirArrow" transform="rotate(270) translate(-36 17)" onmousedown="handlePan(-1,0)">
                  <use xlink:href="#rim" fill="#404040">
                        <set attributeName="fill" to="#808080" begin="arrowLeft.mouseover" end="arrowLeft.mouseout"/>
                  </use>
                  <path fill="none" stroke="white" stroke-width="1.5" d="M0,-3.0v7 M-2.5,-0.5L0,-3.0L2.5,-0.5"/>
                </g>
        </g>
</svg>
