<?xml version="1.0" encoding="UTF-8" standalone="no"?>
<!DOCTYPE svg PUBLIC "-//W3C//DTD SVG 1.1//EN"
 "http://www.w3.org/Graphics/SVG/1.1/DTD/svg11.dtd">
<!-- Generated by graphviz version 2.26.3 (20100126.1600)
 -->
<!-- Title: G Pages: 1 -->
<!--zoomable 332 -->
<svg id="main" version="1.1" xmlns="http://www.w3.org/2000/svg" xmlns:xlink="http://www.w3.org/1999/xlink" xml:space="preserve" onload="init(evt)">
        <defs>
                <circle id="rim" cx="0" cy="0" r="7"/>
                <circle id="rim2" cx="0" cy="0" r="3.5"/>
                <g id="zoomPlus">
                        <use xlink:href="#rim" fill="#404040">
                                <set attributeName="fill" to="#808080" begin="zoomplus.mouseover" end="zoomplus.mouseout"/>
                        </use>
                        <path d="M-4,0h8M0,-4v8" fill="none" stroke="white" stroke-width="1.5" pointer-events="none"/>
                </g>
                <g id="zoomMin">
                        <use xlink:href="#rim" fill="#404040">
                                <set attributeName="fill" to="#808080" begin="zoomminus.mouseover" end="zoomminus.mouseout"/>
                        </use>
                        <path d="M-4,0h8" fill="none" stroke="white" stroke-width="1.5" pointer-events="none"/>
                </g>
                <g id="dirArrow">
                        <path fill="none" stroke="white" stroke-width="1.5" d="M0,-3.0v7 M-2.5,-0.5L0,-3.0L2.5,-0.5"/>
                </g>
               <g id="resetDef">
                       <use xlink:href="#rim2" fill="#404040">
                               <set attributeName="fill" to="#808080" begin="reset.mouseover" end="reset.mouseout"/>
                       </use>
               </g>
        </defs>

<script type="text/javascript">
var viewWidth = 935;
var viewHeight = 332;
var sectionId = 'dynsection-1';
</script>
<script xlink:href="svgpan.js"/>
<svg id="graph" class="graph">
<g id="viewport">
<title>G</title>
<polygon fill="white" stroke="white" points="-4,5 -4,-328 932,-328 932,5 -4,5"/>
<!-- Node1 -->
<g id="node1" class="node"><title>Node1</title>
<polygon fill="#bfbfbf" stroke="black" points="116.5,-301 116.5,-323 193.5,-323 193.5,-301 116.5,-301"/>
<text text-anchor="middle" x="155" y="-310" font-family="FreeSans" font-size="10.00">workunitkey.h</text>
</g>
<!-- Node2 -->
<g id="node3" class="node"><title>Node2</title>
<a xlink:href="dagframescheduler_8h.html" target="_top" xlink:title="This is the file that code using this library should include. It includes all the required components...">
<polygon fill="white" stroke="black" points="276,-1 276,-23 388,-23 388,-1 276,-1"/>
<text text-anchor="middle" x="332" y="-10" font-family="FreeSans" font-size="10.00">dagframescheduler.h</text>
</a>
</g>
<!-- Node1&#45;&gt;Node2 -->
<g id="edge2" class="edge"><title>Node1&#45;&gt;Node2</title>
<path fill="none" stroke="midnightblue" d="M107.24,-297.488C61.6964,-280.34 0,-246.965 0,-192 0,-192 0,-192 0,-132 0,-95.1754 10.7812,-81.0446 41,-60 78.0812,-34.1763 202.356,-21.1445 275.967,-15.5409"/>
<polygon fill="midnightblue" stroke="midnightblue" points="106.091,-300.795 116.685,-300.903 108.471,-294.212 106.091,-300.795"/>
</g>
<!-- Node3 -->
<g id="node5" class="node"><title>Node3</title>
<a xlink:href="framescheduler_8h.html" target="_top" xlink:title="This file has the Declarations for the main FrameScheduler class.">
<polygon fill="white" stroke="black" points="71,-241 71,-263 165,-263 165,-241 71,-241"/>
<text text-anchor="middle" x="118" y="-250" font-family="FreeSans" font-size="10.00">framescheduler.h</text>
</a>
</g>
<!-- Node1&#45;&gt;Node3 -->
<g id="edge4" class="edge"><title>Node1&#45;&gt;Node3</title>
<path fill="none" stroke="midnightblue" d="M142.925,-292.419C136.988,-282.792 130.044,-271.53 124.995,-263.343"/>
<polygon fill="midnightblue" stroke="midnightblue" points="139.986,-294.32 148.214,-300.995 145.944,-290.646 139.986,-294.32"/>
</g>
<!-- Node4 -->
<g id="node7" class="node"><title>Node4</title>
<a xlink:href="workunit_8h.html" target="_top" xlink:title="This file has the definition of the workunit.">
<polygon fill="white" stroke="black" points="281.5,-181 281.5,-203 342.5,-203 342.5,-181 281.5,-181"/>
<text text-anchor="middle" x="312" y="-190" font-family="FreeSans" font-size="10.00">workunit.h</text>
</a>
</g>
<!-- Node1&#45;&gt;Node4 -->
<g id="edge42" class="edge"><title>Node1&#45;&gt;Node4</title>
<path fill="none" stroke="midnightblue" d="M166.867,-292.489C177.224,-276.73 193.47,-254.812 212,-240 232.759,-223.407 260.196,-210.755 281.079,-202.617"/>
<polygon fill="midnightblue" stroke="midnightblue" points="163.895,-290.64 161.477,-300.956 169.799,-294.4 163.895,-290.64"/>
</g>
<!-- Node15 -->
<g id="node37" class="node"><title>Node15</title>
<a xlink:href="workunitkey_8cpp.html" target="_top" xlink:title="This file declares the functionality of the metadata used to sort the iWorkUnits.">
<polygon fill="white" stroke="black" points="221,-241 221,-263 309,-263 309,-241 221,-241"/>
<text text-anchor="middle" x="265" y="-250" font-family="FreeSans" font-size="10.00">workunitkey.cpp</text>
</a>
</g>
<!-- Node1&#45;&gt;Node15 -->
<g id="edge44" class="edge"><title>Node1&#45;&gt;Node15</title>
<path fill="none" stroke="midnightblue" d="M184.042,-296.159C203.102,-285.763 227.558,-272.423 244.58,-263.138"/>
<polygon fill="midnightblue" stroke="midnightblue" points="182.279,-293.134 175.176,-300.995 185.631,-299.279 182.279,-293.134"/>
</g>
<!-- Node3&#45;&gt;Node2 -->
<g id="edge38" class="edge"><title>Node3&#45;&gt;Node2</title>
<path fill="none" stroke="midnightblue" d="M101.075,-232.512C70.5808,-194.98 13.4559,-111.803 57,-60 84.4035,-27.399 203.792,-16.9376 275.95,-13.5824"/>
<polygon fill="midnightblue" stroke="midnightblue" points="98.7401,-235.177 107.83,-240.62 104.118,-230.696 98.7401,-235.177"/>
</g>
<!-- Node3&#45;&gt;Node4 -->
<g id="edge6" class="edge"><title>Node3&#45;&gt;Node4</title>
<path fill="none" stroke="midnightblue" d="M163.444,-237.945C199.779,-226.708 249.72,-211.262 281.431,-201.454"/>
<polygon fill="midnightblue" stroke="midnightblue" points="162.102,-234.697 153.583,-240.995 164.17,-241.384 162.102,-234.697"/>
</g>
<!-- Node12 -->
<g id="node27" class="node"><title>Node12</title>
<a xlink:href="framescheduler_8cpp.html" target="_top" xlink:title="This is the core object implementation for this algorithm.">
<polygon fill="white" stroke="black" points="66,-61 66,-83 170,-83 170,-61 66,-61"/>
<text text-anchor="middle" x="118" y="-70" font-family="FreeSans" font-size="10.00">framescheduler.cpp</text>
</a>
</g>
<!-- Node3&#45;&gt;Node12 -->
<g id="edge40" class="edge"><title>Node3&#45;&gt;Node12</title>
<path fill="none" stroke="midnightblue" d="M118,-230.65C118,-192.221 118,-112.672 118,-83.2556"/>
<polygon fill="midnightblue" stroke="midnightblue" points="114.5,-230.74 118,-240.74 121.5,-230.74 114.5,-230.74"/>
</g>
<!-- Node4&#45;&gt;Node2 -->
<g id="edge34" class="edge"><title>Node4&#45;&gt;Node2</title>
<path fill="none" stroke="midnightblue" d="M352.925,-187.68C404.789,-181.3 489.878,-167.503 510,-144 534.323,-115.59 537.846,-89.6107 515,-60 499.501,-39.911 436.055,-26.5869 388.181,-19.1794"/>
<polygon fill="midnightblue" stroke="midnightblue" points="352.228,-184.238 342.711,-188.894 353.054,-191.189 352.228,-184.238"/>
</g>
<!-- Node5 -->
<g id="node9" class="node"><title>Node5</title>
<a xlink:href="asynchronousworkunit_8h.html" target="_top" xlink:title="Contains an interface for a kind of WorkUnit that loads or does other work even when the frame schedu...">
<polygon fill="white" stroke="black" points="614.5,-121 614.5,-143 737.5,-143 737.5,-121 614.5,-121"/>
<text text-anchor="middle" x="676" y="-130" font-family="FreeSans" font-size="10.00">asynchronousworkunit.h</text>
</a>
</g>
<!-- Node4&#45;&gt;Node5 -->
<g id="edge8" class="edge"><title>Node4&#45;&gt;Node5</title>
<path fill="none" stroke="midnightblue" d="M352.777,-185.279C416.427,-174.787 539.811,-154.449 614.359,-142.161"/>
<polygon fill="midnightblue" stroke="midnightblue" points="352.018,-181.856 342.721,-186.936 353.157,-188.763 352.018,-181.856"/>
</g>
<!-- Node9 -->
<g id="node19" class="node"><title>Node9</title>
<a xlink:href="frameschedulerworkunits_8h.html" target="_top" xlink:title="This defines a number of workunits that are required for doing some tasks that the Framescheduler req...">
<polygon fill="white" stroke="black" points="365,-121 365,-143 501,-143 501,-121 365,-121"/>
<text text-anchor="middle" x="433" y="-130" font-family="FreeSans" font-size="10.00">frameschedulerworkunits.h</text>
</a>
</g>
<!-- Node4&#45;&gt;Node9 -->
<g id="edge20" class="edge"><title>Node4&#45;&gt;Node9</title>
<path fill="none" stroke="midnightblue" d="M343.376,-176.441C364.422,-166.005 391.644,-152.507 410.538,-143.138"/>
<polygon fill="midnightblue" stroke="midnightblue" points="341.597,-173.417 334.193,-180.995 344.707,-179.688 341.597,-173.417"/>
</g>
<!-- Node11 -->
<g id="node24" class="node"><title>Node11</title>
<a xlink:href="monopoly_8h.html" target="_top" xlink:title="Contains an interface for a kind of WorkUnit that consumes time on multiple thread.">
<polygon fill="white" stroke="black" points="191,-121 191,-143 259,-143 259,-121 191,-121"/>
<text text-anchor="middle" x="225" y="-130" font-family="FreeSans" font-size="10.00">monopoly.h</text>
</a>
</g>
<!-- Node4&#45;&gt;Node11 -->
<g id="edge26" class="edge"><title>Node4&#45;&gt;Node11</title>
<path fill="none" stroke="midnightblue" d="M287.787,-175.302C272.905,-165.038 254.246,-152.17 241.151,-143.138"/>
<polygon fill="midnightblue" stroke="midnightblue" points="285.824,-178.199 296.043,-180.995 289.798,-172.436 285.824,-178.199"/>
</g>
<!-- Node14 -->
<g id="node32" class="node"><title>Node14</title>
<a xlink:href="workunit_8cpp.html" target="_top" xlink:title="This file has the implementation of the Mezzanine::Threading::DefaultWorkUnit.">
<polygon fill="white" stroke="black" points="276.5,-121 276.5,-143 347.5,-143 347.5,-121 276.5,-121"/>
<text text-anchor="middle" x="312" y="-130" font-family="FreeSans" font-size="10.00">workunit.cpp</text>
</a>
</g>
<!-- Node4&#45;&gt;Node14 -->
<g id="edge36" class="edge"><title>Node4&#45;&gt;Node14</title>
<path fill="none" stroke="midnightblue" d="M312,-170.918C312,-161.639 312,-151.108 312,-143.343"/>
<polygon fill="midnightblue" stroke="midnightblue" points="308.5,-170.995 312,-180.995 315.5,-170.995 308.5,-170.995"/>
</g>
<!-- Node5&#45;&gt;Node2 -->
<g id="edge18" class="edge"><title>Node5&#45;&gt;Node2</title>
<path fill="none" stroke="midnightblue" d="M693.828,-112.79C706.206,-97.0952 718.292,-75.1117 705,-60 684.437,-36.621 487.428,-21.4326 388.336,-15.2089"/>
<polygon fill="midnightblue" stroke="midnightblue" points="690.86,-110.881 687.081,-120.779 696.207,-115.397 690.86,-110.881"/>
</g>
<!-- Node6 -->
<g id="node11" class="node"><title>Node6</title>
<a xlink:href="asynchronousfileloadingworkunit_8h.html" target="_top" xlink:title="The declaration of the AsynchronousFileLoadWorkUnit a workunit that loads a listing of files asynchro...">
<polygon fill="white" stroke="black" points="752,-61 752,-83 922,-83 922,-61 752,-61"/>
<text text-anchor="middle" x="837" y="-70" font-family="FreeSans" font-size="10.00">asynchronousfileloadingworkunit.h</text>
</a>
</g>
<!-- Node5&#45;&gt;Node6 -->
<g id="edge10" class="edge"><title>Node5&#45;&gt;Node6</title>
<path fill="none" stroke="midnightblue" d="M715.156,-117.408C743.585,-106.813 781.454,-92.7002 807.385,-83.0366"/>
<polygon fill="midnightblue" stroke="midnightblue" points="713.678,-114.223 705.53,-120.995 716.123,-120.783 713.678,-114.223"/>
</g>
<!-- Node8 -->
<g id="node16" class="node"><title>Node8</title>
<a xlink:href="asynchronousworkunit_8cpp.html" target="_top" xlink:title="Contains very little actually.">
<polygon fill="white" stroke="black" points="562,-61 562,-83 696,-83 696,-61 562,-61"/>
<text text-anchor="middle" x="629" y="-70" font-family="FreeSans" font-size="10.00">asynchronousworkunit.cpp</text>
</a>
</g>
<!-- Node5&#45;&gt;Node8 -->
<g id="edge16" class="edge"><title>Node5&#45;&gt;Node8</title>
<path fill="none" stroke="midnightblue" d="M661.127,-113.013C653.485,-103.258 644.431,-91.6991 637.885,-83.3428"/>
<polygon fill="midnightblue" stroke="midnightblue" points="658.458,-115.281 667.379,-120.995 663.968,-110.964 658.458,-115.281"/>
</g>
<!-- Node6&#45;&gt;Node2 -->
<g id="edge14" class="edge"><title>Node6&#45;&gt;Node2</title>
<path fill="none" stroke="midnightblue" d="M741.87,-60.4637C740.572,-60.308 739.281,-60.1534 738,-60 613.085,-45.0453 466.514,-27.7885 388.159,-18.5866"/>
<polygon fill="midnightblue" stroke="midnightblue" points="741.6,-63.9564 751.946,-61.6741 742.435,-57.0063 741.6,-63.9564"/>
</g>
<!-- Node7 -->
<g id="node13" class="node"><title>Node7</title>
<a xlink:href="asynchronousfileloadingworkunit_8cpp.html" target="_top" xlink:title="The implemtation of the AsynchronousFileLoadWorkUnit a workunit that loads a listing of files asynchr...">
<polygon fill="white" stroke="black" points="747,-1 747,-23 927,-23 927,-1 747,-1"/>
<text text-anchor="middle" x="837" y="-10" font-family="FreeSans" font-size="10.00">asynchronousfileloadingworkunit.cpp</text>
</a>
</g>
<!-- Node6&#45;&gt;Node7 -->
<g id="edge12" class="edge"><title>Node6&#45;&gt;Node7</title>
<path fill="none" stroke="midnightblue" d="M837,-50.9183C837,-41.6393 837,-31.1082 837,-23.3428"/>
<polygon fill="midnightblue" stroke="midnightblue" points="833.5,-50.995 837,-60.9951 840.5,-50.9951 833.5,-50.995"/>
</g>
<!-- Node9&#45;&gt;Node2 -->
<g id="edge22" class="edge"><title>Node9&#45;&gt;Node2</title>
<path fill="none" stroke="midnightblue" d="M393.129,-116.572C377.951,-108.878 361.742,-98.1417 351,-84 337.159,-65.7783 333.375,-38.3347 332.357,-23.1321"/>
<polygon fill="midnightblue" stroke="midnightblue" points="391.853,-119.841 402.388,-120.973 394.858,-113.519 391.853,-119.841"/>
</g>
<!-- Node10 -->
<g id="node22" class="node"><title>Node10</title>
<a xlink:href="frameschedulerworkunits_8cpp.html" target="_top" xlink:title="The implementation of any workunits the framescheduler needs to work correctly.">
<polygon fill="white" stroke="black" points="360,-61 360,-83 506,-83 506,-61 360,-61"/>
<text text-anchor="middle" x="433" y="-70" font-family="FreeSans" font-size="10.00">frameschedulerworkunits.cpp</text>
</a>
</g>
<!-- Node9&#45;&gt;Node10 -->
<g id="edge24" class="edge"><title>Node9&#45;&gt;Node10</title>
<path fill="none" stroke="midnightblue" d="M433,-110.918C433,-101.639 433,-91.1082 433,-83.3428"/>
<polygon fill="midnightblue" stroke="midnightblue" points="429.5,-110.995 433,-120.995 436.5,-110.995 429.5,-110.995"/>
</g>
<!-- Node11&#45;&gt;Node2 -->
<g id="edge28" class="edge"><title>Node11&#45;&gt;Node2</title>
<path fill="none" stroke="midnightblue" d="M244.794,-114.171C254.237,-105.375 265.515,-94.435 275,-84 293.659,-63.4718 313.286,-37.5869 323.945,-23.1106"/>
<polygon fill="midnightblue" stroke="midnightblue" points="242.364,-111.65 237.374,-120.997 247.103,-116.802 242.364,-111.65"/>
</g>
<!-- Node11&#45;&gt;Node12 -->
<g id="edge30" class="edge"><title>Node11&#45;&gt;Node12</title>
<path fill="none" stroke="midnightblue" d="M196.496,-116.017C177.994,-105.641 154.345,-92.3806 137.863,-83.1383"/>
<polygon fill="midnightblue" stroke="midnightblue" points="194.94,-119.157 205.375,-120.995 198.364,-113.051 194.94,-119.157"/>
</g>
<!-- Node13 -->
<g id="node29" class="node"><title>Node13</title>
<a xlink:href="monopoly_8cpp.html" target="_top" xlink:title="Contains the minimal implementation for the monopoly base class.">
<polygon fill="white" stroke="black" points="187.5,-61 187.5,-83 266.5,-83 266.5,-61 187.5,-61"/>
<text text-anchor="middle" x="227" y="-70" font-family="FreeSans" font-size="10.00">monopoly.cpp</text>
</a>
</g>
<!-- Node11&#45;&gt;Node13 -->
<g id="edge32" class="edge"><title>Node11&#45;&gt;Node13</title>
<path fill="none" stroke="midnightblue" d="M225.703,-110.918C226.012,-101.639 226.363,-91.1082 226.622,-83.3428"/>
<polygon fill="midnightblue" stroke="midnightblue" points="222.202,-110.884 225.367,-120.995 229.198,-111.117 222.202,-110.884"/>
</g>
</g>
</svg>
        <g id="navigator" transform="translate(0 0)" fill="#404254">
                <rect fill="#f2f5e9" fill-opacity="0.5" stroke="#606060" stroke-width=".5" x="0" y="0" width="60" height="60"/>
                <use id="zoomplus" xlink:href="#zoomPlus" x="17" y="9" onmousedown="handleZoom(evt,'in')"/>
                <use id="zoomminus" xlink:href="#zoomMin" x="42" y="9" onmousedown="handleZoom(evt,'out')"/>
                <use id="reset" xlink:href="#resetDef" x="30" y="36" onmousedown="handleReset()"/>
                <g id="arrowUp" xlink:href="#dirArrow" transform="translate(30 24)" onmousedown="handlePan(0,-1)">
                  <use xlink:href="#rim" fill="#404040">
                        <set attributeName="fill" to="#808080" begin="arrowUp.mouseover" end="arrowUp.mouseout"/>
                  </use>
                  <path fill="none" stroke="white" stroke-width="1.5" d="M0,-3.0v7 M-2.5,-0.5L0,-3.0L2.5,-0.5"/>
                </g>
                <g id="arrowRight" xlink:href="#dirArrow" transform="rotate(90) translate(36 -43)" onmousedown="handlePan(1,0)">
                  <use xlink:href="#rim" fill="#404040">
                        <set attributeName="fill" to="#808080" begin="arrowRight.mouseover" end="arrowRight.mouseout"/>
                  </use>
                  <path fill="none" stroke="white" stroke-width="1.5" d="M0,-3.0v7 M-2.5,-0.5L0,-3.0L2.5,-0.5"/>
                </g>
                <g id="arrowDown" xlink:href="#dirArrow" transform="rotate(180) translate(-30 -48)" onmousedown="handlePan(0,1)">
                  <use xlink:href="#rim" fill="#404040">
                        <set attributeName="fill" to="#808080" begin="arrowDown.mouseover" end="arrowDown.mouseout"/>
                  </use>
                  <path fill="none" stroke="white" stroke-width="1.5" d="M0,-3.0v7 M-2.5,-0.5L0,-3.0L2.5,-0.5"/>
                </g>
                <g id="arrowLeft" xlink:href="#dirArrow" transform="rotate(270) translate(-36 17)" onmousedown="handlePan(-1,0)">
                  <use xlink:href="#rim" fill="#404040">
                        <set attributeName="fill" to="#808080" begin="arrowLeft.mouseover" end="arrowLeft.mouseout"/>
                  </use>
                  <path fill="none" stroke="white" stroke-width="1.5" d="M0,-3.0v7 M-2.5,-0.5L0,-3.0L2.5,-0.5"/>
                </g>
        </g>
</svg>
