<?xml version="1.0" encoding="UTF-8" standalone="no"?>
<!DOCTYPE svg PUBLIC "-//W3C//DTD SVG 1.1//EN"
 "http://www.w3.org/Graphics/SVG/1.1/DTD/svg11.dtd">
<!-- Generated by graphviz version 2.26.3 (20100126.1600)
 -->
<!-- Title: G Pages: 1 -->
<!--zoomable 392 -->
<svg id="main" version="1.1" xmlns="http://www.w3.org/2000/svg" xmlns:xlink="http://www.w3.org/1999/xlink" xml:space="preserve" onload="init(evt)">
        <defs>
                <circle id="rim" cx="0" cy="0" r="7"/>
                <circle id="rim2" cx="0" cy="0" r="3.5"/>
                <g id="zoomPlus">
                        <use xlink:href="#rim" fill="#404040">
                                <set attributeName="fill" to="#808080" begin="zoomplus.mouseover" end="zoomplus.mouseout"/>
                        </use>
                        <path d="M-4,0h8M0,-4v8" fill="none" stroke="white" stroke-width="1.5" pointer-events="none"/>
                </g>
                <g id="zoomMin">
                        <use xlink:href="#rim" fill="#404040">
                                <set attributeName="fill" to="#808080" begin="zoomminus.mouseover" end="zoomminus.mouseout"/>
                        </use>
                        <path d="M-4,0h8" fill="none" stroke="white" stroke-width="1.5" pointer-events="none"/>
                </g>
                <g id="dirArrow">
                        <path fill="none" stroke="white" stroke-width="1.5" d="M0,-3.0v7 M-2.5,-0.5L0,-3.0L2.5,-0.5"/>
                </g>
               <g id="resetDef">
                       <use xlink:href="#rim2" fill="#404040">
                               <set attributeName="fill" to="#808080" begin="reset.mouseover" end="reset.mouseout"/>
                       </use>
               </g>
        </defs>

<script type="text/javascript">
var viewWidth = 938;
var viewHeight = 392;
var sectionId = 'dynsection-0';
</script>
<script xlink:href="svgpan.js"/>
<svg id="graph" class="graph">
<g id="viewport">
<title>G</title>
<polygon fill="white" stroke="white" points="-4,5 -4,-388 935,-388 935,5 -4,5"/>
<!-- Node1 -->
<g id="node1" class="node"><title>Node1</title>
<polygon fill="#bfbfbf" stroke="black" points="462.5,-361 462.5,-383 523.5,-383 523.5,-361 462.5,-361"/>
<text text-anchor="middle" x="493" y="-370" font-family="FreeSans" font-size="10.00">workunit.h</text>
</g>
<!-- Node2 -->
<g id="node3" class="node"><title>Node2</title>
<a xlink:href="datatypes_8h.html" target="_top" xlink:title="This file declares a few typedefs to allow flexibility, in case a change is required/desired.">
<polygon fill="white" stroke="black" points="339,-121 339,-143 407,-143 407,-121 339,-121"/>
<text text-anchor="middle" x="373" y="-130" font-family="FreeSans" font-size="10.00">datatypes.h</text>
</a>
</g>
<!-- Node1&#45;&gt;Node2 -->
<g id="edge2" class="edge"><title>Node1&#45;&gt;Node2</title>
<path fill="none" stroke="midnightblue" d="M523.543,-369.876C602.098,-363.012 801.937,-335.943 757,-240 739.332,-202.278 722.971,-197.126 685,-180 638.002,-158.803 491.555,-142.836 417.228,-135.861"/>
<polygon fill="midnightblue" stroke="midnightblue" points="417.516,-132.373 407.236,-134.937 416.872,-139.343 417.516,-132.373"/>
</g>
<!-- Node10 -->
<g id="node19" class="node"><title>Node10</title>
<a xlink:href="framescheduler_8h.html" target="_top" xlink:title="This file has the Declarations for the main FrameScheduler class.">
<polygon fill="white" stroke="black" points="307,-301 307,-323 401,-323 401,-301 307,-301"/>
<text text-anchor="middle" x="354" y="-310" font-family="FreeSans" font-size="10.00">framescheduler.h</text>
</a>
</g>
<!-- Node1&#45;&gt;Node10 -->
<g id="edge18" class="edge"><title>Node1&#45;&gt;Node10</title>
<path fill="none" stroke="midnightblue" d="M467.505,-360.995C445.503,-351.498 413.504,-337.685 389.086,-327.145"/>
<polygon fill="midnightblue" stroke="midnightblue" points="390.372,-323.888 379.804,-323.138 387.598,-330.315 390.372,-323.888"/>
</g>
<!-- Node11 -->
<g id="node22" class="node"><title>Node11</title>
<a xlink:href="thread_8h.html" target="_top" xlink:title="This file defines a minimalistic cross&#45;platform thread that the scheduler uses to schedule tasks...">
<polygon fill="white" stroke="black" points="63.5,-241 63.5,-263 116.5,-263 116.5,-241 63.5,-241"/>
<text text-anchor="middle" x="90" y="-250" font-family="FreeSans" font-size="10.00">thread.h</text>
</a>
</g>
<!-- Node1&#45;&gt;Node11 -->
<g id="edge72" class="edge"><title>Node1&#45;&gt;Node11</title>
<path fill="none" stroke="midnightblue" d="M462.116,-368.368C414.92,-362.286 322.388,-348.26 247,-324 200.695,-309.099 150.033,-284.172 119.129,-267.909"/>
<polygon fill="midnightblue" stroke="midnightblue" points="120.672,-264.765 110.199,-263.16 117.385,-270.945 120.672,-264.765"/>
</g>
<!-- Node13 -->
<g id="node28" class="node"><title>Node13</title>
<a xlink:href="mutex_8h.html" target="_top" xlink:title="This file declares and defines a mutex that is a partial implementation.">
<polygon fill="white" stroke="black" points="109.5,-121 109.5,-143 160.5,-143 160.5,-121 109.5,-121"/>
<text text-anchor="middle" x="135" y="-130" font-family="FreeSans" font-size="10.00">mutex.h</text>
</a>
</g>
<!-- Node1&#45;&gt;Node13 -->
<g id="edge62" class="edge"><title>Node1&#45;&gt;Node13</title>
<path fill="none" stroke="midnightblue" d="M462.27,-369.696C370.118,-362.037 99.6903,-333.847 55,-264 29.0152,-223.388 79.0721,-174.66 111.119,-149.284"/>
<polygon fill="midnightblue" stroke="midnightblue" points="113.416,-151.933 119.212,-143.063 109.15,-146.383 113.416,-151.933"/>
</g>
<!-- Node15 -->
<g id="node34" class="node"><title>Node15</title>
<polygon fill="white" stroke="#bfbfbf" points="608,-181 608,-203 652,-203 652,-181 608,-181"/>
<text text-anchor="middle" x="630" y="-190" font-family="FreeSans" font-size="10.00">vector</text>
</g>
<!-- Node1&#45;&gt;Node15 -->
<g id="edge76" class="edge"><title>Node1&#45;&gt;Node15</title>
<path fill="none" stroke="midnightblue" d="M511.205,-360.86C537.86,-343.561 587.138,-307.645 613,-264 622.183,-248.503 626.406,-228.376 628.348,-213.343"/>
<polygon fill="midnightblue" stroke="midnightblue" points="631.871,-213.312 629.433,-203.002 624.909,-212.582 631.871,-213.312"/>
</g>
<!-- Node19 -->
<g id="node44" class="node"><title>Node19</title>
<a xlink:href="workunitkey_8h.html" target="_top" xlink:title="This file defines the metadata used to sort workunits.">
<polygon fill="white" stroke="black" points="133.5,-241 133.5,-263 210.5,-263 210.5,-241 133.5,-241"/>
<text text-anchor="middle" x="172" y="-250" font-family="FreeSans" font-size="10.00">workunitkey.h</text>
</a>
</g>
<!-- Node1&#45;&gt;Node19 -->
<g id="edge74" class="edge"><title>Node1&#45;&gt;Node19</title>
<path fill="none" stroke="midnightblue" d="M462.46,-367.194C423.37,-360.437 354.008,-346.386 298,-324 260.703,-309.092 220.995,-284.83 196.343,-268.645"/>
<polygon fill="midnightblue" stroke="midnightblue" points="198.239,-265.703 187.974,-263.08 194.363,-271.532 198.239,-265.703"/>
</g>
<!-- Node23 -->
<g id="node55" class="node"><title>Node23</title>
<a xlink:href="rollingaverage_8h.html" target="_top" xlink:title="This Store the implementation and the declaration of the RollingAverage, BufferedRollingAverage, WeightedRollingAverage and the DefaultRollingAverage.">
<polygon fill="white" stroke="black" points="659.5,-241 659.5,-263 748.5,-263 748.5,-241 659.5,-241"/>
<text text-anchor="middle" x="704" y="-250" font-family="FreeSans" font-size="10.00">rollingaverage.h</text>
</a>
</g>
<!-- Node1&#45;&gt;Node23 -->
<g id="edge64" class="edge"><title>Node1&#45;&gt;Node23</title>
<path fill="none" stroke="midnightblue" d="M523.76,-367.77C556.412,-362.107 608.391,-349.638 646,-324 665.845,-310.471 682.307,-288.159 692.56,-271.954"/>
<polygon fill="midnightblue" stroke="midnightblue" points="695.658,-273.595 697.858,-263.231 689.676,-269.961 695.658,-273.595"/>
</g>
<!-- Node24 -->
<g id="node59" class="node"><title>Node24</title>
<a xlink:href="threadingenumerations_8h.html" target="_top" xlink:title="Any enumerations the threading library requires are all declared here.">
<polygon fill="white" stroke="black" points="803.5,-301 803.5,-323 930.5,-323 930.5,-301 803.5,-301"/>
<text text-anchor="middle" x="867" y="-310" font-family="FreeSans" font-size="10.00">threadingenumerations.h</text>
</a>
</g>
<!-- Node1&#45;&gt;Node24 -->
<g id="edge70" class="edge"><title>Node1&#45;&gt;Node24</title>
<path fill="none" stroke="midnightblue" d="M523.606,-367.09C582.054,-357.713 711.043,-337.02 793.23,-323.835"/>
<polygon fill="midnightblue" stroke="midnightblue" points="793.942,-327.265 803.261,-322.225 792.833,-320.354 793.942,-327.265"/>
</g>
<!-- Node3 -->
<g id="node5" class="node"><title>Node3</title>
<a xlink:href="compilerthreadcompat_8h.html" target="_top" xlink:title="This file determines what features are offered by the compiler that this library can take advantage o...">
<polygon fill="white" stroke="black" points="73,-61 73,-83 197,-83 197,-61 73,-61"/>
<text text-anchor="middle" x="135" y="-70" font-family="FreeSans" font-size="10.00">compilerthreadcompat.h</text>
</a>
</g>
<!-- Node2&#45;&gt;Node3 -->
<g id="edge4" class="edge"><title>Node2&#45;&gt;Node3</title>
<path fill="none" stroke="midnightblue" d="M338.9,-123.403C299.623,-113.502 234.599,-97.109 188.552,-85.5004"/>
<polygon fill="midnightblue" stroke="midnightblue" points="189.292,-82.0775 178.739,-83.0268 187.58,-88.8652 189.292,-82.0775"/>
</g>
<!-- Node8 -->
<g id="node15" class="node"><title>Node8</title>
<polygon fill="white" stroke="#bfbfbf" points="253.5,-61 253.5,-83 294.5,-83 294.5,-61 253.5,-61"/>
<text text-anchor="middle" x="274" y="-70" font-family="FreeSans" font-size="10.00">string</text>
</g>
<!-- Node2&#45;&gt;Node8 -->
<g id="edge14" class="edge"><title>Node2&#45;&gt;Node8</title>
<path fill="none" stroke="midnightblue" d="M354.842,-120.995C339.864,-111.918 318.383,-98.899 301.328,-88.5627"/>
<polygon fill="midnightblue" stroke="midnightblue" points="302.744,-85.3282 292.378,-83.1383 299.116,-91.3146 302.744,-85.3282"/>
</g>
<!-- Node9 -->
<g id="node17" class="node"><title>Node9</title>
<polygon fill="white" stroke="#bfbfbf" points="349.5,-61 349.5,-83 396.5,-83 396.5,-61 349.5,-61"/>
<text text-anchor="middle" x="373" y="-70" font-family="FreeSans" font-size="10.00">stdint.h</text>
</g>
<!-- Node2&#45;&gt;Node9 -->
<g id="edge16" class="edge"><title>Node2&#45;&gt;Node9</title>
<path fill="none" stroke="midnightblue" d="M373,-120.995C373,-113.311 373,-102.803 373,-93.4884"/>
<polygon fill="midnightblue" stroke="midnightblue" points="376.5,-93.3428 373,-83.3428 369.5,-93.3429 376.5,-93.3428"/>
</g>
<!-- Node4 -->
<g id="node7" class="node"><title>Node4</title>
<polygon fill="white" stroke="#bfbfbf" points="0,-1 0,-23 58,-23 58,-1 0,-1"/>
<text text-anchor="middle" x="29" y="-10" font-family="FreeSans" font-size="10.00">pthread.h</text>
</g>
<!-- Node3&#45;&gt;Node4 -->
<g id="edge6" class="edge"><title>Node3&#45;&gt;Node4</title>
<path fill="none" stroke="midnightblue" d="M115.558,-60.9951C99.2987,-51.7917 75.8814,-38.5366 57.5027,-28.1336"/>
<polygon fill="midnightblue" stroke="midnightblue" points="59.1044,-25.0185 48.6777,-23.1383 55.6562,-31.1103 59.1044,-25.0185"/>
</g>
<!-- Node5 -->
<g id="node9" class="node"><title>Node5</title>
<polygon fill="white" stroke="#bfbfbf" points="75.5,-1 75.5,-23 126.5,-23 126.5,-1 75.5,-1"/>
<text text-anchor="middle" x="101" y="-10" font-family="FreeSans" font-size="10.00">signal.h</text>
</g>
<!-- Node3&#45;&gt;Node5 -->
<g id="edge8" class="edge"><title>Node3&#45;&gt;Node5</title>
<path fill="none" stroke="midnightblue" d="M128.764,-60.9951C124.22,-52.9771 117.934,-41.884 112.492,-32.2806"/>
<polygon fill="midnightblue" stroke="midnightblue" points="115.403,-30.3175 107.428,-23.3428 109.313,-33.7686 115.403,-30.3175"/>
</g>
<!-- Node6 -->
<g id="node11" class="node"><title>Node6</title>
<polygon fill="white" stroke="#bfbfbf" points="144,-1 144,-23 196,-23 196,-1 144,-1"/>
<text text-anchor="middle" x="170" y="-10" font-family="FreeSans" font-size="10.00">sched.h</text>
</g>
<!-- Node3&#45;&gt;Node6 -->
<g id="edge10" class="edge"><title>Node3&#45;&gt;Node6</title>
<path fill="none" stroke="midnightblue" d="M141.42,-60.9951C146.145,-52.8936 152.703,-41.6525 158.344,-31.981"/>
<polygon fill="midnightblue" stroke="midnightblue" points="161.368,-33.7442 163.383,-23.3428 155.321,-30.2171 161.368,-33.7442"/>
</g>
<!-- Node7 -->
<g id="node13" class="node"><title>Node7</title>
<polygon fill="white" stroke="#bfbfbf" points="214,-1 214,-23 264,-23 264,-1 214,-1"/>
<text text-anchor="middle" x="239" y="-10" font-family="FreeSans" font-size="10.00">unistd.h</text>
</g>
<!-- Node3&#45;&gt;Node7 -->
<g id="edge12" class="edge"><title>Node3&#45;&gt;Node7</title>
<path fill="none" stroke="midnightblue" d="M154.075,-60.9951C169.955,-51.8337 192.793,-38.6576 210.788,-28.2763"/>
<polygon fill="midnightblue" stroke="midnightblue" points="212.781,-31.1673 219.694,-23.1383 209.283,-25.104 212.781,-31.1673"/>
</g>
<!-- Node10&#45;&gt;Node2 -->
<g id="edge20" class="edge"><title>Node10&#45;&gt;Node2</title>
<path fill="none" stroke="midnightblue" d="M355.189,-300.74C358.294,-271.319 366.691,-191.769 370.747,-153.345"/>
<polygon fill="midnightblue" stroke="midnightblue" points="374.243,-153.568 371.812,-143.256 367.281,-152.833 374.243,-153.568"/>
</g>
<!-- Node10&#45;&gt;Node11 -->
<g id="edge22" class="edge"><title>Node10&#45;&gt;Node11</title>
<path fill="none" stroke="midnightblue" d="M306.664,-303.847C262.254,-295.804 193.863,-282.408 126.565,-264.232"/>
<polygon fill="midnightblue" stroke="midnightblue" points="127.216,-260.782 116.647,-261.516 125.367,-267.533 127.216,-260.782"/>
</g>
<!-- Node12 -->
<g id="node25" class="node"><title>Node12</title>
<a xlink:href="systemcalls_8h.html" target="_top" xlink:title="This file defines a minimalistic cross&#45;platform thread that the scheduler uses to schedule tasks...">
<polygon fill="white" stroke="black" points="249.5,-181 249.5,-203 326.5,-203 326.5,-181 249.5,-181"/>
<text text-anchor="middle" x="288" y="-190" font-family="FreeSans" font-size="10.00">systemcalls.h</text>
</a>
</g>
<!-- Node10&#45;&gt;Node12 -->
<g id="edge54" class="edge"><title>Node10&#45;&gt;Node12</title>
<path fill="none" stroke="midnightblue" d="M352.852,-300.846C350.948,-286.095 346.171,-259.673 335,-240 328.586,-228.704 318.857,-218.152 309.911,-209.834"/>
<polygon fill="midnightblue" stroke="midnightblue" points="312.16,-207.151 302.355,-203.137 307.517,-212.389 312.16,-207.151"/>
</g>
<!-- Node16 -->
<g id="node36" class="node"><title>Node16</title>
<a xlink:href="doublebufferedresource_8h.html" target="_top" xlink:title="This file defines the template double buffered resources that can be attached to a thread...">
<polygon fill="white" stroke="black" points="419.5,-241 419.5,-263 550.5,-263 550.5,-241 419.5,-241"/>
<text text-anchor="middle" x="485" y="-250" font-family="FreeSans" font-size="10.00">doublebufferedresource.h</text>
</a>
</g>
<!-- Node10&#45;&gt;Node16 -->
<g id="edge40" class="edge"><title>Node10&#45;&gt;Node16</title>
<path fill="none" stroke="midnightblue" d="M378.027,-300.995C398.58,-291.582 428.388,-277.929 451.321,-267.426"/>
<polygon fill="midnightblue" stroke="midnightblue" points="453.047,-270.485 460.681,-263.138 450.132,-264.12 453.047,-270.485"/>
</g>
<!-- Node10&#45;&gt;Node19 -->
<g id="edge50" class="edge"><title>Node10&#45;&gt;Node19</title>
<path fill="none" stroke="midnightblue" d="M320.618,-300.995C290.951,-291.215 247.405,-276.859 215.111,-266.212"/>
<polygon fill="midnightblue" stroke="midnightblue" points="216.071,-262.844 205.478,-263.037 213.879,-269.492 216.071,-262.844"/>
</g>
<!-- Node20 -->
<g id="node48" class="node"><title>Node20</title>
<polygon fill="white" stroke="#bfbfbf" points="568,-241 568,-263 604,-263 604,-241 568,-241"/>
<text text-anchor="middle" x="586" y="-250" font-family="FreeSans" font-size="10.00">map</text>
</g>
<!-- Node10&#45;&gt;Node20 -->
<g id="edge56" class="edge"><title>Node10&#45;&gt;Node20</title>
<path fill="none" stroke="midnightblue" d="M401.107,-303.591C440.9,-295.905 499.413,-283.237 558.087,-263.9"/>
<polygon fill="midnightblue" stroke="midnightblue" points="559.52,-267.11 567.885,-260.608 557.291,-260.475 559.52,-267.11"/>
</g>
<!-- Node21 -->
<g id="node50" class="node"><title>Node21</title>
<polygon fill="white" stroke="#bfbfbf" points="228,-241 228,-263 258,-263 258,-241 228,-241"/>
<text text-anchor="middle" x="243" y="-250" font-family="FreeSans" font-size="10.00">set</text>
</g>
<!-- Node10&#45;&gt;Node21 -->
<g id="edge58" class="edge"><title>Node10&#45;&gt;Node21</title>
<path fill="none" stroke="midnightblue" d="M333.641,-300.995C314.923,-290.877 287.147,-275.863 267.28,-265.125"/>
<polygon fill="midnightblue" stroke="midnightblue" points="268.699,-261.913 258.238,-260.237 265.37,-268.071 268.699,-261.913"/>
</g>
<!-- Node22 -->
<g id="node52" class="node"><title>Node22</title>
<polygon fill="white" stroke="#bfbfbf" points="276,-241 276,-263 326,-263 326,-241 276,-241"/>
<text text-anchor="middle" x="301" y="-250" font-family="FreeSans" font-size="10.00">fstream</text>
</g>
<!-- Node10&#45;&gt;Node22 -->
<g id="edge60" class="edge"><title>Node10&#45;&gt;Node22</title>
<path fill="none" stroke="midnightblue" d="M344.279,-300.995C336.901,-292.643 326.576,-280.954 317.861,-271.088"/>
<polygon fill="midnightblue" stroke="midnightblue" points="320.263,-268.52 311.02,-263.343 315.017,-273.155 320.263,-268.52"/>
</g>
<!-- Node11&#45;&gt;Node3 -->
<g id="edge24" class="edge"><title>Node11&#45;&gt;Node3</title>
<path fill="none" stroke="midnightblue" d="M89.0101,-240.98C87.3313,-217.785 85.4779,-162.56 101,-120 104.792,-109.604 111.465,-99.4089 117.901,-91.1073"/>
<polygon fill="midnightblue" stroke="midnightblue" points="120.745,-93.1597 124.392,-83.2124 115.338,-88.7142 120.745,-93.1597"/>
</g>
<!-- Node11&#45;&gt;Node12 -->
<g id="edge26" class="edge"><title>Node11&#45;&gt;Node12</title>
<path fill="none" stroke="midnightblue" d="M116.713,-242.706C119.506,-241.775 122.307,-240.858 125,-240 163.338,-227.789 207.092,-214.965 239.609,-205.647"/>
<polygon fill="midnightblue" stroke="midnightblue" points="240.668,-208.985 249.322,-202.872 238.745,-202.254 240.668,-208.985"/>
</g>
<!-- Node11&#45;&gt;Node13 -->
<g id="edge30" class="edge"><title>Node11&#45;&gt;Node13</title>
<path fill="none" stroke="midnightblue" d="M94.1528,-240.926C101.687,-220.834 117.715,-178.093 127.301,-152.531"/>
<polygon fill="midnightblue" stroke="midnightblue" points="130.623,-153.64 130.857,-143.047 124.069,-151.182 130.623,-153.64"/>
</g>
<!-- Node14 -->
<g id="node32" class="node"><title>Node14</title>
<polygon fill="white" stroke="#bfbfbf" points="147.5,-181 147.5,-203 200.5,-203 200.5,-181 147.5,-181"/>
<text text-anchor="middle" x="174" y="-190" font-family="FreeSans" font-size="10.00">ostream</text>
</g>
<!-- Node11&#45;&gt;Node14 -->
<g id="edge36" class="edge"><title>Node11&#45;&gt;Node14</title>
<path fill="none" stroke="midnightblue" d="M105.407,-240.995C117.88,-232.086 135.668,-219.38 150.004,-209.14"/>
<polygon fill="midnightblue" stroke="midnightblue" points="152.303,-211.799 158.406,-203.138 148.235,-206.103 152.303,-211.799"/>
</g>
<!-- Node11&#45;&gt;Node15 -->
<g id="edge38" class="edge"><title>Node11&#45;&gt;Node15</title>
<path fill="none" stroke="midnightblue" d="M116.558,-242.116C119.381,-241.3 122.232,-240.571 125,-240 330.621,-197.614 390.572,-247.311 596,-204 596.735,-203.845 597.476,-203.678 598.22,-203.501"/>
<polygon fill="midnightblue" stroke="midnightblue" points="599.272,-206.841 607.927,-200.73 597.351,-200.109 599.272,-206.841"/>
</g>
<!-- Node12&#45;&gt;Node2 -->
<g id="edge28" class="edge"><title>Node12&#45;&gt;Node2</title>
<path fill="none" stroke="midnightblue" d="M303.59,-180.995C316.212,-172.086 334.212,-159.38 348.719,-149.14"/>
<polygon fill="midnightblue" stroke="midnightblue" points="351.069,-151.765 357.221,-143.138 347.033,-146.046 351.069,-151.765"/>
</g>
<!-- Node13&#45;&gt;Node3 -->
<g id="edge32" class="edge"><title>Node13&#45;&gt;Node3</title>
<path fill="none" stroke="midnightblue" d="M135,-120.995C135,-113.311 135,-102.803 135,-93.4884"/>
<polygon fill="midnightblue" stroke="midnightblue" points="138.5,-93.3428 135,-83.3428 131.5,-93.3429 138.5,-93.3428"/>
</g>
<!-- Node13&#45;&gt;Node8 -->
<g id="edge34" class="edge"><title>Node13&#45;&gt;Node8</title>
<path fill="none" stroke="midnightblue" d="M160.495,-120.995C184.02,-110.84 218.971,-95.7533 243.867,-85.0069"/>
<polygon fill="midnightblue" stroke="midnightblue" points="245.406,-88.1551 253.2,-80.9786 242.631,-81.7283 245.406,-88.1551"/>
</g>
<!-- Node16&#45;&gt;Node2 -->
<g id="edge42" class="edge"><title>Node16&#45;&gt;Node2</title>
<path fill="none" stroke="midnightblue" d="M474.664,-240.926C455.411,-220.298 413.877,-175.797 390.288,-150.523"/>
<polygon fill="midnightblue" stroke="midnightblue" points="392.693,-147.97 383.311,-143.047 387.575,-152.746 392.693,-147.97"/>
</g>
<!-- Node16&#45;&gt;Node15 -->
<g id="edge48" class="edge"><title>Node16&#45;&gt;Node15</title>
<path fill="none" stroke="midnightblue" d="M511.595,-240.995C536.099,-230.856 572.488,-215.798 598.451,-205.055"/>
<polygon fill="midnightblue" stroke="midnightblue" points="599.943,-208.225 607.844,-201.168 597.266,-201.757 599.943,-208.225"/>
</g>
<!-- Node17 -->
<g id="node39" class="node"><title>Node17</title>
<polygon fill="white" stroke="#bfbfbf" points="529,-181 529,-203 587,-203 587,-181 529,-181"/>
<text text-anchor="middle" x="558" y="-190" font-family="FreeSans" font-size="10.00">algorithm</text>
</g>
<!-- Node16&#45;&gt;Node17 -->
<g id="edge44" class="edge"><title>Node16&#45;&gt;Node17</title>
<path fill="none" stroke="midnightblue" d="M498.389,-240.995C509.024,-232.254 524.106,-219.858 536.438,-209.722"/>
<polygon fill="midnightblue" stroke="midnightblue" points="538.945,-212.192 544.448,-203.138 534.501,-206.784 538.945,-212.192"/>
</g>
<!-- Node18 -->
<g id="node41" class="node"><title>Node18</title>
<polygon fill="white" stroke="#bfbfbf" points="458.5,-181 458.5,-203 511.5,-203 511.5,-181 458.5,-181"/>
<text text-anchor="middle" x="485" y="-190" font-family="FreeSans" font-size="10.00">sstream</text>
</g>
<!-- Node16&#45;&gt;Node18 -->
<g id="edge46" class="edge"><title>Node16&#45;&gt;Node18</title>
<path fill="none" stroke="midnightblue" d="M485,-240.995C485,-233.311 485,-222.803 485,-213.488"/>
<polygon fill="midnightblue" stroke="midnightblue" points="488.5,-213.343 485,-203.343 481.5,-213.343 488.5,-213.343"/>
</g>
<!-- Node19&#45;&gt;Node2 -->
<g id="edge52" class="edge"><title>Node19&#45;&gt;Node2</title>
<path fill="none" stroke="midnightblue" d="M210.735,-241.409C257.36,-228.54 330.063,-208.04 335,-204 351.152,-190.784 361.313,-168.86 367.021,-152.671"/>
<polygon fill="midnightblue" stroke="midnightblue" points="370.399,-153.601 370.147,-143.009 363.739,-151.446 370.399,-153.601"/>
</g>
<!-- Node23&#45;&gt;Node2 -->
<g id="edge68" class="edge"><title>Node23&#45;&gt;Node2</title>
<path fill="none" stroke="midnightblue" d="M700.695,-240.906C695.25,-224.696 682.768,-194.853 661,-180 622.12,-153.47 488.081,-140.171 417.413,-134.868"/>
<polygon fill="midnightblue" stroke="midnightblue" points="417.28,-131.349 407.052,-134.114 416.771,-138.331 417.28,-131.349"/>
</g>
<!-- Node23&#45;&gt;Node15 -->
<g id="edge66" class="edge"><title>Node23&#45;&gt;Node15</title>
<path fill="none" stroke="midnightblue" d="M690.427,-240.995C679.647,-232.254 664.358,-219.858 651.857,-209.722"/>
<polygon fill="midnightblue" stroke="midnightblue" points="653.709,-206.718 643.737,-203.138 649.301,-212.155 653.709,-206.718"/>
</g>
</g>
</svg>
        <g id="navigator" transform="translate(0 0)" fill="#404254">
                <rect fill="#f2f5e9" fill-opacity="0.5" stroke="#606060" stroke-width=".5" x="0" y="0" width="60" height="60"/>
                <use id="zoomplus" xlink:href="#zoomPlus" x="17" y="9" onmousedown="handleZoom(evt,'in')"/>
                <use id="zoomminus" xlink:href="#zoomMin" x="42" y="9" onmousedown="handleZoom(evt,'out')"/>
                <use id="reset" xlink:href="#resetDef" x="30" y="36" onmousedown="handleReset()"/>
                <g id="arrowUp" xlink:href="#dirArrow" transform="translate(30 24)" onmousedown="handlePan(0,-1)">
                  <use xlink:href="#rim" fill="#404040">
                        <set attributeName="fill" to="#808080" begin="arrowUp.mouseover" end="arrowUp.mouseout"/>
                  </use>
                  <path fill="none" stroke="white" stroke-width="1.5" d="M0,-3.0v7 M-2.5,-0.5L0,-3.0L2.5,-0.5"/>
                </g>
                <g id="arrowRight" xlink:href="#dirArrow" transform="rotate(90) translate(36 -43)" onmousedown="handlePan(1,0)">
                  <use xlink:href="#rim" fill="#404040">
                        <set attributeName="fill" to="#808080" begin="arrowRight.mouseover" end="arrowRight.mouseout"/>
                  </use>
                  <path fill="none" stroke="white" stroke-width="1.5" d="M0,-3.0v7 M-2.5,-0.5L0,-3.0L2.5,-0.5"/>
                </g>
                <g id="arrowDown" xlink:href="#dirArrow" transform="rotate(180) translate(-30 -48)" onmousedown="handlePan(0,1)">
                  <use xlink:href="#rim" fill="#404040">
                        <set attributeName="fill" to="#808080" begin="arrowDown.mouseover" end="arrowDown.mouseout"/>
                  </use>
                  <path fill="none" stroke="white" stroke-width="1.5" d="M0,-3.0v7 M-2.5,-0.5L0,-3.0L2.5,-0.5"/>
                </g>
                <g id="arrowLeft" xlink:href="#dirArrow" transform="rotate(270) translate(-36 17)" onmousedown="handlePan(-1,0)">
                  <use xlink:href="#rim" fill="#404040">
                        <set attributeName="fill" to="#808080" begin="arrowLeft.mouseover" end="arrowLeft.mouseout"/>
                  </use>
                  <path fill="none" stroke="white" stroke-width="1.5" d="M0,-3.0v7 M-2.5,-0.5L0,-3.0L2.5,-0.5"/>
                </g>
        </g>
</svg>
