<?xml version="1.0" encoding="UTF-8" standalone="no"?>
<!DOCTYPE svg PUBLIC "-//W3C//DTD SVG 1.1//EN"
 "http://www.w3.org/Graphics/SVG/1.1/DTD/svg11.dtd">
<!-- Generated by graphviz version 2.26.3 (20100126.1600)
 -->
<!-- Title: workunit.h Pages: 1 -->
<svg width="719pt" height="378pt"
 viewBox="0.00 0.00 719.00 378.00" xmlns="http://www.w3.org/2000/svg" xmlns:xlink="http://www.w3.org/1999/xlink">
<g id="graph1" class="graph" transform="scale(1 1) rotate(0) translate(4 374)">
<title>workunit.h</title>
<polygon fill="white" stroke="white" points="-4,5 -4,-374 716,-374 716,5 -4,5"/>
<!-- Node1 -->
<g id="node1" class="node"><title>Node1</title>
<polygon fill="#bfbfbf" stroke="black" points="328,-349 328,-369 388,-369 388,-349 328,-349"/>
<text text-anchor="middle" x="358" y="-356" font-family="FreeSans" font-size="10.00">workunit.h</text>
</g>
<!-- Node2 -->
<g id="node3" class="node"><title>Node2</title>
<a xlink:href="datatypes_8h.html" target="_top" xlink:title="This file declares a few typedefs to allow flexibility, in case a change is required/desired. ">
<polygon fill="white" stroke="black" points="320.5,-59 320.5,-79 385.5,-79 385.5,-59 320.5,-59"/>
<text text-anchor="middle" x="353" y="-66" font-family="FreeSans" font-size="10.00">datatypes.h</text>
</a>
</g>
<!-- Node1&#45;&gt;Node2 -->
<g id="edge2" class="edge"><title>Node1&#45;&gt;Node2</title>
<path fill="none" stroke="midnightblue" d="M327.741,-352.864C256.662,-337.584 85,-295.269 85,-243 85,-243 85,-243 85,-185 85,-151.735 88.2083,-137.009 114,-116 143.522,-91.953 249.775,-78.4802 310.199,-72.6042"/>
<polygon fill="midnightblue" stroke="midnightblue" points="310.575,-76.0844 320.202,-71.6601 309.917,-69.1153 310.575,-76.0844"/>
</g>
<!-- Node13 -->
<g id="node25" class="node"><title>Node13</title>
<a xlink:href="framescheduler_8h.html" target="_top" xlink:title="This file has the Declarations for the main FrameScheduler class. ">
<polygon fill="white" stroke="black" points="313,-291 313,-311 403,-311 403,-291 313,-291"/>
<text text-anchor="middle" x="358" y="-298" font-family="FreeSans" font-size="10.00">framescheduler.h</text>
</a>
</g>
<!-- Node1&#45;&gt;Node13 -->
<g id="edge24" class="edge"><title>Node1&#45;&gt;Node13</title>
<path fill="none" stroke="midnightblue" d="M358,-348.897C358,-341.339 358,-330.748 358,-321.446"/>
<polygon fill="midnightblue" stroke="midnightblue" points="361.5,-321.378 358,-311.378 354.5,-321.378 361.5,-321.378"/>
</g>
<!-- Node15 -->
<g id="node31" class="node"><title>Node15</title>
<a xlink:href="thread_8h.html" target="_top" xlink:title="This file defines a minimalistic cross&#45;platform thread that the scheduler uses to schedule tasks...">
<polygon fill="white" stroke="black" points="196.5,-233 196.5,-253 247.5,-253 247.5,-233 196.5,-233"/>
<text text-anchor="middle" x="222" y="-240" font-family="FreeSans" font-size="10.00">thread.h</text>
</a>
</g>
<!-- Node1&#45;&gt;Node15 -->
<g id="edge72" class="edge"><title>Node1&#45;&gt;Node15</title>
<path fill="none" stroke="midnightblue" d="M345.931,-348.706C322.382,-328.62 270.12,-284.043 241.562,-259.685"/>
<polygon fill="midnightblue" stroke="midnightblue" points="243.728,-256.932 233.848,-253.106 239.185,-262.258 243.728,-256.932"/>
</g>
<!-- Node17 -->
<g id="node36" class="node"><title>Node17</title>
<a xlink:href="mutex_8h.html" target="_top" xlink:title="This file declares and defines a mutex that is a partial implementation. ">
<polygon fill="white" stroke="black" points="113,-175 113,-195 163,-195 163,-175 113,-175"/>
<text text-anchor="middle" x="138" y="-182" font-family="FreeSans" font-size="10.00">mutex.h</text>
</a>
</g>
<!-- Node1&#45;&gt;Node17 -->
<g id="edge64" class="edge"><title>Node1&#45;&gt;Node17</title>
<path fill="none" stroke="midnightblue" d="M335.262,-348.886C300.531,-332.631 233.514,-298.005 188,-254 172.47,-238.985 158.39,-218.651 149.158,-203.95"/>
<polygon fill="midnightblue" stroke="midnightblue" points="152.023,-201.927 143.824,-195.216 146.048,-205.575 152.023,-201.927"/>
</g>
<!-- Node19 -->
<g id="node41" class="node"><title>Node19</title>
<a xlink:href="workunitkey_8h.html" target="_top" xlink:title="This file defines the metadata used to sort workunits. ">
<polygon fill="white" stroke="black" points="454.5,-233 454.5,-253 529.5,-253 529.5,-233 454.5,-233"/>
<text text-anchor="middle" x="492" y="-240" font-family="FreeSans" font-size="10.00">workunitkey.h</text>
</a>
</g>
<!-- Node1&#45;&gt;Node19 -->
<g id="edge74" class="edge"><title>Node1&#45;&gt;Node19</title>
<path fill="none" stroke="midnightblue" d="M369.892,-348.706C393.094,-328.62 444.588,-284.043 472.726,-259.685"/>
<polygon fill="midnightblue" stroke="midnightblue" points="475.057,-262.297 480.326,-253.106 470.475,-257.004 475.057,-262.297"/>
</g>
<!-- Node21 -->
<g id="node48" class="node"><title>Node21</title>
<a xlink:href="rollingaverage_8h.html" target="_top" xlink:title="This stores the implementation and the declaration of the RollingAverage, BufferedRollingAverage, WeightedRollingAverage and the DefaultRollingAverage. ">
<polygon fill="white" stroke="black" points="546.5,-233 546.5,-253 629.5,-253 629.5,-233 546.5,-233"/>
<text text-anchor="middle" x="588" y="-240" font-family="FreeSans" font-size="10.00">rollingaverage.h</text>
</a>
</g>
<!-- Node1&#45;&gt;Node21 -->
<g id="edge66" class="edge"><title>Node1&#45;&gt;Node21</title>
<path fill="none" stroke="midnightblue" d="M378.009,-348.909C418.703,-328.384 511.269,-281.699 558.737,-257.759"/>
<polygon fill="midnightblue" stroke="midnightblue" points="560.521,-260.779 567.874,-253.151 557.369,-254.529 560.521,-260.779"/>
</g>
<!-- Node23 -->
<g id="node57" class="node"><title>Node23</title>
<a xlink:href="threadingenumerations_8h.html" target="_top" xlink:title="Any enumerations the threading library requires are all declared here. ">
<polygon fill="white" stroke="black" points="589,-291 589,-311 711,-311 711,-291 589,-291"/>
<text text-anchor="middle" x="650" y="-298" font-family="FreeSans" font-size="10.00">threadingenumerations.h</text>
</a>
</g>
<!-- Node1&#45;&gt;Node23 -->
<g id="edge68" class="edge"><title>Node1&#45;&gt;Node23</title>
<path fill="none" stroke="midnightblue" d="M388.149,-353.011C435.494,-343.607 528.199,-325.193 589.627,-312.992"/>
<polygon fill="midnightblue" stroke="midnightblue" points="590.456,-316.396 599.583,-311.014 589.092,-309.53 590.456,-316.396"/>
</g>
<!-- Node3 -->
<g id="node5" class="node"><title>Node3</title>
<a xlink:href="crossplatformexport_8h.html" target="_top" xlink:title="This file determines what features are offered by the compiler that this library can take advantage o...">
<polygon fill="white" stroke="black" points="0,-1 0,-21 108,-21 108,-1 0,-1"/>
<text text-anchor="middle" x="54" y="-8" font-family="FreeSans" font-size="10.00">crossplatformexport.h</text>
</a>
</g>
<!-- Node2&#45;&gt;Node3 -->
<g id="edge4" class="edge"><title>Node2&#45;&gt;Node3</title>
<path fill="none" stroke="midnightblue" d="M320.433,-62.6826C271.47,-53.1849 178.02,-35.0574 115.844,-22.9965"/>
<polygon fill="midnightblue" stroke="midnightblue" points="116.247,-19.5096 105.764,-21.0411 114.914,-26.3815 116.247,-19.5096"/>
</g>
<!-- Node4 -->
<g id="node7" class="node"><title>Node4</title>
<polygon fill="white" stroke="#bfbfbf" points="125.5,-1 125.5,-21 168.5,-21 168.5,-1 125.5,-1"/>
<text text-anchor="middle" x="147" y="-8" font-family="FreeSans" font-size="10.00">vector</text>
</g>
<!-- Node2&#45;&gt;Node4 -->
<g id="edge6" class="edge"><title>Node2&#45;&gt;Node4</title>
<path fill="none" stroke="midnightblue" d="M320.307,-61.2103C286.788,-53.0181 232.988,-39.3017 178.389,-22.2696"/>
<polygon fill="midnightblue" stroke="midnightblue" points="179.139,-18.8364 168.55,-19.1663 177.034,-25.5122 179.139,-18.8364"/>
</g>
<!-- Node5 -->
<g id="node9" class="node"><title>Node5</title>
<polygon fill="white" stroke="#bfbfbf" points="186,-1 186,-21 226,-21 226,-1 186,-1"/>
<text text-anchor="middle" x="206" y="-8" font-family="FreeSans" font-size="10.00">string</text>
</g>
<!-- Node2&#45;&gt;Node5 -->
<g id="edge8" class="edge"><title>Node2&#45;&gt;Node5</title>
<path fill="none" stroke="midnightblue" d="M327.395,-58.8972C301.865,-48.8245 262.682,-33.3644 235.778,-22.7491"/>
<polygon fill="midnightblue" stroke="midnightblue" points="236.709,-19.3538 226.122,-18.9393 234.139,-25.8653 236.709,-19.3538"/>
</g>
<!-- Node6 -->
<g id="node11" class="node"><title>Node6</title>
<polygon fill="white" stroke="#bfbfbf" points="243.5,-1 243.5,-21 294.5,-21 294.5,-1 243.5,-1"/>
<text text-anchor="middle" x="269" y="-8" font-family="FreeSans" font-size="10.00">ostream</text>
</g>
<!-- Node2&#45;&gt;Node6 -->
<g id="edge10" class="edge"><title>Node2&#45;&gt;Node6</title>
<path fill="none" stroke="midnightblue" d="M338.368,-58.8972C325.678,-50.1351 307.085,-37.2965 292.341,-27.1164"/>
<polygon fill="midnightblue" stroke="midnightblue" points="293.964,-23.9835 283.746,-21.1817 289.986,-29.7438 293.964,-23.9835"/>
</g>
<!-- Node7 -->
<g id="node13" class="node"><title>Node7</title>
<polygon fill="white" stroke="#bfbfbf" points="311.5,-1 311.5,-21 346.5,-21 346.5,-1 311.5,-1"/>
<text text-anchor="middle" x="329" y="-8" font-family="FreeSans" font-size="10.00">map</text>
</g>
<!-- Node2&#45;&gt;Node7 -->
<g id="edge12" class="edge"><title>Node2&#45;&gt;Node7</title>
<path fill="none" stroke="midnightblue" d="M348.82,-58.8972C345.624,-51.1747 341.118,-40.2857 337.21,-30.841"/>
<polygon fill="midnightblue" stroke="midnightblue" points="340.352,-29.2795 333.294,-21.3776 333.884,-31.956 340.352,-29.2795"/>
</g>
<!-- Node8 -->
<g id="node15" class="node"><title>Node8</title>
<polygon fill="white" stroke="#bfbfbf" points="363.5,-1 363.5,-21 392.5,-21 392.5,-1 363.5,-1"/>
<text text-anchor="middle" x="378" y="-8" font-family="FreeSans" font-size="10.00">set</text>
</g>
<!-- Node2&#45;&gt;Node8 -->
<g id="edge14" class="edge"><title>Node2&#45;&gt;Node8</title>
<path fill="none" stroke="midnightblue" d="M357.355,-58.8972C360.683,-51.1747 365.377,-40.2857 369.448,-30.841"/>
<polygon fill="midnightblue" stroke="midnightblue" points="372.783,-31.9463 373.527,-21.3776 366.354,-29.1754 372.783,-31.9463"/>
</g>
<!-- Node9 -->
<g id="node17" class="node"><title>Node9</title>
<polygon fill="white" stroke="#bfbfbf" points="410,-1 410,-21 460,-21 460,-1 410,-1"/>
<text text-anchor="middle" x="435" y="-8" font-family="FreeSans" font-size="10.00">sstream</text>
</g>
<!-- Node2&#45;&gt;Node9 -->
<g id="edge16" class="edge"><title>Node2&#45;&gt;Node9</title>
<path fill="none" stroke="midnightblue" d="M367.283,-58.8972C379.671,-50.1351 397.822,-37.2965 412.215,-27.1164"/>
<polygon fill="midnightblue" stroke="midnightblue" points="414.462,-29.8138 420.605,-21.1817 410.42,-24.0989 414.462,-29.8138"/>
</g>
<!-- Node10 -->
<g id="node19" class="node"><title>Node10</title>
<polygon fill="white" stroke="#bfbfbf" points="477.5,-1 477.5,-21 526.5,-21 526.5,-1 477.5,-1"/>
<text text-anchor="middle" x="502" y="-8" font-family="FreeSans" font-size="10.00">fstream</text>
</g>
<!-- Node2&#45;&gt;Node10 -->
<g id="edge18" class="edge"><title>Node2&#45;&gt;Node10</title>
<path fill="none" stroke="midnightblue" d="M378.954,-58.8972C403.608,-49.3004 440.824,-34.8134 467.871,-24.2852"/>
<polygon fill="midnightblue" stroke="midnightblue" points="469.284,-27.4911 477.333,-20.6019 466.744,-20.9679 469.284,-27.4911"/>
</g>
<!-- Node11 -->
<g id="node21" class="node"><title>Node11</title>
<polygon fill="white" stroke="#bfbfbf" points="544,-1 544,-21 600,-21 600,-1 544,-1"/>
<text text-anchor="middle" x="572" y="-8" font-family="FreeSans" font-size="10.00">algorithm</text>
</g>
<!-- Node2&#45;&gt;Node11 -->
<g id="edge20" class="edge"><title>Node2&#45;&gt;Node11</title>
<path fill="none" stroke="midnightblue" d="M385.643,-60.9493C420.145,-52.357 476.381,-38.1166 533.779,-22.2779"/>
<polygon fill="midnightblue" stroke="midnightblue" points="535.047,-25.5584 543.749,-19.5138 533.177,-18.8129 535.047,-25.5584"/>
</g>
<!-- Node12 -->
<g id="node23" class="node"><title>Node12</title>
<polygon fill="white" stroke="#bfbfbf" points="617.5,-1 617.5,-21 664.5,-21 664.5,-1 617.5,-1"/>
<text text-anchor="middle" x="641" y="-8" font-family="FreeSans" font-size="10.00">stdint.h</text>
</g>
<!-- Node2&#45;&gt;Node12 -->
<g id="edge22" class="edge"><title>Node2&#45;&gt;Node12</title>
<path fill="none" stroke="midnightblue" d="M385.671,-64.601C432.852,-57.9034 522.88,-43.832 607.588,-22.1141"/>
<polygon fill="midnightblue" stroke="midnightblue" points="608.561,-25.4775 617.355,-19.569 606.796,-18.7037 608.561,-25.4775"/>
</g>
<!-- Node13&#45;&gt;Node2 -->
<g id="edge26" class="edge"><title>Node13&#45;&gt;Node2</title>
<path fill="none" stroke="midnightblue" d="M356.041,-290.962C350.869,-263.14 337.672,-182.697 344,-116 344.851,-107.029 346.597,-97.2221 348.326,-88.8985"/>
<polygon fill="midnightblue" stroke="midnightblue" points="351.772,-89.5256 350.513,-79.0058 344.937,-88.0143 351.772,-89.5256"/>
</g>
<!-- Node14 -->
<g id="node28" class="node"><title>Node14</title>
<a xlink:href="doublebufferedresource_8h.html" target="_top" xlink:title="This file defines the template double buffered resources that can be attached to a thread...">
<polygon fill="white" stroke="black" points="428.5,-117 428.5,-137 551.5,-137 551.5,-117 428.5,-117"/>
<text text-anchor="middle" x="490" y="-124" font-family="FreeSans" font-size="10.00">doublebufferedresource.h</text>
</a>
</g>
<!-- Node13&#45;&gt;Node14 -->
<g id="edge28" class="edge"><title>Node13&#45;&gt;Node14</title>
<path fill="none" stroke="midnightblue" d="M365.667,-290.893C387.175,-262.542 448.307,-181.959 476.028,-145.418"/>
<polygon fill="midnightblue" stroke="midnightblue" points="479.056,-147.217 482.311,-137.135 473.479,-142.987 479.056,-147.217"/>
</g>
<!-- Node13&#45;&gt;Node15 -->
<g id="edge32" class="edge"><title>Node13&#45;&gt;Node15</title>
<path fill="none" stroke="midnightblue" d="M334.311,-290.897C312.408,-281.556 279.643,-267.583 255.147,-257.136"/>
<polygon fill="midnightblue" stroke="midnightblue" points="256.446,-253.885 245.874,-253.182 253.7,-260.324 256.446,-253.885"/>
</g>
<!-- Node16 -->
<g id="node33" class="node"><title>Node16</title>
<a xlink:href="systemcalls_8h.html" target="_top" xlink:title="This file defines a minimalistic cross&#45;platform thread that the scheduler uses to schedule tasks...">
<polygon fill="white" stroke="black" points="249,-175 249,-195 323,-195 323,-175 249,-175"/>
<text text-anchor="middle" x="286" y="-182" font-family="FreeSans" font-size="10.00">systemcalls.h</text>
</a>
</g>
<!-- Node13&#45;&gt;Node16 -->
<g id="edge52" class="edge"><title>Node13&#45;&gt;Node16</title>
<path fill="none" stroke="midnightblue" d="M351.61,-290.706C339.465,-271.137 312.89,-228.323 297.549,-203.606"/>
<polygon fill="midnightblue" stroke="midnightblue" points="300.52,-201.756 292.272,-195.106 294.572,-205.448 300.52,-201.756"/>
</g>
<!-- Node13&#45;&gt;Node19 -->
<g id="edge44" class="edge"><title>Node13&#45;&gt;Node19</title>
<path fill="none" stroke="midnightblue" d="M381.341,-290.897C402.826,-281.598 434.919,-267.707 459.019,-257.275"/>
<polygon fill="midnightblue" stroke="midnightblue" points="460.69,-260.366 468.477,-253.182 457.909,-253.942 460.69,-260.366"/>
</g>
<!-- Node20 -->
<g id="node44" class="node"><title>Node20</title>
<a xlink:href="spinlock_8h.html" target="_top" xlink:title="Declares a Mutex, Mutex tools, and at least one MutexLike object. ">
<polygon fill="white" stroke="black" points="352.5,-117 352.5,-137 411.5,-137 411.5,-117 352.5,-117"/>
<text text-anchor="middle" x="382" y="-124" font-family="FreeSans" font-size="10.00">spinlock.h</text>
</a>
</g>
<!-- Node13&#45;&gt;Node20 -->
<g id="edge48" class="edge"><title>Node13&#45;&gt;Node20</title>
<path fill="none" stroke="midnightblue" d="M359.545,-290.921C360.993,-281.408 363.198,-266.743 365,-254 370.32,-216.371 376.11,-172.408 379.374,-147.321"/>
<polygon fill="midnightblue" stroke="midnightblue" points="382.87,-147.581 380.685,-137.213 375.928,-146.68 382.87,-147.581"/>
</g>
<!-- Node13&#45;&gt;Node21 -->
<g id="edge54" class="edge"><title>Node13&#45;&gt;Node21</title>
<path fill="none" stroke="midnightblue" d="M397.8,-290.963C436.842,-281.118 496.475,-266.08 538.543,-255.472"/>
<polygon fill="midnightblue" stroke="midnightblue" points="539.461,-258.85 548.302,-253.011 537.75,-252.062 539.461,-258.85"/>
</g>
<!-- Node22 -->
<g id="node51" class="node"><title>Node22</title>
<a xlink:href="barrier_8h.html" target="_top" xlink:title="The declaration of the Mezzanine::Threading::Barrier Barrier synchronization primitive. ">
<polygon fill="white" stroke="black" points="180.5,-175 180.5,-195 231.5,-195 231.5,-175 180.5,-175"/>
<text text-anchor="middle" x="206" y="-182" font-family="FreeSans" font-size="10.00">barrier.h</text>
</a>
</g>
<!-- Node13&#45;&gt;Node22 -->
<g id="edge58" class="edge"><title>Node13&#45;&gt;Node22</title>
<path fill="none" stroke="midnightblue" d="M344.777,-290.909C318.501,-270.856 259.501,-225.83 227.547,-201.444"/>
<polygon fill="midnightblue" stroke="midnightblue" points="229.374,-198.435 219.301,-195.151 225.127,-204 229.374,-198.435"/>
</g>
<!-- Node14&#45;&gt;Node2 -->
<g id="edge30" class="edge"><title>Node14&#45;&gt;Node2</title>
<path fill="none" stroke="midnightblue" d="M466.136,-116.897C444.073,-107.556 411.067,-93.5831 386.391,-83.1363"/>
<polygon fill="midnightblue" stroke="midnightblue" points="387.623,-79.8573 377.05,-79.1817 384.894,-86.3034 387.623,-79.8573"/>
</g>
<!-- Node15&#45;&gt;Node16 -->
<g id="edge34" class="edge"><title>Node15&#45;&gt;Node16</title>
<path fill="none" stroke="midnightblue" d="M233.148,-232.897C242.485,-224.435 256.018,-212.172 267.052,-202.172"/>
<polygon fill="midnightblue" stroke="midnightblue" points="269.489,-204.686 274.549,-195.378 264.789,-199.499 269.489,-204.686"/>
</g>
<!-- Node15&#45;&gt;Node17 -->
<g id="edge38" class="edge"><title>Node15&#45;&gt;Node17</title>
<path fill="none" stroke="midnightblue" d="M207.368,-232.897C194.678,-224.135 176.085,-211.297 161.341,-201.116"/>
<polygon fill="midnightblue" stroke="midnightblue" points="162.964,-197.983 152.746,-195.182 158.986,-203.744 162.964,-197.983"/>
</g>
<!-- Node16&#45;&gt;Node2 -->
<g id="edge36" class="edge"><title>Node16&#45;&gt;Node2</title>
<path fill="none" stroke="midnightblue" d="M288.429,-174.637C291.997,-160.646 299.501,-135.252 311,-116 317.379,-105.321 326.374,-94.8588 334.404,-86.5266"/>
<polygon fill="midnightblue" stroke="midnightblue" points="337.086,-88.7949 341.69,-79.2529 332.14,-83.8408 337.086,-88.7949"/>
</g>
<!-- Node18 -->
<g id="node38" class="node"><title>Node18</title>
<a xlink:href="atomicoperations_8h.html" target="_top" xlink:title="Simple thread safe ways to check and change a specified variable atomically. ">
<polygon fill="white" stroke="black" points="123,-117 123,-137 221,-137 221,-117 123,-117"/>
<text text-anchor="middle" x="172" y="-124" font-family="FreeSans" font-size="10.00">atomicoperations.h</text>
</a>
</g>
<!-- Node17&#45;&gt;Node18 -->
<g id="edge40" class="edge"><title>Node17&#45;&gt;Node18</title>
<path fill="none" stroke="midnightblue" d="M143.922,-174.897C148.546,-167.01 155.105,-155.821 160.721,-146.24"/>
<polygon fill="midnightblue" stroke="midnightblue" points="163.879,-147.775 165.917,-137.378 157.84,-144.235 163.879,-147.775"/>
</g>
<!-- Node18&#45;&gt;Node2 -->
<g id="edge42" class="edge"><title>Node18&#45;&gt;Node2</title>
<path fill="none" stroke="midnightblue" d="M203.528,-116.897C233.543,-107.279 278.887,-92.749 311.76,-82.2152"/>
<polygon fill="midnightblue" stroke="midnightblue" points="313.075,-85.4689 321.53,-79.0842 310.939,-78.8028 313.075,-85.4689"/>
</g>
<!-- Node19&#45;&gt;Node2 -->
<g id="edge46" class="edge"><title>Node19&#45;&gt;Node2</title>
<path fill="none" stroke="midnightblue" d="M505.231,-232.7C532.739,-210.062 591.053,-154.894 560,-116 539.857,-90.7707 450.325,-78.0602 395.819,-72.5504"/>
<polygon fill="midnightblue" stroke="midnightblue" points="396.036,-69.0551 385.745,-71.5733 395.361,-76.0224 396.036,-69.0551"/>
</g>
<!-- Node20&#45;&gt;Node2 -->
<g id="edge50" class="edge"><title>Node20&#45;&gt;Node2</title>
<path fill="none" stroke="midnightblue" d="M376.949,-116.897C373.046,-109.093 367.527,-98.0536 362.77,-88.5401"/>
<polygon fill="midnightblue" stroke="midnightblue" points="365.791,-86.7566 358.189,-79.3776 359.53,-89.8872 365.791,-86.7566"/>
</g>
<!-- Node21&#45;&gt;Node2 -->
<g id="edge56" class="edge"><title>Node21&#45;&gt;Node2</title>
<path fill="none" stroke="midnightblue" d="M590.793,-232.908C596.678,-209.221 607.517,-149.537 578,-116 554.434,-89.2244 454.063,-76.9253 395.646,-71.9412"/>
<polygon fill="midnightblue" stroke="midnightblue" points="395.855,-68.4467 385.603,-71.121 395.285,-75.4234 395.855,-68.4467"/>
</g>
<!-- Node22&#45;&gt;Node2 -->
<g id="edge60" class="edge"><title>Node22&#45;&gt;Node2</title>
<path fill="none" stroke="midnightblue" d="M218.788,-174.909C244.2,-154.856 301.259,-109.83 332.162,-85.4435"/>
<polygon fill="midnightblue" stroke="midnightblue" points="334.455,-88.0929 340.137,-79.1506 330.118,-82.5978 334.455,-88.0929"/>
</g>
<!-- Node22&#45;&gt;Node18 -->
<g id="edge62" class="edge"><title>Node22&#45;&gt;Node18</title>
<path fill="none" stroke="midnightblue" d="M200.078,-174.897C195.454,-167.01 188.895,-155.821 183.279,-146.24"/>
<polygon fill="midnightblue" stroke="midnightblue" points="186.16,-144.235 178.083,-137.378 180.121,-147.775 186.16,-144.235"/>
</g>
<!-- Node23&#45;&gt;Node2 -->
<g id="edge70" class="edge"><title>Node23&#45;&gt;Node2</title>
<path fill="none" stroke="midnightblue" d="M650.656,-290.589C652.034,-258.796 651.447,-162.325 598,-116 568.377,-90.3242 458.138,-77.459 396.109,-72.1257"/>
<polygon fill="midnightblue" stroke="midnightblue" points="396.108,-68.6137 385.853,-71.2747 395.529,-75.5897 396.108,-68.6137"/>
</g>
</g>
</svg>
