<?xml version="1.0" encoding="UTF-8" standalone="no"?>
<!DOCTYPE svg PUBLIC "-//W3C//DTD SVG 1.1//EN"
 "http://www.w3.org/Graphics/SVG/1.1/DTD/svg11.dtd">
<!-- Generated by graphviz version 2.26.3 (20100126.1600)
 -->
<!-- Title: G Pages: 1 -->
<!--zoomable 332 -->
<svg id="main" version="1.1" xmlns="http://www.w3.org/2000/svg" xmlns:xlink="http://www.w3.org/1999/xlink" xml:space="preserve" onload="init(evt)">
        <defs>
                <circle id="rim" cx="0" cy="0" r="7"/>
                <circle id="rim2" cx="0" cy="0" r="3.5"/>
                <g id="zoomPlus">
                        <use xlink:href="#rim" fill="#404040">
                                <set attributeName="fill" to="#808080" begin="zoomplus.mouseover" end="zoomplus.mouseout"/>
                        </use>
                        <path d="M-4,0h8M0,-4v8" fill="none" stroke="white" stroke-width="1.5" pointer-events="none"/>
                </g>
                <g id="zoomMin">
                        <use xlink:href="#rim" fill="#404040">
                                <set attributeName="fill" to="#808080" begin="zoomminus.mouseover" end="zoomminus.mouseout"/>
                        </use>
                        <path d="M-4,0h8" fill="none" stroke="white" stroke-width="1.5" pointer-events="none"/>
                </g>
                <g id="dirArrow">
                        <path fill="none" stroke="white" stroke-width="1.5" d="M0,-3.0v7 M-2.5,-0.5L0,-3.0L2.5,-0.5"/>
                </g>
               <g id="resetDef">
                       <use xlink:href="#rim2" fill="#404040">
                               <set attributeName="fill" to="#808080" begin="reset.mouseover" end="reset.mouseout"/>
                       </use>
               </g>
        </defs>

<script type="text/javascript">
var viewWidth = 935;
var viewHeight = 332;
var sectionId = 'dynsection-1';
</script>
<script xlink:href="svgpan.js"/>
<svg id="graph" class="graph">
<g id="viewport">
<title>G</title>
<polygon fill="white" stroke="white" points="-4,5 -4,-328 932,-328 932,5 -4,5"/>
<!-- Node1 -->
<g id="node1" class="node"><title>Node1</title>
<polygon fill="#bfbfbf" stroke="black" points="165.5,-301 165.5,-323 242.5,-323 242.5,-301 165.5,-301"/>
<text text-anchor="middle" x="204" y="-310" font-family="FreeSans" font-size="10.00">workunitkey.h</text>
</g>
<!-- Node2 -->
<g id="node3" class="node"><title>Node2</title>
<a xlink:href="frameschedulerworkunits_8h.html" target="_top" xlink:title="This defines a number of workunits that are required for doing some tasks that the Framescheduler req...">
<polygon fill="white" stroke="black" points="109,-121 109,-143 245,-143 245,-121 109,-121"/>
<text text-anchor="middle" x="177" y="-130" font-family="FreeSans" font-size="10.00">frameschedulerworkunits.h</text>
</a>
</g>
<!-- Node1&#45;&gt;Node2 -->
<g id="edge2" class="edge"><title>Node1&#45;&gt;Node2</title>
<path fill="none" stroke="midnightblue" d="M175.315,-295.041C164.669,-287.09 153.784,-276.576 148,-264 128.686,-222.006 156.27,-166.476 170.011,-143.111"/>
<polygon fill="midnightblue" stroke="midnightblue" points="173.489,-298.034 183.7,-300.859 177.479,-292.282 173.489,-298.034"/>
</g>
<!-- Node3 -->
<g id="node5" class="node"><title>Node3</title>
<a xlink:href="dagframescheduler_8h.html" target="_top" xlink:title="This is the file that code using this library should include. It includes all the required components...">
<polygon fill="white" stroke="black" points="344,-1 344,-23 456,-23 456,-1 344,-1"/>
<text text-anchor="middle" x="400" y="-10" font-family="FreeSans" font-size="10.00">dagframescheduler.h</text>
</a>
</g>
<!-- Node1&#45;&gt;Node3 -->
<g id="edge10" class="edge"><title>Node1&#45;&gt;Node3</title>
<path fill="none" stroke="midnightblue" d="M155.044,-305.04C94.6877,-293.379 0,-263.665 0,-192 0,-192 0,-192 0,-132 0,-87.3693 30.2484,-80.2907 70,-60 116.731,-36.1467 262.711,-22.0089 343.977,-15.7863"/>
<polygon fill="midnightblue" stroke="midnightblue" points="154.683,-308.532 165.149,-306.888 155.941,-301.646 154.683,-308.532"/>
</g>
<!-- Node6 -->
<g id="node12" class="node"><title>Node6</title>
<a xlink:href="framescheduler_8h.html" target="_top" xlink:title="This file has the Declarations for the main FrameScheduler class.">
<polygon fill="white" stroke="black" points="157,-241 157,-263 251,-263 251,-241 157,-241"/>
<text text-anchor="middle" x="204" y="-250" font-family="FreeSans" font-size="10.00">framescheduler.h</text>
</a>
</g>
<!-- Node1&#45;&gt;Node6 -->
<g id="edge12" class="edge"><title>Node1&#45;&gt;Node6</title>
<path fill="none" stroke="midnightblue" d="M204,-290.918C204,-281.639 204,-271.108 204,-263.343"/>
<polygon fill="midnightblue" stroke="midnightblue" points="200.5,-290.995 204,-300.995 207.5,-290.995 200.5,-290.995"/>
</g>
<!-- Node7 -->
<g id="node14" class="node"><title>Node7</title>
<a xlink:href="workunit_8h.html" target="_top" xlink:title="This file has the definition of the workunit.">
<polygon fill="white" stroke="black" points="369.5,-181 369.5,-203 430.5,-203 430.5,-181 369.5,-181"/>
<text text-anchor="middle" x="400" y="-190" font-family="FreeSans" font-size="10.00">workunit.h</text>
</a>
</g>
<!-- Node1&#45;&gt;Node7 -->
<g id="edge46" class="edge"><title>Node1&#45;&gt;Node7</title>
<path fill="none" stroke="midnightblue" d="M224.494,-294.24C242.943,-278.766 271.199,-256.312 298,-240 322.074,-225.348 351.338,-211.992 372.337,-203.11"/>
<polygon fill="midnightblue" stroke="midnightblue" points="222.109,-291.673 216.747,-300.812 226.637,-297.011 222.109,-291.673"/>
</g>
<!-- Node15 -->
<g id="node39" class="node"><title>Node15</title>
<a xlink:href="workunitkey_8cpp.html" target="_top" xlink:title="This file declares the functionality of the metadata used to sort the iWorkUnits.">
<polygon fill="white" stroke="black" points="307,-241 307,-263 395,-263 395,-241 307,-241"/>
<text text-anchor="middle" x="351" y="-250" font-family="FreeSans" font-size="10.00">workunitkey.cpp</text>
</a>
</g>
<!-- Node1&#45;&gt;Node15 -->
<g id="edge48" class="edge"><title>Node1&#45;&gt;Node15</title>
<path fill="none" stroke="midnightblue" d="M240.434,-297.129C266.311,-286.567 300.491,-272.616 323.96,-263.037"/>
<polygon fill="midnightblue" stroke="midnightblue" points="238.898,-293.976 230.962,-300.995 241.543,-300.457 238.898,-293.976"/>
</g>
<!-- Node2&#45;&gt;Node3 -->
<g id="edge4" class="edge"><title>Node2&#45;&gt;Node3</title>
<path fill="none" stroke="midnightblue" d="M137.895,-116.734C108.531,-103.053 76.3374,-81.8294 95,-60 110.958,-41.3346 260.351,-24.7962 343.972,-16.9038"/>
<polygon fill="midnightblue" stroke="midnightblue" points="136.702,-120.034 147.261,-120.902 139.548,-113.638 136.702,-120.034"/>
</g>
<!-- Node4 -->
<g id="node7" class="node"><title>Node4</title>
<a xlink:href="framescheduler_8cpp.html" target="_top" xlink:title="This is the core object implementation for this algorithm.">
<polygon fill="white" stroke="black" points="268,-61 268,-83 372,-83 372,-61 268,-61"/>
<text text-anchor="middle" x="320" y="-70" font-family="FreeSans" font-size="10.00">framescheduler.cpp</text>
</a>
</g>
<!-- Node2&#45;&gt;Node4 -->
<g id="edge6" class="edge"><title>Node2&#45;&gt;Node4</title>
<path fill="none" stroke="midnightblue" d="M212.744,-117.003C237.791,-106.493 270.722,-92.676 293.454,-83.1383"/>
<polygon fill="midnightblue" stroke="midnightblue" points="211.095,-113.899 203.228,-120.995 213.804,-120.353 211.095,-113.899"/>
</g>
<!-- Node5 -->
<g id="node9" class="node"><title>Node5</title>
<a xlink:href="frameschedulerworkunits_8cpp.html" target="_top" xlink:title="The implementation of any workunits the framescheduler needs to work correctly.">
<polygon fill="white" stroke="black" points="104,-61 104,-83 250,-83 250,-61 104,-61"/>
<text text-anchor="middle" x="177" y="-70" font-family="FreeSans" font-size="10.00">frameschedulerworkunits.cpp</text>
</a>
</g>
<!-- Node2&#45;&gt;Node5 -->
<g id="edge8" class="edge"><title>Node2&#45;&gt;Node5</title>
<path fill="none" stroke="midnightblue" d="M177,-110.918C177,-101.639 177,-91.1082 177,-83.3428"/>
<polygon fill="midnightblue" stroke="midnightblue" points="173.5,-110.995 177,-120.995 180.5,-110.995 173.5,-110.995"/>
</g>
<!-- Node6&#45;&gt;Node3 -->
<g id="edge42" class="edge"><title>Node6&#45;&gt;Node3</title>
<path fill="none" stroke="midnightblue" d="M179.223,-234.79C131.568,-199.662 36.0875,-118.122 86,-60 102.549,-40.7286 257.931,-24.3332 343.729,-16.6566"/>
<polygon fill="midnightblue" stroke="midnightblue" points="177.365,-237.766 187.518,-240.793 181.469,-232.095 177.365,-237.766"/>
</g>
<!-- Node6&#45;&gt;Node4 -->
<g id="edge44" class="edge"><title>Node6&#45;&gt;Node4</title>
<path fill="none" stroke="midnightblue" d="M216.816,-232.114C241.199,-194.278 293.545,-113.051 312.746,-83.2556"/>
<polygon fill="midnightblue" stroke="midnightblue" points="213.731,-230.438 211.256,-240.74 219.615,-234.23 213.731,-230.438"/>
</g>
<!-- Node6&#45;&gt;Node7 -->
<g id="edge14" class="edge"><title>Node6&#45;&gt;Node7</title>
<path fill="none" stroke="midnightblue" d="M249.943,-237.936C286.77,-226.662 337.416,-211.158 369.429,-201.359"/>
<polygon fill="midnightblue" stroke="midnightblue" points="248.487,-234.721 239.949,-240.995 250.536,-241.415 248.487,-234.721"/>
</g>
<!-- Node7&#45;&gt;Node2 -->
<g id="edge28" class="edge"><title>Node7&#45;&gt;Node2</title>
<path fill="none" stroke="midnightblue" d="M359.756,-181.172C319.697,-170.394 258.517,-153.933 218.144,-143.07"/>
<polygon fill="midnightblue" stroke="midnightblue" points="358.894,-184.565 369.46,-183.783 360.713,-177.805 358.894,-184.565"/>
</g>
<!-- Node7&#45;&gt;Node3 -->
<g id="edge38" class="edge"><title>Node7&#45;&gt;Node3</title>
<path fill="none" stroke="midnightblue" d="M431.936,-176.301C475.655,-152.63 545.443,-105.694 515,-60 501.685,-40.0147 478.297,-28.3362 456.073,-21.5183"/>
<polygon fill="midnightblue" stroke="midnightblue" points="430.259,-173.228 423.047,-180.99 433.525,-179.42 430.259,-173.228"/>
</g>
<!-- Node8 -->
<g id="node16" class="node"><title>Node8</title>
<a xlink:href="asynchronousworkunit_8h.html" target="_top" xlink:title="Contains an interface for a kind of WorkUnit that loads or does other work even when the frame schedu...">
<polygon fill="white" stroke="black" points="567.5,-121 567.5,-143 690.5,-143 690.5,-121 567.5,-121"/>
<text text-anchor="middle" x="629" y="-130" font-family="FreeSans" font-size="10.00">asynchronousworkunit.h</text>
</a>
</g>
<!-- Node7&#45;&gt;Node8 -->
<g id="edge16" class="edge"><title>Node7&#45;&gt;Node8</title>
<path fill="none" stroke="midnightblue" d="M440.594,-181.364C481.788,-170.571 545.266,-153.939 586.969,-143.013"/>
<polygon fill="midnightblue" stroke="midnightblue" points="439.67,-177.988 430.884,-183.908 441.445,-184.759 439.67,-177.988"/>
</g>
<!-- Node12 -->
<g id="node27" class="node"><title>Node12</title>
<a xlink:href="monopoly_8h.html" target="_top" xlink:title="Contains an interface for a kind of WorkUnit that consumes time on multiple thread.">
<polygon fill="white" stroke="black" points="366,-121 366,-143 434,-143 434,-121 366,-121"/>
<text text-anchor="middle" x="400" y="-130" font-family="FreeSans" font-size="10.00">monopoly.h</text>
</a>
</g>
<!-- Node7&#45;&gt;Node12 -->
<g id="edge30" class="edge"><title>Node7&#45;&gt;Node12</title>
<path fill="none" stroke="midnightblue" d="M400,-170.918C400,-161.639 400,-151.108 400,-143.343"/>
<polygon fill="midnightblue" stroke="midnightblue" points="396.5,-170.995 400,-180.995 403.5,-170.995 396.5,-170.995"/>
</g>
<!-- Node14 -->
<g id="node34" class="node"><title>Node14</title>
<a xlink:href="workunit_8cpp.html" target="_top" xlink:title="This file has the implementation of the Mezzanine::Threading::DefaultWorkUnit.">
<polygon fill="white" stroke="black" points="707.5,-121 707.5,-143 778.5,-143 778.5,-121 707.5,-121"/>
<text text-anchor="middle" x="743" y="-130" font-family="FreeSans" font-size="10.00">workunit.cpp</text>
</a>
</g>
<!-- Node7&#45;&gt;Node14 -->
<g id="edge40" class="edge"><title>Node7&#45;&gt;Node14</title>
<path fill="none" stroke="midnightblue" d="M440.955,-186.84C498.795,-179.232 607.565,-163.748 699,-144 701.631,-143.432 704.34,-142.803 707.059,-142.139"/>
<polygon fill="midnightblue" stroke="midnightblue" points="440.227,-183.405 430.763,-188.168 441.131,-190.346 440.227,-183.405"/>
</g>
<!-- Node8&#45;&gt;Node3 -->
<g id="edge26" class="edge"><title>Node8&#45;&gt;Node3</title>
<path fill="none" stroke="midnightblue" d="M665.172,-116.482C692.68,-102.525 722.986,-81.038 705,-60 689.042,-41.3346 539.649,-24.7962 456.028,-16.9038"/>
<polygon fill="midnightblue" stroke="midnightblue" points="663.497,-113.404 656.024,-120.915 666.549,-119.703 663.497,-113.404"/>
</g>
<!-- Node9 -->
<g id="node18" class="node"><title>Node9</title>
<a xlink:href="asynchronousfileloadingworkunit_8h.html" target="_top" xlink:title="The declaration of the AsynchronousFileLoadWorkUnit a workunit that loads a listing of files asynchro...">
<polygon fill="white" stroke="black" points="752,-61 752,-83 922,-83 922,-61 752,-61"/>
<text text-anchor="middle" x="837" y="-70" font-family="FreeSans" font-size="10.00">asynchronousfileloadingworkunit.h</text>
</a>
</g>
<!-- Node8&#45;&gt;Node9 -->
<g id="edge18" class="edge"><title>Node8&#45;&gt;Node9</title>
<path fill="none" stroke="midnightblue" d="M677.199,-118.096C714.171,-107.432 764.508,-92.9112 798.74,-83.0366"/>
<polygon fill="midnightblue" stroke="midnightblue" points="675.789,-114.861 667.15,-120.995 677.729,-121.586 675.789,-114.861"/>
</g>
<!-- Node11 -->
<g id="node23" class="node"><title>Node11</title>
<a xlink:href="asynchronousworkunit_8cpp.html" target="_top" xlink:title="Contains very little actually.">
<polygon fill="white" stroke="black" points="562,-61 562,-83 696,-83 696,-61 562,-61"/>
<text text-anchor="middle" x="629" y="-70" font-family="FreeSans" font-size="10.00">asynchronousworkunit.cpp</text>
</a>
</g>
<!-- Node8&#45;&gt;Node11 -->
<g id="edge24" class="edge"><title>Node8&#45;&gt;Node11</title>
<path fill="none" stroke="midnightblue" d="M629,-110.918C629,-101.639 629,-91.1082 629,-83.3428"/>
<polygon fill="midnightblue" stroke="midnightblue" points="625.5,-110.995 629,-120.995 632.5,-110.995 625.5,-110.995"/>
</g>
<!-- Node9&#45;&gt;Node3 -->
<g id="edge22" class="edge"><title>Node9&#45;&gt;Node3</title>
<path fill="none" stroke="midnightblue" d="M746.936,-59.6342C659.522,-47.6323 529.59,-29.7927 456.054,-19.6963"/>
<polygon fill="midnightblue" stroke="midnightblue" points="746.464,-63.1022 756.847,-60.9951 747.417,-56.1673 746.464,-63.1022"/>
</g>
<!-- Node10 -->
<g id="node20" class="node"><title>Node10</title>
<a xlink:href="asynchronousfileloadingworkunit_8cpp.html" target="_top" xlink:title="The implemtation of the AsynchronousFileLoadWorkUnit a workunit that loads a listing of files asynchr...">
<polygon fill="white" stroke="black" points="747,-1 747,-23 927,-23 927,-1 747,-1"/>
<text text-anchor="middle" x="837" y="-10" font-family="FreeSans" font-size="10.00">asynchronousfileloadingworkunit.cpp</text>
</a>
</g>
<!-- Node9&#45;&gt;Node10 -->
<g id="edge20" class="edge"><title>Node9&#45;&gt;Node10</title>
<path fill="none" stroke="midnightblue" d="M837,-50.9183C837,-41.6393 837,-31.1082 837,-23.3428"/>
<polygon fill="midnightblue" stroke="midnightblue" points="833.5,-50.995 837,-60.9951 840.5,-50.9951 833.5,-50.995"/>
</g>
<!-- Node12&#45;&gt;Node3 -->
<g id="edge32" class="edge"><title>Node12&#45;&gt;Node3</title>
<path fill="none" stroke="midnightblue" d="M400,-110.749C400,-85.1002 400,-42.9411 400,-23.0475"/>
<polygon fill="midnightblue" stroke="midnightblue" points="396.5,-110.926 400,-120.926 403.5,-110.926 396.5,-110.926"/>
</g>
<!-- Node12&#45;&gt;Node4 -->
<g id="edge34" class="edge"><title>Node12&#45;&gt;Node4</title>
<path fill="none" stroke="midnightblue" d="M376.965,-114.723C363.411,-104.558 346.668,-92.0008 334.851,-83.1383"/>
<polygon fill="midnightblue" stroke="midnightblue" points="375.227,-117.795 385.327,-120.995 379.427,-112.195 375.227,-117.795"/>
</g>
<!-- Node13 -->
<g id="node31" class="node"><title>Node13</title>
<a xlink:href="monopoly_8cpp.html" target="_top" xlink:title="Contains the minimal implementation for the monopoly base class.">
<polygon fill="white" stroke="black" points="427.5,-61 427.5,-83 506.5,-83 506.5,-61 427.5,-61"/>
<text text-anchor="middle" x="467" y="-70" font-family="FreeSans" font-size="10.00">monopoly.cpp</text>
</a>
</g>
<!-- Node12&#45;&gt;Node13 -->
<g id="edge36" class="edge"><title>Node12&#45;&gt;Node13</title>
<path fill="none" stroke="midnightblue" d="M419.892,-114.186C431.047,-104.197 444.626,-92.0367 454.334,-83.3428"/>
<polygon fill="midnightblue" stroke="midnightblue" points="417.403,-111.717 412.289,-120.995 422.073,-116.931 417.403,-111.717"/>
</g>
</g>
</svg>
        <g id="navigator" transform="translate(0 0)" fill="#404254">
                <rect fill="#f2f5e9" fill-opacity="0.5" stroke="#606060" stroke-width=".5" x="0" y="0" width="60" height="60"/>
                <use id="zoomplus" xlink:href="#zoomPlus" x="17" y="9" onmousedown="handleZoom(evt,'in')"/>
                <use id="zoomminus" xlink:href="#zoomMin" x="42" y="9" onmousedown="handleZoom(evt,'out')"/>
                <use id="reset" xlink:href="#resetDef" x="30" y="36" onmousedown="handleReset()"/>
                <g id="arrowUp" xlink:href="#dirArrow" transform="translate(30 24)" onmousedown="handlePan(0,-1)">
                  <use xlink:href="#rim" fill="#404040">
                        <set attributeName="fill" to="#808080" begin="arrowUp.mouseover" end="arrowUp.mouseout"/>
                  </use>
                  <path fill="none" stroke="white" stroke-width="1.5" d="M0,-3.0v7 M-2.5,-0.5L0,-3.0L2.5,-0.5"/>
                </g>
                <g id="arrowRight" xlink:href="#dirArrow" transform="rotate(90) translate(36 -43)" onmousedown="handlePan(1,0)">
                  <use xlink:href="#rim" fill="#404040">
                        <set attributeName="fill" to="#808080" begin="arrowRight.mouseover" end="arrowRight.mouseout"/>
                  </use>
                  <path fill="none" stroke="white" stroke-width="1.5" d="M0,-3.0v7 M-2.5,-0.5L0,-3.0L2.5,-0.5"/>
                </g>
                <g id="arrowDown" xlink:href="#dirArrow" transform="rotate(180) translate(-30 -48)" onmousedown="handlePan(0,1)">
                  <use xlink:href="#rim" fill="#404040">
                        <set attributeName="fill" to="#808080" begin="arrowDown.mouseover" end="arrowDown.mouseout"/>
                  </use>
                  <path fill="none" stroke="white" stroke-width="1.5" d="M0,-3.0v7 M-2.5,-0.5L0,-3.0L2.5,-0.5"/>
                </g>
                <g id="arrowLeft" xlink:href="#dirArrow" transform="rotate(270) translate(-36 17)" onmousedown="handlePan(-1,0)">
                  <use xlink:href="#rim" fill="#404040">
                        <set attributeName="fill" to="#808080" begin="arrowLeft.mouseover" end="arrowLeft.mouseout"/>
                  </use>
                  <path fill="none" stroke="white" stroke-width="1.5" d="M0,-3.0v7 M-2.5,-0.5L0,-3.0L2.5,-0.5"/>
                </g>
        </g>
</svg>
