<?xml version="1.0" encoding="UTF-8" standalone="no"?>
<!DOCTYPE svg PUBLIC "-//W3C//DTD SVG 1.1//EN"
 "http://www.w3.org/Graphics/SVG/1.1/DTD/svg11.dtd">
<!-- Generated by graphviz version 2.26.3 (20100126.1600)
 -->
<!-- Title: workunit.h Pages: 1 -->
<svg width="842pt" height="204pt"
 viewBox="0.00 0.00 842.00 204.00" xmlns="http://www.w3.org/2000/svg" xmlns:xlink="http://www.w3.org/1999/xlink">
<g id="graph1" class="graph" transform="scale(1 1) rotate(0) translate(4 200)">
<title>workunit.h</title>
<polygon fill="white" stroke="white" points="-4,5 -4,-200 839,-200 839,5 -4,5"/>
<!-- Node1 -->
<g id="node1" class="node"><title>Node1</title>
<polygon fill="#bfbfbf" stroke="black" points="484,-175 484,-195 544,-195 544,-175 484,-175"/>
<text text-anchor="middle" x="514" y="-182" font-family="FreeSans" font-size="10.00">workunit.h</text>
</g>
<!-- Node2 -->
<g id="node3" class="node"><title>Node2</title>
<a xlink:href="asynchronousworkunit_8h.html" target="_top" xlink:title="Contains an interface for a kind of WorkUnit that loads or does other work even when the frame schedu...">
<polygon fill="white" stroke="black" points="180.5,-117 180.5,-137 299.5,-137 299.5,-117 180.5,-117"/>
<text text-anchor="middle" x="240" y="-124" font-family="FreeSans" font-size="10.00">asynchronousworkunit.h</text>
</a>
</g>
<!-- Node1&#45;&gt;Node2 -->
<g id="edge2" class="edge"><title>Node1&#45;&gt;Node2</title>
<path fill="none" stroke="midnightblue" d="M473.877,-176.507C424.369,-166.027 340.293,-148.23 287.58,-137.072"/>
<polygon fill="midnightblue" stroke="midnightblue" points="473.385,-179.98 483.893,-178.627 474.835,-173.132 473.385,-179.98"/>
</g>
<!-- Node5 -->
<g id="node9" class="node"><title>Node5</title>
<a xlink:href="dagframescheduler_8h.html" target="_top" xlink:title="This is the file that code using this library should include. It includes all the required components...">
<polygon fill="white" stroke="black" points="325,-1 325,-21 431,-21 431,-1 325,-1"/>
<text text-anchor="middle" x="378" y="-8" font-family="FreeSans" font-size="10.00">dagframescheduler.h</text>
</a>
</g>
<!-- Node1&#45;&gt;Node5 -->
<g id="edge30" class="edge"><title>Node1&#45;&gt;Node5</title>
<path fill="none" stroke="midnightblue" d="M482.987,-170.159C468.598,-162.139 452.053,-151.17 440,-138 406.705,-101.619 387.472,-44.0759 380.745,-21.0295"/>
<polygon fill="midnightblue" stroke="midnightblue" points="481.592,-173.381 492.063,-174.996 484.884,-167.204 481.592,-173.381"/>
</g>
<!-- Node7 -->
<g id="node14" class="node"><title>Node7</title>
<a xlink:href="frameschedulerworkunits_8h.html" target="_top" xlink:title="This defines a number of workunits that are required for doing some tasks that the Framescheduler req...">
<polygon fill="white" stroke="black" points="448.5,-117 448.5,-137 579.5,-137 579.5,-117 448.5,-117"/>
<text text-anchor="middle" x="514" y="-124" font-family="FreeSans" font-size="10.00">frameschedulerworkunits.h</text>
</a>
</g>
<!-- Node1&#45;&gt;Node7 -->
<g id="edge14" class="edge"><title>Node1&#45;&gt;Node7</title>
<path fill="none" stroke="midnightblue" d="M514,-164.89C514,-155.62 514,-145.008 514,-137.378"/>
<polygon fill="midnightblue" stroke="midnightblue" points="510.5,-164.897 514,-174.897 517.5,-164.897 510.5,-164.897"/>
</g>
<!-- Node10 -->
<g id="node21" class="node"><title>Node10</title>
<a xlink:href="monopoly_8h.html" target="_top" xlink:title="Contains an interface for a kind of WorkUnit that consumes time on multiple thread.">
<polygon fill="white" stroke="black" points="619.5,-117 619.5,-137 684.5,-137 684.5,-117 619.5,-117"/>
<text text-anchor="middle" x="652" y="-124" font-family="FreeSans" font-size="10.00">monopoly.h</text>
</a>
</g>
<!-- Node1&#45;&gt;Node10 -->
<g id="edge22" class="edge"><title>Node1&#45;&gt;Node10</title>
<path fill="none" stroke="midnightblue" d="M547.425,-170.952C572.234,-160.525 605.488,-146.548 627.775,-137.182"/>
<polygon fill="midnightblue" stroke="midnightblue" points="545.901,-167.796 538.038,-174.897 548.613,-174.249 545.901,-167.796"/>
</g>
<!-- Node12 -->
<g id="node28" class="node"><title>Node12</title>
<a xlink:href="workunit_8cpp.html" target="_top" xlink:title="This file has the implementation of the Mezzanine::Threading::DefaultWorkUnit.">
<polygon fill="white" stroke="black" points="701.5,-117 701.5,-137 772.5,-137 772.5,-117 701.5,-117"/>
<text text-anchor="middle" x="737" y="-124" font-family="FreeSans" font-size="10.00">workunit.cpp</text>
</a>
</g>
<!-- Node1&#45;&gt;Node12 -->
<g id="edge32" class="edge"><title>Node1&#45;&gt;Node12</title>
<path fill="none" stroke="midnightblue" d="M553.922,-174.617C595.763,-163.734 660.897,-146.794 701.146,-136.325"/>
<polygon fill="midnightblue" stroke="midnightblue" points="552.872,-171.273 544.075,-177.178 554.634,-178.048 552.872,-171.273"/>
</g>
<!-- Node3 -->
<g id="node5" class="node"><title>Node3</title>
<a xlink:href="asynchronousfileloadingworkunit_8h.html" target="_top" xlink:title="The declaration of the AsynchronousFileLoadWorkUnit a workunit that loads a listing of files asynchro...">
<polygon fill="white" stroke="black" points="5.5,-59 5.5,-79 166.5,-79 166.5,-59 5.5,-59"/>
<text text-anchor="middle" x="86" y="-66" font-family="FreeSans" font-size="10.00">asynchronousfileloadingworkunit.h</text>
</a>
</g>
<!-- Node2&#45;&gt;Node3 -->
<g id="edge4" class="edge"><title>Node2&#45;&gt;Node3</title>
<path fill="none" stroke="midnightblue" d="M203.766,-113.354C175.879,-102.85 137.966,-88.5716 112.775,-79.0842"/>
<polygon fill="midnightblue" stroke="midnightblue" points="202.583,-116.648 213.175,-116.897 205.051,-110.097 202.583,-116.648"/>
</g>
<!-- Node2&#45;&gt;Node5 -->
<g id="edge12" class="edge"><title>Node2&#45;&gt;Node5</title>
<path fill="none" stroke="midnightblue" d="M223.694,-108.871C212.463,-94.1051 201.467,-73.2763 213,-58 226.594,-39.9928 281.885,-26.8383 324.76,-19.0994"/>
<polygon fill="midnightblue" stroke="midnightblue" points="221.123,-111.255 230.166,-116.776 226.539,-106.821 221.123,-111.255"/>
</g>
<!-- Node6 -->
<g id="node11" class="node"><title>Node6</title>
<a xlink:href="asynchronousworkunit_8cpp.html" target="_top" xlink:title="Contains very little actually.">
<polygon fill="white" stroke="black" points="221.5,-59 221.5,-79 350.5,-79 350.5,-59 221.5,-59"/>
<text text-anchor="middle" x="286" y="-66" font-family="FreeSans" font-size="10.00">asynchronousworkunit.cpp</text>
</a>
</g>
<!-- Node2&#45;&gt;Node6 -->
<g id="edge10" class="edge"><title>Node2&#45;&gt;Node6</title>
<path fill="none" stroke="midnightblue" d="M254.291,-108.981C262.007,-99.2522 271.257,-87.5889 277.769,-79.3776"/>
<polygon fill="midnightblue" stroke="midnightblue" points="251.484,-106.887 248.013,-116.897 256.969,-111.237 251.484,-106.887"/>
</g>
<!-- Node4 -->
<g id="node7" class="node"><title>Node4</title>
<a xlink:href="asynchronousfileloadingworkunit_8cpp.html" target="_top" xlink:title="The implementation of the AsynchronousFileLoadWorkUnit a workunit that loads a listing of files async...">
<polygon fill="white" stroke="black" points="0,-1 0,-21 172,-21 172,-1 0,-1"/>
<text text-anchor="middle" x="86" y="-8" font-family="FreeSans" font-size="10.00">asynchronousfileloadingworkunit.cpp</text>
</a>
</g>
<!-- Node3&#45;&gt;Node4 -->
<g id="edge6" class="edge"><title>Node3&#45;&gt;Node4</title>
<path fill="none" stroke="midnightblue" d="M86,-48.8902C86,-39.6201 86,-29.0083 86,-21.3776"/>
<polygon fill="midnightblue" stroke="midnightblue" points="82.5001,-48.8971 86,-58.8972 89.5001,-48.8972 82.5001,-48.8971"/>
</g>
<!-- Node3&#45;&gt;Node5 -->
<g id="edge8" class="edge"><title>Node3&#45;&gt;Node5</title>
<path fill="none" stroke="midnightblue" d="M146.576,-56.9678C200.134,-46.3296 277.349,-30.9923 327.601,-21.0108"/>
<polygon fill="midnightblue" stroke="midnightblue" points="145.656,-53.5821 136.529,-58.9634 147.019,-60.448 145.656,-53.5821"/>
</g>
<!-- Node7&#45;&gt;Node5 -->
<g id="edge16" class="edge"><title>Node7&#45;&gt;Node5</title>
<path fill="none" stroke="midnightblue" d="M483.776,-112.208C468.338,-103.888 449.752,-92.6417 435,-80 413.999,-62.003 394.645,-35.6743 384.801,-21.3011"/>
<polygon fill="midnightblue" stroke="midnightblue" points="482.436,-115.458 492.919,-116.996 485.684,-109.256 482.436,-115.458"/>
</g>
<!-- Node8 -->
<g id="node17" class="node"><title>Node8</title>
<a xlink:href="framescheduler_8cpp.html" target="_top" xlink:title="This is the core object implementation for this algorithm.">
<polygon fill="white" stroke="black" points="601.5,-59 601.5,-79 702.5,-79 702.5,-59 601.5,-59"/>
<text text-anchor="middle" x="652" y="-66" font-family="FreeSans" font-size="10.00">framescheduler.cpp</text>
</a>
</g>
<!-- Node7&#45;&gt;Node8 -->
<g id="edge18" class="edge"><title>Node7&#45;&gt;Node8</title>
<path fill="none" stroke="midnightblue" d="M547.425,-112.952C572.234,-102.525 605.488,-88.5483 627.775,-79.1817"/>
<polygon fill="midnightblue" stroke="midnightblue" points="545.901,-109.796 538.038,-116.897 548.613,-116.249 545.901,-109.796"/>
</g>
<!-- Node9 -->
<g id="node19" class="node"><title>Node9</title>
<a xlink:href="frameschedulerworkunits_8cpp.html" target="_top" xlink:title="The implementation of any workunits the framescheduler needs to work correctly.">
<polygon fill="white" stroke="black" points="443.5,-59 443.5,-79 584.5,-79 584.5,-59 443.5,-59"/>
<text text-anchor="middle" x="514" y="-66" font-family="FreeSans" font-size="10.00">frameschedulerworkunits.cpp</text>
</a>
</g>
<!-- Node7&#45;&gt;Node9 -->
<g id="edge20" class="edge"><title>Node7&#45;&gt;Node9</title>
<path fill="none" stroke="midnightblue" d="M514,-106.89C514,-97.6201 514,-87.0083 514,-79.3776"/>
<polygon fill="midnightblue" stroke="midnightblue" points="510.5,-106.897 514,-116.897 517.5,-106.897 510.5,-106.897"/>
</g>
<!-- Node10&#45;&gt;Node5 -->
<g id="edge24" class="edge"><title>Node10&#45;&gt;Node5</title>
<path fill="none" stroke="midnightblue" d="M680.005,-111.728C702.177,-97.7068 726.97,-76.3819 711,-58 692.931,-37.2019 520.482,-21.5228 431.126,-14.7204"/>
<polygon fill="midnightblue" stroke="midnightblue" points="678.176,-108.744 671.415,-116.902 681.787,-114.74 678.176,-108.744"/>
</g>
<!-- Node10&#45;&gt;Node8 -->
<g id="edge26" class="edge"><title>Node10&#45;&gt;Node8</title>
<path fill="none" stroke="midnightblue" d="M652,-106.89C652,-97.6201 652,-87.0083 652,-79.3776"/>
<polygon fill="midnightblue" stroke="midnightblue" points="648.5,-106.897 652,-116.897 655.5,-106.897 648.5,-106.897"/>
</g>
<!-- Node11 -->
<g id="node25" class="node"><title>Node11</title>
<a xlink:href="monopoly_8cpp.html" target="_top" xlink:title="Contains the minimal implementation for the monopoly base class.">
<polygon fill="white" stroke="black" points="758,-59 758,-79 834,-79 834,-59 758,-59"/>
<text text-anchor="middle" x="796" y="-66" font-family="FreeSans" font-size="10.00">monopoly.cpp</text>
</a>
</g>
<!-- Node10&#45;&gt;Node11 -->
<g id="edge28" class="edge"><title>Node10&#45;&gt;Node11</title>
<path fill="none" stroke="midnightblue" d="M686.536,-113.09C712.459,-102.649 747.363,-88.5898 770.721,-79.1817"/>
<polygon fill="midnightblue" stroke="midnightblue" points="685.051,-109.914 677.083,-116.897 687.666,-116.408 685.051,-109.914"/>
</g>
</g>
</svg>
