<?xml version="1.0" encoding="UTF-8" standalone="no"?>
<!DOCTYPE svg PUBLIC "-//W3C//DTD SVG 1.1//EN"
 "http://www.w3.org/Graphics/SVG/1.1/DTD/svg11.dtd">
<!-- Generated by graphviz version 2.26.3 (20100126.1600)
 -->
<!-- Title: workunitkey.h Pages: 1 -->
<svg width="238pt" height="146pt"
 viewBox="0.00 0.00 238.00 146.00" xmlns="http://www.w3.org/2000/svg" xmlns:xlink="http://www.w3.org/1999/xlink">
<g id="graph1" class="graph" transform="scale(1 1) rotate(0) translate(4 142)">
<title>workunitkey.h</title>
<polygon fill="white" stroke="white" points="-4,5 -4,-142 235,-142 235,5 -4,5"/>
<!-- Node1 -->
<g id="node1" class="node"><title>Node1</title>
<polygon fill="#bfbfbf" stroke="black" points="108.5,-117 108.5,-137 183.5,-137 183.5,-117 108.5,-117"/>
<text text-anchor="middle" x="146" y="-124" font-family="FreeSans" font-size="10.00">workunitkey.h</text>
</g>
<!-- Node2 -->
<g id="node3" class="node"><title>Node2</title>
<a xlink:href="datatypes_8h.html" target="_top" xlink:title="This file declares a few typedefs to allow flexibility, in case a change is required/desired.">
<polygon fill="white" stroke="black" points="113.5,-59 113.5,-79 178.5,-79 178.5,-59 113.5,-59"/>
<text text-anchor="middle" x="146" y="-66" font-family="FreeSans" font-size="10.00">datatypes.h</text>
</a>
</g>
<!-- Node1&#45;&gt;Node2 -->
<g id="edge2" class="edge"><title>Node1&#45;&gt;Node2</title>
<path fill="none" stroke="midnightblue" d="M146,-116.897C146,-109.339 146,-98.7476 146,-89.4458"/>
<polygon fill="midnightblue" stroke="midnightblue" points="149.5,-89.3776 146,-79.3776 142.5,-89.3776 149.5,-89.3776"/>
</g>
<!-- Node3 -->
<g id="node5" class="node"><title>Node3</title>
<a xlink:href="crossplatformexport_8h.html" target="_top" xlink:title="This file determines what features are offered by the compiler that this library can take advantage o...">
<polygon fill="white" stroke="black" points="0,-1 0,-21 108,-21 108,-1 0,-1"/>
<text text-anchor="middle" x="54" y="-8" font-family="FreeSans" font-size="10.00">crossplatformexport.h</text>
</a>
</g>
<!-- Node2&#45;&gt;Node3 -->
<g id="edge4" class="edge"><title>Node2&#45;&gt;Node3</title>
<path fill="none" stroke="midnightblue" d="M129.975,-58.8972C115.814,-49.9698 94.9409,-36.8106 78.6545,-26.5431"/>
<polygon fill="midnightblue" stroke="midnightblue" points="80.4761,-23.554 70.1502,-21.1817 76.7429,-29.4755 80.4761,-23.554"/>
</g>
<!-- Node4 -->
<g id="node7" class="node"><title>Node4</title>
<polygon fill="white" stroke="#bfbfbf" points="126,-1 126,-21 166,-21 166,-1 126,-1"/>
<text text-anchor="middle" x="146" y="-8" font-family="FreeSans" font-size="10.00">string</text>
</g>
<!-- Node2&#45;&gt;Node4 -->
<g id="edge6" class="edge"><title>Node2&#45;&gt;Node4</title>
<path fill="none" stroke="midnightblue" d="M146,-58.8972C146,-51.339 146,-40.7476 146,-31.4458"/>
<polygon fill="midnightblue" stroke="midnightblue" points="149.5,-31.3776 146,-21.3776 142.5,-31.3776 149.5,-31.3776"/>
</g>
<!-- Node5 -->
<g id="node9" class="node"><title>Node5</title>
<polygon fill="white" stroke="#bfbfbf" points="183.5,-1 183.5,-21 230.5,-21 230.5,-1 183.5,-1"/>
<text text-anchor="middle" x="207" y="-8" font-family="FreeSans" font-size="10.00">stdint.h</text>
</g>
<!-- Node2&#45;&gt;Node5 -->
<g id="edge8" class="edge"><title>Node2&#45;&gt;Node5</title>
<path fill="none" stroke="midnightblue" d="M156.625,-58.8972C165.439,-50.5175 178.173,-38.4093 188.633,-28.4638"/>
<polygon fill="midnightblue" stroke="midnightblue" points="191.25,-30.8047 196.086,-21.3776 186.427,-25.7318 191.25,-30.8047"/>
</g>
</g>
</svg>
