<?xml version="1.0" encoding="UTF-8" standalone="no"?>
<!DOCTYPE svg PUBLIC "-//W3C//DTD SVG 1.1//EN"
 "http://www.w3.org/Graphics/SVG/1.1/DTD/svg11.dtd">
<!-- Generated by graphviz version 2.26.3 (20100126.1600)
 -->
<!-- Title: G Pages: 1 -->
<!--zoomable 272 -->
<svg id="main" version="1.1" xmlns="http://www.w3.org/2000/svg" xmlns:xlink="http://www.w3.org/1999/xlink" xml:space="preserve" onload="init(evt)">
        <defs>
                <circle id="rim" cx="0" cy="0" r="7"/>
                <circle id="rim2" cx="0" cy="0" r="3.5"/>
                <g id="zoomPlus">
                        <use xlink:href="#rim" fill="#404040">
                                <set attributeName="fill" to="#808080" begin="zoomplus.mouseover" end="zoomplus.mouseout"/>
                        </use>
                        <path d="M-4,0h8M0,-4v8" fill="none" stroke="white" stroke-width="1.5" pointer-events="none"/>
                </g>
                <g id="zoomMin">
                        <use xlink:href="#rim" fill="#404040">
                                <set attributeName="fill" to="#808080" begin="zoomminus.mouseover" end="zoomminus.mouseout"/>
                        </use>
                        <path d="M-4,0h8" fill="none" stroke="white" stroke-width="1.5" pointer-events="none"/>
                </g>
                <g id="dirArrow">
                        <path fill="none" stroke="white" stroke-width="1.5" d="M0,-3.0v7 M-2.5,-0.5L0,-3.0L2.5,-0.5"/>
                </g>
               <g id="resetDef">
                       <use xlink:href="#rim2" fill="#404040">
                               <set attributeName="fill" to="#808080" begin="reset.mouseover" end="reset.mouseout"/>
                       </use>
               </g>
        </defs>

<script type="text/javascript">
var viewWidth = 678;
var viewHeight = 272;
var sectionId = 'dynsection-1';
</script>
<script xlink:href="svgpan.js"/>
<svg id="graph" class="graph">
<g id="viewport">
<title>G</title>
<polygon fill="white" stroke="white" points="-4,5 -4,-268 675.201,-268 675.201,5 -4,5"/>
<!-- Node1 -->
<g id="node1" class="node"><title>Node1</title>
<polygon fill="#bfbfbf" stroke="black" points="140.701,-241 140.701,-263 217.701,-263 217.701,-241 140.701,-241"/>
<text text-anchor="middle" x="179.201" y="-250" font-family="FreeSans" font-size="10.00">workunitkey.h</text>
</g>
<!-- Node2 -->
<g id="node3" class="node"><title>Node2</title>
<a xlink:href="dagframescheduler_8h.html" target="_top" xlink:title="This is the file that code using this library should include. It includes all the required components...">
<polygon fill="white" stroke="black" points="24.2008,-1 24.2008,-23 136.201,-23 136.201,-1 24.2008,-1"/>
<text text-anchor="middle" x="80.2008" y="-10" font-family="FreeSans" font-size="10.00">dagframescheduler.h</text>
</a>
</g>
<!-- Node1&#45;&gt;Node2 -->
<g id="edge2" class="edge"><title>Node1&#45;&gt;Node2</title>
<path fill="none" stroke="midnightblue" d="M142.063,-236.707C124.239,-228.428 103.132,-217.191 86.2008,-204 35.0459,-164.145 18.0998,-147.113 3.20083,-84 0.750133,-73.6187 -1.97548,-69.3265 3.20083,-60 12.8329,-42.6453 31.6365,-30.7462 48.2501,-23.1365"/>
<polygon fill="midnightblue" stroke="midnightblue" points="141.026,-240.078 151.581,-240.995 143.901,-233.696 141.026,-240.078"/>
</g>
<!-- Node3 -->
<g id="node5" class="node"><title>Node3</title>
<a xlink:href="framescheduler_8h.html" target="_top" xlink:title="This file has the Declarations for the main FrameScheduler class.">
<polygon fill="white" stroke="black" points="95.2008,-181 95.2008,-203 189.201,-203 189.201,-181 95.2008,-181"/>
<text text-anchor="middle" x="142.201" y="-190" font-family="FreeSans" font-size="10.00">framescheduler.h</text>
</a>
</g>
<!-- Node1&#45;&gt;Node3 -->
<g id="edge4" class="edge"><title>Node1&#45;&gt;Node3</title>
<path fill="none" stroke="midnightblue" d="M167.126,-232.419C161.189,-222.792 154.244,-211.53 149.196,-203.343"/>
<polygon fill="midnightblue" stroke="midnightblue" points="164.186,-234.32 172.414,-240.995 170.145,-230.646 164.186,-234.32"/>
</g>
<!-- Node4 -->
<g id="node7" class="node"><title>Node4</title>
<a xlink:href="workunit_8h.html" target="_top" xlink:title="This file has the defintion of the workunit.">
<polygon fill="white" stroke="black" points="186.701,-121 186.701,-143 247.701,-143 247.701,-121 186.701,-121"/>
<text text-anchor="middle" x="217.201" y="-130" font-family="FreeSans" font-size="10.00">workunit.h</text>
</a>
</g>
<!-- Node1&#45;&gt;Node4 -->
<g id="edge36" class="edge"><title>Node1&#45;&gt;Node4</title>
<path fill="none" stroke="midnightblue" d="M188.01,-231.321C191.423,-222.924 195.217,-213.08 198.201,-204 205.142,-182.875 211.333,-157.635 214.648,-143.345"/>
<polygon fill="midnightblue" stroke="midnightblue" points="184.72,-230.118 184.117,-240.696 191.185,-232.802 184.72,-230.118"/>
</g>
<!-- Node13 -->
<g id="node32" class="node"><title>Node13</title>
<a xlink:href="workunitkey_8cpp.html" target="_top" xlink:title="This file declares the functionality of the metadata used to sort workunits.">
<polygon fill="white" stroke="black" points="245.201,-181 245.201,-203 333.201,-203 333.201,-181 245.201,-181"/>
<text text-anchor="middle" x="289.201" y="-190" font-family="FreeSans" font-size="10.00">workunitkey.cpp</text>
</a>
</g>
<!-- Node1&#45;&gt;Node13 -->
<g id="edge38" class="edge"><title>Node1&#45;&gt;Node13</title>
<path fill="none" stroke="midnightblue" d="M208.243,-236.159C227.303,-225.763 251.759,-212.423 268.781,-203.138"/>
<polygon fill="midnightblue" stroke="midnightblue" points="206.479,-233.134 199.377,-240.995 209.831,-239.279 206.479,-233.134"/>
</g>
<!-- Node3&#45;&gt;Node2 -->
<g id="edge32" class="edge"><title>Node3&#45;&gt;Node2</title>
<path fill="none" stroke="midnightblue" d="M109.379,-176.101C77.3529,-158.549 30.57,-126.984 10.2008,-84 5.63304,-74.3609 5.22925,-69.4372 10.2008,-60 19.1292,-43.0518 37.0409,-30.9387 52.5097,-23.1205"/>
<polygon fill="midnightblue" stroke="midnightblue" points="107.919,-179.288 118.392,-180.886 111.201,-173.105 107.919,-179.288"/>
</g>
<!-- Node3&#45;&gt;Node4 -->
<g id="edge6" class="edge"><title>Node3&#45;&gt;Node4</title>
<path fill="none" stroke="midnightblue" d="M163.797,-174.723C176.503,-164.558 192.2,-152.001 203.278,-143.138"/>
<polygon fill="midnightblue" stroke="midnightblue" points="161.579,-172.015 155.957,-180.995 165.952,-177.481 161.579,-172.015"/>
</g>
<!-- Node7 -->
<g id="node14" class="node"><title>Node7</title>
<a xlink:href="framescheduler_8cpp.html" target="_top" xlink:title="This is the core object implementation for this algorithm.">
<polygon fill="white" stroke="black" points="566.201,-1 566.201,-23 670.201,-23 670.201,-1 566.201,-1"/>
<text text-anchor="middle" x="618.201" y="-10" font-family="FreeSans" font-size="10.00">framescheduler.cpp</text>
</a>
</g>
<!-- Node3&#45;&gt;Node7 -->
<g id="edge34" class="edge"><title>Node3&#45;&gt;Node7</title>
<path fill="none" stroke="midnightblue" d="M199.718,-181.609C275.051,-166.628 410.021,-135.015 516.201,-84 551.173,-67.1972 587.107,-38.6908 605.56,-23.0625"/>
<polygon fill="midnightblue" stroke="midnightblue" points="198.634,-178.255 189.494,-183.613 199.98,-185.125 198.634,-178.255"/>
</g>
<!-- Node4&#45;&gt;Node2 -->
<g id="edge28" class="edge"><title>Node4&#45;&gt;Node2</title>
<path fill="none" stroke="midnightblue" d="M201.62,-113.07C188.657,-97.8829 169.301,-76.4573 150.201,-60 133.791,-45.8606 113.146,-32.1325 98.5403,-23.0055"/>
<polygon fill="midnightblue" stroke="midnightblue" points="199.004,-115.398 208.122,-120.795 204.36,-110.891 199.004,-115.398"/>
</g>
<!-- Node5 -->
<g id="node9" class="node"><title>Node5</title>
<a xlink:href="monopoly_8h.html" target="_top" xlink:title="Contains an interface for a kind of WorkUnit that consumes time on multiple thread.">
<polygon fill="white" stroke="black" points="439.201,-61 439.201,-83 507.201,-83 507.201,-61 439.201,-61"/>
<text text-anchor="middle" x="473.201" y="-70" font-family="FreeSans" font-size="10.00">monopoly.h</text>
</a>
</g>
<!-- Node4&#45;&gt;Node5 -->
<g id="edge8" class="edge"><title>Node4&#45;&gt;Node5</title>
<path fill="none" stroke="midnightblue" d="M257.803,-123.488C300.768,-114.332 370.48,-99.052 430.201,-84 433.057,-83.2802 436.012,-82.5097 438.975,-81.7194"/>
<polygon fill="midnightblue" stroke="midnightblue" points="257.059,-120.068 248.004,-125.569 258.513,-126.916 257.059,-120.068"/>
</g>
<!-- Node9 -->
<g id="node18" class="node"><title>Node9</title>
<a xlink:href="asynchronousworkunit_8h.html" target="_top" xlink:title="Contains an interface for a kind of WorkUnit that.">
<polygon fill="white" stroke="black" points="18.7008,-61 18.7008,-83 141.701,-83 141.701,-61 18.7008,-61"/>
<text text-anchor="middle" x="80.2008" y="-70" font-family="FreeSans" font-size="10.00">asynchronousworkunit.h</text>
</a>
</g>
<!-- Node4&#45;&gt;Node9 -->
<g id="edge18" class="edge"><title>Node4&#45;&gt;Node9</title>
<path fill="none" stroke="midnightblue" d="M182.638,-116.863C158.681,-106.371 127.315,-92.6338 105.633,-83.1383"/>
<polygon fill="midnightblue" stroke="midnightblue" points="181.509,-120.189 192.073,-120.995 184.317,-113.777 181.509,-120.189"/>
</g>
<!-- Node10 -->
<g id="node21" class="node"><title>Node10</title>
<a xlink:href="frameschedulerworkunits_8h.html" target="_top" xlink:title="This defines a number of workunits that are required for doing some tasks that the Framescheduler req...">
<polygon fill="white" stroke="black" points="197.201,-61 197.201,-83 333.201,-83 333.201,-61 197.201,-61"/>
<text text-anchor="middle" x="265.201" y="-70" font-family="FreeSans" font-size="10.00">frameschedulerworkunits.h</text>
</a>
</g>
<!-- Node4&#45;&gt;Node10 -->
<g id="edge22" class="edge"><title>Node4&#45;&gt;Node10</title>
<path fill="none" stroke="midnightblue" d="M232.391,-113.013C240.195,-103.258 249.442,-91.6991 256.127,-83.3428"/>
<polygon fill="midnightblue" stroke="midnightblue" points="229.519,-111 226.005,-120.995 234.985,-115.373 229.519,-111"/>
</g>
<!-- Node12 -->
<g id="node27" class="node"><title>Node12</title>
<a xlink:href="workunit_8cpp.html" target="_top" xlink:title="This file has the implementation of the workunit.">
<polygon fill="white" stroke="black" points="350.701,-61 350.701,-83 421.701,-83 421.701,-61 350.701,-61"/>
<text text-anchor="middle" x="386.201" y="-70" font-family="FreeSans" font-size="10.00">workunit.cpp</text>
</a>
</g>
<!-- Node4&#45;&gt;Node12 -->
<g id="edge30" class="edge"><title>Node4&#45;&gt;Node12</title>
<path fill="none" stroke="midnightblue" d="M257.51,-117.689C287.382,-107.083 327.509,-92.8375 354.966,-83.0893"/>
<polygon fill="midnightblue" stroke="midnightblue" points="256.058,-114.49 247.805,-121.134 258.4,-121.087 256.058,-114.49"/>
</g>
<!-- Node5&#45;&gt;Node2 -->
<g id="edge12" class="edge"><title>Node5&#45;&gt;Node2</title>
<path fill="none" stroke="midnightblue" d="M429.027,-59.9769C303.275,-35.2029 268.158,-43.0997 145.201,-24 142.366,-23.5596 139.465,-23.0909 136.538,-22.6034"/>
<polygon fill="midnightblue" stroke="midnightblue" points="428.55,-63.4509 439.043,-61.9807 429.924,-56.5869 428.55,-63.4509"/>
</g>
<!-- Node6 -->
<g id="node11" class="node"><title>Node6</title>
<a xlink:href="asynchronousworkunit_8cpp.html" target="_top" xlink:title="Contains the minimal implementation for the monopoly base class.">
<polygon fill="white" stroke="black" points="414.201,-1 414.201,-23 548.201,-23 548.201,-1 414.201,-1"/>
<text text-anchor="middle" x="481.201" y="-10" font-family="FreeSans" font-size="10.00">asynchronousworkunit.cpp</text>
</a>
</g>
<!-- Node5&#45;&gt;Node6 -->
<g id="edge10" class="edge"><title>Node5&#45;&gt;Node6</title>
<path fill="none" stroke="midnightblue" d="M476.012,-50.9183C477.249,-41.6393 478.653,-31.1082 479.688,-23.3428"/>
<polygon fill="midnightblue" stroke="midnightblue" points="472.521,-50.6202 474.668,-60.9951 479.459,-51.5454 472.521,-50.6202"/>
</g>
<!-- Node5&#45;&gt;Node7 -->
<g id="edge14" class="edge"><title>Node5&#45;&gt;Node7</title>
<path fill="none" stroke="midnightblue" d="M509.108,-57.1418C534.547,-46.6155 568.132,-32.7182 591.283,-23.1383"/>
<polygon fill="midnightblue" stroke="midnightblue" points="507.698,-53.9374 499.796,-60.9951 510.374,-60.4056 507.698,-53.9374"/>
</g>
<!-- Node8 -->
<g id="node16" class="node"><title>Node8</title>
<a xlink:href="monopoly_8cpp.html" target="_top" xlink:title="Contains the minimal implementation for the monopoly base class.">
<polygon fill="white" stroke="black" points="317.701,-1 317.701,-23 396.701,-23 396.701,-1 317.701,-1"/>
<text text-anchor="middle" x="357.201" y="-10" font-family="FreeSans" font-size="10.00">monopoly.cpp</text>
</a>
</g>
<!-- Node5&#45;&gt;Node8 -->
<g id="edge16" class="edge"><title>Node5&#45;&gt;Node8</title>
<path fill="none" stroke="midnightblue" d="M442.848,-56.3002C422.71,-45.8839 396.767,-32.465 378.735,-23.1383"/>
<polygon fill="midnightblue" stroke="midnightblue" points="441.434,-59.5096 451.925,-60.9951 444.65,-53.292 441.434,-59.5096"/>
</g>
<!-- Node9&#45;&gt;Node2 -->
<g id="edge20" class="edge"><title>Node9&#45;&gt;Node2</title>
<path fill="none" stroke="midnightblue" d="M80.2008,-50.9183C80.2008,-41.6393 80.2008,-31.1082 80.2008,-23.3428"/>
<polygon fill="midnightblue" stroke="midnightblue" points="76.7009,-50.995 80.2008,-60.9951 83.7009,-50.9951 76.7009,-50.995"/>
</g>
<!-- Node10&#45;&gt;Node2 -->
<g id="edge24" class="edge"><title>Node10&#45;&gt;Node2</title>
<path fill="none" stroke="midnightblue" d="M221.486,-57.8221C188.684,-47.1837 144.417,-32.8268 114.23,-23.0366"/>
<polygon fill="midnightblue" stroke="midnightblue" points="220.677,-61.2392 231.269,-60.9951 222.837,-54.5807 220.677,-61.2392"/>
</g>
<!-- Node11 -->
<g id="node24" class="node"><title>Node11</title>
<a xlink:href="frameschedulerworkunits_8cpp.html" target="_top" xlink:title="The implementation of any workunits the framescheduler needs to work correctly.">
<polygon fill="white" stroke="black" points="154.201,-1 154.201,-23 300.201,-23 300.201,-1 154.201,-1"/>
<text text-anchor="middle" x="227.201" y="-10" font-family="FreeSans" font-size="10.00">frameschedulerworkunits.cpp</text>
</a>
</g>
<!-- Node10&#45;&gt;Node11 -->
<g id="edge26" class="edge"><title>Node10&#45;&gt;Node11</title>
<path fill="none" stroke="midnightblue" d="M252.8,-52.4194C246.703,-42.7921 239.57,-31.5303 234.385,-23.3428"/>
<polygon fill="midnightblue" stroke="midnightblue" points="249.924,-54.4196 258.231,-60.9951 255.837,-50.6742 249.924,-54.4196"/>
</g>
</g>
</svg>
        <g id="navigator" transform="translate(0 0)" fill="#404254">
                <rect fill="#f2f5e9" fill-opacity="0.5" stroke="#606060" stroke-width=".5" x="0" y="0" width="60" height="60"/>
                <use id="zoomplus" xlink:href="#zoomPlus" x="17" y="9" onmousedown="handleZoom(evt,'in')"/>
                <use id="zoomminus" xlink:href="#zoomMin" x="42" y="9" onmousedown="handleZoom(evt,'out')"/>
                <use id="reset" xlink:href="#resetDef" x="30" y="36" onmousedown="handleReset()"/>
                <g id="arrowUp" xlink:href="#dirArrow" transform="translate(30 24)" onmousedown="handlePan(0,-1)">
                  <use xlink:href="#rim" fill="#404040">
                        <set attributeName="fill" to="#808080" begin="arrowUp.mouseover" end="arrowUp.mouseout"/>
                  </use>
                  <path fill="none" stroke="white" stroke-width="1.5" d="M0,-3.0v7 M-2.5,-0.5L0,-3.0L2.5,-0.5"/>
                </g>
                <g id="arrowRight" xlink:href="#dirArrow" transform="rotate(90) translate(36 -43)" onmousedown="handlePan(1,0)">
                  <use xlink:href="#rim" fill="#404040">
                        <set attributeName="fill" to="#808080" begin="arrowRight.mouseover" end="arrowRight.mouseout"/>
                  </use>
                  <path fill="none" stroke="white" stroke-width="1.5" d="M0,-3.0v7 M-2.5,-0.5L0,-3.0L2.5,-0.5"/>
                </g>
                <g id="arrowDown" xlink:href="#dirArrow" transform="rotate(180) translate(-30 -48)" onmousedown="handlePan(0,1)">
                  <use xlink:href="#rim" fill="#404040">
                        <set attributeName="fill" to="#808080" begin="arrowDown.mouseover" end="arrowDown.mouseout"/>
                  </use>
                  <path fill="none" stroke="white" stroke-width="1.5" d="M0,-3.0v7 M-2.5,-0.5L0,-3.0L2.5,-0.5"/>
                </g>
                <g id="arrowLeft" xlink:href="#dirArrow" transform="rotate(270) translate(-36 17)" onmousedown="handlePan(-1,0)">
                  <use xlink:href="#rim" fill="#404040">
                        <set attributeName="fill" to="#808080" begin="arrowLeft.mouseover" end="arrowLeft.mouseout"/>
                  </use>
                  <path fill="none" stroke="white" stroke-width="1.5" d="M0,-3.0v7 M-2.5,-0.5L0,-3.0L2.5,-0.5"/>
                </g>
        </g>
</svg>
