<?xml version="1.0" encoding="UTF-8" standalone="no"?>
<!DOCTYPE svg PUBLIC "-//W3C//DTD SVG 1.1//EN"
 "http://www.w3.org/Graphics/SVG/1.1/DTD/svg11.dtd">
<!-- Generated by graphviz version 2.26.3 (20100126.1600)
 -->
<!-- Title: G Pages: 1 -->
<!--zoomable 452 -->
<svg id="main" version="1.1" xmlns="http://www.w3.org/2000/svg" xmlns:xlink="http://www.w3.org/1999/xlink" xml:space="preserve" onload="init(evt)">
        <defs>
                <circle id="rim" cx="0" cy="0" r="7"/>
                <circle id="rim2" cx="0" cy="0" r="3.5"/>
                <g id="zoomPlus">
                        <use xlink:href="#rim" fill="#404040">
                                <set attributeName="fill" to="#808080" begin="zoomplus.mouseover" end="zoomplus.mouseout"/>
                        </use>
                        <path d="M-4,0h8M0,-4v8" fill="none" stroke="white" stroke-width="1.5" pointer-events="none"/>
                </g>
                <g id="zoomMin">
                        <use xlink:href="#rim" fill="#404040">
                                <set attributeName="fill" to="#808080" begin="zoomminus.mouseover" end="zoomminus.mouseout"/>
                        </use>
                        <path d="M-4,0h8" fill="none" stroke="white" stroke-width="1.5" pointer-events="none"/>
                </g>
                <g id="dirArrow">
                        <path fill="none" stroke="white" stroke-width="1.5" d="M0,-3.0v7 M-2.5,-0.5L0,-3.0L2.5,-0.5"/>
                </g>
               <g id="resetDef">
                       <use xlink:href="#rim2" fill="#404040">
                               <set attributeName="fill" to="#808080" begin="reset.mouseover" end="reset.mouseout"/>
                       </use>
               </g>
        </defs>

<script type="text/javascript">
var viewWidth = 895;
var viewHeight = 452;
var sectionId = 'dynsection-0';
</script>
<script xlink:href="svgpan.js"/>
<svg id="graph" class="graph">
<g id="viewport">
<title>G</title>
<polygon fill="white" stroke="white" points="-4,5 -4,-448 892,-448 892,5 -4,5"/>
<!-- Node1 -->
<g id="node1" class="node"><title>Node1</title>
<polygon fill="#bfbfbf" stroke="black" points="543.5,-421 543.5,-443 614.5,-443 614.5,-421 543.5,-421"/>
<text text-anchor="middle" x="579" y="-430" font-family="FreeSans" font-size="10.00">workunit.cpp</text>
</g>
<!-- Node2 -->
<g id="node3" class="node"><title>Node2</title>
<a xlink:href="workunit_8h.html" target="_top" xlink:title="This file has the defintion of the workunit.">
<polygon fill="white" stroke="black" points="519.5,-361 519.5,-383 580.5,-383 580.5,-361 519.5,-361"/>
<text text-anchor="middle" x="550" y="-370" font-family="FreeSans" font-size="10.00">workunit.h</text>
</a>
</g>
<!-- Node1&#45;&gt;Node2 -->
<g id="edge2" class="edge"><title>Node1&#45;&gt;Node2</title>
<path fill="none" stroke="midnightblue" d="M573.681,-420.995C569.846,-413.061 564.555,-402.115 559.948,-392.581"/>
<polygon fill="midnightblue" stroke="midnightblue" points="562.985,-390.823 555.482,-383.343 556.683,-393.869 562.985,-390.823"/>
</g>
<!-- Node13 -->
<g id="node27" class="node"><title>Node13</title>
<a xlink:href="systemcalls_8h.html" target="_top" xlink:title="This file defines a minimalistic cross&#45;platform thread that the scheduler uses to schedule tasks...">
<polygon fill="white" stroke="black" points="147.5,-181 147.5,-203 224.5,-203 224.5,-181 147.5,-181"/>
<text text-anchor="middle" x="186" y="-190" font-family="FreeSans" font-size="10.00">systemcalls.h</text>
</a>
</g>
<!-- Node1&#45;&gt;Node13 -->
<g id="edge80" class="edge"><title>Node1&#45;&gt;Node13</title>
<path fill="none" stroke="midnightblue" d="M543.346,-426.38C434.845,-408.442 112.724,-348.722 58,-264 35.6858,-229.454 92.3074,-209.857 137.252,-200.086"/>
<polygon fill="midnightblue" stroke="midnightblue" points="138.121,-203.481 147.21,-198.036 136.709,-196.625 138.121,-203.481"/>
</g>
<!-- Node26 -->
<g id="node67" class="node"><title>Node26</title>
<a xlink:href="atomiccas_8h.html" target="_top" xlink:title="A simple thread safe way to check and change a specified variable atomically.">
<polygon fill="white" stroke="black" points="816.5,-301 816.5,-323 887.5,-323 887.5,-301 816.5,-301"/>
<text text-anchor="middle" x="852" y="-310" font-family="FreeSans" font-size="10.00">atomiccas.h</text>
</a>
</g>
<!-- Node1&#45;&gt;Node26 -->
<g id="edge82" class="edge"><title>Node1&#45;&gt;Node26</title>
<path fill="none" stroke="midnightblue" d="M583.137,-420.99C589.786,-404.887 604.44,-375.18 627,-360 693.242,-315.428 725.099,-341.499 803,-324 804.09,-323.755 805.192,-323.505 806.304,-323.251"/>
<polygon fill="midnightblue" stroke="midnightblue" points="807.504,-326.564 816.443,-320.878 805.909,-319.749 807.504,-326.564"/>
</g>
<!-- Node27 -->
<g id="node70" class="node"><title>Node27</title>
<polygon fill="white" stroke="#bfbfbf" points="636,-361 636,-383 686,-383 686,-361 636,-361"/>
<text text-anchor="middle" x="661" y="-370" font-family="FreeSans" font-size="10.00">cassert</text>
</g>
<!-- Node1&#45;&gt;Node27 -->
<g id="edge86" class="edge"><title>Node1&#45;&gt;Node27</title>
<path fill="none" stroke="midnightblue" d="M594.04,-420.995C606.216,-412.086 623.581,-399.38 637.576,-389.14"/>
<polygon fill="midnightblue" stroke="midnightblue" points="639.774,-391.868 645.778,-383.138 635.64,-386.219 639.774,-391.868"/>
</g>
<!-- Node3 -->
<g id="node5" class="node"><title>Node3</title>
<a xlink:href="datatypes_8h.html" target="_top" xlink:title="This file declares a few typedefs to allow flexibility, in case a change is required/desired.">
<polygon fill="white" stroke="black" points="489,-121 489,-143 557,-143 557,-121 489,-121"/>
<text text-anchor="middle" x="523" y="-130" font-family="FreeSans" font-size="10.00">datatypes.h</text>
</a>
</g>
<!-- Node2&#45;&gt;Node3 -->
<g id="edge4" class="edge"><title>Node2&#45;&gt;Node3</title>
<path fill="none" stroke="midnightblue" d="M580.546,-364.356C586.65,-362.875 593.022,-361.361 599,-360 674.728,-342.761 721.065,-384.31 770,-324 776.721,-315.717 770.88,-310.63 770,-300 767.77,-273.058 775.585,-262.09 760,-240 714.847,-176.001 622.291,-149.164 567.154,-138.499"/>
<polygon fill="midnightblue" stroke="midnightblue" points="567.782,-135.056 557.314,-136.691 566.517,-141.941 567.782,-135.056"/>
</g>
<!-- Node11 -->
<g id="node21" class="node"><title>Node11</title>
<a xlink:href="framescheduler_8h.html" target="_top" xlink:title="This file has the Declarations for the main FrameScheduler class.">
<polygon fill="white" stroke="black" points="270,-301 270,-323 364,-323 364,-301 270,-301"/>
<text text-anchor="middle" x="317" y="-310" font-family="FreeSans" font-size="10.00">framescheduler.h</text>
</a>
</g>
<!-- Node2&#45;&gt;Node11 -->
<g id="edge20" class="edge"><title>Node2&#45;&gt;Node11</title>
<path fill="none" stroke="midnightblue" d="M519.059,-364.032C481.001,-354.232 415.793,-337.44 369.763,-325.587"/>
<polygon fill="midnightblue" stroke="midnightblue" points="370.515,-322.167 359.958,-323.062 368.77,-328.946 370.515,-322.167"/>
</g>
<!-- Node12 -->
<g id="node24" class="node"><title>Node12</title>
<a xlink:href="thread_8h.html" target="_top" xlink:title="This file defines a minimalistic cross&#45;platform thread that the scheduler uses to schedule tasks...">
<polygon fill="white" stroke="black" points="66.5,-241 66.5,-263 119.5,-263 119.5,-241 66.5,-241"/>
<text text-anchor="middle" x="93" y="-250" font-family="FreeSans" font-size="10.00">thread.h</text>
</a>
</g>
<!-- Node2&#45;&gt;Node12 -->
<g id="edge74" class="edge"><title>Node2&#45;&gt;Node12</title>
<path fill="none" stroke="midnightblue" d="M519.085,-369.324C465.612,-364.156 352.768,-350.86 261,-324 211.107,-309.397 156.269,-283.997 123.249,-267.6"/>
<polygon fill="midnightblue" stroke="midnightblue" points="124.642,-264.383 114.134,-263.027 121.503,-270.64 124.642,-264.383"/>
</g>
<!-- Node14 -->
<g id="node30" class="node"><title>Node14</title>
<a xlink:href="mutex_8h.html" target="_top" xlink:title="This file declares and defines a mutex that is a partial implementation.">
<polygon fill="white" stroke="black" points="109.5,-121 109.5,-143 160.5,-143 160.5,-121 109.5,-121"/>
<text text-anchor="middle" x="135" y="-130" font-family="FreeSans" font-size="10.00">mutex.h</text>
</a>
</g>
<!-- Node2&#45;&gt;Node14 -->
<g id="edge64" class="edge"><title>Node2&#45;&gt;Node14</title>
<path fill="none" stroke="midnightblue" d="M519.415,-370.617C419.913,-365.366 108.889,-342.785 58,-264 32.1003,-223.903 80.6408,-174.966 111.779,-149.421"/>
<polygon fill="midnightblue" stroke="midnightblue" points="114.003,-152.124 119.644,-143.156 109.641,-146.648 114.003,-152.124"/>
</g>
<!-- Node16 -->
<g id="node36" class="node"><title>Node16</title>
<polygon fill="white" stroke="#bfbfbf" points="551,-181 551,-203 595,-203 595,-181 551,-181"/>
<text text-anchor="middle" x="573" y="-190" font-family="FreeSans" font-size="10.00">vector</text>
</g>
<!-- Node2&#45;&gt;Node16 -->
<g id="edge78" class="edge"><title>Node2&#45;&gt;Node16</title>
<path fill="none" stroke="midnightblue" d="M550.134,-360.962C550.565,-338.186 552.377,-284.396 560,-240 561.541,-231.026 564.019,-221.299 566.4,-212.963"/>
<polygon fill="midnightblue" stroke="midnightblue" points="569.775,-213.892 569.287,-203.309 563.068,-211.887 569.775,-213.892"/>
</g>
<!-- Node20 -->
<g id="node46" class="node"><title>Node20</title>
<a xlink:href="workunitkey_8h.html" target="_top" xlink:title="This file defines the metadata used to sort workunits.">
<polygon fill="white" stroke="black" points="674.5,-241 674.5,-263 751.5,-263 751.5,-241 674.5,-241"/>
<text text-anchor="middle" x="713" y="-250" font-family="FreeSans" font-size="10.00">workunitkey.h</text>
</a>
</g>
<!-- Node2&#45;&gt;Node20 -->
<g id="edge76" class="edge"><title>Node2&#45;&gt;Node20</title>
<path fill="none" stroke="midnightblue" d="M560.061,-360.832C573.938,-345.83 600.176,-318.879 626,-300 642.763,-287.745 662.998,-276.402 679.733,-267.823"/>
<polygon fill="midnightblue" stroke="midnightblue" points="681.763,-270.72 689.129,-263.105 678.622,-264.465 681.763,-270.72"/>
</g>
<!-- Node24 -->
<g id="node57" class="node"><title>Node24</title>
<a xlink:href="rollingaverage_8h.html" target="_top" xlink:title="This Store the implementation and the declaration of the RollingAverage, BufferedRollingAverage, WeightedRollingAverage and the DefaultRollingAverage.">
<polygon fill="white" stroke="black" points="568.5,-241 568.5,-263 657.5,-263 657.5,-241 568.5,-241"/>
<text text-anchor="middle" x="613" y="-250" font-family="FreeSans" font-size="10.00">rollingaverage.h</text>
</a>
</g>
<!-- Node2&#45;&gt;Node24 -->
<g id="edge66" class="edge"><title>Node2&#45;&gt;Node24</title>
<path fill="none" stroke="midnightblue" d="M555.814,-360.926C566.409,-340.744 589.001,-297.712 602.4,-272.191"/>
<polygon fill="midnightblue" stroke="midnightblue" points="605.651,-273.528 607.2,-263.047 599.453,-270.275 605.651,-273.528"/>
</g>
<!-- Node25 -->
<g id="node61" class="node"><title>Node25</title>
<a xlink:href="threadingenumerations_8h.html" target="_top" xlink:title="Any enumerations the threading library requires are all declared here.">
<polygon fill="white" stroke="black" points="634.5,-301 634.5,-323 761.5,-323 761.5,-301 634.5,-301"/>
<text text-anchor="middle" x="698" y="-310" font-family="FreeSans" font-size="10.00">threadingenumerations.h</text>
</a>
</g>
<!-- Node2&#45;&gt;Node25 -->
<g id="edge72" class="edge"><title>Node2&#45;&gt;Node25</title>
<path fill="none" stroke="midnightblue" d="M577.145,-360.995C600.75,-351.426 635.161,-337.475 661.232,-326.906"/>
<polygon fill="midnightblue" stroke="midnightblue" points="662.824,-330.037 670.776,-323.037 660.194,-323.55 662.824,-330.037"/>
</g>
<!-- Node4 -->
<g id="node7" class="node"><title>Node4</title>
<a xlink:href="compilerthreadcompat_8h.html" target="_top" xlink:title="This file determines what features are offered by the compiler that this library can take advantage o...">
<polygon fill="white" stroke="black" points="73,-61 73,-83 197,-83 197,-61 73,-61"/>
<text text-anchor="middle" x="135" y="-70" font-family="FreeSans" font-size="10.00">compilerthreadcompat.h</text>
</a>
</g>
<!-- Node3&#45;&gt;Node4 -->
<g id="edge6" class="edge"><title>Node3&#45;&gt;Node4</title>
<path fill="none" stroke="midnightblue" d="M488.908,-126.728C426.181,-117.028 291.227,-96.1589 207.284,-83.1779"/>
<polygon fill="midnightblue" stroke="midnightblue" points="207.725,-79.7046 197.308,-81.6352 206.655,-86.6224 207.725,-79.7046"/>
</g>
<!-- Node9 -->
<g id="node17" class="node"><title>Node9</title>
<polygon fill="white" stroke="#bfbfbf" points="328.5,-61 328.5,-83 369.5,-83 369.5,-61 328.5,-61"/>
<text text-anchor="middle" x="349" y="-70" font-family="FreeSans" font-size="10.00">string</text>
</g>
<!-- Node3&#45;&gt;Node9 -->
<g id="edge16" class="edge"><title>Node3&#45;&gt;Node9</title>
<path fill="none" stroke="midnightblue" d="M491.086,-120.995C459.215,-110.005 410.591,-93.2382 379.301,-82.4486"/>
<polygon fill="midnightblue" stroke="midnightblue" points="380.389,-79.1215 369.794,-79.1704 378.107,-85.7392 380.389,-79.1215"/>
</g>
<!-- Node10 -->
<g id="node19" class="node"><title>Node10</title>
<polygon fill="white" stroke="#bfbfbf" points="499.5,-61 499.5,-83 546.5,-83 546.5,-61 499.5,-61"/>
<text text-anchor="middle" x="523" y="-70" font-family="FreeSans" font-size="10.00">stdint.h</text>
</g>
<!-- Node3&#45;&gt;Node10 -->
<g id="edge18" class="edge"><title>Node3&#45;&gt;Node10</title>
<path fill="none" stroke="midnightblue" d="M523,-120.995C523,-113.311 523,-102.803 523,-93.4884"/>
<polygon fill="midnightblue" stroke="midnightblue" points="526.5,-93.3428 523,-83.3428 519.5,-93.3429 526.5,-93.3428"/>
</g>
<!-- Node5 -->
<g id="node9" class="node"><title>Node5</title>
<polygon fill="white" stroke="#bfbfbf" points="0,-1 0,-23 58,-23 58,-1 0,-1"/>
<text text-anchor="middle" x="29" y="-10" font-family="FreeSans" font-size="10.00">pthread.h</text>
</g>
<!-- Node4&#45;&gt;Node5 -->
<g id="edge8" class="edge"><title>Node4&#45;&gt;Node5</title>
<path fill="none" stroke="midnightblue" d="M115.558,-60.9951C99.2987,-51.7917 75.8814,-38.5366 57.5027,-28.1336"/>
<polygon fill="midnightblue" stroke="midnightblue" points="59.1044,-25.0185 48.6777,-23.1383 55.6562,-31.1103 59.1044,-25.0185"/>
</g>
<!-- Node6 -->
<g id="node11" class="node"><title>Node6</title>
<polygon fill="white" stroke="#bfbfbf" points="75.5,-1 75.5,-23 126.5,-23 126.5,-1 75.5,-1"/>
<text text-anchor="middle" x="101" y="-10" font-family="FreeSans" font-size="10.00">signal.h</text>
</g>
<!-- Node4&#45;&gt;Node6 -->
<g id="edge10" class="edge"><title>Node4&#45;&gt;Node6</title>
<path fill="none" stroke="midnightblue" d="M128.764,-60.9951C124.22,-52.9771 117.934,-41.884 112.492,-32.2806"/>
<polygon fill="midnightblue" stroke="midnightblue" points="115.403,-30.3175 107.428,-23.3428 109.313,-33.7686 115.403,-30.3175"/>
</g>
<!-- Node7 -->
<g id="node13" class="node"><title>Node7</title>
<polygon fill="white" stroke="#bfbfbf" points="144,-1 144,-23 196,-23 196,-1 144,-1"/>
<text text-anchor="middle" x="170" y="-10" font-family="FreeSans" font-size="10.00">sched.h</text>
</g>
<!-- Node4&#45;&gt;Node7 -->
<g id="edge12" class="edge"><title>Node4&#45;&gt;Node7</title>
<path fill="none" stroke="midnightblue" d="M141.42,-60.9951C146.145,-52.8936 152.703,-41.6525 158.344,-31.981"/>
<polygon fill="midnightblue" stroke="midnightblue" points="161.368,-33.7442 163.383,-23.3428 155.321,-30.2171 161.368,-33.7442"/>
</g>
<!-- Node8 -->
<g id="node15" class="node"><title>Node8</title>
<polygon fill="white" stroke="#bfbfbf" points="214,-1 214,-23 264,-23 264,-1 214,-1"/>
<text text-anchor="middle" x="239" y="-10" font-family="FreeSans" font-size="10.00">unistd.h</text>
</g>
<!-- Node4&#45;&gt;Node8 -->
<g id="edge14" class="edge"><title>Node4&#45;&gt;Node8</title>
<path fill="none" stroke="midnightblue" d="M154.075,-60.9951C169.955,-51.8337 192.793,-38.6576 210.788,-28.2763"/>
<polygon fill="midnightblue" stroke="midnightblue" points="212.781,-31.1673 219.694,-23.1383 209.283,-25.104 212.781,-31.1673"/>
</g>
<!-- Node11&#45;&gt;Node3 -->
<g id="edge22" class="edge"><title>Node11&#45;&gt;Node3</title>
<path fill="none" stroke="midnightblue" d="M317.112,-300.642C317.995,-275.279 323.758,-213.629 358,-180 375.144,-163.163 436.043,-148.51 478.845,-139.959"/>
<polygon fill="midnightblue" stroke="midnightblue" points="479.615,-143.374 488.758,-138.022 478.272,-136.504 479.615,-143.374"/>
</g>
<!-- Node11&#45;&gt;Node12 -->
<g id="edge24" class="edge"><title>Node11&#45;&gt;Node12</title>
<path fill="none" stroke="midnightblue" d="M269.717,-301.124C233.56,-292.552 182.297,-279.852 129.545,-264.329"/>
<polygon fill="midnightblue" stroke="midnightblue" points="130.263,-260.892 119.681,-261.398 128.27,-267.602 130.263,-260.892"/>
</g>
<!-- Node11&#45;&gt;Node13 -->
<g id="edge56" class="edge"><title>Node11&#45;&gt;Node13</title>
<path fill="none" stroke="midnightblue" d="M316.97,-300.873C316.347,-285.425 313.034,-257.422 298,-240 288.553,-229.052 257.255,-216.108 230.138,-206.422"/>
<polygon fill="midnightblue" stroke="midnightblue" points="230.98,-203.009 220.385,-203.011 228.669,-209.617 230.98,-203.009"/>
</g>
<!-- Node17 -->
<g id="node38" class="node"><title>Node17</title>
<a xlink:href="doublebufferedresource_8h.html" target="_top" xlink:title="This file defines the template double buffered resources that can be attached to a thread...">
<polygon fill="white" stroke="black" points="382.5,-241 382.5,-263 513.5,-263 513.5,-241 382.5,-241"/>
<text text-anchor="middle" x="448" y="-250" font-family="FreeSans" font-size="10.00">doublebufferedresource.h</text>
</a>
</g>
<!-- Node11&#45;&gt;Node17 -->
<g id="edge42" class="edge"><title>Node11&#45;&gt;Node17</title>
<path fill="none" stroke="midnightblue" d="M341.027,-300.995C361.58,-291.582 391.388,-277.929 414.321,-267.426"/>
<polygon fill="midnightblue" stroke="midnightblue" points="416.047,-270.485 423.681,-263.138 413.132,-264.12 416.047,-270.485"/>
</g>
<!-- Node11&#45;&gt;Node20 -->
<g id="edge52" class="edge"><title>Node11&#45;&gt;Node20</title>
<path fill="none" stroke="midnightblue" d="M364.133,-307.233C429.548,-300.24 551.694,-285.822 664.511,-264.151"/>
<polygon fill="midnightblue" stroke="midnightblue" points="665.202,-267.582 674.35,-262.238 663.866,-260.711 665.202,-267.582"/>
</g>
<!-- Node21 -->
<g id="node50" class="node"><title>Node21</title>
<polygon fill="white" stroke="#bfbfbf" points="137,-241 137,-263 173,-263 173,-241 137,-241"/>
<text text-anchor="middle" x="155" y="-250" font-family="FreeSans" font-size="10.00">map</text>
</g>
<!-- Node11&#45;&gt;Node21 -->
<g id="edge58" class="edge"><title>Node11&#45;&gt;Node21</title>
<path fill="none" stroke="midnightblue" d="M283.725,-300.963C258.277,-292.347 222.164,-279.745 182.757,-264.136"/>
<polygon fill="midnightblue" stroke="midnightblue" points="183.804,-260.785 173.219,-260.324 181.206,-267.285 183.804,-260.785"/>
</g>
<!-- Node22 -->
<g id="node52" class="node"><title>Node22</title>
<polygon fill="white" stroke="#bfbfbf" points="191,-241 191,-263 221,-263 221,-241 191,-241"/>
<text text-anchor="middle" x="206" y="-250" font-family="FreeSans" font-size="10.00">set</text>
</g>
<!-- Node11&#45;&gt;Node22 -->
<g id="edge60" class="edge"><title>Node11&#45;&gt;Node22</title>
<path fill="none" stroke="midnightblue" d="M296.641,-300.995C277.923,-290.877 250.147,-275.863 230.28,-265.125"/>
<polygon fill="midnightblue" stroke="midnightblue" points="231.699,-261.913 221.238,-260.237 228.37,-268.071 231.699,-261.913"/>
</g>
<!-- Node23 -->
<g id="node54" class="node"><title>Node23</title>
<polygon fill="white" stroke="#bfbfbf" points="239,-241 239,-263 289,-263 289,-241 239,-241"/>
<text text-anchor="middle" x="264" y="-250" font-family="FreeSans" font-size="10.00">fstream</text>
</g>
<!-- Node11&#45;&gt;Node23 -->
<g id="edge62" class="edge"><title>Node11&#45;&gt;Node23</title>
<path fill="none" stroke="midnightblue" d="M307.279,-300.995C299.901,-292.643 289.576,-280.954 280.861,-271.088"/>
<polygon fill="midnightblue" stroke="midnightblue" points="283.263,-268.52 274.02,-263.343 278.017,-273.155 283.263,-268.52"/>
</g>
<!-- Node12&#45;&gt;Node4 -->
<g id="edge26" class="edge"><title>Node12&#45;&gt;Node4</title>
<path fill="none" stroke="midnightblue" d="M91.6862,-240.996C89.3413,-217.833 85.9844,-162.663 101,-120 104.674,-109.562 111.329,-99.3603 117.784,-91.0652"/>
<polygon fill="midnightblue" stroke="midnightblue" points="120.628,-93.1176 124.304,-83.1809 115.234,-88.6565 120.628,-93.1176"/>
</g>
<!-- Node12&#45;&gt;Node13 -->
<g id="edge28" class="edge"><title>Node12&#45;&gt;Node13</title>
<path fill="none" stroke="midnightblue" d="M110.058,-240.995C124.127,-231.918 144.306,-218.899 160.328,-208.563"/>
<polygon fill="midnightblue" stroke="midnightblue" points="162.23,-211.501 168.736,-203.138 158.435,-205.619 162.23,-211.501"/>
</g>
<!-- Node12&#45;&gt;Node14 -->
<g id="edge32" class="edge"><title>Node12&#45;&gt;Node14</title>
<path fill="none" stroke="midnightblue" d="M96.876,-240.926C103.908,-220.834 118.868,-178.093 127.814,-152.531"/>
<polygon fill="midnightblue" stroke="midnightblue" points="131.133,-153.642 131.133,-143.047 124.526,-151.33 131.133,-153.642"/>
</g>
<!-- Node15 -->
<g id="node34" class="node"><title>Node15</title>
<polygon fill="white" stroke="#bfbfbf" points="241.5,-181 241.5,-203 294.5,-203 294.5,-181 241.5,-181"/>
<text text-anchor="middle" x="268" y="-190" font-family="FreeSans" font-size="10.00">ostream</text>
</g>
<!-- Node12&#45;&gt;Node15 -->
<g id="edge38" class="edge"><title>Node12&#45;&gt;Node15</title>
<path fill="none" stroke="midnightblue" d="M119.579,-242.887C149.474,-232.638 198.204,-215.93 231.618,-204.474"/>
<polygon fill="midnightblue" stroke="midnightblue" points="233.134,-207.654 241.458,-201.1 230.864,-201.032 233.134,-207.654"/>
</g>
<!-- Node12&#45;&gt;Node16 -->
<g id="edge40" class="edge"><title>Node12&#45;&gt;Node16</title>
<path fill="none" stroke="midnightblue" d="M119.57,-242.17C122.391,-241.343 125.237,-240.597 128,-240 292.086,-204.533 337.626,-226.398 504,-204 515.994,-202.385 529.091,-200.212 540.622,-198.159"/>
<polygon fill="midnightblue" stroke="midnightblue" points="541.481,-201.56 550.693,-196.327 540.228,-194.673 541.481,-201.56"/>
</g>
<!-- Node13&#45;&gt;Node3 -->
<g id="edge30" class="edge"><title>Node13&#45;&gt;Node3</title>
<path fill="none" stroke="midnightblue" d="M224.667,-181.847C227.481,-181.195 230.28,-180.571 233,-180 319.51,-161.832 421.721,-146.274 478.778,-138.112"/>
<polygon fill="midnightblue" stroke="midnightblue" points="479.484,-141.547 488.892,-136.675 478.499,-134.617 479.484,-141.547"/>
</g>
<!-- Node14&#45;&gt;Node4 -->
<g id="edge34" class="edge"><title>Node14&#45;&gt;Node4</title>
<path fill="none" stroke="midnightblue" d="M135,-120.995C135,-113.311 135,-102.803 135,-93.4884"/>
<polygon fill="midnightblue" stroke="midnightblue" points="138.5,-93.3428 135,-83.3428 131.5,-93.3429 138.5,-93.3428"/>
</g>
<!-- Node14&#45;&gt;Node9 -->
<g id="edge36" class="edge"><title>Node14&#45;&gt;Node9</title>
<path fill="none" stroke="midnightblue" d="M160.813,-124.763C200.455,-113.648 276.164,-92.4213 318.47,-80.5598"/>
<polygon fill="midnightblue" stroke="midnightblue" points="319.531,-83.8974 328.215,-77.8276 317.641,-77.1573 319.531,-83.8974"/>
</g>
<!-- Node17&#45;&gt;Node3 -->
<g id="edge44" class="edge"><title>Node17&#45;&gt;Node3</title>
<path fill="none" stroke="midnightblue" d="M465.942,-240.904C478.394,-232.304 494.408,-219.296 504,-204 513.727,-188.488 518.507,-168.104 520.836,-152.985"/>
<polygon fill="midnightblue" stroke="midnightblue" points="524.309,-153.421 522.135,-143.052 517.368,-152.514 524.309,-153.421"/>
</g>
<!-- Node17&#45;&gt;Node16 -->
<g id="edge50" class="edge"><title>Node17&#45;&gt;Node16</title>
<path fill="none" stroke="midnightblue" d="M470.927,-240.995C490.696,-231.506 519.44,-217.709 541.391,-207.172"/>
<polygon fill="midnightblue" stroke="midnightblue" points="543.138,-210.216 550.639,-202.733 540.109,-203.905 543.138,-210.216"/>
</g>
<!-- Node18 -->
<g id="node41" class="node"><title>Node18</title>
<polygon fill="white" stroke="#bfbfbf" points="437,-181 437,-203 495,-203 495,-181 437,-181"/>
<text text-anchor="middle" x="466" y="-190" font-family="FreeSans" font-size="10.00">algorithm</text>
</g>
<!-- Node17&#45;&gt;Node18 -->
<g id="edge46" class="edge"><title>Node17&#45;&gt;Node18</title>
<path fill="none" stroke="midnightblue" d="M451.301,-240.995C453.632,-233.228 456.828,-222.574 459.644,-213.185"/>
<polygon fill="midnightblue" stroke="midnightblue" points="463.076,-213.927 462.597,-203.343 456.371,-211.915 463.076,-213.927"/>
</g>
<!-- Node19 -->
<g id="node43" class="node"><title>Node19</title>
<polygon fill="white" stroke="#bfbfbf" points="366.5,-181 366.5,-203 419.5,-203 419.5,-181 366.5,-181"/>
<text text-anchor="middle" x="393" y="-190" font-family="FreeSans" font-size="10.00">sstream</text>
</g>
<!-- Node17&#45;&gt;Node19 -->
<g id="edge48" class="edge"><title>Node17&#45;&gt;Node19</title>
<path fill="none" stroke="midnightblue" d="M437.912,-240.995C430.18,-232.56 419.327,-220.72 410.227,-210.793"/>
<polygon fill="midnightblue" stroke="midnightblue" points="412.735,-208.349 403.398,-203.343 407.575,-213.079 412.735,-208.349"/>
</g>
<!-- Node20&#45;&gt;Node3 -->
<g id="edge54" class="edge"><title>Node20&#45;&gt;Node3</title>
<path fill="none" stroke="midnightblue" d="M700.693,-240.822C683.782,-225.81 652.033,-198.846 622,-180 602.069,-167.493 578.396,-155.908 559.197,-147.254"/>
<polygon fill="midnightblue" stroke="midnightblue" points="560.449,-143.981 549.889,-143.128 557.613,-150.38 560.449,-143.981"/>
</g>
<!-- Node24&#45;&gt;Node3 -->
<g id="edge70" class="edge"><title>Node24&#45;&gt;Node3</title>
<path fill="none" stroke="midnightblue" d="M614.449,-240.99C615.845,-225.929 616.221,-198.65 604,-180 594.577,-165.621 579.226,-154.955 564.407,-147.378"/>
<polygon fill="midnightblue" stroke="midnightblue" points="565.841,-144.185 555.307,-143.054 562.837,-150.507 565.841,-144.185"/>
</g>
<!-- Node24&#45;&gt;Node16 -->
<g id="edge68" class="edge"><title>Node24&#45;&gt;Node16</title>
<path fill="none" stroke="midnightblue" d="M605.663,-240.995C600.207,-232.81 592.614,-221.42 586.122,-211.682"/>
<polygon fill="midnightblue" stroke="midnightblue" points="589.021,-209.722 580.562,-203.343 583.197,-213.605 589.021,-209.722"/>
</g>
<!-- Node26&#45;&gt;Node3 -->
<g id="edge84" class="edge"><title>Node26&#45;&gt;Node3</title>
<path fill="none" stroke="midnightblue" d="M851.423,-300.684C849.455,-274.854 840.814,-211.373 803,-180 767.844,-150.832 636.96,-138.744 567.292,-134.289"/>
<polygon fill="midnightblue" stroke="midnightblue" points="567.263,-130.781 557.068,-133.662 566.835,-137.768 567.263,-130.781"/>
</g>
</g>
</svg>
        <g id="navigator" transform="translate(0 0)" fill="#404254">
                <rect fill="#f2f5e9" fill-opacity="0.5" stroke="#606060" stroke-width=".5" x="0" y="0" width="60" height="60"/>
                <use id="zoomplus" xlink:href="#zoomPlus" x="17" y="9" onmousedown="handleZoom(evt,'in')"/>
                <use id="zoomminus" xlink:href="#zoomMin" x="42" y="9" onmousedown="handleZoom(evt,'out')"/>
                <use id="reset" xlink:href="#resetDef" x="30" y="36" onmousedown="handleReset()"/>
                <g id="arrowUp" xlink:href="#dirArrow" transform="translate(30 24)" onmousedown="handlePan(0,-1)">
                  <use xlink:href="#rim" fill="#404040">
                        <set attributeName="fill" to="#808080" begin="arrowUp.mouseover" end="arrowUp.mouseout"/>
                  </use>
                  <path fill="none" stroke="white" stroke-width="1.5" d="M0,-3.0v7 M-2.5,-0.5L0,-3.0L2.5,-0.5"/>
                </g>
                <g id="arrowRight" xlink:href="#dirArrow" transform="rotate(90) translate(36 -43)" onmousedown="handlePan(1,0)">
                  <use xlink:href="#rim" fill="#404040">
                        <set attributeName="fill" to="#808080" begin="arrowRight.mouseover" end="arrowRight.mouseout"/>
                  </use>
                  <path fill="none" stroke="white" stroke-width="1.5" d="M0,-3.0v7 M-2.5,-0.5L0,-3.0L2.5,-0.5"/>
                </g>
                <g id="arrowDown" xlink:href="#dirArrow" transform="rotate(180) translate(-30 -48)" onmousedown="handlePan(0,1)">
                  <use xlink:href="#rim" fill="#404040">
                        <set attributeName="fill" to="#808080" begin="arrowDown.mouseover" end="arrowDown.mouseout"/>
                  </use>
                  <path fill="none" stroke="white" stroke-width="1.5" d="M0,-3.0v7 M-2.5,-0.5L0,-3.0L2.5,-0.5"/>
                </g>
                <g id="arrowLeft" xlink:href="#dirArrow" transform="rotate(270) translate(-36 17)" onmousedown="handlePan(-1,0)">
                  <use xlink:href="#rim" fill="#404040">
                        <set attributeName="fill" to="#808080" begin="arrowLeft.mouseover" end="arrowLeft.mouseout"/>
                  </use>
                  <path fill="none" stroke="white" stroke-width="1.5" d="M0,-3.0v7 M-2.5,-0.5L0,-3.0L2.5,-0.5"/>
                </g>
        </g>
</svg>
