<?xml version="1.0" encoding="UTF-8" standalone="no"?>
<!DOCTYPE svg PUBLIC "-//W3C//DTD SVG 1.1//EN"
 "http://www.w3.org/Graphics/SVG/1.1/DTD/svg11.dtd">
<!-- Generated by graphviz version 2.26.3 (20100126.1600)
 -->
<!-- Title: workunit.h Pages: 1 -->
<svg width="971pt" height="378pt"
 viewBox="0.00 0.00 971.00 378.00" xmlns="http://www.w3.org/2000/svg" xmlns:xlink="http://www.w3.org/1999/xlink">
<g id="graph1" class="graph" transform="scale(1 1) rotate(0) translate(4 374)">
<title>workunit.h</title>
<polygon fill="white" stroke="white" points="-4,5 -4,-374 968,-374 968,5 -4,5"/>
<!-- Node1 -->
<g id="node1" class="node"><title>Node1</title>
<polygon fill="#bfbfbf" stroke="black" points="568,-349 568,-369 628,-369 628,-349 568,-349"/>
<text text-anchor="middle" x="598" y="-356" font-family="FreeSans" font-size="10.00">workunit.h</text>
</g>
<!-- Node2 -->
<g id="node3" class="node"><title>Node2</title>
<a xlink:href="datatypes_8h.html" target="_top" xlink:title="This file declares a few typedefs to allow flexibility, in case a change is required/desired.">
<polygon fill="white" stroke="black" points="479.5,-117 479.5,-137 544.5,-137 544.5,-117 479.5,-117"/>
<text text-anchor="middle" x="512" y="-124" font-family="FreeSans" font-size="10.00">datatypes.h</text>
</a>
</g>
<!-- Node1&#45;&gt;Node2 -->
<g id="edge2" class="edge"><title>Node1&#45;&gt;Node2</title>
<path fill="none" stroke="midnightblue" d="M594.194,-348.732C580.957,-313.023 536.785,-193.862 519.257,-146.577"/>
<polygon fill="midnightblue" stroke="midnightblue" points="522.52,-145.309 515.762,-137.15 515.956,-147.743 522.52,-145.309"/>
</g>
<!-- Node10 -->
<g id="node19" class="node"><title>Node10</title>
<a xlink:href="framescheduler_8h.html" target="_top" xlink:title="This file has the Declarations for the main FrameScheduler class.">
<polygon fill="white" stroke="black" points="321,-291 321,-311 411,-311 411,-291 321,-291"/>
<text text-anchor="middle" x="366" y="-298" font-family="FreeSans" font-size="10.00">framescheduler.h</text>
</a>
</g>
<!-- Node1&#45;&gt;Node10 -->
<g id="edge18" class="edge"><title>Node1&#45;&gt;Node10</title>
<path fill="none" stroke="midnightblue" d="M567.67,-351.418C529.108,-341.777 462.006,-325.001 415.866,-313.467"/>
<polygon fill="midnightblue" stroke="midnightblue" points="416.618,-310.047 406.068,-311.017 414.92,-316.838 416.618,-310.047"/>
</g>
<!-- Node14 -->
<g id="node29" class="node"><title>Node14</title>
<polygon fill="white" stroke="#bfbfbf" points="615.5,-175 615.5,-195 658.5,-195 658.5,-175 615.5,-175"/>
<text text-anchor="middle" x="637" y="-182" font-family="FreeSans" font-size="10.00">vector</text>
</g>
<!-- Node1&#45;&gt;Node14 -->
<g id="edge96" class="edge"><title>Node1&#45;&gt;Node14</title>
<path fill="none" stroke="midnightblue" d="M608.066,-348.803C624.618,-331.236 656.946,-293.345 669,-254 671.864,-244.651 671.879,-241.344 669,-232 665.764,-221.498 659.291,-211.241 653.008,-203.003"/>
<polygon fill="midnightblue" stroke="midnightblue" points="655.701,-200.767 646.673,-195.223 650.273,-205.187 655.701,-200.767"/>
</g>
<!-- Node15 -->
<g id="node31" class="node"><title>Node15</title>
<a xlink:href="thread_8h.html" target="_top" xlink:title="This file defines a minimalistic cross&#45;platform thread that the scheduler uses to schedule tasks...">
<polygon fill="white" stroke="black" points="753.5,-233 753.5,-253 804.5,-253 804.5,-233 753.5,-233"/>
<text text-anchor="middle" x="779" y="-240" font-family="FreeSans" font-size="10.00">thread.h</text>
</a>
</g>
<!-- Node1&#45;&gt;Node15 -->
<g id="edge92" class="edge"><title>Node1&#45;&gt;Node15</title>
<path fill="none" stroke="midnightblue" d="M628.231,-355.448C659.27,-350.438 707.501,-338.713 740,-312 755.547,-299.221 766.058,-278.524 772.214,-263.126"/>
<polygon fill="midnightblue" stroke="midnightblue" points="775.598,-264.068 775.788,-253.475 769.033,-261.637 775.598,-264.068"/>
</g>
<!-- Node18 -->
<g id="node43" class="node"><title>Node18</title>
<a xlink:href="mutex_8h.html" target="_top" xlink:title="This file declares and defines a mutex that is a partial implementation.">
<polygon fill="white" stroke="black" points="836,-175 836,-195 886,-195 886,-175 836,-175"/>
<text text-anchor="middle" x="861" y="-182" font-family="FreeSans" font-size="10.00">mutex.h</text>
</a>
</g>
<!-- Node1&#45;&gt;Node18 -->
<g id="edge80" class="edge"><title>Node1&#45;&gt;Node18</title>
<path fill="none" stroke="midnightblue" d="M628.138,-355.706C662.948,-350.76 720.829,-338.936 763,-312 805.434,-284.896 836.811,-232.732 851.583,-204.423"/>
<polygon fill="midnightblue" stroke="midnightblue" points="854.876,-205.667 856.264,-195.163 848.629,-202.509 854.876,-205.667"/>
</g>
<!-- Node20 -->
<g id="node50" class="node"><title>Node20</title>
<a xlink:href="workunitkey_8h.html" target="_top" xlink:title="This file defines the metadata used to sort workunits.">
<polygon fill="white" stroke="black" points="-0.5,-233 -0.5,-253 74.5,-253 74.5,-233 -0.5,-233"/>
<text text-anchor="middle" x="37" y="-240" font-family="FreeSans" font-size="10.00">workunitkey.h</text>
</a>
</g>
<!-- Node1&#45;&gt;Node20 -->
<g id="edge94" class="edge"><title>Node1&#45;&gt;Node20</title>
<path fill="none" stroke="midnightblue" d="M567.79,-354.877C515.452,-347.546 404.631,-331.198 312,-312 230.78,-295.167 137.33,-270.598 82.9438,-255.77"/>
<polygon fill="midnightblue" stroke="midnightblue" points="83.8242,-252.382 73.255,-253.119 81.9766,-259.134 83.8242,-252.382"/>
</g>
<!-- Node26 -->
<g id="node67" class="node"><title>Node26</title>
<a xlink:href="rollingaverage_8h.html" target="_top" xlink:title="This stores the implementation and the declaration of the RollingAverage, BufferedRollingAverage, WeightedRollingAverage and the DefaultRollingAverage.">
<polygon fill="white" stroke="black" points="577.5,-233 577.5,-253 660.5,-253 660.5,-233 577.5,-233"/>
<text text-anchor="middle" x="619" y="-240" font-family="FreeSans" font-size="10.00">rollingaverage.h</text>
</a>
</g>
<!-- Node1&#45;&gt;Node26 -->
<g id="edge82" class="edge"><title>Node1&#45;&gt;Node26</title>
<path fill="none" stroke="midnightblue" d="M599.864,-348.706C603.328,-329.568 610.818,-288.198 615.331,-263.265"/>
<polygon fill="midnightblue" stroke="midnightblue" points="618.833,-263.569 617.171,-253.106 611.945,-262.322 618.833,-263.569"/>
</g>
<!-- Node27 -->
<g id="node71" class="node"><title>Node27</title>
<a xlink:href="threadingenumerations_8h.html" target="_top" xlink:title="Any enumerations the threading library requires are all declared here.">
<polygon fill="white" stroke="black" points="429,-291 429,-311 551,-311 551,-291 429,-291"/>
<text text-anchor="middle" x="490" y="-298" font-family="FreeSans" font-size="10.00">threadingenumerations.h</text>
</a>
</g>
<!-- Node1&#45;&gt;Node27 -->
<g id="edge88" class="edge"><title>Node1&#45;&gt;Node27</title>
<path fill="none" stroke="midnightblue" d="M579.188,-348.897C562.257,-339.804 537.151,-326.322 517.886,-315.976"/>
<polygon fill="midnightblue" stroke="midnightblue" points="519.425,-312.829 508.959,-311.182 516.113,-318.996 519.425,-312.829"/>
</g>
<!-- Node3 -->
<g id="node5" class="node"><title>Node3</title>
<a xlink:href="crossplatformexport_8h.html" target="_top" xlink:title="This file determines what features are offered by the compiler that this library can take advantage o...">
<polygon fill="white" stroke="black" points="766,-59 766,-79 874,-79 874,-59 766,-59"/>
<text text-anchor="middle" x="820" y="-66" font-family="FreeSans" font-size="10.00">crossplatformexport.h</text>
</a>
</g>
<!-- Node2&#45;&gt;Node3 -->
<g id="edge4" class="edge"><title>Node2&#45;&gt;Node3</title>
<path fill="none" stroke="midnightblue" d="M544.67,-120.848C595.003,-111.37 692.427,-93.0235 756.845,-80.8929"/>
<polygon fill="midnightblue" stroke="midnightblue" points="757.708,-84.2919 766.888,-79.0017 756.413,-77.4128 757.708,-84.2919"/>
</g>
<!-- Node8 -->
<g id="node15" class="node"><title>Node8</title>
<polygon fill="white" stroke="#bfbfbf" points="593,-59 593,-79 633,-79 633,-59 593,-59"/>
<text text-anchor="middle" x="613" y="-66" font-family="FreeSans" font-size="10.00">string</text>
</g>
<!-- Node2&#45;&gt;Node8 -->
<g id="edge14" class="edge"><title>Node2&#45;&gt;Node8</title>
<path fill="none" stroke="midnightblue" d="M529.593,-116.897C545.283,-107.887 568.479,-94.5665 586.429,-84.2586"/>
<polygon fill="midnightblue" stroke="midnightblue" points="588.341,-87.1967 595.27,-79.1817 584.855,-81.1264 588.341,-87.1967"/>
</g>
<!-- Node9 -->
<g id="node17" class="node"><title>Node9</title>
<polygon fill="white" stroke="#bfbfbf" points="488.5,-59 488.5,-79 535.5,-79 535.5,-59 488.5,-59"/>
<text text-anchor="middle" x="512" y="-66" font-family="FreeSans" font-size="10.00">stdint.h</text>
</g>
<!-- Node2&#45;&gt;Node9 -->
<g id="edge16" class="edge"><title>Node2&#45;&gt;Node9</title>
<path fill="none" stroke="midnightblue" d="M512,-116.897C512,-109.339 512,-98.7476 512,-89.4458"/>
<polygon fill="midnightblue" stroke="midnightblue" points="515.5,-89.3776 512,-79.3776 508.5,-89.3776 515.5,-89.3776"/>
</g>
<!-- Node4 -->
<g id="node7" class="node"><title>Node4</title>
<polygon fill="white" stroke="#bfbfbf" points="749,-1 749,-21 805,-21 805,-1 749,-1"/>
<text text-anchor="middle" x="777" y="-8" font-family="FreeSans" font-size="10.00">pthread.h</text>
</g>
<!-- Node3&#45;&gt;Node4 -->
<g id="edge6" class="edge"><title>Node3&#45;&gt;Node4</title>
<path fill="none" stroke="midnightblue" d="M812.51,-58.8972C806.541,-50.8461 798.02,-39.3532 790.822,-29.6435"/>
<polygon fill="midnightblue" stroke="midnightblue" points="793.461,-27.3263 784.694,-21.3776 787.838,-31.4952 793.461,-27.3263"/>
</g>
<!-- Node5 -->
<g id="node9" class="node"><title>Node5</title>
<polygon fill="white" stroke="#bfbfbf" points="830.5,-1 830.5,-21 879.5,-21 879.5,-1 830.5,-1"/>
<text text-anchor="middle" x="855" y="-8" font-family="FreeSans" font-size="10.00">signal.h</text>
</g>
<!-- Node3&#45;&gt;Node5 -->
<g id="edge8" class="edge"><title>Node3&#45;&gt;Node5</title>
<path fill="none" stroke="midnightblue" d="M826.097,-58.8972C830.905,-50.9283 837.749,-39.5874 843.57,-29.9413"/>
<polygon fill="midnightblue" stroke="midnightblue" points="846.568,-31.7478 848.738,-21.3776 840.574,-28.1311 846.568,-31.7478"/>
</g>
<!-- Node6 -->
<g id="node11" class="node"><title>Node6</title>
<polygon fill="white" stroke="#bfbfbf" points="913,-1 913,-21 963,-21 963,-1 913,-1"/>
<text text-anchor="middle" x="938" y="-8" font-family="FreeSans" font-size="10.00">sched.h</text>
</g>
<!-- Node3&#45;&gt;Node6 -->
<g id="edge10" class="edge"><title>Node3&#45;&gt;Node6</title>
<path fill="none" stroke="midnightblue" d="M840.554,-58.8972C859.221,-49.7218 886.983,-36.0762 908.105,-25.6943"/>
<polygon fill="midnightblue" stroke="midnightblue" points="909.855,-28.734 917.286,-21.1817 906.767,-22.4518 909.855,-28.734"/>
</g>
<!-- Node7 -->
<g id="node13" class="node"><title>Node7</title>
<polygon fill="white" stroke="#bfbfbf" points="677,-1 677,-21 727,-21 727,-1 677,-1"/>
<text text-anchor="middle" x="702" y="-8" font-family="FreeSans" font-size="10.00">unistd.h</text>
</g>
<!-- Node3&#45;&gt;Node7 -->
<g id="edge12" class="edge"><title>Node3&#45;&gt;Node7</title>
<path fill="none" stroke="midnightblue" d="M799.446,-58.8972C780.779,-49.7218 753.017,-36.0762 731.895,-25.6943"/>
<polygon fill="midnightblue" stroke="midnightblue" points="733.233,-22.4518 722.714,-21.1817 730.145,-28.734 733.233,-22.4518"/>
</g>
<!-- Node10&#45;&gt;Node2 -->
<g id="edge20" class="edge"><title>Node10&#45;&gt;Node2</title>
<path fill="none" stroke="midnightblue" d="M396.037,-290.957C414.994,-283.335 438.862,-271.205 455,-254 470.374,-237.609 493.493,-178.008 504.99,-146.629"/>
<polygon fill="midnightblue" stroke="midnightblue" points="508.3,-147.766 508.415,-137.172 501.719,-145.382 508.3,-147.766"/>
</g>
<!-- Node11 -->
<g id="node22" class="node"><title>Node11</title>
<a xlink:href="doublebufferedresource_8h.html" target="_top" xlink:title="This file defines the template double buffered resources that can be attached to a thread...">
<polygon fill="white" stroke="black" points="211.5,-233 211.5,-253 334.5,-253 334.5,-233 211.5,-233"/>
<text text-anchor="middle" x="273" y="-240" font-family="FreeSans" font-size="10.00">doublebufferedresource.h</text>
</a>
</g>
<!-- Node10&#45;&gt;Node11 -->
<g id="edge22" class="edge"><title>Node10&#45;&gt;Node11</title>
<path fill="none" stroke="midnightblue" d="M349.801,-290.897C335.486,-281.97 314.386,-268.811 297.923,-258.543"/>
<polygon fill="midnightblue" stroke="midnightblue" points="299.663,-255.504 289.326,-253.182 295.959,-261.443 299.663,-255.504"/>
</g>
<!-- Node10&#45;&gt;Node15 -->
<g id="edge32" class="edge"><title>Node10&#45;&gt;Node15</title>
<path fill="none" stroke="midnightblue" d="M411.035,-291.567C414.065,-291.012 417.074,-290.484 420,-290 544.656,-269.376 576.79,-270.935 702,-254 715.516,-252.172 730.352,-250.074 743.363,-248.204"/>
<polygon fill="midnightblue" stroke="midnightblue" points="743.95,-251.656 753.347,-246.762 742.949,-244.728 743.95,-251.656"/>
</g>
<!-- Node17 -->
<g id="node40" class="node"><title>Node17</title>
<a xlink:href="systemcalls_8h.html" target="_top" xlink:title="This file defines a minimalistic cross&#45;platform thread that the scheduler uses to schedule tasks...">
<polygon fill="white" stroke="black" points="676,-175 676,-195 750,-195 750,-175 676,-175"/>
<text text-anchor="middle" x="713" y="-182" font-family="FreeSans" font-size="10.00">systemcalls.h</text>
</a>
</g>
<!-- Node10&#45;&gt;Node17 -->
<g id="edge64" class="edge"><title>Node10&#45;&gt;Node17</title>
<path fill="none" stroke="midnightblue" d="M411.045,-291.623C414.072,-291.055 417.078,-290.508 420,-290 530.162,-270.832 575.064,-314.656 669,-254 686.917,-242.431 698.951,-220.703 705.841,-204.71"/>
<polygon fill="midnightblue" stroke="midnightblue" points="709.183,-205.777 709.635,-195.192 702.681,-203.184 709.183,-205.777"/>
</g>
<!-- Node10&#45;&gt;Node20 -->
<g id="edge60" class="edge"><title>Node10&#45;&gt;Node20</title>
<path fill="none" stroke="midnightblue" d="M320.728,-294.483C266.726,-286.487 173.518,-271.987 84.5888,-254.231"/>
<polygon fill="midnightblue" stroke="midnightblue" points="85.1022,-250.764 74.6079,-252.22 83.7199,-257.626 85.1022,-250.764"/>
</g>
<!-- Node21 -->
<g id="node54" class="node"><title>Node21</title>
<a xlink:href="barrier_8h.html" target="_top" xlink:title="The declaration of the Mezzanine::Threading::Barrier Barrier synchronization primitive.">
<polygon fill="white" stroke="black" points="91.5,-233 91.5,-253 142.5,-253 142.5,-233 91.5,-233"/>
<text text-anchor="middle" x="117" y="-240" font-family="FreeSans" font-size="10.00">barrier.h</text>
</a>
</g>
<!-- Node10&#45;&gt;Node21 -->
<g id="edge66" class="edge"><title>Node10&#45;&gt;Node21</title>
<path fill="none" stroke="midnightblue" d="M320.806,-292.456C279.218,-284.296 215.674,-271.077 152.296,-254.188"/>
<polygon fill="midnightblue" stroke="midnightblue" points="153.106,-250.782 142.54,-251.558 151.284,-257.541 153.106,-250.782"/>
</g>
<!-- Node23 -->
<g id="node60" class="node"><title>Node23</title>
<polygon fill="white" stroke="#bfbfbf" points="159.5,-233 159.5,-253 194.5,-253 194.5,-233 159.5,-233"/>
<text text-anchor="middle" x="177" y="-240" font-family="FreeSans" font-size="10.00">map</text>
</g>
<!-- Node10&#45;&gt;Node23 -->
<g id="edge74" class="edge"><title>Node10&#45;&gt;Node23</title>
<path fill="none" stroke="midnightblue" d="M326.389,-290.999C295.265,-282.826 250.706,-270.431 204.156,-254.161"/>
<polygon fill="midnightblue" stroke="midnightblue" points="205.105,-250.784 194.51,-250.744 202.767,-257.383 205.105,-250.784"/>
</g>
<!-- Node24 -->
<g id="node62" class="node"><title>Node24</title>
<polygon fill="white" stroke="#bfbfbf" points="351.5,-233 351.5,-253 380.5,-253 380.5,-233 351.5,-233"/>
<text text-anchor="middle" x="366" y="-240" font-family="FreeSans" font-size="10.00">set</text>
</g>
<!-- Node10&#45;&gt;Node24 -->
<g id="edge76" class="edge"><title>Node10&#45;&gt;Node24</title>
<path fill="none" stroke="midnightblue" d="M366,-290.897C366,-283.339 366,-272.748 366,-263.446"/>
<polygon fill="midnightblue" stroke="midnightblue" points="369.5,-263.378 366,-253.378 362.5,-263.378 369.5,-263.378"/>
</g>
<!-- Node25 -->
<g id="node64" class="node"><title>Node25</title>
<polygon fill="white" stroke="#bfbfbf" points="397.5,-233 397.5,-253 446.5,-253 446.5,-233 397.5,-233"/>
<text text-anchor="middle" x="422" y="-240" font-family="FreeSans" font-size="10.00">fstream</text>
</g>
<!-- Node10&#45;&gt;Node25 -->
<g id="edge78" class="edge"><title>Node10&#45;&gt;Node25</title>
<path fill="none" stroke="midnightblue" d="M375.754,-290.897C383.766,-282.6 395.307,-270.646 404.855,-260.757"/>
<polygon fill="midnightblue" stroke="midnightblue" points="407.552,-263.003 411.98,-253.378 402.516,-258.141 407.552,-263.003"/>
</g>
<!-- Node11&#45;&gt;Node2 -->
<g id="edge24" class="edge"><title>Node11&#45;&gt;Node2</title>
<path fill="none" stroke="midnightblue" d="M299.38,-232.952C322.507,-223.926 356.885,-209.977 386,-196 421.288,-179.059 460.666,-156.955 485.856,-142.387"/>
<polygon fill="midnightblue" stroke="midnightblue" points="487.893,-145.252 494.778,-137.199 484.374,-139.2 487.893,-145.252"/>
</g>
<!-- Node12 -->
<g id="node25" class="node"><title>Node12</title>
<polygon fill="white" stroke="#bfbfbf" points="253,-175 253,-195 309,-195 309,-175 253,-175"/>
<text text-anchor="middle" x="281" y="-182" font-family="FreeSans" font-size="10.00">algorithm</text>
</g>
<!-- Node11&#45;&gt;Node12 -->
<g id="edge26" class="edge"><title>Node11&#45;&gt;Node12</title>
<path fill="none" stroke="midnightblue" d="M274.393,-232.897C275.436,-225.339 276.897,-214.748 278.18,-205.446"/>
<polygon fill="midnightblue" stroke="midnightblue" points="281.669,-205.762 279.569,-195.378 274.735,-204.806 281.669,-205.762"/>
</g>
<!-- Node13 -->
<g id="node27" class="node"><title>Node13</title>
<polygon fill="white" stroke="#bfbfbf" points="327,-175 327,-195 377,-195 377,-175 327,-175"/>
<text text-anchor="middle" x="352" y="-182" font-family="FreeSans" font-size="10.00">sstream</text>
</g>
<!-- Node11&#45;&gt;Node13 -->
<g id="edge28" class="edge"><title>Node11&#45;&gt;Node13</title>
<path fill="none" stroke="midnightblue" d="M286.761,-232.897C298.695,-224.135 316.182,-211.297 330.048,-201.116"/>
<polygon fill="midnightblue" stroke="midnightblue" points="332.142,-203.921 338.132,-195.182 328,-198.278 332.142,-203.921"/>
</g>
<!-- Node11&#45;&gt;Node14 -->
<g id="edge30" class="edge"><title>Node11&#45;&gt;Node14</title>
<path fill="none" stroke="midnightblue" d="M334.748,-233.161C413.008,-220.691 544.962,-199.665 605.242,-190.06"/>
<polygon fill="midnightblue" stroke="midnightblue" points="605.972,-193.488 615.297,-188.458 604.871,-186.575 605.972,-193.488"/>
</g>
<!-- Node15&#45;&gt;Node14 -->
<g id="edge58" class="edge"><title>Node15&#45;&gt;Node14</title>
<path fill="none" stroke="midnightblue" d="M754.265,-232.897C730.309,-223.112 693.906,-208.243 668.021,-197.671"/>
<polygon fill="midnightblue" stroke="midnightblue" points="669.244,-194.39 658.663,-193.848 666.597,-200.87 669.244,-194.39"/>
</g>
<!-- Node16 -->
<g id="node33" class="node"><title>Node16</title>
<a xlink:href="crossplatformincludes_8h.html" target="_top" xlink:title="This file determines what features are offered by the compiler that this library can take advantage o...">
<polygon fill="white" stroke="black" points="802.5,-117 802.5,-137 919.5,-137 919.5,-117 802.5,-117"/>
<text text-anchor="middle" x="861" y="-124" font-family="FreeSans" font-size="10.00">crossplatformincludes.h</text>
</a>
</g>
<!-- Node15&#45;&gt;Node16 -->
<g id="edge34" class="edge"><title>Node15&#45;&gt;Node16</title>
<path fill="none" stroke="midnightblue" d="M804.707,-240.713C832.311,-236.729 874.905,-225.824 895,-196 906.082,-179.554 892.866,-158.97 879.813,-144.583"/>
<polygon fill="midnightblue" stroke="midnightblue" points="882.211,-142.028 872.733,-137.293 877.19,-146.905 882.211,-142.028"/>
</g>
<!-- Node15&#45;&gt;Node17 -->
<g id="edge46" class="edge"><title>Node15&#45;&gt;Node17</title>
<path fill="none" stroke="midnightblue" d="M767.504,-232.897C757.875,-224.435 743.919,-212.172 732.54,-202.172"/>
<polygon fill="midnightblue" stroke="midnightblue" points="734.631,-199.35 724.809,-195.378 730.01,-204.608 734.631,-199.35"/>
</g>
<!-- Node15&#45;&gt;Node18 -->
<g id="edge50" class="edge"><title>Node15&#45;&gt;Node18</title>
<path fill="none" stroke="midnightblue" d="M793.283,-232.897C805.671,-224.135 823.822,-211.297 838.215,-201.116"/>
<polygon fill="midnightblue" stroke="midnightblue" points="840.462,-203.814 846.605,-195.182 836.42,-198.099 840.462,-203.814"/>
</g>
<!-- Node19 -->
<g id="node47" class="node"><title>Node19</title>
<polygon fill="white" stroke="#bfbfbf" points="767.5,-175 767.5,-195 818.5,-195 818.5,-175 767.5,-175"/>
<text text-anchor="middle" x="793" y="-182" font-family="FreeSans" font-size="10.00">ostream</text>
</g>
<!-- Node15&#45;&gt;Node19 -->
<g id="edge56" class="edge"><title>Node15&#45;&gt;Node19</title>
<path fill="none" stroke="midnightblue" d="M781.439,-232.897C783.283,-225.257 785.875,-214.517 788.138,-205.143"/>
<polygon fill="midnightblue" stroke="midnightblue" points="791.551,-205.92 790.495,-195.378 784.746,-204.277 791.551,-205.92"/>
</g>
<!-- Node16&#45;&gt;Node3 -->
<g id="edge36" class="edge"><title>Node16&#45;&gt;Node3</title>
<path fill="none" stroke="midnightblue" d="M853.858,-116.897C848.167,-108.846 840.043,-97.3532 833.179,-87.6435"/>
<polygon fill="midnightblue" stroke="midnightblue" points="835.966,-85.5231 827.336,-79.3776 830.25,-89.5637 835.966,-85.5231"/>
</g>
<!-- Node16&#45;&gt;Node4 -->
<g id="edge38" class="edge"><title>Node16&#45;&gt;Node4</title>
<path fill="none" stroke="midnightblue" d="M811.267,-116.997C790.828,-110.173 769.142,-98.8113 757,-80 747.124,-64.699 755.02,-44.4051 763.629,-29.7917"/>
<polygon fill="midnightblue" stroke="midnightblue" points="766.741,-31.4222 769.208,-21.1185 760.854,-27.6348 766.741,-31.4222"/>
</g>
<!-- Node16&#45;&gt;Node5 -->
<g id="edge40" class="edge"><title>Node16&#45;&gt;Node5</title>
<path fill="none" stroke="midnightblue" d="M868.113,-116.789C876.557,-103.389 888.807,-79.0929 883,-58 880.216,-47.8869 874.623,-37.7525 869.163,-29.4972"/>
<polygon fill="midnightblue" stroke="midnightblue" points="871.841,-27.2227 863.211,-21.0765 866.125,-31.2629 871.841,-27.2227"/>
</g>
<!-- Node16&#45;&gt;Node6 -->
<g id="edge42" class="edge"><title>Node16&#45;&gt;Node6</title>
<path fill="none" stroke="midnightblue" d="M869.366,-116.805C876.904,-107.455 888.129,-93.1094 897,-80 908.167,-63.497 919.651,-43.901 927.614,-29.817"/>
<polygon fill="midnightblue" stroke="midnightblue" points="930.689,-31.4888 932.517,-21.0528 924.58,-28.0712 930.689,-31.4888"/>
</g>
<!-- Node16&#45;&gt;Node7 -->
<g id="edge44" class="edge"><title>Node16&#45;&gt;Node7</title>
<path fill="none" stroke="midnightblue" d="M821.86,-116.975C798.58,-109.577 769.494,-97.6847 748,-80 731.584,-66.4933 718.802,-45.6126 710.923,-30.3578"/>
<polygon fill="midnightblue" stroke="midnightblue" points="714.014,-28.7126 706.464,-21.2796 707.731,-31.7985 714.014,-28.7126"/>
</g>
<!-- Node17&#45;&gt;Node2 -->
<g id="edge48" class="edge"><title>Node17&#45;&gt;Node2</title>
<path fill="none" stroke="midnightblue" d="M677.988,-174.897C643.65,-164.989 591.245,-149.867 554.527,-139.272"/>
<polygon fill="midnightblue" stroke="midnightblue" points="555.194,-135.821 544.615,-136.411 553.253,-142.547 555.194,-135.821"/>
</g>
<!-- Node18&#45;&gt;Node8 -->
<g id="edge54" class="edge"><title>Node18&#45;&gt;Node8</title>
<path fill="none" stroke="midnightblue" d="M839.425,-174.909C794.92,-154.092 692.877,-106.362 642.392,-82.7481"/>
<polygon fill="midnightblue" stroke="midnightblue" points="643.844,-79.5632 633.303,-78.4966 640.878,-85.9039 643.844,-79.5632"/>
</g>
<!-- Node18&#45;&gt;Node16 -->
<g id="edge52" class="edge"><title>Node18&#45;&gt;Node16</title>
<path fill="none" stroke="midnightblue" d="M861,-174.897C861,-167.339 861,-156.748 861,-147.446"/>
<polygon fill="midnightblue" stroke="midnightblue" points="864.5,-147.378 861,-137.378 857.5,-147.378 864.5,-147.378"/>
</g>
<!-- Node20&#45;&gt;Node2 -->
<g id="edge62" class="edge"><title>Node20&#45;&gt;Node2</title>
<path fill="none" stroke="midnightblue" d="M44.5715,-232.92C56.9511,-217.288 83.1561,-187.586 113,-174 175.819,-145.402 379.983,-132.931 469.399,-128.744"/>
<polygon fill="midnightblue" stroke="midnightblue" points="469.634,-132.237 479.464,-128.285 469.315,-125.244 469.634,-132.237"/>
</g>
<!-- Node21&#45;&gt;Node2 -->
<g id="edge68" class="edge"><title>Node21&#45;&gt;Node2</title>
<path fill="none" stroke="midnightblue" d="M115.242,-232.878C113.253,-217.735 112.108,-189.325 128,-174 152.232,-150.632 374.021,-135.039 469.075,-129.375"/>
<polygon fill="midnightblue" stroke="midnightblue" points="469.436,-132.86 479.214,-128.78 469.026,-125.872 469.436,-132.86"/>
</g>
<!-- Node22 -->
<g id="node57" class="node"><title>Node22</title>
<a xlink:href="atomicoperations_8h.html" target="_top" xlink:title="Simple thread safe ways to check and change a specified variable atomically.">
<polygon fill="white" stroke="black" points="137,-175 137,-195 235,-195 235,-175 137,-175"/>
<text text-anchor="middle" x="186" y="-182" font-family="FreeSans" font-size="10.00">atomicoperations.h</text>
</a>
</g>
<!-- Node21&#45;&gt;Node22 -->
<g id="edge70" class="edge"><title>Node21&#45;&gt;Node22</title>
<path fill="none" stroke="midnightblue" d="M129.019,-232.897C139.183,-224.353 153.959,-211.933 165.917,-201.881"/>
<polygon fill="midnightblue" stroke="midnightblue" points="168.251,-204.491 173.654,-195.378 163.747,-199.133 168.251,-204.491"/>
</g>
<!-- Node22&#45;&gt;Node2 -->
<g id="edge72" class="edge"><title>Node22&#45;&gt;Node2</title>
<path fill="none" stroke="midnightblue" d="M235.039,-175.65C238.07,-175.088 241.076,-174.534 244,-174 323.508,-159.489 416.448,-143.381 469.352,-134.292"/>
<polygon fill="midnightblue" stroke="midnightblue" points="470.119,-137.712 479.383,-132.571 468.935,-130.813 470.119,-137.712"/>
</g>
<!-- Node26&#45;&gt;Node2 -->
<g id="edge86" class="edge"><title>Node26&#45;&gt;Node2</title>
<path fill="none" stroke="midnightblue" d="M611.653,-232.752C601.537,-218.892 582.465,-193.646 564,-174 554.103,-163.47 542.199,-152.596 532.279,-143.963"/>
<polygon fill="midnightblue" stroke="midnightblue" points="534.371,-141.146 524.501,-137.295 529.815,-146.461 534.371,-141.146"/>
</g>
<!-- Node26&#45;&gt;Node14 -->
<g id="edge84" class="edge"><title>Node26&#45;&gt;Node14</title>
<path fill="none" stroke="midnightblue" d="M622.135,-232.897C624.506,-225.257 627.84,-214.517 630.749,-205.143"/>
<polygon fill="midnightblue" stroke="midnightblue" points="634.158,-205.966 633.779,-195.378 627.473,-203.891 634.158,-205.966"/>
</g>
<!-- Node27&#45;&gt;Node2 -->
<g id="edge90" class="edge"><title>Node27&#45;&gt;Node2</title>
<path fill="none" stroke="midnightblue" d="M491.278,-290.893C494.802,-263.023 504.708,-184.675 509.432,-147.313"/>
<polygon fill="midnightblue" stroke="midnightblue" points="512.936,-147.495 510.719,-137.135 505.992,-146.617 512.936,-147.495"/>
</g>
</g>
</svg>
