<?xml version="1.0" encoding="UTF-8" standalone="no"?>
<!DOCTYPE svg PUBLIC "-//W3C//DTD SVG 1.1//EN"
 "http://www.w3.org/Graphics/SVG/1.1/DTD/svg11.dtd">
<!-- Generated by graphviz version 2.26.3 (20100126.1600)
 -->
<!-- Title: workunitkey.h Pages: 1 -->
<svg width="908pt" height="320pt"
 viewBox="0.00 0.00 908.00 320.00" xmlns="http://www.w3.org/2000/svg" xmlns:xlink="http://www.w3.org/1999/xlink">
<g id="graph1" class="graph" transform="scale(1 1) rotate(0) translate(4 316)">
<title>workunitkey.h</title>
<polygon fill="white" stroke="white" points="-4,5 -4,-316 905,-316 905,5 -4,5"/>
<!-- Node1 -->
<g id="node1" class="node"><title>Node1</title>
<polygon fill="#bfbfbf" stroke="black" points="162.5,-291 162.5,-311 237.5,-311 237.5,-291 162.5,-291"/>
<text text-anchor="middle" x="200" y="-298" font-family="FreeSans" font-size="10.00">workunitkey.h</text>
</g>
<!-- Node2 -->
<g id="node3" class="node"><title>Node2</title>
<a xlink:href="frameschedulerworkunits_8h.html" target="_top" xlink:title="This defines a number of workunits that are required for doing some tasks that the Framescheduler req...">
<polygon fill="white" stroke="black" points="108.5,-117 108.5,-137 239.5,-137 239.5,-117 108.5,-117"/>
<text text-anchor="middle" x="174" y="-124" font-family="FreeSans" font-size="10.00">frameschedulerworkunits.h</text>
</a>
</g>
<!-- Node1&#45;&gt;Node2 -->
<g id="edge2" class="edge"><title>Node1&#45;&gt;Node2</title>
<path fill="none" stroke="midnightblue" d="M173.453,-285.152C162.835,-277.257 151.771,-266.674 146,-254 127.38,-213.109 154.628,-159.049 167.685,-137.003"/>
<polygon fill="midnightblue" stroke="midnightblue" points="171.547,-288.089 181.763,-290.895 175.527,-282.33 171.547,-288.089"/>
</g>
<!-- Node3 -->
<g id="node5" class="node"><title>Node3</title>
<a xlink:href="dagframescheduler_8h.html" target="_top" xlink:title="This is the file that code using this library should include. It includes all the required components...">
<polygon fill="white" stroke="black" points="337,-1 337,-21 443,-21 443,-1 337,-1"/>
<text text-anchor="middle" x="390" y="-8" font-family="FreeSans" font-size="10.00">dagframescheduler.h</text>
</a>
</g>
<!-- Node1&#45;&gt;Node3 -->
<g id="edge10" class="edge"><title>Node1&#45;&gt;Node3</title>
<path fill="none" stroke="midnightblue" d="M152.484,-294.585C93.335,-283.621 0,-255.198 0,-185 0,-185 0,-185 0,-127 0,-82.9978 31.5463,-77.4834 71,-58 116.676,-35.444 258.639,-21.2045 336.895,-14.857"/>
<polygon fill="midnightblue" stroke="midnightblue" points="151.928,-298.041 162.382,-296.317 153.135,-291.145 151.928,-298.041"/>
</g>
<!-- Node6 -->
<g id="node12" class="node"><title>Node6</title>
<a xlink:href="framescheduler_8h.html" target="_top" xlink:title="This file has the Declarations for the main FrameScheduler class.">
<polygon fill="white" stroke="black" points="155,-233 155,-253 245,-253 245,-233 155,-233"/>
<text text-anchor="middle" x="200" y="-240" font-family="FreeSans" font-size="10.00">framescheduler.h</text>
</a>
</g>
<!-- Node1&#45;&gt;Node6 -->
<g id="edge12" class="edge"><title>Node1&#45;&gt;Node6</title>
<path fill="none" stroke="midnightblue" d="M200,-280.89C200,-271.62 200,-261.008 200,-253.378"/>
<polygon fill="midnightblue" stroke="midnightblue" points="196.5,-280.897 200,-290.897 203.5,-280.897 196.5,-280.897"/>
</g>
<!-- Node7 -->
<g id="node14" class="node"><title>Node7</title>
<a xlink:href="workunit_8h.html" target="_top" xlink:title="This file has the definition of the workunit.">
<polygon fill="white" stroke="black" points="360,-175 360,-195 420,-195 420,-175 360,-175"/>
<text text-anchor="middle" x="390" y="-182" font-family="FreeSans" font-size="10.00">workunit.h</text>
</a>
</g>
<!-- Node1&#45;&gt;Node7 -->
<g id="edge46" class="edge"><title>Node1&#45;&gt;Node7</title>
<path fill="none" stroke="midnightblue" d="M220.023,-284.165C238.134,-269.388 265.889,-247.842 292,-232 316.037,-217.416 345.292,-203.887 365.548,-195.125"/>
<polygon fill="midnightblue" stroke="midnightblue" points="217.442,-281.757 211.956,-290.821 221.897,-287.156 217.442,-281.757"/>
</g>
<!-- Node15 -->
<g id="node39" class="node"><title>Node15</title>
<a xlink:href="workunitkey_8cpp.html" target="_top" xlink:title="This file declares the functionality of the metadata used to sort the iWorkUnits.">
<polygon fill="white" stroke="black" points="301,-233 301,-253 387,-253 387,-233 301,-233"/>
<text text-anchor="middle" x="344" y="-240" font-family="FreeSans" font-size="10.00">workunitkey.cpp</text>
</a>
</g>
<!-- Node1&#45;&gt;Node15 -->
<g id="edge48" class="edge"><title>Node1&#45;&gt;Node15</title>
<path fill="none" stroke="midnightblue" d="M234.536,-287.09C260.459,-276.649 295.363,-262.59 318.721,-253.182"/>
<polygon fill="midnightblue" stroke="midnightblue" points="233.051,-283.914 225.083,-290.897 235.666,-290.408 233.051,-283.914"/>
</g>
<!-- Node2&#45;&gt;Node3 -->
<g id="edge4" class="edge"><title>Node2&#45;&gt;Node3</title>
<path fill="none" stroke="midnightblue" d="M137.245,-112.819C108.742,-99.7503 76.8934,-79.2198 95,-58 110.485,-39.8526 256.108,-23.5118 336.796,-15.7556"/>
<polygon fill="midnightblue" stroke="midnightblue" points="136.141,-116.156 146.706,-116.955 138.945,-109.742 136.141,-116.156"/>
</g>
<!-- Node4 -->
<g id="node7" class="node"><title>Node4</title>
<a xlink:href="framescheduler_8cpp.html" target="_top" xlink:title="This is the core object implementation for this algorithm.">
<polygon fill="white" stroke="black" points="261.5,-59 261.5,-79 362.5,-79 362.5,-59 261.5,-59"/>
<text text-anchor="middle" x="312" y="-66" font-family="FreeSans" font-size="10.00">framescheduler.cpp</text>
</a>
</g>
<!-- Node2&#45;&gt;Node4 -->
<g id="edge6" class="edge"><title>Node2&#45;&gt;Node4</title>
<path fill="none" stroke="midnightblue" d="M207.425,-112.952C232.234,-102.525 265.488,-88.5483 287.775,-79.1817"/>
<polygon fill="midnightblue" stroke="midnightblue" points="205.901,-109.796 198.038,-116.897 208.613,-116.249 205.901,-109.796"/>
</g>
<!-- Node5 -->
<g id="node9" class="node"><title>Node5</title>
<a xlink:href="frameschedulerworkunits_8cpp.html" target="_top" xlink:title="The implementation of any workunits the framescheduler needs to work correctly.">
<polygon fill="white" stroke="black" points="103.5,-59 103.5,-79 244.5,-79 244.5,-59 103.5,-59"/>
<text text-anchor="middle" x="174" y="-66" font-family="FreeSans" font-size="10.00">frameschedulerworkunits.cpp</text>
</a>
</g>
<!-- Node2&#45;&gt;Node5 -->
<g id="edge8" class="edge"><title>Node2&#45;&gt;Node5</title>
<path fill="none" stroke="midnightblue" d="M174,-106.89C174,-97.6201 174,-87.0083 174,-79.3776"/>
<polygon fill="midnightblue" stroke="midnightblue" points="170.5,-106.897 174,-116.897 177.5,-106.897 170.5,-106.897"/>
</g>
<!-- Node6&#45;&gt;Node3 -->
<g id="edge42" class="edge"><title>Node6&#45;&gt;Node3</title>
<path fill="none" stroke="midnightblue" d="M176.789,-226.947C131.037,-193.413 37.6736,-114.372 86,-58 102.098,-39.2225 254.086,-23.0097 336.865,-15.4826"/>
<polygon fill="midnightblue" stroke="midnightblue" points="174.829,-229.849 184.991,-232.845 178.916,-224.165 174.829,-229.849"/>
</g>
<!-- Node6&#45;&gt;Node4 -->
<g id="edge44" class="edge"><title>Node6&#45;&gt;Node4</title>
<path fill="none" stroke="midnightblue" d="M212.132,-224.152C235.773,-187.424 287.283,-107.399 305.476,-79.135"/>
<polygon fill="midnightblue" stroke="midnightblue" points="208.975,-222.59 206.506,-232.893 214.861,-226.379 208.975,-222.59"/>
</g>
<!-- Node6&#45;&gt;Node7 -->
<g id="edge14" class="edge"><title>Node6&#45;&gt;Node7</title>
<path fill="none" stroke="midnightblue" d="M242.737,-229.954C278.353,-219.082 328.199,-203.866 359.789,-194.222"/>
<polygon fill="midnightblue" stroke="midnightblue" points="241.638,-226.63 233.095,-232.897 243.682,-233.325 241.638,-226.63"/>
</g>
<!-- Node7&#45;&gt;Node2 -->
<g id="edge28" class="edge"><title>Node7&#45;&gt;Node2</title>
<path fill="none" stroke="midnightblue" d="M350.111,-174.289C310.465,-163.643 250.131,-147.443 211.385,-137.039"/>
<polygon fill="midnightblue" stroke="midnightblue" points="349.401,-177.722 359.966,-176.935 351.216,-170.962 349.401,-177.722"/>
</g>
<!-- Node7&#45;&gt;Node3 -->
<g id="edge38" class="edge"><title>Node7&#45;&gt;Node3</title>
<path fill="none" stroke="midnightblue" d="M420.572,-170.378C463.372,-147.858 532.755,-102.602 503,-58 489.499,-37.762 465.47,-26.2253 443.031,-19.6549"/>
<polygon fill="midnightblue" stroke="midnightblue" points="418.935,-167.284 411.63,-174.959 422.126,-173.514 418.935,-167.284"/>
</g>
<!-- Node8 -->
<g id="node16" class="node"><title>Node8</title>
<a xlink:href="asynchronousworkunit_8h.html" target="_top" xlink:title="Contains an interface for a kind of WorkUnit that loads or does other work even when the frame schedu...">
<polygon fill="white" stroke="black" points="554.5,-117 554.5,-137 673.5,-137 673.5,-117 554.5,-117"/>
<text text-anchor="middle" x="614" y="-124" font-family="FreeSans" font-size="10.00">asynchronousworkunit.h</text>
</a>
</g>
<!-- Node7&#45;&gt;Node8 -->
<g id="edge16" class="edge"><title>Node7&#45;&gt;Node8</title>
<path fill="none" stroke="midnightblue" d="M430.15,-174.604C471.251,-163.962 534.693,-147.535 575.27,-137.028"/>
<polygon fill="midnightblue" stroke="midnightblue" points="429.013,-171.283 420.21,-177.178 430.768,-178.059 429.013,-171.283"/>
</g>
<!-- Node12 -->
<g id="node27" class="node"><title>Node12</title>
<a xlink:href="monopoly_8h.html" target="_top" xlink:title="Contains an interface for a kind of WorkUnit that consumes time on multiple thread.">
<polygon fill="white" stroke="black" points="357.5,-117 357.5,-137 422.5,-137 422.5,-117 357.5,-117"/>
<text text-anchor="middle" x="390" y="-124" font-family="FreeSans" font-size="10.00">monopoly.h</text>
</a>
</g>
<!-- Node7&#45;&gt;Node12 -->
<g id="edge30" class="edge"><title>Node7&#45;&gt;Node12</title>
<path fill="none" stroke="midnightblue" d="M390,-164.89C390,-155.62 390,-145.008 390,-137.378"/>
<polygon fill="midnightblue" stroke="midnightblue" points="386.5,-164.897 390,-174.897 393.5,-164.897 386.5,-164.897"/>
</g>
<!-- Node14 -->
<g id="node34" class="node"><title>Node14</title>
<a xlink:href="workunit_8cpp.html" target="_top" xlink:title="This file has the implementation of the Mezzanine::Threading::DefaultWorkUnit.">
<polygon fill="white" stroke="black" points="690.5,-117 690.5,-137 761.5,-137 761.5,-117 690.5,-117"/>
<text text-anchor="middle" x="726" y="-124" font-family="FreeSans" font-size="10.00">workunit.cpp</text>
</a>
</g>
<!-- Node7&#45;&gt;Node14 -->
<g id="edge40" class="edge"><title>Node7&#45;&gt;Node14</title>
<path fill="none" stroke="midnightblue" d="M430.388,-179.612C486.92,-171.817 592.74,-156.306 682,-138 684.623,-137.462 687.325,-136.873 690.039,-136.256"/>
<polygon fill="midnightblue" stroke="midnightblue" points="429.854,-176.152 420.421,-180.976 430.803,-183.087 429.854,-176.152"/>
</g>
<!-- Node8&#45;&gt;Node3 -->
<g id="edge26" class="edge"><title>Node8&#45;&gt;Node3</title>
<path fill="none" stroke="midnightblue" d="M647.912,-112.556C674.538,-99.204 704.427,-78.4018 687,-58 671.382,-39.7159 524.397,-23.4046 443.233,-15.6976"/>
<polygon fill="midnightblue" stroke="midnightblue" points="646.225,-109.483 638.714,-116.955 649.245,-115.798 646.225,-109.483"/>
</g>
<!-- Node9 -->
<g id="node18" class="node"><title>Node9</title>
<a xlink:href="asynchronousfileloadingworkunit_8h.html" target="_top" xlink:title="The declaration of the AsynchronousFileLoadWorkUnit a workunit that loads a listing of files asynchro...">
<polygon fill="white" stroke="black" points="733.5,-59 733.5,-79 894.5,-79 894.5,-59 733.5,-59"/>
<text text-anchor="middle" x="814" y="-66" font-family="FreeSans" font-size="10.00">asynchronousfileloadingworkunit.h</text>
</a>
</g>
<!-- Node8&#45;&gt;Node9 -->
<g id="edge18" class="edge"><title>Node8&#45;&gt;Node9</title>
<path fill="none" stroke="midnightblue" d="M658.703,-114.036C695.116,-103.476 745.797,-88.7788 779.227,-79.0842"/>
<polygon fill="midnightblue" stroke="midnightblue" points="657.467,-110.75 648.837,-116.897 659.416,-117.473 657.467,-110.75"/>
</g>
<!-- Node11 -->
<g id="node23" class="node"><title>Node11</title>
<a xlink:href="asynchronousworkunit_8cpp.html" target="_top" xlink:title="Contains very little actually.">
<polygon fill="white" stroke="black" points="549.5,-59 549.5,-79 678.5,-79 678.5,-59 549.5,-59"/>
<text text-anchor="middle" x="614" y="-66" font-family="FreeSans" font-size="10.00">asynchronousworkunit.cpp</text>
</a>
</g>
<!-- Node8&#45;&gt;Node11 -->
<g id="edge24" class="edge"><title>Node8&#45;&gt;Node11</title>
<path fill="none" stroke="midnightblue" d="M614,-106.89C614,-97.6201 614,-87.0083 614,-79.3776"/>
<polygon fill="midnightblue" stroke="midnightblue" points="610.5,-106.897 614,-116.897 617.5,-106.897 610.5,-106.897"/>
</g>
<!-- Node9&#45;&gt;Node3 -->
<g id="edge22" class="edge"><title>Node9&#45;&gt;Node3</title>
<path fill="none" stroke="midnightblue" d="M730.711,-57.6066C645.384,-45.9346 515.299,-28.14 443.051,-18.257"/>
<polygon fill="midnightblue" stroke="midnightblue" points="730.247,-61.0757 740.629,-58.9634 731.196,-54.1403 730.247,-61.0757"/>
</g>
<!-- Node10 -->
<g id="node20" class="node"><title>Node10</title>
<a xlink:href="asynchronousfileloadingworkunit_8cpp.html" target="_top" xlink:title="The implemtation of the AsynchronousFileLoadWorkUnit a workunit that loads a listing of files asynchr...">
<polygon fill="white" stroke="black" points="728,-1 728,-21 900,-21 900,-1 728,-1"/>
<text text-anchor="middle" x="814" y="-8" font-family="FreeSans" font-size="10.00">asynchronousfileloadingworkunit.cpp</text>
</a>
</g>
<!-- Node9&#45;&gt;Node10 -->
<g id="edge20" class="edge"><title>Node9&#45;&gt;Node10</title>
<path fill="none" stroke="midnightblue" d="M814,-48.8902C814,-39.6201 814,-29.0083 814,-21.3776"/>
<polygon fill="midnightblue" stroke="midnightblue" points="810.5,-48.8971 814,-58.8972 817.5,-48.8972 810.5,-48.8971"/>
</g>
<!-- Node12&#45;&gt;Node3 -->
<g id="edge32" class="edge"><title>Node12&#45;&gt;Node3</title>
<path fill="none" stroke="midnightblue" d="M390,-106.487C390,-81.4468 390,-40.0959 390,-21.1055"/>
<polygon fill="midnightblue" stroke="midnightblue" points="386.5,-106.706 390,-116.706 393.5,-106.706 386.5,-106.706"/>
</g>
<!-- Node12&#45;&gt;Node4 -->
<g id="edge34" class="edge"><title>Node12&#45;&gt;Node4</title>
<path fill="none" stroke="midnightblue" d="M368.061,-110.687C354.455,-100.569 337.397,-87.8852 325.693,-79.1817"/>
<polygon fill="midnightblue" stroke="midnightblue" points="366.3,-113.739 376.413,-116.897 370.477,-108.121 366.3,-113.739"/>
</g>
<!-- Node13 -->
<g id="node31" class="node"><title>Node13</title>
<a xlink:href="monopoly_8cpp.html" target="_top" xlink:title="Contains the minimal implementation for the monopoly base class.">
<polygon fill="white" stroke="black" points="418,-59 418,-79 494,-79 494,-59 418,-59"/>
<text text-anchor="middle" x="456" y="-66" font-family="FreeSans" font-size="10.00">monopoly.cpp</text>
</a>
</g>
<!-- Node12&#45;&gt;Node13 -->
<g id="edge36" class="edge"><title>Node12&#45;&gt;Node13</title>
<path fill="none" stroke="midnightblue" d="M409.174,-110.15C420.496,-100.2 434.47,-87.9207 444.191,-79.3776"/>
<polygon fill="midnightblue" stroke="midnightblue" points="406.698,-107.667 401.496,-116.897 411.318,-112.925 406.698,-107.667"/>
</g>
</g>
</svg>
