<?xml version="1.0" encoding="UTF-8" standalone="no"?>
<!DOCTYPE svg PUBLIC "-//W3C//DTD SVG 1.1//EN"
 "http://www.w3.org/Graphics/SVG/1.1/DTD/svg11.dtd">
<!-- Generated by graphviz version 2.26.3 (20100126.1600)
 -->
<!-- Title: workunit.cpp Pages: 1 -->
<!--zoomable 436 -->
<svg id="main" version="1.1" xmlns="http://www.w3.org/2000/svg" xmlns:xlink="http://www.w3.org/1999/xlink" xml:space="preserve" onload="init(evt)">
        <defs>
                <circle id="rim" cx="0" cy="0" r="7"/>
                <circle id="rim2" cx="0" cy="0" r="3.5"/>
                <g id="zoomPlus">
                        <use xlink:href="#rim" fill="#404040">
                                <set attributeName="fill" to="#808080" begin="zoomplus.mouseover" end="zoomplus.mouseout"/>
                        </use>
                        <path d="M-4,0h8M0,-4v8" fill="none" stroke="white" stroke-width="1.5" pointer-events="none"/>
                </g>
                <g id="zoomMin">
                        <use xlink:href="#rim" fill="#404040">
                                <set attributeName="fill" to="#808080" begin="zoomminus.mouseover" end="zoomminus.mouseout"/>
                        </use>
                        <path d="M-4,0h8" fill="none" stroke="white" stroke-width="1.5" pointer-events="none"/>
                </g>
                <g id="dirArrow">
                        <path fill="none" stroke="white" stroke-width="1.5" d="M0,-3.0v7 M-2.5,-0.5L0,-3.0L2.5,-0.5"/>
                </g>
               <g id="resetDef">
                       <use xlink:href="#rim2" fill="#404040">
                               <set attributeName="fill" to="#808080" begin="reset.mouseover" end="reset.mouseout"/>
                       </use>
               </g>
        </defs>

<script type="text/javascript">
var viewWidth = 752;
var viewHeight = 436;
var sectionId = 'dynsection-0';
</script>
<script xlink:href="svgpan.js"/>
<svg id="graph" class="graph">
<g id="viewport">
<title>workunit.cpp</title>
<polygon fill="white" stroke="white" points="-4,5 -4,-432 749,-432 749,5 -4,5"/>
<!-- Node1 -->
<g id="node1" class="node"><title>Node1</title>
<polygon fill="#bfbfbf" stroke="black" points="325.5,-407 325.5,-427 396.5,-427 396.5,-407 325.5,-407"/>
<text text-anchor="middle" x="361" y="-414" font-family="FreeSans" font-size="10.00">workunit.cpp</text>
</g>
<!-- Node2 -->
<g id="node3" class="node"><title>Node2</title>
<a xlink:href="workunit_8h.html" target="_top" xlink:title="This file has the definition of the workunit.">
<polygon fill="white" stroke="black" points="331,-349 331,-369 391,-369 391,-349 331,-349"/>
<text text-anchor="middle" x="361" y="-356" font-family="FreeSans" font-size="10.00">workunit.h</text>
</a>
</g>
<!-- Node1&#45;&gt;Node2 -->
<g id="edge2" class="edge"><title>Node1&#45;&gt;Node2</title>
<path fill="none" stroke="midnightblue" d="M361,-406.897C361,-399.339 361,-388.748 361,-379.446"/>
<polygon fill="midnightblue" stroke="midnightblue" points="364.5,-379.378 361,-369.378 357.5,-379.378 364.5,-379.378"/>
</g>
<!-- Node15 -->
<g id="node30" class="node"><title>Node15</title>
<a xlink:href="doublebufferedresource_8h.html" target="_top" xlink:title="This file defines the template double buffered resources that can be attached to a thread...">
<polygon fill="white" stroke="black" points="545.5,-233 545.5,-253 668.5,-253 668.5,-233 545.5,-233"/>
<text text-anchor="middle" x="607" y="-240" font-family="FreeSans" font-size="10.00">doublebufferedresource.h</text>
</a>
</g>
<!-- Node1&#45;&gt;Node15 -->
<g id="edge78" class="edge"><title>Node1&#45;&gt;Node15</title>
<path fill="none" stroke="midnightblue" d="M379.985,-406.93C412.381,-389.404 479.89,-351.386 532,-312 553.199,-295.978 575.338,-275.006 590.018,-260.408"/>
<polygon fill="midnightblue" stroke="midnightblue" points="592.787,-262.586 597.352,-253.025 587.821,-257.652 592.787,-262.586"/>
</g>
<!-- Node17 -->
<g id="node35" class="node"><title>Node17</title>
<a xlink:href="systemcalls_8h.html" target="_top" xlink:title="This file defines a minimalistic cross&#45;platform thread that the scheduler uses to schedule tasks...">
<polygon fill="white" stroke="black" points="133,-175 133,-195 207,-195 207,-175 133,-175"/>
<text text-anchor="middle" x="170" y="-182" font-family="FreeSans" font-size="10.00">systemcalls.h</text>
</a>
</g>
<!-- Node1&#45;&gt;Node17 -->
<g id="edge74" class="edge"><title>Node1&#45;&gt;Node17</title>
<path fill="none" stroke="midnightblue" d="M330.396,-406.993C276.633,-387.511 166.957,-338.798 125,-254 115.657,-235.116 131.969,-215.116 147.504,-201.538"/>
<polygon fill="midnightblue" stroke="midnightblue" points="149.894,-204.105 155.416,-195.063 145.461,-198.687 149.894,-204.105"/>
</g>
<!-- Node19 -->
<g id="node40" class="node"><title>Node19</title>
<a xlink:href="atomicoperations_8h.html" target="_top" xlink:title="Simple thread safe ways to check and change a specified variable atomically.">
<polygon fill="white" stroke="black" points="49,-117 49,-137 147,-137 147,-117 49,-117"/>
<text text-anchor="middle" x="98" y="-124" font-family="FreeSans" font-size="10.00">atomicoperations.h</text>
</a>
</g>
<!-- Node1&#45;&gt;Node19 -->
<g id="edge76" class="edge"><title>Node1&#45;&gt;Node19</title>
<path fill="none" stroke="midnightblue" d="M325.263,-412.228C239.673,-399.803 30,-363.034 30,-301 30,-301 30,-301 30,-243 30,-203.464 59.7624,-165.469 79.907,-144.28"/>
<polygon fill="midnightblue" stroke="midnightblue" points="82.5436,-146.591 87.0746,-137.014 77.5602,-141.675 82.5436,-146.591"/>
</g>
<!-- Node24 -->
<g id="node64" class="node"><title>Node24</title>
<polygon fill="white" stroke="#bfbfbf" points="583.5,-349 583.5,-369 630.5,-369 630.5,-349 583.5,-349"/>
<text text-anchor="middle" x="607" y="-356" font-family="FreeSans" font-size="10.00">cassert</text>
</g>
<!-- Node1&#45;&gt;Node24 -->
<g id="edge80" class="edge"><title>Node1&#45;&gt;Node24</title>
<path fill="none" stroke="midnightblue" d="M396.678,-409.746C438.426,-401.08 509.541,-385.766 570,-370 571.07,-369.721 572.156,-369.432 573.251,-369.136"/>
<polygon fill="midnightblue" stroke="midnightblue" points="574.506,-372.419 583.182,-366.339 572.608,-365.681 574.506,-372.419"/>
</g>
<!-- Node3 -->
<g id="node5" class="node"><title>Node3</title>
<a xlink:href="datatypes_8h.html" target="_top" xlink:title="This file declares a few typedefs to allow flexibility, in case a change is required/desired.">
<polygon fill="white" stroke="black" points="320.5,-59 320.5,-79 385.5,-79 385.5,-59 320.5,-59"/>
<text text-anchor="middle" x="353" y="-66" font-family="FreeSans" font-size="10.00">datatypes.h</text>
</a>
</g>
<!-- Node2&#45;&gt;Node3 -->
<g id="edge4" class="edge"><title>Node2&#45;&gt;Node3</title>
<path fill="none" stroke="midnightblue" d="M391.271,-351.432C436.894,-338.002 518,-305.357 518,-243 518,-243 518,-243 518,-185 518,-125.05 444.203,-93.4041 395.316,-79.0173"/>
<polygon fill="midnightblue" stroke="midnightblue" points="396.173,-75.6226 385.599,-76.286 394.279,-82.3614 396.173,-75.6226"/>
</g>
<!-- Node14 -->
<g id="node27" class="node"><title>Node14</title>
<a xlink:href="framescheduler_8h.html" target="_top" xlink:title="This file has the Declarations for the main FrameScheduler class.">
<polygon fill="white" stroke="black" points="243,-291 243,-311 333,-311 333,-291 243,-291"/>
<text text-anchor="middle" x="288" y="-298" font-family="FreeSans" font-size="10.00">framescheduler.h</text>
</a>
</g>
<!-- Node2&#45;&gt;Node14 -->
<g id="edge26" class="edge"><title>Node2&#45;&gt;Node14</title>
<path fill="none" stroke="midnightblue" d="M348.284,-348.897C337.531,-340.353 321.898,-327.933 309.247,-317.881"/>
<polygon fill="midnightblue" stroke="midnightblue" points="311.068,-314.858 301.061,-311.378 306.714,-320.339 311.068,-314.858"/>
</g>
<!-- Node16 -->
<g id="node33" class="node"><title>Node16</title>
<a xlink:href="thread_8h.html" target="_top" xlink:title="This file defines a minimalistic cross&#45;platform thread that the scheduler uses to schedule tasks...">
<polygon fill="white" stroke="black" points="133.5,-233 133.5,-253 184.5,-253 184.5,-233 133.5,-233"/>
<text text-anchor="middle" x="159" y="-240" font-family="FreeSans" font-size="10.00">thread.h</text>
</a>
</g>
<!-- Node2&#45;&gt;Node16 -->
<g id="edge70" class="edge"><title>Node2&#45;&gt;Node16</title>
<path fill="none" stroke="midnightblue" d="M330.768,-351.415C304.053,-343.895 264.682,-330.774 234,-312 211.079,-297.975 188.957,-276.306 174.754,-260.999"/>
<polygon fill="midnightblue" stroke="midnightblue" points="177.031,-258.299 167.723,-253.238 171.843,-262.999 177.031,-258.299"/>
</g>
<!-- Node18 -->
<g id="node38" class="node"><title>Node18</title>
<a xlink:href="mutex_8h.html" target="_top" xlink:title="This file declares and defines a mutex that is a partial implementation.">
<polygon fill="white" stroke="black" points="65,-175 65,-195 115,-195 115,-175 65,-175"/>
<text text-anchor="middle" x="90" y="-182" font-family="FreeSans" font-size="10.00">mutex.h</text>
</a>
</g>
<!-- Node2&#45;&gt;Node18 -->
<g id="edge62" class="edge"><title>Node2&#45;&gt;Node18</title>
<path fill="none" stroke="midnightblue" d="M330.876,-353.587C297.765,-346.869 243.616,-333.583 201,-312 163.094,-292.803 152.183,-286.657 125,-254 112.691,-239.213 103.2,-219.372 97.2258,-204.762"/>
<polygon fill="midnightblue" stroke="midnightblue" points="100.392,-203.248 93.5076,-195.196 93.8679,-205.784 100.392,-203.248"/>
</g>
<!-- Node20 -->
<g id="node43" class="node"><title>Node20</title>
<a xlink:href="workunitkey_8h.html" target="_top" xlink:title="This file defines the metadata used to sort workunits.">
<polygon fill="white" stroke="black" points="315.5,-233 315.5,-253 390.5,-253 390.5,-233 315.5,-233"/>
<text text-anchor="middle" x="353" y="-240" font-family="FreeSans" font-size="10.00">workunitkey.h</text>
</a>
</g>
<!-- Node2&#45;&gt;Node20 -->
<g id="edge72" class="edge"><title>Node2&#45;&gt;Node20</title>
<path fill="none" stroke="midnightblue" d="M360.29,-348.706C358.97,-329.568 356.117,-288.198 354.398,-263.265"/>
<polygon fill="midnightblue" stroke="midnightblue" points="357.877,-262.841 353.697,-253.106 350.893,-263.323 357.877,-262.841"/>
</g>
<!-- Node21 -->
<g id="node47" class="node"><title>Node21</title>
<a xlink:href="rollingaverage_8h.html" target="_top" xlink:title="This stores the implementation and the declaration of the RollingAverage, BufferedRollingAverage, WeightedRollingAverage and the DefaultRollingAverage.">
<polygon fill="white" stroke="black" points="407.5,-233 407.5,-253 490.5,-253 490.5,-233 407.5,-233"/>
<text text-anchor="middle" x="449" y="-240" font-family="FreeSans" font-size="10.00">rollingaverage.h</text>
</a>
</g>
<!-- Node2&#45;&gt;Node21 -->
<g id="edge64" class="edge"><title>Node2&#45;&gt;Node21</title>
<path fill="none" stroke="midnightblue" d="M368.809,-348.706C383.72,-329.051 416.421,-285.945 435.132,-261.281"/>
<polygon fill="midnightblue" stroke="midnightblue" points="438.078,-263.188 441.334,-253.106 432.501,-258.957 438.078,-263.188"/>
</g>
<!-- Node23 -->
<g id="node56" class="node"><title>Node23</title>
<a xlink:href="threadingenumerations_8h.html" target="_top" xlink:title="Any enumerations the threading library requires are all declared here.">
<polygon fill="white" stroke="black" points="622,-117 622,-137 744,-137 744,-117 622,-117"/>
<text text-anchor="middle" x="683" y="-124" font-family="FreeSans" font-size="10.00">threadingenumerations.h</text>
</a>
</g>
<!-- Node2&#45;&gt;Node23 -->
<g id="edge66" class="edge"><title>Node2&#45;&gt;Node23</title>
<path fill="none" stroke="midnightblue" d="M391.114,-353.609C463.326,-340.003 642.882,-301.917 677,-254 699.618,-222.235 693.877,-173.832 688.146,-146.881"/>
<polygon fill="midnightblue" stroke="midnightblue" points="691.535,-146.004 685.852,-137.063 684.719,-147.597 691.535,-146.004"/>
</g>
<!-- Node4 -->
<g id="node7" class="node"><title>Node4</title>
<a xlink:href="crossplatformexport_8h.html" target="_top" xlink:title="This file determines what features are offered by the compiler that this library can take advantage o...">
<polygon fill="white" stroke="black" points="0,-1 0,-21 108,-21 108,-1 0,-1"/>
<text text-anchor="middle" x="54" y="-8" font-family="FreeSans" font-size="10.00">crossplatformexport.h</text>
</a>
</g>
<!-- Node3&#45;&gt;Node4 -->
<g id="edge6" class="edge"><title>Node3&#45;&gt;Node4</title>
<path fill="none" stroke="midnightblue" d="M320.433,-62.6826C271.47,-53.1849 178.02,-35.0574 115.844,-22.9965"/>
<polygon fill="midnightblue" stroke="midnightblue" points="116.247,-19.5096 105.764,-21.0411 114.914,-26.3815 116.247,-19.5096"/>
</g>
<!-- Node5 -->
<g id="node9" class="node"><title>Node5</title>
<polygon fill="white" stroke="#bfbfbf" points="125.5,-1 125.5,-21 168.5,-21 168.5,-1 125.5,-1"/>
<text text-anchor="middle" x="147" y="-8" font-family="FreeSans" font-size="10.00">vector</text>
</g>
<!-- Node3&#45;&gt;Node5 -->
<g id="edge8" class="edge"><title>Node3&#45;&gt;Node5</title>
<path fill="none" stroke="midnightblue" d="M320.307,-61.2103C286.788,-53.0181 232.988,-39.3017 178.389,-22.2696"/>
<polygon fill="midnightblue" stroke="midnightblue" points="179.139,-18.8364 168.55,-19.1663 177.034,-25.5122 179.139,-18.8364"/>
</g>
<!-- Node6 -->
<g id="node11" class="node"><title>Node6</title>
<polygon fill="white" stroke="#bfbfbf" points="186,-1 186,-21 226,-21 226,-1 186,-1"/>
<text text-anchor="middle" x="206" y="-8" font-family="FreeSans" font-size="10.00">string</text>
</g>
<!-- Node3&#45;&gt;Node6 -->
<g id="edge10" class="edge"><title>Node3&#45;&gt;Node6</title>
<path fill="none" stroke="midnightblue" d="M327.395,-58.8972C301.865,-48.8245 262.682,-33.3644 235.778,-22.7491"/>
<polygon fill="midnightblue" stroke="midnightblue" points="236.709,-19.3538 226.122,-18.9393 234.139,-25.8653 236.709,-19.3538"/>
</g>
<!-- Node7 -->
<g id="node13" class="node"><title>Node7</title>
<polygon fill="white" stroke="#bfbfbf" points="243.5,-1 243.5,-21 294.5,-21 294.5,-1 243.5,-1"/>
<text text-anchor="middle" x="269" y="-8" font-family="FreeSans" font-size="10.00">ostream</text>
</g>
<!-- Node3&#45;&gt;Node7 -->
<g id="edge12" class="edge"><title>Node3&#45;&gt;Node7</title>
<path fill="none" stroke="midnightblue" d="M338.368,-58.8972C325.678,-50.1351 307.085,-37.2965 292.341,-27.1164"/>
<polygon fill="midnightblue" stroke="midnightblue" points="293.964,-23.9835 283.746,-21.1817 289.986,-29.7438 293.964,-23.9835"/>
</g>
<!-- Node8 -->
<g id="node15" class="node"><title>Node8</title>
<polygon fill="white" stroke="#bfbfbf" points="311.5,-1 311.5,-21 346.5,-21 346.5,-1 311.5,-1"/>
<text text-anchor="middle" x="329" y="-8" font-family="FreeSans" font-size="10.00">map</text>
</g>
<!-- Node3&#45;&gt;Node8 -->
<g id="edge14" class="edge"><title>Node3&#45;&gt;Node8</title>
<path fill="none" stroke="midnightblue" d="M348.82,-58.8972C345.624,-51.1747 341.118,-40.2857 337.21,-30.841"/>
<polygon fill="midnightblue" stroke="midnightblue" points="340.352,-29.2795 333.294,-21.3776 333.884,-31.956 340.352,-29.2795"/>
</g>
<!-- Node9 -->
<g id="node17" class="node"><title>Node9</title>
<polygon fill="white" stroke="#bfbfbf" points="363.5,-1 363.5,-21 392.5,-21 392.5,-1 363.5,-1"/>
<text text-anchor="middle" x="378" y="-8" font-family="FreeSans" font-size="10.00">set</text>
</g>
<!-- Node3&#45;&gt;Node9 -->
<g id="edge16" class="edge"><title>Node3&#45;&gt;Node9</title>
<path fill="none" stroke="midnightblue" d="M357.355,-58.8972C360.683,-51.1747 365.377,-40.2857 369.448,-30.841"/>
<polygon fill="midnightblue" stroke="midnightblue" points="372.783,-31.9463 373.527,-21.3776 366.354,-29.1754 372.783,-31.9463"/>
</g>
<!-- Node10 -->
<g id="node19" class="node"><title>Node10</title>
<polygon fill="white" stroke="#bfbfbf" points="410,-1 410,-21 460,-21 460,-1 410,-1"/>
<text text-anchor="middle" x="435" y="-8" font-family="FreeSans" font-size="10.00">sstream</text>
</g>
<!-- Node3&#45;&gt;Node10 -->
<g id="edge18" class="edge"><title>Node3&#45;&gt;Node10</title>
<path fill="none" stroke="midnightblue" d="M367.283,-58.8972C379.671,-50.1351 397.822,-37.2965 412.215,-27.1164"/>
<polygon fill="midnightblue" stroke="midnightblue" points="414.462,-29.8138 420.605,-21.1817 410.42,-24.0989 414.462,-29.8138"/>
</g>
<!-- Node11 -->
<g id="node21" class="node"><title>Node11</title>
<polygon fill="white" stroke="#bfbfbf" points="477.5,-1 477.5,-21 526.5,-21 526.5,-1 477.5,-1"/>
<text text-anchor="middle" x="502" y="-8" font-family="FreeSans" font-size="10.00">fstream</text>
</g>
<!-- Node3&#45;&gt;Node11 -->
<g id="edge20" class="edge"><title>Node3&#45;&gt;Node11</title>
<path fill="none" stroke="midnightblue" d="M378.954,-58.8972C403.608,-49.3004 440.824,-34.8134 467.871,-24.2852"/>
<polygon fill="midnightblue" stroke="midnightblue" points="469.284,-27.4911 477.333,-20.6019 466.744,-20.9679 469.284,-27.4911"/>
</g>
<!-- Node12 -->
<g id="node23" class="node"><title>Node12</title>
<polygon fill="white" stroke="#bfbfbf" points="544,-1 544,-21 600,-21 600,-1 544,-1"/>
<text text-anchor="middle" x="572" y="-8" font-family="FreeSans" font-size="10.00">algorithm</text>
</g>
<!-- Node3&#45;&gt;Node12 -->
<g id="edge22" class="edge"><title>Node3&#45;&gt;Node12</title>
<path fill="none" stroke="midnightblue" d="M385.643,-60.9493C420.145,-52.357 476.381,-38.1166 533.779,-22.2779"/>
<polygon fill="midnightblue" stroke="midnightblue" points="535.047,-25.5584 543.749,-19.5138 533.177,-18.8129 535.047,-25.5584"/>
</g>
<!-- Node13 -->
<g id="node25" class="node"><title>Node13</title>
<polygon fill="white" stroke="#bfbfbf" points="617.5,-1 617.5,-21 664.5,-21 664.5,-1 617.5,-1"/>
<text text-anchor="middle" x="641" y="-8" font-family="FreeSans" font-size="10.00">stdint.h</text>
</g>
<!-- Node3&#45;&gt;Node13 -->
<g id="edge24" class="edge"><title>Node3&#45;&gt;Node13</title>
<path fill="none" stroke="midnightblue" d="M385.671,-64.601C432.852,-57.9034 522.88,-43.832 607.588,-22.1141"/>
<polygon fill="midnightblue" stroke="midnightblue" points="608.561,-25.4775 617.355,-19.569 606.796,-18.7037 608.561,-25.4775"/>
</g>
<!-- Node14&#45;&gt;Node3 -->
<g id="edge28" class="edge"><title>Node14&#45;&gt;Node3</title>
<path fill="none" stroke="midnightblue" d="M290.812,-290.707C294.503,-277.218 301.194,-252.825 307,-232 321.346,-180.539 338.499,-120.021 347.249,-89.2222"/>
<polygon fill="midnightblue" stroke="midnightblue" points="350.704,-89.8677 350.071,-79.2918 343.97,-87.9539 350.704,-89.8677"/>
</g>
<!-- Node14&#45;&gt;Node15 -->
<g id="edge30" class="edge"><title>Node14&#45;&gt;Node15</title>
<path fill="none" stroke="midnightblue" d="M333.028,-292.813C387.447,-282.919 479.44,-266.193 541.658,-254.88"/>
<polygon fill="midnightblue" stroke="midnightblue" points="542.548,-258.276 551.761,-253.043 541.296,-251.389 542.548,-258.276"/>
</g>
<!-- Node14&#45;&gt;Node16 -->
<g id="edge34" class="edge"><title>Node14&#45;&gt;Node16</title>
<path fill="none" stroke="midnightblue" d="M265.53,-290.897C244.939,-281.639 214.225,-267.83 191.06,-257.415"/>
<polygon fill="midnightblue" stroke="midnightblue" points="192.201,-254.09 181.645,-253.182 189.331,-260.475 192.201,-254.09"/>
</g>
<!-- Node14&#45;&gt;Node17 -->
<g id="edge50" class="edge"><title>Node14&#45;&gt;Node17</title>
<path fill="none" stroke="midnightblue" d="M277.528,-290.706C257.272,-270.792 212.528,-226.807 187.615,-202.317"/>
<polygon fill="midnightblue" stroke="midnightblue" points="189.865,-199.62 180.28,-195.106 184.957,-204.612 189.865,-199.62"/>
</g>
<!-- Node14&#45;&gt;Node20 -->
<g id="edge46" class="edge"><title>Node14&#45;&gt;Node20</title>
<path fill="none" stroke="midnightblue" d="M299.322,-290.897C308.805,-282.435 322.549,-270.172 333.756,-260.172"/>
<polygon fill="midnightblue" stroke="midnightblue" points="336.239,-262.647 341.37,-253.378 331.578,-257.424 336.239,-262.647"/>
</g>
<!-- Node14&#45;&gt;Node21 -->
<g id="edge52" class="edge"><title>Node14&#45;&gt;Node21</title>
<path fill="none" stroke="midnightblue" d="M316.044,-290.897C342.512,-281.362 382.382,-266.999 411.558,-256.488"/>
<polygon fill="midnightblue" stroke="midnightblue" points="412.786,-259.766 421.008,-253.084 410.413,-253.181 412.786,-259.766"/>
</g>
<!-- Node22 -->
<g id="node50" class="node"><title>Node22</title>
<a xlink:href="barrier_8h.html" target="_top" xlink:title="The declaration of the Mezzanine::Threading::Barrier Barrier synchronization primitive.">
<polygon fill="white" stroke="black" points="224.5,-175 224.5,-195 275.5,-195 275.5,-175 224.5,-175"/>
<text text-anchor="middle" x="250" y="-182" font-family="FreeSans" font-size="10.00">barrier.h</text>
</a>
</g>
<!-- Node14&#45;&gt;Node22 -->
<g id="edge56" class="edge"><title>Node14&#45;&gt;Node22</title>
<path fill="none" stroke="midnightblue" d="M284.628,-290.706C278.33,-271.482 264.684,-229.825 256.529,-204.929"/>
<polygon fill="midnightblue" stroke="midnightblue" points="259.75,-203.519 253.31,-195.106 253.097,-205.698 259.75,-203.519"/>
</g>
<!-- Node15&#45;&gt;Node3 -->
<g id="edge32" class="edge"><title>Node15&#45;&gt;Node3</title>
<path fill="none" stroke="midnightblue" d="M604.02,-232.953C596.332,-208.833 573.473,-147.336 532,-116 510.67,-99.8834 441.431,-84.8593 395.583,-76.3177"/>
<polygon fill="midnightblue" stroke="midnightblue" points="396.08,-72.8505 385.613,-74.4933 394.82,-79.7362 396.08,-72.8505"/>
</g>
<!-- Node16&#45;&gt;Node17 -->
<g id="edge36" class="edge"><title>Node16&#45;&gt;Node17</title>
<path fill="none" stroke="midnightblue" d="M160.916,-232.897C162.349,-225.339 164.358,-214.748 166.122,-205.446"/>
<polygon fill="midnightblue" stroke="midnightblue" points="169.607,-205.855 168.032,-195.378 162.73,-204.55 169.607,-205.855"/>
</g>
<!-- Node16&#45;&gt;Node18 -->
<g id="edge40" class="edge"><title>Node16&#45;&gt;Node18</title>
<path fill="none" stroke="midnightblue" d="M146.981,-232.897C136.817,-224.353 122.041,-211.933 110.083,-201.881"/>
<polygon fill="midnightblue" stroke="midnightblue" points="112.253,-199.133 102.346,-195.378 107.749,-204.491 112.253,-199.133"/>
</g>
<!-- Node17&#45;&gt;Node3 -->
<g id="edge38" class="edge"><title>Node17&#45;&gt;Node3</title>
<path fill="none" stroke="midnightblue" d="M183.976,-174.77C203.071,-160.93 238.539,-135.707 270,-116 287.949,-104.757 308.68,-93.0164 324.934,-84.0821"/>
<polygon fill="midnightblue" stroke="midnightblue" points="326.83,-87.0342 333.931,-79.1709 323.477,-80.8899 326.83,-87.0342"/>
</g>
<!-- Node18&#45;&gt;Node19 -->
<g id="edge42" class="edge"><title>Node18&#45;&gt;Node19</title>
<path fill="none" stroke="midnightblue" d="M91.3935,-174.897C92.436,-167.339 93.8969,-156.748 95.1799,-147.446"/>
<polygon fill="midnightblue" stroke="midnightblue" points="98.6693,-147.762 96.5686,-137.378 91.735,-146.806 98.6693,-147.762"/>
</g>
<!-- Node19&#45;&gt;Node3 -->
<g id="edge44" class="edge"><title>Node19&#45;&gt;Node3</title>
<path fill="none" stroke="midnightblue" d="M142.126,-116.963C189.404,-106.21 263.918,-89.2619 310.542,-78.657"/>
<polygon fill="midnightblue" stroke="midnightblue" points="311.359,-82.0608 320.334,-76.43 309.806,-75.2351 311.359,-82.0608"/>
</g>
<!-- Node20&#45;&gt;Node3 -->
<g id="edge48" class="edge"><title>Node20&#45;&gt;Node3</title>
<path fill="none" stroke="midnightblue" d="M353,-232.893C353,-205.023 353,-126.675 353,-89.3131"/>
<polygon fill="midnightblue" stroke="midnightblue" points="356.5,-89.1349 353,-79.135 349.5,-89.135 356.5,-89.1349"/>
</g>
<!-- Node21&#45;&gt;Node3 -->
<g id="edge54" class="edge"><title>Node21&#45;&gt;Node3</title>
<path fill="none" stroke="midnightblue" d="M443.424,-232.893C427.915,-204.783 384.073,-125.321 363.679,-88.356"/>
<polygon fill="midnightblue" stroke="midnightblue" points="366.487,-86.2 358.592,-79.135 360.358,-89.5815 366.487,-86.2"/>
</g>
<!-- Node22&#45;&gt;Node3 -->
<g id="edge58" class="edge"><title>Node22&#45;&gt;Node3</title>
<path fill="none" stroke="midnightblue" d="M254.127,-174.788C260.237,-160.521 272.741,-134.318 289,-116 299.825,-103.804 314.31,-92.8443 326.762,-84.5819"/>
<polygon fill="midnightblue" stroke="midnightblue" points="328.851,-87.4006 335.389,-79.0633 325.079,-81.504 328.851,-87.4006"/>
</g>
<!-- Node22&#45;&gt;Node19 -->
<g id="edge60" class="edge"><title>Node22&#45;&gt;Node19</title>
<path fill="none" stroke="midnightblue" d="M224.215,-175.161C199.364,-165.678 161.546,-151.248 133.785,-140.655"/>
<polygon fill="midnightblue" stroke="midnightblue" points="135.013,-137.377 124.422,-137.082 132.517,-143.917 135.013,-137.377"/>
</g>
<!-- Node23&#45;&gt;Node3 -->
<g id="edge68" class="edge"><title>Node23&#45;&gt;Node3</title>
<path fill="none" stroke="midnightblue" d="M625.895,-116.963C560.462,-105.463 454.716,-86.8774 395.917,-76.543"/>
<polygon fill="midnightblue" stroke="midnightblue" points="396.308,-73.0581 385.853,-74.7741 395.096,-79.9524 396.308,-73.0581"/>
</g>
</g>
</svg>
        <g id="navigator" transform="translate(0 0)" fill="#404254">
                <rect fill="#f2f5e9" fill-opacity="0.5" stroke="#606060" stroke-width=".5" x="0" y="0" width="60" height="60"/>
                <use id="zoomplus" xlink:href="#zoomPlus" x="17" y="9" onmousedown="handleZoom(evt,'in')"/>
                <use id="zoomminus" xlink:href="#zoomMin" x="42" y="9" onmousedown="handleZoom(evt,'out')"/>
                <use id="reset" xlink:href="#resetDef" x="30" y="36" onmousedown="handleReset()"/>
                <g id="arrowUp" xlink:href="#dirArrow" transform="translate(30 24)" onmousedown="handlePan(0,-1)">
                  <use xlink:href="#rim" fill="#404040">
                        <set attributeName="fill" to="#808080" begin="arrowUp.mouseover" end="arrowUp.mouseout"/>
                  </use>
                  <path fill="none" stroke="white" stroke-width="1.5" d="M0,-3.0v7 M-2.5,-0.5L0,-3.0L2.5,-0.5"/>
                </g>
                <g id="arrowRight" xlink:href="#dirArrow" transform="rotate(90) translate(36 -43)" onmousedown="handlePan(1,0)">
                  <use xlink:href="#rim" fill="#404040">
                        <set attributeName="fill" to="#808080" begin="arrowRight.mouseover" end="arrowRight.mouseout"/>
                  </use>
                  <path fill="none" stroke="white" stroke-width="1.5" d="M0,-3.0v7 M-2.5,-0.5L0,-3.0L2.5,-0.5"/>
                </g>
                <g id="arrowDown" xlink:href="#dirArrow" transform="rotate(180) translate(-30 -48)" onmousedown="handlePan(0,1)">
                  <use xlink:href="#rim" fill="#404040">
                        <set attributeName="fill" to="#808080" begin="arrowDown.mouseover" end="arrowDown.mouseout"/>
                  </use>
                  <path fill="none" stroke="white" stroke-width="1.5" d="M0,-3.0v7 M-2.5,-0.5L0,-3.0L2.5,-0.5"/>
                </g>
                <g id="arrowLeft" xlink:href="#dirArrow" transform="rotate(270) translate(-36 17)" onmousedown="handlePan(-1,0)">
                  <use xlink:href="#rim" fill="#404040">
                        <set attributeName="fill" to="#808080" begin="arrowLeft.mouseover" end="arrowLeft.mouseout"/>
                  </use>
                  <path fill="none" stroke="white" stroke-width="1.5" d="M0,-3.0v7 M-2.5,-0.5L0,-3.0L2.5,-0.5"/>
                </g>
        </g>
        <svg viewBox="0 0 15 15" width="100%" height="30px" preserveAspectRatio="xMaxYMin meet">
         <g id="arrow_out" transform="scale(0.3 0.3)">
          <a xlink:href="workunit_8cpp__incl_org.svg" target="_base">
           <rect id="button" ry="5" rx="5" y="6" x="6" height="38" width="38"
                fill="#f2f5e9" fill-opacity="0.5" stroke="#606060" stroke-width="1.0"/>
           <path id="arrow"
             d="M 11.500037,31.436501 C 11.940474,20.09759 22.043105,11.32322 32.158766,21.979434 L 37.068811,17.246167 C 37.068811,17.246167 37.088388,32 37.088388,32 L 22.160133,31.978069 C 22.160133,31.978069 26.997745,27.140456 26.997745,27.140456 C 18.528582,18.264221 13.291696,25.230495 11.500037,31.436501 z"
             style="fill:#404040;"/>
          </a>
         </g>
        </svg>
</svg>
