<?xml version="1.0" encoding="UTF-8" standalone="no"?>
<!DOCTYPE svg PUBLIC "-//W3C//DTD SVG 1.1//EN"
 "http://www.w3.org/Graphics/SVG/1.1/DTD/svg11.dtd">
<!-- Generated by graphviz version 2.26.3 (20100126.1600)
 -->
<!-- Title: workunit.h Pages: 1 -->
<svg width="690pt" height="378pt"
 viewBox="0.00 0.00 690.00 378.00" xmlns="http://www.w3.org/2000/svg" xmlns:xlink="http://www.w3.org/1999/xlink">
<g id="graph1" class="graph" transform="scale(1 1) rotate(0) translate(4 374)">
<title>workunit.h</title>
<polygon fill="white" stroke="white" points="-4,5 -4,-374 687,-374 687,5 -4,5"/>
<!-- Node1 -->
<g id="node1" class="node"><title>Node1</title>
<polygon fill="#bfbfbf" stroke="black" points="332,-349 332,-369 392,-369 392,-349 332,-349"/>
<text text-anchor="middle" x="362" y="-356" font-family="FreeSans" font-size="10.00">workunit.h</text>
</g>
<!-- Node2 -->
<g id="node3" class="node"><title>Node2</title>
<a xlink:href="datatypes_8h.html" target="_top" xlink:title="This file declares a few typedefs to allow flexibility, in case a change is required/desired.">
<polygon fill="white" stroke="black" points="320.5,-59 320.5,-79 385.5,-79 385.5,-59 320.5,-59"/>
<text text-anchor="middle" x="353" y="-66" font-family="FreeSans" font-size="10.00">datatypes.h</text>
</a>
</g>
<!-- Node1&#45;&gt;Node2 -->
<g id="edge2" class="edge"><title>Node1&#45;&gt;Node2</title>
<path fill="none" stroke="midnightblue" d="M331.786,-353.589C257.509,-339.431 72,-298.513 72,-243 72,-243 72,-243 72,-185 72,-153.192 67.5064,-137.443 91,-116 122.427,-87.3157 244.209,-75.5789 310.095,-71.2502"/>
<polygon fill="midnightblue" stroke="midnightblue" points="310.406,-74.7376 320.167,-70.6176 309.967,-67.7514 310.406,-74.7376"/>
</g>
<!-- Node13 -->
<g id="node25" class="node"><title>Node13</title>
<a xlink:href="framescheduler_8h.html" target="_top" xlink:title="This file has the Declarations for the main FrameScheduler class.">
<polygon fill="white" stroke="black" points="317,-291 317,-311 407,-311 407,-291 317,-291"/>
<text text-anchor="middle" x="362" y="-298" font-family="FreeSans" font-size="10.00">framescheduler.h</text>
</a>
</g>
<!-- Node1&#45;&gt;Node13 -->
<g id="edge24" class="edge"><title>Node1&#45;&gt;Node13</title>
<path fill="none" stroke="midnightblue" d="M362,-348.897C362,-341.339 362,-330.748 362,-321.446"/>
<polygon fill="midnightblue" stroke="midnightblue" points="365.5,-321.378 362,-311.378 358.5,-321.378 365.5,-321.378"/>
</g>
<!-- Node15 -->
<g id="node31" class="node"><title>Node15</title>
<a xlink:href="thread_8h.html" target="_top" xlink:title="This file defines a minimalistic cross&#45;platform thread that the scheduler uses to schedule tasks...">
<polygon fill="white" stroke="black" points="207.5,-233 207.5,-253 258.5,-253 258.5,-233 207.5,-233"/>
<text text-anchor="middle" x="233" y="-240" font-family="FreeSans" font-size="10.00">thread.h</text>
</a>
</g>
<!-- Node1&#45;&gt;Node15 -->
<g id="edge68" class="edge"><title>Node1&#45;&gt;Node15</title>
<path fill="none" stroke="midnightblue" d="M349.906,-348.64C338.907,-339.179 322.263,-324.764 308,-312 288.532,-294.579 266.571,-274.299 251.469,-260.254"/>
<polygon fill="midnightblue" stroke="midnightblue" points="253.547,-257.406 243.844,-253.151 248.775,-262.528 253.547,-257.406"/>
</g>
<!-- Node17 -->
<g id="node36" class="node"><title>Node17</title>
<a xlink:href="mutex_8h.html" target="_top" xlink:title="This file declares and defines a mutex that is a partial implementation.">
<polygon fill="white" stroke="black" points="124,-175 124,-195 174,-195 174,-175 124,-175"/>
<text text-anchor="middle" x="149" y="-182" font-family="FreeSans" font-size="10.00">mutex.h</text>
</a>
</g>
<!-- Node1&#45;&gt;Node17 -->
<g id="edge60" class="edge"><title>Node1&#45;&gt;Node17</title>
<path fill="none" stroke="midnightblue" d="M340.754,-348.955C307.629,-332.546 242.927,-297.427 199,-254 183.639,-238.813 169.534,-218.503 160.251,-203.855"/>
<polygon fill="midnightblue" stroke="midnightblue" points="163.113,-201.828 154.881,-195.157 157.156,-205.505 163.113,-201.828"/>
</g>
<!-- Node19 -->
<g id="node41" class="node"><title>Node19</title>
<a xlink:href="workunitkey_8h.html" target="_top" xlink:title="This file defines the metadata used to sort workunits.">
<polygon fill="white" stroke="black" points="427.5,-233 427.5,-253 502.5,-253 502.5,-233 427.5,-233"/>
<text text-anchor="middle" x="465" y="-240" font-family="FreeSans" font-size="10.00">workunitkey.h</text>
</a>
</g>
<!-- Node1&#45;&gt;Node19 -->
<g id="edge70" class="edge"><title>Node1&#45;&gt;Node19</title>
<path fill="none" stroke="midnightblue" d="M375.216,-348.964C386.658,-339.945 403.317,-326.001 416,-312 430.241,-296.279 444.004,-276.344 453.299,-261.949"/>
<polygon fill="midnightblue" stroke="midnightblue" points="456.326,-263.709 458.721,-253.389 450.413,-259.963 456.326,-263.709"/>
</g>
<!-- Node20 -->
<g id="node45" class="node"><title>Node20</title>
<a xlink:href="rollingaverage_8h.html" target="_top" xlink:title="This stores the implementation and the declaration of the RollingAverage, BufferedRollingAverage, WeightedRollingAverage and the DefaultRollingAverage.">
<polygon fill="white" stroke="black" points="519.5,-233 519.5,-253 602.5,-253 602.5,-233 519.5,-233"/>
<text text-anchor="middle" x="561" y="-240" font-family="FreeSans" font-size="10.00">rollingaverage.h</text>
</a>
</g>
<!-- Node1&#45;&gt;Node20 -->
<g id="edge62" class="edge"><title>Node1&#45;&gt;Node20</title>
<path fill="none" stroke="midnightblue" d="M379.312,-348.909C414.301,-328.513 493.609,-282.283 534.905,-258.211"/>
<polygon fill="midnightblue" stroke="midnightblue" points="536.71,-261.21 543.586,-253.151 533.184,-255.163 536.71,-261.21"/>
</g>
<!-- Node22 -->
<g id="node54" class="node"><title>Node22</title>
<a xlink:href="threadingenumerations_8h.html" target="_top" xlink:title="Any enumerations the threading library requires are all declared here.">
<polygon fill="white" stroke="black" points="560,-291 560,-311 682,-311 682,-291 560,-291"/>
<text text-anchor="middle" x="621" y="-298" font-family="FreeSans" font-size="10.00">threadingenumerations.h</text>
</a>
</g>
<!-- Node1&#45;&gt;Node22 -->
<g id="edge64" class="edge"><title>Node1&#45;&gt;Node22</title>
<path fill="none" stroke="midnightblue" d="M392.217,-352.233C434.84,-342.688 513.323,-325.113 566.335,-313.242"/>
<polygon fill="midnightblue" stroke="midnightblue" points="567.257,-316.622 576.251,-311.021 565.727,-309.791 567.257,-316.622"/>
</g>
<!-- Node3 -->
<g id="node5" class="node"><title>Node3</title>
<a xlink:href="crossplatformexport_8h.html" target="_top" xlink:title="This file determines what features are offered by the compiler that this library can take advantage o...">
<polygon fill="white" stroke="black" points="0,-1 0,-21 108,-21 108,-1 0,-1"/>
<text text-anchor="middle" x="54" y="-8" font-family="FreeSans" font-size="10.00">crossplatformexport.h</text>
</a>
</g>
<!-- Node2&#45;&gt;Node3 -->
<g id="edge4" class="edge"><title>Node2&#45;&gt;Node3</title>
<path fill="none" stroke="midnightblue" d="M320.433,-62.6826C271.47,-53.1849 178.02,-35.0574 115.844,-22.9965"/>
<polygon fill="midnightblue" stroke="midnightblue" points="116.247,-19.5096 105.764,-21.0411 114.914,-26.3815 116.247,-19.5096"/>
</g>
<!-- Node4 -->
<g id="node7" class="node"><title>Node4</title>
<polygon fill="white" stroke="#bfbfbf" points="125.5,-1 125.5,-21 168.5,-21 168.5,-1 125.5,-1"/>
<text text-anchor="middle" x="147" y="-8" font-family="FreeSans" font-size="10.00">vector</text>
</g>
<!-- Node2&#45;&gt;Node4 -->
<g id="edge6" class="edge"><title>Node2&#45;&gt;Node4</title>
<path fill="none" stroke="midnightblue" d="M320.307,-61.2103C286.788,-53.0181 232.988,-39.3017 178.389,-22.2696"/>
<polygon fill="midnightblue" stroke="midnightblue" points="179.139,-18.8364 168.55,-19.1663 177.034,-25.5122 179.139,-18.8364"/>
</g>
<!-- Node5 -->
<g id="node9" class="node"><title>Node5</title>
<polygon fill="white" stroke="#bfbfbf" points="186,-1 186,-21 226,-21 226,-1 186,-1"/>
<text text-anchor="middle" x="206" y="-8" font-family="FreeSans" font-size="10.00">string</text>
</g>
<!-- Node2&#45;&gt;Node5 -->
<g id="edge8" class="edge"><title>Node2&#45;&gt;Node5</title>
<path fill="none" stroke="midnightblue" d="M327.395,-58.8972C301.865,-48.8245 262.682,-33.3644 235.778,-22.7491"/>
<polygon fill="midnightblue" stroke="midnightblue" points="236.709,-19.3538 226.122,-18.9393 234.139,-25.8653 236.709,-19.3538"/>
</g>
<!-- Node6 -->
<g id="node11" class="node"><title>Node6</title>
<polygon fill="white" stroke="#bfbfbf" points="243.5,-1 243.5,-21 294.5,-21 294.5,-1 243.5,-1"/>
<text text-anchor="middle" x="269" y="-8" font-family="FreeSans" font-size="10.00">ostream</text>
</g>
<!-- Node2&#45;&gt;Node6 -->
<g id="edge10" class="edge"><title>Node2&#45;&gt;Node6</title>
<path fill="none" stroke="midnightblue" d="M338.368,-58.8972C325.678,-50.1351 307.085,-37.2965 292.341,-27.1164"/>
<polygon fill="midnightblue" stroke="midnightblue" points="293.964,-23.9835 283.746,-21.1817 289.986,-29.7438 293.964,-23.9835"/>
</g>
<!-- Node7 -->
<g id="node13" class="node"><title>Node7</title>
<polygon fill="white" stroke="#bfbfbf" points="311.5,-1 311.5,-21 346.5,-21 346.5,-1 311.5,-1"/>
<text text-anchor="middle" x="329" y="-8" font-family="FreeSans" font-size="10.00">map</text>
</g>
<!-- Node2&#45;&gt;Node7 -->
<g id="edge12" class="edge"><title>Node2&#45;&gt;Node7</title>
<path fill="none" stroke="midnightblue" d="M348.82,-58.8972C345.624,-51.1747 341.118,-40.2857 337.21,-30.841"/>
<polygon fill="midnightblue" stroke="midnightblue" points="340.352,-29.2795 333.294,-21.3776 333.884,-31.956 340.352,-29.2795"/>
</g>
<!-- Node8 -->
<g id="node15" class="node"><title>Node8</title>
<polygon fill="white" stroke="#bfbfbf" points="363.5,-1 363.5,-21 392.5,-21 392.5,-1 363.5,-1"/>
<text text-anchor="middle" x="378" y="-8" font-family="FreeSans" font-size="10.00">set</text>
</g>
<!-- Node2&#45;&gt;Node8 -->
<g id="edge14" class="edge"><title>Node2&#45;&gt;Node8</title>
<path fill="none" stroke="midnightblue" d="M357.355,-58.8972C360.683,-51.1747 365.377,-40.2857 369.448,-30.841"/>
<polygon fill="midnightblue" stroke="midnightblue" points="372.783,-31.9463 373.527,-21.3776 366.354,-29.1754 372.783,-31.9463"/>
</g>
<!-- Node9 -->
<g id="node17" class="node"><title>Node9</title>
<polygon fill="white" stroke="#bfbfbf" points="410,-1 410,-21 460,-21 460,-1 410,-1"/>
<text text-anchor="middle" x="435" y="-8" font-family="FreeSans" font-size="10.00">sstream</text>
</g>
<!-- Node2&#45;&gt;Node9 -->
<g id="edge16" class="edge"><title>Node2&#45;&gt;Node9</title>
<path fill="none" stroke="midnightblue" d="M367.283,-58.8972C379.671,-50.1351 397.822,-37.2965 412.215,-27.1164"/>
<polygon fill="midnightblue" stroke="midnightblue" points="414.462,-29.8138 420.605,-21.1817 410.42,-24.0989 414.462,-29.8138"/>
</g>
<!-- Node10 -->
<g id="node19" class="node"><title>Node10</title>
<polygon fill="white" stroke="#bfbfbf" points="477.5,-1 477.5,-21 526.5,-21 526.5,-1 477.5,-1"/>
<text text-anchor="middle" x="502" y="-8" font-family="FreeSans" font-size="10.00">fstream</text>
</g>
<!-- Node2&#45;&gt;Node10 -->
<g id="edge18" class="edge"><title>Node2&#45;&gt;Node10</title>
<path fill="none" stroke="midnightblue" d="M378.954,-58.8972C403.608,-49.3004 440.824,-34.8134 467.871,-24.2852"/>
<polygon fill="midnightblue" stroke="midnightblue" points="469.284,-27.4911 477.333,-20.6019 466.744,-20.9679 469.284,-27.4911"/>
</g>
<!-- Node11 -->
<g id="node21" class="node"><title>Node11</title>
<polygon fill="white" stroke="#bfbfbf" points="544,-1 544,-21 600,-21 600,-1 544,-1"/>
<text text-anchor="middle" x="572" y="-8" font-family="FreeSans" font-size="10.00">algorithm</text>
</g>
<!-- Node2&#45;&gt;Node11 -->
<g id="edge20" class="edge"><title>Node2&#45;&gt;Node11</title>
<path fill="none" stroke="midnightblue" d="M385.643,-60.9493C420.145,-52.357 476.381,-38.1166 533.779,-22.2779"/>
<polygon fill="midnightblue" stroke="midnightblue" points="535.047,-25.5584 543.749,-19.5138 533.177,-18.8129 535.047,-25.5584"/>
</g>
<!-- Node12 -->
<g id="node23" class="node"><title>Node12</title>
<polygon fill="white" stroke="#bfbfbf" points="617.5,-1 617.5,-21 664.5,-21 664.5,-1 617.5,-1"/>
<text text-anchor="middle" x="641" y="-8" font-family="FreeSans" font-size="10.00">stdint.h</text>
</g>
<!-- Node2&#45;&gt;Node12 -->
<g id="edge22" class="edge"><title>Node2&#45;&gt;Node12</title>
<path fill="none" stroke="midnightblue" d="M385.671,-64.601C432.852,-57.9034 522.88,-43.832 607.588,-22.1141"/>
<polygon fill="midnightblue" stroke="midnightblue" points="608.561,-25.4775 617.355,-19.569 606.796,-18.7037 608.561,-25.4775"/>
</g>
<!-- Node13&#45;&gt;Node2 -->
<g id="edge26" class="edge"><title>Node13&#45;&gt;Node2</title>
<path fill="none" stroke="midnightblue" d="M370.775,-290.89C394.551,-262.209 456.249,-178.373 423,-116 415.503,-101.936 401.722,-91.3339 388.357,-83.7924"/>
<polygon fill="midnightblue" stroke="midnightblue" points="389.741,-80.5668 379.254,-79.0555 386.509,-86.7764 389.741,-80.5668"/>
</g>
<!-- Node14 -->
<g id="node28" class="node"><title>Node14</title>
<a xlink:href="doublebufferedresource_8h.html" target="_top" xlink:title="This file defines the template double buffered resources that can be attached to a thread...">
<polygon fill="white" stroke="black" points="291.5,-117 291.5,-137 414.5,-137 414.5,-117 291.5,-117"/>
<text text-anchor="middle" x="353" y="-124" font-family="FreeSans" font-size="10.00">doublebufferedresource.h</text>
</a>
</g>
<!-- Node13&#45;&gt;Node14 -->
<g id="edge28" class="edge"><title>Node13&#45;&gt;Node14</title>
<path fill="none" stroke="midnightblue" d="M361.477,-290.893C360.036,-263.023 355.983,-184.675 354.051,-147.313"/>
<polygon fill="midnightblue" stroke="midnightblue" points="357.536,-146.941 353.524,-137.135 350.546,-147.302 357.536,-146.941"/>
</g>
<!-- Node13&#45;&gt;Node15 -->
<g id="edge32" class="edge"><title>Node13&#45;&gt;Node15</title>
<path fill="none" stroke="midnightblue" d="M339.53,-290.897C318.939,-281.639 288.225,-267.83 265.06,-257.415"/>
<polygon fill="midnightblue" stroke="midnightblue" points="266.201,-254.09 255.645,-253.182 263.331,-260.475 266.201,-254.09"/>
</g>
<!-- Node16 -->
<g id="node33" class="node"><title>Node16</title>
<a xlink:href="systemcalls_8h.html" target="_top" xlink:title="This file defines a minimalistic cross&#45;platform thread that the scheduler uses to schedule tasks...">
<polygon fill="white" stroke="black" points="260,-175 260,-195 334,-195 334,-175 260,-175"/>
<text text-anchor="middle" x="297" y="-182" font-family="FreeSans" font-size="10.00">systemcalls.h</text>
</a>
</g>
<!-- Node13&#45;&gt;Node16 -->
<g id="edge48" class="edge"><title>Node13&#45;&gt;Node16</title>
<path fill="none" stroke="midnightblue" d="M356.232,-290.706C345.315,-271.223 321.487,-228.7 307.61,-203.934"/>
<polygon fill="midnightblue" stroke="midnightblue" points="310.604,-202.118 302.663,-195.106 304.498,-205.54 310.604,-202.118"/>
</g>
<!-- Node13&#45;&gt;Node19 -->
<g id="edge44" class="edge"><title>Node13&#45;&gt;Node19</title>
<path fill="none" stroke="midnightblue" d="M379.941,-290.897C396.015,-281.846 419.815,-268.444 438.154,-258.117"/>
<polygon fill="midnightblue" stroke="midnightblue" points="439.923,-261.138 446.919,-253.182 436.488,-255.039 439.923,-261.138"/>
</g>
<!-- Node13&#45;&gt;Node20 -->
<g id="edge50" class="edge"><title>Node13&#45;&gt;Node20</title>
<path fill="none" stroke="midnightblue" d="M396.663,-290.897C429.948,-281.196 480.377,-266.498 516.59,-255.944"/>
<polygon fill="midnightblue" stroke="midnightblue" points="517.78,-259.243 526.401,-253.084 515.821,-252.522 517.78,-259.243"/>
</g>
<!-- Node21 -->
<g id="node48" class="node"><title>Node21</title>
<a xlink:href="barrier_8h.html" target="_top" xlink:title="The declaration of the Mezzanine::Threading::Barrier Barrier synchronization primitive.">
<polygon fill="white" stroke="black" points="191.5,-175 191.5,-195 242.5,-195 242.5,-175 191.5,-175"/>
<text text-anchor="middle" x="217" y="-182" font-family="FreeSans" font-size="10.00">barrier.h</text>
</a>
</g>
<!-- Node13&#45;&gt;Node21 -->
<g id="edge54" class="edge"><title>Node13&#45;&gt;Node21</title>
<path fill="none" stroke="midnightblue" d="M349.386,-290.909C324.32,-270.856 268.037,-225.83 237.554,-201.444"/>
<polygon fill="midnightblue" stroke="midnightblue" points="239.683,-198.665 229.688,-195.151 235.31,-204.131 239.683,-198.665"/>
</g>
<!-- Node14&#45;&gt;Node2 -->
<g id="edge30" class="edge"><title>Node14&#45;&gt;Node2</title>
<path fill="none" stroke="midnightblue" d="M353,-116.897C353,-109.339 353,-98.7476 353,-89.4458"/>
<polygon fill="midnightblue" stroke="midnightblue" points="356.5,-89.3776 353,-79.3776 349.5,-89.3776 356.5,-89.3776"/>
</g>
<!-- Node15&#45;&gt;Node16 -->
<g id="edge34" class="edge"><title>Node15&#45;&gt;Node16</title>
<path fill="none" stroke="midnightblue" d="M244.148,-232.897C253.485,-224.435 267.018,-212.172 278.052,-202.172"/>
<polygon fill="midnightblue" stroke="midnightblue" points="280.489,-204.686 285.549,-195.378 275.789,-199.499 280.489,-204.686"/>
</g>
<!-- Node15&#45;&gt;Node17 -->
<g id="edge38" class="edge"><title>Node15&#45;&gt;Node17</title>
<path fill="none" stroke="midnightblue" d="M218.368,-232.897C205.678,-224.135 187.085,-211.297 172.341,-201.116"/>
<polygon fill="midnightblue" stroke="midnightblue" points="173.964,-197.983 163.746,-195.182 169.986,-203.744 173.964,-197.983"/>
</g>
<!-- Node16&#45;&gt;Node2 -->
<g id="edge36" class="edge"><title>Node16&#45;&gt;Node2</title>
<path fill="none" stroke="midnightblue" d="M290.788,-174.558C283.292,-160.478 272.88,-134.984 283,-116 290.497,-101.936 304.278,-91.3339 317.643,-83.7924"/>
<polygon fill="midnightblue" stroke="midnightblue" points="319.491,-86.7764 326.746,-79.0555 316.259,-80.5668 319.491,-86.7764"/>
</g>
<!-- Node18 -->
<g id="node38" class="node"><title>Node18</title>
<a xlink:href="atomicoperations_8h.html" target="_top" xlink:title="Simple thread safe ways to check and change a specified variable atomically.">
<polygon fill="white" stroke="black" points="100,-117 100,-137 198,-137 198,-117 100,-117"/>
<text text-anchor="middle" x="149" y="-124" font-family="FreeSans" font-size="10.00">atomicoperations.h</text>
</a>
</g>
<!-- Node17&#45;&gt;Node18 -->
<g id="edge40" class="edge"><title>Node17&#45;&gt;Node18</title>
<path fill="none" stroke="midnightblue" d="M149,-174.897C149,-167.339 149,-156.748 149,-147.446"/>
<polygon fill="midnightblue" stroke="midnightblue" points="152.5,-147.378 149,-137.378 145.5,-147.378 152.5,-147.378"/>
</g>
<!-- Node18&#45;&gt;Node2 -->
<g id="edge42" class="edge"><title>Node18&#45;&gt;Node2</title>
<path fill="none" stroke="midnightblue" d="M184.534,-116.897C219.49,-106.959 272.891,-91.776 310.172,-81.1766"/>
<polygon fill="midnightblue" stroke="midnightblue" points="311.569,-84.4181 320.231,-78.3167 309.655,-77.6849 311.569,-84.4181"/>
</g>
<!-- Node19&#45;&gt;Node2 -->
<g id="edge46" class="edge"><title>Node19&#45;&gt;Node2</title>
<path fill="none" stroke="midnightblue" d="M467.44,-232.987C472.433,-209.975 481.333,-152.499 456,-116 442.005,-95.8358 417.155,-84.1603 395.37,-77.4898"/>
<polygon fill="midnightblue" stroke="midnightblue" points="396.2,-74.0876 385.627,-74.7647 394.315,-80.8289 396.2,-74.0876"/>
</g>
<!-- Node20&#45;&gt;Node2 -->
<g id="edge52" class="edge"><title>Node20&#45;&gt;Node2</title>
<path fill="none" stroke="midnightblue" d="M556.755,-232.899C546.309,-209.193 517.106,-149.471 475,-116 451.81,-97.5653 420.554,-85.7111 395.485,-78.5193"/>
<polygon fill="midnightblue" stroke="midnightblue" points="396.081,-75.0542 385.513,-75.8071 394.244,-81.8089 396.081,-75.0542"/>
</g>
<!-- Node21&#45;&gt;Node2 -->
<g id="edge56" class="edge"><title>Node21&#45;&gt;Node2</title>
<path fill="none" stroke="midnightblue" d="M223.801,-174.699C233.645,-160.326 252.999,-133.997 274,-116 288.752,-103.358 307.338,-92.1116 322.776,-83.7919"/>
<polygon fill="midnightblue" stroke="midnightblue" points="324.684,-86.7436 331.919,-79.0036 321.436,-80.5425 324.684,-86.7436"/>
</g>
<!-- Node21&#45;&gt;Node18 -->
<g id="edge58" class="edge"><title>Node21&#45;&gt;Node18</title>
<path fill="none" stroke="midnightblue" d="M205.155,-174.897C195.138,-166.353 180.577,-153.933 168.792,-143.881"/>
<polygon fill="midnightblue" stroke="midnightblue" points="171.047,-141.204 161.167,-137.378 166.504,-146.53 171.047,-141.204"/>
</g>
<!-- Node22&#45;&gt;Node2 -->
<g id="edge66" class="edge"><title>Node22&#45;&gt;Node2</title>
<path fill="none" stroke="midnightblue" d="M621.428,-290.6C621.589,-276.568 620.379,-251.128 611,-232 579.449,-167.655 559.825,-153.896 499,-116 467.121,-96.1379 426.047,-83.8947 395.59,-76.9044"/>
<polygon fill="midnightblue" stroke="midnightblue" points="396.214,-73.4582 385.696,-74.7318 394.713,-80.2953 396.214,-73.4582"/>
</g>
</g>
</svg>
