<?xml version="1.0" encoding="UTF-8" standalone="no"?>
<!DOCTYPE svg PUBLIC "-//W3C//DTD SVG 1.1//EN"
 "http://www.w3.org/Graphics/SVG/1.1/DTD/svg11.dtd">
<!-- Generated by graphviz version 2.26.3 (20100126.1600)
 -->
<!-- Title: G Pages: 1 -->
<!--zoomable 452 -->
<svg id="main" version="1.1" xmlns="http://www.w3.org/2000/svg" xmlns:xlink="http://www.w3.org/1999/xlink" xml:space="preserve" onload="init(evt)">
        <defs>
                <circle id="rim" cx="0" cy="0" r="7"/>
                <circle id="rim2" cx="0" cy="0" r="3.5"/>
                <g id="zoomPlus">
                        <use xlink:href="#rim" fill="#404040">
                                <set attributeName="fill" to="#808080" begin="zoomplus.mouseover" end="zoomplus.mouseout"/>
                        </use>
                        <path d="M-4,0h8M0,-4v8" fill="none" stroke="white" stroke-width="1.5" pointer-events="none"/>
                </g>
                <g id="zoomMin">
                        <use xlink:href="#rim" fill="#404040">
                                <set attributeName="fill" to="#808080" begin="zoomminus.mouseover" end="zoomminus.mouseout"/>
                        </use>
                        <path d="M-4,0h8" fill="none" stroke="white" stroke-width="1.5" pointer-events="none"/>
                </g>
                <g id="dirArrow">
                        <path fill="none" stroke="white" stroke-width="1.5" d="M0,-3.0v7 M-2.5,-0.5L0,-3.0L2.5,-0.5"/>
                </g>
               <g id="resetDef">
                       <use xlink:href="#rim2" fill="#404040">
                               <set attributeName="fill" to="#808080" begin="reset.mouseover" end="reset.mouseout"/>
                       </use>
               </g>
        </defs>

<script type="text/javascript">
var viewWidth = 906;
var viewHeight = 452;
var sectionId = 'dynsection-0';
</script>
<script xlink:href="svgpan.js"/>
<svg id="graph" class="graph">
<g id="viewport">
<title>G</title>
<polygon fill="white" stroke="white" points="-4,5 -4,-448 903,-448 903,5 -4,5"/>
<!-- Node1 -->
<g id="node1" class="node"><title>Node1</title>
<polygon fill="#bfbfbf" stroke="black" points="402.5,-421 402.5,-443 473.5,-443 473.5,-421 402.5,-421"/>
<text text-anchor="middle" x="438" y="-430" font-family="FreeSans" font-size="10.00">workunit.cpp</text>
</g>
<!-- Node2 -->
<g id="node3" class="node"><title>Node2</title>
<a xlink:href="workunit_8h.html" target="_top" xlink:title="This file has the defintion of the workunit.">
<polygon fill="white" stroke="black" points="407.5,-361 407.5,-383 468.5,-383 468.5,-361 407.5,-361"/>
<text text-anchor="middle" x="438" y="-370" font-family="FreeSans" font-size="10.00">workunit.h</text>
</a>
</g>
<!-- Node1&#45;&gt;Node2 -->
<g id="edge2" class="edge"><title>Node1&#45;&gt;Node2</title>
<path fill="none" stroke="midnightblue" d="M438,-420.995C438,-413.311 438,-402.803 438,-393.488"/>
<polygon fill="midnightblue" stroke="midnightblue" points="441.5,-393.343 438,-383.343 434.5,-393.343 441.5,-393.343"/>
</g>
<!-- Node13 -->
<g id="node27" class="node"><title>Node13</title>
<a xlink:href="systemcalls_8h.html" target="_top" xlink:title="This file defines a minimalistic cross&#45;platform thread that the scheduler uses to schedule tasks...">
<polygon fill="white" stroke="black" points="665.5,-181 665.5,-203 742.5,-203 742.5,-181 665.5,-181"/>
<text text-anchor="middle" x="704" y="-190" font-family="FreeSans" font-size="10.00">systemcalls.h</text>
</a>
</g>
<!-- Node1&#45;&gt;Node13 -->
<g id="edge70" class="edge"><title>Node1&#45;&gt;Node13</title>
<path fill="none" stroke="midnightblue" d="M473.714,-426.437C545.333,-413.14 705.331,-372.162 772,-264 785.36,-242.326 760.511,-221.635 737.187,-208.042"/>
<polygon fill="midnightblue" stroke="midnightblue" points="738.851,-204.963 728.405,-203.193 735.467,-211.091 738.851,-204.963"/>
</g>
<!-- Node23 -->
<g id="node59" class="node"><title>Node23</title>
<a xlink:href="atomiccas_8h.html" target="_top" xlink:title="Simple thread safe ways to check and change a specified variable atomically.">
<polygon fill="white" stroke="black" points="-0.5,-301 -0.5,-323 70.5,-323 70.5,-301 -0.5,-301"/>
<text text-anchor="middle" x="35" y="-310" font-family="FreeSans" font-size="10.00">atomiccas.h</text>
</a>
</g>
<!-- Node1&#45;&gt;Node23 -->
<g id="edge72" class="edge"><title>Node1&#45;&gt;Node23</title>
<path fill="none" stroke="midnightblue" d="M402.46,-428.836C331.568,-422.152 175.172,-405.43 126,-384 97.0126,-371.367 69.3619,-347.158 52.3059,-330.318"/>
<polygon fill="midnightblue" stroke="midnightblue" points="54.7638,-327.826 45.2481,-323.167 49.7817,-332.743 54.7638,-327.826"/>
</g>
<!-- Node24 -->
<g id="node62" class="node"><title>Node24</title>
<a xlink:href="doublebufferedresource_8h.html" target="_top" xlink:title="This file defines the template double buffered resources that can be attached to a thread...">
<polygon fill="white" stroke="black" points="40.5,-241 40.5,-263 171.5,-263 171.5,-241 40.5,-241"/>
<text text-anchor="middle" x="106" y="-250" font-family="FreeSans" font-size="10.00">doublebufferedresource.h</text>
</a>
</g>
<!-- Node1&#45;&gt;Node24 -->
<g id="edge76" class="edge"><title>Node1&#45;&gt;Node24</title>
<path fill="none" stroke="midnightblue" d="M408.133,-420.862C362.136,-403.17 271.861,-366.289 201,-324 173.878,-307.814 145.328,-285.336 126.694,-269.821"/>
<polygon fill="midnightblue" stroke="midnightblue" points="128.774,-266.997 118.871,-263.231 124.264,-272.35 128.774,-266.997"/>
</g>
<!-- Node27 -->
<g id="node70" class="node"><title>Node27</title>
<polygon fill="white" stroke="#bfbfbf" points="819,-361 819,-383 869,-383 869,-361 819,-361"/>
<text text-anchor="middle" x="844" y="-370" font-family="FreeSans" font-size="10.00">cassert</text>
</g>
<!-- Node1&#45;&gt;Node27 -->
<g id="edge86" class="edge"><title>Node1&#45;&gt;Node27</title>
<path fill="none" stroke="midnightblue" d="M473.512,-429.356C539.427,-424.009 684.917,-410.132 805,-384 806.285,-383.72 807.589,-383.418 808.901,-383.098"/>
<polygon fill="midnightblue" stroke="midnightblue" points="810.247,-386.36 818.99,-380.376 808.423,-379.602 810.247,-386.36"/>
</g>
<!-- Node3 -->
<g id="node5" class="node"><title>Node3</title>
<a xlink:href="datatypes_8h.html" target="_top" xlink:title="This file declares a few typedefs to allow flexibility, in case a change is required/desired.">
<polygon fill="white" stroke="black" points="375,-121 375,-143 443,-143 443,-121 375,-121"/>
<text text-anchor="middle" x="409" y="-130" font-family="FreeSans" font-size="10.00">datatypes.h</text>
</a>
</g>
<!-- Node2&#45;&gt;Node3 -->
<g id="edge4" class="edge"><title>Node2&#45;&gt;Node3</title>
<path fill="none" stroke="midnightblue" d="M430.768,-360.602C421.583,-346.258 405.109,-320.962 390,-300 378.148,-283.556 368.578,-283.173 362,-264 348.229,-223.864 375.046,-177.139 393.532,-151.438"/>
<polygon fill="midnightblue" stroke="midnightblue" points="396.456,-153.374 399.644,-143.27 390.851,-149.18 396.456,-153.374"/>
</g>
<!-- Node11 -->
<g id="node21" class="node"><title>Node11</title>
<a xlink:href="framescheduler_8h.html" target="_top" xlink:title="This file has the Declarations for the main FrameScheduler class.">
<polygon fill="white" stroke="black" points="505,-301 505,-323 599,-323 599,-301 505,-301"/>
<text text-anchor="middle" x="552" y="-310" font-family="FreeSans" font-size="10.00">framescheduler.h</text>
</a>
</g>
<!-- Node2&#45;&gt;Node11 -->
<g id="edge20" class="edge"><title>Node2&#45;&gt;Node11</title>
<path fill="none" stroke="midnightblue" d="M458.909,-360.995C476.555,-351.708 502.041,-338.294 521.886,-327.849"/>
<polygon fill="midnightblue" stroke="midnightblue" points="523.618,-330.893 530.837,-323.138 520.358,-324.699 523.618,-330.893"/>
</g>
<!-- Node12 -->
<g id="node24" class="node"><title>Node12</title>
<a xlink:href="thread_8h.html" target="_top" xlink:title="This file defines a minimalistic cross&#45;platform thread that the scheduler uses to schedule tasks...">
<polygon fill="white" stroke="black" points="710.5,-241 710.5,-263 763.5,-263 763.5,-241 710.5,-241"/>
<text text-anchor="middle" x="737" y="-250" font-family="FreeSans" font-size="10.00">thread.h</text>
</a>
</g>
<!-- Node2&#45;&gt;Node12 -->
<g id="edge64" class="edge"><title>Node2&#45;&gt;Node12</title>
<path fill="none" stroke="midnightblue" d="M468.505,-365.657C503.095,-357.949 560.814,-343.514 608,-324 645.574,-308.461 686.081,-284.557 711.48,-268.606"/>
<polygon fill="midnightblue" stroke="midnightblue" points="713.554,-271.435 720.12,-263.12 709.802,-265.526 713.554,-271.435"/>
</g>
<!-- Node14 -->
<g id="node30" class="node"><title>Node14</title>
<a xlink:href="mutex_8h.html" target="_top" xlink:title="This file declares and defines a mutex that is a partial implementation.">
<polygon fill="white" stroke="black" points="744.5,-121 744.5,-143 795.5,-143 795.5,-121 744.5,-121"/>
<text text-anchor="middle" x="770" y="-130" font-family="FreeSans" font-size="10.00">mutex.h</text>
</a>
</g>
<!-- Node2&#45;&gt;Node14 -->
<g id="edge54" class="edge"><title>Node2&#45;&gt;Node14</title>
<path fill="none" stroke="midnightblue" d="M468.506,-367.132C544.502,-354.28 738.57,-316.767 772,-264 793.44,-230.158 784.669,-180.99 776.948,-153.203"/>
<polygon fill="midnightblue" stroke="midnightblue" points="780.221,-151.931 774.001,-143.354 773.514,-153.937 780.221,-151.931"/>
</g>
<!-- Node16 -->
<g id="node36" class="node"><title>Node16</title>
<polygon fill="white" stroke="#bfbfbf" points="230,-181 230,-203 274,-203 274,-181 230,-181"/>
<text text-anchor="middle" x="252" y="-190" font-family="FreeSans" font-size="10.00">vector</text>
</g>
<!-- Node2&#45;&gt;Node16 -->
<g id="edge68" class="edge"><title>Node2&#45;&gt;Node16</title>
<path fill="none" stroke="midnightblue" d="M407.182,-369.912C352.356,-365.485 241.417,-353.077 218,-324 194.583,-294.924 206.677,-275.575 218,-240 221.356,-229.455 227.963,-219.238 234.467,-210.959"/>
<polygon fill="midnightblue" stroke="midnightblue" points="237.315,-213.01 241.067,-203.101 231.955,-208.507 237.315,-213.01"/>
</g>
<!-- Node17 -->
<g id="node38" class="node"><title>Node17</title>
<a xlink:href="workunitkey_8h.html" target="_top" xlink:title="This file defines the metadata used to sort workunits.">
<polygon fill="white" stroke="black" points="370.5,-241 370.5,-263 447.5,-263 447.5,-241 370.5,-241"/>
<text text-anchor="middle" x="409" y="-250" font-family="FreeSans" font-size="10.00">workunitkey.h</text>
</a>
</g>
<!-- Node2&#45;&gt;Node17 -->
<g id="edge66" class="edge"><title>Node2&#45;&gt;Node17</title>
<path fill="none" stroke="midnightblue" d="M438.571,-360.547C438.982,-346.146 438.676,-320.791 433,-300 430.39,-290.439 425.805,-280.536 421.337,-272.226"/>
<polygon fill="midnightblue" stroke="midnightblue" points="424.257,-270.281 416.271,-263.318 418.173,-273.741 424.257,-270.281"/>
</g>
<!-- Node21 -->
<g id="node49" class="node"><title>Node21</title>
<a xlink:href="rollingaverage_8h.html" target="_top" xlink:title="This Store the implementation and the declaration of the RollingAverage, BufferedRollingAverage, WeightedRollingAverage and the DefaultRollingAverage.">
<polygon fill="white" stroke="black" points="226.5,-241 226.5,-263 315.5,-263 315.5,-241 226.5,-241"/>
<text text-anchor="middle" x="271" y="-250" font-family="FreeSans" font-size="10.00">rollingaverage.h</text>
</a>
</g>
<!-- Node2&#45;&gt;Node21 -->
<g id="edge56" class="edge"><title>Node2&#45;&gt;Node21</title>
<path fill="none" stroke="midnightblue" d="M427.99,-360.76C414.172,-345.678 388,-318.635 362,-300 344.483,-287.445 323.264,-276.062 305.723,-267.535"/>
<polygon fill="midnightblue" stroke="midnightblue" points="306.938,-264.237 296.404,-263.103 303.931,-270.559 306.938,-264.237"/>
</g>
<!-- Node22 -->
<g id="node53" class="node"><title>Node22</title>
<a xlink:href="threadingenumerations_8h.html" target="_top" xlink:title="Any enumerations the threading library requires are all declared here.">
<polygon fill="white" stroke="black" points="226.5,-301 226.5,-323 353.5,-323 353.5,-301 226.5,-301"/>
<text text-anchor="middle" x="290" y="-310" font-family="FreeSans" font-size="10.00">threadingenumerations.h</text>
</a>
</g>
<!-- Node2&#45;&gt;Node22 -->
<g id="edge62" class="edge"><title>Node2&#45;&gt;Node22</title>
<path fill="none" stroke="midnightblue" d="M410.855,-360.995C387.25,-351.426 352.839,-337.475 326.768,-326.906"/>
<polygon fill="midnightblue" stroke="midnightblue" points="327.806,-323.55 317.224,-323.037 325.176,-330.037 327.806,-323.55"/>
</g>
<!-- Node4 -->
<g id="node7" class="node"><title>Node4</title>
<a xlink:href="compilerthreadcompat_8h.html" target="_top" xlink:title="This file determines what features are offered by the compiler that this library can take advantage o...">
<polygon fill="white" stroke="black" points="708,-61 708,-83 832,-83 832,-61 708,-61"/>
<text text-anchor="middle" x="770" y="-70" font-family="FreeSans" font-size="10.00">compilerthreadcompat.h</text>
</a>
</g>
<!-- Node3&#45;&gt;Node4 -->
<g id="edge6" class="edge"><title>Node3&#45;&gt;Node4</title>
<path fill="none" stroke="midnightblue" d="M443.287,-126.301C501.398,-116.643 620.428,-96.8595 697.641,-84.0264"/>
<polygon fill="midnightblue" stroke="midnightblue" points="698.488,-87.4337 707.779,-82.3414 697.34,-80.5284 698.488,-87.4337"/>
</g>
<!-- Node9 -->
<g id="node17" class="node"><title>Node9</title>
<polygon fill="white" stroke="#bfbfbf" points="549.5,-61 549.5,-83 590.5,-83 590.5,-61 549.5,-61"/>
<text text-anchor="middle" x="570" y="-70" font-family="FreeSans" font-size="10.00">string</text>
</g>
<!-- Node3&#45;&gt;Node9 -->
<g id="edge16" class="edge"><title>Node3&#45;&gt;Node9</title>
<path fill="none" stroke="midnightblue" d="M438.53,-120.995C467.277,-110.282 510.755,-94.0789 539.746,-83.2748"/>
<polygon fill="midnightblue" stroke="midnightblue" points="541.2,-86.4681 549.348,-79.6963 538.756,-79.9088 541.2,-86.4681"/>
</g>
<!-- Node10 -->
<g id="node19" class="node"><title>Node10</title>
<polygon fill="white" stroke="#bfbfbf" points="385.5,-61 385.5,-83 432.5,-83 432.5,-61 385.5,-61"/>
<text text-anchor="middle" x="409" y="-70" font-family="FreeSans" font-size="10.00">stdint.h</text>
</g>
<!-- Node3&#45;&gt;Node10 -->
<g id="edge18" class="edge"><title>Node3&#45;&gt;Node10</title>
<path fill="none" stroke="midnightblue" d="M409,-120.995C409,-113.311 409,-102.803 409,-93.4884"/>
<polygon fill="midnightblue" stroke="midnightblue" points="412.5,-93.3428 409,-83.3428 405.5,-93.3429 412.5,-93.3428"/>
</g>
<!-- Node5 -->
<g id="node9" class="node"><title>Node5</title>
<polygon fill="white" stroke="#bfbfbf" points="634,-1 634,-23 692,-23 692,-1 634,-1"/>
<text text-anchor="middle" x="663" y="-10" font-family="FreeSans" font-size="10.00">pthread.h</text>
</g>
<!-- Node4&#45;&gt;Node5 -->
<g id="edge8" class="edge"><title>Node4&#45;&gt;Node5</title>
<path fill="none" stroke="midnightblue" d="M750.375,-60.9951C733.962,-51.7917 710.324,-38.5366 691.772,-28.1336"/>
<polygon fill="midnightblue" stroke="midnightblue" points="693.298,-24.9766 682.863,-23.1383 689.874,-31.0822 693.298,-24.9766"/>
</g>
<!-- Node6 -->
<g id="node11" class="node"><title>Node6</title>
<polygon fill="white" stroke="#bfbfbf" points="709.5,-1 709.5,-23 760.5,-23 760.5,-1 709.5,-1"/>
<text text-anchor="middle" x="735" y="-10" font-family="FreeSans" font-size="10.00">signal.h</text>
</g>
<!-- Node4&#45;&gt;Node6 -->
<g id="edge10" class="edge"><title>Node4&#45;&gt;Node6</title>
<path fill="none" stroke="midnightblue" d="M763.58,-60.9951C758.855,-52.8936 752.297,-41.6525 746.656,-31.981"/>
<polygon fill="midnightblue" stroke="midnightblue" points="749.679,-30.2171 741.617,-23.3428 743.632,-33.7442 749.679,-30.2171"/>
</g>
<!-- Node7 -->
<g id="node13" class="node"><title>Node7</title>
<polygon fill="white" stroke="#bfbfbf" points="778,-1 778,-23 830,-23 830,-1 778,-1"/>
<text text-anchor="middle" x="804" y="-10" font-family="FreeSans" font-size="10.00">sched.h</text>
</g>
<!-- Node4&#45;&gt;Node7 -->
<g id="edge12" class="edge"><title>Node4&#45;&gt;Node7</title>
<path fill="none" stroke="midnightblue" d="M776.236,-60.9951C780.78,-52.9771 787.066,-41.884 792.508,-32.2806"/>
<polygon fill="midnightblue" stroke="midnightblue" points="795.687,-33.7686 797.572,-23.3428 789.597,-30.3175 795.687,-33.7686"/>
</g>
<!-- Node8 -->
<g id="node15" class="node"><title>Node8</title>
<polygon fill="white" stroke="#bfbfbf" points="848,-1 848,-23 898,-23 898,-1 848,-1"/>
<text text-anchor="middle" x="873" y="-10" font-family="FreeSans" font-size="10.00">unistd.h</text>
</g>
<!-- Node4&#45;&gt;Node8 -->
<g id="edge14" class="edge"><title>Node4&#45;&gt;Node8</title>
<path fill="none" stroke="midnightblue" d="M788.892,-60.9951C804.619,-51.8337 827.238,-38.6576 845.059,-28.2763"/>
<polygon fill="midnightblue" stroke="midnightblue" points="847,-31.1962 853.879,-23.1383 843.477,-25.1476 847,-31.1962"/>
</g>
<!-- Node11&#45;&gt;Node3 -->
<g id="edge22" class="edge"><title>Node11&#45;&gt;Node3</title>
<path fill="none" stroke="midnightblue" d="M536.092,-300.935C523.749,-291.879 506.666,-278.274 494,-264 462.098,-228.048 433.814,-178.992 419.301,-151.944"/>
<polygon fill="midnightblue" stroke="midnightblue" points="422.363,-150.247 414.596,-143.04 416.174,-153.517 422.363,-150.247"/>
</g>
<!-- Node11&#45;&gt;Node12 -->
<g id="edge24" class="edge"><title>Node11&#45;&gt;Node12</title>
<path fill="none" stroke="midnightblue" d="M585.932,-300.995C618.451,-290.448 667.377,-274.58 700.673,-263.782"/>
<polygon fill="midnightblue" stroke="midnightblue" points="702.037,-267.019 710.469,-260.605 699.877,-260.36 702.037,-267.019"/>
</g>
<!-- Node11&#45;&gt;Node13 -->
<g id="edge46" class="edge"><title>Node11&#45;&gt;Node13</title>
<path fill="none" stroke="midnightblue" d="M594.82,-300.986C617.425,-293.483 644.449,-281.648 664,-264 679.499,-250.009 690.331,-228.555 696.777,-212.703"/>
<polygon fill="midnightblue" stroke="midnightblue" points="700.096,-213.82 700.385,-203.229 693.555,-211.329 700.096,-213.82"/>
</g>
<!-- Node11&#45;&gt;Node17 -->
<g id="edge42" class="edge"><title>Node11&#45;&gt;Node17</title>
<path fill="none" stroke="midnightblue" d="M525.772,-300.995C503.136,-291.498 470.216,-277.685 445.096,-267.145"/>
<polygon fill="midnightblue" stroke="midnightblue" points="446.122,-263.78 435.546,-263.138 443.413,-270.235 446.122,-263.78"/>
</g>
<!-- Node18 -->
<g id="node42" class="node"><title>Node18</title>
<polygon fill="white" stroke="#bfbfbf" points="503,-241 503,-263 539,-263 539,-241 503,-241"/>
<text text-anchor="middle" x="521" y="-250" font-family="FreeSans" font-size="10.00">map</text>
</g>
<!-- Node11&#45;&gt;Node18 -->
<g id="edge48" class="edge"><title>Node11&#45;&gt;Node18</title>
<path fill="none" stroke="midnightblue" d="M546.314,-300.995C542.172,-292.977 536.44,-281.884 531.478,-272.281"/>
<polygon fill="midnightblue" stroke="midnightblue" points="534.56,-270.621 526.86,-263.343 528.341,-273.834 534.56,-270.621"/>
</g>
<!-- Node19 -->
<g id="node44" class="node"><title>Node19</title>
<polygon fill="white" stroke="#bfbfbf" points="557,-241 557,-263 587,-263 587,-241 557,-241"/>
<text text-anchor="middle" x="572" y="-250" font-family="FreeSans" font-size="10.00">set</text>
</g>
<!-- Node11&#45;&gt;Node19 -->
<g id="edge50" class="edge"><title>Node11&#45;&gt;Node19</title>
<path fill="none" stroke="midnightblue" d="M555.668,-300.995C558.285,-293.144 561.885,-282.345 565.039,-272.883"/>
<polygon fill="midnightblue" stroke="midnightblue" points="568.377,-273.937 568.219,-263.343 561.736,-271.723 568.377,-273.937"/>
</g>
<!-- Node20 -->
<g id="node46" class="node"><title>Node20</title>
<polygon fill="white" stroke="#bfbfbf" points="605,-241 605,-263 655,-263 655,-241 605,-241"/>
<text text-anchor="middle" x="630" y="-250" font-family="FreeSans" font-size="10.00">fstream</text>
</g>
<!-- Node11&#45;&gt;Node20 -->
<g id="edge52" class="edge"><title>Node11&#45;&gt;Node20</title>
<path fill="none" stroke="midnightblue" d="M566.306,-300.995C577.779,-292.17 594.095,-279.619 607.341,-269.43"/>
<polygon fill="midnightblue" stroke="midnightblue" points="609.728,-272.01 615.52,-263.138 605.46,-266.461 609.728,-272.01"/>
</g>
<!-- Node12&#45;&gt;Node4 -->
<g id="edge26" class="edge"><title>Node12&#45;&gt;Node4</title>
<path fill="none" stroke="midnightblue" d="M747.088,-240.764C762.966,-222.222 793.104,-183.339 804,-144 806.847,-133.72 807.235,-130.164 804,-120 800.644,-109.455 794.037,-99.2376 787.533,-90.959"/>
<polygon fill="midnightblue" stroke="midnightblue" points="790.045,-88.5074 780.933,-83.1015 784.685,-93.0098 790.045,-88.5074"/>
</g>
<!-- Node12&#45;&gt;Node13 -->
<g id="edge28" class="edge"><title>Node12&#45;&gt;Node13</title>
<path fill="none" stroke="midnightblue" d="M730.947,-240.995C726.537,-232.977 720.436,-221.884 715.154,-212.281"/>
<polygon fill="midnightblue" stroke="midnightblue" points="718.125,-210.418 710.239,-203.343 711.991,-213.792 718.125,-210.418"/>
</g>
<!-- Node12&#45;&gt;Node14 -->
<g id="edge32" class="edge"><title>Node12&#45;&gt;Node14</title>
<path fill="none" stroke="midnightblue" d="M740.306,-240.965C743.196,-231.251 747.469,-216.713 751,-204 755.742,-186.927 760.852,-167.497 764.578,-153.127"/>
<polygon fill="midnightblue" stroke="midnightblue" points="768.017,-153.806 767.127,-143.248 761.239,-152.056 768.017,-153.806"/>
</g>
<!-- Node15 -->
<g id="node34" class="node"><title>Node15</title>
<polygon fill="white" stroke="#bfbfbf" points="595.5,-181 595.5,-203 648.5,-203 648.5,-181 595.5,-181"/>
<text text-anchor="middle" x="622" y="-190" font-family="FreeSans" font-size="10.00">ostream</text>
</g>
<!-- Node12&#45;&gt;Node15 -->
<g id="edge38" class="edge"><title>Node12&#45;&gt;Node15</title>
<path fill="none" stroke="midnightblue" d="M715.907,-240.995C698.106,-231.708 672.397,-218.294 652.378,-207.849"/>
<polygon fill="midnightblue" stroke="midnightblue" points="653.833,-204.661 643.349,-203.138 650.595,-210.867 653.833,-204.661"/>
</g>
<!-- Node12&#45;&gt;Node16 -->
<g id="edge40" class="edge"><title>Node12&#45;&gt;Node16</title>
<path fill="none" stroke="midnightblue" d="M710.348,-247.311C696.54,-244.959 679.39,-242.16 664,-240 523.202,-220.237 354.52,-202.407 284.713,-195.284"/>
<polygon fill="midnightblue" stroke="midnightblue" points="284.68,-191.763 274.377,-194.234 283.972,-198.727 284.68,-191.763"/>
</g>
<!-- Node13&#45;&gt;Node3 -->
<g id="edge30" class="edge"><title>Node13&#45;&gt;Node3</title>
<path fill="none" stroke="midnightblue" d="M665.315,-181.931C662.505,-181.259 659.712,-180.608 657,-180 586.088,-164.099 503.065,-148.671 453.323,-139.767"/>
<polygon fill="midnightblue" stroke="midnightblue" points="453.689,-136.277 443.23,-137.968 452.461,-143.168 453.689,-136.277"/>
</g>
<!-- Node14&#45;&gt;Node4 -->
<g id="edge34" class="edge"><title>Node14&#45;&gt;Node4</title>
<path fill="none" stroke="midnightblue" d="M770,-120.995C770,-113.311 770,-102.803 770,-93.4884"/>
<polygon fill="midnightblue" stroke="midnightblue" points="773.5,-93.3428 770,-83.3428 766.5,-93.3429 773.5,-93.3428"/>
</g>
<!-- Node14&#45;&gt;Node9 -->
<g id="edge36" class="edge"><title>Node14&#45;&gt;Node9</title>
<path fill="none" stroke="midnightblue" d="M744.263,-124.279C707.461,-113.238 639.917,-92.9751 600.603,-81.1809"/>
<polygon fill="midnightblue" stroke="midnightblue" points="601.366,-77.7557 590.782,-78.2346 599.354,-84.4605 601.366,-77.7557"/>
</g>
<!-- Node17&#45;&gt;Node3 -->
<g id="edge44" class="edge"><title>Node17&#45;&gt;Node3</title>
<path fill="none" stroke="midnightblue" d="M409,-240.926C409,-221.012 409,-178.851 409,-153.216"/>
<polygon fill="midnightblue" stroke="midnightblue" points="412.5,-153.047 409,-143.047 405.5,-153.047 412.5,-153.047"/>
</g>
<!-- Node21&#45;&gt;Node3 -->
<g id="edge60" class="edge"><title>Node21&#45;&gt;Node3</title>
<path fill="none" stroke="midnightblue" d="M278.04,-240.993C288.051,-225.936 307.576,-198.66 329,-180 343.363,-167.49 361.411,-156.345 376.728,-147.951"/>
<polygon fill="midnightblue" stroke="midnightblue" points="378.672,-150.88 385.854,-143.092 375.382,-144.702 378.672,-150.88"/>
</g>
<!-- Node21&#45;&gt;Node16 -->
<g id="edge58" class="edge"><title>Node21&#45;&gt;Node16</title>
<path fill="none" stroke="midnightblue" d="M267.515,-240.995C265.029,-233.144 261.609,-222.345 258.613,-212.883"/>
<polygon fill="midnightblue" stroke="midnightblue" points="261.948,-211.82 255.592,-203.343 255.274,-213.933 261.948,-211.82"/>
</g>
<!-- Node23&#45;&gt;Node3 -->
<g id="edge74" class="edge"><title>Node23&#45;&gt;Node3</title>
<path fill="none" stroke="midnightblue" d="M32.9511,-300.955C28.7738,-274.549 22.6547,-207.889 61,-180 108.596,-145.383 282.213,-135.68 364.788,-133.001"/>
<polygon fill="midnightblue" stroke="midnightblue" points="364.978,-136.497 374.867,-132.694 364.765,-129.5 364.978,-136.497"/>
</g>
<!-- Node24&#45;&gt;Node3 -->
<g id="edge78" class="edge"><title>Node24&#45;&gt;Node3</title>
<path fill="none" stroke="midnightblue" d="M93.4509,-240.97C77.7787,-225.885 54.8739,-198.578 71,-180 90.0171,-158.091 277.652,-141.618 364.861,-135.081"/>
<polygon fill="midnightblue" stroke="midnightblue" points="365.265,-138.561 374.98,-134.333 364.749,-131.58 365.265,-138.561"/>
</g>
<!-- Node24&#45;&gt;Node16 -->
<g id="edge84" class="edge"><title>Node24&#45;&gt;Node16</title>
<path fill="none" stroke="midnightblue" d="M132.779,-240.995C157.452,-230.856 194.091,-215.798 220.233,-205.055"/>
<polygon fill="midnightblue" stroke="midnightblue" points="221.773,-208.206 229.692,-201.168 219.112,-201.732 221.773,-208.206"/>
</g>
<!-- Node25 -->
<g id="node65" class="node"><title>Node25</title>
<polygon fill="white" stroke="#bfbfbf" points="80,-181 80,-203 138,-203 138,-181 80,-181"/>
<text text-anchor="middle" x="109" y="-190" font-family="FreeSans" font-size="10.00">algorithm</text>
</g>
<!-- Node24&#45;&gt;Node25 -->
<g id="edge80" class="edge"><title>Node24&#45;&gt;Node25</title>
<path fill="none" stroke="midnightblue" d="M106.55,-240.995C106.934,-233.311 107.46,-222.803 107.926,-213.488"/>
<polygon fill="midnightblue" stroke="midnightblue" points="111.429,-213.505 108.433,-203.343 104.438,-213.156 111.429,-213.505"/>
</g>
<!-- Node26 -->
<g id="node67" class="node"><title>Node26</title>
<polygon fill="white" stroke="#bfbfbf" points="155.5,-181 155.5,-203 208.5,-203 208.5,-181 155.5,-181"/>
<text text-anchor="middle" x="182" y="-190" font-family="FreeSans" font-size="10.00">sstream</text>
</g>
<!-- Node24&#45;&gt;Node26 -->
<g id="edge82" class="edge"><title>Node24&#45;&gt;Node26</title>
<path fill="none" stroke="midnightblue" d="M119.94,-240.995C131.118,-232.17 147.016,-219.619 159.922,-209.43"/>
<polygon fill="midnightblue" stroke="midnightblue" points="162.211,-212.082 167.891,-203.138 157.874,-206.588 162.211,-212.082"/>
</g>
</g>
</svg>
        <g id="navigator" transform="translate(0 0)" fill="#404254">
                <rect fill="#f2f5e9" fill-opacity="0.5" stroke="#606060" stroke-width=".5" x="0" y="0" width="60" height="60"/>
                <use id="zoomplus" xlink:href="#zoomPlus" x="17" y="9" onmousedown="handleZoom(evt,'in')"/>
                <use id="zoomminus" xlink:href="#zoomMin" x="42" y="9" onmousedown="handleZoom(evt,'out')"/>
                <use id="reset" xlink:href="#resetDef" x="30" y="36" onmousedown="handleReset()"/>
                <g id="arrowUp" xlink:href="#dirArrow" transform="translate(30 24)" onmousedown="handlePan(0,-1)">
                  <use xlink:href="#rim" fill="#404040">
                        <set attributeName="fill" to="#808080" begin="arrowUp.mouseover" end="arrowUp.mouseout"/>
                  </use>
                  <path fill="none" stroke="white" stroke-width="1.5" d="M0,-3.0v7 M-2.5,-0.5L0,-3.0L2.5,-0.5"/>
                </g>
                <g id="arrowRight" xlink:href="#dirArrow" transform="rotate(90) translate(36 -43)" onmousedown="handlePan(1,0)">
                  <use xlink:href="#rim" fill="#404040">
                        <set attributeName="fill" to="#808080" begin="arrowRight.mouseover" end="arrowRight.mouseout"/>
                  </use>
                  <path fill="none" stroke="white" stroke-width="1.5" d="M0,-3.0v7 M-2.5,-0.5L0,-3.0L2.5,-0.5"/>
                </g>
                <g id="arrowDown" xlink:href="#dirArrow" transform="rotate(180) translate(-30 -48)" onmousedown="handlePan(0,1)">
                  <use xlink:href="#rim" fill="#404040">
                        <set attributeName="fill" to="#808080" begin="arrowDown.mouseover" end="arrowDown.mouseout"/>
                  </use>
                  <path fill="none" stroke="white" stroke-width="1.5" d="M0,-3.0v7 M-2.5,-0.5L0,-3.0L2.5,-0.5"/>
                </g>
                <g id="arrowLeft" xlink:href="#dirArrow" transform="rotate(270) translate(-36 17)" onmousedown="handlePan(-1,0)">
                  <use xlink:href="#rim" fill="#404040">
                        <set attributeName="fill" to="#808080" begin="arrowLeft.mouseover" end="arrowLeft.mouseout"/>
                  </use>
                  <path fill="none" stroke="white" stroke-width="1.5" d="M0,-3.0v7 M-2.5,-0.5L0,-3.0L2.5,-0.5"/>
                </g>
        </g>
</svg>
