<?xml version="1.0" encoding="UTF-8" standalone="no"?>
<!DOCTYPE svg PUBLIC "-//W3C//DTD SVG 1.1//EN"
 "http://www.w3.org/Graphics/SVG/1.1/DTD/svg11.dtd">
<!-- Generated by graphviz version 2.26.3 (20100126.1600)
 -->
<!-- Title: G Pages: 1 -->
<!--zoomable 452 -->
<svg id="main" version="1.1" xmlns="http://www.w3.org/2000/svg" xmlns:xlink="http://www.w3.org/1999/xlink" xml:space="preserve" onload="init(evt)">
        <defs>
                <circle id="rim" cx="0" cy="0" r="7"/>
                <circle id="rim2" cx="0" cy="0" r="3.5"/>
                <g id="zoomPlus">
                        <use xlink:href="#rim" fill="#404040">
                                <set attributeName="fill" to="#808080" begin="zoomplus.mouseover" end="zoomplus.mouseout"/>
                        </use>
                        <path d="M-4,0h8M0,-4v8" fill="none" stroke="white" stroke-width="1.5" pointer-events="none"/>
                </g>
                <g id="zoomMin">
                        <use xlink:href="#rim" fill="#404040">
                                <set attributeName="fill" to="#808080" begin="zoomminus.mouseover" end="zoomminus.mouseout"/>
                        </use>
                        <path d="M-4,0h8" fill="none" stroke="white" stroke-width="1.5" pointer-events="none"/>
                </g>
                <g id="dirArrow">
                        <path fill="none" stroke="white" stroke-width="1.5" d="M0,-3.0v7 M-2.5,-0.5L0,-3.0L2.5,-0.5"/>
                </g>
               <g id="resetDef">
                       <use xlink:href="#rim2" fill="#404040">
                               <set attributeName="fill" to="#808080" begin="reset.mouseover" end="reset.mouseout"/>
                       </use>
               </g>
        </defs>

<script type="text/javascript">
var viewWidth = 911;
var viewHeight = 452;
var sectionId = 'dynsection-0';
</script>
<script xlink:href="svgpan.js"/>
<svg id="graph" class="graph">
<g id="viewport">
<title>G</title>
<polygon fill="white" stroke="white" points="-4,5 -4,-448 908,-448 908,5 -4,5"/>
<!-- Node1 -->
<g id="node1" class="node"><title>Node1</title>
<polygon fill="#bfbfbf" stroke="black" points="322.5,-421 322.5,-443 393.5,-443 393.5,-421 322.5,-421"/>
<text text-anchor="middle" x="358" y="-430" font-family="FreeSans" font-size="10.00">workunit.cpp</text>
</g>
<!-- Node2 -->
<g id="node3" class="node"><title>Node2</title>
<a xlink:href="workunit_8h.html" target="_top" xlink:title="This file has the defintion of the workunit.">
<polygon fill="white" stroke="black" points="448.5,-361 448.5,-383 509.5,-383 509.5,-361 448.5,-361"/>
<text text-anchor="middle" x="479" y="-370" font-family="FreeSans" font-size="10.00">workunit.h</text>
</a>
</g>
<!-- Node1&#45;&gt;Node2 -->
<g id="edge2" class="edge"><title>Node1&#45;&gt;Node2</title>
<path fill="none" stroke="midnightblue" d="M380.193,-420.995C399.008,-411.666 426.218,-398.173 447.323,-387.708"/>
<polygon fill="midnightblue" stroke="midnightblue" points="449.134,-390.717 456.538,-383.138 446.024,-384.445 449.134,-390.717"/>
</g>
<!-- Node12 -->
<g id="node24" class="node"><title>Node12</title>
<a xlink:href="doublebufferedresource_8h.html" target="_top" xlink:title="This file defines the template double buffered resources that can be attached to a thread...">
<polygon fill="white" stroke="black" points="55.5,-241 55.5,-263 186.5,-263 186.5,-241 55.5,-241"/>
<text text-anchor="middle" x="121" y="-250" font-family="FreeSans" font-size="10.00">doublebufferedresource.h</text>
</a>
</g>
<!-- Node1&#45;&gt;Node12 -->
<g id="edge86" class="edge"><title>Node1&#45;&gt;Node12</title>
<path fill="none" stroke="midnightblue" d="M343.175,-420.74C303.011,-390.236 191.899,-305.847 143.745,-269.274"/>
<polygon fill="midnightblue" stroke="midnightblue" points="145.598,-266.287 135.517,-263.026 141.364,-271.861 145.598,-266.287"/>
</g>
<!-- Node17 -->
<g id="node36" class="node"><title>Node17</title>
<a xlink:href="systemcalls_8h.html" target="_top" xlink:title="This file defines a minimalistic cross&#45;platform thread that the scheduler uses to schedule tasks...">
<polygon fill="white" stroke="black" points="517.5,-181 517.5,-203 594.5,-203 594.5,-181 517.5,-181"/>
<text text-anchor="middle" x="556" y="-190" font-family="FreeSans" font-size="10.00">systemcalls.h</text>
</a>
</g>
<!-- Node1&#45;&gt;Node17 -->
<g id="edge80" class="edge"><title>Node1&#45;&gt;Node17</title>
<path fill="none" stroke="midnightblue" d="M355.211,-420.825C347.858,-388.473 331.485,-293.631 377,-240 393.777,-220.231 460.381,-206.329 507.42,-198.742"/>
<polygon fill="midnightblue" stroke="midnightblue" points="508.094,-202.179 517.432,-197.174 507.011,-195.263 508.094,-202.179"/>
</g>
<!-- Node26 -->
<g id="node67" class="node"><title>Node26</title>
<a xlink:href="atomicoperations_8h.html" target="_top" xlink:title="Simple thread safe ways to check and change a specified variable atomically.">
<polygon fill="white" stroke="black" points="-0.5,-301 -0.5,-323 100.5,-323 100.5,-301 -0.5,-301"/>
<text text-anchor="middle" x="50" y="-310" font-family="FreeSans" font-size="10.00">atomicoperations.h</text>
</a>
</g>
<!-- Node1&#45;&gt;Node26 -->
<g id="edge82" class="edge"><title>Node1&#45;&gt;Node26</title>
<path fill="none" stroke="midnightblue" d="M322.188,-422.564C290.243,-413.775 242.414,-399.695 202,-384 158.773,-367.212 110.682,-343.544 80.3972,-327.993"/>
<polygon fill="midnightblue" stroke="midnightblue" points="81.7096,-324.732 71.2191,-323.249 78.495,-330.95 81.7096,-324.732"/>
</g>
<!-- Node27 -->
<g id="node71" class="node"><title>Node27</title>
<polygon fill="white" stroke="#bfbfbf" points="527,-361 527,-383 577,-383 577,-361 527,-361"/>
<text text-anchor="middle" x="552" y="-370" font-family="FreeSans" font-size="10.00">cassert</text>
</g>
<!-- Node1&#45;&gt;Node27 -->
<g id="edge88" class="edge"><title>Node1&#45;&gt;Node27</title>
<path fill="none" stroke="midnightblue" d="M393.739,-421.809C424.232,-412.997 469.447,-399.652 517.212,-384.171"/>
<polygon fill="midnightblue" stroke="midnightblue" points="518.372,-387.474 526.795,-381.047 516.202,-380.819 518.372,-387.474"/>
</g>
<!-- Node3 -->
<g id="node5" class="node"><title>Node3</title>
<a xlink:href="datatypes_8h.html" target="_top" xlink:title="This file declares a few typedefs to allow flexibility, in case a change is required/desired.">
<polygon fill="white" stroke="black" points="456,-121 456,-143 524,-143 524,-121 456,-121"/>
<text text-anchor="middle" x="490" y="-130" font-family="FreeSans" font-size="10.00">datatypes.h</text>
</a>
</g>
<!-- Node2&#45;&gt;Node3 -->
<g id="edge4" class="edge"><title>Node2&#45;&gt;Node3</title>
<path fill="none" stroke="midnightblue" d="M509.562,-362.224C512.403,-361.428 515.247,-360.673 518,-360 604.462,-338.876 656.87,-391.4 715,-324 739.39,-295.721 736.301,-271.969 717,-240 678.115,-175.592 588.664,-148.954 534.382,-138.425"/>
<polygon fill="midnightblue" stroke="midnightblue" points="534.815,-134.946 524.348,-136.584 533.552,-141.831 534.815,-134.946"/>
</g>
<!-- Node11 -->
<g id="node21" class="node"><title>Node11</title>
<a xlink:href="framescheduler_8h.html" target="_top" xlink:title="This file has the Declarations for the main FrameScheduler class.">
<polygon fill="white" stroke="black" points="468,-301 468,-323 562,-323 562,-301 468,-301"/>
<text text-anchor="middle" x="515" y="-310" font-family="FreeSans" font-size="10.00">framescheduler.h</text>
</a>
</g>
<!-- Node2&#45;&gt;Node11 -->
<g id="edge20" class="edge"><title>Node2&#45;&gt;Node11</title>
<path fill="none" stroke="midnightblue" d="M485.603,-360.995C490.464,-352.894 497.208,-341.653 503.011,-331.981"/>
<polygon fill="midnightblue" stroke="midnightblue" points="506.051,-333.719 508.194,-323.343 500.048,-330.117 506.051,-333.719"/>
</g>
<!-- Node15 -->
<g id="node31" class="node"><title>Node15</title>
<polygon fill="white" stroke="#bfbfbf" points="288,-181 288,-203 332,-203 332,-181 288,-181"/>
<text text-anchor="middle" x="310" y="-190" font-family="FreeSans" font-size="10.00">vector</text>
</g>
<!-- Node2&#45;&gt;Node15 -->
<g id="edge78" class="edge"><title>Node2&#45;&gt;Node15</title>
<path fill="none" stroke="midnightblue" d="M468.548,-360.987C450.046,-341.48 410.338,-299.561 377,-264 360.052,-245.922 340.788,-225.202 327.28,-210.645"/>
<polygon fill="midnightblue" stroke="midnightblue" points="329.786,-208.2 320.419,-203.248 324.653,-212.96 329.786,-208.2"/>
</g>
<!-- Node16 -->
<g id="node33" class="node"><title>Node16</title>
<a xlink:href="thread_8h.html" target="_top" xlink:title="This file defines a minimalistic cross&#45;platform thread that the scheduler uses to schedule tasks...">
<polygon fill="white" stroke="black" points="763.5,-241 763.5,-263 816.5,-263 816.5,-241 763.5,-241"/>
<text text-anchor="middle" x="790" y="-250" font-family="FreeSans" font-size="10.00">thread.h</text>
</a>
</g>
<!-- Node2&#45;&gt;Node16 -->
<g id="edge74" class="edge"><title>Node2&#45;&gt;Node16</title>
<path fill="none" stroke="midnightblue" d="M509.543,-362.145C512.388,-361.366 515.239,-360.636 518,-360 619.686,-336.596 664.403,-383.675 750,-324 767.417,-311.858 778.086,-289.581 783.976,-273.009"/>
<polygon fill="midnightblue" stroke="midnightblue" points="787.431,-273.699 787.179,-263.107 780.771,-271.544 787.431,-273.699"/>
</g>
<!-- Node18 -->
<g id="node39" class="node"><title>Node18</title>
<a xlink:href="mutex_8h.html" target="_top" xlink:title="This file declares and defines a mutex that is a partial implementation.">
<polygon fill="white" stroke="black" points="749.5,-121 749.5,-143 800.5,-143 800.5,-121 749.5,-121"/>
<text text-anchor="middle" x="775" y="-130" font-family="FreeSans" font-size="10.00">mutex.h</text>
</a>
</g>
<!-- Node2&#45;&gt;Node18 -->
<g id="edge64" class="edge"><title>Node2&#45;&gt;Node18</title>
<path fill="none" stroke="midnightblue" d="M509.534,-362.103C512.38,-361.332 515.234,-360.616 518,-360 630.15,-335.026 673.334,-379.387 774,-324 812.266,-302.946 834.394,-282.653 825,-240 817.793,-207.278 799.653,-172.675 787.324,-151.705"/>
<polygon fill="midnightblue" stroke="midnightblue" points="790.288,-149.842 782.128,-143.085 784.293,-153.456 790.288,-149.842"/>
</g>
<!-- Node20 -->
<g id="node46" class="node"><title>Node20</title>
<a xlink:href="workunitkey_8h.html" target="_top" xlink:title="This file defines the metadata used to sort workunits.">
<polygon fill="white" stroke="black" points="385.5,-241 385.5,-263 462.5,-263 462.5,-241 385.5,-241"/>
<text text-anchor="middle" x="424" y="-250" font-family="FreeSans" font-size="10.00">workunitkey.h</text>
</a>
</g>
<!-- Node2&#45;&gt;Node20 -->
<g id="edge76" class="edge"><title>Node2&#45;&gt;Node20</title>
<path fill="none" stroke="midnightblue" d="M473.924,-360.926C464.674,-340.744 444.951,-297.712 433.254,-272.191"/>
<polygon fill="midnightblue" stroke="midnightblue" points="436.412,-270.68 429.063,-263.047 430.048,-273.596 436.412,-270.68"/>
</g>
<!-- Node24 -->
<g id="node57" class="node"><title>Node24</title>
<a xlink:href="rollingaverage_8h.html" target="_top" xlink:title="This Store the implementation and the declaration of the RollingAverage, BufferedRollingAverage, WeightedRollingAverage and the DefaultRollingAverage.">
<polygon fill="white" stroke="black" points="203.5,-241 203.5,-263 292.5,-263 292.5,-241 203.5,-241"/>
<text text-anchor="middle" x="248" y="-250" font-family="FreeSans" font-size="10.00">rollingaverage.h</text>
</a>
</g>
<!-- Node2&#45;&gt;Node24 -->
<g id="edge66" class="edge"><title>Node2&#45;&gt;Node24</title>
<path fill="none" stroke="midnightblue" d="M456.157,-360.964C436.431,-351.371 407.214,-337.008 382,-324 345.679,-305.262 304.303,-282.868 277.256,-268.085"/>
<polygon fill="midnightblue" stroke="midnightblue" points="278.771,-264.924 268.319,-263.192 275.41,-271.064 278.771,-264.924"/>
</g>
<!-- Node25 -->
<g id="node61" class="node"><title>Node25</title>
<a xlink:href="threadingenumerations_8h.html" target="_top" xlink:title="Any enumerations the threading library requires are all declared here.">
<polygon fill="white" stroke="black" points="579.5,-301 579.5,-323 706.5,-323 706.5,-301 579.5,-301"/>
<text text-anchor="middle" x="643" y="-310" font-family="FreeSans" font-size="10.00">threadingenumerations.h</text>
</a>
</g>
<!-- Node2&#45;&gt;Node25 -->
<g id="edge72" class="edge"><title>Node2&#45;&gt;Node25</title>
<path fill="none" stroke="midnightblue" d="M509.08,-360.995C535.583,-351.299 574.377,-337.106 603.398,-326.489"/>
<polygon fill="midnightblue" stroke="midnightblue" points="604.645,-329.759 612.833,-323.037 602.24,-323.186 604.645,-329.759"/>
</g>
<!-- Node4 -->
<g id="node7" class="node"><title>Node4</title>
<a xlink:href="compilerthreadcompat_8h.html" target="_top" xlink:title="This file determines what features are offered by the compiler that this library can take advantage o...">
<polygon fill="white" stroke="black" points="713,-61 713,-83 837,-83 837,-61 713,-61"/>
<text text-anchor="middle" x="775" y="-70" font-family="FreeSans" font-size="10.00">compilerthreadcompat.h</text>
</a>
</g>
<!-- Node3&#45;&gt;Node4 -->
<g id="edge6" class="edge"><title>Node3&#45;&gt;Node4</title>
<path fill="none" stroke="midnightblue" d="M524.095,-124.822C570.578,-115.036 654.672,-97.3322 712.604,-85.1359"/>
<polygon fill="midnightblue" stroke="midnightblue" points="713.678,-88.4867 722.742,-83.0016 712.236,-81.6368 713.678,-88.4867"/>
</g>
<!-- Node9 -->
<g id="node17" class="node"><title>Node9</title>
<polygon fill="white" stroke="#bfbfbf" points="592.5,-61 592.5,-83 633.5,-83 633.5,-61 592.5,-61"/>
<text text-anchor="middle" x="613" y="-70" font-family="FreeSans" font-size="10.00">string</text>
</g>
<!-- Node3&#45;&gt;Node9 -->
<g id="edge16" class="edge"><title>Node3&#45;&gt;Node9</title>
<path fill="none" stroke="midnightblue" d="M512.56,-120.995C532.376,-111.329 561.354,-97.1933 583.097,-86.5867"/>
<polygon fill="midnightblue" stroke="midnightblue" points="584.769,-89.6657 592.222,-82.1358 581.699,-83.3744 584.769,-89.6657"/>
</g>
<!-- Node10 -->
<g id="node19" class="node"><title>Node10</title>
<polygon fill="white" stroke="#bfbfbf" points="466.5,-61 466.5,-83 513.5,-83 513.5,-61 466.5,-61"/>
<text text-anchor="middle" x="490" y="-70" font-family="FreeSans" font-size="10.00">stdint.h</text>
</g>
<!-- Node3&#45;&gt;Node10 -->
<g id="edge18" class="edge"><title>Node3&#45;&gt;Node10</title>
<path fill="none" stroke="midnightblue" d="M490,-120.995C490,-113.311 490,-102.803 490,-93.4884"/>
<polygon fill="midnightblue" stroke="midnightblue" points="493.5,-93.3428 490,-83.3428 486.5,-93.3429 493.5,-93.3428"/>
</g>
<!-- Node5 -->
<g id="node9" class="node"><title>Node5</title>
<polygon fill="white" stroke="#bfbfbf" points="639,-1 639,-23 697,-23 697,-1 639,-1"/>
<text text-anchor="middle" x="668" y="-10" font-family="FreeSans" font-size="10.00">pthread.h</text>
</g>
<!-- Node4&#45;&gt;Node5 -->
<g id="edge8" class="edge"><title>Node4&#45;&gt;Node5</title>
<path fill="none" stroke="midnightblue" d="M755.375,-60.9951C738.962,-51.7917 715.324,-38.5366 696.772,-28.1336"/>
<polygon fill="midnightblue" stroke="midnightblue" points="698.298,-24.9766 687.863,-23.1383 694.874,-31.0822 698.298,-24.9766"/>
</g>
<!-- Node6 -->
<g id="node11" class="node"><title>Node6</title>
<polygon fill="white" stroke="#bfbfbf" points="714.5,-1 714.5,-23 765.5,-23 765.5,-1 714.5,-1"/>
<text text-anchor="middle" x="740" y="-10" font-family="FreeSans" font-size="10.00">signal.h</text>
</g>
<!-- Node4&#45;&gt;Node6 -->
<g id="edge10" class="edge"><title>Node4&#45;&gt;Node6</title>
<path fill="none" stroke="midnightblue" d="M768.58,-60.9951C763.855,-52.8936 757.297,-41.6525 751.656,-31.981"/>
<polygon fill="midnightblue" stroke="midnightblue" points="754.679,-30.2171 746.617,-23.3428 748.632,-33.7442 754.679,-30.2171"/>
</g>
<!-- Node7 -->
<g id="node13" class="node"><title>Node7</title>
<polygon fill="white" stroke="#bfbfbf" points="783,-1 783,-23 835,-23 835,-1 783,-1"/>
<text text-anchor="middle" x="809" y="-10" font-family="FreeSans" font-size="10.00">sched.h</text>
</g>
<!-- Node4&#45;&gt;Node7 -->
<g id="edge12" class="edge"><title>Node4&#45;&gt;Node7</title>
<path fill="none" stroke="midnightblue" d="M781.236,-60.9951C785.78,-52.9771 792.066,-41.884 797.508,-32.2806"/>
<polygon fill="midnightblue" stroke="midnightblue" points="800.687,-33.7686 802.572,-23.3428 794.597,-30.3175 800.687,-33.7686"/>
</g>
<!-- Node8 -->
<g id="node15" class="node"><title>Node8</title>
<polygon fill="white" stroke="#bfbfbf" points="853,-1 853,-23 903,-23 903,-1 853,-1"/>
<text text-anchor="middle" x="878" y="-10" font-family="FreeSans" font-size="10.00">unistd.h</text>
</g>
<!-- Node4&#45;&gt;Node8 -->
<g id="edge14" class="edge"><title>Node4&#45;&gt;Node8</title>
<path fill="none" stroke="midnightblue" d="M793.892,-60.9951C809.619,-51.8337 832.238,-38.6576 850.059,-28.2763"/>
<polygon fill="midnightblue" stroke="midnightblue" points="852,-31.1962 858.879,-23.1383 848.477,-25.1476 852,-31.1962"/>
</g>
<!-- Node11&#45;&gt;Node3 -->
<g id="edge22" class="edge"><title>Node11&#45;&gt;Node3</title>
<path fill="none" stroke="midnightblue" d="M513.436,-300.74C509.35,-271.319 498.301,-191.769 492.965,-153.345"/>
<polygon fill="midnightblue" stroke="midnightblue" points="496.406,-152.679 491.563,-143.256 489.472,-153.642 496.406,-152.679"/>
</g>
<!-- Node11&#45;&gt;Node12 -->
<g id="edge24" class="edge"><title>Node11&#45;&gt;Node12</title>
<path fill="none" stroke="midnightblue" d="M467.802,-305.099C407.366,-296.223 299.119,-280.192 196.946,-264.293"/>
<polygon fill="midnightblue" stroke="midnightblue" points="197.181,-260.788 186.761,-262.706 196.103,-267.704 197.181,-260.788"/>
</g>
<!-- Node11&#45;&gt;Node16 -->
<g id="edge34" class="edge"><title>Node11&#45;&gt;Node16</title>
<path fill="none" stroke="midnightblue" d="M562.274,-301.686C616.468,-289.862 704.141,-270.733 753.396,-259.986"/>
<polygon fill="midnightblue" stroke="midnightblue" points="754.274,-263.377 763.298,-257.826 752.782,-256.538 754.274,-263.377"/>
</g>
<!-- Node11&#45;&gt;Node17 -->
<g id="edge56" class="edge"><title>Node11&#45;&gt;Node17</title>
<path fill="none" stroke="midnightblue" d="M518.784,-300.926C525.649,-280.834 540.252,-238.093 548.985,-212.531"/>
<polygon fill="midnightblue" stroke="midnightblue" points="552.304,-213.642 552.225,-203.047 545.68,-211.379 552.304,-213.642"/>
</g>
<!-- Node11&#45;&gt;Node20 -->
<g id="edge52" class="edge"><title>Node11&#45;&gt;Node20</title>
<path fill="none" stroke="midnightblue" d="M498.309,-300.995C484.669,-292.002 465.162,-279.14 449.557,-268.851"/>
<polygon fill="midnightblue" stroke="midnightblue" points="451.168,-265.721 440.893,-263.138 447.315,-271.565 451.168,-265.721"/>
</g>
<!-- Node21 -->
<g id="node50" class="node"><title>Node21</title>
<polygon fill="white" stroke="#bfbfbf" points="624,-241 624,-263 660,-263 660,-241 624,-241"/>
<text text-anchor="middle" x="642" y="-250" font-family="FreeSans" font-size="10.00">map</text>
</g>
<!-- Node11&#45;&gt;Node21 -->
<g id="edge58" class="edge"><title>Node11&#45;&gt;Node21</title>
<path fill="none" stroke="midnightblue" d="M538.294,-300.995C559.848,-290.812 591.902,-275.668 614.66,-264.916"/>
<polygon fill="midnightblue" stroke="midnightblue" points="616.24,-268.041 623.787,-260.605 613.25,-261.712 616.24,-268.041"/>
</g>
<!-- Node22 -->
<g id="node52" class="node"><title>Node22</title>
<polygon fill="white" stroke="#bfbfbf" points="678,-241 678,-263 708,-263 708,-241 678,-241"/>
<text text-anchor="middle" x="693" y="-250" font-family="FreeSans" font-size="10.00">set</text>
</g>
<!-- Node11&#45;&gt;Node22 -->
<g id="edge60" class="edge"><title>Node11&#45;&gt;Node22</title>
<path fill="none" stroke="midnightblue" d="M556.814,-300.945C586.012,-292.785 625.936,-280.749 668.521,-263.805"/>
<polygon fill="midnightblue" stroke="midnightblue" points="669.978,-266.991 677.935,-259.995 667.352,-260.502 669.978,-266.991"/>
</g>
<!-- Node23 -->
<g id="node54" class="node"><title>Node23</title>
<polygon fill="white" stroke="#bfbfbf" points="556,-241 556,-263 606,-263 606,-241 556,-241"/>
<text text-anchor="middle" x="581" y="-250" font-family="FreeSans" font-size="10.00">fstream</text>
</g>
<!-- Node11&#45;&gt;Node23 -->
<g id="edge62" class="edge"><title>Node11&#45;&gt;Node23</title>
<path fill="none" stroke="midnightblue" d="M527.105,-300.995C536.568,-292.392 549.925,-280.25 560.974,-270.205"/>
<polygon fill="midnightblue" stroke="midnightblue" points="563.478,-272.659 568.523,-263.343 558.769,-267.48 563.478,-272.659"/>
</g>
<!-- Node12&#45;&gt;Node3 -->
<g id="edge26" class="edge"><title>Node12&#45;&gt;Node3</title>
<path fill="none" stroke="midnightblue" d="M108.896,-240.862C93.8033,-225.653 71.8427,-198.201 88,-180 111.463,-153.569 346.204,-139.041 445.75,-134.027"/>
<polygon fill="midnightblue" stroke="midnightblue" points="445.98,-137.52 455.795,-133.531 445.634,-130.529 445.98,-137.52"/>
</g>
<!-- Node13 -->
<g id="node27" class="node"><title>Node13</title>
<polygon fill="white" stroke="#bfbfbf" points="97,-181 97,-203 155,-203 155,-181 97,-181"/>
<text text-anchor="middle" x="126" y="-190" font-family="FreeSans" font-size="10.00">algorithm</text>
</g>
<!-- Node12&#45;&gt;Node13 -->
<g id="edge28" class="edge"><title>Node12&#45;&gt;Node13</title>
<path fill="none" stroke="midnightblue" d="M121.917,-240.995C122.557,-233.311 123.433,-222.803 124.209,-213.488"/>
<polygon fill="midnightblue" stroke="midnightblue" points="127.712,-213.599 125.055,-203.343 120.736,-213.018 127.712,-213.599"/>
</g>
<!-- Node14 -->
<g id="node29" class="node"><title>Node14</title>
<polygon fill="white" stroke="#bfbfbf" points="172.5,-181 172.5,-203 225.5,-203 225.5,-181 172.5,-181"/>
<text text-anchor="middle" x="199" y="-190" font-family="FreeSans" font-size="10.00">sstream</text>
</g>
<!-- Node12&#45;&gt;Node14 -->
<g id="edge30" class="edge"><title>Node12&#45;&gt;Node14</title>
<path fill="none" stroke="midnightblue" d="M135.306,-240.995C146.779,-232.17 163.095,-219.619 176.341,-209.43"/>
<polygon fill="midnightblue" stroke="midnightblue" points="178.728,-212.01 184.52,-203.138 174.46,-206.461 178.728,-212.01"/>
</g>
<!-- Node12&#45;&gt;Node15 -->
<g id="edge32" class="edge"><title>Node12&#45;&gt;Node15</title>
<path fill="none" stroke="midnightblue" d="M155.666,-240.995C190.626,-229.896 244.148,-212.905 278.092,-202.13"/>
<polygon fill="midnightblue" stroke="midnightblue" points="279.483,-205.36 287.955,-198.998 277.365,-198.688 279.483,-205.36"/>
</g>
<!-- Node16&#45;&gt;Node4 -->
<g id="edge36" class="edge"><title>Node16&#45;&gt;Node4</title>
<path fill="none" stroke="midnightblue" d="M794.91,-240.772C804.314,-217.646 822.763,-163.242 809,-120 805.644,-109.455 799.037,-99.2376 792.533,-90.959"/>
<polygon fill="midnightblue" stroke="midnightblue" points="795.045,-88.5074 785.933,-83.1015 789.685,-93.0098 795.045,-88.5074"/>
</g>
<!-- Node16&#45;&gt;Node15 -->
<g id="edge50" class="edge"><title>Node16&#45;&gt;Node15</title>
<path fill="none" stroke="midnightblue" d="M763.347,-247.32C749.539,-244.971 732.388,-242.171 717,-240 577.902,-220.375 411.272,-202.47 342.314,-195.305"/>
<polygon fill="midnightblue" stroke="midnightblue" points="342.412,-191.797 332.105,-194.249 341.691,-198.76 342.412,-191.797"/>
</g>
<!-- Node16&#45;&gt;Node17 -->
<g id="edge38" class="edge"><title>Node16&#45;&gt;Node17</title>
<path fill="none" stroke="midnightblue" d="M763.157,-245.117C724.491,-235.203 652.492,-216.742 604.4,-204.41"/>
<polygon fill="midnightblue" stroke="midnightblue" points="605.078,-200.971 594.522,-201.877 603.339,-207.751 605.078,-200.971"/>
</g>
<!-- Node16&#45;&gt;Node18 -->
<g id="edge42" class="edge"><title>Node16&#45;&gt;Node18</title>
<path fill="none" stroke="midnightblue" d="M788.616,-240.926C786.127,-221.012 780.856,-178.851 777.652,-153.216"/>
<polygon fill="midnightblue" stroke="midnightblue" points="781.094,-152.536 776.381,-143.047 774.148,-153.404 781.094,-152.536"/>
</g>
<!-- Node19 -->
<g id="node43" class="node"><title>Node19</title>
<polygon fill="white" stroke="#bfbfbf" points="709.5,-181 709.5,-203 762.5,-203 762.5,-181 709.5,-181"/>
<text text-anchor="middle" x="736" y="-190" font-family="FreeSans" font-size="10.00">ostream</text>
</g>
<!-- Node16&#45;&gt;Node19 -->
<g id="edge48" class="edge"><title>Node16&#45;&gt;Node19</title>
<path fill="none" stroke="midnightblue" d="M780.096,-240.995C772.504,-232.56 761.848,-220.72 752.914,-210.793"/>
<polygon fill="midnightblue" stroke="midnightblue" points="755.5,-208.434 746.209,-203.343 750.297,-213.117 755.5,-208.434"/>
</g>
<!-- Node17&#45;&gt;Node3 -->
<g id="edge40" class="edge"><title>Node17&#45;&gt;Node3</title>
<path fill="none" stroke="midnightblue" d="M543.895,-180.995C534.432,-172.392 521.075,-160.25 510.026,-150.205"/>
<polygon fill="midnightblue" stroke="midnightblue" points="512.231,-147.48 502.477,-143.343 507.522,-152.659 512.231,-147.48"/>
</g>
<!-- Node18&#45;&gt;Node4 -->
<g id="edge44" class="edge"><title>Node18&#45;&gt;Node4</title>
<path fill="none" stroke="midnightblue" d="M775,-120.995C775,-113.311 775,-102.803 775,-93.4884"/>
<polygon fill="midnightblue" stroke="midnightblue" points="778.5,-93.3428 775,-83.3428 771.5,-93.3429 778.5,-93.3428"/>
</g>
<!-- Node18&#45;&gt;Node9 -->
<g id="edge46" class="edge"><title>Node18&#45;&gt;Node9</title>
<path fill="none" stroke="midnightblue" d="M749.331,-122.493C720.634,-111.865 674.191,-94.6633 643.622,-83.3416"/>
<polygon fill="midnightblue" stroke="midnightblue" points="644.506,-79.9366 633.913,-79.7455 642.075,-86.5009 644.506,-79.9366"/>
</g>
<!-- Node20&#45;&gt;Node3 -->
<g id="edge54" class="edge"><title>Node20&#45;&gt;Node3</title>
<path fill="none" stroke="midnightblue" d="M430.091,-240.926C441.24,-220.655 465.068,-177.331 479.081,-151.853"/>
<polygon fill="midnightblue" stroke="midnightblue" points="482.171,-153.496 483.924,-143.047 476.038,-150.123 482.171,-153.496"/>
</g>
<!-- Node24&#45;&gt;Node3 -->
<g id="edge70" class="edge"><title>Node24&#45;&gt;Node3</title>
<path fill="none" stroke="midnightblue" d="M249.595,-240.873C252.493,-224.898 260.169,-195.668 279,-180 303.96,-159.233 391.416,-144.626 445.588,-137.329"/>
<polygon fill="midnightblue" stroke="midnightblue" points="446.164,-140.783 455.622,-136.009 445.251,-133.843 446.164,-140.783"/>
</g>
<!-- Node24&#45;&gt;Node15 -->
<g id="edge68" class="edge"><title>Node24&#45;&gt;Node15</title>
<path fill="none" stroke="midnightblue" d="M259.372,-240.995C268.175,-232.476 280.565,-220.485 290.885,-210.499"/>
<polygon fill="midnightblue" stroke="midnightblue" points="293.527,-212.812 298.279,-203.343 288.659,-207.782 293.527,-212.812"/>
</g>
<!-- Node26&#45;&gt;Node3 -->
<g id="edge84" class="edge"><title>Node26&#45;&gt;Node3</title>
<path fill="none" stroke="midnightblue" d="M48.0737,-300.847C44.197,-274.2 38.8836,-207.046 78,-180 107.819,-159.382 345.657,-141.5 445.801,-134.808"/>
<polygon fill="midnightblue" stroke="midnightblue" points="446.153,-138.292 455.9,-134.14 445.691,-131.307 446.153,-138.292"/>
</g>
</g>
</svg>
        <g id="navigator" transform="translate(0 0)" fill="#404254">
                <rect fill="#f2f5e9" fill-opacity="0.5" stroke="#606060" stroke-width=".5" x="0" y="0" width="60" height="60"/>
                <use id="zoomplus" xlink:href="#zoomPlus" x="17" y="9" onmousedown="handleZoom(evt,'in')"/>
                <use id="zoomminus" xlink:href="#zoomMin" x="42" y="9" onmousedown="handleZoom(evt,'out')"/>
                <use id="reset" xlink:href="#resetDef" x="30" y="36" onmousedown="handleReset()"/>
                <g id="arrowUp" xlink:href="#dirArrow" transform="translate(30 24)" onmousedown="handlePan(0,-1)">
                  <use xlink:href="#rim" fill="#404040">
                        <set attributeName="fill" to="#808080" begin="arrowUp.mouseover" end="arrowUp.mouseout"/>
                  </use>
                  <path fill="none" stroke="white" stroke-width="1.5" d="M0,-3.0v7 M-2.5,-0.5L0,-3.0L2.5,-0.5"/>
                </g>
                <g id="arrowRight" xlink:href="#dirArrow" transform="rotate(90) translate(36 -43)" onmousedown="handlePan(1,0)">
                  <use xlink:href="#rim" fill="#404040">
                        <set attributeName="fill" to="#808080" begin="arrowRight.mouseover" end="arrowRight.mouseout"/>
                  </use>
                  <path fill="none" stroke="white" stroke-width="1.5" d="M0,-3.0v7 M-2.5,-0.5L0,-3.0L2.5,-0.5"/>
                </g>
                <g id="arrowDown" xlink:href="#dirArrow" transform="rotate(180) translate(-30 -48)" onmousedown="handlePan(0,1)">
                  <use xlink:href="#rim" fill="#404040">
                        <set attributeName="fill" to="#808080" begin="arrowDown.mouseover" end="arrowDown.mouseout"/>
                  </use>
                  <path fill="none" stroke="white" stroke-width="1.5" d="M0,-3.0v7 M-2.5,-0.5L0,-3.0L2.5,-0.5"/>
                </g>
                <g id="arrowLeft" xlink:href="#dirArrow" transform="rotate(270) translate(-36 17)" onmousedown="handlePan(-1,0)">
                  <use xlink:href="#rim" fill="#404040">
                        <set attributeName="fill" to="#808080" begin="arrowLeft.mouseover" end="arrowLeft.mouseout"/>
                  </use>
                  <path fill="none" stroke="white" stroke-width="1.5" d="M0,-3.0v7 M-2.5,-0.5L0,-3.0L2.5,-0.5"/>
                </g>
        </g>
</svg>
