<?xml version="1.0" encoding="UTF-8" standalone="no"?>
<!DOCTYPE svg PUBLIC "-//W3C//DTD SVG 1.1//EN"
 "http://www.w3.org/Graphics/SVG/1.1/DTD/svg11.dtd">
<!-- Generated by graphviz version 2.26.3 (20100126.1600)
 -->
<!-- Title: G Pages: 1 -->
<!--zoomable 212 -->
<svg id="main" version="1.1" xmlns="http://www.w3.org/2000/svg" xmlns:xlink="http://www.w3.org/1999/xlink" xml:space="preserve" onload="init(evt)">
        <defs>
                <circle id="rim" cx="0" cy="0" r="7"/>
                <circle id="rim2" cx="0" cy="0" r="3.5"/>
                <g id="zoomPlus">
                        <use xlink:href="#rim" fill="#404040">
                                <set attributeName="fill" to="#808080" begin="zoomplus.mouseover" end="zoomplus.mouseout"/>
                        </use>
                        <path d="M-4,0h8M0,-4v8" fill="none" stroke="white" stroke-width="1.5" pointer-events="none"/>
                </g>
                <g id="zoomMin">
                        <use xlink:href="#rim" fill="#404040">
                                <set attributeName="fill" to="#808080" begin="zoomminus.mouseover" end="zoomminus.mouseout"/>
                        </use>
                        <path d="M-4,0h8" fill="none" stroke="white" stroke-width="1.5" pointer-events="none"/>
                </g>
                <g id="dirArrow">
                        <path fill="none" stroke="white" stroke-width="1.5" d="M0,-3.0v7 M-2.5,-0.5L0,-3.0L2.5,-0.5"/>
                </g>
               <g id="resetDef">
                       <use xlink:href="#rim2" fill="#404040">
                               <set attributeName="fill" to="#808080" begin="reset.mouseover" end="reset.mouseout"/>
                       </use>
               </g>
        </defs>

<script type="text/javascript">
var viewWidth = 869;
var viewHeight = 212;
var sectionId = 'dynsection-1';
</script>
<script xlink:href="svgpan.js"/>
<svg id="graph" class="graph">
<g id="viewport">
<title>G</title>
<polygon fill="white" stroke="white" points="-4,5 -4,-208 866,-208 866,5 -4,5"/>
<!-- Node1 -->
<g id="node1" class="node"><title>Node1</title>
<polygon fill="#bfbfbf" stroke="black" points="501.5,-181 501.5,-203 562.5,-203 562.5,-181 501.5,-181"/>
<text text-anchor="middle" x="532" y="-190" font-family="FreeSans" font-size="10.00">workunit.h</text>
</g>
<!-- Node2 -->
<g id="node3" class="node"><title>Node2</title>
<a xlink:href="asynchronousworkunit_8h.html" target="_top" xlink:title="Contains an interface for a kind of WorkUnit that loads or does other work even when the frame schedu...">
<polygon fill="white" stroke="black" points="189.5,-121 189.5,-143 312.5,-143 312.5,-121 189.5,-121"/>
<text text-anchor="middle" x="251" y="-130" font-family="FreeSans" font-size="10.00">asynchronousworkunit.h</text>
</a>
</g>
<!-- Node1&#45;&gt;Node2 -->
<g id="edge2" class="edge"><title>Node1&#45;&gt;Node2</title>
<path fill="none" stroke="midnightblue" d="M491.314,-183.313C441.511,-172.679 357.108,-154.657 302.739,-143.047"/>
<polygon fill="midnightblue" stroke="midnightblue" points="490.883,-186.799 501.393,-185.465 492.344,-179.954 490.883,-186.799"/>
</g>
<!-- Node5 -->
<g id="node9" class="node"><title>Node5</title>
<a xlink:href="dagframescheduler_8h.html" target="_top" xlink:title="This is the file that code using this library should include. It includes all the required components...">
<polygon fill="white" stroke="black" points="337,-1 337,-23 449,-23 449,-1 337,-1"/>
<text text-anchor="middle" x="393" y="-10" font-family="FreeSans" font-size="10.00">dagframescheduler.h</text>
</a>
</g>
<!-- Node1&#45;&gt;Node5 -->
<g id="edge30" class="edge"><title>Node1&#45;&gt;Node5</title>
<path fill="none" stroke="midnightblue" d="M498.22,-176.017C483.641,-167.92 467.177,-157.028 455,-144 420.595,-107.192 402.215,-47.846 395.735,-23.2435"/>
<polygon fill="midnightblue" stroke="midnightblue" points="496.991,-179.328 507.464,-180.929 500.276,-173.146 496.991,-179.328"/>
</g>
<!-- Node7 -->
<g id="node14" class="node"><title>Node7</title>
<a xlink:href="frameschedulerworkunits_8h.html" target="_top" xlink:title="This defines a number of workunits that are required for doing some tasks that the Framescheduler req...">
<polygon fill="white" stroke="black" points="464,-121 464,-143 600,-143 600,-121 464,-121"/>
<text text-anchor="middle" x="532" y="-130" font-family="FreeSans" font-size="10.00">frameschedulerworkunits.h</text>
</a>
</g>
<!-- Node1&#45;&gt;Node7 -->
<g id="edge14" class="edge"><title>Node1&#45;&gt;Node7</title>
<path fill="none" stroke="midnightblue" d="M532,-170.918C532,-161.639 532,-151.108 532,-143.343"/>
<polygon fill="midnightblue" stroke="midnightblue" points="528.5,-170.995 532,-180.995 535.5,-170.995 528.5,-170.995"/>
</g>
<!-- Node10 -->
<g id="node21" class="node"><title>Node10</title>
<a xlink:href="monopoly_8h.html" target="_top" xlink:title="Contains an interface for a kind of WorkUnit that consumes time on multiple thread.">
<polygon fill="white" stroke="black" points="641,-121 641,-143 709,-143 709,-121 641,-121"/>
<text text-anchor="middle" x="675" y="-130" font-family="FreeSans" font-size="10.00">monopoly.h</text>
</a>
</g>
<!-- Node1&#45;&gt;Node10 -->
<g id="edge22" class="edge"><title>Node1&#45;&gt;Node10</title>
<path fill="none" stroke="midnightblue" d="M567.744,-177.003C592.791,-166.493 625.722,-152.676 648.454,-143.138"/>
<polygon fill="midnightblue" stroke="midnightblue" points="566.095,-173.899 558.228,-180.995 568.804,-180.353 566.095,-173.899"/>
</g>
<!-- Node12 -->
<g id="node28" class="node"><title>Node12</title>
<a xlink:href="workunit_8cpp.html" target="_top" xlink:title="This file has the implementation of the Mezzanine::Threading::DefaultWorkUnit.">
<polygon fill="white" stroke="black" points="726.5,-121 726.5,-143 797.5,-143 797.5,-121 726.5,-121"/>
<text text-anchor="middle" x="762" y="-130" font-family="FreeSans" font-size="10.00">workunit.cpp</text>
</a>
</g>
<!-- Node1&#45;&gt;Node12 -->
<g id="edge32" class="edge"><title>Node1&#45;&gt;Node12</title>
<path fill="none" stroke="midnightblue" d="M572.728,-181.66C610.44,-172.046 668.059,-157.253 718,-144 720.755,-143.269 723.605,-142.506 726.47,-141.735"/>
<polygon fill="midnightblue" stroke="midnightblue" points="571.469,-178.369 562.643,-184.229 573.197,-185.153 571.469,-178.369"/>
</g>
<!-- Node3 -->
<g id="node5" class="node"><title>Node3</title>
<a xlink:href="asynchronousfileloadingworkunit_8h.html" target="_top" xlink:title="The declaration of the AsynchronousFileLoadWorkUnit a workunit that loads a listing of files asynchro...">
<polygon fill="white" stroke="black" points="5,-61 5,-83 175,-83 175,-61 5,-61"/>
<text text-anchor="middle" x="90" y="-70" font-family="FreeSans" font-size="10.00">asynchronousfileloadingworkunit.h</text>
</a>
</g>
<!-- Node2&#45;&gt;Node3 -->
<g id="edge4" class="edge"><title>Node2&#45;&gt;Node3</title>
<path fill="none" stroke="midnightblue" d="M211.844,-117.408C183.415,-106.813 145.546,-92.7002 119.615,-83.0366"/>
<polygon fill="midnightblue" stroke="midnightblue" points="210.877,-120.783 221.47,-120.995 213.322,-114.223 210.877,-120.783"/>
</g>
<!-- Node2&#45;&gt;Node5 -->
<g id="edge12" class="edge"><title>Node2&#45;&gt;Node5</title>
<path fill="none" stroke="midnightblue" d="M233.559,-113.011C221.606,-97.6214 209.912,-75.9483 222,-60 236.016,-41.5082 292.652,-28.1691 336.953,-20.3154"/>
<polygon fill="midnightblue" stroke="midnightblue" points="230.988,-115.393 240.077,-120.838 236.367,-110.914 230.988,-115.393"/>
</g>
<!-- Node6 -->
<g id="node11" class="node"><title>Node6</title>
<a xlink:href="asynchronousworkunit_8cpp.html" target="_top" xlink:title="Contains very little actually.">
<polygon fill="white" stroke="black" points="231,-61 231,-83 365,-83 365,-61 231,-61"/>
<text text-anchor="middle" x="298" y="-70" font-family="FreeSans" font-size="10.00">asynchronousworkunit.cpp</text>
</a>
</g>
<!-- Node2&#45;&gt;Node6 -->
<g id="edge10" class="edge"><title>Node2&#45;&gt;Node6</title>
<path fill="none" stroke="midnightblue" d="M265.873,-113.013C273.515,-103.258 282.569,-91.6991 289.115,-83.3428"/>
<polygon fill="midnightblue" stroke="midnightblue" points="263.032,-110.964 259.621,-120.995 268.542,-115.281 263.032,-110.964"/>
</g>
<!-- Node4 -->
<g id="node7" class="node"><title>Node4</title>
<a xlink:href="asynchronousfileloadingworkunit_8cpp.html" target="_top" xlink:title="The implemtation of the AsynchronousFileLoadWorkUnit a workunit that loads a listing of files asynchr...">
<polygon fill="white" stroke="black" points="0,-1 0,-23 180,-23 180,-1 0,-1"/>
<text text-anchor="middle" x="90" y="-10" font-family="FreeSans" font-size="10.00">asynchronousfileloadingworkunit.cpp</text>
</a>
</g>
<!-- Node3&#45;&gt;Node4 -->
<g id="edge6" class="edge"><title>Node3&#45;&gt;Node4</title>
<path fill="none" stroke="midnightblue" d="M90,-50.9183C90,-41.6393 90,-31.1082 90,-23.3428"/>
<polygon fill="midnightblue" stroke="midnightblue" points="86.5001,-50.995 90,-60.9951 93.5001,-50.9951 86.5001,-50.995"/>
</g>
<!-- Node3&#45;&gt;Node5 -->
<g id="edge8" class="edge"><title>Node3&#45;&gt;Node5</title>
<path fill="none" stroke="midnightblue" d="M155.433,-59.0429C209.662,-48.3045 285.907,-33.2066 337.265,-23.0366"/>
<polygon fill="midnightblue" stroke="midnightblue" points="154.705,-55.6192 145.575,-60.9951 156.064,-62.4858 154.705,-55.6192"/>
</g>
<!-- Node7&#45;&gt;Node5 -->
<g id="edge16" class="edge"><title>Node7&#45;&gt;Node5</title>
<path fill="none" stroke="midnightblue" d="M498.961,-116.295C483.221,-107.938 464.677,-96.7527 450,-84 428.699,-65.4912 409.605,-38.1575 399.849,-23.0501"/>
<polygon fill="midnightblue" stroke="midnightblue" points="497.361,-119.408 507.854,-120.879 500.569,-113.186 497.361,-119.408"/>
</g>
<!-- Node8 -->
<g id="node17" class="node"><title>Node8</title>
<a xlink:href="framescheduler_8cpp.html" target="_top" xlink:title="This is the core object implementation for this algorithm.">
<polygon fill="white" stroke="black" points="623,-61 623,-83 727,-83 727,-61 623,-61"/>
<text text-anchor="middle" x="675" y="-70" font-family="FreeSans" font-size="10.00">framescheduler.cpp</text>
</a>
</g>
<!-- Node7&#45;&gt;Node8 -->
<g id="edge18" class="edge"><title>Node7&#45;&gt;Node8</title>
<path fill="none" stroke="midnightblue" d="M567.744,-117.003C592.791,-106.493 625.722,-92.676 648.454,-83.1383"/>
<polygon fill="midnightblue" stroke="midnightblue" points="566.095,-113.899 558.228,-120.995 568.804,-120.353 566.095,-113.899"/>
</g>
<!-- Node9 -->
<g id="node19" class="node"><title>Node9</title>
<a xlink:href="frameschedulerworkunits_8cpp.html" target="_top" xlink:title="The implementation of any workunits the framescheduler needs to work correctly.">
<polygon fill="white" stroke="black" points="459,-61 459,-83 605,-83 605,-61 459,-61"/>
<text text-anchor="middle" x="532" y="-70" font-family="FreeSans" font-size="10.00">frameschedulerworkunits.cpp</text>
</a>
</g>
<!-- Node7&#45;&gt;Node9 -->
<g id="edge20" class="edge"><title>Node7&#45;&gt;Node9</title>
<path fill="none" stroke="midnightblue" d="M532,-110.918C532,-101.639 532,-91.1082 532,-83.3428"/>
<polygon fill="midnightblue" stroke="midnightblue" points="528.5,-110.995 532,-120.995 535.5,-110.995 528.5,-110.995"/>
</g>
<!-- Node10&#45;&gt;Node5 -->
<g id="edge24" class="edge"><title>Node10&#45;&gt;Node5</title>
<path fill="none" stroke="midnightblue" d="M704.487,-115.713C727.317,-101.053 752.494,-78.9625 736,-60 717.478,-38.7053 541.633,-22.8277 449.189,-15.8752"/>
<polygon fill="midnightblue" stroke="midnightblue" points="702.644,-112.738 695.944,-120.946 706.3,-118.707 702.644,-112.738"/>
</g>
<!-- Node10&#45;&gt;Node8 -->
<g id="edge26" class="edge"><title>Node10&#45;&gt;Node8</title>
<path fill="none" stroke="midnightblue" d="M675,-110.918C675,-101.639 675,-91.1082 675,-83.3428"/>
<polygon fill="midnightblue" stroke="midnightblue" points="671.5,-110.995 675,-120.995 678.5,-110.995 671.5,-110.995"/>
</g>
<!-- Node11 -->
<g id="node25" class="node"><title>Node11</title>
<a xlink:href="monopoly_8cpp.html" target="_top" xlink:title="Contains the minimal implementation for the monopoly base class.">
<polygon fill="white" stroke="black" points="782.5,-61 782.5,-83 861.5,-83 861.5,-61 782.5,-61"/>
<text text-anchor="middle" x="822" y="-70" font-family="FreeSans" font-size="10.00">monopoly.cpp</text>
</a>
</g>
<!-- Node10&#45;&gt;Node11 -->
<g id="edge28" class="edge"><title>Node10&#45;&gt;Node11</title>
<path fill="none" stroke="midnightblue" d="M711.434,-117.129C737.311,-106.567 771.491,-92.6158 794.96,-83.0366"/>
<polygon fill="midnightblue" stroke="midnightblue" points="709.898,-113.976 701.962,-120.995 712.543,-120.457 709.898,-113.976"/>
</g>
</g>
</svg>
        <g id="navigator" transform="translate(0 0)" fill="#404254">
                <rect fill="#f2f5e9" fill-opacity="0.5" stroke="#606060" stroke-width=".5" x="0" y="0" width="60" height="60"/>
                <use id="zoomplus" xlink:href="#zoomPlus" x="17" y="9" onmousedown="handleZoom(evt,'in')"/>
                <use id="zoomminus" xlink:href="#zoomMin" x="42" y="9" onmousedown="handleZoom(evt,'out')"/>
                <use id="reset" xlink:href="#resetDef" x="30" y="36" onmousedown="handleReset()"/>
                <g id="arrowUp" xlink:href="#dirArrow" transform="translate(30 24)" onmousedown="handlePan(0,-1)">
                  <use xlink:href="#rim" fill="#404040">
                        <set attributeName="fill" to="#808080" begin="arrowUp.mouseover" end="arrowUp.mouseout"/>
                  </use>
                  <path fill="none" stroke="white" stroke-width="1.5" d="M0,-3.0v7 M-2.5,-0.5L0,-3.0L2.5,-0.5"/>
                </g>
                <g id="arrowRight" xlink:href="#dirArrow" transform="rotate(90) translate(36 -43)" onmousedown="handlePan(1,0)">
                  <use xlink:href="#rim" fill="#404040">
                        <set attributeName="fill" to="#808080" begin="arrowRight.mouseover" end="arrowRight.mouseout"/>
                  </use>
                  <path fill="none" stroke="white" stroke-width="1.5" d="M0,-3.0v7 M-2.5,-0.5L0,-3.0L2.5,-0.5"/>
                </g>
                <g id="arrowDown" xlink:href="#dirArrow" transform="rotate(180) translate(-30 -48)" onmousedown="handlePan(0,1)">
                  <use xlink:href="#rim" fill="#404040">
                        <set attributeName="fill" to="#808080" begin="arrowDown.mouseover" end="arrowDown.mouseout"/>
                  </use>
                  <path fill="none" stroke="white" stroke-width="1.5" d="M0,-3.0v7 M-2.5,-0.5L0,-3.0L2.5,-0.5"/>
                </g>
                <g id="arrowLeft" xlink:href="#dirArrow" transform="rotate(270) translate(-36 17)" onmousedown="handlePan(-1,0)">
                  <use xlink:href="#rim" fill="#404040">
                        <set attributeName="fill" to="#808080" begin="arrowLeft.mouseover" end="arrowLeft.mouseout"/>
                  </use>
                  <path fill="none" stroke="white" stroke-width="1.5" d="M0,-3.0v7 M-2.5,-0.5L0,-3.0L2.5,-0.5"/>
                </g>
        </g>
</svg>
